G04 #@! TF.GenerationSoftware,KiCad,Pcbnew,(5.1.6)-1*
G04 #@! TF.CreationDate,2021-10-31T01:35:34+02:00*
G04 #@! TF.ProjectId,hamodule,68616d6f-6475-46c6-952e-6b696361645f,rev?*
G04 #@! TF.SameCoordinates,Original*
G04 #@! TF.FileFunction,Soldermask,Bot*
G04 #@! TF.FilePolarity,Negative*
%FSLAX46Y46*%
G04 Gerber Fmt 4.6, Leading zero omitted, Abs format (unit mm)*
G04 Created by KiCad (PCBNEW (5.1.6)-1) date 2021-10-31 01:35:34*
%MOMM*%
%LPD*%
G01*
G04 APERTURE LIST*
%ADD10C,1.750000*%
%ADD11R,1.750000X1.750000*%
%ADD12C,2.100000*%
%ADD13O,1.800000X1.800000*%
%ADD14R,1.800000X1.800000*%
%ADD15O,1.800000X2.100000*%
%ADD16C,1.700000*%
%ADD17R,1.700000X1.700000*%
%ADD18C,1.900000*%
%ADD19C,5.600000*%
%ADD20C,2.400000*%
%ADD21R,2.400000X2.400000*%
%ADD22O,1.800000X2.050000*%
%ADD23R,1.700000X2.500000*%
%ADD24O,1.700000X2.500000*%
%ADD25O,2.100000X2.005000*%
%ADD26R,2.100000X2.005000*%
G04 APERTURE END LIST*
D10*
X124076500Y-108568500D03*
X124076500Y-118568500D03*
X104076500Y-123568500D03*
D11*
X104076500Y-103568500D03*
G36*
G01*
X169466500Y-82333500D02*
X170766500Y-82333500D01*
G75*
G02*
X171416500Y-82983500I0J-650000D01*
G01*
X171416500Y-84783500D01*
G75*
G02*
X170766500Y-85433500I-650000J0D01*
G01*
X169466500Y-85433500D01*
G75*
G02*
X168816500Y-84783500I0J650000D01*
G01*
X168816500Y-82983500D01*
G75*
G02*
X169466500Y-82333500I650000J0D01*
G01*
G37*
G36*
G01*
X169466500Y-73633500D02*
X170766500Y-73633500D01*
G75*
G02*
X171416500Y-74283500I0J-650000D01*
G01*
X171416500Y-76083500D01*
G75*
G02*
X170766500Y-76733500I-650000J0D01*
G01*
X169466500Y-76733500D01*
G75*
G02*
X168816500Y-76083500I0J650000D01*
G01*
X168816500Y-74283500D01*
G75*
G02*
X169466500Y-73633500I650000J0D01*
G01*
G37*
G36*
G01*
X164386500Y-82333500D02*
X165686500Y-82333500D01*
G75*
G02*
X166336500Y-82983500I0J-650000D01*
G01*
X166336500Y-84783500D01*
G75*
G02*
X165686500Y-85433500I-650000J0D01*
G01*
X164386500Y-85433500D01*
G75*
G02*
X163736500Y-84783500I0J650000D01*
G01*
X163736500Y-82983500D01*
G75*
G02*
X164386500Y-82333500I650000J0D01*
G01*
G37*
G36*
G01*
X164386500Y-73633500D02*
X165686500Y-73633500D01*
G75*
G02*
X166336500Y-74283500I0J-650000D01*
G01*
X166336500Y-76083500D01*
G75*
G02*
X165686500Y-76733500I-650000J0D01*
G01*
X164386500Y-76733500D01*
G75*
G02*
X163736500Y-76083500I0J650000D01*
G01*
X163736500Y-74283500D01*
G75*
G02*
X164386500Y-73633500I650000J0D01*
G01*
G37*
G36*
G01*
X159306500Y-82333500D02*
X160606500Y-82333500D01*
G75*
G02*
X161256500Y-82983500I0J-650000D01*
G01*
X161256500Y-84783500D01*
G75*
G02*
X160606500Y-85433500I-650000J0D01*
G01*
X159306500Y-85433500D01*
G75*
G02*
X158656500Y-84783500I0J650000D01*
G01*
X158656500Y-82983500D01*
G75*
G02*
X159306500Y-82333500I650000J0D01*
G01*
G37*
G36*
G01*
X159306500Y-73633500D02*
X160606500Y-73633500D01*
G75*
G02*
X161256500Y-74283500I0J-650000D01*
G01*
X161256500Y-76083500D01*
G75*
G02*
X160606500Y-76733500I-650000J0D01*
G01*
X159306500Y-76733500D01*
G75*
G02*
X158656500Y-76083500I0J650000D01*
G01*
X158656500Y-74283500D01*
G75*
G02*
X159306500Y-73633500I650000J0D01*
G01*
G37*
G36*
G01*
X154226500Y-82333500D02*
X155526500Y-82333500D01*
G75*
G02*
X156176500Y-82983500I0J-650000D01*
G01*
X156176500Y-84783500D01*
G75*
G02*
X155526500Y-85433500I-650000J0D01*
G01*
X154226500Y-85433500D01*
G75*
G02*
X153576500Y-84783500I0J650000D01*
G01*
X153576500Y-82983500D01*
G75*
G02*
X154226500Y-82333500I650000J0D01*
G01*
G37*
G36*
G01*
X154226500Y-73633500D02*
X155526500Y-73633500D01*
G75*
G02*
X156176500Y-74283500I0J-650000D01*
G01*
X156176500Y-76083500D01*
G75*
G02*
X155526500Y-76733500I-650000J0D01*
G01*
X154226500Y-76733500D01*
G75*
G02*
X153576500Y-76083500I0J650000D01*
G01*
X153576500Y-74283500D01*
G75*
G02*
X154226500Y-73633500I650000J0D01*
G01*
G37*
D12*
X141668500Y-115125500D03*
X136588500Y-115125500D03*
D13*
X128257300Y-135928100D03*
D14*
X128257300Y-138468100D03*
D15*
X135775700Y-137071100D03*
G36*
G01*
X132375700Y-137856394D02*
X132375700Y-136285806D01*
G75*
G02*
X132640406Y-136021100I264706J0D01*
G01*
X133910994Y-136021100D01*
G75*
G02*
X134175700Y-136285806I0J-264706D01*
G01*
X134175700Y-137856394D01*
G75*
G02*
X133910994Y-138121100I-264706J0D01*
G01*
X132640406Y-138121100D01*
G75*
G02*
X132375700Y-137856394I0J264706D01*
G01*
G37*
G36*
G01*
X194033500Y-82321500D02*
X195333500Y-82321500D01*
G75*
G02*
X195983500Y-82971500I0J-650000D01*
G01*
X195983500Y-84771500D01*
G75*
G02*
X195333500Y-85421500I-650000J0D01*
G01*
X194033500Y-85421500D01*
G75*
G02*
X193383500Y-84771500I0J650000D01*
G01*
X193383500Y-82971500D01*
G75*
G02*
X194033500Y-82321500I650000J0D01*
G01*
G37*
G36*
G01*
X194033500Y-73621500D02*
X195333500Y-73621500D01*
G75*
G02*
X195983500Y-74271500I0J-650000D01*
G01*
X195983500Y-76071500D01*
G75*
G02*
X195333500Y-76721500I-650000J0D01*
G01*
X194033500Y-76721500D01*
G75*
G02*
X193383500Y-76071500I0J650000D01*
G01*
X193383500Y-74271500D01*
G75*
G02*
X194033500Y-73621500I650000J0D01*
G01*
G37*
G36*
G01*
X188953500Y-82321500D02*
X190253500Y-82321500D01*
G75*
G02*
X190903500Y-82971500I0J-650000D01*
G01*
X190903500Y-84771500D01*
G75*
G02*
X190253500Y-85421500I-650000J0D01*
G01*
X188953500Y-85421500D01*
G75*
G02*
X188303500Y-84771500I0J650000D01*
G01*
X188303500Y-82971500D01*
G75*
G02*
X188953500Y-82321500I650000J0D01*
G01*
G37*
G36*
G01*
X188953500Y-73621500D02*
X190253500Y-73621500D01*
G75*
G02*
X190903500Y-74271500I0J-650000D01*
G01*
X190903500Y-76071500D01*
G75*
G02*
X190253500Y-76721500I-650000J0D01*
G01*
X188953500Y-76721500D01*
G75*
G02*
X188303500Y-76071500I0J650000D01*
G01*
X188303500Y-74271500D01*
G75*
G02*
X188953500Y-73621500I650000J0D01*
G01*
G37*
G36*
G01*
X183873500Y-82321500D02*
X185173500Y-82321500D01*
G75*
G02*
X185823500Y-82971500I0J-650000D01*
G01*
X185823500Y-84771500D01*
G75*
G02*
X185173500Y-85421500I-650000J0D01*
G01*
X183873500Y-85421500D01*
G75*
G02*
X183223500Y-84771500I0J650000D01*
G01*
X183223500Y-82971500D01*
G75*
G02*
X183873500Y-82321500I650000J0D01*
G01*
G37*
G36*
G01*
X183873500Y-73621500D02*
X185173500Y-73621500D01*
G75*
G02*
X185823500Y-74271500I0J-650000D01*
G01*
X185823500Y-76071500D01*
G75*
G02*
X185173500Y-76721500I-650000J0D01*
G01*
X183873500Y-76721500D01*
G75*
G02*
X183223500Y-76071500I0J650000D01*
G01*
X183223500Y-74271500D01*
G75*
G02*
X183873500Y-73621500I650000J0D01*
G01*
G37*
G36*
G01*
X178793500Y-82321500D02*
X180093500Y-82321500D01*
G75*
G02*
X180743500Y-82971500I0J-650000D01*
G01*
X180743500Y-84771500D01*
G75*
G02*
X180093500Y-85421500I-650000J0D01*
G01*
X178793500Y-85421500D01*
G75*
G02*
X178143500Y-84771500I0J650000D01*
G01*
X178143500Y-82971500D01*
G75*
G02*
X178793500Y-82321500I650000J0D01*
G01*
G37*
G36*
G01*
X178793500Y-73621500D02*
X180093500Y-73621500D01*
G75*
G02*
X180743500Y-74271500I0J-650000D01*
G01*
X180743500Y-76071500D01*
G75*
G02*
X180093500Y-76721500I-650000J0D01*
G01*
X178793500Y-76721500D01*
G75*
G02*
X178143500Y-76071500I0J650000D01*
G01*
X178143500Y-74271500D01*
G75*
G02*
X178793500Y-73621500I650000J0D01*
G01*
G37*
G36*
G01*
X121206500Y-82333500D02*
X122506500Y-82333500D01*
G75*
G02*
X123156500Y-82983500I0J-650000D01*
G01*
X123156500Y-84783500D01*
G75*
G02*
X122506500Y-85433500I-650000J0D01*
G01*
X121206500Y-85433500D01*
G75*
G02*
X120556500Y-84783500I0J650000D01*
G01*
X120556500Y-82983500D01*
G75*
G02*
X121206500Y-82333500I650000J0D01*
G01*
G37*
G36*
G01*
X121206500Y-73633500D02*
X122506500Y-73633500D01*
G75*
G02*
X123156500Y-74283500I0J-650000D01*
G01*
X123156500Y-76083500D01*
G75*
G02*
X122506500Y-76733500I-650000J0D01*
G01*
X121206500Y-76733500D01*
G75*
G02*
X120556500Y-76083500I0J650000D01*
G01*
X120556500Y-74283500D01*
G75*
G02*
X121206500Y-73633500I650000J0D01*
G01*
G37*
G36*
G01*
X116126500Y-82333500D02*
X117426500Y-82333500D01*
G75*
G02*
X118076500Y-82983500I0J-650000D01*
G01*
X118076500Y-84783500D01*
G75*
G02*
X117426500Y-85433500I-650000J0D01*
G01*
X116126500Y-85433500D01*
G75*
G02*
X115476500Y-84783500I0J650000D01*
G01*
X115476500Y-82983500D01*
G75*
G02*
X116126500Y-82333500I650000J0D01*
G01*
G37*
G36*
G01*
X116126500Y-73633500D02*
X117426500Y-73633500D01*
G75*
G02*
X118076500Y-74283500I0J-650000D01*
G01*
X118076500Y-76083500D01*
G75*
G02*
X117426500Y-76733500I-650000J0D01*
G01*
X116126500Y-76733500D01*
G75*
G02*
X115476500Y-76083500I0J650000D01*
G01*
X115476500Y-74283500D01*
G75*
G02*
X116126500Y-73633500I650000J0D01*
G01*
G37*
G36*
G01*
X111046500Y-82333500D02*
X112346500Y-82333500D01*
G75*
G02*
X112996500Y-82983500I0J-650000D01*
G01*
X112996500Y-84783500D01*
G75*
G02*
X112346500Y-85433500I-650000J0D01*
G01*
X111046500Y-85433500D01*
G75*
G02*
X110396500Y-84783500I0J650000D01*
G01*
X110396500Y-82983500D01*
G75*
G02*
X111046500Y-82333500I650000J0D01*
G01*
G37*
G36*
G01*
X111046500Y-73633500D02*
X112346500Y-73633500D01*
G75*
G02*
X112996500Y-74283500I0J-650000D01*
G01*
X112996500Y-76083500D01*
G75*
G02*
X112346500Y-76733500I-650000J0D01*
G01*
X111046500Y-76733500D01*
G75*
G02*
X110396500Y-76083500I0J650000D01*
G01*
X110396500Y-74283500D01*
G75*
G02*
X111046500Y-73633500I650000J0D01*
G01*
G37*
G36*
G01*
X105966500Y-82333500D02*
X107266500Y-82333500D01*
G75*
G02*
X107916500Y-82983500I0J-650000D01*
G01*
X107916500Y-84783500D01*
G75*
G02*
X107266500Y-85433500I-650000J0D01*
G01*
X105966500Y-85433500D01*
G75*
G02*
X105316500Y-84783500I0J650000D01*
G01*
X105316500Y-82983500D01*
G75*
G02*
X105966500Y-82333500I650000J0D01*
G01*
G37*
G36*
G01*
X105966500Y-73633500D02*
X107266500Y-73633500D01*
G75*
G02*
X107916500Y-74283500I0J-650000D01*
G01*
X107916500Y-76083500D01*
G75*
G02*
X107266500Y-76733500I-650000J0D01*
G01*
X105966500Y-76733500D01*
G75*
G02*
X105316500Y-76083500I0J650000D01*
G01*
X105316500Y-74283500D01*
G75*
G02*
X105966500Y-73633500I650000J0D01*
G01*
G37*
D13*
X132372100Y-130850640D03*
D14*
X134912100Y-130850640D03*
D16*
X122872500Y-138188700D03*
D17*
X122872500Y-135688700D03*
D16*
X107759500Y-137920100D03*
D17*
X107759500Y-135420100D03*
D18*
X113916500Y-94673500D03*
X106416500Y-93040170D03*
D19*
X129171700Y-77152500D03*
D20*
X154114500Y-108013500D03*
X154114500Y-92773500D03*
X161734500Y-90233500D03*
X161734500Y-97853500D03*
D21*
X161734500Y-108013500D03*
D22*
X149288500Y-132397500D03*
X146788500Y-132397500D03*
X144288500Y-132397500D03*
G36*
G01*
X140888500Y-133157794D02*
X140888500Y-131637206D01*
G75*
G02*
X141153206Y-131372500I264706J0D01*
G01*
X142423794Y-131372500D01*
G75*
G02*
X142688500Y-131637206I0J-264706D01*
G01*
X142688500Y-133157794D01*
G75*
G02*
X142423794Y-133422500I-264706J0D01*
G01*
X141153206Y-133422500D01*
G75*
G02*
X140888500Y-133157794I0J264706D01*
G01*
G37*
D23*
X171626500Y-119427500D03*
D24*
X164006500Y-127047500D03*
X169086500Y-119427500D03*
X166546500Y-127047500D03*
X166546500Y-119427500D03*
X169086500Y-127047500D03*
X164006500Y-119427500D03*
X171626500Y-127047500D03*
D23*
X194232500Y-119427500D03*
D24*
X186612500Y-127047500D03*
X191692500Y-119427500D03*
X189152500Y-127047500D03*
X189152500Y-119427500D03*
X191692500Y-127047500D03*
X186612500Y-119427500D03*
X194232500Y-127047500D03*
D23*
X182802500Y-119427500D03*
D24*
X175182500Y-127047500D03*
X180262500Y-119427500D03*
X177722500Y-127047500D03*
X177722500Y-119427500D03*
X180262500Y-127047500D03*
X175182500Y-119427500D03*
X182802500Y-127047500D03*
D23*
X160196500Y-119427500D03*
D24*
X152576500Y-127047500D03*
X157656500Y-119427500D03*
X155116500Y-127047500D03*
X155116500Y-119427500D03*
X157656500Y-127047500D03*
X152576500Y-119427500D03*
X160196500Y-127047500D03*
D25*
X115531900Y-132778500D03*
X115531900Y-135318500D03*
D26*
X115531900Y-137858500D03*
D22*
X174060500Y-133921500D03*
X171560500Y-133921500D03*
X169060500Y-133921500D03*
G36*
G01*
X165660500Y-134681794D02*
X165660500Y-133161206D01*
G75*
G02*
X165925206Y-132896500I264706J0D01*
G01*
X167195794Y-132896500D01*
G75*
G02*
X167460500Y-133161206I0J-264706D01*
G01*
X167460500Y-134681794D01*
G75*
G02*
X167195794Y-134946500I-264706J0D01*
G01*
X165925206Y-134946500D01*
G75*
G02*
X165660500Y-134681794I0J264706D01*
G01*
G37*
D15*
X132056500Y-124269500D03*
G36*
G01*
X135456500Y-123484206D02*
X135456500Y-125054794D01*
G75*
G02*
X135191794Y-125319500I-264706J0D01*
G01*
X133921206Y-125319500D01*
G75*
G02*
X133656500Y-125054794I0J264706D01*
G01*
X133656500Y-123484206D01*
G75*
G02*
X133921206Y-123219500I264706J0D01*
G01*
X135191794Y-123219500D01*
G75*
G02*
X135456500Y-123484206I0J-264706D01*
G01*
G37*
D19*
X157924500Y-136461500D03*
X196024500Y-138493500D03*
D12*
X121856500Y-94678500D03*
X121856500Y-89598500D03*
D20*
X130111500Y-108013500D03*
X130111500Y-92773500D03*
X137731500Y-90233500D03*
X137731500Y-97853500D03*
D21*
X137731500Y-108013500D03*
D20*
X142176500Y-108013500D03*
X142176500Y-92773500D03*
X149796500Y-90233500D03*
X149796500Y-97853500D03*
D21*
X149796500Y-108013500D03*
D20*
X165671500Y-108013500D03*
X165671500Y-92773500D03*
X173291500Y-90233500D03*
X173291500Y-97853500D03*
D21*
X173291500Y-108013500D03*
M02*
