G04 #@! TF.GenerationSoftware,KiCad,Pcbnew,(5.1.12)-1*
G04 #@! TF.CreationDate,2022-01-16T14:13:14-03:00*
G04 #@! TF.ProjectId,hamodule,68616d6f-6475-46c6-952e-6b696361645f,rev?*
G04 #@! TF.SameCoordinates,Original*
G04 #@! TF.FileFunction,Legend,Top*
G04 #@! TF.FilePolarity,Positive*
%FSLAX46Y46*%
G04 Gerber Fmt 4.6, Leading zero omitted, Abs format (unit mm)*
G04 Created by KiCad (PCBNEW (5.1.12)-1) date 2022-01-16 14:13:14*
%MOMM*%
%LPD*%
G01*
G04 APERTURE LIST*
%ADD10C,0.150000*%
%ADD11C,0.120000*%
%ADD12C,0.250000*%
%ADD13C,0.010000*%
%ADD14C,0.400000*%
%ADD15C,0.127000*%
%ADD16C,0.100000*%
G04 APERTURE END LIST*
D10*
X164703166Y-124483880D02*
X165322214Y-124483880D01*
X164988880Y-124864833D01*
X165131738Y-124864833D01*
X165226976Y-124912452D01*
X165274595Y-124960071D01*
X165322214Y-125055309D01*
X165322214Y-125293404D01*
X165274595Y-125388642D01*
X165226976Y-125436261D01*
X165131738Y-125483880D01*
X164846023Y-125483880D01*
X164750785Y-125436261D01*
X164703166Y-125388642D01*
X162223895Y-124579119D02*
X162277467Y-124531500D01*
X162378657Y-124483880D01*
X162616752Y-124483880D01*
X162706038Y-124531500D01*
X162747705Y-124579119D01*
X162783419Y-124674357D01*
X162771514Y-124769595D01*
X162706038Y-124912452D01*
X162063181Y-125483880D01*
X162682229Y-125483880D01*
X155245229Y-84462880D02*
X154673800Y-84462880D01*
X154959514Y-84462880D02*
X155084514Y-83462880D01*
X154971419Y-83605738D01*
X154864276Y-83700976D01*
X154763086Y-83748595D01*
X160120895Y-83558119D02*
X160174467Y-83510500D01*
X160275657Y-83462880D01*
X160513752Y-83462880D01*
X160603038Y-83510500D01*
X160644705Y-83558119D01*
X160680419Y-83653357D01*
X160668514Y-83748595D01*
X160603038Y-83891452D01*
X159960181Y-84462880D01*
X160579229Y-84462880D01*
X170489976Y-83796214D02*
X170489976Y-84462880D01*
X170251880Y-83415261D02*
X170013785Y-84129547D01*
X170632833Y-84129547D01*
X164886166Y-83462880D02*
X165505214Y-83462880D01*
X165171880Y-83843833D01*
X165314738Y-83843833D01*
X165409976Y-83891452D01*
X165457595Y-83939071D01*
X165505214Y-84034309D01*
X165505214Y-84272404D01*
X165457595Y-84367642D01*
X165409976Y-84415261D01*
X165314738Y-84462880D01*
X165029023Y-84462880D01*
X164933785Y-84415261D01*
X164886166Y-84367642D01*
X180816214Y-105417880D02*
X180244785Y-105417880D01*
X180530500Y-105417880D02*
X180530500Y-104417880D01*
X180435261Y-104560738D01*
X180340023Y-104655976D01*
X180244785Y-104703595D01*
X190484166Y-104417880D02*
X191103214Y-104417880D01*
X190769880Y-104798833D01*
X190912738Y-104798833D01*
X191007976Y-104846452D01*
X191055595Y-104894071D01*
X191103214Y-104989309D01*
X191103214Y-105227404D01*
X191055595Y-105322642D01*
X191007976Y-105370261D01*
X190912738Y-105417880D01*
X190627023Y-105417880D01*
X190531785Y-105370261D01*
X190484166Y-105322642D01*
X160242214Y-125483880D02*
X159670785Y-125483880D01*
X159956500Y-125483880D02*
X159956500Y-124483880D01*
X159861261Y-124626738D01*
X159766023Y-124721976D01*
X159670785Y-124769595D01*
X167766976Y-124817214D02*
X167766976Y-125483880D01*
X167528880Y-124436261D02*
X167290785Y-125150547D01*
X167909833Y-125150547D01*
X185337895Y-104513119D02*
X185391467Y-104465500D01*
X185492657Y-104417880D01*
X185730752Y-104417880D01*
X185820038Y-104465500D01*
X185861705Y-104513119D01*
X185897419Y-104608357D01*
X185885514Y-104703595D01*
X185820038Y-104846452D01*
X185177181Y-105417880D01*
X185796229Y-105417880D01*
X196087976Y-104878214D02*
X196087976Y-105544880D01*
X195849880Y-104497261D02*
X195611785Y-105211547D01*
X196230833Y-105211547D01*
X171124571Y-124245238D02*
X171124571Y-123911904D01*
X171648380Y-123769047D02*
X171648380Y-124245238D01*
X170648380Y-124245238D01*
X170648380Y-123769047D01*
X171600761Y-123388095D02*
X171648380Y-123245238D01*
X171648380Y-123007142D01*
X171600761Y-122911904D01*
X171553142Y-122864285D01*
X171457904Y-122816666D01*
X171362666Y-122816666D01*
X171267428Y-122864285D01*
X171219809Y-122911904D01*
X171172190Y-123007142D01*
X171124571Y-123197619D01*
X171076952Y-123292857D01*
X171029333Y-123340476D01*
X170934095Y-123388095D01*
X170838857Y-123388095D01*
X170743619Y-123340476D01*
X170696000Y-123292857D01*
X170648380Y-123197619D01*
X170648380Y-122959523D01*
X170696000Y-122816666D01*
X171648380Y-122388095D02*
X170648380Y-122388095D01*
X170648380Y-122007142D01*
X170696000Y-121911904D01*
X170743619Y-121864285D01*
X170838857Y-121816666D01*
X170981714Y-121816666D01*
X171076952Y-121864285D01*
X171124571Y-121911904D01*
X171172190Y-122007142D01*
X171172190Y-122388095D01*
X171648380Y-120054761D02*
X171172190Y-120388095D01*
X171648380Y-120626190D02*
X170648380Y-120626190D01*
X170648380Y-120245238D01*
X170696000Y-120150000D01*
X170743619Y-120102380D01*
X170838857Y-120054761D01*
X170981714Y-120054761D01*
X171076952Y-120102380D01*
X171124571Y-120150000D01*
X171172190Y-120245238D01*
X171172190Y-120626190D01*
X171600761Y-119245238D02*
X171648380Y-119340476D01*
X171648380Y-119530952D01*
X171600761Y-119626190D01*
X171505523Y-119673809D01*
X171124571Y-119673809D01*
X171029333Y-119626190D01*
X170981714Y-119530952D01*
X170981714Y-119340476D01*
X171029333Y-119245238D01*
X171124571Y-119197619D01*
X171219809Y-119197619D01*
X171315047Y-119673809D01*
X171648380Y-118626190D02*
X171600761Y-118721428D01*
X171505523Y-118769047D01*
X170648380Y-118769047D01*
X171648380Y-117816666D02*
X171124571Y-117816666D01*
X171029333Y-117864285D01*
X170981714Y-117959523D01*
X170981714Y-118150000D01*
X171029333Y-118245238D01*
X171600761Y-117816666D02*
X171648380Y-117911904D01*
X171648380Y-118150000D01*
X171600761Y-118245238D01*
X171505523Y-118292857D01*
X171410285Y-118292857D01*
X171315047Y-118245238D01*
X171267428Y-118150000D01*
X171267428Y-117911904D01*
X171219809Y-117816666D01*
X170981714Y-117435714D02*
X171648380Y-117197619D01*
X170981714Y-116959523D02*
X171648380Y-117197619D01*
X171886476Y-117292857D01*
X171934095Y-117340476D01*
X171981714Y-117435714D01*
X126352690Y-137585404D02*
X125971738Y-137585404D01*
X125971738Y-136785404D01*
X126619357Y-137585404D02*
X126619357Y-136785404D01*
X126809833Y-136785404D01*
X126924119Y-136823500D01*
X127000309Y-136899690D01*
X127038404Y-136975880D01*
X127076500Y-137128261D01*
X127076500Y-137242547D01*
X127038404Y-137394928D01*
X127000309Y-137471119D01*
X126924119Y-137547309D01*
X126809833Y-137585404D01*
X126619357Y-137585404D01*
X127838404Y-137585404D02*
X127381261Y-137585404D01*
X127609833Y-137585404D02*
X127609833Y-136785404D01*
X127533642Y-136899690D01*
X127457452Y-136975880D01*
X127381261Y-137013976D01*
X128600309Y-137585404D02*
X128143166Y-137585404D01*
X128371738Y-137585404D02*
X128371738Y-136785404D01*
X128295547Y-136899690D01*
X128219357Y-136975880D01*
X128143166Y-137013976D01*
X129362214Y-137585404D02*
X128905071Y-137585404D01*
X129133642Y-137585404D02*
X129133642Y-136785404D01*
X129057452Y-136899690D01*
X128981261Y-136975880D01*
X128905071Y-137013976D01*
X129628880Y-136785404D02*
X130162214Y-136785404D01*
X129819357Y-137585404D01*
X130428880Y-137356833D02*
X130809833Y-137356833D01*
X130352690Y-137585404D02*
X130619357Y-136785404D01*
X130886023Y-137585404D01*
X131038404Y-136785404D02*
X131305071Y-137585404D01*
X131571738Y-136785404D01*
X131762214Y-136785404D02*
X132257452Y-136785404D01*
X131990785Y-137090166D01*
X132105071Y-137090166D01*
X132181261Y-137128261D01*
X132219357Y-137166357D01*
X132257452Y-137242547D01*
X132257452Y-137433023D01*
X132219357Y-137509214D01*
X132181261Y-137547309D01*
X132105071Y-137585404D01*
X131876500Y-137585404D01*
X131800309Y-137547309D01*
X131762214Y-137509214D01*
X132524119Y-136785404D02*
X133019357Y-136785404D01*
X132752690Y-137090166D01*
X132866976Y-137090166D01*
X132943166Y-137128261D01*
X132981261Y-137166357D01*
X133019357Y-137242547D01*
X133019357Y-137433023D01*
X132981261Y-137509214D01*
X132943166Y-137547309D01*
X132866976Y-137585404D01*
X132638404Y-137585404D01*
X132562214Y-137547309D01*
X132524119Y-137509214D01*
X147306285Y-83573880D02*
X146830095Y-83573880D01*
X146830095Y-82573880D01*
X141269476Y-83573880D02*
X141269476Y-82573880D01*
X141840904Y-83573880D01*
X141840904Y-82573880D01*
X146318500Y-134841500D02*
X146251833Y-134808166D01*
X146151833Y-134808166D01*
X146051833Y-134841500D01*
X145985166Y-134908166D01*
X145951833Y-134974833D01*
X145918500Y-135108166D01*
X145918500Y-135208166D01*
X145951833Y-135341500D01*
X145985166Y-135408166D01*
X146051833Y-135474833D01*
X146151833Y-135508166D01*
X146218500Y-135508166D01*
X146318500Y-135474833D01*
X146351833Y-135441500D01*
X146351833Y-135208166D01*
X146218500Y-135208166D01*
X146651833Y-135508166D02*
X146651833Y-134808166D01*
X147051833Y-135508166D01*
X147051833Y-134808166D01*
X147385166Y-135508166D02*
X147385166Y-134808166D01*
X147551833Y-134808166D01*
X147651833Y-134841500D01*
X147718500Y-134908166D01*
X147751833Y-134974833D01*
X147785166Y-135108166D01*
X147785166Y-135208166D01*
X147751833Y-135341500D01*
X147718500Y-135408166D01*
X147651833Y-135474833D01*
X147551833Y-135508166D01*
X147385166Y-135508166D01*
X149485166Y-134808166D02*
X149151833Y-134808166D01*
X149118500Y-135141500D01*
X149151833Y-135108166D01*
X149218500Y-135074833D01*
X149385166Y-135074833D01*
X149451833Y-135108166D01*
X149485166Y-135141500D01*
X149518500Y-135208166D01*
X149518500Y-135374833D01*
X149485166Y-135441500D01*
X149451833Y-135474833D01*
X149385166Y-135508166D01*
X149218500Y-135508166D01*
X149151833Y-135474833D01*
X149118500Y-135441500D01*
X149718500Y-134808166D02*
X149951833Y-135508166D01*
X150185166Y-134808166D01*
X194873976Y-83796214D02*
X194873976Y-84462880D01*
X194635880Y-83415261D02*
X194397785Y-84129547D01*
X195016833Y-84129547D01*
X189270166Y-83462880D02*
X189889214Y-83462880D01*
X189555880Y-83843833D01*
X189698738Y-83843833D01*
X189793976Y-83891452D01*
X189841595Y-83939071D01*
X189889214Y-84034309D01*
X189889214Y-84272404D01*
X189841595Y-84367642D01*
X189793976Y-84415261D01*
X189698738Y-84462880D01*
X189413023Y-84462880D01*
X189317785Y-84415261D01*
X189270166Y-84367642D01*
X184504895Y-83558119D02*
X184558467Y-83510500D01*
X184659657Y-83462880D01*
X184897752Y-83462880D01*
X184987038Y-83510500D01*
X185028705Y-83558119D01*
X185064419Y-83653357D01*
X185052514Y-83748595D01*
X184987038Y-83891452D01*
X184344181Y-84462880D01*
X184963229Y-84462880D01*
X179629229Y-84462880D02*
X179057800Y-84462880D01*
X179343514Y-84462880D02*
X179468514Y-83462880D01*
X179355419Y-83605738D01*
X179248276Y-83700976D01*
X179147086Y-83748595D01*
X189183071Y-150391880D02*
X189516404Y-151391880D01*
X189849738Y-150391880D01*
X190183071Y-151296642D02*
X190230690Y-151344261D01*
X190183071Y-151391880D01*
X190135452Y-151344261D01*
X190183071Y-151296642D01*
X190183071Y-151391880D01*
X190611642Y-150487119D02*
X190659261Y-150439500D01*
X190754500Y-150391880D01*
X190992595Y-150391880D01*
X191087833Y-150439500D01*
X191135452Y-150487119D01*
X191183071Y-150582357D01*
X191183071Y-150677595D01*
X191135452Y-150820452D01*
X190564023Y-151391880D01*
X191183071Y-151391880D01*
X191802119Y-150391880D02*
X191897357Y-150391880D01*
X191992595Y-150439500D01*
X192040214Y-150487119D01*
X192087833Y-150582357D01*
X192135452Y-150772833D01*
X192135452Y-151010928D01*
X192087833Y-151201404D01*
X192040214Y-151296642D01*
X191992595Y-151344261D01*
X191897357Y-151391880D01*
X191802119Y-151391880D01*
X191706880Y-151344261D01*
X191659261Y-151296642D01*
X191611642Y-151201404D01*
X191564023Y-151010928D01*
X191564023Y-150772833D01*
X191611642Y-150582357D01*
X191659261Y-150487119D01*
X191706880Y-150439500D01*
X191802119Y-150391880D01*
X192516404Y-150487119D02*
X192564023Y-150439500D01*
X192659261Y-150391880D01*
X192897357Y-150391880D01*
X192992595Y-150439500D01*
X193040214Y-150487119D01*
X193087833Y-150582357D01*
X193087833Y-150677595D01*
X193040214Y-150820452D01*
X192468785Y-151391880D01*
X193087833Y-151391880D01*
X193468785Y-150487119D02*
X193516404Y-150439500D01*
X193611642Y-150391880D01*
X193849738Y-150391880D01*
X193944976Y-150439500D01*
X193992595Y-150487119D01*
X194040214Y-150582357D01*
X194040214Y-150677595D01*
X193992595Y-150820452D01*
X193421166Y-151391880D01*
X194040214Y-151391880D01*
X194659261Y-150391880D02*
X194754500Y-150391880D01*
X194849738Y-150439500D01*
X194897357Y-150487119D01*
X194944976Y-150582357D01*
X194992595Y-150772833D01*
X194992595Y-151010928D01*
X194944976Y-151201404D01*
X194897357Y-151296642D01*
X194849738Y-151344261D01*
X194754500Y-151391880D01*
X194659261Y-151391880D01*
X194564023Y-151344261D01*
X194516404Y-151296642D01*
X194468785Y-151201404D01*
X194421166Y-151010928D01*
X194421166Y-150772833D01*
X194468785Y-150582357D01*
X194516404Y-150487119D01*
X194564023Y-150439500D01*
X194659261Y-150391880D01*
X195944976Y-151391880D02*
X195373547Y-151391880D01*
X195659261Y-151391880D02*
X195659261Y-150391880D01*
X195564023Y-150534738D01*
X195468785Y-150629976D01*
X195373547Y-150677595D01*
X196897357Y-151391880D02*
X196325928Y-151391880D01*
X196611642Y-151391880D02*
X196611642Y-150391880D01*
X196516404Y-150534738D01*
X196421166Y-150629976D01*
X196325928Y-150677595D01*
X197754500Y-150391880D02*
X197564023Y-150391880D01*
X197468785Y-150439500D01*
X197421166Y-150487119D01*
X197325928Y-150629976D01*
X197278309Y-150820452D01*
X197278309Y-151201404D01*
X197325928Y-151296642D01*
X197373547Y-151344261D01*
X197468785Y-151391880D01*
X197659261Y-151391880D01*
X197754500Y-151344261D01*
X197802119Y-151296642D01*
X197849738Y-151201404D01*
X197849738Y-150963309D01*
X197802119Y-150868071D01*
X197754500Y-150820452D01*
X197659261Y-150772833D01*
X197468785Y-150772833D01*
X197373547Y-150820452D01*
X197325928Y-150868071D01*
X197278309Y-150963309D01*
X198278309Y-151296642D02*
X198325928Y-151344261D01*
X198278309Y-151391880D01*
X198230690Y-151344261D01*
X198278309Y-151296642D01*
X198278309Y-151391880D01*
X198944976Y-150391880D02*
X199040214Y-150391880D01*
X199135452Y-150439500D01*
X199183071Y-150487119D01*
X199230690Y-150582357D01*
X199278309Y-150772833D01*
X199278309Y-151010928D01*
X199230690Y-151201404D01*
X199183071Y-151296642D01*
X199135452Y-151344261D01*
X199040214Y-151391880D01*
X198944976Y-151391880D01*
X198849738Y-151344261D01*
X198802119Y-151296642D01*
X198754500Y-151201404D01*
X198706880Y-151010928D01*
X198706880Y-150772833D01*
X198754500Y-150582357D01*
X198802119Y-150487119D01*
X198849738Y-150439500D01*
X198944976Y-150391880D01*
X199611642Y-150391880D02*
X200278309Y-150391880D01*
X199849738Y-151391880D01*
D11*
X141412500Y-139528767D02*
X141412500Y-139236233D01*
X142432500Y-139528767D02*
X142432500Y-139236233D01*
X195777436Y-121073500D02*
X196981564Y-121073500D01*
X195777436Y-122893500D02*
X196981564Y-122893500D01*
X191393564Y-122893500D02*
X190189436Y-122893500D01*
X191393564Y-121073500D02*
X190189436Y-121073500D01*
X180269564Y-122893500D02*
X179065436Y-122893500D01*
X180269564Y-121073500D02*
X179065436Y-121073500D01*
X184601436Y-121073500D02*
X185805564Y-121073500D01*
X184601436Y-122893500D02*
X185805564Y-122893500D01*
X167123700Y-140467936D02*
X167123700Y-141672064D01*
X168943700Y-140467936D02*
X168943700Y-141672064D01*
X163733633Y-127598900D02*
X164076167Y-127598900D01*
X163733633Y-126578900D02*
X164076167Y-126578900D01*
X164053367Y-128190500D02*
X163710833Y-128190500D01*
X164053367Y-129210500D02*
X163710833Y-129210500D01*
X195887233Y-116397500D02*
X196179767Y-116397500D01*
X195887233Y-115377500D02*
X196179767Y-115377500D01*
X191099767Y-115377500D02*
X190807233Y-115377500D01*
X191099767Y-116397500D02*
X190807233Y-116397500D01*
X184711233Y-116397500D02*
X185003767Y-116397500D01*
X184711233Y-115377500D02*
X185003767Y-115377500D01*
X179905767Y-115377500D02*
X179613233Y-115377500D01*
X179905767Y-116397500D02*
X179613233Y-116397500D01*
X131252500Y-145468233D02*
X131252500Y-145760767D01*
X132272500Y-145468233D02*
X132272500Y-145760767D01*
X132272500Y-139664767D02*
X132272500Y-139372233D01*
X131252500Y-139664767D02*
X131252500Y-139372233D01*
X169606500Y-113718233D02*
X169606500Y-114010767D01*
X170626500Y-113718233D02*
X170626500Y-114010767D01*
X190302267Y-127446500D02*
X190009733Y-127446500D01*
X190302267Y-126426500D02*
X190009733Y-126426500D01*
X193364733Y-126426500D02*
X193657267Y-126426500D01*
X193364733Y-127446500D02*
X193657267Y-127446500D01*
X157541500Y-138120167D02*
X157541500Y-137827633D01*
X158561500Y-138120167D02*
X158561500Y-137827633D01*
X166186000Y-139529500D02*
X166186000Y-138804500D01*
X160966000Y-144024500D02*
X161691000Y-144024500D01*
X160966000Y-143299500D02*
X160966000Y-144024500D01*
X160966000Y-138804500D02*
X161691000Y-138804500D01*
X160966000Y-139529500D02*
X160966000Y-138804500D01*
X166186000Y-144024500D02*
X165461000Y-144024500D01*
X166186000Y-143299500D02*
X166186000Y-144024500D01*
X180805064Y-147537500D02*
X180350936Y-147537500D01*
X180805064Y-149007500D02*
X180350936Y-149007500D01*
X180805064Y-149569500D02*
X180350936Y-149569500D01*
X180805064Y-151039500D02*
X180350936Y-151039500D01*
X177677500Y-98008936D02*
X177677500Y-102113064D01*
X181097500Y-98008936D02*
X181097500Y-102113064D01*
X155409000Y-140896500D02*
X155409000Y-143446500D01*
X153709000Y-140896500D02*
X153709000Y-143446500D01*
X155409000Y-140896500D02*
X153709000Y-140896500D01*
X165085300Y-136380433D02*
X165085300Y-136722967D01*
X166105300Y-136380433D02*
X166105300Y-136722967D01*
X157446767Y-141793500D02*
X157104233Y-141793500D01*
X157446767Y-142813500D02*
X157104233Y-142813500D01*
X157104233Y-141289500D02*
X157446767Y-141289500D01*
X157104233Y-140269500D02*
X157446767Y-140269500D01*
X157446767Y-143317500D02*
X157104233Y-143317500D01*
X157446767Y-144337500D02*
X157104233Y-144337500D01*
X170693300Y-135252300D02*
X172153300Y-135252300D01*
X170693300Y-138412300D02*
X172853300Y-138412300D01*
X170693300Y-138412300D02*
X170693300Y-137482300D01*
X170693300Y-135252300D02*
X170693300Y-136182300D01*
X187217500Y-149904000D02*
X187217500Y-148844000D01*
X188277500Y-149904000D02*
X187217500Y-149904000D01*
X189277500Y-149904000D02*
X189277500Y-147784000D01*
X189277500Y-147784000D02*
X191337500Y-147784000D01*
X189277500Y-149904000D02*
X191337500Y-149904000D01*
X191337500Y-149904000D02*
X191337500Y-147784000D01*
X181911500Y-126282000D02*
X181911500Y-124162000D01*
X181911500Y-126282000D02*
X187971500Y-126282000D01*
X187971500Y-126282000D02*
X187971500Y-124162000D01*
X181911500Y-124162000D02*
X187971500Y-124162000D01*
X179851500Y-124162000D02*
X180911500Y-124162000D01*
X179851500Y-125222000D02*
X179851500Y-124162000D01*
X160149000Y-138130667D02*
X160149000Y-137838133D01*
X159129000Y-138130667D02*
X159129000Y-137838133D01*
X158305000Y-146564000D02*
X158305000Y-147014000D01*
X158305000Y-146564000D02*
X158755000Y-146564000D01*
X163905000Y-147114000D02*
X163455000Y-147114000D01*
X163905000Y-148964000D02*
X163905000Y-147114000D01*
X156105000Y-151514000D02*
X156105000Y-151264000D01*
X163905000Y-151514000D02*
X163905000Y-151264000D01*
X156105000Y-148964000D02*
X156105000Y-147114000D01*
X156105000Y-147114000D02*
X156555000Y-147114000D01*
X176510500Y-128366500D02*
X175730500Y-128366500D01*
X175730500Y-128366500D02*
X175730500Y-129366500D01*
X176510500Y-146606500D02*
X175730500Y-146606500D01*
X175730500Y-146606500D02*
X175730500Y-145606500D01*
X201475500Y-128366500D02*
X201475500Y-146606500D01*
X201475500Y-146606500D02*
X195055500Y-146606500D01*
X201475500Y-128366500D02*
X195055500Y-128366500D01*
X195055500Y-128366500D02*
X195055500Y-127986500D01*
X157226500Y-117582500D02*
X157226500Y-118832500D01*
X158476500Y-117582500D02*
X157226500Y-117582500D01*
X169376500Y-123082500D02*
X163826500Y-123082500D01*
X169376500Y-120132500D02*
X169376500Y-123082500D01*
X170126500Y-120132500D02*
X169376500Y-120132500D01*
X158276500Y-123082500D02*
X163826500Y-123082500D01*
X158276500Y-120132500D02*
X158276500Y-123082500D01*
X157526500Y-120132500D02*
X158276500Y-120132500D01*
X170126500Y-117882500D02*
X168326500Y-117882500D01*
X170126500Y-118632500D02*
X170126500Y-117882500D01*
X168326500Y-118632500D02*
X170126500Y-118632500D01*
X168326500Y-117882500D02*
X168326500Y-118632500D01*
X159326500Y-117882500D02*
X157526500Y-117882500D01*
X159326500Y-118632500D02*
X159326500Y-117882500D01*
X157526500Y-118632500D02*
X159326500Y-118632500D01*
X157526500Y-117882500D02*
X157526500Y-118632500D01*
X166826500Y-117882500D02*
X160826500Y-117882500D01*
X166826500Y-118632500D02*
X166826500Y-117882500D01*
X160826500Y-118632500D02*
X166826500Y-118632500D01*
X160826500Y-117882500D02*
X160826500Y-118632500D01*
X170136500Y-117872500D02*
X157516500Y-117872500D01*
X170136500Y-123842500D02*
X170136500Y-117872500D01*
X157516500Y-123842500D02*
X170136500Y-123842500D01*
X157516500Y-117872500D02*
X157516500Y-123842500D01*
X189997233Y-124902500D02*
X190339767Y-124902500D01*
X189997233Y-125922500D02*
X190339767Y-125922500D01*
X193375233Y-125922500D02*
X193667767Y-125922500D01*
X193375233Y-124902500D02*
X193667767Y-124902500D01*
X156651500Y-145005500D02*
X158501500Y-145005500D01*
X156651500Y-146205500D02*
X158501500Y-146205500D01*
X158501500Y-146205500D02*
X158501500Y-145005500D01*
X162753500Y-146205500D02*
X160903500Y-146205500D01*
X162753500Y-145005500D02*
X160903500Y-145005500D01*
X160903500Y-145005500D02*
X160903500Y-146205500D01*
X154213000Y-148337500D02*
X154213000Y-146487500D01*
X155413000Y-148337500D02*
X155413000Y-146487500D01*
X155413000Y-146487500D02*
X154213000Y-146487500D01*
X160281500Y-132157500D02*
X160281500Y-130697500D01*
X163441500Y-132157500D02*
X163441500Y-129997500D01*
X163441500Y-132157500D02*
X162511500Y-132157500D01*
X160281500Y-132157500D02*
X161211500Y-132157500D01*
X164157500Y-132125500D02*
X164157500Y-130665500D01*
X167317500Y-132125500D02*
X167317500Y-129965500D01*
X167317500Y-132125500D02*
X166387500Y-132125500D01*
X164157500Y-132125500D02*
X165087500Y-132125500D01*
X154315500Y-130418500D02*
X154805500Y-130908500D01*
X154315500Y-127518500D02*
X154315500Y-130418500D01*
X154315500Y-127518500D02*
X154805500Y-127028500D01*
X159755500Y-127518500D02*
X159755500Y-130418500D01*
X159755500Y-127518500D02*
X159265500Y-127028500D01*
X155995500Y-131688500D02*
X158075500Y-131688500D01*
X159755500Y-130418500D02*
X159265500Y-130908500D01*
X155995500Y-126248500D02*
X158075500Y-126248500D01*
X173725500Y-127391500D02*
X173235500Y-126901500D01*
X173725500Y-130291500D02*
X173725500Y-127391500D01*
X173725500Y-130291500D02*
X173235500Y-130781500D01*
X168285500Y-130291500D02*
X168285500Y-127391500D01*
X168285500Y-130291500D02*
X168775500Y-130781500D01*
X172045500Y-126121500D02*
X169965500Y-126121500D01*
X168285500Y-127391500D02*
X168775500Y-126901500D01*
X172045500Y-131561500D02*
X169965500Y-131561500D01*
X198684500Y-120121500D02*
X198684500Y-109621500D01*
X188284500Y-120121500D02*
X198684500Y-120121500D01*
X188284500Y-109621500D02*
X188284500Y-120121500D01*
X198684500Y-109621500D02*
X188284500Y-109621500D01*
X198624500Y-117121500D02*
X198624500Y-115871500D01*
X188344500Y-117121500D02*
X198624500Y-117121500D01*
X188344500Y-112621500D02*
X188344500Y-117121500D01*
X198624500Y-112621500D02*
X188344500Y-112621500D01*
X198624500Y-113871500D02*
X198624500Y-112621500D01*
X198624500Y-115871500D02*
G75*
G02*
X198624500Y-113871500I0J1000000D01*
G01*
X187508500Y-120121500D02*
X187508500Y-109621500D01*
X177108500Y-120121500D02*
X187508500Y-120121500D01*
X177108500Y-109621500D02*
X177108500Y-120121500D01*
X187508500Y-109621500D02*
X177108500Y-109621500D01*
X187448500Y-117121500D02*
X187448500Y-115871500D01*
X177168500Y-117121500D02*
X187448500Y-117121500D01*
X177168500Y-112621500D02*
X177168500Y-117121500D01*
X187448500Y-112621500D02*
X177168500Y-112621500D01*
X187448500Y-113871500D02*
X187448500Y-112621500D01*
X187448500Y-115871500D02*
G75*
G02*
X187448500Y-113871500I0J1000000D01*
G01*
X193044500Y-89898936D02*
X193044500Y-94003064D01*
X196464500Y-89898936D02*
X196464500Y-94003064D01*
X187964500Y-89898936D02*
X187964500Y-94003064D01*
X191384500Y-89898936D02*
X191384500Y-94003064D01*
X193044500Y-98026936D02*
X193044500Y-102131064D01*
X196464500Y-98026936D02*
X196464500Y-102131064D01*
X187964500Y-98011236D02*
X187964500Y-102115364D01*
X191384500Y-98011236D02*
X191384500Y-102115364D01*
X199374902Y-79057500D02*
G75*
G03*
X199374902Y-79057500I-381000J0D01*
G01*
X197215902Y-82084500D02*
X197215902Y-62628100D01*
X174559102Y-82084500D02*
X197215902Y-82084500D01*
X174559102Y-62628100D02*
X174559102Y-82084500D01*
X197215902Y-62628100D02*
X174559102Y-62628100D01*
X151734503Y-79057500D02*
G75*
G03*
X151734503Y-79057500I-381000J0D01*
G01*
X149575502Y-82084500D02*
X149575502Y-62628100D01*
X136921502Y-82084500D02*
X149575502Y-82084500D01*
X136921502Y-62628100D02*
X136921502Y-82084500D01*
X149575502Y-62628100D02*
X136921502Y-62628100D01*
X175103902Y-79057500D02*
G75*
G03*
X175103902Y-79057500I-381000J0D01*
G01*
X172944902Y-82084500D02*
X172944902Y-62628100D01*
X150288102Y-82084500D02*
X172944902Y-82084500D01*
X150288102Y-62628100D02*
X150288102Y-82084500D01*
X172944902Y-62628100D02*
X150288102Y-62628100D01*
D10*
X158686000Y-107832499D02*
X153586000Y-107832499D01*
X158686000Y-107832499D02*
X158686000Y-87532499D01*
X158686000Y-87532499D02*
X155911000Y-87532499D01*
X153586000Y-94977500D02*
X153586000Y-89807500D01*
X153586000Y-107832499D02*
X153586000Y-97427500D01*
D12*
X154821000Y-108642499D02*
G75*
G03*
X154821000Y-108642499I-125000J0D01*
G01*
D10*
X174825500Y-107813000D02*
X169725500Y-107813000D01*
X174825500Y-107813000D02*
X174825500Y-87513000D01*
X174825500Y-87513000D02*
X172050500Y-87513000D01*
X169725500Y-94958001D02*
X169725500Y-89788001D01*
X169725500Y-107813000D02*
X169725500Y-97408001D01*
D12*
X170960500Y-108623000D02*
G75*
G03*
X170960500Y-108623000I-125000J0D01*
G01*
D10*
X169428000Y-107813000D02*
X164328000Y-107813000D01*
X169428000Y-107813000D02*
X169428000Y-87513000D01*
X169428000Y-87513000D02*
X166653000Y-87513000D01*
X164328000Y-94958001D02*
X164328000Y-89788001D01*
X164328000Y-107813000D02*
X164328000Y-97408001D01*
D12*
X165563000Y-108623000D02*
G75*
G03*
X165563000Y-108623000I-125000J0D01*
G01*
D10*
X164083500Y-107813000D02*
X158983500Y-107813000D01*
X164083500Y-107813000D02*
X164083500Y-87513000D01*
X164083500Y-87513000D02*
X161308500Y-87513000D01*
X158983500Y-94958001D02*
X158983500Y-89788001D01*
X158983500Y-107813000D02*
X158983500Y-97408001D01*
D12*
X160218500Y-108623000D02*
G75*
G03*
X160218500Y-108623000I-125000J0D01*
G01*
D11*
X139604500Y-145839500D02*
G75*
G03*
X139604500Y-145839500I-3270000J0D01*
G01*
X139564500Y-145839500D02*
X133104500Y-145839500D01*
X139564500Y-145879500D02*
X133104500Y-145879500D01*
X139564500Y-145919500D02*
X133104500Y-145919500D01*
X139562500Y-145959500D02*
X133106500Y-145959500D01*
X139561500Y-145999500D02*
X133107500Y-145999500D01*
X139558500Y-146039500D02*
X133110500Y-146039500D01*
X139556500Y-146079500D02*
X137374500Y-146079500D01*
X135294500Y-146079500D02*
X133112500Y-146079500D01*
X139552500Y-146119500D02*
X137374500Y-146119500D01*
X135294500Y-146119500D02*
X133116500Y-146119500D01*
X139549500Y-146159500D02*
X137374500Y-146159500D01*
X135294500Y-146159500D02*
X133119500Y-146159500D01*
X139545500Y-146199500D02*
X137374500Y-146199500D01*
X135294500Y-146199500D02*
X133123500Y-146199500D01*
X139540500Y-146239500D02*
X137374500Y-146239500D01*
X135294500Y-146239500D02*
X133128500Y-146239500D01*
X139535500Y-146279500D02*
X137374500Y-146279500D01*
X135294500Y-146279500D02*
X133133500Y-146279500D01*
X139529500Y-146319500D02*
X137374500Y-146319500D01*
X135294500Y-146319500D02*
X133139500Y-146319500D01*
X139523500Y-146359500D02*
X137374500Y-146359500D01*
X135294500Y-146359500D02*
X133145500Y-146359500D01*
X139516500Y-146399500D02*
X137374500Y-146399500D01*
X135294500Y-146399500D02*
X133152500Y-146399500D01*
X139509500Y-146439500D02*
X137374500Y-146439500D01*
X135294500Y-146439500D02*
X133159500Y-146439500D01*
X139501500Y-146479500D02*
X137374500Y-146479500D01*
X135294500Y-146479500D02*
X133167500Y-146479500D01*
X139493500Y-146519500D02*
X137374500Y-146519500D01*
X135294500Y-146519500D02*
X133175500Y-146519500D01*
X139484500Y-146560500D02*
X137374500Y-146560500D01*
X135294500Y-146560500D02*
X133184500Y-146560500D01*
X139475500Y-146600500D02*
X137374500Y-146600500D01*
X135294500Y-146600500D02*
X133193500Y-146600500D01*
X139465500Y-146640500D02*
X137374500Y-146640500D01*
X135294500Y-146640500D02*
X133203500Y-146640500D01*
X139455500Y-146680500D02*
X137374500Y-146680500D01*
X135294500Y-146680500D02*
X133213500Y-146680500D01*
X139444500Y-146720500D02*
X137374500Y-146720500D01*
X135294500Y-146720500D02*
X133224500Y-146720500D01*
X139432500Y-146760500D02*
X137374500Y-146760500D01*
X135294500Y-146760500D02*
X133236500Y-146760500D01*
X139420500Y-146800500D02*
X137374500Y-146800500D01*
X135294500Y-146800500D02*
X133248500Y-146800500D01*
X139408500Y-146840500D02*
X137374500Y-146840500D01*
X135294500Y-146840500D02*
X133260500Y-146840500D01*
X139395500Y-146880500D02*
X137374500Y-146880500D01*
X135294500Y-146880500D02*
X133273500Y-146880500D01*
X139381500Y-146920500D02*
X137374500Y-146920500D01*
X135294500Y-146920500D02*
X133287500Y-146920500D01*
X139367500Y-146960500D02*
X137374500Y-146960500D01*
X135294500Y-146960500D02*
X133301500Y-146960500D01*
X139352500Y-147000500D02*
X137374500Y-147000500D01*
X135294500Y-147000500D02*
X133316500Y-147000500D01*
X139336500Y-147040500D02*
X137374500Y-147040500D01*
X135294500Y-147040500D02*
X133332500Y-147040500D01*
X139320500Y-147080500D02*
X137374500Y-147080500D01*
X135294500Y-147080500D02*
X133348500Y-147080500D01*
X139304500Y-147120500D02*
X137374500Y-147120500D01*
X135294500Y-147120500D02*
X133364500Y-147120500D01*
X139286500Y-147160500D02*
X137374500Y-147160500D01*
X135294500Y-147160500D02*
X133382500Y-147160500D01*
X139268500Y-147200500D02*
X137374500Y-147200500D01*
X135294500Y-147200500D02*
X133400500Y-147200500D01*
X139250500Y-147240500D02*
X137374500Y-147240500D01*
X135294500Y-147240500D02*
X133418500Y-147240500D01*
X139230500Y-147280500D02*
X137374500Y-147280500D01*
X135294500Y-147280500D02*
X133438500Y-147280500D01*
X139210500Y-147320500D02*
X137374500Y-147320500D01*
X135294500Y-147320500D02*
X133458500Y-147320500D01*
X139190500Y-147360500D02*
X137374500Y-147360500D01*
X135294500Y-147360500D02*
X133478500Y-147360500D01*
X139168500Y-147400500D02*
X137374500Y-147400500D01*
X135294500Y-147400500D02*
X133500500Y-147400500D01*
X139146500Y-147440500D02*
X137374500Y-147440500D01*
X135294500Y-147440500D02*
X133522500Y-147440500D01*
X139124500Y-147480500D02*
X137374500Y-147480500D01*
X135294500Y-147480500D02*
X133544500Y-147480500D01*
X139100500Y-147520500D02*
X137374500Y-147520500D01*
X135294500Y-147520500D02*
X133568500Y-147520500D01*
X139076500Y-147560500D02*
X137374500Y-147560500D01*
X135294500Y-147560500D02*
X133592500Y-147560500D01*
X139050500Y-147600500D02*
X137374500Y-147600500D01*
X135294500Y-147600500D02*
X133618500Y-147600500D01*
X139024500Y-147640500D02*
X137374500Y-147640500D01*
X135294500Y-147640500D02*
X133644500Y-147640500D01*
X138998500Y-147680500D02*
X137374500Y-147680500D01*
X135294500Y-147680500D02*
X133670500Y-147680500D01*
X138970500Y-147720500D02*
X137374500Y-147720500D01*
X135294500Y-147720500D02*
X133698500Y-147720500D01*
X138941500Y-147760500D02*
X137374500Y-147760500D01*
X135294500Y-147760500D02*
X133727500Y-147760500D01*
X138912500Y-147800500D02*
X137374500Y-147800500D01*
X135294500Y-147800500D02*
X133756500Y-147800500D01*
X138882500Y-147840500D02*
X137374500Y-147840500D01*
X135294500Y-147840500D02*
X133786500Y-147840500D01*
X138850500Y-147880500D02*
X137374500Y-147880500D01*
X135294500Y-147880500D02*
X133818500Y-147880500D01*
X138818500Y-147920500D02*
X137374500Y-147920500D01*
X135294500Y-147920500D02*
X133850500Y-147920500D01*
X138784500Y-147960500D02*
X137374500Y-147960500D01*
X135294500Y-147960500D02*
X133884500Y-147960500D01*
X138750500Y-148000500D02*
X137374500Y-148000500D01*
X135294500Y-148000500D02*
X133918500Y-148000500D01*
X138714500Y-148040500D02*
X137374500Y-148040500D01*
X135294500Y-148040500D02*
X133954500Y-148040500D01*
X138677500Y-148080500D02*
X137374500Y-148080500D01*
X135294500Y-148080500D02*
X133991500Y-148080500D01*
X138639500Y-148120500D02*
X137374500Y-148120500D01*
X135294500Y-148120500D02*
X134029500Y-148120500D01*
X138599500Y-148160500D02*
X134069500Y-148160500D01*
X138558500Y-148200500D02*
X134110500Y-148200500D01*
X138516500Y-148240500D02*
X134152500Y-148240500D01*
X138471500Y-148280500D02*
X134197500Y-148280500D01*
X138426500Y-148320500D02*
X134242500Y-148320500D01*
X138378500Y-148360500D02*
X134290500Y-148360500D01*
X138329500Y-148400500D02*
X134339500Y-148400500D01*
X138278500Y-148440500D02*
X134390500Y-148440500D01*
X138224500Y-148480500D02*
X134444500Y-148480500D01*
X138168500Y-148520500D02*
X134500500Y-148520500D01*
X138110500Y-148560500D02*
X134558500Y-148560500D01*
X138048500Y-148600500D02*
X134620500Y-148600500D01*
X137984500Y-148640500D02*
X134684500Y-148640500D01*
X137915500Y-148680500D02*
X134753500Y-148680500D01*
X137843500Y-148720500D02*
X134825500Y-148720500D01*
X137766500Y-148760500D02*
X134902500Y-148760500D01*
X137684500Y-148800500D02*
X134984500Y-148800500D01*
X137596500Y-148840500D02*
X135072500Y-148840500D01*
X137499500Y-148880500D02*
X135169500Y-148880500D01*
X137393500Y-148920500D02*
X135275500Y-148920500D01*
X137274500Y-148960500D02*
X135394500Y-148960500D01*
X137136500Y-149000500D02*
X135532500Y-149000500D01*
X136967500Y-149040500D02*
X135701500Y-149040500D01*
X136736500Y-149080500D02*
X135932500Y-149080500D01*
X138173500Y-142339259D02*
X138173500Y-142969259D01*
X138488500Y-142654259D02*
X137858500Y-142654259D01*
X139604500Y-138854500D02*
G75*
G03*
X139604500Y-138854500I-3270000J0D01*
G01*
X133104500Y-138854500D02*
X139564500Y-138854500D01*
X133104500Y-138814500D02*
X139564500Y-138814500D01*
X133104500Y-138774500D02*
X139564500Y-138774500D01*
X133106500Y-138734500D02*
X139562500Y-138734500D01*
X133107500Y-138694500D02*
X139561500Y-138694500D01*
X133110500Y-138654500D02*
X139558500Y-138654500D01*
X133112500Y-138614500D02*
X135294500Y-138614500D01*
X137374500Y-138614500D02*
X139556500Y-138614500D01*
X133116500Y-138574500D02*
X135294500Y-138574500D01*
X137374500Y-138574500D02*
X139552500Y-138574500D01*
X133119500Y-138534500D02*
X135294500Y-138534500D01*
X137374500Y-138534500D02*
X139549500Y-138534500D01*
X133123500Y-138494500D02*
X135294500Y-138494500D01*
X137374500Y-138494500D02*
X139545500Y-138494500D01*
X133128500Y-138454500D02*
X135294500Y-138454500D01*
X137374500Y-138454500D02*
X139540500Y-138454500D01*
X133133500Y-138414500D02*
X135294500Y-138414500D01*
X137374500Y-138414500D02*
X139535500Y-138414500D01*
X133139500Y-138374500D02*
X135294500Y-138374500D01*
X137374500Y-138374500D02*
X139529500Y-138374500D01*
X133145500Y-138334500D02*
X135294500Y-138334500D01*
X137374500Y-138334500D02*
X139523500Y-138334500D01*
X133152500Y-138294500D02*
X135294500Y-138294500D01*
X137374500Y-138294500D02*
X139516500Y-138294500D01*
X133159500Y-138254500D02*
X135294500Y-138254500D01*
X137374500Y-138254500D02*
X139509500Y-138254500D01*
X133167500Y-138214500D02*
X135294500Y-138214500D01*
X137374500Y-138214500D02*
X139501500Y-138214500D01*
X133175500Y-138174500D02*
X135294500Y-138174500D01*
X137374500Y-138174500D02*
X139493500Y-138174500D01*
X133184500Y-138133500D02*
X135294500Y-138133500D01*
X137374500Y-138133500D02*
X139484500Y-138133500D01*
X133193500Y-138093500D02*
X135294500Y-138093500D01*
X137374500Y-138093500D02*
X139475500Y-138093500D01*
X133203500Y-138053500D02*
X135294500Y-138053500D01*
X137374500Y-138053500D02*
X139465500Y-138053500D01*
X133213500Y-138013500D02*
X135294500Y-138013500D01*
X137374500Y-138013500D02*
X139455500Y-138013500D01*
X133224500Y-137973500D02*
X135294500Y-137973500D01*
X137374500Y-137973500D02*
X139444500Y-137973500D01*
X133236500Y-137933500D02*
X135294500Y-137933500D01*
X137374500Y-137933500D02*
X139432500Y-137933500D01*
X133248500Y-137893500D02*
X135294500Y-137893500D01*
X137374500Y-137893500D02*
X139420500Y-137893500D01*
X133260500Y-137853500D02*
X135294500Y-137853500D01*
X137374500Y-137853500D02*
X139408500Y-137853500D01*
X133273500Y-137813500D02*
X135294500Y-137813500D01*
X137374500Y-137813500D02*
X139395500Y-137813500D01*
X133287500Y-137773500D02*
X135294500Y-137773500D01*
X137374500Y-137773500D02*
X139381500Y-137773500D01*
X133301500Y-137733500D02*
X135294500Y-137733500D01*
X137374500Y-137733500D02*
X139367500Y-137733500D01*
X133316500Y-137693500D02*
X135294500Y-137693500D01*
X137374500Y-137693500D02*
X139352500Y-137693500D01*
X133332500Y-137653500D02*
X135294500Y-137653500D01*
X137374500Y-137653500D02*
X139336500Y-137653500D01*
X133348500Y-137613500D02*
X135294500Y-137613500D01*
X137374500Y-137613500D02*
X139320500Y-137613500D01*
X133364500Y-137573500D02*
X135294500Y-137573500D01*
X137374500Y-137573500D02*
X139304500Y-137573500D01*
X133382500Y-137533500D02*
X135294500Y-137533500D01*
X137374500Y-137533500D02*
X139286500Y-137533500D01*
X133400500Y-137493500D02*
X135294500Y-137493500D01*
X137374500Y-137493500D02*
X139268500Y-137493500D01*
X133418500Y-137453500D02*
X135294500Y-137453500D01*
X137374500Y-137453500D02*
X139250500Y-137453500D01*
X133438500Y-137413500D02*
X135294500Y-137413500D01*
X137374500Y-137413500D02*
X139230500Y-137413500D01*
X133458500Y-137373500D02*
X135294500Y-137373500D01*
X137374500Y-137373500D02*
X139210500Y-137373500D01*
X133478500Y-137333500D02*
X135294500Y-137333500D01*
X137374500Y-137333500D02*
X139190500Y-137333500D01*
X133500500Y-137293500D02*
X135294500Y-137293500D01*
X137374500Y-137293500D02*
X139168500Y-137293500D01*
X133522500Y-137253500D02*
X135294500Y-137253500D01*
X137374500Y-137253500D02*
X139146500Y-137253500D01*
X133544500Y-137213500D02*
X135294500Y-137213500D01*
X137374500Y-137213500D02*
X139124500Y-137213500D01*
X133568500Y-137173500D02*
X135294500Y-137173500D01*
X137374500Y-137173500D02*
X139100500Y-137173500D01*
X133592500Y-137133500D02*
X135294500Y-137133500D01*
X137374500Y-137133500D02*
X139076500Y-137133500D01*
X133618500Y-137093500D02*
X135294500Y-137093500D01*
X137374500Y-137093500D02*
X139050500Y-137093500D01*
X133644500Y-137053500D02*
X135294500Y-137053500D01*
X137374500Y-137053500D02*
X139024500Y-137053500D01*
X133670500Y-137013500D02*
X135294500Y-137013500D01*
X137374500Y-137013500D02*
X138998500Y-137013500D01*
X133698500Y-136973500D02*
X135294500Y-136973500D01*
X137374500Y-136973500D02*
X138970500Y-136973500D01*
X133727500Y-136933500D02*
X135294500Y-136933500D01*
X137374500Y-136933500D02*
X138941500Y-136933500D01*
X133756500Y-136893500D02*
X135294500Y-136893500D01*
X137374500Y-136893500D02*
X138912500Y-136893500D01*
X133786500Y-136853500D02*
X135294500Y-136853500D01*
X137374500Y-136853500D02*
X138882500Y-136853500D01*
X133818500Y-136813500D02*
X135294500Y-136813500D01*
X137374500Y-136813500D02*
X138850500Y-136813500D01*
X133850500Y-136773500D02*
X135294500Y-136773500D01*
X137374500Y-136773500D02*
X138818500Y-136773500D01*
X133884500Y-136733500D02*
X135294500Y-136733500D01*
X137374500Y-136733500D02*
X138784500Y-136733500D01*
X133918500Y-136693500D02*
X135294500Y-136693500D01*
X137374500Y-136693500D02*
X138750500Y-136693500D01*
X133954500Y-136653500D02*
X135294500Y-136653500D01*
X137374500Y-136653500D02*
X138714500Y-136653500D01*
X133991500Y-136613500D02*
X135294500Y-136613500D01*
X137374500Y-136613500D02*
X138677500Y-136613500D01*
X134029500Y-136573500D02*
X135294500Y-136573500D01*
X137374500Y-136573500D02*
X138639500Y-136573500D01*
X134069500Y-136533500D02*
X138599500Y-136533500D01*
X134110500Y-136493500D02*
X138558500Y-136493500D01*
X134152500Y-136453500D02*
X138516500Y-136453500D01*
X134197500Y-136413500D02*
X138471500Y-136413500D01*
X134242500Y-136373500D02*
X138426500Y-136373500D01*
X134290500Y-136333500D02*
X138378500Y-136333500D01*
X134339500Y-136293500D02*
X138329500Y-136293500D01*
X134390500Y-136253500D02*
X138278500Y-136253500D01*
X134444500Y-136213500D02*
X138224500Y-136213500D01*
X134500500Y-136173500D02*
X138168500Y-136173500D01*
X134558500Y-136133500D02*
X138110500Y-136133500D01*
X134620500Y-136093500D02*
X138048500Y-136093500D01*
X134684500Y-136053500D02*
X137984500Y-136053500D01*
X134753500Y-136013500D02*
X137915500Y-136013500D01*
X134825500Y-135973500D02*
X137843500Y-135973500D01*
X134902500Y-135933500D02*
X137766500Y-135933500D01*
X134984500Y-135893500D02*
X137684500Y-135893500D01*
X135072500Y-135853500D02*
X137596500Y-135853500D01*
X135169500Y-135813500D02*
X137499500Y-135813500D01*
X135275500Y-135773500D02*
X137393500Y-135773500D01*
X135394500Y-135733500D02*
X137274500Y-135733500D01*
X135532500Y-135693500D02*
X137136500Y-135693500D01*
X135701500Y-135653500D02*
X136967500Y-135653500D01*
X135932500Y-135613500D02*
X136736500Y-135613500D01*
X134495500Y-142354741D02*
X134495500Y-141724741D01*
X134180500Y-142039741D02*
X134810500Y-142039741D01*
X125952500Y-148185500D02*
X125952500Y-137945500D01*
X130593500Y-148185500D02*
X130593500Y-137945500D01*
X125952500Y-148185500D02*
X130593500Y-148185500D01*
X125952500Y-137945500D02*
X130593500Y-137945500D01*
X127462500Y-148185500D02*
X127462500Y-137945500D01*
X125952500Y-144915500D02*
X127462500Y-144915500D01*
X125952500Y-141214500D02*
X127462500Y-141214500D01*
X155694500Y-110306500D02*
X155694500Y-113166500D01*
X155694500Y-113166500D02*
X157614500Y-113166500D01*
X157614500Y-113166500D02*
X157614500Y-110306500D01*
X153404500Y-111576752D02*
X153404500Y-111054248D01*
X154824500Y-111576752D02*
X154824500Y-111054248D01*
D13*
G36*
X157412889Y-114919587D02*
G01*
X157398156Y-114920545D01*
X157376991Y-114921658D01*
X157351423Y-114922831D01*
X157323482Y-114923971D01*
X157297205Y-114924918D01*
X157213893Y-114927710D01*
X157233040Y-114890826D01*
X157241016Y-114875089D01*
X157247054Y-114862450D01*
X157250382Y-114854569D01*
X157250736Y-114852791D01*
X157246721Y-114850616D01*
X157236226Y-114845126D01*
X157220306Y-114836868D01*
X157200016Y-114826388D01*
X157176409Y-114814232D01*
X157159373Y-114805478D01*
X157134209Y-114792385D01*
X157111775Y-114780382D01*
X157093106Y-114770048D01*
X157079239Y-114761966D01*
X157071209Y-114756719D01*
X157069611Y-114755083D01*
X157071511Y-114749221D01*
X157076248Y-114738594D01*
X157080663Y-114729683D01*
X157086801Y-114717912D01*
X157091233Y-114709683D01*
X157092684Y-114707234D01*
X157096590Y-114708733D01*
X157106973Y-114713624D01*
X157122800Y-114721397D01*
X157143037Y-114731537D01*
X157166649Y-114743534D01*
X157185527Y-114753223D01*
X157210973Y-114766248D01*
X157233821Y-114777773D01*
X157253035Y-114787291D01*
X157267576Y-114794290D01*
X157276406Y-114798261D01*
X157278652Y-114798954D01*
X157281020Y-114794751D01*
X157286279Y-114784657D01*
X157293557Y-114770364D01*
X157299036Y-114759463D01*
X157318021Y-114721510D01*
X157336980Y-114750996D01*
X157345554Y-114764266D01*
X157357597Y-114782820D01*
X157371941Y-114804859D01*
X157387414Y-114828585D01*
X157400600Y-114848766D01*
X157445260Y-114917049D01*
X157412889Y-114919587D01*
G37*
X157412889Y-114919587D02*
X157398156Y-114920545D01*
X157376991Y-114921658D01*
X157351423Y-114922831D01*
X157323482Y-114923971D01*
X157297205Y-114924918D01*
X157213893Y-114927710D01*
X157233040Y-114890826D01*
X157241016Y-114875089D01*
X157247054Y-114862450D01*
X157250382Y-114854569D01*
X157250736Y-114852791D01*
X157246721Y-114850616D01*
X157236226Y-114845126D01*
X157220306Y-114836868D01*
X157200016Y-114826388D01*
X157176409Y-114814232D01*
X157159373Y-114805478D01*
X157134209Y-114792385D01*
X157111775Y-114780382D01*
X157093106Y-114770048D01*
X157079239Y-114761966D01*
X157071209Y-114756719D01*
X157069611Y-114755083D01*
X157071511Y-114749221D01*
X157076248Y-114738594D01*
X157080663Y-114729683D01*
X157086801Y-114717912D01*
X157091233Y-114709683D01*
X157092684Y-114707234D01*
X157096590Y-114708733D01*
X157106973Y-114713624D01*
X157122800Y-114721397D01*
X157143037Y-114731537D01*
X157166649Y-114743534D01*
X157185527Y-114753223D01*
X157210973Y-114766248D01*
X157233821Y-114777773D01*
X157253035Y-114787291D01*
X157267576Y-114794290D01*
X157276406Y-114798261D01*
X157278652Y-114798954D01*
X157281020Y-114794751D01*
X157286279Y-114784657D01*
X157293557Y-114770364D01*
X157299036Y-114759463D01*
X157318021Y-114721510D01*
X157336980Y-114750996D01*
X157345554Y-114764266D01*
X157357597Y-114782820D01*
X157371941Y-114804859D01*
X157387414Y-114828585D01*
X157400600Y-114848766D01*
X157445260Y-114917049D01*
X157412889Y-114919587D01*
G36*
X157298289Y-115196283D02*
G01*
X157293111Y-115196942D01*
X157280978Y-115197916D01*
X157263246Y-115199129D01*
X157241271Y-115200508D01*
X157216409Y-115201978D01*
X157190016Y-115203466D01*
X157163447Y-115204898D01*
X157138060Y-115206198D01*
X157115209Y-115207294D01*
X157096252Y-115208110D01*
X157082543Y-115208573D01*
X157075439Y-115208609D01*
X157074759Y-115208503D01*
X157075824Y-115204265D01*
X157080042Y-115194186D01*
X157086677Y-115179944D01*
X157092150Y-115168828D01*
X157111229Y-115130841D01*
X157018331Y-115085740D01*
X156992624Y-115073133D01*
X156969671Y-115061633D01*
X156950505Y-115051778D01*
X156936159Y-115044106D01*
X156927664Y-115039153D01*
X156925751Y-115037561D01*
X156927881Y-115032429D01*
X156933008Y-115022558D01*
X156937393Y-115014705D01*
X156944225Y-115003128D01*
X156949545Y-114994751D01*
X156951434Y-114992232D01*
X156955820Y-114993286D01*
X156966667Y-114997697D01*
X156982896Y-115004973D01*
X157003426Y-115014622D01*
X157027179Y-115026149D01*
X157043471Y-115034235D01*
X157068784Y-115046834D01*
X157091595Y-115058059D01*
X157110809Y-115067382D01*
X157125334Y-115074274D01*
X157134076Y-115078209D01*
X157136118Y-115078933D01*
X157139303Y-115075386D01*
X157145154Y-115065848D01*
X157152700Y-115051974D01*
X157157583Y-115042363D01*
X157167574Y-115023467D01*
X157174838Y-115012571D01*
X157179382Y-115009662D01*
X157179958Y-115010031D01*
X157183954Y-115015257D01*
X157191425Y-115026143D01*
X157201649Y-115041553D01*
X157213904Y-115060348D01*
X157227467Y-115081391D01*
X157241614Y-115103545D01*
X157255624Y-115125671D01*
X157268773Y-115146632D01*
X157280340Y-115165292D01*
X157289600Y-115180511D01*
X157295832Y-115191153D01*
X157298313Y-115196081D01*
X157298289Y-115196283D01*
G37*
X157298289Y-115196283D02*
X157293111Y-115196942D01*
X157280978Y-115197916D01*
X157263246Y-115199129D01*
X157241271Y-115200508D01*
X157216409Y-115201978D01*
X157190016Y-115203466D01*
X157163447Y-115204898D01*
X157138060Y-115206198D01*
X157115209Y-115207294D01*
X157096252Y-115208110D01*
X157082543Y-115208573D01*
X157075439Y-115208609D01*
X157074759Y-115208503D01*
X157075824Y-115204265D01*
X157080042Y-115194186D01*
X157086677Y-115179944D01*
X157092150Y-115168828D01*
X157111229Y-115130841D01*
X157018331Y-115085740D01*
X156992624Y-115073133D01*
X156969671Y-115061633D01*
X156950505Y-115051778D01*
X156936159Y-115044106D01*
X156927664Y-115039153D01*
X156925751Y-115037561D01*
X156927881Y-115032429D01*
X156933008Y-115022558D01*
X156937393Y-115014705D01*
X156944225Y-115003128D01*
X156949545Y-114994751D01*
X156951434Y-114992232D01*
X156955820Y-114993286D01*
X156966667Y-114997697D01*
X156982896Y-115004973D01*
X157003426Y-115014622D01*
X157027179Y-115026149D01*
X157043471Y-115034235D01*
X157068784Y-115046834D01*
X157091595Y-115058059D01*
X157110809Y-115067382D01*
X157125334Y-115074274D01*
X157134076Y-115078209D01*
X157136118Y-115078933D01*
X157139303Y-115075386D01*
X157145154Y-115065848D01*
X157152700Y-115051974D01*
X157157583Y-115042363D01*
X157167574Y-115023467D01*
X157174838Y-115012571D01*
X157179382Y-115009662D01*
X157179958Y-115010031D01*
X157183954Y-115015257D01*
X157191425Y-115026143D01*
X157201649Y-115041553D01*
X157213904Y-115060348D01*
X157227467Y-115081391D01*
X157241614Y-115103545D01*
X157255624Y-115125671D01*
X157268773Y-115146632D01*
X157280340Y-115165292D01*
X157289600Y-115180511D01*
X157295832Y-115191153D01*
X157298313Y-115196081D01*
X157298289Y-115196283D01*
G36*
X157177595Y-114358625D02*
G01*
X157172228Y-114369953D01*
X157163556Y-114387959D01*
X157151802Y-114412186D01*
X157137190Y-114442177D01*
X157119943Y-114477477D01*
X157100285Y-114517630D01*
X157078439Y-114562178D01*
X157054628Y-114610666D01*
X157029076Y-114662637D01*
X157002007Y-114717635D01*
X156973643Y-114775204D01*
X156944208Y-114834887D01*
X156942367Y-114838619D01*
X156912879Y-114898398D01*
X156884448Y-114956075D01*
X156857297Y-115011197D01*
X156831650Y-115063307D01*
X156807728Y-115111951D01*
X156785757Y-115156674D01*
X156765959Y-115197021D01*
X156748557Y-115232536D01*
X156733775Y-115262765D01*
X156721835Y-115287253D01*
X156712962Y-115305544D01*
X156707379Y-115317184D01*
X156705308Y-115321717D01*
X156705300Y-115321754D01*
X156709402Y-115322275D01*
X156721185Y-115322763D01*
X156739863Y-115323209D01*
X156764650Y-115323602D01*
X156794759Y-115323933D01*
X156829405Y-115324193D01*
X156867802Y-115324371D01*
X156909164Y-115324459D01*
X156925434Y-115324466D01*
X157145567Y-115324466D01*
X157145567Y-115442999D01*
X156688367Y-115442999D01*
X156688367Y-116205000D01*
X156569834Y-116205000D01*
X156569834Y-115442999D01*
X156112633Y-115442999D01*
X156112633Y-115324541D01*
X156555671Y-115322349D01*
X156112779Y-114424883D01*
X156112706Y-114387841D01*
X156112633Y-114350800D01*
X156569834Y-114350800D01*
X156569834Y-113665000D01*
X156629709Y-113665000D01*
X156629709Y-114469333D01*
X156265346Y-114469333D01*
X156283181Y-114507284D01*
X156287756Y-114516827D01*
X156295772Y-114533328D01*
X156306919Y-114556158D01*
X156320887Y-114584684D01*
X156337366Y-114618274D01*
X156356045Y-114656298D01*
X156376616Y-114698124D01*
X156398766Y-114743120D01*
X156422188Y-114790656D01*
X156446569Y-114840100D01*
X156464000Y-114875425D01*
X156488392Y-114924786D01*
X156511732Y-114971918D01*
X156533748Y-115016272D01*
X156554167Y-115057305D01*
X156572715Y-115094470D01*
X156589119Y-115127222D01*
X156603106Y-115155013D01*
X156614402Y-115177300D01*
X156622734Y-115193536D01*
X156627830Y-115203175D01*
X156629405Y-115205774D01*
X156631473Y-115202099D01*
X156636973Y-115191461D01*
X156645591Y-115174494D01*
X156657013Y-115151827D01*
X156670928Y-115124093D01*
X156687021Y-115091923D01*
X156704979Y-115055949D01*
X156724489Y-115016802D01*
X156745239Y-114975113D01*
X156766913Y-114931515D01*
X156789201Y-114886639D01*
X156811787Y-114841116D01*
X156834359Y-114795578D01*
X156856604Y-114750657D01*
X156878209Y-114706983D01*
X156898860Y-114665189D01*
X156918243Y-114625906D01*
X156936047Y-114589765D01*
X156951957Y-114557399D01*
X156965660Y-114529438D01*
X156976844Y-114506514D01*
X156985194Y-114489259D01*
X156990398Y-114478304D01*
X156992040Y-114474625D01*
X156990869Y-114473663D01*
X156986277Y-114472818D01*
X156977819Y-114472083D01*
X156965051Y-114471451D01*
X156947529Y-114470916D01*
X156924809Y-114470472D01*
X156896446Y-114470111D01*
X156861997Y-114469827D01*
X156821018Y-114469614D01*
X156773064Y-114469466D01*
X156717691Y-114469375D01*
X156654456Y-114469336D01*
X156629709Y-114469333D01*
X156629709Y-113665000D01*
X156688367Y-113665000D01*
X156688365Y-114352916D01*
X156933899Y-114351790D01*
X156981642Y-114351635D01*
X157025728Y-114351616D01*
X157065523Y-114351727D01*
X157100395Y-114351962D01*
X157129709Y-114352313D01*
X157152832Y-114352774D01*
X157169131Y-114353338D01*
X157177972Y-114353997D01*
X157179433Y-114354430D01*
X157177595Y-114358625D01*
G37*
X157177595Y-114358625D02*
X157172228Y-114369953D01*
X157163556Y-114387959D01*
X157151802Y-114412186D01*
X157137190Y-114442177D01*
X157119943Y-114477477D01*
X157100285Y-114517630D01*
X157078439Y-114562178D01*
X157054628Y-114610666D01*
X157029076Y-114662637D01*
X157002007Y-114717635D01*
X156973643Y-114775204D01*
X156944208Y-114834887D01*
X156942367Y-114838619D01*
X156912879Y-114898398D01*
X156884448Y-114956075D01*
X156857297Y-115011197D01*
X156831650Y-115063307D01*
X156807728Y-115111951D01*
X156785757Y-115156674D01*
X156765959Y-115197021D01*
X156748557Y-115232536D01*
X156733775Y-115262765D01*
X156721835Y-115287253D01*
X156712962Y-115305544D01*
X156707379Y-115317184D01*
X156705308Y-115321717D01*
X156705300Y-115321754D01*
X156709402Y-115322275D01*
X156721185Y-115322763D01*
X156739863Y-115323209D01*
X156764650Y-115323602D01*
X156794759Y-115323933D01*
X156829405Y-115324193D01*
X156867802Y-115324371D01*
X156909164Y-115324459D01*
X156925434Y-115324466D01*
X157145567Y-115324466D01*
X157145567Y-115442999D01*
X156688367Y-115442999D01*
X156688367Y-116205000D01*
X156569834Y-116205000D01*
X156569834Y-115442999D01*
X156112633Y-115442999D01*
X156112633Y-115324541D01*
X156555671Y-115322349D01*
X156112779Y-114424883D01*
X156112706Y-114387841D01*
X156112633Y-114350800D01*
X156569834Y-114350800D01*
X156569834Y-113665000D01*
X156629709Y-113665000D01*
X156629709Y-114469333D01*
X156265346Y-114469333D01*
X156283181Y-114507284D01*
X156287756Y-114516827D01*
X156295772Y-114533328D01*
X156306919Y-114556158D01*
X156320887Y-114584684D01*
X156337366Y-114618274D01*
X156356045Y-114656298D01*
X156376616Y-114698124D01*
X156398766Y-114743120D01*
X156422188Y-114790656D01*
X156446569Y-114840100D01*
X156464000Y-114875425D01*
X156488392Y-114924786D01*
X156511732Y-114971918D01*
X156533748Y-115016272D01*
X156554167Y-115057305D01*
X156572715Y-115094470D01*
X156589119Y-115127222D01*
X156603106Y-115155013D01*
X156614402Y-115177300D01*
X156622734Y-115193536D01*
X156627830Y-115203175D01*
X156629405Y-115205774D01*
X156631473Y-115202099D01*
X156636973Y-115191461D01*
X156645591Y-115174494D01*
X156657013Y-115151827D01*
X156670928Y-115124093D01*
X156687021Y-115091923D01*
X156704979Y-115055949D01*
X156724489Y-115016802D01*
X156745239Y-114975113D01*
X156766913Y-114931515D01*
X156789201Y-114886639D01*
X156811787Y-114841116D01*
X156834359Y-114795578D01*
X156856604Y-114750657D01*
X156878209Y-114706983D01*
X156898860Y-114665189D01*
X156918243Y-114625906D01*
X156936047Y-114589765D01*
X156951957Y-114557399D01*
X156965660Y-114529438D01*
X156976844Y-114506514D01*
X156985194Y-114489259D01*
X156990398Y-114478304D01*
X156992040Y-114474625D01*
X156990869Y-114473663D01*
X156986277Y-114472818D01*
X156977819Y-114472083D01*
X156965051Y-114471451D01*
X156947529Y-114470916D01*
X156924809Y-114470472D01*
X156896446Y-114470111D01*
X156861997Y-114469827D01*
X156821018Y-114469614D01*
X156773064Y-114469466D01*
X156717691Y-114469375D01*
X156654456Y-114469336D01*
X156629709Y-114469333D01*
X156629709Y-113665000D01*
X156688367Y-113665000D01*
X156688365Y-114352916D01*
X156933899Y-114351790D01*
X156981642Y-114351635D01*
X157025728Y-114351616D01*
X157065523Y-114351727D01*
X157100395Y-114351962D01*
X157129709Y-114352313D01*
X157152832Y-114352774D01*
X157169131Y-114353338D01*
X157177972Y-114353997D01*
X157179433Y-114354430D01*
X157177595Y-114358625D01*
G36*
X171488484Y-144810341D02*
G01*
X171496962Y-144818467D01*
X171504202Y-144829715D01*
X171506264Y-144834429D01*
X171509543Y-144845192D01*
X171513472Y-144861372D01*
X171517691Y-144881200D01*
X171521838Y-144902906D01*
X171525553Y-144924722D01*
X171527909Y-144940598D01*
X171530030Y-144971555D01*
X171526959Y-144998693D01*
X171518209Y-145023556D01*
X171503295Y-145047685D01*
X171488542Y-145065386D01*
X171466429Y-145091397D01*
X171441534Y-145124008D01*
X171413910Y-145163141D01*
X171383609Y-145208715D01*
X171350682Y-145260650D01*
X171315180Y-145318865D01*
X171277156Y-145383282D01*
X171236661Y-145453819D01*
X171227833Y-145469429D01*
X171211672Y-145497945D01*
X171196606Y-145524216D01*
X171182033Y-145549234D01*
X171167352Y-145573990D01*
X171151960Y-145599478D01*
X171135257Y-145626691D01*
X171116642Y-145656620D01*
X171095512Y-145690259D01*
X171071266Y-145728600D01*
X171060736Y-145745200D01*
X171043280Y-145772543D01*
X171023927Y-145802582D01*
X171003154Y-145834602D01*
X170981436Y-145867884D01*
X170959249Y-145901710D01*
X170937068Y-145935363D01*
X170915368Y-145968125D01*
X170894626Y-145999279D01*
X170875316Y-146028106D01*
X170857916Y-146053891D01*
X170842899Y-146075914D01*
X170830742Y-146093458D01*
X170821921Y-146105806D01*
X170820247Y-146108057D01*
X170809549Y-146122508D01*
X170799870Y-146136238D01*
X170790507Y-146150386D01*
X170780761Y-146166092D01*
X170769930Y-146184494D01*
X170757312Y-146206733D01*
X170742206Y-146233946D01*
X170737599Y-146242314D01*
X170725538Y-146264587D01*
X170711196Y-146291632D01*
X170695049Y-146322511D01*
X170677571Y-146356283D01*
X170659237Y-146392010D01*
X170640524Y-146428752D01*
X170621906Y-146465569D01*
X170603858Y-146501522D01*
X170586856Y-146535671D01*
X170571375Y-146567078D01*
X170557890Y-146594802D01*
X170546876Y-146617904D01*
X170539365Y-146634200D01*
X170524591Y-146667629D01*
X170512820Y-146695464D01*
X170503762Y-146718575D01*
X170497121Y-146737834D01*
X170492607Y-146754110D01*
X170489926Y-146768274D01*
X170488784Y-146781196D01*
X170488700Y-146784786D01*
X170488927Y-146799369D01*
X170490413Y-146810835D01*
X170493853Y-146822100D01*
X170499943Y-146836079D01*
X170501934Y-146840283D01*
X170520433Y-146874919D01*
X170544206Y-146912860D01*
X170572534Y-146953316D01*
X170604700Y-146995499D01*
X170639986Y-147038617D01*
X170677674Y-147081882D01*
X170717047Y-147124502D01*
X170757386Y-147165688D01*
X170797975Y-147204651D01*
X170838095Y-147240599D01*
X170877029Y-147272744D01*
X170914058Y-147300296D01*
X170929214Y-147310532D01*
X170954790Y-147325901D01*
X170982554Y-147339862D01*
X171013900Y-147353019D01*
X171050222Y-147365978D01*
X171075280Y-147374002D01*
X171129822Y-147389683D01*
X171182976Y-147402653D01*
X171233643Y-147412704D01*
X171280724Y-147419631D01*
X171323123Y-147423229D01*
X171340655Y-147423708D01*
X171362175Y-147423359D01*
X171377370Y-147421830D01*
X171387116Y-147418861D01*
X171392286Y-147414188D01*
X171393757Y-147407792D01*
X171392441Y-147397712D01*
X171388516Y-147380994D01*
X171382016Y-147357757D01*
X171372974Y-147328121D01*
X171361424Y-147292207D01*
X171359228Y-147285529D01*
X171344493Y-147238908D01*
X171332770Y-147196914D01*
X171323761Y-147157718D01*
X171317170Y-147119489D01*
X171312699Y-147080395D01*
X171310050Y-147038606D01*
X171308927Y-146992291D01*
X171308840Y-146975286D01*
X171309076Y-146935614D01*
X171310002Y-146901086D01*
X171311789Y-146869608D01*
X171314610Y-146839085D01*
X171317750Y-146814390D01*
X171698365Y-146814390D01*
X171701319Y-146881130D01*
X171709684Y-146951458D01*
X171713297Y-146973471D01*
X171722727Y-147021093D01*
X171734046Y-147067237D01*
X171746940Y-147111076D01*
X171761099Y-147151784D01*
X171776210Y-147188532D01*
X171791962Y-147220496D01*
X171808042Y-147246848D01*
X171823864Y-147266479D01*
X171836237Y-147278021D01*
X171846900Y-147284198D01*
X171857556Y-147285108D01*
X171869907Y-147280848D01*
X171885658Y-147271516D01*
X171887737Y-147270141D01*
X171904621Y-147257387D01*
X171925085Y-147239440D01*
X171948494Y-147217018D01*
X171974216Y-147190837D01*
X172001616Y-147161615D01*
X172030064Y-147130070D01*
X172058924Y-147096917D01*
X172087564Y-147062875D01*
X172115352Y-147028661D01*
X172141653Y-146994991D01*
X172165836Y-146962584D01*
X172187266Y-146932155D01*
X172191082Y-146926495D01*
X172218199Y-146883749D01*
X172239983Y-146844141D01*
X172256857Y-146806391D01*
X172269245Y-146769219D01*
X172277571Y-146731345D01*
X172282259Y-146691491D01*
X172283734Y-146648377D01*
X172283733Y-146646900D01*
X172281663Y-146590913D01*
X172275628Y-146540844D01*
X172265573Y-146496495D01*
X172251439Y-146457668D01*
X172233172Y-146424166D01*
X172212417Y-146397608D01*
X172187399Y-146375092D01*
X172159858Y-146359133D01*
X172129181Y-146349469D01*
X172094752Y-146345839D01*
X172090443Y-146345797D01*
X172054076Y-146348918D01*
X172015500Y-146357914D01*
X171975743Y-146372163D01*
X171935832Y-146391046D01*
X171896798Y-146413942D01*
X171859667Y-146440230D01*
X171825469Y-146469291D01*
X171795232Y-146500503D01*
X171769984Y-146533247D01*
X171763801Y-146542845D01*
X171740113Y-146588074D01*
X171721697Y-146638081D01*
X171708582Y-146692628D01*
X171700795Y-146751477D01*
X171698365Y-146814390D01*
X171317750Y-146814390D01*
X171318637Y-146807422D01*
X171324041Y-146772525D01*
X171326874Y-146755757D01*
X171340788Y-146686533D01*
X171358417Y-146618072D01*
X171379360Y-146551442D01*
X171403220Y-146487708D01*
X171429598Y-146427939D01*
X171458095Y-146373203D01*
X171487347Y-146325982D01*
X171523145Y-146277666D01*
X171564933Y-146228837D01*
X171611619Y-146180550D01*
X171662107Y-146133858D01*
X171715301Y-146089814D01*
X171770108Y-146049472D01*
X171785643Y-146038951D01*
X171837493Y-146007122D01*
X171888425Y-145981385D01*
X171940085Y-145961044D01*
X171994117Y-145945400D01*
X172020025Y-145939629D01*
X172083612Y-145929786D01*
X172144676Y-145926723D01*
X172203345Y-145930467D01*
X172259753Y-145941044D01*
X172314030Y-145958480D01*
X172366307Y-145982804D01*
X172416717Y-146014040D01*
X172427900Y-146022086D01*
X172479102Y-146062462D01*
X172523412Y-146103051D01*
X172561187Y-146144363D01*
X172592788Y-146186910D01*
X172618572Y-146231201D01*
X172638899Y-146277747D01*
X172654126Y-146327060D01*
X172659807Y-146352250D01*
X172666166Y-146391980D01*
X172670633Y-146437229D01*
X172673226Y-146486515D01*
X172673966Y-146538359D01*
X172672872Y-146591278D01*
X172669964Y-146643791D01*
X172665262Y-146694417D01*
X172658786Y-146741675D01*
X172654287Y-146766643D01*
X172641097Y-146821783D01*
X172623697Y-146874766D01*
X172601665Y-146926380D01*
X172574580Y-146977413D01*
X172542021Y-147028654D01*
X172503567Y-147080892D01*
X172458796Y-147134915D01*
X172455600Y-147138571D01*
X172446956Y-147148120D01*
X172433904Y-147162117D01*
X172417132Y-147179842D01*
X172397329Y-147200577D01*
X172375182Y-147223603D01*
X172351381Y-147248200D01*
X172326612Y-147273651D01*
X172311450Y-147289157D01*
X172276139Y-147325347D01*
X172245695Y-147356908D01*
X172219778Y-147384265D01*
X172198046Y-147407845D01*
X172180159Y-147428071D01*
X172165776Y-147445371D01*
X172154557Y-147460169D01*
X172146161Y-147472890D01*
X172140247Y-147483960D01*
X172136474Y-147493804D01*
X172134503Y-147502848D01*
X172133986Y-147510723D01*
X172135503Y-147522524D01*
X172140515Y-147532714D01*
X172149714Y-147541770D01*
X172163790Y-147550167D01*
X172183433Y-147558381D01*
X172209336Y-147566886D01*
X172220208Y-147570078D01*
X172274395Y-147583469D01*
X172325522Y-147591400D01*
X172374823Y-147593797D01*
X172423529Y-147590585D01*
X172472873Y-147581689D01*
X172524088Y-147567034D01*
X172573292Y-147548658D01*
X172597042Y-147538622D01*
X172620111Y-147528164D01*
X172643738Y-147516650D01*
X172669164Y-147503445D01*
X172697630Y-147487915D01*
X172730376Y-147469425D01*
X172748088Y-147459249D01*
X172815236Y-147420533D01*
X172876479Y-147385295D01*
X172932170Y-147353341D01*
X172982665Y-147324479D01*
X173028319Y-147298515D01*
X173069484Y-147275255D01*
X173106517Y-147254507D01*
X173139770Y-147236077D01*
X173169600Y-147219772D01*
X173196361Y-147205399D01*
X173220406Y-147192764D01*
X173242091Y-147181674D01*
X173261771Y-147171935D01*
X173279798Y-147163355D01*
X173296529Y-147155740D01*
X173312317Y-147148897D01*
X173327517Y-147142632D01*
X173332160Y-147140779D01*
X173359426Y-147131497D01*
X173388913Y-147124080D01*
X173418978Y-147118739D01*
X173447977Y-147115685D01*
X173474267Y-147115130D01*
X173496205Y-147117285D01*
X173502933Y-147118824D01*
X173520625Y-147127339D01*
X173534574Y-147141819D01*
X173544621Y-147161919D01*
X173550611Y-147187295D01*
X173552388Y-147217604D01*
X173552105Y-147227016D01*
X173551113Y-147242718D01*
X173549422Y-147254791D01*
X173546331Y-147265772D01*
X173541136Y-147278196D01*
X173533667Y-147293535D01*
X173512455Y-147330067D01*
X173484675Y-147368282D01*
X173450723Y-147407823D01*
X173410996Y-147448335D01*
X173365891Y-147489463D01*
X173315804Y-147530852D01*
X173261133Y-147572146D01*
X173202274Y-147612989D01*
X173139624Y-147653026D01*
X173117374Y-147666485D01*
X173071768Y-147692962D01*
X173027610Y-147717000D01*
X172983899Y-147739007D01*
X172939636Y-147759387D01*
X172893820Y-147778545D01*
X172845451Y-147796888D01*
X172793529Y-147814820D01*
X172737054Y-147832748D01*
X172675026Y-147851076D01*
X172632914Y-147862938D01*
X172536706Y-147887214D01*
X172444278Y-147905593D01*
X172355213Y-147918099D01*
X172269095Y-147924756D01*
X172185506Y-147925586D01*
X172104031Y-147920613D01*
X172024251Y-147909861D01*
X171974329Y-147900054D01*
X171947488Y-147893430D01*
X171916311Y-147884592D01*
X171882925Y-147874235D01*
X171849455Y-147863053D01*
X171818027Y-147851741D01*
X171790768Y-147840993D01*
X171782014Y-147837232D01*
X171749799Y-147823317D01*
X171722903Y-147812637D01*
X171700246Y-147805008D01*
X171680744Y-147800248D01*
X171663317Y-147798174D01*
X171646882Y-147798604D01*
X171630358Y-147801354D01*
X171612661Y-147806241D01*
X171607843Y-147807803D01*
X171556193Y-147822344D01*
X171499277Y-147833689D01*
X171438371Y-147841783D01*
X171374750Y-147846570D01*
X171309693Y-147847993D01*
X171244474Y-147845997D01*
X171180371Y-147840526D01*
X171118660Y-147831523D01*
X171108887Y-147829711D01*
X171024095Y-147810491D01*
X170939925Y-147785311D01*
X170855886Y-147753967D01*
X170771488Y-147716255D01*
X170686242Y-147671974D01*
X170599658Y-147620918D01*
X170587551Y-147613314D01*
X170535205Y-147578909D01*
X170481861Y-147541432D01*
X170428496Y-147501687D01*
X170376089Y-147460481D01*
X170325619Y-147418619D01*
X170278065Y-147376905D01*
X170234405Y-147336146D01*
X170195618Y-147297146D01*
X170171616Y-147271014D01*
X170160404Y-147258314D01*
X169983331Y-147434513D01*
X169875500Y-147541112D01*
X169771813Y-147642163D01*
X169672008Y-147737884D01*
X169575826Y-147828493D01*
X169483005Y-147914210D01*
X169393284Y-147995254D01*
X169306402Y-148071842D01*
X169222099Y-148144194D01*
X169140112Y-148212528D01*
X169060182Y-148277064D01*
X168982046Y-148338019D01*
X168905445Y-148395613D01*
X168830118Y-148450065D01*
X168755803Y-148501593D01*
X168682239Y-148550415D01*
X168609165Y-148596751D01*
X168563303Y-148624741D01*
X168522043Y-148649119D01*
X168479758Y-148673307D01*
X168437255Y-148696888D01*
X168395345Y-148719447D01*
X168354836Y-148740569D01*
X168316537Y-148759837D01*
X168281256Y-148776837D01*
X168249803Y-148791152D01*
X168222986Y-148802367D01*
X168204313Y-148809194D01*
X168145656Y-148826396D01*
X168081274Y-148841332D01*
X168012379Y-148853866D01*
X167940182Y-148863865D01*
X167865897Y-148871194D01*
X167790734Y-148875718D01*
X167715906Y-148877302D01*
X167642624Y-148875813D01*
X167616414Y-148874472D01*
X167558316Y-148869852D01*
X167505622Y-148863051D01*
X167456690Y-148853628D01*
X167409879Y-148841142D01*
X167363549Y-148825152D01*
X167316057Y-148805218D01*
X167265762Y-148780899D01*
X167263338Y-148779659D01*
X167207246Y-148748590D01*
X167157622Y-148715949D01*
X167114046Y-148681156D01*
X167076097Y-148643629D01*
X167043353Y-148602785D01*
X167015395Y-148558044D01*
X166991801Y-148508822D01*
X166972151Y-148454539D01*
X166956024Y-148394611D01*
X166944833Y-148339149D01*
X166940734Y-148309940D01*
X166937627Y-148275751D01*
X166935587Y-148238802D01*
X166934689Y-148201311D01*
X166935008Y-148165500D01*
X166936620Y-148133586D01*
X166937537Y-148123418D01*
X166947777Y-148052799D01*
X166963852Y-147983580D01*
X166986061Y-147914790D01*
X167014703Y-147845454D01*
X167037251Y-147798971D01*
X167058833Y-147758836D01*
X167082479Y-147718819D01*
X167108769Y-147678088D01*
X167138279Y-147635811D01*
X167171589Y-147591156D01*
X167209277Y-147543292D01*
X167246569Y-147497800D01*
X167266514Y-147474598D01*
X167289957Y-147448573D01*
X167315972Y-147420659D01*
X167343633Y-147391787D01*
X167372014Y-147362890D01*
X167400190Y-147334900D01*
X167427234Y-147308750D01*
X167452221Y-147285371D01*
X167474225Y-147265696D01*
X167490880Y-147251793D01*
X167557531Y-147202895D01*
X167628205Y-147158586D01*
X167701899Y-147119338D01*
X167777609Y-147085627D01*
X167854331Y-147057928D01*
X167931061Y-147036716D01*
X167958137Y-147030830D01*
X167973738Y-147027890D01*
X167988190Y-147025728D01*
X168003076Y-147024232D01*
X168019977Y-147023293D01*
X168040477Y-147022799D01*
X168066158Y-147022641D01*
X168075429Y-147022643D01*
X168102905Y-147022783D01*
X168124626Y-147023200D01*
X168142096Y-147024003D01*
X168156814Y-147025298D01*
X168170281Y-147027195D01*
X168184000Y-147029802D01*
X168188598Y-147030784D01*
X168242426Y-147045215D01*
X168295498Y-147064659D01*
X168347038Y-147088574D01*
X168396272Y-147116419D01*
X168442424Y-147147651D01*
X168484721Y-147181730D01*
X168522386Y-147218113D01*
X168554644Y-147256260D01*
X168580722Y-147295629D01*
X168588603Y-147310306D01*
X168600604Y-147337445D01*
X168612017Y-147369322D01*
X168622053Y-147403425D01*
X168629925Y-147437238D01*
X168632133Y-147449183D01*
X168635907Y-147473354D01*
X168639030Y-147498100D01*
X168641552Y-147524328D01*
X168643518Y-147552946D01*
X168644978Y-147584860D01*
X168645978Y-147620978D01*
X168646567Y-147662207D01*
X168646792Y-147709455D01*
X168646794Y-147728032D01*
X168646659Y-147867914D01*
X168420358Y-147976591D01*
X168382447Y-147994780D01*
X168346439Y-148012019D01*
X168312871Y-148028055D01*
X168282279Y-148042634D01*
X168255197Y-148055501D01*
X168232162Y-148066403D01*
X168213710Y-148075084D01*
X168200375Y-148081292D01*
X168192694Y-148084771D01*
X168190986Y-148085449D01*
X168188556Y-148083038D01*
X168186981Y-148075327D01*
X168186270Y-148062099D01*
X168186435Y-148043137D01*
X168187487Y-148018223D01*
X168189437Y-147987140D01*
X168192296Y-147949671D01*
X168196075Y-147905599D01*
X168200786Y-147854707D01*
X168204783Y-147813486D01*
X168208918Y-147769940D01*
X168212073Y-147732866D01*
X168214264Y-147701543D01*
X168215512Y-147675256D01*
X168215835Y-147653286D01*
X168215250Y-147634915D01*
X168213777Y-147619426D01*
X168211434Y-147606101D01*
X168210256Y-147601214D01*
X168198257Y-147566667D01*
X168181495Y-147535963D01*
X168160580Y-147509917D01*
X168136120Y-147489343D01*
X168119475Y-147479708D01*
X168092486Y-147470444D01*
X168061714Y-147466811D01*
X168027660Y-147468583D01*
X167990828Y-147475535D01*
X167951718Y-147487441D01*
X167910835Y-147504076D01*
X167868679Y-147525215D01*
X167825754Y-147550631D01*
X167782562Y-147580101D01*
X167739606Y-147613397D01*
X167697386Y-147650295D01*
X167661618Y-147685180D01*
X167611888Y-147739983D01*
X167568242Y-147795965D01*
X167530905Y-147852750D01*
X167500101Y-147909960D01*
X167476055Y-147967217D01*
X167458991Y-148024143D01*
X167458187Y-148027571D01*
X167454147Y-148051669D01*
X167451901Y-148079579D01*
X167451449Y-148108898D01*
X167452789Y-148137218D01*
X167455923Y-148162133D01*
X167458201Y-148172714D01*
X167471919Y-148212120D01*
X167491966Y-148249968D01*
X167517415Y-148284834D01*
X167547341Y-148315292D01*
X167555239Y-148321911D01*
X167568983Y-148332653D01*
X167580633Y-148340679D01*
X167592197Y-148347016D01*
X167605682Y-148352688D01*
X167623097Y-148358720D01*
X167634557Y-148362397D01*
X167660511Y-148370052D01*
X167684243Y-148375639D01*
X167707774Y-148379435D01*
X167733122Y-148381713D01*
X167762305Y-148382748D01*
X167785143Y-148382882D01*
X167815004Y-148382477D01*
X167840119Y-148381287D01*
X167862977Y-148379123D01*
X167886066Y-148375791D01*
X167893395Y-148374538D01*
X167963304Y-148359487D01*
X168035936Y-148338456D01*
X168111371Y-148311402D01*
X168189689Y-148278284D01*
X168270973Y-148239060D01*
X168355302Y-148193688D01*
X168442757Y-148142126D01*
X168533420Y-148084331D01*
X168627371Y-148020263D01*
X168724690Y-147949878D01*
X168755786Y-147926596D01*
X168835339Y-147865332D01*
X168916634Y-147800358D01*
X168999195Y-147732140D01*
X169082545Y-147661142D01*
X169166209Y-147587831D01*
X169249711Y-147512672D01*
X169332574Y-147436130D01*
X169414322Y-147358671D01*
X169494479Y-147280760D01*
X169572569Y-147202863D01*
X169648116Y-147125445D01*
X169720643Y-147048971D01*
X169789675Y-146973908D01*
X169854735Y-146900721D01*
X169915347Y-146829874D01*
X169971035Y-146761835D01*
X170021324Y-146697067D01*
X170042034Y-146669155D01*
X170064855Y-146637465D01*
X170086643Y-146606206D01*
X170107794Y-146574709D01*
X170128705Y-146542306D01*
X170149771Y-146508326D01*
X170171389Y-146472100D01*
X170193955Y-146432960D01*
X170217866Y-146390235D01*
X170243517Y-146343258D01*
X170271305Y-146291357D01*
X170301626Y-146233865D01*
X170316045Y-146206292D01*
X170365878Y-146111661D01*
X170413158Y-146023678D01*
X170457953Y-145942222D01*
X170500328Y-145867173D01*
X170540351Y-145798410D01*
X170559125Y-145766971D01*
X170564938Y-145757695D01*
X170574498Y-145742904D01*
X170587479Y-145723088D01*
X170603554Y-145698739D01*
X170622395Y-145670346D01*
X170643676Y-145638401D01*
X170667069Y-145603394D01*
X170692249Y-145565815D01*
X170718887Y-145526155D01*
X170746657Y-145484905D01*
X170775232Y-145442555D01*
X170784044Y-145429514D01*
X170829248Y-145362675D01*
X170870572Y-145301651D01*
X170908165Y-145246222D01*
X170942179Y-145196169D01*
X170972767Y-145151274D01*
X171000078Y-145111317D01*
X171024265Y-145076079D01*
X171045479Y-145045342D01*
X171063872Y-145018886D01*
X171079594Y-144996492D01*
X171092798Y-144977942D01*
X171103634Y-144963016D01*
X171112254Y-144951496D01*
X171118810Y-144943161D01*
X171123452Y-144937794D01*
X171125125Y-144936135D01*
X171129642Y-144933871D01*
X171140206Y-144929491D01*
X171156018Y-144923285D01*
X171176277Y-144915545D01*
X171200184Y-144906559D01*
X171226939Y-144896619D01*
X171255742Y-144886013D01*
X171285794Y-144875033D01*
X171316295Y-144863968D01*
X171346444Y-144853109D01*
X171375443Y-144842745D01*
X171402491Y-144833167D01*
X171426788Y-144824665D01*
X171447536Y-144817529D01*
X171463934Y-144812048D01*
X171475182Y-144808514D01*
X171480480Y-144807216D01*
X171480544Y-144807214D01*
X171488484Y-144810341D01*
G37*
X171488484Y-144810341D02*
X171496962Y-144818467D01*
X171504202Y-144829715D01*
X171506264Y-144834429D01*
X171509543Y-144845192D01*
X171513472Y-144861372D01*
X171517691Y-144881200D01*
X171521838Y-144902906D01*
X171525553Y-144924722D01*
X171527909Y-144940598D01*
X171530030Y-144971555D01*
X171526959Y-144998693D01*
X171518209Y-145023556D01*
X171503295Y-145047685D01*
X171488542Y-145065386D01*
X171466429Y-145091397D01*
X171441534Y-145124008D01*
X171413910Y-145163141D01*
X171383609Y-145208715D01*
X171350682Y-145260650D01*
X171315180Y-145318865D01*
X171277156Y-145383282D01*
X171236661Y-145453819D01*
X171227833Y-145469429D01*
X171211672Y-145497945D01*
X171196606Y-145524216D01*
X171182033Y-145549234D01*
X171167352Y-145573990D01*
X171151960Y-145599478D01*
X171135257Y-145626691D01*
X171116642Y-145656620D01*
X171095512Y-145690259D01*
X171071266Y-145728600D01*
X171060736Y-145745200D01*
X171043280Y-145772543D01*
X171023927Y-145802582D01*
X171003154Y-145834602D01*
X170981436Y-145867884D01*
X170959249Y-145901710D01*
X170937068Y-145935363D01*
X170915368Y-145968125D01*
X170894626Y-145999279D01*
X170875316Y-146028106D01*
X170857916Y-146053891D01*
X170842899Y-146075914D01*
X170830742Y-146093458D01*
X170821921Y-146105806D01*
X170820247Y-146108057D01*
X170809549Y-146122508D01*
X170799870Y-146136238D01*
X170790507Y-146150386D01*
X170780761Y-146166092D01*
X170769930Y-146184494D01*
X170757312Y-146206733D01*
X170742206Y-146233946D01*
X170737599Y-146242314D01*
X170725538Y-146264587D01*
X170711196Y-146291632D01*
X170695049Y-146322511D01*
X170677571Y-146356283D01*
X170659237Y-146392010D01*
X170640524Y-146428752D01*
X170621906Y-146465569D01*
X170603858Y-146501522D01*
X170586856Y-146535671D01*
X170571375Y-146567078D01*
X170557890Y-146594802D01*
X170546876Y-146617904D01*
X170539365Y-146634200D01*
X170524591Y-146667629D01*
X170512820Y-146695464D01*
X170503762Y-146718575D01*
X170497121Y-146737834D01*
X170492607Y-146754110D01*
X170489926Y-146768274D01*
X170488784Y-146781196D01*
X170488700Y-146784786D01*
X170488927Y-146799369D01*
X170490413Y-146810835D01*
X170493853Y-146822100D01*
X170499943Y-146836079D01*
X170501934Y-146840283D01*
X170520433Y-146874919D01*
X170544206Y-146912860D01*
X170572534Y-146953316D01*
X170604700Y-146995499D01*
X170639986Y-147038617D01*
X170677674Y-147081882D01*
X170717047Y-147124502D01*
X170757386Y-147165688D01*
X170797975Y-147204651D01*
X170838095Y-147240599D01*
X170877029Y-147272744D01*
X170914058Y-147300296D01*
X170929214Y-147310532D01*
X170954790Y-147325901D01*
X170982554Y-147339862D01*
X171013900Y-147353019D01*
X171050222Y-147365978D01*
X171075280Y-147374002D01*
X171129822Y-147389683D01*
X171182976Y-147402653D01*
X171233643Y-147412704D01*
X171280724Y-147419631D01*
X171323123Y-147423229D01*
X171340655Y-147423708D01*
X171362175Y-147423359D01*
X171377370Y-147421830D01*
X171387116Y-147418861D01*
X171392286Y-147414188D01*
X171393757Y-147407792D01*
X171392441Y-147397712D01*
X171388516Y-147380994D01*
X171382016Y-147357757D01*
X171372974Y-147328121D01*
X171361424Y-147292207D01*
X171359228Y-147285529D01*
X171344493Y-147238908D01*
X171332770Y-147196914D01*
X171323761Y-147157718D01*
X171317170Y-147119489D01*
X171312699Y-147080395D01*
X171310050Y-147038606D01*
X171308927Y-146992291D01*
X171308840Y-146975286D01*
X171309076Y-146935614D01*
X171310002Y-146901086D01*
X171311789Y-146869608D01*
X171314610Y-146839085D01*
X171317750Y-146814390D01*
X171698365Y-146814390D01*
X171701319Y-146881130D01*
X171709684Y-146951458D01*
X171713297Y-146973471D01*
X171722727Y-147021093D01*
X171734046Y-147067237D01*
X171746940Y-147111076D01*
X171761099Y-147151784D01*
X171776210Y-147188532D01*
X171791962Y-147220496D01*
X171808042Y-147246848D01*
X171823864Y-147266479D01*
X171836237Y-147278021D01*
X171846900Y-147284198D01*
X171857556Y-147285108D01*
X171869907Y-147280848D01*
X171885658Y-147271516D01*
X171887737Y-147270141D01*
X171904621Y-147257387D01*
X171925085Y-147239440D01*
X171948494Y-147217018D01*
X171974216Y-147190837D01*
X172001616Y-147161615D01*
X172030064Y-147130070D01*
X172058924Y-147096917D01*
X172087564Y-147062875D01*
X172115352Y-147028661D01*
X172141653Y-146994991D01*
X172165836Y-146962584D01*
X172187266Y-146932155D01*
X172191082Y-146926495D01*
X172218199Y-146883749D01*
X172239983Y-146844141D01*
X172256857Y-146806391D01*
X172269245Y-146769219D01*
X172277571Y-146731345D01*
X172282259Y-146691491D01*
X172283734Y-146648377D01*
X172283733Y-146646900D01*
X172281663Y-146590913D01*
X172275628Y-146540844D01*
X172265573Y-146496495D01*
X172251439Y-146457668D01*
X172233172Y-146424166D01*
X172212417Y-146397608D01*
X172187399Y-146375092D01*
X172159858Y-146359133D01*
X172129181Y-146349469D01*
X172094752Y-146345839D01*
X172090443Y-146345797D01*
X172054076Y-146348918D01*
X172015500Y-146357914D01*
X171975743Y-146372163D01*
X171935832Y-146391046D01*
X171896798Y-146413942D01*
X171859667Y-146440230D01*
X171825469Y-146469291D01*
X171795232Y-146500503D01*
X171769984Y-146533247D01*
X171763801Y-146542845D01*
X171740113Y-146588074D01*
X171721697Y-146638081D01*
X171708582Y-146692628D01*
X171700795Y-146751477D01*
X171698365Y-146814390D01*
X171317750Y-146814390D01*
X171318637Y-146807422D01*
X171324041Y-146772525D01*
X171326874Y-146755757D01*
X171340788Y-146686533D01*
X171358417Y-146618072D01*
X171379360Y-146551442D01*
X171403220Y-146487708D01*
X171429598Y-146427939D01*
X171458095Y-146373203D01*
X171487347Y-146325982D01*
X171523145Y-146277666D01*
X171564933Y-146228837D01*
X171611619Y-146180550D01*
X171662107Y-146133858D01*
X171715301Y-146089814D01*
X171770108Y-146049472D01*
X171785643Y-146038951D01*
X171837493Y-146007122D01*
X171888425Y-145981385D01*
X171940085Y-145961044D01*
X171994117Y-145945400D01*
X172020025Y-145939629D01*
X172083612Y-145929786D01*
X172144676Y-145926723D01*
X172203345Y-145930467D01*
X172259753Y-145941044D01*
X172314030Y-145958480D01*
X172366307Y-145982804D01*
X172416717Y-146014040D01*
X172427900Y-146022086D01*
X172479102Y-146062462D01*
X172523412Y-146103051D01*
X172561187Y-146144363D01*
X172592788Y-146186910D01*
X172618572Y-146231201D01*
X172638899Y-146277747D01*
X172654126Y-146327060D01*
X172659807Y-146352250D01*
X172666166Y-146391980D01*
X172670633Y-146437229D01*
X172673226Y-146486515D01*
X172673966Y-146538359D01*
X172672872Y-146591278D01*
X172669964Y-146643791D01*
X172665262Y-146694417D01*
X172658786Y-146741675D01*
X172654287Y-146766643D01*
X172641097Y-146821783D01*
X172623697Y-146874766D01*
X172601665Y-146926380D01*
X172574580Y-146977413D01*
X172542021Y-147028654D01*
X172503567Y-147080892D01*
X172458796Y-147134915D01*
X172455600Y-147138571D01*
X172446956Y-147148120D01*
X172433904Y-147162117D01*
X172417132Y-147179842D01*
X172397329Y-147200577D01*
X172375182Y-147223603D01*
X172351381Y-147248200D01*
X172326612Y-147273651D01*
X172311450Y-147289157D01*
X172276139Y-147325347D01*
X172245695Y-147356908D01*
X172219778Y-147384265D01*
X172198046Y-147407845D01*
X172180159Y-147428071D01*
X172165776Y-147445371D01*
X172154557Y-147460169D01*
X172146161Y-147472890D01*
X172140247Y-147483960D01*
X172136474Y-147493804D01*
X172134503Y-147502848D01*
X172133986Y-147510723D01*
X172135503Y-147522524D01*
X172140515Y-147532714D01*
X172149714Y-147541770D01*
X172163790Y-147550167D01*
X172183433Y-147558381D01*
X172209336Y-147566886D01*
X172220208Y-147570078D01*
X172274395Y-147583469D01*
X172325522Y-147591400D01*
X172374823Y-147593797D01*
X172423529Y-147590585D01*
X172472873Y-147581689D01*
X172524088Y-147567034D01*
X172573292Y-147548658D01*
X172597042Y-147538622D01*
X172620111Y-147528164D01*
X172643738Y-147516650D01*
X172669164Y-147503445D01*
X172697630Y-147487915D01*
X172730376Y-147469425D01*
X172748088Y-147459249D01*
X172815236Y-147420533D01*
X172876479Y-147385295D01*
X172932170Y-147353341D01*
X172982665Y-147324479D01*
X173028319Y-147298515D01*
X173069484Y-147275255D01*
X173106517Y-147254507D01*
X173139770Y-147236077D01*
X173169600Y-147219772D01*
X173196361Y-147205399D01*
X173220406Y-147192764D01*
X173242091Y-147181674D01*
X173261771Y-147171935D01*
X173279798Y-147163355D01*
X173296529Y-147155740D01*
X173312317Y-147148897D01*
X173327517Y-147142632D01*
X173332160Y-147140779D01*
X173359426Y-147131497D01*
X173388913Y-147124080D01*
X173418978Y-147118739D01*
X173447977Y-147115685D01*
X173474267Y-147115130D01*
X173496205Y-147117285D01*
X173502933Y-147118824D01*
X173520625Y-147127339D01*
X173534574Y-147141819D01*
X173544621Y-147161919D01*
X173550611Y-147187295D01*
X173552388Y-147217604D01*
X173552105Y-147227016D01*
X173551113Y-147242718D01*
X173549422Y-147254791D01*
X173546331Y-147265772D01*
X173541136Y-147278196D01*
X173533667Y-147293535D01*
X173512455Y-147330067D01*
X173484675Y-147368282D01*
X173450723Y-147407823D01*
X173410996Y-147448335D01*
X173365891Y-147489463D01*
X173315804Y-147530852D01*
X173261133Y-147572146D01*
X173202274Y-147612989D01*
X173139624Y-147653026D01*
X173117374Y-147666485D01*
X173071768Y-147692962D01*
X173027610Y-147717000D01*
X172983899Y-147739007D01*
X172939636Y-147759387D01*
X172893820Y-147778545D01*
X172845451Y-147796888D01*
X172793529Y-147814820D01*
X172737054Y-147832748D01*
X172675026Y-147851076D01*
X172632914Y-147862938D01*
X172536706Y-147887214D01*
X172444278Y-147905593D01*
X172355213Y-147918099D01*
X172269095Y-147924756D01*
X172185506Y-147925586D01*
X172104031Y-147920613D01*
X172024251Y-147909861D01*
X171974329Y-147900054D01*
X171947488Y-147893430D01*
X171916311Y-147884592D01*
X171882925Y-147874235D01*
X171849455Y-147863053D01*
X171818027Y-147851741D01*
X171790768Y-147840993D01*
X171782014Y-147837232D01*
X171749799Y-147823317D01*
X171722903Y-147812637D01*
X171700246Y-147805008D01*
X171680744Y-147800248D01*
X171663317Y-147798174D01*
X171646882Y-147798604D01*
X171630358Y-147801354D01*
X171612661Y-147806241D01*
X171607843Y-147807803D01*
X171556193Y-147822344D01*
X171499277Y-147833689D01*
X171438371Y-147841783D01*
X171374750Y-147846570D01*
X171309693Y-147847993D01*
X171244474Y-147845997D01*
X171180371Y-147840526D01*
X171118660Y-147831523D01*
X171108887Y-147829711D01*
X171024095Y-147810491D01*
X170939925Y-147785311D01*
X170855886Y-147753967D01*
X170771488Y-147716255D01*
X170686242Y-147671974D01*
X170599658Y-147620918D01*
X170587551Y-147613314D01*
X170535205Y-147578909D01*
X170481861Y-147541432D01*
X170428496Y-147501687D01*
X170376089Y-147460481D01*
X170325619Y-147418619D01*
X170278065Y-147376905D01*
X170234405Y-147336146D01*
X170195618Y-147297146D01*
X170171616Y-147271014D01*
X170160404Y-147258314D01*
X169983331Y-147434513D01*
X169875500Y-147541112D01*
X169771813Y-147642163D01*
X169672008Y-147737884D01*
X169575826Y-147828493D01*
X169483005Y-147914210D01*
X169393284Y-147995254D01*
X169306402Y-148071842D01*
X169222099Y-148144194D01*
X169140112Y-148212528D01*
X169060182Y-148277064D01*
X168982046Y-148338019D01*
X168905445Y-148395613D01*
X168830118Y-148450065D01*
X168755803Y-148501593D01*
X168682239Y-148550415D01*
X168609165Y-148596751D01*
X168563303Y-148624741D01*
X168522043Y-148649119D01*
X168479758Y-148673307D01*
X168437255Y-148696888D01*
X168395345Y-148719447D01*
X168354836Y-148740569D01*
X168316537Y-148759837D01*
X168281256Y-148776837D01*
X168249803Y-148791152D01*
X168222986Y-148802367D01*
X168204313Y-148809194D01*
X168145656Y-148826396D01*
X168081274Y-148841332D01*
X168012379Y-148853866D01*
X167940182Y-148863865D01*
X167865897Y-148871194D01*
X167790734Y-148875718D01*
X167715906Y-148877302D01*
X167642624Y-148875813D01*
X167616414Y-148874472D01*
X167558316Y-148869852D01*
X167505622Y-148863051D01*
X167456690Y-148853628D01*
X167409879Y-148841142D01*
X167363549Y-148825152D01*
X167316057Y-148805218D01*
X167265762Y-148780899D01*
X167263338Y-148779659D01*
X167207246Y-148748590D01*
X167157622Y-148715949D01*
X167114046Y-148681156D01*
X167076097Y-148643629D01*
X167043353Y-148602785D01*
X167015395Y-148558044D01*
X166991801Y-148508822D01*
X166972151Y-148454539D01*
X166956024Y-148394611D01*
X166944833Y-148339149D01*
X166940734Y-148309940D01*
X166937627Y-148275751D01*
X166935587Y-148238802D01*
X166934689Y-148201311D01*
X166935008Y-148165500D01*
X166936620Y-148133586D01*
X166937537Y-148123418D01*
X166947777Y-148052799D01*
X166963852Y-147983580D01*
X166986061Y-147914790D01*
X167014703Y-147845454D01*
X167037251Y-147798971D01*
X167058833Y-147758836D01*
X167082479Y-147718819D01*
X167108769Y-147678088D01*
X167138279Y-147635811D01*
X167171589Y-147591156D01*
X167209277Y-147543292D01*
X167246569Y-147497800D01*
X167266514Y-147474598D01*
X167289957Y-147448573D01*
X167315972Y-147420659D01*
X167343633Y-147391787D01*
X167372014Y-147362890D01*
X167400190Y-147334900D01*
X167427234Y-147308750D01*
X167452221Y-147285371D01*
X167474225Y-147265696D01*
X167490880Y-147251793D01*
X167557531Y-147202895D01*
X167628205Y-147158586D01*
X167701899Y-147119338D01*
X167777609Y-147085627D01*
X167854331Y-147057928D01*
X167931061Y-147036716D01*
X167958137Y-147030830D01*
X167973738Y-147027890D01*
X167988190Y-147025728D01*
X168003076Y-147024232D01*
X168019977Y-147023293D01*
X168040477Y-147022799D01*
X168066158Y-147022641D01*
X168075429Y-147022643D01*
X168102905Y-147022783D01*
X168124626Y-147023200D01*
X168142096Y-147024003D01*
X168156814Y-147025298D01*
X168170281Y-147027195D01*
X168184000Y-147029802D01*
X168188598Y-147030784D01*
X168242426Y-147045215D01*
X168295498Y-147064659D01*
X168347038Y-147088574D01*
X168396272Y-147116419D01*
X168442424Y-147147651D01*
X168484721Y-147181730D01*
X168522386Y-147218113D01*
X168554644Y-147256260D01*
X168580722Y-147295629D01*
X168588603Y-147310306D01*
X168600604Y-147337445D01*
X168612017Y-147369322D01*
X168622053Y-147403425D01*
X168629925Y-147437238D01*
X168632133Y-147449183D01*
X168635907Y-147473354D01*
X168639030Y-147498100D01*
X168641552Y-147524328D01*
X168643518Y-147552946D01*
X168644978Y-147584860D01*
X168645978Y-147620978D01*
X168646567Y-147662207D01*
X168646792Y-147709455D01*
X168646794Y-147728032D01*
X168646659Y-147867914D01*
X168420358Y-147976591D01*
X168382447Y-147994780D01*
X168346439Y-148012019D01*
X168312871Y-148028055D01*
X168282279Y-148042634D01*
X168255197Y-148055501D01*
X168232162Y-148066403D01*
X168213710Y-148075084D01*
X168200375Y-148081292D01*
X168192694Y-148084771D01*
X168190986Y-148085449D01*
X168188556Y-148083038D01*
X168186981Y-148075327D01*
X168186270Y-148062099D01*
X168186435Y-148043137D01*
X168187487Y-148018223D01*
X168189437Y-147987140D01*
X168192296Y-147949671D01*
X168196075Y-147905599D01*
X168200786Y-147854707D01*
X168204783Y-147813486D01*
X168208918Y-147769940D01*
X168212073Y-147732866D01*
X168214264Y-147701543D01*
X168215512Y-147675256D01*
X168215835Y-147653286D01*
X168215250Y-147634915D01*
X168213777Y-147619426D01*
X168211434Y-147606101D01*
X168210256Y-147601214D01*
X168198257Y-147566667D01*
X168181495Y-147535963D01*
X168160580Y-147509917D01*
X168136120Y-147489343D01*
X168119475Y-147479708D01*
X168092486Y-147470444D01*
X168061714Y-147466811D01*
X168027660Y-147468583D01*
X167990828Y-147475535D01*
X167951718Y-147487441D01*
X167910835Y-147504076D01*
X167868679Y-147525215D01*
X167825754Y-147550631D01*
X167782562Y-147580101D01*
X167739606Y-147613397D01*
X167697386Y-147650295D01*
X167661618Y-147685180D01*
X167611888Y-147739983D01*
X167568242Y-147795965D01*
X167530905Y-147852750D01*
X167500101Y-147909960D01*
X167476055Y-147967217D01*
X167458991Y-148024143D01*
X167458187Y-148027571D01*
X167454147Y-148051669D01*
X167451901Y-148079579D01*
X167451449Y-148108898D01*
X167452789Y-148137218D01*
X167455923Y-148162133D01*
X167458201Y-148172714D01*
X167471919Y-148212120D01*
X167491966Y-148249968D01*
X167517415Y-148284834D01*
X167547341Y-148315292D01*
X167555239Y-148321911D01*
X167568983Y-148332653D01*
X167580633Y-148340679D01*
X167592197Y-148347016D01*
X167605682Y-148352688D01*
X167623097Y-148358720D01*
X167634557Y-148362397D01*
X167660511Y-148370052D01*
X167684243Y-148375639D01*
X167707774Y-148379435D01*
X167733122Y-148381713D01*
X167762305Y-148382748D01*
X167785143Y-148382882D01*
X167815004Y-148382477D01*
X167840119Y-148381287D01*
X167862977Y-148379123D01*
X167886066Y-148375791D01*
X167893395Y-148374538D01*
X167963304Y-148359487D01*
X168035936Y-148338456D01*
X168111371Y-148311402D01*
X168189689Y-148278284D01*
X168270973Y-148239060D01*
X168355302Y-148193688D01*
X168442757Y-148142126D01*
X168533420Y-148084331D01*
X168627371Y-148020263D01*
X168724690Y-147949878D01*
X168755786Y-147926596D01*
X168835339Y-147865332D01*
X168916634Y-147800358D01*
X168999195Y-147732140D01*
X169082545Y-147661142D01*
X169166209Y-147587831D01*
X169249711Y-147512672D01*
X169332574Y-147436130D01*
X169414322Y-147358671D01*
X169494479Y-147280760D01*
X169572569Y-147202863D01*
X169648116Y-147125445D01*
X169720643Y-147048971D01*
X169789675Y-146973908D01*
X169854735Y-146900721D01*
X169915347Y-146829874D01*
X169971035Y-146761835D01*
X170021324Y-146697067D01*
X170042034Y-146669155D01*
X170064855Y-146637465D01*
X170086643Y-146606206D01*
X170107794Y-146574709D01*
X170128705Y-146542306D01*
X170149771Y-146508326D01*
X170171389Y-146472100D01*
X170193955Y-146432960D01*
X170217866Y-146390235D01*
X170243517Y-146343258D01*
X170271305Y-146291357D01*
X170301626Y-146233865D01*
X170316045Y-146206292D01*
X170365878Y-146111661D01*
X170413158Y-146023678D01*
X170457953Y-145942222D01*
X170500328Y-145867173D01*
X170540351Y-145798410D01*
X170559125Y-145766971D01*
X170564938Y-145757695D01*
X170574498Y-145742904D01*
X170587479Y-145723088D01*
X170603554Y-145698739D01*
X170622395Y-145670346D01*
X170643676Y-145638401D01*
X170667069Y-145603394D01*
X170692249Y-145565815D01*
X170718887Y-145526155D01*
X170746657Y-145484905D01*
X170775232Y-145442555D01*
X170784044Y-145429514D01*
X170829248Y-145362675D01*
X170870572Y-145301651D01*
X170908165Y-145246222D01*
X170942179Y-145196169D01*
X170972767Y-145151274D01*
X171000078Y-145111317D01*
X171024265Y-145076079D01*
X171045479Y-145045342D01*
X171063872Y-145018886D01*
X171079594Y-144996492D01*
X171092798Y-144977942D01*
X171103634Y-144963016D01*
X171112254Y-144951496D01*
X171118810Y-144943161D01*
X171123452Y-144937794D01*
X171125125Y-144936135D01*
X171129642Y-144933871D01*
X171140206Y-144929491D01*
X171156018Y-144923285D01*
X171176277Y-144915545D01*
X171200184Y-144906559D01*
X171226939Y-144896619D01*
X171255742Y-144886013D01*
X171285794Y-144875033D01*
X171316295Y-144863968D01*
X171346444Y-144853109D01*
X171375443Y-144842745D01*
X171402491Y-144833167D01*
X171426788Y-144824665D01*
X171447536Y-144817529D01*
X171463934Y-144812048D01*
X171475182Y-144808514D01*
X171480480Y-144807216D01*
X171480544Y-144807214D01*
X171488484Y-144810341D01*
G36*
X170941739Y-148611067D02*
G01*
X170956780Y-148612504D01*
X170973363Y-148614714D01*
X170978286Y-148615442D01*
X171019390Y-148622759D01*
X171054793Y-148631648D01*
X171085953Y-148642513D01*
X171102147Y-148649635D01*
X171131325Y-148666028D01*
X171153472Y-148684174D01*
X171168606Y-148704105D01*
X171176747Y-148725850D01*
X171177913Y-148749442D01*
X171174205Y-148768418D01*
X171166664Y-148790637D01*
X171157332Y-148810368D01*
X171145439Y-148828441D01*
X171130216Y-148845687D01*
X171110892Y-148862935D01*
X171086700Y-148881015D01*
X171056868Y-148900758D01*
X171044163Y-148908702D01*
X171024973Y-148919988D01*
X171006075Y-148929733D01*
X170985421Y-148938875D01*
X170960965Y-148948350D01*
X170944378Y-148954314D01*
X170899387Y-148969982D01*
X170854603Y-148985173D01*
X170809226Y-149000131D01*
X170762454Y-149015102D01*
X170713489Y-149030331D01*
X170661529Y-149046064D01*
X170605775Y-149062546D01*
X170545426Y-149080022D01*
X170479681Y-149098738D01*
X170407742Y-149118939D01*
X170403157Y-149120218D01*
X170317221Y-149144249D01*
X170237919Y-149166544D01*
X170164870Y-149187220D01*
X170097693Y-149206395D01*
X170036007Y-149224186D01*
X169979430Y-149240713D01*
X169927581Y-149256091D01*
X169880078Y-149270440D01*
X169836540Y-149283877D01*
X169796585Y-149296520D01*
X169759833Y-149308487D01*
X169725901Y-149319895D01*
X169694408Y-149330863D01*
X169664973Y-149341508D01*
X169637215Y-149351948D01*
X169610751Y-149362301D01*
X169585201Y-149372685D01*
X169583100Y-149373555D01*
X169529806Y-149395064D01*
X169482089Y-149412957D01*
X169439320Y-149427387D01*
X169400874Y-149438506D01*
X169366122Y-149446465D01*
X169334440Y-149451416D01*
X169305198Y-149453511D01*
X169277772Y-149452901D01*
X169261972Y-149451307D01*
X169230290Y-149443919D01*
X169201501Y-149430750D01*
X169176594Y-149412453D01*
X169156555Y-149389677D01*
X169148503Y-149376500D01*
X169134248Y-149343212D01*
X169126982Y-149310450D01*
X169126727Y-149278542D01*
X169133504Y-149247816D01*
X169139272Y-149233560D01*
X169154276Y-149208633D01*
X169175768Y-149183487D01*
X169203027Y-149158726D01*
X169235331Y-149134957D01*
X169271958Y-149112784D01*
X169300909Y-149098002D01*
X169314079Y-149092033D01*
X169333348Y-149083683D01*
X169358058Y-149073218D01*
X169387550Y-149060902D01*
X169421166Y-149047002D01*
X169458246Y-149031782D01*
X169498134Y-149015508D01*
X169540170Y-148998444D01*
X169583696Y-148980857D01*
X169628054Y-148963011D01*
X169672584Y-148945172D01*
X169716629Y-148927605D01*
X169759530Y-148910575D01*
X169800629Y-148894347D01*
X169839267Y-148879188D01*
X169874786Y-148865361D01*
X169906526Y-148853133D01*
X169933831Y-148842769D01*
X169942329Y-148839589D01*
X170055826Y-148798541D01*
X170164199Y-148761883D01*
X170267995Y-148729478D01*
X170367762Y-148701190D01*
X170464048Y-148676882D01*
X170557400Y-148656417D01*
X170648366Y-148639658D01*
X170737493Y-148626468D01*
X170825328Y-148616710D01*
X170838586Y-148615520D01*
X170867809Y-148613076D01*
X170891276Y-148611409D01*
X170910447Y-148610519D01*
X170926782Y-148610406D01*
X170941739Y-148611067D01*
G37*
X170941739Y-148611067D02*
X170956780Y-148612504D01*
X170973363Y-148614714D01*
X170978286Y-148615442D01*
X171019390Y-148622759D01*
X171054793Y-148631648D01*
X171085953Y-148642513D01*
X171102147Y-148649635D01*
X171131325Y-148666028D01*
X171153472Y-148684174D01*
X171168606Y-148704105D01*
X171176747Y-148725850D01*
X171177913Y-148749442D01*
X171174205Y-148768418D01*
X171166664Y-148790637D01*
X171157332Y-148810368D01*
X171145439Y-148828441D01*
X171130216Y-148845687D01*
X171110892Y-148862935D01*
X171086700Y-148881015D01*
X171056868Y-148900758D01*
X171044163Y-148908702D01*
X171024973Y-148919988D01*
X171006075Y-148929733D01*
X170985421Y-148938875D01*
X170960965Y-148948350D01*
X170944378Y-148954314D01*
X170899387Y-148969982D01*
X170854603Y-148985173D01*
X170809226Y-149000131D01*
X170762454Y-149015102D01*
X170713489Y-149030331D01*
X170661529Y-149046064D01*
X170605775Y-149062546D01*
X170545426Y-149080022D01*
X170479681Y-149098738D01*
X170407742Y-149118939D01*
X170403157Y-149120218D01*
X170317221Y-149144249D01*
X170237919Y-149166544D01*
X170164870Y-149187220D01*
X170097693Y-149206395D01*
X170036007Y-149224186D01*
X169979430Y-149240713D01*
X169927581Y-149256091D01*
X169880078Y-149270440D01*
X169836540Y-149283877D01*
X169796585Y-149296520D01*
X169759833Y-149308487D01*
X169725901Y-149319895D01*
X169694408Y-149330863D01*
X169664973Y-149341508D01*
X169637215Y-149351948D01*
X169610751Y-149362301D01*
X169585201Y-149372685D01*
X169583100Y-149373555D01*
X169529806Y-149395064D01*
X169482089Y-149412957D01*
X169439320Y-149427387D01*
X169400874Y-149438506D01*
X169366122Y-149446465D01*
X169334440Y-149451416D01*
X169305198Y-149453511D01*
X169277772Y-149452901D01*
X169261972Y-149451307D01*
X169230290Y-149443919D01*
X169201501Y-149430750D01*
X169176594Y-149412453D01*
X169156555Y-149389677D01*
X169148503Y-149376500D01*
X169134248Y-149343212D01*
X169126982Y-149310450D01*
X169126727Y-149278542D01*
X169133504Y-149247816D01*
X169139272Y-149233560D01*
X169154276Y-149208633D01*
X169175768Y-149183487D01*
X169203027Y-149158726D01*
X169235331Y-149134957D01*
X169271958Y-149112784D01*
X169300909Y-149098002D01*
X169314079Y-149092033D01*
X169333348Y-149083683D01*
X169358058Y-149073218D01*
X169387550Y-149060902D01*
X169421166Y-149047002D01*
X169458246Y-149031782D01*
X169498134Y-149015508D01*
X169540170Y-148998444D01*
X169583696Y-148980857D01*
X169628054Y-148963011D01*
X169672584Y-148945172D01*
X169716629Y-148927605D01*
X169759530Y-148910575D01*
X169800629Y-148894347D01*
X169839267Y-148879188D01*
X169874786Y-148865361D01*
X169906526Y-148853133D01*
X169933831Y-148842769D01*
X169942329Y-148839589D01*
X170055826Y-148798541D01*
X170164199Y-148761883D01*
X170267995Y-148729478D01*
X170367762Y-148701190D01*
X170464048Y-148676882D01*
X170557400Y-148656417D01*
X170648366Y-148639658D01*
X170737493Y-148626468D01*
X170825328Y-148616710D01*
X170838586Y-148615520D01*
X170867809Y-148613076D01*
X170891276Y-148611409D01*
X170910447Y-148610519D01*
X170926782Y-148610406D01*
X170941739Y-148611067D01*
D14*
X125026500Y-108587500D02*
G75*
G03*
X125026500Y-108587500I-200000J0D01*
G01*
D15*
X152826500Y-134437500D02*
X126126500Y-134437500D01*
X152826500Y-102737500D02*
X152826500Y-134437500D01*
X126126500Y-102737500D02*
X152826500Y-102737500D01*
X126126500Y-134437500D02*
X126126500Y-102737500D01*
D11*
X168826500Y-113601500D02*
X168826500Y-111651500D01*
X168826500Y-113601500D02*
X168826500Y-115551500D01*
X158706500Y-113601500D02*
X158706500Y-111651500D01*
X158706500Y-113601500D02*
X158706500Y-117051500D01*
X141456500Y-92265500D02*
G75*
G03*
X141456500Y-92265500I-4360000J0D01*
G01*
X186177500Y-89898936D02*
X186177500Y-94003064D01*
X182757500Y-89898936D02*
X182757500Y-94003064D01*
X181097500Y-89898936D02*
X181097500Y-94003064D01*
X177677500Y-89898936D02*
X177677500Y-94003064D01*
X143303300Y-148180100D02*
X141973300Y-148180100D01*
X143303300Y-146850100D02*
X143303300Y-148180100D01*
X143303300Y-145580100D02*
X140643300Y-145580100D01*
X140643300Y-145580100D02*
X140643300Y-142980100D01*
X143303300Y-145580100D02*
X143303300Y-142980100D01*
X143303300Y-142980100D02*
X140643300Y-142980100D01*
X144141700Y-142703100D02*
X144141700Y-143953100D01*
X145391700Y-142703100D02*
X144141700Y-142703100D01*
X151291700Y-148203100D02*
X148241700Y-148203100D01*
X151291700Y-145253100D02*
X151291700Y-148203100D01*
X152041700Y-145253100D02*
X151291700Y-145253100D01*
X145191700Y-148203100D02*
X148241700Y-148203100D01*
X145191700Y-145253100D02*
X145191700Y-148203100D01*
X144441700Y-145253100D02*
X145191700Y-145253100D01*
X152041700Y-143003100D02*
X150241700Y-143003100D01*
X152041700Y-143753100D02*
X152041700Y-143003100D01*
X150241700Y-143753100D02*
X152041700Y-143753100D01*
X150241700Y-143003100D02*
X150241700Y-143753100D01*
X146241700Y-143003100D02*
X144441700Y-143003100D01*
X146241700Y-143753100D02*
X146241700Y-143003100D01*
X144441700Y-143753100D02*
X146241700Y-143753100D01*
X144441700Y-143003100D02*
X144441700Y-143753100D01*
X148741700Y-143003100D02*
X147741700Y-143003100D01*
X148741700Y-143753100D02*
X148741700Y-143003100D01*
X147741700Y-143753100D02*
X148741700Y-143753100D01*
X147741700Y-143003100D02*
X147741700Y-143753100D01*
X152051700Y-142993100D02*
X144431700Y-142993100D01*
X152051700Y-148963100D02*
X152051700Y-142993100D01*
X144431700Y-148963100D02*
X152051700Y-148963100D01*
X144431700Y-142993100D02*
X144431700Y-148963100D01*
X182757500Y-98008936D02*
X182757500Y-102113064D01*
X186177500Y-98008936D02*
X186177500Y-102113064D01*
X156460500Y-123313500D02*
X155130500Y-123313500D01*
X156460500Y-121983500D02*
X156460500Y-123313500D01*
X156460500Y-120713500D02*
X153800500Y-120713500D01*
X153800500Y-120713500D02*
X153800500Y-118113500D01*
X156460500Y-120713500D02*
X156460500Y-118113500D01*
X156460500Y-118113500D02*
X153800500Y-118113500D01*
D10*
X130394500Y-101930840D02*
X142394500Y-101930840D01*
X130394500Y-97730840D02*
X142394500Y-97730840D01*
X142394500Y-97730840D02*
X142394500Y-101930840D01*
X130394500Y-97730840D02*
X130394500Y-101930840D01*
D11*
X144442500Y-136033500D02*
X144442500Y-142003500D01*
X144442500Y-142003500D02*
X152062500Y-142003500D01*
X152062500Y-142003500D02*
X152062500Y-136033500D01*
X152062500Y-136033500D02*
X144442500Y-136033500D01*
X147752500Y-136043500D02*
X147752500Y-136793500D01*
X147752500Y-136793500D02*
X148752500Y-136793500D01*
X148752500Y-136793500D02*
X148752500Y-136043500D01*
X148752500Y-136043500D02*
X147752500Y-136043500D01*
X144452500Y-136043500D02*
X144452500Y-136793500D01*
X144452500Y-136793500D02*
X146252500Y-136793500D01*
X146252500Y-136793500D02*
X146252500Y-136043500D01*
X146252500Y-136043500D02*
X144452500Y-136043500D01*
X150252500Y-136043500D02*
X150252500Y-136793500D01*
X150252500Y-136793500D02*
X152052500Y-136793500D01*
X152052500Y-136793500D02*
X152052500Y-136043500D01*
X152052500Y-136043500D02*
X150252500Y-136043500D01*
X144452500Y-138293500D02*
X145202500Y-138293500D01*
X145202500Y-138293500D02*
X145202500Y-141243500D01*
X145202500Y-141243500D02*
X148252500Y-141243500D01*
X152052500Y-138293500D02*
X151302500Y-138293500D01*
X151302500Y-138293500D02*
X151302500Y-141243500D01*
X151302500Y-141243500D02*
X148252500Y-141243500D01*
X145402500Y-135743500D02*
X144152500Y-135743500D01*
X144152500Y-135743500D02*
X144152500Y-136993500D01*
X151108500Y-91757500D02*
G75*
G03*
X151108500Y-91757500I-4360000J0D01*
G01*
D10*
X140406642Y-141216119D02*
X140454261Y-141168500D01*
X140549500Y-141120880D01*
X140787595Y-141120880D01*
X140882833Y-141168500D01*
X140930452Y-141216119D01*
X140978071Y-141311357D01*
X140978071Y-141406595D01*
X140930452Y-141549452D01*
X140359023Y-142120880D01*
X140978071Y-142120880D01*
X141359023Y-141216119D02*
X141406642Y-141168500D01*
X141501880Y-141120880D01*
X141739976Y-141120880D01*
X141835214Y-141168500D01*
X141882833Y-141216119D01*
X141930452Y-141311357D01*
X141930452Y-141406595D01*
X141882833Y-141549452D01*
X141311404Y-142120880D01*
X141930452Y-142120880D01*
X142787595Y-141454214D02*
X142787595Y-142120880D01*
X142359023Y-141454214D02*
X142359023Y-141978023D01*
X142406642Y-142073261D01*
X142501880Y-142120880D01*
X142644738Y-142120880D01*
X142739976Y-142073261D01*
X142787595Y-142025642D01*
X143597119Y-141597071D02*
X143263785Y-141597071D01*
X143263785Y-142120880D02*
X143263785Y-141120880D01*
X143739976Y-141120880D01*
X195736642Y-122213642D02*
X195689023Y-122261261D01*
X195546166Y-122308880D01*
X195450928Y-122308880D01*
X195308071Y-122261261D01*
X195212833Y-122166023D01*
X195165214Y-122070785D01*
X195117595Y-121880309D01*
X195117595Y-121737452D01*
X195165214Y-121546976D01*
X195212833Y-121451738D01*
X195308071Y-121356500D01*
X195450928Y-121308880D01*
X195546166Y-121308880D01*
X195689023Y-121356500D01*
X195736642Y-121404119D01*
X196689023Y-122308880D02*
X196117595Y-122308880D01*
X196403309Y-122308880D02*
X196403309Y-121308880D01*
X196308071Y-121451738D01*
X196212833Y-121546976D01*
X196117595Y-121594595D01*
X197546166Y-121642214D02*
X197546166Y-122308880D01*
X197308071Y-121261261D02*
X197069976Y-121975547D01*
X197689023Y-121975547D01*
X190047642Y-122467642D02*
X190000023Y-122515261D01*
X189857166Y-122562880D01*
X189761928Y-122562880D01*
X189619071Y-122515261D01*
X189523833Y-122420023D01*
X189476214Y-122324785D01*
X189428595Y-122134309D01*
X189428595Y-121991452D01*
X189476214Y-121800976D01*
X189523833Y-121705738D01*
X189619071Y-121610500D01*
X189761928Y-121562880D01*
X189857166Y-121562880D01*
X190000023Y-121610500D01*
X190047642Y-121658119D01*
X191000023Y-122562880D02*
X190428595Y-122562880D01*
X190714309Y-122562880D02*
X190714309Y-121562880D01*
X190619071Y-121705738D01*
X190523833Y-121800976D01*
X190428595Y-121848595D01*
X191333357Y-121562880D02*
X191952404Y-121562880D01*
X191619071Y-121943833D01*
X191761928Y-121943833D01*
X191857166Y-121991452D01*
X191904785Y-122039071D01*
X191952404Y-122134309D01*
X191952404Y-122372404D01*
X191904785Y-122467642D01*
X191857166Y-122515261D01*
X191761928Y-122562880D01*
X191476214Y-122562880D01*
X191380976Y-122515261D01*
X191333357Y-122467642D01*
X178998642Y-122467642D02*
X178951023Y-122515261D01*
X178808166Y-122562880D01*
X178712928Y-122562880D01*
X178570071Y-122515261D01*
X178474833Y-122420023D01*
X178427214Y-122324785D01*
X178379595Y-122134309D01*
X178379595Y-121991452D01*
X178427214Y-121800976D01*
X178474833Y-121705738D01*
X178570071Y-121610500D01*
X178712928Y-121562880D01*
X178808166Y-121562880D01*
X178951023Y-121610500D01*
X178998642Y-121658119D01*
X179951023Y-122562880D02*
X179379595Y-122562880D01*
X179665309Y-122562880D02*
X179665309Y-121562880D01*
X179570071Y-121705738D01*
X179474833Y-121800976D01*
X179379595Y-121848595D01*
X180903404Y-122562880D02*
X180331976Y-122562880D01*
X180617690Y-122562880D02*
X180617690Y-121562880D01*
X180522452Y-121705738D01*
X180427214Y-121800976D01*
X180331976Y-121848595D01*
X173664738Y-121896214D02*
X173664738Y-122562880D01*
X173426642Y-121515261D02*
X173188547Y-122229547D01*
X173807595Y-122229547D01*
X174188547Y-122467642D02*
X174236166Y-122515261D01*
X174188547Y-122562880D01*
X174140928Y-122515261D01*
X174188547Y-122467642D01*
X174188547Y-122562880D01*
X174569500Y-121562880D02*
X175236166Y-121562880D01*
X174807595Y-122562880D01*
X176045690Y-121896214D02*
X176045690Y-122562880D01*
X175617119Y-121896214D02*
X175617119Y-122420023D01*
X175664738Y-122515261D01*
X175759976Y-122562880D01*
X175902833Y-122562880D01*
X175998071Y-122515261D01*
X176045690Y-122467642D01*
X176855214Y-122039071D02*
X176521880Y-122039071D01*
X176521880Y-122562880D02*
X176521880Y-121562880D01*
X176998071Y-121562880D01*
X184560642Y-122213642D02*
X184513023Y-122261261D01*
X184370166Y-122308880D01*
X184274928Y-122308880D01*
X184132071Y-122261261D01*
X184036833Y-122166023D01*
X183989214Y-122070785D01*
X183941595Y-121880309D01*
X183941595Y-121737452D01*
X183989214Y-121546976D01*
X184036833Y-121451738D01*
X184132071Y-121356500D01*
X184274928Y-121308880D01*
X184370166Y-121308880D01*
X184513023Y-121356500D01*
X184560642Y-121404119D01*
X185513023Y-122308880D02*
X184941595Y-122308880D01*
X185227309Y-122308880D02*
X185227309Y-121308880D01*
X185132071Y-121451738D01*
X185036833Y-121546976D01*
X184941595Y-121594595D01*
X185893976Y-121404119D02*
X185941595Y-121356500D01*
X186036833Y-121308880D01*
X186274928Y-121308880D01*
X186370166Y-121356500D01*
X186417785Y-121404119D01*
X186465404Y-121499357D01*
X186465404Y-121594595D01*
X186417785Y-121737452D01*
X185846357Y-122308880D01*
X186465404Y-122308880D01*
X170314880Y-141977976D02*
X170314880Y-142549404D01*
X170314880Y-142263690D02*
X169314880Y-142263690D01*
X169457738Y-142358928D01*
X169552976Y-142454166D01*
X169600595Y-142549404D01*
X170314880Y-141549404D02*
X169314880Y-141549404D01*
X169933928Y-141454166D02*
X170314880Y-141168452D01*
X169648214Y-141168452D02*
X170029166Y-141549404D01*
X170314880Y-140787500D02*
X170314880Y-140549404D01*
X170124404Y-140549404D01*
X170076785Y-140644642D01*
X169981547Y-140739880D01*
X169838690Y-140787500D01*
X169600595Y-140787500D01*
X169457738Y-140739880D01*
X169362500Y-140644642D01*
X169314880Y-140501785D01*
X169314880Y-140311309D01*
X169362500Y-140168452D01*
X169457738Y-140073214D01*
X169600595Y-140025595D01*
X169838690Y-140025595D01*
X169981547Y-140073214D01*
X170076785Y-140168452D01*
X170124404Y-140263690D01*
X170314880Y-140263690D01*
X170314880Y-140025595D01*
X166368433Y-127541280D02*
X166035100Y-127065090D01*
X165797004Y-127541280D02*
X165797004Y-126541280D01*
X166177957Y-126541280D01*
X166273195Y-126588900D01*
X166320814Y-126636519D01*
X166368433Y-126731757D01*
X166368433Y-126874614D01*
X166320814Y-126969852D01*
X166273195Y-127017471D01*
X166177957Y-127065090D01*
X165797004Y-127065090D01*
X166701766Y-126541280D02*
X167320814Y-126541280D01*
X166987480Y-126922233D01*
X167130338Y-126922233D01*
X167225576Y-126969852D01*
X167273195Y-127017471D01*
X167320814Y-127112709D01*
X167320814Y-127350804D01*
X167273195Y-127446042D01*
X167225576Y-127493661D01*
X167130338Y-127541280D01*
X166844623Y-127541280D01*
X166749385Y-127493661D01*
X166701766Y-127446042D01*
X166368433Y-129141480D02*
X166035100Y-128665290D01*
X165797004Y-129141480D02*
X165797004Y-128141480D01*
X166177957Y-128141480D01*
X166273195Y-128189100D01*
X166320814Y-128236719D01*
X166368433Y-128331957D01*
X166368433Y-128474814D01*
X166320814Y-128570052D01*
X166273195Y-128617671D01*
X166177957Y-128665290D01*
X165797004Y-128665290D01*
X166749385Y-128236719D02*
X166797004Y-128189100D01*
X166892242Y-128141480D01*
X167130338Y-128141480D01*
X167225576Y-128189100D01*
X167273195Y-128236719D01*
X167320814Y-128331957D01*
X167320814Y-128427195D01*
X167273195Y-128570052D01*
X166701766Y-129141480D01*
X167320814Y-129141480D01*
X195305442Y-116320842D02*
X195257823Y-116368461D01*
X195114966Y-116416080D01*
X195019728Y-116416080D01*
X194876871Y-116368461D01*
X194781633Y-116273223D01*
X194734014Y-116177985D01*
X194686395Y-115987509D01*
X194686395Y-115844652D01*
X194734014Y-115654176D01*
X194781633Y-115558938D01*
X194876871Y-115463700D01*
X195019728Y-115416080D01*
X195114966Y-115416080D01*
X195257823Y-115463700D01*
X195305442Y-115511319D01*
X196257823Y-116416080D02*
X195686395Y-116416080D01*
X195972109Y-116416080D02*
X195972109Y-115416080D01*
X195876871Y-115558938D01*
X195781633Y-115654176D01*
X195686395Y-115701795D01*
X196876871Y-115416080D02*
X196972109Y-115416080D01*
X197067347Y-115463700D01*
X197114966Y-115511319D01*
X197162585Y-115606557D01*
X197210204Y-115797033D01*
X197210204Y-116035128D01*
X197162585Y-116225604D01*
X197114966Y-116320842D01*
X197067347Y-116368461D01*
X196972109Y-116416080D01*
X196876871Y-116416080D01*
X196781633Y-116368461D01*
X196734014Y-116320842D01*
X196686395Y-116225604D01*
X196638776Y-116035128D01*
X196638776Y-115797033D01*
X196686395Y-115606557D01*
X196734014Y-115511319D01*
X196781633Y-115463700D01*
X196876871Y-115416080D01*
X190777833Y-116320842D02*
X190730214Y-116368461D01*
X190587357Y-116416080D01*
X190492119Y-116416080D01*
X190349261Y-116368461D01*
X190254023Y-116273223D01*
X190206404Y-116177985D01*
X190158785Y-115987509D01*
X190158785Y-115844652D01*
X190206404Y-115654176D01*
X190254023Y-115558938D01*
X190349261Y-115463700D01*
X190492119Y-115416080D01*
X190587357Y-115416080D01*
X190730214Y-115463700D01*
X190777833Y-115511319D01*
X191254023Y-116416080D02*
X191444500Y-116416080D01*
X191539738Y-116368461D01*
X191587357Y-116320842D01*
X191682595Y-116177985D01*
X191730214Y-115987509D01*
X191730214Y-115606557D01*
X191682595Y-115511319D01*
X191634976Y-115463700D01*
X191539738Y-115416080D01*
X191349261Y-115416080D01*
X191254023Y-115463700D01*
X191206404Y-115511319D01*
X191158785Y-115606557D01*
X191158785Y-115844652D01*
X191206404Y-115939890D01*
X191254023Y-115987509D01*
X191349261Y-116035128D01*
X191539738Y-116035128D01*
X191634976Y-115987509D01*
X191682595Y-115939890D01*
X191730214Y-115844652D01*
X184707233Y-116219242D02*
X184659614Y-116266861D01*
X184516757Y-116314480D01*
X184421519Y-116314480D01*
X184278661Y-116266861D01*
X184183423Y-116171623D01*
X184135804Y-116076385D01*
X184088185Y-115885909D01*
X184088185Y-115743052D01*
X184135804Y-115552576D01*
X184183423Y-115457338D01*
X184278661Y-115362100D01*
X184421519Y-115314480D01*
X184516757Y-115314480D01*
X184659614Y-115362100D01*
X184707233Y-115409719D01*
X185278661Y-115743052D02*
X185183423Y-115695433D01*
X185135804Y-115647814D01*
X185088185Y-115552576D01*
X185088185Y-115504957D01*
X185135804Y-115409719D01*
X185183423Y-115362100D01*
X185278661Y-115314480D01*
X185469138Y-115314480D01*
X185564376Y-115362100D01*
X185611995Y-115409719D01*
X185659614Y-115504957D01*
X185659614Y-115552576D01*
X185611995Y-115647814D01*
X185564376Y-115695433D01*
X185469138Y-115743052D01*
X185278661Y-115743052D01*
X185183423Y-115790671D01*
X185135804Y-115838290D01*
X185088185Y-115933528D01*
X185088185Y-116124004D01*
X185135804Y-116219242D01*
X185183423Y-116266861D01*
X185278661Y-116314480D01*
X185469138Y-116314480D01*
X185564376Y-116266861D01*
X185611995Y-116219242D01*
X185659614Y-116124004D01*
X185659614Y-115933528D01*
X185611995Y-115838290D01*
X185564376Y-115790671D01*
X185469138Y-115743052D01*
X179601833Y-116371642D02*
X179554214Y-116419261D01*
X179411357Y-116466880D01*
X179316119Y-116466880D01*
X179173261Y-116419261D01*
X179078023Y-116324023D01*
X179030404Y-116228785D01*
X178982785Y-116038309D01*
X178982785Y-115895452D01*
X179030404Y-115704976D01*
X179078023Y-115609738D01*
X179173261Y-115514500D01*
X179316119Y-115466880D01*
X179411357Y-115466880D01*
X179554214Y-115514500D01*
X179601833Y-115562119D01*
X179935166Y-115466880D02*
X180601833Y-115466880D01*
X180173261Y-116466880D01*
X132373642Y-145899166D02*
X132421261Y-145946785D01*
X132468880Y-146089642D01*
X132468880Y-146184880D01*
X132421261Y-146327738D01*
X132326023Y-146422976D01*
X132230785Y-146470595D01*
X132040309Y-146518214D01*
X131897452Y-146518214D01*
X131706976Y-146470595D01*
X131611738Y-146422976D01*
X131516500Y-146327738D01*
X131468880Y-146184880D01*
X131468880Y-146089642D01*
X131516500Y-145946785D01*
X131564119Y-145899166D01*
X131468880Y-145565833D02*
X131468880Y-144946785D01*
X131849833Y-145280119D01*
X131849833Y-145137261D01*
X131897452Y-145042023D01*
X131945071Y-144994404D01*
X132040309Y-144946785D01*
X132278404Y-144946785D01*
X132373642Y-144994404D01*
X132421261Y-145042023D01*
X132468880Y-145137261D01*
X132468880Y-145422976D01*
X132421261Y-145518214D01*
X132373642Y-145565833D01*
X132214880Y-150328119D02*
X132214880Y-150899547D01*
X132214880Y-150613833D02*
X131214880Y-150613833D01*
X131357738Y-150709071D01*
X131452976Y-150804309D01*
X131500595Y-150899547D01*
X131214880Y-149709071D02*
X131214880Y-149613833D01*
X131262500Y-149518595D01*
X131310119Y-149470976D01*
X131405357Y-149423357D01*
X131595833Y-149375738D01*
X131833928Y-149375738D01*
X132024404Y-149423357D01*
X132119642Y-149470976D01*
X132167261Y-149518595D01*
X132214880Y-149613833D01*
X132214880Y-149709071D01*
X132167261Y-149804309D01*
X132119642Y-149851928D01*
X132024404Y-149899547D01*
X131833928Y-149947166D01*
X131595833Y-149947166D01*
X131405357Y-149899547D01*
X131310119Y-149851928D01*
X131262500Y-149804309D01*
X131214880Y-149709071D01*
X131214880Y-148756690D02*
X131214880Y-148661452D01*
X131262500Y-148566214D01*
X131310119Y-148518595D01*
X131405357Y-148470976D01*
X131595833Y-148423357D01*
X131833928Y-148423357D01*
X132024404Y-148470976D01*
X132119642Y-148518595D01*
X132167261Y-148566214D01*
X132214880Y-148661452D01*
X132214880Y-148756690D01*
X132167261Y-148851928D01*
X132119642Y-148899547D01*
X132024404Y-148947166D01*
X131833928Y-148994785D01*
X131595833Y-148994785D01*
X131405357Y-148947166D01*
X131310119Y-148899547D01*
X131262500Y-148851928D01*
X131214880Y-148756690D01*
X131548214Y-147994785D02*
X132214880Y-147994785D01*
X131643452Y-147994785D02*
X131595833Y-147947166D01*
X131548214Y-147851928D01*
X131548214Y-147709071D01*
X131595833Y-147613833D01*
X131691071Y-147566214D01*
X132214880Y-147566214D01*
X131691071Y-146756690D02*
X131691071Y-147090023D01*
X132214880Y-147090023D02*
X131214880Y-147090023D01*
X131214880Y-146613833D01*
X132119642Y-140057166D02*
X132167261Y-140104785D01*
X132214880Y-140247642D01*
X132214880Y-140342880D01*
X132167261Y-140485738D01*
X132072023Y-140580976D01*
X131976785Y-140628595D01*
X131786309Y-140676214D01*
X131643452Y-140676214D01*
X131452976Y-140628595D01*
X131357738Y-140580976D01*
X131262500Y-140485738D01*
X131214880Y-140342880D01*
X131214880Y-140247642D01*
X131262500Y-140104785D01*
X131310119Y-140057166D01*
X131310119Y-139676214D02*
X131262500Y-139628595D01*
X131214880Y-139533357D01*
X131214880Y-139295261D01*
X131262500Y-139200023D01*
X131310119Y-139152404D01*
X131405357Y-139104785D01*
X131500595Y-139104785D01*
X131643452Y-139152404D01*
X132214880Y-139723833D01*
X132214880Y-139104785D01*
X171903642Y-114031166D02*
X171951261Y-114078785D01*
X171998880Y-114221642D01*
X171998880Y-114316880D01*
X171951261Y-114459738D01*
X171856023Y-114554976D01*
X171760785Y-114602595D01*
X171570309Y-114650214D01*
X171427452Y-114650214D01*
X171236976Y-114602595D01*
X171141738Y-114554976D01*
X171046500Y-114459738D01*
X170998880Y-114316880D01*
X170998880Y-114221642D01*
X171046500Y-114078785D01*
X171094119Y-114031166D01*
X171998880Y-113078785D02*
X171998880Y-113650214D01*
X171998880Y-113364500D02*
X170998880Y-113364500D01*
X171141738Y-113459738D01*
X171236976Y-113554976D01*
X171284595Y-113650214D01*
X189939633Y-127344442D02*
X189892014Y-127392061D01*
X189749157Y-127439680D01*
X189653919Y-127439680D01*
X189511061Y-127392061D01*
X189415823Y-127296823D01*
X189368204Y-127201585D01*
X189320585Y-127011109D01*
X189320585Y-126868252D01*
X189368204Y-126677776D01*
X189415823Y-126582538D01*
X189511061Y-126487300D01*
X189653919Y-126439680D01*
X189749157Y-126439680D01*
X189892014Y-126487300D01*
X189939633Y-126534919D01*
X190796776Y-126773014D02*
X190796776Y-127439680D01*
X190558680Y-126392061D02*
X190320585Y-127106347D01*
X190939633Y-127106347D01*
X196092842Y-127420642D02*
X196045223Y-127468261D01*
X195902366Y-127515880D01*
X195807128Y-127515880D01*
X195664271Y-127468261D01*
X195569033Y-127373023D01*
X195521414Y-127277785D01*
X195473795Y-127087309D01*
X195473795Y-126944452D01*
X195521414Y-126753976D01*
X195569033Y-126658738D01*
X195664271Y-126563500D01*
X195807128Y-126515880D01*
X195902366Y-126515880D01*
X196045223Y-126563500D01*
X196092842Y-126611119D01*
X197045223Y-127515880D02*
X196473795Y-127515880D01*
X196759509Y-127515880D02*
X196759509Y-126515880D01*
X196664271Y-126658738D01*
X196569033Y-126753976D01*
X196473795Y-126801595D01*
X197902366Y-126515880D02*
X197711890Y-126515880D01*
X197616652Y-126563500D01*
X197569033Y-126611119D01*
X197473795Y-126753976D01*
X197426176Y-126944452D01*
X197426176Y-127325404D01*
X197473795Y-127420642D01*
X197521414Y-127468261D01*
X197616652Y-127515880D01*
X197807128Y-127515880D01*
X197902366Y-127468261D01*
X197949985Y-127420642D01*
X197997604Y-127325404D01*
X197997604Y-127087309D01*
X197949985Y-126992071D01*
X197902366Y-126944452D01*
X197807128Y-126896833D01*
X197616652Y-126896833D01*
X197521414Y-126944452D01*
X197473795Y-126992071D01*
X197426176Y-127087309D01*
X156948142Y-138653757D02*
X156995761Y-138701376D01*
X157043380Y-138844233D01*
X157043380Y-138939471D01*
X156995761Y-139082328D01*
X156900523Y-139177566D01*
X156805285Y-139225185D01*
X156614809Y-139272804D01*
X156471952Y-139272804D01*
X156281476Y-139225185D01*
X156186238Y-139177566D01*
X156091000Y-139082328D01*
X156043380Y-138939471D01*
X156043380Y-138844233D01*
X156091000Y-138701376D01*
X156138619Y-138653757D01*
X157043380Y-137701376D02*
X157043380Y-138272804D01*
X157043380Y-137987090D02*
X156043380Y-137987090D01*
X156186238Y-138082328D01*
X156281476Y-138177566D01*
X156329095Y-138272804D01*
X156471952Y-137129947D02*
X156424333Y-137225185D01*
X156376714Y-137272804D01*
X156281476Y-137320423D01*
X156233857Y-137320423D01*
X156138619Y-137272804D01*
X156091000Y-137225185D01*
X156043380Y-137129947D01*
X156043380Y-136939471D01*
X156091000Y-136844233D01*
X156138619Y-136796614D01*
X156233857Y-136748995D01*
X156281476Y-136748995D01*
X156376714Y-136796614D01*
X156424333Y-136844233D01*
X156471952Y-136939471D01*
X156471952Y-137129947D01*
X156519571Y-137225185D01*
X156567190Y-137272804D01*
X156662428Y-137320423D01*
X156852904Y-137320423D01*
X156948142Y-137272804D01*
X156995761Y-137225185D01*
X157043380Y-137129947D01*
X157043380Y-136939471D01*
X156995761Y-136844233D01*
X156948142Y-136796614D01*
X156852904Y-136748995D01*
X156662428Y-136748995D01*
X156567190Y-136796614D01*
X156519571Y-136844233D01*
X156471952Y-136939471D01*
X163066480Y-142252604D02*
X163876004Y-142252604D01*
X163971242Y-142204985D01*
X164018861Y-142157366D01*
X164066480Y-142062128D01*
X164066480Y-141871652D01*
X164018861Y-141776414D01*
X163971242Y-141728795D01*
X163876004Y-141681176D01*
X163066480Y-141681176D01*
X163495052Y-141062128D02*
X163447433Y-141157366D01*
X163399814Y-141204985D01*
X163304576Y-141252604D01*
X163256957Y-141252604D01*
X163161719Y-141204985D01*
X163114100Y-141157366D01*
X163066480Y-141062128D01*
X163066480Y-140871652D01*
X163114100Y-140776414D01*
X163161719Y-140728795D01*
X163256957Y-140681176D01*
X163304576Y-140681176D01*
X163399814Y-140728795D01*
X163447433Y-140776414D01*
X163495052Y-140871652D01*
X163495052Y-141062128D01*
X163542671Y-141157366D01*
X163590290Y-141204985D01*
X163685528Y-141252604D01*
X163876004Y-141252604D01*
X163971242Y-141204985D01*
X164018861Y-141157366D01*
X164066480Y-141062128D01*
X164066480Y-140871652D01*
X164018861Y-140776414D01*
X163971242Y-140728795D01*
X163876004Y-140681176D01*
X163685528Y-140681176D01*
X163590290Y-140728795D01*
X163542671Y-140776414D01*
X163495052Y-140871652D01*
X183157833Y-148724880D02*
X182824500Y-148248690D01*
X182586404Y-148724880D02*
X182586404Y-147724880D01*
X182967357Y-147724880D01*
X183062595Y-147772500D01*
X183110214Y-147820119D01*
X183157833Y-147915357D01*
X183157833Y-148058214D01*
X183110214Y-148153452D01*
X183062595Y-148201071D01*
X182967357Y-148248690D01*
X182586404Y-148248690D01*
X183729261Y-148153452D02*
X183634023Y-148105833D01*
X183586404Y-148058214D01*
X183538785Y-147962976D01*
X183538785Y-147915357D01*
X183586404Y-147820119D01*
X183634023Y-147772500D01*
X183729261Y-147724880D01*
X183919738Y-147724880D01*
X184014976Y-147772500D01*
X184062595Y-147820119D01*
X184110214Y-147915357D01*
X184110214Y-147962976D01*
X184062595Y-148058214D01*
X184014976Y-148105833D01*
X183919738Y-148153452D01*
X183729261Y-148153452D01*
X183634023Y-148201071D01*
X183586404Y-148248690D01*
X183538785Y-148343928D01*
X183538785Y-148534404D01*
X183586404Y-148629642D01*
X183634023Y-148677261D01*
X183729261Y-148724880D01*
X183919738Y-148724880D01*
X184014976Y-148677261D01*
X184062595Y-148629642D01*
X184110214Y-148534404D01*
X184110214Y-148343928D01*
X184062595Y-148248690D01*
X184014976Y-148201071D01*
X183919738Y-148153452D01*
X176863452Y-147724880D02*
X176958690Y-147724880D01*
X177053928Y-147772500D01*
X177101547Y-147820119D01*
X177149166Y-147915357D01*
X177196785Y-148105833D01*
X177196785Y-148343928D01*
X177149166Y-148534404D01*
X177101547Y-148629642D01*
X177053928Y-148677261D01*
X176958690Y-148724880D01*
X176863452Y-148724880D01*
X176768214Y-148677261D01*
X176720595Y-148629642D01*
X176672976Y-148534404D01*
X176625357Y-148343928D01*
X176625357Y-148105833D01*
X176672976Y-147915357D01*
X176720595Y-147820119D01*
X176768214Y-147772500D01*
X176863452Y-147724880D01*
X177577738Y-148724880D02*
X177815833Y-148724880D01*
X177815833Y-148534404D01*
X177720595Y-148486785D01*
X177625357Y-148391547D01*
X177577738Y-148248690D01*
X177577738Y-148010595D01*
X177625357Y-147867738D01*
X177720595Y-147772500D01*
X177863452Y-147724880D01*
X178053928Y-147724880D01*
X178196785Y-147772500D01*
X178292023Y-147867738D01*
X178339642Y-148010595D01*
X178339642Y-148248690D01*
X178292023Y-148391547D01*
X178196785Y-148486785D01*
X178101547Y-148534404D01*
X178101547Y-148724880D01*
X178339642Y-148724880D01*
X183157833Y-150934680D02*
X182824500Y-150458490D01*
X182586404Y-150934680D02*
X182586404Y-149934680D01*
X182967357Y-149934680D01*
X183062595Y-149982300D01*
X183110214Y-150029919D01*
X183157833Y-150125157D01*
X183157833Y-150268014D01*
X183110214Y-150363252D01*
X183062595Y-150410871D01*
X182967357Y-150458490D01*
X182586404Y-150458490D01*
X184014976Y-149934680D02*
X183824500Y-149934680D01*
X183729261Y-149982300D01*
X183681642Y-150029919D01*
X183586404Y-150172776D01*
X183538785Y-150363252D01*
X183538785Y-150744204D01*
X183586404Y-150839442D01*
X183634023Y-150887061D01*
X183729261Y-150934680D01*
X183919738Y-150934680D01*
X184014976Y-150887061D01*
X184062595Y-150839442D01*
X184110214Y-150744204D01*
X184110214Y-150506109D01*
X184062595Y-150410871D01*
X184014976Y-150363252D01*
X183919738Y-150315633D01*
X183729261Y-150315633D01*
X183634023Y-150363252D01*
X183586404Y-150410871D01*
X183538785Y-150506109D01*
X179839880Y-100782357D02*
X179363690Y-101115690D01*
X179839880Y-101353785D02*
X178839880Y-101353785D01*
X178839880Y-100972833D01*
X178887500Y-100877595D01*
X178935119Y-100829976D01*
X179030357Y-100782357D01*
X179173214Y-100782357D01*
X179268452Y-100829976D01*
X179316071Y-100877595D01*
X179363690Y-100972833D01*
X179363690Y-101353785D01*
X179839880Y-99829976D02*
X179839880Y-100401404D01*
X179839880Y-100115690D02*
X178839880Y-100115690D01*
X178982738Y-100210928D01*
X179077976Y-100306166D01*
X179125595Y-100401404D01*
X178839880Y-98972833D02*
X178839880Y-99163309D01*
X178887500Y-99258547D01*
X178935119Y-99306166D01*
X179077976Y-99401404D01*
X179268452Y-99449023D01*
X179649404Y-99449023D01*
X179744642Y-99401404D01*
X179792261Y-99353785D01*
X179839880Y-99258547D01*
X179839880Y-99068071D01*
X179792261Y-98972833D01*
X179744642Y-98925214D01*
X179649404Y-98877595D01*
X179411309Y-98877595D01*
X179316071Y-98925214D01*
X179268452Y-98972833D01*
X179220833Y-99068071D01*
X179220833Y-99258547D01*
X179268452Y-99353785D01*
X179316071Y-99401404D01*
X179411309Y-99449023D01*
X177219880Y-102703857D02*
X177219880Y-103275285D01*
X177219880Y-102989571D02*
X176219880Y-102989571D01*
X176362738Y-103084809D01*
X176457976Y-103180047D01*
X176505595Y-103275285D01*
X176219880Y-101799095D02*
X176219880Y-102275285D01*
X176696071Y-102322904D01*
X176648452Y-102275285D01*
X176600833Y-102180047D01*
X176600833Y-101941952D01*
X176648452Y-101846714D01*
X176696071Y-101799095D01*
X176791309Y-101751476D01*
X177029404Y-101751476D01*
X177124642Y-101799095D01*
X177172261Y-101846714D01*
X177219880Y-101941952D01*
X177219880Y-102180047D01*
X177172261Y-102275285D01*
X177124642Y-102322904D01*
X176219880Y-101132428D02*
X176219880Y-101037190D01*
X176267500Y-100941952D01*
X176315119Y-100894333D01*
X176410357Y-100846714D01*
X176600833Y-100799095D01*
X176838928Y-100799095D01*
X177029404Y-100846714D01*
X177124642Y-100894333D01*
X177172261Y-100941952D01*
X177219880Y-101037190D01*
X177219880Y-101132428D01*
X177172261Y-101227666D01*
X177124642Y-101275285D01*
X177029404Y-101322904D01*
X176838928Y-101370523D01*
X176600833Y-101370523D01*
X176410357Y-101322904D01*
X176315119Y-101275285D01*
X176267500Y-101227666D01*
X176219880Y-101132428D01*
X177219880Y-100370523D02*
X176219880Y-100370523D01*
X176838928Y-100275285D02*
X177219880Y-99989571D01*
X176553214Y-99989571D02*
X176934166Y-100370523D01*
X177219880Y-99608619D02*
X177219880Y-99370523D01*
X177029404Y-99370523D01*
X176981785Y-99465761D01*
X176886547Y-99561000D01*
X176743690Y-99608619D01*
X176505595Y-99608619D01*
X176362738Y-99561000D01*
X176267500Y-99465761D01*
X176219880Y-99322904D01*
X176219880Y-99132428D01*
X176267500Y-98989571D01*
X176362738Y-98894333D01*
X176505595Y-98846714D01*
X176743690Y-98846714D01*
X176886547Y-98894333D01*
X176981785Y-98989571D01*
X177029404Y-99084809D01*
X177219880Y-99084809D01*
X177219880Y-98846714D01*
X177219880Y-97894333D02*
X177219880Y-98465761D01*
X177219880Y-98180047D02*
X176219880Y-98180047D01*
X176362738Y-98275285D01*
X176457976Y-98370523D01*
X176505595Y-98465761D01*
X176553214Y-97561000D02*
X177219880Y-97370523D01*
X176743690Y-97180047D01*
X177219880Y-96989571D01*
X176553214Y-96799095D01*
X155049480Y-140501595D02*
X154049480Y-140501595D01*
X154049480Y-140263500D01*
X154097100Y-140120642D01*
X154192338Y-140025404D01*
X154287576Y-139977785D01*
X154478052Y-139930166D01*
X154620909Y-139930166D01*
X154811385Y-139977785D01*
X154906623Y-140025404D01*
X155001861Y-140120642D01*
X155049480Y-140263500D01*
X155049480Y-140501595D01*
X154049480Y-139596833D02*
X154049480Y-138930166D01*
X155049480Y-139358738D01*
X164726880Y-137278976D02*
X164726880Y-137850404D01*
X164726880Y-137564690D02*
X163726880Y-137564690D01*
X163869738Y-137659928D01*
X163964976Y-137755166D01*
X164012595Y-137850404D01*
X164726880Y-136850404D02*
X163726880Y-136850404D01*
X164345928Y-136755166D02*
X164726880Y-136469452D01*
X164060214Y-136469452D02*
X164441166Y-136850404D01*
X164726880Y-136088500D02*
X164726880Y-135850404D01*
X164536404Y-135850404D01*
X164488785Y-135945642D01*
X164393547Y-136040880D01*
X164250690Y-136088500D01*
X164012595Y-136088500D01*
X163869738Y-136040880D01*
X163774500Y-135945642D01*
X163726880Y-135802785D01*
X163726880Y-135612309D01*
X163774500Y-135469452D01*
X163869738Y-135374214D01*
X164012595Y-135326595D01*
X164250690Y-135326595D01*
X164393547Y-135374214D01*
X164488785Y-135469452D01*
X164536404Y-135564690D01*
X164726880Y-135564690D01*
X164726880Y-135326595D01*
X157108833Y-142819380D02*
X156775500Y-142343190D01*
X156537404Y-142819380D02*
X156537404Y-141819380D01*
X156918357Y-141819380D01*
X157013595Y-141867000D01*
X157061214Y-141914619D01*
X157108833Y-142009857D01*
X157108833Y-142152714D01*
X157061214Y-142247952D01*
X157013595Y-142295571D01*
X156918357Y-142343190D01*
X156537404Y-142343190D01*
X157585023Y-142819380D02*
X157775500Y-142819380D01*
X157870738Y-142771761D01*
X157918357Y-142724142D01*
X158013595Y-142581285D01*
X158061214Y-142390809D01*
X158061214Y-142009857D01*
X158013595Y-141914619D01*
X157965976Y-141867000D01*
X157870738Y-141819380D01*
X157680261Y-141819380D01*
X157585023Y-141867000D01*
X157537404Y-141914619D01*
X157489785Y-142009857D01*
X157489785Y-142247952D01*
X157537404Y-142343190D01*
X157585023Y-142390809D01*
X157680261Y-142438428D01*
X157870738Y-142438428D01*
X157965976Y-142390809D01*
X158013595Y-142343190D01*
X158061214Y-142247952D01*
X157122833Y-141295380D02*
X156789500Y-140819190D01*
X156551404Y-141295380D02*
X156551404Y-140295380D01*
X156932357Y-140295380D01*
X157027595Y-140343000D01*
X157075214Y-140390619D01*
X157122833Y-140485857D01*
X157122833Y-140628714D01*
X157075214Y-140723952D01*
X157027595Y-140771571D01*
X156932357Y-140819190D01*
X156551404Y-140819190D01*
X157456166Y-140295380D02*
X158122833Y-140295380D01*
X157694261Y-141295380D01*
X157059333Y-144343380D02*
X156726000Y-143867190D01*
X156487904Y-144343380D02*
X156487904Y-143343380D01*
X156868857Y-143343380D01*
X156964095Y-143391000D01*
X157011714Y-143438619D01*
X157059333Y-143533857D01*
X157059333Y-143676714D01*
X157011714Y-143771952D01*
X156964095Y-143819571D01*
X156868857Y-143867190D01*
X156487904Y-143867190D01*
X157916476Y-143676714D02*
X157916476Y-144343380D01*
X157678380Y-143295761D02*
X157440285Y-144010047D01*
X158059333Y-144010047D01*
X170691395Y-138784680D02*
X170691395Y-139594204D01*
X170739014Y-139689442D01*
X170786633Y-139737061D01*
X170881871Y-139784680D01*
X171072347Y-139784680D01*
X171167585Y-139737061D01*
X171215204Y-139689442D01*
X171262823Y-139594204D01*
X171262823Y-138784680D01*
X172215204Y-138784680D02*
X171739014Y-138784680D01*
X171691395Y-139260871D01*
X171739014Y-139213252D01*
X171834252Y-139165633D01*
X172072347Y-139165633D01*
X172167585Y-139213252D01*
X172215204Y-139260871D01*
X172262823Y-139356109D01*
X172262823Y-139594204D01*
X172215204Y-139689442D01*
X172167585Y-139737061D01*
X172072347Y-139784680D01*
X171834252Y-139784680D01*
X171739014Y-139737061D01*
X171691395Y-139689442D01*
X192508357Y-149359880D02*
X192175023Y-148883690D01*
X191936928Y-149359880D02*
X191936928Y-148359880D01*
X192317880Y-148359880D01*
X192413119Y-148407500D01*
X192460738Y-148455119D01*
X192508357Y-148550357D01*
X192508357Y-148693214D01*
X192460738Y-148788452D01*
X192413119Y-148836071D01*
X192317880Y-148883690D01*
X191936928Y-148883690D01*
X192841690Y-149359880D02*
X193365500Y-148693214D01*
X192841690Y-148693214D02*
X193365500Y-149359880D01*
X193984547Y-149693214D02*
X193984547Y-148264642D01*
X194555976Y-148359880D02*
X195127404Y-148359880D01*
X194841690Y-149359880D02*
X194841690Y-148359880D01*
X195365500Y-149359880D02*
X195889309Y-148693214D01*
X195365500Y-148693214D02*
X195889309Y-149359880D01*
X177863880Y-126031523D02*
X178578166Y-126031523D01*
X178721023Y-126079142D01*
X178816261Y-126174380D01*
X178863880Y-126317238D01*
X178863880Y-126412476D01*
X178863880Y-125031523D02*
X178863880Y-125602952D01*
X178863880Y-125317238D02*
X177863880Y-125317238D01*
X178006738Y-125412476D01*
X178101976Y-125507714D01*
X178149595Y-125602952D01*
X177863880Y-124412476D02*
X177863880Y-124317238D01*
X177911500Y-124222000D01*
X177959119Y-124174380D01*
X178054357Y-124126761D01*
X178244833Y-124079142D01*
X178482928Y-124079142D01*
X178673404Y-124126761D01*
X178768642Y-124174380D01*
X178816261Y-124222000D01*
X178863880Y-124317238D01*
X178863880Y-124412476D01*
X178816261Y-124507714D01*
X178768642Y-124555333D01*
X178673404Y-124602952D01*
X178482928Y-124650571D01*
X178244833Y-124650571D01*
X178054357Y-124602952D01*
X177959119Y-124555333D01*
X177911500Y-124507714D01*
X177863880Y-124412476D01*
X161431242Y-137491766D02*
X161478861Y-137539385D01*
X161526480Y-137682242D01*
X161526480Y-137777480D01*
X161478861Y-137920338D01*
X161383623Y-138015576D01*
X161288385Y-138063195D01*
X161097909Y-138110814D01*
X160955052Y-138110814D01*
X160764576Y-138063195D01*
X160669338Y-138015576D01*
X160574100Y-137920338D01*
X160526480Y-137777480D01*
X160526480Y-137682242D01*
X160574100Y-137539385D01*
X160621719Y-137491766D01*
X160526480Y-136587004D02*
X160526480Y-137063195D01*
X161002671Y-137110814D01*
X160955052Y-137063195D01*
X160907433Y-136967957D01*
X160907433Y-136729861D01*
X160955052Y-136634623D01*
X161002671Y-136587004D01*
X161097909Y-136539385D01*
X161336004Y-136539385D01*
X161431242Y-136587004D01*
X161478861Y-136634623D01*
X161526480Y-136729861D01*
X161526480Y-136967957D01*
X161478861Y-137063195D01*
X161431242Y-137110814D01*
X159655666Y-148105880D02*
X159655666Y-148820166D01*
X159608047Y-148963023D01*
X159512809Y-149058261D01*
X159369952Y-149105880D01*
X159274714Y-149105880D01*
X160036619Y-148105880D02*
X160655666Y-148105880D01*
X160322333Y-148486833D01*
X160465190Y-148486833D01*
X160560428Y-148534452D01*
X160608047Y-148582071D01*
X160655666Y-148677309D01*
X160655666Y-148915404D01*
X160608047Y-149010642D01*
X160560428Y-149058261D01*
X160465190Y-149105880D01*
X160179476Y-149105880D01*
X160084238Y-149058261D01*
X160036619Y-149010642D01*
X175450595Y-126579380D02*
X175450595Y-127388904D01*
X175498214Y-127484142D01*
X175545833Y-127531761D01*
X175641071Y-127579380D01*
X175831547Y-127579380D01*
X175926785Y-127531761D01*
X175974404Y-127484142D01*
X176022023Y-127388904D01*
X176022023Y-126579380D01*
X176450595Y-126674619D02*
X176498214Y-126627000D01*
X176593452Y-126579380D01*
X176831547Y-126579380D01*
X176926785Y-126627000D01*
X176974404Y-126674619D01*
X177022023Y-126769857D01*
X177022023Y-126865095D01*
X176974404Y-127007952D01*
X176402976Y-127579380D01*
X177022023Y-127579380D01*
X163161080Y-122291433D02*
X163875366Y-122291433D01*
X164018223Y-122339052D01*
X164113461Y-122434290D01*
X164161080Y-122577147D01*
X164161080Y-122672385D01*
X163494414Y-121386671D02*
X164161080Y-121386671D01*
X163113461Y-121624766D02*
X163827747Y-121862861D01*
X163827747Y-121243814D01*
X189990433Y-125915680D02*
X189657100Y-125439490D01*
X189419004Y-125915680D02*
X189419004Y-124915680D01*
X189799957Y-124915680D01*
X189895195Y-124963300D01*
X189942814Y-125010919D01*
X189990433Y-125106157D01*
X189990433Y-125249014D01*
X189942814Y-125344252D01*
X189895195Y-125391871D01*
X189799957Y-125439490D01*
X189419004Y-125439490D01*
X190942814Y-125915680D02*
X190371385Y-125915680D01*
X190657100Y-125915680D02*
X190657100Y-124915680D01*
X190561861Y-125058538D01*
X190466623Y-125153776D01*
X190371385Y-125201395D01*
X196118242Y-125871242D02*
X196070623Y-125918861D01*
X195927766Y-125966480D01*
X195832528Y-125966480D01*
X195689671Y-125918861D01*
X195594433Y-125823623D01*
X195546814Y-125728385D01*
X195499195Y-125537909D01*
X195499195Y-125395052D01*
X195546814Y-125204576D01*
X195594433Y-125109338D01*
X195689671Y-125014100D01*
X195832528Y-124966480D01*
X195927766Y-124966480D01*
X196070623Y-125014100D01*
X196118242Y-125061719D01*
X197070623Y-125966480D02*
X196499195Y-125966480D01*
X196784909Y-125966480D02*
X196784909Y-124966480D01*
X196689671Y-125109338D01*
X196594433Y-125204576D01*
X196499195Y-125252195D01*
X197975385Y-124966480D02*
X197499195Y-124966480D01*
X197451576Y-125442671D01*
X197499195Y-125395052D01*
X197594433Y-125347433D01*
X197832528Y-125347433D01*
X197927766Y-125395052D01*
X197975385Y-125442671D01*
X198023004Y-125537909D01*
X198023004Y-125776004D01*
X197975385Y-125871242D01*
X197927766Y-125918861D01*
X197832528Y-125966480D01*
X197594433Y-125966480D01*
X197499195Y-125918861D01*
X197451576Y-125871242D01*
X163474404Y-146121380D02*
X163474404Y-145121380D01*
X163712500Y-145121380D01*
X163855357Y-145169000D01*
X163950595Y-145264238D01*
X163998214Y-145359476D01*
X164045833Y-145549952D01*
X164045833Y-145692809D01*
X163998214Y-145883285D01*
X163950595Y-145978523D01*
X163855357Y-146073761D01*
X163712500Y-146121380D01*
X163474404Y-146121380D01*
X164950595Y-145121380D02*
X164474404Y-145121380D01*
X164426785Y-145597571D01*
X164474404Y-145549952D01*
X164569642Y-145502333D01*
X164807738Y-145502333D01*
X164902976Y-145549952D01*
X164950595Y-145597571D01*
X164998214Y-145692809D01*
X164998214Y-145930904D01*
X164950595Y-146026142D01*
X164902976Y-146073761D01*
X164807738Y-146121380D01*
X164569642Y-146121380D01*
X164474404Y-146073761D01*
X164426785Y-146026142D01*
X155252680Y-150712395D02*
X154252680Y-150712395D01*
X154252680Y-150474300D01*
X154300300Y-150331442D01*
X154395538Y-150236204D01*
X154490776Y-150188585D01*
X154681252Y-150140966D01*
X154824109Y-150140966D01*
X155014585Y-150188585D01*
X155109823Y-150236204D01*
X155205061Y-150331442D01*
X155252680Y-150474300D01*
X155252680Y-150712395D01*
X154586014Y-149283823D02*
X155252680Y-149283823D01*
X154205061Y-149521919D02*
X154919347Y-149760014D01*
X154919347Y-149140966D01*
X161766261Y-134443719D02*
X161671023Y-134396100D01*
X161575785Y-134300861D01*
X161432928Y-134158004D01*
X161337690Y-134110385D01*
X161242452Y-134110385D01*
X161290071Y-134348480D02*
X161194833Y-134300861D01*
X161099595Y-134205623D01*
X161051976Y-134015147D01*
X161051976Y-133681814D01*
X161099595Y-133491338D01*
X161194833Y-133396100D01*
X161290071Y-133348480D01*
X161480547Y-133348480D01*
X161575785Y-133396100D01*
X161671023Y-133491338D01*
X161718642Y-133681814D01*
X161718642Y-134015147D01*
X161671023Y-134205623D01*
X161575785Y-134300861D01*
X161480547Y-134348480D01*
X161290071Y-134348480D01*
X162099595Y-133443719D02*
X162147214Y-133396100D01*
X162242452Y-133348480D01*
X162480547Y-133348480D01*
X162575785Y-133396100D01*
X162623404Y-133443719D01*
X162671023Y-133538957D01*
X162671023Y-133634195D01*
X162623404Y-133777052D01*
X162051976Y-134348480D01*
X162671023Y-134348480D01*
X165855661Y-134316719D02*
X165760423Y-134269100D01*
X165665185Y-134173861D01*
X165522328Y-134031004D01*
X165427090Y-133983385D01*
X165331852Y-133983385D01*
X165379471Y-134221480D02*
X165284233Y-134173861D01*
X165188995Y-134078623D01*
X165141376Y-133888147D01*
X165141376Y-133554814D01*
X165188995Y-133364338D01*
X165284233Y-133269100D01*
X165379471Y-133221480D01*
X165569947Y-133221480D01*
X165665185Y-133269100D01*
X165760423Y-133364338D01*
X165808042Y-133554814D01*
X165808042Y-133888147D01*
X165760423Y-134078623D01*
X165665185Y-134173861D01*
X165569947Y-134221480D01*
X165379471Y-134221480D01*
X166760423Y-134221480D02*
X166188995Y-134221480D01*
X166474709Y-134221480D02*
X166474709Y-133221480D01*
X166379471Y-133364338D01*
X166284233Y-133459576D01*
X166188995Y-133507195D01*
X156035500Y-134437380D02*
X156035500Y-133437380D01*
X156702166Y-133437380D02*
X156892642Y-133437380D01*
X156987880Y-133485000D01*
X157083119Y-133580238D01*
X157130738Y-133770714D01*
X157130738Y-134104047D01*
X157083119Y-134294523D01*
X156987880Y-134389761D01*
X156892642Y-134437380D01*
X156702166Y-134437380D01*
X156606928Y-134389761D01*
X156511690Y-134294523D01*
X156464071Y-134104047D01*
X156464071Y-133770714D01*
X156511690Y-133580238D01*
X156606928Y-133485000D01*
X156702166Y-133437380D01*
X157749785Y-133437380D02*
X157845023Y-133437380D01*
X157940261Y-133485000D01*
X157987880Y-133532619D01*
X158035500Y-133627857D01*
X158083119Y-133818333D01*
X158083119Y-134056428D01*
X158035500Y-134246904D01*
X157987880Y-134342142D01*
X157940261Y-134389761D01*
X157845023Y-134437380D01*
X157749785Y-134437380D01*
X157654547Y-134389761D01*
X157606928Y-134342142D01*
X157559309Y-134246904D01*
X157511690Y-134056428D01*
X157511690Y-133818333D01*
X157559309Y-133627857D01*
X157606928Y-133532619D01*
X157654547Y-133485000D01*
X157749785Y-133437380D01*
X170267404Y-133723071D02*
X170600738Y-133723071D01*
X170743595Y-134246880D02*
X170267404Y-134246880D01*
X170267404Y-133246880D01*
X170743595Y-133246880D01*
X171172166Y-134246880D02*
X171172166Y-133246880D01*
X171743595Y-134246880D01*
X171743595Y-133246880D01*
X196659595Y-112164880D02*
X196659595Y-112974404D01*
X196707214Y-113069642D01*
X196754833Y-113117261D01*
X196850071Y-113164880D01*
X197040547Y-113164880D01*
X197135785Y-113117261D01*
X197183404Y-113069642D01*
X197231023Y-112974404D01*
X197231023Y-112164880D01*
X197611976Y-112164880D02*
X198278642Y-112164880D01*
X197850071Y-113164880D01*
X185610595Y-112037880D02*
X185610595Y-112847404D01*
X185658214Y-112942642D01*
X185705833Y-112990261D01*
X185801071Y-113037880D01*
X185991547Y-113037880D01*
X186086785Y-112990261D01*
X186134404Y-112942642D01*
X186182023Y-112847404D01*
X186182023Y-112037880D01*
X187086785Y-112037880D02*
X186896309Y-112037880D01*
X186801071Y-112085500D01*
X186753452Y-112133119D01*
X186658214Y-112275976D01*
X186610595Y-112466452D01*
X186610595Y-112847404D01*
X186658214Y-112942642D01*
X186705833Y-112990261D01*
X186801071Y-113037880D01*
X186991547Y-113037880D01*
X187086785Y-112990261D01*
X187134404Y-112942642D01*
X187182023Y-112847404D01*
X187182023Y-112609309D01*
X187134404Y-112514071D01*
X187086785Y-112466452D01*
X186991547Y-112418833D01*
X186801071Y-112418833D01*
X186705833Y-112466452D01*
X186658214Y-112514071D01*
X186610595Y-112609309D01*
X195206880Y-92400357D02*
X194730690Y-92733690D01*
X195206880Y-92971785D02*
X194206880Y-92971785D01*
X194206880Y-92590833D01*
X194254500Y-92495595D01*
X194302119Y-92447976D01*
X194397357Y-92400357D01*
X194540214Y-92400357D01*
X194635452Y-92447976D01*
X194683071Y-92495595D01*
X194730690Y-92590833D01*
X194730690Y-92971785D01*
X194302119Y-92019404D02*
X194254500Y-91971785D01*
X194206880Y-91876547D01*
X194206880Y-91638452D01*
X194254500Y-91543214D01*
X194302119Y-91495595D01*
X194397357Y-91447976D01*
X194492595Y-91447976D01*
X194635452Y-91495595D01*
X195206880Y-92067023D01*
X195206880Y-91447976D01*
X194206880Y-91114642D02*
X194206880Y-90495595D01*
X194587833Y-90828928D01*
X194587833Y-90686071D01*
X194635452Y-90590833D01*
X194683071Y-90543214D01*
X194778309Y-90495595D01*
X195016404Y-90495595D01*
X195111642Y-90543214D01*
X195159261Y-90590833D01*
X195206880Y-90686071D01*
X195206880Y-90971785D01*
X195159261Y-91067023D01*
X195111642Y-91114642D01*
X190126880Y-92400357D02*
X189650690Y-92733690D01*
X190126880Y-92971785D02*
X189126880Y-92971785D01*
X189126880Y-92590833D01*
X189174500Y-92495595D01*
X189222119Y-92447976D01*
X189317357Y-92400357D01*
X189460214Y-92400357D01*
X189555452Y-92447976D01*
X189603071Y-92495595D01*
X189650690Y-92590833D01*
X189650690Y-92971785D01*
X189222119Y-92019404D02*
X189174500Y-91971785D01*
X189126880Y-91876547D01*
X189126880Y-91638452D01*
X189174500Y-91543214D01*
X189222119Y-91495595D01*
X189317357Y-91447976D01*
X189412595Y-91447976D01*
X189555452Y-91495595D01*
X190126880Y-92067023D01*
X190126880Y-91447976D01*
X189222119Y-91067023D02*
X189174500Y-91019404D01*
X189126880Y-90924166D01*
X189126880Y-90686071D01*
X189174500Y-90590833D01*
X189222119Y-90543214D01*
X189317357Y-90495595D01*
X189412595Y-90495595D01*
X189555452Y-90543214D01*
X190126880Y-91114642D01*
X190126880Y-90495595D01*
X195206880Y-101036357D02*
X194730690Y-101369690D01*
X195206880Y-101607785D02*
X194206880Y-101607785D01*
X194206880Y-101226833D01*
X194254500Y-101131595D01*
X194302119Y-101083976D01*
X194397357Y-101036357D01*
X194540214Y-101036357D01*
X194635452Y-101083976D01*
X194683071Y-101131595D01*
X194730690Y-101226833D01*
X194730690Y-101607785D01*
X195206880Y-100083976D02*
X195206880Y-100655404D01*
X195206880Y-100369690D02*
X194206880Y-100369690D01*
X194349738Y-100464928D01*
X194444976Y-100560166D01*
X194492595Y-100655404D01*
X195206880Y-99607785D02*
X195206880Y-99417309D01*
X195159261Y-99322071D01*
X195111642Y-99274452D01*
X194968785Y-99179214D01*
X194778309Y-99131595D01*
X194397357Y-99131595D01*
X194302119Y-99179214D01*
X194254500Y-99226833D01*
X194206880Y-99322071D01*
X194206880Y-99512547D01*
X194254500Y-99607785D01*
X194302119Y-99655404D01*
X194397357Y-99703023D01*
X194635452Y-99703023D01*
X194730690Y-99655404D01*
X194778309Y-99607785D01*
X194825928Y-99512547D01*
X194825928Y-99322071D01*
X194778309Y-99226833D01*
X194730690Y-99179214D01*
X194635452Y-99131595D01*
X190126880Y-100893657D02*
X189650690Y-101226990D01*
X190126880Y-101465085D02*
X189126880Y-101465085D01*
X189126880Y-101084133D01*
X189174500Y-100988895D01*
X189222119Y-100941276D01*
X189317357Y-100893657D01*
X189460214Y-100893657D01*
X189555452Y-100941276D01*
X189603071Y-100988895D01*
X189650690Y-101084133D01*
X189650690Y-101465085D01*
X190126880Y-99941276D02*
X190126880Y-100512704D01*
X190126880Y-100226990D02*
X189126880Y-100226990D01*
X189269738Y-100322228D01*
X189364976Y-100417466D01*
X189412595Y-100512704D01*
X189555452Y-99369847D02*
X189507833Y-99465085D01*
X189460214Y-99512704D01*
X189364976Y-99560323D01*
X189317357Y-99560323D01*
X189222119Y-99512704D01*
X189174500Y-99465085D01*
X189126880Y-99369847D01*
X189126880Y-99179371D01*
X189174500Y-99084133D01*
X189222119Y-99036514D01*
X189317357Y-98988895D01*
X189364976Y-98988895D01*
X189460214Y-99036514D01*
X189507833Y-99084133D01*
X189555452Y-99179371D01*
X189555452Y-99369847D01*
X189603071Y-99465085D01*
X189650690Y-99512704D01*
X189745928Y-99560323D01*
X189936404Y-99560323D01*
X190031642Y-99512704D01*
X190079261Y-99465085D01*
X190126880Y-99369847D01*
X190126880Y-99179371D01*
X190079261Y-99084133D01*
X190031642Y-99036514D01*
X189936404Y-98988895D01*
X189745928Y-98988895D01*
X189650690Y-99036514D01*
X189603071Y-99084133D01*
X189555452Y-99179371D01*
X131508595Y-71441880D02*
X131508595Y-70441880D01*
X131508595Y-70918071D02*
X132080023Y-70918071D01*
X132080023Y-71441880D02*
X132080023Y-70441880D01*
X132984785Y-70441880D02*
X132794309Y-70441880D01*
X132699071Y-70489500D01*
X132651452Y-70537119D01*
X132556214Y-70679976D01*
X132508595Y-70870452D01*
X132508595Y-71251404D01*
X132556214Y-71346642D01*
X132603833Y-71394261D01*
X132699071Y-71441880D01*
X132889547Y-71441880D01*
X132984785Y-71394261D01*
X133032404Y-71346642D01*
X133080023Y-71251404D01*
X133080023Y-71013309D01*
X133032404Y-70918071D01*
X132984785Y-70870452D01*
X132889547Y-70822833D01*
X132699071Y-70822833D01*
X132603833Y-70870452D01*
X132556214Y-70918071D01*
X132508595Y-71013309D01*
X197802595Y-82109880D02*
X197802595Y-81109880D01*
X197802595Y-81586071D02*
X198374023Y-81586071D01*
X198374023Y-82109880D02*
X198374023Y-81109880D01*
X199326404Y-81109880D02*
X198850214Y-81109880D01*
X198802595Y-81586071D01*
X198850214Y-81538452D01*
X198945452Y-81490833D01*
X199183547Y-81490833D01*
X199278785Y-81538452D01*
X199326404Y-81586071D01*
X199374023Y-81681309D01*
X199374023Y-81919404D01*
X199326404Y-82014642D01*
X199278785Y-82062261D01*
X199183547Y-82109880D01*
X198945452Y-82109880D01*
X198850214Y-82062261D01*
X198802595Y-82014642D01*
X131508595Y-82109880D02*
X131508595Y-81109880D01*
X131508595Y-81586071D02*
X132080023Y-81586071D01*
X132080023Y-82109880D02*
X132080023Y-81109880D01*
X132984785Y-81443214D02*
X132984785Y-82109880D01*
X132746690Y-81062261D02*
X132508595Y-81776547D01*
X133127642Y-81776547D01*
X185554168Y-74409881D02*
X185554168Y-75124167D01*
X185506549Y-75267024D01*
X185411311Y-75362262D01*
X185268454Y-75409881D01*
X185173216Y-75409881D01*
X186077978Y-75409881D02*
X186268454Y-75409881D01*
X186363692Y-75362262D01*
X186411311Y-75314643D01*
X186506549Y-75171786D01*
X186554168Y-74981310D01*
X186554168Y-74600358D01*
X186506549Y-74505120D01*
X186458930Y-74457501D01*
X186363692Y-74409881D01*
X186173216Y-74409881D01*
X186077978Y-74457501D01*
X186030359Y-74505120D01*
X185982740Y-74600358D01*
X185982740Y-74838453D01*
X186030359Y-74933691D01*
X186077978Y-74981310D01*
X186173216Y-75028929D01*
X186363692Y-75028929D01*
X186458930Y-74981310D01*
X186506549Y-74933691D01*
X186554168Y-74838453D01*
X181649406Y-74505120D02*
X181697025Y-74457501D01*
X181792263Y-74409881D01*
X182030359Y-74409881D01*
X182125597Y-74457501D01*
X182173216Y-74505120D01*
X182220835Y-74600358D01*
X182220835Y-74695596D01*
X182173216Y-74838453D01*
X181601787Y-75409881D01*
X182220835Y-75409881D01*
X183077978Y-74409881D02*
X182887502Y-74409881D01*
X182792263Y-74457501D01*
X182744644Y-74505120D01*
X182649406Y-74647977D01*
X182601787Y-74838453D01*
X182601787Y-75219405D01*
X182649406Y-75314643D01*
X182697025Y-75362262D01*
X182792263Y-75409881D01*
X182982740Y-75409881D01*
X183077978Y-75362262D01*
X183125597Y-75314643D01*
X183173216Y-75219405D01*
X183173216Y-74981310D01*
X183125597Y-74886072D01*
X183077978Y-74838453D01*
X182982740Y-74790834D01*
X182792263Y-74790834D01*
X182697025Y-74838453D01*
X182649406Y-74886072D01*
X182601787Y-74981310D01*
X183792263Y-74409881D02*
X183887502Y-74409881D01*
X183982740Y-74457501D01*
X184030359Y-74505120D01*
X184077978Y-74600358D01*
X184125597Y-74790834D01*
X184125597Y-75028929D01*
X184077978Y-75219405D01*
X184030359Y-75314643D01*
X183982740Y-75362262D01*
X183887502Y-75409881D01*
X183792263Y-75409881D01*
X183697025Y-75362262D01*
X183649406Y-75314643D01*
X183601787Y-75219405D01*
X183554168Y-75028929D01*
X183554168Y-74790834D01*
X183601787Y-74600358D01*
X183649406Y-74505120D01*
X183697025Y-74457501D01*
X183792263Y-74409881D01*
X184982740Y-74743215D02*
X184982740Y-75409881D01*
X184744644Y-74362262D02*
X184506549Y-75076548D01*
X185125597Y-75076548D01*
X185506549Y-75028929D02*
X186268454Y-75028929D01*
X187268454Y-75409881D02*
X186697025Y-75409881D01*
X186982740Y-75409881D02*
X186982740Y-74409881D01*
X186887502Y-74552739D01*
X186792263Y-74647977D01*
X186697025Y-74695596D01*
X188220835Y-75409881D02*
X187649406Y-75409881D01*
X187935121Y-75409881D02*
X187935121Y-74409881D01*
X187839882Y-74552739D01*
X187744644Y-74647977D01*
X187649406Y-74695596D01*
X188839882Y-74409881D02*
X188935121Y-74409881D01*
X189030359Y-74457501D01*
X189077978Y-74505120D01*
X189125597Y-74600358D01*
X189173216Y-74790834D01*
X189173216Y-75028929D01*
X189125597Y-75219405D01*
X189077978Y-75314643D01*
X189030359Y-75362262D01*
X188935121Y-75409881D01*
X188839882Y-75409881D01*
X188744644Y-75362262D01*
X188697025Y-75314643D01*
X188649406Y-75219405D01*
X188601787Y-75028929D01*
X188601787Y-74790834D01*
X188649406Y-74600358D01*
X188697025Y-74505120D01*
X188744644Y-74457501D01*
X188839882Y-74409881D01*
X190030359Y-74743215D02*
X190030359Y-75409881D01*
X189792263Y-74362262D02*
X189554168Y-75076548D01*
X190173216Y-75076548D01*
X194387500Y-78509880D02*
X194387500Y-78747976D01*
X194149404Y-78652738D02*
X194387500Y-78747976D01*
X194625595Y-78652738D01*
X194244642Y-78938452D02*
X194387500Y-78747976D01*
X194530357Y-78938452D01*
X142915168Y-74409881D02*
X142915168Y-75124167D01*
X142867549Y-75267024D01*
X142772311Y-75362262D01*
X142629454Y-75409881D01*
X142534216Y-75409881D01*
X143343740Y-74505120D02*
X143391359Y-74457501D01*
X143486597Y-74409881D01*
X143724692Y-74409881D01*
X143819930Y-74457501D01*
X143867549Y-74505120D01*
X143915168Y-74600358D01*
X143915168Y-74695596D01*
X143867549Y-74838453D01*
X143296121Y-75409881D01*
X143915168Y-75409881D01*
X139010406Y-74505120D02*
X139058025Y-74457501D01*
X139153263Y-74409881D01*
X139391359Y-74409881D01*
X139486597Y-74457501D01*
X139534216Y-74505120D01*
X139581835Y-74600358D01*
X139581835Y-74695596D01*
X139534216Y-74838453D01*
X138962787Y-75409881D01*
X139581835Y-75409881D01*
X140438978Y-74409881D02*
X140248502Y-74409881D01*
X140153263Y-74457501D01*
X140105644Y-74505120D01*
X140010406Y-74647977D01*
X139962787Y-74838453D01*
X139962787Y-75219405D01*
X140010406Y-75314643D01*
X140058025Y-75362262D01*
X140153263Y-75409881D01*
X140343740Y-75409881D01*
X140438978Y-75362262D01*
X140486597Y-75314643D01*
X140534216Y-75219405D01*
X140534216Y-74981310D01*
X140486597Y-74886072D01*
X140438978Y-74838453D01*
X140343740Y-74790834D01*
X140153263Y-74790834D01*
X140058025Y-74838453D01*
X140010406Y-74886072D01*
X139962787Y-74981310D01*
X141153263Y-74409881D02*
X141248502Y-74409881D01*
X141343740Y-74457501D01*
X141391359Y-74505120D01*
X141438978Y-74600358D01*
X141486597Y-74790834D01*
X141486597Y-75028929D01*
X141438978Y-75219405D01*
X141391359Y-75314643D01*
X141343740Y-75362262D01*
X141248502Y-75409881D01*
X141153263Y-75409881D01*
X141058025Y-75362262D01*
X141010406Y-75314643D01*
X140962787Y-75219405D01*
X140915168Y-75028929D01*
X140915168Y-74790834D01*
X140962787Y-74600358D01*
X141010406Y-74505120D01*
X141058025Y-74457501D01*
X141153263Y-74409881D01*
X142343740Y-74743215D02*
X142343740Y-75409881D01*
X142105644Y-74362262D02*
X141867549Y-75076548D01*
X142486597Y-75076548D01*
X142867549Y-75028929D02*
X143629454Y-75028929D01*
X144629454Y-75409881D02*
X144058025Y-75409881D01*
X144343740Y-75409881D02*
X144343740Y-74409881D01*
X144248502Y-74552739D01*
X144153263Y-74647977D01*
X144058025Y-74695596D01*
X145581835Y-75409881D02*
X145010406Y-75409881D01*
X145296121Y-75409881D02*
X145296121Y-74409881D01*
X145200882Y-74552739D01*
X145105644Y-74647977D01*
X145010406Y-74695596D01*
X146200882Y-74409881D02*
X146296121Y-74409881D01*
X146391359Y-74457501D01*
X146438978Y-74505120D01*
X146486597Y-74600358D01*
X146534216Y-74790834D01*
X146534216Y-75028929D01*
X146486597Y-75219405D01*
X146438978Y-75314643D01*
X146391359Y-75362262D01*
X146296121Y-75409881D01*
X146200882Y-75409881D01*
X146105644Y-75362262D01*
X146058025Y-75314643D01*
X146010406Y-75219405D01*
X145962787Y-75028929D01*
X145962787Y-74790834D01*
X146010406Y-74600358D01*
X146058025Y-74505120D01*
X146105644Y-74457501D01*
X146200882Y-74409881D01*
X146915168Y-74505120D02*
X146962787Y-74457501D01*
X147058025Y-74409881D01*
X147296121Y-74409881D01*
X147391359Y-74457501D01*
X147438978Y-74505120D01*
X147486597Y-74600358D01*
X147486597Y-74695596D01*
X147438978Y-74838453D01*
X146867549Y-75409881D01*
X147486597Y-75409881D01*
X146748500Y-78509880D02*
X146748500Y-78747976D01*
X146510404Y-78652738D02*
X146748500Y-78747976D01*
X146986595Y-78652738D01*
X146605642Y-78938452D02*
X146748500Y-78747976D01*
X146891357Y-78938452D01*
X161283168Y-74409881D02*
X161283168Y-75124167D01*
X161235549Y-75267024D01*
X161140311Y-75362262D01*
X160997454Y-75409881D01*
X160902216Y-75409881D01*
X162283168Y-75409881D02*
X161711740Y-75409881D01*
X161997454Y-75409881D02*
X161997454Y-74409881D01*
X161902216Y-74552739D01*
X161806978Y-74647977D01*
X161711740Y-74695596D01*
X157378406Y-74505120D02*
X157426025Y-74457501D01*
X157521263Y-74409881D01*
X157759359Y-74409881D01*
X157854597Y-74457501D01*
X157902216Y-74505120D01*
X157949835Y-74600358D01*
X157949835Y-74695596D01*
X157902216Y-74838453D01*
X157330787Y-75409881D01*
X157949835Y-75409881D01*
X158806978Y-74409881D02*
X158616502Y-74409881D01*
X158521263Y-74457501D01*
X158473644Y-74505120D01*
X158378406Y-74647977D01*
X158330787Y-74838453D01*
X158330787Y-75219405D01*
X158378406Y-75314643D01*
X158426025Y-75362262D01*
X158521263Y-75409881D01*
X158711740Y-75409881D01*
X158806978Y-75362262D01*
X158854597Y-75314643D01*
X158902216Y-75219405D01*
X158902216Y-74981310D01*
X158854597Y-74886072D01*
X158806978Y-74838453D01*
X158711740Y-74790834D01*
X158521263Y-74790834D01*
X158426025Y-74838453D01*
X158378406Y-74886072D01*
X158330787Y-74981310D01*
X159521263Y-74409881D02*
X159616502Y-74409881D01*
X159711740Y-74457501D01*
X159759359Y-74505120D01*
X159806978Y-74600358D01*
X159854597Y-74790834D01*
X159854597Y-75028929D01*
X159806978Y-75219405D01*
X159759359Y-75314643D01*
X159711740Y-75362262D01*
X159616502Y-75409881D01*
X159521263Y-75409881D01*
X159426025Y-75362262D01*
X159378406Y-75314643D01*
X159330787Y-75219405D01*
X159283168Y-75028929D01*
X159283168Y-74790834D01*
X159330787Y-74600358D01*
X159378406Y-74505120D01*
X159426025Y-74457501D01*
X159521263Y-74409881D01*
X160711740Y-74743215D02*
X160711740Y-75409881D01*
X160473644Y-74362262D02*
X160235549Y-75076548D01*
X160854597Y-75076548D01*
X161235549Y-75028929D02*
X161997454Y-75028929D01*
X162997454Y-75409881D02*
X162426025Y-75409881D01*
X162711740Y-75409881D02*
X162711740Y-74409881D01*
X162616502Y-74552739D01*
X162521263Y-74647977D01*
X162426025Y-74695596D01*
X163949835Y-75409881D02*
X163378406Y-75409881D01*
X163664121Y-75409881D02*
X163664121Y-74409881D01*
X163568882Y-74552739D01*
X163473644Y-74647977D01*
X163378406Y-74695596D01*
X164568882Y-74409881D02*
X164664121Y-74409881D01*
X164759359Y-74457501D01*
X164806978Y-74505120D01*
X164854597Y-74600358D01*
X164902216Y-74790834D01*
X164902216Y-75028929D01*
X164854597Y-75219405D01*
X164806978Y-75314643D01*
X164759359Y-75362262D01*
X164664121Y-75409881D01*
X164568882Y-75409881D01*
X164473644Y-75362262D01*
X164426025Y-75314643D01*
X164378406Y-75219405D01*
X164330787Y-75028929D01*
X164330787Y-74790834D01*
X164378406Y-74600358D01*
X164426025Y-74505120D01*
X164473644Y-74457501D01*
X164568882Y-74409881D01*
X165759359Y-74743215D02*
X165759359Y-75409881D01*
X165521263Y-74362262D02*
X165283168Y-75076548D01*
X165902216Y-75076548D01*
X170116500Y-78509880D02*
X170116500Y-78747976D01*
X169878404Y-78652738D02*
X170116500Y-78747976D01*
X170354595Y-78652738D01*
X169973642Y-78938452D02*
X170116500Y-78747976D01*
X170259357Y-78938452D01*
X156620714Y-107449880D02*
X156620714Y-106449880D01*
X157192142Y-107449880D02*
X156763571Y-106878452D01*
X157192142Y-106449880D02*
X156620714Y-107021309D01*
X158144523Y-107449880D02*
X157573095Y-107449880D01*
X157858809Y-107449880D02*
X157858809Y-106449880D01*
X157763571Y-106592738D01*
X157668333Y-106687976D01*
X157573095Y-106735595D01*
X160295166Y-86591623D02*
X160295166Y-85321623D01*
X160778976Y-85321623D01*
X160899928Y-85382100D01*
X160960404Y-85442576D01*
X161020880Y-85563528D01*
X161020880Y-85744957D01*
X160960404Y-85865909D01*
X160899928Y-85926385D01*
X160778976Y-85986861D01*
X160295166Y-85986861D01*
X162290880Y-86470671D02*
X162230404Y-86531147D01*
X162048976Y-86591623D01*
X161928023Y-86591623D01*
X161746595Y-86531147D01*
X161625642Y-86410195D01*
X161565166Y-86289242D01*
X161504690Y-86047338D01*
X161504690Y-85865909D01*
X161565166Y-85624004D01*
X161625642Y-85503052D01*
X161746595Y-85382100D01*
X161928023Y-85321623D01*
X162048976Y-85321623D01*
X162230404Y-85382100D01*
X162290880Y-85442576D01*
X162835166Y-86591623D02*
X162835166Y-85321623D01*
X163560880Y-86591623D01*
X163560880Y-85321623D01*
X164165642Y-86107814D02*
X165133261Y-86107814D01*
X166403261Y-86591623D02*
X165677547Y-86591623D01*
X166040404Y-86591623D02*
X166040404Y-85321623D01*
X165919452Y-85503052D01*
X165798500Y-85624004D01*
X165677547Y-85684480D01*
X167189452Y-85321623D02*
X167310404Y-85321623D01*
X167431357Y-85382100D01*
X167491833Y-85442576D01*
X167552309Y-85563528D01*
X167612785Y-85805433D01*
X167612785Y-86107814D01*
X167552309Y-86349719D01*
X167491833Y-86470671D01*
X167431357Y-86531147D01*
X167310404Y-86591623D01*
X167189452Y-86591623D01*
X167068500Y-86531147D01*
X167008023Y-86470671D01*
X166947547Y-86349719D01*
X166887071Y-86107814D01*
X166887071Y-85805433D01*
X166947547Y-85563528D01*
X167008023Y-85442576D01*
X167068500Y-85382100D01*
X167189452Y-85321623D01*
X168761833Y-85321623D02*
X168157071Y-85321623D01*
X168096595Y-85926385D01*
X168157071Y-85865909D01*
X168278023Y-85805433D01*
X168580404Y-85805433D01*
X168701357Y-85865909D01*
X168761833Y-85926385D01*
X168822309Y-86047338D01*
X168822309Y-86349719D01*
X168761833Y-86470671D01*
X168701357Y-86531147D01*
X168580404Y-86591623D01*
X168278023Y-86591623D01*
X168157071Y-86531147D01*
X168096595Y-86470671D01*
X169366595Y-86591623D02*
X169366595Y-85321623D01*
X169668976Y-85321623D01*
X169850404Y-85382100D01*
X169971357Y-85503052D01*
X170031833Y-85624004D01*
X170092309Y-85865909D01*
X170092309Y-86047338D01*
X170031833Y-86289242D01*
X169971357Y-86410195D01*
X169850404Y-86531147D01*
X169668976Y-86591623D01*
X169366595Y-86591623D01*
X172992095Y-107449880D02*
X172992095Y-106449880D01*
X173563523Y-107449880D02*
X173134952Y-106878452D01*
X173563523Y-106449880D02*
X172992095Y-107021309D01*
X173896857Y-106449880D02*
X174515904Y-106449880D01*
X174182571Y-106830833D01*
X174325428Y-106830833D01*
X174420666Y-106878452D01*
X174468285Y-106926071D01*
X174515904Y-107021309D01*
X174515904Y-107259404D01*
X174468285Y-107354642D01*
X174420666Y-107402261D01*
X174325428Y-107449880D01*
X174039714Y-107449880D01*
X173944476Y-107402261D01*
X173896857Y-107354642D01*
X172850023Y-102531333D02*
X171580023Y-102531333D01*
X171580023Y-102047523D01*
X171640500Y-101926571D01*
X171700976Y-101866095D01*
X171821928Y-101805619D01*
X172003357Y-101805619D01*
X172124309Y-101866095D01*
X172184785Y-101926571D01*
X172245261Y-102047523D01*
X172245261Y-102531333D01*
X172729071Y-100535619D02*
X172789547Y-100596095D01*
X172850023Y-100777523D01*
X172850023Y-100898476D01*
X172789547Y-101079904D01*
X172668595Y-101200857D01*
X172547642Y-101261333D01*
X172305738Y-101321809D01*
X172124309Y-101321809D01*
X171882404Y-101261333D01*
X171761452Y-101200857D01*
X171640500Y-101079904D01*
X171580023Y-100898476D01*
X171580023Y-100777523D01*
X171640500Y-100596095D01*
X171700976Y-100535619D01*
X172850023Y-99991333D02*
X171580023Y-99991333D01*
X172850023Y-99265619D01*
X171580023Y-99265619D01*
X172366214Y-98660857D02*
X172366214Y-97693238D01*
X172850023Y-96423238D02*
X172850023Y-97148952D01*
X172850023Y-96786095D02*
X171580023Y-96786095D01*
X171761452Y-96907047D01*
X171882404Y-97028000D01*
X171942880Y-97148952D01*
X171580023Y-95637047D02*
X171580023Y-95516095D01*
X171640500Y-95395142D01*
X171700976Y-95334666D01*
X171821928Y-95274190D01*
X172063833Y-95213714D01*
X172366214Y-95213714D01*
X172608119Y-95274190D01*
X172729071Y-95334666D01*
X172789547Y-95395142D01*
X172850023Y-95516095D01*
X172850023Y-95637047D01*
X172789547Y-95758000D01*
X172729071Y-95818476D01*
X172608119Y-95878952D01*
X172366214Y-95939428D01*
X172063833Y-95939428D01*
X171821928Y-95878952D01*
X171700976Y-95818476D01*
X171640500Y-95758000D01*
X171580023Y-95637047D01*
X171580023Y-94064666D02*
X171580023Y-94669428D01*
X172184785Y-94729904D01*
X172124309Y-94669428D01*
X172063833Y-94548476D01*
X172063833Y-94246095D01*
X172124309Y-94125142D01*
X172184785Y-94064666D01*
X172305738Y-94004190D01*
X172608119Y-94004190D01*
X172729071Y-94064666D01*
X172789547Y-94125142D01*
X172850023Y-94246095D01*
X172850023Y-94548476D01*
X172789547Y-94669428D01*
X172729071Y-94729904D01*
X172850023Y-93459904D02*
X171580023Y-93459904D01*
X171580023Y-93157523D01*
X171640500Y-92976095D01*
X171761452Y-92855142D01*
X171882404Y-92794666D01*
X172124309Y-92734190D01*
X172305738Y-92734190D01*
X172547642Y-92794666D01*
X172668595Y-92855142D01*
X172789547Y-92976095D01*
X172850023Y-93157523D01*
X172850023Y-93459904D01*
X167658095Y-107449880D02*
X167658095Y-106449880D01*
X168229523Y-107449880D02*
X167800952Y-106878452D01*
X168229523Y-106449880D02*
X167658095Y-107021309D01*
X169086666Y-106783214D02*
X169086666Y-107449880D01*
X168848571Y-106402261D02*
X168610476Y-107116547D01*
X169229523Y-107116547D01*
X167452523Y-102531333D02*
X166182523Y-102531333D01*
X166182523Y-102047523D01*
X166243000Y-101926571D01*
X166303476Y-101866095D01*
X166424428Y-101805619D01*
X166605857Y-101805619D01*
X166726809Y-101866095D01*
X166787285Y-101926571D01*
X166847761Y-102047523D01*
X166847761Y-102531333D01*
X167331571Y-100535619D02*
X167392047Y-100596095D01*
X167452523Y-100777523D01*
X167452523Y-100898476D01*
X167392047Y-101079904D01*
X167271095Y-101200857D01*
X167150142Y-101261333D01*
X166908238Y-101321809D01*
X166726809Y-101321809D01*
X166484904Y-101261333D01*
X166363952Y-101200857D01*
X166243000Y-101079904D01*
X166182523Y-100898476D01*
X166182523Y-100777523D01*
X166243000Y-100596095D01*
X166303476Y-100535619D01*
X167452523Y-99991333D02*
X166182523Y-99991333D01*
X167452523Y-99265619D01*
X166182523Y-99265619D01*
X166968714Y-98660857D02*
X166968714Y-97693238D01*
X167452523Y-96423238D02*
X167452523Y-97148952D01*
X167452523Y-96786095D02*
X166182523Y-96786095D01*
X166363952Y-96907047D01*
X166484904Y-97028000D01*
X166545380Y-97148952D01*
X166182523Y-95637047D02*
X166182523Y-95516095D01*
X166243000Y-95395142D01*
X166303476Y-95334666D01*
X166424428Y-95274190D01*
X166666333Y-95213714D01*
X166968714Y-95213714D01*
X167210619Y-95274190D01*
X167331571Y-95334666D01*
X167392047Y-95395142D01*
X167452523Y-95516095D01*
X167452523Y-95637047D01*
X167392047Y-95758000D01*
X167331571Y-95818476D01*
X167210619Y-95878952D01*
X166968714Y-95939428D01*
X166666333Y-95939428D01*
X166424428Y-95878952D01*
X166303476Y-95818476D01*
X166243000Y-95758000D01*
X166182523Y-95637047D01*
X166182523Y-94064666D02*
X166182523Y-94669428D01*
X166787285Y-94729904D01*
X166726809Y-94669428D01*
X166666333Y-94548476D01*
X166666333Y-94246095D01*
X166726809Y-94125142D01*
X166787285Y-94064666D01*
X166908238Y-94004190D01*
X167210619Y-94004190D01*
X167331571Y-94064666D01*
X167392047Y-94125142D01*
X167452523Y-94246095D01*
X167452523Y-94548476D01*
X167392047Y-94669428D01*
X167331571Y-94729904D01*
X167452523Y-93459904D02*
X166182523Y-93459904D01*
X166182523Y-93157523D01*
X166243000Y-92976095D01*
X166363952Y-92855142D01*
X166484904Y-92794666D01*
X166726809Y-92734190D01*
X166908238Y-92734190D01*
X167150142Y-92794666D01*
X167271095Y-92855142D01*
X167392047Y-92976095D01*
X167452523Y-93157523D01*
X167452523Y-93459904D01*
X162324095Y-107449880D02*
X162324095Y-106449880D01*
X162895523Y-107449880D02*
X162466952Y-106878452D01*
X162895523Y-106449880D02*
X162324095Y-107021309D01*
X163276476Y-106545119D02*
X163324095Y-106497500D01*
X163419333Y-106449880D01*
X163657428Y-106449880D01*
X163752666Y-106497500D01*
X163800285Y-106545119D01*
X163847904Y-106640357D01*
X163847904Y-106735595D01*
X163800285Y-106878452D01*
X163228857Y-107449880D01*
X163847904Y-107449880D01*
X162108023Y-102531333D02*
X160838023Y-102531333D01*
X160838023Y-102047523D01*
X160898500Y-101926571D01*
X160958976Y-101866095D01*
X161079928Y-101805619D01*
X161261357Y-101805619D01*
X161382309Y-101866095D01*
X161442785Y-101926571D01*
X161503261Y-102047523D01*
X161503261Y-102531333D01*
X161987071Y-100535619D02*
X162047547Y-100596095D01*
X162108023Y-100777523D01*
X162108023Y-100898476D01*
X162047547Y-101079904D01*
X161926595Y-101200857D01*
X161805642Y-101261333D01*
X161563738Y-101321809D01*
X161382309Y-101321809D01*
X161140404Y-101261333D01*
X161019452Y-101200857D01*
X160898500Y-101079904D01*
X160838023Y-100898476D01*
X160838023Y-100777523D01*
X160898500Y-100596095D01*
X160958976Y-100535619D01*
X162108023Y-99991333D02*
X160838023Y-99991333D01*
X162108023Y-99265619D01*
X160838023Y-99265619D01*
X161624214Y-98660857D02*
X161624214Y-97693238D01*
X162108023Y-96423238D02*
X162108023Y-97148952D01*
X162108023Y-96786095D02*
X160838023Y-96786095D01*
X161019452Y-96907047D01*
X161140404Y-97028000D01*
X161200880Y-97148952D01*
X160838023Y-95637047D02*
X160838023Y-95516095D01*
X160898500Y-95395142D01*
X160958976Y-95334666D01*
X161079928Y-95274190D01*
X161321833Y-95213714D01*
X161624214Y-95213714D01*
X161866119Y-95274190D01*
X161987071Y-95334666D01*
X162047547Y-95395142D01*
X162108023Y-95516095D01*
X162108023Y-95637047D01*
X162047547Y-95758000D01*
X161987071Y-95818476D01*
X161866119Y-95878952D01*
X161624214Y-95939428D01*
X161321833Y-95939428D01*
X161079928Y-95878952D01*
X160958976Y-95818476D01*
X160898500Y-95758000D01*
X160838023Y-95637047D01*
X160838023Y-94064666D02*
X160838023Y-94669428D01*
X161442785Y-94729904D01*
X161382309Y-94669428D01*
X161321833Y-94548476D01*
X161321833Y-94246095D01*
X161382309Y-94125142D01*
X161442785Y-94064666D01*
X161563738Y-94004190D01*
X161866119Y-94004190D01*
X161987071Y-94064666D01*
X162047547Y-94125142D01*
X162108023Y-94246095D01*
X162108023Y-94548476D01*
X162047547Y-94669428D01*
X161987071Y-94729904D01*
X162108023Y-93459904D02*
X160838023Y-93459904D01*
X160838023Y-93157523D01*
X160898500Y-92976095D01*
X161019452Y-92855142D01*
X161140404Y-92794666D01*
X161382309Y-92734190D01*
X161563738Y-92734190D01*
X161805642Y-92794666D01*
X161926595Y-92855142D01*
X162047547Y-92976095D01*
X162108023Y-93157523D01*
X162108023Y-93459904D01*
X134659880Y-150502880D02*
X134088452Y-150502880D01*
X134374166Y-150502880D02*
X134374166Y-149502880D01*
X134278928Y-149645738D01*
X134183690Y-149740976D01*
X134088452Y-149788595D01*
X135278928Y-149502880D02*
X135374166Y-149502880D01*
X135469404Y-149550500D01*
X135517023Y-149598119D01*
X135564642Y-149693357D01*
X135612261Y-149883833D01*
X135612261Y-150121928D01*
X135564642Y-150312404D01*
X135517023Y-150407642D01*
X135469404Y-150455261D01*
X135374166Y-150502880D01*
X135278928Y-150502880D01*
X135183690Y-150455261D01*
X135136071Y-150407642D01*
X135088452Y-150312404D01*
X135040833Y-150121928D01*
X135040833Y-149883833D01*
X135088452Y-149693357D01*
X135136071Y-149598119D01*
X135183690Y-149550500D01*
X135278928Y-149502880D01*
X136231309Y-149502880D02*
X136326547Y-149502880D01*
X136421785Y-149550500D01*
X136469404Y-149598119D01*
X136517023Y-149693357D01*
X136564642Y-149883833D01*
X136564642Y-150121928D01*
X136517023Y-150312404D01*
X136469404Y-150407642D01*
X136421785Y-150455261D01*
X136326547Y-150502880D01*
X136231309Y-150502880D01*
X136136071Y-150455261D01*
X136088452Y-150407642D01*
X136040833Y-150312404D01*
X135993214Y-150121928D01*
X135993214Y-149883833D01*
X136040833Y-149693357D01*
X136088452Y-149598119D01*
X136136071Y-149550500D01*
X136231309Y-149502880D01*
X137421785Y-149836214D02*
X137421785Y-150502880D01*
X136993214Y-149836214D02*
X136993214Y-150360023D01*
X137040833Y-150455261D01*
X137136071Y-150502880D01*
X137278928Y-150502880D01*
X137374166Y-150455261D01*
X137421785Y-150407642D01*
X138231309Y-149979071D02*
X137897976Y-149979071D01*
X137897976Y-150502880D02*
X137897976Y-149502880D01*
X138374166Y-149502880D01*
X138723880Y-135897880D02*
X138152452Y-135897880D01*
X138438166Y-135897880D02*
X138438166Y-134897880D01*
X138342928Y-135040738D01*
X138247690Y-135135976D01*
X138152452Y-135183595D01*
X139342928Y-134897880D02*
X139438166Y-134897880D01*
X139533404Y-134945500D01*
X139581023Y-134993119D01*
X139628642Y-135088357D01*
X139676261Y-135278833D01*
X139676261Y-135516928D01*
X139628642Y-135707404D01*
X139581023Y-135802642D01*
X139533404Y-135850261D01*
X139438166Y-135897880D01*
X139342928Y-135897880D01*
X139247690Y-135850261D01*
X139200071Y-135802642D01*
X139152452Y-135707404D01*
X139104833Y-135516928D01*
X139104833Y-135278833D01*
X139152452Y-135088357D01*
X139200071Y-134993119D01*
X139247690Y-134945500D01*
X139342928Y-134897880D01*
X140295309Y-134897880D02*
X140390547Y-134897880D01*
X140485785Y-134945500D01*
X140533404Y-134993119D01*
X140581023Y-135088357D01*
X140628642Y-135278833D01*
X140628642Y-135516928D01*
X140581023Y-135707404D01*
X140533404Y-135802642D01*
X140485785Y-135850261D01*
X140390547Y-135897880D01*
X140295309Y-135897880D01*
X140200071Y-135850261D01*
X140152452Y-135802642D01*
X140104833Y-135707404D01*
X140057214Y-135516928D01*
X140057214Y-135278833D01*
X140104833Y-135088357D01*
X140152452Y-134993119D01*
X140200071Y-134945500D01*
X140295309Y-134897880D01*
X141485785Y-135231214D02*
X141485785Y-135897880D01*
X141057214Y-135231214D02*
X141057214Y-135755023D01*
X141104833Y-135850261D01*
X141200071Y-135897880D01*
X141342928Y-135897880D01*
X141438166Y-135850261D01*
X141485785Y-135802642D01*
X142295309Y-135374071D02*
X141961976Y-135374071D01*
X141961976Y-135897880D02*
X141961976Y-134897880D01*
X142438166Y-134897880D01*
X128714595Y-138199880D02*
X128714595Y-139009404D01*
X128762214Y-139104642D01*
X128809833Y-139152261D01*
X128905071Y-139199880D01*
X129095547Y-139199880D01*
X129190785Y-139152261D01*
X129238404Y-139104642D01*
X129286023Y-139009404D01*
X129286023Y-138199880D01*
X130190785Y-138533214D02*
X130190785Y-139199880D01*
X129952690Y-138152261D02*
X129714595Y-138866547D01*
X130333642Y-138866547D01*
X154643080Y-116566795D02*
X154643080Y-117138223D01*
X154643080Y-116852509D02*
X153643080Y-116852509D01*
X153785938Y-116947747D01*
X153881176Y-117042985D01*
X153928795Y-117138223D01*
X153643080Y-115947747D02*
X153643080Y-115852509D01*
X153690700Y-115757271D01*
X153738319Y-115709652D01*
X153833557Y-115662033D01*
X154024033Y-115614414D01*
X154262128Y-115614414D01*
X154452604Y-115662033D01*
X154547842Y-115709652D01*
X154595461Y-115757271D01*
X154643080Y-115852509D01*
X154643080Y-115947747D01*
X154595461Y-116042985D01*
X154547842Y-116090604D01*
X154452604Y-116138223D01*
X154262128Y-116185842D01*
X154024033Y-116185842D01*
X153833557Y-116138223D01*
X153738319Y-116090604D01*
X153690700Y-116042985D01*
X153643080Y-115947747D01*
X153643080Y-114995366D02*
X153643080Y-114900128D01*
X153690700Y-114804890D01*
X153738319Y-114757271D01*
X153833557Y-114709652D01*
X154024033Y-114662033D01*
X154262128Y-114662033D01*
X154452604Y-114709652D01*
X154547842Y-114757271D01*
X154595461Y-114804890D01*
X154643080Y-114900128D01*
X154643080Y-114995366D01*
X154595461Y-115090604D01*
X154547842Y-115138223D01*
X154452604Y-115185842D01*
X154262128Y-115233461D01*
X154024033Y-115233461D01*
X153833557Y-115185842D01*
X153738319Y-115138223D01*
X153690700Y-115090604D01*
X153643080Y-114995366D01*
X154643080Y-114281080D02*
X154643080Y-114042985D01*
X154452604Y-114042985D01*
X154404985Y-114138223D01*
X154309747Y-114233461D01*
X154166890Y-114281080D01*
X153928795Y-114281080D01*
X153785938Y-114233461D01*
X153690700Y-114138223D01*
X153643080Y-113995366D01*
X153643080Y-113804890D01*
X153690700Y-113662033D01*
X153785938Y-113566795D01*
X153928795Y-113519176D01*
X154166890Y-113519176D01*
X154309747Y-113566795D01*
X154404985Y-113662033D01*
X154452604Y-113757271D01*
X154643080Y-113757271D01*
X154643080Y-113519176D01*
X127238500Y-135897880D02*
X126905166Y-135421690D01*
X126667071Y-135897880D02*
X126667071Y-134897880D01*
X127048023Y-134897880D01*
X127143261Y-134945500D01*
X127190880Y-134993119D01*
X127238500Y-135088357D01*
X127238500Y-135231214D01*
X127190880Y-135326452D01*
X127143261Y-135374071D01*
X127048023Y-135421690D01*
X126667071Y-135421690D01*
X127619452Y-135612166D02*
X128095642Y-135612166D01*
X127524214Y-135897880D02*
X127857547Y-134897880D01*
X128190880Y-135897880D01*
X128714690Y-134897880D02*
X128809928Y-134897880D01*
X128905166Y-134945500D01*
X128952785Y-134993119D01*
X129000404Y-135088357D01*
X129048023Y-135278833D01*
X129048023Y-135516928D01*
X129000404Y-135707404D01*
X128952785Y-135802642D01*
X128905166Y-135850261D01*
X128809928Y-135897880D01*
X128714690Y-135897880D01*
X128619452Y-135850261D01*
X128571833Y-135802642D01*
X128524214Y-135707404D01*
X128476595Y-135516928D01*
X128476595Y-135278833D01*
X128524214Y-135088357D01*
X128571833Y-134993119D01*
X128619452Y-134945500D01*
X128714690Y-134897880D01*
X129952785Y-134897880D02*
X129476595Y-134897880D01*
X129428976Y-135374071D01*
X129476595Y-135326452D01*
X129571833Y-135278833D01*
X129809928Y-135278833D01*
X129905166Y-135326452D01*
X129952785Y-135374071D01*
X130000404Y-135469309D01*
X130000404Y-135707404D01*
X129952785Y-135802642D01*
X129905166Y-135850261D01*
X129809928Y-135897880D01*
X129571833Y-135897880D01*
X129476595Y-135850261D01*
X129428976Y-135802642D01*
X130428976Y-135802642D02*
X130476595Y-135850261D01*
X130428976Y-135897880D01*
X130381357Y-135850261D01*
X130428976Y-135802642D01*
X130428976Y-135897880D01*
X130857547Y-135850261D02*
X131000404Y-135897880D01*
X131238500Y-135897880D01*
X131333738Y-135850261D01*
X131381357Y-135802642D01*
X131428976Y-135707404D01*
X131428976Y-135612166D01*
X131381357Y-135516928D01*
X131333738Y-135469309D01*
X131238500Y-135421690D01*
X131048023Y-135374071D01*
X130952785Y-135326452D01*
X130905166Y-135278833D01*
X130857547Y-135183595D01*
X130857547Y-135088357D01*
X130905166Y-134993119D01*
X130952785Y-134945500D01*
X131048023Y-134897880D01*
X131286119Y-134897880D01*
X131428976Y-134945500D01*
X131857547Y-135897880D02*
X131857547Y-134897880D01*
X132428976Y-135897880D02*
X132000404Y-135326452D01*
X132428976Y-134897880D02*
X131857547Y-135469309D01*
X132857547Y-135802642D02*
X132905166Y-135850261D01*
X132857547Y-135897880D01*
X132809928Y-135850261D01*
X132857547Y-135802642D01*
X132857547Y-135897880D01*
X133857547Y-135897880D02*
X133286119Y-135897880D01*
X133571833Y-135897880D02*
X133571833Y-134897880D01*
X133476595Y-135040738D01*
X133381357Y-135135976D01*
X133286119Y-135183595D01*
X160117280Y-108837480D02*
X160117280Y-109647004D01*
X160164900Y-109742242D01*
X160212519Y-109789861D01*
X160307757Y-109837480D01*
X160498233Y-109837480D01*
X160593471Y-109789861D01*
X160641090Y-109742242D01*
X160688709Y-109647004D01*
X160688709Y-108837480D01*
X161641090Y-109837480D02*
X161164900Y-109837480D01*
X161164900Y-108837480D01*
X161974423Y-109837480D02*
X161974423Y-108837480D01*
X162545852Y-109837480D01*
X162545852Y-108837480D01*
X162974423Y-108932719D02*
X163022042Y-108885100D01*
X163117280Y-108837480D01*
X163355376Y-108837480D01*
X163450614Y-108885100D01*
X163498233Y-108932719D01*
X163545852Y-109027957D01*
X163545852Y-109123195D01*
X163498233Y-109266052D01*
X162926804Y-109837480D01*
X163545852Y-109837480D01*
X164164900Y-108837480D02*
X164260138Y-108837480D01*
X164355376Y-108885100D01*
X164402995Y-108932719D01*
X164450614Y-109027957D01*
X164498233Y-109218433D01*
X164498233Y-109456528D01*
X164450614Y-109647004D01*
X164402995Y-109742242D01*
X164355376Y-109789861D01*
X164260138Y-109837480D01*
X164164900Y-109837480D01*
X164069661Y-109789861D01*
X164022042Y-109742242D01*
X163974423Y-109647004D01*
X163926804Y-109456528D01*
X163926804Y-109218433D01*
X163974423Y-109027957D01*
X164022042Y-108932719D01*
X164069661Y-108885100D01*
X164164900Y-108837480D01*
X165117280Y-108837480D02*
X165212519Y-108837480D01*
X165307757Y-108885100D01*
X165355376Y-108932719D01*
X165402995Y-109027957D01*
X165450614Y-109218433D01*
X165450614Y-109456528D01*
X165402995Y-109647004D01*
X165355376Y-109742242D01*
X165307757Y-109789861D01*
X165212519Y-109837480D01*
X165117280Y-109837480D01*
X165022042Y-109789861D01*
X164974423Y-109742242D01*
X164926804Y-109647004D01*
X164879185Y-109456528D01*
X164879185Y-109218433D01*
X164926804Y-109027957D01*
X164974423Y-108932719D01*
X165022042Y-108885100D01*
X165117280Y-108837480D01*
X165783947Y-108837480D02*
X166402995Y-108837480D01*
X166069661Y-109218433D01*
X166212519Y-109218433D01*
X166307757Y-109266052D01*
X166355376Y-109313671D01*
X166402995Y-109408909D01*
X166402995Y-109647004D01*
X166355376Y-109742242D01*
X166307757Y-109789861D01*
X166212519Y-109837480D01*
X165926804Y-109837480D01*
X165831566Y-109789861D01*
X165783947Y-109742242D01*
X166783947Y-109551766D02*
X167260138Y-109551766D01*
X166688709Y-109837480D02*
X167022042Y-108837480D01*
X167355376Y-109837480D01*
D16*
X168267071Y-114420642D02*
X168238500Y-114477785D01*
X168209928Y-114506357D01*
X168152785Y-114534928D01*
X168124214Y-114534928D01*
X168067071Y-114506357D01*
X168038500Y-114477785D01*
X168009928Y-114420642D01*
X168009928Y-114306357D01*
X168038500Y-114249214D01*
X168067071Y-114220642D01*
X168124214Y-114192071D01*
X168152785Y-114192071D01*
X168209928Y-114220642D01*
X168238500Y-114249214D01*
X168267071Y-114306357D01*
X168267071Y-114420642D01*
X168295642Y-114477785D01*
X168324214Y-114506357D01*
X168381357Y-114534928D01*
X168495642Y-114534928D01*
X168552785Y-114506357D01*
X168581357Y-114477785D01*
X168609928Y-114420642D01*
X168609928Y-114306357D01*
X168581357Y-114249214D01*
X168552785Y-114220642D01*
X168495642Y-114192071D01*
X168381357Y-114192071D01*
X168324214Y-114220642D01*
X168295642Y-114249214D01*
X168267071Y-114306357D01*
X168609928Y-112699785D02*
X168609928Y-112585500D01*
X168581357Y-112528357D01*
X168552785Y-112499785D01*
X168467071Y-112442642D01*
X168352785Y-112414071D01*
X168124214Y-112414071D01*
X168067071Y-112442642D01*
X168038500Y-112471214D01*
X168009928Y-112528357D01*
X168009928Y-112642642D01*
X168038500Y-112699785D01*
X168067071Y-112728357D01*
X168124214Y-112756928D01*
X168267071Y-112756928D01*
X168324214Y-112728357D01*
X168352785Y-112699785D01*
X168381357Y-112642642D01*
X168381357Y-112528357D01*
X168352785Y-112471214D01*
X168324214Y-112442642D01*
X168267071Y-112414071D01*
X157948328Y-117071671D02*
X158548328Y-117071671D01*
X157976900Y-117071671D02*
X157948328Y-117014528D01*
X157948328Y-116900242D01*
X157976900Y-116843100D01*
X158005471Y-116814528D01*
X158062614Y-116785957D01*
X158234042Y-116785957D01*
X158291185Y-116814528D01*
X158319757Y-116843100D01*
X158348328Y-116900242D01*
X158348328Y-117014528D01*
X158319757Y-117071671D01*
X158348328Y-116528814D02*
X157948328Y-116528814D01*
X157748328Y-116528814D02*
X157776900Y-116557385D01*
X157805471Y-116528814D01*
X157776900Y-116500242D01*
X157748328Y-116528814D01*
X157805471Y-116528814D01*
X157948328Y-116243100D02*
X158348328Y-116243100D01*
X158005471Y-116243100D02*
X157976900Y-116214528D01*
X157948328Y-116157385D01*
X157948328Y-116071671D01*
X157976900Y-116014528D01*
X158034042Y-115985957D01*
X158348328Y-115985957D01*
X158348328Y-115385957D02*
X158348328Y-115728814D01*
X158348328Y-115557385D02*
X157748328Y-115557385D01*
X157834042Y-115614528D01*
X157891185Y-115671671D01*
X157919757Y-115728814D01*
D10*
X131310119Y-96440166D02*
X131262500Y-96392547D01*
X131214880Y-96297309D01*
X131214880Y-96059214D01*
X131262500Y-95963976D01*
X131310119Y-95916357D01*
X131405357Y-95868738D01*
X131500595Y-95868738D01*
X131643452Y-95916357D01*
X132214880Y-96487785D01*
X132214880Y-95868738D01*
X131214880Y-94963976D02*
X131214880Y-95440166D01*
X131691071Y-95487785D01*
X131643452Y-95440166D01*
X131595833Y-95344928D01*
X131595833Y-95106833D01*
X131643452Y-95011595D01*
X131691071Y-94963976D01*
X131786309Y-94916357D01*
X132024404Y-94916357D01*
X132119642Y-94963976D01*
X132167261Y-95011595D01*
X132214880Y-95106833D01*
X132214880Y-95344928D01*
X132167261Y-95440166D01*
X132119642Y-95487785D01*
X131214880Y-94297309D02*
X131214880Y-94202071D01*
X131262500Y-94106833D01*
X131310119Y-94059214D01*
X131405357Y-94011595D01*
X131595833Y-93963976D01*
X131833928Y-93963976D01*
X132024404Y-94011595D01*
X132119642Y-94059214D01*
X132167261Y-94106833D01*
X132214880Y-94202071D01*
X132214880Y-94297309D01*
X132167261Y-94392547D01*
X132119642Y-94440166D01*
X132024404Y-94487785D01*
X131833928Y-94535404D01*
X131595833Y-94535404D01*
X131405357Y-94487785D01*
X131310119Y-94440166D01*
X131262500Y-94392547D01*
X131214880Y-94297309D01*
X131548214Y-93630642D02*
X132214880Y-93392547D01*
X131548214Y-93154452D01*
X131214880Y-92297309D02*
X131214880Y-92773500D01*
X131691071Y-92821119D01*
X131643452Y-92773500D01*
X131595833Y-92678261D01*
X131595833Y-92440166D01*
X131643452Y-92344928D01*
X131691071Y-92297309D01*
X131786309Y-92249690D01*
X132024404Y-92249690D01*
X132119642Y-92297309D01*
X132167261Y-92344928D01*
X132214880Y-92440166D01*
X132214880Y-92678261D01*
X132167261Y-92773500D01*
X132119642Y-92821119D01*
X131214880Y-91630642D02*
X131214880Y-91535404D01*
X131262500Y-91440166D01*
X131310119Y-91392547D01*
X131405357Y-91344928D01*
X131595833Y-91297309D01*
X131833928Y-91297309D01*
X132024404Y-91344928D01*
X132119642Y-91392547D01*
X132167261Y-91440166D01*
X132214880Y-91535404D01*
X132214880Y-91630642D01*
X132167261Y-91725880D01*
X132119642Y-91773500D01*
X132024404Y-91821119D01*
X131833928Y-91868738D01*
X131595833Y-91868738D01*
X131405357Y-91821119D01*
X131310119Y-91773500D01*
X131262500Y-91725880D01*
X131214880Y-91630642D01*
X132214880Y-90868738D02*
X131548214Y-90868738D01*
X131643452Y-90868738D02*
X131595833Y-90821119D01*
X131548214Y-90725880D01*
X131548214Y-90583023D01*
X131595833Y-90487785D01*
X131691071Y-90440166D01*
X132214880Y-90440166D01*
X131691071Y-90440166D02*
X131595833Y-90392547D01*
X131548214Y-90297309D01*
X131548214Y-90154452D01*
X131595833Y-90059214D01*
X131691071Y-90011595D01*
X132214880Y-90011595D01*
X131929166Y-89583023D02*
X131929166Y-89106833D01*
X132214880Y-89678261D02*
X131214880Y-89344928D01*
X132214880Y-89011595D01*
X184919880Y-92400357D02*
X184443690Y-92733690D01*
X184919880Y-92971785D02*
X183919880Y-92971785D01*
X183919880Y-92590833D01*
X183967500Y-92495595D01*
X184015119Y-92447976D01*
X184110357Y-92400357D01*
X184253214Y-92400357D01*
X184348452Y-92447976D01*
X184396071Y-92495595D01*
X184443690Y-92590833D01*
X184443690Y-92971785D01*
X184015119Y-92019404D02*
X183967500Y-91971785D01*
X183919880Y-91876547D01*
X183919880Y-91638452D01*
X183967500Y-91543214D01*
X184015119Y-91495595D01*
X184110357Y-91447976D01*
X184205595Y-91447976D01*
X184348452Y-91495595D01*
X184919880Y-92067023D01*
X184919880Y-91447976D01*
X184919880Y-90495595D02*
X184919880Y-91067023D01*
X184919880Y-90781309D02*
X183919880Y-90781309D01*
X184062738Y-90876547D01*
X184157976Y-90971785D01*
X184205595Y-91067023D01*
X179839880Y-92593857D02*
X179363690Y-92927190D01*
X179839880Y-93165285D02*
X178839880Y-93165285D01*
X178839880Y-92784333D01*
X178887500Y-92689095D01*
X178935119Y-92641476D01*
X179030357Y-92593857D01*
X179173214Y-92593857D01*
X179268452Y-92641476D01*
X179316071Y-92689095D01*
X179363690Y-92784333D01*
X179363690Y-93165285D01*
X178935119Y-92212904D02*
X178887500Y-92165285D01*
X178839880Y-92070047D01*
X178839880Y-91831952D01*
X178887500Y-91736714D01*
X178935119Y-91689095D01*
X179030357Y-91641476D01*
X179125595Y-91641476D01*
X179268452Y-91689095D01*
X179839880Y-92260523D01*
X179839880Y-91641476D01*
X178839880Y-91022428D02*
X178839880Y-90927190D01*
X178887500Y-90831952D01*
X178935119Y-90784333D01*
X179030357Y-90736714D01*
X179220833Y-90689095D01*
X179458928Y-90689095D01*
X179649404Y-90736714D01*
X179744642Y-90784333D01*
X179792261Y-90831952D01*
X179839880Y-90927190D01*
X179839880Y-91022428D01*
X179792261Y-91117666D01*
X179744642Y-91165285D01*
X179649404Y-91212904D01*
X179458928Y-91260523D01*
X179220833Y-91260523D01*
X179030357Y-91212904D01*
X178935119Y-91165285D01*
X178887500Y-91117666D01*
X178839880Y-91022428D01*
X177219880Y-94593857D02*
X177219880Y-95165285D01*
X177219880Y-94879571D02*
X176219880Y-94879571D01*
X176362738Y-94974809D01*
X176457976Y-95070047D01*
X176505595Y-95165285D01*
X176219880Y-93689095D02*
X176219880Y-94165285D01*
X176696071Y-94212904D01*
X176648452Y-94165285D01*
X176600833Y-94070047D01*
X176600833Y-93831952D01*
X176648452Y-93736714D01*
X176696071Y-93689095D01*
X176791309Y-93641476D01*
X177029404Y-93641476D01*
X177124642Y-93689095D01*
X177172261Y-93736714D01*
X177219880Y-93831952D01*
X177219880Y-94070047D01*
X177172261Y-94165285D01*
X177124642Y-94212904D01*
X176219880Y-93022428D02*
X176219880Y-92927190D01*
X176267500Y-92831952D01*
X176315119Y-92784333D01*
X176410357Y-92736714D01*
X176600833Y-92689095D01*
X176838928Y-92689095D01*
X177029404Y-92736714D01*
X177124642Y-92784333D01*
X177172261Y-92831952D01*
X177219880Y-92927190D01*
X177219880Y-93022428D01*
X177172261Y-93117666D01*
X177124642Y-93165285D01*
X177029404Y-93212904D01*
X176838928Y-93260523D01*
X176600833Y-93260523D01*
X176410357Y-93212904D01*
X176315119Y-93165285D01*
X176267500Y-93117666D01*
X176219880Y-93022428D01*
X177219880Y-92260523D02*
X176219880Y-92260523D01*
X176838928Y-92165285D02*
X177219880Y-91879571D01*
X176553214Y-91879571D02*
X176934166Y-92260523D01*
X177219880Y-91498619D02*
X177219880Y-91260523D01*
X177029404Y-91260523D01*
X176981785Y-91355761D01*
X176886547Y-91451000D01*
X176743690Y-91498619D01*
X176505595Y-91498619D01*
X176362738Y-91451000D01*
X176267500Y-91355761D01*
X176219880Y-91212904D01*
X176219880Y-91022428D01*
X176267500Y-90879571D01*
X176362738Y-90784333D01*
X176505595Y-90736714D01*
X176743690Y-90736714D01*
X176886547Y-90784333D01*
X176981785Y-90879571D01*
X177029404Y-90974809D01*
X177219880Y-90974809D01*
X177219880Y-90736714D01*
X177219880Y-89784333D02*
X177219880Y-90355761D01*
X177219880Y-90070047D02*
X176219880Y-90070047D01*
X176362738Y-90165285D01*
X176457976Y-90260523D01*
X176505595Y-90355761D01*
X176553214Y-89451000D02*
X177219880Y-89260523D01*
X176743690Y-89070047D01*
X177219880Y-88879571D01*
X176553214Y-88689095D01*
X140405833Y-148778166D02*
X140405833Y-149278166D01*
X140372500Y-149378166D01*
X140305833Y-149444833D01*
X140205833Y-149478166D01*
X140139166Y-149478166D01*
X141039166Y-149011500D02*
X141039166Y-149478166D01*
X140739166Y-149011500D02*
X140739166Y-149378166D01*
X140772500Y-149444833D01*
X140839166Y-149478166D01*
X140939166Y-149478166D01*
X141005833Y-149444833D01*
X141039166Y-149411500D01*
X141372500Y-149478166D02*
X141372500Y-149011500D01*
X141372500Y-149078166D02*
X141405833Y-149044833D01*
X141472500Y-149011500D01*
X141572500Y-149011500D01*
X141639166Y-149044833D01*
X141672500Y-149111500D01*
X141672500Y-149478166D01*
X141672500Y-149111500D02*
X141705833Y-149044833D01*
X141772500Y-149011500D01*
X141872500Y-149011500D01*
X141939166Y-149044833D01*
X141972500Y-149111500D01*
X141972500Y-149478166D01*
X142305833Y-149011500D02*
X142305833Y-149711500D01*
X142305833Y-149044833D02*
X142372500Y-149011500D01*
X142505833Y-149011500D01*
X142572500Y-149044833D01*
X142605833Y-149078166D01*
X142639166Y-149144833D01*
X142639166Y-149344833D01*
X142605833Y-149411500D01*
X142572500Y-149444833D01*
X142505833Y-149478166D01*
X142372500Y-149478166D01*
X142305833Y-149444833D01*
X143205833Y-149444833D02*
X143139166Y-149478166D01*
X143005833Y-149478166D01*
X142939166Y-149444833D01*
X142905833Y-149378166D01*
X142905833Y-149111500D01*
X142939166Y-149044833D01*
X143005833Y-149011500D01*
X143139166Y-149011500D01*
X143205833Y-149044833D01*
X143239166Y-149111500D01*
X143239166Y-149178166D01*
X142905833Y-149244833D01*
X143539166Y-149478166D02*
X143539166Y-149011500D01*
X143539166Y-149144833D02*
X143572500Y-149078166D01*
X143605833Y-149044833D01*
X143672500Y-149011500D01*
X143739166Y-149011500D01*
X146593166Y-149573500D02*
X146526500Y-149540166D01*
X146426500Y-149540166D01*
X146326500Y-149573500D01*
X146259833Y-149640166D01*
X146226500Y-149706833D01*
X146193166Y-149840166D01*
X146193166Y-149940166D01*
X146226500Y-150073500D01*
X146259833Y-150140166D01*
X146326500Y-150206833D01*
X146426500Y-150240166D01*
X146493166Y-150240166D01*
X146593166Y-150206833D01*
X146626500Y-150173500D01*
X146626500Y-149940166D01*
X146493166Y-149940166D01*
X146926500Y-150240166D02*
X146926500Y-149540166D01*
X147326500Y-150240166D01*
X147326500Y-149540166D01*
X147659833Y-150240166D02*
X147659833Y-149540166D01*
X147826500Y-149540166D01*
X147926500Y-149573500D01*
X147993166Y-149640166D01*
X148026500Y-149706833D01*
X148059833Y-149840166D01*
X148059833Y-149940166D01*
X148026500Y-150073500D01*
X147993166Y-150140166D01*
X147926500Y-150206833D01*
X147826500Y-150240166D01*
X147659833Y-150240166D01*
X148826500Y-149540166D02*
X149259833Y-149540166D01*
X149026500Y-149806833D01*
X149126500Y-149806833D01*
X149193166Y-149840166D01*
X149226500Y-149873500D01*
X149259833Y-149940166D01*
X149259833Y-150106833D01*
X149226500Y-150173500D01*
X149193166Y-150206833D01*
X149126500Y-150240166D01*
X148926500Y-150240166D01*
X148859833Y-150206833D01*
X148826500Y-150173500D01*
X149559833Y-150173500D02*
X149593166Y-150206833D01*
X149559833Y-150240166D01*
X149526500Y-150206833D01*
X149559833Y-150173500D01*
X149559833Y-150240166D01*
X149826500Y-149540166D02*
X150259833Y-149540166D01*
X150026500Y-149806833D01*
X150126500Y-149806833D01*
X150193166Y-149840166D01*
X150226500Y-149873500D01*
X150259833Y-149940166D01*
X150259833Y-150106833D01*
X150226500Y-150173500D01*
X150193166Y-150206833D01*
X150126500Y-150240166D01*
X149926500Y-150240166D01*
X149859833Y-150206833D01*
X149826500Y-150173500D01*
X150459833Y-149540166D02*
X150693166Y-150240166D01*
X150926500Y-149540166D01*
X184919880Y-100782357D02*
X184443690Y-101115690D01*
X184919880Y-101353785D02*
X183919880Y-101353785D01*
X183919880Y-100972833D01*
X183967500Y-100877595D01*
X184015119Y-100829976D01*
X184110357Y-100782357D01*
X184253214Y-100782357D01*
X184348452Y-100829976D01*
X184396071Y-100877595D01*
X184443690Y-100972833D01*
X184443690Y-101353785D01*
X184919880Y-99829976D02*
X184919880Y-100401404D01*
X184919880Y-100115690D02*
X183919880Y-100115690D01*
X184062738Y-100210928D01*
X184157976Y-100306166D01*
X184205595Y-100401404D01*
X183919880Y-99496642D02*
X183919880Y-98829976D01*
X184919880Y-99258547D01*
X143606214Y-101329976D02*
X144272880Y-101329976D01*
X143225261Y-101568071D02*
X143939547Y-101806166D01*
X143939547Y-101187119D01*
X143272880Y-100615690D02*
X143272880Y-100520452D01*
X143320500Y-100425214D01*
X143368119Y-100377595D01*
X143463357Y-100329976D01*
X143653833Y-100282357D01*
X143891928Y-100282357D01*
X144082404Y-100329976D01*
X144177642Y-100377595D01*
X144225261Y-100425214D01*
X144272880Y-100520452D01*
X144272880Y-100615690D01*
X144225261Y-100710928D01*
X144177642Y-100758547D01*
X144082404Y-100806166D01*
X143891928Y-100853785D01*
X143653833Y-100853785D01*
X143463357Y-100806166D01*
X143368119Y-100758547D01*
X143320500Y-100710928D01*
X143272880Y-100615690D01*
X143272880Y-99663309D02*
X143272880Y-99568071D01*
X143320500Y-99472833D01*
X143368119Y-99425214D01*
X143463357Y-99377595D01*
X143653833Y-99329976D01*
X143891928Y-99329976D01*
X144082404Y-99377595D01*
X144177642Y-99425214D01*
X144225261Y-99472833D01*
X144272880Y-99568071D01*
X144272880Y-99663309D01*
X144225261Y-99758547D01*
X144177642Y-99806166D01*
X144082404Y-99853785D01*
X143891928Y-99901404D01*
X143653833Y-99901404D01*
X143463357Y-99853785D01*
X143368119Y-99806166D01*
X143320500Y-99758547D01*
X143272880Y-99663309D01*
X143272880Y-99044261D02*
X144272880Y-98710928D01*
X143272880Y-98377595D01*
X144781660Y-141100133D02*
X145495946Y-141100133D01*
X145638803Y-141147752D01*
X145734041Y-141242990D01*
X145781660Y-141385847D01*
X145781660Y-141481085D01*
X144781660Y-140719180D02*
X144781660Y-140052514D01*
X145781660Y-140481085D01*
X150685595Y-104401880D02*
X150685595Y-103401880D01*
X150685595Y-103878071D02*
X151257023Y-103878071D01*
X151257023Y-104401880D02*
X151257023Y-103401880D01*
X152257023Y-104401880D02*
X151685595Y-104401880D01*
X151971309Y-104401880D02*
X151971309Y-103401880D01*
X151876071Y-103544738D01*
X151780833Y-103639976D01*
X151685595Y-103687595D01*
X144431071Y-86225119D02*
X144478690Y-86177500D01*
X144573928Y-86129880D01*
X144812023Y-86129880D01*
X144907261Y-86177500D01*
X144954880Y-86225119D01*
X145002500Y-86320357D01*
X145002500Y-86415595D01*
X144954880Y-86558452D01*
X144383452Y-87129880D01*
X145002500Y-87129880D01*
X145907261Y-86129880D02*
X145431071Y-86129880D01*
X145383452Y-86606071D01*
X145431071Y-86558452D01*
X145526309Y-86510833D01*
X145764404Y-86510833D01*
X145859642Y-86558452D01*
X145907261Y-86606071D01*
X145954880Y-86701309D01*
X145954880Y-86939404D01*
X145907261Y-87034642D01*
X145859642Y-87082261D01*
X145764404Y-87129880D01*
X145526309Y-87129880D01*
X145431071Y-87082261D01*
X145383452Y-87034642D01*
X146573928Y-86129880D02*
X146669166Y-86129880D01*
X146764404Y-86177500D01*
X146812023Y-86225119D01*
X146859642Y-86320357D01*
X146907261Y-86510833D01*
X146907261Y-86748928D01*
X146859642Y-86939404D01*
X146812023Y-87034642D01*
X146764404Y-87082261D01*
X146669166Y-87129880D01*
X146573928Y-87129880D01*
X146478690Y-87082261D01*
X146431071Y-87034642D01*
X146383452Y-86939404D01*
X146335833Y-86748928D01*
X146335833Y-86510833D01*
X146383452Y-86320357D01*
X146431071Y-86225119D01*
X146478690Y-86177500D01*
X146573928Y-86129880D01*
X147192976Y-86129880D02*
X147526309Y-87129880D01*
X147859642Y-86129880D01*
X148716785Y-87129880D02*
X148145357Y-87129880D01*
X148431071Y-87129880D02*
X148431071Y-86129880D01*
X148335833Y-86272738D01*
X148240595Y-86367976D01*
X148145357Y-86415595D01*
X149097738Y-86844166D02*
X149573928Y-86844166D01*
X149002500Y-87129880D02*
X149335833Y-86129880D01*
X149669166Y-87129880D01*
M02*
