G04 #@! TF.GenerationSoftware,KiCad,Pcbnew,(5.1.12)-1*
G04 #@! TF.CreationDate,2022-01-16T14:13:14-03:00*
G04 #@! TF.ProjectId,hamodule,68616d6f-6475-46c6-952e-6b696361645f,rev?*
G04 #@! TF.SameCoordinates,Original*
G04 #@! TF.FileFunction,Legend,Bot*
G04 #@! TF.FilePolarity,Positive*
%FSLAX46Y46*%
G04 Gerber Fmt 4.6, Leading zero omitted, Abs format (unit mm)*
G04 Created by KiCad (PCBNEW (5.1.12)-1) date 2022-01-16 14:13:14*
%MOMM*%
%LPD*%
G01*
G04 APERTURE LIST*
%ADD10C,0.120000*%
%ADD11C,0.010000*%
%ADD12C,0.150000*%
G04 APERTURE END LIST*
D10*
X199374902Y-79057500D02*
G75*
G03*
X199374902Y-79057500I-381000J0D01*
G01*
X151734503Y-79057500D02*
G75*
G03*
X151734503Y-79057500I-381000J0D01*
G01*
X175103902Y-79057500D02*
G75*
G03*
X175103902Y-79057500I-381000J0D01*
G01*
D11*
G36*
X172402500Y-106514900D02*
G01*
X154686000Y-106514900D01*
X154686000Y-112569197D01*
X156527581Y-112569197D01*
X156527598Y-112184315D01*
X156527795Y-111315728D01*
X156528486Y-110565040D01*
X156529888Y-109923147D01*
X156532213Y-109380948D01*
X156535677Y-108929342D01*
X156540493Y-108559226D01*
X156546877Y-108261499D01*
X156555043Y-108027058D01*
X156565205Y-107846802D01*
X156577578Y-107711629D01*
X156592375Y-107612438D01*
X156609812Y-107540125D01*
X156630103Y-107485590D01*
X156638723Y-107467400D01*
X156802116Y-107259855D01*
X156972000Y-107169360D01*
X157070995Y-107157110D01*
X157286412Y-107145783D01*
X157607674Y-107135391D01*
X158024204Y-107125945D01*
X158525427Y-107117458D01*
X159100767Y-107109943D01*
X159739647Y-107103411D01*
X160431493Y-107097875D01*
X161165727Y-107093347D01*
X161931774Y-107089840D01*
X162719058Y-107087365D01*
X163517003Y-107085936D01*
X164315032Y-107085564D01*
X165102571Y-107086261D01*
X165869042Y-107088040D01*
X166603870Y-107090914D01*
X167296479Y-107094893D01*
X167936293Y-107099992D01*
X168512736Y-107106221D01*
X169015232Y-107113594D01*
X169433204Y-107122122D01*
X169756078Y-107131818D01*
X169973276Y-107142694D01*
X170072178Y-107154151D01*
X170317124Y-107280850D01*
X170437754Y-107423672D01*
X170461239Y-107465332D01*
X170481513Y-107514222D01*
X170498777Y-107579289D01*
X170513228Y-107669481D01*
X170525066Y-107793744D01*
X170534490Y-107961026D01*
X170541698Y-108180275D01*
X170546888Y-108460437D01*
X170550261Y-108810459D01*
X170552014Y-109239289D01*
X170552347Y-109755873D01*
X170551459Y-110369160D01*
X170549547Y-111088096D01*
X170546811Y-111921628D01*
X170545576Y-112276103D01*
X170529250Y-116926056D01*
X170177136Y-117278150D01*
X163636612Y-117294904D01*
X162572825Y-117297481D01*
X161628732Y-117299383D01*
X160797033Y-117300519D01*
X160070424Y-117300800D01*
X159441601Y-117300133D01*
X158903263Y-117298429D01*
X158448106Y-117295596D01*
X158068827Y-117291545D01*
X157758123Y-117286184D01*
X157508692Y-117279424D01*
X157313231Y-117271172D01*
X157164436Y-117261339D01*
X157055005Y-117249834D01*
X156977634Y-117236566D01*
X156925022Y-117221444D01*
X156902042Y-117211311D01*
X156832506Y-117175159D01*
X156772154Y-117137776D01*
X156720336Y-117090434D01*
X156676402Y-117024408D01*
X156639703Y-116930972D01*
X156609587Y-116801398D01*
X156585406Y-116626961D01*
X156566508Y-116398934D01*
X156552245Y-116108590D01*
X156541966Y-115747203D01*
X156535021Y-115306046D01*
X156530760Y-114776394D01*
X156528533Y-114149519D01*
X156527690Y-113416696D01*
X156527581Y-112569197D01*
X154686000Y-112569197D01*
X154686000Y-117944900D01*
X172402500Y-117944900D01*
X172402500Y-106514900D01*
G37*
X172402500Y-106514900D02*
X154686000Y-106514900D01*
X154686000Y-112569197D01*
X156527581Y-112569197D01*
X156527598Y-112184315D01*
X156527795Y-111315728D01*
X156528486Y-110565040D01*
X156529888Y-109923147D01*
X156532213Y-109380948D01*
X156535677Y-108929342D01*
X156540493Y-108559226D01*
X156546877Y-108261499D01*
X156555043Y-108027058D01*
X156565205Y-107846802D01*
X156577578Y-107711629D01*
X156592375Y-107612438D01*
X156609812Y-107540125D01*
X156630103Y-107485590D01*
X156638723Y-107467400D01*
X156802116Y-107259855D01*
X156972000Y-107169360D01*
X157070995Y-107157110D01*
X157286412Y-107145783D01*
X157607674Y-107135391D01*
X158024204Y-107125945D01*
X158525427Y-107117458D01*
X159100767Y-107109943D01*
X159739647Y-107103411D01*
X160431493Y-107097875D01*
X161165727Y-107093347D01*
X161931774Y-107089840D01*
X162719058Y-107087365D01*
X163517003Y-107085936D01*
X164315032Y-107085564D01*
X165102571Y-107086261D01*
X165869042Y-107088040D01*
X166603870Y-107090914D01*
X167296479Y-107094893D01*
X167936293Y-107099992D01*
X168512736Y-107106221D01*
X169015232Y-107113594D01*
X169433204Y-107122122D01*
X169756078Y-107131818D01*
X169973276Y-107142694D01*
X170072178Y-107154151D01*
X170317124Y-107280850D01*
X170437754Y-107423672D01*
X170461239Y-107465332D01*
X170481513Y-107514222D01*
X170498777Y-107579289D01*
X170513228Y-107669481D01*
X170525066Y-107793744D01*
X170534490Y-107961026D01*
X170541698Y-108180275D01*
X170546888Y-108460437D01*
X170550261Y-108810459D01*
X170552014Y-109239289D01*
X170552347Y-109755873D01*
X170551459Y-110369160D01*
X170549547Y-111088096D01*
X170546811Y-111921628D01*
X170545576Y-112276103D01*
X170529250Y-116926056D01*
X170177136Y-117278150D01*
X163636612Y-117294904D01*
X162572825Y-117297481D01*
X161628732Y-117299383D01*
X160797033Y-117300519D01*
X160070424Y-117300800D01*
X159441601Y-117300133D01*
X158903263Y-117298429D01*
X158448106Y-117295596D01*
X158068827Y-117291545D01*
X157758123Y-117286184D01*
X157508692Y-117279424D01*
X157313231Y-117271172D01*
X157164436Y-117261339D01*
X157055005Y-117249834D01*
X156977634Y-117236566D01*
X156925022Y-117221444D01*
X156902042Y-117211311D01*
X156832506Y-117175159D01*
X156772154Y-117137776D01*
X156720336Y-117090434D01*
X156676402Y-117024408D01*
X156639703Y-116930972D01*
X156609587Y-116801398D01*
X156585406Y-116626961D01*
X156566508Y-116398934D01*
X156552245Y-116108590D01*
X156541966Y-115747203D01*
X156535021Y-115306046D01*
X156530760Y-114776394D01*
X156528533Y-114149519D01*
X156527690Y-113416696D01*
X156527581Y-112569197D01*
X154686000Y-112569197D01*
X154686000Y-117944900D01*
X172402500Y-117944900D01*
X172402500Y-106514900D01*
G36*
X170295931Y-117035933D02*
G01*
X170434000Y-116888965D01*
X170434000Y-112207046D01*
X170433999Y-107525128D01*
X170278136Y-107369264D01*
X170122272Y-107213400D01*
X156966227Y-107213400D01*
X156810363Y-107369264D01*
X156654500Y-107525128D01*
X156654500Y-107539193D01*
X156846485Y-107539193D01*
X156927982Y-107473419D01*
X156986166Y-107467400D01*
X157773739Y-107467400D01*
X158035123Y-107467400D01*
X158173149Y-107476023D01*
X158265755Y-107507060D01*
X158973461Y-107507060D01*
X159025081Y-107474999D01*
X159177202Y-107467407D01*
X159184985Y-107467400D01*
X160004789Y-107467400D01*
X160291605Y-107467400D01*
X160430762Y-107472561D01*
X160539468Y-107500220D01*
X160578748Y-107525520D01*
X161237083Y-107525520D01*
X161279324Y-107489409D01*
X161410585Y-107469056D01*
X161470154Y-107467400D01*
X162297944Y-107467400D01*
X162571847Y-107468016D01*
X162705991Y-107474438D01*
X162814041Y-107505117D01*
X162923596Y-107578229D01*
X163062257Y-107711947D01*
X163246845Y-107912516D01*
X163647940Y-108356400D01*
X163370913Y-108356400D01*
X163235671Y-108350598D01*
X163127839Y-108321046D01*
X163019756Y-108249530D01*
X162883761Y-108117834D01*
X162695915Y-107911900D01*
X162297944Y-107467400D01*
X163426862Y-107467400D01*
X163687434Y-107467400D01*
X164578920Y-107467400D01*
X164849253Y-107467400D01*
X164990137Y-107474856D01*
X165102866Y-107510196D01*
X165142050Y-107538187D01*
X165780588Y-107538187D01*
X165784730Y-107488742D01*
X165850783Y-107470186D01*
X165963641Y-107467400D01*
X166094448Y-107477999D01*
X166211847Y-107521826D01*
X166217026Y-107525520D01*
X166888583Y-107525520D01*
X166930805Y-107489381D01*
X167062020Y-107469038D01*
X167121171Y-107467400D01*
X167249944Y-107475264D01*
X167357379Y-107511315D01*
X167364994Y-107516860D01*
X168021000Y-107516860D01*
X168077284Y-107485595D01*
X168217521Y-107468492D01*
X168269374Y-107467400D01*
X169089697Y-107467400D01*
X169376597Y-107467400D01*
X169551432Y-107477205D01*
X169675143Y-107523613D01*
X169795078Y-107632116D01*
X169889998Y-107743815D01*
X170030237Y-107949657D01*
X170106306Y-108134616D01*
X170113789Y-108275348D01*
X170048271Y-108348512D01*
X170005375Y-108353803D01*
X169916055Y-108307918D01*
X169769021Y-108187045D01*
X169589119Y-108012699D01*
X169491973Y-107909303D01*
X169089697Y-107467400D01*
X168269374Y-107467400D01*
X168396192Y-107475939D01*
X168504599Y-107513825D01*
X168622151Y-107599460D01*
X168776403Y-107751247D01*
X168911167Y-107896025D01*
X169304585Y-108324650D01*
X169065828Y-108344938D01*
X168943011Y-108347124D01*
X168837256Y-108318524D01*
X168720071Y-108242304D01*
X168562962Y-108101630D01*
X168424035Y-107965772D01*
X168244859Y-107783000D01*
X168106620Y-107632110D01*
X168029934Y-107536063D01*
X168021000Y-107516860D01*
X167364994Y-107516860D01*
X167471274Y-107594241D01*
X167619426Y-107742731D01*
X167758698Y-107896025D01*
X168142471Y-108324650D01*
X167898859Y-108343804D01*
X167772177Y-108345883D01*
X167666740Y-108317140D01*
X167553009Y-108239818D01*
X167401440Y-108096160D01*
X167282498Y-107973299D01*
X167109812Y-107788776D01*
X166974074Y-107636215D01*
X166897362Y-107540713D01*
X166888583Y-107525520D01*
X166217026Y-107525520D01*
X166345201Y-107616925D01*
X166523872Y-107781344D01*
X166606416Y-107862441D01*
X166784517Y-108044204D01*
X166921559Y-108194049D01*
X166996806Y-108288850D01*
X167005000Y-108306941D01*
X166948838Y-108338630D01*
X166809444Y-108355535D01*
X166764705Y-108356400D01*
X166623456Y-108343548D01*
X166500295Y-108291184D01*
X166360485Y-108178603D01*
X166205409Y-108023025D01*
X165984350Y-107790213D01*
X165844935Y-107633639D01*
X165780588Y-107538187D01*
X165142050Y-107538187D01*
X165218612Y-107592878D01*
X165368550Y-107742360D01*
X165474917Y-107857937D01*
X165641197Y-108044174D01*
X165771490Y-108196639D01*
X165844034Y-108289642D01*
X165851416Y-108302437D01*
X165809224Y-108336048D01*
X165678087Y-108354914D01*
X165619831Y-108356400D01*
X165493582Y-108348831D01*
X165388000Y-108313839D01*
X165276274Y-108233000D01*
X165131591Y-108087888D01*
X164973000Y-107911900D01*
X164578920Y-107467400D01*
X163687434Y-107467400D01*
X163825166Y-107476097D01*
X163940112Y-107514848D01*
X164063250Y-107602647D01*
X164225560Y-107758488D01*
X164317628Y-107853781D01*
X164489562Y-108037547D01*
X164624479Y-108189328D01*
X164700188Y-108283885D01*
X164708416Y-108298281D01*
X164666498Y-108334870D01*
X164536037Y-108355033D01*
X164483512Y-108356400D01*
X164365970Y-108347547D01*
X164257349Y-108311327D01*
X164139307Y-108233247D01*
X163993504Y-108098815D01*
X163801598Y-107893541D01*
X163579349Y-107642025D01*
X163426862Y-107467400D01*
X162297944Y-107467400D01*
X161470154Y-107467400D01*
X161599072Y-107475285D01*
X161706930Y-107511323D01*
X161821539Y-107594088D01*
X161970708Y-107742156D01*
X162111864Y-107896025D01*
X162499337Y-108324650D01*
X162251542Y-108343804D01*
X162123234Y-108346186D01*
X162017510Y-108318384D01*
X161904643Y-108242652D01*
X161754906Y-108101240D01*
X161630998Y-107973299D01*
X161458312Y-107788776D01*
X161322574Y-107636215D01*
X161245862Y-107540713D01*
X161237083Y-107525520D01*
X160578748Y-107525520D01*
X160645708Y-107568647D01*
X160777466Y-107696111D01*
X160962725Y-107900879D01*
X160972500Y-107911900D01*
X161366579Y-108356400D01*
X161090164Y-108351453D01*
X160953912Y-108342511D01*
X160843212Y-108309158D01*
X160730045Y-108233102D01*
X160586389Y-108096051D01*
X160409269Y-107906953D01*
X160004789Y-107467400D01*
X159184985Y-107467400D01*
X159311983Y-107476033D01*
X159421362Y-107514033D01*
X159540675Y-107599556D01*
X159697477Y-107750754D01*
X159835527Y-107896025D01*
X160237116Y-108324650D01*
X159992130Y-108344921D01*
X159856716Y-108346784D01*
X159743550Y-108314131D01*
X159618852Y-108228766D01*
X159448839Y-108072496D01*
X159402639Y-108027421D01*
X159226857Y-107848524D01*
X159083653Y-107690849D01*
X159001284Y-107585671D01*
X158997083Y-107578525D01*
X158973461Y-107507060D01*
X158265755Y-107507060D01*
X158288110Y-107514552D01*
X158411021Y-107601979D01*
X158572897Y-107757295D01*
X158666128Y-107853781D01*
X158838062Y-108037547D01*
X158972979Y-108189328D01*
X159048688Y-108283885D01*
X159056916Y-108298281D01*
X159014984Y-108334850D01*
X158884491Y-108355021D01*
X158831678Y-108356400D01*
X158728171Y-108353456D01*
X158641130Y-108335035D01*
X158552177Y-108286755D01*
X158442931Y-108194233D01*
X158295013Y-108043086D01*
X158090044Y-107818933D01*
X157959334Y-107673775D01*
X157773739Y-107467400D01*
X156986166Y-107467400D01*
X157111043Y-107515693D01*
X157297886Y-107652877D01*
X157525916Y-107862441D01*
X157704017Y-108044204D01*
X157841059Y-108194049D01*
X157916306Y-108288850D01*
X157924500Y-108306941D01*
X157868407Y-108338866D01*
X157729484Y-108355650D01*
X157688556Y-108356400D01*
X157538792Y-108340221D01*
X157402950Y-108277606D01*
X157242949Y-108147446D01*
X157148806Y-108057163D01*
X156960476Y-107844047D01*
X156858509Y-107667064D01*
X156846485Y-107539193D01*
X156654500Y-107539193D01*
X156654500Y-108578650D01*
X156822036Y-108578650D01*
X156826807Y-108563409D01*
X156858053Y-108549859D01*
X156922618Y-108537903D01*
X157027344Y-108527443D01*
X157179075Y-108518384D01*
X157384655Y-108510628D01*
X157650926Y-108504078D01*
X157984732Y-108498638D01*
X158392916Y-108494209D01*
X158882321Y-108490696D01*
X159459791Y-108488002D01*
X160132170Y-108486029D01*
X160906299Y-108484680D01*
X161789023Y-108483859D01*
X162787185Y-108483469D01*
X163546242Y-108483400D01*
X164628925Y-108483554D01*
X165591484Y-108484079D01*
X166440799Y-108485071D01*
X167183745Y-108486629D01*
X167827202Y-108488849D01*
X168378045Y-108491828D01*
X168843152Y-108495663D01*
X169229400Y-108500450D01*
X169543667Y-108506287D01*
X169792830Y-108513271D01*
X169983767Y-108521497D01*
X170123353Y-108531064D01*
X170218468Y-108542069D01*
X170275988Y-108554607D01*
X170302790Y-108568776D01*
X170307000Y-108578650D01*
X170296107Y-108593943D01*
X170258833Y-108607535D01*
X170188280Y-108619522D01*
X170077554Y-108630004D01*
X169919759Y-108639078D01*
X169707998Y-108646841D01*
X169435376Y-108653391D01*
X169094998Y-108658826D01*
X168679967Y-108663243D01*
X168183387Y-108666741D01*
X167598363Y-108669416D01*
X166918000Y-108671367D01*
X166135400Y-108672691D01*
X165243669Y-108673485D01*
X164235910Y-108673849D01*
X163582793Y-108673900D01*
X162502219Y-108673742D01*
X161541714Y-108673203D01*
X160694348Y-108672184D01*
X159953192Y-108670589D01*
X159311316Y-108668320D01*
X158761789Y-108665278D01*
X158297681Y-108661367D01*
X157912063Y-108656489D01*
X157598003Y-108650546D01*
X157348573Y-108643441D01*
X157156842Y-108635075D01*
X157015880Y-108625352D01*
X156918757Y-108614174D01*
X156858543Y-108601442D01*
X156828308Y-108587060D01*
X156822036Y-108578650D01*
X156654500Y-108578650D01*
X156654500Y-111871279D01*
X157246918Y-111871279D01*
X157247296Y-111869937D01*
X157315474Y-111874373D01*
X157482112Y-111905905D01*
X157722826Y-111959408D01*
X158013230Y-112029759D01*
X158040084Y-112036518D01*
X158334315Y-112110221D01*
X158581263Y-112170984D01*
X158756332Y-112212834D01*
X158834926Y-112229797D01*
X158836326Y-112229900D01*
X158813946Y-112180759D01*
X158731602Y-112045966D01*
X158601358Y-111844465D01*
X158435281Y-111595201D01*
X158381351Y-111515525D01*
X158187114Y-111231064D01*
X158051261Y-111039613D01*
X157961277Y-110928817D01*
X157904644Y-110886319D01*
X157868845Y-110899765D01*
X157841363Y-110956799D01*
X157834552Y-110975775D01*
X157776605Y-111100679D01*
X157727062Y-111150400D01*
X157700163Y-111093471D01*
X157652201Y-110942369D01*
X157590872Y-110726622D01*
X157523872Y-110475757D01*
X157458897Y-110219302D01*
X157403644Y-109986785D01*
X157365809Y-109807733D01*
X157353000Y-109715281D01*
X157403931Y-109723033D01*
X157555103Y-109804089D01*
X157804082Y-109957008D01*
X158148434Y-110180349D01*
X158235135Y-110237720D01*
X158641020Y-110507100D01*
X158439899Y-110559216D01*
X158238777Y-110611331D01*
X158623978Y-111150400D01*
X160591500Y-111150400D01*
X160595986Y-110889750D01*
X160612264Y-110733324D01*
X160644561Y-110658572D01*
X160686750Y-110642400D01*
X160762369Y-110699197D01*
X160782000Y-110832900D01*
X160797734Y-110967832D01*
X160871954Y-111017564D01*
X160972500Y-111023400D01*
X161107431Y-111007666D01*
X161157163Y-110933446D01*
X161163000Y-110832900D01*
X161191398Y-110681661D01*
X161258250Y-110642400D01*
X161307121Y-110666328D01*
X161336451Y-110753142D01*
X161350467Y-110925394D01*
X161350647Y-110938779D01*
X161486984Y-110938779D01*
X161504224Y-110762610D01*
X161549989Y-110670755D01*
X161629441Y-110642529D01*
X161637257Y-110642400D01*
X161686766Y-110664773D01*
X161716572Y-110747179D01*
X161731024Y-110912550D01*
X161734433Y-111150400D01*
X161861500Y-111150400D01*
X161911305Y-110896091D01*
X162047097Y-110721721D01*
X162248441Y-110641790D01*
X162494903Y-110670801D01*
X162523056Y-110680944D01*
X162599042Y-110772292D01*
X162613149Y-110886861D01*
X162756803Y-110886861D01*
X162763141Y-110739934D01*
X162788598Y-110667696D01*
X162839058Y-110644099D01*
X162874828Y-110642400D01*
X162969444Y-110671203D01*
X163002971Y-110779774D01*
X163004500Y-110832900D01*
X163021585Y-110969046D01*
X163094215Y-111018851D01*
X163163250Y-111023400D01*
X163276704Y-111002897D01*
X163318208Y-110915741D01*
X163322000Y-110832900D01*
X163341605Y-110693901D01*
X163415508Y-110644646D01*
X163451671Y-110642400D01*
X163516580Y-110651634D01*
X163553596Y-110696700D01*
X163568600Y-110803648D01*
X163567473Y-110998526D01*
X163562796Y-111134525D01*
X163547769Y-111392788D01*
X163523307Y-111545911D01*
X163484371Y-111615680D01*
X163449000Y-111626650D01*
X163369269Y-111569816D01*
X163333657Y-111452025D01*
X163292146Y-111320263D01*
X163188672Y-111278109D01*
X163163250Y-111277400D01*
X163046308Y-111308012D01*
X162996840Y-111422586D01*
X162992842Y-111452025D01*
X162946402Y-111586209D01*
X162877500Y-111626650D01*
X162826482Y-111599300D01*
X162793206Y-111502725D01*
X162772633Y-111315141D01*
X162763703Y-111134525D01*
X162756803Y-110886861D01*
X162613149Y-110886861D01*
X162623500Y-110970912D01*
X162616277Y-111131630D01*
X162578330Y-111198785D01*
X162485242Y-111205655D01*
X162453772Y-111202243D01*
X162330986Y-111163318D01*
X162259172Y-111100325D01*
X162258992Y-111043730D01*
X162332458Y-111023400D01*
X162419943Y-110972700D01*
X162433000Y-110923734D01*
X162385565Y-110848339D01*
X162290125Y-110844359D01*
X162194845Y-110880602D01*
X162146777Y-110977770D01*
X162128116Y-111126481D01*
X162141586Y-111324835D01*
X162208024Y-111430275D01*
X162313719Y-111430289D01*
X162394876Y-111369952D01*
X162521811Y-111282658D01*
X162600978Y-111293825D01*
X162614470Y-111378475D01*
X162544383Y-111511632D01*
X162518408Y-111542275D01*
X162373475Y-111637529D01*
X163978462Y-111637529D01*
X163981668Y-111565057D01*
X164022597Y-111404950D01*
X164093007Y-111187962D01*
X164116706Y-111121685D01*
X164232588Y-110836782D01*
X164332280Y-110676447D01*
X164423771Y-110640570D01*
X164515051Y-110729040D01*
X164614106Y-110941748D01*
X164675583Y-111113995D01*
X164696361Y-111180862D01*
X164846000Y-111180862D01*
X164882383Y-110973937D01*
X164973300Y-110784698D01*
X165061881Y-110690998D01*
X165234042Y-110644144D01*
X165426516Y-110687804D01*
X165544500Y-110769400D01*
X165644486Y-110942009D01*
X165666247Y-111150974D01*
X165665357Y-111155057D01*
X165798500Y-111155057D01*
X165798500Y-110642400D01*
X166116000Y-110642400D01*
X166315663Y-110652597D01*
X166413183Y-110687902D01*
X166433500Y-110737650D01*
X166381406Y-110810513D01*
X166227125Y-110832785D01*
X166020750Y-110832669D01*
X166020750Y-111228478D01*
X166014605Y-111452647D01*
X166002887Y-111515525D01*
X166318588Y-111515525D01*
X166341425Y-111424666D01*
X166428843Y-111404400D01*
X166505666Y-111389999D01*
X166545147Y-111326300D01*
X166559239Y-111182562D01*
X166560500Y-111065734D01*
X166568495Y-110835554D01*
X166599396Y-110705823D01*
X166663574Y-110650613D01*
X166729833Y-110642400D01*
X166781299Y-110684851D01*
X166788172Y-110720203D01*
X167068500Y-110720203D01*
X167111790Y-110652829D01*
X167203512Y-110651599D01*
X167286436Y-110712193D01*
X167299536Y-110737650D01*
X167384427Y-110811311D01*
X167490036Y-110832900D01*
X167622535Y-110797867D01*
X167680536Y-110737650D01*
X167767224Y-110656955D01*
X167835551Y-110642400D01*
X167890424Y-110651085D01*
X167910300Y-110692806D01*
X167892200Y-110791068D01*
X167833142Y-110969373D01*
X167773145Y-111134525D01*
X167762548Y-111160381D01*
X167961276Y-111160381D01*
X167983671Y-110937936D01*
X168081018Y-110772882D01*
X168267362Y-110666763D01*
X168488575Y-110650590D01*
X168681060Y-110724907D01*
X168768758Y-110864737D01*
X168772572Y-110994782D01*
X168772459Y-110995218D01*
X168854004Y-110995218D01*
X168859879Y-110814862D01*
X168872988Y-110728464D01*
X168949994Y-110672033D01*
X169098138Y-110642266D01*
X169273653Y-110638566D01*
X169432771Y-110660335D01*
X169531723Y-110706973D01*
X169545000Y-110737650D01*
X169496805Y-110808099D01*
X169342991Y-110832728D01*
X169322750Y-110832900D01*
X169169570Y-110847107D01*
X169107764Y-110902567D01*
X169100500Y-110959900D01*
X169130436Y-111052861D01*
X169241824Y-111085590D01*
X169291000Y-111086900D01*
X169442239Y-111115299D01*
X169481500Y-111182150D01*
X169424703Y-111257770D01*
X169291000Y-111277400D01*
X169157243Y-111295794D01*
X169100514Y-111340110D01*
X169100500Y-111340900D01*
X169156403Y-111382525D01*
X169294219Y-111403718D01*
X169327406Y-111404400D01*
X169479468Y-111416759D01*
X169534538Y-111464104D01*
X169532911Y-111515525D01*
X169492071Y-111584557D01*
X169383998Y-111618263D01*
X169194880Y-111626650D01*
X168878250Y-111626650D01*
X168859106Y-111220589D01*
X168854004Y-110995218D01*
X168772459Y-110995218D01*
X168737608Y-111129610D01*
X168646915Y-111177937D01*
X168566041Y-111182150D01*
X168424969Y-111157884D01*
X168354375Y-111102775D01*
X168380726Y-111034675D01*
X168428458Y-111023400D01*
X168515943Y-110972700D01*
X168529000Y-110923734D01*
X168481565Y-110848339D01*
X168386125Y-110844359D01*
X168290845Y-110880602D01*
X168242777Y-110977770D01*
X168224116Y-111126481D01*
X168237586Y-111324835D01*
X168304024Y-111430275D01*
X168409719Y-111430289D01*
X168490876Y-111369952D01*
X168613577Y-111285976D01*
X168693002Y-111305067D01*
X168708041Y-111418998D01*
X168633851Y-111563017D01*
X168487175Y-111634547D01*
X168305683Y-111624297D01*
X168163747Y-111553230D01*
X168022931Y-111380855D01*
X167961276Y-111160381D01*
X167762548Y-111160381D01*
X167679071Y-111364039D01*
X167588044Y-111541363D01*
X167515947Y-111636794D01*
X167500163Y-111645058D01*
X167420968Y-111596509D01*
X167320354Y-111423286D01*
X167238275Y-111230736D01*
X167154940Y-111008244D01*
X167094379Y-110827326D01*
X167068688Y-110724358D01*
X167068500Y-110720203D01*
X166788172Y-110720203D01*
X166808192Y-110823159D01*
X166814500Y-111018984D01*
X166819091Y-111230675D01*
X166840405Y-111346898D01*
X166889753Y-111399072D01*
X166957375Y-111415859D01*
X167069081Y-111467759D01*
X167100250Y-111531400D01*
X167070938Y-111586763D01*
X166967055Y-111616455D01*
X166764679Y-111626473D01*
X166720119Y-111626650D01*
X166500971Y-111620008D01*
X166379421Y-111594739D01*
X166326514Y-111542830D01*
X166318588Y-111515525D01*
X166002887Y-111515525D01*
X165991101Y-111578758D01*
X165942635Y-111635377D01*
X165909625Y-111646000D01*
X165854323Y-111643355D01*
X165820993Y-111592996D01*
X165804264Y-111471192D01*
X165798765Y-111254213D01*
X165798500Y-111155057D01*
X165665357Y-111155057D01*
X165620436Y-111360951D01*
X165517707Y-111536596D01*
X165368712Y-111642565D01*
X165276544Y-111658400D01*
X165126352Y-111604661D01*
X164979219Y-111472182D01*
X164874012Y-111304069D01*
X164846000Y-111180862D01*
X164696361Y-111180862D01*
X164745934Y-111340393D01*
X164790242Y-111517674D01*
X164800939Y-111614356D01*
X164797738Y-111621995D01*
X164696328Y-111660972D01*
X164600693Y-111581797D01*
X164520783Y-111393250D01*
X164515086Y-111372650D01*
X164462193Y-111204082D01*
X164414940Y-111101459D01*
X164398381Y-111086900D01*
X164357240Y-111141595D01*
X164301895Y-111278922D01*
X164280996Y-111344258D01*
X164200162Y-111529438D01*
X164101066Y-111640473D01*
X164005327Y-111656406D01*
X163978462Y-111637529D01*
X162373475Y-111637529D01*
X162354918Y-111649725D01*
X162181835Y-111650476D01*
X162024823Y-111559838D01*
X161909547Y-111393120D01*
X161861669Y-111165633D01*
X161861500Y-111150400D01*
X161734433Y-111150400D01*
X161734500Y-111155057D01*
X161731574Y-111409658D01*
X161719219Y-111561079D01*
X161692062Y-111633075D01*
X161644732Y-111649400D01*
X161623375Y-111646544D01*
X161559571Y-111609728D01*
X161520869Y-111511252D01*
X161498946Y-111323855D01*
X161493106Y-111219951D01*
X161486984Y-110938779D01*
X161350647Y-110938779D01*
X161353500Y-111150400D01*
X161349013Y-111411051D01*
X161332735Y-111567477D01*
X161300438Y-111642229D01*
X161258250Y-111658400D01*
X161182630Y-111601604D01*
X161163000Y-111467900D01*
X161147265Y-111332969D01*
X161073045Y-111283237D01*
X160972500Y-111277400D01*
X160837568Y-111293135D01*
X160787836Y-111367355D01*
X160782000Y-111467900D01*
X160753601Y-111619140D01*
X160686750Y-111658400D01*
X160637878Y-111634473D01*
X160608548Y-111547659D01*
X160594532Y-111375407D01*
X160591500Y-111150400D01*
X158623978Y-111150400D01*
X159032597Y-111722241D01*
X159262686Y-112048938D01*
X159460956Y-112339553D01*
X159617612Y-112578958D01*
X159722862Y-112752025D01*
X159766913Y-112843626D01*
X159765279Y-112854044D01*
X159675759Y-112855285D01*
X159498694Y-112838695D01*
X159271725Y-112807838D01*
X159262532Y-112806419D01*
X158994070Y-112764878D01*
X158807077Y-112744355D01*
X158700949Y-112756986D01*
X158675084Y-112814908D01*
X158728881Y-112930255D01*
X158861735Y-113115166D01*
X158915023Y-113182400D01*
X160528000Y-113182400D01*
X160528000Y-112420400D01*
X160915350Y-112420400D01*
X161140378Y-112426980D01*
X161188506Y-112437257D01*
X161798000Y-112437257D01*
X161853343Y-112425447D01*
X161986794Y-112420403D01*
X161990071Y-112420400D01*
X162147665Y-112450627D01*
X162235096Y-112560699D01*
X162242500Y-112579150D01*
X162299793Y-112680274D01*
X162397236Y-112726597D01*
X162577287Y-112737896D01*
X162583294Y-112737900D01*
X162762279Y-112728712D01*
X162854349Y-112688085D01*
X162899037Y-112596423D01*
X162903575Y-112579150D01*
X162963579Y-112461033D01*
X163089031Y-112421584D01*
X163132709Y-112420400D01*
X163266065Y-112427157D01*
X163321997Y-112443417D01*
X163322000Y-112443539D01*
X163300422Y-112514885D01*
X163242877Y-112676119D01*
X163160145Y-112899049D01*
X163063007Y-113155481D01*
X162962245Y-113417221D01*
X162868640Y-113656076D01*
X162792972Y-113843852D01*
X162746023Y-113952354D01*
X162742026Y-113960233D01*
X162628340Y-114053342D01*
X162540784Y-114059379D01*
X162475550Y-114031047D01*
X162408606Y-113953561D01*
X162330308Y-113809118D01*
X162231008Y-113579912D01*
X162101061Y-113248140D01*
X162100580Y-113246882D01*
X161989235Y-112953966D01*
X161896339Y-112707319D01*
X161830238Y-112529271D01*
X161799275Y-112442147D01*
X161798000Y-112437257D01*
X161188506Y-112437257D01*
X161288084Y-112458520D01*
X161407937Y-112532727D01*
X161518600Y-112636300D01*
X161651419Y-112786546D01*
X161715184Y-112926925D01*
X161733996Y-113118040D01*
X161734500Y-113179204D01*
X161693028Y-113532490D01*
X161567975Y-113791420D01*
X161383405Y-113945387D01*
X161250190Y-113989607D01*
X161062673Y-114021007D01*
X160859155Y-114037496D01*
X160677933Y-114036982D01*
X160557307Y-114017373D01*
X160529434Y-113992025D01*
X160528877Y-113913303D01*
X160528420Y-113734208D01*
X160528112Y-113481370D01*
X160528000Y-113182400D01*
X158915023Y-113182400D01*
X159073046Y-113381775D01*
X159224620Y-113570283D01*
X159446022Y-113849058D01*
X159618424Y-114071400D01*
X163449000Y-114071400D01*
X163449000Y-112420400D01*
X163824436Y-112420400D01*
X163843093Y-112879825D01*
X163861750Y-113339249D01*
X164138910Y-112879825D01*
X164281871Y-112651527D01*
X164386688Y-112513475D01*
X164475193Y-112443968D01*
X164569222Y-112421308D01*
X164601182Y-112420400D01*
X164786294Y-112420400D01*
X164768277Y-113241201D01*
X164970092Y-113241201D01*
X165009800Y-112937903D01*
X165139589Y-112688552D01*
X165348444Y-112511646D01*
X165625348Y-112425689D01*
X165721872Y-112420400D01*
X165944388Y-112441969D01*
X166126414Y-112497018D01*
X166165370Y-112519251D01*
X166250837Y-112602785D01*
X166293501Y-112724875D01*
X166306343Y-112926401D01*
X166306500Y-112963751D01*
X166306500Y-113309400D01*
X165989000Y-113309400D01*
X165800566Y-113304254D01*
X165706562Y-113277987D01*
X165674507Y-113214361D01*
X165671500Y-113150650D01*
X165701265Y-113026165D01*
X165798500Y-112991900D01*
X165897441Y-112946518D01*
X165925779Y-112846526D01*
X165878350Y-112746154D01*
X165825056Y-112712944D01*
X165682443Y-112678530D01*
X165569241Y-112722253D01*
X165481000Y-112801400D01*
X165389008Y-112969538D01*
X165353952Y-113198587D01*
X165377690Y-113435023D01*
X165452850Y-113612771D01*
X165589611Y-113724996D01*
X165749852Y-113747525D01*
X165887601Y-113678984D01*
X165925500Y-113626900D01*
X166019180Y-113536911D01*
X166145364Y-113499728D01*
X166256855Y-113518680D01*
X166306460Y-113597094D01*
X166306500Y-113600035D01*
X166264207Y-113704625D01*
X166158368Y-113845500D01*
X166112968Y-113893702D01*
X165974187Y-114015071D01*
X165846225Y-114062929D01*
X165666019Y-114058528D01*
X165634141Y-114055077D01*
X165352786Y-113983758D01*
X165159990Y-113833080D01*
X165033267Y-113585316D01*
X165031480Y-113579942D01*
X164970092Y-113241201D01*
X164768277Y-113241201D01*
X164750750Y-114039650D01*
X164592000Y-114039650D01*
X164510927Y-114032956D01*
X164462060Y-113995055D01*
X164435414Y-113899223D01*
X164421001Y-113718733D01*
X164414284Y-113563991D01*
X164395319Y-113088332D01*
X164081749Y-113579866D01*
X163920712Y-113822153D01*
X163801541Y-113971986D01*
X163705695Y-114048625D01*
X163614635Y-114071332D01*
X163608589Y-114071400D01*
X166560500Y-114071400D01*
X166560500Y-112420400D01*
X167100250Y-112420400D01*
X167830500Y-112420400D01*
X167989250Y-112420400D01*
X168087211Y-112432244D01*
X168133624Y-112490461D01*
X168147393Y-112629078D01*
X168148000Y-112706150D01*
X168156248Y-112884618D01*
X168190656Y-112969024D01*
X168265718Y-112991770D01*
X168275825Y-112991900D01*
X168389633Y-112939984D01*
X168506251Y-112776717D01*
X168542478Y-112706150D01*
X168636771Y-112532964D01*
X168723309Y-112448234D01*
X168839214Y-112421609D01*
X168891973Y-112420400D01*
X169102639Y-112420400D01*
X169012869Y-112597554D01*
X169236453Y-112597554D01*
X169253339Y-112508156D01*
X169334574Y-112432387D01*
X169452794Y-112436030D01*
X169557593Y-112506345D01*
X169597041Y-112595025D01*
X169588011Y-112702533D01*
X169495672Y-112736902D01*
X169457914Y-112737900D01*
X169296558Y-112700908D01*
X169236453Y-112597554D01*
X169012869Y-112597554D01*
X168940363Y-112740637D01*
X168778087Y-113060873D01*
X168907543Y-113225450D01*
X169020668Y-113446092D01*
X169007134Y-113662696D01*
X168962507Y-113735825D01*
X169245100Y-113735825D01*
X169258011Y-113498528D01*
X169263161Y-113435527D01*
X169287592Y-113183595D01*
X169313211Y-113032659D01*
X169349891Y-112957009D01*
X169407507Y-112930940D01*
X169457949Y-112928400D01*
X169529235Y-112933927D01*
X169573500Y-112966788D01*
X169597176Y-113051405D01*
X169606697Y-113212200D01*
X169608496Y-113473593D01*
X169608500Y-113499900D01*
X169607150Y-113770460D01*
X169598682Y-113938454D01*
X169576470Y-114028317D01*
X169533886Y-114064480D01*
X169464305Y-114071379D01*
X169453497Y-114071400D01*
X169318805Y-114047650D01*
X169258709Y-114007027D01*
X169245241Y-113917019D01*
X169245100Y-113735825D01*
X168962507Y-113735825D01*
X168890888Y-113853184D01*
X168795287Y-113945546D01*
X168680225Y-114002199D01*
X168508007Y-114035801D01*
X168287638Y-114055757D01*
X167830500Y-114088465D01*
X167830500Y-112420400D01*
X167100250Y-112420400D01*
X167361622Y-112421858D01*
X167521139Y-112431161D01*
X167603944Y-112455705D01*
X167635183Y-112502884D01*
X167640000Y-112579150D01*
X167630934Y-112670070D01*
X167583017Y-112717411D01*
X167465172Y-112735300D01*
X167290750Y-112737900D01*
X167091089Y-112741099D01*
X166987167Y-112762063D01*
X166947724Y-112817842D01*
X166941500Y-112925487D01*
X166941500Y-112928400D01*
X166948436Y-113041172D01*
X166991086Y-113097407D01*
X167102210Y-113116761D01*
X167259000Y-113118900D01*
X167449437Y-113125587D01*
X167544416Y-113153968D01*
X167575141Y-113216526D01*
X167576500Y-113245900D01*
X167559783Y-113322076D01*
X167488831Y-113360067D01*
X167332437Y-113372357D01*
X167259000Y-113372900D01*
X167071047Y-113377062D01*
X166977322Y-113402653D01*
X166945065Y-113469327D01*
X166941500Y-113563400D01*
X166947364Y-113672306D01*
X166985797Y-113728991D01*
X167088059Y-113750505D01*
X167285409Y-113753900D01*
X167290750Y-113753900D01*
X167490772Y-113758021D01*
X167594922Y-113779802D01*
X167634278Y-113833368D01*
X167640000Y-113912650D01*
X167635044Y-113989525D01*
X167603414Y-114036441D01*
X167519966Y-114060796D01*
X167359555Y-114069984D01*
X167100250Y-114071400D01*
X166560500Y-114071400D01*
X163608589Y-114071400D01*
X163449000Y-114071400D01*
X159618424Y-114071400D01*
X159636446Y-114094642D01*
X159782739Y-114289598D01*
X159871747Y-114416489D01*
X159893000Y-114456374D01*
X159846618Y-114518210D01*
X159730484Y-114625041D01*
X159579116Y-114749357D01*
X159427030Y-114863648D01*
X159308743Y-114940405D01*
X159264743Y-114957090D01*
X159219870Y-114905481D01*
X159117868Y-114763633D01*
X158969301Y-114547712D01*
X158784734Y-114273885D01*
X158574733Y-113958321D01*
X158349863Y-113617185D01*
X158120690Y-113266644D01*
X157897778Y-112922868D01*
X157691692Y-112602021D01*
X157512998Y-112320271D01*
X157372261Y-112093786D01*
X157280046Y-111938733D01*
X157246918Y-111871279D01*
X156654500Y-111871279D01*
X156654500Y-115912900D01*
X156781500Y-115912900D01*
X156783091Y-115892710D01*
X156792613Y-115874782D01*
X156817186Y-115858981D01*
X156863932Y-115845174D01*
X156939973Y-115833225D01*
X157052429Y-115823000D01*
X157208423Y-115814366D01*
X157415075Y-115807187D01*
X157679508Y-115801330D01*
X158008841Y-115796659D01*
X158410197Y-115793041D01*
X158890697Y-115790341D01*
X159457463Y-115788425D01*
X160117615Y-115787159D01*
X160878276Y-115786408D01*
X161746566Y-115786037D01*
X162729607Y-115785913D01*
X163512500Y-115785900D01*
X164582576Y-115785931D01*
X165532774Y-115786110D01*
X166370215Y-115786574D01*
X167102020Y-115787456D01*
X167735311Y-115788891D01*
X168277208Y-115791012D01*
X168734834Y-115793956D01*
X169115309Y-115797855D01*
X169425756Y-115802844D01*
X169673294Y-115809058D01*
X169865047Y-115816631D01*
X170008134Y-115825697D01*
X170109678Y-115836390D01*
X170176800Y-115848846D01*
X170216621Y-115863198D01*
X170236263Y-115879581D01*
X170242847Y-115898129D01*
X170243500Y-115912900D01*
X170241908Y-115933091D01*
X170232386Y-115951019D01*
X170207813Y-115966820D01*
X170161067Y-115980627D01*
X170085026Y-115992576D01*
X169972570Y-116002801D01*
X169816576Y-116011435D01*
X169609924Y-116018614D01*
X169345491Y-116024471D01*
X169016158Y-116029142D01*
X168614802Y-116032760D01*
X168134302Y-116035460D01*
X167567536Y-116037376D01*
X166907384Y-116038642D01*
X166146723Y-116039393D01*
X165278433Y-116039764D01*
X164295392Y-116039888D01*
X163512500Y-116039900D01*
X162442423Y-116039870D01*
X161492225Y-116039691D01*
X160654784Y-116039227D01*
X159922979Y-116038345D01*
X159289688Y-116036910D01*
X158747791Y-116034789D01*
X158290165Y-116031845D01*
X157909690Y-116027946D01*
X157599243Y-116022957D01*
X157351705Y-116016743D01*
X157159952Y-116009170D01*
X157016865Y-116000104D01*
X156915321Y-115989411D01*
X156848199Y-115976955D01*
X156808378Y-115962603D01*
X156788736Y-115946220D01*
X156782152Y-115927672D01*
X156781500Y-115912900D01*
X156654500Y-115912900D01*
X156654500Y-116166900D01*
X157786697Y-116166900D01*
X158066572Y-116166900D01*
X158927420Y-116166900D01*
X159191311Y-116166900D01*
X159329891Y-116175047D01*
X159418436Y-116204147D01*
X160083500Y-116204147D01*
X160139624Y-116180120D01*
X160278652Y-116167472D01*
X160319916Y-116166900D01*
X160368652Y-116171300D01*
X161226500Y-116171300D01*
X161282343Y-116146400D01*
X161419929Y-116137402D01*
X161452140Y-116138054D01*
X161568411Y-116155224D01*
X163449000Y-116155224D01*
X163505503Y-116147106D01*
X163648194Y-116150969D01*
X163651392Y-116151188D01*
X165735000Y-116151188D01*
X165791293Y-116140445D01*
X165932607Y-116142914D01*
X165999432Y-116147396D01*
X166127410Y-116166900D01*
X166858316Y-116166900D01*
X167104574Y-116166900D01*
X167997239Y-116166900D01*
X168258623Y-116166900D01*
X169086697Y-116166900D01*
X169360796Y-116166900D01*
X169547661Y-116182983D01*
X169695845Y-116248083D01*
X169860704Y-116387480D01*
X169875697Y-116402038D01*
X170034996Y-116583388D01*
X170106431Y-116743610D01*
X170116500Y-116846538D01*
X170093296Y-117002770D01*
X170032618Y-117055900D01*
X169954775Y-117012710D01*
X169813920Y-116896586D01*
X169633416Y-116727696D01*
X169517716Y-116611400D01*
X169086697Y-116166900D01*
X168258623Y-116166900D01*
X168396649Y-116175523D01*
X168511610Y-116214052D01*
X168634521Y-116301479D01*
X168796397Y-116456795D01*
X168889628Y-116553281D01*
X169061562Y-116737047D01*
X169196479Y-116888828D01*
X169272188Y-116983385D01*
X169280416Y-116997781D01*
X169238484Y-117034350D01*
X169107991Y-117054521D01*
X169055178Y-117055900D01*
X168951671Y-117052956D01*
X168864630Y-117034535D01*
X168775677Y-116986255D01*
X168666431Y-116893733D01*
X168518513Y-116742586D01*
X168313544Y-116518433D01*
X168182834Y-116373275D01*
X167997239Y-116166900D01*
X167104574Y-116166900D01*
X167236020Y-116177253D01*
X167353244Y-116220348D01*
X167485715Y-116314239D01*
X167662904Y-116476979D01*
X167749416Y-116561941D01*
X167927517Y-116743704D01*
X168064559Y-116893549D01*
X168139806Y-116988350D01*
X168148000Y-117006441D01*
X168091835Y-117038118D01*
X167952417Y-117055029D01*
X167907487Y-117055900D01*
X167758316Y-117041486D01*
X167630135Y-116983453D01*
X167484246Y-116859616D01*
X167381356Y-116754275D01*
X167211206Y-116571893D01*
X167060148Y-116405367D01*
X166977026Y-116309775D01*
X166858316Y-116166900D01*
X166127410Y-116166900D01*
X166143624Y-116169371D01*
X166266412Y-116223069D01*
X166399317Y-116329404D01*
X166573862Y-116509287D01*
X166618557Y-116558144D01*
X166784682Y-116744215D01*
X166914805Y-116896508D01*
X166987142Y-116989302D01*
X166994416Y-117001937D01*
X166952478Y-117035897D01*
X166821969Y-117054623D01*
X166769234Y-117055900D01*
X166644667Y-117047583D01*
X166538468Y-117010344D01*
X166423821Y-116925757D01*
X166273912Y-116775396D01*
X166128942Y-116615899D01*
X165957474Y-116421905D01*
X165823752Y-116265897D01*
X165746563Y-116170040D01*
X165735000Y-116151188D01*
X163651392Y-116151188D01*
X163728696Y-116156481D01*
X163804475Y-116166900D01*
X164564225Y-116166900D01*
X164858493Y-116166900D01*
X165007062Y-116172329D01*
X165119912Y-116201514D01*
X165228128Y-116273808D01*
X165362798Y-116408562D01*
X165507380Y-116570818D01*
X165668866Y-116759233D01*
X165791848Y-116911255D01*
X165856679Y-117002255D01*
X165862000Y-117015318D01*
X165807974Y-117044460D01*
X165680433Y-117054098D01*
X165531181Y-117045326D01*
X165412020Y-117019235D01*
X165385750Y-117005274D01*
X165314886Y-116939413D01*
X165181129Y-116806129D01*
X165009065Y-116630066D01*
X164943237Y-116561746D01*
X164564225Y-116166900D01*
X163804475Y-116166900D01*
X163875840Y-116176712D01*
X163995442Y-116224092D01*
X164118781Y-116319526D01*
X164277137Y-116483923D01*
X164363696Y-116580921D01*
X164525511Y-116768111D01*
X164648737Y-116918312D01*
X164713680Y-117007214D01*
X164719000Y-117019509D01*
X164662851Y-117042770D01*
X164523645Y-117054803D01*
X164480875Y-117055285D01*
X164358840Y-117045627D01*
X164251792Y-117005128D01*
X164133217Y-116915423D01*
X163976606Y-116758149D01*
X163845875Y-116615441D01*
X163673399Y-116422461D01*
X163538787Y-116267852D01*
X163460871Y-116173451D01*
X163449000Y-116155224D01*
X161568411Y-116155224D01*
X161579639Y-116156882D01*
X161600942Y-116166900D01*
X162277656Y-116166900D01*
X162572250Y-116166900D01*
X162722696Y-116172701D01*
X162837617Y-116202995D01*
X162949055Y-116277123D01*
X163089052Y-116414423D01*
X163221422Y-116558722D01*
X163384409Y-116744761D01*
X163507877Y-116896991D01*
X163571558Y-116990001D01*
X163576000Y-117003222D01*
X163520409Y-117038972D01*
X163384871Y-117055726D01*
X163367921Y-117055900D01*
X163253695Y-117041121D01*
X163136122Y-116985710D01*
X162990944Y-116873059D01*
X162793906Y-116686558D01*
X162718750Y-116611400D01*
X162277656Y-116166900D01*
X161600942Y-116166900D01*
X161705659Y-116216142D01*
X161857613Y-116333674D01*
X162062917Y-116527318D01*
X162087140Y-116551261D01*
X162267832Y-116735457D01*
X162407757Y-116887825D01*
X162486467Y-116985625D01*
X162496500Y-117006441D01*
X162440215Y-117037706D01*
X162299978Y-117054809D01*
X162248125Y-117055900D01*
X162120340Y-117047225D01*
X162011363Y-117008808D01*
X161893219Y-116922059D01*
X161737935Y-116768392D01*
X161613125Y-116633967D01*
X161442055Y-116443043D01*
X161309745Y-116287325D01*
X161235665Y-116190111D01*
X161226500Y-116171300D01*
X160368652Y-116171300D01*
X160448426Y-116178502D01*
X160566725Y-116225304D01*
X160703743Y-116325303D01*
X160888408Y-116496495D01*
X160954916Y-116561941D01*
X161133017Y-116743704D01*
X161270059Y-116893549D01*
X161345306Y-116988350D01*
X161353500Y-117006441D01*
X161297282Y-117037937D01*
X161157503Y-117054935D01*
X161109565Y-117055900D01*
X160981012Y-117046035D01*
X160867992Y-117004189D01*
X160741854Y-116911986D01*
X160573944Y-116751051D01*
X160474565Y-116648647D01*
X160300557Y-116463520D01*
X160166367Y-116313304D01*
X160092057Y-116220802D01*
X160083500Y-116204147D01*
X159418436Y-116204147D01*
X159443326Y-116212327D01*
X159562594Y-116298002D01*
X159718676Y-116451335D01*
X159816976Y-116555922D01*
X159985771Y-116741120D01*
X160118135Y-116893275D01*
X160192130Y-116986921D01*
X160199916Y-117000422D01*
X160157727Y-117034976D01*
X160026597Y-117054372D01*
X159968331Y-117055900D01*
X159842082Y-117048331D01*
X159736500Y-117013339D01*
X159624774Y-116932500D01*
X159480091Y-116787388D01*
X159321500Y-116611400D01*
X158927420Y-116166900D01*
X158066572Y-116166900D01*
X158208523Y-116173131D01*
X158319371Y-116204663D01*
X158429338Y-116280756D01*
X158568647Y-116420671D01*
X158706973Y-116575009D01*
X158870078Y-116763603D01*
X158994745Y-116915295D01*
X159061428Y-117005987D01*
X159067500Y-117019509D01*
X159011369Y-117042299D01*
X158872202Y-117053176D01*
X158829375Y-117053303D01*
X158707197Y-117042359D01*
X158599010Y-117000335D01*
X158478438Y-116908923D01*
X158319103Y-116749815D01*
X158188973Y-116608803D01*
X157786697Y-116166900D01*
X156654500Y-116166900D01*
X156654500Y-116311511D01*
X156861655Y-116311511D01*
X156866366Y-116212168D01*
X156964211Y-116169772D01*
X157019625Y-116166936D01*
X157133590Y-116191696D01*
X157264592Y-116277016D01*
X157434606Y-116439521D01*
X157559375Y-116575272D01*
X157724110Y-116763402D01*
X157850210Y-116914863D01*
X157918061Y-117005778D01*
X157924500Y-117019737D01*
X157868222Y-117042680D01*
X157728146Y-117055148D01*
X157678213Y-117055900D01*
X157537723Y-117045219D01*
X157423506Y-116998585D01*
X157301179Y-116894117D01*
X157138463Y-116712398D01*
X156951784Y-116475642D01*
X156861655Y-116311511D01*
X156654500Y-116311511D01*
X156654500Y-116906763D01*
X156801467Y-117044832D01*
X156948435Y-117182900D01*
X170157862Y-117182900D01*
X170295931Y-117035933D01*
G37*
X170295931Y-117035933D02*
X170434000Y-116888965D01*
X170434000Y-112207046D01*
X170433999Y-107525128D01*
X170278136Y-107369264D01*
X170122272Y-107213400D01*
X156966227Y-107213400D01*
X156810363Y-107369264D01*
X156654500Y-107525128D01*
X156654500Y-107539193D01*
X156846485Y-107539193D01*
X156927982Y-107473419D01*
X156986166Y-107467400D01*
X157773739Y-107467400D01*
X158035123Y-107467400D01*
X158173149Y-107476023D01*
X158265755Y-107507060D01*
X158973461Y-107507060D01*
X159025081Y-107474999D01*
X159177202Y-107467407D01*
X159184985Y-107467400D01*
X160004789Y-107467400D01*
X160291605Y-107467400D01*
X160430762Y-107472561D01*
X160539468Y-107500220D01*
X160578748Y-107525520D01*
X161237083Y-107525520D01*
X161279324Y-107489409D01*
X161410585Y-107469056D01*
X161470154Y-107467400D01*
X162297944Y-107467400D01*
X162571847Y-107468016D01*
X162705991Y-107474438D01*
X162814041Y-107505117D01*
X162923596Y-107578229D01*
X163062257Y-107711947D01*
X163246845Y-107912516D01*
X163647940Y-108356400D01*
X163370913Y-108356400D01*
X163235671Y-108350598D01*
X163127839Y-108321046D01*
X163019756Y-108249530D01*
X162883761Y-108117834D01*
X162695915Y-107911900D01*
X162297944Y-107467400D01*
X163426862Y-107467400D01*
X163687434Y-107467400D01*
X164578920Y-107467400D01*
X164849253Y-107467400D01*
X164990137Y-107474856D01*
X165102866Y-107510196D01*
X165142050Y-107538187D01*
X165780588Y-107538187D01*
X165784730Y-107488742D01*
X165850783Y-107470186D01*
X165963641Y-107467400D01*
X166094448Y-107477999D01*
X166211847Y-107521826D01*
X166217026Y-107525520D01*
X166888583Y-107525520D01*
X166930805Y-107489381D01*
X167062020Y-107469038D01*
X167121171Y-107467400D01*
X167249944Y-107475264D01*
X167357379Y-107511315D01*
X167364994Y-107516860D01*
X168021000Y-107516860D01*
X168077284Y-107485595D01*
X168217521Y-107468492D01*
X168269374Y-107467400D01*
X169089697Y-107467400D01*
X169376597Y-107467400D01*
X169551432Y-107477205D01*
X169675143Y-107523613D01*
X169795078Y-107632116D01*
X169889998Y-107743815D01*
X170030237Y-107949657D01*
X170106306Y-108134616D01*
X170113789Y-108275348D01*
X170048271Y-108348512D01*
X170005375Y-108353803D01*
X169916055Y-108307918D01*
X169769021Y-108187045D01*
X169589119Y-108012699D01*
X169491973Y-107909303D01*
X169089697Y-107467400D01*
X168269374Y-107467400D01*
X168396192Y-107475939D01*
X168504599Y-107513825D01*
X168622151Y-107599460D01*
X168776403Y-107751247D01*
X168911167Y-107896025D01*
X169304585Y-108324650D01*
X169065828Y-108344938D01*
X168943011Y-108347124D01*
X168837256Y-108318524D01*
X168720071Y-108242304D01*
X168562962Y-108101630D01*
X168424035Y-107965772D01*
X168244859Y-107783000D01*
X168106620Y-107632110D01*
X168029934Y-107536063D01*
X168021000Y-107516860D01*
X167364994Y-107516860D01*
X167471274Y-107594241D01*
X167619426Y-107742731D01*
X167758698Y-107896025D01*
X168142471Y-108324650D01*
X167898859Y-108343804D01*
X167772177Y-108345883D01*
X167666740Y-108317140D01*
X167553009Y-108239818D01*
X167401440Y-108096160D01*
X167282498Y-107973299D01*
X167109812Y-107788776D01*
X166974074Y-107636215D01*
X166897362Y-107540713D01*
X166888583Y-107525520D01*
X166217026Y-107525520D01*
X166345201Y-107616925D01*
X166523872Y-107781344D01*
X166606416Y-107862441D01*
X166784517Y-108044204D01*
X166921559Y-108194049D01*
X166996806Y-108288850D01*
X167005000Y-108306941D01*
X166948838Y-108338630D01*
X166809444Y-108355535D01*
X166764705Y-108356400D01*
X166623456Y-108343548D01*
X166500295Y-108291184D01*
X166360485Y-108178603D01*
X166205409Y-108023025D01*
X165984350Y-107790213D01*
X165844935Y-107633639D01*
X165780588Y-107538187D01*
X165142050Y-107538187D01*
X165218612Y-107592878D01*
X165368550Y-107742360D01*
X165474917Y-107857937D01*
X165641197Y-108044174D01*
X165771490Y-108196639D01*
X165844034Y-108289642D01*
X165851416Y-108302437D01*
X165809224Y-108336048D01*
X165678087Y-108354914D01*
X165619831Y-108356400D01*
X165493582Y-108348831D01*
X165388000Y-108313839D01*
X165276274Y-108233000D01*
X165131591Y-108087888D01*
X164973000Y-107911900D01*
X164578920Y-107467400D01*
X163687434Y-107467400D01*
X163825166Y-107476097D01*
X163940112Y-107514848D01*
X164063250Y-107602647D01*
X164225560Y-107758488D01*
X164317628Y-107853781D01*
X164489562Y-108037547D01*
X164624479Y-108189328D01*
X164700188Y-108283885D01*
X164708416Y-108298281D01*
X164666498Y-108334870D01*
X164536037Y-108355033D01*
X164483512Y-108356400D01*
X164365970Y-108347547D01*
X164257349Y-108311327D01*
X164139307Y-108233247D01*
X163993504Y-108098815D01*
X163801598Y-107893541D01*
X163579349Y-107642025D01*
X163426862Y-107467400D01*
X162297944Y-107467400D01*
X161470154Y-107467400D01*
X161599072Y-107475285D01*
X161706930Y-107511323D01*
X161821539Y-107594088D01*
X161970708Y-107742156D01*
X162111864Y-107896025D01*
X162499337Y-108324650D01*
X162251542Y-108343804D01*
X162123234Y-108346186D01*
X162017510Y-108318384D01*
X161904643Y-108242652D01*
X161754906Y-108101240D01*
X161630998Y-107973299D01*
X161458312Y-107788776D01*
X161322574Y-107636215D01*
X161245862Y-107540713D01*
X161237083Y-107525520D01*
X160578748Y-107525520D01*
X160645708Y-107568647D01*
X160777466Y-107696111D01*
X160962725Y-107900879D01*
X160972500Y-107911900D01*
X161366579Y-108356400D01*
X161090164Y-108351453D01*
X160953912Y-108342511D01*
X160843212Y-108309158D01*
X160730045Y-108233102D01*
X160586389Y-108096051D01*
X160409269Y-107906953D01*
X160004789Y-107467400D01*
X159184985Y-107467400D01*
X159311983Y-107476033D01*
X159421362Y-107514033D01*
X159540675Y-107599556D01*
X159697477Y-107750754D01*
X159835527Y-107896025D01*
X160237116Y-108324650D01*
X159992130Y-108344921D01*
X159856716Y-108346784D01*
X159743550Y-108314131D01*
X159618852Y-108228766D01*
X159448839Y-108072496D01*
X159402639Y-108027421D01*
X159226857Y-107848524D01*
X159083653Y-107690849D01*
X159001284Y-107585671D01*
X158997083Y-107578525D01*
X158973461Y-107507060D01*
X158265755Y-107507060D01*
X158288110Y-107514552D01*
X158411021Y-107601979D01*
X158572897Y-107757295D01*
X158666128Y-107853781D01*
X158838062Y-108037547D01*
X158972979Y-108189328D01*
X159048688Y-108283885D01*
X159056916Y-108298281D01*
X159014984Y-108334850D01*
X158884491Y-108355021D01*
X158831678Y-108356400D01*
X158728171Y-108353456D01*
X158641130Y-108335035D01*
X158552177Y-108286755D01*
X158442931Y-108194233D01*
X158295013Y-108043086D01*
X158090044Y-107818933D01*
X157959334Y-107673775D01*
X157773739Y-107467400D01*
X156986166Y-107467400D01*
X157111043Y-107515693D01*
X157297886Y-107652877D01*
X157525916Y-107862441D01*
X157704017Y-108044204D01*
X157841059Y-108194049D01*
X157916306Y-108288850D01*
X157924500Y-108306941D01*
X157868407Y-108338866D01*
X157729484Y-108355650D01*
X157688556Y-108356400D01*
X157538792Y-108340221D01*
X157402950Y-108277606D01*
X157242949Y-108147446D01*
X157148806Y-108057163D01*
X156960476Y-107844047D01*
X156858509Y-107667064D01*
X156846485Y-107539193D01*
X156654500Y-107539193D01*
X156654500Y-108578650D01*
X156822036Y-108578650D01*
X156826807Y-108563409D01*
X156858053Y-108549859D01*
X156922618Y-108537903D01*
X157027344Y-108527443D01*
X157179075Y-108518384D01*
X157384655Y-108510628D01*
X157650926Y-108504078D01*
X157984732Y-108498638D01*
X158392916Y-108494209D01*
X158882321Y-108490696D01*
X159459791Y-108488002D01*
X160132170Y-108486029D01*
X160906299Y-108484680D01*
X161789023Y-108483859D01*
X162787185Y-108483469D01*
X163546242Y-108483400D01*
X164628925Y-108483554D01*
X165591484Y-108484079D01*
X166440799Y-108485071D01*
X167183745Y-108486629D01*
X167827202Y-108488849D01*
X168378045Y-108491828D01*
X168843152Y-108495663D01*
X169229400Y-108500450D01*
X169543667Y-108506287D01*
X169792830Y-108513271D01*
X169983767Y-108521497D01*
X170123353Y-108531064D01*
X170218468Y-108542069D01*
X170275988Y-108554607D01*
X170302790Y-108568776D01*
X170307000Y-108578650D01*
X170296107Y-108593943D01*
X170258833Y-108607535D01*
X170188280Y-108619522D01*
X170077554Y-108630004D01*
X169919759Y-108639078D01*
X169707998Y-108646841D01*
X169435376Y-108653391D01*
X169094998Y-108658826D01*
X168679967Y-108663243D01*
X168183387Y-108666741D01*
X167598363Y-108669416D01*
X166918000Y-108671367D01*
X166135400Y-108672691D01*
X165243669Y-108673485D01*
X164235910Y-108673849D01*
X163582793Y-108673900D01*
X162502219Y-108673742D01*
X161541714Y-108673203D01*
X160694348Y-108672184D01*
X159953192Y-108670589D01*
X159311316Y-108668320D01*
X158761789Y-108665278D01*
X158297681Y-108661367D01*
X157912063Y-108656489D01*
X157598003Y-108650546D01*
X157348573Y-108643441D01*
X157156842Y-108635075D01*
X157015880Y-108625352D01*
X156918757Y-108614174D01*
X156858543Y-108601442D01*
X156828308Y-108587060D01*
X156822036Y-108578650D01*
X156654500Y-108578650D01*
X156654500Y-111871279D01*
X157246918Y-111871279D01*
X157247296Y-111869937D01*
X157315474Y-111874373D01*
X157482112Y-111905905D01*
X157722826Y-111959408D01*
X158013230Y-112029759D01*
X158040084Y-112036518D01*
X158334315Y-112110221D01*
X158581263Y-112170984D01*
X158756332Y-112212834D01*
X158834926Y-112229797D01*
X158836326Y-112229900D01*
X158813946Y-112180759D01*
X158731602Y-112045966D01*
X158601358Y-111844465D01*
X158435281Y-111595201D01*
X158381351Y-111515525D01*
X158187114Y-111231064D01*
X158051261Y-111039613D01*
X157961277Y-110928817D01*
X157904644Y-110886319D01*
X157868845Y-110899765D01*
X157841363Y-110956799D01*
X157834552Y-110975775D01*
X157776605Y-111100679D01*
X157727062Y-111150400D01*
X157700163Y-111093471D01*
X157652201Y-110942369D01*
X157590872Y-110726622D01*
X157523872Y-110475757D01*
X157458897Y-110219302D01*
X157403644Y-109986785D01*
X157365809Y-109807733D01*
X157353000Y-109715281D01*
X157403931Y-109723033D01*
X157555103Y-109804089D01*
X157804082Y-109957008D01*
X158148434Y-110180349D01*
X158235135Y-110237720D01*
X158641020Y-110507100D01*
X158439899Y-110559216D01*
X158238777Y-110611331D01*
X158623978Y-111150400D01*
X160591500Y-111150400D01*
X160595986Y-110889750D01*
X160612264Y-110733324D01*
X160644561Y-110658572D01*
X160686750Y-110642400D01*
X160762369Y-110699197D01*
X160782000Y-110832900D01*
X160797734Y-110967832D01*
X160871954Y-111017564D01*
X160972500Y-111023400D01*
X161107431Y-111007666D01*
X161157163Y-110933446D01*
X161163000Y-110832900D01*
X161191398Y-110681661D01*
X161258250Y-110642400D01*
X161307121Y-110666328D01*
X161336451Y-110753142D01*
X161350467Y-110925394D01*
X161350647Y-110938779D01*
X161486984Y-110938779D01*
X161504224Y-110762610D01*
X161549989Y-110670755D01*
X161629441Y-110642529D01*
X161637257Y-110642400D01*
X161686766Y-110664773D01*
X161716572Y-110747179D01*
X161731024Y-110912550D01*
X161734433Y-111150400D01*
X161861500Y-111150400D01*
X161911305Y-110896091D01*
X162047097Y-110721721D01*
X162248441Y-110641790D01*
X162494903Y-110670801D01*
X162523056Y-110680944D01*
X162599042Y-110772292D01*
X162613149Y-110886861D01*
X162756803Y-110886861D01*
X162763141Y-110739934D01*
X162788598Y-110667696D01*
X162839058Y-110644099D01*
X162874828Y-110642400D01*
X162969444Y-110671203D01*
X163002971Y-110779774D01*
X163004500Y-110832900D01*
X163021585Y-110969046D01*
X163094215Y-111018851D01*
X163163250Y-111023400D01*
X163276704Y-111002897D01*
X163318208Y-110915741D01*
X163322000Y-110832900D01*
X163341605Y-110693901D01*
X163415508Y-110644646D01*
X163451671Y-110642400D01*
X163516580Y-110651634D01*
X163553596Y-110696700D01*
X163568600Y-110803648D01*
X163567473Y-110998526D01*
X163562796Y-111134525D01*
X163547769Y-111392788D01*
X163523307Y-111545911D01*
X163484371Y-111615680D01*
X163449000Y-111626650D01*
X163369269Y-111569816D01*
X163333657Y-111452025D01*
X163292146Y-111320263D01*
X163188672Y-111278109D01*
X163163250Y-111277400D01*
X163046308Y-111308012D01*
X162996840Y-111422586D01*
X162992842Y-111452025D01*
X162946402Y-111586209D01*
X162877500Y-111626650D01*
X162826482Y-111599300D01*
X162793206Y-111502725D01*
X162772633Y-111315141D01*
X162763703Y-111134525D01*
X162756803Y-110886861D01*
X162613149Y-110886861D01*
X162623500Y-110970912D01*
X162616277Y-111131630D01*
X162578330Y-111198785D01*
X162485242Y-111205655D01*
X162453772Y-111202243D01*
X162330986Y-111163318D01*
X162259172Y-111100325D01*
X162258992Y-111043730D01*
X162332458Y-111023400D01*
X162419943Y-110972700D01*
X162433000Y-110923734D01*
X162385565Y-110848339D01*
X162290125Y-110844359D01*
X162194845Y-110880602D01*
X162146777Y-110977770D01*
X162128116Y-111126481D01*
X162141586Y-111324835D01*
X162208024Y-111430275D01*
X162313719Y-111430289D01*
X162394876Y-111369952D01*
X162521811Y-111282658D01*
X162600978Y-111293825D01*
X162614470Y-111378475D01*
X162544383Y-111511632D01*
X162518408Y-111542275D01*
X162373475Y-111637529D01*
X163978462Y-111637529D01*
X163981668Y-111565057D01*
X164022597Y-111404950D01*
X164093007Y-111187962D01*
X164116706Y-111121685D01*
X164232588Y-110836782D01*
X164332280Y-110676447D01*
X164423771Y-110640570D01*
X164515051Y-110729040D01*
X164614106Y-110941748D01*
X164675583Y-111113995D01*
X164696361Y-111180862D01*
X164846000Y-111180862D01*
X164882383Y-110973937D01*
X164973300Y-110784698D01*
X165061881Y-110690998D01*
X165234042Y-110644144D01*
X165426516Y-110687804D01*
X165544500Y-110769400D01*
X165644486Y-110942009D01*
X165666247Y-111150974D01*
X165665357Y-111155057D01*
X165798500Y-111155057D01*
X165798500Y-110642400D01*
X166116000Y-110642400D01*
X166315663Y-110652597D01*
X166413183Y-110687902D01*
X166433500Y-110737650D01*
X166381406Y-110810513D01*
X166227125Y-110832785D01*
X166020750Y-110832669D01*
X166020750Y-111228478D01*
X166014605Y-111452647D01*
X166002887Y-111515525D01*
X166318588Y-111515525D01*
X166341425Y-111424666D01*
X166428843Y-111404400D01*
X166505666Y-111389999D01*
X166545147Y-111326300D01*
X166559239Y-111182562D01*
X166560500Y-111065734D01*
X166568495Y-110835554D01*
X166599396Y-110705823D01*
X166663574Y-110650613D01*
X166729833Y-110642400D01*
X166781299Y-110684851D01*
X166788172Y-110720203D01*
X167068500Y-110720203D01*
X167111790Y-110652829D01*
X167203512Y-110651599D01*
X167286436Y-110712193D01*
X167299536Y-110737650D01*
X167384427Y-110811311D01*
X167490036Y-110832900D01*
X167622535Y-110797867D01*
X167680536Y-110737650D01*
X167767224Y-110656955D01*
X167835551Y-110642400D01*
X167890424Y-110651085D01*
X167910300Y-110692806D01*
X167892200Y-110791068D01*
X167833142Y-110969373D01*
X167773145Y-111134525D01*
X167762548Y-111160381D01*
X167961276Y-111160381D01*
X167983671Y-110937936D01*
X168081018Y-110772882D01*
X168267362Y-110666763D01*
X168488575Y-110650590D01*
X168681060Y-110724907D01*
X168768758Y-110864737D01*
X168772572Y-110994782D01*
X168772459Y-110995218D01*
X168854004Y-110995218D01*
X168859879Y-110814862D01*
X168872988Y-110728464D01*
X168949994Y-110672033D01*
X169098138Y-110642266D01*
X169273653Y-110638566D01*
X169432771Y-110660335D01*
X169531723Y-110706973D01*
X169545000Y-110737650D01*
X169496805Y-110808099D01*
X169342991Y-110832728D01*
X169322750Y-110832900D01*
X169169570Y-110847107D01*
X169107764Y-110902567D01*
X169100500Y-110959900D01*
X169130436Y-111052861D01*
X169241824Y-111085590D01*
X169291000Y-111086900D01*
X169442239Y-111115299D01*
X169481500Y-111182150D01*
X169424703Y-111257770D01*
X169291000Y-111277400D01*
X169157243Y-111295794D01*
X169100514Y-111340110D01*
X169100500Y-111340900D01*
X169156403Y-111382525D01*
X169294219Y-111403718D01*
X169327406Y-111404400D01*
X169479468Y-111416759D01*
X169534538Y-111464104D01*
X169532911Y-111515525D01*
X169492071Y-111584557D01*
X169383998Y-111618263D01*
X169194880Y-111626650D01*
X168878250Y-111626650D01*
X168859106Y-111220589D01*
X168854004Y-110995218D01*
X168772459Y-110995218D01*
X168737608Y-111129610D01*
X168646915Y-111177937D01*
X168566041Y-111182150D01*
X168424969Y-111157884D01*
X168354375Y-111102775D01*
X168380726Y-111034675D01*
X168428458Y-111023400D01*
X168515943Y-110972700D01*
X168529000Y-110923734D01*
X168481565Y-110848339D01*
X168386125Y-110844359D01*
X168290845Y-110880602D01*
X168242777Y-110977770D01*
X168224116Y-111126481D01*
X168237586Y-111324835D01*
X168304024Y-111430275D01*
X168409719Y-111430289D01*
X168490876Y-111369952D01*
X168613577Y-111285976D01*
X168693002Y-111305067D01*
X168708041Y-111418998D01*
X168633851Y-111563017D01*
X168487175Y-111634547D01*
X168305683Y-111624297D01*
X168163747Y-111553230D01*
X168022931Y-111380855D01*
X167961276Y-111160381D01*
X167762548Y-111160381D01*
X167679071Y-111364039D01*
X167588044Y-111541363D01*
X167515947Y-111636794D01*
X167500163Y-111645058D01*
X167420968Y-111596509D01*
X167320354Y-111423286D01*
X167238275Y-111230736D01*
X167154940Y-111008244D01*
X167094379Y-110827326D01*
X167068688Y-110724358D01*
X167068500Y-110720203D01*
X166788172Y-110720203D01*
X166808192Y-110823159D01*
X166814500Y-111018984D01*
X166819091Y-111230675D01*
X166840405Y-111346898D01*
X166889753Y-111399072D01*
X166957375Y-111415859D01*
X167069081Y-111467759D01*
X167100250Y-111531400D01*
X167070938Y-111586763D01*
X166967055Y-111616455D01*
X166764679Y-111626473D01*
X166720119Y-111626650D01*
X166500971Y-111620008D01*
X166379421Y-111594739D01*
X166326514Y-111542830D01*
X166318588Y-111515525D01*
X166002887Y-111515525D01*
X165991101Y-111578758D01*
X165942635Y-111635377D01*
X165909625Y-111646000D01*
X165854323Y-111643355D01*
X165820993Y-111592996D01*
X165804264Y-111471192D01*
X165798765Y-111254213D01*
X165798500Y-111155057D01*
X165665357Y-111155057D01*
X165620436Y-111360951D01*
X165517707Y-111536596D01*
X165368712Y-111642565D01*
X165276544Y-111658400D01*
X165126352Y-111604661D01*
X164979219Y-111472182D01*
X164874012Y-111304069D01*
X164846000Y-111180862D01*
X164696361Y-111180862D01*
X164745934Y-111340393D01*
X164790242Y-111517674D01*
X164800939Y-111614356D01*
X164797738Y-111621995D01*
X164696328Y-111660972D01*
X164600693Y-111581797D01*
X164520783Y-111393250D01*
X164515086Y-111372650D01*
X164462193Y-111204082D01*
X164414940Y-111101459D01*
X164398381Y-111086900D01*
X164357240Y-111141595D01*
X164301895Y-111278922D01*
X164280996Y-111344258D01*
X164200162Y-111529438D01*
X164101066Y-111640473D01*
X164005327Y-111656406D01*
X163978462Y-111637529D01*
X162373475Y-111637529D01*
X162354918Y-111649725D01*
X162181835Y-111650476D01*
X162024823Y-111559838D01*
X161909547Y-111393120D01*
X161861669Y-111165633D01*
X161861500Y-111150400D01*
X161734433Y-111150400D01*
X161734500Y-111155057D01*
X161731574Y-111409658D01*
X161719219Y-111561079D01*
X161692062Y-111633075D01*
X161644732Y-111649400D01*
X161623375Y-111646544D01*
X161559571Y-111609728D01*
X161520869Y-111511252D01*
X161498946Y-111323855D01*
X161493106Y-111219951D01*
X161486984Y-110938779D01*
X161350647Y-110938779D01*
X161353500Y-111150400D01*
X161349013Y-111411051D01*
X161332735Y-111567477D01*
X161300438Y-111642229D01*
X161258250Y-111658400D01*
X161182630Y-111601604D01*
X161163000Y-111467900D01*
X161147265Y-111332969D01*
X161073045Y-111283237D01*
X160972500Y-111277400D01*
X160837568Y-111293135D01*
X160787836Y-111367355D01*
X160782000Y-111467900D01*
X160753601Y-111619140D01*
X160686750Y-111658400D01*
X160637878Y-111634473D01*
X160608548Y-111547659D01*
X160594532Y-111375407D01*
X160591500Y-111150400D01*
X158623978Y-111150400D01*
X159032597Y-111722241D01*
X159262686Y-112048938D01*
X159460956Y-112339553D01*
X159617612Y-112578958D01*
X159722862Y-112752025D01*
X159766913Y-112843626D01*
X159765279Y-112854044D01*
X159675759Y-112855285D01*
X159498694Y-112838695D01*
X159271725Y-112807838D01*
X159262532Y-112806419D01*
X158994070Y-112764878D01*
X158807077Y-112744355D01*
X158700949Y-112756986D01*
X158675084Y-112814908D01*
X158728881Y-112930255D01*
X158861735Y-113115166D01*
X158915023Y-113182400D01*
X160528000Y-113182400D01*
X160528000Y-112420400D01*
X160915350Y-112420400D01*
X161140378Y-112426980D01*
X161188506Y-112437257D01*
X161798000Y-112437257D01*
X161853343Y-112425447D01*
X161986794Y-112420403D01*
X161990071Y-112420400D01*
X162147665Y-112450627D01*
X162235096Y-112560699D01*
X162242500Y-112579150D01*
X162299793Y-112680274D01*
X162397236Y-112726597D01*
X162577287Y-112737896D01*
X162583294Y-112737900D01*
X162762279Y-112728712D01*
X162854349Y-112688085D01*
X162899037Y-112596423D01*
X162903575Y-112579150D01*
X162963579Y-112461033D01*
X163089031Y-112421584D01*
X163132709Y-112420400D01*
X163266065Y-112427157D01*
X163321997Y-112443417D01*
X163322000Y-112443539D01*
X163300422Y-112514885D01*
X163242877Y-112676119D01*
X163160145Y-112899049D01*
X163063007Y-113155481D01*
X162962245Y-113417221D01*
X162868640Y-113656076D01*
X162792972Y-113843852D01*
X162746023Y-113952354D01*
X162742026Y-113960233D01*
X162628340Y-114053342D01*
X162540784Y-114059379D01*
X162475550Y-114031047D01*
X162408606Y-113953561D01*
X162330308Y-113809118D01*
X162231008Y-113579912D01*
X162101061Y-113248140D01*
X162100580Y-113246882D01*
X161989235Y-112953966D01*
X161896339Y-112707319D01*
X161830238Y-112529271D01*
X161799275Y-112442147D01*
X161798000Y-112437257D01*
X161188506Y-112437257D01*
X161288084Y-112458520D01*
X161407937Y-112532727D01*
X161518600Y-112636300D01*
X161651419Y-112786546D01*
X161715184Y-112926925D01*
X161733996Y-113118040D01*
X161734500Y-113179204D01*
X161693028Y-113532490D01*
X161567975Y-113791420D01*
X161383405Y-113945387D01*
X161250190Y-113989607D01*
X161062673Y-114021007D01*
X160859155Y-114037496D01*
X160677933Y-114036982D01*
X160557307Y-114017373D01*
X160529434Y-113992025D01*
X160528877Y-113913303D01*
X160528420Y-113734208D01*
X160528112Y-113481370D01*
X160528000Y-113182400D01*
X158915023Y-113182400D01*
X159073046Y-113381775D01*
X159224620Y-113570283D01*
X159446022Y-113849058D01*
X159618424Y-114071400D01*
X163449000Y-114071400D01*
X163449000Y-112420400D01*
X163824436Y-112420400D01*
X163843093Y-112879825D01*
X163861750Y-113339249D01*
X164138910Y-112879825D01*
X164281871Y-112651527D01*
X164386688Y-112513475D01*
X164475193Y-112443968D01*
X164569222Y-112421308D01*
X164601182Y-112420400D01*
X164786294Y-112420400D01*
X164768277Y-113241201D01*
X164970092Y-113241201D01*
X165009800Y-112937903D01*
X165139589Y-112688552D01*
X165348444Y-112511646D01*
X165625348Y-112425689D01*
X165721872Y-112420400D01*
X165944388Y-112441969D01*
X166126414Y-112497018D01*
X166165370Y-112519251D01*
X166250837Y-112602785D01*
X166293501Y-112724875D01*
X166306343Y-112926401D01*
X166306500Y-112963751D01*
X166306500Y-113309400D01*
X165989000Y-113309400D01*
X165800566Y-113304254D01*
X165706562Y-113277987D01*
X165674507Y-113214361D01*
X165671500Y-113150650D01*
X165701265Y-113026165D01*
X165798500Y-112991900D01*
X165897441Y-112946518D01*
X165925779Y-112846526D01*
X165878350Y-112746154D01*
X165825056Y-112712944D01*
X165682443Y-112678530D01*
X165569241Y-112722253D01*
X165481000Y-112801400D01*
X165389008Y-112969538D01*
X165353952Y-113198587D01*
X165377690Y-113435023D01*
X165452850Y-113612771D01*
X165589611Y-113724996D01*
X165749852Y-113747525D01*
X165887601Y-113678984D01*
X165925500Y-113626900D01*
X166019180Y-113536911D01*
X166145364Y-113499728D01*
X166256855Y-113518680D01*
X166306460Y-113597094D01*
X166306500Y-113600035D01*
X166264207Y-113704625D01*
X166158368Y-113845500D01*
X166112968Y-113893702D01*
X165974187Y-114015071D01*
X165846225Y-114062929D01*
X165666019Y-114058528D01*
X165634141Y-114055077D01*
X165352786Y-113983758D01*
X165159990Y-113833080D01*
X165033267Y-113585316D01*
X165031480Y-113579942D01*
X164970092Y-113241201D01*
X164768277Y-113241201D01*
X164750750Y-114039650D01*
X164592000Y-114039650D01*
X164510927Y-114032956D01*
X164462060Y-113995055D01*
X164435414Y-113899223D01*
X164421001Y-113718733D01*
X164414284Y-113563991D01*
X164395319Y-113088332D01*
X164081749Y-113579866D01*
X163920712Y-113822153D01*
X163801541Y-113971986D01*
X163705695Y-114048625D01*
X163614635Y-114071332D01*
X163608589Y-114071400D01*
X166560500Y-114071400D01*
X166560500Y-112420400D01*
X167100250Y-112420400D01*
X167830500Y-112420400D01*
X167989250Y-112420400D01*
X168087211Y-112432244D01*
X168133624Y-112490461D01*
X168147393Y-112629078D01*
X168148000Y-112706150D01*
X168156248Y-112884618D01*
X168190656Y-112969024D01*
X168265718Y-112991770D01*
X168275825Y-112991900D01*
X168389633Y-112939984D01*
X168506251Y-112776717D01*
X168542478Y-112706150D01*
X168636771Y-112532964D01*
X168723309Y-112448234D01*
X168839214Y-112421609D01*
X168891973Y-112420400D01*
X169102639Y-112420400D01*
X169012869Y-112597554D01*
X169236453Y-112597554D01*
X169253339Y-112508156D01*
X169334574Y-112432387D01*
X169452794Y-112436030D01*
X169557593Y-112506345D01*
X169597041Y-112595025D01*
X169588011Y-112702533D01*
X169495672Y-112736902D01*
X169457914Y-112737900D01*
X169296558Y-112700908D01*
X169236453Y-112597554D01*
X169012869Y-112597554D01*
X168940363Y-112740637D01*
X168778087Y-113060873D01*
X168907543Y-113225450D01*
X169020668Y-113446092D01*
X169007134Y-113662696D01*
X168962507Y-113735825D01*
X169245100Y-113735825D01*
X169258011Y-113498528D01*
X169263161Y-113435527D01*
X169287592Y-113183595D01*
X169313211Y-113032659D01*
X169349891Y-112957009D01*
X169407507Y-112930940D01*
X169457949Y-112928400D01*
X169529235Y-112933927D01*
X169573500Y-112966788D01*
X169597176Y-113051405D01*
X169606697Y-113212200D01*
X169608496Y-113473593D01*
X169608500Y-113499900D01*
X169607150Y-113770460D01*
X169598682Y-113938454D01*
X169576470Y-114028317D01*
X169533886Y-114064480D01*
X169464305Y-114071379D01*
X169453497Y-114071400D01*
X169318805Y-114047650D01*
X169258709Y-114007027D01*
X169245241Y-113917019D01*
X169245100Y-113735825D01*
X168962507Y-113735825D01*
X168890888Y-113853184D01*
X168795287Y-113945546D01*
X168680225Y-114002199D01*
X168508007Y-114035801D01*
X168287638Y-114055757D01*
X167830500Y-114088465D01*
X167830500Y-112420400D01*
X167100250Y-112420400D01*
X167361622Y-112421858D01*
X167521139Y-112431161D01*
X167603944Y-112455705D01*
X167635183Y-112502884D01*
X167640000Y-112579150D01*
X167630934Y-112670070D01*
X167583017Y-112717411D01*
X167465172Y-112735300D01*
X167290750Y-112737900D01*
X167091089Y-112741099D01*
X166987167Y-112762063D01*
X166947724Y-112817842D01*
X166941500Y-112925487D01*
X166941500Y-112928400D01*
X166948436Y-113041172D01*
X166991086Y-113097407D01*
X167102210Y-113116761D01*
X167259000Y-113118900D01*
X167449437Y-113125587D01*
X167544416Y-113153968D01*
X167575141Y-113216526D01*
X167576500Y-113245900D01*
X167559783Y-113322076D01*
X167488831Y-113360067D01*
X167332437Y-113372357D01*
X167259000Y-113372900D01*
X167071047Y-113377062D01*
X166977322Y-113402653D01*
X166945065Y-113469327D01*
X166941500Y-113563400D01*
X166947364Y-113672306D01*
X166985797Y-113728991D01*
X167088059Y-113750505D01*
X167285409Y-113753900D01*
X167290750Y-113753900D01*
X167490772Y-113758021D01*
X167594922Y-113779802D01*
X167634278Y-113833368D01*
X167640000Y-113912650D01*
X167635044Y-113989525D01*
X167603414Y-114036441D01*
X167519966Y-114060796D01*
X167359555Y-114069984D01*
X167100250Y-114071400D01*
X166560500Y-114071400D01*
X163608589Y-114071400D01*
X163449000Y-114071400D01*
X159618424Y-114071400D01*
X159636446Y-114094642D01*
X159782739Y-114289598D01*
X159871747Y-114416489D01*
X159893000Y-114456374D01*
X159846618Y-114518210D01*
X159730484Y-114625041D01*
X159579116Y-114749357D01*
X159427030Y-114863648D01*
X159308743Y-114940405D01*
X159264743Y-114957090D01*
X159219870Y-114905481D01*
X159117868Y-114763633D01*
X158969301Y-114547712D01*
X158784734Y-114273885D01*
X158574733Y-113958321D01*
X158349863Y-113617185D01*
X158120690Y-113266644D01*
X157897778Y-112922868D01*
X157691692Y-112602021D01*
X157512998Y-112320271D01*
X157372261Y-112093786D01*
X157280046Y-111938733D01*
X157246918Y-111871279D01*
X156654500Y-111871279D01*
X156654500Y-115912900D01*
X156781500Y-115912900D01*
X156783091Y-115892710D01*
X156792613Y-115874782D01*
X156817186Y-115858981D01*
X156863932Y-115845174D01*
X156939973Y-115833225D01*
X157052429Y-115823000D01*
X157208423Y-115814366D01*
X157415075Y-115807187D01*
X157679508Y-115801330D01*
X158008841Y-115796659D01*
X158410197Y-115793041D01*
X158890697Y-115790341D01*
X159457463Y-115788425D01*
X160117615Y-115787159D01*
X160878276Y-115786408D01*
X161746566Y-115786037D01*
X162729607Y-115785913D01*
X163512500Y-115785900D01*
X164582576Y-115785931D01*
X165532774Y-115786110D01*
X166370215Y-115786574D01*
X167102020Y-115787456D01*
X167735311Y-115788891D01*
X168277208Y-115791012D01*
X168734834Y-115793956D01*
X169115309Y-115797855D01*
X169425756Y-115802844D01*
X169673294Y-115809058D01*
X169865047Y-115816631D01*
X170008134Y-115825697D01*
X170109678Y-115836390D01*
X170176800Y-115848846D01*
X170216621Y-115863198D01*
X170236263Y-115879581D01*
X170242847Y-115898129D01*
X170243500Y-115912900D01*
X170241908Y-115933091D01*
X170232386Y-115951019D01*
X170207813Y-115966820D01*
X170161067Y-115980627D01*
X170085026Y-115992576D01*
X169972570Y-116002801D01*
X169816576Y-116011435D01*
X169609924Y-116018614D01*
X169345491Y-116024471D01*
X169016158Y-116029142D01*
X168614802Y-116032760D01*
X168134302Y-116035460D01*
X167567536Y-116037376D01*
X166907384Y-116038642D01*
X166146723Y-116039393D01*
X165278433Y-116039764D01*
X164295392Y-116039888D01*
X163512500Y-116039900D01*
X162442423Y-116039870D01*
X161492225Y-116039691D01*
X160654784Y-116039227D01*
X159922979Y-116038345D01*
X159289688Y-116036910D01*
X158747791Y-116034789D01*
X158290165Y-116031845D01*
X157909690Y-116027946D01*
X157599243Y-116022957D01*
X157351705Y-116016743D01*
X157159952Y-116009170D01*
X157016865Y-116000104D01*
X156915321Y-115989411D01*
X156848199Y-115976955D01*
X156808378Y-115962603D01*
X156788736Y-115946220D01*
X156782152Y-115927672D01*
X156781500Y-115912900D01*
X156654500Y-115912900D01*
X156654500Y-116166900D01*
X157786697Y-116166900D01*
X158066572Y-116166900D01*
X158927420Y-116166900D01*
X159191311Y-116166900D01*
X159329891Y-116175047D01*
X159418436Y-116204147D01*
X160083500Y-116204147D01*
X160139624Y-116180120D01*
X160278652Y-116167472D01*
X160319916Y-116166900D01*
X160368652Y-116171300D01*
X161226500Y-116171300D01*
X161282343Y-116146400D01*
X161419929Y-116137402D01*
X161452140Y-116138054D01*
X161568411Y-116155224D01*
X163449000Y-116155224D01*
X163505503Y-116147106D01*
X163648194Y-116150969D01*
X163651392Y-116151188D01*
X165735000Y-116151188D01*
X165791293Y-116140445D01*
X165932607Y-116142914D01*
X165999432Y-116147396D01*
X166127410Y-116166900D01*
X166858316Y-116166900D01*
X167104574Y-116166900D01*
X167997239Y-116166900D01*
X168258623Y-116166900D01*
X169086697Y-116166900D01*
X169360796Y-116166900D01*
X169547661Y-116182983D01*
X169695845Y-116248083D01*
X169860704Y-116387480D01*
X169875697Y-116402038D01*
X170034996Y-116583388D01*
X170106431Y-116743610D01*
X170116500Y-116846538D01*
X170093296Y-117002770D01*
X170032618Y-117055900D01*
X169954775Y-117012710D01*
X169813920Y-116896586D01*
X169633416Y-116727696D01*
X169517716Y-116611400D01*
X169086697Y-116166900D01*
X168258623Y-116166900D01*
X168396649Y-116175523D01*
X168511610Y-116214052D01*
X168634521Y-116301479D01*
X168796397Y-116456795D01*
X168889628Y-116553281D01*
X169061562Y-116737047D01*
X169196479Y-116888828D01*
X169272188Y-116983385D01*
X169280416Y-116997781D01*
X169238484Y-117034350D01*
X169107991Y-117054521D01*
X169055178Y-117055900D01*
X168951671Y-117052956D01*
X168864630Y-117034535D01*
X168775677Y-116986255D01*
X168666431Y-116893733D01*
X168518513Y-116742586D01*
X168313544Y-116518433D01*
X168182834Y-116373275D01*
X167997239Y-116166900D01*
X167104574Y-116166900D01*
X167236020Y-116177253D01*
X167353244Y-116220348D01*
X167485715Y-116314239D01*
X167662904Y-116476979D01*
X167749416Y-116561941D01*
X167927517Y-116743704D01*
X168064559Y-116893549D01*
X168139806Y-116988350D01*
X168148000Y-117006441D01*
X168091835Y-117038118D01*
X167952417Y-117055029D01*
X167907487Y-117055900D01*
X167758316Y-117041486D01*
X167630135Y-116983453D01*
X167484246Y-116859616D01*
X167381356Y-116754275D01*
X167211206Y-116571893D01*
X167060148Y-116405367D01*
X166977026Y-116309775D01*
X166858316Y-116166900D01*
X166127410Y-116166900D01*
X166143624Y-116169371D01*
X166266412Y-116223069D01*
X166399317Y-116329404D01*
X166573862Y-116509287D01*
X166618557Y-116558144D01*
X166784682Y-116744215D01*
X166914805Y-116896508D01*
X166987142Y-116989302D01*
X166994416Y-117001937D01*
X166952478Y-117035897D01*
X166821969Y-117054623D01*
X166769234Y-117055900D01*
X166644667Y-117047583D01*
X166538468Y-117010344D01*
X166423821Y-116925757D01*
X166273912Y-116775396D01*
X166128942Y-116615899D01*
X165957474Y-116421905D01*
X165823752Y-116265897D01*
X165746563Y-116170040D01*
X165735000Y-116151188D01*
X163651392Y-116151188D01*
X163728696Y-116156481D01*
X163804475Y-116166900D01*
X164564225Y-116166900D01*
X164858493Y-116166900D01*
X165007062Y-116172329D01*
X165119912Y-116201514D01*
X165228128Y-116273808D01*
X165362798Y-116408562D01*
X165507380Y-116570818D01*
X165668866Y-116759233D01*
X165791848Y-116911255D01*
X165856679Y-117002255D01*
X165862000Y-117015318D01*
X165807974Y-117044460D01*
X165680433Y-117054098D01*
X165531181Y-117045326D01*
X165412020Y-117019235D01*
X165385750Y-117005274D01*
X165314886Y-116939413D01*
X165181129Y-116806129D01*
X165009065Y-116630066D01*
X164943237Y-116561746D01*
X164564225Y-116166900D01*
X163804475Y-116166900D01*
X163875840Y-116176712D01*
X163995442Y-116224092D01*
X164118781Y-116319526D01*
X164277137Y-116483923D01*
X164363696Y-116580921D01*
X164525511Y-116768111D01*
X164648737Y-116918312D01*
X164713680Y-117007214D01*
X164719000Y-117019509D01*
X164662851Y-117042770D01*
X164523645Y-117054803D01*
X164480875Y-117055285D01*
X164358840Y-117045627D01*
X164251792Y-117005128D01*
X164133217Y-116915423D01*
X163976606Y-116758149D01*
X163845875Y-116615441D01*
X163673399Y-116422461D01*
X163538787Y-116267852D01*
X163460871Y-116173451D01*
X163449000Y-116155224D01*
X161568411Y-116155224D01*
X161579639Y-116156882D01*
X161600942Y-116166900D01*
X162277656Y-116166900D01*
X162572250Y-116166900D01*
X162722696Y-116172701D01*
X162837617Y-116202995D01*
X162949055Y-116277123D01*
X163089052Y-116414423D01*
X163221422Y-116558722D01*
X163384409Y-116744761D01*
X163507877Y-116896991D01*
X163571558Y-116990001D01*
X163576000Y-117003222D01*
X163520409Y-117038972D01*
X163384871Y-117055726D01*
X163367921Y-117055900D01*
X163253695Y-117041121D01*
X163136122Y-116985710D01*
X162990944Y-116873059D01*
X162793906Y-116686558D01*
X162718750Y-116611400D01*
X162277656Y-116166900D01*
X161600942Y-116166900D01*
X161705659Y-116216142D01*
X161857613Y-116333674D01*
X162062917Y-116527318D01*
X162087140Y-116551261D01*
X162267832Y-116735457D01*
X162407757Y-116887825D01*
X162486467Y-116985625D01*
X162496500Y-117006441D01*
X162440215Y-117037706D01*
X162299978Y-117054809D01*
X162248125Y-117055900D01*
X162120340Y-117047225D01*
X162011363Y-117008808D01*
X161893219Y-116922059D01*
X161737935Y-116768392D01*
X161613125Y-116633967D01*
X161442055Y-116443043D01*
X161309745Y-116287325D01*
X161235665Y-116190111D01*
X161226500Y-116171300D01*
X160368652Y-116171300D01*
X160448426Y-116178502D01*
X160566725Y-116225304D01*
X160703743Y-116325303D01*
X160888408Y-116496495D01*
X160954916Y-116561941D01*
X161133017Y-116743704D01*
X161270059Y-116893549D01*
X161345306Y-116988350D01*
X161353500Y-117006441D01*
X161297282Y-117037937D01*
X161157503Y-117054935D01*
X161109565Y-117055900D01*
X160981012Y-117046035D01*
X160867992Y-117004189D01*
X160741854Y-116911986D01*
X160573944Y-116751051D01*
X160474565Y-116648647D01*
X160300557Y-116463520D01*
X160166367Y-116313304D01*
X160092057Y-116220802D01*
X160083500Y-116204147D01*
X159418436Y-116204147D01*
X159443326Y-116212327D01*
X159562594Y-116298002D01*
X159718676Y-116451335D01*
X159816976Y-116555922D01*
X159985771Y-116741120D01*
X160118135Y-116893275D01*
X160192130Y-116986921D01*
X160199916Y-117000422D01*
X160157727Y-117034976D01*
X160026597Y-117054372D01*
X159968331Y-117055900D01*
X159842082Y-117048331D01*
X159736500Y-117013339D01*
X159624774Y-116932500D01*
X159480091Y-116787388D01*
X159321500Y-116611400D01*
X158927420Y-116166900D01*
X158066572Y-116166900D01*
X158208523Y-116173131D01*
X158319371Y-116204663D01*
X158429338Y-116280756D01*
X158568647Y-116420671D01*
X158706973Y-116575009D01*
X158870078Y-116763603D01*
X158994745Y-116915295D01*
X159061428Y-117005987D01*
X159067500Y-117019509D01*
X159011369Y-117042299D01*
X158872202Y-117053176D01*
X158829375Y-117053303D01*
X158707197Y-117042359D01*
X158599010Y-117000335D01*
X158478438Y-116908923D01*
X158319103Y-116749815D01*
X158188973Y-116608803D01*
X157786697Y-116166900D01*
X156654500Y-116166900D01*
X156654500Y-116311511D01*
X156861655Y-116311511D01*
X156866366Y-116212168D01*
X156964211Y-116169772D01*
X157019625Y-116166936D01*
X157133590Y-116191696D01*
X157264592Y-116277016D01*
X157434606Y-116439521D01*
X157559375Y-116575272D01*
X157724110Y-116763402D01*
X157850210Y-116914863D01*
X157918061Y-117005778D01*
X157924500Y-117019737D01*
X157868222Y-117042680D01*
X157728146Y-117055148D01*
X157678213Y-117055900D01*
X157537723Y-117045219D01*
X157423506Y-116998585D01*
X157301179Y-116894117D01*
X157138463Y-116712398D01*
X156951784Y-116475642D01*
X156861655Y-116311511D01*
X156654500Y-116311511D01*
X156654500Y-116906763D01*
X156801467Y-117044832D01*
X156948435Y-117182900D01*
X170157862Y-117182900D01*
X170295931Y-117035933D01*
G36*
X165382859Y-111367046D02*
G01*
X165438204Y-111238495D01*
X165439886Y-111072847D01*
X165417290Y-110991099D01*
X165327819Y-110863637D01*
X165213344Y-110834580D01*
X165142333Y-110875234D01*
X165104720Y-110982229D01*
X165103353Y-111146900D01*
X165133503Y-111306716D01*
X165181504Y-111392993D01*
X165291432Y-111428534D01*
X165382859Y-111367046D01*
G37*
X165382859Y-111367046D02*
X165438204Y-111238495D01*
X165439886Y-111072847D01*
X165417290Y-110991099D01*
X165327819Y-110863637D01*
X165213344Y-110834580D01*
X165142333Y-110875234D01*
X165104720Y-110982229D01*
X165103353Y-111146900D01*
X165133503Y-111306716D01*
X165181504Y-111392993D01*
X165291432Y-111428534D01*
X165382859Y-111367046D01*
G36*
X167517610Y-111208387D02*
G01*
X167520837Y-111203393D01*
X167572353Y-111079151D01*
X167521430Y-111026165D01*
X167487194Y-111023400D01*
X167425026Y-111069941D01*
X167432504Y-111155768D01*
X167470133Y-111240847D01*
X167517610Y-111208387D01*
G37*
X167517610Y-111208387D02*
X167520837Y-111203393D01*
X167572353Y-111079151D01*
X167521430Y-111026165D01*
X167487194Y-111023400D01*
X167425026Y-111069941D01*
X167432504Y-111155768D01*
X167470133Y-111240847D01*
X167517610Y-111208387D01*
G36*
X161164608Y-113697533D02*
G01*
X161304810Y-113541116D01*
X161371280Y-113303681D01*
X161374666Y-113227429D01*
X161345989Y-112965908D01*
X161254624Y-112807703D01*
X161092568Y-112741508D01*
X161028224Y-112737900D01*
X160845500Y-112737900D01*
X160845500Y-113245900D01*
X160848437Y-113499725D01*
X160861233Y-113651912D01*
X160889862Y-113727764D01*
X160940301Y-113752585D01*
X160965465Y-113753900D01*
X161164608Y-113697533D01*
G37*
X161164608Y-113697533D02*
X161304810Y-113541116D01*
X161371280Y-113303681D01*
X161374666Y-113227429D01*
X161345989Y-112965908D01*
X161254624Y-112807703D01*
X161092568Y-112741508D01*
X161028224Y-112737900D01*
X160845500Y-112737900D01*
X160845500Y-113245900D01*
X160848437Y-113499725D01*
X160861233Y-113651912D01*
X160889862Y-113727764D01*
X160940301Y-113752585D01*
X160965465Y-113753900D01*
X161164608Y-113697533D01*
G36*
X162638309Y-113367846D02*
G01*
X162669921Y-113279216D01*
X162708917Y-113132232D01*
X162692690Y-113069655D01*
X162606634Y-113055562D01*
X162578922Y-113055400D01*
X162468377Y-113070165D01*
X162444652Y-113140468D01*
X162462359Y-113230025D01*
X162520193Y-113402439D01*
X162578295Y-113448250D01*
X162638309Y-113367846D01*
G37*
X162638309Y-113367846D02*
X162669921Y-113279216D01*
X162708917Y-113132232D01*
X162692690Y-113069655D01*
X162606634Y-113055562D01*
X162578922Y-113055400D01*
X162468377Y-113070165D01*
X162444652Y-113140468D01*
X162462359Y-113230025D01*
X162520193Y-113402439D01*
X162578295Y-113448250D01*
X162638309Y-113367846D01*
G36*
X168347971Y-113742049D02*
G01*
X168535486Y-113685395D01*
X168637965Y-113582251D01*
X168653626Y-113464349D01*
X168580689Y-113363423D01*
X168417375Y-113311208D01*
X168372242Y-113309400D01*
X168222872Y-113318793D01*
X168160916Y-113372743D01*
X168148062Y-113509911D01*
X168148000Y-113535674D01*
X168156535Y-113685363D01*
X168204750Y-113743180D01*
X168326553Y-113744120D01*
X168347971Y-113742049D01*
G37*
X168347971Y-113742049D02*
X168535486Y-113685395D01*
X168637965Y-113582251D01*
X168653626Y-113464349D01*
X168580689Y-113363423D01*
X168417375Y-113311208D01*
X168372242Y-113309400D01*
X168222872Y-113318793D01*
X168160916Y-113372743D01*
X168148062Y-113509911D01*
X168148000Y-113535674D01*
X168156535Y-113685363D01*
X168204750Y-113743180D01*
X168326553Y-113744120D01*
X168347971Y-113742049D01*
D12*
X176466404Y-88251880D02*
X176466404Y-87251880D01*
X176466404Y-87728071D02*
X175894976Y-87728071D01*
X175894976Y-88251880D02*
X175894976Y-87251880D01*
X175514023Y-87251880D02*
X174894976Y-87251880D01*
X175228309Y-87632833D01*
X175085452Y-87632833D01*
X174990214Y-87680452D01*
X174942595Y-87728071D01*
X174894976Y-87823309D01*
X174894976Y-88061404D01*
X174942595Y-88156642D01*
X174990214Y-88204261D01*
X175085452Y-88251880D01*
X175371166Y-88251880D01*
X175466404Y-88204261D01*
X175514023Y-88156642D01*
X199936004Y-106641480D02*
X199936004Y-105641480D01*
X199936004Y-106117671D02*
X199364576Y-106117671D01*
X199364576Y-106641480D02*
X199364576Y-105641480D01*
X198936004Y-105736719D02*
X198888385Y-105689100D01*
X198793147Y-105641480D01*
X198555052Y-105641480D01*
X198459814Y-105689100D01*
X198412195Y-105736719D01*
X198364576Y-105831957D01*
X198364576Y-105927195D01*
X198412195Y-106070052D01*
X198983623Y-106641480D01*
X198364576Y-106641480D01*
M02*
