G04 #@! TF.GenerationSoftware,KiCad,Pcbnew,(5.1.12)-1*
G04 #@! TF.CreationDate,2022-01-16T14:13:14-03:00*
G04 #@! TF.ProjectId,hamodule,68616d6f-6475-46c6-952e-6b696361645f,rev?*
G04 #@! TF.SameCoordinates,Original*
G04 #@! TF.FileFunction,Soldermask,Top*
G04 #@! TF.FilePolarity,Negative*
%FSLAX46Y46*%
G04 Gerber Fmt 4.6, Leading zero omitted, Abs format (unit mm)*
G04 Created by KiCad (PCBNEW (5.1.12)-1) date 2022-01-16 14:13:14*
%MOMM*%
%LPD*%
G01*
G04 APERTURE LIST*
%ADD10C,2.700000*%
%ADD11O,1.450000X1.450000*%
%ADD12C,1.550000*%
%ADD13O,1.300000X2.000000*%
%ADD14O,1.800000X2.050000*%
%ADD15O,1.700000X2.500000*%
%ADD16C,5.600000*%
%ADD17O,2.050000X1.800000*%
%ADD18C,2.100000*%
%ADD19C,1.800000*%
%ADD20C,1.700000*%
%ADD21O,2.100000X2.005000*%
%ADD22C,1.750000*%
%ADD23O,1.800000X1.800000*%
%ADD24O,1.800000X2.100000*%
%ADD25C,1.900000*%
G04 APERTURE END LIST*
G36*
G01*
X142185000Y-139107500D02*
X141660000Y-139107500D01*
G75*
G02*
X141397500Y-138845000I0J262500D01*
G01*
X141397500Y-138195000D01*
G75*
G02*
X141660000Y-137932500I262500J0D01*
G01*
X142185000Y-137932500D01*
G75*
G02*
X142447500Y-138195000I0J-262500D01*
G01*
X142447500Y-138845000D01*
G75*
G02*
X142185000Y-139107500I-262500J0D01*
G01*
G37*
G36*
G01*
X142185000Y-140832500D02*
X141660000Y-140832500D01*
G75*
G02*
X141397500Y-140570000I0J262500D01*
G01*
X141397500Y-139920000D01*
G75*
G02*
X141660000Y-139657500I262500J0D01*
G01*
X142185000Y-139657500D01*
G75*
G02*
X142447500Y-139920000I0J-262500D01*
G01*
X142447500Y-140570000D01*
G75*
G02*
X142185000Y-140832500I-262500J0D01*
G01*
G37*
G36*
G01*
X197104500Y-122640957D02*
X197104500Y-121326043D01*
G75*
G02*
X197372043Y-121058500I267543J0D01*
G01*
X198361957Y-121058500D01*
G75*
G02*
X198629500Y-121326043I0J-267543D01*
G01*
X198629500Y-122640957D01*
G75*
G02*
X198361957Y-122908500I-267543J0D01*
G01*
X197372043Y-122908500D01*
G75*
G02*
X197104500Y-122640957I0J267543D01*
G01*
G37*
G36*
G01*
X194129500Y-122640957D02*
X194129500Y-121326043D01*
G75*
G02*
X194397043Y-121058500I267543J0D01*
G01*
X195386957Y-121058500D01*
G75*
G02*
X195654500Y-121326043I0J-267543D01*
G01*
X195654500Y-122640957D01*
G75*
G02*
X195386957Y-122908500I-267543J0D01*
G01*
X194397043Y-122908500D01*
G75*
G02*
X194129500Y-122640957I0J267543D01*
G01*
G37*
G36*
G01*
X190066500Y-121326043D02*
X190066500Y-122640957D01*
G75*
G02*
X189798957Y-122908500I-267543J0D01*
G01*
X188809043Y-122908500D01*
G75*
G02*
X188541500Y-122640957I0J267543D01*
G01*
X188541500Y-121326043D01*
G75*
G02*
X188809043Y-121058500I267543J0D01*
G01*
X189798957Y-121058500D01*
G75*
G02*
X190066500Y-121326043I0J-267543D01*
G01*
G37*
G36*
G01*
X193041500Y-121326043D02*
X193041500Y-122640957D01*
G75*
G02*
X192773957Y-122908500I-267543J0D01*
G01*
X191784043Y-122908500D01*
G75*
G02*
X191516500Y-122640957I0J267543D01*
G01*
X191516500Y-121326043D01*
G75*
G02*
X191784043Y-121058500I267543J0D01*
G01*
X192773957Y-121058500D01*
G75*
G02*
X193041500Y-121326043I0J-267543D01*
G01*
G37*
G36*
G01*
X178942500Y-121326043D02*
X178942500Y-122640957D01*
G75*
G02*
X178674957Y-122908500I-267543J0D01*
G01*
X177685043Y-122908500D01*
G75*
G02*
X177417500Y-122640957I0J267543D01*
G01*
X177417500Y-121326043D01*
G75*
G02*
X177685043Y-121058500I267543J0D01*
G01*
X178674957Y-121058500D01*
G75*
G02*
X178942500Y-121326043I0J-267543D01*
G01*
G37*
G36*
G01*
X181917500Y-121326043D02*
X181917500Y-122640957D01*
G75*
G02*
X181649957Y-122908500I-267543J0D01*
G01*
X180660043Y-122908500D01*
G75*
G02*
X180392500Y-122640957I0J267543D01*
G01*
X180392500Y-121326043D01*
G75*
G02*
X180660043Y-121058500I267543J0D01*
G01*
X181649957Y-121058500D01*
G75*
G02*
X181917500Y-121326043I0J-267543D01*
G01*
G37*
G36*
G01*
X185928500Y-122640957D02*
X185928500Y-121326043D01*
G75*
G02*
X186196043Y-121058500I267543J0D01*
G01*
X187185957Y-121058500D01*
G75*
G02*
X187453500Y-121326043I0J-267543D01*
G01*
X187453500Y-122640957D01*
G75*
G02*
X187185957Y-122908500I-267543J0D01*
G01*
X186196043Y-122908500D01*
G75*
G02*
X185928500Y-122640957I0J267543D01*
G01*
G37*
G36*
G01*
X182953500Y-122640957D02*
X182953500Y-121326043D01*
G75*
G02*
X183221043Y-121058500I267543J0D01*
G01*
X184210957Y-121058500D01*
G75*
G02*
X184478500Y-121326043I0J-267543D01*
G01*
X184478500Y-122640957D01*
G75*
G02*
X184210957Y-122908500I-267543J0D01*
G01*
X183221043Y-122908500D01*
G75*
G02*
X182953500Y-122640957I0J267543D01*
G01*
G37*
G36*
G01*
X167376243Y-141795000D02*
X168691157Y-141795000D01*
G75*
G02*
X168958700Y-142062543I0J-267543D01*
G01*
X168958700Y-143052457D01*
G75*
G02*
X168691157Y-143320000I-267543J0D01*
G01*
X167376243Y-143320000D01*
G75*
G02*
X167108700Y-143052457I0J267543D01*
G01*
X167108700Y-142062543D01*
G75*
G02*
X167376243Y-141795000I267543J0D01*
G01*
G37*
G36*
G01*
X167376243Y-138820000D02*
X168691157Y-138820000D01*
G75*
G02*
X168958700Y-139087543I0J-267543D01*
G01*
X168958700Y-140077457D01*
G75*
G02*
X168691157Y-140345000I-267543J0D01*
G01*
X167376243Y-140345000D01*
G75*
G02*
X167108700Y-140077457I0J267543D01*
G01*
X167108700Y-139087543D01*
G75*
G02*
X167376243Y-138820000I267543J0D01*
G01*
G37*
D10*
X175704500Y-84899500D03*
X199174100Y-103289100D03*
G36*
G01*
X164204900Y-127351400D02*
X164204900Y-126826400D01*
G75*
G02*
X164467400Y-126563900I262500J0D01*
G01*
X165092400Y-126563900D01*
G75*
G02*
X165354900Y-126826400I0J-262500D01*
G01*
X165354900Y-127351400D01*
G75*
G02*
X165092400Y-127613900I-262500J0D01*
G01*
X164467400Y-127613900D01*
G75*
G02*
X164204900Y-127351400I0J262500D01*
G01*
G37*
G36*
G01*
X162454900Y-127351400D02*
X162454900Y-126826400D01*
G75*
G02*
X162717400Y-126563900I262500J0D01*
G01*
X163342400Y-126563900D01*
G75*
G02*
X163604900Y-126826400I0J-262500D01*
G01*
X163604900Y-127351400D01*
G75*
G02*
X163342400Y-127613900I-262500J0D01*
G01*
X162717400Y-127613900D01*
G75*
G02*
X162454900Y-127351400I0J262500D01*
G01*
G37*
G36*
G01*
X163582100Y-128438000D02*
X163582100Y-128963000D01*
G75*
G02*
X163319600Y-129225500I-262500J0D01*
G01*
X162694600Y-129225500D01*
G75*
G02*
X162432100Y-128963000I0J262500D01*
G01*
X162432100Y-128438000D01*
G75*
G02*
X162694600Y-128175500I262500J0D01*
G01*
X163319600Y-128175500D01*
G75*
G02*
X163582100Y-128438000I0J-262500D01*
G01*
G37*
G36*
G01*
X165332100Y-128438000D02*
X165332100Y-128963000D01*
G75*
G02*
X165069600Y-129225500I-262500J0D01*
G01*
X164444600Y-129225500D01*
G75*
G02*
X164182100Y-128963000I0J262500D01*
G01*
X164182100Y-128438000D01*
G75*
G02*
X164444600Y-128175500I262500J0D01*
G01*
X165069600Y-128175500D01*
G75*
G02*
X165332100Y-128438000I0J-262500D01*
G01*
G37*
G36*
G01*
X196308500Y-116150000D02*
X196308500Y-115625000D01*
G75*
G02*
X196571000Y-115362500I262500J0D01*
G01*
X197221000Y-115362500D01*
G75*
G02*
X197483500Y-115625000I0J-262500D01*
G01*
X197483500Y-116150000D01*
G75*
G02*
X197221000Y-116412500I-262500J0D01*
G01*
X196571000Y-116412500D01*
G75*
G02*
X196308500Y-116150000I0J262500D01*
G01*
G37*
G36*
G01*
X194583500Y-116150000D02*
X194583500Y-115625000D01*
G75*
G02*
X194846000Y-115362500I262500J0D01*
G01*
X195496000Y-115362500D01*
G75*
G02*
X195758500Y-115625000I0J-262500D01*
G01*
X195758500Y-116150000D01*
G75*
G02*
X195496000Y-116412500I-262500J0D01*
G01*
X194846000Y-116412500D01*
G75*
G02*
X194583500Y-116150000I0J262500D01*
G01*
G37*
G36*
G01*
X190678500Y-115625000D02*
X190678500Y-116150000D01*
G75*
G02*
X190416000Y-116412500I-262500J0D01*
G01*
X189766000Y-116412500D01*
G75*
G02*
X189503500Y-116150000I0J262500D01*
G01*
X189503500Y-115625000D01*
G75*
G02*
X189766000Y-115362500I262500J0D01*
G01*
X190416000Y-115362500D01*
G75*
G02*
X190678500Y-115625000I0J-262500D01*
G01*
G37*
G36*
G01*
X192403500Y-115625000D02*
X192403500Y-116150000D01*
G75*
G02*
X192141000Y-116412500I-262500J0D01*
G01*
X191491000Y-116412500D01*
G75*
G02*
X191228500Y-116150000I0J262500D01*
G01*
X191228500Y-115625000D01*
G75*
G02*
X191491000Y-115362500I262500J0D01*
G01*
X192141000Y-115362500D01*
G75*
G02*
X192403500Y-115625000I0J-262500D01*
G01*
G37*
G36*
G01*
X185132500Y-116150000D02*
X185132500Y-115625000D01*
G75*
G02*
X185395000Y-115362500I262500J0D01*
G01*
X186045000Y-115362500D01*
G75*
G02*
X186307500Y-115625000I0J-262500D01*
G01*
X186307500Y-116150000D01*
G75*
G02*
X186045000Y-116412500I-262500J0D01*
G01*
X185395000Y-116412500D01*
G75*
G02*
X185132500Y-116150000I0J262500D01*
G01*
G37*
G36*
G01*
X183407500Y-116150000D02*
X183407500Y-115625000D01*
G75*
G02*
X183670000Y-115362500I262500J0D01*
G01*
X184320000Y-115362500D01*
G75*
G02*
X184582500Y-115625000I0J-262500D01*
G01*
X184582500Y-116150000D01*
G75*
G02*
X184320000Y-116412500I-262500J0D01*
G01*
X183670000Y-116412500D01*
G75*
G02*
X183407500Y-116150000I0J262500D01*
G01*
G37*
G36*
G01*
X179484500Y-115625000D02*
X179484500Y-116150000D01*
G75*
G02*
X179222000Y-116412500I-262500J0D01*
G01*
X178572000Y-116412500D01*
G75*
G02*
X178309500Y-116150000I0J262500D01*
G01*
X178309500Y-115625000D01*
G75*
G02*
X178572000Y-115362500I262500J0D01*
G01*
X179222000Y-115362500D01*
G75*
G02*
X179484500Y-115625000I0J-262500D01*
G01*
G37*
G36*
G01*
X181209500Y-115625000D02*
X181209500Y-116150000D01*
G75*
G02*
X180947000Y-116412500I-262500J0D01*
G01*
X180297000Y-116412500D01*
G75*
G02*
X180034500Y-116150000I0J262500D01*
G01*
X180034500Y-115625000D01*
G75*
G02*
X180297000Y-115362500I262500J0D01*
G01*
X180947000Y-115362500D01*
G75*
G02*
X181209500Y-115625000I0J-262500D01*
G01*
G37*
G36*
G01*
X131500000Y-145889500D02*
X132025000Y-145889500D01*
G75*
G02*
X132287500Y-146152000I0J-262500D01*
G01*
X132287500Y-146802000D01*
G75*
G02*
X132025000Y-147064500I-262500J0D01*
G01*
X131500000Y-147064500D01*
G75*
G02*
X131237500Y-146802000I0J262500D01*
G01*
X131237500Y-146152000D01*
G75*
G02*
X131500000Y-145889500I262500J0D01*
G01*
G37*
G36*
G01*
X131500000Y-144164500D02*
X132025000Y-144164500D01*
G75*
G02*
X132287500Y-144427000I0J-262500D01*
G01*
X132287500Y-145077000D01*
G75*
G02*
X132025000Y-145339500I-262500J0D01*
G01*
X131500000Y-145339500D01*
G75*
G02*
X131237500Y-145077000I0J262500D01*
G01*
X131237500Y-144427000D01*
G75*
G02*
X131500000Y-144164500I262500J0D01*
G01*
G37*
G36*
G01*
X132025000Y-139243500D02*
X131500000Y-139243500D01*
G75*
G02*
X131237500Y-138981000I0J262500D01*
G01*
X131237500Y-138331000D01*
G75*
G02*
X131500000Y-138068500I262500J0D01*
G01*
X132025000Y-138068500D01*
G75*
G02*
X132287500Y-138331000I0J-262500D01*
G01*
X132287500Y-138981000D01*
G75*
G02*
X132025000Y-139243500I-262500J0D01*
G01*
G37*
G36*
G01*
X132025000Y-140968500D02*
X131500000Y-140968500D01*
G75*
G02*
X131237500Y-140706000I0J262500D01*
G01*
X131237500Y-140056000D01*
G75*
G02*
X131500000Y-139793500I262500J0D01*
G01*
X132025000Y-139793500D01*
G75*
G02*
X132287500Y-140056000I0J-262500D01*
G01*
X132287500Y-140706000D01*
G75*
G02*
X132025000Y-140968500I-262500J0D01*
G01*
G37*
G36*
G01*
X169854000Y-114139500D02*
X170379000Y-114139500D01*
G75*
G02*
X170641500Y-114402000I0J-262500D01*
G01*
X170641500Y-115052000D01*
G75*
G02*
X170379000Y-115314500I-262500J0D01*
G01*
X169854000Y-115314500D01*
G75*
G02*
X169591500Y-115052000I0J262500D01*
G01*
X169591500Y-114402000D01*
G75*
G02*
X169854000Y-114139500I262500J0D01*
G01*
G37*
G36*
G01*
X169854000Y-112414500D02*
X170379000Y-112414500D01*
G75*
G02*
X170641500Y-112677000I0J-262500D01*
G01*
X170641500Y-113327000D01*
G75*
G02*
X170379000Y-113589500I-262500J0D01*
G01*
X169854000Y-113589500D01*
G75*
G02*
X169591500Y-113327000I0J262500D01*
G01*
X169591500Y-112677000D01*
G75*
G02*
X169854000Y-112414500I262500J0D01*
G01*
G37*
G36*
G01*
X189881000Y-126674000D02*
X189881000Y-127199000D01*
G75*
G02*
X189618500Y-127461500I-262500J0D01*
G01*
X188968500Y-127461500D01*
G75*
G02*
X188706000Y-127199000I0J262500D01*
G01*
X188706000Y-126674000D01*
G75*
G02*
X188968500Y-126411500I262500J0D01*
G01*
X189618500Y-126411500D01*
G75*
G02*
X189881000Y-126674000I0J-262500D01*
G01*
G37*
G36*
G01*
X191606000Y-126674000D02*
X191606000Y-127199000D01*
G75*
G02*
X191343500Y-127461500I-262500J0D01*
G01*
X190693500Y-127461500D01*
G75*
G02*
X190431000Y-127199000I0J262500D01*
G01*
X190431000Y-126674000D01*
G75*
G02*
X190693500Y-126411500I262500J0D01*
G01*
X191343500Y-126411500D01*
G75*
G02*
X191606000Y-126674000I0J-262500D01*
G01*
G37*
G36*
G01*
X193786000Y-127199000D02*
X193786000Y-126674000D01*
G75*
G02*
X194048500Y-126411500I262500J0D01*
G01*
X194698500Y-126411500D01*
G75*
G02*
X194961000Y-126674000I0J-262500D01*
G01*
X194961000Y-127199000D01*
G75*
G02*
X194698500Y-127461500I-262500J0D01*
G01*
X194048500Y-127461500D01*
G75*
G02*
X193786000Y-127199000I0J262500D01*
G01*
G37*
G36*
G01*
X192061000Y-127199000D02*
X192061000Y-126674000D01*
G75*
G02*
X192323500Y-126411500I262500J0D01*
G01*
X192973500Y-126411500D01*
G75*
G02*
X193236000Y-126674000I0J-262500D01*
G01*
X193236000Y-127199000D01*
G75*
G02*
X192973500Y-127461500I-262500J0D01*
G01*
X192323500Y-127461500D01*
G75*
G02*
X192061000Y-127199000I0J262500D01*
G01*
G37*
G36*
G01*
X158314000Y-137698900D02*
X157789000Y-137698900D01*
G75*
G02*
X157526500Y-137436400I0J262500D01*
G01*
X157526500Y-136786400D01*
G75*
G02*
X157789000Y-136523900I262500J0D01*
G01*
X158314000Y-136523900D01*
G75*
G02*
X158576500Y-136786400I0J-262500D01*
G01*
X158576500Y-137436400D01*
G75*
G02*
X158314000Y-137698900I-262500J0D01*
G01*
G37*
G36*
G01*
X158314000Y-139423900D02*
X157789000Y-139423900D01*
G75*
G02*
X157526500Y-139161400I0J262500D01*
G01*
X157526500Y-138511400D01*
G75*
G02*
X157789000Y-138248900I262500J0D01*
G01*
X158314000Y-138248900D01*
G75*
G02*
X158576500Y-138511400I0J-262500D01*
G01*
X158576500Y-139161400D01*
G75*
G02*
X158314000Y-139423900I-262500J0D01*
G01*
G37*
G36*
G01*
X161901000Y-139689500D02*
X165251000Y-139689500D01*
G75*
G02*
X165301000Y-139739500I0J-50000D01*
G01*
X165301000Y-143089500D01*
G75*
G02*
X165251000Y-143139500I-50000J0D01*
G01*
X161901000Y-143139500D01*
G75*
G02*
X161851000Y-143089500I0J50000D01*
G01*
X161851000Y-139739500D01*
G75*
G02*
X161901000Y-139689500I50000J0D01*
G01*
G37*
G36*
G01*
X165663500Y-139739500D02*
X166388500Y-139739500D01*
G75*
G02*
X166476000Y-139827000I0J-87500D01*
G01*
X166476000Y-140002000D01*
G75*
G02*
X166388500Y-140089500I-87500J0D01*
G01*
X165663500Y-140089500D01*
G75*
G02*
X165576000Y-140002000I0J87500D01*
G01*
X165576000Y-139827000D01*
G75*
G02*
X165663500Y-139739500I87500J0D01*
G01*
G37*
G36*
G01*
X165663500Y-140239500D02*
X166388500Y-140239500D01*
G75*
G02*
X166476000Y-140327000I0J-87500D01*
G01*
X166476000Y-140502000D01*
G75*
G02*
X166388500Y-140589500I-87500J0D01*
G01*
X165663500Y-140589500D01*
G75*
G02*
X165576000Y-140502000I0J87500D01*
G01*
X165576000Y-140327000D01*
G75*
G02*
X165663500Y-140239500I87500J0D01*
G01*
G37*
G36*
G01*
X165663500Y-140739500D02*
X166388500Y-140739500D01*
G75*
G02*
X166476000Y-140827000I0J-87500D01*
G01*
X166476000Y-141002000D01*
G75*
G02*
X166388500Y-141089500I-87500J0D01*
G01*
X165663500Y-141089500D01*
G75*
G02*
X165576000Y-141002000I0J87500D01*
G01*
X165576000Y-140827000D01*
G75*
G02*
X165663500Y-140739500I87500J0D01*
G01*
G37*
G36*
G01*
X165663500Y-141239500D02*
X166388500Y-141239500D01*
G75*
G02*
X166476000Y-141327000I0J-87500D01*
G01*
X166476000Y-141502000D01*
G75*
G02*
X166388500Y-141589500I-87500J0D01*
G01*
X165663500Y-141589500D01*
G75*
G02*
X165576000Y-141502000I0J87500D01*
G01*
X165576000Y-141327000D01*
G75*
G02*
X165663500Y-141239500I87500J0D01*
G01*
G37*
G36*
G01*
X165663500Y-141739500D02*
X166388500Y-141739500D01*
G75*
G02*
X166476000Y-141827000I0J-87500D01*
G01*
X166476000Y-142002000D01*
G75*
G02*
X166388500Y-142089500I-87500J0D01*
G01*
X165663500Y-142089500D01*
G75*
G02*
X165576000Y-142002000I0J87500D01*
G01*
X165576000Y-141827000D01*
G75*
G02*
X165663500Y-141739500I87500J0D01*
G01*
G37*
G36*
G01*
X165663500Y-142239500D02*
X166388500Y-142239500D01*
G75*
G02*
X166476000Y-142327000I0J-87500D01*
G01*
X166476000Y-142502000D01*
G75*
G02*
X166388500Y-142589500I-87500J0D01*
G01*
X165663500Y-142589500D01*
G75*
G02*
X165576000Y-142502000I0J87500D01*
G01*
X165576000Y-142327000D01*
G75*
G02*
X165663500Y-142239500I87500J0D01*
G01*
G37*
G36*
G01*
X165663500Y-142739500D02*
X166388500Y-142739500D01*
G75*
G02*
X166476000Y-142827000I0J-87500D01*
G01*
X166476000Y-143002000D01*
G75*
G02*
X166388500Y-143089500I-87500J0D01*
G01*
X165663500Y-143089500D01*
G75*
G02*
X165576000Y-143002000I0J87500D01*
G01*
X165576000Y-142827000D01*
G75*
G02*
X165663500Y-142739500I87500J0D01*
G01*
G37*
G36*
G01*
X164988500Y-143414500D02*
X165163500Y-143414500D01*
G75*
G02*
X165251000Y-143502000I0J-87500D01*
G01*
X165251000Y-144227000D01*
G75*
G02*
X165163500Y-144314500I-87500J0D01*
G01*
X164988500Y-144314500D01*
G75*
G02*
X164901000Y-144227000I0J87500D01*
G01*
X164901000Y-143502000D01*
G75*
G02*
X164988500Y-143414500I87500J0D01*
G01*
G37*
G36*
G01*
X164488500Y-143414500D02*
X164663500Y-143414500D01*
G75*
G02*
X164751000Y-143502000I0J-87500D01*
G01*
X164751000Y-144227000D01*
G75*
G02*
X164663500Y-144314500I-87500J0D01*
G01*
X164488500Y-144314500D01*
G75*
G02*
X164401000Y-144227000I0J87500D01*
G01*
X164401000Y-143502000D01*
G75*
G02*
X164488500Y-143414500I87500J0D01*
G01*
G37*
G36*
G01*
X163988500Y-143414500D02*
X164163500Y-143414500D01*
G75*
G02*
X164251000Y-143502000I0J-87500D01*
G01*
X164251000Y-144227000D01*
G75*
G02*
X164163500Y-144314500I-87500J0D01*
G01*
X163988500Y-144314500D01*
G75*
G02*
X163901000Y-144227000I0J87500D01*
G01*
X163901000Y-143502000D01*
G75*
G02*
X163988500Y-143414500I87500J0D01*
G01*
G37*
G36*
G01*
X163488500Y-143414500D02*
X163663500Y-143414500D01*
G75*
G02*
X163751000Y-143502000I0J-87500D01*
G01*
X163751000Y-144227000D01*
G75*
G02*
X163663500Y-144314500I-87500J0D01*
G01*
X163488500Y-144314500D01*
G75*
G02*
X163401000Y-144227000I0J87500D01*
G01*
X163401000Y-143502000D01*
G75*
G02*
X163488500Y-143414500I87500J0D01*
G01*
G37*
G36*
G01*
X162988500Y-143414500D02*
X163163500Y-143414500D01*
G75*
G02*
X163251000Y-143502000I0J-87500D01*
G01*
X163251000Y-144227000D01*
G75*
G02*
X163163500Y-144314500I-87500J0D01*
G01*
X162988500Y-144314500D01*
G75*
G02*
X162901000Y-144227000I0J87500D01*
G01*
X162901000Y-143502000D01*
G75*
G02*
X162988500Y-143414500I87500J0D01*
G01*
G37*
G36*
G01*
X162488500Y-143414500D02*
X162663500Y-143414500D01*
G75*
G02*
X162751000Y-143502000I0J-87500D01*
G01*
X162751000Y-144227000D01*
G75*
G02*
X162663500Y-144314500I-87500J0D01*
G01*
X162488500Y-144314500D01*
G75*
G02*
X162401000Y-144227000I0J87500D01*
G01*
X162401000Y-143502000D01*
G75*
G02*
X162488500Y-143414500I87500J0D01*
G01*
G37*
G36*
G01*
X161988500Y-143414500D02*
X162163500Y-143414500D01*
G75*
G02*
X162251000Y-143502000I0J-87500D01*
G01*
X162251000Y-144227000D01*
G75*
G02*
X162163500Y-144314500I-87500J0D01*
G01*
X161988500Y-144314500D01*
G75*
G02*
X161901000Y-144227000I0J87500D01*
G01*
X161901000Y-143502000D01*
G75*
G02*
X161988500Y-143414500I87500J0D01*
G01*
G37*
G36*
G01*
X160763500Y-142739500D02*
X161488500Y-142739500D01*
G75*
G02*
X161576000Y-142827000I0J-87500D01*
G01*
X161576000Y-143002000D01*
G75*
G02*
X161488500Y-143089500I-87500J0D01*
G01*
X160763500Y-143089500D01*
G75*
G02*
X160676000Y-143002000I0J87500D01*
G01*
X160676000Y-142827000D01*
G75*
G02*
X160763500Y-142739500I87500J0D01*
G01*
G37*
G36*
G01*
X160763500Y-142239500D02*
X161488500Y-142239500D01*
G75*
G02*
X161576000Y-142327000I0J-87500D01*
G01*
X161576000Y-142502000D01*
G75*
G02*
X161488500Y-142589500I-87500J0D01*
G01*
X160763500Y-142589500D01*
G75*
G02*
X160676000Y-142502000I0J87500D01*
G01*
X160676000Y-142327000D01*
G75*
G02*
X160763500Y-142239500I87500J0D01*
G01*
G37*
G36*
G01*
X160763500Y-141739500D02*
X161488500Y-141739500D01*
G75*
G02*
X161576000Y-141827000I0J-87500D01*
G01*
X161576000Y-142002000D01*
G75*
G02*
X161488500Y-142089500I-87500J0D01*
G01*
X160763500Y-142089500D01*
G75*
G02*
X160676000Y-142002000I0J87500D01*
G01*
X160676000Y-141827000D01*
G75*
G02*
X160763500Y-141739500I87500J0D01*
G01*
G37*
G36*
G01*
X160763500Y-141239500D02*
X161488500Y-141239500D01*
G75*
G02*
X161576000Y-141327000I0J-87500D01*
G01*
X161576000Y-141502000D01*
G75*
G02*
X161488500Y-141589500I-87500J0D01*
G01*
X160763500Y-141589500D01*
G75*
G02*
X160676000Y-141502000I0J87500D01*
G01*
X160676000Y-141327000D01*
G75*
G02*
X160763500Y-141239500I87500J0D01*
G01*
G37*
G36*
G01*
X160763500Y-140739500D02*
X161488500Y-140739500D01*
G75*
G02*
X161576000Y-140827000I0J-87500D01*
G01*
X161576000Y-141002000D01*
G75*
G02*
X161488500Y-141089500I-87500J0D01*
G01*
X160763500Y-141089500D01*
G75*
G02*
X160676000Y-141002000I0J87500D01*
G01*
X160676000Y-140827000D01*
G75*
G02*
X160763500Y-140739500I87500J0D01*
G01*
G37*
G36*
G01*
X160763500Y-140239500D02*
X161488500Y-140239500D01*
G75*
G02*
X161576000Y-140327000I0J-87500D01*
G01*
X161576000Y-140502000D01*
G75*
G02*
X161488500Y-140589500I-87500J0D01*
G01*
X160763500Y-140589500D01*
G75*
G02*
X160676000Y-140502000I0J87500D01*
G01*
X160676000Y-140327000D01*
G75*
G02*
X160763500Y-140239500I87500J0D01*
G01*
G37*
G36*
G01*
X160763500Y-139739500D02*
X161488500Y-139739500D01*
G75*
G02*
X161576000Y-139827000I0J-87500D01*
G01*
X161576000Y-140002000D01*
G75*
G02*
X161488500Y-140089500I-87500J0D01*
G01*
X160763500Y-140089500D01*
G75*
G02*
X160676000Y-140002000I0J87500D01*
G01*
X160676000Y-139827000D01*
G75*
G02*
X160763500Y-139739500I87500J0D01*
G01*
G37*
G36*
G01*
X161988500Y-138514500D02*
X162163500Y-138514500D01*
G75*
G02*
X162251000Y-138602000I0J-87500D01*
G01*
X162251000Y-139327000D01*
G75*
G02*
X162163500Y-139414500I-87500J0D01*
G01*
X161988500Y-139414500D01*
G75*
G02*
X161901000Y-139327000I0J87500D01*
G01*
X161901000Y-138602000D01*
G75*
G02*
X161988500Y-138514500I87500J0D01*
G01*
G37*
G36*
G01*
X162488500Y-138514500D02*
X162663500Y-138514500D01*
G75*
G02*
X162751000Y-138602000I0J-87500D01*
G01*
X162751000Y-139327000D01*
G75*
G02*
X162663500Y-139414500I-87500J0D01*
G01*
X162488500Y-139414500D01*
G75*
G02*
X162401000Y-139327000I0J87500D01*
G01*
X162401000Y-138602000D01*
G75*
G02*
X162488500Y-138514500I87500J0D01*
G01*
G37*
G36*
G01*
X162988500Y-138514500D02*
X163163500Y-138514500D01*
G75*
G02*
X163251000Y-138602000I0J-87500D01*
G01*
X163251000Y-139327000D01*
G75*
G02*
X163163500Y-139414500I-87500J0D01*
G01*
X162988500Y-139414500D01*
G75*
G02*
X162901000Y-139327000I0J87500D01*
G01*
X162901000Y-138602000D01*
G75*
G02*
X162988500Y-138514500I87500J0D01*
G01*
G37*
G36*
G01*
X163488500Y-138514500D02*
X163663500Y-138514500D01*
G75*
G02*
X163751000Y-138602000I0J-87500D01*
G01*
X163751000Y-139327000D01*
G75*
G02*
X163663500Y-139414500I-87500J0D01*
G01*
X163488500Y-139414500D01*
G75*
G02*
X163401000Y-139327000I0J87500D01*
G01*
X163401000Y-138602000D01*
G75*
G02*
X163488500Y-138514500I87500J0D01*
G01*
G37*
G36*
G01*
X163988500Y-138514500D02*
X164163500Y-138514500D01*
G75*
G02*
X164251000Y-138602000I0J-87500D01*
G01*
X164251000Y-139327000D01*
G75*
G02*
X164163500Y-139414500I-87500J0D01*
G01*
X163988500Y-139414500D01*
G75*
G02*
X163901000Y-139327000I0J87500D01*
G01*
X163901000Y-138602000D01*
G75*
G02*
X163988500Y-138514500I87500J0D01*
G01*
G37*
G36*
G01*
X164488500Y-138514500D02*
X164663500Y-138514500D01*
G75*
G02*
X164751000Y-138602000I0J-87500D01*
G01*
X164751000Y-139327000D01*
G75*
G02*
X164663500Y-139414500I-87500J0D01*
G01*
X164488500Y-139414500D01*
G75*
G02*
X164401000Y-139327000I0J87500D01*
G01*
X164401000Y-138602000D01*
G75*
G02*
X164488500Y-138514500I87500J0D01*
G01*
G37*
G36*
G01*
X164988500Y-138514500D02*
X165163500Y-138514500D01*
G75*
G02*
X165251000Y-138602000I0J-87500D01*
G01*
X165251000Y-139327000D01*
G75*
G02*
X165163500Y-139414500I-87500J0D01*
G01*
X164988500Y-139414500D01*
G75*
G02*
X164901000Y-139327000I0J87500D01*
G01*
X164901000Y-138602000D01*
G75*
G02*
X164988500Y-138514500I87500J0D01*
G01*
G37*
G36*
G01*
X180228000Y-147793332D02*
X180228000Y-148751668D01*
G75*
G02*
X179957168Y-149022500I-270832J0D01*
G01*
X179198832Y-149022500D01*
G75*
G02*
X178928000Y-148751668I0J270832D01*
G01*
X178928000Y-147793332D01*
G75*
G02*
X179198832Y-147522500I270832J0D01*
G01*
X179957168Y-147522500D01*
G75*
G02*
X180228000Y-147793332I0J-270832D01*
G01*
G37*
G36*
G01*
X182228000Y-147793332D02*
X182228000Y-148751668D01*
G75*
G02*
X181957168Y-149022500I-270832J0D01*
G01*
X181198832Y-149022500D01*
G75*
G02*
X180928000Y-148751668I0J270832D01*
G01*
X180928000Y-147793332D01*
G75*
G02*
X181198832Y-147522500I270832J0D01*
G01*
X181957168Y-147522500D01*
G75*
G02*
X182228000Y-147793332I0J-270832D01*
G01*
G37*
G36*
G01*
X180228000Y-149825332D02*
X180228000Y-150783668D01*
G75*
G02*
X179957168Y-151054500I-270832J0D01*
G01*
X179198832Y-151054500D01*
G75*
G02*
X178928000Y-150783668I0J270832D01*
G01*
X178928000Y-149825332D01*
G75*
G02*
X179198832Y-149554500I270832J0D01*
G01*
X179957168Y-149554500D01*
G75*
G02*
X180228000Y-149825332I0J-270832D01*
G01*
G37*
G36*
G01*
X182228000Y-149825332D02*
X182228000Y-150783668D01*
G75*
G02*
X181957168Y-151054500I-270832J0D01*
G01*
X181198832Y-151054500D01*
G75*
G02*
X180928000Y-150783668I0J270832D01*
G01*
X180928000Y-149825332D01*
G75*
G02*
X181198832Y-149554500I270832J0D01*
G01*
X181957168Y-149554500D01*
G75*
G02*
X182228000Y-149825332I0J-270832D01*
G01*
G37*
G36*
G01*
X177928892Y-102236000D02*
X180846108Y-102236000D01*
G75*
G02*
X181112500Y-102502392I0J-266392D01*
G01*
X181112500Y-103594608D01*
G75*
G02*
X180846108Y-103861000I-266392J0D01*
G01*
X177928892Y-103861000D01*
G75*
G02*
X177662500Y-103594608I0J266392D01*
G01*
X177662500Y-102502392D01*
G75*
G02*
X177928892Y-102236000I266392J0D01*
G01*
G37*
G36*
G01*
X177928892Y-96261000D02*
X180846108Y-96261000D01*
G75*
G02*
X181112500Y-96527392I0J-266392D01*
G01*
X181112500Y-97619608D01*
G75*
G02*
X180846108Y-97886000I-266392J0D01*
G01*
X177928892Y-97886000D01*
G75*
G02*
X177662500Y-97619608I0J266392D01*
G01*
X177662500Y-96527392D01*
G75*
G02*
X177928892Y-96261000I266392J0D01*
G01*
G37*
G36*
G01*
X154334000Y-143096500D02*
X154784000Y-143096500D01*
G75*
G02*
X154834000Y-143146500I0J-50000D01*
G01*
X154834000Y-143746500D01*
G75*
G02*
X154784000Y-143796500I-50000J0D01*
G01*
X154334000Y-143796500D01*
G75*
G02*
X154284000Y-143746500I0J50000D01*
G01*
X154284000Y-143146500D01*
G75*
G02*
X154334000Y-143096500I50000J0D01*
G01*
G37*
G36*
G01*
X154334000Y-140996500D02*
X154784000Y-140996500D01*
G75*
G02*
X154834000Y-141046500I0J-50000D01*
G01*
X154834000Y-141646500D01*
G75*
G02*
X154784000Y-141696500I-50000J0D01*
G01*
X154334000Y-141696500D01*
G75*
G02*
X154284000Y-141646500I0J50000D01*
G01*
X154284000Y-141046500D01*
G75*
G02*
X154334000Y-140996500I50000J0D01*
G01*
G37*
G36*
G01*
X165332800Y-136851700D02*
X165857800Y-136851700D01*
G75*
G02*
X166120300Y-137114200I0J-262500D01*
G01*
X166120300Y-137739200D01*
G75*
G02*
X165857800Y-138001700I-262500J0D01*
G01*
X165332800Y-138001700D01*
G75*
G02*
X165070300Y-137739200I0J262500D01*
G01*
X165070300Y-137114200D01*
G75*
G02*
X165332800Y-136851700I262500J0D01*
G01*
G37*
G36*
G01*
X165332800Y-135101700D02*
X165857800Y-135101700D01*
G75*
G02*
X166120300Y-135364200I0J-262500D01*
G01*
X166120300Y-135989200D01*
G75*
G02*
X165857800Y-136251700I-262500J0D01*
G01*
X165332800Y-136251700D01*
G75*
G02*
X165070300Y-135989200I0J262500D01*
G01*
X165070300Y-135364200D01*
G75*
G02*
X165332800Y-135101700I262500J0D01*
G01*
G37*
G36*
G01*
X156975500Y-142041000D02*
X156975500Y-142566000D01*
G75*
G02*
X156713000Y-142828500I-262500J0D01*
G01*
X156088000Y-142828500D01*
G75*
G02*
X155825500Y-142566000I0J262500D01*
G01*
X155825500Y-142041000D01*
G75*
G02*
X156088000Y-141778500I262500J0D01*
G01*
X156713000Y-141778500D01*
G75*
G02*
X156975500Y-142041000I0J-262500D01*
G01*
G37*
G36*
G01*
X158725500Y-142041000D02*
X158725500Y-142566000D01*
G75*
G02*
X158463000Y-142828500I-262500J0D01*
G01*
X157838000Y-142828500D01*
G75*
G02*
X157575500Y-142566000I0J262500D01*
G01*
X157575500Y-142041000D01*
G75*
G02*
X157838000Y-141778500I262500J0D01*
G01*
X158463000Y-141778500D01*
G75*
G02*
X158725500Y-142041000I0J-262500D01*
G01*
G37*
G36*
G01*
X157575500Y-141042000D02*
X157575500Y-140517000D01*
G75*
G02*
X157838000Y-140254500I262500J0D01*
G01*
X158463000Y-140254500D01*
G75*
G02*
X158725500Y-140517000I0J-262500D01*
G01*
X158725500Y-141042000D01*
G75*
G02*
X158463000Y-141304500I-262500J0D01*
G01*
X157838000Y-141304500D01*
G75*
G02*
X157575500Y-141042000I0J262500D01*
G01*
G37*
G36*
G01*
X155825500Y-141042000D02*
X155825500Y-140517000D01*
G75*
G02*
X156088000Y-140254500I262500J0D01*
G01*
X156713000Y-140254500D01*
G75*
G02*
X156975500Y-140517000I0J-262500D01*
G01*
X156975500Y-141042000D01*
G75*
G02*
X156713000Y-141304500I-262500J0D01*
G01*
X156088000Y-141304500D01*
G75*
G02*
X155825500Y-141042000I0J262500D01*
G01*
G37*
G36*
G01*
X156975500Y-143565000D02*
X156975500Y-144090000D01*
G75*
G02*
X156713000Y-144352500I-262500J0D01*
G01*
X156088000Y-144352500D01*
G75*
G02*
X155825500Y-144090000I0J262500D01*
G01*
X155825500Y-143565000D01*
G75*
G02*
X156088000Y-143302500I262500J0D01*
G01*
X156713000Y-143302500D01*
G75*
G02*
X156975500Y-143565000I0J-262500D01*
G01*
G37*
G36*
G01*
X158725500Y-143565000D02*
X158725500Y-144090000D01*
G75*
G02*
X158463000Y-144352500I-262500J0D01*
G01*
X157838000Y-144352500D01*
G75*
G02*
X157575500Y-144090000I0J262500D01*
G01*
X157575500Y-143565000D01*
G75*
G02*
X157838000Y-143302500I262500J0D01*
G01*
X158463000Y-143302500D01*
G75*
G02*
X158725500Y-143565000I0J-262500D01*
G01*
G37*
G36*
G01*
X170953300Y-136432300D02*
X170953300Y-137232300D01*
G75*
G02*
X170903300Y-137282300I-50000J0D01*
G01*
X170003300Y-137282300D01*
G75*
G02*
X169953300Y-137232300I0J50000D01*
G01*
X169953300Y-136432300D01*
G75*
G02*
X170003300Y-136382300I50000J0D01*
G01*
X170903300Y-136382300D01*
G75*
G02*
X170953300Y-136432300I0J-50000D01*
G01*
G37*
G36*
G01*
X172953300Y-135482300D02*
X172953300Y-136282300D01*
G75*
G02*
X172903300Y-136332300I-50000J0D01*
G01*
X172003300Y-136332300D01*
G75*
G02*
X171953300Y-136282300I0J50000D01*
G01*
X171953300Y-135482300D01*
G75*
G02*
X172003300Y-135432300I50000J0D01*
G01*
X172903300Y-135432300D01*
G75*
G02*
X172953300Y-135482300I0J-50000D01*
G01*
G37*
G36*
G01*
X172953300Y-137382300D02*
X172953300Y-138182300D01*
G75*
G02*
X172903300Y-138232300I-50000J0D01*
G01*
X172003300Y-138232300D01*
G75*
G02*
X171953300Y-138182300I0J50000D01*
G01*
X171953300Y-137382300D01*
G75*
G02*
X172003300Y-137332300I50000J0D01*
G01*
X172903300Y-137332300D01*
G75*
G02*
X172953300Y-137382300I0J-50000D01*
G01*
G37*
D11*
X190277500Y-148844000D03*
G36*
G01*
X188952500Y-149569000D02*
X187602500Y-149569000D01*
G75*
G02*
X187552500Y-149519000I0J50000D01*
G01*
X187552500Y-148169000D01*
G75*
G02*
X187602500Y-148119000I50000J0D01*
G01*
X188952500Y-148119000D01*
G75*
G02*
X189002500Y-148169000I0J-50000D01*
G01*
X189002500Y-149519000D01*
G75*
G02*
X188952500Y-149569000I-50000J0D01*
G01*
G37*
G36*
G01*
X181586500Y-125947000D02*
X180236500Y-125947000D01*
G75*
G02*
X180186500Y-125897000I0J50000D01*
G01*
X180186500Y-124547000D01*
G75*
G02*
X180236500Y-124497000I50000J0D01*
G01*
X181586500Y-124497000D01*
G75*
G02*
X181636500Y-124547000I0J-50000D01*
G01*
X181636500Y-125897000D01*
G75*
G02*
X181586500Y-125947000I-50000J0D01*
G01*
G37*
X182911500Y-125222000D03*
X184911500Y-125222000D03*
X186911500Y-125222000D03*
G36*
G01*
X159901500Y-137709400D02*
X159376500Y-137709400D01*
G75*
G02*
X159114000Y-137446900I0J262500D01*
G01*
X159114000Y-136796900D01*
G75*
G02*
X159376500Y-136534400I262500J0D01*
G01*
X159901500Y-136534400D01*
G75*
G02*
X160164000Y-136796900I0J-262500D01*
G01*
X160164000Y-137446900D01*
G75*
G02*
X159901500Y-137709400I-262500J0D01*
G01*
G37*
G36*
G01*
X159901500Y-139434400D02*
X159376500Y-139434400D01*
G75*
G02*
X159114000Y-139171900I0J262500D01*
G01*
X159114000Y-138521900D01*
G75*
G02*
X159376500Y-138259400I262500J0D01*
G01*
X159901500Y-138259400D01*
G75*
G02*
X160164000Y-138521900I0J-262500D01*
G01*
X160164000Y-139171900D01*
G75*
G02*
X159901500Y-139434400I-262500J0D01*
G01*
G37*
G36*
G01*
X160205000Y-151064000D02*
X160205000Y-149164000D01*
G75*
G02*
X160255000Y-149114000I50000J0D01*
G01*
X161755000Y-149114000D01*
G75*
G02*
X161805000Y-149164000I0J-50000D01*
G01*
X161805000Y-151064000D01*
G75*
G02*
X161755000Y-151114000I-50000J0D01*
G01*
X160255000Y-151114000D01*
G75*
G02*
X160205000Y-151064000I0J50000D01*
G01*
G37*
D12*
X157505000Y-147414000D03*
G36*
G01*
X159105000Y-148089000D02*
X159105000Y-146739000D01*
G75*
G02*
X159155000Y-146689000I50000J0D01*
G01*
X159555000Y-146689000D01*
G75*
G02*
X159605000Y-146739000I0J-50000D01*
G01*
X159605000Y-148089000D01*
G75*
G02*
X159555000Y-148139000I-50000J0D01*
G01*
X159155000Y-148139000D01*
G75*
G02*
X159105000Y-148089000I0J50000D01*
G01*
G37*
G36*
G01*
X158455000Y-148089000D02*
X158455000Y-146739000D01*
G75*
G02*
X158505000Y-146689000I50000J0D01*
G01*
X158905000Y-146689000D01*
G75*
G02*
X158955000Y-146739000I0J-50000D01*
G01*
X158955000Y-148089000D01*
G75*
G02*
X158905000Y-148139000I-50000J0D01*
G01*
X158505000Y-148139000D01*
G75*
G02*
X158455000Y-148089000I0J50000D01*
G01*
G37*
G36*
G01*
X161055000Y-148089000D02*
X161055000Y-146739000D01*
G75*
G02*
X161105000Y-146689000I50000J0D01*
G01*
X161505000Y-146689000D01*
G75*
G02*
X161555000Y-146739000I0J-50000D01*
G01*
X161555000Y-148089000D01*
G75*
G02*
X161505000Y-148139000I-50000J0D01*
G01*
X161105000Y-148139000D01*
G75*
G02*
X161055000Y-148089000I0J50000D01*
G01*
G37*
G36*
G01*
X160405000Y-148089000D02*
X160405000Y-146739000D01*
G75*
G02*
X160455000Y-146689000I50000J0D01*
G01*
X160855000Y-146689000D01*
G75*
G02*
X160905000Y-146739000I0J-50000D01*
G01*
X160905000Y-148089000D01*
G75*
G02*
X160855000Y-148139000I-50000J0D01*
G01*
X160455000Y-148139000D01*
G75*
G02*
X160405000Y-148089000I0J50000D01*
G01*
G37*
G36*
G01*
X159755000Y-148089000D02*
X159755000Y-146739000D01*
G75*
G02*
X159805000Y-146689000I50000J0D01*
G01*
X160205000Y-146689000D01*
G75*
G02*
X160255000Y-146739000I0J-50000D01*
G01*
X160255000Y-148089000D01*
G75*
G02*
X160205000Y-148139000I-50000J0D01*
G01*
X159805000Y-148139000D01*
G75*
G02*
X159755000Y-148089000I0J50000D01*
G01*
G37*
X162505000Y-147414000D03*
G36*
G01*
X158205000Y-151064000D02*
X158205000Y-149164000D01*
G75*
G02*
X158255000Y-149114000I50000J0D01*
G01*
X159755000Y-149114000D01*
G75*
G02*
X159805000Y-149164000I0J-50000D01*
G01*
X159805000Y-151064000D01*
G75*
G02*
X159755000Y-151114000I-50000J0D01*
G01*
X158255000Y-151114000D01*
G75*
G02*
X158205000Y-151064000I0J50000D01*
G01*
G37*
D13*
X156505000Y-150114000D03*
X163505000Y-150114000D03*
G36*
G01*
X162255000Y-151064000D02*
X162255000Y-149164000D01*
G75*
G02*
X162305000Y-149114000I50000J0D01*
G01*
X163505000Y-149114000D01*
G75*
G02*
X163555000Y-149164000I0J-50000D01*
G01*
X163555000Y-151064000D01*
G75*
G02*
X163505000Y-151114000I-50000J0D01*
G01*
X162305000Y-151114000D01*
G75*
G02*
X162255000Y-151064000I0J50000D01*
G01*
G37*
G36*
G01*
X156455000Y-151064000D02*
X156455000Y-149164000D01*
G75*
G02*
X156505000Y-149114000I50000J0D01*
G01*
X157705000Y-149114000D01*
G75*
G02*
X157755000Y-149164000I0J-50000D01*
G01*
X157755000Y-151064000D01*
G75*
G02*
X157705000Y-151114000I-50000J0D01*
G01*
X156505000Y-151114000D01*
G75*
G02*
X156455000Y-151064000I0J50000D01*
G01*
G37*
G36*
G01*
X183865500Y-133936500D02*
X188865500Y-133936500D01*
G75*
G02*
X188915500Y-133986500I0J-50000D01*
G01*
X188915500Y-138986500D01*
G75*
G02*
X188865500Y-139036500I-50000J0D01*
G01*
X183865500Y-139036500D01*
G75*
G02*
X183815500Y-138986500I0J50000D01*
G01*
X183815500Y-133986500D01*
G75*
G02*
X183865500Y-133936500I50000J0D01*
G01*
G37*
G36*
G01*
X193415500Y-127936500D02*
X194315500Y-127936500D01*
G75*
G02*
X194365500Y-127986500I0J-50000D01*
G01*
X194365500Y-129986500D01*
G75*
G02*
X194315500Y-130036500I-50000J0D01*
G01*
X193415500Y-130036500D01*
G75*
G02*
X193365500Y-129986500I0J50000D01*
G01*
X193365500Y-127986500D01*
G75*
G02*
X193415500Y-127936500I50000J0D01*
G01*
G37*
G36*
G01*
X192145500Y-127936500D02*
X193045500Y-127936500D01*
G75*
G02*
X193095500Y-127986500I0J-50000D01*
G01*
X193095500Y-129986500D01*
G75*
G02*
X193045500Y-130036500I-50000J0D01*
G01*
X192145500Y-130036500D01*
G75*
G02*
X192095500Y-129986500I0J50000D01*
G01*
X192095500Y-127986500D01*
G75*
G02*
X192145500Y-127936500I50000J0D01*
G01*
G37*
G36*
G01*
X190875500Y-127936500D02*
X191775500Y-127936500D01*
G75*
G02*
X191825500Y-127986500I0J-50000D01*
G01*
X191825500Y-129986500D01*
G75*
G02*
X191775500Y-130036500I-50000J0D01*
G01*
X190875500Y-130036500D01*
G75*
G02*
X190825500Y-129986500I0J50000D01*
G01*
X190825500Y-127986500D01*
G75*
G02*
X190875500Y-127936500I50000J0D01*
G01*
G37*
G36*
G01*
X189605500Y-127936500D02*
X190505500Y-127936500D01*
G75*
G02*
X190555500Y-127986500I0J-50000D01*
G01*
X190555500Y-129986500D01*
G75*
G02*
X190505500Y-130036500I-50000J0D01*
G01*
X189605500Y-130036500D01*
G75*
G02*
X189555500Y-129986500I0J50000D01*
G01*
X189555500Y-127986500D01*
G75*
G02*
X189605500Y-127936500I50000J0D01*
G01*
G37*
G36*
G01*
X188335500Y-127936500D02*
X189235500Y-127936500D01*
G75*
G02*
X189285500Y-127986500I0J-50000D01*
G01*
X189285500Y-129986500D01*
G75*
G02*
X189235500Y-130036500I-50000J0D01*
G01*
X188335500Y-130036500D01*
G75*
G02*
X188285500Y-129986500I0J50000D01*
G01*
X188285500Y-127986500D01*
G75*
G02*
X188335500Y-127936500I50000J0D01*
G01*
G37*
G36*
G01*
X187065500Y-127936500D02*
X187965500Y-127936500D01*
G75*
G02*
X188015500Y-127986500I0J-50000D01*
G01*
X188015500Y-129986500D01*
G75*
G02*
X187965500Y-130036500I-50000J0D01*
G01*
X187065500Y-130036500D01*
G75*
G02*
X187015500Y-129986500I0J50000D01*
G01*
X187015500Y-127986500D01*
G75*
G02*
X187065500Y-127936500I50000J0D01*
G01*
G37*
G36*
G01*
X185795500Y-127936500D02*
X186695500Y-127936500D01*
G75*
G02*
X186745500Y-127986500I0J-50000D01*
G01*
X186745500Y-129986500D01*
G75*
G02*
X186695500Y-130036500I-50000J0D01*
G01*
X185795500Y-130036500D01*
G75*
G02*
X185745500Y-129986500I0J50000D01*
G01*
X185745500Y-127986500D01*
G75*
G02*
X185795500Y-127936500I50000J0D01*
G01*
G37*
G36*
G01*
X184525500Y-127936500D02*
X185425500Y-127936500D01*
G75*
G02*
X185475500Y-127986500I0J-50000D01*
G01*
X185475500Y-129986500D01*
G75*
G02*
X185425500Y-130036500I-50000J0D01*
G01*
X184525500Y-130036500D01*
G75*
G02*
X184475500Y-129986500I0J50000D01*
G01*
X184475500Y-127986500D01*
G75*
G02*
X184525500Y-127936500I50000J0D01*
G01*
G37*
G36*
G01*
X183255500Y-127936500D02*
X184155500Y-127936500D01*
G75*
G02*
X184205500Y-127986500I0J-50000D01*
G01*
X184205500Y-129986500D01*
G75*
G02*
X184155500Y-130036500I-50000J0D01*
G01*
X183255500Y-130036500D01*
G75*
G02*
X183205500Y-129986500I0J50000D01*
G01*
X183205500Y-127986500D01*
G75*
G02*
X183255500Y-127936500I50000J0D01*
G01*
G37*
G36*
G01*
X181985500Y-127936500D02*
X182885500Y-127936500D01*
G75*
G02*
X182935500Y-127986500I0J-50000D01*
G01*
X182935500Y-129986500D01*
G75*
G02*
X182885500Y-130036500I-50000J0D01*
G01*
X181985500Y-130036500D01*
G75*
G02*
X181935500Y-129986500I0J50000D01*
G01*
X181935500Y-127986500D01*
G75*
G02*
X181985500Y-127936500I50000J0D01*
G01*
G37*
G36*
G01*
X180715500Y-127936500D02*
X181615500Y-127936500D01*
G75*
G02*
X181665500Y-127986500I0J-50000D01*
G01*
X181665500Y-129986500D01*
G75*
G02*
X181615500Y-130036500I-50000J0D01*
G01*
X180715500Y-130036500D01*
G75*
G02*
X180665500Y-129986500I0J50000D01*
G01*
X180665500Y-127986500D01*
G75*
G02*
X180715500Y-127936500I50000J0D01*
G01*
G37*
G36*
G01*
X179445500Y-127936500D02*
X180345500Y-127936500D01*
G75*
G02*
X180395500Y-127986500I0J-50000D01*
G01*
X180395500Y-129986500D01*
G75*
G02*
X180345500Y-130036500I-50000J0D01*
G01*
X179445500Y-130036500D01*
G75*
G02*
X179395500Y-129986500I0J50000D01*
G01*
X179395500Y-127986500D01*
G75*
G02*
X179445500Y-127936500I50000J0D01*
G01*
G37*
G36*
G01*
X178175500Y-127936500D02*
X179075500Y-127936500D01*
G75*
G02*
X179125500Y-127986500I0J-50000D01*
G01*
X179125500Y-129986500D01*
G75*
G02*
X179075500Y-130036500I-50000J0D01*
G01*
X178175500Y-130036500D01*
G75*
G02*
X178125500Y-129986500I0J50000D01*
G01*
X178125500Y-127986500D01*
G75*
G02*
X178175500Y-127936500I50000J0D01*
G01*
G37*
G36*
G01*
X176905500Y-127936500D02*
X177805500Y-127936500D01*
G75*
G02*
X177855500Y-127986500I0J-50000D01*
G01*
X177855500Y-129986500D01*
G75*
G02*
X177805500Y-130036500I-50000J0D01*
G01*
X176905500Y-130036500D01*
G75*
G02*
X176855500Y-129986500I0J50000D01*
G01*
X176855500Y-127986500D01*
G75*
G02*
X176905500Y-127936500I50000J0D01*
G01*
G37*
G36*
G01*
X175305500Y-132221500D02*
X175305500Y-131321500D01*
G75*
G02*
X175355500Y-131271500I50000J0D01*
G01*
X177355500Y-131271500D01*
G75*
G02*
X177405500Y-131321500I0J-50000D01*
G01*
X177405500Y-132221500D01*
G75*
G02*
X177355500Y-132271500I-50000J0D01*
G01*
X175355500Y-132271500D01*
G75*
G02*
X175305500Y-132221500I0J50000D01*
G01*
G37*
G36*
G01*
X175305500Y-133491500D02*
X175305500Y-132591500D01*
G75*
G02*
X175355500Y-132541500I50000J0D01*
G01*
X177355500Y-132541500D01*
G75*
G02*
X177405500Y-132591500I0J-50000D01*
G01*
X177405500Y-133491500D01*
G75*
G02*
X177355500Y-133541500I-50000J0D01*
G01*
X175355500Y-133541500D01*
G75*
G02*
X175305500Y-133491500I0J50000D01*
G01*
G37*
G36*
G01*
X175305500Y-134761500D02*
X175305500Y-133861500D01*
G75*
G02*
X175355500Y-133811500I50000J0D01*
G01*
X177355500Y-133811500D01*
G75*
G02*
X177405500Y-133861500I0J-50000D01*
G01*
X177405500Y-134761500D01*
G75*
G02*
X177355500Y-134811500I-50000J0D01*
G01*
X175355500Y-134811500D01*
G75*
G02*
X175305500Y-134761500I0J50000D01*
G01*
G37*
G36*
G01*
X175305500Y-136031500D02*
X175305500Y-135131500D01*
G75*
G02*
X175355500Y-135081500I50000J0D01*
G01*
X177355500Y-135081500D01*
G75*
G02*
X177405500Y-135131500I0J-50000D01*
G01*
X177405500Y-136031500D01*
G75*
G02*
X177355500Y-136081500I-50000J0D01*
G01*
X175355500Y-136081500D01*
G75*
G02*
X175305500Y-136031500I0J50000D01*
G01*
G37*
G36*
G01*
X175305500Y-137301500D02*
X175305500Y-136401500D01*
G75*
G02*
X175355500Y-136351500I50000J0D01*
G01*
X177355500Y-136351500D01*
G75*
G02*
X177405500Y-136401500I0J-50000D01*
G01*
X177405500Y-137301500D01*
G75*
G02*
X177355500Y-137351500I-50000J0D01*
G01*
X175355500Y-137351500D01*
G75*
G02*
X175305500Y-137301500I0J50000D01*
G01*
G37*
G36*
G01*
X175305500Y-138571500D02*
X175305500Y-137671500D01*
G75*
G02*
X175355500Y-137621500I50000J0D01*
G01*
X177355500Y-137621500D01*
G75*
G02*
X177405500Y-137671500I0J-50000D01*
G01*
X177405500Y-138571500D01*
G75*
G02*
X177355500Y-138621500I-50000J0D01*
G01*
X175355500Y-138621500D01*
G75*
G02*
X175305500Y-138571500I0J50000D01*
G01*
G37*
G36*
G01*
X175305500Y-139841500D02*
X175305500Y-138941500D01*
G75*
G02*
X175355500Y-138891500I50000J0D01*
G01*
X177355500Y-138891500D01*
G75*
G02*
X177405500Y-138941500I0J-50000D01*
G01*
X177405500Y-139841500D01*
G75*
G02*
X177355500Y-139891500I-50000J0D01*
G01*
X175355500Y-139891500D01*
G75*
G02*
X175305500Y-139841500I0J50000D01*
G01*
G37*
G36*
G01*
X175305500Y-141111500D02*
X175305500Y-140211500D01*
G75*
G02*
X175355500Y-140161500I50000J0D01*
G01*
X177355500Y-140161500D01*
G75*
G02*
X177405500Y-140211500I0J-50000D01*
G01*
X177405500Y-141111500D01*
G75*
G02*
X177355500Y-141161500I-50000J0D01*
G01*
X175355500Y-141161500D01*
G75*
G02*
X175305500Y-141111500I0J50000D01*
G01*
G37*
G36*
G01*
X175305500Y-142381500D02*
X175305500Y-141481500D01*
G75*
G02*
X175355500Y-141431500I50000J0D01*
G01*
X177355500Y-141431500D01*
G75*
G02*
X177405500Y-141481500I0J-50000D01*
G01*
X177405500Y-142381500D01*
G75*
G02*
X177355500Y-142431500I-50000J0D01*
G01*
X175355500Y-142431500D01*
G75*
G02*
X175305500Y-142381500I0J50000D01*
G01*
G37*
G36*
G01*
X175305500Y-143651500D02*
X175305500Y-142751500D01*
G75*
G02*
X175355500Y-142701500I50000J0D01*
G01*
X177355500Y-142701500D01*
G75*
G02*
X177405500Y-142751500I0J-50000D01*
G01*
X177405500Y-143651500D01*
G75*
G02*
X177355500Y-143701500I-50000J0D01*
G01*
X175355500Y-143701500D01*
G75*
G02*
X175305500Y-143651500I0J50000D01*
G01*
G37*
G36*
G01*
X176905500Y-144936500D02*
X177805500Y-144936500D01*
G75*
G02*
X177855500Y-144986500I0J-50000D01*
G01*
X177855500Y-146986500D01*
G75*
G02*
X177805500Y-147036500I-50000J0D01*
G01*
X176905500Y-147036500D01*
G75*
G02*
X176855500Y-146986500I0J50000D01*
G01*
X176855500Y-144986500D01*
G75*
G02*
X176905500Y-144936500I50000J0D01*
G01*
G37*
G36*
G01*
X178175500Y-144936500D02*
X179075500Y-144936500D01*
G75*
G02*
X179125500Y-144986500I0J-50000D01*
G01*
X179125500Y-146986500D01*
G75*
G02*
X179075500Y-147036500I-50000J0D01*
G01*
X178175500Y-147036500D01*
G75*
G02*
X178125500Y-146986500I0J50000D01*
G01*
X178125500Y-144986500D01*
G75*
G02*
X178175500Y-144936500I50000J0D01*
G01*
G37*
G36*
G01*
X179445500Y-144936500D02*
X180345500Y-144936500D01*
G75*
G02*
X180395500Y-144986500I0J-50000D01*
G01*
X180395500Y-146986500D01*
G75*
G02*
X180345500Y-147036500I-50000J0D01*
G01*
X179445500Y-147036500D01*
G75*
G02*
X179395500Y-146986500I0J50000D01*
G01*
X179395500Y-144986500D01*
G75*
G02*
X179445500Y-144936500I50000J0D01*
G01*
G37*
G36*
G01*
X180715500Y-144936500D02*
X181615500Y-144936500D01*
G75*
G02*
X181665500Y-144986500I0J-50000D01*
G01*
X181665500Y-146986500D01*
G75*
G02*
X181615500Y-147036500I-50000J0D01*
G01*
X180715500Y-147036500D01*
G75*
G02*
X180665500Y-146986500I0J50000D01*
G01*
X180665500Y-144986500D01*
G75*
G02*
X180715500Y-144936500I50000J0D01*
G01*
G37*
G36*
G01*
X181985500Y-144936500D02*
X182885500Y-144936500D01*
G75*
G02*
X182935500Y-144986500I0J-50000D01*
G01*
X182935500Y-146986500D01*
G75*
G02*
X182885500Y-147036500I-50000J0D01*
G01*
X181985500Y-147036500D01*
G75*
G02*
X181935500Y-146986500I0J50000D01*
G01*
X181935500Y-144986500D01*
G75*
G02*
X181985500Y-144936500I50000J0D01*
G01*
G37*
G36*
G01*
X183255500Y-144936500D02*
X184155500Y-144936500D01*
G75*
G02*
X184205500Y-144986500I0J-50000D01*
G01*
X184205500Y-146986500D01*
G75*
G02*
X184155500Y-147036500I-50000J0D01*
G01*
X183255500Y-147036500D01*
G75*
G02*
X183205500Y-146986500I0J50000D01*
G01*
X183205500Y-144986500D01*
G75*
G02*
X183255500Y-144936500I50000J0D01*
G01*
G37*
G36*
G01*
X184525500Y-144936500D02*
X185425500Y-144936500D01*
G75*
G02*
X185475500Y-144986500I0J-50000D01*
G01*
X185475500Y-146986500D01*
G75*
G02*
X185425500Y-147036500I-50000J0D01*
G01*
X184525500Y-147036500D01*
G75*
G02*
X184475500Y-146986500I0J50000D01*
G01*
X184475500Y-144986500D01*
G75*
G02*
X184525500Y-144936500I50000J0D01*
G01*
G37*
G36*
G01*
X185795500Y-144936500D02*
X186695500Y-144936500D01*
G75*
G02*
X186745500Y-144986500I0J-50000D01*
G01*
X186745500Y-146986500D01*
G75*
G02*
X186695500Y-147036500I-50000J0D01*
G01*
X185795500Y-147036500D01*
G75*
G02*
X185745500Y-146986500I0J50000D01*
G01*
X185745500Y-144986500D01*
G75*
G02*
X185795500Y-144936500I50000J0D01*
G01*
G37*
G36*
G01*
X187065500Y-144936500D02*
X187965500Y-144936500D01*
G75*
G02*
X188015500Y-144986500I0J-50000D01*
G01*
X188015500Y-146986500D01*
G75*
G02*
X187965500Y-147036500I-50000J0D01*
G01*
X187065500Y-147036500D01*
G75*
G02*
X187015500Y-146986500I0J50000D01*
G01*
X187015500Y-144986500D01*
G75*
G02*
X187065500Y-144936500I50000J0D01*
G01*
G37*
G36*
G01*
X188335500Y-144936500D02*
X189235500Y-144936500D01*
G75*
G02*
X189285500Y-144986500I0J-50000D01*
G01*
X189285500Y-146986500D01*
G75*
G02*
X189235500Y-147036500I-50000J0D01*
G01*
X188335500Y-147036500D01*
G75*
G02*
X188285500Y-146986500I0J50000D01*
G01*
X188285500Y-144986500D01*
G75*
G02*
X188335500Y-144936500I50000J0D01*
G01*
G37*
G36*
G01*
X189605500Y-144936500D02*
X190505500Y-144936500D01*
G75*
G02*
X190555500Y-144986500I0J-50000D01*
G01*
X190555500Y-146986500D01*
G75*
G02*
X190505500Y-147036500I-50000J0D01*
G01*
X189605500Y-147036500D01*
G75*
G02*
X189555500Y-146986500I0J50000D01*
G01*
X189555500Y-144986500D01*
G75*
G02*
X189605500Y-144936500I50000J0D01*
G01*
G37*
G36*
G01*
X190875500Y-144936500D02*
X191775500Y-144936500D01*
G75*
G02*
X191825500Y-144986500I0J-50000D01*
G01*
X191825500Y-146986500D01*
G75*
G02*
X191775500Y-147036500I-50000J0D01*
G01*
X190875500Y-147036500D01*
G75*
G02*
X190825500Y-146986500I0J50000D01*
G01*
X190825500Y-144986500D01*
G75*
G02*
X190875500Y-144936500I50000J0D01*
G01*
G37*
G36*
G01*
X192145500Y-144936500D02*
X193045500Y-144936500D01*
G75*
G02*
X193095500Y-144986500I0J-50000D01*
G01*
X193095500Y-146986500D01*
G75*
G02*
X193045500Y-147036500I-50000J0D01*
G01*
X192145500Y-147036500D01*
G75*
G02*
X192095500Y-146986500I0J50000D01*
G01*
X192095500Y-144986500D01*
G75*
G02*
X192145500Y-144936500I50000J0D01*
G01*
G37*
G36*
G01*
X193415500Y-144936500D02*
X194315500Y-144936500D01*
G75*
G02*
X194365500Y-144986500I0J-50000D01*
G01*
X194365500Y-146986500D01*
G75*
G02*
X194315500Y-147036500I-50000J0D01*
G01*
X193415500Y-147036500D01*
G75*
G02*
X193365500Y-146986500I0J50000D01*
G01*
X193365500Y-144986500D01*
G75*
G02*
X193415500Y-144936500I50000J0D01*
G01*
G37*
D14*
X167576500Y-120332500D03*
X165076500Y-120332500D03*
X162576500Y-120332500D03*
G36*
G01*
X159176500Y-121092795D02*
X159176500Y-119572205D01*
G75*
G02*
X159441205Y-119307500I264705J0D01*
G01*
X160711795Y-119307500D01*
G75*
G02*
X160976500Y-119572205I0J-264705D01*
G01*
X160976500Y-121092795D01*
G75*
G02*
X160711795Y-121357500I-264705J0D01*
G01*
X159441205Y-121357500D01*
G75*
G02*
X159176500Y-121092795I0J264705D01*
G01*
G37*
G36*
G01*
X190468500Y-125675000D02*
X190468500Y-125150000D01*
G75*
G02*
X190731000Y-124887500I262500J0D01*
G01*
X191356000Y-124887500D01*
G75*
G02*
X191618500Y-125150000I0J-262500D01*
G01*
X191618500Y-125675000D01*
G75*
G02*
X191356000Y-125937500I-262500J0D01*
G01*
X190731000Y-125937500D01*
G75*
G02*
X190468500Y-125675000I0J262500D01*
G01*
G37*
G36*
G01*
X188718500Y-125675000D02*
X188718500Y-125150000D01*
G75*
G02*
X188981000Y-124887500I262500J0D01*
G01*
X189606000Y-124887500D01*
G75*
G02*
X189868500Y-125150000I0J-262500D01*
G01*
X189868500Y-125675000D01*
G75*
G02*
X189606000Y-125937500I-262500J0D01*
G01*
X188981000Y-125937500D01*
G75*
G02*
X188718500Y-125675000I0J262500D01*
G01*
G37*
G36*
G01*
X192071500Y-125675000D02*
X192071500Y-125150000D01*
G75*
G02*
X192334000Y-124887500I262500J0D01*
G01*
X192984000Y-124887500D01*
G75*
G02*
X193246500Y-125150000I0J-262500D01*
G01*
X193246500Y-125675000D01*
G75*
G02*
X192984000Y-125937500I-262500J0D01*
G01*
X192334000Y-125937500D01*
G75*
G02*
X192071500Y-125675000I0J262500D01*
G01*
G37*
G36*
G01*
X193796500Y-125675000D02*
X193796500Y-125150000D01*
G75*
G02*
X194059000Y-124887500I262500J0D01*
G01*
X194709000Y-124887500D01*
G75*
G02*
X194971500Y-125150000I0J-262500D01*
G01*
X194971500Y-125675000D01*
G75*
G02*
X194709000Y-125937500I-262500J0D01*
G01*
X194059000Y-125937500D01*
G75*
G02*
X193796500Y-125675000I0J262500D01*
G01*
G37*
G36*
G01*
X157701500Y-145955500D02*
X157701500Y-145255500D01*
G75*
G02*
X157751500Y-145205500I50000J0D01*
G01*
X158351500Y-145205500D01*
G75*
G02*
X158401500Y-145255500I0J-50000D01*
G01*
X158401500Y-145955500D01*
G75*
G02*
X158351500Y-146005500I-50000J0D01*
G01*
X157751500Y-146005500D01*
G75*
G02*
X157701500Y-145955500I0J50000D01*
G01*
G37*
G36*
G01*
X156301500Y-145955500D02*
X156301500Y-145255500D01*
G75*
G02*
X156351500Y-145205500I50000J0D01*
G01*
X156951500Y-145205500D01*
G75*
G02*
X157001500Y-145255500I0J-50000D01*
G01*
X157001500Y-145955500D01*
G75*
G02*
X156951500Y-146005500I-50000J0D01*
G01*
X156351500Y-146005500D01*
G75*
G02*
X156301500Y-145955500I0J50000D01*
G01*
G37*
G36*
G01*
X161703500Y-145255500D02*
X161703500Y-145955500D01*
G75*
G02*
X161653500Y-146005500I-50000J0D01*
G01*
X161053500Y-146005500D01*
G75*
G02*
X161003500Y-145955500I0J50000D01*
G01*
X161003500Y-145255500D01*
G75*
G02*
X161053500Y-145205500I50000J0D01*
G01*
X161653500Y-145205500D01*
G75*
G02*
X161703500Y-145255500I0J-50000D01*
G01*
G37*
G36*
G01*
X163103500Y-145255500D02*
X163103500Y-145955500D01*
G75*
G02*
X163053500Y-146005500I-50000J0D01*
G01*
X162453500Y-146005500D01*
G75*
G02*
X162403500Y-145955500I0J50000D01*
G01*
X162403500Y-145255500D01*
G75*
G02*
X162453500Y-145205500I50000J0D01*
G01*
X163053500Y-145205500D01*
G75*
G02*
X163103500Y-145255500I0J-50000D01*
G01*
G37*
G36*
G01*
X155163000Y-147287500D02*
X154463000Y-147287500D01*
G75*
G02*
X154413000Y-147237500I0J50000D01*
G01*
X154413000Y-146637500D01*
G75*
G02*
X154463000Y-146587500I50000J0D01*
G01*
X155163000Y-146587500D01*
G75*
G02*
X155213000Y-146637500I0J-50000D01*
G01*
X155213000Y-147237500D01*
G75*
G02*
X155163000Y-147287500I-50000J0D01*
G01*
G37*
G36*
G01*
X155163000Y-148687500D02*
X154463000Y-148687500D01*
G75*
G02*
X154413000Y-148637500I0J50000D01*
G01*
X154413000Y-148037500D01*
G75*
G02*
X154463000Y-147987500I50000J0D01*
G01*
X155163000Y-147987500D01*
G75*
G02*
X155213000Y-148037500I0J-50000D01*
G01*
X155213000Y-148637500D01*
G75*
G02*
X155163000Y-148687500I-50000J0D01*
G01*
G37*
G36*
G01*
X161461500Y-131897500D02*
X162261500Y-131897500D01*
G75*
G02*
X162311500Y-131947500I0J-50000D01*
G01*
X162311500Y-132847500D01*
G75*
G02*
X162261500Y-132897500I-50000J0D01*
G01*
X161461500Y-132897500D01*
G75*
G02*
X161411500Y-132847500I0J50000D01*
G01*
X161411500Y-131947500D01*
G75*
G02*
X161461500Y-131897500I50000J0D01*
G01*
G37*
G36*
G01*
X160511500Y-129897500D02*
X161311500Y-129897500D01*
G75*
G02*
X161361500Y-129947500I0J-50000D01*
G01*
X161361500Y-130847500D01*
G75*
G02*
X161311500Y-130897500I-50000J0D01*
G01*
X160511500Y-130897500D01*
G75*
G02*
X160461500Y-130847500I0J50000D01*
G01*
X160461500Y-129947500D01*
G75*
G02*
X160511500Y-129897500I50000J0D01*
G01*
G37*
G36*
G01*
X162411500Y-129897500D02*
X163211500Y-129897500D01*
G75*
G02*
X163261500Y-129947500I0J-50000D01*
G01*
X163261500Y-130847500D01*
G75*
G02*
X163211500Y-130897500I-50000J0D01*
G01*
X162411500Y-130897500D01*
G75*
G02*
X162361500Y-130847500I0J50000D01*
G01*
X162361500Y-129947500D01*
G75*
G02*
X162411500Y-129897500I50000J0D01*
G01*
G37*
G36*
G01*
X165337500Y-131865500D02*
X166137500Y-131865500D01*
G75*
G02*
X166187500Y-131915500I0J-50000D01*
G01*
X166187500Y-132815500D01*
G75*
G02*
X166137500Y-132865500I-50000J0D01*
G01*
X165337500Y-132865500D01*
G75*
G02*
X165287500Y-132815500I0J50000D01*
G01*
X165287500Y-131915500D01*
G75*
G02*
X165337500Y-131865500I50000J0D01*
G01*
G37*
G36*
G01*
X164387500Y-129865500D02*
X165187500Y-129865500D01*
G75*
G02*
X165237500Y-129915500I0J-50000D01*
G01*
X165237500Y-130815500D01*
G75*
G02*
X165187500Y-130865500I-50000J0D01*
G01*
X164387500Y-130865500D01*
G75*
G02*
X164337500Y-130815500I0J50000D01*
G01*
X164337500Y-129915500D01*
G75*
G02*
X164387500Y-129865500I50000J0D01*
G01*
G37*
G36*
G01*
X166287500Y-129865500D02*
X167087500Y-129865500D01*
G75*
G02*
X167137500Y-129915500I0J-50000D01*
G01*
X167137500Y-130815500D01*
G75*
G02*
X167087500Y-130865500I-50000J0D01*
G01*
X166287500Y-130865500D01*
G75*
G02*
X166237500Y-130815500I0J50000D01*
G01*
X166237500Y-129915500D01*
G75*
G02*
X166287500Y-129865500I50000J0D01*
G01*
G37*
G36*
G01*
X154635500Y-131118500D02*
X155735500Y-131118500D01*
G75*
G02*
X155785500Y-131168500I0J-50000D01*
G01*
X155785500Y-132968500D01*
G75*
G02*
X155735500Y-133018500I-50000J0D01*
G01*
X154635500Y-133018500D01*
G75*
G02*
X154585500Y-132968500I0J50000D01*
G01*
X154585500Y-131168500D01*
G75*
G02*
X154635500Y-131118500I50000J0D01*
G01*
G37*
G36*
G01*
X154635500Y-124918500D02*
X155735500Y-124918500D01*
G75*
G02*
X155785500Y-124968500I0J-50000D01*
G01*
X155785500Y-126768500D01*
G75*
G02*
X155735500Y-126818500I-50000J0D01*
G01*
X154635500Y-126818500D01*
G75*
G02*
X154585500Y-126768500I0J50000D01*
G01*
X154585500Y-124968500D01*
G75*
G02*
X154635500Y-124918500I50000J0D01*
G01*
G37*
G36*
G01*
X158335500Y-131118500D02*
X159435500Y-131118500D01*
G75*
G02*
X159485500Y-131168500I0J-50000D01*
G01*
X159485500Y-132968500D01*
G75*
G02*
X159435500Y-133018500I-50000J0D01*
G01*
X158335500Y-133018500D01*
G75*
G02*
X158285500Y-132968500I0J50000D01*
G01*
X158285500Y-131168500D01*
G75*
G02*
X158335500Y-131118500I50000J0D01*
G01*
G37*
G36*
G01*
X158335500Y-124918500D02*
X159435500Y-124918500D01*
G75*
G02*
X159485500Y-124968500I0J-50000D01*
G01*
X159485500Y-126768500D01*
G75*
G02*
X159435500Y-126818500I-50000J0D01*
G01*
X158335500Y-126818500D01*
G75*
G02*
X158285500Y-126768500I0J50000D01*
G01*
X158285500Y-124968500D01*
G75*
G02*
X158335500Y-124918500I50000J0D01*
G01*
G37*
G36*
G01*
X173405500Y-126691500D02*
X172305500Y-126691500D01*
G75*
G02*
X172255500Y-126641500I0J50000D01*
G01*
X172255500Y-124841500D01*
G75*
G02*
X172305500Y-124791500I50000J0D01*
G01*
X173405500Y-124791500D01*
G75*
G02*
X173455500Y-124841500I0J-50000D01*
G01*
X173455500Y-126641500D01*
G75*
G02*
X173405500Y-126691500I-50000J0D01*
G01*
G37*
G36*
G01*
X173405500Y-132891500D02*
X172305500Y-132891500D01*
G75*
G02*
X172255500Y-132841500I0J50000D01*
G01*
X172255500Y-131041500D01*
G75*
G02*
X172305500Y-130991500I50000J0D01*
G01*
X173405500Y-130991500D01*
G75*
G02*
X173455500Y-131041500I0J-50000D01*
G01*
X173455500Y-132841500D01*
G75*
G02*
X173405500Y-132891500I-50000J0D01*
G01*
G37*
G36*
G01*
X169705500Y-126691500D02*
X168605500Y-126691500D01*
G75*
G02*
X168555500Y-126641500I0J50000D01*
G01*
X168555500Y-124841500D01*
G75*
G02*
X168605500Y-124791500I50000J0D01*
G01*
X169705500Y-124791500D01*
G75*
G02*
X169755500Y-124841500I0J-50000D01*
G01*
X169755500Y-126641500D01*
G75*
G02*
X169705500Y-126691500I-50000J0D01*
G01*
G37*
G36*
G01*
X169705500Y-132891500D02*
X168605500Y-132891500D01*
G75*
G02*
X168555500Y-132841500I0J50000D01*
G01*
X168555500Y-131041500D01*
G75*
G02*
X168605500Y-130991500I50000J0D01*
G01*
X169705500Y-130991500D01*
G75*
G02*
X169755500Y-131041500I0J-50000D01*
G01*
X169755500Y-132841500D01*
G75*
G02*
X169705500Y-132891500I-50000J0D01*
G01*
G37*
D15*
X197294500Y-118681500D03*
X189674500Y-111061500D03*
X194754500Y-118681500D03*
X192214500Y-111061500D03*
X192214500Y-118681500D03*
X194754500Y-111061500D03*
X189674500Y-118681500D03*
G36*
G01*
X196494500Y-109811500D02*
X198094500Y-109811500D01*
G75*
G02*
X198144500Y-109861500I0J-50000D01*
G01*
X198144500Y-112261500D01*
G75*
G02*
X198094500Y-112311500I-50000J0D01*
G01*
X196494500Y-112311500D01*
G75*
G02*
X196444500Y-112261500I0J50000D01*
G01*
X196444500Y-109861500D01*
G75*
G02*
X196494500Y-109811500I50000J0D01*
G01*
G37*
X186118500Y-118681500D03*
X178498500Y-111061500D03*
X183578500Y-118681500D03*
X181038500Y-111061500D03*
X181038500Y-118681500D03*
X183578500Y-111061500D03*
X178498500Y-118681500D03*
G36*
G01*
X185318500Y-109811500D02*
X186918500Y-109811500D01*
G75*
G02*
X186968500Y-109861500I0J-50000D01*
G01*
X186968500Y-112261500D01*
G75*
G02*
X186918500Y-112311500I-50000J0D01*
G01*
X185318500Y-112311500D01*
G75*
G02*
X185268500Y-112261500I0J50000D01*
G01*
X185268500Y-109861500D01*
G75*
G02*
X185318500Y-109811500I50000J0D01*
G01*
G37*
G36*
G01*
X193295892Y-94126000D02*
X196213108Y-94126000D01*
G75*
G02*
X196479500Y-94392392I0J-266392D01*
G01*
X196479500Y-95484608D01*
G75*
G02*
X196213108Y-95751000I-266392J0D01*
G01*
X193295892Y-95751000D01*
G75*
G02*
X193029500Y-95484608I0J266392D01*
G01*
X193029500Y-94392392D01*
G75*
G02*
X193295892Y-94126000I266392J0D01*
G01*
G37*
G36*
G01*
X193295892Y-88151000D02*
X196213108Y-88151000D01*
G75*
G02*
X196479500Y-88417392I0J-266392D01*
G01*
X196479500Y-89509608D01*
G75*
G02*
X196213108Y-89776000I-266392J0D01*
G01*
X193295892Y-89776000D01*
G75*
G02*
X193029500Y-89509608I0J266392D01*
G01*
X193029500Y-88417392D01*
G75*
G02*
X193295892Y-88151000I266392J0D01*
G01*
G37*
G36*
G01*
X188215892Y-94126000D02*
X191133108Y-94126000D01*
G75*
G02*
X191399500Y-94392392I0J-266392D01*
G01*
X191399500Y-95484608D01*
G75*
G02*
X191133108Y-95751000I-266392J0D01*
G01*
X188215892Y-95751000D01*
G75*
G02*
X187949500Y-95484608I0J266392D01*
G01*
X187949500Y-94392392D01*
G75*
G02*
X188215892Y-94126000I266392J0D01*
G01*
G37*
G36*
G01*
X188215892Y-88151000D02*
X191133108Y-88151000D01*
G75*
G02*
X191399500Y-88417392I0J-266392D01*
G01*
X191399500Y-89509608D01*
G75*
G02*
X191133108Y-89776000I-266392J0D01*
G01*
X188215892Y-89776000D01*
G75*
G02*
X187949500Y-89509608I0J266392D01*
G01*
X187949500Y-88417392D01*
G75*
G02*
X188215892Y-88151000I266392J0D01*
G01*
G37*
G36*
G01*
X193295892Y-102254000D02*
X196213108Y-102254000D01*
G75*
G02*
X196479500Y-102520392I0J-266392D01*
G01*
X196479500Y-103612608D01*
G75*
G02*
X196213108Y-103879000I-266392J0D01*
G01*
X193295892Y-103879000D01*
G75*
G02*
X193029500Y-103612608I0J266392D01*
G01*
X193029500Y-102520392D01*
G75*
G02*
X193295892Y-102254000I266392J0D01*
G01*
G37*
G36*
G01*
X193295892Y-96279000D02*
X196213108Y-96279000D01*
G75*
G02*
X196479500Y-96545392I0J-266392D01*
G01*
X196479500Y-97637608D01*
G75*
G02*
X196213108Y-97904000I-266392J0D01*
G01*
X193295892Y-97904000D01*
G75*
G02*
X193029500Y-97637608I0J266392D01*
G01*
X193029500Y-96545392D01*
G75*
G02*
X193295892Y-96279000I266392J0D01*
G01*
G37*
G36*
G01*
X188215892Y-102238300D02*
X191133108Y-102238300D01*
G75*
G02*
X191399500Y-102504692I0J-266392D01*
G01*
X191399500Y-103596908D01*
G75*
G02*
X191133108Y-103863300I-266392J0D01*
G01*
X188215892Y-103863300D01*
G75*
G02*
X187949500Y-103596908I0J266392D01*
G01*
X187949500Y-102504692D01*
G75*
G02*
X188215892Y-102238300I266392J0D01*
G01*
G37*
G36*
G01*
X188215892Y-96263300D02*
X191133108Y-96263300D01*
G75*
G02*
X191399500Y-96529692I0J-266392D01*
G01*
X191399500Y-97621908D01*
G75*
G02*
X191133108Y-97888300I-266392J0D01*
G01*
X188215892Y-97888300D01*
G75*
G02*
X187949500Y-97621908I0J266392D01*
G01*
X187949500Y-96529692D01*
G75*
G02*
X188215892Y-96263300I266392J0D01*
G01*
G37*
D16*
X132270500Y-74739500D03*
X198564500Y-85407500D03*
X132270500Y-85407500D03*
G36*
G01*
X195687500Y-78407500D02*
X195687500Y-79707500D01*
G75*
G02*
X195037500Y-80357500I-650000J0D01*
G01*
X193737500Y-80357500D01*
G75*
G02*
X193087500Y-79707500I0J650000D01*
G01*
X193087500Y-78407500D01*
G75*
G02*
X193737500Y-77757500I650000J0D01*
G01*
X195037500Y-77757500D01*
G75*
G02*
X195687500Y-78407500I0J-650000D01*
G01*
G37*
G36*
G01*
X190687500Y-78407500D02*
X190687500Y-79707500D01*
G75*
G02*
X190037500Y-80357500I-650000J0D01*
G01*
X188737500Y-80357500D01*
G75*
G02*
X188087500Y-79707500I0J650000D01*
G01*
X188087500Y-78407500D01*
G75*
G02*
X188737500Y-77757500I650000J0D01*
G01*
X190037500Y-77757500D01*
G75*
G02*
X190687500Y-78407500I0J-650000D01*
G01*
G37*
G36*
G01*
X185687500Y-78407500D02*
X185687500Y-79707500D01*
G75*
G02*
X185037500Y-80357500I-650000J0D01*
G01*
X183737500Y-80357500D01*
G75*
G02*
X183087500Y-79707500I0J650000D01*
G01*
X183087500Y-78407500D01*
G75*
G02*
X183737500Y-77757500I650000J0D01*
G01*
X185037500Y-77757500D01*
G75*
G02*
X185687500Y-78407500I0J-650000D01*
G01*
G37*
G36*
G01*
X180687500Y-78407500D02*
X180687500Y-79707500D01*
G75*
G02*
X180037500Y-80357500I-650000J0D01*
G01*
X178737500Y-80357500D01*
G75*
G02*
X178087500Y-79707500I0J650000D01*
G01*
X178087500Y-78407500D01*
G75*
G02*
X178737500Y-77757500I650000J0D01*
G01*
X180037500Y-77757500D01*
G75*
G02*
X180687500Y-78407500I0J-650000D01*
G01*
G37*
G36*
G01*
X195687500Y-70207501D02*
X195687500Y-71507501D01*
G75*
G02*
X195037500Y-72157501I-650000J0D01*
G01*
X193737500Y-72157501D01*
G75*
G02*
X193087500Y-71507501I0J650000D01*
G01*
X193087500Y-70207501D01*
G75*
G02*
X193737500Y-69557501I650000J0D01*
G01*
X195037500Y-69557501D01*
G75*
G02*
X195687500Y-70207501I0J-650000D01*
G01*
G37*
G36*
G01*
X190687500Y-70207501D02*
X190687500Y-71507501D01*
G75*
G02*
X190037500Y-72157501I-650000J0D01*
G01*
X188737500Y-72157501D01*
G75*
G02*
X188087500Y-71507501I0J650000D01*
G01*
X188087500Y-70207501D01*
G75*
G02*
X188737500Y-69557501I650000J0D01*
G01*
X190037500Y-69557501D01*
G75*
G02*
X190687500Y-70207501I0J-650000D01*
G01*
G37*
G36*
G01*
X185687500Y-70207501D02*
X185687500Y-71507501D01*
G75*
G02*
X185037500Y-72157501I-650000J0D01*
G01*
X183737500Y-72157501D01*
G75*
G02*
X183087500Y-71507501I0J650000D01*
G01*
X183087500Y-70207501D01*
G75*
G02*
X183737500Y-69557501I650000J0D01*
G01*
X185037500Y-69557501D01*
G75*
G02*
X185687500Y-70207501I0J-650000D01*
G01*
G37*
G36*
G01*
X180687500Y-70207501D02*
X180687500Y-71507501D01*
G75*
G02*
X180037500Y-72157501I-650000J0D01*
G01*
X178737500Y-72157501D01*
G75*
G02*
X178087500Y-71507501I0J650000D01*
G01*
X178087500Y-70207501D01*
G75*
G02*
X178737500Y-69557501I650000J0D01*
G01*
X180037500Y-69557501D01*
G75*
G02*
X180687500Y-70207501I0J-650000D01*
G01*
G37*
G36*
G01*
X148048500Y-78407500D02*
X148048500Y-79707500D01*
G75*
G02*
X147398500Y-80357500I-650000J0D01*
G01*
X146098500Y-80357500D01*
G75*
G02*
X145448500Y-79707500I0J650000D01*
G01*
X145448500Y-78407500D01*
G75*
G02*
X146098500Y-77757500I650000J0D01*
G01*
X147398500Y-77757500D01*
G75*
G02*
X148048500Y-78407500I0J-650000D01*
G01*
G37*
G36*
G01*
X143048500Y-78407500D02*
X143048500Y-79707500D01*
G75*
G02*
X142398500Y-80357500I-650000J0D01*
G01*
X141098500Y-80357500D01*
G75*
G02*
X140448500Y-79707500I0J650000D01*
G01*
X140448500Y-78407500D01*
G75*
G02*
X141098500Y-77757500I650000J0D01*
G01*
X142398500Y-77757500D01*
G75*
G02*
X143048500Y-78407500I0J-650000D01*
G01*
G37*
G36*
G01*
X148048500Y-70207501D02*
X148048500Y-71507501D01*
G75*
G02*
X147398500Y-72157501I-650000J0D01*
G01*
X146098500Y-72157501D01*
G75*
G02*
X145448500Y-71507501I0J650000D01*
G01*
X145448500Y-70207501D01*
G75*
G02*
X146098500Y-69557501I650000J0D01*
G01*
X147398500Y-69557501D01*
G75*
G02*
X148048500Y-70207501I0J-650000D01*
G01*
G37*
G36*
G01*
X143048500Y-70207501D02*
X143048500Y-71507501D01*
G75*
G02*
X142398500Y-72157501I-650000J0D01*
G01*
X141098500Y-72157501D01*
G75*
G02*
X140448500Y-71507501I0J650000D01*
G01*
X140448500Y-70207501D01*
G75*
G02*
X141098500Y-69557501I650000J0D01*
G01*
X142398500Y-69557501D01*
G75*
G02*
X143048500Y-70207501I0J-650000D01*
G01*
G37*
G36*
G01*
X171416500Y-78407500D02*
X171416500Y-79707500D01*
G75*
G02*
X170766500Y-80357500I-650000J0D01*
G01*
X169466500Y-80357500D01*
G75*
G02*
X168816500Y-79707500I0J650000D01*
G01*
X168816500Y-78407500D01*
G75*
G02*
X169466500Y-77757500I650000J0D01*
G01*
X170766500Y-77757500D01*
G75*
G02*
X171416500Y-78407500I0J-650000D01*
G01*
G37*
G36*
G01*
X166416500Y-78407500D02*
X166416500Y-79707500D01*
G75*
G02*
X165766500Y-80357500I-650000J0D01*
G01*
X164466500Y-80357500D01*
G75*
G02*
X163816500Y-79707500I0J650000D01*
G01*
X163816500Y-78407500D01*
G75*
G02*
X164466500Y-77757500I650000J0D01*
G01*
X165766500Y-77757500D01*
G75*
G02*
X166416500Y-78407500I0J-650000D01*
G01*
G37*
G36*
G01*
X161416500Y-78407500D02*
X161416500Y-79707500D01*
G75*
G02*
X160766500Y-80357500I-650000J0D01*
G01*
X159466500Y-80357500D01*
G75*
G02*
X158816500Y-79707500I0J650000D01*
G01*
X158816500Y-78407500D01*
G75*
G02*
X159466500Y-77757500I650000J0D01*
G01*
X160766500Y-77757500D01*
G75*
G02*
X161416500Y-78407500I0J-650000D01*
G01*
G37*
G36*
G01*
X156416500Y-78407500D02*
X156416500Y-79707500D01*
G75*
G02*
X155766500Y-80357500I-650000J0D01*
G01*
X154466500Y-80357500D01*
G75*
G02*
X153816500Y-79707500I0J650000D01*
G01*
X153816500Y-78407500D01*
G75*
G02*
X154466500Y-77757500I650000J0D01*
G01*
X155766500Y-77757500D01*
G75*
G02*
X156416500Y-78407500I0J-650000D01*
G01*
G37*
G36*
G01*
X171416500Y-70207501D02*
X171416500Y-71507501D01*
G75*
G02*
X170766500Y-72157501I-650000J0D01*
G01*
X169466500Y-72157501D01*
G75*
G02*
X168816500Y-71507501I0J650000D01*
G01*
X168816500Y-70207501D01*
G75*
G02*
X169466500Y-69557501I650000J0D01*
G01*
X170766500Y-69557501D01*
G75*
G02*
X171416500Y-70207501I0J-650000D01*
G01*
G37*
G36*
G01*
X166416500Y-70207501D02*
X166416500Y-71507501D01*
G75*
G02*
X165766500Y-72157501I-650000J0D01*
G01*
X164466500Y-72157501D01*
G75*
G02*
X163816500Y-71507501I0J650000D01*
G01*
X163816500Y-70207501D01*
G75*
G02*
X164466500Y-69557501I650000J0D01*
G01*
X165766500Y-69557501D01*
G75*
G02*
X166416500Y-70207501I0J-650000D01*
G01*
G37*
G36*
G01*
X161416500Y-70207501D02*
X161416500Y-71507501D01*
G75*
G02*
X160766500Y-72157501I-650000J0D01*
G01*
X159466500Y-72157501D01*
G75*
G02*
X158816500Y-71507501I0J650000D01*
G01*
X158816500Y-70207501D01*
G75*
G02*
X159466500Y-69557501I650000J0D01*
G01*
X160766500Y-69557501D01*
G75*
G02*
X161416500Y-70207501I0J-650000D01*
G01*
G37*
G36*
G01*
X156416500Y-70207501D02*
X156416500Y-71507501D01*
G75*
G02*
X155766500Y-72157501I-650000J0D01*
G01*
X154466500Y-72157501D01*
G75*
G02*
X153816500Y-71507501I0J650000D01*
G01*
X153816500Y-70207501D01*
G75*
G02*
X154466500Y-69557501I650000J0D01*
G01*
X155766500Y-69557501D01*
G75*
G02*
X156416500Y-70207501I0J-650000D01*
G01*
G37*
G36*
G01*
X155536000Y-107262500D02*
X153836000Y-107262500D01*
G75*
G02*
X153786000Y-107212500I0J50000D01*
G01*
X153786000Y-105512500D01*
G75*
G02*
X153836000Y-105462500I50000J0D01*
G01*
X155536000Y-105462500D01*
G75*
G02*
X155586000Y-105512500I0J-50000D01*
G01*
X155586000Y-107212500D01*
G75*
G02*
X155536000Y-107262500I-50000J0D01*
G01*
G37*
D17*
X154686000Y-103822500D03*
D18*
X154686000Y-96202500D03*
X154686000Y-88582500D03*
G36*
G01*
X171675500Y-107243001D02*
X169975500Y-107243001D01*
G75*
G02*
X169925500Y-107193001I0J50000D01*
G01*
X169925500Y-105493001D01*
G75*
G02*
X169975500Y-105443001I50000J0D01*
G01*
X171675500Y-105443001D01*
G75*
G02*
X171725500Y-105493001I0J-50000D01*
G01*
X171725500Y-107193001D01*
G75*
G02*
X171675500Y-107243001I-50000J0D01*
G01*
G37*
D19*
X170825500Y-103803001D03*
D18*
X170825500Y-96183001D03*
X170825500Y-88563001D03*
G36*
G01*
X166278000Y-107243001D02*
X164578000Y-107243001D01*
G75*
G02*
X164528000Y-107193001I0J50000D01*
G01*
X164528000Y-105493001D01*
G75*
G02*
X164578000Y-105443001I50000J0D01*
G01*
X166278000Y-105443001D01*
G75*
G02*
X166328000Y-105493001I0J-50000D01*
G01*
X166328000Y-107193001D01*
G75*
G02*
X166278000Y-107243001I-50000J0D01*
G01*
G37*
D19*
X165428000Y-103803001D03*
D18*
X165428000Y-96183001D03*
X165428000Y-88563001D03*
G36*
G01*
X160933500Y-107243001D02*
X159233500Y-107243001D01*
G75*
G02*
X159183500Y-107193001I0J50000D01*
G01*
X159183500Y-105493001D01*
G75*
G02*
X159233500Y-105443001I50000J0D01*
G01*
X160933500Y-105443001D01*
G75*
G02*
X160983500Y-105493001I0J-50000D01*
G01*
X160983500Y-107193001D01*
G75*
G02*
X160933500Y-107243001I-50000J0D01*
G01*
G37*
D19*
X160083500Y-103803001D03*
D18*
X160083500Y-96183001D03*
X160083500Y-88563001D03*
D20*
X136334500Y-147089500D03*
G36*
G01*
X135534500Y-143739500D02*
X137134500Y-143739500D01*
G75*
G02*
X137184500Y-143789500I0J-50000D01*
G01*
X137184500Y-145389500D01*
G75*
G02*
X137134500Y-145439500I-50000J0D01*
G01*
X135534500Y-145439500D01*
G75*
G02*
X135484500Y-145389500I0J50000D01*
G01*
X135484500Y-143789500D01*
G75*
G02*
X135534500Y-143739500I50000J0D01*
G01*
G37*
X136334500Y-137604500D03*
G36*
G01*
X137134500Y-140954500D02*
X135534500Y-140954500D01*
G75*
G02*
X135484500Y-140904500I0J50000D01*
G01*
X135484500Y-139304500D01*
G75*
G02*
X135534500Y-139254500I50000J0D01*
G01*
X137134500Y-139254500D01*
G75*
G02*
X137184500Y-139304500I0J-50000D01*
G01*
X137184500Y-140904500D01*
G75*
G02*
X137134500Y-140954500I-50000J0D01*
G01*
G37*
D21*
X129222500Y-140525500D03*
X129222500Y-143065500D03*
G36*
G01*
X130222500Y-146608000D02*
X128222500Y-146608000D01*
G75*
G02*
X128172500Y-146558000I0J50000D01*
G01*
X128172500Y-144653000D01*
G75*
G02*
X128222500Y-144603000I50000J0D01*
G01*
X130222500Y-144603000D01*
G75*
G02*
X130272500Y-144653000I0J-50000D01*
G01*
X130272500Y-146558000D01*
G75*
G02*
X130222500Y-146608000I-50000J0D01*
G01*
G37*
G36*
G01*
X157132762Y-110906500D02*
X156176238Y-110906500D01*
G75*
G02*
X155904500Y-110634762I0J271738D01*
G01*
X155904500Y-109928238D01*
G75*
G02*
X156176238Y-109656500I271738J0D01*
G01*
X157132762Y-109656500D01*
G75*
G02*
X157404500Y-109928238I0J-271738D01*
G01*
X157404500Y-110634762D01*
G75*
G02*
X157132762Y-110906500I-271738J0D01*
G01*
G37*
G36*
G01*
X157132762Y-112956500D02*
X156176238Y-112956500D01*
G75*
G02*
X155904500Y-112684762I0J271738D01*
G01*
X155904500Y-111978238D01*
G75*
G02*
X156176238Y-111706500I271738J0D01*
G01*
X157132762Y-111706500D01*
G75*
G02*
X157404500Y-111978238I0J-271738D01*
G01*
X157404500Y-112684762D01*
G75*
G02*
X157132762Y-112956500I-271738J0D01*
G01*
G37*
G36*
G01*
X154592762Y-110915500D02*
X153636238Y-110915500D01*
G75*
G02*
X153364500Y-110643762I0J271738D01*
G01*
X153364500Y-109937238D01*
G75*
G02*
X153636238Y-109665500I271738J0D01*
G01*
X154592762Y-109665500D01*
G75*
G02*
X154864500Y-109937238I0J-271738D01*
G01*
X154864500Y-110643762D01*
G75*
G02*
X154592762Y-110915500I-271738J0D01*
G01*
G37*
G36*
G01*
X154592762Y-112965500D02*
X153636238Y-112965500D01*
G75*
G02*
X153364500Y-112693762I0J271738D01*
G01*
X153364500Y-111987238D01*
G75*
G02*
X153636238Y-111715500I271738J0D01*
G01*
X154592762Y-111715500D01*
G75*
G02*
X154864500Y-111987238I0J-271738D01*
G01*
X154864500Y-112693762D01*
G75*
G02*
X154592762Y-112965500I-271738J0D01*
G01*
G37*
D22*
X149476500Y-113587500D03*
X149476500Y-123587500D03*
X129476500Y-128587500D03*
G36*
G01*
X128601500Y-109412500D02*
X128601500Y-107762500D01*
G75*
G02*
X128651500Y-107712500I50000J0D01*
G01*
X130301500Y-107712500D01*
G75*
G02*
X130351500Y-107762500I0J-50000D01*
G01*
X130351500Y-109412500D01*
G75*
G02*
X130301500Y-109462500I-50000J0D01*
G01*
X128651500Y-109462500D01*
G75*
G02*
X128601500Y-109412500I0J50000D01*
G01*
G37*
G36*
G01*
X159496500Y-112151500D02*
X159146500Y-112151500D01*
G75*
G02*
X158971500Y-111976500I0J175000D01*
G01*
X158971500Y-110276500D01*
G75*
G02*
X159146500Y-110101500I175000J0D01*
G01*
X159496500Y-110101500D01*
G75*
G02*
X159671500Y-110276500I0J-175000D01*
G01*
X159671500Y-111976500D01*
G75*
G02*
X159496500Y-112151500I-175000J0D01*
G01*
G37*
G36*
G01*
X160766500Y-112151500D02*
X160416500Y-112151500D01*
G75*
G02*
X160241500Y-111976500I0J175000D01*
G01*
X160241500Y-110276500D01*
G75*
G02*
X160416500Y-110101500I175000J0D01*
G01*
X160766500Y-110101500D01*
G75*
G02*
X160941500Y-110276500I0J-175000D01*
G01*
X160941500Y-111976500D01*
G75*
G02*
X160766500Y-112151500I-175000J0D01*
G01*
G37*
G36*
G01*
X162036500Y-112151500D02*
X161686500Y-112151500D01*
G75*
G02*
X161511500Y-111976500I0J175000D01*
G01*
X161511500Y-110276500D01*
G75*
G02*
X161686500Y-110101500I175000J0D01*
G01*
X162036500Y-110101500D01*
G75*
G02*
X162211500Y-110276500I0J-175000D01*
G01*
X162211500Y-111976500D01*
G75*
G02*
X162036500Y-112151500I-175000J0D01*
G01*
G37*
G36*
G01*
X163306500Y-112151500D02*
X162956500Y-112151500D01*
G75*
G02*
X162781500Y-111976500I0J175000D01*
G01*
X162781500Y-110276500D01*
G75*
G02*
X162956500Y-110101500I175000J0D01*
G01*
X163306500Y-110101500D01*
G75*
G02*
X163481500Y-110276500I0J-175000D01*
G01*
X163481500Y-111976500D01*
G75*
G02*
X163306500Y-112151500I-175000J0D01*
G01*
G37*
G36*
G01*
X164576500Y-112151500D02*
X164226500Y-112151500D01*
G75*
G02*
X164051500Y-111976500I0J175000D01*
G01*
X164051500Y-110276500D01*
G75*
G02*
X164226500Y-110101500I175000J0D01*
G01*
X164576500Y-110101500D01*
G75*
G02*
X164751500Y-110276500I0J-175000D01*
G01*
X164751500Y-111976500D01*
G75*
G02*
X164576500Y-112151500I-175000J0D01*
G01*
G37*
G36*
G01*
X165846500Y-112151500D02*
X165496500Y-112151500D01*
G75*
G02*
X165321500Y-111976500I0J175000D01*
G01*
X165321500Y-110276500D01*
G75*
G02*
X165496500Y-110101500I175000J0D01*
G01*
X165846500Y-110101500D01*
G75*
G02*
X166021500Y-110276500I0J-175000D01*
G01*
X166021500Y-111976500D01*
G75*
G02*
X165846500Y-112151500I-175000J0D01*
G01*
G37*
G36*
G01*
X167116500Y-112151500D02*
X166766500Y-112151500D01*
G75*
G02*
X166591500Y-111976500I0J175000D01*
G01*
X166591500Y-110276500D01*
G75*
G02*
X166766500Y-110101500I175000J0D01*
G01*
X167116500Y-110101500D01*
G75*
G02*
X167291500Y-110276500I0J-175000D01*
G01*
X167291500Y-111976500D01*
G75*
G02*
X167116500Y-112151500I-175000J0D01*
G01*
G37*
G36*
G01*
X168386500Y-112151500D02*
X168036500Y-112151500D01*
G75*
G02*
X167861500Y-111976500I0J175000D01*
G01*
X167861500Y-110276500D01*
G75*
G02*
X168036500Y-110101500I175000J0D01*
G01*
X168386500Y-110101500D01*
G75*
G02*
X168561500Y-110276500I0J-175000D01*
G01*
X168561500Y-111976500D01*
G75*
G02*
X168386500Y-112151500I-175000J0D01*
G01*
G37*
G36*
G01*
X168386500Y-117101500D02*
X168036500Y-117101500D01*
G75*
G02*
X167861500Y-116926500I0J175000D01*
G01*
X167861500Y-115226500D01*
G75*
G02*
X168036500Y-115051500I175000J0D01*
G01*
X168386500Y-115051500D01*
G75*
G02*
X168561500Y-115226500I0J-175000D01*
G01*
X168561500Y-116926500D01*
G75*
G02*
X168386500Y-117101500I-175000J0D01*
G01*
G37*
G36*
G01*
X167116500Y-117101500D02*
X166766500Y-117101500D01*
G75*
G02*
X166591500Y-116926500I0J175000D01*
G01*
X166591500Y-115226500D01*
G75*
G02*
X166766500Y-115051500I175000J0D01*
G01*
X167116500Y-115051500D01*
G75*
G02*
X167291500Y-115226500I0J-175000D01*
G01*
X167291500Y-116926500D01*
G75*
G02*
X167116500Y-117101500I-175000J0D01*
G01*
G37*
G36*
G01*
X165846500Y-117101500D02*
X165496500Y-117101500D01*
G75*
G02*
X165321500Y-116926500I0J175000D01*
G01*
X165321500Y-115226500D01*
G75*
G02*
X165496500Y-115051500I175000J0D01*
G01*
X165846500Y-115051500D01*
G75*
G02*
X166021500Y-115226500I0J-175000D01*
G01*
X166021500Y-116926500D01*
G75*
G02*
X165846500Y-117101500I-175000J0D01*
G01*
G37*
G36*
G01*
X164576500Y-117101500D02*
X164226500Y-117101500D01*
G75*
G02*
X164051500Y-116926500I0J175000D01*
G01*
X164051500Y-115226500D01*
G75*
G02*
X164226500Y-115051500I175000J0D01*
G01*
X164576500Y-115051500D01*
G75*
G02*
X164751500Y-115226500I0J-175000D01*
G01*
X164751500Y-116926500D01*
G75*
G02*
X164576500Y-117101500I-175000J0D01*
G01*
G37*
G36*
G01*
X163306500Y-117101500D02*
X162956500Y-117101500D01*
G75*
G02*
X162781500Y-116926500I0J175000D01*
G01*
X162781500Y-115226500D01*
G75*
G02*
X162956500Y-115051500I175000J0D01*
G01*
X163306500Y-115051500D01*
G75*
G02*
X163481500Y-115226500I0J-175000D01*
G01*
X163481500Y-116926500D01*
G75*
G02*
X163306500Y-117101500I-175000J0D01*
G01*
G37*
G36*
G01*
X162036500Y-117101500D02*
X161686500Y-117101500D01*
G75*
G02*
X161511500Y-116926500I0J175000D01*
G01*
X161511500Y-115226500D01*
G75*
G02*
X161686500Y-115051500I175000J0D01*
G01*
X162036500Y-115051500D01*
G75*
G02*
X162211500Y-115226500I0J-175000D01*
G01*
X162211500Y-116926500D01*
G75*
G02*
X162036500Y-117101500I-175000J0D01*
G01*
G37*
G36*
G01*
X160766500Y-117101500D02*
X160416500Y-117101500D01*
G75*
G02*
X160241500Y-116926500I0J175000D01*
G01*
X160241500Y-115226500D01*
G75*
G02*
X160416500Y-115051500I175000J0D01*
G01*
X160766500Y-115051500D01*
G75*
G02*
X160941500Y-115226500I0J-175000D01*
G01*
X160941500Y-116926500D01*
G75*
G02*
X160766500Y-117101500I-175000J0D01*
G01*
G37*
G36*
G01*
X159496500Y-117101500D02*
X159146500Y-117101500D01*
G75*
G02*
X158971500Y-116926500I0J175000D01*
G01*
X158971500Y-115226500D01*
G75*
G02*
X159146500Y-115051500I175000J0D01*
G01*
X159496500Y-115051500D01*
G75*
G02*
X159671500Y-115226500I0J-175000D01*
G01*
X159671500Y-116926500D01*
G75*
G02*
X159496500Y-117101500I-175000J0D01*
G01*
G37*
D18*
X139636500Y-92265500D03*
X134556500Y-92265500D03*
G36*
G01*
X183008892Y-94126000D02*
X185926108Y-94126000D01*
G75*
G02*
X186192500Y-94392392I0J-266392D01*
G01*
X186192500Y-95484608D01*
G75*
G02*
X185926108Y-95751000I-266392J0D01*
G01*
X183008892Y-95751000D01*
G75*
G02*
X182742500Y-95484608I0J266392D01*
G01*
X182742500Y-94392392D01*
G75*
G02*
X183008892Y-94126000I266392J0D01*
G01*
G37*
G36*
G01*
X183008892Y-88151000D02*
X185926108Y-88151000D01*
G75*
G02*
X186192500Y-88417392I0J-266392D01*
G01*
X186192500Y-89509608D01*
G75*
G02*
X185926108Y-89776000I-266392J0D01*
G01*
X183008892Y-89776000D01*
G75*
G02*
X182742500Y-89509608I0J266392D01*
G01*
X182742500Y-88417392D01*
G75*
G02*
X183008892Y-88151000I266392J0D01*
G01*
G37*
G36*
G01*
X177928892Y-94126000D02*
X180846108Y-94126000D01*
G75*
G02*
X181112500Y-94392392I0J-266392D01*
G01*
X181112500Y-95484608D01*
G75*
G02*
X180846108Y-95751000I-266392J0D01*
G01*
X177928892Y-95751000D01*
G75*
G02*
X177662500Y-95484608I0J266392D01*
G01*
X177662500Y-94392392D01*
G75*
G02*
X177928892Y-94126000I266392J0D01*
G01*
G37*
G36*
G01*
X177928892Y-88151000D02*
X180846108Y-88151000D01*
G75*
G02*
X181112500Y-88417392I0J-266392D01*
G01*
X181112500Y-89509608D01*
G75*
G02*
X180846108Y-89776000I-266392J0D01*
G01*
X177928892Y-89776000D01*
G75*
G02*
X177662500Y-89509608I0J266392D01*
G01*
X177662500Y-88417392D01*
G75*
G02*
X177928892Y-88151000I266392J0D01*
G01*
G37*
D23*
X141973300Y-144310100D03*
G36*
G01*
X142873300Y-146000100D02*
X142873300Y-147700100D01*
G75*
G02*
X142823300Y-147750100I-50000J0D01*
G01*
X141123300Y-147750100D01*
G75*
G02*
X141073300Y-147700100I0J50000D01*
G01*
X141073300Y-146000100D01*
G75*
G02*
X141123300Y-145950100I50000J0D01*
G01*
X142823300Y-145950100D01*
G75*
G02*
X142873300Y-146000100I0J-50000D01*
G01*
G37*
D24*
X149491700Y-145453100D03*
G36*
G01*
X146091700Y-146238395D02*
X146091700Y-144667805D01*
G75*
G02*
X146356405Y-144403100I264705J0D01*
G01*
X147626995Y-144403100D01*
G75*
G02*
X147891700Y-144667805I0J-264705D01*
G01*
X147891700Y-146238395D01*
G75*
G02*
X147626995Y-146503100I-264705J0D01*
G01*
X146356405Y-146503100D01*
G75*
G02*
X146091700Y-146238395I0J264705D01*
G01*
G37*
G36*
G01*
X183008892Y-102236000D02*
X185926108Y-102236000D01*
G75*
G02*
X186192500Y-102502392I0J-266392D01*
G01*
X186192500Y-103594608D01*
G75*
G02*
X185926108Y-103861000I-266392J0D01*
G01*
X183008892Y-103861000D01*
G75*
G02*
X182742500Y-103594608I0J266392D01*
G01*
X182742500Y-102502392D01*
G75*
G02*
X183008892Y-102236000I266392J0D01*
G01*
G37*
G36*
G01*
X183008892Y-96261000D02*
X185926108Y-96261000D01*
G75*
G02*
X186192500Y-96527392I0J-266392D01*
G01*
X186192500Y-97619608D01*
G75*
G02*
X185926108Y-97886000I-266392J0D01*
G01*
X183008892Y-97886000D01*
G75*
G02*
X182742500Y-97619608I0J266392D01*
G01*
X182742500Y-96527392D01*
G75*
G02*
X183008892Y-96261000I266392J0D01*
G01*
G37*
D23*
X155130500Y-119443500D03*
G36*
G01*
X156030500Y-121133500D02*
X156030500Y-122833500D01*
G75*
G02*
X155980500Y-122883500I-50000J0D01*
G01*
X154280500Y-122883500D01*
G75*
G02*
X154230500Y-122833500I0J50000D01*
G01*
X154230500Y-121133500D01*
G75*
G02*
X154280500Y-121083500I50000J0D01*
G01*
X155980500Y-121083500D01*
G75*
G02*
X156030500Y-121133500I0J-50000D01*
G01*
G37*
D25*
X140144500Y-100647500D03*
X132644500Y-99014170D03*
D24*
X149502500Y-138493500D03*
G36*
G01*
X146102500Y-139278795D02*
X146102500Y-137708205D01*
G75*
G02*
X146367205Y-137443500I264705J0D01*
G01*
X147637795Y-137443500D01*
G75*
G02*
X147902500Y-137708205I0J-264705D01*
G01*
X147902500Y-139278795D01*
G75*
G02*
X147637795Y-139543500I-264705J0D01*
G01*
X146367205Y-139543500D01*
G75*
G02*
X146102500Y-139278795I0J264705D01*
G01*
G37*
D16*
X147256500Y-99377500D03*
D18*
X146748500Y-94297500D03*
X146748500Y-89217500D03*
M02*
