/* XPM */
static char *bkcl_xpm[] = {
/* width height num_colors chars_per_pixel */
"   110    28       16            1",
/* colors */
"` c #040204",
". c #3c9684",
"# c #34ce9c",
"a c #5cdac4",
"b c #244644",
"c c #7ce6ec",
"d c #6cdedc",
"e c #246a5c",
"f c #14322c",
"g c #4cb2a4",
"h c #4cd6bc",
"i c #3c7274",
"j c #64decc",
"k c #000000",
"l c #000000",
"m c #000000",
/* pixels */
"cccccccdccdccddddddajajaaaaahhhdddddddjajadadadaaaadaaaadaaaaaaahhhhhhhhah####################################",
"cdccccccccccccdddddddjjajaaaaaaaadadadadaaaaaaaaaaaaaadaaaaaaaahhhhhahhagahg##################################",
"cccdccdccdccdcdcddddddjjjaaaaaaaaaaaaaaaadaaddddadaadaaaaaaaahaaaahhhhhhhhhh##################################",
"cccccccccccccccccdddddddajjaaaaaaaaaacddddddddajaadaaaaaaaaadadaaaahhhahhhhhhg################################",
"ccccccdccdccccccdccddddddajjadaaaaahacddddddjjjadaaaaaaahadddjaaaaaahhhhhahhah################################",
"ddccdcccccccdcdccccccddif.djjaaaaaadaddddjajajaaaaaaaaaccddddjajaaaahhhahhhhhhh###############################",
"dddccccccdcccccccdccccdg``ddg.jajaaaaadjaajaaaaaaaahccccccddddjjjgegahhhhhhahhh###############################",
"dddddccdcccdccccccccdccc`fjde`bajjaaaaaaaaaaaa`bhdccccdccdcaiadajh`fahhahhhhhhhh#########efe##################",
"ajddddcccccccdcdcccdiiac`fd.`fjjjajaaaaaahiihab`dcdccccccccd``djja`faahhhhhhhhhh..efeff`fff`f#################",
"djaddddcccdcccccccccf`bcff.`iaddddjjjag.b```fdffdccccdcccdcg`fddajffhaahhahh#ef```fff.f`.#e`f#################",
"dddddddddcccccccdcccceidbbgdddddddjjj.``fgf`gdfbcccdccccdcce`.agjafbaaahhhhhgee``##ff#e`..e`.#################",
"cccdddddddcccdccccccdccdffbbbadddddddjhga.`gjaficcccccccccc``b``eafeggahhhhhhhhf`h#e`b```bf`##################",
"dcccccddddddcccccccdib````bi.ddddddddjaj.f.aaa`iddcccdcccd.`eif`iafef`fghhahhhhf`.#i`.bf##`f##################",
"ccccdccdcdddddccccdcgi.gfbdcccccdddddddjg`.haa`idccdcccdccffcd`fddfihb``hhhhhgif``b.`#ef.e`b##################",
"cdccccccccccdddddcccccccbfiibf``fiddddddaffbfa`.acccdcccci`bg.`iddfija.fghhahef``.h#`f``ff`i##################",
"cccccccdcccdccdddag.ibf```bbeiiiebddddddhf`iaj`gaaccccdca`gi`f`add`bjaaaahhhhhhffhh#e.ef##e###################",
"ccccdccccccccccdf```figabbdccdccccdcddab`f`ajj`.aahddiccgadci`fjdd`faaaaahhhhhhffifb##e`ee.###################",
"dddcccdccdcccdcccaddddddbbccccccccccgb``ig`jja`eaaaagfdccccd`f`fgd`iajaaahahhhgf``e.````fb.###################",
"jddddccccccccccccdcccdddffccdccdccdcf`fad.`ddjfbaaaae`cccdcffddf`ifijjaaaahhie``f###..bf######################",
"ajaddddcccccdcccccccccdcffddccccccccdgccdi`dddb`igg.``.cccffaccdb``iaaaaaahhf``.hhh###ef###..#################",
"aaaadadddcccccdccccdccccbbddddjccdccccdibf`dddaf`````f.aafbcccdcdi``fb.gaahhh.gh#..ieef``````f################",
"hhaaaadddddcccccdcdccdccbbccdddddcccdccdf`bddcddg.i.gaaabgccdcccddgf`````bhahhahgf`ffe..i...i.######g####g####",
"hhhhaaaajddddcccccccccdcbbcdcddddddcccccg`gdddddajjajaaaaaccccccdddaiiighhhhhhhhhhh###########################",
"#hhhhhaaaadddddccccdcccceicccccddddddcccccddddcddjjajaaaahdchhdcddddadaaaahhhhhhhh############################",
"###hhhhhaaaajddddccccccccdcccccccddddjdccccdddddddjjjjaaaaaahaaaadddjadaaahhhhhhhh############################",
"#####hhhahaaadadddccccdcdcdcdcdcdcdddddjccdcdddddddjajaaaaajahaajaajahhhaahahhahhh#####################ahahhah",
"######hhhhhaaaajddddccccccccccccccccdddddccccddddddjjajjaaaaaahaaaaaaaahhhhhhhhhhh##################hhhhhhhhhh",
"h#######hhhhhaaajjddddcccccccccccccccdddddjcccddddddjjajjaaaaaahaaaaaaaaaaahhhhhhh#################hhhhhhhhhhh"
};
