/* XPM */
static char *ccdb[] = {
/* columns rows colors chars-per-pixel */
"130 40 67 1",
"  c #000706",
". c #000C07",
"X c #000D0A",
"o c #001007",
"O c #00120C",
"+ c #00190F",
"@ c #001311",
"# c #001A13",
"$ c #021D1A",
"% c #00241C",
"& c #8CBEB5",
"* c #94C5BC",
"= c #93C8BE",
"- c #98C7BF",
"; c #A0C0BD",
": c #96CCC1",
"> c #9BC7C0",
", c #9CCDC4",
"< c #97D2C6",
"1 c #9BD1C6",
"2 c #9ED4CA",
"3 c #9DD9CD",
"4 c #A2C6C2",
"5 c #A3CCC6",
"6 c #A5CEC8",
"7 c #AAC5C3",
"8 c #A9CAC7",
"9 c #AACDC9",
"0 c #A3D3C7",
"q c #A3D4CC",
"w c #A3D9CE",
"e c #ABD4CE",
"r c #ABD9CF",
"t c #A7DCD2",
"y c #ADD6D0",
"u c #AADBD3",
"i c #B0C9C5",
"p c #B3CDCB",
"a c #B9CDCC",
"s c #BACFD0",
"d c #B3D1CD",
"f c #B9D2CE",
"g c #B3D5D1",
"h c #B2DBD5",
"j c #B5DED8",
"k c #BAD5D3",
"l c #BADBD6",
"z c #BBDDD9",
"x c #A6E1D5",
"c c #A7E5D8",
"v c #ABE1D6",
"b c #ADE3D9",
"n c #AEEADE",
"m c #B3E4DB",
"M c #B3E9DE",
"N c #BAE3DD",
"B c #B5EBE1",
"V c #BEE7E1",
"C c #BBEBE3",
"Z c #B7F1E5",
"A c #BEF2E8",
"S c #C2D6D4",
"D c #C3DBD9",
"F c #C3E1DF",
"G c #C7E5E3",
"H c #C4E9E4",
"J c #C3F4EC",
/* pixels */
"ttttttttttttttttttttttttttttttttuuutttxx33xxtttut3tttxxtt3ututtttt3xxttx3ttttttuttttettttttttttttttttttttttttttttttttttttttttttttt",
"ttttttttttttttttttttttttttttttttuuuuxtxxxx3xtttutxttt33ttttttutttxtxx3t3ttttttttttttttttettttttttttttttttttttttttttttttttttttttttt",
"ttttttttttttttttttttttttttttttttuuuuttttttxttuuuttttttxxttttututtxtttt3ttttttttttttttttttttttttttttttttttttttttttttttttttttttttttt",
"ttttttttttttttttttttttttttttttttuuhuutttttxxttuuttttuttttuttuuuttx3ttxxtxxt3tttttttttttttttttttttttttttttttttttttttttttttttttttttt",
"ttttttttttttttttttttttttttttttttrrrhrxrxttuttuuuquuuuuuuutuutttutttt3xxtxxt3xx3tx3tx3xttttxx3ttttttttttttttttttttttttttttttttttttt",
"ttttttttttttttttttttttttttttttttvrrrrrxrttttttuuuuuuuuuuuuututtttttttxx33ttx3txtxttttxxtttttttt3tttttttttttttttttttttttttttttttttt",
"ttttttttttttttttttttttttttttttttrrrrrrrxtttttttuuttuuuuuututttttttttttttttx3xxxxttttttttttttxttxtttttttttttttttttttttttttttttttttt",
"ttttttttttttttttttttttttttttttttvrrrxxrctttttttttttttttttttt3x3xttttttttxtx3t3tt3xxt3xttttx3x3txtttttttttttttttttttttttttttttttttt",
"ttttttttttttttttttttttttttttttttMxr0c0c0wwxxtxww3xt<bqwubqwn33n3u1m2ttytxtutttqtbqu,bbtutqnutqtntttttttttttttttttttttttttttttttttt",
"ttttttttttttttttttttttttttttttttw0crMc0vwM-0vwwbx<b3bb3qn2u3b33ntuhubC>t,wbwqtttqtbMqtqtu3m:bbt,tttttttttttttttttttttttttttttttttt",
"ttttttttttttttttttttttttttttttttwcb-x0wwvvhrvvt13c33u2bq,Bum,b<tqMtw,ttuBuquuuuuMt,uqbtbeqbheuqJtttttttttttttttttttttttttttttttttt",
"ttttttttttttttttttttttttttttttttMx-MvrH0r-N0rr0N3B3t2uehuX6qmqbbb,uMh,Bt,Neee$je,Cybotm,uw#1utm&tttttttttttttttttttttttttttttttttt",
"ttttttttttttttttttttttttttttttttrvv-oooooooo#...B22$beN9z Fhy9V,tttMuhyuhjgNhXghN,tu@ewjmtXNeuymtttttttttttttttttttttttttttttttttt",
"ttttttttttttttttttttttttttttttttrrrh+lpSfS;fppfO2bBqXysXk k8gz4zuemXX.XXj4ezg$de5NhhXN>NemXmy,Nutttttttttttttttttttttttttttttttttt",
"tttttttttttttttttttttttttttttttrrNr-.dSaSSDDaSS.h,jhXF8XsX $@ X Xt,muqy@N8z88Xz9N0eh.qHqh0%eyj6ytttttttttttttttttttttttttttttttttt",
"ttttttttttttttttttttttttttttttttrr0l...   O.X  .ejeeXs@s Dk pDpXutueejyX9@XX@XXXoNye.j5jly.gjhyhtttttttttttttttttttttttttttttttttt",
"tttttttttttttttttttttttttttttttttqye@9zppkD8zk5jywNqel.g.glXehXhutuOeme.gkN9y.etmqmy.X...G.lgh@.X2jtwu2ctt3ttttttttttttttttttttttt",
"ttttttttttttttttttttttttttttttttbhby.egXXOXOXXXqmuuhh.eXeeeojuNwt2ttogkX9z9hjOyu,mwh.gkzD&XXX.9VhC1utbbtxttttuyttttttttttttttttttt",
"tttttttttttttttttttttttttttttttt3b1qohN5g6yyuqmmeyy6eOglgNN.eu5u,Cwhe.X9z.eV5Xmtbuqt.VgykF.99Ne5>tuuuw2b3ttttttttttttttttttttttttt",
"ttttttttttttttttttttttttttttttttt3mjO5ylzjl8jyyewNj5#ej8de..j0eCube,VNXlek.yg#yuqtmw.y5l9z.VyN9jmhB,qb3ttttwttyttttttttttttttttttt",
"ttttttttttttttttttttttttttttttttyyyy.X.  XXX@  @X5X%.6yjyjXh.Hu,m:Nwj.N.9gX.HXtjbq*C@eNez8.l4yhej&hBwuu3xttttttttttttttttttttttttt",
"ttttttttttttttttttttttttttttttttyyeN$9F7Xskskpszlhy.gNjel.yNoyhmwtm6.y4#He.Ny#ywtMM-.h9geg#yNeyh2Cetuuttx3xxtttttttttttttttttttttt",
"tttttttttttttttttttttttttttttttt3nqtXj5zXgg9gXV5jur.N56jXyheVoyqqmyy#jg9.glee.yy,b1VOe5@Ne.j5mmwXuutb2<t3x3ttttttttttttttttttttttt",
"ttttttttttttttttttttttttttttttttu2BeoyhXhg4Hj6Xhh0N.6mVXyheyyu.hN>NXejyh@ejygO0Nutm2oNXyehOyhwwhXj2tttB3txtttttttttttttttttttttttt",
"tttttttttttttttttttttttttttttttthyh.9k.   X . .@eVq0yX.uyhyetN..XC.wmy0jyhyeyoeuwutb..mege.utm6BXmuqqB3uxwxxtttttttttttttttttttttt",
"tttttttttttttttttttttttttttttttye6hO9GkgzgkdkG.9j,N.#e0utywuu5Cot,tqhhyyymqOmoqyutbq@B,ubuhoXXoo#-mC2qqctwwttttttttttttttttttttttt",
"ttttttttttttttttttttttttttttttttvbOqttyueeqjeeNN0jwuwwJqutMqm>mqmuyMqtmuu,ChXN,mb>uu2ubq0utbbwwh,meu3bb3wxxwtttttttttttttttttttttt",
"ttttttttttttttttttttttttttttttttt3tbttttubM3tquwtCqtbt1t3uqvuuqC:bqwut2bmm:uuwmqtNwMte,MbbqthtBwAtubwubqxtwxtttttttttttttttttttttt",
"ttttttttttttttttttttttttttttttttyqmqtyuuue1Jwtutbt*Mwtbb3v23vtM*B3nwwvtt:mmwtqtuqwM:2b3uwwwA=b:n,>buttwvtwtttttutttttttttttttttttt",
"ttttttttttttttttttttttttttttttttwjhj6C,ttuu,qvwbw3bB1v33xxc:tq:Bqb=Z1xb3n13Mwqbvqu,Cutt3um3qtuCqBhw2umttttxwtttttttttttttttttttttt",
"ttttttttttttttttttttttttttttttttMtqqbt3xtx3ncc<ctuq1tntx3xxn3Bn:txcxcn<t:Bx<xbu:uMb3:uvxt1vvct1wqytuttttttttttuttttttttttttttttttt",
"tttttttttttttttttttttttttttttttt1ntux:n3x3x333n3wtcc333xc3ttwt3xx3xw3v3cb23B2ttvqbqvbqttwMt3wtbtuuqMwtutttwttttttttttttttttttttttt",
"tttttttttttttttttttttttttttttttttttttttttttttttttttttxxx3ttttttttttxtttxttttttttttttttttttttttttuutttttttttttttttttttttttttttttttt",
"tttttttttttttttttttttttttttttttttttttttttttttttttttttttttttttttttttttttttttttttttttttttttttttttttttttttttttttttttttttttttttttttttt",
"tttttttttttttttttttttttttttttttttttttttttttttttttttttttttttttttttttttttttttttttttttttttttttttttttttttttttttttttttttttttttttttttttt",
"tttttttttttttttttttttttttttttttttttttttttttttttttttttttttttttttttttttttttttttttttttttttttttttttttttttttttttttttttttttttttttttttttt",
"tttttttttttttttttttttttttttttttttttttttttttttttttttttttttttttttttttttttttttttttttttttttttttttttttttttttttttttttttttttttttttttttttt",
"tttttttttttttttttttttttttttttttttttttttttttttttttttttttttttttttttttttttttttttttttttttttttttttttttttttttttttttttttttttttttttttttttt",
"tttttttttttttttttttttttttttttttttttttttttttttttttttttttttttttttttttttttttttttttttttttttttttttttttttttttttttttttttttttttttttttttttt",
"tttttttttttttttttttttttttttttttttttttttttttttttttttttttttttttttttttttttttttttttttttttttttttttttttttttttttttttttttttttttttttttttttt"
};
