/* XPM */
static char *cjedit_xpm[] = {
/* width height num_colors chars_per_pixel */
"   120    28       16            1",
/* colors */
"` c #040204",
". c #4c869c",
"# c #74cafc",
"a c #243a44",
"b c #fcfefc",
"c c #64aacc",
"d c #8ceafc",
"e c #84dae4",
"f c #446e7c",
"g c #14222c",
"h c #2c4e5c",
"i c #5496b4",
"j c #6cbadc",
"k c #84dafc",
"l c #000000",
"m c #000000",
/* pixels */
"##kdddddkk####kkddddddddkk#######kkkkdddddddddddddddddddddddddddkkkk#######kkdddk###kddddd###ddddk##kdddk##dddk##dddk#kd",
"##kdddddkk###kkdddddddddkkk######e#kkkk#dddddddddddddddddddkdkkkkk#######kkddddkk##kkddddk##kddddk##ddddk##dddk##ddd##dd",
"##kdddddk####kkkddddddddkk#k######k#kkkkkkdddddddddddddkdkk#ke#########kkddddddkk###dddddk##kdddd##kkddd##kdddk#kddd##dd",
"##kddddk#####kkdddddddddkkk##########kkkkdkkdkkddddkkkkkk#k#########kkkddddddddk###kddddd###kdddd##kdddk##kddd##kddd##dd",
"##kddddk####kkddddddddddkkkj####j##e##kkkkkkkkkkddkkkk#e##########kkkdddddddddd####kdddddk##kdddd##kdddk##kddd##kddk##dd",
"##kdddd#####kkdddddddddkkkk##########k#k#kk#k##ddkkkk##########kkkddddddddddddkk###kddddk###ddddk##kdddk##dddk##dddk#kdd",
"##kddddk###kkddddddddddkkk#k##########k#kj#k#k##k#ig.########kkkdddddddddddddddk###kddddk###ddddk##kdddd##dddd##dddd#kdd",
"#kkdddd#####kdddddddddkdkk#ci######fac############c`hk###k#kddddddddddddkkddddd###kdddddk##kddddk##ddddk##dddk##ddd##kdd",
"##kdddd###kkddddddddddkkkk#h`.k####i`aje#####kk##kj`hccjkkkkjcccccjedddkk##eiedk##ifcdddk###ddddk##kdddk##dddd##dddk#kdd",
"##dddd###kkddddddddddkdkkkj``f###kkc`a#####e#i.jcfh`aa`addddi``gaa`aekk##jfg`ekk#cg`gdddk##kedddk##dddd##kdddk##ddd##ddd",
"#kkddd##kkdddddddddddkkkkkh`h`aiifjjga####ifa``.jh.gff``hfiddi`edbha#k###j.gged###fh.dddk##dfiddk##ddddk##dddk##dddk#kdd",
"#kdddd#kkddddddddddddkkkk.`f#f`g.`f#aa####ihh`a...h`aa`afhedd.`cdkc.###kkedf`edk##ddddddk#ke`cddk##dddd##kddd##kddd##ddd",
"#dddddkkdddddddddddkkkkkcga#kk.figaega######igcff.igha`jddddb.`cdehj###cgagggedk##ja.dddkk.g`ahce##ddddk##dddd##ddd##ddd",
"kkddd#kddddddddddddkkkkcg`.iagi#cgh#aa#####jghcj.aa`ahfedddddfgfjfgc##j`aec`ged#kig`.dddk#ji`.eek##dddd##kddd##kddd##ddd",
"kdddddkddddddddddkkkkkigagghf`hkjghkga###jkfg``c#jighfidddddd.`ahggckkh`eddagedk#k.`fdbkk##j`iddk##kdddk##dddk##dddk#kdd",
"kdddkdddddddddddkkkkkcgf#aa#.`ikcghdaa####k#kh`echaga..dddddd.`ckcajkdgaddehgedk##i`.dddk##j`iddk##dddd##kdddk#kddd##ddd",
"ddddddddddddddkkkk##kice#gai``jkcghdha###cffc`.jci.gh.hhcdddd.`ck#cjdd`addeh`edk#k.`fdddd##j`iddk##kdddk##dddd##ddd##kdd",
"dddddddddddddkkkkj#######ahjgfjf#fikaa##kifhg`.iffh`hfifcddkd.`cdkdhidg`dd#agddk#k.`.dddkk#j`cddk##ddddk##dddk##dddk#ddd",
"ddddddddddkkkk#e#########hg##k.`jk##aac###dj`hggfcdaibddddkkd.`idde`cdf`.dj``iedkki`fdbddk#c`fdie##kdddd##dddd##dddk#kdd",
"dddddddddkk#k############i`gfhg`c#jjga###kcgfejfggfgedddddkk.g`gagg`ede``haggfedkia`gfdddk#jg`aak##kdddk##dddk##dddk#kdd",
"dddddddkkk##############k#.hgaai#jhg`h##ecgfkkddjf``g.ede#e#c..i..icdddjff.#edddkc...ceddd##if.edk##dddd##kddd##kddk##dd",
"dddddk#k##########k#k#kk#kk#k#k##kja`h###ickkkkddddfg```ghfj##kkddddddkk###kddddd###kddddk###ddddk##dddd##dddd##dddk#kdd",
"ddkkk##########kkk#kkkkkkkkkkkk#k#kihc####k#kkddddddd.aaf.j###kkddddddk###kddddddk###dddddk##kdddk##kddd###dddk#kddd##dd",
"kkk#########kkkkkkdkkdkkdkkkkkkk#k#kk######kkkdddddddddddk###kkddddddk###kkddddddk###kddddk##kdddk##ddddk#kdddk#kddd##dd",
"#########kkkkkkdkddddkddkddkdkkkkkk#k#######ddddddddddddk####kkdddddd####kddddddddk##kddddk##kdddd###dddd##dddk##ddd##kd",
"#######kkkddddddddddddddddddddkdkkkk#####dkkkk######kkkkkd###kddddddk###kdddddkdddk###ddddd###ddddk##dddk##dddk##dddk#dd",
"##kkk#dddddddddddddddddddddddddkdkkk#dk#k###k#kkkkkk#k###kkkddddddddk###kddddk#kddkk##kddddk##kdddk##kddd##kddd##kddk#kd",
"kdkdddddkkdddddddddddddddddddddddkdkk###kkdddddddddddddkk###kddddddk###kdddddk#ddddk###ddddk##kdddk##kdddk#kdddk#dddk#kd"
};
