/* XPM */
static char *cltp[] = {
/* columns rows colors chars-per-pixel */
"130 30 83 1",
"  c #000604",
". c #000B05",
"X c #000E0A",
"o c #001006",
"O c #00120C",
"+ c #00180E",
"@ c #001611",
"# c #001B13",
"$ c #001D19",
"% c #00201B",
"& c #002A1E",
"* c #97BEB9",
"= c #A0BDBB",
"- c #8DC5BA",
"; c #92C4BC",
": c #9AC7BD",
"> c #9DCBBF",
", c #A4C2BD",
"< c #94CDC2",
"1 c #9CC7C1",
"2 c #9CCDC3",
"3 c #92D2C4",
"4 c #95D6C9",
"5 c #9CD2C6",
"6 c #9DD3C9",
"7 c #9DDACE",
"8 c #9EDED1",
"9 c #A3C6C0",
"0 c #A3CCC5",
"q c #A5CEC9",
"w c #ACC5C3",
"e c #ACCBC5",
"r c #ABCDC9",
"t c #A5D1C6",
"y c #A3D4CB",
"u c #A3DACE",
"i c #ABD4CD",
"p c #ABDACF",
"a c #A5D7D0",
"s c #A7DCD2",
"d c #AED6D1",
"f c #A9DBD2",
"g c #ACDFD8",
"h c #B2CAC6",
"j c #B3CECA",
"k c #B9CECC",
"l c #B3D3CD",
"z c #B0D9CF",
"x c #BCD2CE",
"c c #B3D5D1",
"v c #B2DCD4",
"b c #B4DED9",
"n c #BBD5D2",
"m c #BADBD5",
"M c #BBDED9",
"N c #A4E1D5",
"B c #A6E5DA",
"V c #A7E9DB",
"C c #ACE1D6",
"Z c #ADE3D9",
"A c #ADE9DC",
"S c #B2E1D6",
"D c #B3E3DB",
"F c #B3E9DD",
"G c #B8E0D7",
"H c #BBE3DC",
"J c #BCE8DB",
"K c #ADEDE1",
"L c #B4EBE1",
"P c #BDE6E2",
"I c #BBEBE3",
"U c #BDF2E8",
"Y c #C2D6D4",
"T c #C5DCD6",
"R c #C3DAD8",
"E c #C9D9D8",
"W c #C3E3DD",
"Q c #C8E2DF",
"! c #C7E6E2",
"~ c #C4EBE5",
"^ c #C1F1E5",
"/ c #C4F9EF",
"( c #CBF6EF",
/* pixels */
"ssssssssssssssssffsfffffffffffass8gg88aa7L48aD4K4K88s88sN4N78VN74L6Bs8sBsg8agB77usD6ff6L7887NCssssssssssssNuNus8psssssssssssssssss",
"ssssssssssssssssfsfsfffffassffssag1gs7KaL-KB6fg7837sBB887VusN<N7s4Ba8Bg7g8a8K6ggsssZDsu4uA7NC<gsssssssssssuNuNNsssssssssssssssssss",
"sssssssssssssssssfsffffafffsssssB2Pq8K7gaL48b2K7B7K7<ffaDftyZ6FuAsaZsass7sg8g7D6Cyfy2U6AN4Ks6L2DssssssssssNsfsssssssssssssssssssss",
"ssssssssssssssssfsfsfffsfafassssaaPqg8fqaa7N1gLa4afffffa:Ipgufys<L6ZfaagaafgaLgauDDfg2D66auN2IaassssssssssusNsNussssssssssssssssss",
"sssssssssssssssssfsaffsfffffsfsfffrPsNy(PgaKPd6aCD2CItibbiibGzzvD6g5DuDyPaagqq1bv1uDZ2Df/6gaIyfffsffsfssssNu8sNsssssssssssssssssss",
"ssssssssssssssssfsfsfffsffffssfsbf.cfuv*qXaa1b6LyDpiirim.mmeeiGtggyP2XPy2d0dbgbgb#afyDag;Cafi.fbffffsassuNuNssusssssssssssssssssss",
"sssssssssssssssssfsfsfsffffffssffb.!yycWMXggbcqaJ:vviWllz.!Gzmioi2Ddd@1Gbd@$X XXXXXygy6bJaiq~.vddfffsfssNuNuNussssssssssssssssssss",
"ssssssssssssssssfsfsfsfsafsfsffffd.cdbcrnXadrMgay+oo.O.O.o...o.o.PafiXdvdbXcnMccc.dbagbayvvcc.dvdddffsssssuNssssssssssssssssssssss",
"ssssssssssssssssfffffaffaagagasfvr.evbjRx.Sym.iSCupppJ.+We.W,zGpSyvtbO.o r@c @ .c cdffgaXXXXXX..X#XofssZsNs8ssssssssssssssssssssss",
"ssssssssssssssssaffsffffaLagyffX+.o@.0X ..+....5uupSo,Wc.oleQozG0Jpv.bGeMc.nnnh!cXcffagaXrcMc.vvi1b@ufyssssNssssssssssssssssssssss",
"ssssssssssssssssssssfaffZ6a6Cffgv9XleJXxkXpvl.GpuuCpoWm.Wx.lzoztvgGoG0zH=! RknkwcXddsagf@nnnr$ddHd@v2DZsNuNssssfssssssssssssssssss",
"ssssssssssssssssssafffffsaLaCfygvcXebi.kR.G0x.pppCppol.xhll.j+zizi0i+..oXnXh.X XnXdfs8sfXcnnj qvdc0fgZf6uNs8ssfsssssssssssssssssss",
"ssssssssssssssssssssfffffuDyDfygSr.O.cXYY.9~m.zCS>SzooooO..o..rGtSGpJz.lR9 n kx n cfa8ggXc  $ @X.$cfvayZN7uNufsfssssssssssssssssss",
"ssssssssssssssssssfsfaffg5syCffg2#.xH, YxOm:loeuuCptGlhh Yxxllm.vtpptzomwQXn hYXn ga88gaOknX=cMbv.M0ggAasNN8sffsssssssssssssssssss",
"sssssssssssssssssfsffsffuIubuffo+9Olll.  .o#..zCp>z+...o   .X...oSpo....@w h YE nXga88NaXnRX!rda.PdiDy6sN7NNssssssssssssssssssssss",
"ssssssssssssssssfsfssfsfsygugusfpm.meG YY.ztj.JtpJtoxlT.YkYYhnx.pypzdb.ljm n X  cXdfsagdXnkwOmq@ccdbvfasuNusssssssssssssssssssssss",
"sssssssssssssssssssssssssssssssfSt+rGj.xm.izzopSztz+ezolmhn.xxmOppFyvtXlnn nXicOc@dbiabd.MMj.bc.ibigdfgysssNNuNfssssssssssssssssss",
"ssssssssssssssssssssssssssssssfftSopGlojh+elGoGtpGzozo...%..ome.yN<DSv.M@i@dcdyib.cM9Md.vvq0M.XdviaiDtSDffssuNuussssssssssssssssss",
"ssssssssssssssssssssssssssssssffpp+tim.ml+lzto:FtJ>oJtoGmrlloiW.DuFuyH.Xic.bqbbGb@qvvddXcdHHXdd.vyPi2gfyfsssCusNssssssssssssssssss",
"sssssssssssssssssssssssssssssaff+po0GG.+o..ooo^>Sps&,SJttziGi.c#uuuuaDXcGdXiDqiX0XHyHdXvv0X.0PrD..yI2I6gsfssssspssssssssssssssssss",
"ssssssssssssssssssssssssssssssss5oSvi0@qm0Gig+>Sp>JopppSGpGvdbo2fAaCIyvitbXddfDf@bvf0X1#X.vdviDqv^XX#udffsssuCuNssssssssssssssssss",
"ssssssssssssssssssssssssssssssssFuuyfvbb0vJtpyuuCC-FsCpypp2tiuIpaN771fyDvbvigu6DiudubDDygfugDyauyydgpDyysfssNuNussssssssssssssssss",
"ssssssssssssssssssssssssssssssssupCCgydqvv:SF5sFuuCs5CuSssSCCf6s7AA2Uy2gyv0gDyfufffD2aLu2IfygfCfDuDD6uCDsfssfNNussssssssssssssssss",
"ssssssssssssssssssssssssssssssssuCuyyvafupCpyCC5uuV7A5susyuC7sssZ44L5yIuC6Duf6L4ffyfDgyfD1ggf2DyffuD2Dg6ffssffuNssssssssssssssssss",
"ssssssssssssssssssssssssssssssssssssssfffsssss8NNNuNuNuNssssssssssNsssssssssssssssssssssssssssssfffsfsfsssssssssssssssssssssssssss",
"sssssssssssssssssssssssssssssssss8ssssssfsssssssNuNNNuNu8ss88ss8sN8sssssssssssssssssssssssssssssffsssfsfssssssssssssssssssssssssss",
"sssssssssssssssssssssssssssssssssss8ssssssssssssuNussuusssssss8ssssssssssssss8ssssssssssssssssssssssssssssssssssssssssssssssssssss",
"sssssssssssssssssssssssssssssssss8sgsssssssssssssssssNpNs8s8sssssNssssssssssss8sssssssssssssssssssssssssssssssssssssssssssssssssss",
"ssssssssssssssssssssssssssssssssggaaagsssssssssgsssssCpNgsssssssssssssssssssssssssssssssssssssss8ssssassssssssssssssssssssssssssss",
"ssssssssssssssssssssssssssssssssa8g8ggBssssssssssfsfssffsgg8sgssssssssssssssssssssssssssssssssssssssssssssssssssssssssssssssssssss"
};
