/* XPM */
static char *cz_xpm[] = {
/* width height num_colors chars_per_pixel */
"    25    50       16            1",
/* colors */
"` c #8c467c",
". c #5c8ec4",
"# c #7476a4",
"a c #44beec",
"b c #845a8c",
"c c #6486bc",
"d c #34cefc",
"e c #8c5284",
"f c #54a2d4",
"g c #6c7eac",
"h c #3cc6f4",
"i c #7c6294",
"j c #000000",
"k c #000000",
"l c #000000",
"m c #000000",
/* pixels */
"dddddhdddhdhdddhdhddddddd",
"ddhddddhdddddhdddddhdhddd",
"dddhdhdddhdhddddhdhdddddd",
"dddddddhdddddhddddddhdhdd",
"dddhdhdddhdhdddhdhdhddddd",
"ddddddhddddddhdddddddhddd",
"ddhdhdddhddhddhdddhdhdddd",
"ddddddhddaihddddhdddddhdd",
"ddhdhddda``fddhdddhdhdddd",
"ddddddhf`#aha`gfhdddddhdd",
"ddhdhfi`cfffff``#dhdhdddd",
"ddddd#`bi``ccffi`fdddhddd",
"dddhddhda`gddddhcgfhddddd",
"dddbbiii``ii`biiiiiahdhdd",
"dddhdddc`fa..badhdddddddd",
"dddddhf`fa``f#`chdhdhdhdd",
"ddddd#`ff``fa..``i.addddd",
"ddd.`#ag`cdf``fh#`iahdddd",
"dhacagbchdc`iahchddddhddd",
"dddddahdf`ifda``#dhddddhd",
"ddddhfg`#fda#``fdddddhddd",
"ddhddcfdda#``fdhdhdhddddd",
"dddhdafg``#fdhdddddddhddd",
"dddacc.fahddddhdhdhddddhd",
"ddddhdhdddhdhddddddddhddd",
"ddhdddddhdddddddddhdhdddd",
"dddhffhdgfffffffggdddddhd",
"ddddc`cc`b.c``cc``adhdddd",
"dddhc`dd`cha`gdd`#hdddddd",
"ddddc`dh`cd#`f.f`.ddhdhdd",
"ddhdc`ff`cf`fai``hdhddddd",
"ddddc`cc`b`ihddcgadddhddd",
"ddhdc`dd`ia`iccc`#hdhdddd",
"ddddc`dd`cdicdhd`fddddhdd",
"ddhdc`.f`cdicddd`fhdhdddd",
"ddddc`ff`cd`iccc`fddddhdd",
"dddhibdd.ahifdhdifhdhdddd",
"dddddidffddf.ddi.dddddhdd",
"ddhdf`da`#ha`#da`bhhdhddd",
"ddda`ihd#`adc`fdf`bdddddh",
"ddd``fdd.`aha`.dhb`hdhddd",
"dhdffddddadddddddffdddddd",
"ddddhdhdhdhdhdhdhdhdhddhd",
"ddddddddddddddddddddddddd",
"dhddddddddddddddddddddhdd",
"ddddhddhddhddhddhddhddddd",
"ddddddddddddddddddddddddd",
"dhddhddhddhddhddhddhddhdd",
"ddddddddddddddddddddddddd",
"ddddddddddddddddddddddddd"
};
