/* XPM */
static char *ddcxj[] = {
/* columns rows colors chars-per-pixel */
"130 40 82 1",
"  c #000605",
". c #000B06",
"X c #000D0A",
"o c #001106",
"O c #00120C",
"+ c #001511",
"@ c #001A13",
"# c #00231C",
"$ c #87BFB6",
"% c #92BBB5",
"& c #8FC7BE",
"* c #8EC8BC",
"= c #95C4BC",
"- c #94CABE",
"; c #99C3BC",
": c #AFC4BF",
"> c #96CCC2",
", c #9CC7C0",
"< c #9CCCC4",
"1 c #9ECFC9",
"2 c #96D2C5",
"3 c #97D5C8",
"4 c #9CD1C7",
"5 c #9DD4CA",
"6 c #9DD9CD",
"7 c #9FDBD1",
"8 c #A4C6C2",
"9 c #A3CCC5",
"0 c #A4CFC8",
"q c #ABCBC6",
"w c #ADCECA",
"e c #A3D1C6",
"r c #A4D4CB",
"t c #A4D9CE",
"y c #A8D0C7",
"u c #ABD3CD",
"i c #ACD9CF",
"p c #A5D7D1",
"a c #A7DCD2",
"s c #ACD6D0",
"d c #A9DBD3",
"f c #ADDED8",
"g c #B1C9C5",
"h c #B2CDCB",
"j c #B9CECD",
"k c #B3D3CE",
"l c #B0D8CF",
"z c #BAD3CF",
"x c #B4D6D2",
"c c #B2DBD4",
"v c #B4DED8",
"b c #BAD5D2",
"n c #BADAD5",
"m c #BBDDD9",
"M c #A5E1D5",
"N c #A7E4D8",
"B c #ABE1D6",
"V c #ADE4DA",
"C c #ADE9DC",
"Z c #B2E1D6",
"A c #B3E3DB",
"S c #B3E9DE",
"D c #BBE3DC",
"F c #BDE9DF",
"G c #ABEFE0",
"H c #B4E6E0",
"J c #B5EBE1",
"K c #BDE6E0",
"L c #BAEAE2",
"P c #B6F2E6",
"I c #BBF1E7",
"U c #BEF3EB",
"Y c #C3D5D4",
"T c #C3DAD6",
"R c #C2DCDA",
"E c #C1E1DD",
"W c #C3E5E2",
"Q c #C4ECE5",
"! c #C1EEE9",
"~ c #CAEAE5",
"^ c #C1F2EA",
"/ c #D0E6E4",
/* pixels */
"aaaaaaaaaaaaaaaa77M7aaaadddaaaaa7M77M7aaaaaaaM77MMMtMMtM7MMMa7Mtaaaaaaaaa7tM77M777MMMMtddBtBMtM7tadddaaaaaaaaaaaaaaaaaaaaaaaaaaaaa",
"aaaaaaaaaaaaaaaaM7MMaaaaaiadaaaa77MMMMaaaaaatM7MtMtMtMtMaaa7tMaaaaaaaaaatMMtM7MMM777MtBtdtattM7Madidiadaaaaaaaaaaaaaaaaaaaaaaaaaaa",
"aaaaaaaaaaaaaaaa7MtMaaatdiaaata7a7pataaidtaaaaaaMMtMittMaaaaaMaaaaaaaaaMMtMMM7MtM7aatBtddaaaaMMMaaadaaaaaaaaaaaaaaaaaaaaaaaaaaaaaa",
"aaaaaaaaaaaaaaaa77MtaaadddaaMMtMaaaatadddddaaaaBttMtBMtiaaaaaaaaaaaaaaattMMtMtMM7aaattdddddaatttaaaaaaaaaaaaaaaaaaaaaaaaaaaaaaaaaa",
"aaaaaaaaaaaaaaaaMMaaaaddaaaatMMtaaaaaddadddaaaaaddaataadaaaaaaaaaaaaaatMMtMatMtMaaaadddddidaaaaBaaataMtMaaaaaaaaaaaaaaaaaaaaaaaaaa",
"aaaaaaaaaaaaaaaattaaaaaiaaaaMt7MaaaaadaadidtdaataaatdaaaaaaadaaaaaaaaaMtttMMMtMtaaaadddadddadatMaaMtaaMtaaaaaaaaaaaaaaaaaaaaaaaaaa",
"aaaaaaaaaaaaaaaaBaaddaadaataMt7MaaaaaaaadaataMttaatMttaBaaaaaaaaaaaaaaaMMtMttM7MaMaaadaaaaataaMtMtMMaatMaaaaddddaaaaaaaaaaaaaaaaaa",
"aaaaaaaaaaaaaaaataaadiddaaBttMtMaaaaaaaaaaMMMtMMMMtMBMtMM7aaaaaaaaaaaaa7tMtMMtMtaaaaaaaaBtaMaatMtMtMaaMtaaaaattdaaaaaaaaaaaaaaaaaa",
"aaaaaaaaaaaaaaaatdddaaaaaZrVaBBtpV5Baaaa7C2N6M3M2NV6NN5aN2MC6M6NpadaaraatS2BtB3BN7C2M2B66BM5a5MtM6VBaafaaaaaddtdaaaaaaaaaaaaaaaaaa",
"aaaaaaaaaaaaaaaadddaaaaartBfd<dta>V55C2M33C7NNNaBt66>2C7>Pa2aaC5dVdrrafa4tAtVZVta55J6CNM6N2MJ3CatAa-parraaadddddaaaaaaaaaaaaaaaaaa",
"aaaaaaaaaaaaaaaaddaaaaaaAaB>dAZZffAdBVMaC3C6626NMtMCJpaMM5MNJM5VdcrAAeZdS4Srt<rV5JJ>M62Ma3CM*NA5ti4AaZrJdadadtdaaaaaaaaaaaaaaaaaaa",
"aaaaaaaaaaaaaaaadaaaaaaat5BDd0d00dpdp5aaNMtNJCaatVBt>5S5aVa41arpudssssssZiiBFAdtA5aVaBVVCtatSatAveL9vrrrddddadaaaaaaaaaaaaaaaaaaaa",
"aaaaaaaaaaaaaaaaaaaaaa7aJra1D.KswEuXcvrf>SferrBuO-srA^0sudssLr@XdOX..XXd,FfrrrcrcXcsfdr1arrAoA9yucuvXscAddidddaaaaaaaaaaaaaaaaaaaa",
"aaaaaaaaaaaaaaaaaaaaaaMaaZfs9X.xkEqXcxseAduciiDsiOD9v8scc0DX.XwswOccccOrDduciiDdxn.cycZdAudc.qWDwvD8OK9csdddaiaaaaaaaaaaaaaaaaaaaa",
"aaaaaaaaaaaaaaaaMaaa7Maatars!.qE+ .X..++wyW9.ooO.O.X..@.Xnqmx+xnD.vywv.DyuW8XO.O.X.O+.+XXxx9OgE.+.q+X.OXddddadaaaaaaaaaaaaaaaaaaaa",
"aaaaaaaaaaaaaaaataa7aaaaVrDs.x+hjTb bnhumicd.DuyhRhnxnw.nwmqx.hzkXxxxsOivscd.vuuxjRgnmqxuxnx...zzXxb.xkOxddddaaaaaaaaaaaaaaaaaaaaa",
"aaaaaaaaaaaaaaaaaaaatMaaaBr.xxX kDwokhnwlZe@riE:nhnn:ZolkE.O.   zXhnxmXdefcr@uuO. ...o.ylnl.Ehzhz..O ...oSMetaaraaaaaaaaaaaaaaaaaa",
"aaaaaaaaaaaaaaaaaaaaMtaaaa.DhR nylD.bkwDyrZrtoooo.oooo:Ziykzg YYY X X .AsZrsXcnxb zhn.hDZln....E.zY:OYb.Z:iI5arSaaaaaaaaaaaaaaaaaa",
"aaaaaaaaaaaaaaaaaaaatMaaB;DmhXR .o.o..oo@tBZtrZnz.llFiSiiDyn. zjjRRxcmv0f1DsOD9kbn.R.kluei.n.wE..oY    @uZB4rJaraaaaaaaaaaaaaaaaaa",
"aaaaaaaaaaaaaaaaaaaaM7aaSdc8W hRn9klzOlnyieiZo:lwoiiZ--CeiZx..OkX  XX..@rAfr.dDwhgn.zDyuiQ:w@znwz gTXTzzF:eSttA5aaaaaaaaaaaaaaaaaa",
"aaaaaaaaaaaaaaaaaaaaapaapsfmX xxuDE:n.xciFriroZlZ.l:ZBFtM-ioyOqOhRb cWudv<vu.uXXO..o.oOoO9@... bb.Y..  .uySBaBrVaaaaaaaaaaaaaaaaaa",
"aaaaaaaaaaaaaaaaaaaaaaaappc.x.m O..@..O.o-ZSrollwooOooaattJOZoQqRRhXjcuxucecOK8Wykl.ylyOuucl.hn.gOzjXj/zlZ4BaaVaaaaaaaaaaaaaaaaaaa",
"aaaaaaaaaaaaaaaaadaaaaaaL9fcu+qxiDDqwOqxiZiti@lhuoZe-F-CBCoZ9OvuXX++ X XAund.eK;lkcolSiiZccD.EwzO..  ....iBia7ppaaaaaaaaaaaaaaaaaa",
"aaaaaaaaaaaaaaaaaaaaaaaarAdsv.Wsi.yk~.xciZeioroZn.kZDtZeeBticoqcjW8Xc9vfsceAXvcAcxe#eeZirZ9kOqnbk.Tz znnuirA5G5Baaaaaaaaaaaaaaaaaa",
"aaaaaaaaaaaaaaaaaaaaaaaaafescXvssXdumOuxdvrdXfsXkXqmsuvadrffrXDuhmwXnDvuuLrdOyucccZOrrdadrsc.W x.n.qoknnffs1ff5Haaaaaaaaaaaaaaaaaa",
"aaaaaaaaaaaaaaaaaaaaaaaa1aZdsOcufrDsn.DsrrJOdsumOOmuccesprsAcO9Am9x#s%Ld0sdXuDscd9c.fU1aadAr+.uXlcq+.nguspaJa6H6aaaaaaaaaaaaaaaaaa",
"aaaaaaaaaaaaaaaaaaaaaaaaJaddfOrfaJ1XDOudArXa0U9dk.X+.X#XLcf0uO0OX+XXo@.X@eAOddsrAOcoa>HpaV0r+K fZ-Dlu.@.XpH$fVpfaaaaaaaaaaaaaaaaaa",
"aaaaaaaaaaaaaaaaaaaaaaaa1ad4AoAd5ffHXcDprVaaf1K9xnx8Ksrs0ddvdXcuscdHudidrB.9fA5A,cOeaffpaaff0,9vttiDc;ycfp5Ga5Jpaaaaaaaaaaaaaaaaaa",
"aaaaaaaaaaaaaaaaaaaaaaddAdtS4ArtP>Hpdp1pVp5N55ddfcdvf<ffHfppLvdffds1f>ffaAAaaSdaKv0LprpGppfHdfU<V7a4u!cd1HGNpdpaaaaaaaaaaaaaaaaaaa",
"aaaaaaaaaaaaaaaaaaaaaada<atattS5a7pfdpUp5f7NNHpAsHppVdfrp1ff=Z1frArVvSrdrtrtarrV0cs<ApH1ap>a4f1H62C6BerdV1pp7ffdaaaaaaaaaaaaaaaaaa",
"aaaaaaaaaaaaaaaaaaaaaaddSf5aataM77ddf1p5G777p1Hrpfp5Ga5H5P63U5aadap1daaaaaVB5SMrrKsfff3G5GaJ7dH>MG3MArLrH57H7pH5aaaaaaaaaaaaaaaaaa",
"aaaaaaaaaaaaaaaaaaaaaaadatBaaata7H7frfdf7NMapfddp6J7pNa7V56Hp6V6VrVdaaaaa5aaB>Navspd1ff7N77ppVpVM67atAra1P57H5fpaaaaaaaaaaaaaaaaaa",
"aaaaaaaaaaaaaaaaaaaaaaaaaaaaaaaaaaaaaaaaaaaaaaaaaaaaaa7MtMtaaaaaaaaaaaaaaaaaaaaaaaaaaaaMaaaaaaaa77Btaaaaaaaaaaaaaaaaaaaaaaaaaaaaaa",
"aaaaaaaaaaaaaaaaaaaaaaaaaaaaaaaaaaaaaaaaaaaaaaaaaaaaaaaaaaaaaaaaaaaaaaaaaaaaaaaaaaaaaaaaaaaaaaaaMMaaaaaaaaaaaaaaaaaaaaaaaaaaaaaaaa",
"aaaaaaaaaaaaaaaaaaaaaaaaaaaaaaaaaaaaaaaaaaaaaaaaaaaaaaaaaaaaaaaaaaaaaaaaaaaaaaaaaaaaaaaaaaaaaaaattaaaaaaaaaaaaaaaaaaaaaaaaaaaaaaaa",
"aaaaaaaaaaaaaaaaaaaaaaaaaaaaaaaaaaaaaaaaaaaaaaaaaaaaaaaaaaaaaaaaaaaaaaaaaaaaaaaaaaaaaaaaaaaaaaaatBaaaaaaaaaaaaaaaaaaaaaaaaaaaaaaaa",
"aaaaaaaaaaaaaaaaaaaaaaaaaaaaaaaaaaaaaaaaaaaaaaaaaaaaaaaaaaaaaaaaaaaaaaaaaaaaaaaaaaaaaaaaaaaaaaaaaaaaaaaaaaaaaaaaaaaaaaaaaaaaaaaaaa",
"aaaaaaaaaaaaaaaaaaaaaaaaaaaaaaaaaaaaaaaaaaaaaaaaaaaaaaaaaaaaaaaaaaaaaaaaaaaaaaaaaaaaaaaaaaaaaaaaaaaaaaaaaaaaaaaaaaaaaaaaaaaaaaaaaa",
"aaaaaaaaaaaaaaaaaaaaaaaaaaaaaaaaaaaaaaaaaaaaaaaaaaaaaaaaaaaaaaaaaaaaaaaaaaaaaaaaaaaaaaaaaaaaaaaaaaaaaaaaaaaaaaaaaaaaaaaaaaaaaaaaaa",
"aaaaaaaaaaaaaaaaaaaaaaaaaaaaaaaaaaaaaaaaaaaaaaaaaaaaaaaaaaaaaaaaaaaaaaaaaaaaaaaaaaaaaaaaaaaaaaaaaaaaaaaaaaaaaaaaaaaaaaaaaaaaaaaaaa"
};
