/* XPM */
static char *dgksx_xpm[] = {
/* width height num_colors chars_per_pixel */
"   110    28       16            1",
/* colors */
"` c #040204",
". c #5c9ab4",
"# c #fcfefc",
"a c #74c2e4",
"b c #2c4e54",
"c c #7cd6ec",
"d c #0c1e24",
"e c #4c7a8c",
"f c #8ce6fc",
"g c #1c323c",
"h c #346274",
"i c #64aad4",
"j c #74cafc",
"k c #84dafc",
"l c #000000",
"m c #000000",
/* pixels */
"jjkffffkcjcjjkkfffffffkkjjcjjjkkkkfffffffffffffffffffffffffckkjkcjjjjkkfffjjjfffffkjjffffkjcffffjjfffkjkfffjff",
"jjfffffccjjjckffffffffkkkjjjjjkjkkkkkfffffffffffffffffffkkkkjjjjjjjkkffffkjjkkffffcjjffffkjjffffcjfffcccffjjff",
"jjcfffffjjjjkkffffffffkkcjjjjaakjkkcccffffffffffffckkkkkkjjjjjjjjkkfffffckjjcfffffjjcffffkjjfffjjcfffkjcffjjff",
"jjkffffcjjjjckffffffffckkjjjjjjjjkkkccckfccffffkkkkkjkjjjjjjcjkckffffffffjjjkffffkjjjfffkjjffffjjkfffjjfffcjff",
"jjkffffjcjjkfffffffffkfckjjcjjjckjjkkccckkkkffkkkjkjjcjjcjjjjkkffffffffffjjjkfffffjajffffcjcfffjjffffjcfffjjff",
"jjfffffjjjjckfffffffffckkjjjjjjjjjkjjkkkkkjfffjkjjjjjjjjjjckcfffffffffffkaajkffffjjjkfffkjjfffccjfffkjkfffjkff",
"jjcffffjjjcffffffffffckkjkjjjjjjjjjjkjjjjkjjcjjjjjjjjjjjckffffffffffffkffjjjkffffkjjkfffkjjffffjjffffjkfffjkff",
"jkkfffkjjckkffffffffih.jckjjjajjjcjkjjckjjjjjjjjjjjjkjkkkffffffaiciehdg.fjjcffffccjjffiijjjffffjjffffjkfffjkff",
"jjkfffkjjkffffffffffig`.fjjjjjjji..aja.iiajah.ajjjjkckkffffffffe`bee.d`.fjjkkffe`.kkkf.deajffffjcfffkakfffjkff",
"jjfffcacckfffffffffff.ghhhgejjjje``eke`gajje`d.kjcckkffffffffffe`.eehgeckjjjfff.d.kkffcd.jjfffkjkfffkjkffkjfff",
"jcfffkjckffffffffegbbbhbgg`d.kcjjgdjked.kjj.bhjjkckffffffffffffhdgbehgecfjjjfff.d.kj.aadijkffffjjfffkjffffjfff",
"jkfffkakffffffffi`ge.aacfhd.ajjjke`.fhgjjcjkcjkckcfffffffffffkfbgi.eg`efcajkfffi`bjkggigijaffffjkfffjjfffkjfff",
"kcfffccfffffffffh`.faehgg.ijjjjjj.`ekbbjjjjjebfkfffibbhfffffkkkdhee`bc.afjjjfcfad`h.`he`ddhffffjjffffjkffkjfff",
"kkffffffffffffff.efhd``eijjjjjjjjadhagejjjkhddfkffi`hadeffkjkjidh.eddhddakjkkb.ideeb`dd`b.jfffkjkfffcjfffkjfff",
"kfffffffffffffffffaajbdjjajjjjcijcbdegijjcjjdbffffe`.fgbffkjjfedhdedg.`efkjjageigjedifcdcjjffffjjfffkjkfffjkff",
"kffffffffffffffcckhhjh`hgejjjjjjjje`ghakkjkkgdfffff.eh`hffjjjjggkbbdgheckcjk.`.ig.h.caedheaffffjffffkjfffkjfff",
"fffffffffffffckckkb`i.`be.ajciajjj.d`ejjjkkcgbffffcbghdhjfkjfe`.fiegha.hgbifedc.dcfk.bg`geiffffjjffffjkfffjkff",
"ffffffffffffkkkcf.`dbbdkkjjjjjjjjjagd.kkckkfdbffffbdafgbcjffadbebehggbb.g`ekief.`akjkfegfffffffjjfffkjkfffjfff",
"fffffffffkkkfjkkcgg.b`dacjjjjjjjcjkbdikkkckfgdffffggcfdbiakfbdfgdaabgggfe`ijkffedcfcffadi.h.fffjjffffjkffcjfff",
"ffffffffkkjcjjjfbdikae`geakkjjjjjjjebakjkkce``efffhdeb``bifhdafbbbdghhhabdckjfkbgiebbg``ggdd.ffjjffffjkfffjkff",
"fffffffkkjjcjjjedikjcjjb``ghe..ajjj..accckk.i..fffceh.eeif.gif#bg.eijj.edbckjkkbgk.bh.cccaaacffjjffffjjfffjjff",
"fffffjjjjjjjjjjacfkkjfkjigd``dbajjjjjjjjkkcfffffffffkkjjjjacfffhhkcjjf.d`.fcjcfiecfjjfffffjjfffjjffffjffffjkff",
"ffkckkccjjjjjcjcjjcckckkcf.eijcjjcjjcjkkkcffffffffffkjcjjkffffffcjjjkffebcfjjcfffffjjkfffkjjfffjcjfffkjfffcjff",
"kkkjjjjjjjjkkkkkffkkfkkfkkfffkjkjjjjjjjjcckfffffffccjjjjkkfffffkkjjkkffffffjjjkffffjjkfffkjjffffjkfffkjfffjjff",
"jjjjjjjjckkkkkfkfffffffkfkfkcckkjkjjjajjkfffffffffffjjjjkkfffffkjjjkfffffffkjjkffffjjkffffjjkfffjjfffkjkffjjkf",
"jjjjjjkkkfffffffffffffffffffffckcjjjjffkkkjjjjjjkkkkfjjjkffffffjjjkffffffffkjjjffffkjjffffkjkfffjjfffkjkfffjff",
"jjkkkkffffffffffffffffffffffkfkkkjkkjkjjkjkkkkkkjkjjkkkffffffffjjjkffffjjfffjjjkffffjjkfffkjjfffjjkfffjjfffjkf",
"kfkfffffkfffffffffffffffffffffkfkkjjjkfffffffffffffkjjjkffffffjjjkfffffjkfffkjjjffffjjkffffjkffffjkfffjkfffjkf"
};
