/* XPM */
static char *dmzlcl[] = {
/* columns rows colors chars-per-pixel */
"180 40 45 1",
"  c #060000",
". c #0A0100",
"X c #0F0900",
"o c #120600",
"O c #140B00",
"+ c #190E00",
"@ c #1C1302",
"# c #241600",
"$ c #E1D2BB",
"% c #E6DBC4",
"& c #E6DDCA",
"* c #EBDDC4",
"= c #EADDCC",
"- c #E6DDD6",
"; c #EEE1C5",
": c #EEE2CB",
"> c #EDE5D3",
", c #ECE2D8",
"< c #EFE8D6",
"1 c #EEE9DB",
"2 c #F1E3C6",
"3 c #F2E5CC",
"4 c #F6E9CE",
"5 c #F9E7CF",
"6 c #F9EACD",
"7 c #F2E6D2",
"8 c #F3E7DB",
"9 c #F5EAD4",
"0 c #F5ECDA",
"q c #FAEDD4",
"w c #FAEEDB",
"e c #F7F0DE",
"r c #FEF2D7",
"t c #FFF2D8",
"y c #FFF9DD",
"u c #F5EEE2",
"i c #F9EEE1",
"p c #F8EFE8",
"a c #F5F2E4",
"s c #F7F5E8",
"d c #FEF4E2",
"f c #FDF5EA",
"g c #FFFBE4",
"h c #FFFCEA",
"j c #FFFEF2",
/* pixels */
"ttttttttttttttttttttttttttttttttttttttttttttttttttrrrrryrrrrrrrryyrrrrrrreteddtettttttttttttrtttttttttwrrrrrrwrrrrrwwtttttwrrrrrrrrttttyetrrrrrrtttttttttttttttttttttttttttttttttttt",
"ttttttttttttttttttttttttttttttttttttttttttttttttttrrrrerrertrrrtrrrrrreyrtyetddtttttttttttttrrtttttttttrwtwrrrwrwrrrtttwrwrrrwwtrrttttyerrrrrrrrtttttttttttttttttttttttttttttttttttt",
"tttttttttttttttttttttttttttttttttttttttttttttttttrrtrrrrttttrrrerrrrttttyttttdttttttttttttttrrrrttttrrwrrrttrrrrrwrwwtwtrrrrrrrrrrrrttrrrrrrrrrrtttttttttttttttttttttttttttttttttttt",
"tttttttttttttttttttttttttttttttttttttttttttttttttettrrrrttttrrrrrrrrttttteytttdtttttttttttttyrrrttttrwrrwtttwrwrrrrrtttttwrwwrwrrrrrttrrryrrrrrrtttttttttttttttttttttttttttttttttttt",
"ttttttttttttttttttttttttttttttttttttttttttttttttrrrrrtttrrrrrrrrrrrrrrttttttwitttrrrrrrrttrrrrrrrrrrrrrrrrrrrrrrrtttttttttttrtttrrrrrrrrrrrrtttttttttttttttttttttttttttttttttttttttt",
"ttttttttttttttttttttttttttttttttttttttttttttttttrrrrrtrtrrrrrrrrrrrrrrttttttttttrrrrrrrrttrrrrrrrrrrrrrrrrrrrrrrttttttttttttrrttrrrrrrrrrrrrtttttttttttttttttttttttttttttttttttttttt",
"ttttttttttttttttttttttttttttttttttttttttttttttttrrrrrrrrrrrrrrrrrrrrttttttwtwtwtrrrrrrrrtrrrrrrrrrrrrrrrrrrrrrrrtwtwtttttdtttwtt6rrrrrrrrrrttttrtttttttttttttttttttttttttttttttttttt",
"ttttttttttttttttttttttttttttttttttttttttttttttttrrrrrrrrttqrrqrrrrrrtttttwttttttrrrrrrrrrrrrrryrrrrrrrrrrrrrrrrttttttwtitwwtttttrrrrrrrrrrrtttwrtttttttttttttttttttttttttttttttttttt",
"ttttttttttttttttttttttttttttttttttttttttqrg4qtqyytqqrtqt9ygqygqqtqtqwtqdwtqtqryrrgq9yqtqtytqry:gy4gtqytrrtt3gqqgd*gdq9gqqwtwdt3yyryrrryqrdwtt5tttttttttttttttttttttttttttttttttttttt",
"ttttttttttttttttttttttttttttttttttttttttrrqghttqqygqgqttgtqqt4tdqdgwgqwttwg3hq3yq9gqqrrtwq9yrqgqqqqqt3gdyqggqw5qwgqqwdtwhqtqgqqt3yqyy6yrtqtwqyyqtttttttttttttttttttttttttttttttttttt",
"tttttttttttttttttttttttttttttttttttttttttyt*rqytg:tg:gqrqqtgd9hwh=g7ddtgdt:gwyytwthwge:gygyywtyqtgwqgdwqtww3hqhtwh:yd3tg8ddt0thtgy0h909ty4tgwqqttttttttttttttttttttttttttttttttttttt",
"tttttttttttttttttttttttttttttttttttttttt4htyyqt.3hwqh.h7whwqdt:dihfgw&h&qhh8O03dyd.twtgtt79wdg8.dwhdw3do7htyw9+5qhhqwogqtd9g9d8te>eeeyh9thw5ttqttttttttttttttttttttttttttttttttttttt",
"ttttttttttttttttttttttttttttttttttttttttr4r4tryyo 8gw..hh>8d.+.X...o...+.XeewOgtwd+gdwh7wdhh8wg.w9f.ggf.fwdwgw.@y99gwotwydg7hh9ds. X  . .%gdyqtrtttttttttttttttttttttttttttttttttttt",
"tttttttttttttttttttttttttttttttttttttttttgrhg3qt.ghg h>>d8hg>eh0d.f0hh8ehd9gw.g0g...o..o.887+wwOh.df.g7+8g8fido8dtg9w.7g79g...o.1 s>Xg0d.hd7gtyqtttttttttttttttttttttttttttttttttttt",
"ttttttttttttttttttttttttttttttttttttttttqqr44#...@    .O<h&gdedd js,j1ugu>hh<hXd.wff.d..0hdh8.f..hi8owf.fwi8woiw8h3hw.h9th9th.tgf sa h<h.eywy96gtttttttttttttttttttttttttttttttttttt",
"tttttttttttttttttttttttttttttttttttttttttrtyd.dtd0 jg<h g0j0g X  . O  X .g9  X8.wdf0.h8gf0g0dh..hwigif7owgdgi.o...t8d.wgd9htw.g8a  .  X .9g9eyrrtttttttttttttttttttttttttttttttttttt",
"tttttttttttttttttttttttttttttttttwttttrrrrrg8...  X   X 0h9he.hw.aai.0ge y0h 0gehu. j ife<gX   ....idwd.8figw.fdt.h88.Xwde8ht h0h fu a,h.wwd9yy6tttttttttttttttttttttttttttttttttttt",
"ttttttttttttttttttttttttttttttttitdwttrrry4eg a1sa a1j> ggg&h.3h.fhu.0gdO:h9.t9e..ff-fO.dhy>ha Oo8h.dif.h8wwo.=hg.edhO<.0dh .+  1.sj.jf8.hwht3rytttttttttttttttttttttttttttttttttttt",
"ttttttttttttttttttttttttttttttttwwitttrr4y99h ujssXshje 80edt.yt...  hd8.h39@g.  O .O. a  9gd p 8oh0.h=.8dd8.fOwdXdd0.heX.8dd ghh   . ...dh3tg2rtttttttttttttttttttttttttttttttttttt",
"ttttttttttttttttttttttttttttttttdwttttrry;ge0 X        Oh:hwd.h8.sfg ded 9hwy9.hg0j-sfOaeghed j.h.8f.hh.o.h.fd.8.8ugd.h<.8ggd.f8a hh f<h.wdyq6yrtttttttttttttttttttttttttttttttttttt",
"ttttttttttttttttttttttttttttttttittwrrrryy0h>.ijss hh0h >h0e9.th.sfg degOwdg8h+8d>.j,i.fh:0h.fu.fh.+..O.d8gh=h.f gh>g.dh8gd0d.:heh00@iiidd7tqdrrtttttttttttttttttttttttttttttttttttt",
"tttttttttttttttttttttttttttttttttwttrrrry:ryh<gis1Xed0h<deggd.t8. . .he8.h97wt.fdd.ufj.f8yheo8i.w8h>h8wogw88g:h.wgwwd.8:8hgg< h><.. ..oo.8gqht2rtttttttttttttttttttttttttttttttttttt",
"ttttttttttttttttttttttttttttttttwtwtrrttrry .Oo.  X O. O..g%h.wg.fhi.0dd.dwhhw.wwg.hii.8hw9.whp.igwwwht.9hwqhw.h.dwdw.ghwt9wh..Xh0eh.fiwwwty3tyrtttttttttttttttttttttttttttttttttttt",
"tttttttttttttttttttttttttttttttttwttrrttrrrreyeeee deed0dh9hw.gw.iad.8gt.g8wwgoft.g..h8g0tty8h8.wwwdg8w.dwdg8owwg..g9.d8detO.g00eeg8owddgt8gqqrrtttttttttttttttttttttttttttttttttttt",
"ttttttttttttttttttttttttttttttttwttttttttttttditgyo9t8d9g7th=oO... .   ..y0gdwiioth8i.odwqygqdd.dy99hw9.wwg9+qqyqh9.otwtdedywdg3wt>d.dwdyh9g66y6tttttttttttttttttttttttttttttttttttt",
"tttttttttttttttttttttttttttttttttttwttttttttdttde9.whwhgqh3wh.9ddfddyyyt.9hw:ho.w3:ghp.o.dy%hdh.wwhd9tto9gw.qwgtg0dte.Oo.+tdd:gO..+..o....g;yrrytttttttttttttttttttttttttttttttttttt",
"ttttttttttttttttttttttttttttttttwtwtttttttttwwttyd.wyty%tyqdqgtgdddtrryrtyth.owtyyh=ghi.yr9gqq9.gqqwyh$.tqhwtg3dqrh4yh:wgt9ttq9qqg:ygt5dywyyyrr6tttttttttttttttttttttttttttttttttttt",
"ttttttttttttttttttttttttttttttttttrttwtttttttttwtyqyg39hwyyq3tttteeerrrryr93h8wt46qh7wdwd:y6yyqgqgg53thdh35y9wwwtg*ywgqtqgtg3hgqrtyg99hq3g6r62ryrttttttttttttttttttttttttttttttttttt",
"ttttttttttttttttttttttttttttttttttttttttwwttqrttqyrqtyq9t3wgyh:ttytytyrr4yryrgyqyyrywdhwqgyrrqt9qtwtyw3t4ytgqdgqt9gty99yt909g99ttry3gqwqg*hqrry6rttttttttttttttttttttttttttttttttttt",
"ttttttttttttttttttttttttttttttttttttwtwtttwtrrrrt2h;gyqtwgh3qqhwwq0rrrr6tq;g33tg6rr4hh&dyr3ry6ytd9tdqtdqgy=5h4*yty7q9yyqtrty3ghrtyqrwg9h5qrtrrrrrttttttttttttttttttttttttttttttttttt",
"tttttttttttttttttttttttttttttttttttrtttwttttrrrrqg3gq5wytq3qgttwttytrrrrrrryyth3r;yrqwhwt9gy3rrtgqtrqqg5qqgrtrgtqqhty9yry9y9t3yq34gyqty5tyy%yr;yrttttttttttttttttttttttttttttttttttt",
"tttttttttttttttttttttttttttttttttttrwtttwtwtqrrrtqtqwyqqqyqdqwwtttrrrrrrrrr64tryrrrywwdwttqqryrrqtrqgqqyyrry3grqyqqtrttrrrrtyrrtgt5ttqtdqg4hqryqrttttttttttttttttttttttttttttttttttt",
"tttttttttttttttttttttttttttttttttttttttttttttttttttttttttttttttttttttrrrtttttttttttttttttttrttttrrtttttttttttttttttttttttttttttttttttttttttttrrrtttttttttttttttttttttttttttttttttttt",
"tttttttttttttttttttttttttttttttttttttttttttttttttttttttttttttttttttttttttttttttttttttttttttttttttrtttttttttttttttttttttttttttttttttttttttttttttttttttttttttttttttttttttttttttttttttt",
"tttttttttttttttttttttttttttttttttttttttttttttttttttttttttttttttttttttttttttttttttttttttttttttttttttttttttttttttttttttttttttttttttttttttttttttttttttttttttttttttttttttttttttttttttttt",
"tttttttttttttttttttttttttttttttttttttttttttttttttttttttttttttttttttttttttttttttttttttttttttttttttttttttttttttttttttttttttttttttttttttttttttttttttttttttttttttttttttttttttttttttttttt",
"tttttttttttttttttttttttttttttttttttttttttttttttttttttttttttttttttttttttttttttttttttttttttttttttttttttttttttttttttttttttttttttttttttttttttttttttttttttttttttttttttttttttttttttttttttt",
"tttttttttttttttttttttttttttttttttttttttttttttttttttttttttttttttttttttttttttttttttttttttttttttttttttttttttttttttttttttttttttttttttttttttttttttttttttttttttttttttttttttttttttttttttttt",
"tttttttttttttttttttttttttttttttttttttttttttttttttttttttttttttttttttttttttttttttttttttttttttttttttttttttttttttttttttttttttttttttttttttttttttttttttttttttttttttttttttttttttttttttttttt",
"tttttttttttttttttttttttttttttttttttttttttttttttttttttttttttttttttttttttttttttttttttttttttttttttttttttttttttttttttttttttttttttttttttttttttttttttttttttttttttttttttttttttttttttttttttt"
};
