/* XPM */
static char *dq_xpm[] = {
/* width height num_colors chars_per_pixel */
"    25    50       16            1",
/* colors */
"` c #943e74",
". c #5c92c4",
"# c #7c6294",
"a c #44baec",
"b c #845284",
"c c #6c76ac",
"d c #34cefc",
"e c #8c467c",
"f c #4ca6dc",
"g c #6482b4",
"h c #3cc2f4",
"i c #7c5a8c",
"j c #000000",
"k c #000000",
"l c #000000",
"m c #000000",
/* pixels */
"dddddddhdddhdddddddddhddd",
"dddddhddddddddhddhdhddddh",
"ddhddddddhddhdddddddddddd",
"ddddhddhdddddddhdddddhddd",
"hdddddddddhddhddddhdddddd",
"dddhddhdddddddddhddddhddd",
"dddddddddddhddhddddhddddd",
"ddddhddhdhddddddhdddddhdd",
"hddddddddddddhd.ddddhdddd",
"dddhddhddddddddiidddddddd",
"dddafffffb.dhddbghdddhddd",
"dhdhggggi`cddddigdddddddh",
"dddd.ddd.`fffffeccchhdddd",
"ddddfcddecgcgggeigcaddddd",
"ddhddgch`.dadddbgdddhddhd",
"dddddhiiedde.ddigdddddddd",
"dddhdda`idd.`adbghdhddddd",
"dddddd.``hdh`gdigdddddhdd",
"dddddh`fecddihdbgdddhdddd",
"dhdddi#dc`hddhdighddddddh",
"ddddgihdf`fddddbgddddhddd",
"ddd.ihdddefdhddigdhdddddd",
"hddgddhdddddgb``cdddhdddd",
"ddddhdddhddhdhbbadddddddh",
"ddddddddddddddhhddhddhddd",
"dhddhddhdafdddddddddddddd",
"dddddddddhbihddhddhdhddhd",
"ddddddddhda`adddafddddddd",
"hddfiiiiiiieiiib``ahddddd",
"dddhhdhhbadhh`cdddddhdhdd",
"ddddddddaehhbbhdddhdddddd",
"ddhddhddd.`bbhddhdddddddd",
"dddddddddfe`chdddddhdhddd",
"ddddddd.ie.ab`igfhddddddh",
"dhdf.ibi`.ddh.ie```.dhddd",
"dddg.adh`idddg`hfcadddddd",
"dddddhdd`.ddhgiddddddhddd",
"dddhdddf`fdddgbddhddddddh",
"ddddddhg`hdddgbddddddhddd",
"ddddddhegdddhc`dddhdddddd",
"hddhdfecddhddg`hhdddddddd",
"ddddggadddddd.iddddddhddh",
"ddddhdddhdddhddddhdhddddd",
"ddddddhdddhdddhdddddddddd",
"ddhddddddddddddddddddhddd",
"ddddddddddddddddddddddddd",
"ddddddddddddddddddddddddd",
"dhddhddhddhddhddhddhddhdd",
"ddddddddddddddddddddddddd",
"ddddddddddddddddddddddddd"
};
