/* XPM */
static char *drill_xpm[] = {
/* width height num_colors chars_per_pixel */
"   120    28       16            1",
/* colors */
"` c #040204",
". c #4c829c",
"# c #74cafc",
"a c #243a44",
"b c #fcfefc",
"c c #6cb2cc",
"d c #84dee4",
"e c #446e74",
"f c #142624",
"g c #5c9eac",
"h c #84dafc",
"i c #2c4a5c",
"j c #8ceafc",
"k c #6cbee4",
"l c #000000",
"m c #000000",
/* pixels */
"##hjjjjjhh#k##hhjjjjjjjjhh#######hhhhjjjjjjjjjjjjjjjjjjjjjjjjjjjhhh##h#####hhjjjh###hjjjjj###jjjjh##hjjjh##jjjh##jjjh#hj",
"##hjjjjjhh###hhjjjjjjjjjhhh##k####hhh#hhjjjjjjjjjjjjjjjjjjjhjhhhhh#######hhjjjjhh##hhjjjjh##hjjjjh##jjjjh##jjjh##jjj##jj",
"##hjjjjjh####hhhjjjjjjjjhhh########hhhhjhhjjjjjjjjjjjjjhjhhhhh#k#######hhjjjjjjhh###jjjjjh##hjjjjh##jjjj##hjjjh#hjjj##jj",
"##hjjjjhh####hhjjjjjjjjjhhh#########hhhhhjhhjhhjjjjhhhhh#hh#########hhhjjjjjjjjh###hjjjjj###hjjjh##hjjjh##hjjj##hjjj##jj",
"##hjjjjh#k##hhjjjjjjjjjhj#h###k###k#h#hhhhhhhhhhjjhhhh#h##k#######hhhjjjjjjjjjjh###hjjjjjh##hjjjj##hjjjh##hjjj##hjjh##jj",
"##hjjjj#####hhjjjjjjjjjjhhh##########hk#hhhhhh#jjj#h##k########hhhjjjjjjjjjjjjhh#k#hjjjjj###jjjjh##hjjjh##jjjh##jjjh#hjj",
"##hjjjjh###hhjjjjjjjjjjhhhh############h##k#####h#h##########hhhjjjjjdddjjjjjjjh###hjjjgg#khhjjjh##hjjjj##jjjj##jjjj#hjj",
"#hhjjjj###hhhjjjjjjjjjhhgekhk#geg################kk######h#hhjjefidjjc`ahhjjjjhh#.ikjjje`e##jjjjh##jjjjh##jjjh##jjj##hjj",
"##hjjjj#k#hhjjjjjjjjjjjhi`eh#hg`fc#########hh#k##`ik####hhhhjjjdaf.jjjffh##jjjhhh.`ijjjc`.kaijjjh##hjjjh##jjjj##jjjh#hjj",
"##jjjj###hhjjjjjjjjjjjhh`fhjh#c`a##k#####h#c.iie#ffkh#hhhhjjjjjjjddjjjfi##jjjjhh#a`gji.g`g.`ijjjh##jjjj##hjjjh##jjj##jjj",
"#hhjjjk#hhjjjjjjjjjjjhje`a.iehc`ijh#####keffa``icaihhhhhjjjjjjbjg.djhh`e##hjjjhjg`ijhefefgeecdjjh##jjjjh##jjjh##jjjh#hjj",
"#hjjjj#hhjjjjjjjjjjjhjkf`afa.hg`f.afe###cei.k`e##aehhhhjjjjdcgia``.hh#fe#hjjjjj#i`cjcggi`faaf`ehh##jjjj##hjjj##hjjj##jjj",
"hhjjjjhhjjjjjjjjjjjhjhe`gkk##kcafii.c######cai##kf.jhjjjjjjgffei`i####`agjjjjjjg``ccfae...gcf`ejh##jjjjh##jjjj##jjj##jjj",
"hhjjjhhjjjjjjjjjjjhjhg`feafi##cii###k######c`e###`.jjjjjjjjddjcfahaek#ffffejjjcfffei`cdhcgcjekjjh##jjjj##hjjj##hjjj##jjj",
"hjjjjhjjjjjjjjjjjhhhcfai`fc###kae#####k#k##jifiik`cjjjjjjjjjjda`aefe#j`ecf`fhdai.a.ieheaffe#jjjjh##hjjjh##jjjh##jjjh#hjj",
"hjjjhjjjjjjjjjjjhhhkaehha`.gckg`i.e.k####h#.a`.hh`cjjjjjjjjjdafi``akhjfejjefgeijgfcjjjdcccggggdjh##jjjj##hjjjh#hjjj##jjj",
"hjjjjjjjjjjjjjhhhhhc.c.a``faiaaafa``i#k#k.f`i`#j#`gjjjjgejjdffd.aa`.hj`.jjjdjdjj.f.c..eefaffffejh##hjjjh##jjjj##jjj##hjj",
"jjjjjjjjjjjjjhhhh##h#caafakhe`.k##i`.#h.``ack`khd`.jjjjfijc`ikjiakccjjfejjhjjjjj.`geaea`f..hhjjjh##jjjjh##jjjh##jjjh#jjj",
"jjjjjjjjjjhhhh#h####k###ai#.if#hjkfi###ge.hjg`kjhafcjjg`fdkghh#afdjjjjfejh##jjjje`g#jjafdhai#jjjj##hjjjj##jjjj##jjjh#hjj",
"jjjjjjjjjhhhh##k########f`feg`..ea`a#####hgea`kjjgf`ff``adjj###ffdjjjj`ehk##jjjji`cjcffe.i``ajjjh##hjjjh##jjjh##jjjh#hjj",
"jjjjjjjhhh##k#########hi`fg#c`ieeegg#######i`adhjjdg.e.kdhhk##haihjjjd`e####jjjdaf#kf`fiegka`djjjh##jjjj##hjjj##hjjh##jj",
"jjjjjh#h###########h#hhea#hhk.kh##k####k##hkaghjjjjjjjjjhh####hccjjjjjf.###hjjjj.i##ggjjjhhcgdjjjh##jjjj##jjjj##jjjh#hjj",
"jjhhh#h########hhhhhhhhhjhhhhhh#hh##k######hjhjjjjjjjjjjhh####hjjjjjjj#k##hjjjjjjh##hjjjjjh##hjjjh##hjjj###jjjh#hjjj##jj",
"hhh#########hhhhhhhhhjhhjhhhhhhhh#h#######h#hhhjjjjjjjjhh####hhjjjjjjhh##hhjjjjjjh###hjjjjh##hjjjh##jjjjh#hjjjh#hjjj##jj",
"#########hhhhhhjhjjjjhjjhjjhjhhhhhh#h###k##hhjjjjjjjjjjjh####hhjjjjjj####hjjjjjjjjh##hjjjjh##hjjjj###jjjj##jjjh##jjj##hj",
"#######hhhjjjjjjjjjjjjjjjjjjjjhjhhhh####hjhhhh######hhhhhj###hjjjjjjh###hjjjjjhjjjh###jjjjj###jjjjh##jjjh##jjjh##jjjh#jj",
"##hhh#jjjjjjjjjjjjjjjjjjjjjjjjjhjhhh#hj#h###h#hhhhhh#h###hhhjjjjjjjjh###hjjjjh#hjjhh##hjjjjh##hjjjh##hjjj##hjjj##hjjh#hj",
"hjhjjjjjhhjjjjjjjjjjjjjjjjjjjjjjjhjhh###hhjjjjjjjjjjjjjhh###hjjjjjjh###hjjjjjh#jjjjh##hjjjjh##hjjjh##hjjjh#hjjjh#jjjh#hj"
};
