/* XPM */
static char *fill_xpm[] = {
/* width height num_colors chars_per_pixel */
"   110    28       16            1",
/* colors */
"` c #941a74",
". c #8c82bc",
"# c #944e9c",
"a c #8caadc",
"b c #94368c",
"c c #8c92c4",
"d c #84bae4",
"e c #942684",
"f c #8c6aac",
"g c #8c9ed4",
"h c #944294",
"i c #84c6ec",
"j c #000000",
"k c #000000",
"l c #000000",
"m c #000000",
/* pixels */
"iiiiiiiidiiiiiiiiiidiidiiiiiiiiiiiiiiiiiiiiiiiiiiiiiiiiiiiiiiiidiiiiiiiiiiiiiiiiiiiiiiiiiiiiiiiiiiiiiiidiiiiii",
"iiiiiiiiiiiiiiidiiiiiiiiiiiiidiiiiiidiiiiiiiiiiidiiiidiiiiiidiiiiidiidiiiiiidiiiiiiiiidiidiidiidiidiiiiiiiidii",
"iiidiiiiiiidiiiiiiiiiiiiiiiiiiiiiiiiiiidiiiiiiiiiiiiiiiiiiiiiiiiiiiiiiiiiiiiiiidiidiiiiiiiiiiiiiiiiiiiiiiiiiii",
"iiiiiiiiiiiiiiiiiiiiiiiidiiiiiiiidiiiiiiiidiidiiiidiiiiiidiiiiiiiiiiiiiiidiiiiiiiiiiiiiiiiiiiiiiiiiiiiiidiiiii",
"iiiiiiidiiiiiidiiidiidiiiiidiiiiiiiiiiiiiiiiiiiiiiiiiiiiiiiiiidiidiiiiiiiiiiiiiiiiiiidiiiiiiiiiiiiiiiiiiiiiiii",
"iiiidiiiiiiiiiiiiiiiiiiiiiiiiidiiiiiiiiiiiiia.iiiiiiiidiiiiiiiiiiiicfiiiiiiiiiiiiiiiiidiidiiiiidiidiidiiiiiiii",
"iiiiiiiiiidiiiiiiiiiihcdiiiiiiiiiiidiiiiidiii`fiidiiiiiiiiiiiiiiiiig`aiidiiidiidiidiii`.iiiidiiiiiiiiiiiiidiii",
"iiiiiiiiiiiiiiidiiiii`#iiiiiiiiiiiiiiidiiiiii`giiiiiiiiiiidahaiidiigeiiiiiiiiiiiifiiiibfiigdiiiiiiiiiiiiiiiiii",
"iidiiidiiiiiiiiiiiiig`diiiiiidaf#iiiiiiiiiiii`ciicgidiiiiiii`fiiiacb```biiiiiiiiie#iiiefiif`ciiiiiiiiiiiiiiiii",
"iiiiiiiiiiiidiiiiiii##igi#fh#hff``iiiiiiiiiii`#he``hiiidiiii`.iidff`.iiiidiiiiiig`aiiihfiiidgdiidiidiidiidiiii",
"iiiiiiiiidiiiiiiiiia```hgbciiiiifeiiidii.hbeh`gdi#`.iiiiiiidbgdiiiieiiiiiiiiiidib.iciiffa#eiiiiiiiiiiiiiiiiiii",
"iiiidiiiiiiiiiiiidibfiiiiegiidgifbiiiiiifeiii`iidhiiiiiiiiiibgdi..f`#e`.iiiiiii.#ii`.dh`e.diiiiiiiiiiiiiiiiiii",
"iiiiiiiiiiiiiiiiiiceiaggibgchhfdgbiiiiiicbiii`iiiiiiidiiiii.``#if#diig`ciiiidichii.`aff`iiigiiiiiiiiiiiiiiiiii",
"iiiiiiiiiidiiiiiii```e#gibgiiiiigbiidiii.eiiibi.aiiiiiiidgb#`iii.b##gc`idiiiii```e`aiii`.h`#iidiidiidiidiidiii",
"iiidiiiiiiiiidiiihgii`iiibcgg#bageiiiiiiffi.eeb``iiiiiiiiiiibdiigfiiii`iiiiiiiaiieaiia#`eciaiiiiiiiiiiiiiiiiii",
"iiiiiiidiiiiiiii..iii`.fdbgega`#gbiiiiii#f#giid`fiiiiiiiiiiibi.agefhci`iiiiiidii#.iagfcf#id`diiiiiiiiiiiiiiiii",
"iiiiiiiiiiiiiiiidic#``#aieg#di`ig`iiiiiiegi##ig`iiiiiiidiiiibb.igfigai`iiiiiiiih`bb.iiia`de#iiiiiiiiiiiiiiiiii",
"iiiidiiiiiiiiiiiiicccbiiibg.bh#ic`idiidd`idi.bbfidiidiiiiid#`giigbffddbiiiiiiig`fdiiiiiib`#diidiidiidiidiidiii",
"iiiiiiiidiidiidiidiigbiiibgdddiig`iiiiif#iiii#`aiiiiiiiiih`edidigfdiag`#behadiiiiii.giiae`iiiiiiiiiiiiiiiiiiii",
"iiiiiiiiiiiiiiiiiiii.`#hieiiiiiig`iiiii`diii.eg`fiiiiiiiia.idcffeeh#ffgggggiiiii.hbgiifegb#iiiaiiiiiiiiiiiiiii",
"iidiiiiiiiiiiiiiiiiie`.iibiiiiabh`iiii#fiiihhiia``fdiiiiiiiii.gai.fii.iiiiiiifb``gii.h.iia`.i.giiiiiiiiiiiiiii",
"iiiiiiiiiiiiiiiiiiii`giiiciiiiia`biii.#ii.#aiiiia```e#aiiiiiiiiii`#ii.`ciiidii#ciididdiidi.`#`ciidiidiidiidiii",
"iiiiidiidiidiidiidiidiidiidiidiiecidi.idiidiidiidi.f.gddiidiidiaefiidi#`aiiiiiiiiiiiiiiiiii.``ciiiiiiiiiiiiiii",
"iiiiiiiiiiiiiiiiiiiiiiiiiiiiiiiiiiiiiiiiiiiiiiiiiiiiiiiiiiiiii.#diiiiii#giiiiiiiiiiiiiiiiiiiah.iiiiiiiiiiiiiii",
"iiiiiiiiiiiiiiiiiiiiiiiiiiiiiiiiiiiiiiiiiiiiiiiiiiiiiiiiiiiiiidiiiiiiiiiiiiiiiiiiiiiiiiiiiiiiiiiiiiiiiiiiiiiii",
"iiiiiiiiiiiiiiiiiiiiiiiiiiiiiiiiiiiiiiiiiiiiiiiiiiiiiiiiiiiiiiiiiiiiiiiiiiiiiiiiiiiiiiiiiiiiiiiiiiiiiiiiiiiiii",
"iiiiiiiiiiiiiiiiiiiiiiiiiiiiiiiiiiiiiiiiiiiiiiiiiiiiiiiiiiiiiiiiiiiiiiiiiiiiiiiiiiiiiiiiiiiiiiiiiiiiiiiiiiiiii",
"iiiiiiiiiiiiiiiiiiiiiiiiiiiiiiiiiiiiiiiiiiiiiiiiiiiiiiiiiiiiiiiiiiiiiiiiiiiiiiiiiiiiiiiiiiiiiiiiiiiiiiiiiiiiii"
};
