/* XPM */
static char *fltp[] = {
/* columns rows colors chars-per-pixel */
"130 40 87 1",
"  c #000705",
". c #000C05",
"X c #000D09",
"o c #001106",
"O c #00130B",
"+ c #00190E",
"@ c #001612",
"# c #001A13",
"$ c #011E1A",
"% c #002117",
"& c #02221B",
"* c #9CBDB6",
"= c #A0BFB9",
"- c #8FC4BA",
"; c #94C5BD",
": c #95C9BE",
"> c #9BC4BC",
", c #9DC9BF",
"< c #A2C6BE",
"1 c #95CCC2",
"2 c #9CCDC4",
"3 c #9DCFC8",
"4 c #96D0C4",
"5 c #97D4C9",
"6 c #9DD1C6",
"7 c #9DD4CA",
"8 c #9DD9CD",
"9 c #9EDBD1",
"0 c #A3C7C0",
"q c #A4CDC5",
"w c #A4CFC9",
"e c #ADC6C4",
"r c #AACCC6",
"t c #ACCEC9",
"y c #A4D1C7",
"u c #A3D4CB",
"i c #A4D9CE",
"p c #A8D0C7",
"a c #ABD4CC",
"s c #ABD9CE",
"d c #A5D7D0",
"f c #A7DCD2",
"g c #ACD7D0",
"h c #AADBD3",
"j c #ADDFD8",
"k c #B3C7C6",
"l c #B3C9C6",
"z c #B4CDC9",
"x c #BCCDCD",
"c c #B2D4CD",
"v c #B0D8CF",
"b c #B9D2CF",
"n c #B4D6D1",
"m c #B3DCD4",
"M c #B4DED9",
"N c #BBD5D2",
"B c #BADCD5",
"V c #BADED9",
"C c #A6E1D7",
"Z c #A7E3D9",
"A c #ABE1D6",
"S c #ACE3D9",
"D c #AEE9DD",
"F c #B2E1D6",
"G c #B3E3DB",
"H c #B4E9DE",
"J c #B8E0D7",
"K c #BBE3DB",
"L c #BAE9DE",
"P c #B5E7E0",
"I c #B5EAE1",
"U c #BBE7E0",
"Y c #BBECE3",
"T c #B7F0E6",
"R c #BFF1E6",
"E c #BFF3E9",
"W c #C1D5D3",
"Q c #C1DAD7",
"! c #C3DCD9",
"~ c #C9DBDB",
"^ c #C2E3DD",
"/ c #C2E5E1",
"( c #C3EBE3",
") c #CFE3E1",
"_ c #CEEBE5",
"` c #C2F0E6",
"' c #C4F5EC",
/* pixels */
"ffffffffffffffffffffffffffffffffiCCfffCfffffffjhjdChdChdffffCifffjffffffffCfZjhdhfffffZ9ffZfhjdjdjdjdjdZfffffffCffffffffffffffffff",
"ffffffffffffffffffffffffffffffffCfiCfCffffjfffhhdjdjjddjfffAfAffffffffC99CffdfdjfhfffffCZ9ffhhjdjdCdCdCdffffjfffffffffffffffffffff",
"ffffffffffffffffffffffffffffffffCfffffffffffffffCdjddCCCiCfCffffhjffffffffffdjjdffffff999CZdZhfjdjdjZdhdffffffffffffffffffffffffff",
"fffffffffffffffffffffffffffffffffffAffffCfffffjfdCdZjdCdCfCCfCffhffffC9CC9fZCdhChfhffCZfZf9ZffffCdCddjdZfffAfjffffffffffffffffffff",
"ffffffffffffffffffffffffffCiff9fffffffffff9ffff99Cf9dff9ff99Cffihdff9C99C9C9dffhCsffffffdf9fffffffffdfffffffffffffffffffffffffffff",
"fffffffffffffffffffCffffffsAfffffffffffffffff9CfCfCC9f9fffC999fCfdff9CC99CfCf9ffsffffffff9ff9fffffffffffffffffffffffffffffffffffff",
"fffffffffffffffffff9ffffffCiff9CfffsffsffffffC9C9CC9C9ffifCfffCif9fCCC9CC99f9fffsfffffffffffffffffffffffffffffffffffffffffffffffff",
"ffffffffffffffffffffffffffiff99CfffffsAAfffff9C9999Cfff9Cf9ffffffff9fffffffff9ffffsffffffff9ffC9ffffffffffffffffffffffffffffffffff",
"fffffffffffffffff8dhdSfhiAifAfffAfAisAL,FyFfuA6A8D4D7fiAiiiD6AiysiiH6ffAfDiAAsiiA,HsisufFfAiAfAid9jhiiffAiuAiHyfffffffffffffffffff",
"ffffffffffffffffZfCuhhjjhG2SfifCif6Ass,LsuFF:uD58i7AfifiAsishuFFsfA6AfsyZdfi7AAAFiiu,Ryss,HFiisFIhujAF,FiHsHy6L6ffffffffffffffffff",
"ffffffffffffffff5AfjiG*uqmHuhE:9,TAAsFFFFmpsRsFyAAF6iHsuusssmsasuHuAFF,LHqhfFissyDuLH,FFFFsu6Fss>hj3yLsFyF,ssyFAffffffffffffffffff",
"fffffffffffffffffijjuj$nLaX2S7ffiA,is,J<.aFvyusGissFFyFssvKpq(psK,`yysOoaanoiusyDi,soFspssq^FasvLuMGm,L<vLouFY>Fffffffffffffffffff",
"ffffffffffffffffSfuKM2@XnmXUiiPiiiiY,KqNBocnpJm.s:Foo+ooooo+o..osyyoO.Bcvc^ooo+oi6RFoavvco....o..smpmmvLvyovppvFffffffffffffffffff",
"ffffffffffffffffiAhagM /Vgn.hGfy7Dfo+.O.o.o...OooFvoJpNcc^t*^Qb.vJJpr.bccB.cBK>osLysooo.B.ccNb(n.nasoOooooooooooffffffffffffffffff",
"ffffffffffffffffSudKt@nt2VMgOiuYC:Hsyvb..^cO.^rcpKpocptBccn^zbz.J<p^Q.Q.N._<BtOKiA,y%m<KcocNBc<B.JevOamaKp.FrsBoffffffffffffffffff",
"fffffffffffffffffjjaMXVnVntV.OhuiH6iKocBB.XrBc.BJ<FocJo.o....Qz.cKoo.....BtoN.BpusLoppBcb..o..+t.aJK.BccpJ.cKvovffffffffffffffffff",
"ffffffffffffffffjdajOmnanVgVVX giSisFopN.cvomB.mssp.Bc.ccKcN.bN Bvvao.tQbB!e.bnvvspo.  .b.VbncVpopFrOrBNpJ.vvasshfffffffffffffffff",
"ffffffffffffffffgaj.MwhJUtnrtV @o8Asv.^.JccK.qOsfFFovB.mypmvObQ.<sKvo+crB=O.^.Bcss+N.^kWNON..O.^osmcOK...+..o.sFhfffffffffffffffff",
"ffffffffffffffffiM.njO.XXOX @t_XAAuJ<......o.@.m6iiosF.mFsFs.an.KL,%a.oc..NV.bmcmsrcOkkbzO0.mv.c.mKv.rK.B<Bms+ashfffffffffffffffff",
"fffffffffffffffff2Uu>GKXKMr/ crMuhsmB_lbb+cc!NezLAsOvJ.mpspJ.(e.,svovovocNc.O..o.Ko.#X Oc.BOrrocOqcmObNcoBpp.K,mhfffffffffffffffff",
"fffffffffffffffffGfa';nX0mnrXnngm2Ja    . .X  XXppBorb&ec^BcXQx@mFoms.cJtK.cVBm.mL>b !bbc.s.VU.B.^a^.Bra.V^c.sJhhdffffffffffffffff",
"ffffffffffffffffiMwG2nGXgMmVXmMMuKmn ~kXWk~.WxxXKFv.Br..O..OXex mssyKoacV.Orrm.gs2(n l!zb.aO..Oa.Bar#rK^a.r.Jmumffffffffffffffffff",
"ffffffffffffffffhimfujaOwY1w#Mqmjdgq@x Nzb!z ~x yfAoyLuGsiRs2VnXF6FhaOqK.mn.K.ggjuscXbcBVOaaGmnw.Bpm.0naBJOv>Bamffffffffffffffffff",
"ffffffffffffffffhuMfMj.uM3`hXwUgh3Gn N X....X ~XFuAoJaJymuuuMMtXhusssompmssV.sMushas.aB.s.hGqmamobmc.Kcmv.moasGaffffffffffffffffff",
"ffffffffffffffffafijjX7mdhXiXuMdZ7jwXnnntnMnN Q svVOtb/tt/wVtNk@mufhPXnggnMXhgudfAsm n gMXGfugja.JwXVganXnguX$adiHiShfPuffffffffff",
"ffffffffffffffffhH2F.iPfP2GOdHfu79TjXnGqgUwnM Q sF>.@X XXXXXXX$XsGHs1@ddnXXPdhPjAiiGX@nju@2jGdXgOqV.wMg@guMdj0OXO1P1fd7Zffffffffff",
"fffffffffffffffffdj.iG71gdjhuhdf9Z-1@uhMY-jdhM MfSH63GhddfSdjjwMG;uGjXYX.GGudGf7ffGjXgU3iOSfuddXaMXuKX@wMjhjwYw@GAiSffI5ffffffffff",
"fffffffffffffffffhfjiAiRdPuhjf3H9ZTjuMMd3IddjjddA8CHdfMi9ZD5dPwdfIifjjudaji7j9jSZ6fuMddjSif5jPGgGaaMfUhiddj7hhiduiuSS7fjffffffffff",
"fffffffffffffffff2SfAS7uS2S;iHh7CC1dMj7jP99jddMMdhdjw0MGfddhdwgM1fjh7dhfi2TI1fS91Tf7PwGjf5ZZ8DdgugPduh3hdPjjjfgdiRd:Sj7fffffffffff",
"ffffffffffffffffiHj;AAiA6ffHG1ffZ5PdP3P79Z9f9CddfPuPMUgwSffTMdMwISiZdjGdGdddP9Z9ZS1S3jf9dD5Tf53MMwPdjjSZ999SdjdDf2fIddjdffffffffff",
"ffffffffffffffffAf2Pu7SfZSA74DZfCdhP;jjd5P9fdP3P9fdduhdPff558jPd79hfhfdfdh7P59fZZ4IdjP1jf9Z4ZSSjj2dM798dfZ9j8jh3Ahd47PPdffffffffff",
"ffffffffffffffff7hP7fAiiif8SA7Zd9dhdMhdCj9ZfC3jhD5Pdjdfd9fZfjf7ZZjf9fdjfjdD1Pf8dfCffhjjdZ89ZZ1PddPjdSfZfdf99PdiHfiHSd99jffffffffff",
"fffffffffffffffffffffffffffffffffffffffffffffffffffffffffffffffffffffffffffffC9ffCffffff9ffffffdhhdffffdffffffffffffffffffffffffff",
"ffffffffffffffffffffffffffffffffffffffffffffffffffffffffffffffffffffffffffffffffffffffffffffffffhhffffffffffffffffffffffffffffffff",
"ffffffffffffffffffffffffffffffffffffffffffffffffffffffffffffffffffffffffffffffffffffffffffffffffffffffffffffffffffffffffffffffffff",
"ffffffffffffffffffffffffffffffffffffffffffffffffffffffffffffffffffffffffffffffffffffffffffffffffffffffffffffffffffffffffffffffffff",
"ffffffffffffffffffffffffffffffffffffffffffffffffffffffffffffffffffffffffffffffffffffffffffffffffffffffffffffffffffffffffffffffffff",
"ffffffffffffffffffffffffffffffffffffffffffffffffffffffffffffffffffffffffffffffffffffffffffffffffffffffffffffffffffffffffffffffffff",
"ffffffffffffffffffffffffffffffffffffffffffffffffffffffffffffffffffffffffffffffffffffffffffffffffffffffffffffffffffffffffffffffffff",
"ffffffffffffffffffffffffffffffffffffffffffffffffffffffffffffffffffffffffffffffffffffffffffffffffffffffffffffffffffffffffffffffffff"
};
