/* XPM */
static char *fmjx[] = {
/* columns rows colors chars-per-pixel */
"130 40 82 1",
"  c #000704",
". c #000B05",
"X c #000D09",
"o c #001006",
"O c #00120C",
"+ c #001512",
"@ c #001B14",
"# c #001F1B",
"$ c #00221A",
"% c #002A23",
"& c #92BFB8",
"* c #A4BEBA",
"= c #8FCBBF",
"- c #96C2BB",
"; c #92CABE",
": c #9CC3BE",
"> c #9DC8BE",
", c #A4C5BE",
"< c #ACC2BF",
"1 c #95CDC2",
"2 c #9BC7C0",
"3 c #9BCDC3",
"4 c #96D2C5",
"5 c #96D6C8",
"6 c #9BD1C6",
"7 c #9DD5CA",
"8 c #9DD9CC",
"9 c #A3CDC5",
"0 c #A5CFC8",
"q c #ACC6C4",
"w c #ABCBC5",
"e c #ACCEC9",
"r c #A3D1C6",
"t c #A4D4CB",
"y c #A3DACE",
"u c #A8D1C7",
"i c #ACD4CC",
"p c #ADD9CE",
"a c #A7DCD2",
"s c #ADD7D0",
"d c #AADBD2",
"f c #B2C6C4",
"g c #B4CBC7",
"h c #B4CDC9",
"j c #BACECB",
"k c #B3D3CD",
"l c #B2DACF",
"z c #BBD3CE",
"x c #B4D6D1",
"c c #B3DBD4",
"v c #B6DED9",
"b c #BAD5D1",
"n c #BBDBD5",
"m c #BADDD8",
"M c #A6E2D5",
"N c #A7E6D9",
"B c #ABE1D6",
"V c #ADE4D9",
"C c #ADEADD",
"Z c #B4E1D7",
"A c #B3E3DB",
"S c #B2EADE",
"D c #B8E2D7",
"F c #BBE3DB",
"G c #B9E9DF",
"H c #B6EBE1",
"J c #BDE7E1",
"K c #BCEBE3",
"L c #B6F2E6",
"P c #BBF2E7",
"I c #BAF4E8",
"U c #C2D4D2",
"Y c #C2DAD6",
"T c #C3DED9",
"R c #CDDDDC",
"E c #C4E3DD",
"W c #CAE3DF",
"Q c #C5E6E1",
"! c #C2EBE3",
"~ c #C3F1E6",
"^ c #C3F2EA",
"/ c #C8F1EB",
/* pixels */
"aaaaaaaaaaaaaaaaaaaaaaaaaaaaaaaaaaaaaadaaadaaaaaaaddaadaaaaaaaaadaaaMM88M8a8MaaaaaaaaaaMMaMMaaaaaaaaaaaaaaaaaaaaaaaaaaaaaaaaaaaaaa",
"aaaaaaaaaaaaaaaaaaaaaaaaaaaaaaaaaaaadaaadadaaaaaaaaadadaaaaaaadaaaaa8MMM8MMaaaaaaaaaaaaaaaaaaaaaaaaaaaaaaaaaaaaaaaaaaaaaaaaaaaaaaa",
"aaaaaaaaaaaaaaaaaaaaaaaaaaaaaaaaaaaaaaaaaaaaaaaaaaaaaaaaaaaaaaaaaaaaaaM8MM8aaaaadadaaaaaaaaadaddaaaaaaaaaaaaaaaaaaaaaaaaaaaaaaaaaa",
"aaaaaaaaaaaaaaaaaaaaaaaaaaaaaaaaaaaaaaaaaaaaaaaaaaaaaaaaaaaaaaaadadaaaa8MMaaaaaaddadNaBaaaaaaaddaaaaaaaaaaaaaaaaaaaaaaaaaaaaaaaaaa",
"aaaaaaaaaaaaaaaaaaaaaaaaaaaaaaaaaaa8yyMaaaaMaa8a8aaMaaaaaMMayMaaddaaaaaaaaaaaaddddddMyMpaadaddadaaaaaaaaaaaaaaaaaaaaaaaaaaaaaaaaaa",
"aaaaaaaaaaaaaaaaaaaaaaaaaaaaaaaaaaaMaMMaaa8MM8MaMaM8aaaaaa8aMMaaaaaaaaaaaaaaaaddddddppMpaadddaaaaaaaaaaaaaaaaaaaaaaaaaaaaaaaaaaaaa",
"aaaaaaaaaaaaaaaaaaaaaaaaaaaaaaaayaayMyaaa8aaaM8Maaaa8aaa8aaayyaaaaaaaaaaaaaaaaaaydddyypMaaaaaaaaaaaaaaaaaaaaaaaaaaaaaaaaaaaaaaaaaa",
"aaaaaaaaaaaaaaaaaaaaaaaaaaaaaaaaMyMayMaaaaaaaaaa8aaaMaMaMaaaaaaaaaaaaaaaaaaaaaaayMMyMdpMaaaaaaaaaaaaaaaaaaaaaaaaaaaaaaaaaaaaaaaaaa",
"aaaaaaaaaaaaaaaaaaaaaaaaaaaaaaaaaVyaaada6AyA7yBBM7Va6yBaayB7aV1VN8M8CM888NM8MN7N8M8V;MyB>B8NN8S;aaaaaaaaaaaaaaaaaaaaaaaaaaaaaaaaaa",
"aaaaaaaaaaaaaaaaaaaaaaaaaaaaaaaa6tdddaaaK7d7tH7aaCa6KB3AA7BAtdCta8Ma17H7aaaM8M48C=MNyBH;ZMyMN8=Saaaaaaaaaaaaaaaaaaaaaaaaaaaaaaaaaa",
"aaaaaaaaaaaaaaaaaaaaaaaaaaaaaaaaAav3aata1ddHAtatataBtdAyt7tBdtAtVa7MCa7B7aM77NNNM8S;yByZMpZ>MS8yaaaaaaaaaaaaaaaaaaaaaaaaaaaaaaaaaa",
"aaaaaaaaaaaaaaaaaaaaaaaaaaaaaaaatad7vVdadKs7tH0Ad6KttAa7vBvds6tA6C7aa6H0AVa7Aaaa>PyZpp>Dl>yG>y7Baaaaaaaaaaaaaaaaaaaaaaaaaaaaaaaaaa",
"aaaaaaaaaaaaaaaaaaaaaaaaaaaaaaaadK6cdvsddX++Xtvdvv:vv7vKd3As3AddBHXdJ0sv0Xvv7dAtBrpoplk.lEp>ZtZyaaaaaaaaaaaaaaaaaaaaaaaaaaaaaaaaaa",
"aaaaaaaaaaaaaaaaaaaaaaaaaaaaaaaaA&X# XX+XvcssActd+XX++XXXXXX%XXdd2#eevxvvv vJ0dvp>Z@.Ew.OooOuDptaaaaaaaaaaaaaaaaaaaaaaaaaaaaaaaaaa",
"aaaaaaaaaaaaaaaaaaaaaaaaaaaaaaaacs#2cJv0vssv0ssss0v0J0XJJ0vs0cvsvxXXX+bXXXXXX#esDDk ,koj<WoEu,Dlaaaaaaaaaaaaaaaaaaaaaaaaaaaaaaaaaa",
"aaaaaaaaaaaaaaaaaaaaaaaaaaaaaaaasv vx0exvev0vssasveveXxeqvssvxecebXkbeYm jbRXevsil.kW ... oo@oppaaaaaaaaaaaaaaaaaaaaaaaaaaaaaaaaaa",
"aaaaaaaaaaaaaaaaaaaaaaaaaaaaaaaaseX X  X XXXtssvp,Oo..X  OooOorDe miemebj jXYeDprD..z.zjzozelolpaaaaaaaaaaaaaaaaaaaaaaaaaaaaaaaaaa",
"aaaaaaaaaaaaaaaaaaaaaaaaaaaaaaadxQ x+nbfbmbX0J7tBp.zk.UUU uE,.p>m X .x.O XX ..orD..Dz.Ygz nW,orZaaaaaaaaaaaaaaaaaaaaaaaaaaaaaaaaaa",
"aaaaaaaaaaaaaaaaaaaaaaaaaaaaaaaa0x x xmmemeXva2CyD zk@*RjOlin.~cXm s0FbgUjfUTilcoDokb  O....$ouBaaaaaaaaaaaaaaaaaaaaaaaaaaaaaaaaaa",
"aaaaaaaaaaaaaaaaaaaaaaaaaaaaaaadve+ve bexvXv6BHallonk.  . nik.6pTq QciTX + @.wcrpl.wk@gj n<bouDlaaaaaaaaaaaaaaaaaaaaaaaaaaaaaaaaaa",
"aaaaaaaaaaaaaaaaaaaaaaaaaaaaaaaaccXJ:XcvxsXAAay1yp.zc YUz.Ecwo9D.OO  k,ogUz<XEivcl.EgYf  nE.Ooyraaaaaaaaaaaaaaaaaaaaaaaaaaaaaaaaaa",
"aaaaaaaaaaaaaaaaaaaaaaaaaaaaaaaa6d+&/JXesXdA77CCrEobiofzU.9uk@ptil.nmnn   ...wuipDo,O.@Yz  ,D>lPdaaaaaaaaaaaaaaaaaaaaaaaaaaaaaaaaa",
"aaaaaaaaaaaaaaaaaaaaaaaaaaaaaaadK2+v9ss+ Jsa77V1A9 nn. .X cFk.iDF,@ukkk.bEzwOkiDiuonkn  k.n.nZc>aaaaaaaaaaaaaaaaaaaaaaaaaaaaaaaaaa",
"aaaaaaaaaaaaaaaaaaaaaaaaaaaaaaaa0AXsesvXXtdtAaaayl.kiOwzz.cikocrpn.Fw F ...O.cppD,oi obb.hol.ZrZaaaaaaaaaaaaaaaaaaaaaaaaaaaaaaaaaa",
"aaaaaaaaaaaaaaaaaaaaaaaaaaaaaaaasXssssOs0XXvddadrD Y9OkzgXctn.ZtZ9Ol.wFiowp@90$ull.knn..nwXxc@.Zdaaaaaaaaaaaaaaaaaaaaaaaaaaaaaaaaa",
"aaaaaaaaaaaaaaaaaaaaaaaaaaaaaaaasXJvX vsFFtXXXA3D> .@.O.@.o@..ZyrG..F0m.xvD.pG.lpc.p..ckec.ud.Z6aaaaaaaaaaaaaaaaaaaaaaaaaaaaaaaaaa",
"aaaaaaaaaaaaaaaaaaaaaaaaaaaaaaadX^XXvsscsiAc+JtKdG.ctGkkkvddpoddyy@lkv.vpytt.@.vdioFvixc.G.iZctVaaaaaaaaaaaaaaaaaaaaaaaaaaaaaaaaaa",
"aaaaaaaaaaaaaaaaaaaaaaaaaaaaaaaas0FJvs0dsJ2yv0dtyrccytlkiv68siyBZy>ck0cttBBdttpiZDod2tviuO9datSdaaaaaaaaaaaaaaaaaaaaaaaaaaaaaaaaaa",
"aaaaaaaaaaaaaaaaaaaaaaaaaaaaaaaav3A6d2^6t7VK7dAdP6scyBcDsvaSJs7NMdddDciAG6N8VycAatstKdJydidKtS71aaaaaaaaaaaaaaaaaaaaaaaaaaaaaaaaaa",
"aaaaaaaaaaaaaaaaaaaaaaaaaaaaaaaatHyddAydVa7aa7By1AFtVttdv0C13J8My4Aa2dd7;MM8Nyv29AAd3asd3K33tBaPaaaaaaaaaaaaaaaaaaaaaaaaaaaaaaaaaa",
"aaaaaaaaaaaaaaaaaaaaaaaaaaaaaaaaa1V78V4a1I1CaHaaaV9tSaBd0d8MK6C5N5VpF0tKL85C8d0KaG1aKdtdBaaSd7a8aaaaaaaaaaaaaaaaaaaaaaaaaaaaaaaaaa",
"aaaaaaaaaaaaaaaaaaaaaaaaaaaaaaaaaV8MVaMMC1Ba8a8BV6dJ1ddddV8ayy8M5C7BddG37MM8MyVtB1Ad3ddadaad8aV8aaaaaaaaaaaaaaaaaaaaaaaaaaaaaaaaaa",
"aaaaaaaaaaaaaaaaaaaaaaaaaaaaaaaaaaaaaaaaaaaaaaaaaaaaaaaaaaaaaaaaaaaaaaaaaaaaaaaaaaaaaaaaaaaaaaaaaaaaaaaaaaaaaaaaaaaaaaaaaaaaaaaaaa",
"aaaaaaaaaaaaaaaaaaaaaaaaaaaaaaaaaaaaaaaaaaaaaaaaaaaaaaaaaaaaaaaaaaaaaaaaaaaaaaaaaaaaaaaaaaaaaaaaaaaaaaaaaaaaaaaaaaaaaaaaaaaaaaaaaa",
"aaaaaaaaaaaaaaaaaaaaaaaaaaaaaaaaaaaaaaaaaaaaaaaaaaaaaaaaaaaaaaaaaaaaaaaaaaaaaaaaaaaaaaaaaaaaaaaaaaaaaaaaaaaaaaaaaaaaaaaaaaaaaaaaaa",
"aaaaaaaaaaaaaaaaaaaaaaaaaaaaaaaaaaaaaaaaaaaaaaaaaaaaaaaaaaaaaaaaaaaaaaaaaaaaaaaaaaaaaaaaaaaaaaaaaaaaaaaaaaaaaaaaaaaaaaaaaaaaaaaaaa",
"aaaaaaaaaaaaaaaaaaaaaaaaaaaaaaaaaaaaaaaaaaaaaaaaaaaaaaaaaaaaaaaaaaaaaaaaaaaaaaaaaaaaaaaaaaaaaaaaaaaaaaaaaaaaaaaaaaaaaaaaaaaaaaaaaa",
"aaaaaaaaaaaaaaaaaaaaaaaaaaaaaaaaaaaaaaaaaaaaaaaaaaaaaaaaaaaaaaaaaaaaaaaaaaaaaaaaaaaaaaaaaaaaaaaaaaaaaaaaaaaaaaaaaaaaaaaaaaaaaaaaaa",
"aaaaaaaaaaaaaaaaaaaaaaaaaaaaaaaaaaaaaaaaaaaaaaaaaaaaaaaaaaaaaaaaaaaaaaaaaaaaaaaaaaaaaaaaaaaaaaaaaaaaaaaaaaaaaaaaaaaaaaaaaaaaaaaaaa",
"aaaaaaaaaaaaaaaaaaaaaaaaaaaaaaaaaaaaaaaaaaaaaaaaaaaaaaaaaaaaaaaaaaaaaaaaaaaaaaaaaaaaaaaaaaaaaaaaaaaaaaaaaaaaaaaaaaaaaaaaaaaaaaaaaa"
};
