/* XPM */
static char *form[] = {
/* columns rows colors chars-per-pixel */
"300 40 92 1",
"  c #000604",
". c #000C05",
"X c #000E0A",
"o c #001006",
"O c #00120C",
"+ c #00190E",
"@ c #001611",
"# c #001A14",
"$ c #001D19",
"% c #002014",
"& c #00231B",
"* c #062F29",
"= c #89BEB4",
"- c #AABDBB",
"; c #8EC3BA",
": c #8EC8BA",
"> c #95C5B7",
", c #94C3BB",
"< c #94C9BE",
"1 c #9BC6BD",
"2 c #99CBBF",
"3 c #A1C4BE",
"4 c #A8C1BD",
"5 c #95CCC2",
"6 c #9CC7C0",
"7 c #9CCDC4",
"8 c #94D0C5",
"9 c #95D4C9",
"0 c #9CD1C6",
"q c #9DD4CA",
"w c #9DDACD",
"e c #9FDCD1",
"r c #9EE0D2",
"t c #A3C6C1",
"y c #A3CCC5",
"u c #A4CFC8",
"i c #ADC7C3",
"p c #ABCBC5",
"a c #ACCEC9",
"s c #A3D1C6",
"d c #A4D4CB",
"f c #A4DACE",
"g c #ABD4CD",
"h c #ACD9CE",
"j c #A5D7D0",
"k c #A7DCD2",
"l c #ADD6D0",
"z c #AADBD3",
"x c #ADDFD8",
"c c #B4CBC7",
"v c #B3CECA",
"b c #BACAC7",
"n c #BBCECB",
"m c #B3D3CD",
"M c #B1D9CF",
"N c #BAD2CE",
"B c #B4D6D1",
"V c #B3DCD4",
"C c #B4DFD8",
"Z c #BAD5D2",
"A c #BADBD5",
"S c #BCDED9",
"D c #A5E1D5",
"F c #A6E3D8",
"G c #ACE1D6",
"H c #ADE3D9",
"J c #ACE9DC",
"K c #B2E1D6",
"L c #B3E3DB",
"P c #B3E9DE",
"I c #B8E0D7",
"U c #BAE3DC",
"Y c #BBEADE",
"T c #AFECE2",
"R c #B7E6E0",
"E c #B5EAE1",
"W c #BAE7E0",
"Q c #BBEBE3",
"! c #B3F1E3",
"~ c #BDF1E7",
"^ c #BDF1E8",
"/ c #C2D6D4",
"( c #C2DBD6",
") c #C1DED9",
"_ c #CADDDA",
"` c #C3E2DD",
"' c #C4E5E0",
"] c #C3EBE4",
"[ c #CBE6E2",
"{ c #CBEAE5",
"} c #C4F1E7",
"| c #C4F9EF",
/* pixels */
"kkkkkkkkkkkkkkkkkkkkkkkkkkkkkkkkkkkkkkkkkkkkkkkkkkkkkkkkkkkkkkkkkkkzzzkzzkkkkkkkkkkkkkkkkkkkkkkkkkkkkkkkkkkkkkkkkDkkkFkkkFkkeFzeFFFjFjFjDkkkDkkkkkkkkkkkkkkkkkkkkkkkkkkkkkkkkkkkzzkkxFkekkkkkkzjjkkkkkkkkkzkkzkzzzzzjkfDfDfkkkkzkkkkkkkkkkkkkkkkkkkkkkkkkkkkkkkkkkkkkkkkkkkkkkkkkkkkkkkkkkkkkkkkkkkkkkkkkkkk",
"kkkkkkkkkkkkkkkkkkkkkkkkkkkkkkkkkkkkkkkkkkkkkkkkkkkkkkkkkkkkkkkkjkkzfzkkzjzzkkkkkkkkkkkkkkkkkkkkkkkkkkkkkkkkkkkkzDkkkkkkkekFzFzzFjjFjFjFzkkkkxkkkkkkkkkkkkkkkkkkkkkkkkkkkkkkkkkkkkkkkkzFDkkkkkxjzkkkkkkkjzkzzjzkzzzzkkDkDfrkkkkzkkkkkkkkkkkkkkkkkkkkkkkkkkkkkkkkkkkkkkkkkkkkkkkkkkkkkkkkkkkkkkkkkkkkkkkkkkkk",
"kkkkkkkkkkkkkkkkkkkkkkkkkkkkkkkkkkkkkkkkkkkkkkkkkkkkkkkkkkkkkkkkkkkkzjkkkkkkkkkkkkkkkkkkkkkkkkkkkkkkkkkkkkkkkkkkzzkhxkkkzFkFzkxkjzjjxjxjkkzkkkkkkkkkkkkkkkkkkkkkkkkkkkkkkkkkkkkkkzkkezeFkkDDkkkxzkkkkkkkkkkkkkkkjkkkkkDrfDkkkkkjkkkkkkkkkkkkkkkkkkkkkkkkkkkkkkkkkkkkkkkkkkkkkkkkkkkkkkkkkkkkkkkkkkkkkkkkkkkk",
"kkkkkkkkkkkkkkkkkkkkkkkkkkkkkkkkkkkkkkkkkkkkkkkkkkkkkkkkkkkkkkkkkkkkzkkkkkkkkkkkkkkkkkkkkkkkkkkkkkkkkkkkkkkkkkkkkkkDkkkkzzzzzzzkzzzzjxjxzzkDxkkkkkkkkkkkkkkkkkkkkkkkkkkkkkkkkkkkjzkkFzFeDDfDxkkkkkkkkkkkkkkkkkkkkkkkkkkkDeDkkkkzkkkkkkkkkkkkkkkkkkkkkkkkkkkkkkkkkkkkkkkkkkkkkkkkkkkkkkkkkkkkkkkkkkkkkkkkkkkk",
"kkkkkkkkkkkkkkkkkkkkkkkkkkkkkkkkkkkkkkkkkkkkkkkkkkkkkkkkkkkkkkkkkkkkkkfDkkDkkkDfkkkkkkkkkkkkkkkkkkkkkkkkkkkkkkkkkhkkkkhkzzzzjkzjzzzzjzzjhkkkGhkkkkkkkkkkkkkkkkkkkkkkkkkkkkkkkkkkzzkkjzekfDffkkkkkkkkkkkkkkkkkkkkkkkkkkkkfkkkkkzzkkkkkkkkkkkkkkkkkkkkkkkkkkkkkkkkkkkkkkkkkkkkkkkkkkkkkkkkkkkkkkkkkkkkkkkkkkkk",
"kkkkkkkkkkkkkkkkkkkkkkkkkkkkkkkkkkkkkkkkkkkkkkkkkkkkkkkkkkkkkkkkkkkrkfDkkkfDDefDkkkkkkkkkkkkkkkkkkkkkkkkkkkkkkkkkhzzzhkkzzjzkkzkjzezFzzzhkzzkkkkkkkkkkkkkkkkkkkkkkkkkkkkkkkkkkkkjzkkzekeDDfDkkkkkkkkkkkkkkkkkkkkkkkkkkekDkkkkjkkzkkkkkkkkkkkkkkkkkkkkkkkkkkkkkkkkkkkkkkkkkkkkkkkkkkkkkkkkkkkkkkkkkkkkkkkkkkk",
"kkkkkkkkkkkkkkkkkkkkkkkkkkkkkkkkkkkkkkkkkkkkkkkkkkkkkkkkkkkkkkkkkrwDrDfkkkDefkkkkkkkkkkkkkkkkkkkkkkkkkkkkkkkkkkkkkzkkkkkezzzzjkkkkzzzzjzkhkkkkkkkkkkkkkkkkkkkkkkkkkkkkkkkkkkkkkkkkzekkkkGfffkkkkjzkkkkkkkkkkkkkkeDDeekkkfkkkkzzkjkkkkkkkkkkkkkkkkkkkkkkkkkkkkkkkkkkkkkkkkkkkkkkkkkkkkkkkkkkkkkkkkkkkkkkkkkkk",
"kkkkkkkkkkkkkkkkkkkkkkkkkkkkkkkkkkkkkkkkkkkkkkkkkkkkkkkkkkkkkkkkkkDfDfDfkkfkkkkkkkkkkkkkkkkkkkkkkkkkkkkkkkkkkkkkkkkkkkkkzezjzkkkkezzzjjFkkkkGfffkkkkkkkkkkkkkkkkkkkkkkkkkkkkkkkzzkzzzzzkkkkkkkkfzkzkjkzkkkkkkekkkkkkkkkkkkkkkkzjkkkkkkkkkkkkkkkkkkkkkkkkkkkkkkkkkkkkkkkkkkkkkkkkkkkkkkkkkkkkkkkkkkkkkkkkkkkk",
"kkkkkkkkkkkkkkkkkkkkkkkkkkkkkkkkkkkkkkkkkkkkkkkkkkkkkkkkkkkkkkkkkrkDfDeDzjz0zzjj9!qfHdGjkkkkkkkkkkkkkkkkkkkkkkkkHffGDfffkkffGDffeTeeGkkkGffGwfwDkkkkkkkkjkxjxj0kkzz0HL7H0Q5zxkkzkjLqzhGfk0GP0GGfdzdxPj7HxkxkHzjjqRjkj0RkxzlzfzfGkkkkkkkkkkkkkkkkkkkkkkkkkkkkkkkkkkkkkkkkkkkkkkkkkkkkkkkkkkkkkkkkkkkkkkkkkkkk",
"kkkkkkkkkkkkkkkkkkkkkkkkkkkkkkkkkkkkkkkkkkkkkkkkkkkkkkkkkkkkkkkkkDDfDwkkkGzxHzfzHqkLffJ0kkkkkkkkkkkkkkkkkkkkkkkkwfP0fGkGffGkk2Pf9FeefffkfkKfwJwDkkkkkkkkxxqqexEkqxjxxdx7Lfxzx0xdqx}7Kh2IYU0DffwfxQ0lsdUzjexjqqGGjxjzRx0lyzLQsxPdkkkkkkkkkkkkkkkkkkkkkkkkkkkkkkkkkkkkkkkkkkkkkkkkkkkkkkkkkkkkkkkkkkkkkkkkkkkk",
"kkkkkkkkkkkkkkkkkkkkkkkkkkkkkkkkkkkkkkkkkkkkkkkkkkkkkkkkkkkkkkkkkkDkkkkkdEdzdjzKK8kkqGGkkkkkkkkkkkkkkkkkkkkkkkkkHfhfPfsGkkzfKGfkJ90PGfYsGK<fY0rwkkkkkkkkkejEk0k0RClx0zRxzlWu7LQuCL6Bhg]ssdhKhKkkuuCClLllRx7xjPjqxzlR7xllQd6dff0jkkkkkkkkkkkkkkkkkkkkkkkkkkkkkkkkkkkkkkkkkkkkkkkkkkkkkkkkkkkkkkkkkkkkkkkkkkkk",
"kkkkkkkkkkkkkkkkkkkkkkkkkkkkkkkkkkkkkkkkkkkkkkkkkkkkkkkkkkkkkkkkkDkkkkkkfHfzfKz7dHPGkkjkkkkkkkkkkkkkkkkkkkkkkkkzdsYs2Kf+hK2KffIhfHP07Gso2sYkfGPHkkkkkkkkxkkxkjGE7ulxOdVuzdVCRuuCXulCIVs+hIM7K<fKCXllglXzj7Czz5Pz lR6CllRuCCzjKkGkkkkkkkkkkkkkkkkkkkkkkkkkkkkkkkkkkkkkkkkkkkkkkkkkkkkkkkkkkkkkkkkkkkkkkkkkkkk",
"kkkkkkkkkkkkkkkkkkkkkkkkkkkkkkkkkkkkkkkkkkkkkkkkkkkkkkkkkkkkkkkkkkkkkkkkP,xUglCUGj0PzqPkkkkkkkkkkkkkkkkkkkkkkkkzIooOoMK.hhMoo%oKd2hKMsAo`IpKssK2kkkkkkkkjHP5jEqdxRaCl.ClaVulllUlXXO...`o+o+ooKkfu@.SCBlXUhVLyxlz CBSBOXXO.XCkskdkkkkkkkkkkkkkkkkkkkkkkkkkkkkkkkkkkkkkkkkkkkkkkkkkkkkkkkkkkkkkkkkkkkkkkkkkkkk",
"kkkkkkkkkkkkkkkkkkkkkkkkkkkkkkkkkkkkkkkkkkkkkkkkkkkkkkkkkkkkkkkkkkkkkzlkxXOXX.XXOfE=zHkzkkkkkkkkkkkkkkkkkkkkkkkhm.ZMO3`.)3`oBpOpIIVgm`i.vMBImYMzkkkkkkkkdzHkFkqHXXXX.O.@$X$XllC.Cp.`aMa+a.KMshhhXSay$X X.*.XClOX#XXXB `BBlX7IDdHkkkkkkkkkkkkkkkkkkkkkkkkkkkkkkkkkkkkkkkkkkkkkkkkkkkkkkkkkkkkkkkkkkkkkkkkkkkk",
"kkkkkkkkkkkkkkkkkkkkkkkkkkkkkkkkkkkkkkkkkkkkkkkkkkkkkkkkkkkkkkkkkkkkkzkzsOyURgVUkfkEkfLqkkkkkkkkkkkkkkkkkkkkkkkhg@NN.(.O..co4mom...O.+..o.+O...hkkkkkkkkGGqHkk^7XBBxalSatCtOBVaXBaU.mBopIm.pYkfKOt''.CSlUyhOUfVVXBSZaOO @..WddYqkkkkkkkkkkkkkkkkkkkkkkkkkkkkkkkkkkkkkkkkkkkkkkkkkkkkkkkkkkkkkkkkkkkkkkkkkkkk",
"kkkkkkkkkkkkkkkkkkkkkkkkkkkkkkkkkkkkkkkkkkkkkkkkkkkkkkkkkkkkkkkkkkkkklllLXLdlgCghGj0Gx0LkkzzzzzzkklhzkkhzhzhkkklN....c`.n`co`B.NVKaVmvX .`cvMMMMzkkkzkkk0E0Gdz0OlBaBa'aBVB@luVOVBmXMMoNAM.IMpMhoBmXmXZZmaABXuUyV )vZZZpSNZVlhD0Hkkkkkkkkkkkkkkkkkkkkkkkkkkkkkkkkkkkkkkkkkkkkkkkkkkkkkkkkkkkkkkkkkkkkkkkkkkkk",
"kkkkkkkkkkkkkkkkkkkkkkkkkkkkkkkkkkkkkkkkkkkkkkkkkkkkkkkkkkkkkkkkfkkkkzlzh@gVCuWlxylLXOXXC6CCXt#XoU.A..oomcOoooMAc.MM.nn.mv`.MM.MfG0zhm.Xmohh2GKfzjzjxflxzdKfx7KzaXXOX X Xllx7WdlMB.ABBIaaXBhIV.o $.nX . . O.BhIoB.NiX@.. @..XY<Fkkkkkkkkkkkkkkkkkkkkkkkkkkkkkkkkkkkkkkkkkkkkkkkkkkkkkkkkkkkkkkkkkkkkkkkkkkkk",
"kkkkkkkkkkkkkkkkkkkkkkkkkkkkkkkkkkkkkkkkkkkkkkkkkkkkkkkkkkkkkkkkDekkfzlVhOVglC1CVUVXRlal@lSt.$pgI3 .A{1Y.XmahI.)A.sg....o.noV>%shfGIVXm.M.MMYfffjQfzVLuK0KzdQzxgCSaaSZi allxk5RfA.A..O.OO..o.AmmS vZ.N/b/bi`Mhs.N.N(c.NNnZ assPfkkkkkkkkkkkkkkkkkkkkkkkkkkkkkkkkkkkkkkkkkkkkkkkkkkkkkkkkkkkkkkkkkkkkkkkkkkkk",
"kkkkkkkkkkkkkkkkkkkkkkkkkkkkkkkkkkkkkkkkkkkkkkkkkkkkkkkkkkkkkkkkkkkkkzlzBX.X#X&XluXUVzuBaXpB@laUVh#NphI1.NBVK>+4m.IhXbN.mNb.MYoMGfdsh.vOZa.Ih0GGKsflffxjWlzGffdl7xlZZZ@SSSuxER7zU.M`mAIAIOhAMMhM.B(n XXX  X.pM#o. ..ZO.....SUhqfkkkkkkkkkkkkkkkkkkkkkkkkkkkkkkkkkkkkkkkkkkkkkkkkkkkkkkkkkkkkkkkkkkkkkkkkkkkk",
"kkkkkkkkkkkkkkkkkkkkkkkkkkkkkkkkkkkkkkkkkkkkkkkkkkkkkkkkkkkkkkkkkkkkzzlll@zgsVtWLUXllgCCB#CC.gUlzV.AMhYK.`m3GY.`N.oo._coNNN Ks.MKhKhOA`.Aa`.yKshlX&X@XsKXXO#XxUzRuSZm ZvuCxj0jdCo.MAomIapoA1IaVXX..AX - / v ZhIM).cNA cAZN aghDKkkkkkkkkkkkkkkkkkkkkkkkkkkkkkkkkkkkkkkkkkkkkkkkkkkkkkkkkkkkkkkkkkkkkkkkkkkkk",
"kkkkkkkkkkkkkkkkkkkkkkkkkkkkkkkkkkkkkkkkkkkkkkkkkkkkkkkkkkkkkkkkfkkkzzlllXlLClLyslXlCCBul.ulXVVgzs.`yhsdXaAKhfXZm.Va./.mpA/.hKoAshKo3m)X4`4@@CyQjxfxfUkdLKf7Ufxo.X.XO .OXXX#OzL.M.AaM.aIU.h`gCtVam[iX _ NXNXMM3hN [mmX.  @ SAsx0kkkkkkkkkkkkkkkkkkkkkkkkkkkkkkkkkkkkkkkkkkkkkkkkkkkkkkkkkkkkkkkkkkkkkkkkkkkk",
"kkkkkkkkkkkkkkkkkkkkkkkkkkkkkkkkkkkkkkkkkkkkkkkkkkkkkkkkkkkkkkkkDkkkzkzhCXLzugLzCz@fR7lzl@CCOglgsY.mUsGDoMVh0f@m`.zVXcOaM./O3d.MIM.g@. .o.Xm..XsUjfjzsjz0dzQzdzGlx7'Z )paRjjqxXxM.MKVO.sI.KhgVVVBpBO4O  ....AMUKXX.XiXZavc@vgLjzkkkkkkkkkkkkkkkkkkkkkkkkkkkkkkkkkkkkkkkkkkkkkkkkkkkkkkkkkkkkkkkkkkkkkkkkkkkk",
"kkkkkkkkkkkkkkkkkkkkkkkkkkkkkkkkkkkkkkkkkkkkkkkkkkkkkkkkkkkkkkkkkkkkzzzzVoLCsLzluWXlldRlR.RuXVgChG.MhY2G#3hGDHXBa.hh...OoO..Y+oIo&sIg{pONS3AS@zz7zzjHPzzPUx0kLszxlR6lXaSCuxxzkjzVoaK3I.KgogMhKshO.B.N@vXN.{opI..m mA`.#..@.XOgjzkkkkkkkkkkkkkkkkkkkkkkkkkkkkkkkkkkkkkkkkkkkkkkkkkkkkkkkkkkkkkkkkkkkkkkkkkkkk",
"kkkkkkkkkkkkkkkkkkkkkkkkkkkkkkkkkkkkkkkkkkkkkkkkkkkkkkkkkkkkkkkkkkkkjzzzg$6KzzzjxdVXlxjl.CxlXjzzffohzfrfoIVhfDXlZ.hI.cZaM.(ozshhIhMshpmXmmAVdCjxPdPzz7xdkdKkkjzzjlRlBOaljxx7Rkjzs+aVhgMhg+hdVsXOgBB.Z Z N#4.UhhhmXZ.XOpBBiXmhsRqkkkkkkkkkkkkkkkkkkkkkkkkkkkkkkkkkkkkkkkkkkkkkkkkkkkkkkkkkkkkkkkkkkkkkkkkkkkk",
"kkkkkkkkkkkkkkkkkkkkkkkkkkkkkkkkkkkkkkkkkkkkkkkkkkkkkkkkkkkkkkkkDkkkkkzhlXxjdz0GfCjs@OXOx7LkXhHfHdXIjwT5XClPwwOlA.KsOvmgVhm.0GaIGsPddlUXllxlzzkkkkklklzkkkzkjkkzjzlglXgzkkkkkkzzhXVhVzyxj@7lCjdxsU.pSXNOmXBXYhsVV.aBuCBBZB BlCxqkkkkkkkkkkkkkkkkkkkkkkkkkkkkkkkkkkkkkkkkkkkkkkkkkkkkkkkkkkkkkkkkkkkkkkkkkkkk",
"kkkkkkkkkkkkkkkkkkkkkkkkkkkkkkkkkkkkkkkkkkkkkkkkkkkkkkkkkkkkkkkkkkkkkkzzKfGjPzffxdjRsHLfGfUfdPqkfDdVjeFTC7zd9Tql.hohX`gV7ImXK!dsGffqQK1#zzlzzzkkkkkkkkkkkkkkzzkkzHfOCOdlxkkkkkkzh@7zgzKOxXRx0xdPzoIIM.BMmm..gKlVS.CCCjuxlBX]udjRkkkkkkkkkkkkkkkkkkkkkkkkkkkkkkkkkkkkkkkkkkkkkkkkkkkkkkkkkkkkkkkkkkkkkkkkkkkk",
"kkkkkkkkkkkkkkkkkkkkkkkkkkkkkkkkkkkkkkkkkkkkkkkkkkkkkkkkkkkkkkkkkrkkkkkzfQ0zjkfPjHUdH7dkzGf<QdHkDfUhxFeeLCzkTeLlo}dogmhfKzpO2:PhqJJqzfL5zzjjekkeklkkkkjzkkzzzkzkz7EVXUyPkkkekkkkzOfLxzj0Xj9jzjzjfG2YyYLVhhVIhdGfu.lj7LqRCxXlxjx;kkkkkkkkkkkkkkkkkkkkkkkkkkkkkkkkkkkkkkkkkkkkkkkkkkkkkkkkkkkkkkkkkkkkkkkkkkkk",
"kkkkkkkkkkkkkkkkkkkkkkkkkkkkkkkkkkkkkkkkkkkkkkkkkkkkkkkkkkkkkkkkkrkkkjkzU,HHfffFsxddxHdKdGxG5fQ0ek,YH9eeuV0EeejuV2fkhgkffKUsD!GdqFDfFDk~zzzjkeekkkkklkkkzkkkkzjkHH5xlgU0kekekkkkddLzd7QPj^zzxxqGGdPh2zylIKdsG0LdWCjLEjqjlBuRjxq|kkkkkkkkkkkkkkkkkkkkkkkkkkkkkkkkkkkkkkkkkkkkkkkkkkkkkkkkkkkkkkkkkkkkkkkkkkkk",
"kkkkkkkkkkkkkkkkkkkkkkkkkkkkkkkkkkkkkkkkkkkkkkkkkkkkkkkkkkkkkkkkkekrkkzzjUHfEqFqHx0HfPdqDkkkPDwfDjQuzkkTRuxeeeQxUGDDlLGqHqVKw8zkxeekGG50zFjFekeekkkkkkkkkkkkkkkk5JLjzgxzkkrekkkkL9xzkE0jq9xxekqTfH0qExKkD2LkfHGGjlqk8xTjjlRuxjz9kkkkkkkkkkkkkkkkkkkkkkkkkkkkkkkkkkkkkkkkkkkkkkkkkkkkkkkkkkkkkkkkkkkkkkkkkkkk",
"kkkkkkkkkkkkkkkkkkkkkkkkkkkkkkkkkkkkkkkkkkkkkkkkkkkkkkkkkkkkkkkkkDkkkkzk8P0qDkFkddHKsdHGHff8GD9JFqR6kxe90xR9Te5x2Kw8KyDF9P7LrJ8HkeTkqjGEjFjFFFkkkkkkkkkkkkkkkkkkJ0dEjsGHkerrkkkkxkRqkqxxE8zT5TqkJ99Pfk0ffLHdP<kwjEqjT8T9x7RqxRqzkkkkkkkkkkkkkkkkkkkkkkkkkkkkkkkkkkkkkkkkkkkkkkkkkkkkkkkkkkkkkkkkkkkkkkkkkkkk",
"kkkkkkkkkkkkkkkkkkkkkkkkkkkkkkkkkkkkkkkkkkkkkkkkkkkkkkkkkkkkkkkkkrkkkkkkEqGFwFqGHjkjGzHdqkPEqJDfwJjQk9TTRajx9TkjU7!wzhjFwHk<!rfkkekxxkxqFjFkkFkkkkkkkkkkkkkkkkkk5Ex0VLz8DeDkkkjkjxqj^0xjjzT8xeT9wf!G9DGGfJ<DfDHGE;TT9ee9kx5xxexekkkkkkkkkkkkkkkkkkkkkkkkkkkkkkkkkkkkkkkkkkkkkkkkkkkkkkkkkkkkkkkkkkkkkkkkkkkk",
"kkkkkkkkkkkkkkkkkkkkkkkkkkkkkkkkkkkkkkkkkkkkkkkkkkkkkkkkkkkkkkkkkkkkkkzzjdHqDkkjfHdjkHqzGfDqG9DwFkdjxke9jxzxkexxkdDDjGDwDfkGwrwfkxkjRqxkjzzzzzkkkkkkkkkkkkkkkkkkJqdEsjjFkDekkkzkjjkx9HHeeHqHkeqTFfwDHqfDGqGGjDDqeE9eeT9TkexxejzeDkkkkkkkkkkkkkkkkkkkkkkkkkkkkkkkkkkkkkkkkkkkkkkkkkkkkkkkkkkkkkkkkkkkkkkkkkkk",
"kkkkkkkkkkkkkkkkkkkkkkkkkkkkkkkkkkkkkkkkkkkkkkkkkkkkkkkkkkkkkkkkkkkkkkkkkkkkkekkkkkkkkkkkkkkkkkekkkkkkkkkkkkkDkkkkekkkkkekkkkDekkkkkkkkkkkkkkkkkkkkkkkkkkkkkkkkkkkkkkkkkkkekkkkkkkkkkkkkkkkkkkkefDkkkkkkkkkkfDkkkkfDfDfDkkkkkkkkfkkkkkkkkkkkkkkkkkkkkkkkkkkkkkkkkkkkkkkkkkkkkkkkkkkkkkkkkkkkkkkkkkkkkkkkkkkk",
"kkkkkkkkkkkkkkkkkkkkkkkkkkkkkkkkkkkkkkkkkkkkkkkkkkkkkkkkkkkkkkkkkkkkkkkkkkkkkkkkkkkkkkkkkkkkkkkkkkkkkkkkkkkkkkkkkkkkkkkkkkkkkkkkkkkkkkkkkkkkkkkkkkkkkkkkkkkkkkkkkkkkkkkkkkkkkkkkkkkkkkkkkkkkkkkkkkkkkkkkkkkkkkkkkkkkkkkkkkkkkkkkkkkkkkkkkkkkkkkkkkkkkkkkkkkkkkkkkkkkkkkkkkkkkkkkkkkkkkkkkkkkkkkkkkkkkkkkkkkk",
"kkkkkkkkkkkkkkkkkkkkkkkkkkkkkkkkkkkkkkkkkkkkkkkkkkkkkkkkkkkkkkkkkkkkkkkkkkkkkkkkkkkkkkkkkkkkkkkkkkkkkkkkkkkkkkkkkkkkkkkkkkkkkkkkkkkkkkkkkkkkkkkkkkkkkkkkkkkkkkkkkkkkkkkkkkkkkkkkkkkkkkkkkkkkkkkkkkkkkkkkkkkkkkkkkkkkkkkkkkkkkkkkkkkkkkkkkkkkkkkkkkkkkkkkkkkkkkkkkkkkkkkkkkkkkkkkkkkkkkkkkkkkkkkkkkkkkkkkkkkk",
"kkkkkkkkkkkkkkkkkkkkkkkkkkkkkkkkkkkkkkkkkkkkkkkkkkkkkkkkkkkkkkkkkkkkkkkkkkkkkkkkkkkkkkkkkkkkkkkkkkkkkkkkkkkkkkkkkkkkkkkkkkkkkkkkkkkkkkkkkkkkkkkkkkkkkkkkkkkkkkkkkkkkkkkkkkkkkkkkkkkkkkkkkkkkkkkkkkkkkkkkkkkkkkkkkkkkkkkkkkkkkkkkkkkkkkkkkkkkkkkkkkkkkkkkkkkkkkkkkkkkkkkkkkkkkkkkkkkkkkkkkkkkkkkkkkkkkkkkkkkk",
"kkkkkkkkkkkkkkkkkkkkkkkkkkkkkkkkkkkkkkkkkkkkkkkkkkkkkkkkkkkkkkkkkkkkkkkkkkkkkkkkkkkkkkkkkkkkkkkkkkkkkkkkkkkkkkkkkkkkkkkkkkkkkkkkkkkkkkkkkkkkkkkkkkkkkkkkkkkkkkkkkkkkkkkkkkkkkkkkkkkkkkkkkkkkkkkkkkkkkkkkkkkkkkkkkkkkkkkkkkkkkkkkkkkkkkkkkkkkkkkkkkkkkkkkkkkkkkkkkkkkkkkkkkkkkkkkkkkkkkkkkkkkkkkkkkkkkkkkkkkk",
"kkkkkkkkkkkkkkkkkkkkkkkkkkkkkkkkkkkkkkkkkkkkkkkkkkkkkkkkkkkkkkkkkkkkkkkkkkkkkkkkkkkkkkkkkkkkkkkkkkkkkkkkkkkkkkkkkkkkkkkkkkkkkkkkkkkkkkkkkkkkkkkkkkkkkkkkkkkkkkkkkkkkkkkkkkkkkkkkkkkkkkkkkkkkkkkkkkkkkkkkkkkkkkkkkkkkkkkkkkkkkkkkkkkkkkkkkkkkkkkkkkkkkkkkkkkkkkkkkkkkkkkkkkkkkkkkkkkkkkkkkkkkkkkkkkkkkkkkkkkk",
"kkkkkkkkkkkkkkkkkkkkkkkkkkkkkkkkkkkkkkkkkkkkkkkkkkkkkkkkkkkkkkkkkkkkkkkkkkkkkkkkkkkkkkkkkkkkkkkkkkkkkkkkkkkkkkkkkkkkkkkkkkkkkkkkkkkkkkkkkkkkkkkkkkkkkkkkkkkkkkkkkkkkkkkkkkkkkkkkkkkkkkkkkkkkkkkkkkkkkkkkkkkkkkkkkkkkkkkkkkkkkkkkkkkkkkkkkkkkkkkkkkkkkkkkkkkkkkkkkkkkkkkkkkkkkkkkkkkkkkkkkkkkkkkkkkkkkkkkkkkk",
"kkkkkkkkkkkkkkkkkkkkkkkkkkkkkkkkkkkkkkkkkkkkkkkkkkkkkkkkkkkkkkkkkkkkkkkkkkkkkkkkkkkkkkkkkkkkkkkkkkkkkkkkkkkkkkkkkkkkkkkkkkkkkkkkkkkkkkkkkkkkkkkkkkkkkkkkkkkkkkkkkkkkkkkkkkkkkkkkkkkkkkkkkkkkkkkkkkkkkkkkkkkkkkkkkkkkkkkkkkkkkkkkkkkkkkkkkkkkkkkkkkkkkkkkkkkkkkkkkkkkkkkkkkkkkkkkkkkkkkkkkkkkkkkkkkkkkkkkkkkk"
};
