/* XPM */
static char *fzgnx1[] = {
/* columns rows colors chars-per-pixel */
"180 40 44 1",
"  c #060000",
". c #0A0100",
"X c #0E0800",
"o c #110600",
"O c #140B00",
"+ c #190E00",
"@ c #171000",
"# c #161209",
"$ c #1C1202",
"% c #DBD2C2",
"& c #E3D7C7",
"* c #E6DCCD",
"= c #ECDEC4",
"- c #ECDFCC",
"; c #EADFD2",
": c #EEE0C6",
"> c #EDE3CC",
", c #EDE4D3",
"< c #EDE6DA",
"1 c #EFE9DE",
"2 c #F0E3C7",
"3 c #F3E5CC",
"4 c #F6E9CE",
"5 c #F8E9CF",
"6 c #F2E6D2",
"7 c #F4EAD4",
"8 c #F5ECDB",
"9 c #FAEDD4",
"0 c #FBEEDB",
"q c #F7F0D6",
"w c #F7F0DD",
"e c #FFF2D7",
"r c #FFF2D8",
"t c #FFF9DF",
"y c #ECE9E3",
"u c #F6EEE1",
"i c #F9EFE2",
"p c #F5F0E3",
"a c #FDF4E3",
"s c #FEF6E9",
"d c #FFFBE4",
"f c #FFFCEA",
"g c #FFFDF1",
"h c #FFFFF8",
/* pixels */
"rrrrrrrrrrrrrrrrrrrrrrrrrrrrrrrrrrrrrrrrrrrrrrrwararrtrreeeeeeeqeqttwrrrrrqtqeeeeqqtetrrqrqreeerrrrqwrrwrwtwtrrrwarwrwtwtrtrrrrrrrrrrrrrrrrrrrrrrrrrrrrrrrrrrrrrrrrrrrrrrrrrrrrrrrrr",
"rrrrrrrrrrrrrrrrrrrrrrrrrrrrrrrrrrrrrrrrrrrrrrrrrrrprwwreeqqeeeqetqqrwwrrrtqeeeeeeeqeqrrrrtrqtrrtrrttrtrrwrrwrtwrrarrwrrwrrwrwrrrrrrrrrrrrrrrrrrrrrrrrrrrrrrrrrrrrrrrrrrrrrrrrrrrrrr",
"rrrrrrrrrrrrrrrrrrrrrrrrrrrrrrrrrrrrrrrrrrrrrrrrrrwrrtrreeeeeeeeeteerrrrrrrreeeeeeeeeeereqqqeeerrrrrrwrrrrrrrrrrprrrrrrrrrrrqrrrrrrrrrrrrrrrrrrrrrrrrrrrrrrrrrrrrrrrrrrrrrrrrrrrrrrr",
"rrrrrrrrrrrrrrrrrrrrrrrrrrrrrrrrrrrrrrrrrrrrrrrrarrrrrrreeeeeeeeeqetrrrrrrrqeqeeeeeeeerreeetqeeeqtrwrrwrrrrrrrrarrrrrrrrrrrrrrrrrrrrrrrrrrrrrrrrrrrrrrrrrrrrrrrrrrrrrrrrrrrrrrrrrrrr",
"rrrrrrrrrrrrrrrrrrrrrrrrrrrrrrrrrrrrrrrrrrrrrrrrrrrrrrrreee9eeeeeeeeerreeeeeeeeeeeeeeeeeeeeeeeeerrrrrrrrrrrrrrrrrrrrrrrrrrrrrrrrrrrrrrrerrrrrrrrrrrrrrrrrrrrrrrrrrrrrrrrrrrrrrrrrrrr",
"rrrrrrrrrrrrrrrrrrrrrrrrrrrrrrrrrrrrrrrrrrrrrrrrrrrrrrrreeeeeeeeeeeerreeeeeeeeeqeeeeeeeeeeeeeeeerrrrrrrreerrrrrrrrrrrrrrrrrrrrrrrrrrrrrerrrrrrrrrrrrrrrrrrrrrrrrrrrrrrrrrrrrrrrrrrrr",
"rrrrrrrrrrrrrrrrrrrrrrrrrrrrrrrrrrrrrrrrrrrrrrrrrr9rr9rreeeeeeeeeeeeeeee4eeeeeeeeeeeeeeeeeeeerrrrrrrrrrr0e0rrrrrrrrrrrr0rrrrrrwtrrrrrreerrrrrrrrrrrrrrrrrrrrrrrrrrrrrrrrrrrrrrrrrrrr",
"rrrrrrrrrrrrrrrrrrrrrrrrrrrrrrrrrrrrrrrrrrrrrrrrr9eereeeee9ee9eeeeeeeeeeeeeeeeeeeeeeeeeeeeeeerrrrrrrrrrrreerr0rrrr0rr9rrr0rrrrrrrrrrrreerrrrrrrrrrrrrrrrrrrrrrrrrrrrrrrrrrrrrrrrrrrr",
"rrrrrrrrrrrrrrrrrrrrrrrrrrrrrrrrrrrrrrrrrrrrrrrr9d9rtt9rrd9trrr9r59e9de9ee2dq4teee4eet4err9005d5r0rarr0rd90r9r0re595rd5traa90ra0etr2dtetrrrrrrrrrrrrrrrrrrrrrrrrrrrrrrrrrrrrrrrrrrrr",
"rrrrrrrrrrrrrrrrrrrrrrrrrrrrrrrrrrrrrrrrrrrrrrrrtr59t39t39r90r0drder99tde4t3ddr4t2ete:tetar9rf3da37rda9r6d0af6artt5d:9trr69ad70a93dt959rrrrrrrrrrrrrrrrrrrrrrrrrrrrrrrrrrrrrrrrrrrrr",
"rrrrrrrrrrrrrrrrrrrrrrrrrrrrrrrrrrrrrrrrrrrrrrrrq6dd9drrd9rd9rd7t=tdrr99eetet79r5dq4eedt97r0f8s70fs003atdd00adr99ter7dd>0f900s0atd:r9ed5rrrrrrrrrrrrrrrrrrrrrrrrrrrrrrrrrrrrrrrrrrrr",
"rrrrrrrrrrrrrrrrrrrrrrrrrrrrrrrrrrrrrrrrrrrrrrrrrt>r7.d760f6.s6ddrd44d6atqet.wfrqd9qdt>7da8s.6asa607.sf706so6w0at6t3tt6fsa0a88i099td5955rrrrrrrrrrrrrrrrrrrrrrrrrrrrrrrrrrrrrrrrrrrr",
"rrrrrrrrrrrrrrrrrrrrrrrrrrrrrrrrrrrrrrrrrrrrrrrrqddqaX8wds*f.a.w,d7dX..X.rsd.d&8d>dq7ddf>f8a.gii0sad..r8fsa.faa8rtdatad>...ooO...9r3deedrrrrrrrrrrrrrrrrrrrrrrrrrrrrrrrrrrrrrrrrrrrr",
"rrrrrrrrrrrrrrrrrrrrrrrrrrrrrrrrrrrrrrrrrrrrrrrrr>rfw.dd8dap.,f.f,7d.f7a.w86oaffw7tX.X. O.a<ouuu8f88.0sof%f.88X.7d  .. o8g;i.<iate999r99rrrrrrrrrrrrrrrrrrrrrrrrrrrrrrrrrrrrrrrrrrrr",
"rrrrrrrrrrrrrrrrrrrrrrrrrrrrrrrrrrrrrrrrrrrrrrrrdwXX X@    XXX   ddd pf8.8fp f*pdd7fq>Xf7pf,.ussf<sX88up pfo Xssf,8fa pp8ps g<ssd99te9d6rrrrrrrrrrrrrrrrrrrrrrrrrrrrrrrrrrrrrrrrrrrr",
"rrrrrrrrrrrrrrrrrrrrrrrrrrrrrrrrrrrrrrrrrrrrrrrrt,aw.f,fss8p 8huqdw7Xqap.p    +.qwtqaf.wo .O  + pdo $.. . s.fui qtt7do0sf..X OX.eqd5re9rrrrrrrrrrrrrrrrrrrrrrrrrrrrrrrrrrrrrrrrrrrrr",
"rrrrrrrrrrrrrrrrrrrrrrrrrrrrrrrrrrrrrrrrrrrrrrrr07af.a.pf    X  fqa7X .. spg.sg.0f97fw.as8fp.iu.aa6.sp0s.ss.88g..t9d6.dw8oipsif.arrrrrrrrrrrrrrrrrrrrrrrrrrrrrrrrrrrrrrrrrrrrrrrrrrr",
"rrrrrrrrrrrrrrrrrrrrrrrrrrrrrrrrrrrrrrrrrrrrrrrrtf8.0wosy pgXhy s6da.dp8.sp<$p<.a69d>8.d0wi,oss.00saff600f;.+o.odt9td.srp.af.s8.rrrrrrrrrrrrrrrrrrrrrrrrrrrrrrrrrrrrrrrrrrrrrrrrrrrr",
"rrrrrrrrrrrrrrrrrrrrrrrrrrrrrrrrrrrrrrrrrrrrrrrr90o..X  g yp <yX7d7w.add.s8p.,hXfra>fd.assaO88s.6ds...o..agu8i;s99ad9O8aa.s0O8<Orrrrrrrrrrrrrrrrrrrrrrrrrrrrrrrrrrrrrrrrrrrrrrrrrrrr",
"rrrrrrrrrrrrrrrrrrrrrrrrrrrrrrrrrrrrrrrrrrrrrrrrr0w8f6$f<@  # # w6tro.X..dssXu, 3ddatr.00.so8f;Of*0O0daa.i8osas0sf090.00s.s0.gs.arrrrrrrrrrrrrrrrrrrrrrrrrrrrrrrrrrrrrrrrrrrrrrrrrrr",
"rrrrrrrrrrrrrrrrrrrrrrrrrrrrrrrrrrrrrrrrrrrrrrrraa000a+%f <sX<g asr0or08o8a6X8fXdr9r7r.O.sw.s<f 8fa.X o .as.ps..770d8.0fa.is.uuOrrrrrrrerrrrrrrrrrrrrrrrrrrrrrrrrrrrrrrrrrrrrrrrrrrr",
"rrrrrrrrrrrrrrrrrrrrrrrrrrrrrrrrrrrrrrrrrrrrrrrrrrrso..$u gh hy.s,07o0af.dpOups.a6.+..a0s8.faf8 p8s f,sdOiaX..gaf0as0.O.ioaaXss.rrrrrrrerrrrrrrrrrrrrrrrrrrrrrrrrrrrrrrrrrrrrrrrrrrr",
"rrrrrrrrrrrrrrrrrrrrrrrrrrrrrrrrrrrrrrrrrrrrrrrraa..aw.wf   . +.rrdd.rr...f.d88.r9d.0drr6d.7af7Xdsf X$ X 8f g1aa0ao.os6s0.ii..f.rrrrrreerrrrrrrrrrrrrrrrrrrrrrrrrrrrrrrrrrrrrrrrrrrr",
"rrrrrrrrrrrrrrrrrrrrrrrrrrrrrrrrrrrrrrrrrrrrrrrrr6d00a.r8ow8opi.rd..O..fwf.wwsf.rr0r9t0aa.0sr08.w8d.88gu.f8Xiuf.as7ais8as0ioia.arrrrrreerrrrrrrrrrrrrrrrrrrrrrrrrrrrrrrrrrrrrrrrrrrr",
"rrrrrrrrrrrrrrrrrrrrrrrrrrrrrrrrrrrrrrrrrrrrrrrrrqdr3w.0a.d8oa0orrraarrra.ra8.f.8d0909rr.0r.o..da8p.df7f.08X08p.o0a0s7srao.0ias..d5ete4trrrrrrrrrrrrrrrrrrrrrrrrrrrrrrrrrrrrrrrrrrrr",
"rrrrrrrrrrrrrrrrrrrrrrrrrrrrrrrrrrrrrrrrrrrrrrrrr9edrd.da+r6.8s.arr0r0a0.ar0tt r909d3d9.r0ra7Xdr8fdo88.8.sss o .7aar6f0..6f0d70s.4de3td5rrrrrrrrrrrrrrrrrrrrrrrrrrrrrrrrrrrrrrrrrrrr",
"rrrrrrrrrrrrrrrrrrrrrrrrrrrrrrrrrrrrrrrrrrrrrrrrdtt=0r.9r.r0of.Orir0rar0tt7a7td7dt5rt5rt9rdr9eqqd7r.ad8+r8>0s6f00f00d-dtaf6sa7sted2te9rtrrrrrrrrrrrrrrrrrrrrrrrrrrrrrrrrrrrrrrrrrrrr",
"rrrrrrrrrrrrrrrrrrrrrrrrrrrrrrrrrrrrrrrrrrrrrrrr995ddt>dd96a06a9rrrrrrraq9ttt4>r3dt=ed3td6r0ttdqt5dqar098fafsa60033d00t9996rdda3e43tter4rrrrrrrrrrrrrrrrrrrrrrrrrrrrrrrrrrrrrrrrrrrr",
"rrrrrrrrrrrrrrrrrrrrrrrrrrrrrrrrrrrrrrrrrrrrrrrretr499993ad9ra0t0rrrrirr9d>rteet9t5dt=dt9d93ee4t5d9t3dd9rr9a6daardr95deetete939trddq59rrrrrrrrrrrrrrrrrrrrrrrrrrrrrrrrrrrrrrrrrrrrrr",
"rrrrrrrrrrrrrrrrrrrrrrrrrrrrrrrrrrrrrrrrrrrrrrrrrt3d95d3d3r9d93d0a0rrrrrdreeqqtq9t95rtr5t3ett4ttr5d9t39r06ad90t90=9rt44e9tt4ddeqe33ede5rrrrrrrrrrrrrrrrrrrrrrrrrrrrrrrrrrrrrrrrrrrrr",
"rrrrrrrrrrrrrrrrrrrrrrrrrrrrrrrrrrrrrrrrrrrrereeeee5td=t9t99trr9rrrr0arr93ede4etd=dt3t9rt:dq4d42t2ee9rd9rd55rd09rrd5tetee4eeq2rtrdtt9eerrrrrrrrrrrrrrrrrrrrrrrrrrrrrrrrrrrrrrrrrrrrr",
"rrrrrrrrrrrrrrrrrrrrrrrrrrrrrrrrrrrrrrrrrrrreeeee9t5t5d9errd30der0rirrrrrdqt3dqqet59t9999t4et3edree5d99r090tr9rt9d9r9e9eeet4e9t59eet7rderrrrrrrrrrrrrrrrrrrrrrrrrrrrrrrrrrrrrrrrrrrr",
"rrrrrrrrrrrrrrrrrrrrrrrrrrrrrrrrrrrrrrrrrrrrrrrrrrrrrrrrrrrrrrrrrrrrrrrrrrrrrrrrrrrrrrrrrrrrrrrrerrrrrrrrrrrrrrrrrrrrrrrrrrererrrrrrrrrrrrrrrrrrrrrrrrrrrrrrrrrrrrrrrrrrrrrrrrrrrrrr",
"rrrrrrrrrrrrrrrrrrrrrrrrrrrrrrrrrrrrrrrrrrrrrrrrrrrrrrrrrrrrrrrrrrrrrrrrrrrrrrrrrrrrrrrrrrrrrrrrrrrrrrrrrrrrrrrrrrrrrrrrrrrrrrrrrrrrrrrrrrrrrrrrrrrrrrrrrrrrrrrrrrrrrrrrrrrrrrrrrrrr",
"rrrrrrrrrrrrrrrrrrrrrrrrrrrrrrrrrrrrrrrrrrrrrrrrrrrrrrrrrrrrrrrrrrrrrrrrrrrrrrrrrrrrrrrrrrrrrrrrrrrrrrrrrrrrrrrrrrrrrrrrrrrrrrrrrrrrrrrrrrrrrrrrrrrrrrrrrrrrrrrrrrrrrrrrrrrrrrrrrrrr",
"rrrrrrrrrrrrrrrrrrrrrrrrrrrrrrrrrrrrrrrrrrrrrrrrrrrrrrrrrrrrrrrrrrrrrrrrrrrrrrrrrrrrrrrrrrrrrrrrrrrrrrrrrrrrrrrrrrrrrrrrrrrrrrrrrrrrrrrrrrrrrrrrrrrrrrrrrrrrrrrrrrrrrrrrrrrrrrrrrrrr",
"rrrrrrrrrrrrrrrrrrrrrrrrrrrrrrrrrrrrrrrrrrrrrrrrrrrrrrrrrrrrrrrrrrrrrrrrrrrrrrrrrrrrrrrrrrrrrrrrrrrrrrrrrrrrrrrrrrrrrrrrrrrrrrrrrrrrrrrrrrrrrrrrrrrrrrrrrrrrrrrrrrrrrrrrrrrrrrrrrrrr",
"rrrrrrrrrrrrrrrrrrrrrrrrrrrrrrrrrrrrrrrrrrrrrrrrrrrrrrrrrrrrrrrrrrrrrrrrrrrrrrrrrrrrrrrrrrrrrrrrrrrrrrrrrrrrrrrrrrrrrrrrrrrrrrrrrrrrrrrrrrrrrrrrrrrrrrrrrrrrrrrrrrrrrrrrrrrrrrrrrrrr",
"rrrrrrrrrrrrrrrrrrrrrrrrrrrrrrrrrrrrrrrrrrrrrrrrrrrrrrrrrrrrrrrrrrrrrrrrrrrrrrrrrrrrrrrrrrrrrrrrrrrrrrrrrrrrrrrrrrrrrrrrrrrrrrrrrrrrrrrrrrrrrrrrrrrrrrrrrrrrrrrrrrrrrrrrrrrrrrrrrrrr",
"rrrrrrrrrrrrrrrrrrrrrrrrrrrrrrrrrrrrrrrrrrrrrrrrrrrrrrrrrrrrrrrrrrrrrrrrrrrrrrrrrrrrrrrrrrrrrrrrrrrrrrrrrrrrrrrrrrrrrrrrrrrrrrrrrrrrrrrrrrrrrrrrrrrrrrrrrrrrrrrrrrrrrrrrrrrrrrrrrrrr"
};
