/* XPM */
static char *fzgnx[] = {
/* columns rows colors chars-per-pixel */
"180 40 88 1",
"  c #000605",
". c #000C06",
"X c #000E0A",
"o c #001107",
"O c #00120C",
"+ c #00180D",
"@ c #001511",
"# c #001B14",
"$ c #051E1B",
"% c #01211B",
"& c #002921",
"* c #8EBBB4",
"= c #96BDB8",
"- c #ACBEBE",
"; c #94C6BC",
": c #96C9BF",
"> c #9BC5BE",
", c #9ACABE",
"< c #A3C4BE",
"1 c #A0C8BF",
"2 c #A8C1BD",
"3 c #94C7C0",
"4 c #96CCC2",
"5 c #9CCDC3",
"6 c #9BD1C5",
"7 c #9DD5CA",
"8 c #9ED9CD",
"9 c #A5C6C1",
"0 c #A3CCC5",
"q c #A5CEC8",
"w c #ABC7C3",
"e c #ACCBC6",
"r c #ACCECA",
"t c #A3D0C6",
"y c #A3D4CB",
"u c #A3D9CE",
"i c #A8D0C7",
"p c #ABD4CC",
"a c #ABD9CE",
"s c #A4D7D0",
"d c #A7DCD2",
"f c #ACD6D0",
"g c #AADBD3",
"h c #ADDFD8",
"j c #B1C5C3",
"k c #B2CAC6",
"l c #B2CECA",
"z c #BACFCC",
"x c #B2D3CD",
"c c #B0D8CF",
"v c #BAD2CF",
"b c #B3D6D1",
"n c #B2DBD4",
"m c #B5DED9",
"M c #BBD5D1",
"N c #BBDBD5",
"B c #BBDED9",
"V c #A6E0D5",
"C c #A6E2D8",
"Z c #ABE1D6",
"A c #ADE3D9",
"S c #AEE8DA",
"D c #B3E1D6",
"F c #B3E3DB",
"G c #B4E9DE",
"H c #BAE3DC",
"J c #BBE9DF",
"K c #AFEDE2",
"L c #B5E7E0",
"P c #B4EAE1",
"I c #BDE6E0",
"U c #BCEBE3",
"Y c #B9F0E3",
"T c #BDF3EB",
"R c #C0D3D2",
"E c #C3D9D6",
"W c #C2DDDA",
"Q c #C3E2DD",
"! c #C0E8DF",
"~ c #C8E1DE",
"^ c #C2E6E1",
"/ c #C2ECE5",
"( c #C6EDE8",
") c #CAE2E2",
"_ c #C9EEE6",
"` c #C4F1E7",
"' c #C3F2E9",
"] c #C6F8EF",
/* pixels */
"ddddddddddddddddddddddddddddddddddddddddddddddddddCsCsCsddddddgshfgghgggggsCsCshddddddfddfhfgfggdddddVCCVVVV8VdddCCCddddddgggggsd8VVddddddddgfgfdddddddddddddddddddddddddddddddddddd",
"ddddddddddddddddddddddddddddddddddddddddddddddddVdCdsCCddddhdhgghggghsgggghshssCddddddddfdddgfggdddddVC88VV8ddddddVCdVddddCdgsggdVdddddddddddggddddddddddddddddddddddddddddddddddddd",
"ddddddddddddddddddddddddddddddddddddddddddddddddddddsCddddggdgdgggggshddshshsCCsddddddddddddddddgdddC88CVdVVddddsCsCVsdVdddCgssCddddddddddddfddgdddddddddddddddddddddddddddddddddddd",
"ddddddddddddddddddddddddddddddddddddddddddddddddddddgsCdgggZdgggggggsddsCsCsCCsCddddddddfdddddddgggddVC8dVdddddddsCsVsVsCCdshCsCV8ddddddgddfdggddddddddddddddddddddddddddddddddddddd",
"ddddddddddddddddddddddddddddddddddddddddddddddddggggggggddaaddddgsdddddVVVV8sCsddddddV8ddddddd8dggddsddddddadddadVsVsVVVsVVVCsCCddddddddddgggffddddddddddddddddddddddddddddddddddddd",
"ddddddddddddddddddddddddddddddddddddddddddddddddggggggggddddddaVssddddsVssVVdsVCdddd8dddddV8VVVVsggdddddddddddddsVVVss8VVV8VssCsdddddddddgsdgdgddddddddddddddddddddddddddddddddddddd",
"ddddddddddddddddddddddddddddddddddddddddddddddddgghghsssddddddduCddddsCVV8Vs8VsVddddVdddVV8V88V8ddsdddddddddddddddVVVVVV8V8V888Cddddddddddggddggdddddddddddddddddddddddddddddddddddd",
"ddddddddddddddddddddddddddddddddddddddddddddddddgssddddsd8dddVdVsdddCCsVVVsVVVsVdddddVddddVVVVVVdddVddddddddddddddsdVssVVsVVCVsVdddddddfgddddddddddddddddddddddddddddddddddddddddddd",
"dddddddddddddddddddddddddddddddddddddddddddddddddsC8uduu8K8V8S6VdySSZuuZ8CZyZuudhduhudhusdC8sdds8A87Z8ZV8dZS,S8ZG,ZudZ6SC4Zu8VZuAuhhudhdgddddddddddddddddddddddddddddddddddddddddddd",
"dddddddddddddddddddddddddddddddddddddddddddddddd8L6ZSS78u,88S8SuVu6dyaDuu7uDyuSy7hg7F3hFdF4YC6husd8K6ud,ySS,SuSd,YyayJd6CC5FuZyd4L7fhdfudgdddddddddddddddddddddddddddddddddddddddddd",
"dddddddddddddddddddddddddddddddddddddddddddddddduS8sVuZdSVSZuG,aZVY,GupuGyggDt`pDdddAhF5FdDf5hhhdA86YZuDG,;Zd6VyS,ZJt;Jp3HH5apaaL6AH5h7Adddddddddddddddddddddddddddddddddddddddddddd",
"ddddddddddddddddddddddddddddddddddddddddddddddddVuyA,SoaS,1aaoJay1y`1yDpfhna,+,a0shF5DufyfnnHXnfZ7Fdt+,gaZG6odtYu`,ayYppIignDDpcfu5uDhdddddddddddddddddddddddddddddddddddddddddddddd",
"ddddddddddddddddddddddddddddddddddddddddddddddddG6SaDaon1!DDpopoHDa,Dooo.oic!occL0D0ggrmH0rrbXBrnapgco+cac1!oDD,aaDapHpc1..+..o.X#gZ;ZhudddduVVudddddddddddddddddddddddddddddddddddd",
"dddddddddddddddddddddddddddddddddddddddddddddddd,J1tDcocDc<Nzokvo1JiDoxcxo_1i.ccfgggXXXXX##wBXBlpcpNi.MeoNxiocpooDioo.ooo~xwQ.lxf7FgHud6ddddVuuVdddddddddddddddddddddddddddddddddddd",
"ddddddddddddddddddddddddddddddddddddddddddddddddZpH#oo.oo++.o  .%occco1cN.1NQolcm0nfpqBXbwrWl )vMNpx.xRvkoEeoo.cc1`acD.QMwwv.MEMiDfuyuZFdudduVdddddddddddddddddddddddddddddddddddddd",
"ddddddddddddddddddddddddddddddddddddddddddddddddgpiccoNlE2REkoRRxicNi.QvxoN...ooXnmpnbmXbX@XOO  .eM.o......M.MHxoipD0coiiQ...o..XnynhuF7dVuVVuVddddddddddddddddddddddddddddddddddddd",
"ddddddddddddddddddddddddddddddddddddddddddddddddaypapoxORj X  # o1Qxio....icDo,DoDBqfHrXbpmmpXbpopan.NntM.cy.DnaooHanH.nbbXNbQrbXBbfnshVdVdddddddddddddddddddddddddddddddddddddddddd",
"ddddddddddddddddddddddddddddddddddddddddddddddddSayn+ev.MMXRz MM+N<xN.2EvoMpt+aaObbbnpfXmb0gfXfgoa6DxpaDlQDao..ooxiig5Onp^XbeXfnXwrgmhd8d8VVdVdddddddddddddddddddddddddddddddddddddd",
"dddddddddddddddddddddddddddddddddddddddddddddddd,Yuo..@  R jEXkNo1QQ2.Q2x.pncoya.nxbfBBXpgfnXf/p+i!i..o.O.aDlxmpprDJphOnH=XBBXhH@bIp5hAsV88VVaVadddddddddddddddddddddddddddddddddddd",
"ddddddddddddddddddddddddddddddddddddddddddddddddZ6pJnxM.~v O  X o1M1Q.+oo.Qip+nD+bn9IrfXmqXmOp0p.ixN.vpxvOMi.NQbxQpqymXm0HXrr@qy bnffdCuVVdVuVaddddddddddddddddddddddddddddddddddddd",
"ddddddddddddddddddddddddddddddddddddddddddddddddSuDppbxOvkOek$MN.QbQk.exr.xHiO5mXfBBpnfX XIpX/0IOMxl @X  X2H MlX@rfnHyOmbm BB HnXm0nU6uZ8VV8Vddddddddddddddddddddddddddddddddddddddd",
"ddddddddddddddddddddddddddddddddddddddddddddddddZuync.@  MXMW lx.0HeM+wQMOen+p(5XrbXX#Xbn^iXpfnp.lNx -9WR Qe  #bbbpI0f#XXB BBXgiXBfph6gZV8Vuuddddddddddddddddddddddddddddddddddddddd",
"dddddddddddddddddddddddddddddddddddddddddddddddduZDo#brOMB    @ .niBx.Np .XpX0y(XmrmX=(qfqmXIbnb.)ex# %   NN ~9bpBbXOXpnmbXb9OXn#5nfuDd8VuVVVuVddddddddddddddddddddddddddddddddddddd",
"ddddddddddddddddddddddddddddddddddddddddddddddddaaun0Dx xM.MlXxb.cp.....bbb+pJyqXHqmbmqmbnXfffnfo<nc kxbMOexXwNmXpmmyhfgfbBpOnfXiLfhuD6AuV8VuVdddddddddddddddddddddddddddddddddddddd",
"ddddddddddddddddddddddddddddddddddddddddddddddddaayHnpm.mr Wf Br.Dpnmrfbbn bngXfOqbpmyIim.gnX...pD0yXMmfW bnXbff.XHfufZfmrX n0UyO.fghugVVd8V8Vdddddddddddddddddddddddddddddddddddddd",
"ddddddddddddddddddddddddddddddddddddddddddddddddaSgttnH+fmXqmXfm+HnqqbmbbXhffhfX5/ffnyhn.yfnpnXHDnAD@30Ob hhs &XOI0nguZfXXmH9m7An.DP:Y4hVddVdVdddddddddddddddddddddddddddddddddddddd",
"ddddddddddddddddddddddddddddddddddddddddddddddddyuZuDD*.fnXT0@fXX*DDshsyrLsLqyhhmyghfFgyHpH3mgyfuf7ZXIFdXfh7nF3s0H:ZyFugfmbrLygd7hd5L4gZ8ddddddddddddddddddddddddddddddddddddddddddd",
"dddddddddddddddddddddddddddddddddddddddddddddddduuGauh]uyUqsh0nsp]hugLsshgs5LhssuyLs5FDuf3u'gyDhGdd8fpCsbs7VL5LdUyhZZuZ7H5Hg5hddh7LgyFZuddd8VVd8dddddddddddddddddddddddddddddddddddd",
"ddddddddddddddddddddddddddddddddddddddddddddddddK7sdAss7C3hshUydyssAds7LF3Td4LssFhudVddZAAf4Aff7888KHydhqnT4ssC8;HdC77CuyfsDmhdsZu4dCfudddVVsVVVdddddddddddddddddddddddddddddddddddd",
"dddddddddddddddddddddddddddddddddddddddddddddddd7dKhs7sLKdssh76LPs78hLd8sL3KhssC6d6VP88Z7FZu6AyHA7K7yL8dms7KdhdPU4uV4SCCAfhf7sdd6UdddusAddd8VV8ddddddddddddddddddddddddddddddddddddd",
"dddddddddddddddddddddddddddddddddddddddddddddddddd88hKh77Kd8Ls8C8hAC88Vd7hL7sdAsVKC888CZ8dudAh5h7K7dF5CdnfdCsss44FP8K8V8uggdZ8VVdC5ZLd8CdddVVssVdddddddddddddddddddddddddddddddddddd",
"ddddddddddddddddddddddddddddddddddddddddddddddddsdsds8dCd8dC8sA8Cd8sdVd8K6ddC8L8V6dV8VVyCduguZZuA7dhyhC8hsh7hhuSZyVu8V7AuAuuG8d8C6Gd4ZsCdd8VVsVsdddddddddddddddddddddddddddddddddddd",
"dddddddddddddddddddddddddddddddddddddddddddddddddddddddddddddddddVddsVddddddddddVVVVVVddddddddddssdddddddddddsdddddddddddddddddCdddddddddddddddddddddddddddddddddddddddddddddddddddd",
"ddddddddddddddddddddddddddddddddddddddddddddddddddddddddddddddddddddddddddddddddsdsdsdddddddddddddddddddddddsCdddddddddddddddddddddddddddddddddddddddddddddddddddddddddddddddddddddd",
"ddddddddddddddddddddddddddddddddddddddddddddddddddddddddddddddddddddddddddddddddddddddddddddddddddddddddddddhddddddddddddddddddddddddddddddddddddddddddddddddddddddddddddddddddddddd",
"dddddddddddddddddddddddddddddddddddddddddddddddddddddddddddddddddddddddddddddddddddddddddddddddddddddddddddddddddddddddddddddddddddddddddddddddddddddddddddddddddddddddddddddddddddd",
"dddddddddddddddddddddddddddddddddddddddddddddddddddddddddddddddddddddddddddddddddddddddddddddddddddddddddddddddddddddddddddddddddddddddddddddddddddddddddddddddddddddddddddddddddddd",
"dddddddddddddddddddddddddddddddddddddddddddddddddddddddddddddddddddddddddddddddddddddddddddddddddddddddddddddddddddddddddddddddddddddddddddddddddddddddddddddddddddddddddddddddddddd",
"dddddddddddddddddddddddddddddddddddddddddddddddddddddddddddddddddddddddddddddddddddddddddddddddddddddddddddddddddddddddddddddddddddddddddddddddddddddddddddddddddddddddddddddddddddd",
"dddddddddddddddddddddddddddddddddddddddddddddddddddddddddddddddddddddddddddddddddddddddddddddddddddddddddddddddddddddddddddddddddddddddddddddddddddddddddddddddddddddddddddddddddddd"
};
