/* XPM */
static char *fzl_xpm[] = {
/* width height num_colors chars_per_pixel */
"    70    30       16            1",
/* colors */
"` c #9c3264",
". c #bc9244",
"# c #a45a5c",
"a c #c4ba3c",
"b c #ac6e54",
"c c #9c4664",
"d c #bca644",
"e c #b47e4c",
"f c #ccce34",
"g c #a44e5c",
"h c #c4ae3c",
"i c #ac7654",
"j c #000000",
"k c #000000",
"l c #000000",
"m c #000000",
/* pixels */
"ffffaffafffffffffffffafffffffffffffafffffafffffaffffffffffffffffffffff",
"fffffffffffffaffffffffffffafffafffffffffffffaffffffaffffaffaffffafffff",
"ffffffffffafffffffaffffafffffffffafffafffffffffffffffffffffffffffffaff",
"ffffafffafffffffafffffffffffaffffffffffffaffffffafffffafffffffafffffff",
"ffffffffffffaffffffffafffafffffffffffffffffffffffffafffffffaffffffffff",
"ffaffffffffffffffffffffffffffffffaffaffafffaffffffffffffffffffffffffff",
"ffffffaffafffffaffffffffffffffaffffffffffffffffaffffffffafffffaffffaff",
"ffffffffffffffffffhaffffffffffffhffffffffffffafffffdfffffffafffffaffff",
"fffffffffffffaffffb`afffffhhffff#gff`bffaaffffffff.`baffffffffffffffff",
"ffaffafffffafffffd`geeeeeb`gffffg#ff`efd#`afffffffg`gffffafffffaffffff",
"ffffffffafffffffhgcfffffh.ffffff#gd.`##gbhdfaffff.`d#effffffffffffffff",
"ffffffffffffffffgb`geeee#`hffh#eccee`bhfff`fffffh`bfa`.fffffafffffafff",
"fffaffffffaffffg.f`bddddb#ffffff##ff`bfffa`dfffacbb#a.`efffffffaffffff",
"ffffffaffffffaffff`bddddbgffffff#gbde####g#hffhcbfhg`f.`c.afffffffffff",
"ffffffffffffffffff`#eeee#`fffffac`.feaffh.fff.`dfff.cfhbcgdafffffaffff",
"fffafffffffaffffffg`bfffbbfafhb``#ff`beeb`dfhefgeeeeei``hfffffffffffff",
"fffffffafffffffaffb`gee#`cffffb.#gff`dffd`fffffffffffg`dffffffafffffff",
"fffffffffffffffff.`d`dh`#affffffg#ff`beeb`ffffff.hff.chfaffffffffffaff",
"fffffafffaffafff.ghfh``bhfffffff##ff`dffd`ffafffhgg.chffffffafffafffff",
"faffffffffffffff.ff.gccc.hffffhdggff`beeb`ffffffffd`chffffffffffffffff",
"fffffffffffffffadbcb.ff.g``cdfdg`.ff`dffh`fffffffffh`#ffffffffffffffff",
"ffffaffaffaffafebdfaffaffhddfafh.faf.hfahhffaffaffafheffaffaffaffaffff",
"ffffffffffffffffffffffffffffffffffffffffffffffffffffffffffffffffffffff",
"ffffffffffffffffffffffffffffffffffffffffffffffffffffffffffffffffffffaf",
"ffafffffffffffffffffffffffffffffffffffffffffffffffffffffffffffffffffff",
"ffffffffffffffffffffffffffffffffffffffffffffffffffffffffffffffffffffff",
"ffffaffaffaffaffaffaffaffaffaffaffaffaffaffaffaffaffaffaffaffaffaffaff",
"ffffffffffffffffffffffffffffffffffffffffffffffffffffffffffffffffffffff",
"ffffffffffffffffffffffffffffffffffffffffffffffffffffffffffffffffffffff",
"ffffffffffffffffffffffffffffffffffffffffffffffffffffffffffffffffffffff"
};
