/* XPM */
static char *gkoxt[] = {
/* columns rows colors chars-per-pixel */
"130 40 81 1",
"  c #000704",
". c #000C06",
"X c #000E09",
"o c #001007",
"O c #00130C",
"+ c #00180D",
"@ c #001611",
"# c #001913",
"$ c #001E19",
"% c #00231D",
"& c #00291F",
"* c #002822",
"= c #92BCB4",
"- c #8DC4B9",
"; c #93C5BC",
": c #96C8BF",
"> c #9CC4BE",
", c #A4C3BE",
"< c #95CCC2",
"1 c #9DC7C1",
"2 c #9CCDC5",
"3 c #9ECFC9",
"4 c #96D1C5",
"5 c #9BD1C7",
"6 c #9DD4C9",
"7 c #9FD9CD",
"8 c #9FDFD1",
"9 c #A6C5C1",
"0 c #A3CDC6",
"q c #A5CEC9",
"w c #ABC5C1",
"e c #AACAC4",
"r c #ABCEC9",
"t c #A4D0C6",
"y c #A4D4CC",
"u c #A3D9CE",
"i c #ABD4CD",
"p c #ADD9CF",
"a c #A6D7D1",
"s c #A7DCD2",
"d c #ACD7D0",
"f c #AADBD2",
"g c #AEDFD9",
"h c #B7CCC7",
"j c #B2CECA",
"k c #BCCACA",
"l c #B3D3CD",
"z c #BAD3CE",
"x c #B3D6D2",
"c c #B2DBD5",
"v c #B4DFD8",
"b c #BBD4D1",
"n c #BCDBD6",
"m c #BBDDD9",
"M c #A6E1D5",
"N c #A6E2D8",
"B c #ABE1D6",
"V c #ADE3D9",
"C c #AEE8DC",
"Z c #B3E3DB",
"A c #B3E8DE",
"S c #B8E0D7",
"D c #BAE3DC",
"F c #BEEADF",
"G c #B5EBE1",
"H c #BDE6E0",
"J c #BBEBE2",
"K c #B9F1E6",
"L c #BCF2E8",
"P c #C2D6D4",
"I c #C0DBD6",
"U c #C5DDDA",
"Y c #CBDBD8",
"T c #C1E1DC",
"R c #CCE0DE",
"E c #C4E6E1",
"W c #C5EAE2",
"Q c #C5EFE8",
"! c #CAEBE5",
"~ c #C8F3EC",
"^ c #D1E4E2",
/* pixels */
"sssssssssssssssssssssssssssssssssss8s8s8s8M8sss8888M88s88sss8s8ssssssssssssssssssssssssssssssss8888sssssssssssssssssssssssssssssss",
"sssssssssssssssssssssssssssssssssssssssssssssss8s888s8Ms8s8sssssssssssssssssssssssssssssssssssss8ssMsssssddsss8sssssssssssssssssss",
"sssssssssssssssssssssssssssssssssssssssssssssssssM8ss8sssssssssssssssssssssssssssss8sssss8s88s8s88s8sssssssssss8ssssssssssssssssss",
"ssssssssssssssssssssssssssssssssssfsssssssssffffssssssssssssssssssssssssssssssss8sss8s8ssssssssssMssssssssssssssssssssssssssssssss",
"ssssssssssssssssssssssssssssssssffffffssfsffafafffsfssssssssssssss8sssssssssssssssMsssMsM8s8ss8sssssssssssssssssssssssssssssssssss",
"ssssssssssssssssssssssssssssssssffffffdsfsffffffffafssfssssssssssssssssssssssss88s8s8s8sssss8sMssssssssssssss8s8ssssssssssssssssss",
"ssssssssssssssssssssssssssssssssssfsffssfsssfffffffffssssssssssssMssssssssssss8ssssssssssss8ss8sssssssssssss8sssssssssssssssssssss",
"sssssssssssssssssssssssssssssssssssssssssssssssssfssssssss8sssss8ss8ssssssssss8s8ss8sssss8ssssssasssdssdssssssssssssssssssssssssss",
"sssssssssssssssssssssssssssssssss8sss6sssN7ss6Nsg5NssMsMN4MNM7s88sussZ6fssfusN6VuZ6ssusfyZsuBsyBfsgvaZyussssssssssssssssssssssssss",
"ssssssssssssssssssssssssssssssssss77KM77s6N8N7N8sC64CV4CN7M6sNG8sZV6u3DfsVasV5VsD<DfNfZtZ<fuZBffsd2uuffVssssssssssssssssssssssssss",
"sssssssssssssssssssssssssssssssssNNV-NVssssCssss88GCN4Ns7C7MV6<Vs72VsZfq3ygassV7ugsftuygyAsgsfcyfHdDVfstssssssssssssssssssssssssss",
"ssssssssssssssssssssssssssssssssf6ssG74B7s6ff6fgN84M66NsusVuyaVsZ-LyffqmQqivufsBgygDdZvasiiiygZi0fdyyyfBssssssssssssssssssssssssss",
"ssssssssssssssssssssssssssssssssfygD1fdZVH2ggaayussCNVfVBy2HqDfquVs3vdxXqcciDs6fXiS2i%=HS;Dvc0icD2DddfV6ss8sssssssssssssssssssssss",
"ssssssssssssssssssssssssssssssssHicydDyii:Qicv~qfVZ;sZdqycDicqxvyfyivix@ixXcqsgfXJ0SSXcipE.OXXXoXX0Dg6agssssssssssssssssssssssssss",
"ssssssssssssssssssssssssssssssss0m1.$XXXHiiqXr1vss2Jo2cDSiX.XX nZyZdXxxXmmX@Sg2fo0cdiX#o.iXqvdxv9*iqfvsf8s8sssssssssssssssssssssss",
"ssssssssssssssssssssssssssssssssxXOd0HqcXOci@xxlfvaXyvv0X#rlcxnXXySdrXx.llOidoDyXlxciO0xvq@xnqmrvXdaZf6Nssssssssssssssssssssssssss",
"ssssssssssssssssssssssssssssssssq#qdvfsfsXZfXDqxciXdsddcOpZgysBdX0nil.I b.llpXpp.Tli+jlppp o..o b xdsussssssssssssssssssssssssssss",
"sssssssssssssssssssssssssssssssd#qxH2yVsgNfdXvxqvXcZidgXyu2VsC6BcOznX o  .OUl.cl.zpi..+oon hIIYkbXxdssN8ssfsssssssssssssssssssssss",
"ssssssssssssssssssssssssssssssssXvvqHG<saufgXddDXcccycyOZuZB6ZsytoeeolbIbz.evopp np.I.,BFe P.. ob xsssNsssssssssssssssssssssssssss",
"sssssssssssssssssssssssssssssffdXTqH1a3Z6Jdy#x> vdipfcsoygysBufgD.T!   X  XEeoilO,cSj.SptlXR.h^ b xdsussssssssssssssssssssssssssss",
"sssssssssssssssssssssssssssssssfX=ExDSX#O@0p.9%XvsiigcdXygypgagfpOz9 nIhU, xr.HrozSo. .oon ,OlI b xdsas8sssfssssssssssssssssssssss",
"sssssssssssssssssssssssssssssssfXblxqyS1dXHHXO9dXccgycyoSyDcqSdi0+lxoexUkEXl!Xil.S:,IoSpprXU.lzobXxassMssssfssssssssssssssssssssss",
"sssssssssssssssssssssssssssssssf@T9xcqHcvXv9$xnnvXfZydgXid0ScvqcSXllXO..O.Xe9@qEolTcj.=Fpi zXoX x xfs8ssssffssssssssssssssssssssss",
"sssssssssssssssssssssssssssssssfiXncdcqdi@qcXxlxduXfisdgOdSgidvdXicl.xbxxl.lD.vr.jtSloQ,pc.hccebxXgfssNssffsss8sssssssssssssssssss",
"sssssssssssssssssssssssssssssssfc.Od9HqccXcq@xqxfZuouBZ2X#ydvdvXXD0DXxxcxxXicccd.npBroipol.bSpjnxXdsVsV6sfaffss8ssssssssssssssssss",
"sssssssssssssssssssssssssssssssf0D1.$X.oXdccXqEyps2JO2gSSyoXXoXvDyidXqcrXXXmdrOaotB,T.p+yp+riZ,Tr#yau6fNsffffsssssssssssssssssssss",
"ssssssssssssssssssssssssssssssssDicydDyyiiddDvivfCZ;sVstycHyftcv:HSgXZ3ZdOcqqZq@ipBFi.&yupXnVBpXvXdZCsusffafsss88sssssssssssssssss",
"ssssssssssssssssssssssssssssssssgyBZ2gdZZcZg2ysuufsZBVfZgy2JtDgtG6t6JaagaHqgcZaappuui+tuVBoiuBppXx2Vs8ssfffffsssssssssssssssssssss",
"ssssssssssssssssssssssssssssssssf6sfJu2BuutuJ6ZfVu6s66VsssZyysVs6G77a7A33g3s3gygptC7JD:A64SpC<ZydvGu5MsVffffssMsssssssssssssssssss",
"ssssssssssssssssssssssssssssssssuBBV-BZsZ6fsuC5BusGVV2gauCysVu;Nss7saNNNG3GgKa3aVG47piuMBK0fN7Bpg26V6G6uffffss8sssssssssssssssssss",
"ssssssssssssssssssssssssssssssss7su7Ks67sssN<6KssZ62VV6VVsf6sNGs7sNNN8<N5Naa<3GgyyMMfZV4M:BA48M6tLf4K4Nusdssss888sssssssssssssssss",
"sssssssssssssssssssssssssssssssssssNu6NssN6fVsN5B6BfsfsfN5sNs6ssg87g8sA8gN4CC7aauV88uyus6ABuMM6CsyfN6C7fssssssM8ssssssssssssssssss",
"ssssssssssssssssssssssssssssssssssssssssssssssssssssssssssssssssss8sss8sssssssssssssssssssssssssssssssssssssssssssssssssssssssssss",
"ssssssssssssssssssssssssssssssssssssssssssssssssssssssssssssssssssssssssssssssssssssssssssssssssssssssssssssssssssssssssssssssssss",
"ssssssssssssssssssssssssssssssssssssssssssssssssssssssssssssssssssssssssssssssssssssssssssssssssssssssssssssssssssssssssssssssssss",
"ssssssssssssssssssssssssssssssssssssssssssssssssssssssssssssssssssssssssssssssssssssssssssssssssssssssssssssssssssssssssssssssssss",
"ssssssssssssssssssssssssssssssssssssssssssssssssssssssssssssssssssssssssssssssssssssssssssssssssssssssssssssssssssssssssssssssssss",
"ssssssssssssssssssssssssssssssssssssssssssssssssssssssssssssssssssssssssssssssssssssssssssssssssssssssssssssssssssssssssssssssssss",
"ssssssssssssssssssssssssssssssssssssssssssssssssssssssssssssssssssssssssssssssssssssssssssssssssssssssssssssssssssssssssssssssssss",
"ssssssssssssssssssssssssssssssssssssssssssssssssssssssssssssssssssssssssssssssssssssssssssssssssssssssssssssssssssssssssssssssssss"
};
