/* XPM */
static char *gkozk[] = {
/* columns rows colors chars-per-pixel */
"130 40 84 1",
"  c #000604",
". c #000C06",
"X c #000D09",
"o c #001007",
"O c #00130C",
"+ c #001511",
"@ c #001B13",
"# c #001F18",
"$ c #00201B",
"% c #A3BEB9",
"& c #96C0B6",
"* c #95C6BD",
"= c #94CBBE",
"- c #9BC4BD",
"; c #9BCBBF",
": c #A4C4BF",
"> c #A4CABF",
", c #95CDC2",
"< c #9EC6C1",
"1 c #9CCCC3",
"2 c #9DCEC8",
"3 c #97D2C6",
"4 c #9CD2C7",
"5 c #9DD4C9",
"6 c #9ED9CC",
"7 c #A3CCC5",
"8 c #A5CEC8",
"9 c #ABC4C0",
"0 c #ABCBC6",
"q c #ACCEC9",
"w c #A5D1C7",
"e c #A3D4CB",
"r c #A3D9CE",
"t c #A8D0C7",
"y c #ABD4CD",
"u c #ACD9CF",
"i c #A5D7D0",
"p c #A6DCD2",
"a c #ADD7D0",
"s c #AADBD3",
"d c #B3C6C4",
"f c #B2C9C4",
"g c #B3CDCA",
"h c #B9CECB",
"j c #B2D3CD",
"k c #B0D8CF",
"l c #BCD2CE",
"z c #B3D6D1",
"x c #B2DBD4",
"c c #B5DFD8",
"v c #BBD6D2",
"b c #BBDBD5",
"n c #BBDDD9",
"m c #A6E1D5",
"M c #ABE1D6",
"N c #ADE4D9",
"B c #AEE9DD",
"V c #B4E0D6",
"C c #B3E3DB",
"Z c #B2E9DE",
"A c #BAE3DB",
"S c #BCEADF",
"D c #B5E6E0",
"F c #B6EBE1",
"G c #BCE7E0",
"H c #BBEBE2",
"J c #BBF0E5",
"K c #BEF6ED",
"L c #C4D7D4",
"P c #C2D7D8",
"I c #C4DAD6",
"U c #C3DDD9",
"Y c #C9DDDB",
"T c #C4E2DE",
"R c #C1E5E1",
"E c #C5EBE3",
"W c #CBE5E2",
"Q c #CEE9E4",
"! c #C0F2E6",
"~ c #C4F3EC",
"^ c #C9F2EC",
"/ c #D0E4E2",
"( c #D5F0EB",
") c #D4F8F4",
/* pixels */
"ppmmpp6mppppsssppmumppppspsssssupppppmppmmrmpm6ppssssspppppmssxssppsppppmprmrmrmrssupsuppppppppmppppmppmpmppmppppppppppppssppsppps",
"mp6mpppmppppspspppmrpppsuspuussspppppppprpmrmpmppsssspspppppssssssppppppmrppmrrmssssspssppppppmrpppmppmpppppppmmppppppsssppsppsppp",
"ppppppppppppppsppmrmpprmpspssssupppppppppprprpppssssmpspmmpppssspsssuppprmrmppmppppppppppsppppppsppppppppmpppppmppppppppppppppppps",
"pppppm6mppppppppprmrmrmrppspupspspspppppppppspssspppsppppppppsssspspsspppppprmrpppppppppppppppppspssmsppummpmppmppppppppsppsspsppp",
"spprpppppppppppppmmrmrmpppppppppssssssssspusspuspppppmmpm6mrpppppsppppppppspmppppppmmppppspppsppsssssssspppppppppppppppppppppsppps",
"sspspppppppmppppmrmrrmrppppuppppssssssspssssussspppppmppmmm6pppupppppppppussupspppppppppppspppppissssspsppppppppppppmpm6ppppppsppp",
"upsssspppppppppppmrmmmrmmrrmrmppppssspppssusssuspp6mmpppmmmppprmppppprppppupppsupmm6ppppppppspsusssspppppppmpmpppppppmpmpmppppspps",
"ssppupppppppm6ppprmrrmmrrmmrmumppppppppppspppspppppppmpprmrpppmmpppppmppppmpppppm6mpmrppspspsusssissppppppprmrmrppppppm66pppsppspp",
"spsprsssrsrZrrNrppsp6pBprMM5MB6rpmrr6N6mpC3iN3Cem6pBpN5peB;rNrMr3B6mmmrpNrmmrrmrpprpseZeppsssssspNipr6rMM6Mm6prpppsrmm3mmmmppmrpps",
"uppsspsppsessssesepes5rprM3M5rpF3pmrFmB33pZppspc6p5pr;pMZ;ZM;pM6NppB36mp5B3mrZrBC2pDereNspspppupp5FpBrrrMM=MNrMrsieeDmZ3mr6mpppppp",
"sppppsppssresssC5FesFH*pZrZrsFp,Brpp66,BBp5ps22erCsDVwxywuAMrZMMp3iBpmDMNrrB6r562sCepNsesusrsrppmr,m=ZmerrB;eSwVxucC5ppr66mmmrppps",
"pppppssuesNVciieC,sN,rsH5r4pM,sB3BB,B6Jrp3DsiCCCse1s;SwASwwVuwxepBs5s6s5M5Z3m6BMCic2sc2GspssspppmmrBm;ZeZ;VuykyxqxyesCrDmmm66mpppp",
"pprmrpsspss2sA1AyCC-GeG,CeCH,FpsNp5rsH28cieciciXoo@oOoo.o@ooVykAsXxGaaecXssH5rseaz8AC7c.ssssppppurMwueuxokTkjtOf+qnnc8p2mmm6mmrmps",
"mpmrmpppsseA8sAauiecissCsps1CeeZisZssiiDicn8zzn+yxkyj0bbjkAo>k>tzXqjzanzXyaiZ1CoXXXX..y@supuuspuruuMOVtvoU>.oo X  +XaH5B66mmmrmrpp",
"rm6mppppCec1AcX.oXXc88AXuCsspCeoe<c8aX#XX 8R0qjXA7OkbO0joj>oTtTb gWgvvggX)7<ccyxR%nq.nz.sssspspuVukO>kAgolI/:L d P0nzyimpm6mmrppps",
"mrmpppppwH7cXXycusa.OisosswZpeOsccaOXc8nciXXnzP jktoj.T.fTfotVoo X XXbX...XOxyyx8Rz.nzy.susppppsyVuoA...o.h. X    XXisF36mmm6mpppp",
"ppsprspussicXyxupessXD8Xzcx2x+spsC8XcusiisiXzvh b... .. ..l@>tVt vgxjyx.x7xVyVpwyV.x8naOasssspppykk@qxUg.gl :h.h lv bkypppmrmppppp",
"sussssssswx.seCsCNsCn8z+z8ccO2pseeOZwicssCecXng lgIl.IlhLlj.kAton n8AAu.qSkkwerNAj.znx8XassspppsAt.yVq7..@g o. .+ X+:AVrpm6mpmppsp",
"psssspsssCiXCayieps1iG8 zaaXseCsNsXuciwseesCXzPX.. .  .X..ooTtokg+ggjo.O...Xoyuetko7XXc.ssssspps4!.yxbjO.j..Lf.L Pd ktMrprmmppppsp",
"pprspspuuaa+eixsseGsczq+0nXnCserss.c7ccispuy+vl Ull.LLL fIfoVwoo  X OTj.jvb0AVeAxj.$<xz.aasssrppsoAxx8oyoUl ...  X +VVurpmmrsssssp",
"pppppsssusi+yyxxxXXXXan nX#78NssisXc7ccussawOvl gj. .. Y...ojTujP IU0:OjUUjv0niycXXqnxcXxassssssx$wxy8.b.jjIj(%UYhWg-smNmmpppssppp",
"ppppppssscu.CayieE7a+zj+Xx<OG,NrCsXyca8ssescXvP .@b.ll hI.g.k&VkfOb9bO.. . +zzXXXz+qyG-+szassussu.sscOxq.jbgo...  .jAyVrp6pmpppssp",
"mrpppssssws.xyAacaznXaqXyxCC.scs5iOA8zcssCuxXng jqf.l@.QfTf.AAkk+  .bjjxzvOv88~XcRXn88^XsssakassoCscy8Vk.jjjolbfTv.zyuerp6mmsssppp",
"rmpppppsssicXixyz8zaXzzXn7CeCXppsC8Xcaziusi.zzjXjlb.glQ9o>T.kuooj.byV7@yn0Xzzx2s8aXzAya.zazxassso1cwsA7V.jkx..@. X.zxuuMmmmmpssssp",
"mrpmrpppeF1x..ycac7cXzAXax8ZseOpCci+Xx8cciXXAznXjAj0O....vb.yxuu8OjzC2i+xXqciiMizyXczyAXyAcs.syXsssssxsaoyk0.bjjbtOucpM6pp6mmppppp",
"rmppppppC5N2Zc..XX@.xay@aCsssCroe,cwyX#XoX8H78qXxtyA0vbjbqnoxseVGXysiNDsXeC8MB2iXaXaainXsw-DXyGXssssssas.cVx@;ykgkO;crNpm6ppppspsp",
"mpppppspssrDesCixAsac2c8ips,NrrCisGsxaaAiNNeacnX.O@oO....o.ou4S5sXZcp3B,c+ssiiBmc@saciicX#+XXc-@spspsssx@-x7.oO.oO.uCC,Bm6mppspppp",
"ppppsppssss1sC,Z8seccusNCicJ,FppNpeeaG7ecr5cixyXwswyxxyxxAc.Vr5VsXN5BmiBpXsCm66m5<ZsseH8c*uxcCo8sspsssisoHyAO;wAuVoee4rpppmppmmpsp",
"uspusppsppNNNpp5sHr2rsrp5p5ss,cN5BN,CyHip3CMrCCCCMeCuAayui8smpprsiC35pmiiKi*DD66Fpc2ppiCCece<icippssssisepes;!V;x;xuCiJrmimipmsspp",
"psssupspppp3pppBp,NNppF5CpCisFp,B6spie1DCp5ps2wer5MNwwcsuCsseMMrssisBp,Bi2iDi,mm5s,BCresesiGeA2cpmmsssisV1CexeuMe!prei3iimimmmmisp",
"sssssspsps6mppm6pBep5m3BpM,N5rsF3ppsHsN53pFrpcsNM6prssseA*VrM6NmsciiN6K2sJis2Di6pBpprpDpeZc*aacipmssmssieNmMwMVuMM&SN,J3miimsssipp",
"uspusppurppB6rmrppprpppp5pN5sCripMpiwC5MpB3rN,Cr6NrpsCeseBeZ36mrsssipN,NiiixDimiM5Mp5N5sc5sCisisimsmimmmpV4uZwNeM;Sr6N6mmimmspsmsi",
"psspsuppppppppppspppppppspspppsppmupsuppppmupppppmuppsssupppsmupssspspsppssssppppppppppppsssssssppspppppsppsissspsppppspspppspspss",
"ppppspppppspsppppppspppspppppspppsppspppsppppppppsppppppmuppppppipppppppppppppspspspspsppppppssspppppspspppspppppppppspppppsppppss",
"pppppppsppppspppspspspspppsppppppspppppspspsppsppppppspsspppspspmispppspppsppppspppspppsppspppppppppspppspspppppppspppppspspppspmi",
"ppppspppspsppppspppppppppspppspsppppsppppppppspppspsppppppppppppmspppspppspppsppspppspppsppppspspspspppspppppspspspppspspppppsppim",
"pppppsppspspppppspppspspspppsppppspppsppppppspspppspppppppspppspmpppsppppppppspspspppspspsppppspspspppppspppspspspppspppppppspspmi",
"ppspppsppppppspspppspppppppspppsppspppsppspspppppspppspspspppsppippppppspspsppppppspppppppsppspppppppspspppspppppppspppspspsppppis",
"ppppppppppspspppspspppspspspspspppppppppspppppspppppspppppppppppsmppspspsppppspppppppsppppppppppppspspppspspppspspspspspspppppspim",
"spspspsppspppppspppppsppppppppppspspspsppppspspppspspppspspspspsippppppppppsppspspspppspspsppspspspppppspppppspppppppppppppspsppsm"
};
