/* XPM */
static char *gm_xpm[] = {
/* width height num_colors chars_per_pixel */
"    25    50       16            1",
/* colors */
"` c #943e74",
". c #5c92c4",
"# c #7c6294",
"a c #44baec",
"b c #845284",
"c c #6482b4",
"d c #34cefc",
"e c #8c467c",
"f c #4ca6dc",
"g c #746ea4",
"h c #3cc2f4",
"i c #7c5a8c",
"j c #000000",
"k c #000000",
"l c #000000",
"m c #000000",
/* pixels */
"dddddhdhdhdhdhddhdddhddhd",
"ddddddddddddddddddddddddd",
"ddhddddddddddddddhdhddddd",
"dddddhdhdhdhdhdhddddddhdd",
"dddhddddddddddddddddhdddd",
"dddddddddddddddddhddddddd",
"ddddhdhdhdhdhdhdddddhddhd",
"dhddddddddddddddhdddddddd",
"ddddddddddddfchddddhddddd",
"ddddhdhdhaddc`.dhdddddhdd",
"ddhhccccc`#diiddddddhdddd",
"dddhahddh`fa`.dhdahdddddh",
"ddddddddd`ff`eiii`bddhddd",
"dddhddhdh`fibddh`fhdddddd",
"hdddcffff`.iiddf`addhdddd",
"ddddiiccc`efgfd.`dddddddh",
"ddhdbcdddafdc.hcidhddhddd",
"ddddichdhdhdfbde.dddddddd",
"ddddbcddddddde.`adddhddhd",
"ddddichddagah.d#ddhdddddd",
"dhddbcd.i#add.`bhdddddddd",
"ddddie`ifdddgbabefdhddhdd",
"ddddgefdddfighdhi`efddddd",
"dddhhhddfggadddhdc.hdhddd",
"ddddddhdadhdhdddddddddddd",
"ddddhddddhdddddhddhdddddd",
"hddddddhdgihdhddddddhddhd",
"dddhdddda`ghdddhhdddddddd",
"dddddhddi`iiiiiebhdhddddd",
"dhddddd.`fhddhf`ghddddhdd",
"dddddhf``adddhebhhddhdddd",
"dddddhb..`.dhbbhddddddddd",
"ddhdhifdd#gabbhddhddhddhd",
"dddhahdddhf`ihddddddddddd",
"hddddddd..`.hddhfhdhddddd",
"ddddhddfe`gccccc`iddddhdd",
"dddddhibeiddddhd`cddhdddd",
"dhdfiifdiidddddh`chdddddh",
"dddahdddbihdhddh`cdddhddd",
"ddddhdddiecccccc`chdddddd",
"ddhdddhdibffffff`cddddddd",
"dddddddd.adddddhfddddhddh",
"ddddhdddhdddhddddhdhddddd",
"ddddddhdddhdddhdddddddddd",
"ddhddddddddddddddddddhddd",
"ddddddddddddddddddddddddd",
"ddddddddddddddddddddddddd",
"dhddhddhddhddhddhddhddhdd",
"ddddddddddddddddddddddddd",
"ddddddddddddddddddddddddd"
};
