/* XPM */
static char *gm1_xpm[] = {
/* width height num_colors chars_per_pixel */
"    25    40       16            1",
/* colors */
"` c #0402fc",
". c #0466cc",
"# c #0432e4",
"a c #049ab4",
"b c #04b2a4",
"c c #041af4",
"d c #044edc",
"e c #040efc",
"f c #048ebc",
"g c #04a6ac",
"h c #04be9c",
"i c #045ad4",
"j c #000000",
"k c #000000",
"l c #000000",
"m c #000000",
/* pixels */
"hhhhhhhhhhhhhhhhhhhhhhhhh",
"hhhhhhhhhhhhhhhhhhhhhhhhh",
"hhhhhhhhhhhhhhhhhhhhhhhhh",
"hhhhhhhhhhhhhhhhhhhhhhhhh",
"hhhhhhhhhhhhhighhhhhhhhhh",
"hhhhhhhhhghh.`bhhhhhhhhhh",
"hhhhi....`dh#dhhhhhhhhhhh",
"hhhhhhhhh`ab`ghhhfhhhhhhh",
"hhhhhhhhhea.c###ecihhhhhh",
"hhhhhhhhh`ac#hhh`ghhhhhhh",
"hhhh#i...`bi#hhgehhhhhhhh",
"hhhh#.hhh..hiah.#hhhhhhhh",
"hhhhd.hhhhhhadhddhhhhhhhh",
"hhhh#.hhhhhhhebebhhhhhhhh",
"hhhh#.hhhhhbh.c#hhhhhhhhh",
"hhhh#.hh.#.hha`ihhhhhhhhh",
"hhhhd#dcfhhhgcf`dhhhhhhhh",
"hhhh#c.hhhhd#hhbc`dhhhhhh",
"hhhhhhhhbidfhhhhhiihhhhhh",
"hhhhhhhhhhhhhhhhhhhhhhhhh",
"hhhhhhhhhhhhhhhhhhhhhhhhh",
"hhhhhhhhhd#hhhhhhhhhhhhhh",
"hhhhhhhhh`dhhhhhhhhhhhhhh",
"hhhhhhhh#`###d#cehhhhhhhh",
"hhhhhhhf`bhhhhf`.hhhhhhhh",
"hhhhhhf`cfhhhgeihhhhhhhhh",
"hhhhhbcgge.hbedhhhhhhhhhh",
"hhhhgdhhhiff`.hhhhhhhhhhh",
"hhhhhhhhhhiefhhhhhhhhhhhh",
"hhhhhhhhic#faaaa.ghhhhhhh",
"hhhhhhb#`cggaaga`#hhhhhhh",
"hhhhfddg##hhhhhh`fhhhhhhh",
"hhhf.hhhd#hhhhhhe.hhhhhhh",
"hhhhhhhh##hhhhhh`.hhhhhhh",
"hhhhhhhh#c......`.hhhhhhh",
"hhhhhhhhifhhhhhh.hhhhhhhh",
"hhhhhhhhhhhhhhhhhhhhhhhhh",
"hhhhhhhhhhhhhhhhhhhhhhhhh",
"hhhhhhhhhhhhhhhhhhhhhhhhh",
"hhhhhhhhhhhhhhhhhhhhhhhhh"
};
