/* XPM */
static char *hp_xpm[] = {
/* width height num_colors chars_per_pixel */
"    25    50       16            1",
/* colors */
"` c #943e6c",
". c #5c92c4",
"# c #7c6294",
"a c #44baec",
"b c #845a8c",
"c c #549ecc",
"d c #6482b4",
"e c #34cefc",
"f c #8c467c",
"g c #746e9c",
"h c #4ca6dc",
"i c #3cc2f4",
"j c #000000",
"k c #000000",
"l c #000000",
"m c #000000",
/* pixels */
"eeeeeeeeeieeeieeeeeieeeee",
"eieeieeieeeeeeeeieeeeeiee",
"eeeeeeeeeeieeieeeeeeieeee",
"eeeeeeieeeeeeeeieeieeeeee",
"eeeieeeeeieeieeeeeeeeeiee",
"eieeeieeeeeeeeieeieeieeee",
"eeeeeeeeeieeeeeeeeeeeeeee",
"eeeeieeieeeieieeiiieieeei",
"eeihhhhcfedddddddbgeeeeee",
"eeehdd`#dc.hh#fhhhhieieee",
"ieeeee`ceeeeefdieeeeeeeee",
"eeeeii`heeieh`ieeeieeeeee",
"eeeeee`.diee#`.eieeeieeie",
"eiiafb`bb.ea``aaeeeeeeeee",
"eeeeie`ceie#.`cbcieieeeee",
"eeeeei`heecbi`hifgeeeeiee",
"eeieei`cadfie`heh`deieeee",
"eeeeea`b##aei`hiegbeeeeei",
"eee.g`bhdaiei`ceeiaeeieee",
"eeedfcieieiei`heieieeeeee",
"eeeiieeeeeeee`heeeeeieeee",
"eeeieeieeeiei`hieeeeeeeei",
"eeeeeeeeieeeefaeeeieeieee",
"eeeieeeeeeeieeieeeeeeeeee",
"ieeeeieeeiheeeeeeeeeieeie",
"eeeeeeeeee`.ieieeieeeeeee",
"eeeieeefdg`ddddbheeieeeee",
"eeeeeei`.h#dhhd`ieeeeeiee",
"eieeiee`.eh`.eh`ieeieeeee",
"eeehhh.`.hhfdhd`h#geeieee",
"eeeaddd`g..ddd#`dddaeeeee",
"eeeeieh`aifdiec`eeieeieee",
"ieeeeegbei.`ahd`ieeeeeeee",
"eeeie.faeeehid`feeeieeeee",
"eeei#g#hhhhhhhdg.eeeeeiee",
"eeecai`fdfbdfbdfbieeieeee",
"ieeeee`debdebdibdeeeeeeee",
"eeeiei`dibdibde#dieeieeei",
"eeeeiefdebdebdefdiheeeeee",
"eeegbb`fb`fb`fb`f`fhieeee",
"ieeieeieeieeieeeeeeeeeeee",
"eeeeeeeeeeeeeeeieeeeeieei",
"eeeeieeeieeeieeeeieieeeee",
"eeeeeeieeeieeeieeeeeeeeee",
"eeieeeeeeeeeeeeeeeeeeieee",
"eeeeeeeeeeeeeeeeeeeeeeeee",
"eeeeeeeeeeeeeeeeeeeeeeeee",
"eieeieeieeieeieeieeieeiee",
"eeeeeeeeeeeeeeeeeeeeeeeee",
"eeeeeeeeeeeeeeeeeeeeeeeee"
};
