/* XPM */
static char *hpdq[] = {
/* columns rows colors chars-per-pixel */
"130 40 73 1",
"  c #000604",
". c #000C06",
"X c #000D09",
"o c #001007",
"O c #00120C",
"+ c #00180F",
"@ c #001611",
"# c #001A14",
"$ c #001D18",
"% c #00221D",
"& c #93BCB6",
"* c #96BFB9",
"= c #ACBCBB",
"- c #8BC5B9",
"; c #8EC8BC",
": c #93C4BC",
"> c #94C9BF",
", c #9BC4BE",
"< c #A4C4BE",
"1 c #95CCC2",
"2 c #9DC6C0",
"3 c #9BCDC4",
"4 c #96D0C4",
"5 c #9CD0C7",
"6 c #9ED4CA",
"7 c #9ED9CD",
"8 c #A5C6C1",
"9 c #A2CCC6",
"0 c #A5CEC8",
"q c #A8C7C1",
"w c #ACCCC6",
"e c #ABCECA",
"r c #A6D0C6",
"t c #A3D4CC",
"y c #A4D9CF",
"u c #ABD4CD",
"i c #A9D9CE",
"p c #A7DCD2",
"a c #ADD7D0",
"s c #A9DBD2",
"d c #B2C9C6",
"f c #B2CEC9",
"g c #B2D3CD",
"h c #B9D2CE",
"j c #B2D6D1",
"k c #B3DCD5",
"l c #B4DFD8",
"z c #BBD5D2",
"x c #BBDBD5",
"c c #BBDDD9",
"v c #A7E1D5",
"b c #ABE1D6",
"n c #ADE3D9",
"m c #AEE8DC",
"M c #B1E2D7",
"N c #B3E3DB",
"B c #B3E9DE",
"V c #B8E0D7",
"C c #BAE3DD",
"Z c #BEE8DE",
"A c #B5EBE1",
"S c #BCE7E0",
"D c #BCECE3",
"F c #C2D6D4",
"G c #C1DCD5",
"H c #C3DED9",
"J c #C2E3DD",
"K c #CBE1DE",
"L c #C1E5E1",
"P c #C2EBE5",
"I c #C9E8E2",
"U c #C6F1EA",
"Y c #C6F8EF",
/* pixels */
"pppppppppppppppppppppppppppsssssppppppppppapppppssssspppvv7vppssppppppppppppppppp7vvv77vppppppppyppspspsppppppppsspsspspspspspsppp",
"ppppppppppppppppppppppppspspssspppppppppppppppypsssssp7vp7ppppyppppppppppppppppppv7vpvppppppppppypssspspppppppppspsppspspspspspspp",
"pppppppppppppppppppppppppppppsppppyvppppppppppppssssppppvv7vppppppppppppppppppppp7ppppvvpppppppppppppppppppppppppspsspssspspsssspp",
"ppppppppppppppppppppppppppppspsppppvppppppppppppssssp7vv7vvpppppppppppppppppppppvv7p7vp77v7vppppppppppppppppppppspsppspspspssssspp",
"ppppppppppppppppppvppvp7ppppppppp7v7pppppyp7vvpppppppvppvv7ppsssppppppppppppppppppppvpppvpvv7vvvpppppppppppppppppsspspysyssssssypp",
"pppppppppppppppppp7pv7pv7v7pppppppvppppppppp7pv7pppppvv77ppppysspppppppppppppppppppppppp7p7v7v7v7ppppppppppppppssppsyssppsspsssppp",
"pppppppppppppppppppppvp7vv7vvvpp7v7pppppppppvp7p7ppvvpv7pppsssssppppppppppppppppppppppppvp7vvvv7vvppppppppppsssspsyssspsppsyspsspp",
"ppppppppppppppppppppp7pvppvv77pppvvvv7ppppppppvvpppp77vppssssssspppppppppppppppppppppppppvv7p7pp7pvpppppppspspssspssssspppsssysspp",
"ppppppppppppppppptpppbpp7v77vv7vnpppy7msp6pssn6nvm7pptpyn6sysaCetnytptssynsysstsppslyyspssyvstsy7nppstyspn3AasCpn1Atstssppspsssspp",
"ppppppppppppppppptNpy3pyv7vm17A765A5lppppplml6pyv1m6smtAaaDasl3ll5AltAstytss5NsNtmt6ml6nNtyNtyNtpv75nN5stNssst9NyNtyNtNypppssssspp",
"pppppppppppppppppyannpBp7m6pA47pplyAypupys3pyltsvmvnys9ujuu0lecCtN0tlt3SssssN2Atslttsstttsslys3NstDnlpssa,l0jSk0tAtsAstyspsppysspp",
"pppppppppppppppsNa3S9styp6pp7A1vyyk5ysupllplspyA7v67l5$jljXX@X  XlltsllaCXjlNN9lstNNttNsN9l0DaXln3ntt0Sal%ujj3clssvttpyNpspssssspp",
"pppppppppppppppstll3aSstANnyp7mpl6sNk9D3syalsautp5AAtsXkje LecjL@a0kaS0aXuL99jlaptN5N0lauaCC,k etDtNls0u0aXekc2js9snNtA1spssssyppp",
"pppppppppppppppsuSuX@XO#X6tA76npu@9S2aSlXO@XXXSsnmt*lk@eje@eeczeXaCajjXXX@X@@OXjls5AX#XX#laeeL@cetau@X#XXXXX @@X@$ss6N1Apspssssspp",
"pppppppppppppppsaulOaNN>SOtN1pppu.lslS&l$3aCal.@n1AslaXzXc O$  @XkgukkXje$jej9 StnstNleCOejcjj 8CasjuP0j@9cjc Lesttss5D5spyssssspp",
"pppppppppppppppslulXaauNtaXaA5lyXl.ekakaXaaa0sS0@tNyuu@j c eFeFj zqCejXec8 cjcXesptl0sjaXjX  @ #XXsls0cjjXkjXjecNtCsyNtspsssspyspp",
"pppppppppppppppsuc0.kNtllt.kaaS0@e@zujssXaslstAsorkV.V.ocdXzhhzzX8xo.oo.. ... O.+ors.uujXLejecXjsyNstCejceXXeCektntysnsssssypssspp",
"pppppppppppppppskacOa9aas9Oakue.ejjXll0a@lttsnysr+g<.wOgwG   X X lgxJg.fw+hfJ<.frisNsOCaX,IeccXkm7ptC9Cj8$cjXatepNtNstynsssssspypp",
"pppppppppppppppsl9a@uaStaPOuaek@ecjXjjjCXlsssp1sCogojV.jjHjjzHfheku8roJuJr.x<K.jjutMN,O.PjXcjjXk3AttsNeX@eeck$XCtpnttsnysssspppppp",
"pppppppppppppppsuClXS9rkaXsNSle.cee#2kjsXsspssnDrojJgw+fgX.@.  X@0kVj+gf<dOd+h.GkNu9ukCO0aeXze%0pnns@XXjXkjjeXaXXXsNN5sssssspppppp",
"pppppppppppppppsuk2OX#.OONla0s@aeeCu$C0aXaull3l*ko<V<k.kxwcfgXcgwkj<oggzKhGF=.Fd0uSkuk.uXjLXXeXln17vsNL0XcjacXln$N:s:nntpyssspsppp",
"pppppppppppppppsllaXNasytsa2P9.#X%XXXjCsXaalkuDloVijkOrojxgkcX8zogVoh<#.   .  .XCkt0C+2P#00Xce@0nnmp1ttlXjaae@,stsnnNsttsssspspspp",
"pppppppppppppppp3aCXM3sNsnyN5#a0sk0aPXsjXlau0S*k+iiik.VjO..XXX@XooriiVoJxogw@J< aarSu.P,jXCegS.ay76sNllXa0jCe@lsstntttsnsssssssppp",
"ppppppppppppppppsatXspsysyyslXslayjk0#suXlall0@XriVioV9juCrucXjurbMrMioii.xx gxXalua.C0llXujk0.lN5npysjXnka9lXCtntnttnntsssssspspp",
"ppppppppppppppppussXpn3p3AttNXtl3CtaCXul@X@XXOaj9VktOuMa0kljjXjjiijVVf.xx Fd hF.j0lXalskka0kk9$9nyysyNXNtklat@aapyssssssypysspsppp",
"ppppppppppppppppstNyyBpnAlyyptssSluystsautjjl,UuNbrOD3ssCsttDXlsZVgoo+...+. .+...Osly0l9akllXl.k5vsysXDtAsttPXnssssysssssssssspspp",
"pppppppppppppppppNtD1ynv77pnsNtsyysNsAtaNNlalNtstyMs>NNs*nysaXsN6>MbviiMiMtMrtVMaas9sD2Sksl0sXllnm1nn5tp:NsstXslsssssssssypsspsppp",
"pppppppppppppppp6Dy1npv7ppynA>sssstnS:sp9yst5s5DMsbbNsptY5nyA5ssvA7pbtviivM>6DttppNp0np5ypypsAyyynpnyAtND5stAtnsssssyssssssspspspp",
"pppppppppppppppppypApvpvvvpp6Dppnspp6Dynnsnnnsy5pn6tp6pn6pyn6Ap7pbr5DrisistNNrkspyy5Dypp5A6lp5yns6ps1nst5syn5Astspppsptsssspspsppp",
"ppppppppppppppppN3sv477v77vp1Nystsns1Atpstttp5Aypv5nNAppv7Ap6A4niMbMrBMtikriN3spnlppy1pmAsp7ppv76nAyA6psptAs5A1nyppppsssstpspspspp",
"ppppppppppppppppppn6Am77mv6vAynyms6sAtm77pnvv7nvn6mm47mp7m7pv1vpM>pMy6byB6B67nv7ypypymp564nA7pyvA67y4Ass7mtsn:sspsppspspssspspsppp",
"ppppppppppppppppyb6n6vvv4vpb76pptpssttpvpvp7vv6vsspppv6v7vv7pn7pyBpvyvvv77n7n77vpppppppvpA74ppvy6pmpn7ppysstnnssspsppspspspspspspp",
"ppppppppppppppppppppppppppppppppppppppppppppppppppppppppppppp7pppppppppppppppppppppppppppppppppppppppppppppppppppppppppppppppppppp",
"pppppppppppppppppppppppppppppppppppppppppppppppppppppppppppppppppppppppppppppppppppppppppppppppppppppppppppppppppppppppppppppppppp",
"pppppppppppppppppppppppppppppppppppppppppppppppppppppppppppppppppppppppppppppppppppppppppppppppppppppppppppppppppppppppppppppppppp",
"pppppppppppppppppppppppppppppppppppppppppppppppppppppppppppppppppppppppppppppppppppppppppppppppppppppppppppppppppppppppppppppppppp",
"pppppppppppppppppppppppppppppppppppppppppppppppppppppppppppppppppppppppppppppppppppppppppppppppppppppppppppppppppppppppppppppppppp",
"pppppppppppppppppppppppppppppppppppppppppppppppppppppppppppppppppppppppppppppppppppppppppppppppppppppppppppppppppppppppppppppppppp",
"pppppppppppppppppppppppppppppppppppppppppppppppppppppppppppppppppppppppppppppppppppppppppppppppppppppppppppppppppppppppppppppppppp",
"pppppppppppppppppppppppppppppppppppppppppppppppppppppppppppppppppppppppppppppppppppppppppppppppppppppppppppppppppppppppppppppppppp"
};
