/* XPM */
static const char *input_xpm[] = {
/* columns rows colors chars-per-pixel */
"43 39 951 2",
"~$ c #000C0E",
"m# c #000607",
".  c #4FD0B2",
"*& c #001216",
"]$ c #000C0F",
"P# c #000608",
"4& c #000002",
"9@ c #000609",
"!O c #00060B",
"J+ c #000004",
"O$ c #00060C",
"VO c #9ACDCE",
"8X c #55CBA9",
"d+ c #000005",
"lX c #9AD9DE",
">+ c #000007",
"/# c #00060F",
"m$ c #000610",
"+$ c #000009",
"jX c #9AD9E0",
"To c #6EC0AA",
"Y  c #55CBB1",
"No c #A0DADE",
"/  c #74BBAB",
"~+ c #A6D5DB",
":% c #ACD6D5",
"G# c #A6CFD5",
"M# c #ACD0D0",
"M@ c #B31418",
"{@ c #93DBD7",
"rX c #99DCD5",
"f% c #99D6D1",
"-$ c #99D0CA",
"<  c #54CEA7",
"l+ c #A6211C",
"6. c #DDFFFF",
"@. c #67BCA7",
"1+ c #BEC7C2",
"=o c #9FD7D6",
"A$ c #A5DED8",
"_% c #A5D2CB",
"w+ c #050409",
"I+ c #9FD1D2",
"i$ c #A5D2CF",
"2@ c #73BEAA",
"6# c #ABDFDD",
"V. c #ABD3D2",
"]% c #ABD3D3",
"8$ c #ABD3D5",
"9# c #863A2D",
"IX c #92D8D6",
"]O c #CAB7BB",
"I  c #4DD0AE",
"/o c #98DFDB",
"O& c #B7CFCF",
"0% c #53CBA8",
"+O c #98D9DB",
"yO c #98D9DD",
"(o c #98D3D7",
" $ c #9EDAD8",
">O c #9EDADA",
"$$ c #53CBAF",
"1& c #04070C",
"V% c #A4E1DC",
"!@ c #A51E25",
"%+ c #A4D5D1",
"g$ c #A4D5D2",
".% c #6CBAAA",
"T@ c #E2BBB6",
")o c #BDD0D6",
"6o c #C3BFBC",
"H. c #A4D5D9",
":@ c #AAD6D7",
"iO c #5FC7AC",
"x. c #5FC7AE",
"9% c #5FC7B0",
"`. c #78BCAD",
"_. c #65C8AC",
".O c #91D5D6",
"yX c #97DCD9",
"3. c #DBFFFF",
"-  c #52CEAA",
"&  c #52CEAC",
"6@ c #9DD7D8",
"1@ c #9DD7D9",
"_+ c #9DD7DB",
"%. c #71BEAA",
"+# c #E1B8B6",
"M  c #5ECAA8",
"]+ c #71BEAC",
"#. c #77CBB4",
"&o c #71BEAE",
"[@ c #A9D3D1",
"aO c #A9D3D2",
"N. c #A9CDCB",
"C@ c #B0232B",
"d  c #5ECAB2",
"~o c #90D8D4",
"j# c #B5CFC6",
"uo c #96DFD8",
"(  c #77B9AB",
"0# c #F3B5AA",
"0$ c #B5CFCC",
"_O c #A3241D",
"w@ c #9CDAD5",
"cO c #B5C9CA",
"iX c #9CDAD9",
">. c #6AC6B1",
"MO c #D4C5CC",
"+  c #57D2B5",
"ho c #57CCAF",
"d@ c #A2D5D8",
"5  c #51CBBC",
"W. c #A8D0D0",
"b. c #5DC1A5",
"X% c #5DC7B0",
"y@ c #FFABB5",
"]X c #95E2DA",
"i% c #95D6D0",
"F+ c #95DCD8",
"Ko c #95D6D2",
"7. c #D9FFFF",
"9o c #893229",
"Q@ c #E01916",
"7& c #010A09",
";$ c #95DCE0",
"#@ c #ECB7BF",
"no c #9BE3E0",
"`O c #E61A11",
":$ c #95DCE2",
"3O c #B4CCD0",
".X c #9BD7D5",
"JO c #9BD7D7",
"P% c #9BD1D1",
"E# c #9BD7D8",
"g% c #A1DED9",
"R  c #56CFB0",
"6O c #E61417",
".. c #6FBEA9",
"f# c #9BD7E2",
"_  c #6FBEAB",
"r# c #A1D2D6",
"-O c #5CCAAD",
"V$ c #ADDAD3",
"n  c #5CCAB1",
"7+ c #A7D3D6",
"E  c #5CC4AB",
"Ao c #B42424",
"E% c #62CBAD",
"4O c #E5B3B6",
"l. c #001307",
" # c #ADD4D3",
"CX c #001308",
"c% c #00130A",
"i# c #94DFDA",
"7% c #00130B",
"<& c #000D05",
"c+ c #D2C5BF",
"a$ c #ADD4D9",
"KO c #000D07",
"m+ c #000D08",
"h+ c #001310",
"oo c #000D09",
"9X c #68CCB0",
".& c #B3DBDD",
"O% c #4FCBA7",
"(+ c #000704",
"%& c #000705",
"L@ c #000D0C",
"8& c #000706",
"$& c #000D0E",
"d$ c #000100",
"/O c #000707",
"<+ c #000709",
"}X c #9ADAD9",
"`$ c #00070A",
"z$ c #000103",
"J$ c #000104",
"b# c #00070B",
"D$ c #000105",
"g+ c #00070C",
"dX c #9ADADC",
"n$ c #00070D",
" @ c #000106",
"@$ c #00070E",
",+ c #000107",
"2# c #00070F",
"%  c #55CCAC",
";+ c #000109",
"7  c #55CCAE",
"(. c #55CCB0",
"(% c #A6D0CC",
"o+ c #A6DCDC",
"*% c #A6D6D8",
"-+ c #ACDDDA",
"+% c #61CEAF",
"mo c #8DD5D2",
"c  c #61C8AA",
"DX c #74BCAE",
"w# c #93DCD5",
"k  c #61C8AD",
"B% c #93D0CB",
"j$ c #93CAC4",
"/X c #B2CCC9",
"U. c #ACD1D7",
"2. c #D7FFFF",
"3$ c #99D7D2",
"L+ c #B2C6C7",
"&. c #67C3AA",
"!% c #B8DFDE",
"Z% c #9FDED6",
"mO c #C5181A",
"b% c #5AD0AE",
"V# c #99D7E4",
" . c #6DBEAD",
"[$ c #A5D3D0",
"u$ c #ABDAD4",
"T. c #ABD4CE",
"i. c #60CBAD",
"P+ c #ABCED0",
"}$ c #92D9D5",
")+ c #ABD4D8",
"/% c #B1DBD9",
"m% c #79C0B0",
"I@ c #92D3CF",
"=  c #4DD1AA",
"*@ c #D0C5C3",
"{$ c #98E0DD",
"{X c #98DAD6",
"-o c #98DAD8",
"Bo c #B1C9CD",
"z# c #98DAD9",
"$% c #98D4D4",
"U@ c #9EDBD4",
"(X c #98D4D5",
"#+ c #53CCA9",
"C$ c #53CCAD",
"NO c #98D4DC",
"Oo c #6CC1AC",
"w  c #59CDAA",
"2o c #9EDBDE",
"&X c #9ED5D8",
"5% c #A4DCD9",
"S. c #A4D6D3",
":X c #9ED5DA",
"uO c #A4D6D5",
"!$ c #A4DCDD",
"G. c #A4D6D7",
"[o c #DCC1C8",
"A@ c #BDCBD4",
"y# c #AAD7D4",
"]  c #72BCAD",
"h$ c #91DCD5",
"#$ c #AAD1D6",
"q. c #D5FFFF",
"a# c #B0D2D3",
"gX c #BCCEC2",
"`X c #97DDDB",
"]# c #97D7D6",
"ro c #97DDDD",
"u% c #9DDEDA",
"sO c #9DD8D4",
" + c #030B0D",
"MX c #9DD8D6",
"R# c #9DD8DC",
"@% c #6BB8A8",
"{% c #A3CDCC",
"`o c #AA292E",
"y. c #58CAB0",
"n% c #5EC5A8",
"Q$ c #77C6B3",
"9$ c #AFE1DE",
"y  c #4BD1B0",
"q# c #B5D0CB",
"Jo c #96DAD9",
"OO c #96DADB",
"|# c #96DADD",
"E+ c #C21511",
"T  c #51D2B3",
"H# c #51CCAD",
"+& c #57D3AF",
"]o c #C21519",
"*X c #9CD5DC",
"m. c #E6FFFF",
"4  c #51CCB8",
"*O c #5DC8AC",
"6X c #5DC8AE",
"fX c #AED2CE",
"C+ c #A8D1D5",
")O c #ECB2AE",
"Y% c #AECCCC",
"vX c #95DDD9",
"y% c #95D7D3",
"'o c #D4060A",
"Y# c #95DDDC",
"j% c #95D1CF",
"D% c #9BD8D0",
"b@ c #9BD8D1",
" X c #9BD8D3",
"Z# c #9BD8D9",
"XO c #9BD8DB",
"v# c #A1D9D6",
"[  c #6FBFA6",
"wX c #A1D3D0",
".# c #A1D9D8",
"f  c #56C4A9",
"l  c #5CCBAB",
"[. c #A7D4D1",
"X& c #A7CECD",
"L. c #A7D4D7",
"D@ c #ADDBD9",
"fo c #001407",
"B. c #ADD5D4",
"]. c #ADCFCE",
"go c #49D1AD",
"E. c #ADD5D7",
"&# c #ADC9CA",
"Y+ c #EBB5B5",
"b$ c #000800",
"++ c #000E07",
"|o c #94E0E0",
"u+ c #000E09",
"e# c #94DADA",
"j@ c #000804",
"}o c #94DADC",
"0@ c #000805",
"_$ c #000806",
"*# c #9AD5CF",
"-& c #000807",
"N+ c #000200",
"'$ c #000808",
"^O c #000E10",
"e+ c #000809",
"B+ c #000202",
"($ c #00080A",
"p# c #9AD5D3",
"F# c #000204",
"t# c #00080B",
"{# c #000205",
"V+ c #00080C",
"S$ c #000206",
"b+ c #000E14",
"{O c #00080D",
"f+ c #000207",
"n# c #000208",
"H  c #55C7A6",
"H% c #A0DCDA",
"@@ c #B9CBCF",
"q@ c #A0CAC6",
"L$ c #00020C",
"FX c #E4FFFF",
"lo c #A0D6D6",
"8o c #942C21",
"}# c #A6D1CA",
">X c #A0D6D8",
"$+ c #74BDAA",
"_# c #74BDAC",
"e$ c #A6D1D7",
"h  c #61CFB4",
"Y@ c #B2CDC8",
"U# c #93DDDC",
"FO c #93D7D6",
"&@ c #C5190D",
"U  c #4ECFB0",
"E$ c #54D0AE",
"mX c #9FDFDE",
"ZO c #A5DAD2",
"|  c #6DBFA9",
"C# c #99D8E1",
"$X c #A5D4CC",
"$@ c #A62328",
"c@ c #A5D4CE",
"z% c #A5E0DE",
"(O c #C4CAC6",
"%o c #5ACBAD",
"*. c #5AC5A9",
"=X c #9FD3DE",
",& c #73BAA8",
",# c #ABD5D1",
"r$ c #9FD3E0",
"W% c #73BAAA",
"k# c #B1D0CA",
"+. c #79C7B7",
"4% c #92D4D0",
"to c #92DAD7",
"RO c #98DBD2",
"dO c #98DBD4",
"vO c #EFBCBB",
"X# c #9EDCD9",
"B# c #98D5DA",
"r. c #6CC8B1",
"v+ c #9ED6D3",
"XX c #9ED6D5",
"hO c #9ED0CF",
"s. c #E2FFFF",
"CO c #A4DDD6",
"R+ c #E91311",
"z. c #72C3B0",
"`  c #72BDA9",
"-@ c #A4D7DA",
"8% c #72C3B4",
";# c #A4D1D6",
"Xo c #AAD2D1",
"GX c #AAD2D2",
"*o c #AAD2D4",
"ao c #91DDD9",
"2  c #52D0A1",
"U+ c #B0CDCB",
"Go c #91DDDD",
"K. c #AAD2DA",
"bo c #91D7D7",
"e% c #B0D9DB",
"R% c #52CAA7",
")X c #97D8DC",
"Zo c #C31919",
"q+ c #030000",
"h% c #A3E0DB",
"+@ c #9DD3D5",
"%X c #A3D4CE",
"T+ c #AA2423",
"o$ c #A3D4D0",
"i@ c #EE1108",
"PO c #58CBAC",
"NX c #A3D4D1",
"@+ c #58CBAE",
"W$ c #58C5A8",
"p. c #71C0AD",
"wO c #A3DADD",
"H@ c #A3D4D8",
"=% c #A9D5D6",
"M% c #A9CFD0",
"c# c #A9D5D8",
"## c #BC1B11",
"O# c #AFC4BD",
"j+ c #AFCAC5",
"qX c #AFD6D5",
"eo c #90DADB",
"S# c #96E1DD",
"IO c #51CDA9",
"P  c #51CDAB",
"3% c #9CDCDB",
"X$ c #A2E3DB",
"3  c #51CDB1",
"5. c #E0FFFF",
";X c #9CD6D7",
"#X c #9CD6DA",
":& c #70BDA9",
"L  c #5DCFAE",
")  c #70BDAB",
"f$ c #A8D2D0",
"1X c #A8D2D1",
"b  c #5DC9AF",
">& c #63D0B1",
"4+ c #DA0E05",
">o c #8FD7D6",
"cX c #95DED7",
"BX c #AECDCF",
"   c #4ACFB0",
"p  c #4AC9AB",
"D+ c #9BD9D6",
"}  c #6FC0A0",
"{+ c #9BD9D8",
"WO c #9BCDCA",
"<o c #9BDFE0",
"W  c #69C5B0",
"^@ c #BACFD4",
"c. c #56CBAE",
"o  c #56CBB0",
"oX c #A1D4D5",
"-. c #56CBB1",
"~  c #6FC0AD",
"zO c #A7DBD7",
"!+ c #A1D4D8",
"P@ c #A7D5D2",
"A. c #A7D5D3",
"F. c #A7D5D5",
"-% c #A7CFCF",
"T% c #00150C",
"K# c #ADD0D2",
"=$ c #B3D7D3",
"|O c #000900",
"so c #94DBD7",
"># c #000904",
")$ c #000906",
"H$ c #000300",
"~. c #000907",
"I$ c #000908",
"}+ c #9ADCD8",
"_@ c #000909",
"`@ c #000302",
"=& c #00090A",
"L# c #9ADCDA",
"tO c #9AE2E1",
"UX c #9ADCDB",
"9O c #94D5DB",
"9+ c #000304",
"6$ c #000305",
"[# c #000F14",
"g. c #DEFFFF",
"^$ c #00090E",
".+ c #000307",
"F$ c #00090F",
"gO c #A0DDD8",
"8O c #D2C1C9",
"z@ c #000308",
"~# c #000309",
"l# c #A0D7D2",
"n+ c #000910",
":+ c #00030A",
"HX c #A0D7D4",
"pX c #A0D7DA",
"RX c #A0D7DC",
"[+ c #5BC9AC",
"&% c #A6D8D9",
",. c #CBFFFF",
"t. c #5BC9AE",
"jO c #A6D2D3",
"^+ c #ACD3D0",
"^o c #93DED9",
"[O c #ACD9DF",
"o& c #B2D4D3",
"hX c #B8CFC5",
",o c #99DFDF",
"zo c #99D9D8",
"-# c #99D9D9",
"GO c #99D9DB",
"s% c #9FDAD6",
"f@ c #99D3D7",
"@& c #54BFA1",
"O  c #54CBAF",
"z  c #5ACCAB",
"w$ c #9FD4D8",
"/. c #6DBAA8",
"@# c #93302B",
"O. c #6DBAAA",
"-X c #9FD4DA",
"~% c #A5CFCE",
"K  c #60C7A9",
"w% c #73BBAD",
"Q# c #92D5CC",
"LO c #60C7AC",
"M. c #B1D1D0",
"5o c #B1D7D8",
"/@ c #92CFD0",
"W# c #98D6D3",
"Mo c #98DCDB",
"9. c #DCFFFD",
"wo c #98DCDD",
"0. c #DCFFFF",
"y$ c #9ED7D0",
"}. c #9ED7D1",
"lO c #9ED1CC",
"s@ c #B7CCD1",
"7O c #C4171B",
"~@ c #F5B8C0",
"ZX c #6CBDAA",
"X. c #72BEA4",
"o@ c #A4D8D4",
"q$ c #A4D8D6",
")@ c #A4D2D0",
"o# c #AADFD9",
"Vo c #E2BEC0",
"]@ c #AAD3CF",
"1  c #52D19E",
"}% c #AAD3D5",
"R. c #AAD3D7",
"#& c #78BFAF",
"<% c #B0DAD9",
"$o c #4CD0AB",
"u@ c #B7181C",
"1o c #91D2D4",
"po c #97D9D5",
"vo c #97DFDE",
"Io c #97D9D7",
"A# c #97D9D8",
"D# c #9DDAD3",
"5+ c #C31A15",
"4o c #97D3D4",
"y+ c #9DDAD5",
"N% c #9DCECB",
"q  c #58CCA9",
"Z$ c #A3D5D2",
"I% c #A3D5D4",
"qo c #A3DBDC",
"kO c #A3CFCE",
"`% c #A9D6CF",
"#% c #A3CFD0",
"%# c #E1BBBA",
"AO c #A3C9CA",
"0X c #71B5A6",
"$. c #77C2AE",
"yo c #90DBD6",
"2O c #90D5D0",
"*+ c #96DCD4",
"3# c #AFD1D2",
"@  c #4BCDAB",
"2$ c #96DCDA",
"7@ c #96D6D5",
"'. c #DAFFFF",
"|. c #9CD7D1",
"<O c #9CDDD9",
"F% c #9CD7D3",
"AX c #51CEAE",
"G% c #9CD7D5",
">  c #51CEB0",
"HO c #9CD7DB",
"^  c #6AB7A5",
"d# c #9CD7DD",
"'  c #70BEA6",
"o. c #70BEA8",
"xO c #A2D8D8",
"a  c #57C9AF",
"v. c #5DD0AF",
"F  c #57C3A9",
"x  c #5DCAAB",
"jo c #70BEB0",
"m  c #5DCAAD",
"G+ c #8FD8D1",
"P. c #A8D3D9",
"J. c #A8D3DC",
"e@ c #95D3D0",
"V@ c #DA0300",
":O c #9BE0DB",
";  c #56CCA9",
":  c #56CCAA",
"{. c #A1D5D1",
"pO c #56CCAC",
"g@ c #A1CFCF",
"|% c #A7D0D2",
"'% c #ADD7D3",
"n. c #75BCAA",
"UO c #75BCAC",
"w& c #001004",
";& c #001005",
"$O c #ADD1D1",
"_o c #E5B0B6",
"'+ c #001007",
"qO c #94DCD8",
"B$ c #000A02",
"PX c #94DCD9",
"fO c #94D6D2",
"4$ c #94D6D4",
"Po c #94DCDB",
"h@ c #000A04",
"1. c #D8FFFF",
",@ c #000400",
"VX c #00100F",
"x@ c #000A08",
"G$ c #000402",
".$ c #9AD7D2",
"3X c #000A09",
"c$ c #000A0A",
"x$ c #000404",
"q& c #000405",
"k$ c #000A0C",
",  c #4FCEB0",
"QO c #001013",
"s$ c #000406",
"/$ c #000A0E",
"s+ c #000407",
"4# c #9AD7D8",
":# c #000408",
"~O c #000409",
"Q  c #68BDAA",
"+X c #9AD7DA",
"K@ c #00040B",
".o c #A0D8D5",
"P$ c #00040D",
"|+ c #A0D2CF",
"M$ c #00040E",
"}@ c #A0D8D7",
"8@ c #A0D2D1",
";@ c #A0D2D3",
")% c #A6D3CE",
"[X c #8DD8D1",
"p$ c #A6D9DD",
";o c #8DD8D4",
"x# c #93DFDD",
"&+ c #99DAD2",
"5# c #93D3D3",
"=# c #99E0DA",
"Fo c #93D9DB",
"JX c #99DAD6",
"i  c #4ED1B2",
";. c #4ECBAB",
"bX c #99DADC",
"t% c #9FE1DD",
"sX c #99DADE",
"3o c #99D4D8",
"). c #54C6A5",
",O c #9FDBD9",
"(@ c #9FDBDB",
"o% c #54CCB0",
"u  c #54CCB1",
"OX c #9FD5D7",
"p@ c #D1170B",
"G  c #5ACDAE",
"D. c #A5D6D3",
"j. c #E9FFFF",
"J  c #5AC1A4",
"5X c #73C2AF",
"k@ c #ABDDDC",
"U% c #ABD7D6",
"j  c #60C8AD",
"%$ c #60C8AF",
"ko c #ABD1D4",
"S% c #98D7CE",
"!o c #92D6D5",
"8. c #D6FFFF",
"I. c #ABD1DA",
"7# c #B7CDCA",
"e  c #53CFAB",
"^X c #DCBEB3",
"2X c #B7D3D4",
"<$ c #92DCE7",
"x+ c #C41816",
"@X c #98D7DC",
"!# c #A4D9D1",
"S@ c #9ED8D9",
"aX c #9ED8DA",
"L% c #A4DFDD",
"+o c #59CAAC",
"g  c #59CAAE",
"C. c #AAD4D2",
"|$ c #AAD4D3",
"'X c #91D9D5",
"n@ c #B0C9C5",
" O c #91D9D8",
"J% c #97D4CF",
"QX c #B6D0CD",
"9  c #52D2AF",
"$# c #AA2016",
"k% c #9DDBDA",
"<X c #9DCFCE",
"3& c #030207",
"i+ c #A3D6D1",
"^% c #A3D0CD",
"3@ c #E7FFFF",
",X c #A3D6D7",
"G@ c #A9D1D0",
";% c #A9D1D1",
"[% c #A9D1D3",
"R@ c #B62827",
"<. c #D4FFFF",
"tX c #96DDD7",
"xX c #96DDD9",
"Q+ c #96D7D3",
"Ho c #96DDDF",
"{  c #70BF9F",
"DO c #9CD8D8",
"t+ c #9CD8D9",
"r% c #A2D9D6",
"&$ c #A2D3D0",
"kX c #9CD8E0",
"&O c #70BFAA",
"2& c #08060B",
"7o c #77453E",
"A+ c #70BFAC",
"s# c #A2D3D7",
"{o c #A2D9DE",
"Z. c #A8D4D3",
"m@ c #774546",
" o c #95DAD5",
"B@ c #F90602",
"Z+ c #95DAD7",
"So c #CDB9BB",
"a@ c #ECB5B8",
"v@ c #9BE1D9",
":o c #9BE7E3",
"0O c #95DADF",
"Lo c #9BDBDA",
"7$ c #010204",
"=@ c #9BDBDB",
"N$ c #01080E",
"u. c #56CDAD",
"bO c #A82626",
"X  c #56CDB1",
"h. c #E5FFFF",
"W@ c #EC0D08",
"t$ c #9BD5E0",
">% c #A7D1D0",
"N@ c #EC0D10",
"R$ c #5CC8AE",
"s  c #5CC8B0",
"a. c #D2FFFF",
"p+ c #94DDD6",
"^. c #00170E",
"4X c #001107",
"0+ c #000B00",
" % c #001710",
"T$ c #001109",
"C% c #94D1CC",
"C  c #5CC8B8",
"U$ c #000B04",
"'@ c #00110D",
"k. c #000B07",
"/+ c #000500",
"@o c #4FCFAC",
"<@ c #000B08",
"6% c #001110",
"`+ c #000B09",
"#o c #4FCFAE",
"&& c #001112",
"K$ c #000504",
"X+ c #000B0C",
".@ c #000505",
"9& c #000507",
"@O c #9AD8D7",
"|@ c #001117",
"l@ c #000509",
"1# c #00050B",
"8+ c #00050C",
"~X c #E4BAAC",
"l$ c #060004",
"J@ c #A0D3D4",
"Do c #A0D3D7",
"S+ c #A6D4D1",
"YO c #A6D4D2",
"r+ c #A6D4D4",
"=+ c #93D4CE",
"SO c #ACD5D9",
"r  c #4ED2AD",
"Z@ c #75333F",
"3+ c #A6261D",
"uX c #99DBD9",
"zX c #99DBDA",
"a% c #9FDCD5",
"%% c #99D5D5",
"'O c #C51C17",
"a+ c #9FD6D1",
"$  c #54CDAC",
"=. c #54CDAE",
"oO c #9FDCDD",
"d. c #E3FFFF",
"EX c #9FDCDF",
"TX c #9FD6DB",
"2% c #A5D7D6",
"J# c #73BDAC",
";O c #73BDAE",
"v  c #60C9AB",
"Co c #932C2F",
"Uo c #ABD2D1",
"LX c #92DDD8",
"|X c #92DDD9",
"(# c #ABD2D9",
"1O c #98DED6",
"=O c #4DCFAB",
"Q. c #B1D3D4",
"1$ c #92DDE0",
"#  c #4DCFAD",
"X@ c #B7DAD6",
"8  c #4DC9A7",
"O+ c #98D8D7",
"nX c #98D8D8",
"eO c #98D2D4",
"do c #9ED9D5",
"z+ c #E30F0E",
"BO c #9ED3D7",
"H+ c #AAE1DC",
"Y. c #AAD5CE",
"!X c #C9C5BC",
"5@ c #A4D4D6",
"'# c #A4D4D8",
"8# c #D5C1BA",
"0  c #52D3AD",
"Wo c #97DBDA",
"l% c #97D5D4",
"7X c #52CDAE",
"6& c #030305",
"6  c #52CDB0",
"f. c #E1FFFF",
"WX c #9DD0D1",
"!  c #6BBCA9",
"#O c #A3D7D5",
"g# c #9DD6DF",
"S  c #5EC9AB",
"w. c #CEFFFE",
"Eo c #71BDB0",
"A  c #5EC9AD",
")# c #5EC9AF",
"r@ c #A9D2D4",
"I# c #AFD9D5",
"W+ c #CEC3BD",
" & c #AFD9D8",
"x% c #AFD3D3",
"%@ c #DB0800",
"Q% c #AFCDCF",
"KX c #96DEDA",
"xo c #96DEDB",
"!. c #AFC7C9",
"2+ c #F3BAB3",
"K% c #96D2D0",
"TO c #9CD9D2",
"eX c #9CD9D4",
":. c #51C4A5",
"5& c #020003",
"YX c #9CD9DA",
"EO c #A2E0DB",
"N  c #5DCCA1",
"T# c #9CD9DC",
"B  c #5DCCA2",
">$ c #9CD9DE",
"^# c #02060F",
"1% c #A2CECD",
"5$ c #A2D4D5",
"q% c #5DC6A8",
"0o c #C7CBCA",
"co c #8FDAD6",
"t  c #4AD2AE",
"E@ c #D40A0A",
"4@ c #AED0D1",
"`# c #AED0D2",
"rO c #95DBD9",
"Y$ c #95DBDB",
"io c #9BDCD6",
"6+ c #D3C1C1",
"SX c #50CDAB",
"d% c #9BD6D2",
"u# c #50CDAD",
"<# c #9BD6D4",
"K+ c #01090B",
"4. c #DFFFFF",
",$ c #95DBE7",
"O@ c #A1DDDB",
"N# c #A1D7D7",
"5O c #A8272B",
",% c #A1CBCA",
"v% c #6FBDAD",
"h# c #ADD3C8",
"e. c #001805",
"Ro c #5CC9AC",
"Z  c #5CC9B4",
"nO c #D30100",
"%O c #001207",
"V  c #5CC9B6",
"D  c #62CAB1",
"M+ c #000C04",
"k+ c #F1BAB5",
"*  c #4FD0AA",
"A% c #9AD9D0",
">@ c #000600",
"t@ c #CCC3C8",
"Qo c #94D8D7",
"p% c #9AD9D1",
"Yo c #000C09",
"F@ c #000602",
"*$ c #000604",
"_X c #94D8DB",
"}O c #000C0B",
"v$ c #000605",
"0& c #000606",
/* pixels */
"  . X o O + @ # $ % % & * = * - ; : > , & < 1 2 3 4 5 4 6 & % % 7 8 9 0 q w e r t y u ",
"i p a s d f g h j k k j l z l x c v b n m M N B n V C Z A S S A D F G H J K L P I U Y ",
"T R E W Q ! ~ ^ / ( ( / ) _ ) ` ' ' ] ] ) [ { } |  . ...X.X.o...O.+.@.#.$.%.&.*.=.6 -.",
";.:.>.,.<.1.2.3.4.5.4.6.7.1.7.7.1.1.3.3.1.8.1.7.1.1.1.7.9.0.7.1.7.q.q.w.0.7.e.r.t.7 y.",
"u.i.p.a.4.s.s.s.d.d.s.f.0.0.g.g.0.0.f.f.0.3.g.f.s.s.f.s.h.h.f.4.f.s.5.d.j.k.l.z.x.c.o ",
"v.b.n.6.m.M.N.B.V.C.Z.A.S.D.Z.F.G.H.J.K.F.A.L.P.I.U.C.Y.T.V.R.P.R.E.W.Q.!.~.^./.x.c.(.",
")._.`.'.h.].[.{.}.|. X X.XXXoXOX+X@X#XoX$X%X&X*X=X-X;X X X.X#X:X>X,X<X1X2X3X4X5X6X=.7X",
"8X9X0X4.m.qXwXeXrXtXyXyXuXiXpXaXsXdX,XfXgXhXG.jXkXlXzXxXcXvXbXdXnXmXMXNXBXVXCXZXt.AXAX",
"SXm DX0.FXGXHXJXKXLXPXIXUXYXTXRXEXWXQX!X~X^X/X(X)X_X`X'X]X[X{X}XPX|X o.oXoool.Oo+o@o#o",
"$o%o&o0.FX*o=o-o;o:o>o,o<o1o2o3o4o5o6o7o8o9o0oqowoeorotoyouoiopo|XaosodoXooofoOo+o@o#o",
"gohojo0.FXkolozoxocovoboPXnomoMoNoBoVoCoZoAoSoDoFoGoHoroJouXKoLoPoPoIo.oUoYol.ToRo& AX",
"gohoEo0.m.kolozosoIXWoQo!o~o^o/o(o)o_o`o'o]o[o{o}o|o O.OXOoOLo!oOO+O@O#O$Ok.%O&O*O$ 7X",
"=O-O;O6.m.*o=oJX:OIo>O,O,O<O1O2OnX3O4O5O6O7O8O9O0OvoqO-owOeOrOtOyOXO;XuO$Ok.%O%.iOpO7 ",
"SXm DX6.FXaOsOdOfOgOhOjOkOA.lOzOxOcOvObOnOmOMONOBOVOCOZOAOSODOFOGOHOJO#OUoKOl.&OLOPOc.",
"IOS UO6.s.YOTOROEOWOQO!O!O~O^O/O3X(O)O_O`O'O]O[O{O}O|O|O +.+X+o+HOGOO+.o[.++foToiOPO@+",
"#+S $+3.5.%+&+*+=+-+!O;+:+>+,+<+3X1+2+3+4+5+6+7+8+9+0+0+q+w+e+r+t++OIoy+[.u+foTo*OpOc.",
"P x %.1.4.i+dOp+uoa+s+d+d+f+g+X+h+j+k+l+z+x+c+v+b+n+m+M+N+B+V+C+HOOOZ+doXoYo%OA+Ro& 7X",
"SXl &O1.5.S+D+F+G+H+s+J+K+L+P+I+mXU+Y+T+R+E+W+Q+!+~+I+^+/+(+<+)+_+OOZ+doUo`+'+]+[+@oAX",
"SXx %.3.FXUolo{+}+|+s+ @.@X@o@O@+@@@#@$@%@&@*@=@-@;@wO:@>@,@<@aO1@OOZ+doUo`+'+]+[+@oAX",
"SXx 2@6.3@4@5@6@7@8@g+9@0@q@w@e@r@t@y@u@i@p@a@s@*od@f@g@h@|Oj@Xo1@OOZ+doUo`+'+]+[+@oAX",
"SXx $+6.3@4@5@6@zok@l@z@x@c@v@b@n@m@M@N@B@V@C@Z@A@:XS@D@F@,@j@G@1@OOZ+doUo`+'+]+[+@oAX",
"SXx 2@6.m.$OH@t+-oJ@K@f+L@P@I@U@Y@T@R@E@W@Q@!@~@^@/@(@)@_@`@'@]@6@OOZ+doUo`+'+]+[+@oAX",
"SXx %.3.d.[@6@Jo{@}@|@;+9@ #.#X#o#O#+#@###$#%#&#*#=#-#;#:#B+>#,#DOOOZ+doUo`+'+]+[+@oAX",
"SX-O%.7.5.YO{+PXLX<#1#2#l@3#H@4#5#6#7#8#9#0#q#vXw#uoe#r#t#.@0@y#t+OOZ+doUo`+'+]+[+@oAX",
"u#-O%.7.5.YO{+PXi#p#1#,+l@a#s#d#f#g#%+h#j#k#l#-oz#e#x#p#x@`@e+c#HOOOZ+doUo`+'+]+[+@oAX",
"u#m ]+3.d.aO6@JoqOv#b#n#m#M#N#B#V#C#D+&+p+PXz#Z#EXA#S#D#.@F#g+G#HOOOZ+doUo`+'+]+[+@oAX",
"H#A J#6.m.K#d@Z#L##Ol@P#0@I#y+vXU#Y#uX}XuXzXT#R#E#W#Q#!#~#^#/#(#_+OOZ+doUo`+'+]+[+@oAX",
"H#)#_#6.3@`#'#1@]#uO[#{#0@}#D#w#ao|X+OGOyO|#yOGO $.$X$o$O$+$@$#$_+OOZ+doUo`+'+]+[+@oAX",
"$$%$_#6.3@K#H@t+O+&$s+{#*$=$-$L#;$:$>$kX,$<$1$2$3$b@4$5$6$7$l@8$1@OOZ+doUo`+'+]+[+@oAX",
"$$)#_#0.FXGX>Xzo o9$s+J+/O0$[@q$w$!+jOe$r$t$@Oy$u$i$p$a$s$d$`+f$1@OOZ+doUo`+'+]+[+@oAX",
"$$)#]+1.5.g$JXqOh$j$k$l$z$x$e+c$v$/+,@,@~#l@|Ob$x$n$m$M$N$9+B$V$DOOOZ+doUo`+'+]+[+@oAX",
"C$b A+8.6.Z$JXqOp+A$9@S$D$.+F$m#G$H$H$d$J+J$,@/+K$n#L$P$~#I$U$$X{+Y$Z+doXoYoT$]+R$AX7X",
"E$W$Q$<.0.r+MXiX@O!$~$^$V+/$V+/$($)$_$_$`$($)$)$'$e+b#]$t#_@L@[$O+{$}$gO|$}O %.%X%(.o%",
"O%+%@%7.4.#%N#$%%%6@+@&%*%=%*o-%;%;%;%;%;%;%;%1X:%aO>%|$,%<%1%2%3%IX4%5%-%6%7%8%9%(.Y ",
"0%q%w%8.s.e%r%D+t%y%u%3$i%p%a%D#s%s%s%s%s%s%s%s%d% Xf%g%gOeXh%j%k%l%z%WOx%Yoc%v%X%(.Y ",
"b%n%m%6.s.M%N%v#B%V%C%D#Z%A%S%D%F%F%G%F%G%F%G%F%<#gOH%J% $J%K%L%P%&%I%U%Y%k.T%v%6Xo%u ",
"R%E%W%4.3@Q%!%~%U%^%/%(%)%_%`%'%|$]%8$]%8$]%8$]%[%{%}%aO|% &}%}%.&AOX&o&O&m+'+]+6X=.o%",
"+&@&#&5.6%9@e+e+$&<+X+m#0@0@%&%&/O<+<+<+<+<+<+<+^Ok$e+&&e+e+e+e+b#*&=&-&.@0@;&:&*O=.6 ",
"* >&,&<&%&.+.+V+{#1&J+2&3&4&5&6&B+`@`@`@`@`@`@`@`@7&`@`@K$8&I$9+9&s+0&K$q&`+w&$.*O=.6 "
};
