/* XPM */
static char *jc_xpm[] = {
/* width height num_colors chars_per_pixel */
"    25    50       16            1",
/* colors */
"` c #943e74",
". c #648abc",
"# c #7c6294",
"a c #44baec",
"b c #845284",
"c c #4ca6dc",
"d c #6482b4",
"e c #34cefc",
"f c #5c92c4",
"g c #746ea4",
"h c #3cc2f4",
"i c #7c5a8c",
"j c #000000",
"k c #000000",
"l c #000000",
"m c #000000",
/* pixels */
"eeeeeheeeeheeeeeeeeeeeehe",
"eheeeeeeheeeheheeheeheeee",
"eeeeeheeeeeeeeeeeeeeeeeee",
"eeeeeeeeheeheeeeheeheehee",
"eeheeheeeeeeeheeeeeeeeeee",
"eeeeeeeeheeeeeeheeheeheee",
"heeeeheeeeheeeeeeeeeeeeee",
"eeeheebfeeeeifeeeeeheeeee",
"eeeeee`deeeec`feeheeeheee",
"eheeeh`ceaccc`dcd`aeeeeee",
"eeeccc`dgadfcccdacaeheeee",
"eeecgd`#ddeibef`deeeeeeeh",
"heeehe`ceeec`hicechheheee",
"eeeeeh`cfiddidgddiiheeeee",
"eeehee`giaee`#heheeeeeehe",
"eeeefi`#heec`ceeehceeeeee",
"eehi`d`hibi``iiii``cheeee",
"eeeach`caea`aeh`fheeeehee",
"eeeehe`ceeideed`eeeeeeeee",
"eeeeeh`cehdiii`ceeeheheee",
"heeehe`ceeeef`b`iaeeeeeee",
"eeeeb``aeefiicef``ceeeeee",
"eeeeeiddibgceheea`deheehe",
"eheeh`eheeheeeeeheeeeeeee",
"eeeeheaeeeeeeeheeeeheeeee",
"eeeeeebieeeheedgheeeeehee",
"eeheea`dhaeeeedbheeeheeee",
"eeeeed`d``aeeedieeheeeeee",
"eeeeh`ce`dehhhdbecheeheee",
"eeee#`d#iggc`d``d`ieeeeeh",
"eeefi`c`f#bc`hdbebdeeheee",
"ehhcc`h`cdic`edbeideeeeee",
"eeeec`d``ibc`hdiebdeeheee",
"eeehc`h`cdic`edbeidheeeeh",
"eeeec`f`dgic`bb`i`deeeeee",
"eheec`d`#ibciedbedaeeheee",
"eeeedie`fdieeedifceeeeeee",
"eeeegdh`cdieeedbebcheehee",
"eehe`he`cdicddi`ii`aeeeee",
"eeedfee`g`d``gdceh`aheeee",
"heefeeh`hfeaheeeeeheeeeee",
"eeeeeeeeeeeeeeeheeeeeheeh",
"eeeeheeeheeeheeeeheheeeee",
"eeeeeeheeeheeeheeeeeeeeee",
"eeheeeeeeeeeeeeeeeeeeheee",
"eeeeeeeeeeeeeeeeeeeeeeeee",
"eeeeeeeeeeeeeeeeeeeeeeeee",
"eheeheeheeheeheeheeheehee",
"eeeeeeeeeeeeeeeeeeeeeeeee",
"eeeeeeeeeeeeeeeeeeeeeeeee"
};
