/* XPM */
static char *jj_xpm[] = {
/* width height num_colors chars_per_pixel */
"    25    50       16            1",
/* colors */
"` c #8c467c",
". c #5c8ec4",
"# c #44c2f4",
"a c #746a9c",
"b c #34cefc",
"c c #54a2d4",
"d c #6486bc",
"e c #44d2fc",
"f c #7c6294",
"g c #7476a4",
"h c #4caadc",
"i c #3ccefc",
"j c #000000",
"k c #000000",
"l c #000000",
"m c #000000",
/* pixels */
"bbbbbbbbbbbbbbbbbbbbbbbbb",
"bbbbbbbbbbbbb#i#ib#bbbbbb",
"bbbbbbbbbbb#bbbbbbbbbbbbb",
"b#bbbbbbbbbbbbbbbbbb#bbbb",
"bbbbb#bbb#bbbbbbbbbbbbbbi",
"bbbbbbbbbbbbbbbbbbbbbb#bb",
"bbbbbbbb#bbbbbbbbbbbbbbbb",
"bbbbbbbbbbbbbbbbbbbbbbbbb",
"#bbbbbbdf#bbbdd#bbbbbbbbb",
"bbbbbbbd`#bbb#`abbbbbbb#b",
"bbbbbbbdfb#hhhfaha`.bbbbb",
"bbbb#chaf.fd`dhh`fhhbbbbb",
"bbbb#ddf`ddhd`ch`dbbbbbbb",
"b#bbbbbdfbbb#`.fcb.abbbb#",
"bbbbbbbdf#`adf`ddddd#bbbb",
"bbbbbbbd`f.bbf`hbbbbbbbbb",
"bbbb#cf`f#bb#`cbbbh.bbbbb",
"bbbb#`fafaff``ff``ff.bbbb",
"#bbbbcbdfbbh`cb#`.bbbbbbi",
"bbbbbbbdfbba`c#a`#bbbbbbb",
"bbbbbbbdfbbbha``f#bbbb#bb",
"bbbbb#hafbbb#a`a``f#bbbbb",
"bbbbb#a`a#ca`a#bba`dbbbbb",
"b#bbbbbdhddhbbbbbbacbbbbb",
"bbbbbbbbbbbbbbbbbbbbbbbbb",
"bbbbbbhbbhbbfcbbbbbbbb#bb",
"bbbbbb`aa`ab`.b#cbhdbbbbi",
"bbbbbb`dh`#b`hbh`df`cbbbb",
"#bbbbbf.h`hh`da.`bdfbbbbb",
"bbbbbbfa.`.d`ada`bdfbbbbb",
"bbbbbbfa.`bb`hbh`bdf#bbbb",
"bbbbbbfdh`bb`hag`bdfbbb#b",
"bbbbbbfdc`aa`fda`bdfbbbbb",
"bbbbbbf`f`bc`cbh`bdfbbbbb",
"bb#bbb`.h`baff#h`bdfbbbbb",
"bbbbbb`hh`#`#dfc`bdfb#bbb",
"bbbbb#`#h`afda`f`fffbbbbi",
"bbbbbc`bh`f`.#f``c`cbbbbb",
"bbbbbadbh`##bbhc`bbbbbbbb",
"bb#b#`hf``bbbbbc`bbbbbbbb",
"bbbbc.bbdcbbbbbhabbbbbbbi",
"bbbbbbbbbbbbbbbbbbbbb#bbb",
"bbbbbbbbbbbbbbbbbbb#bbbbi",
"bbbb#bb#bbbbb#bbb#bbbbbbb",
"bbbbbbbbbbb#bbbbbbbbbbbie",
"bbbbbbbbbbbbbbbbbbbbbbbbi",
"bbbb#bbbbbbbbbbbbbbbbiibi",
"bbbbbbbbbbbbbbbbbbiibe#bb",
"bbbbbbibbbbbbiieeeeibbbbb",
"bbbbbbbbbiibieibbbbbbbbbb"
};
