/* XPM */
static char *jk_xpm[] = {
/* width height num_colors chars_per_pixel */
"    25    50       16            1",
/* colors */
"` c #943e74",
". c #648abc",
"# c #7c6294",
"a c #44baec",
"b c #845284",
"c c #4ca6dc",
"d c #6c76ac",
"e c #34cefc",
"f c #5c92c4",
"g c #6482b4",
"h c #3cc2f4",
"i c #7c5a8c",
"j c #000000",
"k c #000000",
"l c #000000",
"m c #000000",
/* pixels */
"eeeheeeeeeheeeheeeeheeeee",
"eheeeheheeeeeeeeeheeeehee",
"eeeeeeeeeeeheeheeeeeheeee",
"eeeeheeeeheeeeeeheeeeeeeh",
"eeheeeheeeeeeheeeeeeeheee",
"eeeeeeeeeheeeeeheeheeeeee",
"eeeheeheeeeheeeeeeeeheeee",
"eeeeaaeeheeeeeeefeeeeeeeh",
"eeheh`deeaaecgi``gheeheee",
"eeeehg`gec`idggcceeeeeeee",
"eeeeeebcec`heeeeheeeheeee",
"eeeheeeeec`heeeeehheeeeeh",
"heeeecihec`ccccccbdheheee",
"eeeddi`fec`cccbdccceeeeee",
"eeeeec`hec`heebgeheeheehe",
"eheehc`eec`eehigeeeeeeeee",
"eeeeec`heddheeideeeheeeee",
"eeeeec`ee`ceeeibeheeeehee",
"heeeec`hcieheebieeeeheeee",
"eeeeg`bdiheeeeiieeeeeeeee",
"eeei`gedifaeeegahheheeehe",
"eeecfeehf``````````cheeee",
"eeeheeeeeeacgddgggaeeeeee",
"eheeeheeheeeeeeeeheeeehee",
"eeeeeeeeeeeeheeheeeeheeee",
"eeeeheehehgecdceeeeeeeeeh",
"eehaiiiii``fc`ceheheeheee",
"eeeeeeeehbgec`eeeeeeeeeee",
"eeeheeefdceec`heeeeeheeee",
"eeeeeehibheec`eeheheeeeeh",
"eeeeheeibehgc`heeeeeeheee",
"eheeeeeibgihc`heheeeeeeee",
"eeeeehf``chec`eeeeeeheehe",
"eeeai`bbbeeec`eeeeheeeeee",
"heeg`geiieeec`hheeeeeeeee",
"eeehaeeibeehc`eeeeceeehee",
"eeeeheebieeec`heehiheeeee",
"eheeeeebiehec`eeecieeheee",
"eeeehccbieeec`fccd`ceeeee",
"eeeehd``geeeh`````bhheeee",
"eeheeegghheeheeheeeeeeeee",
"eeeeeeeeeeeeeeeheeeeeheeh",
"eeeeheeeheeeheeeeheheeeee",
"eeeeeeheeeheeeheeeeeeeeee",
"eeheeeeeeeeeeeeeeeeeeheee",
"eeeeeeeeeeeeeeeeeeeeeeeee",
"eeeeeeeeeeeeeeeeeeeeeeeee",
"eheeheeheeheeheeheeheehee",
"eeeeeeeeeeeeeeeeeeeeeeeee",
"eeeeeeeeeeeeeeeeeeeeeeeee"
};
