/* XPM */
static char *jlfkt[] = {
/* columns rows colors chars-per-pixel */
"130 40 81 1",
"  c #000605",
". c #000C06",
"X c #000D09",
"o c #001107",
"O c #00130C",
"+ c #00190F",
"@ c #001512",
"# c #001A13",
"$ c #001E19",
"% c #03221D",
"& c #032821",
"* c #94BAB5",
"= c #A1BEBC",
"- c #8EC0B7",
"; c #8FC3B9",
": c #92C4BB",
"> c #95C9BF",
", c #9FC3BD",
"< c #A3C4BD",
"1 c #B4C0BE",
"2 c #94CCC1",
"3 c #9EC7C1",
"4 c #9CCDC4",
"5 c #95D1C3",
"6 c #9CD1C7",
"7 c #9ED4C9",
"8 c #9DD9CD",
"9 c #A3C6C2",
"0 c #A3CCC6",
"q c #A4CFC8",
"w c #AAC7C4",
"e c #ABCCC6",
"r c #ACCDCA",
"t c #A4D1C6",
"y c #A3D4CC",
"u c #A3D9CE",
"i c #ABD4CD",
"p c #ACD9CE",
"a c #A7DCD2",
"s c #ADD7D0",
"d c #AADBD3",
"f c #B3C7C8",
"g c #B0CEC6",
"h c #B4CECB",
"j c #BCC8C6",
"k c #BACDCB",
"l c #B2D3CE",
"z c #B7D8CF",
"x c #B8D2CF",
"c c #B3D5D1",
"v c #B2DBD5",
"b c #B4DED8",
"n c #BCD5D2",
"m c #BADAD5",
"M c #BBDDD9",
"N c #A6E2D4",
"B c #A6E6D8",
"V c #ACE1D6",
"C c #ADE4D9",
"Z c #ACE9DB",
"A c #B3E1D6",
"S c #B3E3DB",
"D c #B4E9DE",
"F c #BCE2D7",
"G c #BBE3DC",
"H c #B6EAE1",
"J c #BDE6E0",
"K c #BBECE3",
"L c #BBF1E6",
"P c #BFF4EA",
"I c #C1DBD6",
"U c #C5DDDB",
"Y c #C8DDDE",
"T c #D6DFDE",
"R c #C2E1DD",
"E c #C3E4E1",
"W c #C4EAE5",
"Q c #CFE3E1",
"! c #C8EFEA",
"~ c #C4F3EB",
"^ c #C3F9EF",
/* pixels */
"aaaaaaaaaaaaaaaaaaaaaaaaaadaddddaaaaaaddddda8N8Ba8Baaaaadaaaaa8aaaaaaaaaaaaaaaaaaa8aaaaaaaddaaaaaaaaaaaadaaadaddaaaaaaaaaaaaaaaaaa",
"aaaaaaaaaaaaaaaaaaaaaaaaaadddaaiaaaaadddsdaaaaN88N8aaaaadaaaaauNaaaaaaaaaaaaaaaaaaaaaaaaaadaaaaaaaaaaaaaaddadadyaaaaaaaaaaaaaaaaaa",
"aaaaaaaaaaaaaaaaaaaaaaaaaaaaaaaaaaaaadaaddaaaaauBaaaaaaaaaaaaNNNaaaaaaaaaaaaaaaaaaaaaaaadaaaaaaaaaaaaaaaaaadaaaaaaaaaaaaaaaaaaaaaa",
"aaaaaaaaaaaaaaaaaaaaaaaaaaaadaaaaaaaadaadaaaaaaaaa8Baaaaaaaaaauuaaaaaaaaaaaaaaaaaaaaaaaaaaaaaaaaaaaaaaaaaaaaaddaaaaaaaaaaaaaaaaaaa",
"aaaaaaaaaaaaaaaaaaaaaaN8aa8NaaaaNuNuaadaaaaaauaaaaaaaaaaaaaaaaaaaaaaaaaaaa8aaaaaaaaaaaNNaaaNuN8aN8N888aNaaaaaddaaaaaaaaaaaaaaaaaaa",
"aaaaaaaaaaaaaaaaaaaaaaNNNaaaaa8N8NuNaaaaaiaaaaaa8aaaaaaaaaaaaaaaaaaaN8Na8aaaaaaaaadaaaNaaaauauaaaNaaBaaaaaadaaadaaaaaaaaaaaaaaaaaa",
"aaaaaaaaaaaaaaaaaaaaaaaaNN8aa8aNN88Naaaaaaaaaaaaaaaaadadaaaaaaaaaaaaa8N8BaaaaaaaaaaaaaaaaaaNNaaaaN8BB8a8aaaadaadaaaaaaaaaaaaaaaaaa",
"aaaaaaaaaaaaaaaaaaaaaaaaN8NNaN8NNuNNaaaaaaaaaaaaaaaaddddaaaaaaaaaaaaaNaNB8aaaaaaaaaaa8aaN8NuuaaaN8aaaaaBaaaadaaaaaaaaaaaaaaaaaaaaa",
"aaaaaaaaaaaaaaaaaaaaaaaa6B8CC7aaH6CaC8CudCd6aAuCa8daddaa7CauayCayS8ad78ZaadaySSyySyuS86ZZau6H5daCa8auHuadadaaaaaaaaaaaaaaaaaaaaaaa",
"aaaaaaaaaaaaaaaaaaauaaaaZad66aNa2dav7yCaaudHd6uyZaaS7yHad6dHvdydd8aHa8L5Na8H4iyvddy~4uL78udd6SbaaaCav57ddadaaaaaaaaaaaaaaaaaaaaaaa",
"aaaaaaaaaaaaaaaaaNaNaaaaa4yKaCuab!qyvd4uCyya6d^y6adduadddd7a66dddi778Caa8C6uSvWqb6S;Cd78aCydL4rvdv4udSHdduaaaaaaaaaaaaaaaaaaaaaaaa",
"aaaaaaaaaaaaaaaaa8aaaaaaCyCdyaqbd0bbdaSduH4uD4yuHidauK8ad7adSHbybdSS7d7aCdayHr3sddvHa7dH8C2vssGr0bbSqyvyddadaaaaaaaaaaaaaaaaaaaaaa",
"aaaaaaaaaaaaaaaaa8aaaaad6GdysdJ0bc.vcydaydCd4D6#ydyHyddaaLuadXvd4@*dH7Hu7ySibvMMsvXdbaa4dy~v0rMMJ0csEsrSdddduda8aaaaaaaaaaaaaaaaaa",
"aaaaaaaaaaaaaaaaaNaaaaddbd.@XXJrrE.cFvvddSydVNAy@vsda7Ca8H*Hy$.dS@K7dudabiX$    Xq@u7ddHyaXX@X  X X@X@Xssdddaaaaaaaaaaaaaaaaaaaaaa",
"aaaaaaaaaaaaaaaa8NNNaaddybG0b@9XX.XXXX0dadddApupXddybb7dH6La7XdsJqXbdadauHb0MmcXbq@dSu7aHyXmrm YfMhmE9Xcddaiaaaaaaaaaaaaaaaaaaaaaa",
"aaaaaaaaaaaaaaaaaaa8aadddvrbX9ErhU.hxXlvspAptAzpbliJ4Hya7day@dybqbJXbbyvd4Sscc myJXyddyvqs@sMc  XX@ McXvsdaaaaaaaaaaaaaaaaaaaaaaaa",
"aaaaaaaaaaaaaaaaaaaaaaaa8abs.c X     X.XeF..ooo.X  @..XdsqbdXdrvcss XsqMvdqJc.Rrsv.qvv0Jyb.Mlc ccG rGbXSdaaaaaaaaaaaaaaaaaaaaaaaaa",
"aaaaaaaaaaaaaaaaaaaaaB8BH8yXbcwI=T TI IgFgAp<zzRffY Msvbybd.vqMsMccbX@J0qbEqm@sMvs JdyMrJ6 Mm Y mXJvvq@4ddaaaaaaaaaaaaaaaaaaaaaaaa",
"aaaaaaaaaaaaaaaaaaaaa8aa8HXX.OU . X.X.epup7u~N<znEm.$bqdvvXdbGrMwM3mr..@svric.r..y@*dbsv6v. XvrMXvvs0J@vddaaaaNaaaaaaaaaaaaaaaaaaa",
"aaaaaaaaaaaaaaaadaaaaaaa2yMMM nhxhXI1xRttZ7CoCAps9s@d4uvdXbq.@X @. $qs@qsFciM@Xbvs.JB7Msda@cbrE J  bb0Xiddaaaa8aaaaaaaaaaaaaaaaaaa",
"aaaaaaaaaaaaaaaaddaaaaaaDz.im.I ..  X..lptAuAo<FbvOC7aP8aaHdJ*XcrEr.ssbsvyvG..riyS$vaassH6.MbXXErcE XX@vydddaaaaaaaaaaaaaaaaaaaaaa",
"aaaaaaaaaaaaaaaaddaaaaaapi.Ge.xnkR jIznFtAp<po%gdaXaN48aadyqvJXmv0b.Gv0ssXXXM.!qb4Xs8dsbuH.@.vJ,@hcr cXMddddaaaNaaaaaaaaaaaaaaaaaa",
"aaaaaaaaaaaaaaaadBBaaaaatSt.z.Ihh<ORleztAuuNNNotvuXaaHduadybb3@rvqb@3JqSSbXGsXqJby.byabr7a@rbyrWr$rMMr$sdyddaaaaaaaaaaaaaaaaaaaaaa",
"aaaaaaaaaaaaaaaaddaaaaaayVziXx.X+....O.vuNNNN<oAdOdbayddddddyJXvsbb.J7vddySdvXbqqK.sHyvcvyXlbbc crMrcMXcsdddaaaaaaaaaaaaaaaaaaaaaa",
"aaaaaaaaaaaaaaaaaaaaaNuppGioz.zlvvXlFiiApuuCuyM0c.mrvssdvddddXddsbs.bS4dadaaaXivbs.mybnXby ccsEr @wcMr.bcddddaaaaaaaaaaaaaaaaaaaaa",
"aaaaaaaaaaaaaaaaaaadauNpt6ommp..ec@emmM0pAd0sbiG@wccmv@syddy@a7Ss.bO72~ddvyOvOydsb 9Kql bs@cbqqM@qJcrJXysdddaa8aaaaaaaaaaaaaaaaaaa",
"aaaaaaaaaaaaaaaaaaadaapND+p>ApFz@.. X .@loX&X... .@ ...@Svd@4dK7ybXaHva6d4HdXG6SssM.XX% qv  @.% @X@XXX@ydddaaaaaaaaaaaaaaaaaaaaaaa",
"aaaaaaaaaaaaaaaaaaaaaaNpVtVVptA6imMnnfnlizF0iM0crcwREr0bydXd7aadddba7CadCC2vdaGyvGrvqv=MyK Eyvvv3vsbdsXGydaaaaaaaaaaaaaaaaaaaaaaaa",
"aaaaaaaaaaaaaaaadaddpuNN>NZ>VNuDu7yyddGyD86addCvbsb0bvKabdddHd6aabydG7yC2CCadydvyasyvCRrM7vsya6SGSdbdddyddddyaaaaaaaaaaaaaaaaaaaaa",
"aaaaaaaaaaaaaaaadBaaNupuNuNNuu>NZ5P8dauN7Z88N8yyaadH*dda4ydVa6aSdyL2daC8Z68HuyvvdddH76bsa7HbHuL7dy67ddySdyaadaaaaaaaaaaaaaaaaaaaaa",
"aaaaaaaaaaaaaaaadaaapNNNNp8N8BZN8Z;SySdduCB8CC7Ha88NBC6aVH8yddd6G44Saa6B2HC6dSd4a6CdNBdb8aad28udadaHdNduaadadddaaaaaaaaaaaaaaaaaaa",
"aaaaaaaaaaaaaaaadaBaupNNtZN8BN>NNuHydG0VC>CN7dyda8Z8a6Cya8dddaaaaCaaa7H7ByuH6addBad6aBqdaua7ZB5Bad7a7duddaaadaaaaaaaaaaaaaaaaaaaaa",
"aaaaaaaaaaaaaaaaaaaaaaaaaNNNa8aNaaaaaaaaaaaaaaaaaaaaaNaaaaaaaaaaaaaaaaaaaaaaaaaaaaaaaaaaaaaaaNaadaaaaaaaaaaaaaaaaaaaaaaaaaaaaaaaaa",
"aaaaaaaaaaaaaaaaaaaaaaaaaaaaaaaaaaaaaaaaaaaaaaaaaaaaa8aaaaaaaaaaaaaaaaaaaaaaaaaaaaaaaaaaaaaaaaaaaaaaaaaaaaaaaaaaaaaaaaaaaaaaaaaaaa",
"aaaaaaaaaaaaaaaaaaaaaaaaaaaaaaaaaaaaaaaaaaaaaaaaaaaaaaaaaaaaaaaaaaaaaaaaaaaaaaaaaaaaaaaaaaaaaaaaaaaaaaaaaaaaaaaaaaaaaaaaaaaaaaaaaa",
"aaaaaaaaaaaaaaaaaaaaaaaaaaaaaaaaaaaaaaaaaaaaaaaaaaaaaaaaaaaaaaaaaaaaaaaaaaaaaaaaaaaaaaaaaaaaaaaaaaaaaaaaaaaaaaaaaaaaaaaaaaaaaaaaaa",
"aaaaaaaaaaaaaaaaaaaaaaaaaaaaaaaaaaaaaaaaaaaaaaaaaaaaaaaaaaaaaaaaaaaaaaaaaaaaaaaaaaaaaaaaaaaaaaaaaaaaaaaaaaaaaaaaaaaaaaaaaaaaaaaaaa",
"aaaaaaaaaaaaaaaaaaaaaaaaaaaaaaaaaaaaaaaaaaaaaaaaaaaaaaaaaaaaaaaaaaaaaaaaaaaaaaaaaaaaaaaaaaaaaaaaaaaaaaaaaaaaaaaaaaaaaaaaaaaaaaaaaa",
"aaaaaaaaaaaaaaaaaaaaaaaaaaaaaaaaaaaaaaaaaaaaaaaaaaaaaaaaaaaaaaaaaaaaaaaaaaaaaaaaaaaaaaaaaaaaaaaaaaaaaaaaaaaaaaaaaaaaaaaaaaaaaaaaaa",
"aaaaaaaaaaaaaaaaaaaaaaaaaaaaaaaaaaaaaaaaaaaaaaaaaaaaaaaaaaaaaaaaaaaaaaaaaaaaaaaaaaaaaaaaaaaaaaaaaaaaaaaaaaaaaaaaaaaaaaaaaaaaaaaaaa"
};
