/* XPM */
static char *jzftc[] = {
/* columns rows colors chars-per-pixel */
"80 30 79 1",
"  c #000704",
". c #000C05",
"X c #000E09",
"o c #001006",
"O c #00120C",
"+ c #00180E",
"@ c #001611",
"# c #001B14",
"$ c #002019",
"% c #8FC1B8",
"& c #94C5BD",
"* c #91CBBF",
"= c #9DC4BD",
"- c #A3C4BE",
"; c #96C7C1",
": c #95CCC3",
"> c #9AC7C0",
", c #9CCCC4",
"< c #9ECFC9",
"1 c #97D2C7",
"2 c #97D5CA",
"3 c #9DD0C6",
"4 c #9ED3CA",
"5 c #9DD9CF",
"6 c #A7C5C1",
"7 c #A3CCC4",
"8 c #A4CFC9",
"9 c #ABC6C2",
"0 c #AACCC5",
"q c #ACCEC9",
"w c #A4D1C7",
"e c #A3D4CB",
"r c #A4D9CE",
"t c #ABD4CC",
"y c #ACD9CF",
"u c #A5D7D0",
"i c #A6DCD2",
"p c #ACD6D1",
"a c #ABDBD3",
"s c #AEDFD8",
"d c #B0C4C2",
"f c #B3C9C6",
"g c #B3CDC9",
"h c #BACECC",
"j c #B3D3CD",
"k c #B0D8CF",
"l c #BAD3CF",
"z c #B4D6D1",
"x c #B3DBD4",
"c c #B3DED8",
"v c #BBD5D1",
"b c #BBDBD5",
"n c #BCDED9",
"m c #A5E3D8",
"M c #ABE1D6",
"N c #ACE3DA",
"B c #ACE8DE",
"V c #B4E1D7",
"C c #B3E3DB",
"Z c #B4E8DD",
"A c #BBE3DB",
"S c #BBE9DF",
"D c #ACEBE0",
"F c #B4E7E0",
"G c #B6EBE2",
"H c #BBE7E1",
"J c #BBECE4",
"K c #BBF0E6",
"L c #BEF2EA",
"P c #C1D6D4",
"I c #C2DAD6",
"U c #C1DED9",
"Y c #C2E3DD",
"T c #C2E7E0",
"R c #C2EAE2",
"E c #C9E5E0",
"W c #C4F2E9",
"Q c #C8F0E7",
"! c #CBF2EC",
/* pixels */
"ii55sisuuFuaN1D5m525Dm5m5mm5mmim1D<NNiD5iDuias4N5F:NauFuuaamiiimi4Niiism5si5iN4i",
"iNiFi;F5a;C<aNuNiiBG:5D5iimiisiiFu4N<N;ai4N5sua5NiDa4F:saaiiimiisN5iNmi55immi5Ns",
"NN5:FussiL5uG<N5s8paJpcapaiaapaas<F4iFNusieCi5Cu5N2G55LiiiiiiimuiG4iu5uss5uui4Gr",
"iiGesu<aa<ii<aFuwHpc8up8pppapppsu<iF<<4Ns,F&Cu;s5Da:ii,iiiaimiii1isNNNsssasDNsi4",
"s:sirtFaaHcuNC<sCeMriCiBsaaiaaiiasa<FuH<<xwCaVCrD1DmisGaiiaamim5J3sw4iy3<ua44a<G",
"4GraCettp8uaJ5<s5MrB3Mriaiiii5iiippppH8cAHrexwara24Ja4euaaaau5m5i4NMrVCCCFcusC4a",
"Naap7AtHp@xx%aFurm2MMMoMiiiiim5ipFXxpqcq8XHttryVuFa%sa@paapaaiiirW&xaawru8pac&Wr",
"aXX+X8A0xXxuHuusiMMerMyoaaiiaiiic8O@XX@XnX.@.OotsuuHpxXxpppppapiatOX.+.OOX@XXOra",
"aVwA.b  X  XOxayk-+ooO. .Oo..okkpOtco0Yq0+0.Awkyy+.X. @ XX@ X#Xcyeo-xyqVtxktVowV",
"wax.Tqzbb Uz yaxAVoYY-lUll-bY+0VxXtzx.tbOtjk+kVtn=!tz 9vh vEb=zptS.YAxqjbtjqxoVe",
"aS7 jXO  XX@...t-oYkjkU0U0Y0.kVt.Rt7oAjOgbx wkVyytYg@XX X  nfnTpVw.o..O....@..xa",
"yt.Yv0fhhXvx+ttxSZ-oo+.O @.kQtrky7Ayobqgb0Y.SwwVzb   vPlhIl @q>AtY.Abbjgjkl-AVqy",
"too. YXO  ...Y-Vr*MSwyVkxoy7wMrrVa-otO.  O o..+y.#k0+  X  .g XX8y7+j- OO O +.t0k",
"ktA9 vdhP.IYkqAtVZ*VttkjoqVkeyMarVt$qqAj0bYOqV-kyttY.-vlljY0bXCzSy.gYbhvPll9jAxx",
"k.qYOhX    ...tVqqY0bj9 lYgbxjxwtyooVj.YYk9.VwVyrVt-.+..  .btV,a-Q.zgvPfPjgYjx0q",
"k.jk fPhhXP-YkytV.o. # .   .#..CyoVokbb.gkb.xktaMtaA.jllIgbqVkVyA-.oO O  ..   #q",
"kx.kOjgPl.lbkqkywMM3yxqOzjzaayiyXCt.azxOXAt pA8yo..O..o. O ...otxbXn8b gvUqzxxzx",
"ykAojo o  ..o.kViBrrrVwoazaaiiiit8cOyxetXeAXttyAAjb-Y flPfPg0bjAqpXxn>@x8pzXxxqx",
"yy.q+-bgP.YkqkVwy*rKrwSOapaaaiiiV>RXppxxxA,#tcCw=A0Y.blvhPobAb-k7!Xpx@8pxpcpXpnx",
"VokYq..bb.jqtV-aMKrrrat.atayiiiiuC7+waCta88+p8VtSwkobb-o ...btStcXAtXXX#XXX@X@8e",
"oya-kjb.o.#o$ooZ44N3CotOaayarmrrswa.Caarw@aOViaawyo+oo$oVbko.aaVC#pcwVCwtcapOecc",
"M3VStyjyyY=etaM:BBe4Va@rayaairMmNrs@w3Misi+r3ZeiyMryy-bVqqVoV=ZwXwwCaVVaeVawecpa",
"iaeeVVxyttZtC3eZ51JaeZ<aaaaiiiMr4Z:3GG:iNi4Gr1MMMeMiyZrtkyVwMMrMrGiaiweCC<aaVuNr",
"rMrMwwyyytat3Zs5rriraaaaayaiiirMM4Zii3iss4V4MZrrirrMirVrMarrriM5i,srsiVriNuserVu",
"yiiyiaaaaaaaiiiiiriiiiaayaiiaiiriirmrrrmrrmmrrmrmrrmmirMyyiiiiiiiaiiaiiaiiaiiiii",
"iiiiiiiiaaiaiiiiiMiiiiiaiiiaiiiMiirmimmrmrrirmrmrrmrrrMriiimmim5iiiiiiiiaiiiiiai",
"iiiiiiiiaiiiiiiiiiiiiiiiaiiiiiiiiiiirMrriMMiMrrrmrmrrmrmiiiimrmraiiaiiiiiiiiaiai",
"iiMiiiiiiiiiiiiiiiiiiiiriiaiiiiimiiimrrmiiiirmmrrirrmrrriiiirrmiiiiiaiiaiiaiiiii",
"imMrMiiiiiiaiiaiiiiiMymriirMriiiiiiiriiiiiiiiiiimmrimrmmiiiimiiiiiaiiiaiaiiaiiii",
"iiiMiiiisiiiaiaiiiiirMrMiiMiiiiiiiiiiiiiiiiiiiiiMMiiiimrmmiiiiiiiiiiaiiiiiiiiiai"
};
