/* XPM */
static char *kkcx[] = {
/* columns rows colors chars-per-pixel */
"130 40 70 1",
"  c #000702",
". c #000C06",
"X c #000D09",
"o c #001007",
"O c #00130C",
"+ c #001512",
"@ c #001A13",
"# c #001C1A",
"$ c #00221C",
"% c #99BBB5",
"& c #96C4BD",
"* c #94CABF",
"= c #9BC4BD",
"- c #A4C4BF",
"; c #96CBC1",
": c #9CCDC4",
"> c #9ECFC9",
", c #97D2C6",
"< c #9BD1C6",
"1 c #9DD4CA",
"2 c #9ED9CD",
"3 c #A7C7C2",
"4 c #A3CCC5",
"5 c #A4CEC8",
"6 c #ABCBC5",
"7 c #ACCDCA",
"8 c #A2D2C7",
"9 c #A3D4CC",
"0 c #A4D9CF",
"q c #AAD1C7",
"w c #ABD4CC",
"e c #ACD9CF",
"r c #A7D6D0",
"t c #A7DCD2",
"y c #ADD6D0",
"u c #AADBD3",
"i c #ACDFD8",
"p c #B2CFCB",
"a c #B3D3CE",
"s c #B0D8CF",
"d c #BBD4CE",
"f c #B3D5D1",
"g c #B3DBD4",
"h c #B4DED8",
"j c #B9D6D3",
"k c #BADBD5",
"l c #BBDDD9",
"z c #A6E1D4",
"x c #ABE1D6",
"c c #ADE3D9",
"v c #AEE9DD",
"b c #B4E1D7",
"n c #B3E3DB",
"m c #B3E9DE",
"M c #B9E1D7",
"N c #BBE3DD",
"B c #B5E7E0",
"V c #B5EBE1",
"C c #BDE6E0",
"Z c #BAEBE3",
"A c #B7F1E5",
"S c #C2D7D2",
"D c #C1DAD5",
"F c #C0DDDB",
"G c #C1E2DD",
"H c #C7E5E3",
"J c #C4E8E1",
"K c #C8ECE8",
"L c #C2F3EB",
"P c #C4F9EF",
/* pixels */
"ttttttttttttttttttttttttttttttttttttttttt2zz22z2ttttttttttttttttttttttttz2ttt2tttttttz2z2zzzttutrttttttttttttttttttttttttttttttttt",
"ttttttttttttttttttttttttttttttttttuttttttzt2zzzztttttttttttttttttttttttttt2zzzztttttz22zz22zttututtttttttttttttttttttttttttttttttt",
"ttttttttttttttttttttttttttttttttruutttttt2tztzztttttttttttttttttttttzz2zt2tzzt2tttutt2zzzzzttutttttttttttttttttttttttttttttttttttt",
"ttttttttttttttttttttttttttttttttttuttttttttzt2zttttttttttttttttttttttttzzzttztttteuutttt2tttuuuttttttttttttttttttttttttttttttttttt",
"ttttttttttttttttttttttttttttttttttttttttttttttttttztttttttttz2tztttz2zztztt22tztueyuutttttttttyuuttttttttttttttttttttttttttttttttt",
"tttttttttttttttttttttttttttttttttttttttttttttttttz2ttttttttttttttttttttt2tttttztuuuuuttutttttttttttttttttttttttttttttttttttttttttt",
"ttttttttttttttttttttttttttttttttttttttttttt2t2t2tztttttttttttzz22z2ztzt2ttttttttuyuuetuttttttruttttttttttttttttttttttttttttttttttt",
"ttttttttttttttttttttttttttttttttttttttttttzztztzz2ttttttttttz2tzztz2z2tzttttttttuteuttuutttttttttttttttttttttttttttttttttttttttttt",
"tttttttttttttttttttttttttttttttt2v12v2zzztz2z22t2z22cti9:u0tm0tttzu;V99c2truirtrtm,z0z1zz0m,z,c2t0nn090ctttttttttttttttttttttttttt",
"ttttttttttttttttttttttttttttttttt,v2,v22,c1tzvztzvtt>t9hnZ9:1m12t2cV;mx9titr9tht,1vtccztt,1V2vctiu0:9mm0tttttttttttttttttttttttttt",
"ttttttttttttttttttttttttttttttttcz1Azttvv2mB1z1z>1i2Z>hu94xmt9ct<x90c;eitn9nh9htv,v00,0x1VZ*t2;tt:um09x0tttttttttttttttttttttttttt",
"tttttttttttttttttttttttttttttttt;Bt2zt2t9ttt1cnr2A>t:hy9Nwr9tu<zmtt<nC9urrryywywc20zmnu0c9tntcnm0At*cz9itttttttttttttttttttttttttt",
"ttttttttttttttttttttttttttttttttuiy>LXhuih5C.yyur2ZigC6l5Nh@9cuu9n0n8t.XgXXXXXXu*mz1r5hrh.huguw:901cc1uztttttttttttttttttttttttttt",
"tttttttttttttttttttttttttttttttthryh;.hghyy7K.f7B;rXX.+...wXuh9iiw9@X.nwqOgffg+wnt0irrCygf.g7glrmztnttV<tttttttttttttttttttttttttt",
"tttttttttttttttttttttttttttttttt5ffjjX7j7fGf7.7N>nB5y7Ng.l7+yrn99n:Ng.gylXl77l.l99Z:XO.O.X.X+.+.o;V;u09xtttttttttttttttttttttttttt",
"tttttttttttttttttttttttttttttttthy.XXOXXj...O.+.Xt5rC7f.f7lXh9utwuwqh.wgaXffffXwh0tuXhapafF6kl7g9m9cz0m1tttttttttttttttttttttttttt",
"ttttttttttttttttttttttttttttttttrt9NfXpafXyrt0zttcrrfFXllalOwm1zeN.o..  d.pkdD.s8xx8@-so. ...o.qn0cu<ucttttttttttttttttttttttttttt",
"tttttttttttttttttttttttttttttttt1L:7jXHljXurt0ztc,nB57+pjp7Oe<A1eqsa6 dDS   . .Mex8eogMdj dwj wn90<tVz1ttttttttttttttttttttttttttt",
"ttttttttttttttttttttttttttttttttm;ny7+a f.urttztzt>rylXp.+fo<n*meMqko ddaSDdjksqe*meoM-ddk G.ddw9Pz8u10ctttttttttttttttttttttttttt",
"tttttttttttttttttttttttttttttttt9nylpXXlfXuut0uttzn>ly+Xj7wOn9V*8gMg..Opo ....o@8vxqosGqa6j.jMqw0<<m0,Z1tttttttttttttttttttttttttt",
"tttttttttttttttttttttttttttttttttuy4#XajfXgtutu02trn7XXjjjy.9e9mx*eoqO6O6Gd.sNqeb*c8oqooO..X..+.@,Z:xxu0tttttttttttttttttttttttttt",
"ttttttttttttttttttttttttttttttttucX+3Xa7fXurtrit1BX+Of+77H6XMi10ewMoM.J6MMq.sgqe0z8goN-J6sj.wf5+9cuz01nutttttttttttttttttttttttttt",
"tttttttttttttttttttttttttttttttti>yNjXfGfXuutriticuX7y+faC6XM9c0bb.M4OMwo.@Ooo.ob0zeoqN=sag.jMyru0ucutz0tttttttttttttttttttttttttt",
"ttttttttttttttttttttttttttttttttiry5jXl7fXgutrhrtriuylXgj3C.u9iu8geeko6jdG-ok6keex8bobeMgs4$94hr0uz0tcuttttttttttttttttttttttttttt",
"tttttttttttttttttttttttttttttttttt9hf.ff.nu99N9ii98hu4@65Ng+4tieogwslo-G7l6.jNjw0meeOwrgyhhX9ruyuttttttttttttttttttttttttttttttttt",
"tttttttttttttttttttttttttttttttttut.gXlw@&nN999h9inh.hXhgN&OZr9no-GM%@sjk6j$a%Gs-zxorByhu4iXiA>uuttttttttttttttttttttttttttttttttt",
"tttttttttttttttttttttttttttttttt,c0mX4yo:nti1nn9utb9hXihwun:.OooobqsC.h..O.. @..@8bouru9noi.u;Brtttttttttttttttttttttttttttttttttt",
"ttttttttttttttttttttttttttttttttVtc:ghlwLezx0ux9e09xtV99i9nZt9ZwbseqqogqwgsGasesqxo8uh>B;iO1tiittttttttttttttttttttttttttttttttttt",
"tttttttttttttttttttttttttttttttt22zuguhi:*xzuttx1V1cu<tcmu19u1cue*nxueeuhtu4h:hgenBrunuuBc1Ar2tvtttttttttttttttttttttttttttttttttt",
"tttttttttttttttttttttttttttttttt,V0tht4umz01zctuntu00ux11cuzmr9t0A:u0ux09n1nnn9t90rrurri1ur,n2v,tttttttttttttttttttttttttttttttttt",
"tttttttttttttttttttttttttttttttttvz:itnu1ztztttu9:cV1tttxt1z1mztzz01x22zzt0,uu0uiunu>Bi29Btziz1vtttttttttttttttttttttttttttttttttt",
"ttttttttttttttttttttttttttttttttz,zx99n9tz1v0tutuV9;tzztx;mtt1z200zz2m1zx1czuztzi4uuh:ctx22t2iittttttttttttttttttttttttttttttttttt",
"tttttttttttttttttttttttttttttttttttttttttttttttttttttttttttttttt0z0z0ztttttttttttutttttttttttttttttttttttttttttttttttttttttttttttt",
"tttttttttttttttttttttttttttttttttttttttttttttttttttttttttttttttttttttttttttttttttttttttttttttttttttttttttttttttttttttttttttttttttt",
"tttttttttttttttttttttttttttttttttttttttttttttttttttttttttttttttttttttttttttttttttttttttttttttttttttttttttttttttttttttttttttttttttt",
"tttttttttttttttttttttttttttttttttttttttttttttttttttttttttttttttttttttttttttttttttttttttttttttttttttttttttttttttttttttttttttttttttt",
"tttttttttttttttttttttttttttttttttttttttttttttttttttttttttttttttttttttttttttttttttttttttttttttttttttttttttttttttttttttttttttttttttt",
"tttttttttttttttttttttttttttttttttttttttttttttttttttttttttttttttttttttttttttttttttttttttttttttttttttttttttttttttttttttttttttttttttt",
"tttttttttttttttttttttttttttttttttttttttttttttttttttttttttttttttttttttttttttttttttttttttttttttttttttttttttttttttttttttttttttttttttt",
"tttttttttttttttttttttttttttttttttttttttttttttttttttttttttttttttttttttttttttttttttttttttttttttttttttttttttttttttttttttttttttttttttt"
};
