/* XPM */
static char *koqzk_xpm[] = {
/* width height num_colors chars_per_pixel */
"   150    28       16            1",
/* colors */
"` c #941a7c",
". c #8c8ac4",
"# c #944694",
"a c #8cb6e4",
"b c #942a84",
"c c #8c9acc",
"d c #9462a4",
"e c #84d2f4",
"f c #84c2ec",
"g c #8c6eb4",
"h c #94368c",
"i c #8ca6d4",
"j c #000000",
"k c #000000",
"l c #000000",
"m c #000000",
/* pixels */
"eefeefeefeeeeeeeeeeeeeeeeeeeeeefeeeeeeeeeeeeeeeeeeeeeeeeeeeefeeeeefeeeeeeeeeeeeeeefeefeefeeeeeeeeeeeeeeeeeeefeefeefeeeeeeeeeeeeeeeeefeefeefeeeeefeeeee",
"eeeeeeeeeeeeefeeeeeeeefeeeeeeeeeeeefeeeeeefeeeeefeefeeefeefeeeefeeeeeefeefeeefeefeeeeeeeeeeefeefeeefeeefeeeeeeeeeeeeeeeeeeeeefeeeeeeeeeeeeeefeeeeefeee",
"eeeefeeeeefeeeefeefeeeeeefeefeeeefeeeeefeeeefeeeeeeeeeeeeeeeeeeeeeeefeeeeeeeeeeeeeeeeeeeeefeeeeeeeeeeeeeeeeeeeeeeeeefeefeefeeeefeeefeeeeeeeeeeeeeeeeee",
"eeeeeeeefeeeeeeeeeeefeeeeeeeeeeeeeeeefeeeeeeeeefeeeefeeeeeeeefeeeeeeeeeeeeeefeeeeeeefeefeeeeeeeeefeeefeeefeefeefeefeeeeeeeeeeeeeeeeeeeefeefeeefeefeeee",
"eefeeefeeeeefeeeeeeeeeeeeeeeeefeeefeeeeeefeeeeeeeeeeeefeefeeeeefeefeefeefeeeeeefeefeeeeeeeefeefeeeeeeeeeeeeeeeeeeeeeeefeeeeeefeeefeeefeeeeeeeeeeeeeeee",
"eeeeeeeeeeeeeeeefeefeefeeeefeeeeeeeeeeeeeeeefeeeefeeeeeeeeefeeeeeeeeeeeeeefeeeeeeeeeeeeeeeeeeeeeeefeeefeeeeeeeeeeeeeeeeeeefeeeeeeeeeeeeeeeeefeeeeeeefe",
"eeeefeefeefeeefeeeeeeeeeefeeeeeefeefeefeeeeeeefeeeefeeeeeeeeeeeeeeeeeeec.eeeeeeeeedafeefe##eeeefeeeeeeeefeefeefeefeefeeefeeeeeefeeefeefeefeeeefeefeeee",
"eeeeeeeeeeeeeeeeeeeeeeefeeeeeeeeeeeeeeeeefeeeeeeeeeiiefeefee.ciggdhhhhhh`heeefeefe`deeeeegbfeeeeeeeefeeeeeeedceeeeeeeeeeeeeeeeeeeeeeeeeeeeeeeeeeeeeeee",
"efeeeeeeeeeefeeefeefeeeeeeefeefeeeeeef#`de.`#feefa`.gbeeeeeedhciie`fe.ee#defeeeeef`feeeeedgeefeeefeeeeee.aeeh#eefeeeeefeeefeefeeeefeeeeeeeefeeeeeeefee",
"eeeefeefeeeeeeeeeeeeefeeeeeeeeeeeefefei`eefheeeeeb.eeg#eeeeedgeafe`e.bfeggeeeeeeegdeaeeefhceeeefeeeeeadhb`.ehgeeeeeefeeeeeeeeeefeeeeeefeefeeeefeefeeee",
"eeeeeeeeeefeeefeeeeeeeeeefeeeeeefeeeeei`eedaeefe.`eeea`ieeeeggea#ihecefeg#eeefefi```hcfeebd#hieeeeea``.e#heehieeeefeeeeefeeeeeeeeeeefeeeeeeeeeeeeeeeee",
"eefeeeeeeeeeeeeeefeefeeeeeeeefeeeeeeeei`eigeeeee#heeeebdfeeeggeead`hdeeegheeeeagdhfefechb`gcaeeeeeeeeeea#eeehieeeeeeeeeeeeefeefeeeeeeeeeeeeefeeeeefeee",
"eeeeefeefeeeefeeeeeeeeeefeefeeeeeefeefi`e#eefeee`deefehbeefegdeeih.icgaeghefeeefd.dgeeeeaheeeeeefeeeefageeeehaeefeeefeefeeeeeeeeeefeeefeefeeeefeeeeeee",
"eeeeeeeeeeefeeeefeeeeeeeeeeeeeeeeeeeeei`gieeeeee`geeeed`eeeeggigd`hbdgiegheeeeeehe.hieef.deigdhgeeefeeabeeefheeeeeeeeeeeeefeeeeeeeeeeeeeeeeeeeeefeeeee",
"eeefeeeeeeeeeeeeeeeeefeeeeeeefeefeeeeei``geeeefe`deeeeg`eeeeggccdgeedfeegheefeegdgbb.aigh`hddgiieeeeeee#..ieheefeeefeeeeeeeeeeefeeeeefeeeeefeeeeeeefee",
"eeeeeefeefeeeefeeeefeeeeefeeeeeeeeeefei`g`efeeee`geefeg`efeeggea`cd#f`gegheeeee`h.cgefgi`eeeeefeefeeeee#baeebeeeeeeeefeefeeeefeeeeefeeeeefeeeeefeeeeee",
"efeeeeeeeeefeeeeefeeeeefeeeefeeeefeeeei`f`geeeee`deeeehbeeeeggahdcebfah##heeeefaeeid.ieaheecceeeeeeee.bddefe`eeeefeieeeeeeefeeeeefeeeeefeeeeefeeeeeeee",
"eeeefeeeeeeeeeeeeeeeeeeeeeeeeeeeeeeeeei`e.`feefehheeeebdfeefgggfig.defeegheeeeeeadbbieeb`dd``.eeeea.`haiheeehefeeeegeeeeeeeeeeeeeeeeeeeeeeeeeeeeeefeee",
"eeeeeefeeeeefeeeeefeeeeefeeeeefeeeefeei`eeb#eeeed`efef`ceeeegieef#eef#eegheeea```d.defedcee`deefeeb`geeibeeehceeeeihfefeeeeefeeeeefeeeeefeeeeefeeeeeee",
"eefeeeeefeeeeefeeeeefeeeeefeeeeefeeeeei`eei`ieeee`.eeg`feeee#ieeeg#bhgefghefeecceeggeeeeee.heeeeefeefeegdeefgbfeee#`eeeefeeeeefeeeeefeeeeefeeeeefeeefe",
"eeeeeeeeeeeeeeeeeeeeeeeeeeeeeeeeeeeeeed`dec``.eee.`c.`aeeeeehieeeii.gggigheeeeeeeeggeeecdi#efeeeeeeeeci#geeeed`````heeeeeeeeeeeeeeeeeeeeeeeeeeeeeeeeee",
"eeeefeefeefeefeefeefeefeefeefeefeefeeficieiiciefeeaggfeefeefhhhhhdggciid`#feefeefe#deefed`deeeefeefeee#`cfeefea.gcfefeefeefeefeefeefeefeefeefeefeefeee",
"efeeeeeeeeeeeeeeeeeeeeeeeeeeeeeeeeeeeeeeeeeeeeeeeeeeeeeeeeeecaeeeeeeeeee`geeeeeeee#ceeeeed`afeeeeeeeeeadeeeeeeeeeeeeeeeeeeeeeeeeeeeeeeeeeeeeeeeeeeeeee",
"eeeeeeeeeeeeeeeeeeeeeeeeeeeeeeeeeeeeeeeeeeeeeeeeeeeeeeeeeeeeeeeeeeeeeeeedfeeeeeeeeieeeeeeegfeeeeeeeeeeeeeeeeeeeeeeeeeeeeeeeeeeeeeeeeeeeeeeeeeeeeeeeeee",
"eeefeefeefeefeefeefeefeefeefeefeefeefeefeefeefeefeefeefeefeefeefeefeefeefeefeefeefeefeefeefeefeefeefeefeefeefeefeefeefeefeefeefeefeefeefeefeefeefeefee",
"eeeeeeeeeeeeeeeeeeeeeeeeeeeeeeeeeeeeeeeeeeeeeeeeeeeeeeeeeeeeeeeeeeeeeeeeeeeeeeeeeeeeeeeeeeeeeeeeeeeeeeeeeeeeeeeeeeeeeeeeeeeeeeeeeeeeeeeeeeeeeeeeeeeeee",
"eeeeeeeeeeeeeeeeeeeeeeeeeeeeeeeeeeeeeeeeeeeeeeeeeeeeeeeeeeeeeeeeeeeeeeeeeeeeeeeeeeeeeeeeeeeeeeeeeeeeeeeeeeeeeeeeeeeeeeeeeeeeeeeeeeeeeeeeeeeeeeeeeeeeee",
"eeeeeeeeeeeeeeeeeeeeeeeeeeeeeeeeeeeeeeeeeeeeeeeeeeeeeeeeeeeeeeeeeeeeeeeeeeeeeeeeeeeeeeeeeeeeeeeeeeeeeeeeeeeeeeeeeeeeeeeeeeeeeeeeeeeeeeeeeeeeeeeeeeeeee"
};
