/* XPM */
static char *lc_xpm[] = {
/* width height num_colors chars_per_pixel */
"    25    50       16            1",
/* colors */
"` c #943e74",
". c #5c92c4",
"# c #7c6294",
"a c #3cc2f4",
"b c #845284",
"c c #549ecc",
"d c #6482b4",
"e c #8c467c",
"f c #746ea4",
"g c #34cefc",
"h c #4ca6dc",
"i c #7c5a8c",
"j c #000000",
"k c #000000",
"l c #000000",
"m c #000000",
/* pixels */
"gggggggggaggagggggaggaggg",
"gggggaggggggggaggggggggga",
"ggagggggaggaggggggggagggg",
"ggggaggggggggaggagagggggg",
"gggggggaggaggggggggggggag",
"gggaggggggggaggaggggagggg",
"aggggggagggggggggaggggggg",
"ggggagc.ggaaaggggggaggagg",
"ggggggd`hggghiagagggggggg",
"gaggagdbgggagbegggaggaggg",
"ggggggdia.ggg.`aggggggggg",
"ggghfdiei#chhcah.bhgaggga",
"ggaggadiggcdddddad.gggggg",
"ggggggdbaaacgggh`iaaggggg",
"ggggggdbffaeaagh`.gggaggg",
"gagga.ebhggidggdeagggggga",
"gggc``#iggad`gaifgggagggg",
"gggaiadbggg.`ha`agggggggg",
"ggaggadigagh`hciggaggggag",
"ggggggdbggggdgf.ggggagggg",
"ggggagdiggagagbaahhgggggg",
"ggggbb`eadddddedd``aggagg",
"aggga.`hghggagagggggagggg",
"ggggga`gggggggggagagggggg",
"gggagaagagagagaagggggaggg",
"gggggc`hgggg`.h`aggggggga",
"agggah`aggag`chighdgagggg",
"gggggc`gcfdd`#fedddaggggg",
"ggghh.`.bhch`ddih#hggggag",
"gaghdb`ddced`#fedefgagggg",
"ggggg#`agdeh`d.bhedgggggg",
"ggggg``iaded`ffededaggagg",
"ggaghe`dbdia`.hbgbdgggggg",
"ggggfi`a`dedddddde.gaggga",
"gggaeh`agadhhhhhhdggggggg",
"gggdhc`aggbiddddi`agggggg",
"gag.ah`aggbdggggh`aagaggg",
"gggggc`gggiebibie`gggggga",
"gggggh`aggbdggggh`aggaggg",
"gggagc`gggieiiiie`agggggg",
"agggghiaggihagggadggggggg",
"gggggggggggggggagggggagga",
"ggggagggagggaggggagaggggg",
"ggggggagggagggagggggggggg",
"ggaggggggggggggggggggaggg",
"ggggggggggggggggggggggggg",
"ggggggggggggggggggggggggg",
"gaggaggaggaggaggaggaggagg",
"ggggggggggggggggggggggggg",
"ggggggggggggggggggggggggg"
};
