/* XPM */
static char *ld_xpm[] = {
/* width height num_colors chars_per_pixel */
"    25    50       16            1",
/* colors */
"` c #8c5284",
". c #54a2d4",
"# c #6c7eac",
"a c #44c2f4",
"b c #7c6294",
"c c #5c8ec4",
"d c #34cefc",
"e c #845a8c",
"f c #4caadc",
"g c #6486bc",
"h c #746a9c",
"i c #3ccefc",
"j c #000000",
"k c #000000",
"l c #000000",
"m c #000000",
/* pixels */
"dddddddddadddaddddddadddd",
"dddidaddddddddaaddddddddd",
"ddidddddddddddddddadddddi",
"iddddidddddaddddddddddadd",
"ddddddddadddddddddddddddi",
"dddadddddddddaddddddddddd",
"dddddddddddddddddaddadddi",
"didddddddddddddddddddddid",
"ddddddc`fddgadddd.#dddddi",
"dddaddde`aa`bgggg``addddd",
"dddddddf`.c`hddddg`addddi",
"diddacada#c`gdddd#`dddddd",
"dddddb`fd`d``#gggb`addddi",
"ddddd.`hcha`gddddh`ddaddd",
"ddddddcfhca`#ddddg`addddi",
"dddadddf`aa`#dddd#`dddddd",
"dddddddg`dd``eebb``addddi",
"didddf.`cda`gddddh`dddddd",
"dddddc``.dd`#ddddg`addddi",
"dddaddc`dda`#dddd#`ddaddd",
"ddddddg`cdd``ebbb``addidd",
"didddd#efda`gdadd#`ddddid",
"ddddddacadd#fdddda.dddddi",
"dddddddddddddddddddddddid",
"dddaddfdddddabfdddddddddi",
"diddddebaddddh`dddaaddddd",
"ddddddf`bgggg#`hgg``fdidi",
"ddddddd#cg.h`..h`#f.adddd",
"ddddagddaeda`hdb`addddidd",
"dddddbef.bhg`hh`##`fdddid",
"dddada`bh#`.fh`cf#`fddddi",
"didddd##`.`ff#echh`dddddd",
"dddddddcbf`c.heff#`addddi",
"dddddddec.`fhhe###`ddddid",
"ddddag#`ff`a`gfehg`addddi",
"diddd.``d.`a`fdeg#`dddddd",
"iddddd#edf`a``b`eg`aadddi",
"dddadd`bd.`abadhc#`ddddid",
"ddddddeedf`addd.```addddi",
"dididddddagdddidagfdddddd",
"ddiddddiddddddddddddididi",
"ddddddddddddaddddiddddddd",
"ddddaddddaddddddddididddi",
"diddddidddddiddddidddidid",
"ddidddddddddddidddddidddi",
"ddddidddididdddidididddid",
"dddddddiddddidddddddiddid",
"dididdiddddddidididdidadd",
"ddddddiddiddddididididddi",
"didididididiidiididididid"
};
