/* XPM */
static char *ljdmzz[] = {
/* columns rows colors chars-per-pixel */
"130 40 88 1",
"  c #000704",
". c #000C05",
"X c #000D09",
"o c #001006",
"O c #00120C",
"+ c #00190E",
"@ c #001511",
"# c #001A13",
"$ c #001E1B",
"% c #002217",
"& c #002119",
"* c #8FBCB5",
"= c #A4BFBB",
"- c #AABAB9",
"; c #94C5BC",
": c #96CCBF",
"> c #9CC4BC",
", c #9CC9BE",
"< c #A6C4BF",
"1 c #95C7C0",
"2 c #96CCC3",
"3 c #9BCDC4",
"4 c #9ECFC8",
"5 c #95D3C6",
"6 c #9CD2C6",
"7 c #9ED3CA",
"8 c #9ED8CD",
"9 c #9FDBD1",
"0 c #A5C6C1",
"q c #A3CDC5",
"w c #A5CEC9",
"e c #AEC7C3",
"r c #ABCBC5",
"t c #ACCEC9",
"y c #A3D1C6",
"u c #A3D4CB",
"i c #A4DACE",
"p c #A8D0C7",
"a c #ABD4CC",
"s c #AAD9CE",
"d c #A4D7D0",
"f c #A7DCD2",
"g c #ADD7D0",
"h c #AADBD3",
"j c #ADDED8",
"k c #B3C6C4",
"l c #B2CAC6",
"z c #B3CDCA",
"x c #B3D3CD",
"c c #B0D8CF",
"v c #B9D1CE",
"b c #B4D6D1",
"n c #B3DBD4",
"m c #B5DFD8",
"M c #BAD5D1",
"N c #BBDBD5",
"B c #BBDDD9",
"V c #A5E0D5",
"C c #A6E2D8",
"Z c #ACE1D6",
"A c #ADE2D9",
"S c #ACE8DC",
"D c #B2E1D7",
"F c #B3E3DB",
"G c #B3E9DE",
"H c #B8E0D7",
"J c #BBE3DC",
"K c #BBE8DE",
"L c #B4E7E0",
"P c #B5EAE2",
"I c #BDE6E0",
"U c #BBEBE2",
"Y c #BDEEE8",
"T c #BCF4E7",
"R c #BFF1E8",
"E c #C1D5D3",
"W c #C1D9D6",
"Q c #C3DED9",
"! c #CADEDC",
"~ c #C3E3DD",
"^ c #CCE0DE",
"/ c #C1E4E0",
"( c #C3EBE3",
") c #C7EEE9",
"_ c #CAE7E5",
"` c #C4F3EB",
"' c #CCF7EE",
"] c #D1E6E3",
/* pixels */
"fffffffffffffffffffffffffffffffghfhhfffffffj9j9j9jdjdjdjfhhhhjnhf9j99999j99j99jfhfffhffffdjfjfffffVff9ffffffffhfffgffffff9fV9ViVff",
"fffffffffffffffffffffffffffffgffsZfffjfffjffjdjdffjdjdjdfhhhhhhhf9j9j9j99jj9jf9jffhfhffffjjdfffff99ffVffffffffhfffhffffffVfVVVViff",
"ffffffffffffffffffffffffffffffffZfffffff9jj99jjdj9d9jjj9ffZihhhdj99jj9fjjj99d9fjZfZiffff9jfjfffffffffffffffffffffffffffff9ViViiVff",
"fffffffffffffffffffffffffffffffffffVffjfj9jfjffj9jjj9d9jhVfiffdj9j9jfjdfj9jjjjffVViVfjjfj9j9fVfff9ffffffffffffffffffffffVfiViViiff",
"ffffffffffffffffffffffffiVVfffffVffffffffffffffffffffff9ViiVViiiffhdffffffffdfffiViViVii99fV9VVfffffffffVf9ff9fffff9Vfffffffifhfff",
"ffffffffffffffffffffffffV9ffffffiVffffffffffffffffff9fffiVVVVVViffhhhffdffffffhfViViVVVV9fV9Vf9fffffffffffVfffffffffVfffffffffffff",
"ffffffffffffffffffffffffiV9VV9fffiiVfffffffffffhfffff9f9ViiVVVVVfffhhhhfffffffffVVViiVVVfffV99VVffffffffff9ff9fff9f9fffffffhfhhfff",
"ffffffffffffffffffffffffffffffffViViffffffdffdffffffffffiVViViViffffhffffff9ff9fiViViViif9fVfVffffffffffffffffffffffffffffffhhhhff",
"ffffffffffffffff7AA7hFfjC8fuidG6ZiiiZ6sZsiDusZssf8fS6iDiZ:fG:iTuiGZ:Vi:Z9A8Ai6S8iG:ifSyiViiiSViAfdAjfufFjfujd4mfjA7hfFuffffgffgfff",
"ffffffffffffffffjj7G7ufuiiUijf4KySiiiGssuK,DDuns9PufVZ:ZiZZ:fS:i8iiiZiiSA76ViC6ZisSZsiZSiuZD6uyhjuF3DAf3uuLuLj4j7iGuh4jAffffffffff",
"ffffffffffffffffiuGuPhAhA6ufuuK4ZsssZy:ZsyhDspDsiuAisisDHfyKsDssZiiZ:ZS;7PAfuK6fsssyaDyicyssiKFafuDjgju`jgpudmwgK6jD7iK3fffgffffff",
"fffffffffffffffffDiuu6uoKhfgDj3@syDZssHZoKn>Hp.nsZusfHK,soH,cacoZiZ:TyZHuuj3DsZsZc<',s~oa(opHyysju@4jgF*g#ggg@jgumF3UuiDffffffffff",
"ffffffffffffffffff2KjRuXwggIgmaXJ,saaa(,oupJc~roFsccyipHDHo+aNxooZsDysoooo.+oooo+o.ocppo+<oHa~cJDfoKujjBaXXmtXgBgwpmujjufffiffffff",
"ffffffffffffffffAhjuuufOOXgXqX@.oo%ZHa,JoaJ...Oo.o+sZ~ccac.HNM.NKiH,y~sHxNx.MrvN<r~rN(rOpcoHacN.uKXKfqmhn@tb$tMtmuFFauFufffVff9fff",
"ffffffffffffffff7ZfAuhFXgwBt#ab.KcypaooO.+.HXxxac+qHya,oooo.. . o+cc~rxz~<XEE^ElWcxNx<N.O.o.O NOju$aanqnXaMXX@@XXXXXnpjiffifV99V9f",
"ffffffffffffffffA6hDumXbgJtb MXMonaZssH,oMrWxOlMoccsHaJ.xxMMovEzMoccpxH. X O  . .o.cMcoxcxozv~x.ngXamjgb.BtXB eQbBannFuhffViVfVVff",
"ffffffffffffffffCfDysHooo.xvMH.x vcssS6Zox .  O ...oanx...X.@X Xooct~pconcXMvlXvcsocxxxxMv.vzQ! g4@g4FgXXbXgB MtbXnanfdfffViffffff",
"ffffffffffffffffuf:KaoMolNNo.<%.@ Os6iVso~o-EQ<JxzNxNq~.vNNk zzvvoccaaHona.bNxXvcsoJHcooX X@X kXmnXBjhXrX/gIM X@XX.jfA3AfV9Vffffff",
"ffffffffffffffffDiiZp<~.xNeN.~>H vtsGGis.okE!.NaNcHxa~<OrxMQ@k]e~.bcsKsoanXXXo NncoppHxbMt ll]EXwn bjXgBX0mwz@0mtNbufuSfVVfifhhhff",
"ffffffffffffffffyDZ,J+oo.Xrzoxcz Qcps6:oov^lv.MBxrxcrxJ.O. X X  .oHcsacogb.Bvv.vxyoJ)>~o@  @X E Id@tdLmgXtjb_ 0n/1wnD7Zff9fVffhiff",
"ffffffffffffffffifDZyDp+xxHMO...X #Xu+#ao. XXO..O.o.c~0.aNxe@veM~oHpHaJohb /Mv zcJOqpHcobt#vvOM wnXBj8ntXgdB<X/mw)@aGdZ8iVffffhfff",
"ffffffffffffffffif,ZDcaoHNra.nHHOzxqiu7gX^WW.zBrOapnHaaJtmbN.tQbrypHZcaotmO  X Bxn.yc~qobtX=z lOFgXwj4nmXBL4/O XXXOO3ffAVffffhffff",
"ffffffffffffffffZZD,,(s+pnOnOasa.NcKuKDjoN< OtNB.)apcXO.+.XXX. .o%o+iiKomt BBvXvcy.Hnq~.t/ MQXlXdwXB7Lm0Xb4gtOq(mnhgjf8f9Vffffffff",
"fffffffffffffffff:ZZKyson.xnXpmcXxxyDypnXaNvMX..J>n(yHssannc.abbaD,pZcaobgXbMlXvncoHpaJ.BtXxM Btgj wL44/@4jmtXB3ggdjj4GiVVffffffff",
"ffffffffffffffffZuLuuhLXOngOq@mnbtmmdnjhXBb0BB bonnmqgagmwmwXhgnnuKuujmXXXXXX X Xo#gmwh@nBXOXXbwL1XgdAugXK7jb.gfhhhhhfffiiViffhfff",
"ffffffffffffffffAud7Pm1#yDXmKqXX@@XXnw@gXgmb@XndsoXuFfjjudUmXhB3DuiuUD;#fggbbgbbp(Xunmwngw#nXtJLXUXqL8uFX3GiaXujffsffiVViViVfffhff",
"ffffffffffffffff7AD7jdA2sK33mgsgwngIwFwXhhXXdbFnmqOKujuhdL11@wjmuAF6jdA2jggnngnhmpFjmLdhmjXjmh;hdOaKuSug#K5PqXUdffffffffifffffffff",
"ffffffffffffffffiAjujjfYA3UgjfjhFhjjjjwhgdujjwgdshK6uhG6djPjumDguAjijjfYgfffhhdhhiFh*mdjjuFw4jFjjAgqC8hnqiViUghuffffffffViffffffff",
"ffffffffffffffffAddfjj24jdjd4jd474jj4dLh4PjdfjAjwL1jLj8Ajj29Fj7jAifjjC25fdfffffjjD1jY7j8df4Aj799f1IF79fDDiffuhi8fffVViffffffffffff",
"ffffffffffffffffjfAA79jPfdjjDuhPCPjdgmFdA3j8j78djjjfdA8VC4SfL2P7ffAC7djPfhjfjfC9duAS1Ad9djj9C9jCAAtDfSjqmuS8maCVffViiVffffffffffff",
"fffffffffffffffffdfjjfj7jfj3jjAu984jjujj5PC9S7Pdj4AddS7ff9fP1fA9fdfjAfj8f9f99999CA6fLf9SfC979f8CfZauf5fDh6S8DgZiVViVViffffffffViff",
"fffffffffffffffffjfdS7jfj8ALfddjj9Ldhj4AS89C7Adfjjdjf8A9f9f9jf9jfjfdS7jfjfff9j9jfACf9fj8f9fSS2P87iDjfSfuiZVCuh8VViViiVffffffffiVff",
"ffffffffffffffffffffffffffffffffffffffffffffffffffffffffffffffffffffffffffffffV9ffffffffffV9fVffffffffffffffffff9fffffffffffffffff",
"ffffffffffffffffffffffffffffffffffffffffffffffffffffffffffffffffffffffffffffffffffffffffffffffffffffffffffffffffffffffffffffffffff",
"ffffffffffffffffffffffffffffffffffffffffffffffffffffffffffffffffffffffffffffffffffffffffffffffffffffffffffffffffffffffffffffffffff",
"ffffffffffffffffffffffffffffffffffffffffffffffffffffffffffffffffffffffffffffffffffffffffffffffffffffffffffffffffffffffffffffffffff",
"ffffffffffffffffffffffffffffffffffffffffffffffffffffffffffffffffffffffffffffffffffffffffffffffffffffffffffffffffffffffffffffffffff",
"ffffffffffffffffffffffffffffffffffffffffffffffffffffffffffffffffffffffffffffffffffffffffffffffffffffffffffffffffffffffffffffffffff",
"ffffffffffffffffffffffffffffffffffffffffffffffffffffffffffffffffffffffffffffffffffffffffffffffffffffffffffffffffffffffffffffffffff",
"ffffffffffffffffffffffffffffffffffffffffffffffffffffffffffffffffffffffffffffffffffffffffffffffffffffffffffffffffffffffffffffffffff"
};
