/* XPM */
static char *ljnczz[] = {
/* columns rows colors chars-per-pixel */
"130 40 84 1",
"  c #000705",
". c #000B06",
"X c #000D0A",
"o c #001005",
"O c #00120B",
"+ c #00190F",
"@ c #001511",
"# c #001A14",
"$ c #001E18",
"% c #01211A",
"& c #8BBFB5",
"* c #A4BFBA",
"= c #8CCCBE",
"- c #93C2BB",
"; c #94CABE",
": c #9CC4BE",
"> c #9DC9BF",
", c #A3C4BE",
"< c #8ECDC2",
"1 c #96CDC3",
"2 c #9AC7C2",
"3 c #9CCDC4",
"4 c #97D4C6",
"5 c #97D4C9",
"6 c #9BD1C6",
"7 c #9ED3CA",
"8 c #9DDACD",
"9 c #9FDCD1",
"0 c #A4C6C2",
"q c #A3CCC5",
"w c #A4CEC9",
"e c #ACC6C3",
"r c #ABCCC6",
"t c #ACCDC9",
"y c #A3D1C7",
"u c #A3D4CC",
"i c #A3D9CE",
"p c #ABD4CD",
"a c #ABD9CE",
"s c #A5D7D1",
"d c #A7DCD2",
"f c #ACD7D0",
"g c #AADBD3",
"h c #ADDFD8",
"j c #B2C8C5",
"k c #B4CECB",
"l c #BACDCB",
"z c #BACFD0",
"x c #B3D3CD",
"c c #B9D2CF",
"v c #B4D5D1",
"b c #B2DBD4",
"n c #B4DFD8",
"m c #BBD5D2",
"M c #BBDBD5",
"N c #BBDDD9",
"B c #A5E1D4",
"V c #A6E3D8",
"C c #ABE1D6",
"Z c #ADE3DA",
"A c #ADEADD",
"S c #B5E1D7",
"D c #B3E4DB",
"F c #B3E9DE",
"G c #BBE3DC",
"H c #BCEADF",
"J c #AFEDE2",
"K c #B6E7E1",
"L c #B5EBE1",
"P c #BCE7E1",
"I c #BBEBE2",
"U c #B8F0E5",
"Y c #C2D5D3",
"T c #C2DAD6",
"R c #C2DDDA",
"E c #C3E2DD",
"W c #C0E8DF",
"Q c #C9E4DF",
"! c #C5E5E1",
"~ c #C2EAE3",
"^ c #CCE9E4",
"/ c #CEEDE8",
"( c #C2F3EB",
") c #C9F5ED",
/* pixels */
"ddddddddddddddddddddddddddddddddggggggggggggsVhsd999VV99ddd9ddddgdddd99V9VsVsVsVvggggdVddVgghsgdddddddV9ddddddfddddddddddddddddddd",
"ddddddddddddddddddddddddddddddddgdggggggggggVdssdd9Vd9VdddddddddgfdddsV9Vs9sVsggbbggdd9dVshghhssdd9d9ddddddddddddddddddddddddddddd",
"ddddddddddddddddddddddddddddddddddaCggdgshsVdddddd9dd9ddddddddddgggghsddssVhshggbfgBddddsgsgsdhddddddddddddddddddddddddddddddddddd",
"dddddddddddddddddddddddddddddddddBiCgdddVshsddddddhdddddddddddddggbggdddsVsVVsghggdBdd9dVghghssddddddddddddddddddddddddddddddddddd",
"ddddddddddddddddddddddddddddddddiBCiaiaassd9ddVdddgdddddddddddddfbbfgggdddddssggiCiBBiiBssdddddddddddddddddd9d9ddddddddddddddddddd",
"ddddddddddddddddddddddddddddddddiiiBBBBBssVd9dddgdggddggddddddddgfffgggddddhgggsiBiiiBBid9Vd9dddddddddddddddddBddddddddddddddddddd",
"dddddddddddddddddddddddddddddssdBBBiBBBid9d9VdddddddddddddddddBdgfggggggddddddssBiBBBiBBdd9dddddddddddddddddB9dddddddddddddddddddd",
"dddddddddddddddddddddddddddfddddiBiBBiBBddddddd9sdddddddddddB99dggggsgsdddddddddBBiiaCaB99V9dddddddddddhdddddBdsdddddddddddddddddd",
"dddddddddddddddd7dddD7FyDudgDhbiBiBB8ABiiCiaFiyCdJ4Bid7dZii8V9J9AaaiCyCis9BBiBii88BBi>SiA;BB;HyassshsDsfsDhuL8sAdiDAiuiCdddddddddd",
"ddddddddddddddddFZ37iduh2Gsb2bphCB>BiiiFaiDy>CCD55VdVAVdu7U1V9<A88ABACiCsZ66CiiZB4BH>SSy;U4CAyabZdhsggbnfygZdg7uCdu7uFFidddddddddd",
"dddddddddddddddd71FShSuhDgbufbwD>CAaSiC>S>abSayyA5A8s4unZD6V7LV18CB;CyiaZhhaCSa68Ui>W>aWiCi6aHyS7hdhpG&tnpnqwgIdd1dKiiCidddddddddd",
"ddddddddddddddddDD7h.fhqwbpuObbfSC>SaoSSyWy+ySHbZ99VKDgsu.adK1dKCB>DCiHys0GpaayDB;iS+aMoWiCCayx.dshgub$bNtOGMg2su(i;ZCuddddddddddd",
"ddddddddddddddddudbd@dbnGfPf@ftnbaaaaoyyHaayO,xy1AduuynfN.GwpbhsaBC>o..o.O..+o.oBAaS.oQ.>aaiaGc.DduFb0#XtNXvvpPsuiuAZudBdddddddddd",
"dddddddddddddddduSswX..bXtXXXX@.ypbG,oWSoooO.oO+DddhffNvm.m!vbvfaaSS+MxMxmjcklcOa8>a#jc.GSiaoxc.sddudnX!NXN!txvbDCuAddK7dddddddddd",
"ddddddddddddddddfabPXnPpN@qM@0vNbWoo%o..Soxxcc.xyuPqXXXXX  X  X bSa>.kccYcTTlYY.yiWm...+oooSOxl.D7iFy@bt@   @XXXO1P;du7hdddddddddd",
"ddddddddddddddddfnp.tvNtv.R.t#kxaayW,.Mcxx.Tx.ErDsff.Nkkk@kkRzm bS>S....  O O .oDiy.YYl.baSa.xT.pCdpb.Nm N RttNxuDiCViK7dddddddddd",
"dddddddddddddddsgyv..o.cmml.k.EraaaaMoE...o..O..XnfNXvNrN bxkMz a>ay+rExkmR0NvwnhqSrMYj.cxmr#me.xSiaO.xOrM.Tbr.xuI7iDuVidddddddddd",
"ddddddddddddddddbWox.Mck..Y...o.baHar.c.m,jQrMWpGwgtX0vNtXXNvk!XSSCborx.XXX@@XXwdpb..O . .O,.rc.yaHox.rSbv...oO.DuiDiiDudddddddddd",
"dddddddddddddddduqaxOxlTl+l,k+,WyS>yW..EkM#rrv,SshfPXN!tXMPXN0kXaA>iObGqvwvfsuKnCaaMmck kEk!oxE.Syoar%,abxO,MxkxS1ddudVddddddddddd",
"ddddddddddddddddCSoO.+.cT.kQc.EraabbO.,xlm.rmWvvugufXMrfXffwX~m.aiASOqxGNNN0Nbppu3pM..... .x.xx+kSaaS.Gybx.cSyxNyDFVddiddddddddddd",
"ddddddddddddddddCySy.rmEj.O.O...#po.pXXXo+....o.XDpbXbt@buGnbXNXfbbp.XX  XXX@  @+DbqOcT.xMXxXmk Sxyap.paax.mq~N.hi7Dd7Fddddddddddd",
"ddddddddddddddddiSayOGm,MOxxR.xxp>bvb.ttc.x/x.vbDugbXb.tuPgqn#vXfbtN#tEeXzzzmkvMy3gS.xT.rR.r@mzXrbaCM+rSay+.#o.OOiF&hCdddddddddddd",
"ddddddddddddddddF;aDopG.k.Nmj.Nxabxnv.b!..E0x.Mp3DpbXXMPbg3fyb,@uZudXnqNXfbwvXPwD>Hp.mjON0XR.eT Saiiv.SubS.xyy)0fddFdiD7dddddddddd",
"ddddddddddddddddiCCaOyovb.x,E+xbpbpbb.NtxM..OxxSdDufXPfwb3Fsbbn.h7IuOsnXbv0~MwObiCypOxM.xM.xxNm aSCiaOaaaqoGuDqbiCd7Vg7Ddddddddddd",
"ddddddddddddddddd7ZsXXfM.tXvvNMtbffGwXMbvMMXvXqnDuZwXffhfudddwGXbfMXtmXX  @ X  @DiCbXMv XXXf0Nz@yaCdf.dhgsXvdhbwdddddddddddddddddd",
"ddddddddddddddddiIuZXuhXpGp.X.X@XfbXMXtvtXXbbf#XuuIDXfDqdZCuD$2Xtwv@tEvvNvzkm! ti8yDfNpXvXbfGXtXHa85~.CddhX~78fPdddddddddddddddddd",
"ddddddddddddddddi8duKdsKfGsnbybwPbusXfgX@3PpGgqXdD;2+wbbduCi3fOGhA+usddgussnpdFDVBFf2wPXgnggtf@N-SiBf.dCZgXsdih&dddddddddddddddddd",
"ddddddddddddddddFudu3FdsD&DshShhsssDssgnuGDusggKuZIdynDsuFi7Fdfpd7dZddddhhK7diddiC1i(n2Dshg7Ksfb)yBiIydddhwKiB7)dddddddddddddddddd",
"ddddddddddddddddu7KZK5dh6JsK2hhssKshsKdsD2ghhsssdd1pDbwhF1BVuddfpuGudsbbdsq)ddddd7Ls3ns7ddsV7Juswd9VwPd99sKuV9dudddddddddddddddddd",
"ddddddddddddddddZh2ddsdhhh7sKddsU-Zh7hs8sZhsh77ZA6DfGqG76L9A6ZDpunbnuP3dsgd1uduVdidZsZZsh8VVdsshg7J9yP1ZV1K79J7gdddddddddddddddddd",
"dddddddddddddddd6KZuhsdd1Jh9ssZd-Ush6hZhds6Z8JL6dsdI:hhuZ87BI33gFduuZdiVdd7AZV4VdL1Zus7K9V9<J8sssK9dh2Z99h1hd9Dddddddddddddddddddd",
"dddddddddddddddddshshssdh87Z8Z8dK1K7ZK1Vh8J8ds8ViiduhfddB4AB1FDs3Dddd1A8V8B888A8d9hdhhdd9V9V5J8Zsd99hZss99hh99dsdddddddddddddddddd",
"dddddddddddddddddddddddddddddddddddddddddddddddddddddsdddddddddddddddB9ddB9ddB9ddddddddd9ddd9dddddsddddddddddddddddddddddddddddddd",
"dddddddddddddddddddddddddddddddddddddddddddddddddddddddddddddddddddddddddddddddddddddddddddddddddddddddddddddddddddddddddddddddddd",
"dddddddddddddddddddddddddddddddddddddddddddddddddddddddddddddddddddddddddddddddddddddddddddddddddddddddddddddddddddddddddddddddddd",
"dddddddddddddddddddddddddddddddddddddddddddddddddddddddddddddddddddddddddddddddddddddddddddddddddddddddddddddddddddddddddddddddddd",
"dddddddddddddddddddddddddddddddddddddddddddddddddddddddddddddddddddddddddddddddddddddddddddddddddddddddddddddddddddddddddddddddddd",
"dddddddddddddddddddddddddddddddddddddddddddddddddddddddddddddddddddddddddddddddddddddddddddddddddddddddddddddddddddddddddddddddddd",
"dddddddddddddddddddddddddddddddddddddddddddddddddddddddddddddddddddddddddddddddddddddddddddddddddddddddddddddddddddddddddddddddddd",
"dddddddddddddddddddddddddddddddddddddddddddddddddddddddddddddddddddddddddddddddddddddddddddddddddddddddddddddddddddddddddddddddddd"
};
