/* XPM */
static char *ljnc[] = {
/* columns rows colors chars-per-pixel */
"130 30 80 1",
"  c #000704",
". c #000C05",
"X c #000E09",
"o c #001007",
"O c #00130C",
"+ c #00190F",
"@ c #001611",
"# c #001B14",
"$ c #001C1A",
"% c #02221C",
"& c #91B8B3",
"* c #9ABFB7",
"= c #A2BCB9",
"- c #8DC5BC",
"; c #93C5BC",
": c #96C8BF",
"> c #9AC5BD",
", c #99C8BE",
"< c #A4C2BD",
"1 c #95CBC2",
"2 c #9AC7C0",
"3 c #9CCCC4",
"4 c #97D0C7",
"5 c #9CD1C6",
"6 c #9ED3CA",
"7 c #9FD9CE",
"8 c #A3CCC5",
"9 c #A3CFC8",
"0 c #AAC6C3",
"q c #AACCC6",
"w c #ACCEC9",
"e c #A2D0C6",
"r c #A3D4CB",
"t c #A3D9CE",
"y c #A8D0C7",
"u c #ABD4CD",
"i c #ACD9CE",
"p c #A5D7D0",
"a c #A6DCD2",
"s c #ADD6D1",
"d c #A9DBD3",
"f c #ACDFD8",
"g c #B3CDCA",
"h c #B8CCCA",
"j c #B3D4CE",
"k c #B0D8CF",
"l c #B9D2CE",
"z c #B3D6D1",
"x c #B3DCD4",
"c c #B5DED8",
"v c #BAD5D2",
"b c #BADBD5",
"n c #BCDEDA",
"m c #A7E1D5",
"M c #ABE1D6",
"N c #ADE3D9",
"B c #AFE8DF",
"V c #B2E1D7",
"C c #B3E3DB",
"Z c #B3E8DE",
"A c #BAE3DC",
"S c #B8EADF",
"D c #B5EAE1",
"F c #BEE6E1",
"G c #BBEBE2",
"H c #BCF1E7",
"J c #BCF3E8",
"K c #C2D6D4",
"L c #C1DBD7",
"P c #C2DDD9",
"I c #C9DFDC",
"U c #C2E3DE",
"Y c #C0E7E2",
"T c #C4E9E1",
"R c #C8E5E1",
"E c #CCECE5",
"W c #CFECE8",
"Q c #C3F8EE",
"! c #CBF4EE",
"~ c #C3F8F0",
/* pixels */
"aadaaadaadaaadaaamtdssddim77N7maaadadaaaaf7Bppfdm7B67B4aa7Bm7Nf7ddddddddff6Bppfpp9Dpapfdaff7damam7ftpa6Naamamt7mtaaaaaddaadaaadatd",
"adaadadaadadaaaamtddxdddmtmmmmm6aadaamam7fafddpd7B1B7Bf7Dd77f4fdddddfaad6ffffapfDd3sppdda777ppam1BD7Daataaaatmmaaaaadaaaadaadadamd",
"aaddadaaaadaddaamaidisdimtNm5tMZamamamm7Bf74mBpfB4~7fa7f1aDa7BpBddddaaaaBfp4fBpfrfpfffD6affffafdH16a3Nffaamtmtmaaaaadaaaaaddadaatd",
"daaaaaaddaaaaaamtaddddddMttmmM:3aaaafm7m41ffaapMp66pafB7NM3fd6p6aadaaf7m41fff77fddC3d6fdaaaapaaa1Baf66Mtaatmtmaaddaaaadddaaaaaadmd",
"aaadddaaaaddaaaamtddddddtmm7NfiHaaaaaaaaJadN7dM7pcDff6ffadD1HNtNaaa7fmamJadf7ff7f5ddSdeSdpfpsadaG5ffMtf6aamtmtmtaadaadaaaaadddaatd",
"ddaaaaaddaaaaaaatmtddidi6NN6MaV3daaaaaaa1Bpf6BN6ns9pf49DAttC5mttaaaaa7aa1Bpf4Bf6dZtsiC,rdfssdfdd8Z:NrCtaamtmtmtmadaaaadaddaaaaadmd",
"aadaaaaddaaaadaamaaddiddN776DC>#idddddds$1fG6t7C9s$uccn9.uCddtZtaaaaaaaa$-fG6p7B5CrtG3VAsssdsssdOG8Ndtftmtmtmaadaaddddaaaadaaaadtd",
"adaaddaaaaddaaaatmaaddddM7ZtrsA.xdsssxsxXCsppD3fcs snwuciOrdZrdiafddddddOCd9pD6fddddi.OoXXXXXXXX..CiraMatmtmaaaadaaaaaadadaaddaamd",
"aadadaaaddaaaadmaaaddddatmmMtczXkkk.bkjvobykA,ixFw.zb.XXX.O.OO3dkiukyiyA.ViziuxziMmri+<kzzzzszzzOixcdpataaamamtadaaaaaadadaaddaatd",
"dadaaadaaaaddaaaaaaddddamtat>A...+AL......%ooAxo.$.  b.gjzz.iixrexAyAbyj.ujbwzOxi5ViioVAjjjzjijiXA2r3fNMaam7aaaaaaddddaaaadaaaadmd",
"adaaadadaaaddaaaaaaddddatN7aFc.vA<j<XlLXlU<jb<SkAwXvjvv.vbA.uiuxxkV.oooo.X..O...xiiiyoo..........wGcc7aamma7madaadaaaadaddaaaaadtd",
"aaadadaaddaaaaaaaaaaddaat4mZ8.$..ovUU0 Ll.ybki,i0z.wR=P gv.jqAAukUyokyU<Xjbv0W zitMMi+kUjvljjvvjF8xs3D5M77mmaaidaadaadaaaaadddaamd",
"daadaadaaadaadaaa7aaaaaaNpfp8UwXvk<jjv.ghobyVVVizb.v..O X..%...8yVyoA<kA.kbgbg zMi,xu E0 .    ..Xbwnppa7m7maaamaddaaaadddaaaaaadtd",
"daadadaaadaaaaaaamaaaaaa4pfpFjh jAo.oh+...ooi,iicz..PLhv.Kl=UgzUAeA.kkkob.jv<UOu,VMVuXqLlllljvjjwwn9pND7m77maaidaaaddaaaaaddadaamd",
"aaaaaaddaaddddaaamaaaaaaN7Dswnv jixioj<AA.ikimN,i..vlhhK hIK0E<jiVeoAkk.A>.Eyb kZrtyV.R0lhhllvgvnqcFf1f7m7m7mttdaaaddaaaadaadadatd",
"addadaaadaaaaaadamaaaaaaamprcO XOokx.bvwwoVeVN7+Ow.b.X.    @..#ikkkoer+juVc.OjokaeZrk.... .. .. X@X8sG3a7mmatmddddaaaaddaadaaadamd",
"addadaaadaaaaaaaaadaam77mamiiAj.kVkkojo..o.o+iVius@bwUg vvj.quxiykc.i.dxiS8x.b.cdttZtOdexscXsqY8V8iZrMftaaaaadaiaaadadaaadaaddaatd",
"aaaaaaddaaddddadaddam7mm7aNVuujOi,Vk+bjbvOyy<xiisp.pvqXn0bz.nx9Fbxi.AC3rdtdic8XudfrrtodGdrxXxipxtdd3tZrMdddaddadadaaadadaadaaaadmd",
"daadadaaadaaaadddidtamammm5txFz.SoVx.jU<v.UkxxMifFXncFw.Xv.s8Fr3kwc.3fffd6is8A@ssfCdtOr8rnXu8F.sV6fCdtrCdidddadadadaaadaddaaaaadtd",
"daadaadaaadaadaadddda7m75Bmi9cxOoiiiojjjyoyk,Mii3sXuswzzz XXxtGsxc8%s6CtdfNdci.9rCdsOixAFXzscwn.9Crftfdtaaaaiddaaadadaaaaaadddaamd",
"aaadadaaddaaaadddddaamaaaf6ddd&OViroV.sjUoxrViit#tOxrFz.Xsss.oti,FfoCt6N6Drr+eoGxdrsXsi9..@X.#.OOfattMrMddiadiadadaadaaddaaaaaadtd",
"adaaadadaaaddaaadtimmtaaNatd9s!xtroTi9.X.o++oiZtfXdCXXXAs9csV+fdfi3+Cdm5m4Ntr#xec8VOxxcs@Fuwb8jc.rfCtddddadaadadaadadaadaaddadaamd",
"dadaaadaaaaddaaadtmttmmaa6aCCd99Vat5tVCrkA,iSetttQ;rGss9xf3ftMttrZMrttNNmatZZd3dtG2Frd8cssscxzkifZ6dtCZ5tdadadaiddaaaaaaadaadadatd",
"aadadaaaddaaaaddddddmttmaaN6rcrF5ZtMidsdkrSitttmt7Ctfrdf9Cpfa6S6Mr6Matm7tmMt5dStcrC3csCtfsc9dnsds5ZtVrtMddadddadaaadaddaaadaaadamd",
"adaaddaaadaaadaaaiaatmtmaaadddddaaaapaaaddafaaaaaaaaaaadddadaaaadddamtmmt7matdddaaaaaaaaaaadaadddddddadddadadddaaddadaaadaadaaadtd",
"aadaaaadadadaadaadddmtmaaadaddidaaaaaaadddaaaaaaaaaaaadaiddaaamtddadtmmtmaaamddtaaaaamaaaaaaataaddtdiadadaiadadaaaaaaadddaadadaamd",
"ddaaaaadaadaddaaaaaatadaaaaaadaaaaaaadaaaaaaaaaaaaaaaaaadaaadmtmaaadmtaaaaaatdtmaaaam7aatmaatmaaaddddddadddadiaddaadadaaaaaadadatd",
"aaadddaadaaaaaaddadaadaaaaaaaaaaammaaaaddaaaaaaaaaaaddaaaaddmtmtddaatmaaam7amdddamaam7ammtmamtmmaddadtddaaidadaddaadaadaaddaaadamd",
"daaaaaadaadddaaaaaadaaddaatmaaaaaadaddaaaaaaaaaddaaaaaaddaaaaaadaaaadadaaaammttdaaaaaaaatmaamtmtadddiddaaaddddidaaadadaaaddaaadatd",
"aaddadaadaaaaaddadaaaaaaatmtammaddafddafafaafaaaaaddadaaaadaddaaaddadaaaaaaatmmtaaaaaaaaatamtmtmddtaaaddiddaaaadadaaadadaaaadadada"
};
