/* XPM */
static char *ljzf_xpm[] = {
/* width height num_colors chars_per_pixel */
"   120    28       16            1",
/* colors */
"` c #040204",
". c #4c8294",
"# c #74cafc",
"a c #243a44",
"b c #fcfefc",
"c c #64aecc",
"d c #84dee4",
"e c #3c6674",
"f c #14262c",
"g c #5496b4",
"h c #2c4e5c",
"i c #74bedc",
"j c #84dafc",
"k c #8ceafc",
"l c #000000",
"m c #000000",
/* pixels */
"##jkkkkkjj####jjkkkkkkkkjj#######jjjjkkkkkkkkkkkkkkkkkkkkkkkkkkkjj#j#######jjkkk####jkkkkk###kkkk###jkkk###kkk###kkkj#jk",
"##jkkkkkjj###jjkkkkkkkkkjjj######j#jj#jjkkkkkkkkkkkkkkkkkkkkkjjjjj#######jjkkkkjj##jjkkkkj##jkkkkj##kkkkj##kkkj##kkk##kk",
"##jkkkkkj####jjjkkkkkkkkjj#j#i####j#jjjjjkjkkkkkkkkkkkkjkjjjjj#i#######jjkkkkkkj####kkkkkj##jkkkk##jjkkk##jkkkj#jkkk##kk",
"##jkkkkjj####jjkkkkkkkkkjjj#####i###jjjjjjjjkjjkkkk#jj#jj#j#########jjjkkkkkkkkj###jkkkkk###jkkkk##jkkkj##jkkk##jkkk##kk",
"##jkkkkj#i##jjkkkkkkkkkjkjj########j##jjjjj#jj#jkkjjjj#ji##i######jkjkkkkkkkkkkj###jkkkkkj##jkkkk##jkkkk##jkkk##jkkj##kk",
"##jkkkk#####jjkkkkkkkkkkj#j########i##j#j#jjjjjkkkjj###########jjjiikkkkkkkkkkjj###kkkkkjc##kkkkj##jkkkj##kkkj##kkkj#jkk",
"##jkkkkj###jjkjkkkkkkkkjg.jj###chh######jijch.i#jgfac########jjjkkeffkkkkkkkkkk###cegkkkiff#kkkkj##jkkkj##kkkk##kkkk#jkk",
"##jkkkk####jjkkkkkkkkkjkhf.j###cffcj##i#####ff##i#.ff#####jjjjjkjkkh`idceckkkkjj#jg`hkjkg`f.eejkj##kkkkj##kkkj##kkk##jkk",
"##jkkkj###jjkkkkkkkkkkjjf`gc###g`acgc######jfh####cgeg.#jjjjkkh.ig..hhff``ekkkjj##h`ehfgh`fahedkj##jkkkj##kkkk##kkkj#jkk",
"#jkkkk###jjkkkkkkkkkkkkg`faai#.a`affgj####jjaf.cgeaf``eikjkkkiffaaegiikgffhkkkk#j.`fhckefheikkkkj##kkkk##jkkkj##kkk##kkk",
"#jjkkk##jjkkkkkkkkkkkjkfficeagh`agc#i####g.a`f`ceh.g`hkkjkkkke`.kb#gee...#kkkkjjg`e.`egagcaejkkkj##kkkkj##kkkj##kkkj#jkk",
"#jkkkk#jjkkkkkkkkkkkjkefgcggfhga.fg#####igheaa###fgj`.kkkkkkk.hiefaaa`f#kjkkkkk#g.kihgcjk.a.kkkkj##kkkk##jkkk##jkkk##kkk",
"#jkkkkjjkkkkkkkkkkkjki``faei#g`fh``hg######khhe#jeae`ffekkkkkkkkgggcafgjjkkkkkjj##jhfckkkg`eddddj##kkkkj##kkkk##kkk##kkk",
"jkkkkjjkkkkkkkkkkkjkifei`hcefeaeh`.cci######f`.gff`eegcdkkkkkkkkkjiffckgccdkkkjj#j.`fdkccef`f`ffj##kkkk##jkkk##jkkk##kkk",
"jjkkkjkkkkkkkkkkkjkj..ic`ahhfhcgh`aaag####gf`h###hfc.ii.gidkdiiig.ef`ff`f`fekkkjj.``hfffah`hgigdj##jkkkj##kkkj##kkkj#jkk",
"jkkkjkkkkkkkkkkkjjjjjchf`acc`hffa`e..c#c.a`h`a.e.ffh``fffadkhff`ffh.`hcdididkkkj.`ffgcagkkf.kkkkj##kkkk##jkkkj#jkkk##kkk",
"jkkkkkkkkkkkkkjjjj####gc`#ccfckk.`c###je``ekfaahf`ge`gkddkkkcggi#jjkfakkkkkkkkdh`..fgda`gkfhjkkkj##jkkkj##kkkk##kkk##jkk",
"kkkkkkkkkkkkkjjij#ji####`afh`fgigfcj####gckk`gkkchh`fkbkkkkjkj#kkjjkffkkkkjkkkeacjg`ikdeckfadkkkj##kkkkj##kkkj##kkkj#kkk",
"kkkkkkkkkkjjjj#j#######e``eheehfffeggg.#jj.h`.kkke`f`h.kkkjj####jkkkffdkkj##kdidkjefckkkkkfa#kkkk##jkkkk##kkkk##kkkj#jkk",
"kkkkkkkkkjj#j##########a`c#i#jigef```fei#jcf`ci.fhgdif`adkjj####k...`akkj###kkkkj#h`ikkd.h`hdkkkj##jkkkj##kkkj##kkkj#jkk",
"kkkkkkkjjj#############ccj#j#j#j##c.cc###ij.hidgidkkkk.hckji###jjd.``.djj###kkkkjj.aikkki``.#kkkkj##kkkk##jkkk##jkkj##kk",
"kkkkkj#j##########j#j#jjjjj#j#j#j####i#####jjjjkkkkkkkkkjj#####jkkkeadkj###jkkkkj###jkkkk.acjkkkkj##kkkk##kkkk##kkkj#jkk",
"kkjjj##########jjj#jjjjjjjjjjjj#j#j#######j#jjkkkkkkkkkkjj####jjkkkkkkj###jjkkkkkj###kkkkkj##jkkkj##jkkk###kkkj#jkkk##kk",
"jjj#########jjjjjjkjjjjkjjjjjjjj#j##########jjjkkkkkkkkjj####jjkkkkkkj####kkkkkkkj###jkkkkj##jkkkj##kkkkj#jkkkj#jkkk##kk",
"#########jjjjjjkjkkkkkkjkkkjkjjjjjj#j######jjkkkkkkkkkkkj####jjkkkkkkj###jkkkkkkkkj##jkkkkj##jkkkk###kkkk##kkkj##kkk##jk",
"#######jjjkkkkkkkkkkkkkkkkkkkkkjjjjj#####kjjjj######jjjjjk###jkkkkkkj###jkkkkkjkkkj###kkkkk###kkkkj##kkkj##kkkj##kkkj#kk",
"##jjj#kkkkkkkkkkkkkkkkkkkkkkkkkkjkjj#kj#j###j#jjjjjj#j###jjjkkkkkkkkj###jkkkkj#jkkjj##jkkkkj##jkkkj##jkkk##jkkkj#jkkj#jk",
"jkjkkkkkjjkkkkkkkkkkkkkkkkkkkkkkkkjjj###jjkkkkkkkkkkkkkjj###jkkkkkkj###jkkkkkj#kkkkj###kkkkj##jkkkk##kkkkj#jkkk##kkkj#jk"
};
