/* XPM */
static char *ljzfbj[] = {
/* columns rows colors chars-per-pixel */
"130 40 89 1",
"  c #000504",
". c #000C05",
"X c #000E09",
"o c #001007",
"O c #00120C",
"+ c #00180F",
"@ c #001511",
"# c #001B14",
"$ c #021F1A",
"% c #002116",
"& c #01221A",
"* c #A2BDB9",
"= c #8FC3B7",
"- c #8FC4BB",
"; c #8FC8BF",
": c #95C5BB",
"> c #92C8BD",
", c #9BC5BD",
"< c #9BCABF",
"1 c #A4C4BD",
"2 c #A9C4BF",
"3 c #96CCC2",
"4 c #9EC6C0",
"5 c #9BCDC4",
"6 c #96D2C6",
"7 c #9CD2C6",
"8 c #9ED4CB",
"9 c #9EDACE",
"0 c #9FDBD1",
"q c #A2C6C1",
"w c #A3CCC4",
"e c #A5CEC8",
"r c #ABC6C1",
"t c #ABCCC5",
"y c #ACCEC9",
"u c #A3D1C6",
"i c #A3D4CB",
"p c #A4D9CE",
"a c #A8D0C7",
"s c #ABD4CC",
"d c #ACD9CF",
"f c #A5D7D0",
"g c #A7DCD2",
"h c #ACD7D0",
"j c #AADBD3",
"k c #AEDFD9",
"l c #B1CBC6",
"z c #B2CEC9",
"x c #BBCAC7",
"c c #BBCCCB",
"v c #B3D3CD",
"b c #B1D9CE",
"n c #B9D3CE",
"m c #B4D6D1",
"M c #B3DCD4",
"N c #B5DED8",
"B c #BAD6D1",
"V c #BBDAD4",
"C c #BCDED9",
"Z c #A6E1D5",
"A c #ACE1D6",
"S c #ACE3DA",
"D c #AFE8DF",
"F c #B3E1D6",
"G c #B3E3DB",
"H c #B2E9DD",
"J c #B8E0D7",
"K c #BBE3DB",
"L c #BBE9DE",
"P c #B4E7E0",
"I c #B5EBE2",
"U c #BCE7E1",
"Y c #BAECE3",
"T c #BDF4EA",
"R c #C0CDCB",
"E c #C4D7D5",
"W c #C3DCD6",
"Q c #C2DED9",
"! c #CDD7D6",
"~ c #CBDDDA",
"^ c #C2E2DC",
"/ c #C9E2DE",
"( c #C4E4E1",
") c #C1ECE4",
"_ c #C3EFE9",
"` c #CAE5E0",
"' c #CAEBE5",
"] c #C8F2E8",
"[ c #D1F2EC",
/* pixels */
"gggggggggggggggggggjgggggggggggjjjjjjjjgjjgj0jjj0jggggggggggggggggggg0Z0Z00SZjjjggggggggggggggggjgggjgg0ZZppggkggggggggggggggggggg",
"gggggggggggggggggjggggggggggggjgjgjjjjjjjgjjjj0kgZgggggggpggggggggggZg0ZZZ0ZjZ0jggggggggggggggggfggggggZZZZpggjjgggggggggggggggggg",
"ggggggggggggggggggggggggggggggggggdgjjggjjjgjjZZ00g0ggggpZgZg9gpggggg0Z00ZZ0jjkjggggggggggggggggjgkgZj0Z9ZZgjgjjgggggggggggggggggg",
"ggggggggggggggggggggggggggggggggggZZjkjgjgggjZjZgggg0g0gZg0pgZgZggggZ00ZZ0Z000k0ggggggggggggggggjgggjZ0ZZZg9jjjggggggggggggggggggg",
"ggggggggggggggggggggggggggggggggpZZpZZpZg0ggggggg0ggg0gggZpZ0ggggggZZ0Zgggg0jjj0gg0ggggggggggg0gjggg00g0ZZpZgggggggggggggggggggggg",
"gggggggggggggggggg0gggggggggggggZ9pZppZpgg0ggggggZgZggZg0gZpgggggg0ggZ0Z00gg0ZjjgggggggggggggggggjgggggZ9Zgggggggggggggggggggggggg",
"gggggggggggggggggggggggggggggg0gpZZ9Z9pZgggggggg0Zg0g00ggZZgggggggggggg0gg0g0jj0ggggggjjgggggggggjgggggggggggggggggggggggggggggggg",
"ggggggggggggggggggggggggggggggggZ9ZZpZZZ0g0ggggggggZgggZg0ggg0ggggggggggggggjjjZgggggjjjggfjggggggjggggggggggggZgggggggggggggggggg",
"gggggggggggggggggggjffNfA5Gkp8SgppHp9p7pZHAguZ<AS8P8GjpAkgpIggggdppduFdpS8jAiApi3SgpjiikMfggGggjkk4PpFuAiHupgH<Zgggggggggggggggggg",
"gggggggggggggggggfjiGkeNsMejjgppAi<HppLZp<u9AHuA8I3SffG85Y5pGiA8uAApFuHFSkisF5AHT3SifNNhsjkg3GZg8kjjFuF7Fp7ApugZgggggggggggggggggg",
"gggggggggggggggg6IGfkjekMeUfjppAjjFFALd<pALuggAippjGN8fSksfjfkeYAFddFp:FfNGiFFiuife_4ihjM,UsYj8pjjjeMMsMddHddZH<gggggggggggggggggg",
"ggggggggggggggggAfXNyjUmMsXUisIfM<bou<d)<%p<LuAdNski5U#effNijNs5duOFwJ^dhXNMwGuMiPiXNNhmXCj,NeAGhyXNssMbMwdddZ<Agggggggggggggggggg",
"ggggggggggggggggjfXMhqCvh(XqhU5hs[aobJbaddoFdF<LjfKjKihXiUeiMP5_JFooo...Vo.+o.OdfkhXXmNy(XCUwLk5NC Jsvs oOooogAZgggggggggggggggggg",
"ggggggggggggggggjj#X C v XX@#Xihvz^ Bv.o+oooooL<fhXXXXX#XX#OXXKquo]b.nvMaoaosFddNhXhCv @XX X.ohL....O.Moaad1%Fupgggggggggggggggggg",
"gggggggggggggggjG5@emyCXy(XqMwUh . O.obob1Jb+udsNM@hNe_qmhyNNXCNJ.abbotvOVB1#aKuiNXNhN@l^(ymN.FuUw.'tMaOooo%o<Ligggggggggggggggggg",
"gggggggggggggggjM.mmmQv V y#shemvVv.vzVvoJbosddFMXhyCyVhmhmm.Ueh.Kdv.BvozBB.^b1FjXyM l nzzmvbodMmv.vnnWvvvvaFbAdgggggggggggggggggg",
"ggggggggggggggjjm @..WrQV.wOdaFddnn.^   O....ooAifj@XX   OXsKhidsKabOa^rlnnXyNsd.+...l   X  ..FAs.z.Bn.  .. o..bjggggggggggggggggg",
"gggggggggggggggj./ BncX.yOO.OosiKMM.vOzn1'vVJb1dPfmsCmmC(XmmfhjFbbJ.K..+OO .O..Fb1B.z^ x!RR~BmduboV.lBn.Wln^.lVbfjgggggggggggggggg",
"gggggggggggggggfml.QnBQXzvm.wKwJ,JyX%2WVO1BwaKKpfffUqy(z ^mCh3I4swLobsbrrEz.tMddJV.Vzl#     .oGd.....+*O o .oBbsjggggggggggggggggg",
"ggggggggggggggfj.#X $zr mQBOduJdLt@.tv^2 BB'adasjkefm(m lmCeNGjKJb.#ab.nQznObJuG1.oo.n .R ~ C.udazVOvn^ WVB^ bCsjggggggggggggggggg",
"gggggggggggggggjem.zzVB.X...OOOa..mOO @XO....OOJkXOOX  XX XXOXOjb.m.sbMOvvV.diS7LsvvW^  x c V+sMKV1ovzz. . ..nvMhggggggggggggggggg",
"ggggggggggggggggMm.[zvmXvVC@taKbyNqXmmz n^v NMejffkfeNMXmCMMfjIj.Ma.KuM..Ct.sFHZwaJK1O/ . XX .bFa^..OOB.V^nBOvtbjggggggggggggggggg",
"ggggggggggggggggMd.wm.C.mQt ^MwJy(( myX tCmOtsMugGiGNhm ymehGjipsMK.sJdM.NM.M73ZFK.+b.1OnOW VOwdo.^.vzt+ ..o OObjggggggggggggggggg",
"ggggggggggggggggsMXMOvm.myMOtnKaCwhOmmmmX.OsMdJdfiGwNNe@NeCfsj8jMNt.MiMsMum.dAZ0ooLas+b n x@v.dMbvv.t@o.VbbV.sMdjggggggggggggggggg",
"ggggggggggggggggihX@my@m@qCymyKysmmXymNmVXm@sMNej8jghiKXjmjjhfgjMsh.8keNfNhXkS6gdbddoda.v V vOaJbvb.tMsNJuNe.bsMjggggggggggggggggg",
"ggggggggggggggggPNXje@eNsX@XOXXUN NXhmm X_4w@XjGjAjpG#4XmjjjjjgjwCmOkIfijXNX83TgaFdopFd.JvB/.oFuwJdoM)ssus^JobJwjggggggggggggggggg",
"ggggggggggggggggfkkjffNhNsfMfMkisN sh@XNNf_fNX8jj8Ap5jOLjjfjjggjNhiO33DgfNXfYS06dddAZpdFbbsMdFFAFdu+<:GddH:<OuMFgggggggggggggggggg",
"gggggggggggggggg8jk8GkefhwGf5AjjifhNNeGffijp8GgS8Dg8PggsjjjgjgggjGGiZIS0kjNf8g0guLA=YZ8dKudMdd>AdJJujYAiiALAuGJpgggggggggggggggggg",
"ggggggggggggggggkkgffjkkfkfDPgg8PfkkjPffNkjkPfg8D3jAsggjggggggggkigD86ggsk8fUf0kApAZS69Z7LGiGg9ZAiAFp5ZgZZ3pAjikgggggggggggggggggg",
"ggggggggggggggggg83SPD3fgk86gggDj88fk6fDgf8S098P6HgS5AAggggggg0giP6S0D6Sjf_3kfD8iipZ9ZSZZpjp-D6Z7H7SpS6ZS6SgS5L8gggggggggggggggggg",
"gggggggggggggggg0DgD58T0fkSSZ99gfkDk8Y3SgSS8ggY8Dp8ZY55jggggggggfkg3IZ0gP55Pjg8DLsgpZ906ggpSI9Z9pAg;IZpZ00ZI>jZpgggggggggggggggggg",
"gggggggggggggggggD88If6Dk80Z00Z0S8fkffI6g8gD8ZggZ6PZ3PAgggggggggjfgS0000gSjff8I8pdSpZ9ZZpZpgZZ0ZZpZZ9Z9999ZgZgsggggggggggggggggggg",
"ggggggggggggggggggggggggggggggggggggggggggggggggggggggggggggggggggggggggggggggggggggggZ0gggggZ0ggggggggggggggggggggggggggggggggggg",
"ggggggggggggggggggggggggggggggggggggggggggggggggggggggggggggggggggggggggggggggggggggggpggggggggggggggggggggggggggggggggggggggggggg",
"gggggggggggggggggggggggggggggggggggggggggggggggggggggggggggggggggggggggggggggggggggggggggggggggggggggggggggggggggggggggggggggggggg",
"gggggggggggggggggggggggggggggggggggggggggggggggggggggggggggggggggggggggggggggggggggggggggggggggggggggggggggggggggggggggggggggggggg",
"gggggggggggggggggggggggggggggggggggggggggggggggggggggggggggggggggggggggggggggggggggggggggggggggggggggggggggggggggggggggggggggggggg",
"gggggggggggggggggggggggggggggggggggggggggggggggggggggggggggggggggggggggggggggggggggggggggggggggggggggggggggggggggggggggggggggggggg",
"gggggggggggggggggggggggggggggggggggggggggggggggggggggggggggggggggggggggggggggggggggggggggggggggggggggggggggggggggggggggggggggggggg",
"gggggggggggggggggggggggggggggggggggggggggggggggggggggggggggggggggggggggggggggggggggggggggggggggggggggggggggggggggggggggggggggggggg"
};
