/* XPM */
static const char *matrix_xpm[] = {
/* columns rows colors chars-per-pixel */
"44 41 823 2",
"co c #62C4B5",
".  c #4FCAAB",
"`O c #000C0E",
"Q+ c #000607",
"`o c Black",
"Q# c #000609",
"g+ c #000C10",
"o  c #5BD8AE",
"<@ c #B9D5D6",
"f@ c #00060A",
"6$ c #55D1AF",
"F$ c #000005",
"BX c #000C13",
")O c #00060C",
"]O c #81B4AD",
"=O c #000C19",
">O c #55CBB1",
"&. c #55D1B9",
"O  c #48CC9D",
"~. c #F0FFF7",
"[. c #F0FFFD",
"0+ c #ACD6D5",
"]. c #F0FFFF",
"!o c #0E0E72",
"#O c #000022",
"3  c #54CEA5",
"H. c #DDFFFB",
"4  c #54CEA7",
"B  c #54CEA9",
"U+ c #B8CCCA",
"*O c #000030",
"{X c #000032",
"[X c #000033",
"W# c #BED3D4",
"w+ c #80B1AB",
"|X c #000035",
" o c #000038",
"_X c #000039",
"`X c #00003A",
"Po c #191963",
"fo c #00003E",
"kX c #73B8A6",
"d@ c #110000",
"wo c #000042",
"Lo c #000043",
"r  c #4DD6AA",
"yo c #000045",
"cO c #B2C5E5",
".o c #000047",
"iO c #BECDE0",
"Xo c #000048",
"]X c #000049",
"'X c #00004A",
"z$ c #79B9A9",
"$O c #00004B",
"}X c #00004C",
"Yo c #00004D",
"+o c #00004E",
"dX c #4DD0AE",
"%O c #00004F",
"yO c #B8CCEF",
"(X c #000050",
"&O c #000051",
"RX c #66C5AD",
"m@ c #040700",
"wX c #7FB4A4",
"o. c #60CABE",
")X c #000055",
"X  c #53CBA7",
"p  c #59CCA3",
"G+ c #B7C9CB",
"2. c #6CC0A6",
"k$ c #7FAEA4",
"y@ c #A4CFC5",
"8o c #130C80",
"uo c #120F60",
"M. c #EEFFFB",
"Zo c #72AF9D",
" X c #EEFFFF",
"4$ c #5FC7AC",
";@ c #E0C787",
"so c #120F76",
":  c #52CEA9",
"2  c #52CEAA",
"N  c #52CEAC",
"F# c #6BC3AD",
"}@ c #84B2A5",
"i$ c #84B2A7",
"Wo c #171964",
"qX c #84B2AF",
"pO c #B0CBE6",
"3o c #77BFA9",
"u. c #71BEB8",
"to c #11127C",
"Z@ c #B5C9C8",
"vo c #4BD0B5",
"~+ c #B5CFD0",
"u  c #51D1B0",
"r@ c #B5C9CA",
"H# c #7DA89E",
"t$ c #83AFA2",
"(+ c #BBD0D3",
"U  c #57D2B6",
"/  c #57CCAF",
"R. c #ECFFFF",
"-  c #4AD3A9",
"Bo c #89B0AD",
"1o c #7CBDA5",
"n$ c #4AC7A5",
"l  c #4AC7A7",
"B@ c #B4D2D0",
"z. c #D9FFFF",
"W@ c #010400",
"r+ c #69C3A9",
"]+ c #69C3AA",
"A@ c #B4CCD0",
"6o c #0F1263",
"eo c #15135C",
"~X c #001901",
"<. c #6FBEAB",
"YX c #43D5B1",
"q$ c #75B39C",
"0# c #001300",
"b# c #001304",
"O+ c #001305",
"`+ c #001306",
"1$ c #001307",
"N$ c #000D02",
"+O c #00130B",
"%+ c #000D05",
"L@ c #000D07",
"iX c #000700",
"%o c #000701",
"j  c #55D8AC",
"A$ c #000702",
"e  c #4FCBA6",
"KX c #001310",
"n+ c #000D09",
"%# c #B3CFD0",
"xo c #000704",
"P@ c #000D0C",
"K+ c #000705",
"T+ c #B3CFD2",
"+@ c #000706",
"L# c #6F8280",
"nX c #001315",
"k+ c #000D0E",
"SO c #000707",
"KO c #000D0F",
"]@ c #000708",
"B# c #000709",
"z@ c #000D12",
"c+ c #00070B",
"D$ c #000105",
"IO c #000D13",
"I@ c #00070C",
"J$ c #55D2B2",
"G$ c #000107",
"@O c #00070E",
"K. c #55CCAC",
"UO c #000710",
"lo c #81A99E",
"S  c #55CCAE",
"B+ c #55CCB0",
"JX c #000D1C",
"eO c #000718",
"M+ c #87B6AE",
"'  c #55CCB6",
"j$ c #87B0A8",
"c@ c #CAC490",
"v. c #EAFFFF",
"]  c #55CCB8",
"vO c #B3D5EE",
"ko c #000D23",
"+  c #48CDA2",
"uO c #000117",
"zO c #000119",
"i. c #6EBBB5",
"7  c #54CFA1",
"V  c #54CFA3",
"G  c #4ECEAD",
"oX c #67C3AA",
"@$ c #67C3AC",
"So c #00012E",
"f$ c #80B2A6",
"oo c #000130",
"%  c #4ECEB5",
"   c #54CFB3",
"4o c #80B8B9",
"+X c #5AD0B8",
"!  c #5ACAB1",
"7O c #7A7B7F",
"9# c #8CB4AC",
"k  c #4DD1A9",
"lO c #B2C6E9",
"v$ c #4DD1AC",
"1@ c #B1CFCD",
" O c #66C6AA",
"mo c #66C6AB",
"do c #131377",
"E. c #FBFFFF",
"F@ c #B7D0D4",
"l# c #53CCAD",
"-O c #040809",
"## c #B7D0D5",
"E$ c #6CC1AC",
"go c #12165F",
"(# c #BDCBCB",
"6. c #66C0B6",
"Z. c #E8FFFC",
"CO c #E8FFFE",
"o+ c #E8FFFF",
")  c #53CCBB",
"Do c #181161",
"s  c #59C7BA",
"8  c #52CFA3",
">  c #52CFA5",
")# c #B6D3CE",
"Z  c #4CC8A6",
"8. c #65C3A9",
"m  c #52CFA7",
"q. c #65C3AB",
"b$ c #52CFAF",
"[# c #84B9A9",
"z# c #52C9AB",
"Go c #120A7A",
"#. c #58CAA6",
"<X c #84B3A9",
"d# c #A9D4CA",
"L. c #52C9B3",
"{+ c #84B3AB",
"8X c #84B3AD",
"UX c #58CAB0",
"$X c #5EBFA0",
"TX c #4BD1AC",
">o c #F9FFFF",
"0@ c #B5CACB",
"eX c #83B6A5",
"g$ c #83BCAD",
"z  c #51CCB0",
"2o c #70B69A",
":O c #6AC1B0",
"C. c #E6FFFF",
"tX c #89B7AC",
"-X c #89B1A8",
"w# c #3E7E5B",
"Uo c #0A0F77",
" # c #DEC281",
"$$ c #50C9A8",
"E+ c #B4CDD1",
"+. c #50C9AA",
"^@ c #B4CDD2",
"M@ c #B4C7CB",
"n@ c #D8C79B",
"Jo c #101080",
"5+ c #BACECD",
"}+ c #0D0700",
"y$ c #88B4A7",
"*$ c #001A02",
"7o c #161185",
"Fo c #1C1282",
"i+ c #001400",
"P  c #56CAB5",
"f# c #001A08",
"xX c #001402",
"=$ c #001404",
"Vo c #001405",
"u@ c #001406",
"-$ c #001407",
":$ c #001408",
"($ c #62C6AA",
"x@ c #00140A",
"&X c #75AE9F",
"}. c #F7FFF8",
"{@ c #000E04",
"^X c #00140C",
"m# c #000E07",
"PX c #000800",
".X c #F7FFFC",
"B$ c #000801",
"X$ c #000E08",
"I$ c #000802",
"[+ c #F7FFFF",
"x$ c #000E0B",
"}# c #000804",
"g# c #7BB5A7",
"^O c #000805",
"4+ c #000806",
"'@ c #000807",
"X@ c #000200",
",# c #000808",
"j@ c #000E0F",
"C$ c #000202",
"O@ c #000809",
"q  c #55D3AD",
"WO c #00080A",
"e$ c #81B0A0",
"x+ c #00080B",
"QO c #000E13",
"_O c #00080C",
"@@ c #00080D",
"1O c #55CDAA",
"D. c #E4FFFF",
"#o c #000E1B",
"{  c #55CDB1",
"|  c #55CDB2",
"-. c #5BCEAD",
"s. c #7ACAAF",
",o c #87B1AF",
"MX c #000822",
"y  c #48CEAD",
"r# c #557F6B",
"U. c #67C4A7",
"R@ c #E2C989",
"5o c #00022C",
"T  c #54D0AC",
"q@ c #B8D4D5",
"#$ c #54D0AE",
"5@ c #B8D4D7",
"4. c #6DBFA9",
"$o c #86B4A7",
"s$ c #86B4A9",
"X. c #54CAB4",
"~  c #5ACBAF",
"3$ c #73BAA8",
"@o c #000248",
"3O c #F5FFFF",
"Ao c #8CB5BB",
"8+ c #B1CACE",
"6+ c #B1CACF",
"E@ c #D5C498",
"I+ c #B7D1D0",
";+ c #B7CBC9",
"L+ c #B7CBCA",
"O# c #B7D1D2",
"/@ c #B7CBCC",
"9. c #66C1AF",
"^$ c #6CC2A9",
"0. c #66C1B0",
"7# c #6CC8B1",
"x. c #E2FFFC",
"L$ c #E2FFFF",
")@ c #0A0400",
"P# c #798585",
"0X c #85B1B0",
"K$ c #65C4AC",
">+ c #B6CED0",
"$. c #52C4A2",
"8@ c #B6CED2",
"f. c #58CBAA",
"j# c #58CBAC",
"5. c #6BBFAF",
",O c #58CBAE",
"^o c #170F5A",
"jO c #BCCFE0",
"tO c #B0C7E9",
"/. c #F3FFFA",
"'. c #F3FFFC",
"_. c #F3FFFE",
"l. c #64C7AA",
"`. c #F3FFFF",
"b@ c #DFC686",
"6# c #4BC6A7",
"7+ c #AFCAD1",
"m$ c #51CDAB",
"W+ c #B5D1D4",
"N+ c #6AC2AA",
"3# c #6AC2AC",
"e# c #4B8464",
"&  c #51CDB1",
"Y@ c #83B1A4",
"'+ c #83B1A6",
"Q  c #57CEB2",
"1. c #70BDA9",
"l$ c #70B7A5",
"wO c #AFCAE8",
"s@ c #1A0100",
"X# c #D2C195",
"P+ c #B4CECF",
"G@ c #B4C8C9",
"nO c #82B4AB",
"5# c #56D1B4",
"d  c #56D1B5",
"L  c #56CBB1",
"lX c #001B05",
"#+ c #4A816E",
"cX c #001500",
"!. c #F1FFF7",
"zX c #001504",
"<o c #001505",
"^. c #F1FFFA",
"p+ c #000F00",
"(. c #F1FFFC",
"J@ c #001507",
"IX c #000F01",
"). c #F1FFFE",
"m. c #F1FFFF",
"#@ c #000F05",
"Y$ c #000F08",
"|# c #00150F",
"t@ c #B3D1CF",
"hX c #4FCDA8",
"q+ c #001512",
"LO c #000904",
"2# c #000905",
"~O c #000906",
">@ c #000300",
"s+ c #000907",
"J  c #55CEA5",
"'o c #000908",
"N# c #000F10",
"FO c #000302",
"v+ c #00090A",
"{# c #000304",
"GX c #000F12",
"h+ c #00090B",
"yX c #7BB0A8",
"l@ c #00090C",
"DO c #000305",
"[@ c #00090D",
"M# c #000309",
"I. c #55CEAD",
"$  c #4FCDB5",
"/O c #000911",
" + c #4FCDB7",
",. c #6EC3B0",
"9O c #000310",
"HX c #000F21",
"=# c #87B2A9",
"9X c #87B2AB",
"aX c #5BC9AC",
")o c #00091E",
"~o c #010043",
":o c #4ED0AA",
"v  c #4ED0AC",
"*  c #4ED0AE",
"X+ c #67C5AA",
"N@ c #B2CECF",
"*. c #48C3A7",
"t+ c #67C5AB",
"_@ c #1E0200",
"C+ c #67C5AD",
"d. c #6DC6A8",
"No c #FCFEFF",
"Oo c #000335",
"h# c #6DC0AC",
"*# c #ABD6CC",
",  c #54CBB5",
"_+ c #ABD6CD",
"M  c #54CBB7",
"Mo c #EFFFFF",
"c$ c #60C7AC",
"=o c #47D2B5",
"xO c #BECAE0",
"Eo c #0D147F",
"7@ c #B1C5C4",
"p# c #B1CBCC",
"2@ c #B1C5C6",
"r. c #66C2A9",
"%$ c #DCFFFD",
"w. c #66C2AD",
"$# c #B7CCCD",
"E# c #B7CCCF",
"/o c #130F7D",
"}  c #53CEAF",
"#X c #59D5B1",
"[  c #53CEB1",
",+ c #BDCDCC",
"w  c #59CFAC",
"jo c #061675",
"7X c #85B2AB",
"(o c #0C1771",
"6X c #85B2AD",
"5X c #85B2AF",
"v# c #8BB3AA",
"a  c #59C9B3",
"T# c #B0D4D2",
"!$ c #65C5A9",
"/$ c #65C5AA",
"y# c #B0CED0",
"-@ c #E0C483",
"a. c #65BFA5",
"/# c #B6C9C7",
"LX c #7EB4A7",
"k. c #52CBAA",
"no c #58CCA5",
"9@ c #B6CFD4",
"o# c #B6C9CD",
"gX c #52CBAC",
":@ c #DAC99D",
"A  c #52C5A8",
"&# c #BCD0D1",
"`# c #090E12",
"u$ c #8AB6A9",
"9o c #110F62",
"S. c #EDFFFF",
"`@ c #150400",
"3+ c #AFD1D2",
"dO c #BCCAE4",
"i# c #AFCBCE",
"q# c #458465",
"c  c #51CEAC",
"5O c #718B88",
"I  c #4BC7AD",
"NO c #51CEAE",
"b  c #51CEB0",
"7. c #64C2B4",
"@X c #51C8AC",
"Z+ c #C0D1A4",
":+ c #AEC8C9",
"`$ c #63C5AC",
"Qo c #101279",
":. c #69CCB0",
"Y# c #B4C9CA",
".# c #E4CB8B",
":X c #82B5A2",
"4# c #50CBAE",
"6O c #707C7C",
"qo c #16137E",
"H$ c #56CCAC",
"y. c #69C0B0",
"{. c #EBFFF4",
"!X c #001C03",
"d$ c #88B6AB",
"N. c #EBFFFB",
"(  c #56CCB4",
"y+ c #001600",
"n# c #001C0A",
"8# c #EBFFFF",
"vX c #001604",
"fO c #AEC8E9",
"O$ c #001607",
"OO c #001000",
"S+ c #D1D19B",
"|@ c #D1CB97",
",$ c #001004",
"<$ c #001005",
"bX c #00160C",
"-# c #000A00",
"*o c #5CC7B5",
".$ c #001009",
"&o c #000A02",
"4@ c #B3CCC9",
"&@ c #000A04",
"AO c #000A05",
"GO c #000A07",
"h@ c #000A08",
"a+ c #000A09",
"R$ c #000A0A",
"w@ c #B3CCD0",
"bO c #001012",
"o@ c #000A0B",
"U# c #000405",
"Q@ c #B3C6CA",
"V+ c #4FCEB0",
"^# c #000A0D",
".+ c #4FCEB1",
"FX c #001014",
" . c #55CFAA",
"!O c #000A0E",
"@+ c #3D7D6C",
"|O c #4FCEB3",
"># c #00040B",
"CX c #000A13",
"(O c #000A15",
"3X c #87B3A4",
"hO c #000415",
"R# c #A6CDCA",
"DX c #000A22",
"D+ c #C4C69F",
".@ c #120100",
"F  c #4ED7AD",
"*X c #7ABAAA",
"0$ c #80C1AB",
"2O c #67C6A8",
"Z# c #7AB4A6",
"Y+ c #B2CFD3",
"Ro c #0E1280",
"0o c #0E0C7A",
"~$ c #6DC1A9",
"EX c #80B5AD",
"h$ c #86BCAE",
"+$ c #86BCAF",
"9  c #54CCB0",
"A. c #E9FFF8",
"/X c #00043B",
"A+ c #C9CA91",
"V. c #E9FFFD",
"D# c #5ACDB0",
"++ c #488878",
"c. c #E9FFFF",
"gO c #B2CFED",
"sX c #47D3AE",
"kO c #B2C9E9",
"To c #19176B",
"e. c #66C3A8",
"w$ c #7FB2A1",
"!+ c #B7CDCB",
"f  c #4DC8AB",
"t. c #66C3B0",
"`  c #53CFAD",
"u# c #B7D3D6",
"ho c #131687",
"%@ c #85B3A6",
"t  c #40CFA4",
"C  c #59D6B6",
"ZO c #85B3A8",
"=X c #85B3A9",
"<O c #59CAAC",
"Co c #72B39B",
"W$ c #59CAAE",
"uX c #8BBAB2",
"=@ c #CEC894",
"&$ c #7EBBA9",
"io c #0C0C7A",
"W. c #FAFFFE",
"S@ c #B0C9CE",
"3@ c #B6D0D1",
"#  c #4CCBB0",
"3. c #6BC1A6",
"5  c #52CCB3",
"BO c #52CCB5",
"<  c #52CCB7",
"B. c #E7FFFF",
"K# c #65847C",
"h  c #4BC8A0",
"0  c #4BC8A6",
"D  c #51D5AD",
"a@ c #1B0000",
"jX c #6ACAAE",
"*+ c #B5D3D5",
"v@ c #E5C988",
"]# c #6AC4AB",
"@# c #B5CDD1",
"H@ c #A2CDC3",
"M$ c #FFFDFF",
"P. c #51C9AE",
"Y  c #57D0AF",
"'# c #57CAAB",
"I# c #778183",
"qO c #AFCCEA",
")$ c #63C6AA",
"E  c #50D2AC",
"a# c #B4CAC8",
"@. c #50CCA7",
"T. c #F8FFFF",
"!@ c #B4D0D1",
"~@ c #B4D0D3",
"1+ c #BACBC5",
"K  c #56CDA5",
"}o c #56CDA7",
"G. c #E5FFF7",
"K@ c #82B0A3",
"a$ c #82B0A5",
"Y. c #E5FFFB",
"u+ c #001D00",
"S# c #56CDAF",
"]o c #69C1B3",
"%X c #E5FFFE",
"aO c #AEC9E4",
"QX c #001700",
"1X c #88B1A9",
"WX c #001705",
".O c #88B1AB",
"C# c #001706",
";$ c #001102",
"pX c #001103",
"J# c #001104",
"4O c #001105",
" $ c #001107",
"XX c #000B00",
",X c #7BB8A6",
"MO c #000B03",
"<+ c #ADCCCF",
"o$ c #000B04",
" @ c #190000",
"O. c #5CC8B9",
"m+ c #00110C",
"i@ c #000B05",
"T$ c #000B06",
"F+ c #000500",
"%. c #4FCFAC",
"PO c #000B08",
"zo c #000501",
"-+ c #000B09",
"mO c #000502",
"V@ c #B3CDCE",
"fX c #4FCFAE",
"b+ c #000B0A",
"f+ c #000504",
"g@ c #000B0C",
"TO c #000505",
"RO c #000B0D",
"JO c #000B0E",
"EO c #000507",
"YO c #000508",
"e@ c #000509",
"~# c #B9CECF",
"1# c #81B3A7",
"/+ c #00050B",
"rX c #81ADA0",
".. c #4FC9B0",
"W  c #55D0B1",
"NX c #000B15",
"0O c #ADC6DA",
"k# c #55D0B3",
"[o c #5BCBA5",
"h. c #4FC9B4",
"SX c #000B17",
"AX c #000B19",
"A# c #6EBFAC",
"VX c #000B1E",
"ZX c #000B20",
"t# c #BFC9D2",
"mX c #000B22",
"sO c #00051C",
"R  c #48CBA3",
"c# c #F0FEFE",
"Q. c #F6FFFA",
"Io c #0E1377",
"J+ c #B2D0CE",
"7$ c #67C7AC",
":# c #050900",
"R+ c #B8CBC9",
"g  c #54CDAA",
"OX c #54CDAC",
"6  c #54CDAE",
"G# c #E3FFFF",
"@  c #5ADAB9",
"p@ c #110B00",
"j. c #5AD4BB",
"D@ c #B1CDCE",
"}O c #66C4A9",
"J. c #66C4AA",
"6@ c #B1CDD0",
"|+ c #1D0100",
"_$ c #66C4AC",
"Ko c #13117E",
"p$ c #7FADA2",
"x# c #6CC5AF",
"p. c #6CC5B1",
"{o c #59CBA7",
"_o c #8BAFA5",
"&+ c #AABDBB",
"2+ c #AAC9CB",
"n. c #F4FFFF",
"C@ c #B0CACB",
"po c #121481",
"!# c #B6CBCE",
"n  c #52CDAE",
"x  c #52CDB0",
"1  c #52CDB1",
"H  c #58D4B2",
"_  c #52CDB8",
"8$ c #8AB8AB",
"Ho c #17186B",
"9$ c #77B29E",
")+ c #AFCDCB",
"-o c #51D0A5",
"=+ c #AFCDCD",
"T@ c #DFC382",
"|o c #51D0A7",
"+# c #B5CECB",
"9+ c #B5D4D6",
"^+ c #B5CED2",
"=. c #51CAAB",
",@ c #B5C8CC",
"r$ c #89B5A8",
"8O c #777C82",
";. c #5DC6A7",
"|. c #F2FFF8",
"=  c #4AD2AA",
"5$ c #4AD2AC",
"$+ c #517C6B",
"b. c #F2FFFF",
"s# c #B4D1CC",
"bo c #56CEA0",
"H+ c #B4D1CF",
"i  c #56CEA1",
";# c #070A00",
"*@ c #69C2AC",
"F. c #DFFFFF",
"Q$ c #69C2AE",
"^  c #56CEAB",
"Z$ c #07100F",
"(@ c #A7D2C8",
";X c #88B2A4",
"2X c #88B2A6",
"ao c #15125F",
"4X c #88B2A8",
"'$ c #5CC9AC",
"e+ c #001201",
"oO c #001202",
"rO c #BACCE0",
"2$ c #00180B",
"$@ c #001204",
"XO c #001205",
">X c #7BB9A2",
">$ c #001207",
"{O c #000C00",
"U@ c #001208",
"U$ c #001209",
"P$ c #000C02",
";o c #4FD0A7",
"V# c #000C04",
"g. c #4FD0A9",
"[O c #000C05",
"VO c #68C5A6",
"ro c #0F1178",
";  c #4FD0AA",
"<# c #000C07",
"j+ c #000600",
">. c #62BEA7",
"'O c #00120E",
"V$ c #000602",
"HO c #001210",
"k@ c #000C09",
"S$ c #000C0A",
";O c #000604",
"d+ c #000C0C",
"l+ c #000605",
"_# c #7BADA2",
"z+ c #000C0D",
/* pixels */
"  . X o O + @ # $ % & * = - ; : > : , < 1 2 3 4 1 5 6 4 7 8 9 1 0 q w e r t y u i p a s ",
"d f g h j k l z 5 5 x c v v b n m 2 , M x N B g x 1 6 g V > 9 5 C Z A S D F G H J K L P ",
"I U Y T R E W Q ! ~ ^ ^ / ( ) _ ` ` ' ] [ ` { { } } | {  . .| ' ..X.o.O.+.@.#.$.: ; %.%.",
"&.*.=.-.;.:.>.,.<.1.2.3.4.5.6.7.8.8.9.0.q.q.9.9.8.8.w.w.e.r.9.0.t.y.u.i.p.a.s.d.f.%.; g.",
"h.j.k.l.z.x.c.v.b.n.m.M.M.N.c.B.V.V.B.B.c.c.B.B.c.V.B.B.c.c.B.B.C.Z.A.S.D.F.G.H.J.S K.g ",
"L.P.I.U.Y.T.m.R.T.E.W.Q.!.~.^././.^.(.)._.`.m.m.'.'.).m.m.m.m.].[.{.}.|.v. X.XXXoXn 6 OX",
"+X@X#X$X%X X&X*X=X-X;X:X>X,X<X1X2X3X=X=X4X1X5X6X4X4X7X8X9X9X0XqXwXeXrXtXyXuXiXpXaXsXdXfX",
"gXI.hXjXC.R.kXlXzXxXcXvXbXnXmXMXNXBXVXVXCXNXZXmXNXNXmXmXAXSXDXZXFXGXHXJXKXLXPXIXUXYXTX; ",
"g.g.; RXv.n.EXWXQX!X~X^XmX/X(X)X_X`X'X]X[X{X]X}X|X o}X}X o[X.oXoooOo+o@o#o$o%o&o*o=og.7 ",
"-o;o:oRXS.>o,o<o1o2o3o4o5o6o7o8o'X9o0oqowoeorotoyouoiopoyoaosodofogohojokolozoxocovo4 bo",
"no4 g.moMoNoBoVo1oCoZoAoSoDoFoGo+oHoJoKoLoPoIoUoYoToRoEoyoWoQo!o~o^o/o(o)o_o`o'o]o5 f.[o",
"{o}o|o OS.E..OXOoOOO+O@O#O_X'X$O_X_X%O+o|X[X$O]X_X`X&O}X|X[XYo]X*O|X]Xwo=O-X-O;O:O>O,O<O",
"K.1Om 2Oc.3O=X4O5O6O7O8O9O0OqOwOeOrOtOyOuOiOpOaOsOdOfOgOhOjOkOlOzOxOcOvObOnOmOMOJ.NO5 BO",
"x n B VOCOb.ZO4OAOSODOFOGOHOJOKOLOPOIOUOYOTOROKOEOWOQO!O~O^O/O(O)O!O_O`O'O]O[O{O}ONO|O +",
"% .+N X+o+n.1XO+++@+#+$+%+&+*+=+-+;+:+>+TO,+<+<+GO1+2+3+4+5+6+7+_O8+9+0+q+w+iXe+r+9 & |O",
"% .+NOt+o+3O1XoOy+u+i+p+PXSOa+s+;O;Od+SOmOf+g+h+j+j+k+h+l+TOz+x+c+v+b+n+m+M+j+{ON+B+x V+",
"b b b C+v.3O=XOOZ+A+S+D+F+G+H+J+K+L+P+I+;OU+Y+T+;OR+E+W+Q+!+~+^+/+(+)+_+`+'+j+&o]+S n NO",
"n NOb C+v.[+{+OO}+|+ @.@X@c+v+s+4+o@O@v+xoPOx+x++@a+c+@@Q+v+O@c+c+Q+s+#@$@%@f+&@*@OXn NO",
"n NOb C+v.[+{+OO=@-@;@:@>@,@<@1@K+2@~+3@xo4@5@6@l+7@8@9@Q+0@q@w@e@r@t@y@u@%@f+i@*@OXn NO",
"n NOb C+v.[+{+OOp@a@s@d@X@f@g@s+h@o@v+j@xok@l@x+'oa+_Oz@Q+o@v+c+e@v+s+x@$@$ol+&@*@OXn NO",
"n NOb C+v.[+{+OOc@v@b@n@m@M@N@B@K+r@V@C@GO4@6@W+l+Z@A@S@v+0@D@F@c+G@B@H@J@K@f+L@*@OXn NO",
"n NOb C+v.[+{+OO}+a@ @d@X@f@O@s+K+k+O@O@~Ok@x+l@l+P@c+I@O@o@O@_Oe@O@s+U@$@Y@l+&@*@OXn NO",
"n NOb C+v.[+{+OO=@T@R@E@W@Q@!@B@K+r@~+P+xo4@~@T+l+Z@8@^@Q+0@!@^+e@/@1@(@J@K@f+i@*@OXn NO",
"n NOb C+v.[+{+OO)@_@ @`@X@e@v+s+K+O@O@O@^O~Ox+x+l+'@c+I@]@]@O@c+[@Q+-+{@O+}@f+&@*@OXn NO",
"n NOb C+v.[+{+OO|@ #.#X#W@o#!@J+K+/@P+O#xo+#T+T+l+L+@###Q+$#%#^+e@&#)+*#O+Y@f+&@*@OXn NO",
"n NOb C+v.[+{+OO}+|+ @.@X@c+v+s+4+o@O@v+xoPOx+x++@a+c+@@Q+v+O@c+c+Q+s+#@$@%@f+&@*@OXn NO",
"n NOb C+v.[+{+OO=@-@;@:@>@,@<@1@K+2@~+3@xo4@5@6@l+7@8@9@Q+0@q@w@e@r@t@y@u@%@f+i@*@OXn NO",
"n NOb C+v.[+{+OOp@a@s@d@X@f@g@s+h@o@v+j@xok@l@x+'oa+_Oz@Q+o@v+c+e@v+s+x@$@$ol+&@*@OXn NO",
"n NOb C+v.[+{+OOc@v@b@n@m@M@N@B@K+r@V@C@GO4@6@W+l+Z@A@S@v+0@D@F@c+G@B@H@J@K@f+L@*@OXn NO",
"n NOb C+v.[+{+OO}+a@ @d@X@f@O@s+K+k+O@O@~Ok@x+l@l+P@c+I@O@o@O@_Oe@O@s+U@$@Y@l+&@*@OXn NO",
"n NOb C+v.[+{+OO=@T@R@E@W@Q@!@B@K+r@~+P+xo4@~@T+l+Z@8@^@Q+0@!@^+e@/@1@(@J@K@f+i@*@OXn NO",
"n n b C+v.[+=#OO-#;#m@:#>@>#v+s+SOO@O@O@~O,#x+x+Q+O@c+I@WO,#O@c+[@Q+<#{@Vo1#f+2#3#K.n NO",
"4#5#6#7#8#`.9#0#q#w#e#r#TOt#@#y#g+C@T+~@O@P+u#i#k+C@T+~@c+P+u#p#O@a#s#d#f#g#TOk@h#j#OXN ",
"k#l#z#x#c.c#v#b#vXn#Vom#!OM#x+ROx+N#c+O@c+k+c+O@c+N#c+O@c+k+c+B#K+~OxoV#C#Z#Q+K+A#j#OXN ",
"l#S#D#F#G#].H#J#K#L#P#I#U#Y#T#R#z+0@E#W#Q#0@!#~#^#0@E#W#Q#0@!#~#l+/#(#)#O+_#`#TOh#K.OXN ",
"=.K.'#]#G#Y.[#oOMOGOFO{#}#|##@ $i@AOs+AO-+AOs+AOs+AOs+AO-+AOs+AO.$X$xoo$O$+$DOh@@$c c c ",
"#$I.$$8.%$o+&$*$y+0#=$-$;$J#XOJ#J#:$>$,$<$,$<$1$<$:$>$,$<$,$<$J@zXzX<$2$lX3$^O.$4$5$v %.",
"N 6$H 7$D.].8$9$0$q$w$e$r$t$y$u$ZOi$p$a$s$d$'+'+ZOi$p$a$s$d$'+f$g$h$j$k$l$z$x$[Oc$v$v %.",
"b$n$m$oXR.M$FOj+-#N$B$V$C$Z$V$A$K+;OS$K+;O;OK+;OK+;OS$K+;O;OK+f+DOD$F$YOx$h@G$v+h#H$K.OX",
"b$J$} K$L$;O;O%+N$,$P$&oV$I$o$U$V#Y$i@[Oi@Y$i@[Oi@Y$i@[Oi@Y$i@T$K+R$U#K+X$L@,#<#E$<OK.OX",
"b b x W$Q$A#E$]+J.!$}Or+~$^$/$($)$/$K$/$K$/$K$/$K$/$K$/$K$/$K$_$*@3#3#@$`$K$A#E$'$OXNOfX"
};
