/* XPM */
static char *nczlcl[] = {
/* columns rows colors chars-per-pixel */
"180 40 42 1",
"  c #070000",
". c #0B0100",
"X c #0F0800",
"o c #110500",
"O c #140900",
"+ c #190D00",
"@ c #171000",
"# c #1C1200",
"$ c #1C1409",
"% c #201503",
"& c #E2D6BD",
"* c #E7DAC6",
"= c #E6DECB",
"- c #ECDDC5",
"; c #ECDECA",
": c #EDDFD6",
"> c #EEE0C6",
", c #EEE1CC",
"< c #EEE3D3",
"1 c #EFE8D5",
"2 c #F0E2C7",
"3 c #F3E5CD",
"4 c #F6E9CE",
"5 c #FAECCD",
"6 c #F3E6D3",
"7 c #F2E6D9",
"8 c #F5EAD4",
"9 c #F5EBDB",
"0 c #FAECD4",
"q c #FBEEDB",
"w c #F7F0DE",
"e c #FFF2D6",
"r c #FFF2D8",
"t c #FFF9DE",
"y c #F6EDE1",
"u c #FBEEE1",
"i c #F7F0E1",
"p c #FEF4E2",
"a c #FEF5EA",
"s c #FFFBE4",
"d c #FFFCEB",
"f c #FFFCF1",
/* pixels */
"rrrrrrrrrrrrrrrrrrrrrrrrrrrrrrrrrrqrrrrrrreeee55eeeetteerpwrrreewewerrtrrrwrrrrrrrrrrrrrrrrrrrrrrrrrrrrqrqrqerrqrqrrqrrrrqrpqqrrwrrprrrqrqrrererrrrrrrrrrrrrrrrrrrrrrrrrrrrrrrrrrrrr",
"rrrrrrrrrrrrrrrrrrrrrrrrrrrrrrrrqprrrrrrrreeeeeeeeeeeewtrwrrrreeteetwrrwrwrrtwwtrrrrrrrrrrrrrrrrrrrrqererrrrqrrerrqrrrpqrrqrrrurrrrrqrrrrrqrrererrrrrrrrrrrrrrrrrrrrrrrrrrrrrrrrrrrr",
"rrrrrrrrrrrrrrrrrrrrrrrrrrrrrrrrqrrrrrrreeeeeeeeeeeewttwrprrrreeeetwwrrrrrwtwrrrrrrrrrrrrrrrrretrrrreqrqrrrreqeqrrrrqrqrrrrrprrrreeerqrqrrrrereerrrrrrrrrrrrrrrrrrrrrrrrrrrrrrrrrrrr",
"rrrrrrrrrrrrrrrrrrrrrrrrrrrrrrrrrrrrrrrreeeeeeeeeeeeeeeerrrrreeeeeewrrrwtrrrrrrrrrrrrrrrrrrrreeerrrrrrrerrrrrrrrurqrrrrrururqrqreeeerrrrqeqerererrrrrrrrrrrrrrrrrrrrrrrrrrrrrrrrrrrr",
"rrrrrrrrrrrrrrrrrrrrrrrrrrrrrrrrqrrrrrrrreereeeeeeeeeeeerrreeeeeterrrrrrrrrrrrrrteeeerereeeeeeeeererererrererererrrrrrrrrrrrrrrreeeeeeeeeeqerrqerrrrrrrrrrrrrrrrrrrrrrrrrrrrrrrrrrrr",
"rrrrrrrrrrrrrrrrrrrrrrrrrrrrrrrrprrrrrrrerrrreeeeeeeeeeererreeeeeerrrrrrrrrrrrrreeeerereereeeeeerereeereererererrrrrrrrrrrrrrrrreeeeeeeeeeeeeqrrrrrrrrrrrrrrrrrrrrrrrrrrrrrrrrrrrrrr",
"rrrrrrrrrrrrrrrrrrrrrrrrrrrrrrrrrrrrrrrrrrrrreeeeerereeeeqr0eeeerrrrrrrrrrrrrrrreeerererreeeeeeeererererrererererrrrrrereeerrrrreeeeeeeeerrrrererrrrrrrrrrrrrrrrrrrrrrrrrrrrrrrrrrrr",
"rrrrrrrrrrrrrrrrrrrrrrrrrrrrrrrrrrrrrrrrrrrrrrrreeerereerereee0errrrrrrrrqrrrrrrwererereetwetewerererereererereerrrrrereerrerrrreeeeeeeererrrqrqrrrrrrrrrrrrrrrrrrrrrrrrrrrrrrrrrrrr",
"rrrrrrrrrrrrrrrrrrrrrrrrrrrrrrrrrrrrrrrrqrt0rrqr00rtrt0te4te0r0sr0s0rrqqt8rsq0s00rsese8rtr0t8s3s0t3s3st0et0s43s0et0r0ts0r0rr0t0reettete8rrrreqeqrrrrrrrrrrrrrrrrrrrrrrrrrrrrrrrrrrrr",
"rrrrrrrrrrrrrrrrrrrrrrrrrrrrrrrrrrrrrrrre0rs0psqese8t0teete4rpt0pqqrrt6sp0p0ttqrs08e8esr3tret8er0trsr>0trrs-ss3tt4s3s>ee4sr8s3ter8t84e8srrrrrrrrrrrrrrrrrrrrrrrrrrrrrrrrrrrrrrrrrrrr",
"rrrrrrrrrrrrrrrrrrrrrrrrrrrrrrrrrrrrrrrrs63pp0rrr6ps8tt8teesr8st6rpt7psr6s93ptpqqrs8s9,es3st8st80s8>ssqsrr00pqq0res8rs80p>st8ts0psqse9t8rrrrrqerrrrrrrrrrrrrrrrrrrrrrrrrrrrrrrrrrrrr",
"rrrrrrrrrrrrrrrrrrrrrrrrrrrrrrrrrrrrrrrq3ss6s0qqos6tt28t01srqrp1dpqpqqqpp<Od66dp.s8qsstt<tp8t.ppd8pd*.6qd8qsOrpspt8.t&8dr0tsrr0s91pytwespqqrrrqrrrrrrrrrrrrrrrrrrrrrrrrrrrrrrrrrrrrr",
"rrrrrrrrrrrrrrrrrrrrrrrrrrrrrrrrrrrrrrqrs0,6psqd.7d1ws8tws8 X .@.....+.1pd1X9pp9.9pqd;<sdd8pd.sqr.96d.dqpppq..d;r9p.ppd9pd90prp..X X +.qurrprqqrrrrrrrrrrrrrrrrrrrrrrrrrrrrrrrrrrrrr",
"rrrrrrrrrrrrrrrrrrrrrrrrrrrrrrrrrrrrrrrrt3spqp6pXpdp919tws9 9d97dpp9s9 d9w9 dqq.o.OO..%98<.d9%9.qd.puo9q9ppp.u9durp.prrrp...o.=+yyXy9p.ppqrqrrrrrrrrrrrrrrrrrrrrrrrrrrrrrrrrrrrrrrrr",
"rrrrrrrrrrrrrrrrrrrrrrrrrrrrrrrrrrrrrrqr6sr...O.   O @X8st1@waia7dpy79Xipadd f pp9o9.O7pd9d.7..duuop9.pudu9.9aqqd6p+79dqqdd.9pu.if ayy+<pururqqrrrrrrrrrrrrrrrrrrrrrrrrrrrrrrrrrrrrr",
"rrrrrrrrrrrrrrrrrrrrrrrrrrrrrrrrrrrrrrrrsqp.dquq.aa9si.swst X X X  X X wwX  d fp9d.su1d97d9uo.uypppqpo9aqpu.o..o9d6.paqppp6.p9d.     ..auprrrrrrrrrrrrrrrrrrrrrrrrrrrrrrrrrrrrrrrrrr",
"rrrrrrrrrrrrrrrrrrrrrrrrrrrrrrrrerqrrrruqpq.pd7p.pp1pp.s8d8.q9pp9iad7ppr0i.ppyay..i.ii<sw. X . ..pap9.9pqau.pp9Od=qo.qd7pua.dq7od9 iya strwrreerrrrrrrrrrrrrrrrrrrrrrrrrrrrrrrrrrrrr",
"rrrrrrrrrrrrrrrrrrrrrrrrrrrrrrrrrrerrrrrqpu.a7du..ppdp.ps,q.dq..o.....p8sr.wd9O 9adi.@wsdwi1$  a9.7ppoaqqpo.p9q.9ad.u.9ap.....d ai f9d ,twrrrer0rrrrrrrrrrrrrrrrrrrrrrrrrrrrrrrrrrrr",
"rrrrrrrrrrrrrrrrrrrrrrrrrrrrrrrr0rqrrrqqqppOp69op7Xq7r#<psd.9pqqaffp8prrr6#9.....  . 7X 1id y i up.d7.d9au.d.dd.9a7+d9.oq7u+9ap.  X    drwrrreeerrrrrrrrrrrrrrrrrrrrrrrrrrrrrrrrrrrr",
"rrrrrrrrrrrrrrrrrrrrrrrrrrrrrrrreeerrrrrrp6.udp.sw9op<.d7qqO9d7a7u7asw8trt<d.7aaiiaf pwsd1a.1Xd pd.<d.Ooq.d7O:.pp9p.9po9qdp.p=d di wad wrtwrreqqrrrrrrrrrrrrrrrrrrrrrrrrrrrrrrrrrrrr",
"rrrrrrrrrrrrrrrrrrrrrrrrrrrrrrrrqrrrrrqrp0so6d.pqs8q.p.7dd7.o..oo.o...XXrs98+7ud.yu1 dd9w9 siXi9.....+687d8wo9.pppq.rqqsq9q.ppdaif f19d9rrprrrrrrrrrrrrrrrrrrrrrrrrrrrrrrrrrrrrrrrrr",
"rrrrrrrrrrrrrrrrrrrrrrrrrrrrrrrrrrrqrrrrqqp.pOps9ssp.p.dq7uo:a7.a<pdqd8qt0sw.aa7.9apo9,dwd.w1 dsd7dp7.pdp9pp9+99q7d.papqdpp.qd8. .X ...rrprrrrrrrrrrrrrrrrrrrrrrrrrrrrrrrrrrrrrrrrrr",
"rrrrrrrrrrrrrrrrrrrrrrrrrrrrrrrrqrqrrrqrds6o.6rqp;dp6d.upp9.fyaoudp6oq>sr0pp.9d9.7ud.9dw8.sii.,w;d89q.d6qs8p.6oss9poqp6pp;r+O.ppp9 ups<pprrqrrrrrrrrrrrrrrrrrrrrrrrrrrrrrrrrrrrrrrrr",
"rrrrrrrrrrrrrrrrrrrrrrrrrrrrrrrrrrrrrrrr00pOqpuprsr8pq.p99fo:ao9upqs,orrrprr.up.qO.qptwwst8s0Xsrs3psp.6dp09osqq..q8.p8pppo.q6psqqd p9spqrwrrrrrrrrrrrrrrrrrrrrrrrrrrrrrrrrrrrrrrrrrr",
"rrrrrrrrrrrrrrrrrrrrrrrrrrrrrrrrrqeqerqrt0t s88trrs3pd.sp9ouuo...o.o.o.r0t0qrp.qppp..pp08p0r8Xrr6r0r8otrrt.rqppqr..p0pqrps88sq8pp9o8qrp0wrrrrrrrrrrrrrrrrrrrrrrrrrrrrrrrrrrrrrrrrrrr",
"rrrrrrrrrrrrrrrrrrrrrrrrrrrrrrrrrerrrrrrqs>+8srrttqr.3ospp.pu7fupp9ps.0ps8sp.o9ppq8po..pss9se.8esdqsq.0qd.prrr8tps3...o.q;dss.o..o..O..Orrrrrrrrrrrrrrrrrrrrrrrrrrrrrrrrrrrrrrrrrrrr",
"rrrrrrrrrrrrrrrrrrrrrrrrrrrrrrrrrqrrrrrrrt4Xr&st8t0rqor0ro99au6pp3qs9ss60s..0qsr3tpqs.6t*srteXte*prtqoprqrssr8tqt6tppt0t0d03qrrqrpd>sq00rrrrrrrrrrrrrrrrrrrrrrrrrrrrrrrrrrrrrrrrrrrr",
"rrrrrrrrrrrrrrrrrrrrrrrrrrrrrrrrreqerrrr0rteess>e0eetp0p6sqrpqd63ss3rr6rrp32sq0sts3080d8s0,st4res03sr0tqqr0*qppr0s0s30q0sr3pts3srd,ps8psrrrrrrrrrrrrrrrrrrrrrrrrrrrrrrrrrrrrrrrrrrrr",
"rrrrrrrrrrrrrrrrrrrrrrrrrrrrrrrrrqeqrrrr0s0ee42tr0rr04rss>0r0s>rsq0qs0pst0ssrp03e0tet4st08pr0et546srqqp0trpps08errs;sd8s3s00r;s600dqrr0rrrrrrrrrrrrrrrrrrrrrrrrrrrrrrrrrrrrrrrrrrrrr",
"rrrrrrrrrrrrrrrrrrrrrrrrrrrrrrrrrrrrrrrrrt0t8ertser4srr2eestrett0rs040s4q00;srtsee5t4t34p0ts>s>tr0ts,s,t>st-r3srqrrs202rpr3strrrs0pqpd0qrprrrrrrrrrrrrrrrrrrrrrrrrrrrrrrrrrrrrrrrrrr",
"rrrrrrrrrrrrrrrrrrrrrrrrrrrrrrrrrrrrrrrr4se>st2r0tree40ses>eeer0q00t0s-ss0srt03et55e5setpr88s4s0tr50s3s0rseets>t0s60s4str>s40r0trp6s03rsqrrrrrrrrrrrrrrrrrrrrrrrrrrrrrrrrrrrrrrrrrrr",
"rrrrrrrrrrrrrrrrrrrrrrrrrrrrrrrrrrrrrrret3tee4teeetr0tt4e4set4ertreep,sqqq0r0sr45eet5eteerpr0rer0ete0r0rr4rse0s0res00rerrr0rers0rqt0pqd6rrrrrrrrrrrrrrrrrrrrrrrrrrrrrrrrrrrrrrrrrrrr",
"rrrrrrrrrrrrrrrrrrrrrrrrrrrrrrrrrrrrrrrrrrrrrrrrrrrrrrrrrerererrrrrrrrrrrrrrrrrrrreerrrrrrrrrrrrrrrrrrrrrrrrrrrrrrrrrrrrrrrrrrrrrrrrrrrrrrrrrrrrrrrrrrrrrrrrrrrrrrrrrrrrrrrrrrrrrrrr",
"rrrrrrrrrrrrrrrrrrrrrrrrrrrrrrrrrrrrrrrrrrrrrrrrrrrrrrrrrrrrrrrrrrrrrrrrrrrrrrrrrrrrrrrrrrrrrrrrrrrrrrrrrrrrrrrrrrrrrrrrrrrrrrrrrrrrrrrrrrrrrrrrrrrrrrrrrrrrrrrrrrrrrrrrrrrrrrrrrrrr",
"rrrrrrrrrrrrrrrrrrrrrrrrrrrrrrrrrrrrrrrrrrrrrrrrrrrrrrrrrrrrrrrrrrrrrrrrrrrrrrrrrrrrrrrrrrrrrrrrrrrrrrrrrrrrrrrrrrrrrrrrrrrrrrrrrrrrrrrrrrrrrrrrrrrrrrrrrrrrrrrrrrrrrrrrrrrrrrrrrrrr",
"rrrrrrrrrrrrrrrrrrrrrrrrrrrrrrrrrrrrrrrrrrrrrrrrrrrrrrrrrrrrrrrrrrrrrrrrrrrrrrrrrrrrrrrrrrrrrrrrrrrrrrrrrrrrrrrrrrrrrrrrrrrrrrrrrrrrrrrrrrrrrrrrrrrrrrrrrrrrrrrrrrrrrrrrrrrrrrrrrrrr",
"rrrrrrrrrrrrrrrrrrrrrrrrrrrrrrrrrrrrrrrrrrrrrrrrrrrrrrrrrrrrrrrrrrrrrrrrrrrrrrrrrrrrrrrrrrrrrrrrrrrrrrrrrrrrrrrrrrrrrrrrrrrrrrrrrrrrrrrrrrrrrrrrrrrrrrrrrrrrrrrrrrrrrrrrrrrrrrrrrrrr",
"rrrrrrrrrrrrrrrrrrrrrrrrrrrrrrrrrrrrrrrrrrrrrrrrrrrrrrrrrrrrrrrrrrrrrrrrrrrrrrrrrrrrrrrrrrrrrrrrrrrrrrrrrrrrrrrrrrrrrrrrrrrrrrrrrrrrrrrrrrrrrrrrrrrrrrrrrrrrrrrrrrrrrrrrrrrrrrrrrrrr",
"rrrrrrrrrrrrrrrrrrrrrrrrrrrrrrrrrrrrrrrrrrrrrrrrrrrrrrrrrrrrrrrrrrrrrrrrrrrrrrrrrrrrrrrrrrrrrrrrrrrrrrrrrrrrrrrrrrrrrrrrrrrrrrrrrrrrrrrrrrrrrrrrrrrrrrrrrrrrrrrrrrrrrrrrrrrrrrrrrrrr",
"rrrrrrrrrrrrrrrrrrrrrrrrrrrrrrrrrrrrrrrrrrrrrrrrrrrrrrrrrrrrrrrrrrrrrrrrrrrrrrrrrrrrrrrrrrrrrrrrrrrrrrrrrrrrrrrrrrrrrrrrrrrrrrrrrrrrrrrrrrrrrrrrrrrrrrrrrrrrrrrrrrrrrrrrrrrrrrrrrrrr"
};
