/* XPM */
static char *net_xpm[] = {
/* width height num_colors chars_per_pixel */
"    25    50       16            1",
/* colors */
"` c #943e74",
". c #5c92c4",
"# c #7c6294",
"a c #44baec",
"b c #845284",
"c c #6c76ac",
"d c #34cefc",
"e c #8c467c",
"f c #4ca6dc",
"g c #6482b4",
"h c #3cc2f4",
"i c #7c5a8c",
"j c #000000",
"k c #000000",
"l c #000000",
"m c #000000",
/* pixels */
"hdddddddhddhdddddddddhddd",
"dddhddddddddddhddhddddddd",
"ddddddhddddhddddddddhdddd",
"dhdddddddhddddhdddddddddh",
"ddddddhdddddhdddhdhddhddd",
"ddddhdddhdddddddddddddddd",
"ddhdddddddddhdhdddhdhddhd",
"ddddhdhdhdddddddafddddddd",
"dddhfeiiiiibiibie`hdddddd",
"ddddf`ddddddddddciddhdhdd",
"ddddf`hhdcgdddcfgiddddddd",
"dddhf`fcdbi.dh`cgbdhddddd",
"hdddf`dgg`ac.f`hgidddhddd",
"ddddf`dheiddebidgbddddddd",
"ddhdf`hde`hdf`gdgidddhddd",
"ddddf`h.c`cdg`efgbddddddh",
"ddddf`diac`hehebgidddhddd",
"dddhf`fgda.ifdc`gbddddddd",
"hdddf`cddd.gdhaagiddhdddd",
"ddddf`hddhfdddddgbddddddh",
"dddhf`dddddddfffeidddhddd",
"dhddf`dhddhddac``.ddddddd",
"ddddafdddddddddffhdhdddhd",
"dddddhddhdddhdddddddddddd",
"ddhdddadddhddddhddddhdddd",
"ddddhdecdddggdddddhdddhdd",
"dddddf`.dhdeihdhadddddddd",
"dddhdigdddf`biib`.hddhddd",
"hdddfidabaci.ddg`addddddd",
"dddfehdiehba`hh`gddddhddd",
"dddg`ee`aifdg#ibhdhdddddd",
"dhddfhefhfddh``adddddhddd",
"dddddc.ddddhbbbi.dhdddddd",
"dddhi#fggf.egdhc``ifhddhd",
"ddha``i.fbbiggcgebgdddddd",
"ddddfhddfdgbfffg`ahddhddd",
"dddddddfgfcidddf`hddddddd",
"dhd.ci`c.dgidhdf`ddhddddd",
"dddgi.dhddcegggi`adddhddd",
"dddhddddddgidddf`fhdddddd",
"hddddhddhdfahddhadddddddd",
"dddddddddddddddhdddddhddh",
"ddddhdddhdddhddddhdhddddd",
"ddddddhdddhdddhdddddddddd",
"ddhddddddddddddddddddhddd",
"ddddddddddddddddddddddddd",
"ddddddddddddddddddddddddd",
"dhddhddhddhddhddhddhddhdd",
"ddddddddddddddddddddddddd",
"ddddddddddddddddddddddddd"
};
