/* XPM */
static char *qt_xpm[] = {
/* width height num_colors chars_per_pixel */
"    25    50       16            1",
/* colors */
"` c #8c467c",
". c #5c92c4",
"# c #6c76ac",
"a c #44baec",
"b c #7c5a8c",
"c c #6482b4",
"d c #34cefc",
"e c #845284",
"f c #4ca6dc",
"g c #3cc2f4",
"h c #7c6294",
"i c #648abc",
"j c #000000",
"k c #000000",
"l c #000000",
"m c #000000",
/* pixels */
"gdddddgdddddddgdddddddddd",
"dddgdddddgdddddddgddddddg",
"dddddddgdddgddgddddgdgddd",
"dddgddddddddddddgdddddddd",
"gddddgddgdgddgdddddddddgd",
"dddddddddddddddgddgdgdddd",
"dddgddgdddddgdddddddddddd",
"dddddaadgdgddddgddddddgdd",
"ddddgd`cdddddgdddgdgddddd",
"dgddda`fd.bbbbbbe`#ddgddd",
"dddddd`.ddagg`.dd`#dddddd",
"ddddda`fda#d.`fdf`fdgddgd",
"gdddgf`bbebff`add`fdddddd",
"dddcb#`cgddd.`gda`fdgdddd",
"dddgdd`.dgddc`adf`.dddddd",
"ddddda`fdddd#edd.`fdgddgd",
"ddgddg`.ddfd`cddf`fdddddd",
"ddddda`fdc#.`gdd.`gdgdddd",
"dddgdd`cbcde#dgdf`adddddd",
"ddddd.``fd#`gddd#`ddgddgd",
"dddddgbfd.`fdddd#`ddddddd",
"dgddgg`dcbgddb```cdgddddd",
"ddddddgc.ddddgf`bgdddgddd",
"dddddgddgdgddddgddgdddddg",
"ddgdddddddddddddddddddddd",
"dddddfe.ddcffffffc.ddgddd",
"ddddd#`fdd`hcccc#`egddddd",
"dddgdeefei`fdddddbcdddgdd",
"gddda`#ccc`c#ccbebcgddddd",
"ddddc`ddaa`gfffffhcddgddd",
"dddd`#c#`.`.add.decdddddd",
"dddc#c`iff`fe`#`.bcdgdddd",
"ddd.df`.gd`.b#d`iecddddgd",
"dgd.cb`#`#`fbca`fbcgddddd",
"dddgfc`#ff`.bbf`fecdddddd",
"ddddd.`fda`fbb#`fbcdddgdd",
"ddgddf`.af`.b.dbab#dgdddd",
"ddddd.`hea`fdgdddbcdddddg",
"dddddf``gd`.ddacf`cddgddd",
"dddgdgbgda`fddd.``fgddddd",
"gddddgddgdcggdddfaddddddd",
"dddddddddddddddgdddddgddg",
"ddddgdddgdddgddddgdgddddd",
"ddddddgdddgdddgdddddddddd",
"ddgddddddddddddddddddgddd",
"ddddddddddddddddddddddddd",
"ddddddddddddddddddddddddd",
"dgddgddgddgddgddgddgddgdd",
"ddddddddddddddddddddddddd",
"ddddddddddddddddddddddddd"
};
