/* XPM */
static char *sc_xpm[] = {
/* width height num_colors chars_per_pixel */
"    25    50       16            1",
/* colors */
"` c #943e74",
". c #648abc",
"# c #7c6294",
"a c #3cc2f4",
"b c #845284",
"c c #4ca6dc",
"d c #647eb4",
"e c #8c467c",
"f c #5c92c4",
"g c #746ea4",
"h c #34cefc",
"i c #7c5a8c",
"j c #000000",
"k c #000000",
"l c #000000",
"m c #000000",
/* pixels */
"ahhhahhahhhhhhhhhahhhahhh",
"hhhhhhhhhahhahhahhhahhhha",
"hhhahhahhhhhhhhhhhhhhhhhh",
"hhhhhhhhhahhhhhahhahhahhh",
"ahhhahhahhhhahhhhhhhhhhhh",
"hhhhhhhhhhhhhhahhahhahhha",
"hhhahhhhhhahhhhhhhhhhhhhh",
"hhhhhhhhhhhhhhhhhdfhhahhh",
"hhhhhidifgddiaahhiihhhhhh",
"hhhaa`dbdigd`acgaidhahhha",
"ahhhh`fididc`ac`aidhhhhhh",
"hhhha`cididc`hc`hidhhahhh",
"hhhah`cididc`ac`abdhhhhhh",
"hhhha`cididc`dc`hidhhahhh",
"ahhdi`e`e`ee`bf`hbdhhhhhh",
"hhhha`hidicc`ac`hidhhahhh",
"hhhhc`hidecc`ac`abdhhhhhh",
"hahhc`hbd`cc`hc`hidhahhha",
"hhhhd#hid`ac`ac`hidhhhhhh",
"hhhh#fhiibhc`hahhbdhhahhh",
"hhha`dd``dhc`ahhhidhhhhhh",
"hhhfdagbecibeaaii`dhhhhhh",
"ahhdahacdhabchaagbahahhah",
"hhhhhhaahhahhhhhahhhhhhhh",
"hhhahhhhhhhhahhhhhhahhhhh",
"hhhhhffcccccccccdfhhhhahh",
"hhahhd`dddddddddebhhahhhh",
"hhhhhd`ahhhhhhhhidhhhhhhh",
"hhhahd`dddddddddedhhhahhh",
"hhhhhd`cccccccccidhhhhhha",
"hhhhhd`ahhhhhhhhcahhahhhh",
"hahhhd`hgiiiiibb`fhhhhhhh",
"hhhhhdbhaahahhhhhhhhahhah",
"hhhhadihahhhhahhhdchhhhhh",
"hhahhidiiiiebiiiiiiahhhhh",
"hhhhhefhhhae`ahhahhhhhahh",
"ahhha`ahhh#`chfhhhahahhhh",
"hhhhdihhhf`chhfichhhhhhha",
"hhhabchhdiahaccg`chhhahhh",
"hhhcghhc```eiiddeihahhhhh",
"ahhdahahfchhahhhcfhhhhhhh",
"hhhhhhhhhhhhhhhahhhhhahha",
"hhhhahhhahhhahhhhahahhhhh",
"hhhhhhahhhahhhahhhhhhhhhh",
"hhahhhhhhhhhhhhhhhhhhahhh",
"hhhhhhhhhhhhhhhhhhhhhhhhh",
"hhhhhhhhhhhhhhhhhhhhhhhhh",
"hahhahhahhahhahhahhahhahh",
"hhhhhhhhhhhhhhhhhhhhhhhhh",
"hhhhhhhhhhhhhhhhhhhhhhhhh"
};
