/* XPM */
static char *ygcl_xpm[] = {
/* width height num_colors chars_per_pixel */
"   120    28       16            1",
/* colors */
"` c #040204",
". c #4c7e94",
"# c #74c2e4",
"a c #243e4c",
"b c #84dae4",
"c c #5c9abc",
"d c #3c6674",
"e c #8ceafc",
"f c #14262c",
"g c #64b2cc",
"h c #2c5264",
"i c #74cafc",
"j c #84dafc",
"k c #000000",
"l c #000000",
"m c #000000",
/* pixels */
"iijeeeeejjiiiijjeeeeeeeejjiiiiiiijjjjeeeeeeeeeeeeeeeeeeeeeeeeeeejijjijiiiiijjeeejii#jeeeeeiiieeeejiijeeejiieeejiieeejije",
"iijeeeeejii#ijjeeeeeeeeejjjii#iiiijjjjejeeeeeeeeeeeeeeeeeeeeejjjjjiii#iiijjeeeejjiijjeeeeji#jeeeejiieeeeji#eeejiieeeiiee",
"iijeeeeejiiiijjeeeeeeeeeijijiiiiiijiijjjjejeeeeeeeeeeeejejjjjjiiii#iiiijjeeeeeejji#ieeeeejiijeeeeji#eeeeiijeeejijeeeiiee",
"iijeeeejjiiiijjeeeeeeeeejjjiiiii#iiijjjjjjejjejeeeejjjjj#jj#iiiiiiiijjjeeeeeeeejiiijeeeeei#ijeeeeiijeeej#ijeeei#jeeeiiee",
"iijeeeejiiiijjeeeeeeeeeejjiii#iiiiiij#jjjjjjjjjjeejjjiijiiiiiii#iijjejeeeeeeeeejiiijeeeeejiijeeeeiijeeeeiijeeeiijeejiiee",
"iijeeeeiiiiiijeeeeeeeeejjjijiiiiii#iiij#jjijjjjeeeijiiiiiiiii#ijjjeeeeeeeeeeeejji#ijeeeejiiieeeej#ijeeejiieeejiieeej#jee",
"iijeeeeiiiijjeeeeeeeeeejjjjii#..d.giiiiijiijic##jca.#i#iiiiiijjjeeeb.beeeeeeeeejiiieeeeeei#ieeeejiijeeejiieeeeiieeeeijee",
"ijjeeeeiii#jjeeeeeeeeeejdhdaf`f`aacji#iiijiid`aii#h`.###iiijje.ceeeeffbejieeeeejiijjbeeb#g.ahbeejiieeeej#ieeej#ieeeiijee",
"iijeeeeiiijjeeeeeeeeeejed`d..`fi#iiiiiii#g.f`hcgccdaafh#jjjeeeh`ceeeafbjjiieeei#ccd.aadf`fha``eej#ijeeejiieeeeiieeejijee",
"iieeeeii#jjeeeeeeeeeejejhfee.`.jiii#iiiii.dfaigdhfhddccjjjeeebffeeeehf#jiieeeegh```dh`gc`.eg`heejiieeeeiijeeejiieee#ieee",
"ijjeeeiijjeeeeeeeeeeeijja`#g`f.hahd#ii#ijjed`.dcc..dd.eeeeeeec`a.d.eha#ijijeee#c.`.eg`..`fdd`geejiieeeejiieeejiieeejijee",
"ijeeeeijjeeeeeeeeeeejejjf`ffah..h``ciiic.hh`faccfd.a`.eeeeeeea`df`fihhaadjeeeeeeg`hebfhd`dca`beej#ieeeei#jeeej#jeeeiieee",
"jjeeeejjeeeeeeeeeeejejj#`hffchh..`diii#dfha`agji`hdffeeeeeeeg`.eh`cjad.f`aeeeee#d``hgf.gac#ffeeejiieeeejiieeejiieeeiieee",
"ieeeeijeeeeeeeeeeejejjj.`ghfh..ch`cii#i##gf``fgi.dcg##geeeebf`cgff#ihhjb.aeeee#hf`h#ehfa`fa`.eeejiieeeeiijeeeiijeeeiieee",
"jjeeejeeeeeeeeeeejejiijffi.`c.dd`ai#iiiiihf`dhdccddhaf`a#eedhgf``cijffjeeeeeeeejc`.bbcg.fc#.beeej#ijeeejiieeejiieeejijee",
"jeeejeeeeeeeeeeejjjijic`.iifaf`.d.jiiiijh`cf.d`hhdddgea`bebgeec``dieffeeeeeeeeeeg`aaa.g.`aaceeeejiieeeei#jeeej#jeeei#eee",
"eeeeeeeeeeeeeejjjjijijff#ic##.fggc#iii#hfc#`cg`jaad`aeafeeeeebfad`a#fdeeeeeeee#gh`f.b.ff`h.ceeeeji#jeeejiieeeeiieeeiijee",
"eeeeeeeeeeeeejjjji#ijd`cig`#i.`#d`ac#ichgj#`.g`gafd`be`aeeee#`fbecf`f.eeeejee#```d#eeeegfieejeeejiieeeejiieeejiieeejieee",
"eeeeeeeeeejjjjij#iiic`di#a`geg`cjd`fgiiiijc`cg`cca.gbg`heeec`h#ijeeh`fdc#jeieb.dcj###ggd`aafffdejiijeeeeiieeeeiieeejijee",
"eeeeeeeeejjjiiiiiii#fd#ig`h#ha`cjj.hgiiiijc`gj`cebee.f`.eecaciiijeeecf```ff.eeeeei.`fhd..d..d..beiijeeeji#eeeji#eeej#jee",
"eeeeeeejjjiiiiiiii#g.iijicgi.`fcjiiii#iiiijcijcebeeebfaeeei##iijjeeeeb.dd.g#jeeeji##gbeeeei#jeeeej#ieeeeiijeeeiijeejiiee",
"eeeeejijii#iiiiiiijiijjijjjj#.djiji#iiii#iiijjeeeeeeebbeeijiiiijeeeeeeej#iijeeeejji#jeeeejjiieeeejiieeeeiieeeeiieeejijee",
"eejjjij#iiiiiiijjjijjjjjjjjjjjjijiiiiiiiiijijjejeeeeeeeejjiiiijjeeeeeeiiiijeeeeeejiiieeeeeiiijeeejiijeeeiiieeejijeeeiiee",
"jjjiiiiiiiiijjjjjjjejjejejjjjjjjjijiii#iiiijjjeeeeeeeeejjiiiijjeeeeeejjiijjeeeeeejiiijeeeejiijeeejiieeeejijeeejijeeeiiee",
"iiiiiiiiijjjjjejeeejeeeejeeejejjjjjijiiiiiiieeeeeeeeeeeejiiiijjeeeeeeiiiijeeeeeeeejiijeeeejiijeeeeiiieeeeiieeejiieeeiije",
"iiiiiiijjjeeeeeeeeeeeeeeeeeeeejejjjjiiiiiejjjjiiiiiijjjjjeiiijeeeeeejiiijeeeeejeeejiiieeeeeiiieeeejiieeejiieeejiieeejiee",
"iijjjieeeeeeeeeeeeeeeeeeeeeeeeejejjjiejijiiijijjjjjjijiiijjjeeeeeeeejiiijeeeejijeejjiijeeeejiijeeejiijeeeiijeeeiijeejije",
"jejeeeeejjeeeeeeeeeeeeeeeeeeeeeeejejjiiijjeeeeeeeeeeeeeejiiijeeeeeejiiijeeeeejieeeejiijeeeejiijeeeeiieeeejijeeejieeejije"
};
