/* XPM */
static char *scck[] = {
/* columns rows colors chars-per-pixel */
"130 40 81 1",
"  c #000604",
". c #000B05",
"X c #000E0A",
"o c #001006",
"O c #00130C",
"+ c #00180F",
"@ c #001612",
"# c #001A13",
"$ c #01221B",
"% c #A0BDB8",
"& c #A9BFBC",
"* c #8DC2B8",
"= c #94C3BA",
"- c #95CABF",
"; c #9CC5BE",
": c #98CABF",
"> c #A0C3BF",
", c #A9C4BF",
"< c #96CCC1",
"1 c #9CC7C0",
"2 c #9BCCC3",
"3 c #96D0C2",
"4 c #9CD1C6",
"5 c #9ED4CA",
"6 c #9FDACC",
"7 c #A6C7C0",
"8 c #A3CCC5",
"9 c #A5CEC8",
"0 c #ABC6C3",
"q c #ABCBC5",
"w c #AACDC8",
"e c #A3D1C7",
"r c #A3D4CB",
"t c #A4D9CE",
"y c #ABD4CC",
"u c #ABD9CE",
"i c #A4D7D0",
"p c #A7DCD2",
"a c #ACD7D0",
"s c #AADBD3",
"d c #B0C4C2",
"f c #B3CCC6",
"g c #B3CEC9",
"h c #BACFCD",
"j c #B3D4CD",
"k c #B4D8CE",
"l c #B9D3CE",
"z c #B5D6D1",
"x c #B3DCD4",
"c c #B5DED8",
"v c #BAD5D1",
"b c #BBDAD4",
"n c #BBDDD9",
"m c #A7E2D4",
"M c #A7E5D8",
"N c #ABE1D6",
"B c #ADE3D9",
"V c #ADE9DD",
"C c #B3E1D7",
"Z c #B3E4DB",
"A c #B4E9DE",
"S c #B8E0D7",
"D c #BAE3DB",
"F c #BBE9DF",
"G c #B5EBE1",
"H c #BBE7E0",
"J c #BBEBE2",
"K c #B8F0E7",
"L c #BEF2E9",
"P c #C1CFCF",
"I c #C2D6D4",
"U c #C2DAD5",
"Y c #C1DED9",
"T c #C8DEDC",
"R c #C3E3DC",
"E c #C9E0DA",
"W c #C4E3E0",
"Q c #C3ECE6",
"! c #CAE6E1",
"~ c #C0F6E9",
"^ c #D0E6E3",
/* pixels */
"ppppppppppppppppppppppppppppppppssssssppppsppsssissMisssssssssssssssiiMMiiiMiMissssppppmmmppsssssppppppppppppppppppppppppppppppppp",
"ppppppppppppppppppppppppppppppppppsssisiisspppppppssiissspsssssssssMMiisssMiMissssspppm66mipissspppppppppppppppppppppppppppppppppp",
"ppppppppppppppppppppppppppppppppppppsppppppppppppppsisMsppppipsisiiMiMiiMiMiiiiMppppppppm6mppppspppppppppppppppppppppppppppppppppp",
"pppppppppppppppppppppppppppppppppppipppppppppppippssissMppppppspsMsiMiMMMiiMMMiipppppp6pimmippsppppppppppppppppppppppppppppppppppp",
"ppppppppppppppppppppppppppppppppiMimpp6ppppppmimiMMiiMiipppptmttiiiMiM6iMiiMiMiMppppm6ppm6imimpppppppppppppppppppppppppppppppppppp",
"pppppppppppppppppppppppppppppppp6MMimppppp6pimmmMiiiMiiMmpppmtmmiMiMMiMii6MiMiMippppppppmmmipipppppppppppppppppppppppppppppppppppp",
"ppppppppppppppppppppppppppppppppM66mmmppppppmim6iMiMiMMimt6ttmm6Miii6M6MipMiiiiMppppp6ppimimpppppppppppppppppppppppppppppppppppppp",
"pppppppppppppppppppppppppppppppp6M66mipsppppimmimiiMiiiMtmmmm6mmiMiMMiiippiiMMiipppppmppimimpppppppppppppppppppppppppppppppppppppp",
"pppppppppppppppppppppppppppppppp5M6MMV5cpiss5ippp6pp4NrZtN-V6m6m666m5NuripA2sA5ts4sV5psis6Bppss5pppppppppppppppppppppppppppppppppp",
"ppppppppppppppppppppppppppppppppV66M<5J2scriZG<ZiB4BAut:tNCm6rV6Mm6BN4CxBB9sprpNpGp<pH4GssrsiBpspppppppppppppppppppppppppppppppppp",
"pppppppppppppppppppppppppppppppppipcGsacrHs99C4srAs9utFZu:utFm:m3mBueFu82xaxexZeprtAG<Z4rGirG5rZpppppppppppppppppppppppppppppppppp",
"pppppppppppppppppppppppppppppppp5iVi2awaxyxxx2DycXscxyeeuFu+:tCtZM:uuexnHxX.#ooscrrD2sxxc1H9OGsrpppppppppppppppppppppppppppppppppp",
"ppppppppppppppppppppppppppppppppVs5sz@XXzXXXwHaay@k..o.ouu:oFuCumrCDu.+...+bykeS9Hsi.X@X@.XiXiispppppppppppppppppppppppppppppppppp",
"ppppppppppppppppppppppppppppppppiiscwXwXW n@7cXDgOq.kxc.Su+uoeyuNuu:kD7lYb qjbk8sttsycyaxXcx@=ZZsppppppppppppppppppppppppppppppppp",
"ppppppppppppppppppppppppppppppppiBacnXWXd@n nz.wn.v.R,.bk,oSy+xyC:S+...X  .o..OoXoHyaawxXxy9XHs4ippppppppppppppppppppppppppppppppp",
"ppppppppppppppppppppppppppppppppcs9na v hXv zqObv.j.jXkjkobkkj.yuFeyknfvlU.jllqSss9ixacXnwncXacispppppppppppppsppppppppppppppppppp",
"ppppppppppppppppppppppppppppppppp:FkS.I P IXlj.kj.v.k.bf......RoomuyS,$o.......kutptssn.n8nxX9sZprsisppppssppppppppppppppppppppppp",
"pppppppppppppppppppppppppppppppptF8...X  X   +.bl+k.,yo.ITf.Ufbkmemmkk.bII.f,I.kuBtruS;Ow@X9#ca5H5BB5B5Bpsipsppppppppppppppppppppp",
"ppppppppppppppppppppppppppppppptutskb.P PXfXR8.zf.qobk.vb&^.fgjyum:CyS+. . ....Et6NtAxDXXznaXc2Z4G45ssspsppppppipppppppppppppppppp",
"ppppppppppppppppppppppppppppppppNuS8k#d.I h 7R.RE fokk.j....o.#oueCkRq.vUU.UIh.vCmAN19XOaz9x@wxciGBiGis5ipppppmipppppppppppppppppp",
"pppppppppppppppppppppppppppppppptrxcz I I TXvz$;,O!..S.jjUE.bkyxZues,k.. .  .o#quri@O#cX9jQ7XaC1Z=cBiiicppppmimipppppppppppppppppp",
"ppppppppppppppppppppppppppppppppAruca@v h v b8.cUo%+g.kyb.kog+ueueckSjblIfXIUffjuiA2Xx1XWwnxXauciH9sisiZppppim6Mpppppppppppppppppp",
"pppppppppppppppppppppppppppppppp<J98@znXh YXyxocg.R@9ynxwoj.keoCucyny..X.O. .+.oCrCs9acX9cz9XxyacrssGsiippiMMimiippppppppppppppppp",
"pppppppppppppppppppppppppppppppppssxXny vXq.cycwkXg.Skex.ub.uuuo.xx9kbbjUd.UjfRgaB<J9azXanwa#9czaXss5p5Bppmi6M6Mpppppppppppppppppp",
"ppppppppppppppppppppppppppppppppssiXa@XXa@wXQ2saj.n.yx8Ouxy.cC4u.Qyc9nzzng YjqR,CrCci@9OaycxXFaui@xrcprsppimmi6imppppppppppppppppp",
"ppppppppppppppppppppppppppppppppiZs$i>@yXxXXsJcX.#w.Cr+uk.noe:~ps1x.XXX@  XX..o+X+2rs9OyaJ1iFXXXXXysisssppmi6mM6ippppppppppppppppp",
"ppppppppppppppppppppppppppppppppisi5Zscsx9ss9iisXyc.Cuetuc.uJNt3rsCraHsixyDaSkeucriAscHiicsyiissD8strAspppppmm6mmppppppppppppppppp",
"ppppppppppppppppppppppppppppppppBiZiciZisssrZsc5wc9N:AANsxcueNtmBZ2AisZssx=HSukC4ACrri5Bc2ZrZsirrsp~s52Appppimimpppppppppppppppppp",
"ppppppppppppppppppppppppppppppppsiiB<5GiB5ipi5GcxssAN-mrucriArrMpiBisiisurA3tttuZr2AiZps2J5iiG6Bps5trZsppppppppppppppppppppppppppp",
"ppppppppppppppppppppppppppppppppisZBZViBsiLpG5<sipp*mA6NsyQ1spB65K<VMsppNtG4NNut4ZB5A2B6G<Gp6r5pssAp4ssipspppppppppppppppppppppppp",
"ppppppppppppppppppppppppppppppppsis2s5ipiV5piGssCrNVmmtpA21Dsp5VB5B5pM6i4m4At3mNspiBsp<V5GppBpMmi5ipNprpispspppppppppppppppppppppp",
"ppppppppppppppppppppppppppppppppBiiViBViM5Mspsstppp5m4NNiCssprG5B5MBiiMmMm66mmmtiBippmppB53V5ppipVpiNsiBpspsispppppppppppppppppppp",
"ppppppppppppppppppppppppppppppppppppppppppppppppppppppppppppppppp6pmpp6ppppppppppppppppppppppppppppppppppppppppppppppppppppppppppp",
"pppppppppppppppppppppppppppppppppppppppppppppppppppppppppppppppppppppppppppppppppppppppppppppppppppppppppppppppppppppppppppppppppp",
"pppppppppppppppppppppppppppppppppppppppppppppppppppppppppppppppppppppppppppppppppppppppppppppppppppppppppppppppppppppppppppppppppp",
"pppppppppppppppppppppppppppppppppppppppppppppppppppppppppppppppppppppppppppppppppppppppppppppppppppppppppppppppppppppppppppppppppp",
"pppppppppppppppppppppppppppppppppppppppppppppppppppppppppppppppppppppppppppppppppppppppppppppppppppppppppppppppppppppppppppppppppp",
"pppppppppppppppppppppppppppppppppppppppppppppppppppppppppppppppppppppppppppppppppppppppppppppppppppppppppppppppppppppppppppppppppp",
"pppppppppppppppppppppppppppppppppppppppppppppppppppppppppppppppppppppppppppppppppppppppppppppppppppppppppppppppppppppppppppppppppp",
"pppppppppppppppppppppppppppppppppppppppppppppppppppppppppppppppppppppppppppppppppppppppppppppppppppppppppppppppppppppppppppppppppp"
};
