/* XPM */
static char *scdyc[] = {
/* columns rows colors chars-per-pixel */
"130 40 86 1",
"  c #000604",
". c #000B05",
"X c #000D09",
"o c #001007",
"O c #00120B",
"+ c #00190F",
"@ c #001511",
"# c #001A14",
"$ c #021C18",
"% c #032620",
"& c #93BCB6",
"* c #9DBEB7",
"= c #8EC8BC",
"- c #95C4BB",
"; c #94C9BF",
": c #9BC4BC",
"> c #99C8BE",
", c #A0C1BA",
"< c #A9C2BE",
"1 c #95CCC2",
"2 c #9BCCC3",
"3 c #9DCFC8",
"4 c #96D1C5",
"5 c #96D4C9",
"6 c #9BD1C6",
"7 c #9DD4CA",
"8 c #9DD9CD",
"9 c #9EDDD1",
"0 c #A3C7C1",
"q c #A3CCC5",
"w c #A4CFC8",
"e c #AAC7C2",
"r c #ABCCC5",
"t c #ACCEC9",
"y c #A3D1C7",
"u c #A3D5CC",
"i c #A3D9CE",
"p c #ACD0C6",
"a c #ABD4CC",
"s c #ABD9CF",
"d c #A5D7D0",
"f c #A7DCD2",
"g c #ACD6D0",
"h c #AADBD3",
"j c #ACDFD8",
"k c #B7C7C6",
"l c #B2CBC6",
"z c #B2CECA",
"x c #BBCDCB",
"c c #B3D3CD",
"v c #B9D2CE",
"b c #B4D5D1",
"n c #B3DBD4",
"m c #B3DFD8",
"M c #BAD6D1",
"N c #BBDBD5",
"B c #BCDED9",
"V c #A5E1D6",
"C c #A7E4D9",
"Z c #ABE1D6",
"A c #ADE3D9",
"S c #ADE9DC",
"D c #B3E0D6",
"F c #B3E4DB",
"G c #B4E9DE",
"H c #BAE0D7",
"J c #BAE3DC",
"K c #BAEADE",
"L c #B5EBE1",
"P c #BCE7E0",
"I c #BAECE3",
"U c #B0F0E2",
"Y c #BFF1E8",
"T c #C0CECE",
"R c #C0D3D1",
"E c #C0D9D5",
"W c #C3DFDA",
"Q c #CCDEDC",
"! c #C1E3DD",
"~ c #C0E8DF",
"^ c #CAE3DF",
"/ c #C4E6E1",
"( c #C2EAE3",
") c #C8E7E1",
"_ c #CDEAE5",
"` c #C4F1EA",
/* pixels */
"fffffffffffffffffffffffffffVff9VffffhhhhhhhhffVdhhhdhhhdfffffffffffffhfffffffffVffffffffffhfffffffhhhhhhfffffZsfsZifffffffffffffff",
"fffffffffffffffffffffffffff99fVfVfffhhhhhhhfffdjjdhhhdfhffffffffffffffffffffffViffffffffffhfffffhfhhhhhhfsffsfZfZiffffffffffffffff",
"ffffffffffffffffffffffffffffViifZfffhhhhhVfffffjdhhhffhfffffffffffffffffffffffsfffffffffffffffffhfhhdjhjfVsZffffffffffffffffffffff",
"ffffffffffffffffffffffffffffiViVfffZfffhffff9jfjhhffhffffffffffffffffffsffffffffffffffffffffffffffffjdjdfffZZfffffffffffffffffffff",
"ffffffffffffffffffffffffffffffffff9fffffffdf9fff9ff9ffffVifffffffffViViVffffffffffffV9fffff9ffffffff9f9fVisZsViZffffffffffffffffff",
"fffffffffffffffffffffffffffffffffffff9fffff9fffffVfff9f9ffffffffffiVViViffffffffffffifffffffffffV9V99fffiVZiViViffffffffffffffffff",
"fffffffffffffffffffffff9ffffffffZfff9f9999fjfff9V9fVfff9f9fffffffff9iViVffffffffffffVifVfff9fffff99fff9fViViiVViffffffffffffffffff",
"ffffffffffffffffffffffffffffffffsffffff9j9jdffffVfVf99ffffffffffffffViViffffffffffffiVfVfffffffffVf9ffffsisViVV9Vsffffffffffffffff",
"ffffffffffffffffffffff9fiZfyfFwFD2Fs7ZZi>SZiAyDuVff9iZfffffffffffijj6FjfF7sFyZjujffjjf8ViC7ZjuZuff9VfsffiZiZZ6S8Vfffffffffffffffff",
"ffffffffffffffffffff9fffifZFFwgasKqFuZ;SYi-GiAayf5ZLj8f8fffffffffsjuZu1fusf7fFuZyfhf7ZL8ffSufjfFffifssssDsffiS9iifffffffffffffffff",
"fffffffffffffffffsffff99SV7ufg(ascnsyiFi7iIayD(nhfZ1LuuZfffffVff2jfFyj`uF3hFfduZnhujju;SS6jfiaaussssssssssiiiZ4SVsffffffffffffffff",
"ffffffffffffffffsZffffVi4AZhgPqbsHanHDssDyoHssrsnhghXjhfffffffffKhuXmF2u7FyZujhfn2`XyIffiifLuJFnnshnnbbnnDHySZ99Vfffffffffffffffff",
"fffffffffffffffffffff9VVZj3fn0X#.t..ossyDnop.o.OXumPX3mfffffffffgbnXXX$OojfuuFuZaP2X3FuuZF3ahtX ........oo>ss>SZifffffffffffffffff",
"fffffffffffffffffffffff9ffdnhn#tOloN.pso>DoHoNvzXP0OhXFgffffffffat mbmau.ujFuhfjab#B@uZf2ZFhmn.BcccvvvvvHonDfSZ;Viffffffffffffffff",
"ffffffffffffffffhhff9Vfff7jjngXb.R.cocHoHpOc.Nv.WbBXBgXaffffffffJXbabnt#nK7jfZG2gXqan.oDfugjna.cvvvvvvvvz.anZi8iVfffffffffffffffff",
"ffffffffffffffffsfffffVfZfFugbXM.x.N.NpocnopOv.RbtXBrnmXhffsfiffXBO bbXahyJamufn WbBwFaomhunqnoo.. ... .oon>DifZsfffffffffffffffff",
"fffffffffffffffffhffVffffZfabbOMXxXkXlc.pc+p.M.vE.oo...HoosZssaoNNrN..~psnyDpD.o..# . ..+oonas.MtNbtBbzBcmsDisufffffffffffffffffff",
"fffffffffffffffffhfffi9f6FuD.X X   X.+..Hc.Molv..ccR !v,apss>Dnntt..cENcpDsDo.MlRc<oxv!b<+a>~coMnXX#XXXXXufiZZAZffffffffffffffffff",
"ffffffffffffffffshffiVViZiZymtXzXT xXNc.,MozoNN.cEWl.<!NDssssHya..Nt.ennnDyysn!pzM^.RNccNssscp.cBdwwgnmgwFFii4Z8Vfffffffffffffffff",
"fffffffffffffffffhffVi9VZ4uDna#M Q k rN.~H.c.zv.c....$..osKysOO.nn*.#...oooFpH.oO...o....oDaH~.cqPnBmqntFuyjAC8Vifffffffffffffffff",
"ffffffffffffffffhhffffViuFP3mbXzXkXQov).<s.NO.v.WcNcozNcpD>Ka>nsnq%ttcnsnoDyggtMbM_ vczsauaD:gX XXX@ @X@ X@2ssffffffffffffffffffff",
"ffffffffffffffffffffffiVZd1gmmXN R x rtoMH.H._.vtH c.cosHZi>IhaH..,#ccHaoyKZngBXcnc N.!nJyFDntXNz^XzBzbtqBbKK7ffffffffffffffffffff",
"ffffffffffffffffffffffffuZL3mXbg v NXN).Hr+roccsna./occo>sFZ2F..y(np.HpoF6;Faa(X#nt.pco.yG2ugK g!&@ggmaOJ1F698S8Vfffffffffffffffff",
"fffffffffffffffffhffffffZ1jnuXnb.M.c.crNp~.coccNnonp+cNs+oiiZfnhnaDpJ..hiAZshj0@0Jn.Jct#.uDjwaXbnXnnnuJu.jff9U5Vifffffffffffffffff",
"ffffffffffffffffffffffffjfyf.PXO.NOc.Hasan.B bBa.snn@tunjXfjAuJwFyn.@gnnjddfhjXBny(.btPXj77jd@tbX X X XX .JgufZfffffffffffffffffff",
"ffffffffffffffffffffffff3jLfOuuOn.pOO-HDO.+a.JtXiG.b.JIgdjjf7huFo$oadm2d3jf9hX(dh$a.PB-jdjdAjXmbbbbbbbbbX/wmjuZiffffffffffffffffff",
"ffffffffffffffffffffffffFZyjfgFgsHs>sKnqs$ay+anhF3j#aanwjdf5LXOXFifngJjdSS1Vj3whafofdgLdC1jjXugdghhhgggj7F;Z7S8VVsffffffffffffffff",
"ffffffffffffffffffffffffZ2FudjuhhaFsFynhD>DshfudiZu3Fhuj8C9Sd1F7u3PfdudC9CfC9IuFffFuF1dj9Sf9jPgmhhhdhdhdI7VVV8V5Vfffffffffffffffff",
"ffffffffffffffffffffffffuLffFudfuZ2iDfujsiKi3dLhdCC3gPhhj59jfFhLfIdF3mF8j59V1ChduZdhdIjfdV98C2Jggdhdhghg:JfDu7Ausfffffffffffffffff",
"ffffffffffffffffffffffff3ffuuuIuAL4LiuF7iG7ZLh7f95Fjhg3jj9CV8f73L1ddhhdF8VS9L7jjf9fdhhd99C5Uj3mdjhjhgjggI>uj2AZZffffffffffffffffff",
"ffffffffffffffffffffffffI3Gffiuj86ZiffZS6Zif3fFfj9jdhI3fC5C9f8LA7ZhIdhj3U5995LhhfCdFhdC8f9V5fCjdff99dfhh2FKuGiVuffffffffffffffffff",
"ffffffffffffffffffffffffufjiiAffVZ8iVC7VViZiCj5j9jhhhdAh9Cj5fS38juAdhdjd5CCdC9dhS4L79FdjV9VV9hujffVffffhZ8VuiV8ZVfffffffffffffffff",
"fffffffffffffffffffffffffffffffffffffffffffffffff9fffffffffffffffffffffffff9ffffffffffff9fffffdfffffffffffffff9fffffffffffffffffff",
"ffffffffffffffffffffffffffffffffffffffffffffffffffffffffffffffffffffffffffffffffffffffffffffffffffffffffffffffffffffffffffffffffff",
"ffffffffffffffffffffffffffffffffffffffffffffffffffffffffffffffffffffffffffffffffffffffffffffffffffffffffffffffffffffffffffffffffff",
"ffffffffffffffffffffffffffffffffffffffffffffffffffffffffffffffffffffffffffffffffffffffffffffffffffffffffffffffffffffffffffffffffff",
"ffffffffffffffffffffffffffffffffffffffffffffffffffffffffffffffffffffffffffffffffffffffffffffffffffffffffffffffffffffffffffffffffff",
"ffffffffffffffffffffffffffffffffffffffffffffffffffffffffffffffffffffffffffffffffffffffffffffffffffffffffffffffffffffffffffffffffff",
"ffffffffffffffffffffffffffffffffffffffffffffffffffffffffffffffffffffffffffffffffffffffffffffffffffffffffffffffffffffffffffffffffff",
"ffffffffffffffffffffffffffffffffffffffffffffffffffffffffffffffffffffffffffffffffffffffffffffffffffffffffffffffffffffffffffffffffff"
};
