/* XPM */
static char *setpb[] = {
/* columns rows colors chars-per-pixel */
"130 40 76 1",
"  c #000604",
". c #000C06",
"X c #000E09",
"o c #001006",
"O c #00130C",
"+ c #00180F",
"@ c #001611",
"# c #001A13",
"$ c #00221B",
"% c #002B23",
"& c #92BBB5",
"* c #A2BFBA",
"= c #8BC1B4",
"- c #93C5BE",
"; c #94C9BE",
": c #9CC6BF",
"> c #A1C2BB",
", c #A0C8BF",
"< c #96CBC2",
"1 c #9AC7C0",
"2 c #9CCDC4",
"3 c #9FCEC8",
"4 c #96D0C4",
"5 c #9CD1C6",
"6 c #9DD3C9",
"7 c #9FD9CC",
"8 c #A6C6C1",
"9 c #A3CDC5",
"0 c #A5CFC9",
"q c #AAC7C2",
"w c #ABCBC5",
"e c #ADCEC9",
"r c #A4D1C6",
"t c #A3D4CC",
"y c #A3D9CE",
"u c #AAD4CD",
"i c #ABD9CE",
"p c #A4D7D0",
"a c #A7DCD2",
"s c #ACD7D0",
"d c #AADCD3",
"f c #ACDFD8",
"g c #B3CECA",
"h c #B3D3CE",
"j c #B0D8CF",
"k c #B9D3CF",
"l c #B3D6D2",
"z c #B2DCD4",
"x c #B6DED9",
"c c #B9D6D2",
"v c #BBDBD5",
"b c #BCDED9",
"n c #A6E1D5",
"m c #ABE1D6",
"M c #ADE3D9",
"N c #AEE8DC",
"B c #B3E1D6",
"V c #B3E4DB",
"C c #B3E9DE",
"Z c #BAE3DC",
"A c #BBE9DF",
"S c #B5E7E1",
"D c #B5EBE1",
"F c #BCE7E0",
"G c #BAEBE2",
"H c #B7F1E5",
"J c #BCF0E5",
"K c #C2D6D4",
"L c #C1DAD6",
"P c #C0DFDA",
"I c #C5E3DE",
"U c #C2E7E0",
"Y c #C2EAE1",
"T c #CAE7E2",
"R c #C9E8E2",
"E c #C1F4EC",
/* pixels */
"aaaaaaaaaaaaaaaaaaaaaaaaaaaaaaaaaaanaaaaaaaaaaddadaaaaaaaaaaaaaaannnnnppnpnpnfnpsddddaaaannnpnpnppaaaaaaaaaaaaaaaaaaaaaaaaaaaaaaaa",
"aaaaaaaaaaaaaaaaaaaaaaaaaaaaaaaaaaaaaaaaapaaaadpaaaaaaaaaaaaaaaaayppnnnnnnnnppfpdddddaaaaanpnnnnfpaaaaaaaaaaaaaaaaaaaaaaaaaaaaaaaa",
"aaaaaaaaaaaaaaaaaaaaaaaaaaaaaaaaaaaaaaaaaaaaaaaadaaaaaaaaaaaaaaapnnnaaadpnpppfpfidaaaddanpnpnpaaaaaaaaaaaaaaaaaaaaaaaaaaaaaaaaaaaa",
"aaaaaaaaaaaaaaaaaaaaaaaaaaaaaaaaaaaaaaaaaaaaaaapaaaaaaaaaaaaaaaaanapdaddpnnnfpfpnnaaadaannnnnnnaaaaaaaaaaaaaaaaaaaaaaaaaaaaaaaaaaa",
"aaaaaaaaaaaaaaaaaaaaaaaaaaaaaaaaaaaaaaaaaaaan7annannaaaaan7aaaaaaappfpdppfappfpfynynnyaapppddaaaaaaaaaaaaaaaaaaaaaaaaaaaaaaaaaaaaa",
"aaaaaaaaaaaaaaaaaaaaaaaaaaaaaaaaaaaaaaaaaa7naaapya7apdaaa7aanaaaaafapfdapaapnpfp7nnyynaafppfaaadaaaaaaaaaaaaaaaaaaaaaaaaaaaaaaaaaa",
"aaaaaaaaaaaaaaaaaaaaaaaaaaaaaaaaadsaaaaaannnn7nnannynaaannnannaaapaafaaadaananpp7nnnnyaapaapdddpaaaaaaaaaaaaaaaaaaaaaaaaaaaaaaaaaa",
"aaaaaaaaaaaaaaaaaaaaaaaaaaaaaaaaaaaaaaaaan7ann7a7naa7aaaaa7a7naaaaaapdaaaapnnaaannyynaaapaffdpaaaaaaaaaaaaaaaaaaaaaaaaaaaaaaaaaaaa",
"aaaaaaaaaaaaaaaaaaaaaaaaaaaaaaaad6fBt6dad2ma6Sfpa7m6aN<MdamdaMrmi77iNyNyf7a7y7N7n7N;ymymVi,BryByaaaaaaaaaaaaaaaaaaaaaaaaaaaaaaaaaa",
"aaaaaaaaaaaaaaaaaaaaaaaaaaaaaaaatGp-Vm7mpfM2Sp3SS6fMtmMtdpan6pam7Nyny;ym6NmNC;N4n57MCB,BrrAiiByipaaaaaaaaaaaaaaaaaaaaaaaaaaaaaaaaa",
"aaaaaaaaaaaaaaaaaaaaaaaaaaaaaaaady6CdrCpMttx6pS1uttfyuV6stVMV6CrN;ynmCynH=p5aMyCaH5i,iYiZrBBy,iaaaaaaaaaaaaaaaaaaaaaaaaaaaaaaaaaaa",
"aaaaaaaaaaaaaaaaaaaaaaaaaaaaaaaaf<GppdrpdssSdtlSffffs6uVff2MrpsfBBNyoiyi3SGViiitr5VBi,ijjj:iiOooaaaaaaaaaaaaaaaaaaaaaaaaaaaaaaaaaa",
"aaaaaaaaaaaaaaaaaaaaaaaaaaaaaaaadMydtMVCpzxstF8ss2Vu0CdududsSsfu7,iNoBBrjo,jB.kBBirorZovjoOoOVyipfaaaaaaaaaaaaaaaaaaaaaaaaaaaaaaaa",
"aaaaaaaaaaaaaaaaaaaaaaaaaaaaaaaaaM6rGu0XXOXsbeeXXXXX%.OsX.#X.O@ooAiioeikvh.gv OgrYioZw.kk.eiityiaaaaaaaaaaaaaaaaaaaaaaaaaaaaaaaaaa",
"aaaaaaaaaaaaaaaaaaaaaaaaaaaaaaaadpm<VtOGlxuXeZlXZrxl9lxldF&s$l0zijoo.$.vkk.k KKgv,iogIOkLoiBiiV2aaaaaaaaaaaaaaaaaaaaaaaaaaaaaaaaaa",
"aaaaaaaaaaaaaaaaaaaaaaaaaaaaaaaapM2Dposul0xlOlh 9ZuuVsuduzZz.rZuvivjOgch O  O  .oBe......O,vezuBpaaaaaaaaaaaaaaaaaaaaaaaaaaaaaaaaa",
"aaaaaaaaaaaaaaaaaaaaaaaaaaaaaaaaydmddOsxufulsZ8X0VuuBstdddidosliiBi,oI,LK Lk,.kcjii+ikkkhX..XO.Oaaaaaaaaaaaaaaaaaaaaaaaaaaaaaaaaaa",
"aaaaaaaaaaaaaaaaaaaaaaaaaaaaaaaampuyy#2sC0Buust@Zrxd2fzdifyfosldjiBvo>OKk kcI#,ZjjiorIjBgXXccq#efaaaaaaaaaaaaaaaaaaaaaaaaaaaaaaaaa",
"aaaaaaaaaaaaaaaaaaaaaaaaaaaaaaaadsMmut#O.Z1lF0xXX.X.%OOpsdsfXsldiiBio+,khOwIw.hjiiBoO..eTX vqL.vfpaaaaaaaaaaaaaaaaaaaaaaaaaaaaaaaa",
"aaaaaaaaaaaaaaaaaaaaaaaaaaaaaaaappMaMMrtBOOXsbeXs9Zu9Cdpsdif.sldjio+okT.. O .+oooreo,I.B*#wXhXqPfaaaaaaaaaaaaaaaaaaaaaaaaaaaaaaaaa",
"aaaaaaaaaaaaaaaaaaaaaaaaaaaaaaaaaddrpstx9dlxXssXlxdzs3uVsfsf.slluBj9+e,hv.chv.l9iZBojeOeU c P c9dpddaaaaaaaaaaaaaaaaaaaaaaaaaaaaaa",
"aaaaaaaaaaaaaaaaaaaaaaaaaaaaaaaaMy7pdDfuZs1x hbXsutxssVtsduf.sddiirioIkvcOwleOzziru.ieoke vc Pbhdpadaaaaaaaaaaaaaaaaaaaaaaaaaaaaaa",
"aaaaaaaaaaaaaaaaaaaaaaaaaaaaaaaaaaMD2OudrZF9@hlXZrxxtzVusdufXdlsBtBBoejhw.bjuO0zrAuOBI.cXglh@Xebpaaaaaaaaaaaaaaaaaaaaaaaaaaaaaaaaa",
"aaaaaaaaaaaaaaaaaaaaaaaaaaaaaaaayC5dmpXdZteXxll luz0dB<BsfuzXsldiiiioBjj.vuuj.ssiiBoeiOh IqXcXZedaaaaaaaaaaaaaaaaaaaaaaaaaaaaaaaaa",
"aaaaaaaaaaaaaaaaaaaaaaaaaaaaaaaa6D6mtdtO@XOs0sx.@X@XO.#rf2Bd.sxuyCVrXdux.ZslsXafdui.xulXhe xllXxpSpMfpD6aaaaaaaaaaaaaaaaaaaaaaaaaa",
"aaaaaaaaaaaaaaaaaaaaaaaaaaaaaaaamn6MppJ2tZ0FxllussZuff;GMyCutZ0dV5OZ@dsXu2Vdd#1xrBOuusXsl@lluSXXX<S<ap6Maaaaaaaaaaaaaaaaaaaaaaaaaa",
"aaaaaaaaaaaaaaaaaaaaaaaaaaaaaaaa7aNamdrBffx3uz2VxptytyV6dfy<GuBd2GBotu#SzztZ<XS7Cp5BfxufXsusflf@SfpMaaD5aaaaaaaaaaaaaaaaaaaaaaaaaa",
"aaaaaaaaaaaaaaaaaaaaaaaaaaaaaaaayMN<pD7tu2dBdpGufttDm5VM7mdM<pG6V2Cddpf3Ctf6SpM6dpCtl0fsssuF13S<6p7MM6ddaaaaaaaaaaaaaaaaaaaaaaaaaa",
"aaaaaaaaaaaaaaaaaaaaaaaaaaaaaaaamaadpymCpVdtM<aapaaadny6nnnaDdyptS3fffpS-S6fdppfmtNf6fStff3pJffpyJp;Mm6daaaaaaaaaaaaaaaaaaaaaaaaaa",
"aaaaaaaaaaaaaaaaaaaaaaaaaaaaaaaadpyDd5a5y7M6DM67ymm<yN7Nnn74ma2NpdppSpdpVfpMdpafaan7fpaf0fS3<fpfa<mDyyMyaaaaaaaaaaaaaaaaaaaaaaaaaa",
"aaaaaaaaaaaaaaaaaaaaaaaaaaaaaaaamm76aMDnM6Hn7a7nypMMn74n67ND6NaaS6f3aaaaa6fapMapnnaaf6pfS3pfS6fnmmy5tCVpaaaaaaaaaaaaaaaaaaaaaaaaaa",
"aaaaaaaaaaaaaaaaaaaaaaaaaaaaaaaayad7na6nn777nnaany7n7aN7nan6M6a76GpfS6af6S6ffpaMaa7npfaadptS3ffpapCMptyMaaaaaaaaaaaaaaaaaaaaaaaaaa",
"aaaaaaaaaaaaaaaaaaaaaaaaaaaaaaaaaaaaaaaaaaaaaaaaaaaaaannnanaaaaaaaaaaaaaaaaaaaaaaaaaaaaaaaaaaaaaaaaaaaaaaaaaaaaaaaaaaaaaaaaaaaaaaa",
"aaaaaaaaaaaaaaaaaaaaaaaaaaaaaaaaaaaaaaaaaaaaaaaaaaaaaaaaypaaaaaaaaaaaaaaaaaaaaaaaaaaaaaaaaaaaaaaaaaaaaaaaaaaaaaaaaaaaaaaaaaaaaaaaa",
"aaaaaaaaaaaaaaaaaaaaaaaaaaaaaaaaaaaaaaaaaaaaaaaaaaaaaaaaaaaaaaaaaaaaaaaaaaaaaaaaaaaaaaaaaaaaaaaaaaaaaaaaaaaaaaaaaaaaaaaaaaaaaaaaaa",
"aaaaaaaaaaaaaaaaaaaaaaaaaaaaaaaaaaaaaaaaaaaaaaaaaaaaaaaaaaaaaaaaaaaaaaaaaaaaaaaaaaaaaaaaaaaaaaaaaaaaaaaaaaaaaaaaaaaaaaaaaaaaaaaaaa",
"aaaaaaaaaaaaaaaaaaaaaaaaaaaaaaaaaaaaaaaaaaaaaaaaaaaaaaaaaaaaaaaaaaaaaaaaaaaaaaaaaaaaaaaaaaaaaaaaaaaaaaaaaaaaaaaaaaaaaaaaaaaaaaaaaa",
"aaaaaaaaaaaaaaaaaaaaaaaaaaaaaaaaaaaaaaaaaaaaaaaaaaaaaaaaaaaaaaaaaaaaaaaaaaaaaaaaaaaaaaaaaaaaaaaaaaaaaaaaaaaaaaaaaaaaaaaaaaaaaaaaaa",
"aaaaaaaaaaaaaaaaaaaaaaaaaaaaaaaaaaaaaaaaaaaaaaaaaaaaaaaaaaaaaaaaaaaaaaaaaaaaaaaaaaaaaaaaaaaaaaaaaaaaaaaaaaaaaaaaaaaaaaaaaaaaaaaaaa",
"aaaaaaaaaaaaaaaaaaaaaaaaaaaaaaaaaaaaaaaaaaaaaaaaaaaaaaaaaaaaaaaaaaaaaaaaaaaaaaaaaaaaaaaaaaaaaaaaaaaaaaaaaaaaaaaaaaaaaaaaaaaaaaaaaa"
};
