/* XPM */
static char *tc_xpm[] = {
/* width height num_colors chars_per_pixel */
"    25    50       16            1",
/* colors */
"` c #943e74",
". c #648abc",
"# c #746e9c",
"a c #3cc2f4",
"b c #845284",
"c c #549ecc",
"d c #6482b4",
"e c #8c467c",
"f c #6c76ac",
"g c #34cefc",
"h c #4ca6dc",
"i c #7c5a8c",
"j c #000000",
"k c #000000",
"l c #000000",
"m c #000000",
/* pixels */
"ggagggggagggggggggaggaggg",
"ggggaggggggagaggggggggggg",
"gggggggggagggggaggggagggg",
"gaggaggaggggggggggaggggga",
"ggggggggggagaggagggggaggg",
"ggggaggagggggggggaggggggg",
"ggagggggggggaggagggggggag",
"gggghhgggaggggghcaggagggg",
"gggghefgfbiiibi``hggggggg",
"gggagf`hgaae#cb#hggaggagg",
"aggggaiaghgae`hgcaggggggg",
"gggggggga``f`edf`#aggaggg",
"gggggadgg`cgdiga`cggggggg",
"gggibe`da`#dbedf`hgaggggg",
"aggggh`ag`fh#bhh`cgggaggg",
"ggggac`ga`hgdbga`haggggga",
"gggggh`ag`bie`bi`cggggggg",
"gagggc`ga`hgdiga`hggagggg",
"gggggh`ag`cgfigg`caggggag",
"ggggdeb#a`hgdidb`hggggggg",
"gga#`dgibaagahgd#ahaagggg",
"gggccaggc`````````bhggagg",
"ggggggggaghhdffdddaaggggg",
"gaggggggggggggggggaggaggg",
"ggggagaggghaggagagggggggg",
"gggggggggac`cgggggggggagg",
"ggagg#hhhhheihhhh#daggggg",
"gggga`ddd`ddddddf`bagaggg",
"ggggbegae`dgae#dcdggggggg",
"ggggdad`#afcgaai`fggaggga",
"gaggdifaga`dggagd`agggggg",
"gggaageddibdfddfeaagggggg",
"gggggg`#hh`dhhh#eaggaggag",
"gggaga`dgd`#df#digggggggg",
"agggga`dhbccc`#fbggaggggg",
"ggggggidfaihibgdigggggagg",
"gggaggbdgga``agfigggagggg",
"ggggga`daab#`#gdigaggggga",
"gggagg`##bhgh`adeggggaggg",
"ggggga``biiiibi``gagggggg",
"agggagiaaaggaggcdgggggggg",
"gggggggggggggggagggggagga",
"ggggagggagggaggggagaggggg",
"ggggggagggagggagggggggggg",
"ggaggggggggggggggggggaggg",
"ggggggggggggggggggggggggg",
"ggggggggggggggggggggggggg",
"gaggaggaggaggaggaggaggagg",
"ggggggggggggggggggggggggg",
"ggggggggggggggggggggggggg"
};
