/* XPM */
static char *tctzf[] = {
/* columns rows colors chars-per-pixel */
"80 30 79 1",
"  c #000704",
". c #000C05",
"X c #000E09",
"o c #001107",
"O c #00130C",
"+ c #00180E",
"@ c #001611",
"# c #001B14",
"$ c #00211A",
"% c #8FBCB5",
"& c #9EBDB7",
"* c #8FC1B8",
"= c #95C5BD",
"- c #91CBBF",
"; c #9EC4BD",
": c #A2C4BD",
"> c #96C7C1",
", c #94CAC2",
"< c #9AC7C0",
"1 c #9CCDC4",
"2 c #9DCEC8",
"3 c #97D2C7",
"4 c #97D5CA",
"5 c #9DD0C6",
"6 c #9ED3CA",
"7 c #9DD9CF",
"8 c #A7C5C1",
"9 c #A3CCC4",
"0 c #A4CFC9",
"q c #ABC6C2",
"w c #AACCC5",
"e c #ACCFC9",
"r c #A4D1C6",
"t c #A4D4CB",
"y c #A4D9CE",
"u c #ABD4CC",
"i c #ABD9CE",
"p c #A5D7D0",
"a c #A6DCD2",
"s c #ACD6D1",
"d c #ABDBD3",
"f c #ADDFD8",
"g c #B3C9C6",
"h c #B2CDC9",
"j c #BCCECE",
"k c #B3D3CD",
"l c #B0D8CF",
"z c #BAD3CF",
"x c #B3D6D1",
"c c #B3DBD3",
"v c #B3DED8",
"b c #BAD5D1",
"n c #BBDBD5",
"m c #BCDED9",
"M c #A5E3D8",
"N c #ABE1D6",
"B c #ACE2DA",
"V c #ACE8DE",
"C c #B3E1D6",
"Z c #B3E3DB",
"A c #B5E8DD",
"S c #BAE3DB",
"D c #BBE9DF",
"F c #ACEBE0",
"G c #B6EBE2",
"H c #BBE7E1",
"J c #BBEBE3",
"K c #BBF0E6",
"L c #BEF2E9",
"P c #C1D6D4",
"I c #C2DAD6",
"U c #C1DED9",
"Y c #C3E3DD",
"T c #C2E7E0",
"R c #C1EBE3",
"E c #C9E5E0",
"W c #C4F2E9",
"Q c #C8F0E7",
"! c #CBF2EC",
/* pixels */
"pV1BapGpaaaafaaaa6BaaaMaafa7aB6aB7fadaafaf7VpafaM747FM7Ma7aMM7MM2G2ffaF7pFpfaF2f",
"BaBa6Z,dadpfaaMafB7aMBa7aaFMa7Bffdp2faaf6faffaadaaFG,7V7aaaaaaa7Fa6F4f,fp4f7apap",
"7M4K7pLaaaaaaaMM7G6app7Mf77pa6GppF2FBG7aGfp6fBadf2paJdvvdssdsfddftBtdHfpffpFapZa",
"7Fa3aa1aaffaa7M75afBBBffffffVfa5fap2f>ff2>fdappf2Hsv0us0fdddfssdp2dG626ff>Z=vp>v",
"B3VMyNGaaafaMM7aJ5Bttap62pa6tf2JaBdJadpfWpdZyddtZpBaaZdZdadaadaddvs9ZtJt2v0vffSp",
"B47Jfytpsaaspaaad6BBpvZZZHvafBtdtvd=sHds1ZpvtZZtpfpB3ByaaaaaaaaaaaddpS9ZSHupf0sp",
"pAf*vd#sdsfsaaaatW=Zssttptddv=Wtv0f$s%Hd#=vH0ttZpM4BMMoMfaaaaaaapSXcsuSe0XHsstcv",
"NttHuc.cxdsssdsadtOooO.oX @ XOtdtS0 sHvpXZctuH0vpff6idaoaaaaaaaav0o@X @.mX @ XXp",
"sOXX..@.XX@XX# viuo9cseviccuCorZxus.xcS.o..#..otc0O..o..XXX   dciOuC.eTueOu.C9li",
"S;!eb qbj jYn;xsrD.TCcukneiwn.CrcueOrvw.evniwi.mSm.SY8zUjb8bm@emcoulb.uxoukl#iCu",
"kume@ X X  mwmTsCr....O....@..vc.oXXXe.m.unccb.k9.ScubnemeYe.cv0.Ru9oSbOkbbowcCl",
"cn   bPbjPjX@e8SuT.Snbzhhzz8SCwimcb.zck..O.okkOuSC9o.O.OX@XxQttvi9CiobehbwY.S9rc",
".#xwO..   .h.OX0i9Ok8.XO O O.uwlm:b.wk#kz.zzbx.St5iDricllourrNyyCl:ouo.....o.o+y",
"iiuY.8bzzkYwc.ScSu.kYIhbnbb8kSxnubUO.n&bn.UmkkXeCA-NuubkowCctaNdiCi$eunzenSOeC:C",
"yCi;.O....onuC1d1Q.bhbPgPhhEhvwebn. z.@. . .Xz.neuYwIk:.zYhnlknriioonz.YYzq.crSs",
"NiiS.kzzPhbeClCuS8.XX.X.. ....#u..w@knwzb.nbbn.eno.o # . ...#..Sdocolxx.uln.vdus",
"...O..o. o.....ucnXmec kxUskxxxcill.llohhOwn.zokrNNrsveObxccsiaaoZu.xccO Su.sS0i",
"Skn:Y.gzPhIhwnkSulXcm<@ceuxXxvusriRorS.$o.O..I.ciVyytZ0.sssaaaaau9vOucesXtSXuusS",
":SwY.bzPhPobnn9l9!.sv#0scsmu smcdrioYrowS:kb.:+la-yJutJosvsdaaaaZ<R.daccvZ9#tZvt",
"Drl.bn:o....nuSuv.SuXX #oX.#X@0sdCi+rlArlulYwn+:NGytpdpXdsaaaaaNyZ9O0dZpd00@utvu",
"riO+..$.nnlooNiNS#sc0vS0uvssotCvCoiocrilrR9l$:oCt7N5ZouodssaaaaaatdoZadyt#aoZaaa",
"yNiii9vnurCoA;ArXttZavvdtZdttvadiC#tNiitDriii+DiCVy5Zd#usdddaaNaBya#t5NafpOttZtf",
"NyCiiAuuCiCtdC7apHaaattZZ2aaBiZttytiiNrCtiAiiy6yy3KitA9ddddaayyNtA13HJ3adatGt1Ba",
"ayyNyyCydayyyaN7f5daaafyaZtftyZiNNyC5NCyNyiyaa6Vyay7MaidddaaayMyN5ANa5yNf6V6NAaa",
"MaaaMyyaaaaaaMaaaaaaadaadaaddaadiaaiaiaaaaaMaaaaaaaadaaaaddiaaaayMyyNyMyMyyMaaaM",
"aa7aayaaaaNa7aMyaaaaaaaaaaaaaaaaaaaiaaaaaaaaaaaaaaadaaaadadaaaNayMMyyMyNyyMyaaaa",
"7yMMyMaaNyyN7MaMaaaadaadaaaaaaaaaaaaaaaaaa7M7yaaaaaaaaaaaaadaayaNyNyMMyyyNMyMyaa",
"MMayyMaayyMyaMaaaaaaaaaadaaddaadaaaaaaaaaaMaMM7MaaaadayNaaaaaaaayNyNyyMyMyayMyaa",
"aaNaMyaaMaaaaaaaaaadaaaaaaaaadaaM7aMNaMyaaaaaaaaadaayMyyNyNyaaadaaaaaaaayaaaaaaa",
"aaaayMMaaaMaaaaaadaaaaadaaadaaaaaaaaNNyMNaaMaNaNaaaayMMyyNyNaaaaaadaaaaaaaaaaaaa"
};
