/* XPM */
static char *tp1_xpm[] = {
/* width height num_colors chars_per_pixel */
"    38    38       16            1",
/* colors */
"` c #000000",
". c #111111",
"# c #222222",
"a c #333333",
"b c #444444",
"c c #555555",
"d c #666666",
"e c #777777",
"f c #888888",
"g c #999999",
"h c #aaaaaa",
"i c #bbbbbb",
"j c #cccccc",
"k c #dddddd",
"l c #eeeeee",
"m c #ffffff",
/* pixels */
"hhhhhhhhhhhhhhhhhhhhhhhhhhhhhhhhhhhhhh",
"hljlmjlmjlmjlmjlmjlmjllmjlmjlmjlmjlm`h",
"hlkllljllljlllljlljllljllljlllljllj`.h",
"jjljjjkjjjkjjjkkjjjjjkkjjjkjjjkkjjk.`h",
"hlljjjkjjjjjjjjjjjjjjjjjkjjjjjjjjjj`.h",
"jjljjjjjjjjjjjjjjijjjjjjjjjjjjjjjjj.`h",
"hljkjjjjjjjjjjjjjiiijjjjjjjjjjjjkjj`.h",
"hjljkjjjjjjjkjjjjbbbijjjjjjjjjjjjjj.`h",
"hlljjjjjjjjjjjjjhbbbjjjjjkjjjjjjjjj`.h",
"jjljjjjjjjjjjjjjibbbijjjjjjjjjjjjjk.`h",
"hljkjjjjjjjjjjjjhbbbjjjjjjjjjjjjjjj`.h",
"jjljjjjjjjjjjjjiibbbijjjijjjjjjjjjk.`h",
"hlljjjjj```````jhbbbij``````.jjjjjj`.h",
"hjljjjjj.``````jibbbij.``````jjjjjk.`h",
"hljkjjjj```...`jhbbbji....``.jjjjjj`.h",
"jjljjjjk.``ijkjjibbbijjkkj.``jjjjjk.`h",
"hlljjjjj``.kjjijhbbbijjjjj``.jjjjjj`.h",
"jjljjjjk.``jjjjjibbbhjijjj.``jjjjjk.`h",
"hljkjjjj``.jjjjbbbbbbbjjjj``.jjjjjj`.h",
"hlmjjjjj.``jjjjjbbbbbijjjj.``jjjjjk.`h",
"hlljjjjj``.jjjkjibbbjjjjjj``.kjjjjj`.h",
"hjljjjjj.``jjjjjjjbjjjjjjj.``jjjjjk.`h",
"hljkjjjj``.kjjjjkjjjkjjjjj``.jjjjjj`.h",
"jjljjjjk.``jjjjjjjjjjjjjjj.``jjjjjk.`h",
"hlljkjjj``.jkjjjjjjjjjjjjj``.kjjjjj`.h",
"hjljjjjk.``jjjjjjjjjjjjjjj.``jjjjjk.`h",
"hljkjjjj``.jjjjjjjjjjjjjjj``.kjjjjj`.h",
"jjljjjjk.``jijijjjjjjjjjjj```ijjjjk.`h",
"hlljjjjj````````````````````.kkjjjj`.h",
"hjljjjjj.````````````````````jjjjjk.`h",
"hljkjjjj.....................jjkjjj`.h",
"jjljjjjjjjjjjjkjjjkkjjjjjkjkjjjjjjj.`h",
"hlljjjjjjjjkjjjjjjjjkjkjjkjkjjjjjjj`.h",
"jjljjjjjjjjjjjjjjjjjjjjjjjjjjjjjjjj.`h",
"hljjijjjjjjjjjjjjjjjjjjjjjjjjjjjjij`.h",
"hl```````````````````````````````````h",
"h....................................h",
"hhhhhhhhhhhhhhhhhhhhhhhhhhhhhhhhhhhhhh"
};
