/* XPM */
static char *tp10_xpm[] = {
/* width height num_colors chars_per_pixel */
"    38    38       16            1",
/* colors */
"` c #040204",
". c #7cbaac",
"# c #8c2e34",
"a c #d4bacc",
"b c #041264",
"c c #acbefc",
"d c #c41a24",
"e c #fcfefc",
"f c #a4d6d4",
"g c #743e44",
"h c #040234",
"i c #041a84",
"j c #ccbeec",
"k c #a4d2f4",
"l c #000000",
"m c #000000",
/* pixels */
"......................................",
".ekeekekekeekeekeeekeeeekekeeekekeee`.",
".keeeekeeekeekeeekeeekeeekeeeeekeke``.",
".eeffffffffffffkkkfkkffffffffffffff``.",
".fefffffffkfffchbbbbhbjffkfffffffff``.",
".eefkffffkfk`hhibiiiibhhhkfffffffff``.",
".ekfffkfffkhhibkkcicckiiibhffffffff``.",
".keffkfkfhhbickjfkicfcjjbihhkkfffff``.",
".eefffkfhhbkjaaaaaicja#djciihkkffff`h.",
"fkeffffhhbckagg#gficj#dd#jciihkffff``.",
".ekfffkhbkicjg#ggjbcjgdd#fciibhffffh`.",
".keffkhbckcbjjaaacicja#dajbccihffff``.",
".eeffhbbjfjjbcfjfcicccafjijccbbhkff`h.",
".kefjhija##akikkkiiiikkkicjgjcibkff``.",
".ekfkhbj#dddjkiibkkkkbiikfgagaibkff``.",
"fkefhbkjddd#akickkkkkkcikf#a#jjbhffh`.",
".eekhikfa#gackikckfffkkikkg#gjci`ff``.",
".kecbikkfjjckikkkfffffkkbcjajccihaf``.",
".ekfbiibibbiiikkfffffkkkiiiiiiiihfa``.",
".eecbiccccjccik.fffffkkkijjjjccihff``.",
".eefbbckaggjjikkffffffkkic#dgjcihff``.",
".kefhikja##ackikkfffkkkikjdddacbhff``.",
".ekfkhica##ajkikckkkkkkikag#gaibkff``.",
".keffhija##akkiiickkkiiicfaajjbbkff``.",
".eeffhiijggacikkkiiiikjjbckakibhkff`h.",
".keffkbicjjjbkjakcickjggjbkkcibkfff``.",
".ekfffhhiccbcg#d#jicjgafgjbcibhffff``.",
".eeffffhiiiccadddabcagfagjciihfffff``.",
".eeffffkhiiccja#gaiccaggcciihkfffff`h.",
".keffffkkhhibkjjgjickcajbibhkffffff``.",
".ekfffffkkhhiibccjicccibbhhkfffffff``.",
".keffffffkfkhbbiiiiiibbbhkkffffffff``.",
".eefffffkfffkkkhhhhhhhkfkffffffffff`h.",
".keffffffffffffffffffffffffffffffff``.",
".ekffffffffffffafafffffffffffffffff``.",
".e````````h```h``````````````````````.",
".```````````h```h````h``````h```h```h.",
"......................................"
};
