/* XPM */
static char *tp11_xpm[] = {
/* width height num_colors chars_per_pixel */
"    36    36       16            1",
/* colors */
"` c #040204",
". c #64c2ac",
"# c #b4d6d4",
"a c #a4cec4",
"b c #94dedc",
"c c #0c423c",
"d c #7cb6ac",
"e c #fcf6fc",
"f c #acdedc",
"g c #04120c",
"h c #fcfefc",
"i c #9cdad4",
"j c #a4d2cc",
"k c #7cbab4",
"l c #000000",
"m c #000000",
/* pixels */
"hhhhhhhhhhhhhhhhhhhhhehehhhhhhhhhhh`",
"hhhheheeeehehehhhehhehhehehehehehe``",
"hhiajaiabaibabjjjjbiiaiaijiaijbjjag`",
"hhjbiiibbiiajijjiiiiibbbibjbbbbij#``",
"ehjjbjbibbabccccccccccciiibbbiiiiag`",
"hhjbbbbibbijcddddddddkciiibbiiiiii`g",
"hhbabbbjbji#`dddddddddcjjibbjbjbbag`",
"hhabbibjbibaccccccccccc#ijbjijiibig`",
"hhiabjbbbbjibbbjiga#ibjiijbbijibjjg`",
"hh#biibbbiibbbjigaggi#iiibbiiiiibag`",
"hhjaijbibbibibjgibiiggfiiibbbbbiij``",
"hh#jibibibjijigjbiibj#ggjiiibibbijg`",
"hhjibbbbbjijigjjiia#jj##g#afjiiiijg`",
"hhjjbbbbbiijg#jjji#cccccccccccibiag`",
"hhbbibjbji#giabibaic...d....dcabbjg`",
"hhjbiiiiiigjjbbbbbic..k.....kciiijg`",
"hhjaiiiigggggbbbbijcccccgccccciibj``",
"hh#iiiigkd.dkgbbbijjia#j`#ajjiiiiag`",
"hebiibgk....dkgi#bbjbibagjji#iiibi``",
"hhabbbigd.d.dgfibbiiib#ag#ibiiiiijg`",
"hh#iibbigggggjjbabaggggggggg`gibii``",
"ehaibbbjagagjiiibiagdddddddddgibbag`",
"hhbibbifgjjagjbijj#gdddddddddgaibi``",
"hhjjijjgjaijigiiiia`ggggggggggibijg`",
"hhaa#j`##aja#agjibbbbijjgjiibjibii``",
"eh`g``g``gg`ga#giibbbj##g#jiibbibjg`",
"hh`hhhhhhhhhg#jigji#i##jgjfibbbiji``",
"hh`hehhhhehe`#ii#ggggg`g`#jiiiiibjg`",
"hh`gg``g`ggggjiibijj#a##`a##jjiibi``",
"eh#jjj`#j##j#iabbbicccccccccccjbijg`",
"hhaijiigaijiiibiiijck.......kcbibi``",
"hhfabbjigjijiiiii#jc........kcjjijg`",
"hhjijbiijgjiiiibjijcccccgcccccijj#`g",
"hh#jaajjjagaajjfaa#aj#aj`aj#aja#jag`",
"e```g`gg`g`g`gg`gg``g````g````g`g`g`",
"`g`g``````````````g```g`````g```g`g`"
};
