/* XPM */
static char *tp12_xpm[] = {
/* width height num_colors chars_per_pixel */
"    37    37       16            1",
/* colors */
"` c #040204",
". c #64baa4",
"# c #9cd2cc",
"a c #74d6b4",
"b c #dcf694",
"c c #3ceacc",
"d c #c4e6bc",
"e c #041e04",
"f c #64c6ac",
"g c #fcfefc",
"h c #94dadc",
"i c #cce2e4",
"j c #9cdadc",
"k c #34eae4",
"l c #000000",
"m c #000000",
/* pixels */
"ggggggggggggggggggggggggggggggggggg`a",
"gggggggggggggggggggggggggggggggggg`e.",
"ggjjjhjhjjj##jjjj#jjjj#h##jjjjjhj#``f",
"gg#jhjhjjjjj#jhjjjjjjjh#jjjhjhhjjj``f",
"gg#jjjjjjjjjj###j#jji##j#jjjjjjjj#`ef",
"ggjjjjjjjj``e`e``e``````e`jjjj##jj`e.",
"gghhhjjjj#ebbbbbbbbbbbbbb`jjhjjjj#`ef",
"ggjhhjjjj#``e`e`eeeee`ee`e#hjhjjjje`f",
"ggjjhjjjjhejfaaaaaaaaaaaa`jhjhjjjj`ef",
"ggjhhhhhhh`eeeeeeeeeeeee`ejhhhjjjj``f",
"ggjhjjhhhjedbbbbbbbbbbbbde#hhhhjjj``f",
"ggjjjjhhhj`eeeeeeeeeeeeee`jhhhhjjj``f",
"ggjhjjjhhheakckkcckccckcaehjjjhhjj`ef",
"ggjjjjjhhhekkkkkkkkkkkkkkejjjjhhjj``f",
"gghjjjjhhhehckkkkkkkkkkcaejjhjhhhj`ef",
"gg#hjjhhjhe`eeeeeeeeeeeee`jjhhhjjj``f",
"ggj#jhjhj#`bbbbbbbbbbbbbde#hjhhhjj`e.",
"gg#hhjhjjj`e`eeee`eeeee`e`jhhhjjjj``f",
"gg#jjhjhhhea#ffaaaaaaaaa#`#jjhjjjj`ef",
"gg#jhhhjhh`eeeeeeeeeeeee`ej#jjjjjj``f",
"ggjjhhhhh#edbbbbbbbbbbbbde#j#jjjjj`e.",
"ggjhhhjjj#`eeeeeeeeeeeeee`#jj#jjhj``f",
"gghjhjjjjheacckcckkkckccaehhhh#hjj``f",
"ggjjjj#jhhekkkkkkkkkkkkckehhhhhjhje`f",
"ggjjjhj#jjehkkkkkckkkkkch`hjhhhhhj`e.",
"ggjhhhjjjj`eeeeeeeeeeeee`ejjjhhhhj``f",
"gg#jjjh#j#edbbbbbbbbbbbbde#jjjhhjj``f",
"ggjhjhjj##``eeeee`ee`ee`e`j#j#jjhje`f",
"ggjjhhjhjjeaaaaaaaaaaaaaa`#jhhjjhj`e.",
"ggjhhhhhhj`eeeeeeeeeeeee`e##hhjhjj``f",
"gghhhhhhh#edbbbbbbbbbbbbde#hhhhjjj``f",
"ggjjhhhhh#``e`e`e`e`e`e`e`jhhhhjjje`f",
"gg#jjhhhhj##d##d####d#####jhhhjhj#`ef",
"ggi##j#jjjj#j#jj#jjjjjjjjjjjjjjj#j``f",
"g`````e`````````````````````````````f",
"`e`e`e``e`e``e`e`e`e``e`e``e`e``e``ef",
"f.ffffff.ffffffff.fffffffff.fffffffff"
};
