/* XPM */
static char *tp13_xpm[] = {
/* width height num_colors chars_per_pixel */
"    40    40       16            1",
/* colors */
"` c #040204",
". c #8c9e9c",
"# c #acd2cc",
"a c #c41e14",
"b c #fceeec",
"c c #0c0e8c",
"d c #0406d4",
"e c #cce6e4",
"f c #fcfefc",
"g c #0c06bc",
"h c #bcd2d4",
"i c #f4f6fc",
"j c #94a6a4",
"k c #0406ec",
"l c #000000",
"m c #000000",
/* pixels */
"hh#####h##h################h#h##h##h###`",
"e#hhhhhhhhhhhhhhhhhhhhhhhhhhhhhehhhh###`",
"#hiiififififfffffffifffffiiibfiiifiij##`",
"heiiiffiffffffffffffifffffffiffffifi.#h`",
"hhif``````````````````````````````ff.##`",
"#hff`fifffffiffbfbffffffffifffbff`fijhh`",
"hhif`ffiffffffffffffffffffffffffb`ff.##`",
"h#if`bffffibibifiiiffbbbbbbbfffff`ff.hh`",
"#hbf`ffffbcdgdggciiibaaaaaaaiifff`ff.##`",
"##ff`fffiigkdgkgcbibbaaaaaaabfiff`fi.#h`",
"#hff`fbffidgibicciifbaabbbaabffif`ff.##`",
"hhff`fffffggiiiccifbbaabbbaabfiff`fi.#h`",
"hhff`ffffidgbiicciifbaabbbaabffif`ff.##`",
"h#ff`ffffigdiiiccifbeaabbbaabbfff`ff.#h`",
"#hff`ffffbdgifbccibbbaaefbaabfiff`ff.h#`",
"#hif`ffffigdbibgcifbeaabbbaabfiff`ff.#h`",
"#hif`ffifbgkdgddcbifbaaaaaaabbfif`ff.h#`",
"hhif`fifficggdggcifieaaaaaaabfiff`ff.#h`",
"#hif`fffffiiiifififfbiibbbbbiffff`ff.##`",
"h#ff`bfffifbibiiiffifibibibbiffff`ff.h#`",
"#hff`fffifcgggdcciificgggggciffff`ff.##`",
"hhff`ffffigkddddciibicgkddkgififf`ff.#h`",
"#hff`ffffigdiiigciiiiccbfbddbifbf`ff.h#`",
"hhff`fffifgdbfbccbfficcibiggifbff`ff.h#`",
"#hff`ffffbggibicgbiiicciifdgiffbf`ff.##`",
"#hff`ifffidgiiicciiiiccifigdbffff`ff.#h`",
"#hff`fiffidgifbcciibicciiiggiffff`ff.h#`",
"h#ff`fffffgdbibgcbiiiccbibkgfbfff`ff.h#`",
"hhff`ffifbgkkgdggiificdkddkgiiiff`ff.##`",
"hhff`ifiiicgggggcifiicgggggciffff`ff.#h`",
"#hff`ffffiiibiifififfiibiiiffifff`ff.##`",
"hhff`ffffffiifffffffffiifffifffff`ff.h#`",
"hhif`ffffffffffffffffffffffffffff`fij##`",
"h#if``````````````````````````````fi.hh`",
"#eiiffffffffffffffffffffffffffffffif.##`",
"#hiiiffifiiiiffffififififififififiii.#e`",
"h#.j.j.j....j.....................j..##`",
"######h########h#h#####h##h##h##h#hhh##`",
"#####h##h####h##h##h#h##h##h##h##h####e`",
"````````````````````````````````````````"
};
