/* XPM */
static char *tp2_xpm[] = {
/* width height num_colors chars_per_pixel */
"    38    38       16            1",
/* colors */
"` c #040204",
". c #7cbaac",
"# c #9c262c",
"a c #fcfefc",
"b c #a4ced4",
"c c #e40e0c",
"d c #340204",
"e c #94dadc",
"f c #bccecc",
"g c #bc1e24",
"h c #fc0204",
"i c #140204",
"j c #acd6d4",
"k c #9cdad4",
"l c #000000",
"m c #000000",
/* pixels */
"......................................",
".eaaakakaaaaaaaaaaakaajaaaaaajaaaaaa`.",
".akaaaaaaaeaajaaaaeaaaajaaeaaaeaaea``.",
".aafjjkbkjjbejekbkjjbkjjbejejejebje``.",
".kabfkjekkkjkkkjekkjkkjjejkjekkkjkb``.",
".aajjekkkekkkekkekekekekjeekkeeekbj``.",
".kajbeekeeeekeeeeeekkeeeeekeebebjkb``.",
".aabekeejeekkebekkbeeeeeeekbekkkebj``.",
".aaejeeeekekeekebfbjkkeeekkekkkkkkb``.",
"keajeekeekekkkffiii`bkekkekbekkekkj``.",
".aakkkeeeekbkfddgg#`fkkeekkjkeeeekb``.",
".aabjkeekkbbf`#cccgdfekkeekjkeeekje``.",
".aakekekekefdgcchcgdfkkeeekeeekekej``.",
"keajkbeekbfigcchhcgdfbejeeekkeeeekb``.",
".aejkkekkbd#cchhhcgdfbjekekkebkekej``.",
".aajkeeebfdcchhhhcgdfeekeeekkeekebj``.",
".aajkeeekigchhhhhcgdfkkekebeeebkkej``.",
"kjajkeejfigccccccc#dfjjejkkkkkjeekb``.",
".aejjekkbi#gggggg##dfbjjjjbjjjeekkj``.",
"kjajkkekb`ddddddddidiiiiiiiii`bkekb``.",
".aakbeeeejfffffffffi#ggcgggg#ifeekj``.",
".eabjkeeekkkekkkkbjighhhhhhcgdfkkkb``.",
".aejjeeeekkejjeejkjighhhhhhc#ibkeej``.",
".aajjeeekkeeeeekejjdghhhhhhgdfjekkb``.",
".aajkkekeeeekeeeekbicchhchcgifeekej``.",
"bkabeeekebekeeeekejighhhccgdfkkkbeb``.",
".ajjebkekekkekeekbjighchcgdfjejeeej``.",
".aajkekebejkkkbekejigccggdfjkeekkbj``.",
".aakeekkkjkejekkekji#g#difjeeebekej``.",
".eajkbeekkeeekkkkej`iddfjkekekkkkkb``.",
".aejekebekekeekekkejffbbkbeekkkekej``.",
"kjajkkkkkeeeekkkbekekkeekkkbeekekbj``.",
".aakbkekekkekekeekeekekekekekkeekbj``.",
"keabjbekekekejekjekekekekekekekebjj``.",
".aaebjjbjjbjjbjjbjjbjjbjjbjjbjjbjbb``.",
".a```````````````````````````````````.",
".````````````````````````````````````k",
"......................................"
};
