/* XPM */
static char *tp3_xpm[] = {
/* width height num_colors chars_per_pixel */
"    38    38       16            1",
/* colors */
"` c #040204",
". c #8ca6a4",
"# c #ccc2a4",
"a c #6c7a6c",
"b c #040e7c",
"c c #b4cacc",
"d c #74baac",
"e c #04160c",
"f c #fcfefc",
"g c #bccacc",
"h c #0c0eac",
"i c #8cbaac",
"j c #040624",
"k c #8caea4",
"l c #000000",
"m c #000000",
/* pixels */
"dddddidiidddiddidddddddddddddiddkddiid",
"dfgffgfgffgfgfgffgffgffgffgfgfgfffcfgd",
"dfgfffcffgfgfcfgffcffgfgfgfgfcfcfgfcjd",
"igfd.dddiiiidiiid.ddiidi.idiiiii.ideed",
"dff.eee`eeej``ee`e``e`e`e`e`e`e`ee.eed",
"icf.`eee`jjjjjjjjjjjjjjjjjjjjjjjjj.eei",
"ifciedddkjhhbbbhbbhhbbbhbbhhbbbhbjijed",
"cgfie.dd.jbhbbhhbbhhbbhhbbhhbbhhbbijed",
"dfgde``e`jjjjjjjjjjjjjjjjjjjjjjjjekeed",
"dgfieaaaajcggjgggjgcgjgcgjgcgjgcce.eed",
"dfcdeeee``ee``ej``ee```ee`jee`jeje.ee.",
"cgf.eaaaaeccgeccgeccceccceccceccce.eed",
"dffd``````ejee`e``ej``ej``ee``eje`.eei",
"cgf.`####`cgcegcgeccgeccceccceccce.eed",
"dfci`e````eee`ee``ee``eee`eee`eee`ieed",
"icfke####`ggcjgcceccgeccgeccgeccce.eji",
"dffd``````eeeee`e`ee``ee``ee``ee`e.eed",
"icf.e####egcceccgeccgeccgeccceccce.eed",
"ifci```````ee``e``e`e``e`e`e`e`ee`.eed",
"icf.e####`ccceccgecgcecccecccecccekeed",
"dff.```````ee``e``e`j``ee`e`e`ee`e.eed",
"icfi`####ecccjccgeccceccceccceccce.eed",
"ifcie``````ee`j`e`eee``ee`ee``eee`ieed",
"icf.e####`ggcjcggeccgeccceccceccce.eed",
"dffd``e```e`e`ej``ee`eee``ee``ee`e.eed",
"icf.e####egcceggcecccecccegcgeccce.eed",
"dfci``e`````e`je`e`e`e`e``e`e`e`e`.eed",
"igf.eg##geccgegccecgceccceccceccceieed",
"dffd`eee`eeee``e`j`ee``e``e`j``ee`.eed",
"icf.eaaaaecccecccecgcecgcegcceccce.eed",
"dfcde`e`e`eee`jee`ee``e`e`ee``eeee.eed",
"dgfkeaa.aegcgegccecggecgcegcgecgce.eed",
"dff.e````````````````````````````e.eei",
"icf.`e`e`e``e``e`e`e`e`e`e`e`e`eee.eek",
"dfci..i............................eed",
"icfeeeeeeeeeeeeeeeeeeeeeeeeeeeeeeeeeei",
"dfeeeeeeeeeeeeeeeeeeeeeeeeeeeeeeeeeeed",
"dddddkdidddddddddddddddddddddddddididd"
};
