/* XPM */
static char *tp4_xpm[] = {
/* width height num_colors chars_per_pixel */
"    40    40       16            1",
/* colors */
"` c #040204",
". c #949694",
"# c #cccecc",
"a c #eceeec",
"b c #0c0a0c",
"c c #c4c6c4",
"d c #fcfefc",
"e c #9c9a9c",
"f c #d4d2d4",
"g c #f4f6f4",
"h c #0c0e0c",
"i c #000000",
"j c #000000",
"k c #000000",
"l c #000000",
"m c #000000",
/* pixels */
"````````````````````````````````````````",
"`c################################cff##b",
"`##fcffc############################c#.`",
"`c#dddgddddddddddddddddddddddddddddddee`",
"`fcddgddddddddddddddddddddddddddddddd..`",
"`c#ddb`````````````````````````````dde.`",
"`##dd`dddddddddddddddddddddddddddgbdd..b",
"`f#dd`dddddddddddddddddddddddddddd`dde.`",
"`#fdd`dddddddddddddddddddddddddddd`dde.`",
"`#cdd`dddddddddddddddddddddddddddd`ddee`",
"`#fdd`dddddddddddddddddddddddddddd`dde.`",
"`#cdd`dddddddddddddddddddddddddddd`dde.`",
"`##dd`dddddddddddddddddddddddddddd`dde.`",
"`##dd`dddddddddddddddddddddddddddd`ddee`",
"`c#dd`dddddddddddddddddddddddddddd`dde.`",
"`##dd`dddddddddddddddddddddddddddd`dde.`",
"`##dd`dd`d`d`d`d`d`g`d`d`d`d`d`d`d`dde.`",
"`##dd`dd`dbg`d`d`g`d`d`d`dbd`d`d`d`ddee`",
"`##dd`dd`d`d`d`g`d`g`d`d`d`d`d`d`d`dde.`",
"`#cdd`dd`````gb````d`````g`````d`d`dde.`",
"`#fdd`dd`````d`````d`````db````d`d`dde.`",
"`#cdd`dd`````d`````d`````d`````d`d`ddee`",
"`#fdd`dd``````````````````````h``d`dde.`",
"`#cdd`dd``b``````````b```````````d`dde.`",
"`##dd`dddddddddddddddddddddddddddd`dde.`",
"`##dd`dddddddddddddddddddddddddddd`ddee`",
"`c#dd`dddddddddddddddddddddddddddd`dde.`",
"`##dd`dddddddddddddddddddddddddddd`dde.`",
"`##dd`dddddddddddddddddddddddddddd`dde.`",
"`##dd`dddddddddddddddddddddddddddd`ddee`",
"`##dd`dddddddddddddddddddddddddddd`dde.`",
"`#cdd`dddddddddddddddddddddddddddd`dde.`",
"`#fdd`dddddddddddddddddddddddddddgbddee`",
"`#cddbadddddddddddddddddddddddddgd`dd.e`",
"`c#dd``````````````````````````````dde.`",
"`##dddddddddddddddddddddddddddddddddd.e`",
"`f#dddddddddddddddddddddddddddddddddd..`",
"`c#e..e.e.ee.ee.ee.ee.ee.ee.ee.ee.ee.ee`",
"`#.e..e..e..e..e..e..e..e..e..e..e...e.`",
"````````````````````````````````````````"
};
