/* XPM */
static char *tp5_xpm[] = {
/* width height num_colors chars_per_pixel */
"    42    41       16            1",
/* colors */
"` c #040204",
". c #6c8284",
"# c #9cd6dc",
"a c #f4cac4",
"b c #fcfefc",
"c c #b42224",
"d c #dcdad4",
"e c #ccd6ec",
"f c #0c0aac",
"g c #fcbabc",
"h c #dc1614",
"i c #acd2d4",
"j c #ecd2cc",
"k c #dcdadc",
"l c #000000",
"m c #000000",
/* pixels */
"####iii####i##i##i###i##i####i##i####i##i`",
"#i##iiii#i##i#i#i#i#i####ii#####ii#i##ii#`",
"##ikbebebebebebebebebkbebebkbebbebebkbe#i`",
"ii#beeeedekekkkkdddkdddkiddkikdkkekeke.ii`",
"##iekkkdedkkkkkdddddedkdkkddkdkdkkkkkk.ik`",
"###bed``````````````````````````````kd.ii`",
"#i#edk`dddddddddkdddkkkkedddededddd`kk.ii`",
"###bed`ddeddkdkdjedekedekkjajajjjed`dk.ii`",
"##ikek`dkdedddddedddedkkkjaggggaaae`dd.ii`",
"###bkk`kddkddjeddddakdddejcccccccaj`kj.ii`",
"#iiedk`dedkkeddddddddedddgchcccccaj`dk.ii`",
"###bek`dddkdkeddeddejddddahhgggccga`dk.ii`",
"##ikek`ddejkkdedjeddkdedeahhgggccaj`dd.ii`",
"###bkk`dddekjkkddkkeaddddahhgaaccgj`de.i#`",
"#iiedd`ddddekdkkedkkdddeeahhaagccgj`dd.ii`",
"###bed`ddddkkdedkdkkdddddahhgagccga`de.ii`",
"##ikek`dddeddkdddedkedkdeahhgggccaa`dk.ii`",
"###bkk`dejkkedkeddkddddddachcccccaa`kd.ii`",
"#iiekk`dddikjejdddeke```dgcccccccaj`de.ii`",
"###bkk`ekeekeeeejkdkkk``jjagaggaajj`kd.ii`",
"##ikkk`keejeejeeekddd`d`ddaeajjjjje`de.ii`",
"ii#bek`ejfffffffejed`kdededdddddddd`ed.ii`",
"##idkk`eefffffffeed`kedddddddkdejkd`dk.ii`",
"#i#bkk`eeffeeeffed`kdkadddddejkkedk`kd.ii`",
"##ided`eeffeeeffeekkkdededddedkkkdd`kk.ii`",
"#i#dkd`ejffeeeffekkekdddddadddkddek`ke.ii`",
"##ibdd`eeffjeeffjejkkedkdddedddeddd`kk.ii`",
"##iekd`eeffeejffekdekdeddedddeddddd`de.ii`",
"##ibid`eeffeeeffeedkkkddddddddedded`kd.ii`",
"#i#ekk`eefffffffeddkdekedddjddddddd`de.ii`",
"##ibdd`eef`fffffeededkkkddjedkkdddd`ke.ii`",
"###ekk`eeeeeeeeeeddkkekkedkdeddeddd`ed.ii`",
"#iib#d`kkeeeeeeekkkkkkkkkkkkkkkkddd`de.ii`",
"###ekk`kkkjkkkkkkkkdkkkkkkdkdkkdddd`kd.ii`",
"##ibed``````````````````````````````kk.ii`",
"ii#bidkkkkkkkkkdddddddddddddddddkkjkkk.ii`",
"#iikbddddddddddddddddddddddddddddddddd.ii`",
"###b...................................ii`",
"###i#ii##ii#iii#i#ii##ii##ii##ii##iiii#ii`",
"####i#i#i#i#iii#i###i###i###i####i#i#ii#i`",
"#`````````````````````````````````````````"
};
