/* XPM */
static char *tp6_xpm[] = {
/* width height num_colors chars_per_pixel */
"    42    42       16            1",
/* colors */
"` c #040204",
". c #6c8684",
"# c #b4cecc",
"a c #fcfefc",
"b c #d4caf4",
"c c #0c128c",
"d c #d4dedc",
"e c #d4d6f4",
"f c #040234",
"g c #0406b4",
"h c #0c0e5c",
"i c #dcdad4",
"j c #b4d6d4",
"k c #dcdee4",
"l c #000000",
"m c #000000",
/* pixels */
"````````f````````f``f````````````````f````",
"`jjjjjjjjjjjjjjjjjjjjjj#jj#jjjjjjjjj##jjj`",
"`j#jjj#jj###j#j##j#j#j#####j##jj#jj#j#j#j`",
"`jjeaeakeakaeakakkkaeadakkeaeaeaeaeakak#j`",
"`jjkjkjkdiddediidedideididdideddijdjk#.j#`",
"`jjkkkdddidididiiiddddiiiiiddiiiidddke.##`",
"`jjajd``````````````````````````````id.j#`",
"`jjkki`dideiijiiiiedidediiddiieiiid`id.jj`",
"`jjked`eiiiiiiieididbiiijidiiidiiii`de.##`",
"`j#aid`iijiidiiiiiididdiiiiijiii#ii`id.#j`",
"`j#kdi`diiiiedididdieiieiieiidiiiid`id.j#`",
"`j#aik`iiidiiiiedkeiiiiiiidieideiii`id.##`",
"`##kkd`diiiddidkiiiiiiiikiiiiiiiiii`de.#j`",
"`jjkdd`iedii``ibeeeeeeeeebk``idiiid`di.jj`",
"`jjaid`diiii```ecgggggggcef``iieidi`id.##`",
"`jjkkd`idiiie``fggggggggcff`deiddid`de.#j`",
"`jjajd`iidiidi`ffceeeeehf``diididii`id.#j`",
"`jjkid`idbdieid`ffkibkbf``diddidbdi`id.#j`",
"`jjkdi`didiiddikff`idk``fbdeidiiidi`id.jj`",
"`jjake`idiididibhff`d``fheeiiieiidi`id.#j`",
"`jjkdd`didiieiiegcf``ffchebddiiiddi`id.j#`",
"`j#kki`idbdididegge``feccbdiiddiiei`id.#j`",
"`j#adi`diiiidieeggf``ffhcbbieiiedid`ie.jj`",
"`jjkkd`iidieidiechf`b`ffheiiiididdi`id.##`",
"`jjajd`idiiidiikff`kkk``fedideiidii`id.jj`",
"`jjkid`ieididid`ffeeeebf`fkkkdkiedi`id.#j`",
"`##adi`diiieid`fhcebebbcff`kiiikidi`id.jj`",
"`jjkke`iiiiii``fcgccccgchff`ikkidid`id.j#`",
"`jjkkd`ijiid```bhgcccccche```i#iidi`id.j#`",
"`jjakd`iiiii``ieeebbebeeeeb``iiieid`id.#j`",
"`#jkdi`dieidedidbebeebebiidiiiiiiii`id.j#`",
"`jjkid`idiiiiiiidiiididddiiiiiiijii`id.#j`",
"`j#ajd`dideiidediddedideiieddeiiiik`ie.j#`",
"`##ajk`iiiiiiiiiiiiiiiiiiiiiiiididi`ki.##`",
"`jjkki`iididdikididididdiddidididii`id.jj`",
"`jjkdd``````````````````````````````di.jj`",
"`jjajedeideieidddddddidddddiddddiddeid.jj`",
"`##kdddiddiddiediediediediediediediddj.#j`",
"`jje...................................jj`",
"`jjj#j#jj#j#j#j#j#j#j#j#j#j#j#j#j###j#jjj`",
"`jjj####j###j#j##j###j###j###j###jj##jj##`",
"f`````````````````````````````````````````"
};
