/* XPM */
static char *tp7_xpm[] = {
/* width height num_colors chars_per_pixel */
"    40    40       16            1",
/* colors */
"` c #040204",
". c #ccc6cc",
"# c #b42224",
"a c #fcfefc",
"b c #ecbebc",
"c c #646664",
"d c #c4caf4",
"e c #cccecc",
"f c #1406a4",
"g c #e40e0c",
"h c #0c02d4",
"i c #747274",
"j c #d4d2d4",
"k c #ccd2dc",
"l c #000000",
"m c #000000",
/* pixels */
"````````````````````````````````````````",
"`aajajajajajajajajaeaajajajajaajajajaja`",
"`jaajajaajaajajajajajaajakaeajajajajaji`",
"`ja.jjke.je.jejejekkke.kekkeee.jejeejii`",
"`aa.e..je.e.e.e.je.k.k.k.ee.e.e.e.ejeii`",
"`ajje``````````````````````````````.eii`",
"`ja.j`j.ej.jeejej.eek.kjjjkkkkje.j`jeii`",
"`jaee`.jeeee.eejej.eeejjeeee.eekee`.eii`",
"`ajj.`eej.e.ej.ejj.e.e..e.k.ee.ee.`eeii`",
"`jaee`.eeeeeeeejjekjeeejjbbbbbe.je`.eii`",
"`aje.`e.e.jee.e.k.ee.j...bg##bbek.`eeii`",
"`jaee`jeeee.eeekeekeejjbb#gg#bkkee`.eii`",
"`ajj.`eej.eejee.ke.kj.bbggg#bbe.k.`eeii`",
"`jaee`.eeee.e.eee.j.eb.#gggbbeekee`.eii`",
"`ajj.`ee.eje.jj.jeedbbggg#.b.j.ee.`eeii`",
"`jaee`.eek.ejeee..jbb#gggbb.kj.j.e`.eii`",
"`ajj.`e.eekeej.j.bbbggg#bbj.keeeej`eeii`",
"`jaee`.ej..jkjj..jd#gggbb.ekj.e.ee`.eii`",
"`akj.`ej.jj.j.j.ddfc##bbbekejbeee.`eeii`",
"`jaee`.ejje..j.ddfff#bbjj.k.jee.ee`.eii`",
"`ajj.`jeee.j..ddhfhfdbjeejeee.ejj.`eeii`",
"`jaej`.e.ee.jddfhhfddje.je.e.ejeje`.eii`",
"`akj.`jkj..j.dhhhfddke```eee.j.ke.`eeii`",
"`ajee`.kej.ddfhhfddkj.j``.eeeekkee`.eii`",
"`ja..`kej.ddfhhfddeeeb`j`.ee.ej.k.`eeii`",
"`ajek`.e.ddfhhfdd.ee.`kje.ejejekee`e.ii`",
"`ajje`keedfhhfddk.keeje.j.eeeje.e.`.eii`",
"`eaek`.k.dfffdd.eeekk.ee.jj.je.kje`eeii`",
"`ajj.`eekkddddk.ejj..ee.ej.ek.jee.`.eii`",
"`jaek`.e.e.kk..jee.eej.ejjjj.jee.e`eeii`",
"`ajk.`ee.eee.kee.jj.j..je..eee.jee`.eii`",
"`jajk`.e.e.jkej.j..jejj.ekj.ee.e.e`eeii`",
"`ajk.`eejeeekeeeeeeejeekeeee.eeej.`jjii`",
"`jaej`.e.e.e.j.e.e.e.e.e.e.je.e.ej`.kii`",
"`aejj``````````````````````````````e.ii`",
"`jae..jeeeee.eee.eee.eee.eee.eee.ejejii`",
"`ajjeje.ej.eje.eje.eje.eje.eje.ejee.eii`",
"`jaiiiiiiiiiiiiiiiiiiiiiiiiiiiiiiciiiii`",
"`aciiiiiiiiiiiiiiiiiiiiiiiiiiiiiiiiiiii`",
"````````````````````````````````````````"
};
