/* XPM */
static char *tp8_xpm[] = {
/* width height num_colors chars_per_pixel */
"    42    40       16            1",
/* colors */
"` c #040204",
". c #a4dadc",
"# c #fcc64c",
"a c #f4eeb4",
"b c #d4bec4",
"c c #7c7234",
"d c #ecc67c",
"e c #1c0694",
"f c #c4d2ac",
"g c #1c0a44",
"h c #b4d6c4",
"i c #fcc65c",
"j c #ecca74",
"k c #000000",
"l c #000000",
"m c #000000",
/* pixels */
".........................................`",
"....hhhhhhhhhhhhhh.hhhhhhhhhhhhhhhhhhh...`",
"..haaaaaaaaaaaaaaaaaaaaaaaaaaaaaaaaaaaahh`",
".h.addjddddjijjdjjjdjdjjjjdjjjjdjjjjjdcbh`",
"..hafiddddddddddddddddddjjjjjjjdjdddjjchh`",
"..haj#``````````````````````````````ijcf.`",
"..hajjg#jiiiiiiiiiiii##iiijiii#iijd`i#chh`",
"..had#`di#####i#########i#i##i###ij`#jcb.`",
"..hadj`jj##########i#####j#######id`j#chhg",
"..hajj`di#####jidbibfd##ii#######ij`idcb.`",
".hhaj#`di####dbgeeeeeeji#####i###jd`i#c.h`",
".hha##`ji####jbeeeeeeeb######i###id`#jcf.`",
"..haj#`jji#iiibgebbbeeb######i###id`#jchh`",
"...a##`di#i##dbggbdbeed###i#i####ij`#jcb.`",
"..haj#`ji###ijbggbabeeb#####i####jj`j#chh`",
"..ha#j`ji####jbggb`beeb#####i####id`#dcfh`",
"..had#`jj####jbegb``eedi##i#i####ij`j#chh`",
"..hajj`di####jbge.`geed##i#######id`ijcfh`",
"..faj#`ji####jbeeeg`g`d####i######j`ijchh`",
".hha#j`ji###ijbgee`````i##i######jd`#dchh`",
"..haji`dij#iiijjjb``````#########ij`j#chh`",
".h.aji`di#i###i#ij````dd#########ij`idcfh`",
"..haj#`di########i`d```di########ij`j#chh`",
"..hajj`di########ijj```d####ijij#id`#dchh`",
".hhaj#`dj##########id```j####i#i#ij`j#chh`",
"..ha#j`di#####j####jj```di####i##jd`#dcfh`",
"..haj#`di###########id```jj#j####ij`j#chh`",
".h.a#j`di#######i###ij```ii######id`idchh`",
"..hadi`ji######i#i####ii#i########d`j#chh`",
"...aji`j#######ii################id`#dcfh`",
"..haj#`ji#i################i#####ij`j#chh`",
".h.a#j`jij#j################i#####j`ijchh`",
"..had#`dii##############j#######jij`##chh`",
".h.aj#`djiiiiiiiiiiiiiiiiiiiiiiiiid`#jcbh`",
"..ha##`````````````````````````````g#jchh`",
"..hajjdddddddddddddddddddddddddddddj#jchh`",
"..had#djjjjjjjjjjjjjjjjjjjjjjjjjjjjjjjcfh`",
"...accccccccccccccccccccccccccccccccccchh`",
"....hhhhhhfhhhhhhhhhhhhhhhhhhhhhhhhhhh.h.`",
"....................................h....`"
};
