/* XPM */
static char *tp9_xpm[] = {
/* width height num_colors chars_per_pixel */
"    38    38       16            1",
/* colors */
"` c #040204",
". c #b48a4c",
"# c #ecc66c",
"a c #74baac",
"b c #b47e44",
"c c #ac8e6c",
"d c #fcfefc",
"e c #240204",
"f c #e4c68c",
"g c #fcc654",
"h c #140204",
"i c #84baac",
"j c #b48e5c",
"k c #bc8a44",
"l c #000000",
"m c #000000",
/* pixels */
"aaaiaaaaaaaiiiaaiaaiaiaaaaiaiaaaiaaaaa",
"addddddddddddddddddddddddddddddddddd`a",
"adddddddddddddddddddddddddddddddddd``a",
"add`h```h```h```h```h```````h```h````a",
"addhc.c.c.c......c...c.c.c.k..c.cch``a",
"addh.k..kkk.k.k..bkk......kkkk..k.```i",
"add`...heehhee`ehe..e`eeeeheeeejbce``a",
"addhc.cef##f#f#ff`j.hf#f#f##f#`.k.h``a",
"addh...e##gg#g##fek.ef#g###g##eck.h``a",
"addhckce#ggggggg#ekke##gggggg#e.k.```a",
"idd`...e#gggggg##ekke#ggggggg#eck.h``a",
"addhckce#gggggggfekke#gggggggge.kch``a",
"idd`.kceggggggggfek.e#ggggggg#ecb.h``a",
"addh.k.eggggggg##e.khfgggggggg`j..h``a",
"idd`.kce#ggggggg#ekke##gggggggh...```i",
"add`..je#g#g####fekkef#g#g##g#eckjh``a",
"add`kk.eheeeeeeh`ek.ehe`eeeehehjj.```i",
"add`ckkjjcjjjcccc.k..cccjcjcjjjkk.h``a",
"idd`jkkkkbkk.cehhheeeh`cjkkbkbkkk.```i",
"addhjkkkkkkkkjhfffffffe.kkkkbkkkk.h``a",
"idd`jkkkbkbkk.hfffffff`c.bkkkkkkk.```i",
"addhkkkkbkkk..```heeehec.kbkk.kkk.h``a",
"idd`.kk..j..cc.cc...cc.ccc.c.cj.k.```i",
"add`.k.ee`eeehhe`hkkeh`eehehee`.k.h``a",
"add`.k.e#####g##fekkh##g#g##g#eck.```i",
"addh..j`#gggggggfekkefggggggg#e.k.h``a",
"idd`cjch#gggggggfekke##gggggggeckch``i",
"addh...eggggggg##ekkef#ggggggge.k.```a",
"idd`.kceggggggggfekke##gggggg#ec..h``i",
"addh.k.eggggggg##ekkefggggggg#`.k.```a",
"add`.kce#ggggggg#hkke##gggggg#ec..h``i",
"addeck.e######g#fe..ef#gg#ggg#e..j```a",
"add`..cheee`eheehec.e`eheeheehecjch``a",
"addhcc.ccccccccccccccccccccccccccc```a",
"add`hh`h```````h`h`h``h````h`h`hh````a",
"ad```````````````````````````````````a",
"a````````````````````````````````````a",
"aaaaaaiiaiaiaaiaiaaiaaiaaaiaaaiiiiiiaa"
};
