/* XPM */
static char *tpzwg[] = {
/* columns rows colors chars-per-pixel */
"130 40 79 1",
"  c #000706",
". c #000C05",
"X c #000E09",
"o c #001007",
"O c #00130B",
"+ c #001511",
"@ c #001A13",
"# c #001E19",
"$ c #002017",
"% c #00241C",
"& c #00281E",
"* c #89BEB4",
"= c #9FB9B8",
"- c #8DC5BC",
"; c #95C0B6",
": c #92C5BC",
"> c #95C8BF",
", c #9BC6BE",
"< c #9DC9BF",
"1 c #A2C3BE",
"2 c #A9C2BF",
"3 c #96CBC2",
"4 c #9CCDC4",
"5 c #96D1C7",
"6 c #9ED0C6",
"7 c #9ED4CB",
"8 c #9FD9CD",
"9 c #A5C6C1",
"0 c #A3CCC4",
"q c #A5CFC8",
"w c #ACC7C2",
"e c #AACCC5",
"r c #ABCEC9",
"t c #A4D1C7",
"y c #A3D4CC",
"u c #A4D9CF",
"i c #ABD4CC",
"p c #ACD9CF",
"a c #A4D7D0",
"s c #A7DCD2",
"d c #ABD7D0",
"f c #AADCD3",
"g c #ACDFD8",
"h c #B0CAC7",
"j c #B2CECA",
"k c #B2D4CD",
"l c #B0D8CF",
"z c #B8D2CE",
"x c #B4D6D1",
"c c #B3DCD4",
"v c #B5DED8",
"b c #BAD4D1",
"n c #BADBD5",
"m c #BCDDD9",
"M c #A6E1D6",
"N c #ABE1D6",
"B c #ADE3DA",
"V c #ADE8DD",
"C c #B3E0D7",
"Z c #B3E4DB",
"A c #B1E8DF",
"S c #B8E0D7",
"D c #BBE4DC",
"F c #BBE8DF",
"G c #B4E7E0",
"H c #B4EAE1",
"J c #BAE7E0",
"K c #BBEBE3",
"L c #BCF3EA",
"P c #C0DAD6",
"I c #C1DCDB",
"U c #C9DDDC",
"Y c #C1E2DC",
"T c #C4E7E0",
"R c #C2EAE3",
"E c #CDE5E5",
"W c #C4F6ED",
"Q c #C8F7EF",
"! c #C2F9F0",
/* pixels */
"ssssssssssssssssssssssssssdsssssssMMsssgagMaagagaMaMaaMasss8MM8MssssssssssssssssssssgssgsMMaMaggaaaffaffssssssssssssssssssssssssss",
"sssssssssssssssssssssssssssssdsssMMMssaMMaaggagsaMMMMMMMMssMsMsMssssssssssssssssssssgssgsggsagMassssfsfsssssssssssssssssssssssssss",
"sssssssssssssssssssssssssssssssss8sssgMgaMMaMaaMMMaaMaaMsMMs8sssssssssssssssssssssuMssssaMMassssssssssssssssssssssssssssssssssssss",
"ssssssssssssssssssssssssssssssssssssssasMgaggaggMaMMaMMas8MsMM8MssssssssssssssssssMsssssgagsgagsssssssssssssssssssssssssssssssssss",
"sssssssssssssssssssssssssM8sssssssssssssasssssss8aaMMMaM8sssssssssssssssssssssssssssssssMasssssssssssaMassssssssssssssssssssssssss",
"ssssssssssssssssssssssMM8sMsss8ssssssssssssssssssMaMMaaMMMM8Mssssssssssssssssssssssssssssssssssss8M8MMaMsMssssssssssssssssssssssss",
"sssssssssssssssssssssss8MM8MssssssssssusssssssssssssssaMssssssssssssssssssssssssspfussssasafsffsM8MMssaMs8ssssssssssssssssssssssss",
"ssssssssssssssssssssss8MM8ssssssfsfpffppasssssssssssassassssssssssssssssssssssssfpfffuffssfffafssMsss8sasMssssssssssssssssssssssss",
"ssssssssssssssssssss8M8M88NasgufCuuiCtCtsN<sNssuBsgMyNpspspsC<VusssZfayGsNg6gtgypspuuNpfCspupftpM7asagagsssssss8ssssssssssssssssss",
"ssssssssssssssssssssssssV8uNduZttS0cpuuFN<FCtspNssgNyuCuyCts<KNudfv3agg7ysssgJysyfCCtS<Cp<ZpCuCZ7!fgvdGaassssMsMssssssssssssssssss",
"sssssssssssssssssssssMM85aBfXdvrliSicirilpupCNyif0o4DC<CtCppRo<CJ3qQXffdgdsgt>fCcticD<DpcZi<Fop1f4X0K3gGdssss8Msssssssssssssssssss",
"ssssssssssssssssssssM8MsHg6iXx9Ikooo.OoOoRS<pS<CcSXdlpSliCiiCoYt4Jid+4vd0KqOo+XXoOOoo@oopliYtoSSvv cqKdqffsssM8sssssssssssssssssss",
"sssssssssssssssssfsss8ss7GcdX@+ jok2S2kkO<pSooooX.o&o.oop<YloS1Fv3R,+vvdcyvXvv0cS1llSil$llDtlOirx X XXXJdfssssMsssssssssssssssssss",
"ssssssssssssssssssssssssdvdY =EwY.YnjkYkopSpOlSlkFo1lDSoDlooooooOd  X  XddvXitvdkOkeSx2oleOoo..Oj+jxYx ddsfsss8Mssssssssssssssssss",
"sssssssssssssssssssssssfadqXhEjUz.O.o@.ko<lS.SiinrolSl.Slikl.kSxcxx ccncrRr vXxcn.nnkOnoeYkkS.kbXbXI9 vcddfss8M8ssssssssssssssssss",
"sssssssssssssssssssssssdfdm   X zOjznjnPon<S.lkklj.nenkxSlnox.nkkmx.ndjbnexOxr@e.n.kS.ooY2nk.Ob.bbj IXxfffffsssMssssssssssssssssss",
"ssssssssssssssssssssM8sssgXm xIjnXj.. .k.hYe.kX..oOo.oSllp.xk.bbk. . O. Okn.kYeoxkkok@kokkkj$..bjIbj rxdicu6NM5Vssssssssssssssssss",
"sssssssssssssssssss8ssssZyvrOm2Ph.PXhI.Y.YwnXin.kb2kkoStSt+o.X. XwP.bhkjkxkOYk1$kxxxo1kokYlO1Ol.bI Xj#XdcpfAM8V5ssssssssssssssssss",
"sssssssssssssssss8sMssss6v  X + bXz nz.w.jkS.rYjOkY2OpcS;F0xY.nnjb bYwUmkY2.2l%1oSlkoYloli2Ol.SO+ ImrcrXodA-NNMMssssssssssssssssss",
"sssssssssssssssssM8MssssZydRXmrbb.j.km.nojlnoklc.hkSoSitSD0vw.kbn O..O..l2S@iSoSOkkoeox.clOcYoSeh#X XX@dgd6ZN5Asssssssssssssssssss",
"sssssssssssssssssMssM8ssdddv njne+jXXX.k.DlSXeneb@nolpFyD<pS+o@.Y1zmi9#kiSc.vXiiSoOtSOiOiFrrvXvvI rIxe ctSGNssasssssssssssssssssss",
"ssssssssssssssssM8sMsMssgaav vxdx.kve0Ti@1i1oclSi2+ciS<D<ZOoi.in,ToinTXiitpoOuSfpoiRepioiiFexo0xr vxvv Kv3dg6gMsssssssssssssssssss",
"sssssssssssssssssMs8ssssygddXjrXi.vccFqcoRlcODitl+p.pF<uNCtSDo0DDkp.pXeCCCCotCtZplCieDlOpciplOdcm+rdqcO3CysBysV7ssssssssssssssssss",
"sssssssssssssssss8Ms8M8MsfyvXd+dc.icitSi+<Docicc.ipCoopCypCtcXvilf4FotFyp6NopfdtciipcOoopcicpoifd JqDcXZtK6sB7gassssssssssssssssss",
"sssssssssssssssssssMssssasdgXXDiqXdgfdXdXfJ fvaXpcftfZoo+3dJqXSiCutSaXgguNdosN7gCtNtdf fvuyvdXfcd XXXXXddfsfssssssssssssssssssssss",
"sssssssssssssssssss8MM8MgsN7+F4fgXfdaavXiZ+qvX gpficc6KofZg4Z+4C6ZCNy#s6d6ZyyGaNuyfZfgyCqBCgy#dqv ffddXvsfsassssssssssssssssssssss",
"ssssssssssssssssssss8MM8M3NdtgvtaHaagG3gg:fgfZqvfuZtC3Z66N3Zu4ZgZ76B7aaVsNuK3aggZufuf6HaZy6NyaaGfqJadJaasffffassssssssssssssssssss",
"ssssssssssssssssssssss8MaVsZss6Za5BMfvagGC6K6yGatNufgN7KgagZyKs3NB7ggGBs5La3MgM7CuuuZB-VgNyggGvafgqvv6gfdfsasfssssssssssssssssssss",
"ssssssssssssssssssssssMM8uV>7NygMMaA58As:BG3GaaaaB78NaH3V:g7s5NA7VMs777asagHssfg7N7HaBHg7Ggs877aaNfuafgysdsfssssssssssssssssssssss",
"sssssssssssssssssssssMM88M5HgssyMM7aL887L67GaBgaggV5gy3KaVNG5su8MasgaL5VA6gg7aagsNgM77G5gasg7!5Vfudsssafsfssssssssssssssssssssssss",
"ssssssssssssssssussss8M8MVV73NgNaMV55gBB8sHsag7s7gaHaHA3ss7MAuMVsMV8A3V7sgV7HVs7M8B8BB7AsMVaV3V7sZygsyZsafsdssssssssssssssssssssss",
"ssssssssssssssssssssssss8M8NB7as8V5MA7sagsaaB7GsB7ssag8MsHa7Ms88M6Vs7H8BaM6N7gsgssss8B7as5Vs7H7gg4NssC3gfsssssssssssssssssssssssss",
"ssssssssssssssssssssssssM8ssssssMs8Mssssssssssssssssssssssssssssssssssssssssssssssssssssssssssssssssssssssssssssssssssssssssssssss",
"ssssssssssssssssssssssssssssssssssssssssssssssssssssssssssssssssssssssssssssssssssssssssssssssssssssssssssssssssssssssssssssssssss",
"ssssssssssssssssssssssssssssssssssssssssssssssssssssssssssssssssssssssssssssssssssssssssssssssssssssssssssssssssssssssssssssssssss",
"ssssssssssssssssssssssssssssssssssssssssssssssssssssssssssssssssssssssssssssssssssssssssssssssssssssssssssssssssssssssssssssssssss",
"ssssssssssssssssssssssssssssssssssssssssssssssssssssssssssssssssssssssssssssssssssssssssssssssssssssssssssssssssssssssssssssssssss",
"ssssssssssssssssssssssssssssssssssssssssssssssssssssssssssssssssssssssssssssssssssssssssssssssssssssssssssssssssssssssssssssssssss",
"ssssssssssssssssssssssssssssssssssssssssssssssssssssssssssssssssssssssssssssssssssssssssssssssssssssssssssssssssssssssssssssssssss",
"ssssssssssssssssssssssssssssssssssssssssssssssssssssssssssssssssssssssssssssssssssssssssssssssssssssssssssssssssssssssssssssssssss"
};
