/* XPM */
static char *wcxlbc[] = {
/* columns rows colors chars-per-pixel */
"130 40 84 1",
"  c #000705",
". c #000C06",
"X c #000D09",
"o c #001006",
"O c #00130C",
"+ c #00190F",
"@ c #001511",
"# c #001A14",
"$ c #001F18",
"% c #002016",
"& c #00231B",
"* c #9BBBB6",
"= c #A2BFBB",
"- c #8FC3B7",
"; c #8FC2B9",
": c #8BC9BC",
"> c #93C6BC",
", c #95C8BE",
"< c #9BC4BC",
"1 c #9DC8BF",
"2 c #A3C6BE",
"3 c #A8C2BE",
"4 c #94C7C0",
"5 c #95CCC1",
"6 c #9DC6C0",
"7 c #9CCDC4",
"8 c #93D0C2",
"9 c #9BD2C6",
"0 c #9DD4CA",
"q c #9ED9CD",
"w c #9FDBD1",
"e c #9EE0D2",
"r c #A6C7C2",
"t c #A3CDC5",
"y c #A5CEC8",
"u c #A8C4C3",
"i c #AACCC6",
"p c #ACCEC9",
"a c #A3D1C6",
"s c #A3D4CB",
"d c #A3DACE",
"f c #A8D0C7",
"g c #ABD4CD",
"h c #ABD9CE",
"j c #A4D7D0",
"k c #A7DCD2",
"l c #ACD6D0",
"z c #AADBD3",
"x c #ACDFD8",
"c c #B1CAC6",
"v c #B2CFCB",
"b c #B8CDCB",
"n c #B2D4CD",
"m c #B0D8CF",
"M c #B9D2CE",
"N c #B4D6D1",
"B c #B3DBD4",
"V c #B4DED8",
"C c #BAD6D2",
"Z c #BADBD5",
"A c #BBDDD9",
"S c #A5E1D4",
"D c #A6E2D8",
"F c #ABE1D6",
"G c #ACE3D9",
"H c #AAE9DA",
"J c #B3E1D7",
"K c #B3E3DB",
"L c #B3E9DE",
"P c #BBE3DC",
"I c #BAE9DF",
"U c #B5ECE2",
"Y c #BAE7E0",
"T c #BBEBE3",
"R c #B3F1E3",
"E c #BDF3EA",
"W c #C2DAD6",
"Q c #C2DDDA",
"! c #C2E2DC",
"~ c #C0E8DF",
"^ c #C4E4E1",
"/ c #C4EAE3",
"( c #CDEDE8",
") c #C3F0E9",
/* pixels */
"kkkkkkkkkkkkkkkkkkkkkkkkkkkkkkkkzzzkkkwweDxwDkkjxDzjxjzzjxzlxlzzzzzzkkwxwxxwkkzzkkkkkkkkkkkkkkkkjkwewwewkkkwkkkDkkkkkkkkkkkkkkkkkk",
"kkkkkkkkkkkkkkkkkkkkkkkkkkkkkkkkzzzzkkxwwewxkkjDxjzzjxzzxjzxlxzzzzxzxwxwxwkwkkzzkkkkkkkkkkkjkkkkkkkwxxwxSkkDkkkkkkkkkkkkkkkkkkkkkk",
"kkkkkkkkkkkkkkkkkkkkkkkkkkkkkkkkzzxkxkkwxwxxzzzzjjxjDjjxkkkkkkkzzzzzkxxwwwxxjzxzkkkkkkkkkkkkkkkkxkkkxwxwkkkkxkkkkkkkkkkkkkkkkkkkkk",
"kkkkkkkkkkkkkkkkkkkkkkkkkkkkkkkkzzzkkkkxkkkwzzzzzDjDjxjDkkkkkkkkzzDjwxwxwxwxDDkkkkkkkkkkkkkkkkkkjxkkkwxxzzkSkkkkkkkkkkkkkkkkkkkkkk",
"kkkkkkkkkkkkkkkkkkkkkkkkkkkkkkkkhhzhkkhSkkkkkzlzzkkkDkkkkSdkdSSSjjkwkwkewexwkkkkkkwkkkkkkkkkkkkkkkzkkkkkhkkhkkkkkkkkkkkkkkkkkkkkkk",
"kkkkkkkkkkkkkkkkkkkSkkkkkkkkkkkkkhzzkkhhkkkzzzzlkkkkjDwkwkkSSSddkDkkwxewDwwwkkkkkkSkkkkkkkkkSkkkkzzzkkkkkkhFkkkdkkkkkkkkkkkkkkkkkk",
"kkkkkkkkkkkkkkkkkkkwkkkkkkkkkkwkkkkhkkShkkzkkzzzzkkkkkkkSkSdSdddkwkkxwkDkkwxwkwkkkkkkkjzkkkkkekSkzzkkkkkkhkkSdSdkkkkkkkkkkkkkkkkkk",
"kkkkkkkkkkkkkkkkkkkkkkkkkkkkwkSwkkkSkkhSkkkzkkzkkkkkwkwkdSkSkSSSkkkwwkkwwkkkkwkkkkkkkzzzkkkkekekjkkkkzkkkkkdSSSekkkkkkkkkkkkkkkkkk",
"kkkkkkkkkkkkkkkkjS9TdxjzkdzF0DdSH9SS9SddhdFkkdFdwUkjddSSFhSS0dLddJFdFddFL8IddLadkzzdxx7zaKdFHkH9kkk0HdLsFdL0SHqqkkkkkkkkkkkkkkkkkk",
"kkkkkkkkkkkkkkkkHkk7kaxlzKsdY0kk1HS9HHFdhkadzh9Lkj7jFJdaaHd1RsFszd-FJ9Jd0G9zddFhdxzddfKYKddk08DDkDqDF-FshddH,qRSkkkkkkkkkkkkkkkkkk",
"kkkkkkkkkkkkkkkk9k0KKKszkzhkddkSSS9Sh1dFaRzhzzzhxsUU1sIzJ1JFJhaJFzLFaJJaKzzJJdFazdaxVll6sBFdUE9eqqkSdIJJzJhhFL00kkkkkkkkkkkkkkkkkk",
"kkkkkkkkkkkkkkkkDUadkXglgVsO0UG0SshhJIFhfhafJhhgzj07osJ1FhoJamBJhh1hg1BZzXPg7Jhh7KlOlBlYll7#q8qSS5HSo1aJhhohJ,sLkkkkkkkkkkkkkkkkkk",
"kkkkkkkkkkkkkkkkF>UKs@BVBlB.T7dksFho.o.o+.+o...gfzhJo%fmh~oZ.mnihPoo+onnf+2mPmaIYglgX@lpgPsXkTkdFdJ9oo!.Np.Zi%fhkkkkkkkkkkkkkkkkkk",
"kkkkkkkkkkkkkkkkkK4gV  X AyXzKdKhhJ.n~CcZ2MvCC.ZIghhoafmn2%nM.o!nfOgn.2!Z..O.+.hgzlV l^pAyPXksL0dFhhoZvM.!.=W.omkkkkkkkkkkkkkkkkkk",
"kkkkkkkkkkkkkkkkjKVy@BAp@NgXlyK7PnnO3ncMbW!bCCXvthPofJJgZZ.Mv+3v!2.mioWc.OnnZoPnBX#X # #NNg&4FFdhhhoZiWc.b W+3WMzkkkkkkkkkkkkkkkkk",
"kkkkkkkkkkkkkkkkkszVXpBN Nl$6KfBfZv.o.  . .. . nBhm.JiZoo..o..OM2~.Znoc.MM.Wv.mmzVylNAXlpAlXzzFzFhB.f!..... ....zkkkkkkkkkkkkkkkkk",
"kkkkkkkkkkkkkkkkVBg@lBBB lBXXtTlsBB.NCANvACullNBmB.ZZ.mmmC.PZngZ!h.....WMC.p.ZfBmBszZ pAyYN XVVgm1%o.mOfvZnngiOlzkkkkkkkkkkkkkkkkk",
"kkkkkkkkkkkkkkkkzN g NB V/r B#6lVxx@Vl OXO &#Xx7foO..oimgmOm2BnBgn%M+vWcW3W.ZnmgVBkz.iAXNiv#x#yBB+<oZgfnhPaaPVklzkkkkkkkkkkkkkkkkk",
"kkkkkkkkkkkkkkkkzXPKB@t#stVXBgXVjsjXs^NlylVyyxxxm/2m+mZ.O...O. XZm2n.CcWCM.C.OmmigIO ^OtPlQ y4#lhJ/oJmgO..oO..llzkkkkkkkkkkkkkkkkk",
"kkkkkkkkkkkkkkklzgNllX BB/y@ggVXxTyXlrBNANBlVyyy2~v.nmnfvm.ZiZnNfJo!...b .CQCB.oPgoF  yKsVv@xxVXmgi+mfnn!gfmBmBVzkkkkkkkkkkkkkkkkk",
"kkkkkkkkkkkkkkkkzgBBlKOhzfV.BBl y6^X   @     X@@P<o+.o+f!f@!NXNp!2.Z.MW.X...@  /BOks#u&yKsA aj7XfmmoggO...O.XX  kkkkkkkkkkkkkkkkkk",
"kkkkkkkkkkkkkkkkPgyllXKBVgBOllVzPNpO=^Q AuvAp^pgmmghBfZPi~*.XpCAiP.g.nnM vCNnXlyyskk AyOlVi@xxTlJhm.hZZvv.vnpp(gkkkkkkkkkkkkkkkkkk",
"kkkkkkkkkkkkkkkk7lPkOTylzlzXKz7VjlVXYlBXpVAyXAyKhJJmgPftnn~.NNC Zt%rOZMCXZpZAXVlYzk0@AfxaVBOj07zgJfoZinnO.Z! ApVkkkkkkkkkkkkkkkkkk",
"kkkkkkkkkkkkkkkkkPaXzlsVfVVXzlzVVjlXlBXVgPyYVXzzhhghO.oBZ..Z Zv nB.nX..m.pApN.vBgV0U NzzVyAXdUyVBJ1+gnn.n!pvMXMlzkkkkkkkkkkkkkkkkk",
"kkkkkkkkkkkkkkkkdK.xKydVxlk.tVaKBC NCX   O X@  VhOO.VgfXOAyAp ^XV.O.BlNl  X@ @lBKyD9XNlzzlNX9DsVJsV.gB. XXXX@XXAkkkkkkkkkkkkkkkkkk",
"kkkkkkkkkkkkkkkkzOY7dYlj7KkOKTdsNy#vv^vvCACpi@NyB9kKhzTByyPVVA  B7VhzYgPXPVlYXyxsdUFXzK77KlOHRdsdsIOzgBXNAApu@Nyzkkkkkkkkkkkkkkkkk",
"kkkkkkkkkkkkkkkkx>xxxkaHxza@4>KkxO5TjjlVY4lTjsKKkKsFsV7lVVVyVlV@zKhVyyjllPyjjzjYzK:5@ykxFzy@5:KkKFhxlyKBA6l^lgAKkkkkkkkkkkkkkkkkkk",
"kkkkkkkkkkkkkkkkTdFzzdT0kFK0xTxd0zKdsxFjjUj7E0k0dxzsFjdF7x7xzlljKd7kT0VxzjjxzKkjdDRSfVKkkKKfSRFdF9d4KKtVlYz6)yzykkkkkkkkkkkkkkkkkk",
"kkkkkkkkkkkkkkkk>K9F0xdzF0zKd5zkKdhxKlkzylxz7xsKxkwxkxjjDDUjxjxxaxxG0xqjxjU5Kk0xzz8qKxaFF0BKq5zzkxxUjsKjjjxz7xwKkkkkkkkkkkkkkkkkkk",
"kkkkkkkkkkkkkkkkKkKdkdkz0U7HkK7Vkxhla0zzKjjjlxVsjjxG0sxzGk0DxkD0xxkw7UkGkj9U4DxkF9HwK7U00UtKwH8Hkjxqk7E4KjjjzDDwkkkkkkkkkkkkkkkkkk",
"kkkkkkkkkkkkkkkkkkdkUdL7dFz>UkkkjSkwUHH9qSSkkk0xGqk0HxLwx8Lk9wHkj0HxGw0wxUwkxkwjzkeR>BxddxB>RejkxwDkDD7TjDDkkwwDkkkkkkkkkkkkkkkkkk",
"kkkkkkkkkkkkkkkkxkFd0dFzzkkFdkjdDqDk9SqHkwSkwwxwqUwxwx9DxkwDDwwSkDkkjwxwwwjxkwDjjjeqFzdzkdlxqSqjwDxkqLjjzkDkwwDwkkkkkkkkkkkkkkkkkk",
"kkkkkkkkkkkkkkkkkkkkkkkkkkkkkkkkkkkjkkkkkkwSkkwSkkkkkkkkkkkkkkwSkkkkkkkwkkkkkkkkkkkkkkkkkkkkkkkkkkkkkkkkkkkkwkkwkkkkkkkkkkkkkkkkkk",
"kkkkkkkkkkkkkkkkkkkkkkkkkkkkkkkkkkkkkkkkkkkkkkkkkkkkkkkkkkkkkkkkkkkkkkkkkkkkkkkkkkkkkkkkkkkkkkkkkkkkkkkkkkkkkkkkkkkkkkkkkkkkkkkkkk",
"kkkkkkkkkkkkkkkkkkkkkkkkkkkkkkkkkkkkkkkkkkkkkkkkkkkkkkkkkkkkkkkkkkkkkkkkkkkkkkkkkkkkkkkkkkkkkkkkkkkkkkkkkkkkkkkkkkkkkkkkkkkkkkkkkk",
"kkkkkkkkkkkkkkkkkkkkkkkkkkkkkkkkkkkkkkkkkkkkkkkkkkkkkkkkkkkkkkkkkkkkkkkkkkkkkkkkkkkkkkkkkkkkkkkkkkkkkkkkkkkkkkkkkkkkkkkkkkkkkkkkkk",
"kkkkkkkkkkkkkkkkkkkkkkkkkkkkkkkkkkkkkkkkkkkkkkkkkkkkkkkkkkkkkkkkkkkkkkkkkkkkkkkkkkkkkkkkkkkkkkkkkkkkkkkkkkkkkkkkkkkkkkkkkkkkkkkkkk",
"kkkkkkkkkkkkkkkkkkkkkkkkkkkkkkkkkkkkkkkkkkkkkkkkkkkkkkkkkkkkkkkkkkkkkkkkkkkkkkkkkkkkkkkkkkkkkkkkkkkkkkkkkkkkkkkkkkkkkkkkkkkkkkkkkk",
"kkkkkkkkkkkkkkkkkkkkkkkkkkkkkkkkkkkkkkkkkkkkkkkkkkkkkkkkkkkkkkkkkkkkkkkkkkkkkkkkkkkkkkkkkkkkkkkkkkkkkkkkkkkkkkkkkkkkkkkkkkkkkkkkkk",
"kkkkkkkkkkkkkkkkkkkkkkkkkkkkkkkkkkkkkkkkkkkkkkkkkkkkkkkkkkkkkkkkkkkkkkkkkkkkkkkkkkkkkkkkkkkkkkkkkkkkkkkkkkkkkkkkkkkkkkkkkkkkkkkkkk"
};
