/* XPM */
static char *wcxlcl_xpm[] = {
/* width height num_colors chars_per_pixel */
"   150    28       16            1",
/* colors */
"` c #1c2aac",
". c #949edc",
"# c #ace6f4",
"a c #ecf2fc",
"b c #5462bc",
"c c #bcfefc",
"d c #cce6bc",
"e c #6482cc",
"f c #344ab4",
"g c #a4bee4",
"h c #848eb4",
"i c #ccdef4",
"j c #fcfefc",
"k c #000000",
"l c #000000",
"m c #000000",
/* pixels */
"dccccccccccaccccccacccaccccccccaccccccccccccccccccccccccccccccccccaccccccccccccacccccacccccgccccccaccccccccccccccccccccccccccccccccccccccccccccccccccc",
"dcccccccccccccccccccccccccccccccccccccccccaccaccccccccccaccccaccccccccccccaccccccccccccccaddccccccccccccaccccccccacccacccccccccccccccccccccccacccacccc",
"ddcccccaccccccaccccccccccacciccccccccaccccccccccccccccccccccccccccccccaccccccccccccccccccccdccccccccccccccccccacccccccccccccacccacccaccccccccccccccccc",
"ddccacccccccccccccccccccccccccccccacccccccccccccaccccaccccciccccccccccccccccccccccaccccccccdcacccccccaccccccccccccccccccacccccccccccccccaccccccccccccc",
"ddccccccccccccccccccaccccccefeicccccccccaccccccccccccccccccccccacc#iccccccccccaccccccccacccdcccccacccccccccccccccccccccccccccccccccccccccccccccccccccc",
"ddccccccccacccccccccccccccc`fffcccccccccccciccicc.b.ccccccccccccc.```giccaccccccccccccccbfggccccccccccccccieegccacccaccccccccccccccccccccccacccacccccc",
"ddcccccccccccccccacccgbeacc`ej`cccccccccccg..ef```e``gcccacccgbec.`abb.egcccccccccicccc.`b`gccccccccc#.gccg`b`.ccccccccccccccacciciefeiccccccccccccacc",
"ddcicccaccccccaccccccff`fccbfi`cacccacccccff`fe.ggjjbbccccccc`e`ec`geb`f``gcccccigb``.i`ba`hicccccca#```gci`iebcccccccciciggf``````f.f`gcicccccccccccc",
"ddcccccccccccccccccic`gg`ciefg`cccccccccca`gief```a.`.cccccci`i.fi`geb`eaffcacb```f.e`e`g.```.ccccccg`jeecc`gebccccccc#b```f`eg.i.gegjbbcccccccccccccc",
"ddcccccccccccccccccce`af``befg`icccccccccc`.g````fi`.cacccccbfa`bg`ge````fecccfeieeeafffeggj.`ccaccc.`afeic`gfecccacc.`beiagfge`eg``fafecccccccccccccc",
"ddccccccccccacccccci`.g`bg`ffg`g#ccccccccc`gefegaag`cccccccg`gb`f``e.`eg`ecccc.`a``fg``gf`bje`ccccccfei```b`gfe#icccc.`bbif``ee`e.``fa`#ccccccacccaccc",
"ddccacccacccccccccc`fi.g.aeffgf``f.ccccccc`iiebf```bcccccci`e.``ib`feie``gacccc`.eege`f.``..`gccccc#`a`eii``g````.ccccge`.efbeebiggfeg`acccacccccccccc",
"ddcccccccccccccaccf`i```ba`efgfaie`baccic#`jf`````f`bccccc`fg``ei`efa```f`ccccibf`g```.g``a`ecccccibbeefgi``gf.a.`.ccici`ee``f.`fe``gefccccccccccccccc",
"dcccccccccccccccc.`.````gef.fg``.ja`gcccce`a``e.iagbficcci`aai.g`f``aegae`cccceb``af````..h`iccaccg`i```ief`gf`ba.`ccce``a.a``g`fe``a`.ccccccccccccccc",
"dcccccccccccccccc.```i.`a`g.fg`.`fgfecccc`eg``ff```````e#cf```i````.faf```cccg`b``.gg`e`.f.`fgcccc`b`b`fa`g`gfef`b`cccff.```f`jgaggeg`#cccccccccccaccc",
"dccccccacccacccccc##e`egefc.fg`cib``gccci`ib`````fbegg.`ec#b`.b```efb.``a`iccg`if`g````bi`eae`fgce`.`eg.efa`gfec.e#cccgb`efb``f`fe```bccccacccaccccccc",
"dccacccccccccccccccc#`bi`gcef.fcccccccccffibe.iigg.eeeefbcb`gaggf`bb`j`i.`cccc`gf`g```bi`b`baib``b``e`e`f`g`gfeccccccccc`ef`e```fbff`#accccccccccccccc",
"dcccccccccccccccacci`fi`eccef.fccccccccg`ibefffa````fbbe#cbfje````gi`gg.`.cicc`ef`.b`b.`````faaabf.g.`i`ie``gf.cccacci.f`f.g``ggig.e`ccccccccccccccccc",
"dcccccccccccccccccg`fg`ecccefgfcccaccci`eg`eb`gg``.`ficccci`````b`b``i.`ecf`e``bfig`ee`egggje`f``ec.`.b``gg`.`icccccc`fbgaf`e```fe`feccccccccccccccccc",
"dccccacccacccaccce`e.`eccacefg`accccccffi`.g`ei```.ab`#cc.```bggf``.gfg.`e```eia.`````a````ig`.icc.`.e`g.`eae``bgcccc`ijg`fi#.b`fe`````bicccacccacccac",
"dcccccccccccccccc`ef`gcccccbbg`ccccccf`g`ee`eaffe.gbafbccfegjgf``bgf`f`ab`eff`.``e#gi`i`bf`a`.cccb`.f`gccg`faa.f```fge`f`.````ffgj.ggjif`ccccccccccccc",
"dcccccccccccccccc``e#ccccccfeg`cccccg`e`ec`gjagef```ig`cce`.f`eg```e##fbj.afeb`eccccc`.efh.``#ccc`f`f#cccccf`ijjjig`ec#g#c`gigeefff``ff``ccccccccccccc",
"dccccccccccccccccccccccccccbe.`ccccc#``.ccfff``fegce``fcccefeccc##cccc#`bjjfbccccacccfffefff`#cccef.cccccccce`feef``.ccccce```fbe.gggg.#cccccccccccccc",
"dccacccacccacccacccacccaccce`efcacccacccacieeiccacccigiccacccacccacccacg``geecacccccch``fbbh#ccacccacccacccac#ebe.iccacccacccacccacccacccacccacccacccc",
"dcccccccccccccccccccccccccci``.cccccccccccccccccccccccccccccccccccccccccie``gccccccccdheddddcccccccccccccccccccccccccccccccccccccccccccccccccccccccccc",
"dcccccccccccccccccccccccccccgg#cccccccccccccccccccccccccccccccccccccccccccccccccccccddddddddcccccccccccccccccccccccccccccccccccccccccccccccccccccccccc",
"dcccccccccccccccccccccccccccccccccccccccccccccccccccccccccccccccccccccccccccccccccccddddddddcccccccccccccccccccccccccccccccccccccccccccccccccccccccccc",
"dcccccccccccccccccccccccccccccccccccccccccccccccccccccccccccccccccccccccccccccccccccddddddddcccccccccccccccccccccccccccccccccccccccccccccccccccccccccc"
};
