/* XPM */
static char *wldb_xpm[] = {
/* width height num_colors chars_per_pixel */
"   120    28       16            1",
/* colors */
"` c #040204",
". c #4c8694",
"# c #74c6fc",
"a c #fcfefc",
"b c #84dafc",
"c c #2c4654",
"d c #64aac4",
"e c #84d6dc",
"f c #14262c",
"g c #3c6a7c",
"h c #5492bc",
"i c #6cbadc",
"j c #8ceafc",
"k c #7ccefc",
"l c #000000",
"m c #000000",
/* pixels */
"#kbjjjjjbbk##kbbjjjjjjjjbbk####k#kbbbjjjjjjjjjjjjjjjjjjjjjjjjjjbjbbb#k#####bjjjjb##bbjjjjjk#kbjjjbk#bjjjb#bjjjb#bjjjb#bj",
"#kbjjjjjbb###kbjjjjjjjjjbbkk####kbkbbbbjbjjjjjjjjjjjjjjjjjjbjbbbb#kk####kkjjjjjbb###bjjjjbk#kjjjjb#kjjjjb#kjjjb#kjjjk#jj",
"#kbjjjjjbk##kkjjjjjjjjjjbbkk####kk#kbbbbbjbjjjjjjjjjjjjbbbbbbkb######kkbbjjjjjjb###bbjjjjb##bjjjjk#bjjjjk#bjjjb#bjjjkkbj",
"#kbjjjjbb###kbbjjjjjjjjjbbb#k#i###kbkbbbbbbbbbjbjjjbbbbbbbkk######kkbbbjjjjjjjjbb##bjjjjjk#kbjjjjk#kjjjb##bjjjb#bjjj#kjj",
"#kbjjjjb###kkbjjjjjjjjjbjbkk######kkkkbkbbbbbbbbjjbbb#k#k#######kkbbbjjjjjjjjjjb##kbjjjjj##kbjjjbk#bjjjb##bjjjk#bjjb#kjj",
"#kbjjjjb###kbbjjjjjjjjbjbbbkk#######k#bb#bkbbbkjjbb#kkk######kkkbbjjjjjjjjjjjjbb##kbjjjjbk##jjjjbk#bjjjb##jjjb#kjjjb#bjj",
"#kbjjjjb##kkbjjjjjjjjjjbbbkb#####di#kk#kk#bi#k#kk#d#######kkkbbbjjjjjj.f.jjjjjj#k#kbjjjjbk#kbjjjbk#bjjjb#bjjjj##jjjj#bjj",
"#kbjjjj##kkbbjjjjjjjjjjkeidihh.gcf`cikkkk#jcfh#k#i`cb###kkkbbbjjjjjjjjd`cbjjjjbb###jjjdfhkkkjjjjb##jjjjb##jjjb#kjjjb#bjj",
"#kbjjjj##kbbjjjjjjjjjjjc`ccfcgg.hhf`hb####bc`db##g`.iikkbbbbjjjjeejjjjj`gkkjjjbb##bbjjef`i#bjjjjb#kbjjj##bjjjj#kjjj#kbjj",
"#bbjjj##kbbjjjjjjjjjjbjh`hjbi#kigig`d####bh`ghh#h``g`fdjbbjjed.g`f.jjjj`.bjjjjbb.cdjjje`c##edjjjb#kjjjjb#kjjjb#kjjjb#jjj",
"kbbjjj#kbbjjjjjjjjjjjbbd`.#i`.j.`hg`d#####fc#f`dfc.g`fdjbjjjdgfgf`.jbdh`fccc.jjb.`cbjje`gkjg`cjjb#kbjjjb#bjjjb#kjjjb#bjj",
"kbjjjjk#bjjjjjjjjjjbjbbd`gfh`fgg`i.`dk##ic`.g`gf`c#c`djbjjjj.gjjf`ccffc`fccc.jbjh`gjjjd`hb.``.jjb#kjjjjk#kjjjk#bjjjkkjjj",
"kbjjjjbjjjjjjjjjjjjbbbbd`ic`fhf`cjg`d##kh`fc`gggdgf`hjjjjjjjd`g.`gg.hdi`.jjjjjbbh`gdgddfcc`gijjjkkkbjjjk#bjjjj#kjjjkkbjj",
"kjjjjkbjjjjjjjjjjjbjbb#d`ki`fb.`c#.fhk##idhfciibic``cejjjjjjjh```ii.h#j`.jjjjjjjh`fccddffgi#jjjjb#kjjjjk#kjjjb#bjjjb#jjj",
"bjjjjbjjjjjjjjjjjbbbbkb.`bh`f.c``ghfhk##khf`cchhfcddf`cheejjjjg`fd#f`hj`.jjjjjjbh`.ejjefdb#bjjjjb#kbjjjb#bjjjb#bjjj#kbjj",
"bjjjjjjjjjjjjjjjbbbbkkkg`i`gc`c#cfgf.k##bcfchdgf.jjedf```fejjd`f`c#icdj`.jjjjjjjh`.jdedfdb#kjefbbk#jjjjb#kjjjb##jjjb#jjj",
"bjjjjjjjjjjjjjbbbkkk#k#g`cckdfik#hg`.###bbbjicgg..ggfcc.dejjeffic`hjjjjfgjjjjjjjh`g.f.e`.j#kji`jek#bjjjb#kjjjj#bjjjk#bjj",
"jjjjjjjjjjjjjbbbkkkk###cfhk#ii###b.`hk#kh.gffgic`.ddf`dajjje`fijegdjjjj`.jbjjjjj.```hjj`cikbjg`.b#kbjjjb#kjjjb#kjjjk#jjj",
"jjjjjjjjjjbbbbb#k######fckk#kkkk.fffhk#bc``ghbjgfjjefgjjjjecgib#jjjjjejfgj##jjjef`fijjjd`ffcf``gb##bjjjb#kbjjj##jjjb#bjj",
"jjjjjjjjbbbb#k#########ggkkkkkkkig`fi###ihikjbjh`cccfdjjjjki#k#kkjjjecf`gk##jjji`fibjjjjigcccgeejk#bjjjb##jjjb##jjjb#bjj",
"jjjjjjbbbbk#########kk##kk#k#b#kbicg#####bbkbbbegeeejjjjjbbk###bbjjjjef`.k#kbjjjki##bjjjjj##kjjjjk#bjjjj##bjjj#kbjjb#kjj",
"jjjjjbb#k#######kkkkkbkbbkbkb#b#b#k######kkbbbbjjjjjjjjjbbkk##bkjjjjjjhg##kbjjjjbb##bjjjjjk#kjjjjb##jjjbk#jjjjk#jjjb#bjj",
"jjbb#kk#####kkkkbkbbbbbbbbbbbbb#b#b#######k#bbjjjjjjjjjjbk###kbbjjjjjjbb#kbbjjjjjkk#kbjjjjk#kbjjjb#kbjjjk#kjjjk#bjjj#kjj",
"bbkk######kbkbbbbbbbbjbbjbbbbbbbb#kkk####kkkbbbjjjjjjjjbbk###kbjjjjjjbk##kjjjjjjjbk#kbjjjjb##bjjjbk#bjjjb##jjjb#bjjjkkjj",
"k#######kbbbbbbjbjjjjbjjbjjbjbbbbbkbk#####kkjjjjjjjjjjjjk###kbbjjjjjbbk#kbjjjjjjjj###bjjjjbk#kjjjjk#kjjjb#kbjjb#kjjj#kbj",
"####kk#bbjbjjjjjjjjjjjjjjjjjjjjbbbb#kk###jbb#bk####kb#bbbjb#kbjjjjjjb###bjjjjjbjjjbk##jjjjjk##jjjjb##jjjj##jjjb##jjjk#jj",
"kkbbbkbjjjjjjjjjjjjjjjjjjjjjjjjjbjkbkbjkb#kkkkbbbbbbkb#k#kbbjjjjjjjjkk#kbjjjjbkbjjbk##bjjjjb#kbjjjbk#bjjjk#bjjjk#bjjb#bj",
"bbbjjjjjbbjjjjjjjjjjjjjjjjjjjjjjjbjbbk#kbbjjjjjjjjjjjjjbbk##bjjjjjjbk#kbjjjjjb#jjjjb##kjjjjbk#kjjjbk#bjjjb#kjjjk#jjjb#kj"
};
