/* XPM */
static char *xgcsx[] = {
/* columns rows colors chars-per-pixel */
"130 40 81 1",
"  c #000705",
". c #000B05",
"X c #000E0A",
"o c #001006",
"O c #00120C",
"+ c #00180E",
"@ c #001512",
"# c #001A13",
"$ c #011E1C",
"% c #00211A",
"& c #A0BBB6",
"* c #A6BCB9",
"= c #94C5BB",
"- c #93C9BF",
"; c #9BC4BC",
": c #9BC8BF",
"> c #A4C4BD",
", c #A2C8BD",
"< c #ACC2BF",
"1 c #96CBC2",
"2 c #9AC7C0",
"3 c #9DCDC4",
"4 c #9ECFC8",
"5 c #97D3C9",
"6 c #9DD1C6",
"7 c #9ED4CA",
"8 c #9ED9CE",
"9 c #A3C6C2",
"0 c #A4CBC4",
"q c #A4CFC8",
"w c #A9C7C5",
"e c #ABCBC5",
"r c #ABCEC9",
"t c #A3D0C6",
"y c #A4D4CB",
"u c #A4D9CE",
"i c #ABD4CD",
"p c #ABD9CF",
"a c #A5D6D0",
"s c #A7DCD2",
"d c #ADD6D0",
"f c #AADBD3",
"g c #AEDFD9",
"h c #B1C7C4",
"j c #B1CAC6",
"k c #B2CECA",
"l c #B2D3CD",
"z c #B1D8CE",
"x c #B9D1CD",
"c c #B4D6D1",
"v c #B3DBD4",
"b c #B4DED8",
"n c #BCD5D2",
"m c #BBDBD5",
"M c #BCDDD9",
"N c #A6E0D6",
"B c #A7E3D9",
"V c #ACE1D6",
"C c #ADE3DA",
"Z c #B3E1D6",
"A c #B3E3DB",
"S c #B4E8DD",
"D c #B9E1D6",
"F c #BAE3DC",
"G c #B9E8DE",
"H c #B5EBE1",
"J c #B8E7E1",
"K c #BCEBE3",
"L c #BAF0E3",
"P c #BEF1E9",
"I c #C2DAD6",
"U c #C3DCDA",
"Y c #C3E2DD",
"T c #C4E8DE",
"R c #C3E6E1",
"E c #C3EAE4",
"W c #CCE6E1",
"Q c #C9ECE5",
"! c #C2F4EB",
"~ c #C8F1EB",
"^ c #D1ECE7",
/* pixels */
"sssssssssssssssssssssssssssNsNNsfffsssNfffNNNaNNaNsssfffssNsssssgsfffffaNfffagagssssssssssssssssssssssssssssssssssssssssssssssssss",
"ssssssssssssssssssssssssssN8s88sffssfssNNfNNNaNaaNaassNfsspsfsssssgsfffNfffagaaNssssssssasasssssssssdsdsssssssssssssssssssssssssss",
"ssssssssssssssssssssssssssssuNNNffsfffssaNNaNNNNNaNNaNffssNNssssffsassssffffagagssssssssssfsssssssssssssssssssssssssssssssssssssss",
"ssssssssssssssssssssssssssssNuNufdssffssNaNNaNNsNNNafNNNsNsNsNsssfffssssNNNaNfaNssssssssssssssssssssssssssssssssssssssssssssssssss",
"ssssssssssssssssssssssssssssussssfssssssfaaNNassNs8NNNNN8N8NsssssNsssssNs8a8NaaNssssssssss8NsNNsuNsNssss8sssssssssssssssssssssssss",
"sssssssssssssssssssssssssssssssssssfssssaNNN8N8NNssNa8N8N8N8NsssNNs88NsssNNNaNffsssssssssssN8s8sNuN8ssssssssssssssssssssssssssssss",
"sssssssssssssssssssssssssssssssspsspssssassssssN8s8sNN8N8NNN8NusN8sNssNssNNNaaNNssssssssssssNs8NusNsss8Nssssssssssssssssssssssssss",
"ssssssssssssssssssssssssssssssssfffffsssssfsasssssaN8NN8NN8sssVuaNsssss8s8aNfNfassssssssss8ssNNssssssN8Nssssssssssssssssssssssssss",
"sssssssssssssssssssssssff0AfusufpGtyG6ZpVppS6Vpu8A7Nu86N8BV8VVyuuuVVsVusC7sVs6Cu7fffsyusyVNV7sCsufVN4sBssNssssssssssssssssssssssss",
"sssssssssssssssssssssssdAuuy4K0s3ZiZpppytGyVtVySH2VVyLVuS:7sppppuS:6VuyZ3gV2yKppAafsuV!4LysNuN1VuZ2ACfs88NN8ssssssssssssssssssssss",
"ssssssssssssssssssssssssyAyKA4AbD;FZitvDDyy,Zppp:FipV=VV-ZSuypZzZZZpzZvtdAdAFt6pF3pfsy2A1sAusCAsF;~p3ff8ssssssssssssssssssssssssss",
"ssssssssssssssss8sssssssAu4sXbyip#..oooXtpZpZzriz@ppZpppSVu,ZF;vp,DrpptFd3p;ovGpyvbOibbuAfuusssyvYrXdA7fNN8Nssssssssssssssssssssss",
"ssssssssssssssssssN8ssssu4KAOpvdl.zmllD+Gzooo+.oO..ooo+oo,zz+o%.ooo.#...lYzT.+..XXdXOXOXXAuuofyAXcn Fibfs88Nssssssssssssssssssssss",
"sssssssssssssssssssNsssdsKyuXooXz.clzcc.e,DzlomlxlYr,+vpDLzzorkDlzelllzoezDr.z.cccXbiXvpF0FsVoys@UM MggasNssssssssssssssssssssssss",
"ssssssssssssssssNssNssssuf30%b2Fl.o..O.+YQ,mD...O..XO.vz,,ZDoYkjmlYDlnn.mlj.lmY.vXcmvrOfbf4Z4oKr  X   Xgssssssssssssssssssssssssss",
"ssssssssssssssssssN8ssssusFXiibln.lIllc.z,DDecmllnnjlDzzZDzz.+.o..O.+.Xocz.TceoeeYrrMlcvivbiFtF.nUj@kcbassssssssssssssssssssssssss",
"ssssssssssssssssssssNsss6H0XXX @x O...o.zzlo..o..  O.Oo.pypr+emlkzM9bc0MbbrbrlXc O    @.XlzDivzlxnn mrrZfssssNssssssssssssssssssss",
"sssssssssssssssssssss88NS4#icXx<IW &IT;Dm,z.j+<IIxIhx.mXZVZVorl.XOXOXXXydqiXMd@rcxjn U*^lDoo+.l.  XX@XOXfssss8NNssssssssssssssssss",
"ssssssssssssssssssssssss6AqMx UUhx.Ukivzzml.IO   . . .eoyZ6yozYenecccrFMvvJXirXMcX@OX X cltvi.xmk$kwXR9vvfssssN8ssssssssssssssssss",
"sssssssssssssssssssssssssAX. X  IO..o.oo.DDkexIIIxIeIIziztZZo,lImmM0Mviib2vXbdXrm.&*XhIXm,ZDi.llM UcXrbdfpsss8Nsssssssssssssssssss",
"ssssssssssssssssssssssssgfbdl Rxn.Y.xD.zo,lcI.     @..lFpppyXOX. @XX@XX@XJ0XdcOiv.UI.nk.rvzzz.MkXwMY.MdXdffpssssssssssssssssssssss",
"ssssssssssssssssssssssssf4dbv@wkXU>Orz.D.zY>Y.kTnnIkx+l0pVyD#rY>XxclvrdvydvXFi.miOrm Ik.F0v:FXcl RirXrEOffsssss8ssssssssssssssssss",
"sssssssssssssssssssss8ssbabAr MMxnXlT.ze.DeT,o......o.lTyDypXvwMXcvrvXF0MdbO2MXvv.mc.Um.ivKZpOeXcvrvvXXOpfssssssssssssssssssssssss",
"ssssssssssssssssssssssssyfffd cd.orD.mmz.zvrm.YlclnUk.DiztLyoim.cc9RbrXcibrvFXFiv.cc..rXpv:vpXDiddFqbpvidfssssssssssssssssssssssss",
"ssssssssssssssssssssssssafgyFXqXzmX.zvpi.vzrv...X.XXXXrvbdgXqvXX X@XXX.@ddddvXtbbXzpXrXdgfay@bXdcddgdddfuAuVfsH7ssssssssssssssssss",
"ssssssssssssssssssssssssfg3AyX$v.Xzpvi.D+izvrXKdvibMrXRvy7f@yFcdbddddK.qvFqbopGffyFcXqbdqbg@43bXXXXXXXXXO1K1su7Cssssssssssssssssss",
"ssssssssssssssssssssssssaCfsbO2dFvvZqiFoiyiGiO;bbdqb XdvgC@asfdvadrbpdJFdsgXuCu:ysb4@EqffsasJgiddgdffddfAfaCssH6ssssssssssssssssss",
"ssssssssssssssssssssssss7Af7fsuVptfpvG=VZpG=ZyAyydJibMdaf7fBsfddgbJydpvsdbdfyVuPNNybi2Jbsf5s4JggaaddsasauayVVyffssssssssssssssssss",
"ssssssssssssssssssssssssV3fVuAsVVAsVuffsy7yuAf4gCg4gd2bAs8C8faggaa3!sfddd4AsfC55uC7fJbaaVC8HB4gybffffffVuPs-Vf7fssssssssssssssssss",
"ssssssssssssssssssssssssssffyf7s67H7suGyVpKV77sg7BagJqK48BgB7H4aaff1ufybsAf-BB8BB8C7f4P4s1sB8CaJpssssassf3fHsuVussssssssssssssssss",
"ssssssssssssssssssssssssVs7sHuV8CC-HsuuNV1VuaBs8Ba7aAfygHN55CsagfsuJgf7VVs2Hu7CNB88P3ffgsH8s5agaffffffffffs3yAAsssssssssssssssssss",
"ssssssssssssssssssssssssfgfs4sCNs5CsssNsuH5NB88g8Bg7gaga5CNBs5C8g8f7auAuyfH7uB885CC7ffga8B8sCagassssssssssCVauuNssssssssssssssssss",
"ssssssssssssssssssssssssssssssssssssssssssssssssssssssssssssssssssssssssssssssssssssssssssssssssssssssssssssssssssssssssssssssssss",
"ssssssssssssssssssssssssssssssssssssssssssssssssssssssssssssssssssssssssssssssssssssssssssssssssssssssssssssssssssssssssssssssssss",
"ssssssssssssssssssssssssssssssssssssssssssssssssssssssssssssssssssssssssssssssssssssssssssssssssssssssssssssssssssssssssssssssssss",
"ssssssssssssssssssssssssssssssssssssssssssssssssssssssssssssssssssssssssssssssssssssssssssssssssssssssssssssssssssssssssssssssssss",
"ssssssssssssssssssssssssssssssssssssssssssssssssssssssssssssssssssssssssssssssssssssssssssssssssssssssssssssssssssssssssssssssssss",
"ssssssssssssssssssssssssssssssssssssssssssssssssssssssssssssssssssssssssssssssssssssssssssssssssssssssssssssssssssssssssssssssssss",
"ssssssssssssssssssssssssssssssssssssssssssssssssssssssssssssssssssssssssssssssssssssssssssssssssssssssssssssssssssssssssssssssssss",
"ssssssssssssssssssssssssssssssssssssssssssssssssssssssssssssssssssssssssssssssssssssssssssssssssssssssssssssssssssssssssssssssssss"
};
