/* XPM */
static char *xgkzh[] = {
/* columns rows colors chars-per-pixel */
"130 40 66 1",
"  c #000607",
". c #000C06",
"X c #000D0A",
"o c #001007",
"O c #00120C",
"+ c #001611",
"@ c #001B14",
"# c #01211C",
"$ c #91BBB4",
"% c #8EC1B8",
"& c #92C3BA",
"* c #95C8BF",
"= c #9AC4BE",
"- c #A4C5BE",
"; c #96C9C0",
": c #9EC7C1",
"> c #9CCCC4",
", c #9CD0C7",
"< c #9ED3C9",
"1 c #9ED8CC",
"2 c #A3C6C2",
"3 c #A3CCC6",
"4 c #A5CEC8",
"5 c #ABCCC6",
"6 c #ACCDC9",
"7 c #A3D4CC",
"8 c #A4D8CF",
"9 c #ABD4CD",
"0 c #ABD9CF",
"q c #A4D7D0",
"w c #A7DCD2",
"e c #ADD7D0",
"r c #A9DBD3",
"t c #B5CCCB",
"y c #B9CECF",
"u c #BACFD0",
"i c #B2D3CD",
"p c #B0D8CF",
"a c #B4D6D2",
"s c #B3DBD5",
"d c #B4DFD8",
"f c #BAD5D3",
"g c #BADBD5",
"h c #BBDDD9",
"j c #A7E0D6",
"k c #ACE0D7",
"l c #AEE3D9",
"z c #AFE9DD",
"x c #B6E0D7",
"c c #B3E3DB",
"v c #B5E8DF",
"b c #B8E0D7",
"n c #BAE3DD",
"m c #B6EAE0",
"M c #BDE6E0",
"N c #BBEBE3",
"B c #BDF0E9",
"V c #C4DADA",
"C c #C8DCDD",
"Z c #C2E3DD",
"A c #C2E6E0",
"S c #C2EBE5",
"D c #C2EFE8",
"F c #C0F3EA",
"G c #C5F8EF",
"H c #C9F6EF",
/* pixels */
"wwwwwwwwwwwwwwwwwwwrr8r0wwwwwwww0wwwwwrr0wwwwwwwj8ww1ww1wwwwwj8j8wwwwwwwwwwwwwwww8j0wwwwwwwwwwwwww0wr0wr0wwwwwwj8wwwwwwwwwwwwwwwww",
"wwwwwwwwwwwwwwwwwwrwwrrrwwwwwwwwj0wwrwwwwwwwwwww8jwwjjjjwwjwj8jwwwwww0wwwwwwwwwww88jwwwwwwwwwwwwwwrrrrrrrrwwwwwwwwwwwwwwwwwwwwwwww",
"wwwwwwwwwwwwwwwwwrwrrw0rwwwwwwwwww8jwwwwwwwwwwwwj8wwwwwwwwww8wwwwwww8j80wwwwwwwwwwwwwwwwwwwwwwwwwwww0r8wwrrwwwwwwwwwwwwwwwwwwwwwww",
"wwwwwwwwwwwwwwwwrwrwwwwrwrwwwwwwwwwjwwwwwwwwwwww8jwwwwwwwwwwwwwwwwwwj0jjwwwwwwwwwwwwwwwwwwwwwwwwwwwwwrrw0rrwwwwwwwwwwwwwwwwwwwwwww",
"wwwwwwwwwwwwwwwwwwrwrw8r8rrwrrrwjjw1wjwwwwwwwwwwwwwwwwwwwwwwwwwwww1jj8j8wwwwwwwwwwwwwwwwwwwwwwwwwwwwwwwwrwrwwwrwwwwwwwwwwwwwwwwwww",
"wwwwwwwwwwwwwwwwwwwwwrrrwwrwr8rw1wwwj1jwwwwwwwwwwwwwwwwwwwwwwwwwwwwwww8jwwwwww8jwjwwwwwwwwwwwwwwwwwwwwwwwwr0r0rwwwwwwwwwwwwwwwwwww",
"wwwwwwwwwwwwwwwwwwwwwwwwwrr0w8r8wwj11jwjwwwwwr0rwwwwwwwwwwwwwwwww8jwwj8wwwwwwwwwj8jwwwwwwwwwwr0wwwr0wwwwwwwwrrrwwwwwwwwwwwwwwwwwww",
"wwwwwwwwwwwwwwwwwwwwwwwwrrrrwrrrj1jwj8wwwwwwwrwwwwwwwwwwwwwwwwwwwj8jw8j0rrwwwwww8j8wwww0wwwwwrwrrrrwwwwwwwrww0wwwwwwwwwwwwwwwwwwww",
"wwwwwwwwwwwwwwww1w1wwwwwww88c8x0w8m>qk,k<v77c8v78888jk808wkwk7w8qwz<qd<Mr7cr7c888c78w8kwr88M87c7>N7rrw,lwwwww80wwwwwwwwwwwwwwwwwww",
"wwwwwwwwwwwwwwwwjjjjwwwwrrk7w8k<l77wcwkkw<kx788r8z8jk*k08v7k8kkww<wllr,4a0d0r78kk7kwvw70rrq79d9en=b0,mw7wwwwwwj0wwwwwwwwwwwwwwwwww",
"wwwwwwwwwwwwwwwwj1j81jww83cc3k3r9rcr;rk,wk8r7kkrw7v8<v>lw<08k0rwljqr3qHsa704cdN7w7v;7kcrderder9seans8rr7j1wwjjj1wwwwwwwwwwwwwwwwww",
"wwwwwwwwwwwwwwwwwjj1wjwww7w,cxc7eecrr+3c8k8cww,k788k<v887Bk7v>wwwj<rsr$O.OO.9790rk8vr0r4r.99s...X.Xordmwwwww1wwjwwwwwwwwwwwwwwwwww",
"wwwwwwwwwwwwwwwwwjjjwwwwwm0r0*orsS 6NX8d7v7c8r<rG7k8v7j08880w0kw,zrr4dsOe6+a+Oo..@X3mesde.A6gXasffh d3w,wjjj1j1jwwwwwwwwwwwwwwwwww",
"wwwwwwwwwwwwwwwww1j1wwwww0r8vN>+92+sM.b9n*k88omw%k8j0o0xkOwk8cwwjr,rsMs ga a.d9nr*+ss3ess.4h2.n5if5+sdm7j11j1jjjwwwwwwwwwwwwwwwwww",
"wwwwwwwwwwwwwwwwjjjjwwwwk8rr>9N.gh.O..o..N8xko<kvw8<vok0koc0ww08rwcs69iOiO6gO2S3scXeedh4:+aOf.X.X X e:7cj1jj11j1wwwwwwwwwwwwwwwwww",
"wwwwwwwwwwwwwwww11j1wwww<N>rx00na.haaXaas79r8O8w3wx00o0k9v0,c7rxdrr9eha Xaag Z2b9x.rseesh 6.i.fiuua adr1j11jjjjjwwwwwwwwwwwwwwwwww",
"wwwwwwwwwwwwwwwwwwwwwwjjj,kvp3ga96haa nsass9sqXs4N*rOd7kx.rrr0dO...o2bi.i.giOo..o.ob5bbog..V-+fyfCuXpp8jj1wjwww0wwwwwwwwwwwwwwwwww",
"wwwwwwwwwwwwwwwwwwwwwjj1,B37oO..SXXO O  X 9n9MoerrD9.d3x8.ddrc.45g5f@6g.igoi.6igp9ob9-io5Of5t..o   .a0k0jww8wrrrwwwwwwwwwwwwwwwwww",
"wwwwwwwwwwwwwwww0wwww11jm,1c9s6O26a.sh+6asa3d3ros27o00S7r.rx4arSpZi-.g5.i6.i.ggpiboppbOpp.f5ZZutCtVfgrj<w18jwrrrwwwwwwwwwwwwwwwwww",
"wwwwwwwwwwwwwwwwwwwwjwjj1<vxs0A.hMa 96Oaa6sn4xsOxd9+d93ds.9a0nd...o.Ogio5h.f.g5ipboiiib-g.5h...O X..s9cjwjjw8rw0wwwwwwwwwwwwwwwwww",
"wwwwwwwwwwwwwwwww0wwj81jrmqe396.a0.ssh ga Ms9qeX3x9.r9S9roax79.ssf5h.gg.Og.i+ X ..@6Z9ib9.Z5hZ6iXff60008jj1j8wwrrwwwwwwwwwwwwwwwww",
"wwwwwwwwwwwwwwww0jww8jww,wr9SsaXrsX4saX9sXe9sr3NOrXNaa3r7Os7n.nsiffi#i5.i.6Z iV9bpoi9i9b.0.pa3M9X5fX0c88wjj1rwrrwwwwwwwwwwwwwwwwww",
"wwwwwwwwwwwwwwwwwwwwjwwwrrrr4e4On.cn2ds+X@s9M>c3.ror7rsrdo7sd.>hp5Ai.pio0gs6 s3a-Z.pp9pp.b7.XXXX XX o0wjj1wjwr0rwwwwwwwwwwwwwwwwww",
"wwwwwwwwwwwwwwwwwwwwwwwwl,crrsdX7Ne3M6r9e99c;lrrdX0ad9d9don20n.rsii.opa.aaaaOah9g6o99bpoa9sx9rrrXheexw<jjjj1rwwrrwwwwwwwwwwwwwwwww",
"wwwwwwwwwwwwwwwwwwwwwwwwlwwwrd.xocx>b3xr007xc<v8r.r97d7d0O89nrd.oo.nX6s s9se d6sx3O9sheXeeerrrqq h9sc78ww1j1jwwrwwwwwwwwwwwwwwwwww",
"wwwwwwwwwwwwwwwwwwwwwwww>lr8r.S8coo+o@o..Oo87v%lx9arnr9797c79r>dxv9$shrX7nXX+XXXoO.oX4Xerrerqrrr+nd3,wlwj8jwwww0wwwwwwwwwwwwwwwwww",
"wwwwwwwwwwwwwwwwwwwwwwwwlc*kx<7r7wcrrxrxxr>kw8j<8m7r9r9x0c0crrxxr&SvrqrXs4ds7>cq09b7B7mrrrrrrrrrX$cc8kw<jjj1wwwrrwwwwwwwwwwwwwwwww",
"wwwwwwwwwwwwwwwwwwwwwwww7cwl8m7cc0,k07n3>rvk8<vwc&cc888l7w00n<r70vc>kkc1<qm>qNqjrx37rc,qrrrrrrrreGr88v8q1wjwwwwrwwwwwwwwwwwwwwwwww",
"wwwwwwwwwwwwwwwwwwwwwwrwk3wr*kr87lc80w0xcr>v,11jwvl8c7k7jm8w8k<v8,wql1<jrrqB<qqqw7mNqrlqrrrwwwjq788kw8<zwwwwrrrwwwwwwwwwwwwwwwwwww",
"wwwwwwwwwwwwwwwwwwwwwwr07kv8m7rw7w,lk>kr08wwjzz<,c<<krkwl;8v,mw,cwqz1zjjm,11qz,llc,rq<zwrrwwwjrrv8<8wcw1wwww0r8rwwwwwwwwwwwwwwwwww",
"wwwwwwwwwwwwwwwwwwwwwwwwv<88>vwwcjk70v8<v88c<11zv<kl1l7k8wc1j11zw1l1q1l1,lzjj1z1q<cqrqrwrrwwjwjj7wlj81wjwwwwwwrwwwwwwwwwwwwwwwwwww",
"wwwwwwwwwwwwwwwwwwwwwww8<klwl8ww888wk88c07l8jwj111j1j8wwjk18jjj1wl1qrwqjwjjqjqjjjjqwrrrwrrwwwjrrk088j8j1wwwwrwwwwwwwwwwwwwwwwwwwww",
"wwwwwwwwwwwwwwwwwwwwwwwwwwwwwwwwwwwwwwwwwwwwwwwwwwwwwwwwwwwwwwww8j8j8j8j8j8j8jwwwwwwwwwwwwwwwwww8wwwwwwwwwwwwwwwwwwwwwwwwwwwwwwwww",
"wwwwwwwwwwwwwwwwwwwwwwwwwwwwwwwwwwwwwwwwwwwwwwwwwwwwwwwwwwwwwwwwwwwwwwwwwwwwwwwwwwwwwwwwwwwwwwwwwwwwwwwwwwwwwwwwwwwwwwwwwwwwwwwwww",
"wwwwwwwwwwwwwwwwwwwwwwwwwwwwwwwwwwwwwwwwwwwwwwwwwwwwwwwwwwwwwwwwwwwwwwwwwwwwwwwwwwwwwwwwwwwwwwwwwwwwwwwwwwwwwwwwwwwwwwwwwwwwwwwwww",
"wwwwwwwwwwwwwwwwwwwwwwwwwwwwwwwwwwwwwwwwwwwwwwwwwwwwwwwwwwwwwwwwwwwwwwwwwwwwwwwwwwwwwwwwwwwwwwwwwwwwwwwwwwwwwwwwwwwwwwwwwwwwwwwwww",
"wwwwwwwwwwwwwwwwwwwwwwwwwwwwwwwwwwwwwwwwwwwwwwwwwwwwwwwwwwwwwwwwwwwwwwwwwwwwwwwwwwwwwwwwwwwwwwwwwwwwwwwwwwwwwwwwwwwwwwwwwwwwwwwwww",
"wwwwwwwwwwwwwwwwwwwwwwwwwwwwwwwwwwwwwwwwwwwwwwwwwwwwwwwwwwwwwwwwwwwwwwwwwwwwwwwwwwwwwwwwwwwwwwwwwwwwwwwwwwwwwwwwwwwwwwwwwwwwwwwwww",
"wwwwwwwwwwwwwwwwwwwwwwwwwwwwwwwwwwwwwwwwwwwwwwwwwwwwwwwwwwwwwwwwwwwwwwwwwwwwwwwwwwwwwwwwwwwwwwwwwwwwwwwwwwwwwwwwwwwwwwwwwwwwwwwwww",
"wwwwwwwwwwwwwwwwwwwwwwwwwwwwwwwwwwwwwwwwwwwwwwwwwwwwwwwwwwwwwwwwwwwwwwwwwwwwwwwwwwwwwwwwwwwwwwwwwwwwwwwwwwwwwwwwwwwwwwwwwwwwwwwwww"
};
