/* XPM */
static char *xk_xpm[] = {
/* width height num_colors chars_per_pixel */
"    25    50       16            1",
/* colors */
"` c #943e74",
". c #5c92c4",
"# c #746e9c",
"a c #44baec",
"b c #647eb4",
"c c #845284",
"d c #34cefc",
"e c #4ca6dc",
"f c #6c76ac",
"g c #3cc2f4",
"h c #7c5a8c",
"i c #6482b4",
"j c #000000",
"k c #000000",
"l c #000000",
"m c #000000",
/* pixels */
"ddddddddddgdddddddddddddd",
"dddddgdddddddgdgddgddgddd",
"ddgddddgddgdddddddddddddd",
"ddddgdddddddgddddgddgdddg",
"dddddddddgddddgdddddddddd",
"dddgddgddddgddddgddgddddd",
"gddddddddddddddddddddgddd",
"ddddgdg##gdddgdgabgdddddg",
"ddde.ddhfdebdddde`edgdddd",
"dgddhhghbdhcggdde`ddddddd",
"dddda`.hbecgdbcge`gdgddgd",
"dddde.ghb#egdbcde`ddddddd",
"ddgdh`b##b`cdbcde`gdddddd",
"ddddhbgddghbdbhde`ddgdgdd",
"gdddc#eeeecbdbhde`gdddddd",
"ddddhhbbbb`bdbcde`gdddddd",
"ddddcbddddhbdbhde`ddgddgd",
"dgddhhbbbb`bdbhde`ddddddd",
"ddddcbddgdhbdb`ge`ggddddd",
"ddddhbddddhbdeede`ddddgdd",
"gdddcbdgggcbgdgde`ddgdddd",
"ddddhbdac``eddfhc`gdddddd",
"dddg#.dddbfdddde`.dddgddd",
"dddddddgddddgdgdgdddddddg",
"dddddgddddgddddddgddgdddd",
"dgdddddddddddddddaddddddd",
"ddddebbbfbbbfbbfc`edgddgd",
"ddddgeeec#eee#ceeeadddddd",
"dddgddddhbdddbhdddgdddddd",
"dgdddgddhbdddbhdddddgdgdd",
"ddddddddhbgddbcdddddddddd",
"dddddddghbdddbhddhbdddddd",
"gddghchh``hhc``chhhegddgd",
"ddddddddhbdddbhdddddddddd",
"ddddddgd`.gddbhddgddddddd",
"dgddgdda`adddbcdddddgdgdd",
"dddddddbhdgddbhddgddddddd",
"dddddga`eddddbcddddgddddd",
"ddgddac.ddgddbhddddddgddd",
"dddd.ceddddddb`dgdgdddddd",
"gdde.gddgddgd.fdddddddddd",
"dddddddddddddddgdddddgddg",
"ddddgdddgdddgddddgdgddddd",
"ddddddgdddgdddgdddddddddd",
"ddgddddddddddddddddddgddd",
"ddddddddddddddddddddddddd",
"ddddddddddddddddddddddddd",
"dgddgddgddgddgddgddgddgdd",
"ddddddddddddddddddddddddd",
"ddddddddddddddddddddddddd"
};
