/* XPM */
static char *xlbc_xpm[] = {
/* width height num_colors chars_per_pixel */
"   120    28       16            1",
/* colors */
"` c #040204",
". c #548eac",
"# c #7cceec",
"a c #2c464c",
"b c #fcfefc",
"c c #74c2d4",
"d c #8ceafc",
"e c #84dafc",
"f c #3c667c",
"g c #14222c",
"h c #64a6c4",
"i c #4c7e94",
"j c #74c6f4",
"k c #7ccefc",
"l c #000000",
"m c #000000",
/* pixels */
"jkedddddeekjjkeeddddddddeekkjjjkkkeeedddddddddddddddddddddddddddeeeekkjjjjkkddddkkjkedddddkjkedddekjedddejkdddejkdddejed",
"jkedddddeejjjkedddddddddeekkjjjjkekeeeeedddddddddddddddddddedeeeekkjjjjjkkeddddeejjjeddddekjkddddejkddddkjkdddejkdddkjdd",
"jkedddddekjjkkedddddddddeekkjjjjkkkkeeeeeededdddddddddedeeeeekejjjjjjjkeeddddddekjjeeddddejjeddddkjkddddkjedddejedddkked",
"jkeddddeejjjkeedddddddddeeekkjjjjjkekeeeeeedeededddeeeeeeekjkjjjjjkjeeeddddddddekjjedddddjjkedddekjkdddejjedddkjedddjkdd",
"jjeddddejjjjeedddddddddedekkjjjjjjkkkkekeeeeeeeeddeeekjkjkjjjjjjkjeeeddddddddddejjkedddddkjkeddddkjedddekjedddjjeddejkdd",
"jkeddddkjjjkeeddddddddddeeekkjjjjjjkkkkekekekekdddkkkkkjjjjjjkkejdedddddddddddeejjkeddddeejjddddekjedddejjdddejkdddejedd",
"jkeddddejjkeeddddddddddeeekkjjhhjjjjkkkkkkkkkkkkejkjjjjjjjkkjeeededdddddcddddddkjjkkddddeihjddddejkedddejkddddjjddddjedd",
"jkeddddjjkkeeddddddddddeeej#kkf`iejjjkjkkkjkjkjjjjjiajjjjkkeeedddfgfddd.`addddeejjeifdddkf`i#dddejjddddejkdddejkdddkjedd",
"jkeddddjjkeeddddddddddedejafej.`fk.f.jkjkjjejjhhjjjgg.eekeeedddddca`hdde`akdddejjjdf`iddd.`.cgfd#kkedddkjkddddjkdddejedd",
"jkddddjjkeedddddddddddeeec`ge#h`idha`iejjk.iffg`fjh`g.fhdeddddddddd#ceek`fddddeejj#a`cdai.`higadejjddddkjjdddejkdddkjddd",
"keedddjkeededddddddddedeea`hckhgajfi.hkjjjh`g.i`fjggag`gdddddddddd..jkjj`iedddeeje.`fddagfghfi#cdjkedddejedddejkdddejedd",
"keddddekeddddddddddedeee.`.jgf.g`ggfkkjjjjkagia`#ighjg`cdddddchhaa``.jjj`idddddjkjggcdchia`gaaggfkkddddkjkdddejkdddkkddd",
"keddddeedddddddddddeeee.gief`aa`g.h..jjjjjj.a`ahh``h.`iddddddhggia`fjjjk`acdddeeei`gcc`afii.hc``ijkedddkjedddejkdddkkedd",
"kddddkedddddddddddedeecg`gg`fjhf`ag`fjjjjjjje`ajih.g`addddddd###hgajgike`gggiddeh`ggiagcjjhhjdicejjddddkjkdddejedddkkddd",
"eedddedddddddddddeeeekj.h.`fjhfg`g.f.jjjkjafeaggfdh``ghdddddddd#g`gfgied`icg`gecgfig.aicfgggfddddjkedddejedddkjkdddkkedd",
"edddedddddddddddeeeekkkjh`giif.fgaj`gcjjjea`jafjdhggcf`acddddd#ggag`a#dd`idcfg.ffe.gcbddch.chhhhcjkddddkjkdddejkdddkjddd",
"ddddddddddddddeeekkkkjj.``gf.jjef`g`.jjjjefgeaa.hgfdddf``gfcdcggefga`.ddgidddd##eefghhiifaagggggijjedddejkddddjkdddkkedd",
"dddddddddddddeeejkkjjjjhahjj..eef``.ejejed.ga`g``gifaaaaaaahh`addaa#c#dd`iedddddkefg.iafa`gihddd#kjedddejkdddejkdddkjddd",
"ddddddddddeeeje#kjjjjjjec.agfhhggg`.ejfh.ag`g.c.i`fiii`addddh.kjdaa#dddd`iejddddeef`cdddgahjafdddkjedddejjedddjjdddejedd",
"dddddddddeeejkkjjjjjjkfgg`ahhagfcha`highjgah#ddd#gibdh`hddekekje#gaddddd`ikjddddejggcdcggfia``adekjedddejjdddejjdddejedd",
"dddddddeejkjjjjjjjjkkjhafhkec.ckkehg``ghkjjeeeeddaaffggcddekjjkkdgfddddh`fkkedddejggdcg`gaf.cg`ddkjkddddjjedddjjeddejkdd",
"dddddeekjkjjjjjjkkkkkkekkeejkkejejehg``hekekeeeddig.hccjdekjjjkedccddde#g.jedddddkiaedhhddkjeccddejkdddekjddddkjdddejedd",
"ddeekkjjjjjjkkkkekeeeeeeeeeeeekejejejiahjkkjeeddddcdddddejkjjkeeddddddejcjeddddddejkkeddddkjjddddejkedddkjkdddejedddjkdd",
"eekkjjjjjjkkkeeeeeeeedeedeeeeeeeejkjkjejjjkkeeeddddddddeekjjkjeddddddekjjeeddddddekjjeddddejkedddekjedddejkdddkjedddkjdd",
"jkjjjjkjkeeedeededdddeddeddedeeeeekekkjjjjkjddddddddddddkkjjkeeddddddkkjkeddddddddkjjeddddekjkddddkjkdddejkeddejkdddkked",
"jjjjkkjeeeddedddddddddddddddddedeeejkjjjjdeekekjjjjkkeededjjkeddddddejjkedddddedddekjjdddddkjjddddejjddddjjdddejjdddkjdd",
"kkeeekeddddddddddddddddddddddddedeeekedkejkkkkeeeeeekkkjjeeeddddddddkkjkeddddekeddekjjeddddejkedddekjedddkjedddkjeddejed",
"eeedddddeedddddddddddddddddddddddedeekjkeedddddddddddddeekjjeddddddekjkedddddejddddejjkddddekjedddekjedddejkdddkjdddejkd"
};
