/* XPM */
static char *xlftt[] = {
/* columns rows colors chars-per-pixel */
"130 40 84 1",
"  c #000706",
". c #000C05",
"X c #000E09",
"o c #001007",
"O c #00120C",
"+ c #00190F",
"@ c #001611",
"# c #001B14",
"$ c #01221D",
"% c #002820",
"& c #8EBCB4",
"* c #96BFB9",
"= c #8FCBBF",
"- c #90C2B7",
"; c #94C5BC",
": c #95C8BF",
"> c #9AC5BD",
", c #9DC8BF",
"< c #A2C4BD",
"1 c #96CCC2",
"2 c #9CCDC4",
"3 c #9CCFC8",
"4 c #96D2C6",
"5 c #97D7C9",
"6 c #9DD0C7",
"7 c #9ED4CA",
"8 c #9DDBCE",
"9 c #9FDDD1",
"0 c #A7C4C1",
"q c #A3CCC5",
"w c #A3CFC8",
"e c #ABC7C3",
"r c #ABCCC6",
"t c #ADCEC9",
"y c #A6D1C7",
"u c #A4D4CC",
"i c #A4D9CF",
"p c #ABD0C6",
"a c #ABD4CD",
"s c #AAD8CE",
"d c #A4D7D0",
"f c #A7DCD2",
"g c #ACD7D0",
"h c #AADBD3",
"j c #ACDFD8",
"k c #B2CBC7",
"l c #B2CDC9",
"z c #B3D3CD",
"x c #B0D8CF",
"c c #BBD3CE",
"v c #B4D6D1",
"b c #B3DCD4",
"n c #B5DFD8",
"m c #BAD5D2",
"M c #BADBD5",
"N c #BBDED9",
"B c #A6E1D5",
"V c #A7E9DB",
"C c #ACE1D7",
"Z c #ADE3D9",
"A c #AEE9DD",
"S c #B4E0D7",
"D c #B3E3DB",
"F c #B5E8DF",
"G c #BAE0D7",
"H c #BBE3DC",
"J c #BAE8DE",
"K c #B4E6E0",
"L c #B2EAE0",
"P c #BCE6E0",
"I c #BBEBE3",
"U c #BDF3E9",
"Y c #C1D7D4",
"T c #C1DBD5",
"R c #C1DEDA",
"E c #C9DEDB",
"W c #C2E2DC",
"Q c #C3E5E0",
"! c #C2EBE5",
"~ c #CCE4E1",
"^ c #CCEEE6",
"/ c #C1F0E8",
"( c #C3F8EE",
") c #C8F7EF",
/* pixels */
"fffffffffffffffffffffffffffBffB9ffffffffffffffffffffffffffffffffffffffffffffffdffB99fBiB999BBiB9ifffffffffffffffffffffffffffffffff",
"fffffffffffffffffffffffffff99fffffffffffffdffffffffifffffffffffffffffffffffffffff9fBf8B9iBffiBiBffffffffffffffffffffffffffffffffff",
"fffffffffffffffffffffffffffff8f9fffffffffffffffffffBfffffff9ffBfffffffffffffffffffffffffiBiBffffffffffffffffffffffffffffffffffffff",
"fffffffffffffffffffffffffffffBfffffffffffffffffiffffBf8B9Bff9f9ffffffffffffffffffffffffffiBiffffffffffffffffffffffffffffffffffffff",
"ffffffffffffffffffffffffffffffffBiBiffffffBf9fiBBiBiiBiBffBfBfffffBiBiBiBiBfffffffffffffffffffffffffffffBiBiB9ffffffffffffffffffff",
"ffffffffffffffffffffffffffffffffiBiB9fBfffffffBiiBiBBiBi9f9fffffffffiBiBiBifffffffffffffffffffffffffffiBiBiBffffffffffffffffffffff",
"ffffffffffffffffffffffffffffffffBiiBffffffff9BiBBiBiBiiBffBfffffffffBiBiBif9ffff9ffffffffififfffffffffffBi9fffffffffffffffffffffff",
"fffffffffffffffffffffffffffffffffiBf8BffffffBiBiiBiBiBfif9fff9fff9B8iBiBiBfB9fffff9BfffffBfBffffffffffffffffB9ffffffffffffffffffff",
"ffffffffffffffffffffffffuCiifiSi7ffuDd6ZffffBujfiZuA26Dff6ffdfdfCf6ZfdjdiiCfffiiff99f9CBB5BBffBfCihyhjdfjfuifff8ffffffffffffffffff",
"fffffffffffffffffffffffgj2fFjbujDfZi6ffff7CifDijZ:C7DjffFDdfujuhffD2fA2IFB6fhihfB1AfA98ffAi4Bf8fiChCjhdjufDB88fBffffffffffffffffff",
"ffffffffffffffffffffffffhhus2qfhuuufDCDu6DCuDu1f2ujCaudjyfujDjhhufZIf3n14fifiuFufZ775CZ5f1LBZ9uZuJuhudhZFf6ifDfuffffffffffffffffff",
"ffffffffffffffffffffffffjusSDISaFfSD6ijijD,iSu/fISsuhIwhnhbyb1bnD6u6nfhKFisFyFuiuKdhffdAi(1B:BhdaSabung2uuiZfi6Dffffffffffffffffff",
"fffffffffffffffffff9fffffIugjXbfwfwXKuhgg2IDu2Saa2.gI2nhSdgIgbDdffSX...3whhwF.FfbhXdhhhuusaj#SfgJ*nPagnPa)jufDufffffffffffffffffff",
"ffffffffffffffff9fffffff6I;Iy#.bbfgOp#gfsagX.oXaa!@aaanpqHvqX@.O@.X!dhbbIgghbXpbHq.IdtPvP2JbXabab.@....X.&nDsjfuffffffffffffffffff",
"fffffffffffffffff9B9ffffK2IgwXaaSqNOgwO.bSg.sb.bb2XXX.OOnn2n#dgvgwbwntngwgnggXbav $. . . Nzv.@.OtXwNPavD@DbqufDfffffffffffffffffff",
"ffffffffffffffffffffffffujda@gaNzvN.bN.abzb.Mx bq#.bbbXatnbN.vNtvvnqnvdbvnwbv.nvz@0MmvMz.NlzoMezN.Ntzant.SajD6ifffffffffffffffffff",
"ffffffffffffffffffffffBf7Cyn.lmR     o.ocxc+xpocoMr.pS.sqSbMX X .  O  bgubX X  m l cmtvN.aW.rvTeT.o ...bosSsBiiBffffffffffffffffff",
"ffffffffffffffffffff9f9fiD!.RR kYYE.Tk<McMp. o..pvzoxopSSpze M mmMRqP@wb!qnta@vkl X@ .Rtozp.o. +v kTTzMr.sxsfiifffffffffffffffffff",
"ffffffffffffffffffffffffuh.O  XEY<T lWTzzpW.W MmcMpzoJqabpbG.c ckmlQl baugaNtOz~ ~k cRrM.W.z.vW<z.T.X.Xm.sxsfidBffffffffffffffffff",
"ffffffffffffffffffff9fffChbbl@ml O.+..o.oGzzzorcckW.poOxybrz.cl@RvtNXwKaanggN  tlmmXzTbz.qmpOzkW^ c.lm.M.xSshiffffffffffffffffffff",
"ffffffffffffffffffffffff3hna@QeNzM<.xbaGxp<oM.o.M.OMvtb.#qGzXmz.0tQvXPwhHqbt @t@..+.  .M#p.@.#+.<oWozG.v.xbsffdBffffffffffffffffff",
"ffffffffffffffffffffffffjhv   @ baboGy.bps^.<+pc...O..$.ySaz.zQzX!a nwnh1/.XN.vrRccomWzp.pMv.rcpc+p.zbXpoabsjdffffffffffffffffffff",
"ffffffffffffffffffffffffdI3gntvNxxySo+bpGxr+x.MTvXczWb.Gbgaa%aqNe  bnjwnndwNw.vN.mp.vv.x.zW<oWeWzoMOo..b.sjsjd9fffffffffffffffffff",
"ffffffffffffffffffffffffhuKgjvNaxasGoabz.Wx.W.vpm.lMzpOasgGy.pbgK  P1nvudnbgnOavX..o..oz.Mpx.zxzzOxpSpMx.ajijddfffffffffffffffffff",
"ffffffffffffffffffffffffjhdngOXOsb..b.pM.vm M..XvOzvva@vvwnXgdNtXabXonD2bubqFOqb.MbbaMOp.zxpOxboGoGssxGpXDdhKu9jffffffffffffffffff",
"ffffffffffffffffffffffffdjXXXnng.oGJap.N.rXX.NvvtX XOXOwdIt@anXXvnKgf.X#uKdnaXdJJ>azpaSSObbSOq.xpoDSsSaS@nj3udAdffffffffffffffffff",
"ffffffffffffffffffffffffwDujdyunJ,paaaW.@vvvv0PtHXndgnXHn2@w.@bdgh3uDwohDD2Og.H2sDSSbS.qosS>++aSsoshss#uX&jjdjd8ffffffffffffffffff",
"ffffffffffffffffffffffffKjdhfFhduJaSxGsb.gnqggbhqhnhhnh2hhjwdh2DhqIhaKDun2aF.ufCiS-fsuSOJSyboSuii+u,Dysod)jddKddffffffffffffffffff",
"fffffffffffffffffffffffff;ZdDufuffufdugdbKadId7jKj8dhujKjdjKjKh7ndfuu3Df2UDwFuFuBiUiuighyqgDfuDiS1ZifJaSwgdjd97Kffffffffffffffffff",
"fffffffffffffffffffffffdfDZZ1Dff77uFfDyZh6jf899dd9d9dddj3KdwdddD2hndKuDuf2fffuufZi55DffhSDShDiSBiiDF6iuDKdudjKd8ffffffffffffffffff",
"ffffffffffffffffffffffffjf1BfffCBU75i6Di2ZfZ5V8V9fKjjKddfjdjKd8fKhhd2j6ZfdShjuDf48ZV1F2fiC6fuf1BZiiuDiDfdjKj98fjffffffffffffffffff",
"ffffffffffffffffffffffffuDCiCiZdf4ZBBC5BCf5B95V59j9d99jhj3KwddD8jdddfDuffffdjfffVB4ZifCiCuffiCD77ABfufuCjdddjdfdffffffffffffffffff",
"fffffffffffffffffffffffffffffffffffffffffdffff9Bfff9fffffffffffffffffffffffffffffffBffffffffffffiBffffffffffffffffffffffffffffffff",
"fffffffffffffffffffffffffffffffffffffffffffffffffffffffffffffffffffffffffffffffffffffffffffffffffiffffffffffffffffffffffffffffffff",
"ffffffffffffffffffffffffffffffffffffffffffffffffffffffffffffffffffffffffffffffffffffffffffffffffffffffffffffffffffffffffffffffffff",
"ffffffffffffffffffffffffffffffffffffffffffffffffffffffffffffffffffffffffffffffffffffffffffffffffffffffffffffffffffffffffffffffffff",
"ffffffffffffffffffffffffffffffffffffffffffffffffffffffffffffffffffffffffffffffffffffffffffffffffffffffffffffffffffffffffffffffffff",
"ffffffffffffffffffffffffffffffffffffffffffffffffffffffffffffffffffffffffffffffffffffffffffffffffffffffffffffffffffffffffffffffffff",
"ffffffffffffffffffffffffffffffffffffffffffffffffffffffffffffffffffffffffffffffffffffffffffffffffffffffffffffffffffffffffffffffffff",
"ffffffffffffffffffffffffffffffffffffffffffffffffffffffffffffffffffffffffffffffffffffffffffffffffffffffffffffffffffffffffffffffffff"
};
