/* XPM */
static char *xq_xpm[] = {
/* width height num_colors chars_per_pixel */
"    25    50       16            1",
/* colors */
"` c #8c467c",
". c #648abc",
"# c #7c669c",
"a c #4caadc",
"b c #84568c",
"c c #5c9acc",
"d c #6c76ac",
"e c #44baec",
"f c #7c5e94",
"g c #6c82b4",
"h c #54a2d4",
"i c #3cc2f4",
"j c #000000",
"k c #000000",
"l c #000000",
"m c #000000",
/* pixels */
"iiiiiiiiiiiiiiiiiiiiiiiii",
"iiiiiiiiiiiiiiiiiiiiiiiii",
"iiiiiiiiiiiiiiiiiiiiiiiii",
"iiiiiiiiiiiiiiiiiiiiiiiii",
"iiiiiiiiiiiiiiiiiiiiiiiii",
"iiiiiiiiiiiiiiiiiiiiiiiii",
"iiiiiiiiiiiiiiiiiiiiiiiii",
"iiiiiiiiiiiiiiiiiiiiiiiii",
"iiiiiiiiiiiiiiiiiiiiiiiii",
"iiiiiiiicbhiiiiiia.aiiiii",
"iiiiidcih`cefaiiih`.iiiii",
"iiiiic`dc`hd`ciaic`hiiiii",
"iiiiii#`c`.`cih`ch`ciiiii",
"iiiiia..h`bd.ic`ec`hiiiii",
"iiiiih`#dgdf`hh`ih`ciiiii",
"iiiiic`hiiigfic`ic`hiiiii",
"iiiiih`#.dgffih`eh`ciiiii",
"iiiiic`hiiigfic`ic`hiiiii",
"iiiiih`ciiigfih`ih`ciiiii",
"iiiiic`dgggffic`ic`hiiiii",
"iiiiih`ciiigfih`ah`ciiiii",
"iiiiic`hiiigfiiiic`hiiiii",
"iiiiih`ci..#fiiah.`ciiiii",
"iiiiic`hief`diihb``iiiiii",
"iiiiiaceiiehiiiii#aiiiiii",
"iiiiiiiiiiiiiiiiiiiiiiiii",
"iiiiiiif#aiiiiie.#.iiiiii",
"iiiiiiifbiiehd#`b#giiiiii",
"iiiiiiiffihggg`ciiiiiiiii",
"iiiiiiiff..iid`iiiiiiiiii",
"iiiia#f``f`.hbbhhhd`aiiii",
"iiiiiii`fi.hg`.fdhhaaiiii",
"iiiiiia``#eiffih`hiiiiiii",
"iiiiiig```dg`#ai``geiiiii",
"iiiiiib`fg#`#bei````hiiii",
"iiiiih`b#.bagfie`ghhiiiii",
"iiiiif.ffaeiffii`diiiiiii",
"iiiia#iffiiib#ie`giiiiiii",
"iiiiiiiffiih`.ii`diiiiiii",
"iiiiiiiffieb#iie`giiiiiii",
"iiiiiiiffhbdiiii`diiiiiii",
"iiiiiiig.gaiiiiigaiiiiiii",
"iiiiiiiiiiiiiiiiiiiiiiiii",
"iiiiiiiiiiiiiiiiiiiiiiiii",
"iiiiiiiiiiiiiiiiiiiiiiiii",
"iiiiiiiiiiiiiiiiiiiiiiiii",
"iiiiiiiiiiiiiiiiiiiiiiiii",
"iiiiiiiiiiiiiiiiiiiiiiiii",
"iiiiiiiiiiiiiiiiiiiiiiiii",
"iiiiiiiiiiiiiiiiiiiiiiiii"
};
