/* XPM */
static char *yddkc[] = {
/* columns rows colors chars-per-pixel */
"130 40 78 1",
"  c #000604",
". c #000C06",
"X c #000D09",
"o c #001007",
"O c #00130C",
"+ c #00180F",
"@ c #001611",
"# c #001A14",
"$ c #001D19",
"% c #00231C",
"& c #8EBBB4",
"* c #92C0B5",
"= c #92C4BB",
"- c #95C8BF",
"; c #9DC4BD",
": c #9EC9BF",
"> c #A2C7BF",
", c #A9C4BF",
"< c #96CCC3",
"1 c #9EC7C1",
"2 c #9CCCC4",
"3 c #9DCFC8",
"4 c #9DD1C7",
"5 c #9ED3CA",
"6 c #9FD8CF",
"7 c #A5C7C1",
"8 c #A3CDC6",
"9 c #A4CFC9",
"0 c #ABC5C2",
"q c #AACBC5",
"w c #ACCEC9",
"e c #A4D1C7",
"r c #A3D4CC",
"t c #A4D9CE",
"y c #ABD4CD",
"u c #ACD9CE",
"i c #A5D7D1",
"p c #A7DCD2",
"a c #ACD7D0",
"s c #AADBD3",
"d c #ADDFD8",
"f c #B0CBC6",
"g c #B4CDCA",
"h c #B3D3CD",
"j c #B0D8CF",
"k c #B9D2CF",
"l c #B4D5D1",
"z c #B2DCD5",
"x c #B4DED8",
"c c #BAD5D1",
"v c #BBDBD5",
"b c #BCDED9",
"n c #A7E1D5",
"m c #A7E3D9",
"M c #ABE1D6",
"N c #ADE2D9",
"B c #AFE8DF",
"V c #B3E1D6",
"C c #B4E3DB",
"Z c #B4E8DE",
"A c #BAE3DC",
"S c #BBE9DE",
"D c #B5E6E0",
"F c #B5E9E1",
"G c #BAE7E0",
"H c #BBEBE3",
"J c #BDF3E9",
"K c #C0D6D3",
"L c #C0D9D5",
"P c #C2DDDB",
"I c #C9DFDC",
"U c #C2E2DD",
"Y c #C4E6E1",
"T c #C1ECE4",
"R c #C7EFE9",
"E c #CFE8E4",
"W c #C3F6EE",
"Q c #C8F0E8",
/* pixels */
"pppppppppppppppppppppppppppppaapppppppppppapppppppppppapppppppp6pppppppppppppppp6ntpppassspppnntntppppppppppppappppppppppppppppppp",
"pppppppppppppppppppppppppppppppppppppppppppppppppppppppppppppppppppppppppppppppinnntppaaapsptn6nppppppppppppapappppppppppppppppppp",
"ppppppppppppppppppppppppppppppppppppppppppppppppppppppppppppppppppppppppppppppppp6ppppppsaspntn6ppppppppppptpppppppppppppppppppppp",
"ppppppppppppppppppppppppppppapppppppppppppppppppppppppppppppppppppppppppppppppppn6nnppppsppptntnntppppppptnnpppppppppppppppppppppp",
"ppppppppppppppppppppppnpntntpppptn6ppppnpp6nnpn6pp6ppppp6nnnpppppp6nnp6nppppppppp6n6ppppppappp6ntnpnppppntntptntpppppppppppppppppp",
"ppppppppppppppppppppppn66ntnppppntnp6n6pipppn6tnppnnppppppp6ppppppppn6pn6ppppppppnnppppppppppppnn6n6ppppn66nnntnpppppppppppppppppp",
"ppppppppppppppppppppppppn66nn6pntntnnnpppppnn6ntpp6nn6pppppppppppppnpnpnnppppppppppppppppppppppptpnpntn6tntn6nnnpppppppppppppppppp",
"pppppppppppppppppppppppptnn6nnn6n6nn6pppppp6tntnpppppnn6pppsapppppp6n6p6pppppppppppppppppppppnpppptntntnntn6nt6npppppppppppppppppp",
"ppppppppppppppppppppppppn6BntntMptZ5pprppsstMptsn4mp5ppn6Mt6DisiM6B4B6rsppdtrCxrtNrrZr5Nsrppddiittsp5sisppn6nn66pppppppppppppppppp",
"ppppppppppppppppppppppppBm4ttM4ppN5tZrZrZ3pN5pZ3tMppnBM4M6Zt8ixa5p4p6NZ3pptZ2tedsttJ5rH5prZpi3siMtpMdpMpppnn6nnnpppppppppppppppppp",
"ppppppppppppppppp6pppppp-NttpZ4NC4pp4tpdttZprNeFpprpp<tmtt<ZxaaaZnNMt-eFtNetxsHed3C=NN5rp5iNdsGdCpprpeZeppp6p6pppppppppppppppppppp",
"pppppppppppppppppppppppsNnVtsNutapAddtaeeW=pZrztdepZ5Zmt5NZ2GyY9ttt4sNZeNzpeAr8asazGaesFNp2G3a9y2pztdrCtpppnpppppppppppppppppppppp",
"pppppppppppppppppnp6pppap82xy.@zdz.d8HzCapyZeVzdaCd.C4tsZupezhbaupsCssXxr8AyxlxxyzXszpp4tCx2dGa9AxyyGd=Zpppppppppppppppppppppppppp",
"ppppppppppppppppn6pnpppprGXO.Azuazo+o.@2xzaayS1yzyAXtZsrtro$..XX.otris.sxyX#XXXXX8@y8ddFiZt.@XX#.X.X.@.dppappppppppppppppppppppppp",
"ppppppppppppppppnnn6pppas8xa.hlya.xzaa#zy8OXO.%ozez.t4tZCpz8l$chpCedGyoaaAx8blyXb8OzAaeaiexOixx1AayGS8Oepppppppppppppppppppppppppp",
"ppppppppppppppppp6pnppppazalXv.vXxaazO1VyAyxeV8vyxy.CuaytuyzXwgXyayozeOzz8AalhXzybXezdedCyCXlllPhvyawCXCppappppppppppppppppppppppp",
"pppppppppppppppp6pnnpppsa@...X..vy.u.UyuyS:VejAwc. .ooohsyc.gkfK.hA.AyojjjeSyoAquj.ezN2ZsaxX X @..o...Owiddpmimppppppppppppppppppp",
"ppppppppppppppppnn6nppssyahX 0IkAqAoueujVo+oo..oofL.yu.vry....# @.k.vj.eeVSeVoyVju.SdrNrsa8$gvP0Lv0vvvyhadii66m6pppppppppppppppppp",
"ppppppppppppppppp6n6ppiisyb. Eggh..U+eAujVj,.vvqqUgouV htVvXUq K kh.ve+jujeyVoyooy@&dNtd9GyXPwXX..@o .Ayssiipm6mpppppppppppppppppp",
"ppppppppppppppppnnnpppddC7.U .gX vh.AhhhhyUj.UhvhgL.jj.AVeffhcXKhUq.vjojjVjyVooVvuoZzeCaaxyXll0vkk0hwhzAlsi6mimipppppppppppppppppp",
"pppppppppppppppp6pm6ipsdeUow.k.kkvOX.  .Uj,oU,.qUhv.ue.vuVUklbXgkqv.qvoezejA..yyeb$sadtaaz8XbPkccPkvUyA>sssspmm6nppppppppppppppppp",
"ppppppppppppppppnpmmppisVoV>.vkhc.c0czoy,Uk.vLh@hhh.tT.jtt. O..X..h.V>+ju...A.R8x8.aezasa9R  XX X......oasspp66mpppppppppppppppppp",
"ppppppppppppppppppppppiiMrVU.vvh.XhUh.zhVq+U,.. +;+A:4+>sMUhwA bU7vo>A.eAV.Ay.8GAy.CaaCyxd1XYhc@hUA>Ayyzssspim6mpppppppppppppppppp",
"ppppppppppppppppppppppistMyj.wv.lyXwojyzj+o...A.eT.vrV.Vueyvzz.vhvq.Uh.AjwAhj.A88GXaAyaaaxz yPw.jhyv.xeassppmpp6pppppppppppppppppp",
"ppppppppppppppppnnppppppVeuuohVhyzA.adedaCXaax8xz.zqdr.zsiwbai@wo.zxwl#8asaaaXysxaXzyCzoyzl.vlXvhyVjyojjsspppp6mpppppppppppppppppp",
"pppppppppppppppptpppppppMruSoyjjx8XCsdptC<NsrCrsoVyC+4OyddxliXXOxyCeGlXAlxwOxOrayC.1H8y.CCXza.@Xoo.o+ootssppppmmpppppppppppppppppp",
"ppppppppppppppppppppppppMtu:oUjeX+i3rtMMpM5MdsDXZZzy5oR8idXXOrAzrZzzX8Oxz2GxXA3DtpxXX.%.ea.aaA8yzeASeoSesppppppmpppppppppppppppppp",
"ppppppppppppppppppnpppuuMuSMo>ooi5DDn<Bt6pnips<dr2esJt8z6ixXCps8sreti$saAx1dsiC6dZeded=xG.xaezCyue8uMu:Zpppppppppppppppppppppppppp",
"ppppppppppppppppsppsntnntt:MVVSe3B5<pm6np6FpiiBiddDd<mrxB6rxiD9dNiBdd39i<xxiiiidtyttNCCe2rSex2zsuSSueC4npppppppppppppppppppppppppp",
"ppppppppppppppppsspptntnVtntnV*VBiCBBp5pmn<pDiidi3idnpxs<Bizd<Dd5p5F5iHiD3iDi6NmddsC5<CpHaytiD8u:u:uC:S4dipppppppppppppppppppppppp",
"ppppppppppppppppppspntnt4nZ:nVuVid<d36Ji5BmF<iH<N6ddmiDadp9d5dd3pB6<B5si<Hd3dBp<r4NspNpN3NpdZ4drHMtV:MuMpppppppppppppppppppppppppp",
"ppppppppppppppppdidpnttnntnuneMtD<DidpipN5N5Dd3D5Biipdaid6Crdiidm3mNip6ddiiD5ipmMpM3sNepNrpprrH55MenMtnppipppdpppppppppppppppppppp",
"pppppppppppppppppppppppppppppppppppppppppppppsppppspppppppppppppptppppppppppppppppppppppppppppppnnpppppppppppppppppppppppppppppppp",
"ppppppppppppppppppppppppppppppppppppppppppppppppppppppppppppppppppppppppppppppppppppppppppppppppunpppppppppppppppppppppppppppppppp",
"pppppppppppppppppppppppppppppppppppppppppppppppppppppppppppppppppppppppppppppppppppppppppppppppppppppppppppppppppppppppppppppppppp",
"pppppppppppppppppppppppppppppppppppppppppppppppppppppppppppppppppppppppppppppppppppppppppppppppppppppppppppppppppppppppppppppppppp",
"pppppppppppppppppppppppppppppppppppppppppppppppppppppppppppppppppppppppppppppppppppppppppppppppppppppppppppppppppppppppppppppppppp",
"pppppppppppppppppppppppppppppppppppppppppppppppppppppppppppppppppppppppppppppppppppppppppppppppppppppppppppppppppppppppppppppppppp",
"pppppppppppppppppppppppppppppppppppppppppppppppppppppppppppppppppppppppppppppppppppppppppppppppppppppppppppppppppppppppppppppppppp",
"pppppppppppppppppppppppppppppppppppppppppppppppppppppppppppppppppppppppppppppppppppppppppppppppppppppppppppppppppppppppppppppppppp"
};
