/* XPM */
static char *yddld_xpm[] = {
/* width height num_colors chars_per_pixel */
"   110    28       16            1",
/* colors */
"` c #040204",
". c #548ea4",
"# c #74cafc",
"a c #243a44",
"b c #fcfefc",
"c c #84defc",
"d c #0c161c",
"e c #6cbadc",
"f c #3c6a7c",
"g c #345264",
"h c #64a2bc",
"i c #14262c",
"j c #7cd2ec",
"k c #8ce6fc",
"l c #000000",
"m c #000000",
/* pixels */
"##ckkkkkc####cckkkkkkkcc######cccckckkkkkkkkkkkckkckkkkkkkkccc#ce####ckkkk###ckkkkjj#kkkkc##kkkk##kkkc#ckkk#ck",
"##ckkkkkc###ccckkkkkkkc#c#####j#c#cccckkkkkkkkkkkkkkkkkkcccc#######cckkkkc##cckkkk###kkkkc##kkkk##kkkc#ckk##kk",
"##ckkkkk####ccckkkkkkcccc####j#j#cccckkkkkkkkkkkkkckccccj##e#e###cckkkkkkj###kkkkkj##kkkkc##kkk##ckkk##kkk##kk",
"##ckkkkc##e#cckkkkkkkkccc#e######cc#ccj#cjcckkkccccc#j########ccckkkkkkck###cckkkc###kkkc##kkkk##ckkk##kkk##kk",
"##ckkkk####cjkkkkkkkkcccc#######j##ccccccccckkccc############cckkkkkkkkkk###ckkkkk###kkkk##kkkk##ckkk##kkk##kk",
"##ckkkc####cckkkkkckkkccc#####j###j##ccccc#kkk#c####e#####ckkkkckkkkckkkk##cckkkk###ckkkc##kkkk##kkkc##kkk#ckk",
"##ckkkk###jckkkkkkkkkcch#j###e######c####j##c##########ccck#.jkkkckkkkkchfg.cckkk###ckkcc##kkkke#kkkk##kkk##kk",
"#cckckc##ccckkkkckckjke`fkc######e###jcjff###e#####c##j#ckkedajkkkcckeiiddafkkkkk###kkkkea.kckk##kkkc##kkc#ckk",
"##ckkkje##ckkkkkbjigcca`fe###e####cj###cf`h######eeh.aa.kkkkaackkcc#ckkg`.ehhhckk###ckkke`ijkkj##kkkkeckkk#ckk",
"##kkkc##ccckkkjhf`d.jfiaa`fc#####h.gagekf`h######fad`dfhjhkkagckc##gfe.a`affg``gkkejkkkk#ad.adf#ckkkc##kkc#kkk",
"#cckkc##ckkkkkefi`ejf`fjddh#####hgiiifecgdecc##cceea`ekcjdgkggcc##.`agffi.f.jaifjk##ckkkea`aafhjckkkc##kkk#ckk",
"#cckkc#ckkkkkkkk.dechfig`.k#####eeh##kccadf.h#ccck.`fjghjaikfie###dikffhih.g.hcck###kkkk#gdjckk##kkk##kkkc#kkk",
"cckkkcckkckkkkkk.`iaecadh##########..fii`igdi.ccch`ahf`acgikfie###fhea.hfeggjkkkk###ckckcfikjhcc#kckk##kkc#kkk",
"cckkkckkkkkkjaad`i.e#giiae###eggai`iafh.`fcad#kk.`dai..fjgakfdec#kkcj..gih.g#kkkc##jkkeh.adad`ajckkk##kkkc#kkk",
"ckkkkkkkkkkk#fh.`ih#gf.`da`.c#.f..dde#c.`hcdikckhfjjdfjccgikgiecckkkkkg`aif#ckkkk###kkg`ffh#g`f##kkkc##kkc#ckk",
"cckkckkkkkkkkk#a`d`ajhiafa`gj####gdhfhcaiecdgkkkkke.ddaejiicfiekkkkkkfdi.haahkkkk###kkhdh##hidecckkkc#kkkc#kkk",
"ckkkkkkkkkkkkcaigg...ddhe`ijc##c.df.`a.`fkhd.ckkkjgi`fkkjigkgijkkkccgdhhihea`gekkk##ckkdafaaifkc#kkkk##kkc#ckk",
"kkkkkkkkkkkkkf`e.iekffadg`hk###f``iggi`iekhd.kkkkkkjdf.fh.hkgi#kkkha`ahfaiifg```gh##cckff.hkk#ejcckkc##kkk#kkk",
"kkkkkkkkcckcgihcfie##c#d`.c###cg`fhjkf`fkkg`#kk#ej.g`dafe##kfiekkgaf.gf..dd.c.ff.e##ahkh#khaekad.kkkk##kkk#ckk",
"kkkkkkkkccce.hccgde###f`fcje###ee###hdfhafdakkkhdd`ifh#c#ee#fdekeheecj.faae#ckkkkkk.`hkiiehdikhd`.kkc##kkk#ckk",
"kkkkkkkcc######cgiechai.cc###e#####.dajkf``hkkkj.fecccce#jg``ijkkkj##kei`fk##ckkkkji`hkhihc.g#khdickk##kkk##kk",
"kkkkk###e#######..hfafecj####c###c.dfcckeafkkkkkkkkkcc###ckf`gkkcc###kkjaijc#jkkkkjagjkkkc##kkkchekkk##kkk#ckk",
"kkccjjj#######cjcj..jcccccccc#j##eh#####ckkkkkkkkkkkj####ckeg.kkk###ckkkkhj###kkkkkj#ckkkc##kkkk#ckkk##kkk##kk",
"ccc########cccccckkkkcccccccjc#c#########cckkkkkkkkc####ccckkkkk###cckkkkkk###ckkkk##ckkkc##kkkk##kkk##kkk##kk",
"########cccccckckkkkkkkkkkkkcccc#c###e##ckkkkkkkkkkk####cckkkkkk###ckkkkkkkc##ckkkk##ckkkk##ckkk##kkkc#ckk##ck",
"######ccckkkkkkkkkkkkkkkkkkkkkccc####kkccc######cccck###ckkkkkk###ckkkkkkkkc###kkkkc##kkkkc#ckkk##kkkc#ckkk#kk",
"##cc##kkkkkkkkkkkkkkkkkkkkkkkcccc#cc#c##c#cccccc####ccckkkkkkkk###ckkkk##kkk###ckkkk##ckkkc##kkk##ckkk##kkk#ck",
"ckckkkkkckkkkkkkkkkkkkkkkkkkkkckcc###ckkkkkkkkkkkkkc###ckkkkkk###ckkkkk#ckkkc###kkkk##ckkkc#ckkkk#ckkk#ckkk#ck"
};
