/* XPM */
static char *tt_xpm[] = {
/* width height num_colors chars_per_pixel */
"   150    32       16            1",
/* colors */
"` c #9c02fc",
". c #7496dc",
"# c #eccefc",
"a c #746acc",
"b c #f4eefc",
"c c #bc4efc",
"d c #fcfafc",
"e c #ac2efc",
"f c #b4c6ec",
"g c #cc7efc",
"h c #dce2f4",
"i c #7472b4",
"j c #fcfefc",
"k c #000000",
"l c #000000",
"m c #000000",
/* pixels */
"jjjjjjjjjjjjjjjjjjjjjjjjjjjjjjjjjjjjjjjjjjjjjjjjjjjjjjjjjjjjjjjjjjjjjjjjjjjjjjjjjjddddjdjjjjjjdjjjjjjjjjjjdjjdjjjjjjjjjjjjjjjjjjjjjjjjjjjjjjjjjjjjjjjj",
"jjjjjjjjjjjjjjjjjjjjjjjjjjjjjjjjjjjjjjjjjjjjjjjjjjjjjjjjjjjjjjjjjjjjjjjjjjjjjjjjjjjddddjdjjjjdjddjjjjjjjjjjjddjjjjjjjjjjjjjjjjjjjjjjjjjjjjjjjjjjjjjjjj",
"jjjjjjjjjjjjjjjjjjjjjjjjjjjjjjjjjjjjjjjjjjjjjjjjjjjjjjjjjjjjjjjjjjjjjjjjjjjjjjjjjjjjjjdjjjjjjjdjjjjjjjjjjjbhjjjjjjjjjjhjjjjjjjjjjjjjjjjjjjjjjjjjjjjjjj",
"jjjjjjjjjjjjjjjjjjjjjjjjjjjjjjjjjjjjjjjjjjjjjjjjjjjjjjjjjjjjjjjjjjjjjjjjjjjjjjjjjjjjjjdjjjjjjjdjjjjjjjjjjjb..jjjjjjjjd.hjjf.hjjjjjjjjjjjjjjjjjjjjjjjjj",
"jjjjjjjjjjjjjjjjjjjjjjjjjjjjjjjjjjjjjjjjjjjjjjjjjjjjjjjjjjjjjjjjjjjjjjjjjjjjjjjjjjjjjjjjjjjjjdjjjjjjjjjjjjjjhdjjjjjjjb.djjjhhjjjjjjjjjjjjjjjjjjjjjjjjj",
"jjjjjjjjjjjjjjjjjjjjjjjjjjjjjjjjjjjjjjjjjjjjjjjjjjjjjjjjjjjjjjjjjjjjjjjjjjj#gjjjjjjjjddjjd##jjjjjjjjjjjjfhh.f.ahjjjjd.f.hjjbffdjjjjjjjjjjjjjjjjjjjjjjj",
"jjjjjjjjjjjjjjjjjjjjjjjjjjjjjjjjjjjjjjjjjjjjjjjjjjjjjjjjjjjjjjjjjjjjjjjjj#e`cdjjjjjjjddbge`cjjjjjjjjjjjjf.djdh.djjjjf.j.bf.ffhdjjjjjjjjjjjjjjjjjjjjjjj",
"jjjjjjjjjjjjjjjjjjjjjjjjjjjjjjjjjjjjjjjjjjjjjjjjjjjjjjjjjjjjjjjjjjjjjjjge```gjjjjjjjjdge```bjjjjjjjjjjjj.hhhf.fjjjjjb...jjjhjjjjjjjjjjjjjjjjjjjjjjjjjj",
"jjjjjjjjjjjjjjjjjjjjjjjjjjjjjjjjjjjjjjjjjjjjjjjjjjjjjjjjjjjjjjjjjjjjbge````ejjjjjjjbg`````ejjjjjjjjjjjjj.f.hhbjjjjjdhfh.hhf..jjjjjjjjjjjjjjjjjjjjjjjjj",
"jjjjjjjjjjjjjjjjjjjjjjjjjjjjjjjjjjjjjjjjjjjjjjjjjjjjjjjjjjjjjjjjjj#g```````gjjjjjbc```````#jjjjjjjjjjjjd.jjjddfjjjff..f.d.hffjjjjjjjjjjjjjjjjjjjjjjjjj",
"jjjjjjjjjjjjjjjj`jjjjjjjjjjjjeececececegjjj#ceeceec#djjjjjjjjjjjj#`````````jjjjjg````````ebjjjjjjjjjjjjffa.ff..ajjhffff.dfffhjjdjjjjjddjjjjjjjjjjjjjjj",
"jjjjjjjjjjjjjjjj`jjjjjjjjjjjje#jjjjjjjjjjj#egjjjjd#`#jjjjjjjjjjjjjc```````gjjjjjde```````gjjjjjjjjjjjjj.h.jjdj.fjjdj.df.j.hfjjjfjjjddddjjjjjjjjjjjjjjj",
"jjjjjjjjjjjjjjjj`jjjjjjjjjjjjc#djjjjjjjjjjgcjjjjjjjgcjjjjjjjjjjjjjjc``````#jjjjjjbe``````jjjjjjjjjjjjjffjfhjjhahdjjb.jj.j.jf.jh.jjjjddjjjjjjjjjjjjjjjj",
"jjjjjjjjjjjjjjjj`jjjjjjjjjjjje#jjjjjjjjjjjggjjjjjjd#cjjjjjjjjjjjjjj#`````cjjjjjjjd#`````gjjjjjjjjjjjjffjdf...f.bjjbfdj..fdjj.aafjjjjddjjjjjjjjjjjjjjjj",
"jjjjjjjjjjjjjjjj`jjjjjjjjjjjje#djjjjjjjjjjggjjjjjjj#ejjjjjjjjjjjjj#`ec```#djjjjjj#`ce```bjdjjjjjjjjjjbdjjbbjjjjjjjjhjjbhjjjjjbbdjjjjjjdjjjjjjjjjjjjjjj",
"jjjjjjjjjjjjjjjj`jjjjjjjjjjjje#jjjjjjjjjjjggjjjjjjd#cjjjjjjjjjjjj#`edjc`ejjjjjjj#ecjbe`cjjjjjjjjjjjjjjjjjjjjjjjjjjjjjjjjjjjjjddjjjjjjjjjjjjjjjjjjjjjjj",
"jjjjjjjjjjjjjjjj`jjjjjjjjjjjjccggggggjjjjjggjjjjjjj#ejjjjjjjjjjj#`ebjjjgbjjjjjj#`cjjjbgbddjjjbdjjjjjjjjdjjjjjjjdjjjjjjdjjddjbbjbdjjbdjjjbjjdjbddjjjjjj",
"jjjjjjjjjjjjjjjj`jjjjjjjjjjjjeg######jjjjjggjjjjjjd#ejjjjjjjjjj#`edjjjjjjjjjjj#ecjjjjjbjdbdbjdijjdddjdbjdbdbbibjjjddbjjbhddibjhjjjddjbddibdjbjjdjjjjjj",
"jjjjjjjjjjjjjjjj`jjjjjjjjjjjjc#bjddjjjjjjjggjjjjjjj#ejjjjjjjjj#`ebjjjjjjjjjjj#`cjjjjjjdddbdjbjidjjjbddddbjjbbihbdjddjbbiijbidddddjbdjjjbidjbdjdbjjjjjj",
"jjjjjjjjjjjjjjjj`jjjjjjjjjjjje#jjjjjjjjjjjggjjjjjjb#cjjjjjjjj#`edjjjjjjjjjjj#ecjjjjjjjddddjbdbiidbbjddbjjjbdiaiiijjjbdija#dibbjjjjddbdddibjdjbbjjjjjjj",
"jjjjjjjjjjjjjjjj`jjjjjjjjjjjje#djjjjjjjjjjggjjjjjjj#ejjjjjjj#`ebjjjjjjjjjjj#`cjjjjjjjjdjdjbjbibdiddjbbjbjiiijhadhdjdjbidadbiiibdbbjddbddiiiiidjbjjjjjj",
"jjjjjjjjjjjjjjjj`jjjjjjjjjjjje#jjjjjjjjjjb#ejjjjjjjgcjjjjjj#`edjjjjjjjjjjj#ecjjjjjjjjjdjjdjdibbdhibdddbjddhidbdidddjjjiaabiibbjiiibjhiiaadhbdbjdjjjjjj",
"jjjjjjjjjjjjjjjj`jjjjjjjjjjjjcgjjjjjjjjjjj#`cbjjjjge#bjjjj#`ebjjjjjjjjjjj#`cjjjjjjjjjjjjjbdidbdbdbiibbbdjbiiiiibihjdbbibabbiiaibdidbjdjhaabddjdjjjjjjj",
"djjjjjjjjjjjjjjj`ecececece#jjeececececcgjjjdgeeceeg#djjjj#`edjjjjjjjjjjj#ecjjjjjjjjjjjjddbibjdiiidbiiibddibidbddbiiiddibaaiidbibbibjbddiabadbdbjjjjjjj",
"jdjjjjjjjjjjjjjjjjjjjjjjjjjjjjjjjjjjjjjjjjjjjdjjjjjjjjjj#`ebjjjjjjjjjjj#`cjjjjjjjjjjjjjjdibdiiidbdbbjddiidhiiiibdddjbdiaabbabbibiijdddibaddibdddjjjjjj",
"djjjjjjjjjjjjjjjjjjjjjjjjjjjjjjjjjjjjjjjjjjjjjjjjjjjjjjb``gggggggggggggecjjjjjjjjjjjjdjdjdjddhiiiddbdbbdddbidbjbdbdbddahababiiibjdbbdidba#dhiibdjjjjjj",
"jdjjjjjjjjjjjjjjjjjjjjjjjjjjjjjjjjjjjjjjjjjjjjjjjjjjjjjbggggggggggggggggjjjjjjjjjjjbjddjbbddiiahdjhdddjbbbjii.aaiidhdihdadiibdibbdjhibhdaaaidaiijjjjjj",
"djjjjjjjjjjjjjjjjjjjjjjjjjjjjjjjjjjjjjjjjjjjjjjjjjjjjjjjjjjjjjjjjjjjjjjjjjjjjjjjjjddbdjjbdbjbdaddbdddbjjiiaha#abbddjbijiidhddbidddbiddiaabbbbddbjjjjjj",
"jdjjjjjjjjjjjjjjjjjjjjjjjjjjjjjjjjjjjjjjjjjjjjjjjjjjjjjjjjjjjjjjjjjjjjjjjjjjjjjjjjddbdddjbdbbbiaiiiiddbjjbbabaaabdjdbddhadjbdbijdjhddbdbidbdddjjjjjjjj",
"djdjjjjjjjjjjjjjjjjjjjjjjjjjjjjjjjjjjjjjjjjjjjjjjjjjjjjjjjjjjjjjjjjjjjjjjjjjjjjjjjdjjjdbdbiiiiddbdbdddjdddiiiddbibdddbdddhdbddiddjddddjdibjjddjdjjjjjj",
"jdjjjjjjjjjjjjjjjjjjjjjjjjjjjjjjjjjjjjjjjjjjjjjjjjjjjjjjjjjjjjjjjjjjjjjjjjjjjjjjjjjdjdddhdddjddjjjjjdjdddbjdjbjddjjjjddddddddjdjdbjdjdbjdbddjjbjjjjjjj",
"dddjjjjjjjjjjjjjjjjjjjjjjjjjjjjjjjjjjjjjjjjjjjjjjjjjjjjjjjjjjjjjjjjjjjjjjjjjjjjjjjddjdddddbdjddjjddddjjjdjjdddbjjdjddjjbdddddbjddjddjjdjddddjjddjjjjjj"
};
