/* XPM */
static char *yjkkc_xpm[] = {
/* width height num_colors chars_per_pixel */
"   110    28       16            1",
/* colors */
"` c #040204",
". c #548ea4",
"# c #74cae4",
"a c #fcfefc",
"b c #243a44",
"c c #84daec",
"d c #64a6cc",
"e c #3c6e7c",
"f c #8ce6fc",
"g c #14222c",
"h c #2c5264",
"i c #6cb6d4",
"j c #74cafc",
"k c #84defc",
"l c #000000",
"m c #000000",
/* pixels */
"jjkfffffkjjjjkkfffffffkkjjj##jkkkkffffffffffffffffffffffffffkkjkjjjjjkkfffjjjffffffjjkfffkjjffffjjfffkjkfffjkf",
"jjkfffffkjjjkkffffffffkkkjjjjjkjkkkkfkffffffffffffffffkfkkkkjjjjjjjkkffffkjjkkffffjjjffffkjjffffjjfffkjkffkjff",
"jjkffffkjjjjkkffffffffkkkjjjjjjkjkjkkfjkfffffffffkkkkkkkkjjjjjjjjkkfkfffffjjjfffffjjjffffkjjfffjjkfffkkfffjjkf",
"jjkffffkjjjjkkffffffffkkkj##jj##jkkkckkkkkkkfffkkkkkkkjjjjjjjjkkkffffffffjjjkfffffjjjfffkjjffffjjkfffjjfffjjff",
"jjkffffjjjjkkffffffffkkkkjjjjjjjkjjkkkkffkkkffkkckkjjj#jjjjjjkkffffffffffjjjkfffffjjjffffcjfffkjjkfffjkfffjjff",
"jjkfffkjjjjkkfffffffffkkkjjjjjjjjkcjjk#i#kjfffjkjjj#jjjjjjkkffffffffffffkjjjkffffjjjkfffk..#fffjjfffkjkfffjkff",
"jjkffffjjjkkfkfffffff#cjkj##j##jk.gdkfibbikjkjjjjjjjjjjkjkkffffffffffffffjjjkffffjjjkfff#b`hfffjjffffjkfffjkff",
"jjkfffkjjkkkffffffde`gbkkjjjjjjjc.`hkf#ggijjjjjjjjjjcjffhgcfffffffkkkfk#.hgg`ifffjjkcfffjiehkcdeecffkjkffkjkff",
"jjkfffkjjkkfffffd``gh.kkcjjjjjjjjh`dj#kgbjcjjjjjjkki.h.ce`iffffffkk#ehg`gggh.kfffjjfdhe.eehggbhg`hkffjkfffjkff",
"jkkffkjjfkfffffffi#fffk#jkjjj##cd`hjebibg..djjjj#ebgg``d.gfffffkkjjid.gbf.`.fffffjjkh`hbghieb#fbgeffkjkffkjfff",
"jkfffkjjffkffffffffc.eb`h###jjj#b`#cb`ggggbdjjjk#ebd.`dfeh#ffffkjjjjffh`kd`.fffackf.`.f.`efi``id#fffkjkfffjkff",
"jkfffkjkffffffcd.eb``bbe.ijjjjkh`gdd`h.gbdkjkjkkkffdb.akhhfffkjjjjjkffegfd`hehhhdjkdh#eg..b#cd#kkfffjjfffkjfff",
"kkffffkfkffffkegg`be`ejkkjjjjke`hb.hekkbhk#d#kkkkffe`#fabbffckjjjkfc#.g`gg`ggbbb.fjjf#e#d`gfcdcjjffffjkfffjkff",
"kkffkjffffffffkf.`ekg.cjjjjjk.`edbeiid.g`gg`ghfkfffkgbhibefkjjjjkhgggb`gd.`.kkffkkjkfi..g`ggg`gikfffjjfffkjfff",
"kfffffffffffffffh`di`djjjj#jid.cdbbbggg`g.dddkkffffiggikbefkjjjkkf#ffdgefi`.fffffjjjfkbbegbddgg#ffffkjkfffjkff",
"kfffkffffffffffd`hkd`ijjjjd.ijjjd`.jdcjgbckkkkfffdg`ghccbhkjjkhdfffff.`.fi`efffffjjjkfghe`b`hhg#kfffkjfffkjfff",
"kfffffffffffff#gg#fd`ijjjjegdkj#.`dkjk#gb#kkfkfdg`bkebkcbhfjkkg.ffff#bb#fi`.kffffkjjkfbbbeggfe`ikffffjkffkjkff",
"fffffffffffffiggdfkd`djjjke`dkjjdgdkjk#gbckfkffib.ffhbcchgdff.`effffe`.ffi`effffffjjkfgeig`gde`ikfffkjkfffjkff",
"fffffffffkkf.gb#kjj#gb.#i.g`.kjke`ijjkkbb#kkffffffd.gbckig`bb``hkffd`efffi`.kkffffjjkfbhe.dh.e`ikffffjkfffjkff",
"fffffffkkkkc..#jjjjj.`g`g``gikjcegijjjfbhkkfffffffig`efjji.hbedfffdgekfffi`ekfffffjjkcgg`gggbg`ikffffjkfffjfff",
"ffffffkkkjjjjjjjjjjjji....d#jjjjidjj#kfbefffkffffff.gikjjjkkfffffk.djjfffig.kkffffkjkfbdkdi#.`gikkfffjjfffjjff",
"fffffckjjjjjjjjjjkjkkkkkkcjjjkjjjjjjjjk..kkfffffffffjkjjjkkfffffkkjjjffffiedjkffffjjkkcffkjffhekjffffjkfffjkff",
"ffkkkjjjjjjjjkjkkkkkkkkkkkkckjkjjjjjjjjkkkffffffffffkjjjjkkfffffkjjjkffffffjjjfffffjjkfffkjjfffjjjfffkjfffjjff",
"kkkjjjjjjjjkkkkkkkffkfkkkkkkkcjkjjjjjjjkkkkffffffffkjjjjkkffffffjjjkkffffffjjjkffffjjkfffkjjffffjjfffjjfffjjff",
"jjjjjjjjkkkkkkfkffkffkfffffkkkckjkjjjjjjkfffffffffffjjjjkkfffffkjjjkfffffffkjjkffffjjkffffjjkfffjjfffkjkffjjkf",
"jjjjjjjkfkffffffffffffffffffkkkckjjjjkfkkkjjjjjjjkkkfjjjkffffffjjjkffffffffkjjjffffkjjffffkjkfffjjfffkjkfffjff",
"jjkkkjfffffffffffffffffffffffkkkkjkkjkjjkjkkkkkkkjjjkkkffffffffjjjkffffjjffkkjjkffffjjkfffkjjfffjjkfffjjfffjjf",
"kfkfffffkffffffffffffffffffffffkkkjjjkfffffffffffffkjjjkffffffjjjkfffffjkfffkjjjffffjjkfffkjjffffjjfffjkfffjkf"
};
