/* XPM */
static char *zdgzk[] = {
/* columns rows colors chars-per-pixel */
"80 30 85 1",
"  c #000605",
". c #000B05",
"X c #000E0A",
"o c #001006",
"O c #00130C",
"+ c #001A0F",
"@ c #001611",
"# c #001A13",
"$ c #001E19",
"% c #9BBFBB",
"& c #8DC5B9",
"* c #93C6BD",
"= c #95C9BE",
"- c #9BC3BC",
"; c #9AC9BE",
": c #A0C3BC",
"> c #95CBC1",
", c #9CC6C1",
"< c #9BCCC4",
"1 c #95D1C5",
"2 c #97D4C9",
"3 c #9CD2C6",
"4 c #9DD4CA",
"5 c #9DD9CB",
"6 c #9EDDD1",
"7 c #9DE1D4",
"8 c #A6C6C1",
"9 c #A3CCC5",
"0 c #A5CEC9",
"q c #ADC7C3",
"w c #ABCCC5",
"e c #ADCEC9",
"r c #A3D1C6",
"t c #A4D4CC",
"y c #A3D9CE",
"u c #A8D0C7",
"i c #ABD4CC",
"p c #ABD9CE",
"a c #A6D6D0",
"s c #A6DDD2",
"d c #ADD6D1",
"f c #AADBD3",
"g c #AEDFD9",
"h c #B2CAC7",
"j c #B2CECA",
"k c #B9CFCC",
"l c #B3D3CD",
"z c #B0D8CF",
"x c #B9D2CE",
"c c #B3D6D1",
"v c #B3DBD4",
"b c #B3DFD9",
"n c #BBD6D2",
"m c #BADBD5",
"M c #BADDD9",
"N c #A0E0CF",
"B c #A4E1D3",
"V c #A3E5D9",
"C c #A5E9DC",
"Z c #ABE1D6",
"A c #ADE3D9",
"S c #AEE8DC",
"D c #B5E0D6",
"F c #B3E3DA",
"G c #B3E9DD",
"H c #B8E0D7",
"J c #BBE3DB",
"K c #BAE9DE",
"L c #AFEDE2",
"P c #B4E7E0",
"I c #B5EBE1",
"U c #BBE7E1",
"Y c #BBEBE2",
"T c #B7F1E5",
"R c #B9F2E5",
"E c #BEF1EA",
"W c #C5D7D7",
"Q c #C2DEDA",
"! c #C3E2DD",
"~ c #CAE0DE",
"^ c #C4E6E1",
"/ c #C3EBE4",
"( c #CEECE7",
") c #C1F0E8",
"_ c #CFF4EC",
/* pixels */
"gpg>sG3Asfssssss67ssssffaPagg<PafdffVfffgtvaavtP26L6C6677766666V2AAsP4asffsV6f6f",
"ZtfIA>AssssssssssBs6ssffg>g4fgfgffff666V<PUaUag4L2661L6676sssVssP2as1PfffsfffVf7",
"ZytyssI>ssssssss676ssssfaEaaT4Aafffsfa7fY<tf<PgstgPaY0gffffffggf4ASsTtfsfff6sssV",
"fyfZs>yZssss6ss6s7sssVsVf<f62sL4fff6V777*Pfg44V6g0ag,bvagvfdddfff2sf>ggaffg7Vss6",
"yZAysI4Zssss66s6sssssysffLgagL2Asfs666fsI4ggZyB54gfAaItFsffffffayFsFsYtFf6fff666",
"Af>I<sZ4ssssssssyfsfffffa44fT22Vsfs6666f3G=A4SNBPP>Ag2rssfasffffFG*gF0rfffffffss",
"f>Y=IDXbsffsssssfffffdfff@gg%sLsfff6s6ffoY9bsyBy1gsafXYysssss66s<bfpd /iddfffasa",
"gfpfffXodddffsssfdcfcdcfgXgaL44fdgffffffXXHftsBygaaffbXFfffaffffbddccM Qccddgaff",
"dMdddXdcMidcfgdf...O..llzo9pZDrZ@XXXoiib.!lipZySzX...X.#X X  vvi.O X..X  . X.+pD",
"d%@XX@ X $@ cv9v!hln8!qmm.!zp;DK0cv9OJun.lnc!tD3zXxmWh~:nknc Mem.le~ kQh xQmorip",
"MMXMcqncc8e@cUavhQmllj~.X..oou!:nq!MXzh.X  X.+rDonnll!h!e~cXuzpXm.+.X    X.ouz!p",
"ddX!cQncQMn v,dO.X.oO. jloJmoHuHc(%eocxXlmjOHpDpv9..O...X dabftFllnj WWWXhjmHz;D",
"dv     @ XOo0bgdHw.uj!lJn.l-+izz  +.oco.xxm.zlrppZKp;zHzoDptrG3yp!:(Qjxjnm!lptGr",
"0EXdUJbe^%vXdF<gDz._jul:lOwHoD;D@lu!zXl.xQhouKBZ3pppHHlo-/rGANNyK-o..O...o.crZNB",
"gy@g09bcfvbOZyT3;+H-oDz!ioD9oZZpXivJ9mzm.Q.Jz;5ZKnulxx.x!:muupZprv+H8l.lmJoDZyBy",
"tZX9UvcceJ0oftyZzoiHi.muzoHpozrDXliumizlX:@ziKypo..X..X...oooorZpKoznlXnzu#rf5S5",
"izo+..X.o.o.ivDpolm.X..nolziopDu nnM mMieOd0YrtF3DDrvi McccpfyfpbcObil MMM bdJfr",
"JzO8mhjmjnlXJ:Do..+X:.Qlolmp+uzJXcl /c9JO dp0vb<DB=Zfr@0fffffsss9fXcMXm l9 /d,Kb",
"9m.JllQql!m.zDrz.xhj!mw.DzpDo;HrXe$Mevc J9@pbfiFs3G>FfXUccffssssYfHf0oiXbe(-XJ0b",
"pD.zlljnwmu.puYuzlJzi9.zD;oK+ZZi@ v9MXXd9Y9X@XpyysAGrYXtffffssss<9Fi@icXcevtoffr",
"H9oXoO..$.O.Ut>fpBp;poZZAyIoyZ4AXa9$XrJdUtbFXsFgZs4aX>OdfddfssssGGXO0vJ9X$XOOpfG",
"r/orDDvz9ib+<AfsNR;GGrrZrS5BB3T>bJbdtff0tftGsgtyBBssYopddffsfsssOXtbga,Utbd<fg<t",
"ppptD;rJHb<pgyg4yNG&SN5AByyZy4aAf0f0Ubtfgtsf44Ss5Gs<grFgffffsssstggarUftg0GasfFA",
"yyGpppKrppDyfA4LS=AByBZy5ZyysA2sstbfsyrFrGsyAsfaZ4sAs<FtfffssssssfyfsststGrysgtt",
"ffyfffffffffssssNBpyssssssssasfffsfsdsssssssssssssssffsfffpsssssssfsfsssfsassfss",
"fsfffsfaffsfsss6BZpBsssfafffffffsfsdssssssdssssssssssasafyffssssssssssssssssssss",
"ffsfasssassss6s6pfppfsfffffffffffsssssdsdssssafsssdsssssfsfsssssaffssssssssssdsf",
"fyfsffssfssssssssfBpfffffasfffffssfsdsssssssssssfasssssasssssfsassdsssssssssssfa",
"sffffsssssssssVsffffffsssfasfsfssdsssssssssdsssdsssfssssssssfsfsssssss6sssssssfs",
"fsffsssfss6ssssssffsfffffsfsfffasssssssdsdssssssssssssssssssssssssfssss6ssssdsff"
};
