/* XPM */
static char *zfkfd[] = {
/* columns rows colors chars-per-pixel */
"80 30 86 1",
"  c #000705",
". c #000C06",
"X c #000E09",
"o c #001006",
"O c #00120B",
"+ c #001611",
"@ c #001B14",
"# c #031E1B",
"$ c #00231C",
"% c #99BCB8",
"& c #8EC1B8",
"* c #8EC8BC",
"= c #93C6BE",
"- c #95C8BF",
"; c #9CC3BB",
": c #99C9BE",
"> c #A2C2BF",
", c #94C7C0",
"< c #96CCC3",
"1 c #99C6C1",
"2 c #9CCDC4",
"3 c #9ECEC8",
"4 c #95D3C5",
"5 c #96D4C9",
"6 c #9BD2C7",
"7 c #9ED4CB",
"8 c #9CDACE",
"9 c #9EDDD1",
"0 c #9EE1D4",
"q c #A7C6C0",
"w c #A3CCC4",
"e c #A4CFC9",
"r c #ACC6C3",
"t c #ABCCC5",
"y c #ADCEC8",
"u c #A4D1C6",
"i c #A4D4CC",
"p c #A4D9CE",
"a c #ABD4CD",
"s c #ACD9CE",
"d c #A4D7D0",
"f c #A6DCD2",
"g c #ACD6D0",
"h c #AADBD3",
"j c #ADDED8",
"k c #B1CAC6",
"l c #B2CECA",
"z c #B9CFCD",
"x c #B4D3CE",
"c c #B0D8CF",
"v c #B9D3CF",
"b c #B3D6D1",
"n c #B2DCD4",
"m c #B3DFD8",
"M c #BBD6D2",
"N c #BADBD5",
"B c #BADED9",
"V c #A6E1D4",
"C c #A3E5D9",
"Z c #A5E9DC",
"A c #ABE1D6",
"S c #ADE3D9",
"D c #ADE9DD",
"F c #B4E1D7",
"G c #B3E3DB",
"H c #B3E9DD",
"J c #B8E0D7",
"K c #BBE3DC",
"L c #BEE9DF",
"P c #AFEDE2",
"I c #B4E7E0",
"U c #B5EBE1",
"Y c #BBE7E0",
"T c #BBEBE3",
"R c #B9F1E6",
"E c #BDF2E8",
"W c #C1D6D4",
"Q c #C2DBD7",
"! c #C3DDDA",
"~ c #C3E4DE",
"^ c #C5E5E1",
"/ c #C2EAE2",
"( c #CAE7E3",
") c #CCECE9",
"_ c #C5F0E7",
"` c #C4F1EA",
/* pixels */
"5CZ0Z890009999909ZfjfS7jhdjhjj8jjj77jfj7ffCfffff9S7jhh3Ijdjddj7IpG2ShpHphhfhfhhh",
"P599<P90C9ffjfCff5S7jddd7II,f7ff7IdRj5jIffffjffCC9IddhI71IIdIdj7SdSf7S<hffhfffff",
"ijGhTijjhhhhgjjjjjpGf7IhGd3IhfU7j7I<fj95V9VfffffPf8IdjdhT1df<IjjpV6U78Efffffpfff",
"megn1mhahhbhjggjS<I=jh1j1jhj3dhfj9R59ffjfffff9ff<9I57hdI,Ihj75C9pDA4ff4dffffVfff",
"dGhGpTiGhhhhhjdj2S6GjnLaTehhjdjuff*UP8ffVpVfffffjPdSIdGiT6jjj7V5S5SS9jIdVffVpVVf",
"SG=SS3idhfffddfdGTiinegaeY3BeYgjj7Dhjjd8hfffffffd5hj3hGd6G=S7PfjA67Rfd7hffffffpV",
"<SjdfoTphhffffffuXYaaabnXmghgjedfhdhhdjIhhhhshAsIdXdjhgnOY3njpffpGj&jj@hfhsfffff",
"SddhhnXGhhhhffffmXX+XX.c XXXX Ydji KgeYwbbbsnhssemhXhnbgX.KgihjdjppYdhXhhhhhffff",
"c......@  X..bbaocn.lNMa.c.csssshaOaNX.+X...OouJbabXcxNx.NbanbnhimaBby#aBbmihijh",
"M.vMWk!kMxMb.NanotcK.NaOxcN.~apsBx.~z.zrv~yMJ>~o.X.O.O>OO..O..JnYagwBg b%BgnnGiS",
".NMxv~>~l^bOaca.cNx.xxoxJc.FwFKo. # .XWO. XXo~s/y.NkvvM.r(yk.KaawbN^e( N)wBgawnh",
"nw..O...  banspGJyc.~xyytxOu_uaaMz.!z W>W NbJn::N.lzzk!oMrNboy~.OXX   XX  .OOOip",
"sALs>sFcoFspuH4p:c.y.ooOO@o.OoFFkX+ M WQl MtFaALq@OXok.xoNcK.cthKgenNgOybYNhuDSp",
"6sssFJc.;~uHAfVpJx@cy~yyxa.sFuuFxX.k  v..O.oopH:b.>t$.~v.~>oL:LcduGae+y+ehehp888",
"~cyxvv.v~>NuusAss..~l.JxccoscFsu.x.xMOvlbOuGAV:VaO~t.J>laoLoFs:AdS3GmXbXnhGdfVV0",
"..........oooousoNOtNc.ccc.FsuhF.MOtv.kQv.bhs6Dpc.aJocKaJooFuKsVdGhiGXhKXm2I78D5",
"6FFuna.ByYenih6Oan.aaB.Obg.ngGa.saOyx.xQvO>aFnssn.Nb KaNgnXnGnagihGpXggm+2mpujdj",
"AV<ApiOenneSdfR<Gs.hngn.hw@abeab~toJx....o@oo@>cc+>B#yNyBX hwhhgGhaa@gpneOmgmgpg",
"V4H<GnXYanGhjV7Shh.FgaGhhL.2YGaesa$tv.Qxvlyl~;La BBaXbKbX1YOmnaGinn.emhahiXipw`a",
"ppAH6T.aanG2pH78jn.nGuanss.G2jhGsuoatOxNW~yKcuuL+byB ag.gnaOXOihiTOFYihghGX$wGih",
"Af7po2OhnhhjdpAHjpOGuIjpOi@pIiuisFOFL....OooOoFoaY.nXK.ajGuGOhT<GowiuhGAgap..OGa",
"VAphTOahhpaHh6V6uSopdphp6OpihpThpfo:FntJ~>cF:FAHign.GgiGpdGp3j2HOhGhGiashhjuOY2j",
"8Hf<juGhAnpipSHVjpjHh6GdEidAh6AiApFHuFssucAniK:hGggG2hjiGhAhhdT6iH=hhGAhhHpGh6iG",
"A7fAh3Gaihjpff6VfdpppAjd7AApfSf8iAiFsuFsFAushpVphhhhjdhdpdhpAdpAAihGj6Ahn3mj6IAu",
"ffffhfhhhhhpffVffffVVffVpfffVpVffffffAsshhhdhffffhhhhfhhhffhffffffhfhpphhfhfdhfh",
"fffffhhphfhhhfpVffffpVffVfpVffffffffffffhhdjffVffffhffpfhffffffffffhhhhhfhfhhfhf",
"hffffhffhfVpfffh9fffffVfVfVfffffffffsAffhffffffffffffhfffhfhfffVfffffffffffhffff",
"fffffffffffhhffffffVfVpfpf9fVpVVffffsffffffffhfffhhfffhfffffffVpffffffhfhfffhfff",
"ffhfffVpVpVpffffffffffhffffffffhffjfVfffffffjfhffffffffffhfhfffhpVffffffffffVffV",
"fhfffVfffVffffhffffffffffffffffffffffhfhffjhfffffhfhhfhfffffffff0ffffVffffVfffff"
};
