/* XPM */
static char *zfkkd[] = {
/* columns rows colors chars-per-pixel */
"80 30 76 1",
"  c #000707",
". c #000B06",
"X c #000D0A",
"o c #001007",
"O c #00120C",
"+ c #001511",
"@ c #001912",
"# c #001D19",
"$ c #002117",
"% c #01221B",
"& c #8BBDB4",
"* c #96B4B2",
"= c #9DBBB9",
"- c #8FC9BD",
"; c #95C7BE",
": c #94C9BF",
"> c #9BC4BE",
", c #A1C4BD",
"< c #95CDC3",
"1 c #9AC7C0",
"2 c #9CCDC4",
"3 c #95D0C4",
"4 c #95D7C9",
"5 c #9BD2C7",
"6 c #9ED3C9",
"7 c #9DDACE",
"8 c #9EE0D2",
"9 c #A4C5C1",
"0 c #A4CCC5",
"q c #A4CFC8",
"w c #ABC6C3",
"e c #ABCCC6",
"r c #ACCECA",
"t c #A2D1C6",
"y c #A4D4CB",
"u c #A3D9CE",
"i c #ABD4CD",
"p c #AAD9CF",
"a c #A6D7D0",
"s c #A6DDD2",
"d c #ADD6D0",
"f c #ABDBD3",
"g c #ACDFD8",
"h c #B2CECC",
"j c #B2D3CE",
"k c #B0D8CF",
"l c #B4D5D2",
"z c #B3DBD5",
"x c #B5DED8",
"c c #B9D6D3",
"v c #BADAD6",
"b c #BBDDD9",
"n c #A4E1D5",
"m c #A6E4D9",
"M c #ABE1D6",
"N c #ADE4D9",
"B c #ADE9DD",
"V c #B3E1D7",
"C c #B3E3DB",
"Z c #B3E9DE",
"A c #BAE3DD",
"S c #B9E9DD",
"D c #B6EBE1",
"F c #BDE6E0",
"G c #BCEAE2",
"H c #C0DBD6",
"J c #C2DEDC",
"K c #C2E1DC",
"L c #C8E1DD",
"P c #C4E5E2",
"I c #C2EBE4",
"U c #C5EEE8",
"Y c #CAEEEA",
"T c #C3F3EB",
"R c #C2FAEF",
"E c #D4F4F1",
/* pixels */
"7884Bn7nsnn78n4n78s7D5gfsfM2MM7snn78s7gsga7s7sB7g78m7s87ssN7afssussfauaMffsfssas",
"7Bnn3fn77sMnn7mnD7n77sC66fuND5ss7m7g8g7sasNNg7<s7gs<DsssM<MsMsusss7tfNf6saasssss",
"C2uCgfpCzyuuf6Du5sgga6fgCs2g2MM7ssssgaaaagg<aB7B5D<BsN2MfffM2ffu7sBs76aDfsssssss",
"fpgfyu0fVgzxCdf5DaagfxygVyCAffaMmm7gg6gaaffsgga6g6gga2ffu6fsfyCsB57sMsa6ssssss87",
"s6sgfgGqqaaqtM5D2gxqxddaiz0yaxAaaddgg2FxxiyGMtZVaCCygGgagCgAgfqgs7NsufRuasssss8s",
"fSu2zy.AAAxagCtsF0.xiA0Jl.xAdgda2TxgdU>dxiqiipVtxfq+1>Fdyx.1xCyf7smsMM&Offssssss",
"l0blbvH hrccb,Yidi#XOXX z..X..#ax1r rlrPllAizz,K0bdXbFaqxzzOf0GqsMf66gA+ffffssss",
"dA.X    X O..Xilb.rb rPwcXrXdvqzivl+rc+ O O.O.@ecdlXevrbiiA.dbyfastAfpbXfldffsss",
"s5#agaxaaFyD6OMszX9br lc.llJ.dlxlcl Lh.HcjjcckVj. O+.Xc.O.+.OX+yaxz0xlrXb0bryA2g",
"nO56yF2xfqfaX6Bu.hPl+cc vlcXldx0+ .%..O,..o.ooVjbhj czl+ddFdzg>GfadAzlb.rJcczdzd",
"sCd+X O ...xdFfdlbrc hvcwcl.dF0Pr9P veOHvj.eUV,Vhbl bcr.va0auaCtXX.+.X  O .. .Xz",
"uyizlblbJ cl0yqx1Jc h  ++O..@.OibK  .j.cvj%,,VkkbvbXr.zXxiyFz2CCfx0dP=JXjJceIpyi",
"sfCCdddr.bdiDCffAxe PhchrbbX02F09bOoco.j...@$opVv*v .bzXidfsfMs6agFqxJ r lcryfaC",
"ss1yxrl+llbay<Na0c X9bXvbrr+gC6Vl@e.jjokLjok>ku,rE.Xrz0@pgg2uNsNs2gCqr bOevAtfC6",
"uOXO OO   OX.%XxF.r#c1F.rva.fxuyiok@L,ockeozzkIp. vOrAz.uuMCn6<sMsg6Fd#eb ddCyC7",
"xpflrlcXccrb0yAu.dbXxJ9+Xda+tpazOek.eL.cckokeV,VlFr.x0x.zuususB7g6aDqXdxrOdC6s6N",
"fMyszdz.llddfsssyxa.lzzz.Ay.zV0zkkVoAco...o....ircz.xyxXdsssssssfyxfIXyzjxXAppfa",
"N3sCfudOlffffsssfdi%1zzaAidOiiI2pkk$,,.chL,LejAjlxdXzp.xdsfsssssdU0qXVxaixd.Id0A",
"sBC2upGXdffffsssxqA.dyFy0uAXztVfp,VoKcoeHcjH,Klkb.l.yzXaffffssssyaz.FyddzfyO.dxa",
"n<MsCOz.fffassssuFyXfGdaGOzO2A2xuNSozVoo....@o.AyaXxAXGfssssssssCp@CyqdgypyGO..u",
"sGfsg2.Afdffssssfu2@y1ug2fXyaax6Z::opkkVjcvV0xVyAxs2MC1gsfsss7ssu.fuaDtuAuCuu@af",
"s5u2SgypfffaassstgguFT6suMuaCD6g5BMVMV,keA,kfqVu6sCa6DsMsasfssssCgMM6C2C2M2ffyMM",
"nsMCuuGffffgssssCuuf62ggugaa6<ggnn6MuukkVpkkafgsMsyfD57assaassss6s2sguZugDf6fMg2",
"snuuug0gffaassssuMsMMuC5MssafN7s88N6MMusuMssga7gss7MasM7ssasssssguDusfuss6ffssuC",
"sssssffffffsafssssssssssssssssss88s8sssssssssss8ss8ss8ssssssassfsssssssss8ssssss",
"ssssfaassafssssssssssssss8sssss8s8s8ssssaass8nss88ssssssssssssssssssss8sssssssss",
"sfssaassfsssfssfsssssssssss8sssssssss8ssansns8s8sss8sssssssssasassssssssss8sssss",
"ssssassssssasssasssssssssssssssss8s8ssssnanssssssssssssssssasssgssssssssssssssss",
"ssafssssssssssssssssssssssaasssssnsssssssssn8gssssssssssssfsfssfssssssnpupssssss",
"sfsssssssssssassssssasaassassassssssssssssnsssssasagfasffsssssassssssspnsspssssp"
};
