/* XPM */
static char *zfpy[] = {
/* columns rows colors chars-per-pixel */
"80 30 75 1",
"  c #000605",
". c #000C05",
"X c #000D09",
"o c #001006",
"O c #00120B",
"+ c #001511",
"@ c #001A13",
"# c #9DB6B3",
"$ c #A2BCB9",
"% c #93C6BD",
"& c #95C8BF",
"* c #9BC4BC",
"= c #A6C4BE",
"- c #94CBC2",
"; c #9CCCC3",
": c #9DCFC8",
"> c #9CD1C6",
", c #9DD4CA",
"< c #9FD8CF",
"1 c #9EDBD0",
"2 c #9EE0D4",
"3 c #A4C7C0",
"4 c #A3CCC4",
"5 c #A3CFC8",
"6 c #ACC6C2",
"7 c #AACBC5",
"8 c #ADCEC9",
"9 c #A4D1C6",
"0 c #A3D4CB",
"q c #A4D9CE",
"w c #ABD4CC",
"e c #ACD9CF",
"r c #A4D7D0",
"t c #A6DDD2",
"y c #ADD6D0",
"u c #AADBD3",
"i c #ADDFD9",
"p c #B0C9C6",
"a c #B2CDC9",
"s c #BBCECD",
"d c #B3D4CE",
"f c #B0D8CF",
"g c #B9D2CE",
"h c #B3D5D1",
"j c #B3DCD4",
"k c #B3DFD8",
"l c #BBD5D2",
"z c #BADBD5",
"x c #BCDED9",
"c c #A6E1D7",
"v c #A6E4D9",
"b c #ABE1D6",
"n c #ADE3DA",
"m c #B3E1D6",
"M c #B3E3DB",
"N c #B4E9DE",
"B c #B8E0D7",
"V c #BBE3DB",
"C c #BBE9DF",
"Z c #B4EBE1",
"A c #BCE7E1",
"S c #BBEAE2",
"D c #BCEFE8",
"F c #BEF0E7",
"G c #C2D5D3",
"H c #C2DAD7",
"J c #C1DED9",
"K c #C9DDDB",
"L c #C4E3DD",
"P c #C8E2DF",
"I c #C5E4E1",
"U c #C2EBE4",
"Y c #C8E7E1",
"T c #CAE9E3",
"R c #CEECEA",
/* pixels */
"uutttrtt>vncnqqtut22221v1nuiuv<vt1viii,ttv1uv1t<i:ui1utrukruuM<<c,tn0,Mttuttttut",
"uuutttttZ><t-Nttut121vv1t<i<u111,Zv-t<ttrr<v<ivuuSi<<1vvriMuiuiirZ>tnurttttttutt",
"uuttttrt,vnqZ9uuuutt22ttiurMu<nrv<:ZriZ<nuZt1-v<:i:tZ11uuiu5:<<itrNn>M>Muuuttttt",
"uuutttttc,qc&miquuttt2tti:A&iu-u-iiu:<iru:ru<DrZZir1c1tc<irSint,qu;,nt9uurttuurt",
"quutttttqnuMqS0Muttttttt:i5kiiZ0S5iuiru:i9iMtuM;r:Zr-nnrM5uu:t,1M;SMuiuuttuttttu",
"uturttttnM%bM50yuyyttttuMAyyh5rr5Z;krZyi0Sry0u5Uk5uuuvtqt5Mui<Zi9Mi95uirtutturtt",
"tutttttt;niwu.Uwyyuutttt5 AyyyikXkyyyy5yyyXjjjd.:Uyrn,uik0k+XZr,OS;iD;rZttttuutu",
"utttttrunqyuyk.VhhyeuutykX + XXyXX+XXXArk5OXhlwj+7iwn0S5XX hyhriX +XXkrrtututttt",
"utututttuOX.OOX@..ooouteoez.djjw x.5fVwwff.z  O X OO.wjdlaXI8h8XhhyyXu5itttrttur",
"tutttutti.ykj7x7ldjeob9m.8hV.zwOhhdOVwmm4@8zOldHaPd7OjdzlHX#XJXjyIxXyiyuttttutut",
"utttutrtojjyhA7IaLfO9eqohjw dd.dz8.h=fwwxo.d 7HlGapP.dz.   X+ 8d 8 yx5iuutttttuu",
"trtrtuuui;..+X  ..fwmeqBBwh LaddzxOwVwdBO.zTX.   XX..dLzl+ spl8zI Rhykirutttutur",
"ttttttuuukIy7gll.zdw9N9e4f.8...O ..ooO9ow.j6.GGGH6zdfldf6 OgPldO HXh88Mqtttttrut",
"ttttttuu:yyhxxl =P7VmeqqBw@dpY88Ld.*Lwfmf@aL.O X O. .jf=.g..7O.3gXahxjqittttttuu",
"ttt1uruuAhyhhl lL=B90ebqwo.Ld.xd=T.dB*Uq9owdO.G gd.VofeVO7Od.8VxX @ XXiqtrtttttt",
"ttttruuuXXXXX X ooooooqeojO7zd dzd.xwffff.zg. s gz.j.fwowz.wjdj.hggxXjutuurttttt",
"tuutt1tt>nj9jh x5S>b0b>Owk wdxXXfmom=meeyOhOsX  .O .of=NeBof8foohly@yyrrurtttttt",
"uuuttt1tnc-iy5+5ic,ntqF;Me.hhyj.m*Oeteeew.L K GXK6.zofVem9omBOlzXxX;yuuZuttttrtt",
"uuutttctt;M;kjXA0tnccu0buy.kywxy=VoeC&emm.zXaXs ppOwoeN=meoB98B=3X8Vk5Z,1ttttttt",
"uurttt2tqtbS5U wqbn-qZ9qui.iM0wkBVob=mmej.Xl=XsXLdOw@99m9eOeB=Ld@yyjri:uttttttut",
"tutttt1cct,eX4OycttctqbNtqON5Zuqo*Omeeqee@wwIXaXdf9VoBN&9CoejVoo*M0ryqZttttutuut",
"uttttttttcquSOwyt<qNt>t>,noqqquqB@emqb&mbo9w4OhjwwBooN&NN&omoo=VCM0Mui,utttttuuu",
"tttttt2tqNu;i5kjbb00qnZtc<uZt,nt=emqeC0q>eCMuyyrC*Nbqqtq>meqbeB9:0S-un%Mtuuttuur",
"urtttqctu,tni;M0qtiqtu>cttrrqucrN*mb0teqtN&brrui0N9nb,ntbt>mqm9mtMqM,un0uurtutut",
"uuttttttttttuuruuttututtrttttttteeuettytttrtirittttttt1tttqbeuuettttttututuuutuu",
"uqtutttttrttuuuuuutttttttt1tttttttebttttc1ttttttttt11tvttttqttttt1ttttttutruutrt",
"uttttrttuttttttttuturutttttttrtttebeuttttttttttt1vvtvt1ttttttutttttttuutuurttttt",
"tttuttuttttutttttttttttttttttttttetttytttttr1t1tttt1ttttttttttttc1tctttttruutttc",
"ttruuttutttttttttutttuttttttttutuuuuuuutrit1rctctttcttt1ttttttttttt1tuuututtt1tt",
"tuttuttttutttrtrttutttutttttttrttuuuuutucrtcctc1ttctttctttttttttt1ttuuutuurttt12"
};
