/* XPM */
static char *zfzlcl_xpm[] = {
/* width height num_colors chars_per_pixel */
"   150    28       16            1",
/* colors */
"` c #1c22a4",
". c #84aedc",
"# c #ace2f4",
"a c #445abc",
"b c #dceef4",
"c c #6482cc",
"d c #bcfefc",
"e c #2c3ab4",
"f c #b4c2e4",
"g c #cce6c4",
"h c #fcfefc",
"i c #7c8eb4",
"j c #5462bc",
"k c #000000",
"l c #000000",
"m c #000000",
/* pixels */
"gdddddddddddddddddddddddddddbdddbdddddddddddddddddddddddddddddddddddddbdddbdddbdddddbddbdddfddddbddddddddbddddddddddddddddddddddddddddddddddbdddbddddd",
"gdddddddddddbdddddbddbdddbdddddddddddddddddddddbddbddddbdddddddddbdddddddddddddddbddddddddffddddddddddddddddddddbdddbddddbddddddddbdddddbddddddddddddd",
"ggdddddddddddddbddddddddddddddddddddddbddbdddddddddddddddddddddddddddddddddddddddddddddddddfdbddddddbddddddbddddddddddddddddbddbddddddddddddddddddbddd",
"ggddbddbddbddddddddddddddddddbdddbddddddddddbdddddddbddddddbddbdddddddddbdddddddddddddbddbdfdddddddddddddddddddddddddddddddddddddddddbdddddddbdddddddd",
"ggdddddddddddddddddddddd.c.ddddddddddddddddddddd#.ddddddddddddddd#cc##ddddddddddddddddddd.ji#dddddddddddbdddddbdddbdddddbdddddddddddddddddbddddddddddd",
"ggddddddddddddddbdddbdd#`e``#ddddddbddddd.acddd#`e`#dddddbdddddddja`a#.fdddbddddb.``cddddaj`edbddddbdddddd#cc#dddddddddddddddddddddddddddddddddddbdddd",
"ggdddddddddddbddddddddd#`.hjad.c#ddddddbdeaee#d.`haaaa#ddddddddd#`.b````afdddbdddaaf`ddddeah`dddddddd#.fdd#`a`.ddddddbdddddddddddd#cec#ddddddddddddddd",
"ggddbddbddbddddddddd.c#d.`cj```a`cddddddd`..```eab`ejj`dddd.``e..`hcc.bba`dddddddc`h`##ddaeh`dddbddd#`e`#d#`bcaddddddddddd..e``````e.e`.dddbddbdddddbd",
"ggdddddddddddddbdddf`e```eacfffhf`jddddd.`fccf.`.bffcj`bdddcef.``.`e``..`eddddddd#`h``````ef`ddddddd#`hccdd`fcjddddddd#a```e`cf.b..cfhjjdddddddddddddd",
"ggdddddddddddddddddjebf..cae```fh.ebdddd`cfae``a.e``ea#ddddf``.`ea`fc`e`fbdddbd````f`.cebeef`ddddddd.ehecdd`fecddbddd.`acfhfefc`cf``ehecdbdddddddbdddd",
"ggddddddddddddddddd`ff````````aa``.ddbdaefefa``f`ab`#dddddbddc``e``fa``c#dddddd`f.`fec``aaef`ddddbddecf```a`fec#ddddd.`jaba``cc`cc``eb`#dddddddddddddd",
"ggddbddbddbddbdddbd`he``ea.bbe`j#ddddd#`c``ef`e`e`e`#dddddd.j`ec``cfef.e`ea.dddc`.`f``````ef`bddddd#`h`cbb``fee``.dbdd#c`.ceaccafffacf`dddddbddbdddddd",
"ggddddddddddddddddd`e``bfc`abacddddddd#``c`c``e.e.f`####dd``eff``jf```chb.a``aae```b.f`ab`ef`jjc#ddajccefb``fe.b.`.dddd#`cc``e.`ec``fcaddddddddddddddd",
"gddddddddddddddddddfj.a````fee###dddddddda`ha.d#aeh`````.d`bhc``aa`afa``.ffc``acffhfe```a`efeacj`.f`fe``fca`fe`ab.`dddc`eb.b``f`ec``be.ddbdddddddddbdd",
"gddddddddddddddbddddddd#j`ce````e`e#dbdd.`ff````eacfbhhcadj`e`cbff.cfhej```aj`cj``b.```ejibjffffecej`a`eb`#`fece`jedddea.```a`hfhffcf`#ddddddddddddddd",
"gddbddbddbddbdddd#ce````eeb`ffhhhbjedddf`..`.fbffc.ee```cddf.aj.`ae`eh`#ddddd.ja`fc.e`f.aeef```ejc`.`cf.ced`fecd.c#bdd#j`ceae`e`ec``ejdddddddbddbddddd",
"gddddddddddddddddeec.fbhf.cfe```ee`jdd.`jffe`e````h`f#dddddddcef`af`eh`ddddbddd`cf`ff.``aaef`ddddce`c`c`e`#`fecddddddddd`ce`ce``ejee`#ddddbddddddddddd",
"gddddddddddddddddc`cce`````bec##f.#dd.`.f`feeabec`h`#dddddbdd.ef`ef``h`dddddd#eeb`ef`aaggaef`dddd#.f.`f`fc``fe.dddddd#.a`e.f``ffff.c`ddddddddddddddbdd",
"gddddddddddddddddd.jacfddd`facddddddc`.c``fe.`cca`h`#ddddddddce.`cf``h`ddddddeefeeef`.gggjef`ddbddd.`.j``ff`.`#dddddd`ejfba`c```ec`ecddddddddddddddddd",
"gddbddbddbddbddbddbddbdddd`fcjddbdddje`e#`fe.f`h.`h`#ddbddddd.ec`.c``.`ddbddae.`ccefedgggaef`ddddd.`.c`#.`cbc``jfdddd`fhf`a##.j`ec`````a#ddbddbddbdddd",
"gdddddddddddddddddddddd.aa`hjcdddddd#c.dd`b`#d#ae`h`#dddddddd#`e`b`j``adddddj``.daj.edgggief`ddddj`.a`fdd.`abb.a```e#c`e`.```eeefh.ffhba`ddddddddddddd",
"gddddddddddddddddddddddeaaahe.dddddddddd#`h`dd.`cch`ddddddbdddc`.c`ebf`cdddddddddacceggggiefedddd`a`e#dddddeefhhhbf`cd#.#d`fffcceeee`eee`ddddddddddddd",
"gddddddddddddddddddddddc`.hb`#dddddddddd#`.`dd#`ebb`ddddddddd.`jf`.eebf`#dddddddd.ecaggggieieddddca.ddddddddc`acce``.dddddc```ejc..##..#dddddddddddddd",
"gddbddbddbddbddbddbddbdd.`fcedbddbddbddbdcecbdd#`ccedbddbddde`.c`.d#aefjcdbddbddb#``fggggi`cjddbddbddbddbddbd#cjc.#dbddbddbddbddbddbddbddbddbddbddbddd",
"gddddddddddddddddddddddddch`#ddddddddddddddddddd.`e.dddddddd`j`efddddc``.ddddddddddddggggg``.ddddddddddddddddddddddddddddddddddddddddddddddddddddddddd",
"gddddddddddddddddddddddddddddddddddddddddddddddddddddddddddd.c.ddddddd##ddddddddddddggggggfidddddddddddddddddddddddddddddddddddddddddddddddddddddddddd",
"gdddddddddddddddddddddddddddddddddddddddddddddddddddddddddddddddddddddddddddddddddddggggggggdddddddddddddddddddddddddddddddddddddddddddddddddddddddddd",
"gdddddddddddddddddddddddddddddddddddddddddddddddddddddddddddddddddddddddddddddddddddggggggggdddddddddddddddddddddddddddddddddddddddddddddddddddddddddd"
};
