/* XPM */
static char *zhanghp_xpm[] = {
/* width height num_colors chars_per_pixel */
"   150    28       16            1",
/* colors */
"` c #040204",
". c #447a8c",
"# c #6cbadc",
"a c #243a44",
"b c #7cd2fc",
"c c #64aacc",
"d c #74c6ec",
"e c #2c5264",
"f c #14262c",
"g c #5492ac",
"h c #3c667c",
"i c #84defc",
"j c #74cafc",
"k c #000000",
"l c #000000",
"m c #000000",
/* pixels */
"biiijjjiiiijdbiiiiddddiiiijjddbiiiiijjjjiiiiiiibjjjddbiiiiiiiiiiiiiiiiiijibiiibiiiiiiiiiiiiibiibiibjdjjjjddjjjbiiiiiiiiibjjjjdjiiiiiiijjjjjiiiiijjjjji",
"biibjdbiiiijjjiiibbjjiiiiibddjjiiiibbdjddbiiiiibbdjjjjjbiiiiiiiibbbjjj#jjjjjjdddjjjbbbbjbjbjjdddjddjjdjddjjjbiiiiiiiiiibbdjjdjjiiiiiijdjdbiiiiijjjdbii",
"iiibdjiiibjjjiiiiijddiiiijjjddiiiiibjjdjiiiiiiijjjjjddiiiiiiiiibbbbjjjjdjdjdjjjjjjjjjjdjjjjjjjjjdjdjjjjdjjjiiiiiiiiiibbbjjjdjiiiiiibjjjjbiiiiiijjdbiii",
"iiijjbiiibddbiiiibddbiiiibjdjjiiiiijjddjiiiiiiibjdjjjjiiiiiiiiiibbbbdjddjj##djjddjdjddjjdjjddddddjjjdjdjjibbiiiiiiiibbbjjjdjbiiiiibjjjdjbiiiiijjdbiiii",
"iijjdbiijjjjbiiijjddiiiiijjjjiiiiiijjdjjiiiiiiibjjjdjbiiiiiiiiiibbbbbjjjjdjjjjdjjdjjdjdjjdjjjjjjjddjbjjbiiiiiiiiiiibbddjjdbbiiiiiibjjdjbiiiibjjdbiiiib",
"iijdjiiiijjdjiiibjjjiiiibjjdjiiiiibjjjjjiiiiiibbjddjjbbiiiiiiiiibbbbjjjddjddddjjdjjdjjjjjjjdjjdjjdjjdbbbiiiiiiiiiibieacbddbiiiiiibddjjbiiiiibddjjiiibb",
"ijdjbiiibddbiiibbddbiiiijdj.fa#iiijdjdjiiiiiiibjjjjjj#.e#iiiiiiibbbbjjjjj#ccdjjdjjjdjjdbg`fjjjjjjjc.h.biiiiiiiiiibbia`hjbbiiiiiibjjjdiiiiibjjjdiiiiibd",
"ibjjiiiiddjbiiibjddiiiiijjjh``giiijjjjjiiiiiiibdjdddbi.`aiiiiiiiicc#djj#cde`.bg.dj#djjjbc`fjjhaaf`faa`adiiiiiiiibbb.`adjc#biiiibjjddbiiiiibddjbiiiibjd",
"bjdbiiibjjbiiiijdjjiiiibjdbf`.iiibjjjjiiiiiiibbjccg#bi.`hiiiiiiiig``h.a``.h`.be`eddjdjdbc`fbbg`ac#c#.`a#iiiiiiiid..``aef`f#iiibbjddbiiiiibjjjbiiiijjdd",
"ddbiiibjddiiiibdjjiiiiibjjg`hdib##dddbiiiiiic.af```.bi.`hiiiiiiiib.`acga`c.`.g``gdjdjjjj#afdh#a```a.e`ciiiiiiiibde`ehgc.ff#iijbddjjbiiiibbjddiiiiijdjj",
"jdbiiibddbiiiijjjjiiiibjjdff..ef`f.bbbiiiiiic.hh.g#bbbe`giiiiiibbbbjjjbaa#.faff#jjjjjjjbca`.`fefgjc.ffiiiiiiiibbdh`#a`cdffiiijjjdbiiiiiijjddiiiiijjdbi",
"jdiiibddjiiiijjdjiiiiiic````fh.hf`f#bbiiiiiibbdjdjjbi#a`aeah#iibbbbb#gh`aj.``hjjjjjjddjb#a``a#cf`faffgiiiiiibbbbdh`#.`.dffc.hcdjddiiiiibddjjiiiibjjjii",
"iiiiibjjbiiiijdjiiiiibbcf`iiiiide`hiiiiiiiiibjcghh.f```f.h``hdiie`hi#`fgdihf.c.hhgdjjdaeda`#jbi.gi#ghgiiiiiiibjdcffh.haf``````.jiiiiiijjjddiiiiidjdiii",
"iiiibjddiiiijdjbiiiiddb#e`id.h.b.`hiiiiii.faf```fehgic`eidf`ciiigffgdfhdg.a````aagcdjde`eefbbbgaf```egiiiiiih`````fef.#.faibjjdjbiiiiibdjjiiiiijjjbiii",
"iiiijdbiiiibjjjiiiiibjb#e`f`fagi.`hiiiiiijge.ge`f#jiih`.i#``dibbi.agefeheha`fgjjjjddji.`afebbbccgffgiiiiiiiibccjg`.cff#dfaibjdjiiiiiijjjdiiiiiijdjbiii",
"iiibjjjiiiijjdbiiiibjjj#e`ciibjih`hiiiiiiibbjg`fchcidaf#i#`f#bbbbb#h`ae``c.fffcjddjdjj#ghfejdb#cgf`ff```fcbbbdbcff#i.fee`aijjjjiiiiiijdjbiiiiijjdbiiib",
"iibjdbiiibjjdbiiiijjddb#e`iiiddi.`hiiiiibbbjcff#df`#g`eii.`ejbbddig`.jjfajhaga`gjjjdjjjbg`hcf``faf`ecgggg#bbbbcff#jiii#a`eijjdiiiiiijjdjbiiiibjdjbiiib",
"iijjjiiiibjjjbiiiidjjjide`ha``a#.`hiiiibbbb#e`aeaf`ef`gidh`hdbbjbcff#j#`ajeabg``ecjjjdjjh``a.gdiih`giiiiiibji.`edbdcc..a```.dbiiiiiibjjjiiiiiddjjiiibd",
"bjjdbiiibjjdbiiiibjddiide`h.g#ji.`hiiiibbbca```ecb.f`hii#a`gbddji.`aijc`.iaaddh```agjjjcff.`fdiiih`giiiiibbjjdh``af`ee`eca`fbbiiiibjjjdiiiiibjjjbiiibj",
"jjdbiiiijddbiiiibddjjii#f`bddddi.`aiiibbdjj.fgiiiicffgjic``djbjig``.#ge`gda`fag.fafecbde`cd.hjiiih`giiiiibbddjcffb.`ccfhie`gjbiiiiijdjjiiiiijjdbiiibjd",
"jjjiiiibddbbiiibjjjjiiicf`cc.hh#.`hiijjjjddjjbiiidffdg`ff`ajjjji.`ad#e``ccf`acbjdjj#dih`hijbbbiiih`giiiibbbjjj#e`ig`#.fgdffibiiiibbbjdbiiiibddbbiiibdj",
"jdbiiidjjjiiiibjjddiiiicf```ffef``hibjjdjjjjbiiicff#ii.``f#ddddj#..bddf.bh`acbjjjjjjjgfhijjjbbiiih`giiiibbbjjjjg`cg`.efea`ff``ediiddjjbiiiibjjbiiibjjj",
"dbiiibjddiiiiijjdjiiiii#aadjjiig``.ibjjjdjbbiib.fhdiiicafgjjjjjjjjjjjdjjbd.gijjdjjdddccjdddbbbiiih`ciiiibigaff```aafhhh.cg.hhea#iijjjbiiiibjddbiiibjdd",
"biiibjjjiiiiibjdbiiiiiidggjbiiicffdbjjddbbbiiid.biibbbbjdjjjjjddddjdjjjjjjddjbbbjjjjjjjjjjjjbbiii.a#iiiibbbc.gcbiiiiiiibjjjbiiiiibjjdbiiiiddjjbiiijdji",
"iiiijdjiiiiibjdjbiiiiijjjjbiiiib##bjdjjbbiiiiiiiiibbbbjjjjdjdjjjjjjjjbbbbbbbbjdjdjjddjddjjdjbbbbiddiiiiibbjjjjdbiiiiiibddjjbiiiiibddbbiiibjjjiiiijjjji",
"iiijdjjiiiibjdjbiiiiiddddbiiiiiiibjjjjdjiiiiiiiiibbbddjjjjjjjjddbbbbbbbbbbbbbbbjjbjjjjjjjjjjbbbiiiiiiiiibbbddjjbiiiiiibjjjdbiiiiijjjbiiiibjddiiiibdjji",
"iibjjbiiiibjdjbiiiiibjjjbiiiiiiibjjjdjbiiiiiiiibbbjjjjjdddjjdjbbbbbbbbbbbbbbbbbbbdjjddjjjdjjbbbiiiiiiiiibddjjjjbiiiiiiddjjbbiiiiddjjbiiiibddbiiiijjbii",
"ibjdbiiiibjjjbiiiiibjjdbiiiiibbbjjdbbbiiiiiiiibbbbjddjjjjjjbbbbbbbbbiiiiiibbbbbbbbjjjjddjjjdjbbiiiiiiiiibbjddjjbiiiiiibjjdbiiiiibjjdbiiibjjjiiiibjdbii"
};
