/* XPM */
static char *zhyh[] = {
/* columns rows colors chars-per-pixel */
"130 30 75 1",
"  c #000607",
". c #000C06",
"X c #000D09",
"o c #001007",
"O c #00130C",
"+ c #001612",
"@ c #001A13",
"# c #002019",
"$ c #002F24",
"% c #8BBEB5",
"& c #95C3BB",
"* c #95C8BF",
"= c #9CC4BD",
"- c #99CBBF",
"; c #A8C3BE",
": c #95CDC3",
"> c #9DC7C0",
", c #9CCDC4",
"< c #9CD1C7",
"1 c #9DD4CA",
"2 c #9DD9CE",
"3 c #9EDCD1",
"4 c #A4C6C2",
"5 c #A2CCC6",
"6 c #A5CEC9",
"7 c #A8C6C4",
"8 c #AACCC5",
"9 c #ABCECA",
"0 c #A4D2C7",
"q c #A4D4CB",
"w c #A4D9CE",
"e c #ABD4CD",
"r c #ABD9CF",
"t c #A6D7D0",
"y c #A7DCD2",
"u c #ACD6D0",
"i c #AADBD2",
"p c #ADDFD8",
"a c #B4C6C6",
"s c #B2CFCC",
"d c #BBCFCE",
"f c #B2D3CD",
"g c #B0D8CF",
"h c #BBD2CF",
"j c #B3D6D1",
"k c #B3DBD5",
"l c #B4DED8",
"z c #BAD4D1",
"x c #BADAD5",
"c c #BBDDD9",
"v c #A5E1D6",
"b c #A6E3D9",
"n c #ABE1D6",
"m c #ADE3D9",
"M c #ADE9DF",
"N c #B2E1D6",
"B c #B4E3DB",
"V c #B3E8DE",
"C c #BAE3DC",
"Z c #B7E6E0",
"A c #B6EBE2",
"S c #BDE6E1",
"D c #BBEAE2",
"F c #BCF1E7",
"G c #BEF1E8",
"H c #C2DFDA",
"J c #C5E6DF",
"K c #C4E6E3",
"L c #C1EBE4",
"P c #C5EFE8",
"I c #C9E6E1",
"U c #CAEDE9",
"Y c #C1F0E6",
"T c #C4F5EC",
"R c #C7F6F0",
/* pixels */
"yyyyyyyyyyyyyyyyyyyyyyyyyyyyyyyypy33ymttybytpk13y1Mt6Ztv2bb2y3ptp<tywvy2nyqmyn<yyyyyyy33b33bvwm<yyvwvwvwyyyyyyyyyyyyyyyyyyyyyyyyyy",
"yyyyyyyyyyyyyyyyyyyyyyyyyyyyyyyy1mb3m1pp23ppktpp3bMtZ&Ztm31bM1ptyAm312nnymm11tAyyyyyyyv332bv<2vVyywvwvwvyyyyyyyyyyyyyyyyyyyyyyyyyy",
"yyyyyyyyyyyyyyyyyyyyyyyyyyyyyyyyBt:M<pS6p22tu6A3b3yvtR,p21Ay:pip1y<yAwtyy1,Vmqyqyyyyyy33vw2vnmy1yy3wvwyyyyyyyyyyyyyyyyyyyyyyyyyyyy",
"yyyyyyyyyyyyyyyyyyyyyyyyyyyyyyyy1ZympB6ppbbpCky12Mpt666tZm1ppt6tMy3yntynyVVqttiyiiiyyyyvwwnnmytqyvyvwvyyyyyyyyyyyyyyyyyyyyyyyyyyyy",
"yyyyyyyyyyyyyyyyyyyyyyyyyyyyyyyyl0m:tuek13t69k,App1ppZlu,tBqpl8St1At:mBt,tyttV,DiiiiyyyyynwwqqBVyyyyyyyyyyyyyyyyyyyyyyyyyyyyyyyyyy",
"yyyyyyyyyyyyyyyyyyyyyyyyyyyyyyyykipmycjcpMptcc6yM1,pttuZBiiul8xzl1ypymyqVtVqViw5iiiiiyyynwiA0Be5yyyyyyyyyyyyyyyyyyyyyyyyyyyyyyyyyy",
"yyyyyyyyyyyyyyyyyyyyyyyyyyyyyyyu9Cqyl4xjt1ikc=P1<mpp9+u6qP,5Hsx.,Fttm1iioiqN.qDuiukiuiyiwBo0D5C.yyyyyyyyyyyyyyyyyyyyyyyyyyyyyyyyyy",
"yyyyyyyyyyyyyyyyyyyyyyyyyyyyyyyux OoOOfX+X+ XXtpp2tZu kkc +XX  .+<ytp1DqoBl,OekXuukiuiiiiuol6C5Xuyyyyyyyyyyyyyyyyyyyyyyyyyyyyyyyyy",
"yyyyyyyyyyyyyyyyyyyyyyyyyyyyyyyuf.Nrfos.iN0kf.N0m1Bex.xgN.gzzsd uiqyVqNyXC,kOl6xX.eelqiuilXulj9Xeyeiptiqyyyyyy3vyyyyyyyyyyyyyyyyyy",
"yyyyyyyyyyyyyyyyyyyyyyyyyyyyyyyif.k0offorrCgz.NVp1ekg.f.f.o. . .ltD,quqouDkeXuCCkXYkyulqqX=S9jU 0DqVqyyNyyyyyyyyyyyyyyyyyyyyyyyyyy",
"yyyyyyyyyyyyyyyyyyyyyyyyyyyyyyyiso0g#fh.i0r0for0yVq.goC.g@9Hfza.l1y:Dploe65KX9x>C=qB5B6Bi+k6ce9.D,BXyBtqyyyyvyyvyyyyyyyyyyyyyyyyyy",
"yyyyyyyyyyyyyyyyyyyyyyyyyyyyyyyix.g@;fh.o$oo..rr,Vr.g.off.ffHhdokqqT,qXXBO+.XX XX#+XNykqe.k6xxC elXOqlmtyyyyyy3yyyyyyyyyyyyyyyyyyy",
"yyyyyyyyyyyyyyyyyyyyyyyyyyyyyyyis.=N@fhoC-N0xogiD-NOf.xxf@...o. kNiqqXSX6uuc c xlqu5uZ>iOXxuc6x u.uuuy1iyyyyyy3yyyyyyyyyyyyyyyyyyy",
"yyyyyyyyyyyyyyyyyyyyyyyyyyyyyyyufoJ0fo;.0rVNso000Nogg@fezfeCs;HJ6yqu+k>XuccjXC juililqiOuO5lxc4+X0BBuBBqyyyyyyyyyyyyyyyyyyyyyyyyyy",
"yyyyyyyyyyyyyyyyyyyyyyyyyyyyyyyix.0gg.doNw0ggoNNqCggJ.xf.ooo.o..Xlyi,qPXuj9x+7+ecl5eyNoq,OL9cej lui0qp,Niiyyyyyyyyyyyyyyyyyyyyyyyy",
"yyyyyyyyyyyyyyyyyyyyyyyyyyyyyyyix.ggf.JoeN0Cfoi0rrrg8@8xgf9x.hhxkqullku uxkj c xiupiZ,ilCXeejxO euiulqpmyyyyyyyyyyyyyyyyyyyyyyyyyy",
"yyyyyyyyyyyyyyyyyyyyyyyyyyyyyyyux.8o9ox.oo..oo8N0BeCl.kjxexx zzsuik0lux kuc9 c 9tpukB>SuuXjjc s jluyl,Dqyyyyvwvwyyyyyyyyyyyyyyyyyy",
"yyyyyyyyyyyyyyyyyyyyyyyyyyyyyyyie@f9Of;ox8xxx.x8Byi,.lOuXX  X XXX@ule>lOC4jO8zXxluiquikkxXu  xK.luqli+,pyyyywvwvyyyyyyyyyyyyyyyyyy",
"yyyyyyyyyyyyyyyyyyyyyyyyyyyyyyyi9ogxfxfoxffg;ogC5yyBOe6Ouck9+x9juiuqCkeX9CkXscXjupuOeBu6e C4xj7+6kBey.mqyyyyvwvwyyyyyyyyyyyyyyyyyy",
"yyyyyyyyyyyyyyyyyyyyyyyyyyyyyyyiN.geN0gogN;NgoggNNN.lZ5+6lkl 9UeBqly*ZeOkk eC4Oku6lXkueklO4Ck5k.Z0yuloy1yyyywvwvyyyyyyyyyyyyyyyyyy",
"yyyyyyyyyyyyyyyyyyyyyyyyyyyyyyyyr@kgkX  oO.ooOOotpuXBuyueuue@0uuqyAtNyqXkXeL9xOeuZqX,pp6l.BC0DC.uulyioDVyyyyy3vwyyyyyyyyyyyyyyyyyy",
"yyyyyyyyyyyyyyyyyyyyyyyyyyyyyyyyi.-reqBur0rrC&gVZ,oBiyByNilioC&Bpi%BNqyOoBi5ieqXXXoXlu>SC.N,Nq0BXoO.@o,tyyyyyywvyyyyyyyyyyyyyyyyyy",
"yyyyyyyyyyyyyyyyyyyyyyyyyyyyyyyi0NCilNttrrNr0Y-iqqDqqtqq,ytywqVyqFmtqG,iqiyquDlqBNqN,Zq1,VymytnwAuyy<iNnuyyyyyv3yyyyyyyyyyyyyyyyyy",
"yyyyyyyyyyyyyyyyyyyyyyyyyyyyyyyyN<nqqqpirV-rNrrryyqytBpypmytV1ywm:yntqyyytytZqiiyqBuiqBpyyyqn2M2qiymN,Bqyyyyyyyyyyyyyyyyyyyyyyyyyy",
"yyyyyyyyyyyyyyyyyyyyyyyyyyyyyyyypyyyyyutiiytiypyyyyyyyuyyyyvyywytyyyyyyyyyyytyyyuiiyiiyyiyyyy3vwyyyyyyuyyyyyyyyyyyyyyyyyyyyyyyyyyy",
"yyyyyyyyyyyyyyyyyyyyyyyyyyyyyyyyttyyyyyytyyptyyyyyyyyyyyyyyyyyvwyyyyyyyyyyyyyyyyyyiiiyyyyyyyyv2vyyyyyyyyyyyyyyyyyyyyyyyyyyyyyyyyyy",
"yyyyyyyyyyyyyyyyyyyyyyyyyyyyyyyypyvtyyyyyyyyyyyyyyyyyyyyyyyyyvwvvyyyyyyyyyyyyyyyiiyyuyiyyyyyvyv3yyyyyyyyyyyyyyyyyyyyyyyyyyyyyyyyyy",
"yyyyyyyyyyyyyyyyyyyyyyyyyyyyyyyyptttyyyyyyyyyyyyyyyyyyyyvyyyvwvwy3yyyyyyyyyyyyyyyiyyyyyyyyyyv3yyyyyyyyyyyyyyyyyyyyyyyyyyyyyyyyyyyy",
"yyyyyyyyyyyyyyyyyyyyyyyyyyyyyyyybtttyyyyypyyyyyyyyyyyyyyyyyyyyyyyyyyyyyyyyyyyyyyyyyyyyyyyyyy3yyvyyyyyyyyyyyyyyyyyyyyyyyyyyyyyyyyyy",
"yyyyyyyyyyyyyyyyyyyyyyyyyyyyyyyyyyvvbyyyyyypyyyyyyyyyyyyyyyyyyyyyyyyyyyyyyyyyyyyyiiyyyyyyyyyyyy3yyyyyyyyyyyyyyyyyyyyyyyyyyyyyyyyyy"
};
