/* XPM */
static char *zhyj_xpm[] = {
/* width height num_colors chars_per_pixel */
"    70    30       16            1",
/* colors */
"` c #944674",
". c #b48e54",
"# c #c4b244",
"a c #ac765c",
"b c #ccc63c",
"c c #9c5a6c",
"d c #bcaa44",
"e c #b49a4c",
"f c #c4be3c",
"g c #b48654",
"h c #a46264",
"i c #ccce34",
"j c #000000",
"k c #000000",
"l c #000000",
"m c #000000",
/* pixels */
"iibibiiiiiiiibiiibibibibiiiiiiiiiibibiiiiiiibibiiibiiibiiibiibiibiibii",
"iiiiibibibibiiibiiiiiiiiibibibibiiiiibibibiiiiiibiiibiiibiiibiiiiibiii",
"ibibiiiiiiiiiibiiibibibibiiiiiiiibibiiiiiiiibibiiibiiibiiibiiibibiiibi",
"iiiiibibibibiiiibiiiiiiiiibibibiiiiibibiibiiiiibiiiibiiibiiibiiiibiiii",
"iibibiiiiiiibibiiiibibibibiiiiiibibiiiibiiibibiiiibiiibiiibiiiibiiibii",
"iiiiiibiibiiiiiibiiiiiiiiiibibiiiiiibiiiibiiiiibibiibiiibiiibiiibiiiib",
"bibibiibiiiibibiibiibibibibiiiibibibiiibiibiibiiiiiiiibiiibiiibiiiibii",
"iiiiiiiiiiiiiiiiiiibiiiiiiiibiiiiiiiibiiiiiibiibibibibiibiiibiiibibiii",
"iibb#bi.f#fiii#fibiiihgbidbiii#ebiibgfbibibiiibg#iiiiibacfbiiibiiiiibi",
"iiid`ga`ahhggg`hiiibihhii`chhcc`fibi`agggggggga`gibiiib``ed.`#iibiiiii",
"ibid`iacihgbib`gibiiihgfb`dibighbiii`diaaggg`.d`diibiba`eddc`.biiibibi",
"iiid`bc.ihgiii`gbiiiihgcc`aggghhiibi`dbhgiid`dd`dbiiid`.bid`#id#biiiii",
"iibd`fciihgibi`giiifhhc`#`diiighibii`dihhgga`#d`diibf``aggchggc`fiibii",
"iiid`#cbbhhggg`giiighhcdi`aggghhiiib`ddaeddda.#`dbi#cg`dii`dibhhibiiib",
"ibid`bahihgiii`gbi#`ghgii`diiiddibii`dgcde.dccd`diiedi`.dd`.ddchiiibii",
"iiid`ib`ehgibi`giibdbhgiegggggg`eibi`dghig`fhhd`dibiib`.dd`.ddchbibiii",
"ibid`bicghaddd`gibiiihgi#fid`bibiiii`dghbhhihhd`diibib`dib`diihhiiiibi",
"iiid`hh`.haddd`giiibi``eiibd`iiehfii`dghb`g#had`diiiid`agg`aggchibiiii",
"iibd`bheihgiii`gibii#`g`hgga`ggggdii`diia`dcc.d`dibii.`bii`dibhhiiiibi",
"ibid`iiibhgbib`giiibahic.iid`bibibib`d#hc#bba`.`dbiiihhibi`dbihhbibiii",
"iiid`ifddcaddd`c`#if`#iiiiid`iiiiiii`acadddddha`diibe`#iii`ddbhhiiiiii",
"ibid`bbg.dddddddd#bc.ibibibd`bbibibi`.dddddddd.`dbidc#bibi`dg``abibibi",
"iiibfiiiiiiiiiiiiifeiiiiiiif.biiiiiigbiiiiiiiifeiiigfiiiii#iif.biiiiii",
"ibibibibibibibibibibibibibibibibibibibibibibibibibibibibibibibibibibii",
"iiiiiiiiiiiiiiiiiiiiiiiiiiiiiiiiiiiiiiiiiiiiiiiiiiiiiiiiiiiiiiiiiiiiii",
"ibibibibibibibibibibibibibibibibibibibibibibibibibibibibibibibibibibib",
"iiiiiiiiiiiiiiiiiiiiiiiiiiiiiiiiiiiiiiiiiiiiiiiiiiiiiiiiiiiiiiiiiiiiii",
"ibibibibibibibibibibibibibibibibibibibibibibibibibibibibibibibibibibii",
"iiiiiiiiiiiiiiiiiiiiiiiiiiiiiiiiiiiiiiiiiiiiiiiiiiiiiiiiiiiiiiiiiiiiii",
"iiiiiiiiiiiiiiiiiiiiiiiiiiiiiiiiiiiiiiiiiiiiiiiiiiiiiiiiiiiiiiiiiiiiii"
};
