/* XPM */
static char *zhzlcl_xpm[] = {
/* width height num_colors chars_per_pixel */
"   150    28       16            1",
/* colors */
"` c #1c2aac",
". c #949edc",
"# c #c4e6bc",
"a c #5462bc",
"b c #dceef4",
"c c #a4bee4",
"d c #bcfefc",
"e c #7482cc",
"f c #3446b4",
"g c #fcfefc",
"h c #c4ceec",
"i c #ace2f4",
"j c #7c8eb4",
"k c #000000",
"l c #000000",
"m c #000000",
/* pixels */
"#ddddbddddbdddbdddddddddddddddddddbddddddddddbddbddddddddddddddddddddddddddddddddddbdddddddcbdddddddddddbddddddddddddddddddddbdddddbdddddddbdddbdddddd",
"#ddddddddddddddddddddddbddddddbddddddddddddddddddddbddddddddbdddddbddddbdddbddddddddddbddd##dddbdddbddddddddddddddddbddbddddddddbddddddddddddddddddddd",
"##ddddddbdddddddbdddbddddddbddddddddddbddddddddddddddddddbddddddddddddddddddddddbddddddddbdcddddddddddddddddddddbdddddddddbddddddddddbdddbddddddddbddd",
"##ddbdddddddbddddddddddddddddddddddbdddddbddddddddddddbddddddddddddddddddddddddddddddddddddcdbddddddddddddbddddddddddddddddddddddddddddddddddbdddddddd",
"##dddddddddddddddddddddddddddddddddddddddddddddddddddddddddbdddddheeidddddbdddbdddddbddddcajidddddbddddddddddbddddbddbdddddddddddddddddddddddddddddddd",
"##dddddddbdddddddbdddddbdddddddddddddddd```cddbddheaeidddddddddddaa`fh.cddddddddd.``eddddfa`fddddddddddbddieecddddddddddddddddddddddddbdddbdddddbddddd",
"##dddddddddddbdddddddb.``.dddbddbddddddb`befh`````fe``cdddddddbdb`.b````fcdddddddaac`ddddfag`ddbdddddi.cddi`a`.dddddddddddddbdbdbdhafaiddddddddddddbdd",
"##ddbddbddddddddddc````.e`chdca`fcbddddd`cc`aab...eag.`dbdd.```..`gee.bbf`dbddddde`g`hidbafg`dddddddh```idi`beaddddddddddbccf``````f.f`cdddddbdddddddd",
"##ddddddddddddddbd.faccbb`````fca`cddddd`ee`ffg`````ga`ddddefc.``.````..`fddddddbc`g```````c`ddddbddc`geedd`ceadddbdddha```f`ec.b.cecgaaddbddddddddddd",
"##dddddddddbddddddc`g``b``aec.ecg`.ddbddfee`f`hc..`fb`iddddc``.`fa`ca`f`cdddddb````h`.afb``c`ddddddd.`gfebd`cfedddddd.`aehgcfce`ec``fgfeddddddddbddddd",
"##ddddddddddddbdddd`g`affafg```eb`idddddfee`g`aa``ff.fddbdddbe`````hf``ehdddddd`c.`cfe``fafc`dbdddddfah```a`cfahddddd.`aabf``ee`ee``fb`idddddddddddbdd",
"##dbddbddbddddddddd`g`a`e.`g```ec`bddifffefcf```cce``.dddddca``e``acfc.```acbdde`.`c``````fc`ddddddi`g`ebb``c````.ddbdce`.efaaeahccfec`ddddbddbddddddd",
"##dddddddddddddddbd`g``c`c`cccfec`dddc`a`ea`ac`````f`edddd``fcc``ac```egb.f``af````b.c`ab`fc`aaecdbaaeefcb``cf.b.`.ddddi`ee``f.`fe``cefddddddddddddddd",
"#dddddddddddddddddd`g`fg`.`g```ec`dddc`g`eead`f.hcc.`eddbd`bge``fa`fca``.cce``feccgc````f``cffea`.c`h```hef`cf`ab.`ddde``b.b``c`fe``b`.dbddddddddddddd",
"#dddddddddddddbdddd`g`agfe`g`f`ee`dddi`hfeaab``f`g`````fcda```ebcc.ecg`a```fa`aa``b.```fa.bacccc`e`a`a`fb`i`cfef`a`dddff.```f`gcgccec`iddddddddddddbdd",
"#ddbddbddbddbdddddd`g``f`.`beefeefddbda``cff````f..ccbbafddccfa.`f``fg`idbdddcaa`ca.``h.affc````aa`.`ac.efb`cfed.eiddbia`efa``f`fe```addddbddbddbddddd",
"#ddddddddddddddddbd`g`icic`ca``eefddddi.`h``chbc.eeffff`addddefc`ac`fg`dddddddb`ac`cc.``fffc`bddda``e`a`f`c`cfeddbdddddd`ef`e```faff`idddddddddddddddd",
"#dddddddddddddddddd`g`dddc`b`.`ee`ciddd.`bcf`````gfeccccidbdd.fc`fc``g`ddddddif`b`fc`ff##afc`ddddicc.`h`he``cf.ddddddi.f`f.c``cchc.e`ddbdddddddddddddd",
"#dddddddddddddddddi`c`bica`c```ee```.dd`eefg`cdd`gfcdddddddddef.`ec``g`ddddddf`c`ffc`.###afc`dddbdd.`.a``cc`.`iddddbd`facbf`e```fe`feddddddddddddddddd",
"#dbddbddbddbddbddd.fc````fefecc..gg.`de`h``f`cbd`g`cbddbddddd.fe`.e``.`bddbda`.`eefc`d###afc`ddddd.`.e`c.`ebe``acdddd`hgc`fii.a`fe`````aidbddbddbddbdd",
"#dddddddddddddddddefc`fbcc.eeff````f`.`c`aie.ddd`c`cdddddddddh```b`a``fddddda``.daa.fd###jfc`bddda`.f`cddc`fbb.f```fca`f`.````ffcg.ccgbf`ddddddddddddd",
"#ddddddddddddddddbefc`f````fae.iiiiii`affddddddd`c`idddddddddde`.e``bc`edddddddddaeef####jfc`dddd`f`fidddddf`hgggbc`edicid`chceefff``ff``ddddddddddddd",
"#ddddddddddddddddd.`efddddddddddddddd```iddddddb`c`ddddddddbd.`ac`cf`bh`idddddddd.`ea####jfefddddef.dddddddde`feef``.ddddde```fae.cccc.idddddddddddddd",
"#ddbddbddbddbddbdddf`.dbddbddbddbddbddbddbddbddd`c`bddbddbdd``.e`.dif`haedbddbddbi``c####j`eadbddbddbddbddbddieaa.idbddbddbddbddbddbddbddbddbddbddbddd",
"#ddddddddddddddddddiiddddddddddddddddddddddddddde`fddddddddd`a``cdddda``.dddddddddddd#####``cddddddddddddddddddddddddddddddddddddddddddddddddddddddddd",
"#dddddddddddddddddddddddddddddddddddddddddddddddddddddddddddcecdddddddiidddddddddddd######c.dddddddddddddddddddddddddddddddddddddddddddddddddddddddddd",
"#ddddddddddddddddddddddddddddddddddddddddddddddddddddddddddddddddddddddddddddddddddd#######hdddddddddddddddddddddddddddddddddddddddddddddddddddddddddd",
"#ddddddddddddddddddddddddddddddddddddddddddddddddddddddddddddddddddddddddddddddddddd#######hdddddddddddddddddddddddddddddddddddddddddddddddddddddddddd"
};
