/* XPM */
static char *zk_xpm[] = {
/* width height num_colors chars_per_pixel */
"    25    50       16            1",
/* colors */
"` c #8c467c",
". c #648abc",
"# c #746ea4",
"a c #4caadc",
"b c #84568c",
"c c #5c9acc",
"d c #6c82b4",
"e c #44baec",
"f c #6c76ac",
"g c #7c5e94",
"h c #54a2d4",
"i c #3cc2f4",
"j c #000000",
"k c #000000",
"l c #000000",
"m c #000000",
/* pixels */
"iiiiiiiiiiiiiiiiiiiiiiiii",
"iiiiiiiiiiiiiiiiiiiiiiiii",
"iiiiiiiiiiiiiiiiiiiiiiiii",
"iiiiiiiiiiiiiiiiiiiiiiiii",
"iiiiiiiiiiiiiiiiiiiiiiiii",
"iiiiiiiiiiiiiiiiiiiiiiiii",
"iiiiiiiiiiiiiiiiiiiiiiiii",
"iiiiiiiiiiiiiiiiiiiiiiiii",
"iiiiiiiiiiiiiiiiiiiiiiiii",
"iiiiiiaiiaeiiiiiiaiiiiiii",
"iiiiih`gg`bh`fdff`#iiiiii",
"iiiiic`ha`dc`hiic`ciiiiii",
"iiiiih`c.`ih`ciih`hiiiiii",
"iiiiic`hbcic`hiic`hiiiiii",
"iiiiih`c`eih`#df#`ciiiiii",
"iiiiic`hg#ic`hiic`hiiiiii",
"iiiiih`ci`.h`ciih`hiiiiii",
"iiiiic`hi#bc`hiic`hiiiiii",
"iiiiih`ci#`c`#df#`ciiiiii",
"iiiiic`b``fc`hiic`hiiiiii",
"iiiiih`c..ih`ciih`hiiiiii",
"iiiiic`hiiic`hiic`hiiiiii",
"iiiiih`cihh.`dha.```aiiii",
"iiiiic`hi.ddfddfddd..iiii",
"iiiiieaiiiiiiiiiiiiiiiiii",
"iiiiiiiiiiiiiiiiiiiiiiiii",
"iiiiiiih.iiii.aiiiiiiiiii",
"iiiiiiid`ciii.`.iiiiiiiii",
"iiiiiiid`eiiii`giiiiiiiii",
"iiiiiiif`e.hhhb#hc`#iiiii",
"iiiiiddg`#g#chhhhhhhiiiii",
"iiiiiiif`iiihiiihiiiiiiii",
"iiiiiiid`eaa`gd#`#iiiiiii",
"iiiiiii#`b#e`dic`hiiiiiii",
"iiiie.b``hiigfih`ciiiiiii",
"iiiie`gg`iie`dic`hiiiiiii",
"iiiiiaid`eii`fih`ciiiiiii",
"iiiiiiif`iia`cic`hidiiiii",
"iiiiiiid`eid`eih`ci`iiiii",
"iiiiiaa#`ia`.iic`hc`aiiii",
"iiiii.``bhb.iiia````ciiii",
"iiiiiiagc#aiiiiiiiiiiiiii",
"iiiiiiiiiiiiiiiiiiiiiiiii",
"iiiiiiiiiiiiiiiiiiiiiiiii",
"iiiiiiiiiiiiiiiiiiiiiiiii",
"iiiiiiiiiiiiiiiiiiiiiiiii",
"iiiiiiiiiiiiiiiiiiiiiiiii",
"iiiiiiiiiiiiiiiiiiiiiiiii",
"iiiiiiiiiiiiiiiiiiiiiiiii",
"iiiiiiiiiiiiiiiiiiiiiiiii"
};
