/* XPM */
static char *zkzlcl_xpm[] = {
/* width height num_colors chars_per_pixel */
"   150    28       16            1",
/* colors */
"` c #141ea4",
". c #949edc",
"# c #c4e6bc",
"a c #445abc",
"b c #dce2f4",
"c c #6482cc",
"d c #bcfefc",
"e c #2c3ab4",
"f c #a4bee4",
"g c #fcfefc",
"h c #ace2f4",
"i c #7c8eb4",
"j c #5462bc",
"k c #000000",
"l c #000000",
"m c #000000",
/* pixels */
"#dddddbddddddddddddddddddddddddddddddddddbdddddddddddddddddddddddddddddddddbdddddddddddddddfdddddddddddddddddddddddddddddddddddddddddddddddddddddbdddd",
"#ddddddddddbddddddddddbdddddddddddddddddddddddddddddddbdddddddddbddddddddddddddddddddddddd##ddddddbddddddddddddddddddddddddddddddddddddddddddddddddddd",
"##ddddddddddddddbdddddddddddddddddddddddddddddddddbdddddddbdddddddddddddddddddddddddddddddbfdddddddddddddddddddddddddddddddddddddddddddddddddddddddddd",
"##dddddddddddddddddddddddddddbdddddddddddddddddddddddddddddddddddddbddddddddddddddbddddddddfddbddddddddbdddddbddddddddddddddddddddddbddddddddbdddddddd",
"##dddddddddddddddddddddddddddddddddddbdddddddddddddddddddddddddddhcchdddbdddddbddddddddddfjihddddddddddddddddddddddddddddddddddddddddddddddddddddddddd",
"##ddddddbdddddddddddbfjchddd.cfdbddddddddddddbddddddddddddddddbddja`ah.fddddddddd.``cddddaj`edddddddddddddhccfdddddddddddddddddddddddddbdddddddddddddd",
"##dddddddddddddddddddjeeehbd`c`addddddddddbddddc`ahdddddddddddddd`.b````afdddddddjjf`ddbdejg`ddddddddh.fddh`j`.ddddddddbdddbddbddbhcechdddddddddddbddd",
"##dddddddddddbddddddd`cg`hdd`fb`dddddddddddhc.h`.aaddddbddd.``e..`gcc.bbaedddddddc`g`hhddjeg`ddddddbh`e`hdh`bcjdbdddbddddhffe``````e.e`fdddddddddddddd",
"##ddbdddddddddddddddd`bf`hdd`.b`ddddddddhce`je``ffebdddddddcef.``.`e``..`ebdddddbf`g``````ef`dddddddf`gccdb`fcjdddddddha```e`cf.b.fcfgjjdddddddddddddd",
"##ddddddddddddddddbdcege```.ecfedbddddd``e.bbga`fcjddddddddf``.`ej`fc`e`fdddddd````b`.cebeef`ddddddd.egecdd`fecdddddd.`jcbgfefc`cf``egecdbdddddddddddd",
"##dddddddddddddddddd`.gcfgcaecc````addd`bbj`f.``fecddddddddbdc``e``ba``chdddddd`f.`fac``ajef`bddddddecb```j`fechddddd.`jjba``cc`c.``eb`hdddddbdddddddd",
"##dddddddddddddddddc`bjce``cacacfb.`bddj````f`.`fe.ddddddddfj`ec``cfef.e`ejfbddc`.`f``````ef`dddbddh`g`cbb``fee``.ddddfc`.cejccjbffacf`ddddddddddddddd",
"##dddddbdddbddddddh`fc````.dac`ae``cdddddj`c`.d`fefddddddd``eff``jf```cgb.a``jae```b.f`jb`ef`jjcfddjjccefb``fe.b.`.ddddh`cc``e.`ec``fcaddddddddddddddd",
"#dddddddddddddddddeebecbbjcbacc`.hdddddddceb````f`hdddbddd`bgc``aj`afj``.ffc``acffgfe```a`efeacj`.f`be``bca`fe`jb.`dddc`eb.b``f`ec``be.ddddddddddbdddd",
"#ddddddddddddddbdc`g.c`e``fdaccaddddddddbh`faae`f`ddddddddj`e`cgff.cfgej```aj`cj``b.```ej.gjffffecej`j`eb`h`fece`jedddea.```a`gfgffcf`hddddddddddddddd",
"#dddddddddddddddf`fe``fc``ac`cc```afddddfe``b`e`f`bddd..dddffaj.`ae`eg`hdddddfja`fc.e`b.jeef```ejc`.`cf.ceb`fecd.chddbhj`ceae`e`ec``ejdddddddddddddddd",
"#ddddddddddddddd.e````bbbc``e`gbgbc`dh.e`jb`c`d`b`dddd`ecddddcef`jf`eg`dddddddd`cf`ff.``jaef`ddddce`c`c`e`f`fecddddddddd`ce`ce``ejee`hdddddddddddddddd",
"#dddddddddddddddhceebb````jfcae``gf`h`ejbf`efed`f`hdd.`cedbdd.ef`ef``g`ddddddheeb`ef`ja##jef`ddddh.f.`b`bc``fe.ddbdddh.a`e.f``ffbf.c`dbdddbdddbddddddd",
"#ddddddddddddddddd.```fcaa`g`cf.eg`.d`bbc`eefeb`faahdaaf`ddddce.`cf``g`dddbdheefeeef`.###jef`dddbdd.`.j``ff`.`hdddddd`ejfga`c```ec`ecddddddddddddddddd",
"#dddbdddbdddbddddddhh`fa`a`g`ce`ef`dbc``ej`c.edacb````fg`hddd.ec`.c``.`dddddae.`ccefed###jef`ddddd.`.c`f.`cbc``jfdddd`bgf`ahh.j`ec`````ahddddddddddddd",
"#ddddddddddddddddddbf`bbbe`b`ejcbb`dddddaaefcadf`.gggggf`hdddh`e`b`j``adddddj``.daj.ed###ief`ddddj`.aefddf`abb.a```efc`e`.```eeefg.ffgba`ddddddddddddd",
"#dddddddddddddddddddacgf`j`..cccee`dddddc`bgacdd.``ace``.dddddc`.c`ebf`cdddddddddacce####iefedddd`a`ehdddddeebgggbf`cdhfhd`fbfcceeee`eee`ddddddddddddd",
"#dddddddddddddddddddac.`.dec`eajc.hddddddc`.`hddddfcjcfdddddd.`jf`.eebb`hdddddddd.ecj####ieieddddca.ddddddddc`acce``.dddddc```ejc.ffff.hdddddddddddddd",
"#dddddddddddddddddddf`g.dd.j.ddddddddddddhee.ddddddddddddddde`.c`.dhaebjcddddddddh``f####iecjddddddddddddddddhcjc.hddddddddddddddddddddddddddddddddddd",
"#ddddddddddddddddddddddddddddddddddddddddddddddddddddddddddd`j`efddddc``.dddddddddddd#####``.ddddddddddddddddddddddddddddddddddddddddddddddddddddddddd",
"#dddddddddddddddddddddddddddddddddddddddddddddddddddddddddddfcfdddddddhhdddddddddddd######..dddddddddddddddddddddddddddddddddddddddddddddddddddddddddd",
"#ddddddddddddddddddddddddddddddddddddddddddddddddddddddddddddddddddddddddddddddddddd########dddddddddddddddddddddddddddddddddddddddddddddddddddddddddd",
"#ddddddddddddddddddddddddddddddddddddddddddddddddddddddddddddddddddddddddddddddddddd########dddddddddddddddddddddddddddddddddddddddddddddddddddddddddd"
};
