/* XPM */
static char *zpaddq_xpm[] = {
/* width height num_colors chars_per_pixel */
"   150    28       16            1",
/* colors */
"` c #040204",
". c #447e94",
"# c #6cbadc",
"a c #243a44",
"b c #7cd6fc",
"c c #5496ac",
"d c #74c6e4",
"e c #3c6a7c",
"f c #142224",
"g c #2c525c",
"h c #64a6c4",
"i c #84defc",
"j c #74cafc",
"k c #000000",
"l c #000000",
"m c #000000",
/* pixels */
"iiijjjiiiijdbiiiiddbiiiijjjjjiiiibjddbiiiiiibjjjjjbiiiiiiiiiiiiiiibibibiiiiiiiiiiiiiiiiiibiibbjjjd#jjjjbbiiiiiiiiijjjjjbjbiiiiidjjjbiiiijjjjjbiiijjjbi",
"iibjjjiiibjjbiiibjjjiiiibjjjjiiiibjjjjjiiiiibbd#jjjjiiiiiiiiijjjjjjjddjjjjjjjjjbjbbjbjjjjjjjjj#djjjjjbbbiiiiiiiiijjjjd#bbiiiiibjjjjiiiiijjjjbiiijjjjii",
"iijjjbiibjjbiiiij#diiiibjjjjiiiiibjjjbbiiiiijjjdjjjiiiiiiiiibbbjjdjjjjjd#jj#jjjjjjjjjj#jjjd#jjjjjjjjjbiiiiiiiiibjbjd#bbiiiiiijjjdiiiiiibddjbiiiijjjbii",
"iibjjbiijddbiiiijjjjiiibjjjjiiiiijddjjiiiiiibjjjddjbiiiiiiiiibbbjjjjj#jjjjjjjdjjdj#jjjjjjjjjjddjjjjbibiiiiiiiibjjjjjjjbiiiiibjjjjbiiiiijjjbiiiijjjbiii",
"ijjjjiiijjjiiiijjdiiiiijjjjiiiiiijjjjbiiiiiibjjjjjjiiiiiiiiiijbbjj#jjjjjjdjdjjjjjjjjjjjjjjjjjjjjjjjiiiiiiiiiibbjjddjbiiiiiib#djjiiiiiid#jbiiiijjjbiiib",
"ijjjiiibjjjiiiijjjbiiibjjjjiiiiibjjjjbiiiiibbjddjjjiiiiiiiiiibbjjjjjjddjjjjjjjjjjjjjjjjjj##jddjjbbbiiiiiiiiibjjjjjjjbiiiiibjjjjjiiiiijjjjbiiibjjjiiibj",
"jjjbiiijjjbiiijjjbiiiijjjjjiiefhiddic`ajiiijjjjjjjjiiiiiiiiibbbbbjjjjjjjddjjjj#djjjjjdjjbe`fhibjbiiiiiiiih``gdjjddjiiiiiiid#jbiiiiijjjjbiiiijjjjbiiijj",
"bjjiiiijjjiiiijjjbiiiijjjjjiig`eibjic`fdiiibjjjjjjjiiiiiiiii#cdibbdjjjjjjjjddjjjjddjjjjjj#f`ciibbiiiiiiiiicf`cjjjjiiiiiiijjjjjiiiiibjddbiiiijjjbiiibjj",
"jjbiiibjjbiiiijjjbiiibjjjjbiia`cijjic`aiiibjjhg`````fciiiiii.adijj#a`````ejjjjjjjjjjjjjjbbf`hibbiiiiiiiiiij#ggaf`a#iiiiibjjjbiiiiijjjjiiiiiddjbiiijjjb",
"jjiiibjjjiiibjjjbiiiijddbiiic`g#hhbic`giiibbjjbg`cidf`.iiiidgfdijjj#ff#ia`a#bjjj##g`gd#jbbff#iiiiiiiidc.eff```aeccdiiiijjjjjbiiiibjjjjiiiibjjjjiiijjji",
"jbiiijjjjiiijjjjbiiijjjjji#ca````.ii.`ff`.ijjjbg`cii.`adiii#f`cjbjj#ff#ihf`ebdcaf````ejjbjff#dchbiiii.ffgecha`.biiiiiibjj#diiiiiijjjjiiiibjjjbiiijjiii",
"jiiibjjjiiiijddbiiiibjdjjbe``ghjjca```a.c#jjjjig`cii.`a#iiic``.bbjb#fa#big`a#b#.cjc`ad#h.gf`````eiiiiii.`acg`f#iiiiiiibjddjbiiiibjjjjiiibjddbiiiiiiiii",
"iiiijjjbiiijjjbiiiijjjjiiii.f``ejbijgfdibjjddjjg`cii.`adiii.``gdbjj#fa#ii.`fhjefhie`````ge`fchc#iiiiiiibha``fhbiiiiiibjjjbiiiiijjjjjiiiijjjjiiiiiiiiii",
"iiibjjjiiiijjjbiiiijjjjiiidfg.ffhbi#aahcaffacjig`ci#f`eiii#eg`fdbjb#fahii.`fci#a`gafhhjjiiff#iiiiiiiiibbha```acbiiiiibjjjbiiiiijjjjiiiiijjjiiiiiiiiiii",
"iiibjjiiiijjjbiiiijjjjbiii.`af`f.c.g```a.eeecjia`faf`gbiiica.a`.bjdhfa#iicffcbbha``gjhecbiff#iiiiiiiiide`fcjcf``g#iijjddbiiiiijjjjiiiiijjjjbiiiiiiiiii",
"iibjjjiiiijjjiiiiijjjjiiiia`aefebceafhibjjjdjbbf`.#hhbiiiieade`gdjj#fa#ii.`fhbbbc``gbc``ciff#iiiiiiidg``gcdjccef```aghjjbiiiiibjdjiiiiijjjiiiibiiiiiii",
"ibjjjiiibjjjiiiiijjdjiiiib#hbdafgc#aadcag#bbbbif`hiiiiiiidg`af`a#jj#fa#ii.`fhbb#a``fcb.`ciff#iiiiiiha.jje`ejg`.dg``aehjbiiiiijjjjiiiiijjjjiiibjjiiiiii",
"ijjjiiiibjjjiiiijjjjbiiib##ca``fhic``ff``adbbbif`hiiiiiiihaeih``#bb#ffhiig`gdjbe`ae`fdbjiiff#iiiiiiiibb#g`.j.`eiiiijjjjbiiiiijjjjiiiiijjjiiiijjjbiiiii",
"jjjjiiijjjjiiiiijjjjiiiida``aa`eiicaci.`adijbiif`hiiiiibi.fhi#f`.jb#ff#icf`.bb.`aidf`dibiiff#iiiiiiijjihf`#ih`eiiijjddjiiiiijjdjbiiiibjjjiiijjjjiiiiii",
"jjbiiiijjjiiiiibddjbiiiiicecic`eiiiiihff#ijbiiif`hiiiibj#afbi#a`g#dhfadja`gjb.fgbbj#hjjbiiff#iiiiiiibbje`gjbh`eiiijjjjjbiiiibjjjiiiiijddiiiijjjbiiijji",
"jjiiiijjjjiiiijjjjiiiiijjjjii.`eiihafffcibiiide``f.iibbj.``.bc```.#g```facjjhe.bjddjjjj##dff#iiiiiijbi.`adibh`eiiiddjjbiiiibjjjiiiiijjjbiiibjjbiiijdjb",
"jbiiibjddiiiibddjbiiiibjjjjiie`eiibcf`adibiiiihccchbjbjjjjjdjjjjjjdhhjjddjjjjj#djjjjjjjha``adiiiiiiii.`adibih`eiijjjjjjiiiibddjbiiibjjjjiiibjjbiiijjji",
"biiibjjjiiiijjjjbiiiibjdjjjiiefcibbjc``eiiiiiiiiiiibjjjdjdjjjjjjdjjjjjjjjjddjdjjj#jddjjiba`gdiiiiiiicf.bbjbihfciijjjjbbiiiijjjbiiiibjjjiiibjjjiiijjjbi",
"iiibjddiiiiijjjjiiiiijjjjbiiihcdibjjjcgciiiiiiiibjbjbddjjjjjddjjjjjjjjjjjjjjddjjjjjjjjjjicghiiiiiiibbjjjjjbi#fhiijjjjiiiiibjjjjiiiibjjbiiijjjjiiijjjii",
"iiibjjiiiiijddbbiiiij#jjbiiiiiiijjddjbbiiiiiiiibbbbjjjjddjddjjjjjjbbbbbbjjjjjjjjjjjjjjjbbbiiiiiiiiijjjddjbiiidbibjjjjiiiiijjjjbiiijddjiiiiddjbiiijjbii",
"iibjjjiiiijjjjbiiiibjjjbiiiiiiijjjjjjbiiiiiiiijbbjddjjjjjjjjjjbjbbbjbbjbjbjjjjjddjjdjjjjbbiiiiiiiiibddjjjbiiiiiibjddbiiiiijddjiiiibjjjiiiijjjbiijjjbii",
"ibjjjiiiijjjjbiiiibjjjbiiiiiiijjjjjjbiiiiiiibbbbjjjjjjjjjjjbbbbbbbbbbbbbbbbbbjjjjjjjjjjbbbiiiiiiiiibjjjjjbiiiiiijjjjbbiiiijjjbiiiibjjjiiibjjbiiijjjiii",
"bjjjiiiibjjjiiiiibjjjbiiiiibbbjjjbbbiiiiiiibbbjjjjjjjjjbbbbbbbbbiiiiiibbbbbbbbjjjjjjjjjjbbiiiiiiiiibjjjjjbiiiiiijjjjiiiiibjjjbiiibjjjiiiijjjbiiijjbiii"
};
