/* XPM */
static char *zxlhp_xpm[] = {
/* width height num_colors chars_per_pixel */
"   135    32       16            1",
/* colors */
"` c #040204",
". c #3c6e8c",
"# c #049acc",
"a c #549ac4",
"b c #44b6ec",
"c c #1c3644",
"d c #24a6dc",
"e c #5cb6ec",
"f c #4486ac",
"g c #2c5264",
"h c #5caadc",
"i c #34aee4",
"j c #64bef4",
"k c #000000",
"l c #000000",
"m c #000000",
/* pixels */
"#######################################################################################################################################",
"#######################################################################################################################################",
"#######################################################################################################################################",
"###ddddddddddddddddddddddddddddddddddddddddddddddddddddddddddddddddddddddddddddddddddddddddddddddddddddddddddddddddddddddddddddddddddd#",
"###iiiiiiiiiiiiiiiiiidiiiiiidiiiidiidiiiiiiiiiiiiiiiiiiiiidiiiiiiiiidiiiiidiidiiiiiiididiidiidiiiiidiiiiiiiiiiiiidiiiiidiiidiiiiiaddd#d",
"###bbbbbbbbbbbbbbbbbbbbibbbhbbbbbbbbbbbbbbibbbbbbbbbibbbbbbbiebbbbbbhbbbibbbbbbbibbbbbbbbbhbbbbbbbbbbbbbbhibbbbibbbbbbbbbbbhbibbiiiddd#",
"###ebbebbjbbbbebbebbbbehbebbbbebbhbbbbebbebbbhebbebbbbhbbebbbbhbbhbbbbehbebbbbehbebbbeeebebbbbhbbebbbbhbbebbbbehbebbbbebihiiiidbdiddd#d",
"###jjjejjbjjjjjjjejjjjjjjeejejejjejjjjjjjejjejeeehejjjjjjejjjjjejeejejejjejjjjjjjeeeeeeeeeeejjjjjejjjjjeeeeeeejjjeeeeeebbbbdiidhiiiddd#",
"###jjjjjjjjjjjjjjjjjjjjjjjjjjjjjjjjjjjjjjjjjjjjehjjjjjjjjjjjjjjjjjjjjjjjjjjjjjjjjjjjjjjjjjjjjjjjjjjjjjjjjjf.jjjjjjjeejbebbiiidiiiiidd#d",
"###jjjjjjjjjjjjjjjjjjjjjjjjjjhhjjjjjjjjjjjjjjjjj`gejjjjjjjjjjjjjjjjjjffjjjjjjjjjjh`fjjjjjje..hjjjjjjjjjjjjg`ajjjjjjjeeebhibiiidiiiiddd#",
"###jjjjjjjjjjjjjjjjjjhajjjjejf`ejhhjjjjjjjjffjjjgchjaajjjjjjjjjjjjjjj.`hjjjjjjjjjhcgjjgggggfg`ajjjjjjjjjjhcfjjjjjjjeeebbbbiiiidbiiddd#d",
"##djjjjjjjjjjjjjjjjjja`gjfc`.hchjgcjjjjjjjjgchjjgcejf`.jjjjjjjjaggjjjc.jhjjjjjjjjhgfjjgcjjhj.`hjjjjjjjjhagg.g``fjjjjeebebbiaddibiiiddd#",
"###jjjjjjjjjjjjjjjjjjjfcehfgah.ja`.jjjjjjjjccjjj.ghjjjfjjjjjf`gf.`fja`cc`gjjjjjjjegfjaacccghggjjjjjjjjjacgfhjec.jjjeebebbbiiiidhiiddd#d",
"##djjjjjjjjjjjjjjjjjjjjjjjfgja..cajjjjjjjj.cjajjfca.cajjjjjjjcejacjjcfj.`fjjjjjjjhg.f`hgajj.cfjjjjjjjjjfgh.gjecajjjjeeebbibiiiiiiiiddd#",
"###jjjjjjjjjjjjjjjjjjjjjjagcjhcgejjjjjjjjacajgce.``gajjjjjjjjgggc.jfgjjccjjjjjjjjegccjjf`ggg.jjjjjjjjjjagahgajcfhfhjeebhbhiiiddbdiidd#d",
"##djjjjjjjjjjjjjjjjjachj.chjjf.hj..hjjjjhcajh`ff.`ajjajjjjjjjfachjhgchh`jjjjjjjafhg.jjjeejjaajjjjjjjjjjfc.a.gc`````ajbebbbbiiidhiiiddd#",
"###jjjjjjjjjjjjjjjjjjccjhgjja.c``gcajjjj.``c`.jjjcg.`chjjjjjjjjcfjajec`.jjjjjjjf`jg.jje.cc`c.jjjjjjfccc`c.fahhcfjjjeeeeeibiiiiiiididd#d",
"##djjjjjjjjjjjjjjjjjjf.j.cffhg`fjjjjjjjjhhjc.jje.c`.jhjjjjjhfjjccchjjg`gjjjjjjjacagajjjaaccjjjjjjjjjjjjc.jcgjecajjjjeeebbbbdiidiiiiddd#",
"###jjjjjjjjjjjjjjjjjjjjaggg`jf...jjjjjjjjjfghea.f.chjc.jjjjjc.jgajjj.ce.`fjjjjjjhachjjjjeg`.cc`cajjjjjhgajh.afcfjjjeehbbbbdaiidbiiddd#d",
"##djjjjjjjjjjjjjjjjjjjfgjj.cj..jc.jjjjjjjf`ccgejjecacchjjjjjcfjcjjj.cejj.`cfjjjjjacjacc`gccfafafhjjjjhcfjjjjhcchjjjeeebebbbiiddbiiddd##",
"###jjjjjjjjjjjjjjjjjjj.gjj.cjfgjh`gjjjjjjccfjjjjjjg`chjjjjjjffjcgafghjjhh.``cfjjjf`gaeejjf`jjjjjjjjjhgajjjeaaggcfjjjbebbihiiiidiiidd#d#",
"##djjjjjjjjjjjjjjjjjja`hjjggj..ej.``.jjjjhjjjffjjeg`fjjjjjjj.gcch.g.ggcc`.haejjjeg..`jjjjf`jjjjjjjjjj.c.ccggcfac`ajjeeebbbbiiiihiiddd#d",
"###jjjjjjjjjjjjjjjjjhccejhc.j.c..e.ccgejjjagcgjefc.gchjeaj.c`cajehe`eeje`gejjjjjfcjhfejjj.cejjjjjjjjjfceagaacaj`.jjjeebebiididdbdid#d#d",
"###heeheeeeeeeeeeeejf`.jfc`ajc`gbjeebejfc``gbjacgajj`ge.feagaheeeebceeeh`beeebjacajeeeeej.cjeeeeeeeeja.fegaf.bhgfjjbjbhbbbbiiidbiidd#d#",
"###ebbbbibbbbbbbibbbbfabj.gbb`gbjbbbebbj.gbbebabbbbbi`g`.bbbbbbbbebg..ggcibbbei.fbbbbbbbjfcjbbbbbbbibjg.i.f.gfcccccfbbbeibiiiiiiiiddd#d",
"###bbbbbbbbbbbbbbbbbbbbbbbbbidabbbbbbbbbibbbbbbbbbbbba``gibbbbbbbbifcg#ffbbbbbiabbbbbbbbb.gbbbbbed.ggc`cccgg..#f.gcgabbbbbbiiidbiidd#d#",
"###iiiiiiiidiiiiiiididiidiidiidiidiidiidiidiidiidiidiidcgdiiidiidiiddiadiidiidiidiidiidiifgdiidiii#.f#bididdiiiiidiidiidiidiiddbidddd#d",
"###ddddiddiddddddddidiidiidiididiidiidiidiidiidiidiidididiidiidiidiidiididiidiidiidiidiidddidiidiididiididiiidiidididiidiidiiddbiidd#d#",
"###dddddddddddddddddd#dd#dd#dd#dd#dd#dd#dd#dd#dd#dd#dd#dd#dd#dd#dd#dd#dd#dd#dd#dd#dd#dd#dd#dd#dd#dd#dd#dd#dd#dd#dd#dd#dd#dd#dddbidddd#d",
"###ddddddddddddddddddddddddddddddddddddddddddddddddddddddddddddddddddddddddddddddddddddddddddddddddddddddddddddddddddddddddddddbdidd#d#",
"#####d####d##d####ddddddddddddddddddddddddddddddddddddddddddddddddddddddddddddddddddddddddddddddddddddddddddddddddddddddddddddddddddd#d",
"####d##d#d##d##d#d#d#d#d#d#d#d#d#d#d#d#d#d#d#d#d#d#d#d#d#d#d#d#d#d#d#d#d#d#d#d#d#d#d#d#d#d#d#d#d#d#d#d#d#d#d#d#d#d#d#d#d#d#d#d#d#d#d#d#"
};
