/* XPM */
static char *¶ÔÆë_xpm[] = {
/* width height num_colors chars_per_pixel */
"    25    50       16            1",
/* colors */
"` c #040204",
". c #1c5654",
"# c #142e2c",
"a c #2c7e7c",
"b c #041214",
"c c #246a6c",
"d c #1c4e4c",
"e c #348e8c",
"f c #040a0c",
"g c #0c1e1c",
"h c #143a3c",
"i c #349a9c",
"j c #247274",
"k c #000000",
"l c #000000",
"m c #000000",
/* pixels */
"iiiiiiiiiiiiiiiieiiiiiiii",
"iiieiieiiiiiiiiiiiiiiieii",
"iiiiiiiiieiiiiiiiiieiiiii",
"iiiiiiiiiiiieiieiiiiiiiii",
"iieiieiiiiiiiiiiiiiiieiii",
"iiiiiiiiiiiiiiiiiiiiiiiii",
"iiiiiiiieiieiiieiieiiiiii",
"iiieiieiiiiiiiiiiiiiiieii",
"iiiiiiiiiiiieiiceiiiiiiii",
"iiiiiiiiiiiiiiig#iieiiiii",
"iiiejjjcjg.iiii#diiiieiii",
"iiieddddh`hiiiigdiiiiiiii",
"iiieciii.`jjjjjghdhiiiiii",
"iiiijhiigh.dddhb#ddaieiii",
"iiiiidhe`cieiii#dieiiiiii",
"iiieii##biif.iigdiiiiiiii",
"iiiiiiafhiic`ei#diiiieiii",
"iiiiiic`feie`.igdieiiiiii",
"iieiiefcbhii#ei#diiiiiiii",
"iiiii#hid`eiiiibdiiiiieii",
"iiii.geij`jiiii#diieiiiii",
"iiid#eiiibeieiigdiiiiiiii",
"iiidiiiieiii.b``diiiieiii",
"iiiiiiiiiiiiiebgeiiiiiiii",
"iiiiiieiiiiiiieieiieiiiii",
"iiieiiiiieaiiiiiiiiiiieii",
"iiiiiiiiieg#eiiiiiiiiiiii",
"iiiiiiiiieefaiiiaaiieiiii",
"iiij#g#g#g#b#g#g`faiiiiii",
"iiiieiiebeiiebhiieiiiiiii",
"iiiiiieiageeggeiiiiieiiii",
"iiieiiiii.fggeiiiiiiiiiii",
"iiiiiiiiijb`heiiiiiiieiii",
"iiiiiiic#bcj#`#.jeiiiiiii",
"iiia.hb#`diiicgb``fciiiii",
"iiidcjii`#iiid`ea.jiieiii",
"iieiiiii`ciiid#iiiiiiiiii",
"iiiiiiia`jiiidbiiiiiiiiii",
"iiiieii.`iieidgiiieiieiii",
"iiiiiiebdiiiid`iiiiiiiiii",
"iiiiijbhiiiiid`iiiiiiiiii",
"iiieddeieiieicheiieiieiii",
"iiiiiiiiiiiiiiiiiiiiiiiii",
"iiiiiiiiiiiiiiiiiiiiiiiii",
"iiieiieiieiieiieiieiieiii",
"iiiiiiiiiiiiiiiiiiiiiiiii",
"iiiiiiiiiiiiiiiiiiiiiiiii",
"iiiiiiiiiiiiiiiiiiiiiiiii",
"iiiiiiiiiiiiiiiiiiiiiiiii",
"iiiiiiiiiiiiiiiiiiiiiiiii"
};
