G04 #@! TF.GenerationSoftware,KiCad,Pcbnew,(5.1.6)-1*
G04 #@! TF.CreationDate,2021-11-13T02:39:41+01:00*
G04 #@! TF.ProjectId,hamodule,68616d6f-6475-46c6-952e-6b696361645f,rev?*
G04 #@! TF.SameCoordinates,Original*
G04 #@! TF.FileFunction,Soldermask,Bot*
G04 #@! TF.FilePolarity,Negative*
%FSLAX46Y46*%
G04 Gerber Fmt 4.6, Leading zero omitted, Abs format (unit mm)*
G04 Created by KiCad (PCBNEW (5.1.6)-1) date 2021-11-13 02:39:41*
%MOMM*%
%LPD*%
G01*
G04 APERTURE LIST*
%ADD10C,5.600000*%
%ADD11R,1.800000X1.800000*%
%ADD12O,2.050000X1.800000*%
%ADD13C,2.100000*%
%ADD14C,1.800000*%
%ADD15C,1.700000*%
%ADD16R,1.700000X1.700000*%
%ADD17O,2.100000X2.005000*%
%ADD18R,2.100000X2.005000*%
%ADD19O,1.800000X2.050000*%
%ADD20C,1.750000*%
%ADD21R,1.750000X1.750000*%
%ADD22O,1.800000X1.800000*%
%ADD23O,1.800000X2.100000*%
%ADD24C,1.900000*%
%ADD25R,1.700000X2.500000*%
%ADD26O,1.700000X2.500000*%
G04 APERTURE END LIST*
D10*
X132270500Y-74739500D03*
X198564500Y-85407500D03*
X132270500Y-85407500D03*
G36*
G01*
X195687500Y-78407500D02*
X195687500Y-79707500D01*
G75*
G02*
X195037500Y-80357500I-650000J0D01*
G01*
X193737500Y-80357500D01*
G75*
G02*
X193087500Y-79707500I0J650000D01*
G01*
X193087500Y-78407500D01*
G75*
G02*
X193737500Y-77757500I650000J0D01*
G01*
X195037500Y-77757500D01*
G75*
G02*
X195687500Y-78407500I0J-650000D01*
G01*
G37*
G36*
G01*
X190687500Y-78407500D02*
X190687500Y-79707500D01*
G75*
G02*
X190037500Y-80357500I-650000J0D01*
G01*
X188737500Y-80357500D01*
G75*
G02*
X188087500Y-79707500I0J650000D01*
G01*
X188087500Y-78407500D01*
G75*
G02*
X188737500Y-77757500I650000J0D01*
G01*
X190037500Y-77757500D01*
G75*
G02*
X190687500Y-78407500I0J-650000D01*
G01*
G37*
G36*
G01*
X185687500Y-78407500D02*
X185687500Y-79707500D01*
G75*
G02*
X185037500Y-80357500I-650000J0D01*
G01*
X183737500Y-80357500D01*
G75*
G02*
X183087500Y-79707500I0J650000D01*
G01*
X183087500Y-78407500D01*
G75*
G02*
X183737500Y-77757500I650000J0D01*
G01*
X185037500Y-77757500D01*
G75*
G02*
X185687500Y-78407500I0J-650000D01*
G01*
G37*
G36*
G01*
X180687500Y-78407500D02*
X180687500Y-79707500D01*
G75*
G02*
X180037500Y-80357500I-650000J0D01*
G01*
X178737500Y-80357500D01*
G75*
G02*
X178087500Y-79707500I0J650000D01*
G01*
X178087500Y-78407500D01*
G75*
G02*
X178737500Y-77757500I650000J0D01*
G01*
X180037500Y-77757500D01*
G75*
G02*
X180687500Y-78407500I0J-650000D01*
G01*
G37*
G36*
G01*
X195687500Y-70207501D02*
X195687500Y-71507501D01*
G75*
G02*
X195037500Y-72157501I-650000J0D01*
G01*
X193737500Y-72157501D01*
G75*
G02*
X193087500Y-71507501I0J650000D01*
G01*
X193087500Y-70207501D01*
G75*
G02*
X193737500Y-69557501I650000J0D01*
G01*
X195037500Y-69557501D01*
G75*
G02*
X195687500Y-70207501I0J-650000D01*
G01*
G37*
G36*
G01*
X190687500Y-70207501D02*
X190687500Y-71507501D01*
G75*
G02*
X190037500Y-72157501I-650000J0D01*
G01*
X188737500Y-72157501D01*
G75*
G02*
X188087500Y-71507501I0J650000D01*
G01*
X188087500Y-70207501D01*
G75*
G02*
X188737500Y-69557501I650000J0D01*
G01*
X190037500Y-69557501D01*
G75*
G02*
X190687500Y-70207501I0J-650000D01*
G01*
G37*
G36*
G01*
X185687500Y-70207501D02*
X185687500Y-71507501D01*
G75*
G02*
X185037500Y-72157501I-650000J0D01*
G01*
X183737500Y-72157501D01*
G75*
G02*
X183087500Y-71507501I0J650000D01*
G01*
X183087500Y-70207501D01*
G75*
G02*
X183737500Y-69557501I650000J0D01*
G01*
X185037500Y-69557501D01*
G75*
G02*
X185687500Y-70207501I0J-650000D01*
G01*
G37*
G36*
G01*
X180687500Y-70207501D02*
X180687500Y-71507501D01*
G75*
G02*
X180037500Y-72157501I-650000J0D01*
G01*
X178737500Y-72157501D01*
G75*
G02*
X178087500Y-71507501I0J650000D01*
G01*
X178087500Y-70207501D01*
G75*
G02*
X178737500Y-69557501I650000J0D01*
G01*
X180037500Y-69557501D01*
G75*
G02*
X180687500Y-70207501I0J-650000D01*
G01*
G37*
G36*
G01*
X148048500Y-78407500D02*
X148048500Y-79707500D01*
G75*
G02*
X147398500Y-80357500I-650000J0D01*
G01*
X146098500Y-80357500D01*
G75*
G02*
X145448500Y-79707500I0J650000D01*
G01*
X145448500Y-78407500D01*
G75*
G02*
X146098500Y-77757500I650000J0D01*
G01*
X147398500Y-77757500D01*
G75*
G02*
X148048500Y-78407500I0J-650000D01*
G01*
G37*
G36*
G01*
X143048500Y-78407500D02*
X143048500Y-79707500D01*
G75*
G02*
X142398500Y-80357500I-650000J0D01*
G01*
X141098500Y-80357500D01*
G75*
G02*
X140448500Y-79707500I0J650000D01*
G01*
X140448500Y-78407500D01*
G75*
G02*
X141098500Y-77757500I650000J0D01*
G01*
X142398500Y-77757500D01*
G75*
G02*
X143048500Y-78407500I0J-650000D01*
G01*
G37*
G36*
G01*
X148048500Y-70207501D02*
X148048500Y-71507501D01*
G75*
G02*
X147398500Y-72157501I-650000J0D01*
G01*
X146098500Y-72157501D01*
G75*
G02*
X145448500Y-71507501I0J650000D01*
G01*
X145448500Y-70207501D01*
G75*
G02*
X146098500Y-69557501I650000J0D01*
G01*
X147398500Y-69557501D01*
G75*
G02*
X148048500Y-70207501I0J-650000D01*
G01*
G37*
G36*
G01*
X143048500Y-70207501D02*
X143048500Y-71507501D01*
G75*
G02*
X142398500Y-72157501I-650000J0D01*
G01*
X141098500Y-72157501D01*
G75*
G02*
X140448500Y-71507501I0J650000D01*
G01*
X140448500Y-70207501D01*
G75*
G02*
X141098500Y-69557501I650000J0D01*
G01*
X142398500Y-69557501D01*
G75*
G02*
X143048500Y-70207501I0J-650000D01*
G01*
G37*
G36*
G01*
X171416500Y-78407500D02*
X171416500Y-79707500D01*
G75*
G02*
X170766500Y-80357500I-650000J0D01*
G01*
X169466500Y-80357500D01*
G75*
G02*
X168816500Y-79707500I0J650000D01*
G01*
X168816500Y-78407500D01*
G75*
G02*
X169466500Y-77757500I650000J0D01*
G01*
X170766500Y-77757500D01*
G75*
G02*
X171416500Y-78407500I0J-650000D01*
G01*
G37*
G36*
G01*
X166416500Y-78407500D02*
X166416500Y-79707500D01*
G75*
G02*
X165766500Y-80357500I-650000J0D01*
G01*
X164466500Y-80357500D01*
G75*
G02*
X163816500Y-79707500I0J650000D01*
G01*
X163816500Y-78407500D01*
G75*
G02*
X164466500Y-77757500I650000J0D01*
G01*
X165766500Y-77757500D01*
G75*
G02*
X166416500Y-78407500I0J-650000D01*
G01*
G37*
G36*
G01*
X161416500Y-78407500D02*
X161416500Y-79707500D01*
G75*
G02*
X160766500Y-80357500I-650000J0D01*
G01*
X159466500Y-80357500D01*
G75*
G02*
X158816500Y-79707500I0J650000D01*
G01*
X158816500Y-78407500D01*
G75*
G02*
X159466500Y-77757500I650000J0D01*
G01*
X160766500Y-77757500D01*
G75*
G02*
X161416500Y-78407500I0J-650000D01*
G01*
G37*
G36*
G01*
X156416500Y-78407500D02*
X156416500Y-79707500D01*
G75*
G02*
X155766500Y-80357500I-650000J0D01*
G01*
X154466500Y-80357500D01*
G75*
G02*
X153816500Y-79707500I0J650000D01*
G01*
X153816500Y-78407500D01*
G75*
G02*
X154466500Y-77757500I650000J0D01*
G01*
X155766500Y-77757500D01*
G75*
G02*
X156416500Y-78407500I0J-650000D01*
G01*
G37*
G36*
G01*
X171416500Y-70207501D02*
X171416500Y-71507501D01*
G75*
G02*
X170766500Y-72157501I-650000J0D01*
G01*
X169466500Y-72157501D01*
G75*
G02*
X168816500Y-71507501I0J650000D01*
G01*
X168816500Y-70207501D01*
G75*
G02*
X169466500Y-69557501I650000J0D01*
G01*
X170766500Y-69557501D01*
G75*
G02*
X171416500Y-70207501I0J-650000D01*
G01*
G37*
G36*
G01*
X166416500Y-70207501D02*
X166416500Y-71507501D01*
G75*
G02*
X165766500Y-72157501I-650000J0D01*
G01*
X164466500Y-72157501D01*
G75*
G02*
X163816500Y-71507501I0J650000D01*
G01*
X163816500Y-70207501D01*
G75*
G02*
X164466500Y-69557501I650000J0D01*
G01*
X165766500Y-69557501D01*
G75*
G02*
X166416500Y-70207501I0J-650000D01*
G01*
G37*
G36*
G01*
X161416500Y-70207501D02*
X161416500Y-71507501D01*
G75*
G02*
X160766500Y-72157501I-650000J0D01*
G01*
X159466500Y-72157501D01*
G75*
G02*
X158816500Y-71507501I0J650000D01*
G01*
X158816500Y-70207501D01*
G75*
G02*
X159466500Y-69557501I650000J0D01*
G01*
X160766500Y-69557501D01*
G75*
G02*
X161416500Y-70207501I0J-650000D01*
G01*
G37*
G36*
G01*
X156416500Y-70207501D02*
X156416500Y-71507501D01*
G75*
G02*
X155766500Y-72157501I-650000J0D01*
G01*
X154466500Y-72157501D01*
G75*
G02*
X153816500Y-71507501I0J650000D01*
G01*
X153816500Y-70207501D01*
G75*
G02*
X154466500Y-69557501I650000J0D01*
G01*
X155766500Y-69557501D01*
G75*
G02*
X156416500Y-70207501I0J-650000D01*
G01*
G37*
D11*
X154686000Y-106362500D03*
D12*
X154686000Y-103822500D03*
D13*
X154686000Y-96202500D03*
X154686000Y-88582500D03*
D11*
X170825500Y-106343001D03*
D14*
X170825500Y-103803001D03*
D13*
X170825500Y-96183001D03*
X170825500Y-88563001D03*
D11*
X165428000Y-106343001D03*
D14*
X165428000Y-103803001D03*
D13*
X165428000Y-96183001D03*
X165428000Y-88563001D03*
D11*
X160083500Y-106343001D03*
D14*
X160083500Y-103803001D03*
D13*
X160083500Y-96183001D03*
X160083500Y-88563001D03*
D15*
X136334500Y-147089500D03*
D16*
X136334500Y-144589500D03*
D15*
X136334500Y-137517500D03*
D16*
X136334500Y-140017500D03*
D17*
X129222500Y-140525500D03*
X129222500Y-143065500D03*
D18*
X129222500Y-145605500D03*
D19*
X176346500Y-144843500D03*
X173846500Y-144843500D03*
X171346500Y-144843500D03*
G36*
G01*
X167946500Y-145603794D02*
X167946500Y-144083206D01*
G75*
G02*
X168211206Y-143818500I264706J0D01*
G01*
X169481794Y-143818500D01*
G75*
G02*
X169746500Y-144083206I0J-264706D01*
G01*
X169746500Y-145603794D01*
G75*
G02*
X169481794Y-145868500I-264706J0D01*
G01*
X168211206Y-145868500D01*
G75*
G02*
X167946500Y-145603794I0J264706D01*
G01*
G37*
D20*
X149476500Y-113587500D03*
X149476500Y-123587500D03*
X129476500Y-128587500D03*
D21*
X129476500Y-108587500D03*
D13*
X139636500Y-92265500D03*
X134556500Y-92265500D03*
D22*
X141973300Y-144310100D03*
D11*
X141973300Y-146850100D03*
D23*
X149491700Y-145453100D03*
G36*
G01*
X146091700Y-146238394D02*
X146091700Y-144667806D01*
G75*
G02*
X146356406Y-144403100I264706J0D01*
G01*
X147626994Y-144403100D01*
G75*
G02*
X147891700Y-144667806I0J-264706D01*
G01*
X147891700Y-146238394D01*
G75*
G02*
X147626994Y-146503100I-264706J0D01*
G01*
X146356406Y-146503100D01*
G75*
G02*
X146091700Y-146238394I0J264706D01*
G01*
G37*
D22*
X155130500Y-119443500D03*
D11*
X155130500Y-121983500D03*
D24*
X140144500Y-100647500D03*
X132644500Y-99014170D03*
D10*
X196024500Y-117665500D03*
D19*
X167536500Y-120713500D03*
X165036500Y-120713500D03*
X162536500Y-120713500D03*
G36*
G01*
X159136500Y-121473794D02*
X159136500Y-119953206D01*
G75*
G02*
X159401206Y-119688500I264706J0D01*
G01*
X160671794Y-119688500D01*
G75*
G02*
X160936500Y-119953206I0J-264706D01*
G01*
X160936500Y-121473794D01*
G75*
G02*
X160671794Y-121738500I-264706J0D01*
G01*
X159401206Y-121738500D01*
G75*
G02*
X159136500Y-121473794I0J264706D01*
G01*
G37*
D25*
X173912500Y-131873500D03*
D26*
X166292500Y-139493500D03*
X171372500Y-131873500D03*
X168832500Y-139493500D03*
X168832500Y-131873500D03*
X171372500Y-139493500D03*
X166292500Y-131873500D03*
X173912500Y-139493500D03*
D25*
X196518500Y-131873500D03*
D26*
X188898500Y-139493500D03*
X193978500Y-131873500D03*
X191438500Y-139493500D03*
X191438500Y-131873500D03*
X193978500Y-139493500D03*
X188898500Y-131873500D03*
X196518500Y-139493500D03*
D25*
X185088500Y-131873500D03*
D26*
X177468500Y-139493500D03*
X182548500Y-131873500D03*
X180008500Y-139493500D03*
X180008500Y-131873500D03*
X182548500Y-139493500D03*
X177468500Y-131873500D03*
X185088500Y-139493500D03*
D25*
X162482500Y-131873500D03*
D26*
X154862500Y-139493500D03*
X159942500Y-131873500D03*
X157402500Y-139493500D03*
X157402500Y-131873500D03*
X159942500Y-139493500D03*
X154862500Y-131873500D03*
X162482500Y-139493500D03*
D23*
X149502500Y-138493500D03*
G36*
G01*
X146102500Y-139278794D02*
X146102500Y-137708206D01*
G75*
G02*
X146367206Y-137443500I264706J0D01*
G01*
X147637794Y-137443500D01*
G75*
G02*
X147902500Y-137708206I0J-264706D01*
G01*
X147902500Y-139278794D01*
G75*
G02*
X147637794Y-139543500I-264706J0D01*
G01*
X146367206Y-139543500D01*
G75*
G02*
X146102500Y-139278794I0J264706D01*
G01*
G37*
D10*
X196024500Y-146113500D03*
X147256500Y-99377500D03*
D13*
X146748500Y-94297500D03*
X146748500Y-89217500D03*
M02*
