G04 #@! TF.GenerationSoftware,KiCad,Pcbnew,(5.1.6)-1*
G04 #@! TF.CreationDate,2021-11-13T02:39:41+01:00*
G04 #@! TF.ProjectId,hamodule,68616d6f-6475-46c6-952e-6b696361645f,rev?*
G04 #@! TF.SameCoordinates,Original*
G04 #@! TF.FileFunction,Paste,Top*
G04 #@! TF.FilePolarity,Positive*
%FSLAX46Y46*%
G04 Gerber Fmt 4.6, Leading zero omitted, Abs format (unit mm)*
G04 Created by KiCad (PCBNEW (5.1.6)-1) date 2021-11-13 02:39:41*
%MOMM*%
%LPD*%
G01*
G04 APERTURE LIST*
G04 APERTURE END LIST*
G36*
G01*
X191140501Y-147432500D02*
X190240499Y-147432500D01*
G75*
G02*
X189990500Y-147182501I0J249999D01*
G01*
X189990500Y-146532499D01*
G75*
G02*
X190240499Y-146282500I249999J0D01*
G01*
X191140501Y-146282500D01*
G75*
G02*
X191390500Y-146532499I0J-249999D01*
G01*
X191390500Y-147182501D01*
G75*
G02*
X191140501Y-147432500I-249999J0D01*
G01*
G37*
G36*
G01*
X191140501Y-149482500D02*
X190240499Y-149482500D01*
G75*
G02*
X189990500Y-149232501I0J249999D01*
G01*
X189990500Y-148582499D01*
G75*
G02*
X190240499Y-148332500I249999J0D01*
G01*
X191140501Y-148332500D01*
G75*
G02*
X191390500Y-148582499I0J-249999D01*
G01*
X191390500Y-149232501D01*
G75*
G02*
X191140501Y-149482500I-249999J0D01*
G01*
G37*
G36*
G01*
X182620499Y-148332500D02*
X183520501Y-148332500D01*
G75*
G02*
X183770500Y-148582499I0J-249999D01*
G01*
X183770500Y-149232501D01*
G75*
G02*
X183520501Y-149482500I-249999J0D01*
G01*
X182620499Y-149482500D01*
G75*
G02*
X182370500Y-149232501I0J249999D01*
G01*
X182370500Y-148582499D01*
G75*
G02*
X182620499Y-148332500I249999J0D01*
G01*
G37*
G36*
G01*
X182620499Y-146282500D02*
X183520501Y-146282500D01*
G75*
G02*
X183770500Y-146532499I0J-249999D01*
G01*
X183770500Y-147182501D01*
G75*
G02*
X183520501Y-147432500I-249999J0D01*
G01*
X182620499Y-147432500D01*
G75*
G02*
X182370500Y-147182501I0J249999D01*
G01*
X182370500Y-146532499D01*
G75*
G02*
X182620499Y-146282500I249999J0D01*
G01*
G37*
G36*
G01*
X184939500Y-147903500D02*
X186789500Y-147903500D01*
G75*
G02*
X187039500Y-148153500I0J-250000D01*
G01*
X187039500Y-149153500D01*
G75*
G02*
X186789500Y-149403500I-250000J0D01*
G01*
X184939500Y-149403500D01*
G75*
G02*
X184689500Y-149153500I0J250000D01*
G01*
X184689500Y-148153500D01*
G75*
G02*
X184939500Y-147903500I250000J0D01*
G01*
G37*
G36*
G01*
X184939500Y-144653500D02*
X186789500Y-144653500D01*
G75*
G02*
X187039500Y-144903500I0J-250000D01*
G01*
X187039500Y-145903500D01*
G75*
G02*
X186789500Y-146153500I-250000J0D01*
G01*
X184939500Y-146153500D01*
G75*
G02*
X184689500Y-145903500I0J250000D01*
G01*
X184689500Y-144903500D01*
G75*
G02*
X184939500Y-144653500I250000J0D01*
G01*
G37*
G36*
G01*
X189108501Y-147432500D02*
X188208499Y-147432500D01*
G75*
G02*
X187958500Y-147182501I0J249999D01*
G01*
X187958500Y-146532499D01*
G75*
G02*
X188208499Y-146282500I249999J0D01*
G01*
X189108501Y-146282500D01*
G75*
G02*
X189358500Y-146532499I0J-249999D01*
G01*
X189358500Y-147182501D01*
G75*
G02*
X189108501Y-147432500I-249999J0D01*
G01*
G37*
G36*
G01*
X189108501Y-149482500D02*
X188208499Y-149482500D01*
G75*
G02*
X187958500Y-149232501I0J249999D01*
G01*
X187958500Y-148582499D01*
G75*
G02*
X188208499Y-148332500I249999J0D01*
G01*
X189108501Y-148332500D01*
G75*
G02*
X189358500Y-148582499I0J-249999D01*
G01*
X189358500Y-149232501D01*
G75*
G02*
X189108501Y-149482500I-249999J0D01*
G01*
G37*
G36*
G01*
X132212501Y-139068500D02*
X131312499Y-139068500D01*
G75*
G02*
X131062500Y-138818501I0J249999D01*
G01*
X131062500Y-138168499D01*
G75*
G02*
X131312499Y-137918500I249999J0D01*
G01*
X132212501Y-137918500D01*
G75*
G02*
X132462500Y-138168499I0J-249999D01*
G01*
X132462500Y-138818501D01*
G75*
G02*
X132212501Y-139068500I-249999J0D01*
G01*
G37*
G36*
G01*
X132212501Y-141118500D02*
X131312499Y-141118500D01*
G75*
G02*
X131062500Y-140868501I0J249999D01*
G01*
X131062500Y-140218499D01*
G75*
G02*
X131312499Y-139968500I249999J0D01*
G01*
X132212501Y-139968500D01*
G75*
G02*
X132462500Y-140218499I0J-249999D01*
G01*
X132462500Y-140868501D01*
G75*
G02*
X132212501Y-141118500I-249999J0D01*
G01*
G37*
G36*
G01*
X131312499Y-146064500D02*
X132212501Y-146064500D01*
G75*
G02*
X132462500Y-146314499I0J-249999D01*
G01*
X132462500Y-146964501D01*
G75*
G02*
X132212501Y-147214500I-249999J0D01*
G01*
X131312499Y-147214500D01*
G75*
G02*
X131062500Y-146964501I0J249999D01*
G01*
X131062500Y-146314499D01*
G75*
G02*
X131312499Y-146064500I249999J0D01*
G01*
G37*
G36*
G01*
X131312499Y-144014500D02*
X132212501Y-144014500D01*
G75*
G02*
X132462500Y-144264499I0J-249999D01*
G01*
X132462500Y-144914501D01*
G75*
G02*
X132212501Y-145164500I-249999J0D01*
G01*
X131312499Y-145164500D01*
G75*
G02*
X131062500Y-144914501I0J249999D01*
G01*
X131062500Y-144264499D01*
G75*
G02*
X131312499Y-144014500I249999J0D01*
G01*
G37*
G36*
G01*
X157104501Y-110856500D02*
X156204499Y-110856500D01*
G75*
G02*
X155954500Y-110606501I0J249999D01*
G01*
X155954500Y-109956499D01*
G75*
G02*
X156204499Y-109706500I249999J0D01*
G01*
X157104501Y-109706500D01*
G75*
G02*
X157354500Y-109956499I0J-249999D01*
G01*
X157354500Y-110606501D01*
G75*
G02*
X157104501Y-110856500I-249999J0D01*
G01*
G37*
G36*
G01*
X157104501Y-112906500D02*
X156204499Y-112906500D01*
G75*
G02*
X155954500Y-112656501I0J249999D01*
G01*
X155954500Y-112006499D01*
G75*
G02*
X156204499Y-111756500I249999J0D01*
G01*
X157104501Y-111756500D01*
G75*
G02*
X157354500Y-112006499I0J-249999D01*
G01*
X157354500Y-112656501D01*
G75*
G02*
X157104501Y-112906500I-249999J0D01*
G01*
G37*
G36*
G01*
X154564501Y-110865500D02*
X153664499Y-110865500D01*
G75*
G02*
X153414500Y-110615501I0J249999D01*
G01*
X153414500Y-109965499D01*
G75*
G02*
X153664499Y-109715500I249999J0D01*
G01*
X154564501Y-109715500D01*
G75*
G02*
X154814500Y-109965499I0J-249999D01*
G01*
X154814500Y-110615501D01*
G75*
G02*
X154564501Y-110865500I-249999J0D01*
G01*
G37*
G36*
G01*
X154564501Y-112915500D02*
X153664499Y-112915500D01*
G75*
G02*
X153414500Y-112665501I0J249999D01*
G01*
X153414500Y-112015499D01*
G75*
G02*
X153664499Y-111765500I249999J0D01*
G01*
X154564501Y-111765500D01*
G75*
G02*
X154814500Y-112015499I0J-249999D01*
G01*
X154814500Y-112665501D01*
G75*
G02*
X154564501Y-112915500I-249999J0D01*
G01*
G37*
G36*
G01*
X169666499Y-114314500D02*
X170566501Y-114314500D01*
G75*
G02*
X170816500Y-114564499I0J-249999D01*
G01*
X170816500Y-115214501D01*
G75*
G02*
X170566501Y-115464500I-249999J0D01*
G01*
X169666499Y-115464500D01*
G75*
G02*
X169416500Y-115214501I0J249999D01*
G01*
X169416500Y-114564499D01*
G75*
G02*
X169666499Y-114314500I249999J0D01*
G01*
G37*
G36*
G01*
X169666499Y-112264500D02*
X170566501Y-112264500D01*
G75*
G02*
X170816500Y-112514499I0J-249999D01*
G01*
X170816500Y-113164501D01*
G75*
G02*
X170566501Y-113414500I-249999J0D01*
G01*
X169666499Y-113414500D01*
G75*
G02*
X169416500Y-113164501I0J249999D01*
G01*
X169416500Y-112514499D01*
G75*
G02*
X169666499Y-112264500I249999J0D01*
G01*
G37*
G36*
G01*
X157279500Y-144359000D02*
X156029500Y-144359000D01*
G75*
G02*
X155779500Y-144109000I0J250000D01*
G01*
X155779500Y-143184000D01*
G75*
G02*
X156029500Y-142934000I250000J0D01*
G01*
X157279500Y-142934000D01*
G75*
G02*
X157529500Y-143184000I0J-250000D01*
G01*
X157529500Y-144109000D01*
G75*
G02*
X157279500Y-144359000I-250000J0D01*
G01*
G37*
G36*
G01*
X157279500Y-147334000D02*
X156029500Y-147334000D01*
G75*
G02*
X155779500Y-147084000I0J250000D01*
G01*
X155779500Y-146159000D01*
G75*
G02*
X156029500Y-145909000I250000J0D01*
G01*
X157279500Y-145909000D01*
G75*
G02*
X157529500Y-146159000I0J-250000D01*
G01*
X157529500Y-147084000D01*
G75*
G02*
X157279500Y-147334000I-250000J0D01*
G01*
G37*
G36*
G01*
X159819500Y-144359000D02*
X158569500Y-144359000D01*
G75*
G02*
X158319500Y-144109000I0J250000D01*
G01*
X158319500Y-143184000D01*
G75*
G02*
X158569500Y-142934000I250000J0D01*
G01*
X159819500Y-142934000D01*
G75*
G02*
X160069500Y-143184000I0J-250000D01*
G01*
X160069500Y-144109000D01*
G75*
G02*
X159819500Y-144359000I-250000J0D01*
G01*
G37*
G36*
G01*
X159819500Y-147334000D02*
X158569500Y-147334000D01*
G75*
G02*
X158319500Y-147084000I0J250000D01*
G01*
X158319500Y-146159000D01*
G75*
G02*
X158569500Y-145909000I250000J0D01*
G01*
X159819500Y-145909000D01*
G75*
G02*
X160069500Y-146159000I0J-250000D01*
G01*
X160069500Y-147084000D01*
G75*
G02*
X159819500Y-147334000I-250000J0D01*
G01*
G37*
G36*
G01*
X162359500Y-144359000D02*
X161109500Y-144359000D01*
G75*
G02*
X160859500Y-144109000I0J250000D01*
G01*
X160859500Y-143184000D01*
G75*
G02*
X161109500Y-142934000I250000J0D01*
G01*
X162359500Y-142934000D01*
G75*
G02*
X162609500Y-143184000I0J-250000D01*
G01*
X162609500Y-144109000D01*
G75*
G02*
X162359500Y-144359000I-250000J0D01*
G01*
G37*
G36*
G01*
X162359500Y-147334000D02*
X161109500Y-147334000D01*
G75*
G02*
X160859500Y-147084000I0J250000D01*
G01*
X160859500Y-146159000D01*
G75*
G02*
X161109500Y-145909000I250000J0D01*
G01*
X162359500Y-145909000D01*
G75*
G02*
X162609500Y-146159000I0J-250000D01*
G01*
X162609500Y-147084000D01*
G75*
G02*
X162359500Y-147334000I-250000J0D01*
G01*
G37*
G36*
G01*
X164899500Y-144359000D02*
X163649500Y-144359000D01*
G75*
G02*
X163399500Y-144109000I0J250000D01*
G01*
X163399500Y-143184000D01*
G75*
G02*
X163649500Y-142934000I250000J0D01*
G01*
X164899500Y-142934000D01*
G75*
G02*
X165149500Y-143184000I0J-250000D01*
G01*
X165149500Y-144109000D01*
G75*
G02*
X164899500Y-144359000I-250000J0D01*
G01*
G37*
G36*
G01*
X164899500Y-147334000D02*
X163649500Y-147334000D01*
G75*
G02*
X163399500Y-147084000I0J250000D01*
G01*
X163399500Y-146159000D01*
G75*
G02*
X163649500Y-145909000I250000J0D01*
G01*
X164899500Y-145909000D01*
G75*
G02*
X165149500Y-146159000I0J-250000D01*
G01*
X165149500Y-147084000D01*
G75*
G02*
X164899500Y-147334000I-250000J0D01*
G01*
G37*
G36*
G01*
X159471500Y-117051500D02*
X159171500Y-117051500D01*
G75*
G02*
X159021500Y-116901500I0J150000D01*
G01*
X159021500Y-115251500D01*
G75*
G02*
X159171500Y-115101500I150000J0D01*
G01*
X159471500Y-115101500D01*
G75*
G02*
X159621500Y-115251500I0J-150000D01*
G01*
X159621500Y-116901500D01*
G75*
G02*
X159471500Y-117051500I-150000J0D01*
G01*
G37*
G36*
G01*
X160741500Y-117051500D02*
X160441500Y-117051500D01*
G75*
G02*
X160291500Y-116901500I0J150000D01*
G01*
X160291500Y-115251500D01*
G75*
G02*
X160441500Y-115101500I150000J0D01*
G01*
X160741500Y-115101500D01*
G75*
G02*
X160891500Y-115251500I0J-150000D01*
G01*
X160891500Y-116901500D01*
G75*
G02*
X160741500Y-117051500I-150000J0D01*
G01*
G37*
G36*
G01*
X162011500Y-117051500D02*
X161711500Y-117051500D01*
G75*
G02*
X161561500Y-116901500I0J150000D01*
G01*
X161561500Y-115251500D01*
G75*
G02*
X161711500Y-115101500I150000J0D01*
G01*
X162011500Y-115101500D01*
G75*
G02*
X162161500Y-115251500I0J-150000D01*
G01*
X162161500Y-116901500D01*
G75*
G02*
X162011500Y-117051500I-150000J0D01*
G01*
G37*
G36*
G01*
X163281500Y-117051500D02*
X162981500Y-117051500D01*
G75*
G02*
X162831500Y-116901500I0J150000D01*
G01*
X162831500Y-115251500D01*
G75*
G02*
X162981500Y-115101500I150000J0D01*
G01*
X163281500Y-115101500D01*
G75*
G02*
X163431500Y-115251500I0J-150000D01*
G01*
X163431500Y-116901500D01*
G75*
G02*
X163281500Y-117051500I-150000J0D01*
G01*
G37*
G36*
G01*
X164551500Y-117051500D02*
X164251500Y-117051500D01*
G75*
G02*
X164101500Y-116901500I0J150000D01*
G01*
X164101500Y-115251500D01*
G75*
G02*
X164251500Y-115101500I150000J0D01*
G01*
X164551500Y-115101500D01*
G75*
G02*
X164701500Y-115251500I0J-150000D01*
G01*
X164701500Y-116901500D01*
G75*
G02*
X164551500Y-117051500I-150000J0D01*
G01*
G37*
G36*
G01*
X165821500Y-117051500D02*
X165521500Y-117051500D01*
G75*
G02*
X165371500Y-116901500I0J150000D01*
G01*
X165371500Y-115251500D01*
G75*
G02*
X165521500Y-115101500I150000J0D01*
G01*
X165821500Y-115101500D01*
G75*
G02*
X165971500Y-115251500I0J-150000D01*
G01*
X165971500Y-116901500D01*
G75*
G02*
X165821500Y-117051500I-150000J0D01*
G01*
G37*
G36*
G01*
X167091500Y-117051500D02*
X166791500Y-117051500D01*
G75*
G02*
X166641500Y-116901500I0J150000D01*
G01*
X166641500Y-115251500D01*
G75*
G02*
X166791500Y-115101500I150000J0D01*
G01*
X167091500Y-115101500D01*
G75*
G02*
X167241500Y-115251500I0J-150000D01*
G01*
X167241500Y-116901500D01*
G75*
G02*
X167091500Y-117051500I-150000J0D01*
G01*
G37*
G36*
G01*
X168361500Y-117051500D02*
X168061500Y-117051500D01*
G75*
G02*
X167911500Y-116901500I0J150000D01*
G01*
X167911500Y-115251500D01*
G75*
G02*
X168061500Y-115101500I150000J0D01*
G01*
X168361500Y-115101500D01*
G75*
G02*
X168511500Y-115251500I0J-150000D01*
G01*
X168511500Y-116901500D01*
G75*
G02*
X168361500Y-117051500I-150000J0D01*
G01*
G37*
G36*
G01*
X168361500Y-112101500D02*
X168061500Y-112101500D01*
G75*
G02*
X167911500Y-111951500I0J150000D01*
G01*
X167911500Y-110301500D01*
G75*
G02*
X168061500Y-110151500I150000J0D01*
G01*
X168361500Y-110151500D01*
G75*
G02*
X168511500Y-110301500I0J-150000D01*
G01*
X168511500Y-111951500D01*
G75*
G02*
X168361500Y-112101500I-150000J0D01*
G01*
G37*
G36*
G01*
X167091500Y-112101500D02*
X166791500Y-112101500D01*
G75*
G02*
X166641500Y-111951500I0J150000D01*
G01*
X166641500Y-110301500D01*
G75*
G02*
X166791500Y-110151500I150000J0D01*
G01*
X167091500Y-110151500D01*
G75*
G02*
X167241500Y-110301500I0J-150000D01*
G01*
X167241500Y-111951500D01*
G75*
G02*
X167091500Y-112101500I-150000J0D01*
G01*
G37*
G36*
G01*
X165821500Y-112101500D02*
X165521500Y-112101500D01*
G75*
G02*
X165371500Y-111951500I0J150000D01*
G01*
X165371500Y-110301500D01*
G75*
G02*
X165521500Y-110151500I150000J0D01*
G01*
X165821500Y-110151500D01*
G75*
G02*
X165971500Y-110301500I0J-150000D01*
G01*
X165971500Y-111951500D01*
G75*
G02*
X165821500Y-112101500I-150000J0D01*
G01*
G37*
G36*
G01*
X164551500Y-112101500D02*
X164251500Y-112101500D01*
G75*
G02*
X164101500Y-111951500I0J150000D01*
G01*
X164101500Y-110301500D01*
G75*
G02*
X164251500Y-110151500I150000J0D01*
G01*
X164551500Y-110151500D01*
G75*
G02*
X164701500Y-110301500I0J-150000D01*
G01*
X164701500Y-111951500D01*
G75*
G02*
X164551500Y-112101500I-150000J0D01*
G01*
G37*
G36*
G01*
X163281500Y-112101500D02*
X162981500Y-112101500D01*
G75*
G02*
X162831500Y-111951500I0J150000D01*
G01*
X162831500Y-110301500D01*
G75*
G02*
X162981500Y-110151500I150000J0D01*
G01*
X163281500Y-110151500D01*
G75*
G02*
X163431500Y-110301500I0J-150000D01*
G01*
X163431500Y-111951500D01*
G75*
G02*
X163281500Y-112101500I-150000J0D01*
G01*
G37*
G36*
G01*
X162011500Y-112101500D02*
X161711500Y-112101500D01*
G75*
G02*
X161561500Y-111951500I0J150000D01*
G01*
X161561500Y-110301500D01*
G75*
G02*
X161711500Y-110151500I150000J0D01*
G01*
X162011500Y-110151500D01*
G75*
G02*
X162161500Y-110301500I0J-150000D01*
G01*
X162161500Y-111951500D01*
G75*
G02*
X162011500Y-112101500I-150000J0D01*
G01*
G37*
G36*
G01*
X160741500Y-112101500D02*
X160441500Y-112101500D01*
G75*
G02*
X160291500Y-111951500I0J150000D01*
G01*
X160291500Y-110301500D01*
G75*
G02*
X160441500Y-110151500I150000J0D01*
G01*
X160741500Y-110151500D01*
G75*
G02*
X160891500Y-110301500I0J-150000D01*
G01*
X160891500Y-111951500D01*
G75*
G02*
X160741500Y-112101500I-150000J0D01*
G01*
G37*
G36*
G01*
X159471500Y-112101500D02*
X159171500Y-112101500D01*
G75*
G02*
X159021500Y-111951500I0J150000D01*
G01*
X159021500Y-110301500D01*
G75*
G02*
X159171500Y-110151500I150000J0D01*
G01*
X159471500Y-110151500D01*
G75*
G02*
X159621500Y-110301500I0J-150000D01*
G01*
X159621500Y-111951500D01*
G75*
G02*
X159471500Y-112101500I-150000J0D01*
G01*
G37*
G36*
G01*
X191746500Y-127662500D02*
X191746500Y-129512500D01*
G75*
G02*
X191496500Y-129762500I-250000J0D01*
G01*
X190496500Y-129762500D01*
G75*
G02*
X190246500Y-129512500I0J250000D01*
G01*
X190246500Y-127662500D01*
G75*
G02*
X190496500Y-127412500I250000J0D01*
G01*
X191496500Y-127412500D01*
G75*
G02*
X191746500Y-127662500I0J-250000D01*
G01*
G37*
G36*
G01*
X194996500Y-127662500D02*
X194996500Y-129512500D01*
G75*
G02*
X194746500Y-129762500I-250000J0D01*
G01*
X193746500Y-129762500D01*
G75*
G02*
X193496500Y-129512500I0J250000D01*
G01*
X193496500Y-127662500D01*
G75*
G02*
X193746500Y-127412500I250000J0D01*
G01*
X194746500Y-127412500D01*
G75*
G02*
X194996500Y-127662500I0J-250000D01*
G01*
G37*
G36*
G01*
X180671500Y-127662500D02*
X180671500Y-129512500D01*
G75*
G02*
X180421500Y-129762500I-250000J0D01*
G01*
X179421500Y-129762500D01*
G75*
G02*
X179171500Y-129512500I0J250000D01*
G01*
X179171500Y-127662500D01*
G75*
G02*
X179421500Y-127412500I250000J0D01*
G01*
X180421500Y-127412500D01*
G75*
G02*
X180671500Y-127662500I0J-250000D01*
G01*
G37*
G36*
G01*
X183921500Y-127662500D02*
X183921500Y-129512500D01*
G75*
G02*
X183671500Y-129762500I-250000J0D01*
G01*
X182671500Y-129762500D01*
G75*
G02*
X182421500Y-129512500I0J250000D01*
G01*
X182421500Y-127662500D01*
G75*
G02*
X182671500Y-127412500I250000J0D01*
G01*
X183671500Y-127412500D01*
G75*
G02*
X183921500Y-127662500I0J-250000D01*
G01*
G37*
G36*
G01*
X169394500Y-127662500D02*
X169394500Y-129512500D01*
G75*
G02*
X169144500Y-129762500I-250000J0D01*
G01*
X168144500Y-129762500D01*
G75*
G02*
X167894500Y-129512500I0J250000D01*
G01*
X167894500Y-127662500D01*
G75*
G02*
X168144500Y-127412500I250000J0D01*
G01*
X169144500Y-127412500D01*
G75*
G02*
X169394500Y-127662500I0J-250000D01*
G01*
G37*
G36*
G01*
X172644500Y-127662500D02*
X172644500Y-129512500D01*
G75*
G02*
X172394500Y-129762500I-250000J0D01*
G01*
X171394500Y-129762500D01*
G75*
G02*
X171144500Y-129512500I0J250000D01*
G01*
X171144500Y-127662500D01*
G75*
G02*
X171394500Y-127412500I250000J0D01*
G01*
X172394500Y-127412500D01*
G75*
G02*
X172644500Y-127662500I0J-250000D01*
G01*
G37*
G36*
G01*
X158218500Y-127662500D02*
X158218500Y-129512500D01*
G75*
G02*
X157968500Y-129762500I-250000J0D01*
G01*
X156968500Y-129762500D01*
G75*
G02*
X156718500Y-129512500I0J250000D01*
G01*
X156718500Y-127662500D01*
G75*
G02*
X156968500Y-127412500I250000J0D01*
G01*
X157968500Y-127412500D01*
G75*
G02*
X158218500Y-127662500I0J-250000D01*
G01*
G37*
G36*
G01*
X161468500Y-127662500D02*
X161468500Y-129512500D01*
G75*
G02*
X161218500Y-129762500I-250000J0D01*
G01*
X160218500Y-129762500D01*
G75*
G02*
X159968500Y-129512500I0J250000D01*
G01*
X159968500Y-127662500D01*
G75*
G02*
X160218500Y-127412500I250000J0D01*
G01*
X161218500Y-127412500D01*
G75*
G02*
X161468500Y-127662500I0J-250000D01*
G01*
G37*
G36*
G01*
X193202499Y-94176000D02*
X196052501Y-94176000D01*
G75*
G02*
X196302500Y-94425999I0J-249999D01*
G01*
X196302500Y-95451001D01*
G75*
G02*
X196052501Y-95701000I-249999J0D01*
G01*
X193202499Y-95701000D01*
G75*
G02*
X192952500Y-95451001I0J249999D01*
G01*
X192952500Y-94425999D01*
G75*
G02*
X193202499Y-94176000I249999J0D01*
G01*
G37*
G36*
G01*
X193202499Y-88201000D02*
X196052501Y-88201000D01*
G75*
G02*
X196302500Y-88450999I0J-249999D01*
G01*
X196302500Y-89476001D01*
G75*
G02*
X196052501Y-89726000I-249999J0D01*
G01*
X193202499Y-89726000D01*
G75*
G02*
X192952500Y-89476001I0J249999D01*
G01*
X192952500Y-88450999D01*
G75*
G02*
X193202499Y-88201000I249999J0D01*
G01*
G37*
G36*
G01*
X188122499Y-94176000D02*
X190972501Y-94176000D01*
G75*
G02*
X191222500Y-94425999I0J-249999D01*
G01*
X191222500Y-95451001D01*
G75*
G02*
X190972501Y-95701000I-249999J0D01*
G01*
X188122499Y-95701000D01*
G75*
G02*
X187872500Y-95451001I0J249999D01*
G01*
X187872500Y-94425999D01*
G75*
G02*
X188122499Y-94176000I249999J0D01*
G01*
G37*
G36*
G01*
X188122499Y-88201000D02*
X190972501Y-88201000D01*
G75*
G02*
X191222500Y-88450999I0J-249999D01*
G01*
X191222500Y-89476001D01*
G75*
G02*
X190972501Y-89726000I-249999J0D01*
G01*
X188122499Y-89726000D01*
G75*
G02*
X187872500Y-89476001I0J249999D01*
G01*
X187872500Y-88450999D01*
G75*
G02*
X188122499Y-88201000I249999J0D01*
G01*
G37*
G36*
G01*
X183042499Y-94176000D02*
X185892501Y-94176000D01*
G75*
G02*
X186142500Y-94425999I0J-249999D01*
G01*
X186142500Y-95451001D01*
G75*
G02*
X185892501Y-95701000I-249999J0D01*
G01*
X183042499Y-95701000D01*
G75*
G02*
X182792500Y-95451001I0J249999D01*
G01*
X182792500Y-94425999D01*
G75*
G02*
X183042499Y-94176000I249999J0D01*
G01*
G37*
G36*
G01*
X183042499Y-88201000D02*
X185892501Y-88201000D01*
G75*
G02*
X186142500Y-88450999I0J-249999D01*
G01*
X186142500Y-89476001D01*
G75*
G02*
X185892501Y-89726000I-249999J0D01*
G01*
X183042499Y-89726000D01*
G75*
G02*
X182792500Y-89476001I0J249999D01*
G01*
X182792500Y-88450999D01*
G75*
G02*
X183042499Y-88201000I249999J0D01*
G01*
G37*
G36*
G01*
X177962499Y-94176000D02*
X180812501Y-94176000D01*
G75*
G02*
X181062500Y-94425999I0J-249999D01*
G01*
X181062500Y-95451001D01*
G75*
G02*
X180812501Y-95701000I-249999J0D01*
G01*
X177962499Y-95701000D01*
G75*
G02*
X177712500Y-95451001I0J249999D01*
G01*
X177712500Y-94425999D01*
G75*
G02*
X177962499Y-94176000I249999J0D01*
G01*
G37*
G36*
G01*
X177962499Y-88201000D02*
X180812501Y-88201000D01*
G75*
G02*
X181062500Y-88450999I0J-249999D01*
G01*
X181062500Y-89476001D01*
G75*
G02*
X180812501Y-89726000I-249999J0D01*
G01*
X177962499Y-89726000D01*
G75*
G02*
X177712500Y-89476001I0J249999D01*
G01*
X177712500Y-88450999D01*
G75*
G02*
X177962499Y-88201000I249999J0D01*
G01*
G37*
G36*
G01*
X192263500Y-136265499D02*
X192263500Y-137165501D01*
G75*
G02*
X192013501Y-137415500I-249999J0D01*
G01*
X191363499Y-137415500D01*
G75*
G02*
X191113500Y-137165501I0J249999D01*
G01*
X191113500Y-136265499D01*
G75*
G02*
X191363499Y-136015500I249999J0D01*
G01*
X192013501Y-136015500D01*
G75*
G02*
X192263500Y-136265499I0J-249999D01*
G01*
G37*
G36*
G01*
X194313500Y-136265499D02*
X194313500Y-137165501D01*
G75*
G02*
X194063501Y-137415500I-249999J0D01*
G01*
X193413499Y-137415500D01*
G75*
G02*
X193163500Y-137165501I0J249999D01*
G01*
X193163500Y-136265499D01*
G75*
G02*
X193413499Y-136015500I249999J0D01*
G01*
X194063501Y-136015500D01*
G75*
G02*
X194313500Y-136265499I0J-249999D01*
G01*
G37*
G36*
G01*
X180833500Y-136265499D02*
X180833500Y-137165501D01*
G75*
G02*
X180583501Y-137415500I-249999J0D01*
G01*
X179933499Y-137415500D01*
G75*
G02*
X179683500Y-137165501I0J249999D01*
G01*
X179683500Y-136265499D01*
G75*
G02*
X179933499Y-136015500I249999J0D01*
G01*
X180583501Y-136015500D01*
G75*
G02*
X180833500Y-136265499I0J-249999D01*
G01*
G37*
G36*
G01*
X182883500Y-136265499D02*
X182883500Y-137165501D01*
G75*
G02*
X182633501Y-137415500I-249999J0D01*
G01*
X181983499Y-137415500D01*
G75*
G02*
X181733500Y-137165501I0J249999D01*
G01*
X181733500Y-136265499D01*
G75*
G02*
X181983499Y-136015500I249999J0D01*
G01*
X182633501Y-136015500D01*
G75*
G02*
X182883500Y-136265499I0J-249999D01*
G01*
G37*
G36*
G01*
X158744500Y-136265499D02*
X158744500Y-137165501D01*
G75*
G02*
X158494501Y-137415500I-249999J0D01*
G01*
X157844499Y-137415500D01*
G75*
G02*
X157594500Y-137165501I0J249999D01*
G01*
X157594500Y-136265499D01*
G75*
G02*
X157844499Y-136015500I249999J0D01*
G01*
X158494501Y-136015500D01*
G75*
G02*
X158744500Y-136265499I0J-249999D01*
G01*
G37*
G36*
G01*
X160794500Y-136265499D02*
X160794500Y-137165501D01*
G75*
G02*
X160544501Y-137415500I-249999J0D01*
G01*
X159894499Y-137415500D01*
G75*
G02*
X159644500Y-137165501I0J249999D01*
G01*
X159644500Y-136265499D01*
G75*
G02*
X159894499Y-136015500I249999J0D01*
G01*
X160544501Y-136015500D01*
G75*
G02*
X160794500Y-136265499I0J-249999D01*
G01*
G37*
G36*
G01*
X169911500Y-136265499D02*
X169911500Y-137165501D01*
G75*
G02*
X169661501Y-137415500I-249999J0D01*
G01*
X169011499Y-137415500D01*
G75*
G02*
X168761500Y-137165501I0J249999D01*
G01*
X168761500Y-136265499D01*
G75*
G02*
X169011499Y-136015500I249999J0D01*
G01*
X169661501Y-136015500D01*
G75*
G02*
X169911500Y-136265499I0J-249999D01*
G01*
G37*
G36*
G01*
X171961500Y-136265499D02*
X171961500Y-137165501D01*
G75*
G02*
X171711501Y-137415500I-249999J0D01*
G01*
X171061499Y-137415500D01*
G75*
G02*
X170811500Y-137165501I0J249999D01*
G01*
X170811500Y-136265499D01*
G75*
G02*
X171061499Y-136015500I249999J0D01*
G01*
X171711501Y-136015500D01*
G75*
G02*
X171961500Y-136265499I0J-249999D01*
G01*
G37*
G36*
G01*
X177962499Y-102286000D02*
X180812501Y-102286000D01*
G75*
G02*
X181062500Y-102535999I0J-249999D01*
G01*
X181062500Y-103561001D01*
G75*
G02*
X180812501Y-103811000I-249999J0D01*
G01*
X177962499Y-103811000D01*
G75*
G02*
X177712500Y-103561001I0J249999D01*
G01*
X177712500Y-102535999D01*
G75*
G02*
X177962499Y-102286000I249999J0D01*
G01*
G37*
G36*
G01*
X177962499Y-96311000D02*
X180812501Y-96311000D01*
G75*
G02*
X181062500Y-96560999I0J-249999D01*
G01*
X181062500Y-97586001D01*
G75*
G02*
X180812501Y-97836000I-249999J0D01*
G01*
X177962499Y-97836000D01*
G75*
G02*
X177712500Y-97586001I0J249999D01*
G01*
X177712500Y-96560999D01*
G75*
G02*
X177962499Y-96311000I249999J0D01*
G01*
G37*
G36*
G01*
X183042499Y-102286000D02*
X185892501Y-102286000D01*
G75*
G02*
X186142500Y-102535999I0J-249999D01*
G01*
X186142500Y-103561001D01*
G75*
G02*
X185892501Y-103811000I-249999J0D01*
G01*
X183042499Y-103811000D01*
G75*
G02*
X182792500Y-103561001I0J249999D01*
G01*
X182792500Y-102535999D01*
G75*
G02*
X183042499Y-102286000I249999J0D01*
G01*
G37*
G36*
G01*
X183042499Y-96311000D02*
X185892501Y-96311000D01*
G75*
G02*
X186142500Y-96560999I0J-249999D01*
G01*
X186142500Y-97586001D01*
G75*
G02*
X185892501Y-97836000I-249999J0D01*
G01*
X183042499Y-97836000D01*
G75*
G02*
X182792500Y-97586001I0J249999D01*
G01*
X182792500Y-96560999D01*
G75*
G02*
X183042499Y-96311000I249999J0D01*
G01*
G37*
G36*
G01*
X188122499Y-102286000D02*
X190972501Y-102286000D01*
G75*
G02*
X191222500Y-102535999I0J-249999D01*
G01*
X191222500Y-103561001D01*
G75*
G02*
X190972501Y-103811000I-249999J0D01*
G01*
X188122499Y-103811000D01*
G75*
G02*
X187872500Y-103561001I0J249999D01*
G01*
X187872500Y-102535999D01*
G75*
G02*
X188122499Y-102286000I249999J0D01*
G01*
G37*
G36*
G01*
X188122499Y-96311000D02*
X190972501Y-96311000D01*
G75*
G02*
X191222500Y-96560999I0J-249999D01*
G01*
X191222500Y-97586001D01*
G75*
G02*
X190972501Y-97836000I-249999J0D01*
G01*
X188122499Y-97836000D01*
G75*
G02*
X187872500Y-97586001I0J249999D01*
G01*
X187872500Y-96560999D01*
G75*
G02*
X188122499Y-96311000I249999J0D01*
G01*
G37*
G36*
G01*
X193202499Y-102286000D02*
X196052501Y-102286000D01*
G75*
G02*
X196302500Y-102535999I0J-249999D01*
G01*
X196302500Y-103561001D01*
G75*
G02*
X196052501Y-103811000I-249999J0D01*
G01*
X193202499Y-103811000D01*
G75*
G02*
X192952500Y-103561001I0J249999D01*
G01*
X192952500Y-102535999D01*
G75*
G02*
X193202499Y-102286000I249999J0D01*
G01*
G37*
G36*
G01*
X193202499Y-96311000D02*
X196052501Y-96311000D01*
G75*
G02*
X196302500Y-96560999I0J-249999D01*
G01*
X196302500Y-97586001D01*
G75*
G02*
X196052501Y-97836000I-249999J0D01*
G01*
X193202499Y-97836000D01*
G75*
G02*
X192952500Y-97586001I0J249999D01*
G01*
X192952500Y-96560999D01*
G75*
G02*
X193202499Y-96311000I249999J0D01*
G01*
G37*
M02*
