G04 #@! TF.GenerationSoftware,KiCad,Pcbnew,(5.1.6)-1*
G04 #@! TF.CreationDate,2021-11-05T18:09:41+01:00*
G04 #@! TF.ProjectId,hamodule,68616d6f-6475-46c6-952e-6b696361645f,rev?*
G04 #@! TF.SameCoordinates,Original*
G04 #@! TF.FileFunction,Soldermask,Top*
G04 #@! TF.FilePolarity,Negative*
%FSLAX46Y46*%
G04 Gerber Fmt 4.6, Leading zero omitted, Abs format (unit mm)*
G04 Created by KiCad (PCBNEW (5.1.6)-1) date 2021-11-05 18:09:41*
%MOMM*%
%LPD*%
G01*
G04 APERTURE LIST*
%ADD10C,1.700000*%
%ADD11R,1.700000X1.700000*%
%ADD12O,2.100000X2.005000*%
%ADD13R,2.100000X2.005000*%
%ADD14O,1.800000X2.050000*%
%ADD15C,1.750000*%
%ADD16R,1.750000X1.750000*%
%ADD17C,2.100000*%
%ADD18O,1.800000X1.800000*%
%ADD19R,1.800000X1.800000*%
%ADD20O,1.800000X2.100000*%
%ADD21C,1.900000*%
%ADD22C,5.600000*%
%ADD23R,1.700000X2.500000*%
%ADD24O,1.700000X2.500000*%
G04 APERTURE END LIST*
G36*
G01*
X193520044Y-108030500D02*
X195734956Y-108030500D01*
G75*
G02*
X196002500Y-108298044I0J-267544D01*
G01*
X196002500Y-109287956D01*
G75*
G02*
X195734956Y-109555500I-267544J0D01*
G01*
X193520044Y-109555500D01*
G75*
G02*
X193252500Y-109287956I0J267544D01*
G01*
X193252500Y-108298044D01*
G75*
G02*
X193520044Y-108030500I267544J0D01*
G01*
G37*
G36*
G01*
X193520044Y-105055500D02*
X195734956Y-105055500D01*
G75*
G02*
X196002500Y-105323044I0J-267544D01*
G01*
X196002500Y-106312956D01*
G75*
G02*
X195734956Y-106580500I-267544J0D01*
G01*
X193520044Y-106580500D01*
G75*
G02*
X193252500Y-106312956I0J267544D01*
G01*
X193252500Y-105323044D01*
G75*
G02*
X193520044Y-105055500I267544J0D01*
G01*
G37*
G36*
G01*
X188440044Y-108030500D02*
X190654956Y-108030500D01*
G75*
G02*
X190922500Y-108298044I0J-267544D01*
G01*
X190922500Y-109287956D01*
G75*
G02*
X190654956Y-109555500I-267544J0D01*
G01*
X188440044Y-109555500D01*
G75*
G02*
X188172500Y-109287956I0J267544D01*
G01*
X188172500Y-108298044D01*
G75*
G02*
X188440044Y-108030500I267544J0D01*
G01*
G37*
G36*
G01*
X188440044Y-105055500D02*
X190654956Y-105055500D01*
G75*
G02*
X190922500Y-105323044I0J-267544D01*
G01*
X190922500Y-106312956D01*
G75*
G02*
X190654956Y-106580500I-267544J0D01*
G01*
X188440044Y-106580500D01*
G75*
G02*
X188172500Y-106312956I0J267544D01*
G01*
X188172500Y-105323044D01*
G75*
G02*
X188440044Y-105055500I267544J0D01*
G01*
G37*
G36*
G01*
X183360044Y-108030500D02*
X185574956Y-108030500D01*
G75*
G02*
X185842500Y-108298044I0J-267544D01*
G01*
X185842500Y-109287956D01*
G75*
G02*
X185574956Y-109555500I-267544J0D01*
G01*
X183360044Y-109555500D01*
G75*
G02*
X183092500Y-109287956I0J267544D01*
G01*
X183092500Y-108298044D01*
G75*
G02*
X183360044Y-108030500I267544J0D01*
G01*
G37*
G36*
G01*
X183360044Y-105055500D02*
X185574956Y-105055500D01*
G75*
G02*
X185842500Y-105323044I0J-267544D01*
G01*
X185842500Y-106312956D01*
G75*
G02*
X185574956Y-106580500I-267544J0D01*
G01*
X183360044Y-106580500D01*
G75*
G02*
X183092500Y-106312956I0J267544D01*
G01*
X183092500Y-105323044D01*
G75*
G02*
X183360044Y-105055500I267544J0D01*
G01*
G37*
G36*
G01*
X178280044Y-108094000D02*
X180494956Y-108094000D01*
G75*
G02*
X180762500Y-108361544I0J-267544D01*
G01*
X180762500Y-109351456D01*
G75*
G02*
X180494956Y-109619000I-267544J0D01*
G01*
X178280044Y-109619000D01*
G75*
G02*
X178012500Y-109351456I0J267544D01*
G01*
X178012500Y-108361544D01*
G75*
G02*
X178280044Y-108094000I267544J0D01*
G01*
G37*
G36*
G01*
X178280044Y-105119000D02*
X180494956Y-105119000D01*
G75*
G02*
X180762500Y-105386544I0J-267544D01*
G01*
X180762500Y-106376456D01*
G75*
G02*
X180494956Y-106644000I-267544J0D01*
G01*
X178280044Y-106644000D01*
G75*
G02*
X178012500Y-106376456I0J267544D01*
G01*
X178012500Y-105386544D01*
G75*
G02*
X178280044Y-105119000I267544J0D01*
G01*
G37*
G36*
G01*
X132240762Y-139118500D02*
X131284238Y-139118500D01*
G75*
G02*
X131012500Y-138846762I0J271738D01*
G01*
X131012500Y-138140238D01*
G75*
G02*
X131284238Y-137868500I271738J0D01*
G01*
X132240762Y-137868500D01*
G75*
G02*
X132512500Y-138140238I0J-271738D01*
G01*
X132512500Y-138846762D01*
G75*
G02*
X132240762Y-139118500I-271738J0D01*
G01*
G37*
G36*
G01*
X132240762Y-141168500D02*
X131284238Y-141168500D01*
G75*
G02*
X131012500Y-140896762I0J271738D01*
G01*
X131012500Y-140190238D01*
G75*
G02*
X131284238Y-139918500I271738J0D01*
G01*
X132240762Y-139918500D01*
G75*
G02*
X132512500Y-140190238I0J-271738D01*
G01*
X132512500Y-140896762D01*
G75*
G02*
X132240762Y-141168500I-271738J0D01*
G01*
G37*
G36*
G01*
X131284238Y-146014500D02*
X132240762Y-146014500D01*
G75*
G02*
X132512500Y-146286238I0J-271738D01*
G01*
X132512500Y-146992762D01*
G75*
G02*
X132240762Y-147264500I-271738J0D01*
G01*
X131284238Y-147264500D01*
G75*
G02*
X131012500Y-146992762I0J271738D01*
G01*
X131012500Y-146286238D01*
G75*
G02*
X131284238Y-146014500I271738J0D01*
G01*
G37*
G36*
G01*
X131284238Y-143964500D02*
X132240762Y-143964500D01*
G75*
G02*
X132512500Y-144236238I0J-271738D01*
G01*
X132512500Y-144942762D01*
G75*
G02*
X132240762Y-145214500I-271738J0D01*
G01*
X131284238Y-145214500D01*
G75*
G02*
X131012500Y-144942762I0J271738D01*
G01*
X131012500Y-144236238D01*
G75*
G02*
X131284238Y-143964500I271738J0D01*
G01*
G37*
D10*
X136334500Y-147089500D03*
D11*
X136334500Y-144589500D03*
D10*
X136334500Y-137517500D03*
D11*
X136334500Y-140017500D03*
D12*
X129222500Y-140525500D03*
X129222500Y-143065500D03*
D13*
X129222500Y-145605500D03*
D14*
X176346500Y-144843500D03*
X173846500Y-144843500D03*
X171346500Y-144843500D03*
G36*
G01*
X167946500Y-145603794D02*
X167946500Y-144083206D01*
G75*
G02*
X168211206Y-143818500I264706J0D01*
G01*
X169481794Y-143818500D01*
G75*
G02*
X169746500Y-144083206I0J-264706D01*
G01*
X169746500Y-145603794D01*
G75*
G02*
X169481794Y-145868500I-264706J0D01*
G01*
X168211206Y-145868500D01*
G75*
G02*
X167946500Y-145603794I0J264706D01*
G01*
G37*
G36*
G01*
X157132762Y-110906500D02*
X156176238Y-110906500D01*
G75*
G02*
X155904500Y-110634762I0J271738D01*
G01*
X155904500Y-109928238D01*
G75*
G02*
X156176238Y-109656500I271738J0D01*
G01*
X157132762Y-109656500D01*
G75*
G02*
X157404500Y-109928238I0J-271738D01*
G01*
X157404500Y-110634762D01*
G75*
G02*
X157132762Y-110906500I-271738J0D01*
G01*
G37*
G36*
G01*
X157132762Y-112956500D02*
X156176238Y-112956500D01*
G75*
G02*
X155904500Y-112684762I0J271738D01*
G01*
X155904500Y-111978238D01*
G75*
G02*
X156176238Y-111706500I271738J0D01*
G01*
X157132762Y-111706500D01*
G75*
G02*
X157404500Y-111978238I0J-271738D01*
G01*
X157404500Y-112684762D01*
G75*
G02*
X157132762Y-112956500I-271738J0D01*
G01*
G37*
G36*
G01*
X154592762Y-110915500D02*
X153636238Y-110915500D01*
G75*
G02*
X153364500Y-110643762I0J271738D01*
G01*
X153364500Y-109937238D01*
G75*
G02*
X153636238Y-109665500I271738J0D01*
G01*
X154592762Y-109665500D01*
G75*
G02*
X154864500Y-109937238I0J-271738D01*
G01*
X154864500Y-110643762D01*
G75*
G02*
X154592762Y-110915500I-271738J0D01*
G01*
G37*
G36*
G01*
X154592762Y-112965500D02*
X153636238Y-112965500D01*
G75*
G02*
X153364500Y-112693762I0J271738D01*
G01*
X153364500Y-111987238D01*
G75*
G02*
X153636238Y-111715500I271738J0D01*
G01*
X154592762Y-111715500D01*
G75*
G02*
X154864500Y-111987238I0J-271738D01*
G01*
X154864500Y-112693762D01*
G75*
G02*
X154592762Y-112965500I-271738J0D01*
G01*
G37*
G36*
G01*
X169638238Y-114264500D02*
X170594762Y-114264500D01*
G75*
G02*
X170866500Y-114536238I0J-271738D01*
G01*
X170866500Y-115242762D01*
G75*
G02*
X170594762Y-115514500I-271738J0D01*
G01*
X169638238Y-115514500D01*
G75*
G02*
X169366500Y-115242762I0J271738D01*
G01*
X169366500Y-114536238D01*
G75*
G02*
X169638238Y-114264500I271738J0D01*
G01*
G37*
G36*
G01*
X169638238Y-112214500D02*
X170594762Y-112214500D01*
G75*
G02*
X170866500Y-112486238I0J-271738D01*
G01*
X170866500Y-113192762D01*
G75*
G02*
X170594762Y-113464500I-271738J0D01*
G01*
X169638238Y-113464500D01*
G75*
G02*
X169366500Y-113192762I0J271738D01*
G01*
X169366500Y-112486238D01*
G75*
G02*
X169638238Y-112214500I271738J0D01*
G01*
G37*
G36*
G01*
X157311956Y-144409000D02*
X155997044Y-144409000D01*
G75*
G02*
X155729500Y-144141456I0J267544D01*
G01*
X155729500Y-143151544D01*
G75*
G02*
X155997044Y-142884000I267544J0D01*
G01*
X157311956Y-142884000D01*
G75*
G02*
X157579500Y-143151544I0J-267544D01*
G01*
X157579500Y-144141456D01*
G75*
G02*
X157311956Y-144409000I-267544J0D01*
G01*
G37*
G36*
G01*
X157311956Y-147384000D02*
X155997044Y-147384000D01*
G75*
G02*
X155729500Y-147116456I0J267544D01*
G01*
X155729500Y-146126544D01*
G75*
G02*
X155997044Y-145859000I267544J0D01*
G01*
X157311956Y-145859000D01*
G75*
G02*
X157579500Y-146126544I0J-267544D01*
G01*
X157579500Y-147116456D01*
G75*
G02*
X157311956Y-147384000I-267544J0D01*
G01*
G37*
G36*
G01*
X159851956Y-144409000D02*
X158537044Y-144409000D01*
G75*
G02*
X158269500Y-144141456I0J267544D01*
G01*
X158269500Y-143151544D01*
G75*
G02*
X158537044Y-142884000I267544J0D01*
G01*
X159851956Y-142884000D01*
G75*
G02*
X160119500Y-143151544I0J-267544D01*
G01*
X160119500Y-144141456D01*
G75*
G02*
X159851956Y-144409000I-267544J0D01*
G01*
G37*
G36*
G01*
X159851956Y-147384000D02*
X158537044Y-147384000D01*
G75*
G02*
X158269500Y-147116456I0J267544D01*
G01*
X158269500Y-146126544D01*
G75*
G02*
X158537044Y-145859000I267544J0D01*
G01*
X159851956Y-145859000D01*
G75*
G02*
X160119500Y-146126544I0J-267544D01*
G01*
X160119500Y-147116456D01*
G75*
G02*
X159851956Y-147384000I-267544J0D01*
G01*
G37*
G36*
G01*
X162391956Y-144409000D02*
X161077044Y-144409000D01*
G75*
G02*
X160809500Y-144141456I0J267544D01*
G01*
X160809500Y-143151544D01*
G75*
G02*
X161077044Y-142884000I267544J0D01*
G01*
X162391956Y-142884000D01*
G75*
G02*
X162659500Y-143151544I0J-267544D01*
G01*
X162659500Y-144141456D01*
G75*
G02*
X162391956Y-144409000I-267544J0D01*
G01*
G37*
G36*
G01*
X162391956Y-147384000D02*
X161077044Y-147384000D01*
G75*
G02*
X160809500Y-147116456I0J267544D01*
G01*
X160809500Y-146126544D01*
G75*
G02*
X161077044Y-145859000I267544J0D01*
G01*
X162391956Y-145859000D01*
G75*
G02*
X162659500Y-146126544I0J-267544D01*
G01*
X162659500Y-147116456D01*
G75*
G02*
X162391956Y-147384000I-267544J0D01*
G01*
G37*
G36*
G01*
X164931956Y-144409000D02*
X163617044Y-144409000D01*
G75*
G02*
X163349500Y-144141456I0J267544D01*
G01*
X163349500Y-143151544D01*
G75*
G02*
X163617044Y-142884000I267544J0D01*
G01*
X164931956Y-142884000D01*
G75*
G02*
X165199500Y-143151544I0J-267544D01*
G01*
X165199500Y-144141456D01*
G75*
G02*
X164931956Y-144409000I-267544J0D01*
G01*
G37*
G36*
G01*
X164931956Y-147384000D02*
X163617044Y-147384000D01*
G75*
G02*
X163349500Y-147116456I0J267544D01*
G01*
X163349500Y-146126544D01*
G75*
G02*
X163617044Y-145859000I267544J0D01*
G01*
X164931956Y-145859000D01*
G75*
G02*
X165199500Y-146126544I0J-267544D01*
G01*
X165199500Y-147116456D01*
G75*
G02*
X164931956Y-147384000I-267544J0D01*
G01*
G37*
D15*
X149476500Y-113587500D03*
X149476500Y-123587500D03*
X129476500Y-128587500D03*
D16*
X129476500Y-108587500D03*
G36*
G01*
X169466500Y-82333500D02*
X170766500Y-82333500D01*
G75*
G02*
X171416500Y-82983500I0J-650000D01*
G01*
X171416500Y-84783500D01*
G75*
G02*
X170766500Y-85433500I-650000J0D01*
G01*
X169466500Y-85433500D01*
G75*
G02*
X168816500Y-84783500I0J650000D01*
G01*
X168816500Y-82983500D01*
G75*
G02*
X169466500Y-82333500I650000J0D01*
G01*
G37*
G36*
G01*
X169466500Y-73633500D02*
X170766500Y-73633500D01*
G75*
G02*
X171416500Y-74283500I0J-650000D01*
G01*
X171416500Y-76083500D01*
G75*
G02*
X170766500Y-76733500I-650000J0D01*
G01*
X169466500Y-76733500D01*
G75*
G02*
X168816500Y-76083500I0J650000D01*
G01*
X168816500Y-74283500D01*
G75*
G02*
X169466500Y-73633500I650000J0D01*
G01*
G37*
G36*
G01*
X164386500Y-82333500D02*
X165686500Y-82333500D01*
G75*
G02*
X166336500Y-82983500I0J-650000D01*
G01*
X166336500Y-84783500D01*
G75*
G02*
X165686500Y-85433500I-650000J0D01*
G01*
X164386500Y-85433500D01*
G75*
G02*
X163736500Y-84783500I0J650000D01*
G01*
X163736500Y-82983500D01*
G75*
G02*
X164386500Y-82333500I650000J0D01*
G01*
G37*
G36*
G01*
X164386500Y-73633500D02*
X165686500Y-73633500D01*
G75*
G02*
X166336500Y-74283500I0J-650000D01*
G01*
X166336500Y-76083500D01*
G75*
G02*
X165686500Y-76733500I-650000J0D01*
G01*
X164386500Y-76733500D01*
G75*
G02*
X163736500Y-76083500I0J650000D01*
G01*
X163736500Y-74283500D01*
G75*
G02*
X164386500Y-73633500I650000J0D01*
G01*
G37*
G36*
G01*
X159306500Y-82333500D02*
X160606500Y-82333500D01*
G75*
G02*
X161256500Y-82983500I0J-650000D01*
G01*
X161256500Y-84783500D01*
G75*
G02*
X160606500Y-85433500I-650000J0D01*
G01*
X159306500Y-85433500D01*
G75*
G02*
X158656500Y-84783500I0J650000D01*
G01*
X158656500Y-82983500D01*
G75*
G02*
X159306500Y-82333500I650000J0D01*
G01*
G37*
G36*
G01*
X159306500Y-73633500D02*
X160606500Y-73633500D01*
G75*
G02*
X161256500Y-74283500I0J-650000D01*
G01*
X161256500Y-76083500D01*
G75*
G02*
X160606500Y-76733500I-650000J0D01*
G01*
X159306500Y-76733500D01*
G75*
G02*
X158656500Y-76083500I0J650000D01*
G01*
X158656500Y-74283500D01*
G75*
G02*
X159306500Y-73633500I650000J0D01*
G01*
G37*
G36*
G01*
X154226500Y-82333500D02*
X155526500Y-82333500D01*
G75*
G02*
X156176500Y-82983500I0J-650000D01*
G01*
X156176500Y-84783500D01*
G75*
G02*
X155526500Y-85433500I-650000J0D01*
G01*
X154226500Y-85433500D01*
G75*
G02*
X153576500Y-84783500I0J650000D01*
G01*
X153576500Y-82983500D01*
G75*
G02*
X154226500Y-82333500I650000J0D01*
G01*
G37*
G36*
G01*
X154226500Y-73633500D02*
X155526500Y-73633500D01*
G75*
G02*
X156176500Y-74283500I0J-650000D01*
G01*
X156176500Y-76083500D01*
G75*
G02*
X155526500Y-76733500I-650000J0D01*
G01*
X154226500Y-76733500D01*
G75*
G02*
X153576500Y-76083500I0J650000D01*
G01*
X153576500Y-74283500D01*
G75*
G02*
X154226500Y-73633500I650000J0D01*
G01*
G37*
G36*
G01*
X159496500Y-117101500D02*
X159146500Y-117101500D01*
G75*
G02*
X158971500Y-116926500I0J175000D01*
G01*
X158971500Y-115226500D01*
G75*
G02*
X159146500Y-115051500I175000J0D01*
G01*
X159496500Y-115051500D01*
G75*
G02*
X159671500Y-115226500I0J-175000D01*
G01*
X159671500Y-116926500D01*
G75*
G02*
X159496500Y-117101500I-175000J0D01*
G01*
G37*
G36*
G01*
X160766500Y-117101500D02*
X160416500Y-117101500D01*
G75*
G02*
X160241500Y-116926500I0J175000D01*
G01*
X160241500Y-115226500D01*
G75*
G02*
X160416500Y-115051500I175000J0D01*
G01*
X160766500Y-115051500D01*
G75*
G02*
X160941500Y-115226500I0J-175000D01*
G01*
X160941500Y-116926500D01*
G75*
G02*
X160766500Y-117101500I-175000J0D01*
G01*
G37*
G36*
G01*
X162036500Y-117101500D02*
X161686500Y-117101500D01*
G75*
G02*
X161511500Y-116926500I0J175000D01*
G01*
X161511500Y-115226500D01*
G75*
G02*
X161686500Y-115051500I175000J0D01*
G01*
X162036500Y-115051500D01*
G75*
G02*
X162211500Y-115226500I0J-175000D01*
G01*
X162211500Y-116926500D01*
G75*
G02*
X162036500Y-117101500I-175000J0D01*
G01*
G37*
G36*
G01*
X163306500Y-117101500D02*
X162956500Y-117101500D01*
G75*
G02*
X162781500Y-116926500I0J175000D01*
G01*
X162781500Y-115226500D01*
G75*
G02*
X162956500Y-115051500I175000J0D01*
G01*
X163306500Y-115051500D01*
G75*
G02*
X163481500Y-115226500I0J-175000D01*
G01*
X163481500Y-116926500D01*
G75*
G02*
X163306500Y-117101500I-175000J0D01*
G01*
G37*
G36*
G01*
X164576500Y-117101500D02*
X164226500Y-117101500D01*
G75*
G02*
X164051500Y-116926500I0J175000D01*
G01*
X164051500Y-115226500D01*
G75*
G02*
X164226500Y-115051500I175000J0D01*
G01*
X164576500Y-115051500D01*
G75*
G02*
X164751500Y-115226500I0J-175000D01*
G01*
X164751500Y-116926500D01*
G75*
G02*
X164576500Y-117101500I-175000J0D01*
G01*
G37*
G36*
G01*
X165846500Y-117101500D02*
X165496500Y-117101500D01*
G75*
G02*
X165321500Y-116926500I0J175000D01*
G01*
X165321500Y-115226500D01*
G75*
G02*
X165496500Y-115051500I175000J0D01*
G01*
X165846500Y-115051500D01*
G75*
G02*
X166021500Y-115226500I0J-175000D01*
G01*
X166021500Y-116926500D01*
G75*
G02*
X165846500Y-117101500I-175000J0D01*
G01*
G37*
G36*
G01*
X167116500Y-117101500D02*
X166766500Y-117101500D01*
G75*
G02*
X166591500Y-116926500I0J175000D01*
G01*
X166591500Y-115226500D01*
G75*
G02*
X166766500Y-115051500I175000J0D01*
G01*
X167116500Y-115051500D01*
G75*
G02*
X167291500Y-115226500I0J-175000D01*
G01*
X167291500Y-116926500D01*
G75*
G02*
X167116500Y-117101500I-175000J0D01*
G01*
G37*
G36*
G01*
X168386500Y-117101500D02*
X168036500Y-117101500D01*
G75*
G02*
X167861500Y-116926500I0J175000D01*
G01*
X167861500Y-115226500D01*
G75*
G02*
X168036500Y-115051500I175000J0D01*
G01*
X168386500Y-115051500D01*
G75*
G02*
X168561500Y-115226500I0J-175000D01*
G01*
X168561500Y-116926500D01*
G75*
G02*
X168386500Y-117101500I-175000J0D01*
G01*
G37*
G36*
G01*
X168386500Y-112151500D02*
X168036500Y-112151500D01*
G75*
G02*
X167861500Y-111976500I0J175000D01*
G01*
X167861500Y-110276500D01*
G75*
G02*
X168036500Y-110101500I175000J0D01*
G01*
X168386500Y-110101500D01*
G75*
G02*
X168561500Y-110276500I0J-175000D01*
G01*
X168561500Y-111976500D01*
G75*
G02*
X168386500Y-112151500I-175000J0D01*
G01*
G37*
G36*
G01*
X167116500Y-112151500D02*
X166766500Y-112151500D01*
G75*
G02*
X166591500Y-111976500I0J175000D01*
G01*
X166591500Y-110276500D01*
G75*
G02*
X166766500Y-110101500I175000J0D01*
G01*
X167116500Y-110101500D01*
G75*
G02*
X167291500Y-110276500I0J-175000D01*
G01*
X167291500Y-111976500D01*
G75*
G02*
X167116500Y-112151500I-175000J0D01*
G01*
G37*
G36*
G01*
X165846500Y-112151500D02*
X165496500Y-112151500D01*
G75*
G02*
X165321500Y-111976500I0J175000D01*
G01*
X165321500Y-110276500D01*
G75*
G02*
X165496500Y-110101500I175000J0D01*
G01*
X165846500Y-110101500D01*
G75*
G02*
X166021500Y-110276500I0J-175000D01*
G01*
X166021500Y-111976500D01*
G75*
G02*
X165846500Y-112151500I-175000J0D01*
G01*
G37*
G36*
G01*
X164576500Y-112151500D02*
X164226500Y-112151500D01*
G75*
G02*
X164051500Y-111976500I0J175000D01*
G01*
X164051500Y-110276500D01*
G75*
G02*
X164226500Y-110101500I175000J0D01*
G01*
X164576500Y-110101500D01*
G75*
G02*
X164751500Y-110276500I0J-175000D01*
G01*
X164751500Y-111976500D01*
G75*
G02*
X164576500Y-112151500I-175000J0D01*
G01*
G37*
G36*
G01*
X163306500Y-112151500D02*
X162956500Y-112151500D01*
G75*
G02*
X162781500Y-111976500I0J175000D01*
G01*
X162781500Y-110276500D01*
G75*
G02*
X162956500Y-110101500I175000J0D01*
G01*
X163306500Y-110101500D01*
G75*
G02*
X163481500Y-110276500I0J-175000D01*
G01*
X163481500Y-111976500D01*
G75*
G02*
X163306500Y-112151500I-175000J0D01*
G01*
G37*
G36*
G01*
X162036500Y-112151500D02*
X161686500Y-112151500D01*
G75*
G02*
X161511500Y-111976500I0J175000D01*
G01*
X161511500Y-110276500D01*
G75*
G02*
X161686500Y-110101500I175000J0D01*
G01*
X162036500Y-110101500D01*
G75*
G02*
X162211500Y-110276500I0J-175000D01*
G01*
X162211500Y-111976500D01*
G75*
G02*
X162036500Y-112151500I-175000J0D01*
G01*
G37*
G36*
G01*
X160766500Y-112151500D02*
X160416500Y-112151500D01*
G75*
G02*
X160241500Y-111976500I0J175000D01*
G01*
X160241500Y-110276500D01*
G75*
G02*
X160416500Y-110101500I175000J0D01*
G01*
X160766500Y-110101500D01*
G75*
G02*
X160941500Y-110276500I0J-175000D01*
G01*
X160941500Y-111976500D01*
G75*
G02*
X160766500Y-112151500I-175000J0D01*
G01*
G37*
G36*
G01*
X159496500Y-112151500D02*
X159146500Y-112151500D01*
G75*
G02*
X158971500Y-111976500I0J175000D01*
G01*
X158971500Y-110276500D01*
G75*
G02*
X159146500Y-110101500I175000J0D01*
G01*
X159496500Y-110101500D01*
G75*
G02*
X159671500Y-110276500I0J-175000D01*
G01*
X159671500Y-111976500D01*
G75*
G02*
X159496500Y-112151500I-175000J0D01*
G01*
G37*
G36*
G01*
X191796500Y-127629167D02*
X191796500Y-129545833D01*
G75*
G02*
X191529833Y-129812500I-266667J0D01*
G01*
X190463167Y-129812500D01*
G75*
G02*
X190196500Y-129545833I0J266667D01*
G01*
X190196500Y-127629167D01*
G75*
G02*
X190463167Y-127362500I266667J0D01*
G01*
X191529833Y-127362500D01*
G75*
G02*
X191796500Y-127629167I0J-266667D01*
G01*
G37*
G36*
G01*
X195046500Y-127629167D02*
X195046500Y-129545833D01*
G75*
G02*
X194779833Y-129812500I-266667J0D01*
G01*
X193713167Y-129812500D01*
G75*
G02*
X193446500Y-129545833I0J266667D01*
G01*
X193446500Y-127629167D01*
G75*
G02*
X193713167Y-127362500I266667J0D01*
G01*
X194779833Y-127362500D01*
G75*
G02*
X195046500Y-127629167I0J-266667D01*
G01*
G37*
G36*
G01*
X180721500Y-127629167D02*
X180721500Y-129545833D01*
G75*
G02*
X180454833Y-129812500I-266667J0D01*
G01*
X179388167Y-129812500D01*
G75*
G02*
X179121500Y-129545833I0J266667D01*
G01*
X179121500Y-127629167D01*
G75*
G02*
X179388167Y-127362500I266667J0D01*
G01*
X180454833Y-127362500D01*
G75*
G02*
X180721500Y-127629167I0J-266667D01*
G01*
G37*
G36*
G01*
X183971500Y-127629167D02*
X183971500Y-129545833D01*
G75*
G02*
X183704833Y-129812500I-266667J0D01*
G01*
X182638167Y-129812500D01*
G75*
G02*
X182371500Y-129545833I0J266667D01*
G01*
X182371500Y-127629167D01*
G75*
G02*
X182638167Y-127362500I266667J0D01*
G01*
X183704833Y-127362500D01*
G75*
G02*
X183971500Y-127629167I0J-266667D01*
G01*
G37*
G36*
G01*
X169444500Y-127629167D02*
X169444500Y-129545833D01*
G75*
G02*
X169177833Y-129812500I-266667J0D01*
G01*
X168111167Y-129812500D01*
G75*
G02*
X167844500Y-129545833I0J266667D01*
G01*
X167844500Y-127629167D01*
G75*
G02*
X168111167Y-127362500I266667J0D01*
G01*
X169177833Y-127362500D01*
G75*
G02*
X169444500Y-127629167I0J-266667D01*
G01*
G37*
G36*
G01*
X172694500Y-127629167D02*
X172694500Y-129545833D01*
G75*
G02*
X172427833Y-129812500I-266667J0D01*
G01*
X171361167Y-129812500D01*
G75*
G02*
X171094500Y-129545833I0J266667D01*
G01*
X171094500Y-127629167D01*
G75*
G02*
X171361167Y-127362500I266667J0D01*
G01*
X172427833Y-127362500D01*
G75*
G02*
X172694500Y-127629167I0J-266667D01*
G01*
G37*
G36*
G01*
X158268500Y-127629167D02*
X158268500Y-129545833D01*
G75*
G02*
X158001833Y-129812500I-266667J0D01*
G01*
X156935167Y-129812500D01*
G75*
G02*
X156668500Y-129545833I0J266667D01*
G01*
X156668500Y-127629167D01*
G75*
G02*
X156935167Y-127362500I266667J0D01*
G01*
X158001833Y-127362500D01*
G75*
G02*
X158268500Y-127629167I0J-266667D01*
G01*
G37*
G36*
G01*
X161518500Y-127629167D02*
X161518500Y-129545833D01*
G75*
G02*
X161251833Y-129812500I-266667J0D01*
G01*
X160185167Y-129812500D01*
G75*
G02*
X159918500Y-129545833I0J266667D01*
G01*
X159918500Y-127629167D01*
G75*
G02*
X160185167Y-127362500I266667J0D01*
G01*
X161251833Y-127362500D01*
G75*
G02*
X161518500Y-127629167I0J-266667D01*
G01*
G37*
D17*
X130746500Y-94805500D03*
X130746500Y-89725500D03*
G36*
G01*
X193168892Y-94126000D02*
X196086108Y-94126000D01*
G75*
G02*
X196352500Y-94392392I0J-266392D01*
G01*
X196352500Y-95484608D01*
G75*
G02*
X196086108Y-95751000I-266392J0D01*
G01*
X193168892Y-95751000D01*
G75*
G02*
X192902500Y-95484608I0J266392D01*
G01*
X192902500Y-94392392D01*
G75*
G02*
X193168892Y-94126000I266392J0D01*
G01*
G37*
G36*
G01*
X193168892Y-88151000D02*
X196086108Y-88151000D01*
G75*
G02*
X196352500Y-88417392I0J-266392D01*
G01*
X196352500Y-89509608D01*
G75*
G02*
X196086108Y-89776000I-266392J0D01*
G01*
X193168892Y-89776000D01*
G75*
G02*
X192902500Y-89509608I0J266392D01*
G01*
X192902500Y-88417392D01*
G75*
G02*
X193168892Y-88151000I266392J0D01*
G01*
G37*
G36*
G01*
X188088892Y-94126000D02*
X191006108Y-94126000D01*
G75*
G02*
X191272500Y-94392392I0J-266392D01*
G01*
X191272500Y-95484608D01*
G75*
G02*
X191006108Y-95751000I-266392J0D01*
G01*
X188088892Y-95751000D01*
G75*
G02*
X187822500Y-95484608I0J266392D01*
G01*
X187822500Y-94392392D01*
G75*
G02*
X188088892Y-94126000I266392J0D01*
G01*
G37*
G36*
G01*
X188088892Y-88151000D02*
X191006108Y-88151000D01*
G75*
G02*
X191272500Y-88417392I0J-266392D01*
G01*
X191272500Y-89509608D01*
G75*
G02*
X191006108Y-89776000I-266392J0D01*
G01*
X188088892Y-89776000D01*
G75*
G02*
X187822500Y-89509608I0J266392D01*
G01*
X187822500Y-88417392D01*
G75*
G02*
X188088892Y-88151000I266392J0D01*
G01*
G37*
G36*
G01*
X183008892Y-94126000D02*
X185926108Y-94126000D01*
G75*
G02*
X186192500Y-94392392I0J-266392D01*
G01*
X186192500Y-95484608D01*
G75*
G02*
X185926108Y-95751000I-266392J0D01*
G01*
X183008892Y-95751000D01*
G75*
G02*
X182742500Y-95484608I0J266392D01*
G01*
X182742500Y-94392392D01*
G75*
G02*
X183008892Y-94126000I266392J0D01*
G01*
G37*
G36*
G01*
X183008892Y-88151000D02*
X185926108Y-88151000D01*
G75*
G02*
X186192500Y-88417392I0J-266392D01*
G01*
X186192500Y-89509608D01*
G75*
G02*
X185926108Y-89776000I-266392J0D01*
G01*
X183008892Y-89776000D01*
G75*
G02*
X182742500Y-89509608I0J266392D01*
G01*
X182742500Y-88417392D01*
G75*
G02*
X183008892Y-88151000I266392J0D01*
G01*
G37*
G36*
G01*
X177928892Y-94126000D02*
X180846108Y-94126000D01*
G75*
G02*
X181112500Y-94392392I0J-266392D01*
G01*
X181112500Y-95484608D01*
G75*
G02*
X180846108Y-95751000I-266392J0D01*
G01*
X177928892Y-95751000D01*
G75*
G02*
X177662500Y-95484608I0J266392D01*
G01*
X177662500Y-94392392D01*
G75*
G02*
X177928892Y-94126000I266392J0D01*
G01*
G37*
G36*
G01*
X177928892Y-88151000D02*
X180846108Y-88151000D01*
G75*
G02*
X181112500Y-88417392I0J-266392D01*
G01*
X181112500Y-89509608D01*
G75*
G02*
X180846108Y-89776000I-266392J0D01*
G01*
X177928892Y-89776000D01*
G75*
G02*
X177662500Y-89509608I0J266392D01*
G01*
X177662500Y-88417392D01*
G75*
G02*
X177928892Y-88151000I266392J0D01*
G01*
G37*
D18*
X141973300Y-144310100D03*
D19*
X141973300Y-146850100D03*
D20*
X149491700Y-145453100D03*
G36*
G01*
X146091700Y-146238394D02*
X146091700Y-144667806D01*
G75*
G02*
X146356406Y-144403100I264706J0D01*
G01*
X147626994Y-144403100D01*
G75*
G02*
X147891700Y-144667806I0J-264706D01*
G01*
X147891700Y-146238394D01*
G75*
G02*
X147626994Y-146503100I-264706J0D01*
G01*
X146356406Y-146503100D01*
G75*
G02*
X146091700Y-146238394I0J264706D01*
G01*
G37*
G36*
G01*
X192313500Y-136237238D02*
X192313500Y-137193762D01*
G75*
G02*
X192041762Y-137465500I-271738J0D01*
G01*
X191335238Y-137465500D01*
G75*
G02*
X191063500Y-137193762I0J271738D01*
G01*
X191063500Y-136237238D01*
G75*
G02*
X191335238Y-135965500I271738J0D01*
G01*
X192041762Y-135965500D01*
G75*
G02*
X192313500Y-136237238I0J-271738D01*
G01*
G37*
G36*
G01*
X194363500Y-136237238D02*
X194363500Y-137193762D01*
G75*
G02*
X194091762Y-137465500I-271738J0D01*
G01*
X193385238Y-137465500D01*
G75*
G02*
X193113500Y-137193762I0J271738D01*
G01*
X193113500Y-136237238D01*
G75*
G02*
X193385238Y-135965500I271738J0D01*
G01*
X194091762Y-135965500D01*
G75*
G02*
X194363500Y-136237238I0J-271738D01*
G01*
G37*
G36*
G01*
X180883500Y-136237238D02*
X180883500Y-137193762D01*
G75*
G02*
X180611762Y-137465500I-271738J0D01*
G01*
X179905238Y-137465500D01*
G75*
G02*
X179633500Y-137193762I0J271738D01*
G01*
X179633500Y-136237238D01*
G75*
G02*
X179905238Y-135965500I271738J0D01*
G01*
X180611762Y-135965500D01*
G75*
G02*
X180883500Y-136237238I0J-271738D01*
G01*
G37*
G36*
G01*
X182933500Y-136237238D02*
X182933500Y-137193762D01*
G75*
G02*
X182661762Y-137465500I-271738J0D01*
G01*
X181955238Y-137465500D01*
G75*
G02*
X181683500Y-137193762I0J271738D01*
G01*
X181683500Y-136237238D01*
G75*
G02*
X181955238Y-135965500I271738J0D01*
G01*
X182661762Y-135965500D01*
G75*
G02*
X182933500Y-136237238I0J-271738D01*
G01*
G37*
G36*
G01*
X158794500Y-136237238D02*
X158794500Y-137193762D01*
G75*
G02*
X158522762Y-137465500I-271738J0D01*
G01*
X157816238Y-137465500D01*
G75*
G02*
X157544500Y-137193762I0J271738D01*
G01*
X157544500Y-136237238D01*
G75*
G02*
X157816238Y-135965500I271738J0D01*
G01*
X158522762Y-135965500D01*
G75*
G02*
X158794500Y-136237238I0J-271738D01*
G01*
G37*
G36*
G01*
X160844500Y-136237238D02*
X160844500Y-137193762D01*
G75*
G02*
X160572762Y-137465500I-271738J0D01*
G01*
X159866238Y-137465500D01*
G75*
G02*
X159594500Y-137193762I0J271738D01*
G01*
X159594500Y-136237238D01*
G75*
G02*
X159866238Y-135965500I271738J0D01*
G01*
X160572762Y-135965500D01*
G75*
G02*
X160844500Y-136237238I0J-271738D01*
G01*
G37*
G36*
G01*
X169961500Y-136237238D02*
X169961500Y-137193762D01*
G75*
G02*
X169689762Y-137465500I-271738J0D01*
G01*
X168983238Y-137465500D01*
G75*
G02*
X168711500Y-137193762I0J271738D01*
G01*
X168711500Y-136237238D01*
G75*
G02*
X168983238Y-135965500I271738J0D01*
G01*
X169689762Y-135965500D01*
G75*
G02*
X169961500Y-136237238I0J-271738D01*
G01*
G37*
G36*
G01*
X172011500Y-136237238D02*
X172011500Y-137193762D01*
G75*
G02*
X171739762Y-137465500I-271738J0D01*
G01*
X171033238Y-137465500D01*
G75*
G02*
X170761500Y-137193762I0J271738D01*
G01*
X170761500Y-136237238D01*
G75*
G02*
X171033238Y-135965500I271738J0D01*
G01*
X171739762Y-135965500D01*
G75*
G02*
X172011500Y-136237238I0J-271738D01*
G01*
G37*
G36*
G01*
X177928892Y-102236000D02*
X180846108Y-102236000D01*
G75*
G02*
X181112500Y-102502392I0J-266392D01*
G01*
X181112500Y-103594608D01*
G75*
G02*
X180846108Y-103861000I-266392J0D01*
G01*
X177928892Y-103861000D01*
G75*
G02*
X177662500Y-103594608I0J266392D01*
G01*
X177662500Y-102502392D01*
G75*
G02*
X177928892Y-102236000I266392J0D01*
G01*
G37*
G36*
G01*
X177928892Y-96261000D02*
X180846108Y-96261000D01*
G75*
G02*
X181112500Y-96527392I0J-266392D01*
G01*
X181112500Y-97619608D01*
G75*
G02*
X180846108Y-97886000I-266392J0D01*
G01*
X177928892Y-97886000D01*
G75*
G02*
X177662500Y-97619608I0J266392D01*
G01*
X177662500Y-96527392D01*
G75*
G02*
X177928892Y-96261000I266392J0D01*
G01*
G37*
G36*
G01*
X183008892Y-102236000D02*
X185926108Y-102236000D01*
G75*
G02*
X186192500Y-102502392I0J-266392D01*
G01*
X186192500Y-103594608D01*
G75*
G02*
X185926108Y-103861000I-266392J0D01*
G01*
X183008892Y-103861000D01*
G75*
G02*
X182742500Y-103594608I0J266392D01*
G01*
X182742500Y-102502392D01*
G75*
G02*
X183008892Y-102236000I266392J0D01*
G01*
G37*
G36*
G01*
X183008892Y-96261000D02*
X185926108Y-96261000D01*
G75*
G02*
X186192500Y-96527392I0J-266392D01*
G01*
X186192500Y-97619608D01*
G75*
G02*
X185926108Y-97886000I-266392J0D01*
G01*
X183008892Y-97886000D01*
G75*
G02*
X182742500Y-97619608I0J266392D01*
G01*
X182742500Y-96527392D01*
G75*
G02*
X183008892Y-96261000I266392J0D01*
G01*
G37*
G36*
G01*
X188088892Y-102236000D02*
X191006108Y-102236000D01*
G75*
G02*
X191272500Y-102502392I0J-266392D01*
G01*
X191272500Y-103594608D01*
G75*
G02*
X191006108Y-103861000I-266392J0D01*
G01*
X188088892Y-103861000D01*
G75*
G02*
X187822500Y-103594608I0J266392D01*
G01*
X187822500Y-102502392D01*
G75*
G02*
X188088892Y-102236000I266392J0D01*
G01*
G37*
G36*
G01*
X188088892Y-96261000D02*
X191006108Y-96261000D01*
G75*
G02*
X191272500Y-96527392I0J-266392D01*
G01*
X191272500Y-97619608D01*
G75*
G02*
X191006108Y-97886000I-266392J0D01*
G01*
X188088892Y-97886000D01*
G75*
G02*
X187822500Y-97619608I0J266392D01*
G01*
X187822500Y-96527392D01*
G75*
G02*
X188088892Y-96261000I266392J0D01*
G01*
G37*
G36*
G01*
X193168892Y-102236000D02*
X196086108Y-102236000D01*
G75*
G02*
X196352500Y-102502392I0J-266392D01*
G01*
X196352500Y-103594608D01*
G75*
G02*
X196086108Y-103861000I-266392J0D01*
G01*
X193168892Y-103861000D01*
G75*
G02*
X192902500Y-103594608I0J266392D01*
G01*
X192902500Y-102502392D01*
G75*
G02*
X193168892Y-102236000I266392J0D01*
G01*
G37*
G36*
G01*
X193168892Y-96261000D02*
X196086108Y-96261000D01*
G75*
G02*
X196352500Y-96527392I0J-266392D01*
G01*
X196352500Y-97619608D01*
G75*
G02*
X196086108Y-97886000I-266392J0D01*
G01*
X193168892Y-97886000D01*
G75*
G02*
X192902500Y-97619608I0J266392D01*
G01*
X192902500Y-96527392D01*
G75*
G02*
X193168892Y-96261000I266392J0D01*
G01*
G37*
G36*
G01*
X194033500Y-82321500D02*
X195333500Y-82321500D01*
G75*
G02*
X195983500Y-82971500I0J-650000D01*
G01*
X195983500Y-84771500D01*
G75*
G02*
X195333500Y-85421500I-650000J0D01*
G01*
X194033500Y-85421500D01*
G75*
G02*
X193383500Y-84771500I0J650000D01*
G01*
X193383500Y-82971500D01*
G75*
G02*
X194033500Y-82321500I650000J0D01*
G01*
G37*
G36*
G01*
X194033500Y-73621500D02*
X195333500Y-73621500D01*
G75*
G02*
X195983500Y-74271500I0J-650000D01*
G01*
X195983500Y-76071500D01*
G75*
G02*
X195333500Y-76721500I-650000J0D01*
G01*
X194033500Y-76721500D01*
G75*
G02*
X193383500Y-76071500I0J650000D01*
G01*
X193383500Y-74271500D01*
G75*
G02*
X194033500Y-73621500I650000J0D01*
G01*
G37*
G36*
G01*
X188953500Y-82321500D02*
X190253500Y-82321500D01*
G75*
G02*
X190903500Y-82971500I0J-650000D01*
G01*
X190903500Y-84771500D01*
G75*
G02*
X190253500Y-85421500I-650000J0D01*
G01*
X188953500Y-85421500D01*
G75*
G02*
X188303500Y-84771500I0J650000D01*
G01*
X188303500Y-82971500D01*
G75*
G02*
X188953500Y-82321500I650000J0D01*
G01*
G37*
G36*
G01*
X188953500Y-73621500D02*
X190253500Y-73621500D01*
G75*
G02*
X190903500Y-74271500I0J-650000D01*
G01*
X190903500Y-76071500D01*
G75*
G02*
X190253500Y-76721500I-650000J0D01*
G01*
X188953500Y-76721500D01*
G75*
G02*
X188303500Y-76071500I0J650000D01*
G01*
X188303500Y-74271500D01*
G75*
G02*
X188953500Y-73621500I650000J0D01*
G01*
G37*
G36*
G01*
X183873500Y-82321500D02*
X185173500Y-82321500D01*
G75*
G02*
X185823500Y-82971500I0J-650000D01*
G01*
X185823500Y-84771500D01*
G75*
G02*
X185173500Y-85421500I-650000J0D01*
G01*
X183873500Y-85421500D01*
G75*
G02*
X183223500Y-84771500I0J650000D01*
G01*
X183223500Y-82971500D01*
G75*
G02*
X183873500Y-82321500I650000J0D01*
G01*
G37*
G36*
G01*
X183873500Y-73621500D02*
X185173500Y-73621500D01*
G75*
G02*
X185823500Y-74271500I0J-650000D01*
G01*
X185823500Y-76071500D01*
G75*
G02*
X185173500Y-76721500I-650000J0D01*
G01*
X183873500Y-76721500D01*
G75*
G02*
X183223500Y-76071500I0J650000D01*
G01*
X183223500Y-74271500D01*
G75*
G02*
X183873500Y-73621500I650000J0D01*
G01*
G37*
G36*
G01*
X178793500Y-82321500D02*
X180093500Y-82321500D01*
G75*
G02*
X180743500Y-82971500I0J-650000D01*
G01*
X180743500Y-84771500D01*
G75*
G02*
X180093500Y-85421500I-650000J0D01*
G01*
X178793500Y-85421500D01*
G75*
G02*
X178143500Y-84771500I0J650000D01*
G01*
X178143500Y-82971500D01*
G75*
G02*
X178793500Y-82321500I650000J0D01*
G01*
G37*
G36*
G01*
X178793500Y-73621500D02*
X180093500Y-73621500D01*
G75*
G02*
X180743500Y-74271500I0J-650000D01*
G01*
X180743500Y-76071500D01*
G75*
G02*
X180093500Y-76721500I-650000J0D01*
G01*
X178793500Y-76721500D01*
G75*
G02*
X178143500Y-76071500I0J650000D01*
G01*
X178143500Y-74271500D01*
G75*
G02*
X178793500Y-73621500I650000J0D01*
G01*
G37*
G36*
G01*
X145336500Y-82333500D02*
X146636500Y-82333500D01*
G75*
G02*
X147286500Y-82983500I0J-650000D01*
G01*
X147286500Y-84783500D01*
G75*
G02*
X146636500Y-85433500I-650000J0D01*
G01*
X145336500Y-85433500D01*
G75*
G02*
X144686500Y-84783500I0J650000D01*
G01*
X144686500Y-82983500D01*
G75*
G02*
X145336500Y-82333500I650000J0D01*
G01*
G37*
G36*
G01*
X145336500Y-73633500D02*
X146636500Y-73633500D01*
G75*
G02*
X147286500Y-74283500I0J-650000D01*
G01*
X147286500Y-76083500D01*
G75*
G02*
X146636500Y-76733500I-650000J0D01*
G01*
X145336500Y-76733500D01*
G75*
G02*
X144686500Y-76083500I0J650000D01*
G01*
X144686500Y-74283500D01*
G75*
G02*
X145336500Y-73633500I650000J0D01*
G01*
G37*
G36*
G01*
X140256500Y-82333500D02*
X141556500Y-82333500D01*
G75*
G02*
X142206500Y-82983500I0J-650000D01*
G01*
X142206500Y-84783500D01*
G75*
G02*
X141556500Y-85433500I-650000J0D01*
G01*
X140256500Y-85433500D01*
G75*
G02*
X139606500Y-84783500I0J650000D01*
G01*
X139606500Y-82983500D01*
G75*
G02*
X140256500Y-82333500I650000J0D01*
G01*
G37*
G36*
G01*
X140256500Y-73633500D02*
X141556500Y-73633500D01*
G75*
G02*
X142206500Y-74283500I0J-650000D01*
G01*
X142206500Y-76083500D01*
G75*
G02*
X141556500Y-76733500I-650000J0D01*
G01*
X140256500Y-76733500D01*
G75*
G02*
X139606500Y-76083500I0J650000D01*
G01*
X139606500Y-74283500D01*
G75*
G02*
X140256500Y-73633500I650000J0D01*
G01*
G37*
G36*
G01*
X135176500Y-82333500D02*
X136476500Y-82333500D01*
G75*
G02*
X137126500Y-82983500I0J-650000D01*
G01*
X137126500Y-84783500D01*
G75*
G02*
X136476500Y-85433500I-650000J0D01*
G01*
X135176500Y-85433500D01*
G75*
G02*
X134526500Y-84783500I0J650000D01*
G01*
X134526500Y-82983500D01*
G75*
G02*
X135176500Y-82333500I650000J0D01*
G01*
G37*
G36*
G01*
X135176500Y-73633500D02*
X136476500Y-73633500D01*
G75*
G02*
X137126500Y-74283500I0J-650000D01*
G01*
X137126500Y-76083500D01*
G75*
G02*
X136476500Y-76733500I-650000J0D01*
G01*
X135176500Y-76733500D01*
G75*
G02*
X134526500Y-76083500I0J650000D01*
G01*
X134526500Y-74283500D01*
G75*
G02*
X135176500Y-73633500I650000J0D01*
G01*
G37*
G36*
G01*
X130096500Y-82333500D02*
X131396500Y-82333500D01*
G75*
G02*
X132046500Y-82983500I0J-650000D01*
G01*
X132046500Y-84783500D01*
G75*
G02*
X131396500Y-85433500I-650000J0D01*
G01*
X130096500Y-85433500D01*
G75*
G02*
X129446500Y-84783500I0J650000D01*
G01*
X129446500Y-82983500D01*
G75*
G02*
X130096500Y-82333500I650000J0D01*
G01*
G37*
G36*
G01*
X130096500Y-73633500D02*
X131396500Y-73633500D01*
G75*
G02*
X132046500Y-74283500I0J-650000D01*
G01*
X132046500Y-76083500D01*
G75*
G02*
X131396500Y-76733500I-650000J0D01*
G01*
X130096500Y-76733500D01*
G75*
G02*
X129446500Y-76083500I0J650000D01*
G01*
X129446500Y-74283500D01*
G75*
G02*
X130096500Y-73633500I650000J0D01*
G01*
G37*
D18*
X155130500Y-119443500D03*
D19*
X155130500Y-121983500D03*
D21*
X138246500Y-100647500D03*
X130746500Y-99014170D03*
D22*
X122364500Y-39687500D03*
D14*
X167536500Y-120713500D03*
X165036500Y-120713500D03*
X162536500Y-120713500D03*
G36*
G01*
X159136500Y-121473794D02*
X159136500Y-119953206D01*
G75*
G02*
X159401206Y-119688500I264706J0D01*
G01*
X160671794Y-119688500D01*
G75*
G02*
X160936500Y-119953206I0J-264706D01*
G01*
X160936500Y-121473794D01*
G75*
G02*
X160671794Y-121738500I-264706J0D01*
G01*
X159401206Y-121738500D01*
G75*
G02*
X159136500Y-121473794I0J264706D01*
G01*
G37*
D23*
X173912500Y-131873500D03*
D24*
X166292500Y-139493500D03*
X171372500Y-131873500D03*
X168832500Y-139493500D03*
X168832500Y-131873500D03*
X171372500Y-139493500D03*
X166292500Y-131873500D03*
X173912500Y-139493500D03*
D23*
X196518500Y-131873500D03*
D24*
X188898500Y-139493500D03*
X193978500Y-131873500D03*
X191438500Y-139493500D03*
X191438500Y-131873500D03*
X193978500Y-139493500D03*
X188898500Y-131873500D03*
X196518500Y-139493500D03*
D23*
X185088500Y-131873500D03*
D24*
X177468500Y-139493500D03*
X182548500Y-131873500D03*
X180008500Y-139493500D03*
X180008500Y-131873500D03*
X182548500Y-139493500D03*
X177468500Y-131873500D03*
X185088500Y-139493500D03*
D23*
X162482500Y-131873500D03*
D24*
X154862500Y-139493500D03*
X159942500Y-131873500D03*
X157402500Y-139493500D03*
X157402500Y-131873500D03*
X159942500Y-139493500D03*
X154862500Y-131873500D03*
X162482500Y-139493500D03*
D20*
X149502500Y-138493500D03*
G36*
G01*
X146102500Y-139278794D02*
X146102500Y-137708206D01*
G75*
G02*
X146367206Y-137443500I264706J0D01*
G01*
X147637794Y-137443500D01*
G75*
G02*
X147902500Y-137708206I0J-264706D01*
G01*
X147902500Y-139278794D01*
G75*
G02*
X147637794Y-139543500I-264706J0D01*
G01*
X146367206Y-139543500D01*
G75*
G02*
X146102500Y-139278794I0J264706D01*
G01*
G37*
D22*
X172910500Y-161607500D03*
X220154500Y-154241500D03*
D17*
X145986500Y-94678500D03*
X145986500Y-89598500D03*
M02*
