M48
; DRILL file {KiCad (5.1.6)-1} date 11/05/21 18:09:45
; FORMAT={-:-/ absolute / metric / decimal}
; #@! TF.CreationDate,2021-11-05T18:09:45+01:00
; #@! TF.GenerationSoftware,Kicad,Pcbnew,(5.1.6)-1
; #@! TF.FileFunction,Plated,1,2,PTH
FMAT,2
METRIC
T1C0.800
T2C0.900
T3C0.950
T4C1.000
T5C1.100
T6C1.400
T7C3.200
%
G90
G05
T1
X159.942Y-139.493
X180.008Y-139.493
X185.088Y-131.874
X188.898Y-131.874
X188.898Y-139.493
X191.439Y-131.874
X191.439Y-139.493
X193.978Y-131.874
X193.978Y-139.493
X196.518Y-131.874
X196.518Y-139.493
X136.334Y-137.517
X136.334Y-140.017
X130.746Y-99.014
X138.246Y-100.647
X136.334Y-144.589
X136.334Y-147.089
X154.862Y-131.874
X154.862Y-139.493
X157.403Y-131.874
X157.403Y-139.493
X159.942Y-131.874
X162.482Y-131.874
X162.482Y-139.493
X177.469Y-131.874
X177.469Y-139.493
X180.008Y-131.874
X182.548Y-131.874
X182.548Y-139.493
X185.088Y-139.493
X166.292Y-131.874
X166.292Y-139.493
X168.832Y-131.874
X168.832Y-139.493
X171.373Y-131.874
X171.373Y-139.493
X173.912Y-131.874
X173.912Y-139.493
T2
X154.696Y-103.994
X154.696Y-106.534
X171.714Y-103.994
X171.714Y-106.534
X166.126Y-103.994
X166.126Y-106.534
X160.464Y-103.95
X160.464Y-106.489
T3
X160.036Y-120.713
X162.536Y-120.713
X165.036Y-120.713
X167.536Y-120.713
X168.846Y-144.844
X171.346Y-144.844
X173.846Y-144.844
X176.346Y-144.844
T4
X147.002Y-138.493
X149.502Y-138.493
X141.973Y-144.31
X141.973Y-146.85
X145.987Y-89.599
X145.987Y-94.678
X155.13Y-119.444
X155.13Y-121.983
X130.746Y-89.725
X130.746Y-94.805
X146.992Y-145.453
X149.492Y-145.453
T5
X129.476Y-108.587
X129.476Y-128.588
X149.476Y-113.587
X149.476Y-123.587
X154.696Y-88.754
X154.696Y-96.374
X171.714Y-88.754
X171.714Y-96.374
X166.126Y-88.754
X166.126Y-96.374
X129.222Y-140.525
X129.222Y-143.065
X129.222Y-145.606
X160.464Y-88.709
X160.464Y-96.329
T6
X130.746Y-75.183
X130.746Y-83.883
X135.826Y-75.183
X135.826Y-83.883
X140.906Y-75.183
X140.906Y-83.883
X145.987Y-75.183
X145.987Y-83.883
X179.444Y-75.171
X179.444Y-83.871
X184.523Y-75.171
X184.523Y-83.871
X189.603Y-75.171
X189.603Y-83.871
X194.683Y-75.171
X194.683Y-83.871
X154.876Y-75.183
X154.876Y-83.883
X159.957Y-75.183
X159.957Y-83.883
X165.036Y-75.183
X165.036Y-83.883
X170.117Y-75.183
X170.117Y-83.883
T7
X172.91Y-161.607
X220.154Y-154.242
X122.364Y-39.688
T0
M30
