G04 #@! TF.GenerationSoftware,KiCad,Pcbnew,(5.1.6)-1*
G04 #@! TF.CreationDate,2021-11-05T18:09:41+01:00*
G04 #@! TF.ProjectId,hamodule,68616d6f-6475-46c6-952e-6b696361645f,rev?*
G04 #@! TF.SameCoordinates,Original*
G04 #@! TF.FileFunction,Soldermask,Bot*
G04 #@! TF.FilePolarity,Negative*
%FSLAX46Y46*%
G04 Gerber Fmt 4.6, Leading zero omitted, Abs format (unit mm)*
G04 Created by KiCad (PCBNEW (5.1.6)-1) date 2021-11-05 18:09:41*
%MOMM*%
%LPD*%
G01*
G04 APERTURE LIST*
%ADD10C,1.700000*%
%ADD11R,1.700000X1.700000*%
%ADD12O,2.100000X2.005000*%
%ADD13R,2.100000X2.005000*%
%ADD14O,1.800000X2.050000*%
%ADD15C,1.750000*%
%ADD16R,1.750000X1.750000*%
%ADD17C,2.100000*%
%ADD18O,1.800000X1.800000*%
%ADD19R,1.800000X1.800000*%
%ADD20O,1.800000X2.100000*%
%ADD21C,1.900000*%
%ADD22C,5.600000*%
%ADD23R,1.700000X2.500000*%
%ADD24O,1.700000X2.500000*%
G04 APERTURE END LIST*
D10*
X136334500Y-147089500D03*
D11*
X136334500Y-144589500D03*
D10*
X136334500Y-137517500D03*
D11*
X136334500Y-140017500D03*
D12*
X129222500Y-140525500D03*
X129222500Y-143065500D03*
D13*
X129222500Y-145605500D03*
D14*
X176346500Y-144843500D03*
X173846500Y-144843500D03*
X171346500Y-144843500D03*
G36*
G01*
X167946500Y-145603794D02*
X167946500Y-144083206D01*
G75*
G02*
X168211206Y-143818500I264706J0D01*
G01*
X169481794Y-143818500D01*
G75*
G02*
X169746500Y-144083206I0J-264706D01*
G01*
X169746500Y-145603794D01*
G75*
G02*
X169481794Y-145868500I-264706J0D01*
G01*
X168211206Y-145868500D01*
G75*
G02*
X167946500Y-145603794I0J264706D01*
G01*
G37*
D15*
X149476500Y-113587500D03*
X149476500Y-123587500D03*
X129476500Y-128587500D03*
D16*
X129476500Y-108587500D03*
G36*
G01*
X169466500Y-82333500D02*
X170766500Y-82333500D01*
G75*
G02*
X171416500Y-82983500I0J-650000D01*
G01*
X171416500Y-84783500D01*
G75*
G02*
X170766500Y-85433500I-650000J0D01*
G01*
X169466500Y-85433500D01*
G75*
G02*
X168816500Y-84783500I0J650000D01*
G01*
X168816500Y-82983500D01*
G75*
G02*
X169466500Y-82333500I650000J0D01*
G01*
G37*
G36*
G01*
X169466500Y-73633500D02*
X170766500Y-73633500D01*
G75*
G02*
X171416500Y-74283500I0J-650000D01*
G01*
X171416500Y-76083500D01*
G75*
G02*
X170766500Y-76733500I-650000J0D01*
G01*
X169466500Y-76733500D01*
G75*
G02*
X168816500Y-76083500I0J650000D01*
G01*
X168816500Y-74283500D01*
G75*
G02*
X169466500Y-73633500I650000J0D01*
G01*
G37*
G36*
G01*
X164386500Y-82333500D02*
X165686500Y-82333500D01*
G75*
G02*
X166336500Y-82983500I0J-650000D01*
G01*
X166336500Y-84783500D01*
G75*
G02*
X165686500Y-85433500I-650000J0D01*
G01*
X164386500Y-85433500D01*
G75*
G02*
X163736500Y-84783500I0J650000D01*
G01*
X163736500Y-82983500D01*
G75*
G02*
X164386500Y-82333500I650000J0D01*
G01*
G37*
G36*
G01*
X164386500Y-73633500D02*
X165686500Y-73633500D01*
G75*
G02*
X166336500Y-74283500I0J-650000D01*
G01*
X166336500Y-76083500D01*
G75*
G02*
X165686500Y-76733500I-650000J0D01*
G01*
X164386500Y-76733500D01*
G75*
G02*
X163736500Y-76083500I0J650000D01*
G01*
X163736500Y-74283500D01*
G75*
G02*
X164386500Y-73633500I650000J0D01*
G01*
G37*
G36*
G01*
X159306500Y-82333500D02*
X160606500Y-82333500D01*
G75*
G02*
X161256500Y-82983500I0J-650000D01*
G01*
X161256500Y-84783500D01*
G75*
G02*
X160606500Y-85433500I-650000J0D01*
G01*
X159306500Y-85433500D01*
G75*
G02*
X158656500Y-84783500I0J650000D01*
G01*
X158656500Y-82983500D01*
G75*
G02*
X159306500Y-82333500I650000J0D01*
G01*
G37*
G36*
G01*
X159306500Y-73633500D02*
X160606500Y-73633500D01*
G75*
G02*
X161256500Y-74283500I0J-650000D01*
G01*
X161256500Y-76083500D01*
G75*
G02*
X160606500Y-76733500I-650000J0D01*
G01*
X159306500Y-76733500D01*
G75*
G02*
X158656500Y-76083500I0J650000D01*
G01*
X158656500Y-74283500D01*
G75*
G02*
X159306500Y-73633500I650000J0D01*
G01*
G37*
G36*
G01*
X154226500Y-82333500D02*
X155526500Y-82333500D01*
G75*
G02*
X156176500Y-82983500I0J-650000D01*
G01*
X156176500Y-84783500D01*
G75*
G02*
X155526500Y-85433500I-650000J0D01*
G01*
X154226500Y-85433500D01*
G75*
G02*
X153576500Y-84783500I0J650000D01*
G01*
X153576500Y-82983500D01*
G75*
G02*
X154226500Y-82333500I650000J0D01*
G01*
G37*
G36*
G01*
X154226500Y-73633500D02*
X155526500Y-73633500D01*
G75*
G02*
X156176500Y-74283500I0J-650000D01*
G01*
X156176500Y-76083500D01*
G75*
G02*
X155526500Y-76733500I-650000J0D01*
G01*
X154226500Y-76733500D01*
G75*
G02*
X153576500Y-76083500I0J650000D01*
G01*
X153576500Y-74283500D01*
G75*
G02*
X154226500Y-73633500I650000J0D01*
G01*
G37*
D17*
X130746500Y-94805500D03*
X130746500Y-89725500D03*
D18*
X141973300Y-144310100D03*
D19*
X141973300Y-146850100D03*
D20*
X149491700Y-145453100D03*
G36*
G01*
X146091700Y-146238394D02*
X146091700Y-144667806D01*
G75*
G02*
X146356406Y-144403100I264706J0D01*
G01*
X147626994Y-144403100D01*
G75*
G02*
X147891700Y-144667806I0J-264706D01*
G01*
X147891700Y-146238394D01*
G75*
G02*
X147626994Y-146503100I-264706J0D01*
G01*
X146356406Y-146503100D01*
G75*
G02*
X146091700Y-146238394I0J264706D01*
G01*
G37*
G36*
G01*
X194033500Y-82321500D02*
X195333500Y-82321500D01*
G75*
G02*
X195983500Y-82971500I0J-650000D01*
G01*
X195983500Y-84771500D01*
G75*
G02*
X195333500Y-85421500I-650000J0D01*
G01*
X194033500Y-85421500D01*
G75*
G02*
X193383500Y-84771500I0J650000D01*
G01*
X193383500Y-82971500D01*
G75*
G02*
X194033500Y-82321500I650000J0D01*
G01*
G37*
G36*
G01*
X194033500Y-73621500D02*
X195333500Y-73621500D01*
G75*
G02*
X195983500Y-74271500I0J-650000D01*
G01*
X195983500Y-76071500D01*
G75*
G02*
X195333500Y-76721500I-650000J0D01*
G01*
X194033500Y-76721500D01*
G75*
G02*
X193383500Y-76071500I0J650000D01*
G01*
X193383500Y-74271500D01*
G75*
G02*
X194033500Y-73621500I650000J0D01*
G01*
G37*
G36*
G01*
X188953500Y-82321500D02*
X190253500Y-82321500D01*
G75*
G02*
X190903500Y-82971500I0J-650000D01*
G01*
X190903500Y-84771500D01*
G75*
G02*
X190253500Y-85421500I-650000J0D01*
G01*
X188953500Y-85421500D01*
G75*
G02*
X188303500Y-84771500I0J650000D01*
G01*
X188303500Y-82971500D01*
G75*
G02*
X188953500Y-82321500I650000J0D01*
G01*
G37*
G36*
G01*
X188953500Y-73621500D02*
X190253500Y-73621500D01*
G75*
G02*
X190903500Y-74271500I0J-650000D01*
G01*
X190903500Y-76071500D01*
G75*
G02*
X190253500Y-76721500I-650000J0D01*
G01*
X188953500Y-76721500D01*
G75*
G02*
X188303500Y-76071500I0J650000D01*
G01*
X188303500Y-74271500D01*
G75*
G02*
X188953500Y-73621500I650000J0D01*
G01*
G37*
G36*
G01*
X183873500Y-82321500D02*
X185173500Y-82321500D01*
G75*
G02*
X185823500Y-82971500I0J-650000D01*
G01*
X185823500Y-84771500D01*
G75*
G02*
X185173500Y-85421500I-650000J0D01*
G01*
X183873500Y-85421500D01*
G75*
G02*
X183223500Y-84771500I0J650000D01*
G01*
X183223500Y-82971500D01*
G75*
G02*
X183873500Y-82321500I650000J0D01*
G01*
G37*
G36*
G01*
X183873500Y-73621500D02*
X185173500Y-73621500D01*
G75*
G02*
X185823500Y-74271500I0J-650000D01*
G01*
X185823500Y-76071500D01*
G75*
G02*
X185173500Y-76721500I-650000J0D01*
G01*
X183873500Y-76721500D01*
G75*
G02*
X183223500Y-76071500I0J650000D01*
G01*
X183223500Y-74271500D01*
G75*
G02*
X183873500Y-73621500I650000J0D01*
G01*
G37*
G36*
G01*
X178793500Y-82321500D02*
X180093500Y-82321500D01*
G75*
G02*
X180743500Y-82971500I0J-650000D01*
G01*
X180743500Y-84771500D01*
G75*
G02*
X180093500Y-85421500I-650000J0D01*
G01*
X178793500Y-85421500D01*
G75*
G02*
X178143500Y-84771500I0J650000D01*
G01*
X178143500Y-82971500D01*
G75*
G02*
X178793500Y-82321500I650000J0D01*
G01*
G37*
G36*
G01*
X178793500Y-73621500D02*
X180093500Y-73621500D01*
G75*
G02*
X180743500Y-74271500I0J-650000D01*
G01*
X180743500Y-76071500D01*
G75*
G02*
X180093500Y-76721500I-650000J0D01*
G01*
X178793500Y-76721500D01*
G75*
G02*
X178143500Y-76071500I0J650000D01*
G01*
X178143500Y-74271500D01*
G75*
G02*
X178793500Y-73621500I650000J0D01*
G01*
G37*
G36*
G01*
X145336500Y-82333500D02*
X146636500Y-82333500D01*
G75*
G02*
X147286500Y-82983500I0J-650000D01*
G01*
X147286500Y-84783500D01*
G75*
G02*
X146636500Y-85433500I-650000J0D01*
G01*
X145336500Y-85433500D01*
G75*
G02*
X144686500Y-84783500I0J650000D01*
G01*
X144686500Y-82983500D01*
G75*
G02*
X145336500Y-82333500I650000J0D01*
G01*
G37*
G36*
G01*
X145336500Y-73633500D02*
X146636500Y-73633500D01*
G75*
G02*
X147286500Y-74283500I0J-650000D01*
G01*
X147286500Y-76083500D01*
G75*
G02*
X146636500Y-76733500I-650000J0D01*
G01*
X145336500Y-76733500D01*
G75*
G02*
X144686500Y-76083500I0J650000D01*
G01*
X144686500Y-74283500D01*
G75*
G02*
X145336500Y-73633500I650000J0D01*
G01*
G37*
G36*
G01*
X140256500Y-82333500D02*
X141556500Y-82333500D01*
G75*
G02*
X142206500Y-82983500I0J-650000D01*
G01*
X142206500Y-84783500D01*
G75*
G02*
X141556500Y-85433500I-650000J0D01*
G01*
X140256500Y-85433500D01*
G75*
G02*
X139606500Y-84783500I0J650000D01*
G01*
X139606500Y-82983500D01*
G75*
G02*
X140256500Y-82333500I650000J0D01*
G01*
G37*
G36*
G01*
X140256500Y-73633500D02*
X141556500Y-73633500D01*
G75*
G02*
X142206500Y-74283500I0J-650000D01*
G01*
X142206500Y-76083500D01*
G75*
G02*
X141556500Y-76733500I-650000J0D01*
G01*
X140256500Y-76733500D01*
G75*
G02*
X139606500Y-76083500I0J650000D01*
G01*
X139606500Y-74283500D01*
G75*
G02*
X140256500Y-73633500I650000J0D01*
G01*
G37*
G36*
G01*
X135176500Y-82333500D02*
X136476500Y-82333500D01*
G75*
G02*
X137126500Y-82983500I0J-650000D01*
G01*
X137126500Y-84783500D01*
G75*
G02*
X136476500Y-85433500I-650000J0D01*
G01*
X135176500Y-85433500D01*
G75*
G02*
X134526500Y-84783500I0J650000D01*
G01*
X134526500Y-82983500D01*
G75*
G02*
X135176500Y-82333500I650000J0D01*
G01*
G37*
G36*
G01*
X135176500Y-73633500D02*
X136476500Y-73633500D01*
G75*
G02*
X137126500Y-74283500I0J-650000D01*
G01*
X137126500Y-76083500D01*
G75*
G02*
X136476500Y-76733500I-650000J0D01*
G01*
X135176500Y-76733500D01*
G75*
G02*
X134526500Y-76083500I0J650000D01*
G01*
X134526500Y-74283500D01*
G75*
G02*
X135176500Y-73633500I650000J0D01*
G01*
G37*
G36*
G01*
X130096500Y-82333500D02*
X131396500Y-82333500D01*
G75*
G02*
X132046500Y-82983500I0J-650000D01*
G01*
X132046500Y-84783500D01*
G75*
G02*
X131396500Y-85433500I-650000J0D01*
G01*
X130096500Y-85433500D01*
G75*
G02*
X129446500Y-84783500I0J650000D01*
G01*
X129446500Y-82983500D01*
G75*
G02*
X130096500Y-82333500I650000J0D01*
G01*
G37*
G36*
G01*
X130096500Y-73633500D02*
X131396500Y-73633500D01*
G75*
G02*
X132046500Y-74283500I0J-650000D01*
G01*
X132046500Y-76083500D01*
G75*
G02*
X131396500Y-76733500I-650000J0D01*
G01*
X130096500Y-76733500D01*
G75*
G02*
X129446500Y-76083500I0J650000D01*
G01*
X129446500Y-74283500D01*
G75*
G02*
X130096500Y-73633500I650000J0D01*
G01*
G37*
D18*
X155130500Y-119443500D03*
D19*
X155130500Y-121983500D03*
D21*
X138246500Y-100647500D03*
X130746500Y-99014170D03*
D22*
X122364500Y-39687500D03*
D14*
X167536500Y-120713500D03*
X165036500Y-120713500D03*
X162536500Y-120713500D03*
G36*
G01*
X159136500Y-121473794D02*
X159136500Y-119953206D01*
G75*
G02*
X159401206Y-119688500I264706J0D01*
G01*
X160671794Y-119688500D01*
G75*
G02*
X160936500Y-119953206I0J-264706D01*
G01*
X160936500Y-121473794D01*
G75*
G02*
X160671794Y-121738500I-264706J0D01*
G01*
X159401206Y-121738500D01*
G75*
G02*
X159136500Y-121473794I0J264706D01*
G01*
G37*
D23*
X173912500Y-131873500D03*
D24*
X166292500Y-139493500D03*
X171372500Y-131873500D03*
X168832500Y-139493500D03*
X168832500Y-131873500D03*
X171372500Y-139493500D03*
X166292500Y-131873500D03*
X173912500Y-139493500D03*
D23*
X196518500Y-131873500D03*
D24*
X188898500Y-139493500D03*
X193978500Y-131873500D03*
X191438500Y-139493500D03*
X191438500Y-131873500D03*
X193978500Y-139493500D03*
X188898500Y-131873500D03*
X196518500Y-139493500D03*
D23*
X185088500Y-131873500D03*
D24*
X177468500Y-139493500D03*
X182548500Y-131873500D03*
X180008500Y-139493500D03*
X180008500Y-131873500D03*
X182548500Y-139493500D03*
X177468500Y-131873500D03*
X185088500Y-139493500D03*
D23*
X162482500Y-131873500D03*
D24*
X154862500Y-139493500D03*
X159942500Y-131873500D03*
X157402500Y-139493500D03*
X157402500Y-131873500D03*
X159942500Y-139493500D03*
X154862500Y-131873500D03*
X162482500Y-139493500D03*
D20*
X149502500Y-138493500D03*
G36*
G01*
X146102500Y-139278794D02*
X146102500Y-137708206D01*
G75*
G02*
X146367206Y-137443500I264706J0D01*
G01*
X147637794Y-137443500D01*
G75*
G02*
X147902500Y-137708206I0J-264706D01*
G01*
X147902500Y-139278794D01*
G75*
G02*
X147637794Y-139543500I-264706J0D01*
G01*
X146367206Y-139543500D01*
G75*
G02*
X146102500Y-139278794I0J264706D01*
G01*
G37*
D22*
X172910500Y-161607500D03*
X220154500Y-154241500D03*
D17*
X145986500Y-94678500D03*
X145986500Y-89598500D03*
M02*
