G04 #@! TF.GenerationSoftware,KiCad,Pcbnew,(5.1.6)-1*
G04 #@! TF.CreationDate,2021-11-05T18:09:41+01:00*
G04 #@! TF.ProjectId,hamodule,68616d6f-6475-46c6-952e-6b696361645f,rev?*
G04 #@! TF.SameCoordinates,Original*
G04 #@! TF.FileFunction,Copper,L1,Top*
G04 #@! TF.FilePolarity,Positive*
%FSLAX46Y46*%
G04 Gerber Fmt 4.6, Leading zero omitted, Abs format (unit mm)*
G04 Created by KiCad (PCBNEW (5.1.6)-1) date 2021-11-05 18:09:41*
%MOMM*%
%LPD*%
G01*
G04 APERTURE LIST*
G04 #@! TA.AperFunction,ComponentPad*
%ADD10C,1.600000*%
G04 #@! TD*
G04 #@! TA.AperFunction,ComponentPad*
%ADD11R,1.600000X1.600000*%
G04 #@! TD*
G04 #@! TA.AperFunction,ComponentPad*
%ADD12O,2.000000X1.905000*%
G04 #@! TD*
G04 #@! TA.AperFunction,ComponentPad*
%ADD13R,2.000000X1.905000*%
G04 #@! TD*
G04 #@! TA.AperFunction,ComponentPad*
%ADD14O,1.700000X1.950000*%
G04 #@! TD*
G04 #@! TA.AperFunction,ViaPad*
%ADD15C,1.700000*%
G04 #@! TD*
G04 #@! TA.AperFunction,ViaPad*
%ADD16C,1.400000*%
G04 #@! TD*
G04 #@! TA.AperFunction,ViaPad*
%ADD17R,1.400000X1.400000*%
G04 #@! TD*
G04 #@! TA.AperFunction,ComponentPad*
%ADD18C,1.650000*%
G04 #@! TD*
G04 #@! TA.AperFunction,ComponentPad*
%ADD19R,1.650000X1.650000*%
G04 #@! TD*
G04 #@! TA.AperFunction,ComponentPad*
%ADD20C,2.000000*%
G04 #@! TD*
G04 #@! TA.AperFunction,ComponentPad*
%ADD21O,1.700000X1.700000*%
G04 #@! TD*
G04 #@! TA.AperFunction,ComponentPad*
%ADD22R,1.700000X1.700000*%
G04 #@! TD*
G04 #@! TA.AperFunction,ComponentPad*
%ADD23O,1.700000X2.000000*%
G04 #@! TD*
G04 #@! TA.AperFunction,ComponentPad*
%ADD24C,1.800000*%
G04 #@! TD*
G04 #@! TA.AperFunction,ComponentPad*
%ADD25C,5.500000*%
G04 #@! TD*
G04 #@! TA.AperFunction,ComponentPad*
%ADD26R,1.600000X2.400000*%
G04 #@! TD*
G04 #@! TA.AperFunction,ComponentPad*
%ADD27O,1.600000X2.400000*%
G04 #@! TD*
G04 #@! TA.AperFunction,Conductor*
%ADD28C,2.000000*%
G04 #@! TD*
G04 #@! TA.AperFunction,Conductor*
%ADD29C,1.000000*%
G04 #@! TD*
G04 #@! TA.AperFunction,Conductor*
%ADD30C,3.000000*%
G04 #@! TD*
G04 #@! TA.AperFunction,Conductor*
%ADD31C,0.250000*%
G04 #@! TD*
G04 APERTURE END LIST*
G04 #@! TA.AperFunction,SMDPad,CuDef*
G36*
G01*
X193552500Y-108080500D02*
X195702500Y-108080500D01*
G75*
G02*
X195952500Y-108330500I0J-250000D01*
G01*
X195952500Y-109255500D01*
G75*
G02*
X195702500Y-109505500I-250000J0D01*
G01*
X193552500Y-109505500D01*
G75*
G02*
X193302500Y-109255500I0J250000D01*
G01*
X193302500Y-108330500D01*
G75*
G02*
X193552500Y-108080500I250000J0D01*
G01*
G37*
G04 #@! TD.AperFunction*
G04 #@! TA.AperFunction,SMDPad,CuDef*
G36*
G01*
X193552500Y-105105500D02*
X195702500Y-105105500D01*
G75*
G02*
X195952500Y-105355500I0J-250000D01*
G01*
X195952500Y-106280500D01*
G75*
G02*
X195702500Y-106530500I-250000J0D01*
G01*
X193552500Y-106530500D01*
G75*
G02*
X193302500Y-106280500I0J250000D01*
G01*
X193302500Y-105355500D01*
G75*
G02*
X193552500Y-105105500I250000J0D01*
G01*
G37*
G04 #@! TD.AperFunction*
G04 #@! TA.AperFunction,SMDPad,CuDef*
G36*
G01*
X188472500Y-108080500D02*
X190622500Y-108080500D01*
G75*
G02*
X190872500Y-108330500I0J-250000D01*
G01*
X190872500Y-109255500D01*
G75*
G02*
X190622500Y-109505500I-250000J0D01*
G01*
X188472500Y-109505500D01*
G75*
G02*
X188222500Y-109255500I0J250000D01*
G01*
X188222500Y-108330500D01*
G75*
G02*
X188472500Y-108080500I250000J0D01*
G01*
G37*
G04 #@! TD.AperFunction*
G04 #@! TA.AperFunction,SMDPad,CuDef*
G36*
G01*
X188472500Y-105105500D02*
X190622500Y-105105500D01*
G75*
G02*
X190872500Y-105355500I0J-250000D01*
G01*
X190872500Y-106280500D01*
G75*
G02*
X190622500Y-106530500I-250000J0D01*
G01*
X188472500Y-106530500D01*
G75*
G02*
X188222500Y-106280500I0J250000D01*
G01*
X188222500Y-105355500D01*
G75*
G02*
X188472500Y-105105500I250000J0D01*
G01*
G37*
G04 #@! TD.AperFunction*
G04 #@! TA.AperFunction,SMDPad,CuDef*
G36*
G01*
X183392500Y-108080500D02*
X185542500Y-108080500D01*
G75*
G02*
X185792500Y-108330500I0J-250000D01*
G01*
X185792500Y-109255500D01*
G75*
G02*
X185542500Y-109505500I-250000J0D01*
G01*
X183392500Y-109505500D01*
G75*
G02*
X183142500Y-109255500I0J250000D01*
G01*
X183142500Y-108330500D01*
G75*
G02*
X183392500Y-108080500I250000J0D01*
G01*
G37*
G04 #@! TD.AperFunction*
G04 #@! TA.AperFunction,SMDPad,CuDef*
G36*
G01*
X183392500Y-105105500D02*
X185542500Y-105105500D01*
G75*
G02*
X185792500Y-105355500I0J-250000D01*
G01*
X185792500Y-106280500D01*
G75*
G02*
X185542500Y-106530500I-250000J0D01*
G01*
X183392500Y-106530500D01*
G75*
G02*
X183142500Y-106280500I0J250000D01*
G01*
X183142500Y-105355500D01*
G75*
G02*
X183392500Y-105105500I250000J0D01*
G01*
G37*
G04 #@! TD.AperFunction*
G04 #@! TA.AperFunction,SMDPad,CuDef*
G36*
G01*
X178312500Y-108144000D02*
X180462500Y-108144000D01*
G75*
G02*
X180712500Y-108394000I0J-250000D01*
G01*
X180712500Y-109319000D01*
G75*
G02*
X180462500Y-109569000I-250000J0D01*
G01*
X178312500Y-109569000D01*
G75*
G02*
X178062500Y-109319000I0J250000D01*
G01*
X178062500Y-108394000D01*
G75*
G02*
X178312500Y-108144000I250000J0D01*
G01*
G37*
G04 #@! TD.AperFunction*
G04 #@! TA.AperFunction,SMDPad,CuDef*
G36*
G01*
X178312500Y-105169000D02*
X180462500Y-105169000D01*
G75*
G02*
X180712500Y-105419000I0J-250000D01*
G01*
X180712500Y-106344000D01*
G75*
G02*
X180462500Y-106594000I-250000J0D01*
G01*
X178312500Y-106594000D01*
G75*
G02*
X178062500Y-106344000I0J250000D01*
G01*
X178062500Y-105419000D01*
G75*
G02*
X178312500Y-105169000I250000J0D01*
G01*
G37*
G04 #@! TD.AperFunction*
G04 #@! TA.AperFunction,SMDPad,CuDef*
G36*
G01*
X132212501Y-139068500D02*
X131312499Y-139068500D01*
G75*
G02*
X131062500Y-138818501I0J249999D01*
G01*
X131062500Y-138168499D01*
G75*
G02*
X131312499Y-137918500I249999J0D01*
G01*
X132212501Y-137918500D01*
G75*
G02*
X132462500Y-138168499I0J-249999D01*
G01*
X132462500Y-138818501D01*
G75*
G02*
X132212501Y-139068500I-249999J0D01*
G01*
G37*
G04 #@! TD.AperFunction*
G04 #@! TA.AperFunction,SMDPad,CuDef*
G36*
G01*
X132212501Y-141118500D02*
X131312499Y-141118500D01*
G75*
G02*
X131062500Y-140868501I0J249999D01*
G01*
X131062500Y-140218499D01*
G75*
G02*
X131312499Y-139968500I249999J0D01*
G01*
X132212501Y-139968500D01*
G75*
G02*
X132462500Y-140218499I0J-249999D01*
G01*
X132462500Y-140868501D01*
G75*
G02*
X132212501Y-141118500I-249999J0D01*
G01*
G37*
G04 #@! TD.AperFunction*
G04 #@! TA.AperFunction,SMDPad,CuDef*
G36*
G01*
X131312499Y-146064500D02*
X132212501Y-146064500D01*
G75*
G02*
X132462500Y-146314499I0J-249999D01*
G01*
X132462500Y-146964501D01*
G75*
G02*
X132212501Y-147214500I-249999J0D01*
G01*
X131312499Y-147214500D01*
G75*
G02*
X131062500Y-146964501I0J249999D01*
G01*
X131062500Y-146314499D01*
G75*
G02*
X131312499Y-146064500I249999J0D01*
G01*
G37*
G04 #@! TD.AperFunction*
G04 #@! TA.AperFunction,SMDPad,CuDef*
G36*
G01*
X131312499Y-144014500D02*
X132212501Y-144014500D01*
G75*
G02*
X132462500Y-144264499I0J-249999D01*
G01*
X132462500Y-144914501D01*
G75*
G02*
X132212501Y-145164500I-249999J0D01*
G01*
X131312499Y-145164500D01*
G75*
G02*
X131062500Y-144914501I0J249999D01*
G01*
X131062500Y-144264499D01*
G75*
G02*
X131312499Y-144014500I249999J0D01*
G01*
G37*
G04 #@! TD.AperFunction*
D10*
X136334500Y-147089500D03*
D11*
X136334500Y-144589500D03*
D10*
X136334500Y-137517500D03*
D11*
X136334500Y-140017500D03*
D12*
X129222500Y-140525500D03*
X129222500Y-143065500D03*
D13*
X129222500Y-145605500D03*
D14*
X176346500Y-144843500D03*
X173846500Y-144843500D03*
X171346500Y-144843500D03*
G04 #@! TA.AperFunction,ComponentPad*
G36*
G01*
X167996500Y-145568500D02*
X167996500Y-144118500D01*
G75*
G02*
X168246500Y-143868500I250000J0D01*
G01*
X169446500Y-143868500D01*
G75*
G02*
X169696500Y-144118500I0J-250000D01*
G01*
X169696500Y-145568500D01*
G75*
G02*
X169446500Y-145818500I-250000J0D01*
G01*
X168246500Y-145818500D01*
G75*
G02*
X167996500Y-145568500I0J250000D01*
G01*
G37*
G04 #@! TD.AperFunction*
G04 #@! TA.AperFunction,SMDPad,CuDef*
G36*
G01*
X157104501Y-110856500D02*
X156204499Y-110856500D01*
G75*
G02*
X155954500Y-110606501I0J249999D01*
G01*
X155954500Y-109956499D01*
G75*
G02*
X156204499Y-109706500I249999J0D01*
G01*
X157104501Y-109706500D01*
G75*
G02*
X157354500Y-109956499I0J-249999D01*
G01*
X157354500Y-110606501D01*
G75*
G02*
X157104501Y-110856500I-249999J0D01*
G01*
G37*
G04 #@! TD.AperFunction*
G04 #@! TA.AperFunction,SMDPad,CuDef*
G36*
G01*
X157104501Y-112906500D02*
X156204499Y-112906500D01*
G75*
G02*
X155954500Y-112656501I0J249999D01*
G01*
X155954500Y-112006499D01*
G75*
G02*
X156204499Y-111756500I249999J0D01*
G01*
X157104501Y-111756500D01*
G75*
G02*
X157354500Y-112006499I0J-249999D01*
G01*
X157354500Y-112656501D01*
G75*
G02*
X157104501Y-112906500I-249999J0D01*
G01*
G37*
G04 #@! TD.AperFunction*
G04 #@! TA.AperFunction,SMDPad,CuDef*
G36*
G01*
X154564501Y-110865500D02*
X153664499Y-110865500D01*
G75*
G02*
X153414500Y-110615501I0J249999D01*
G01*
X153414500Y-109965499D01*
G75*
G02*
X153664499Y-109715500I249999J0D01*
G01*
X154564501Y-109715500D01*
G75*
G02*
X154814500Y-109965499I0J-249999D01*
G01*
X154814500Y-110615501D01*
G75*
G02*
X154564501Y-110865500I-249999J0D01*
G01*
G37*
G04 #@! TD.AperFunction*
G04 #@! TA.AperFunction,SMDPad,CuDef*
G36*
G01*
X154564501Y-112915500D02*
X153664499Y-112915500D01*
G75*
G02*
X153414500Y-112665501I0J249999D01*
G01*
X153414500Y-112015499D01*
G75*
G02*
X153664499Y-111765500I249999J0D01*
G01*
X154564501Y-111765500D01*
G75*
G02*
X154814500Y-112015499I0J-249999D01*
G01*
X154814500Y-112665501D01*
G75*
G02*
X154564501Y-112915500I-249999J0D01*
G01*
G37*
G04 #@! TD.AperFunction*
D15*
X166126500Y-88753501D03*
X166126500Y-96373501D03*
D16*
X166126500Y-103993501D03*
D17*
X166126500Y-106533501D03*
D15*
X171714500Y-88753501D03*
X171714500Y-96373501D03*
D16*
X171714500Y-103993501D03*
D17*
X171714500Y-106533501D03*
D15*
X160464500Y-88709500D03*
X160464500Y-96329500D03*
D16*
X160464500Y-103949500D03*
D17*
X160464500Y-106489500D03*
D15*
X154696500Y-88753501D03*
X154696500Y-96373501D03*
D16*
X154696500Y-103993501D03*
D17*
X154696500Y-106533501D03*
G04 #@! TA.AperFunction,SMDPad,CuDef*
G36*
G01*
X169666499Y-114314500D02*
X170566501Y-114314500D01*
G75*
G02*
X170816500Y-114564499I0J-249999D01*
G01*
X170816500Y-115214501D01*
G75*
G02*
X170566501Y-115464500I-249999J0D01*
G01*
X169666499Y-115464500D01*
G75*
G02*
X169416500Y-115214501I0J249999D01*
G01*
X169416500Y-114564499D01*
G75*
G02*
X169666499Y-114314500I249999J0D01*
G01*
G37*
G04 #@! TD.AperFunction*
G04 #@! TA.AperFunction,SMDPad,CuDef*
G36*
G01*
X169666499Y-112264500D02*
X170566501Y-112264500D01*
G75*
G02*
X170816500Y-112514499I0J-249999D01*
G01*
X170816500Y-113164501D01*
G75*
G02*
X170566501Y-113414500I-249999J0D01*
G01*
X169666499Y-113414500D01*
G75*
G02*
X169416500Y-113164501I0J249999D01*
G01*
X169416500Y-112514499D01*
G75*
G02*
X169666499Y-112264500I249999J0D01*
G01*
G37*
G04 #@! TD.AperFunction*
G04 #@! TA.AperFunction,SMDPad,CuDef*
G36*
G01*
X157279500Y-144359000D02*
X156029500Y-144359000D01*
G75*
G02*
X155779500Y-144109000I0J250000D01*
G01*
X155779500Y-143184000D01*
G75*
G02*
X156029500Y-142934000I250000J0D01*
G01*
X157279500Y-142934000D01*
G75*
G02*
X157529500Y-143184000I0J-250000D01*
G01*
X157529500Y-144109000D01*
G75*
G02*
X157279500Y-144359000I-250000J0D01*
G01*
G37*
G04 #@! TD.AperFunction*
G04 #@! TA.AperFunction,SMDPad,CuDef*
G36*
G01*
X157279500Y-147334000D02*
X156029500Y-147334000D01*
G75*
G02*
X155779500Y-147084000I0J250000D01*
G01*
X155779500Y-146159000D01*
G75*
G02*
X156029500Y-145909000I250000J0D01*
G01*
X157279500Y-145909000D01*
G75*
G02*
X157529500Y-146159000I0J-250000D01*
G01*
X157529500Y-147084000D01*
G75*
G02*
X157279500Y-147334000I-250000J0D01*
G01*
G37*
G04 #@! TD.AperFunction*
G04 #@! TA.AperFunction,SMDPad,CuDef*
G36*
G01*
X159819500Y-144359000D02*
X158569500Y-144359000D01*
G75*
G02*
X158319500Y-144109000I0J250000D01*
G01*
X158319500Y-143184000D01*
G75*
G02*
X158569500Y-142934000I250000J0D01*
G01*
X159819500Y-142934000D01*
G75*
G02*
X160069500Y-143184000I0J-250000D01*
G01*
X160069500Y-144109000D01*
G75*
G02*
X159819500Y-144359000I-250000J0D01*
G01*
G37*
G04 #@! TD.AperFunction*
G04 #@! TA.AperFunction,SMDPad,CuDef*
G36*
G01*
X159819500Y-147334000D02*
X158569500Y-147334000D01*
G75*
G02*
X158319500Y-147084000I0J250000D01*
G01*
X158319500Y-146159000D01*
G75*
G02*
X158569500Y-145909000I250000J0D01*
G01*
X159819500Y-145909000D01*
G75*
G02*
X160069500Y-146159000I0J-250000D01*
G01*
X160069500Y-147084000D01*
G75*
G02*
X159819500Y-147334000I-250000J0D01*
G01*
G37*
G04 #@! TD.AperFunction*
G04 #@! TA.AperFunction,SMDPad,CuDef*
G36*
G01*
X162359500Y-144359000D02*
X161109500Y-144359000D01*
G75*
G02*
X160859500Y-144109000I0J250000D01*
G01*
X160859500Y-143184000D01*
G75*
G02*
X161109500Y-142934000I250000J0D01*
G01*
X162359500Y-142934000D01*
G75*
G02*
X162609500Y-143184000I0J-250000D01*
G01*
X162609500Y-144109000D01*
G75*
G02*
X162359500Y-144359000I-250000J0D01*
G01*
G37*
G04 #@! TD.AperFunction*
G04 #@! TA.AperFunction,SMDPad,CuDef*
G36*
G01*
X162359500Y-147334000D02*
X161109500Y-147334000D01*
G75*
G02*
X160859500Y-147084000I0J250000D01*
G01*
X160859500Y-146159000D01*
G75*
G02*
X161109500Y-145909000I250000J0D01*
G01*
X162359500Y-145909000D01*
G75*
G02*
X162609500Y-146159000I0J-250000D01*
G01*
X162609500Y-147084000D01*
G75*
G02*
X162359500Y-147334000I-250000J0D01*
G01*
G37*
G04 #@! TD.AperFunction*
G04 #@! TA.AperFunction,SMDPad,CuDef*
G36*
G01*
X164899500Y-144359000D02*
X163649500Y-144359000D01*
G75*
G02*
X163399500Y-144109000I0J250000D01*
G01*
X163399500Y-143184000D01*
G75*
G02*
X163649500Y-142934000I250000J0D01*
G01*
X164899500Y-142934000D01*
G75*
G02*
X165149500Y-143184000I0J-250000D01*
G01*
X165149500Y-144109000D01*
G75*
G02*
X164899500Y-144359000I-250000J0D01*
G01*
G37*
G04 #@! TD.AperFunction*
G04 #@! TA.AperFunction,SMDPad,CuDef*
G36*
G01*
X164899500Y-147334000D02*
X163649500Y-147334000D01*
G75*
G02*
X163399500Y-147084000I0J250000D01*
G01*
X163399500Y-146159000D01*
G75*
G02*
X163649500Y-145909000I250000J0D01*
G01*
X164899500Y-145909000D01*
G75*
G02*
X165149500Y-146159000I0J-250000D01*
G01*
X165149500Y-147084000D01*
G75*
G02*
X164899500Y-147334000I-250000J0D01*
G01*
G37*
G04 #@! TD.AperFunction*
D18*
X149476500Y-113587500D03*
X149476500Y-123587500D03*
X129476500Y-128587500D03*
D19*
X129476500Y-108587500D03*
G04 #@! TA.AperFunction,ComponentPad*
G36*
G01*
X169491500Y-82383500D02*
X170741500Y-82383500D01*
G75*
G02*
X171366500Y-83008500I0J-625000D01*
G01*
X171366500Y-84758500D01*
G75*
G02*
X170741500Y-85383500I-625000J0D01*
G01*
X169491500Y-85383500D01*
G75*
G02*
X168866500Y-84758500I0J625000D01*
G01*
X168866500Y-83008500D01*
G75*
G02*
X169491500Y-82383500I625000J0D01*
G01*
G37*
G04 #@! TD.AperFunction*
G04 #@! TA.AperFunction,ComponentPad*
G36*
G01*
X169491500Y-73683500D02*
X170741500Y-73683500D01*
G75*
G02*
X171366500Y-74308500I0J-625000D01*
G01*
X171366500Y-76058500D01*
G75*
G02*
X170741500Y-76683500I-625000J0D01*
G01*
X169491500Y-76683500D01*
G75*
G02*
X168866500Y-76058500I0J625000D01*
G01*
X168866500Y-74308500D01*
G75*
G02*
X169491500Y-73683500I625000J0D01*
G01*
G37*
G04 #@! TD.AperFunction*
G04 #@! TA.AperFunction,ComponentPad*
G36*
G01*
X164411500Y-82383500D02*
X165661500Y-82383500D01*
G75*
G02*
X166286500Y-83008500I0J-625000D01*
G01*
X166286500Y-84758500D01*
G75*
G02*
X165661500Y-85383500I-625000J0D01*
G01*
X164411500Y-85383500D01*
G75*
G02*
X163786500Y-84758500I0J625000D01*
G01*
X163786500Y-83008500D01*
G75*
G02*
X164411500Y-82383500I625000J0D01*
G01*
G37*
G04 #@! TD.AperFunction*
G04 #@! TA.AperFunction,ComponentPad*
G36*
G01*
X164411500Y-73683500D02*
X165661500Y-73683500D01*
G75*
G02*
X166286500Y-74308500I0J-625000D01*
G01*
X166286500Y-76058500D01*
G75*
G02*
X165661500Y-76683500I-625000J0D01*
G01*
X164411500Y-76683500D01*
G75*
G02*
X163786500Y-76058500I0J625000D01*
G01*
X163786500Y-74308500D01*
G75*
G02*
X164411500Y-73683500I625000J0D01*
G01*
G37*
G04 #@! TD.AperFunction*
G04 #@! TA.AperFunction,ComponentPad*
G36*
G01*
X159331500Y-82383500D02*
X160581500Y-82383500D01*
G75*
G02*
X161206500Y-83008500I0J-625000D01*
G01*
X161206500Y-84758500D01*
G75*
G02*
X160581500Y-85383500I-625000J0D01*
G01*
X159331500Y-85383500D01*
G75*
G02*
X158706500Y-84758500I0J625000D01*
G01*
X158706500Y-83008500D01*
G75*
G02*
X159331500Y-82383500I625000J0D01*
G01*
G37*
G04 #@! TD.AperFunction*
G04 #@! TA.AperFunction,ComponentPad*
G36*
G01*
X159331500Y-73683500D02*
X160581500Y-73683500D01*
G75*
G02*
X161206500Y-74308500I0J-625000D01*
G01*
X161206500Y-76058500D01*
G75*
G02*
X160581500Y-76683500I-625000J0D01*
G01*
X159331500Y-76683500D01*
G75*
G02*
X158706500Y-76058500I0J625000D01*
G01*
X158706500Y-74308500D01*
G75*
G02*
X159331500Y-73683500I625000J0D01*
G01*
G37*
G04 #@! TD.AperFunction*
G04 #@! TA.AperFunction,ComponentPad*
G36*
G01*
X154251500Y-82383500D02*
X155501500Y-82383500D01*
G75*
G02*
X156126500Y-83008500I0J-625000D01*
G01*
X156126500Y-84758500D01*
G75*
G02*
X155501500Y-85383500I-625000J0D01*
G01*
X154251500Y-85383500D01*
G75*
G02*
X153626500Y-84758500I0J625000D01*
G01*
X153626500Y-83008500D01*
G75*
G02*
X154251500Y-82383500I625000J0D01*
G01*
G37*
G04 #@! TD.AperFunction*
G04 #@! TA.AperFunction,ComponentPad*
G36*
G01*
X154251500Y-73683500D02*
X155501500Y-73683500D01*
G75*
G02*
X156126500Y-74308500I0J-625000D01*
G01*
X156126500Y-76058500D01*
G75*
G02*
X155501500Y-76683500I-625000J0D01*
G01*
X154251500Y-76683500D01*
G75*
G02*
X153626500Y-76058500I0J625000D01*
G01*
X153626500Y-74308500D01*
G75*
G02*
X154251500Y-73683500I625000J0D01*
G01*
G37*
G04 #@! TD.AperFunction*
G04 #@! TA.AperFunction,SMDPad,CuDef*
G36*
G01*
X159471500Y-117051500D02*
X159171500Y-117051500D01*
G75*
G02*
X159021500Y-116901500I0J150000D01*
G01*
X159021500Y-115251500D01*
G75*
G02*
X159171500Y-115101500I150000J0D01*
G01*
X159471500Y-115101500D01*
G75*
G02*
X159621500Y-115251500I0J-150000D01*
G01*
X159621500Y-116901500D01*
G75*
G02*
X159471500Y-117051500I-150000J0D01*
G01*
G37*
G04 #@! TD.AperFunction*
G04 #@! TA.AperFunction,SMDPad,CuDef*
G36*
G01*
X160741500Y-117051500D02*
X160441500Y-117051500D01*
G75*
G02*
X160291500Y-116901500I0J150000D01*
G01*
X160291500Y-115251500D01*
G75*
G02*
X160441500Y-115101500I150000J0D01*
G01*
X160741500Y-115101500D01*
G75*
G02*
X160891500Y-115251500I0J-150000D01*
G01*
X160891500Y-116901500D01*
G75*
G02*
X160741500Y-117051500I-150000J0D01*
G01*
G37*
G04 #@! TD.AperFunction*
G04 #@! TA.AperFunction,SMDPad,CuDef*
G36*
G01*
X162011500Y-117051500D02*
X161711500Y-117051500D01*
G75*
G02*
X161561500Y-116901500I0J150000D01*
G01*
X161561500Y-115251500D01*
G75*
G02*
X161711500Y-115101500I150000J0D01*
G01*
X162011500Y-115101500D01*
G75*
G02*
X162161500Y-115251500I0J-150000D01*
G01*
X162161500Y-116901500D01*
G75*
G02*
X162011500Y-117051500I-150000J0D01*
G01*
G37*
G04 #@! TD.AperFunction*
G04 #@! TA.AperFunction,SMDPad,CuDef*
G36*
G01*
X163281500Y-117051500D02*
X162981500Y-117051500D01*
G75*
G02*
X162831500Y-116901500I0J150000D01*
G01*
X162831500Y-115251500D01*
G75*
G02*
X162981500Y-115101500I150000J0D01*
G01*
X163281500Y-115101500D01*
G75*
G02*
X163431500Y-115251500I0J-150000D01*
G01*
X163431500Y-116901500D01*
G75*
G02*
X163281500Y-117051500I-150000J0D01*
G01*
G37*
G04 #@! TD.AperFunction*
G04 #@! TA.AperFunction,SMDPad,CuDef*
G36*
G01*
X164551500Y-117051500D02*
X164251500Y-117051500D01*
G75*
G02*
X164101500Y-116901500I0J150000D01*
G01*
X164101500Y-115251500D01*
G75*
G02*
X164251500Y-115101500I150000J0D01*
G01*
X164551500Y-115101500D01*
G75*
G02*
X164701500Y-115251500I0J-150000D01*
G01*
X164701500Y-116901500D01*
G75*
G02*
X164551500Y-117051500I-150000J0D01*
G01*
G37*
G04 #@! TD.AperFunction*
G04 #@! TA.AperFunction,SMDPad,CuDef*
G36*
G01*
X165821500Y-117051500D02*
X165521500Y-117051500D01*
G75*
G02*
X165371500Y-116901500I0J150000D01*
G01*
X165371500Y-115251500D01*
G75*
G02*
X165521500Y-115101500I150000J0D01*
G01*
X165821500Y-115101500D01*
G75*
G02*
X165971500Y-115251500I0J-150000D01*
G01*
X165971500Y-116901500D01*
G75*
G02*
X165821500Y-117051500I-150000J0D01*
G01*
G37*
G04 #@! TD.AperFunction*
G04 #@! TA.AperFunction,SMDPad,CuDef*
G36*
G01*
X167091500Y-117051500D02*
X166791500Y-117051500D01*
G75*
G02*
X166641500Y-116901500I0J150000D01*
G01*
X166641500Y-115251500D01*
G75*
G02*
X166791500Y-115101500I150000J0D01*
G01*
X167091500Y-115101500D01*
G75*
G02*
X167241500Y-115251500I0J-150000D01*
G01*
X167241500Y-116901500D01*
G75*
G02*
X167091500Y-117051500I-150000J0D01*
G01*
G37*
G04 #@! TD.AperFunction*
G04 #@! TA.AperFunction,SMDPad,CuDef*
G36*
G01*
X168361500Y-117051500D02*
X168061500Y-117051500D01*
G75*
G02*
X167911500Y-116901500I0J150000D01*
G01*
X167911500Y-115251500D01*
G75*
G02*
X168061500Y-115101500I150000J0D01*
G01*
X168361500Y-115101500D01*
G75*
G02*
X168511500Y-115251500I0J-150000D01*
G01*
X168511500Y-116901500D01*
G75*
G02*
X168361500Y-117051500I-150000J0D01*
G01*
G37*
G04 #@! TD.AperFunction*
G04 #@! TA.AperFunction,SMDPad,CuDef*
G36*
G01*
X168361500Y-112101500D02*
X168061500Y-112101500D01*
G75*
G02*
X167911500Y-111951500I0J150000D01*
G01*
X167911500Y-110301500D01*
G75*
G02*
X168061500Y-110151500I150000J0D01*
G01*
X168361500Y-110151500D01*
G75*
G02*
X168511500Y-110301500I0J-150000D01*
G01*
X168511500Y-111951500D01*
G75*
G02*
X168361500Y-112101500I-150000J0D01*
G01*
G37*
G04 #@! TD.AperFunction*
G04 #@! TA.AperFunction,SMDPad,CuDef*
G36*
G01*
X167091500Y-112101500D02*
X166791500Y-112101500D01*
G75*
G02*
X166641500Y-111951500I0J150000D01*
G01*
X166641500Y-110301500D01*
G75*
G02*
X166791500Y-110151500I150000J0D01*
G01*
X167091500Y-110151500D01*
G75*
G02*
X167241500Y-110301500I0J-150000D01*
G01*
X167241500Y-111951500D01*
G75*
G02*
X167091500Y-112101500I-150000J0D01*
G01*
G37*
G04 #@! TD.AperFunction*
G04 #@! TA.AperFunction,SMDPad,CuDef*
G36*
G01*
X165821500Y-112101500D02*
X165521500Y-112101500D01*
G75*
G02*
X165371500Y-111951500I0J150000D01*
G01*
X165371500Y-110301500D01*
G75*
G02*
X165521500Y-110151500I150000J0D01*
G01*
X165821500Y-110151500D01*
G75*
G02*
X165971500Y-110301500I0J-150000D01*
G01*
X165971500Y-111951500D01*
G75*
G02*
X165821500Y-112101500I-150000J0D01*
G01*
G37*
G04 #@! TD.AperFunction*
G04 #@! TA.AperFunction,SMDPad,CuDef*
G36*
G01*
X164551500Y-112101500D02*
X164251500Y-112101500D01*
G75*
G02*
X164101500Y-111951500I0J150000D01*
G01*
X164101500Y-110301500D01*
G75*
G02*
X164251500Y-110151500I150000J0D01*
G01*
X164551500Y-110151500D01*
G75*
G02*
X164701500Y-110301500I0J-150000D01*
G01*
X164701500Y-111951500D01*
G75*
G02*
X164551500Y-112101500I-150000J0D01*
G01*
G37*
G04 #@! TD.AperFunction*
G04 #@! TA.AperFunction,SMDPad,CuDef*
G36*
G01*
X163281500Y-112101500D02*
X162981500Y-112101500D01*
G75*
G02*
X162831500Y-111951500I0J150000D01*
G01*
X162831500Y-110301500D01*
G75*
G02*
X162981500Y-110151500I150000J0D01*
G01*
X163281500Y-110151500D01*
G75*
G02*
X163431500Y-110301500I0J-150000D01*
G01*
X163431500Y-111951500D01*
G75*
G02*
X163281500Y-112101500I-150000J0D01*
G01*
G37*
G04 #@! TD.AperFunction*
G04 #@! TA.AperFunction,SMDPad,CuDef*
G36*
G01*
X162011500Y-112101500D02*
X161711500Y-112101500D01*
G75*
G02*
X161561500Y-111951500I0J150000D01*
G01*
X161561500Y-110301500D01*
G75*
G02*
X161711500Y-110151500I150000J0D01*
G01*
X162011500Y-110151500D01*
G75*
G02*
X162161500Y-110301500I0J-150000D01*
G01*
X162161500Y-111951500D01*
G75*
G02*
X162011500Y-112101500I-150000J0D01*
G01*
G37*
G04 #@! TD.AperFunction*
G04 #@! TA.AperFunction,SMDPad,CuDef*
G36*
G01*
X160741500Y-112101500D02*
X160441500Y-112101500D01*
G75*
G02*
X160291500Y-111951500I0J150000D01*
G01*
X160291500Y-110301500D01*
G75*
G02*
X160441500Y-110151500I150000J0D01*
G01*
X160741500Y-110151500D01*
G75*
G02*
X160891500Y-110301500I0J-150000D01*
G01*
X160891500Y-111951500D01*
G75*
G02*
X160741500Y-112101500I-150000J0D01*
G01*
G37*
G04 #@! TD.AperFunction*
G04 #@! TA.AperFunction,SMDPad,CuDef*
G36*
G01*
X159471500Y-112101500D02*
X159171500Y-112101500D01*
G75*
G02*
X159021500Y-111951500I0J150000D01*
G01*
X159021500Y-110301500D01*
G75*
G02*
X159171500Y-110151500I150000J0D01*
G01*
X159471500Y-110151500D01*
G75*
G02*
X159621500Y-110301500I0J-150000D01*
G01*
X159621500Y-111951500D01*
G75*
G02*
X159471500Y-112101500I-150000J0D01*
G01*
G37*
G04 #@! TD.AperFunction*
G04 #@! TA.AperFunction,SMDPad,CuDef*
G36*
G01*
X191746500Y-127662500D02*
X191746500Y-129512500D01*
G75*
G02*
X191496500Y-129762500I-250000J0D01*
G01*
X190496500Y-129762500D01*
G75*
G02*
X190246500Y-129512500I0J250000D01*
G01*
X190246500Y-127662500D01*
G75*
G02*
X190496500Y-127412500I250000J0D01*
G01*
X191496500Y-127412500D01*
G75*
G02*
X191746500Y-127662500I0J-250000D01*
G01*
G37*
G04 #@! TD.AperFunction*
G04 #@! TA.AperFunction,SMDPad,CuDef*
G36*
G01*
X194996500Y-127662500D02*
X194996500Y-129512500D01*
G75*
G02*
X194746500Y-129762500I-250000J0D01*
G01*
X193746500Y-129762500D01*
G75*
G02*
X193496500Y-129512500I0J250000D01*
G01*
X193496500Y-127662500D01*
G75*
G02*
X193746500Y-127412500I250000J0D01*
G01*
X194746500Y-127412500D01*
G75*
G02*
X194996500Y-127662500I0J-250000D01*
G01*
G37*
G04 #@! TD.AperFunction*
G04 #@! TA.AperFunction,SMDPad,CuDef*
G36*
G01*
X180671500Y-127662500D02*
X180671500Y-129512500D01*
G75*
G02*
X180421500Y-129762500I-250000J0D01*
G01*
X179421500Y-129762500D01*
G75*
G02*
X179171500Y-129512500I0J250000D01*
G01*
X179171500Y-127662500D01*
G75*
G02*
X179421500Y-127412500I250000J0D01*
G01*
X180421500Y-127412500D01*
G75*
G02*
X180671500Y-127662500I0J-250000D01*
G01*
G37*
G04 #@! TD.AperFunction*
G04 #@! TA.AperFunction,SMDPad,CuDef*
G36*
G01*
X183921500Y-127662500D02*
X183921500Y-129512500D01*
G75*
G02*
X183671500Y-129762500I-250000J0D01*
G01*
X182671500Y-129762500D01*
G75*
G02*
X182421500Y-129512500I0J250000D01*
G01*
X182421500Y-127662500D01*
G75*
G02*
X182671500Y-127412500I250000J0D01*
G01*
X183671500Y-127412500D01*
G75*
G02*
X183921500Y-127662500I0J-250000D01*
G01*
G37*
G04 #@! TD.AperFunction*
G04 #@! TA.AperFunction,SMDPad,CuDef*
G36*
G01*
X169394500Y-127662500D02*
X169394500Y-129512500D01*
G75*
G02*
X169144500Y-129762500I-250000J0D01*
G01*
X168144500Y-129762500D01*
G75*
G02*
X167894500Y-129512500I0J250000D01*
G01*
X167894500Y-127662500D01*
G75*
G02*
X168144500Y-127412500I250000J0D01*
G01*
X169144500Y-127412500D01*
G75*
G02*
X169394500Y-127662500I0J-250000D01*
G01*
G37*
G04 #@! TD.AperFunction*
G04 #@! TA.AperFunction,SMDPad,CuDef*
G36*
G01*
X172644500Y-127662500D02*
X172644500Y-129512500D01*
G75*
G02*
X172394500Y-129762500I-250000J0D01*
G01*
X171394500Y-129762500D01*
G75*
G02*
X171144500Y-129512500I0J250000D01*
G01*
X171144500Y-127662500D01*
G75*
G02*
X171394500Y-127412500I250000J0D01*
G01*
X172394500Y-127412500D01*
G75*
G02*
X172644500Y-127662500I0J-250000D01*
G01*
G37*
G04 #@! TD.AperFunction*
G04 #@! TA.AperFunction,SMDPad,CuDef*
G36*
G01*
X158218500Y-127662500D02*
X158218500Y-129512500D01*
G75*
G02*
X157968500Y-129762500I-250000J0D01*
G01*
X156968500Y-129762500D01*
G75*
G02*
X156718500Y-129512500I0J250000D01*
G01*
X156718500Y-127662500D01*
G75*
G02*
X156968500Y-127412500I250000J0D01*
G01*
X157968500Y-127412500D01*
G75*
G02*
X158218500Y-127662500I0J-250000D01*
G01*
G37*
G04 #@! TD.AperFunction*
G04 #@! TA.AperFunction,SMDPad,CuDef*
G36*
G01*
X161468500Y-127662500D02*
X161468500Y-129512500D01*
G75*
G02*
X161218500Y-129762500I-250000J0D01*
G01*
X160218500Y-129762500D01*
G75*
G02*
X159968500Y-129512500I0J250000D01*
G01*
X159968500Y-127662500D01*
G75*
G02*
X160218500Y-127412500I250000J0D01*
G01*
X161218500Y-127412500D01*
G75*
G02*
X161468500Y-127662500I0J-250000D01*
G01*
G37*
G04 #@! TD.AperFunction*
D20*
X130746500Y-94805500D03*
X130746500Y-89725500D03*
G04 #@! TA.AperFunction,SMDPad,CuDef*
G36*
G01*
X193202499Y-94176000D02*
X196052501Y-94176000D01*
G75*
G02*
X196302500Y-94425999I0J-249999D01*
G01*
X196302500Y-95451001D01*
G75*
G02*
X196052501Y-95701000I-249999J0D01*
G01*
X193202499Y-95701000D01*
G75*
G02*
X192952500Y-95451001I0J249999D01*
G01*
X192952500Y-94425999D01*
G75*
G02*
X193202499Y-94176000I249999J0D01*
G01*
G37*
G04 #@! TD.AperFunction*
G04 #@! TA.AperFunction,SMDPad,CuDef*
G36*
G01*
X193202499Y-88201000D02*
X196052501Y-88201000D01*
G75*
G02*
X196302500Y-88450999I0J-249999D01*
G01*
X196302500Y-89476001D01*
G75*
G02*
X196052501Y-89726000I-249999J0D01*
G01*
X193202499Y-89726000D01*
G75*
G02*
X192952500Y-89476001I0J249999D01*
G01*
X192952500Y-88450999D01*
G75*
G02*
X193202499Y-88201000I249999J0D01*
G01*
G37*
G04 #@! TD.AperFunction*
G04 #@! TA.AperFunction,SMDPad,CuDef*
G36*
G01*
X188122499Y-94176000D02*
X190972501Y-94176000D01*
G75*
G02*
X191222500Y-94425999I0J-249999D01*
G01*
X191222500Y-95451001D01*
G75*
G02*
X190972501Y-95701000I-249999J0D01*
G01*
X188122499Y-95701000D01*
G75*
G02*
X187872500Y-95451001I0J249999D01*
G01*
X187872500Y-94425999D01*
G75*
G02*
X188122499Y-94176000I249999J0D01*
G01*
G37*
G04 #@! TD.AperFunction*
G04 #@! TA.AperFunction,SMDPad,CuDef*
G36*
G01*
X188122499Y-88201000D02*
X190972501Y-88201000D01*
G75*
G02*
X191222500Y-88450999I0J-249999D01*
G01*
X191222500Y-89476001D01*
G75*
G02*
X190972501Y-89726000I-249999J0D01*
G01*
X188122499Y-89726000D01*
G75*
G02*
X187872500Y-89476001I0J249999D01*
G01*
X187872500Y-88450999D01*
G75*
G02*
X188122499Y-88201000I249999J0D01*
G01*
G37*
G04 #@! TD.AperFunction*
G04 #@! TA.AperFunction,SMDPad,CuDef*
G36*
G01*
X183042499Y-94176000D02*
X185892501Y-94176000D01*
G75*
G02*
X186142500Y-94425999I0J-249999D01*
G01*
X186142500Y-95451001D01*
G75*
G02*
X185892501Y-95701000I-249999J0D01*
G01*
X183042499Y-95701000D01*
G75*
G02*
X182792500Y-95451001I0J249999D01*
G01*
X182792500Y-94425999D01*
G75*
G02*
X183042499Y-94176000I249999J0D01*
G01*
G37*
G04 #@! TD.AperFunction*
G04 #@! TA.AperFunction,SMDPad,CuDef*
G36*
G01*
X183042499Y-88201000D02*
X185892501Y-88201000D01*
G75*
G02*
X186142500Y-88450999I0J-249999D01*
G01*
X186142500Y-89476001D01*
G75*
G02*
X185892501Y-89726000I-249999J0D01*
G01*
X183042499Y-89726000D01*
G75*
G02*
X182792500Y-89476001I0J249999D01*
G01*
X182792500Y-88450999D01*
G75*
G02*
X183042499Y-88201000I249999J0D01*
G01*
G37*
G04 #@! TD.AperFunction*
G04 #@! TA.AperFunction,SMDPad,CuDef*
G36*
G01*
X177962499Y-94176000D02*
X180812501Y-94176000D01*
G75*
G02*
X181062500Y-94425999I0J-249999D01*
G01*
X181062500Y-95451001D01*
G75*
G02*
X180812501Y-95701000I-249999J0D01*
G01*
X177962499Y-95701000D01*
G75*
G02*
X177712500Y-95451001I0J249999D01*
G01*
X177712500Y-94425999D01*
G75*
G02*
X177962499Y-94176000I249999J0D01*
G01*
G37*
G04 #@! TD.AperFunction*
G04 #@! TA.AperFunction,SMDPad,CuDef*
G36*
G01*
X177962499Y-88201000D02*
X180812501Y-88201000D01*
G75*
G02*
X181062500Y-88450999I0J-249999D01*
G01*
X181062500Y-89476001D01*
G75*
G02*
X180812501Y-89726000I-249999J0D01*
G01*
X177962499Y-89726000D01*
G75*
G02*
X177712500Y-89476001I0J249999D01*
G01*
X177712500Y-88450999D01*
G75*
G02*
X177962499Y-88201000I249999J0D01*
G01*
G37*
G04 #@! TD.AperFunction*
D21*
X141973300Y-144310100D03*
D22*
X141973300Y-146850100D03*
D23*
X149491700Y-145453100D03*
G04 #@! TA.AperFunction,ComponentPad*
G36*
G01*
X146141700Y-146203100D02*
X146141700Y-144703100D01*
G75*
G02*
X146391700Y-144453100I250000J0D01*
G01*
X147591700Y-144453100D01*
G75*
G02*
X147841700Y-144703100I0J-250000D01*
G01*
X147841700Y-146203100D01*
G75*
G02*
X147591700Y-146453100I-250000J0D01*
G01*
X146391700Y-146453100D01*
G75*
G02*
X146141700Y-146203100I0J250000D01*
G01*
G37*
G04 #@! TD.AperFunction*
G04 #@! TA.AperFunction,SMDPad,CuDef*
G36*
G01*
X192263500Y-136265499D02*
X192263500Y-137165501D01*
G75*
G02*
X192013501Y-137415500I-249999J0D01*
G01*
X191363499Y-137415500D01*
G75*
G02*
X191113500Y-137165501I0J249999D01*
G01*
X191113500Y-136265499D01*
G75*
G02*
X191363499Y-136015500I249999J0D01*
G01*
X192013501Y-136015500D01*
G75*
G02*
X192263500Y-136265499I0J-249999D01*
G01*
G37*
G04 #@! TD.AperFunction*
G04 #@! TA.AperFunction,SMDPad,CuDef*
G36*
G01*
X194313500Y-136265499D02*
X194313500Y-137165501D01*
G75*
G02*
X194063501Y-137415500I-249999J0D01*
G01*
X193413499Y-137415500D01*
G75*
G02*
X193163500Y-137165501I0J249999D01*
G01*
X193163500Y-136265499D01*
G75*
G02*
X193413499Y-136015500I249999J0D01*
G01*
X194063501Y-136015500D01*
G75*
G02*
X194313500Y-136265499I0J-249999D01*
G01*
G37*
G04 #@! TD.AperFunction*
G04 #@! TA.AperFunction,SMDPad,CuDef*
G36*
G01*
X180833500Y-136265499D02*
X180833500Y-137165501D01*
G75*
G02*
X180583501Y-137415500I-249999J0D01*
G01*
X179933499Y-137415500D01*
G75*
G02*
X179683500Y-137165501I0J249999D01*
G01*
X179683500Y-136265499D01*
G75*
G02*
X179933499Y-136015500I249999J0D01*
G01*
X180583501Y-136015500D01*
G75*
G02*
X180833500Y-136265499I0J-249999D01*
G01*
G37*
G04 #@! TD.AperFunction*
G04 #@! TA.AperFunction,SMDPad,CuDef*
G36*
G01*
X182883500Y-136265499D02*
X182883500Y-137165501D01*
G75*
G02*
X182633501Y-137415500I-249999J0D01*
G01*
X181983499Y-137415500D01*
G75*
G02*
X181733500Y-137165501I0J249999D01*
G01*
X181733500Y-136265499D01*
G75*
G02*
X181983499Y-136015500I249999J0D01*
G01*
X182633501Y-136015500D01*
G75*
G02*
X182883500Y-136265499I0J-249999D01*
G01*
G37*
G04 #@! TD.AperFunction*
G04 #@! TA.AperFunction,SMDPad,CuDef*
G36*
G01*
X158744500Y-136265499D02*
X158744500Y-137165501D01*
G75*
G02*
X158494501Y-137415500I-249999J0D01*
G01*
X157844499Y-137415500D01*
G75*
G02*
X157594500Y-137165501I0J249999D01*
G01*
X157594500Y-136265499D01*
G75*
G02*
X157844499Y-136015500I249999J0D01*
G01*
X158494501Y-136015500D01*
G75*
G02*
X158744500Y-136265499I0J-249999D01*
G01*
G37*
G04 #@! TD.AperFunction*
G04 #@! TA.AperFunction,SMDPad,CuDef*
G36*
G01*
X160794500Y-136265499D02*
X160794500Y-137165501D01*
G75*
G02*
X160544501Y-137415500I-249999J0D01*
G01*
X159894499Y-137415500D01*
G75*
G02*
X159644500Y-137165501I0J249999D01*
G01*
X159644500Y-136265499D01*
G75*
G02*
X159894499Y-136015500I249999J0D01*
G01*
X160544501Y-136015500D01*
G75*
G02*
X160794500Y-136265499I0J-249999D01*
G01*
G37*
G04 #@! TD.AperFunction*
G04 #@! TA.AperFunction,SMDPad,CuDef*
G36*
G01*
X169911500Y-136265499D02*
X169911500Y-137165501D01*
G75*
G02*
X169661501Y-137415500I-249999J0D01*
G01*
X169011499Y-137415500D01*
G75*
G02*
X168761500Y-137165501I0J249999D01*
G01*
X168761500Y-136265499D01*
G75*
G02*
X169011499Y-136015500I249999J0D01*
G01*
X169661501Y-136015500D01*
G75*
G02*
X169911500Y-136265499I0J-249999D01*
G01*
G37*
G04 #@! TD.AperFunction*
G04 #@! TA.AperFunction,SMDPad,CuDef*
G36*
G01*
X171961500Y-136265499D02*
X171961500Y-137165501D01*
G75*
G02*
X171711501Y-137415500I-249999J0D01*
G01*
X171061499Y-137415500D01*
G75*
G02*
X170811500Y-137165501I0J249999D01*
G01*
X170811500Y-136265499D01*
G75*
G02*
X171061499Y-136015500I249999J0D01*
G01*
X171711501Y-136015500D01*
G75*
G02*
X171961500Y-136265499I0J-249999D01*
G01*
G37*
G04 #@! TD.AperFunction*
G04 #@! TA.AperFunction,SMDPad,CuDef*
G36*
G01*
X177962499Y-102286000D02*
X180812501Y-102286000D01*
G75*
G02*
X181062500Y-102535999I0J-249999D01*
G01*
X181062500Y-103561001D01*
G75*
G02*
X180812501Y-103811000I-249999J0D01*
G01*
X177962499Y-103811000D01*
G75*
G02*
X177712500Y-103561001I0J249999D01*
G01*
X177712500Y-102535999D01*
G75*
G02*
X177962499Y-102286000I249999J0D01*
G01*
G37*
G04 #@! TD.AperFunction*
G04 #@! TA.AperFunction,SMDPad,CuDef*
G36*
G01*
X177962499Y-96311000D02*
X180812501Y-96311000D01*
G75*
G02*
X181062500Y-96560999I0J-249999D01*
G01*
X181062500Y-97586001D01*
G75*
G02*
X180812501Y-97836000I-249999J0D01*
G01*
X177962499Y-97836000D01*
G75*
G02*
X177712500Y-97586001I0J249999D01*
G01*
X177712500Y-96560999D01*
G75*
G02*
X177962499Y-96311000I249999J0D01*
G01*
G37*
G04 #@! TD.AperFunction*
G04 #@! TA.AperFunction,SMDPad,CuDef*
G36*
G01*
X183042499Y-102286000D02*
X185892501Y-102286000D01*
G75*
G02*
X186142500Y-102535999I0J-249999D01*
G01*
X186142500Y-103561001D01*
G75*
G02*
X185892501Y-103811000I-249999J0D01*
G01*
X183042499Y-103811000D01*
G75*
G02*
X182792500Y-103561001I0J249999D01*
G01*
X182792500Y-102535999D01*
G75*
G02*
X183042499Y-102286000I249999J0D01*
G01*
G37*
G04 #@! TD.AperFunction*
G04 #@! TA.AperFunction,SMDPad,CuDef*
G36*
G01*
X183042499Y-96311000D02*
X185892501Y-96311000D01*
G75*
G02*
X186142500Y-96560999I0J-249999D01*
G01*
X186142500Y-97586001D01*
G75*
G02*
X185892501Y-97836000I-249999J0D01*
G01*
X183042499Y-97836000D01*
G75*
G02*
X182792500Y-97586001I0J249999D01*
G01*
X182792500Y-96560999D01*
G75*
G02*
X183042499Y-96311000I249999J0D01*
G01*
G37*
G04 #@! TD.AperFunction*
G04 #@! TA.AperFunction,SMDPad,CuDef*
G36*
G01*
X188122499Y-102286000D02*
X190972501Y-102286000D01*
G75*
G02*
X191222500Y-102535999I0J-249999D01*
G01*
X191222500Y-103561001D01*
G75*
G02*
X190972501Y-103811000I-249999J0D01*
G01*
X188122499Y-103811000D01*
G75*
G02*
X187872500Y-103561001I0J249999D01*
G01*
X187872500Y-102535999D01*
G75*
G02*
X188122499Y-102286000I249999J0D01*
G01*
G37*
G04 #@! TD.AperFunction*
G04 #@! TA.AperFunction,SMDPad,CuDef*
G36*
G01*
X188122499Y-96311000D02*
X190972501Y-96311000D01*
G75*
G02*
X191222500Y-96560999I0J-249999D01*
G01*
X191222500Y-97586001D01*
G75*
G02*
X190972501Y-97836000I-249999J0D01*
G01*
X188122499Y-97836000D01*
G75*
G02*
X187872500Y-97586001I0J249999D01*
G01*
X187872500Y-96560999D01*
G75*
G02*
X188122499Y-96311000I249999J0D01*
G01*
G37*
G04 #@! TD.AperFunction*
G04 #@! TA.AperFunction,SMDPad,CuDef*
G36*
G01*
X193202499Y-102286000D02*
X196052501Y-102286000D01*
G75*
G02*
X196302500Y-102535999I0J-249999D01*
G01*
X196302500Y-103561001D01*
G75*
G02*
X196052501Y-103811000I-249999J0D01*
G01*
X193202499Y-103811000D01*
G75*
G02*
X192952500Y-103561001I0J249999D01*
G01*
X192952500Y-102535999D01*
G75*
G02*
X193202499Y-102286000I249999J0D01*
G01*
G37*
G04 #@! TD.AperFunction*
G04 #@! TA.AperFunction,SMDPad,CuDef*
G36*
G01*
X193202499Y-96311000D02*
X196052501Y-96311000D01*
G75*
G02*
X196302500Y-96560999I0J-249999D01*
G01*
X196302500Y-97586001D01*
G75*
G02*
X196052501Y-97836000I-249999J0D01*
G01*
X193202499Y-97836000D01*
G75*
G02*
X192952500Y-97586001I0J249999D01*
G01*
X192952500Y-96560999D01*
G75*
G02*
X193202499Y-96311000I249999J0D01*
G01*
G37*
G04 #@! TD.AperFunction*
G04 #@! TA.AperFunction,ComponentPad*
G36*
G01*
X194058500Y-82371500D02*
X195308500Y-82371500D01*
G75*
G02*
X195933500Y-82996500I0J-625000D01*
G01*
X195933500Y-84746500D01*
G75*
G02*
X195308500Y-85371500I-625000J0D01*
G01*
X194058500Y-85371500D01*
G75*
G02*
X193433500Y-84746500I0J625000D01*
G01*
X193433500Y-82996500D01*
G75*
G02*
X194058500Y-82371500I625000J0D01*
G01*
G37*
G04 #@! TD.AperFunction*
G04 #@! TA.AperFunction,ComponentPad*
G36*
G01*
X194058500Y-73671500D02*
X195308500Y-73671500D01*
G75*
G02*
X195933500Y-74296500I0J-625000D01*
G01*
X195933500Y-76046500D01*
G75*
G02*
X195308500Y-76671500I-625000J0D01*
G01*
X194058500Y-76671500D01*
G75*
G02*
X193433500Y-76046500I0J625000D01*
G01*
X193433500Y-74296500D01*
G75*
G02*
X194058500Y-73671500I625000J0D01*
G01*
G37*
G04 #@! TD.AperFunction*
G04 #@! TA.AperFunction,ComponentPad*
G36*
G01*
X188978500Y-82371500D02*
X190228500Y-82371500D01*
G75*
G02*
X190853500Y-82996500I0J-625000D01*
G01*
X190853500Y-84746500D01*
G75*
G02*
X190228500Y-85371500I-625000J0D01*
G01*
X188978500Y-85371500D01*
G75*
G02*
X188353500Y-84746500I0J625000D01*
G01*
X188353500Y-82996500D01*
G75*
G02*
X188978500Y-82371500I625000J0D01*
G01*
G37*
G04 #@! TD.AperFunction*
G04 #@! TA.AperFunction,ComponentPad*
G36*
G01*
X188978500Y-73671500D02*
X190228500Y-73671500D01*
G75*
G02*
X190853500Y-74296500I0J-625000D01*
G01*
X190853500Y-76046500D01*
G75*
G02*
X190228500Y-76671500I-625000J0D01*
G01*
X188978500Y-76671500D01*
G75*
G02*
X188353500Y-76046500I0J625000D01*
G01*
X188353500Y-74296500D01*
G75*
G02*
X188978500Y-73671500I625000J0D01*
G01*
G37*
G04 #@! TD.AperFunction*
G04 #@! TA.AperFunction,ComponentPad*
G36*
G01*
X183898500Y-82371500D02*
X185148500Y-82371500D01*
G75*
G02*
X185773500Y-82996500I0J-625000D01*
G01*
X185773500Y-84746500D01*
G75*
G02*
X185148500Y-85371500I-625000J0D01*
G01*
X183898500Y-85371500D01*
G75*
G02*
X183273500Y-84746500I0J625000D01*
G01*
X183273500Y-82996500D01*
G75*
G02*
X183898500Y-82371500I625000J0D01*
G01*
G37*
G04 #@! TD.AperFunction*
G04 #@! TA.AperFunction,ComponentPad*
G36*
G01*
X183898500Y-73671500D02*
X185148500Y-73671500D01*
G75*
G02*
X185773500Y-74296500I0J-625000D01*
G01*
X185773500Y-76046500D01*
G75*
G02*
X185148500Y-76671500I-625000J0D01*
G01*
X183898500Y-76671500D01*
G75*
G02*
X183273500Y-76046500I0J625000D01*
G01*
X183273500Y-74296500D01*
G75*
G02*
X183898500Y-73671500I625000J0D01*
G01*
G37*
G04 #@! TD.AperFunction*
G04 #@! TA.AperFunction,ComponentPad*
G36*
G01*
X178818500Y-82371500D02*
X180068500Y-82371500D01*
G75*
G02*
X180693500Y-82996500I0J-625000D01*
G01*
X180693500Y-84746500D01*
G75*
G02*
X180068500Y-85371500I-625000J0D01*
G01*
X178818500Y-85371500D01*
G75*
G02*
X178193500Y-84746500I0J625000D01*
G01*
X178193500Y-82996500D01*
G75*
G02*
X178818500Y-82371500I625000J0D01*
G01*
G37*
G04 #@! TD.AperFunction*
G04 #@! TA.AperFunction,ComponentPad*
G36*
G01*
X178818500Y-73671500D02*
X180068500Y-73671500D01*
G75*
G02*
X180693500Y-74296500I0J-625000D01*
G01*
X180693500Y-76046500D01*
G75*
G02*
X180068500Y-76671500I-625000J0D01*
G01*
X178818500Y-76671500D01*
G75*
G02*
X178193500Y-76046500I0J625000D01*
G01*
X178193500Y-74296500D01*
G75*
G02*
X178818500Y-73671500I625000J0D01*
G01*
G37*
G04 #@! TD.AperFunction*
G04 #@! TA.AperFunction,ComponentPad*
G36*
G01*
X145361500Y-82383500D02*
X146611500Y-82383500D01*
G75*
G02*
X147236500Y-83008500I0J-625000D01*
G01*
X147236500Y-84758500D01*
G75*
G02*
X146611500Y-85383500I-625000J0D01*
G01*
X145361500Y-85383500D01*
G75*
G02*
X144736500Y-84758500I0J625000D01*
G01*
X144736500Y-83008500D01*
G75*
G02*
X145361500Y-82383500I625000J0D01*
G01*
G37*
G04 #@! TD.AperFunction*
G04 #@! TA.AperFunction,ComponentPad*
G36*
G01*
X145361500Y-73683500D02*
X146611500Y-73683500D01*
G75*
G02*
X147236500Y-74308500I0J-625000D01*
G01*
X147236500Y-76058500D01*
G75*
G02*
X146611500Y-76683500I-625000J0D01*
G01*
X145361500Y-76683500D01*
G75*
G02*
X144736500Y-76058500I0J625000D01*
G01*
X144736500Y-74308500D01*
G75*
G02*
X145361500Y-73683500I625000J0D01*
G01*
G37*
G04 #@! TD.AperFunction*
G04 #@! TA.AperFunction,ComponentPad*
G36*
G01*
X140281500Y-82383500D02*
X141531500Y-82383500D01*
G75*
G02*
X142156500Y-83008500I0J-625000D01*
G01*
X142156500Y-84758500D01*
G75*
G02*
X141531500Y-85383500I-625000J0D01*
G01*
X140281500Y-85383500D01*
G75*
G02*
X139656500Y-84758500I0J625000D01*
G01*
X139656500Y-83008500D01*
G75*
G02*
X140281500Y-82383500I625000J0D01*
G01*
G37*
G04 #@! TD.AperFunction*
G04 #@! TA.AperFunction,ComponentPad*
G36*
G01*
X140281500Y-73683500D02*
X141531500Y-73683500D01*
G75*
G02*
X142156500Y-74308500I0J-625000D01*
G01*
X142156500Y-76058500D01*
G75*
G02*
X141531500Y-76683500I-625000J0D01*
G01*
X140281500Y-76683500D01*
G75*
G02*
X139656500Y-76058500I0J625000D01*
G01*
X139656500Y-74308500D01*
G75*
G02*
X140281500Y-73683500I625000J0D01*
G01*
G37*
G04 #@! TD.AperFunction*
G04 #@! TA.AperFunction,ComponentPad*
G36*
G01*
X135201500Y-82383500D02*
X136451500Y-82383500D01*
G75*
G02*
X137076500Y-83008500I0J-625000D01*
G01*
X137076500Y-84758500D01*
G75*
G02*
X136451500Y-85383500I-625000J0D01*
G01*
X135201500Y-85383500D01*
G75*
G02*
X134576500Y-84758500I0J625000D01*
G01*
X134576500Y-83008500D01*
G75*
G02*
X135201500Y-82383500I625000J0D01*
G01*
G37*
G04 #@! TD.AperFunction*
G04 #@! TA.AperFunction,ComponentPad*
G36*
G01*
X135201500Y-73683500D02*
X136451500Y-73683500D01*
G75*
G02*
X137076500Y-74308500I0J-625000D01*
G01*
X137076500Y-76058500D01*
G75*
G02*
X136451500Y-76683500I-625000J0D01*
G01*
X135201500Y-76683500D01*
G75*
G02*
X134576500Y-76058500I0J625000D01*
G01*
X134576500Y-74308500D01*
G75*
G02*
X135201500Y-73683500I625000J0D01*
G01*
G37*
G04 #@! TD.AperFunction*
G04 #@! TA.AperFunction,ComponentPad*
G36*
G01*
X130121500Y-82383500D02*
X131371500Y-82383500D01*
G75*
G02*
X131996500Y-83008500I0J-625000D01*
G01*
X131996500Y-84758500D01*
G75*
G02*
X131371500Y-85383500I-625000J0D01*
G01*
X130121500Y-85383500D01*
G75*
G02*
X129496500Y-84758500I0J625000D01*
G01*
X129496500Y-83008500D01*
G75*
G02*
X130121500Y-82383500I625000J0D01*
G01*
G37*
G04 #@! TD.AperFunction*
G04 #@! TA.AperFunction,ComponentPad*
G36*
G01*
X130121500Y-73683500D02*
X131371500Y-73683500D01*
G75*
G02*
X131996500Y-74308500I0J-625000D01*
G01*
X131996500Y-76058500D01*
G75*
G02*
X131371500Y-76683500I-625000J0D01*
G01*
X130121500Y-76683500D01*
G75*
G02*
X129496500Y-76058500I0J625000D01*
G01*
X129496500Y-74308500D01*
G75*
G02*
X130121500Y-73683500I625000J0D01*
G01*
G37*
G04 #@! TD.AperFunction*
D21*
X155130500Y-119443500D03*
D22*
X155130500Y-121983500D03*
D24*
X138246500Y-100647500D03*
X130746500Y-99014170D03*
D25*
X122364500Y-39687500D03*
D14*
X167536500Y-120713500D03*
X165036500Y-120713500D03*
X162536500Y-120713500D03*
G04 #@! TA.AperFunction,ComponentPad*
G36*
G01*
X159186500Y-121438500D02*
X159186500Y-119988500D01*
G75*
G02*
X159436500Y-119738500I250000J0D01*
G01*
X160636500Y-119738500D01*
G75*
G02*
X160886500Y-119988500I0J-250000D01*
G01*
X160886500Y-121438500D01*
G75*
G02*
X160636500Y-121688500I-250000J0D01*
G01*
X159436500Y-121688500D01*
G75*
G02*
X159186500Y-121438500I0J250000D01*
G01*
G37*
G04 #@! TD.AperFunction*
D26*
X173912500Y-131873500D03*
D27*
X166292500Y-139493500D03*
X171372500Y-131873500D03*
X168832500Y-139493500D03*
X168832500Y-131873500D03*
X171372500Y-139493500D03*
X166292500Y-131873500D03*
X173912500Y-139493500D03*
D26*
X196518500Y-131873500D03*
D27*
X188898500Y-139493500D03*
X193978500Y-131873500D03*
X191438500Y-139493500D03*
X191438500Y-131873500D03*
X193978500Y-139493500D03*
X188898500Y-131873500D03*
X196518500Y-139493500D03*
D26*
X185088500Y-131873500D03*
D27*
X177468500Y-139493500D03*
X182548500Y-131873500D03*
X180008500Y-139493500D03*
X180008500Y-131873500D03*
X182548500Y-139493500D03*
X177468500Y-131873500D03*
X185088500Y-139493500D03*
D26*
X162482500Y-131873500D03*
D27*
X154862500Y-139493500D03*
X159942500Y-131873500D03*
X157402500Y-139493500D03*
X157402500Y-131873500D03*
X159942500Y-139493500D03*
X154862500Y-131873500D03*
X162482500Y-139493500D03*
D23*
X149502500Y-138493500D03*
G04 #@! TA.AperFunction,ComponentPad*
G36*
G01*
X146152500Y-139243500D02*
X146152500Y-137743500D01*
G75*
G02*
X146402500Y-137493500I250000J0D01*
G01*
X147602500Y-137493500D01*
G75*
G02*
X147852500Y-137743500I0J-250000D01*
G01*
X147852500Y-139243500D01*
G75*
G02*
X147602500Y-139493500I-250000J0D01*
G01*
X146402500Y-139493500D01*
G75*
G02*
X146152500Y-139243500I0J250000D01*
G01*
G37*
G04 #@! TD.AperFunction*
D25*
X172910500Y-161607500D03*
X220154500Y-154241500D03*
D20*
X145986500Y-94678500D03*
X145986500Y-89598500D03*
D28*
X171714500Y-96373501D02*
X154696500Y-96373501D01*
X147681501Y-96373501D02*
X154696500Y-96373501D01*
X145986500Y-94678500D02*
X147681501Y-96373501D01*
X144215500Y-94678500D02*
X138246500Y-100647500D01*
X145986500Y-94678500D02*
X144215500Y-94678500D01*
X129476500Y-128587500D02*
X131508500Y-128587500D01*
X138246500Y-121849500D02*
X138246500Y-100647500D01*
X131508500Y-128587500D02*
X138246500Y-121849500D01*
D29*
X168403500Y-111126500D02*
X170116500Y-112839500D01*
X154696500Y-103993501D02*
X171714500Y-103993501D01*
X168211500Y-111126500D02*
X168403500Y-111126500D01*
X132288500Y-140017500D02*
X131762500Y-140543500D01*
X136334500Y-140017500D02*
X132288500Y-140017500D01*
X129240500Y-140543500D02*
X129222500Y-140525500D01*
X131762500Y-140543500D02*
X129240500Y-140543500D01*
X173114501Y-109841499D02*
X170116500Y-112839500D01*
X173114501Y-105393502D02*
X173114501Y-109841499D01*
X171714500Y-103993501D02*
X173114501Y-105393502D01*
X153296499Y-109472499D02*
X154114500Y-110290500D01*
X153296499Y-105393502D02*
X153296499Y-109472499D01*
X154696500Y-103993501D02*
X153296499Y-105393502D01*
X155130500Y-121983500D02*
X153606500Y-121983500D01*
X149502500Y-126087500D02*
X149502500Y-138493500D01*
X153606500Y-121983500D02*
X149502500Y-126087500D01*
X171516510Y-113539510D02*
X170816500Y-112839500D01*
X170816500Y-112839500D02*
X170116500Y-112839500D01*
X171516510Y-119050535D02*
X171516510Y-113539510D01*
X168178535Y-122388510D02*
X171516510Y-119050535D01*
X155535510Y-122388510D02*
X168178535Y-122388510D01*
X155130500Y-121983500D02*
X155535510Y-122388510D01*
X136510510Y-140193510D02*
X136334500Y-140017500D01*
X147996010Y-140193510D02*
X136510510Y-140193510D01*
X149502500Y-138687020D02*
X147996010Y-140193510D01*
X149502500Y-138493500D02*
X149502500Y-138687020D01*
X182310500Y-136715500D02*
X185088500Y-139493500D01*
X182308500Y-136715500D02*
X182310500Y-136715500D01*
X193740500Y-136715500D02*
X196518500Y-139493500D01*
X193738500Y-136715500D02*
X193740500Y-136715500D01*
X162482500Y-138978500D02*
X160219500Y-136715500D01*
X162482500Y-139493500D02*
X162482500Y-138978500D01*
X171386500Y-136967500D02*
X173912500Y-139493500D01*
X171386500Y-136715500D02*
X171386500Y-136967500D01*
X145070310Y-143753090D02*
X141973300Y-146850100D01*
X147985210Y-143753090D02*
X145070310Y-143753090D01*
X149491700Y-145259580D02*
X147985210Y-143753090D01*
X149491700Y-145453100D02*
X149491700Y-145259580D01*
X151298300Y-143646500D02*
X164274500Y-143646500D01*
X149491700Y-145453100D02*
X151298300Y-143646500D01*
D30*
X194683500Y-88907500D02*
X194627500Y-88963500D01*
X194683500Y-75171500D02*
X194683500Y-88907500D01*
X189547500Y-75227500D02*
X189603500Y-75171500D01*
X189547500Y-88963500D02*
X189547500Y-75227500D01*
X179387500Y-88963500D02*
X179387500Y-74993500D01*
X179443500Y-75049500D02*
X179443500Y-75171500D01*
X179387500Y-74993500D02*
X179443500Y-75049500D01*
X184523500Y-88907500D02*
X184467500Y-88963500D01*
X184523500Y-75171500D02*
X184523500Y-88907500D01*
X170116500Y-83883500D02*
X170116500Y-75183500D01*
D28*
X171714500Y-85481500D02*
X170116500Y-83883500D01*
X171714500Y-88753501D02*
X171714500Y-85481500D01*
D30*
X165036500Y-83883500D02*
X165036500Y-75183500D01*
D28*
X166126500Y-88753501D02*
X166126500Y-88783500D01*
X165036500Y-87693500D02*
X165036500Y-83883500D01*
X166126500Y-88783500D02*
X165036500Y-87693500D01*
D30*
X159956500Y-83883500D02*
X159956500Y-75183500D01*
D28*
X160464500Y-84391500D02*
X159956500Y-83883500D01*
X160464500Y-88709500D02*
X160464500Y-84391500D01*
D30*
X154876500Y-83883500D02*
X154876500Y-75183500D01*
D28*
X154696500Y-84063500D02*
X154876500Y-83883500D01*
X154696500Y-88753501D02*
X154696500Y-84063500D01*
D29*
X157402500Y-131873500D02*
X157402500Y-128653500D01*
X159942500Y-129363500D02*
X159942500Y-131873500D01*
X160718500Y-128587500D02*
X159942500Y-129363500D01*
X168832500Y-131873500D02*
X168832500Y-128907500D01*
X168832500Y-131873500D02*
X168832500Y-128775500D01*
X171372500Y-131873500D02*
X171372500Y-129109500D01*
X180008500Y-131873500D02*
X180008500Y-128674500D01*
X182548500Y-131873500D02*
X182548500Y-129210500D01*
X191438500Y-131873500D02*
X191438500Y-129029500D01*
X193978500Y-131873500D02*
X193978500Y-128855500D01*
X169070500Y-136715500D02*
X169336500Y-136715500D01*
X166292500Y-139493500D02*
X169070500Y-136715500D01*
X177480500Y-139493500D02*
X180258500Y-136715500D01*
X177468500Y-139493500D02*
X177480500Y-139493500D01*
X188910500Y-139493500D02*
X191688500Y-136715500D01*
X188898500Y-139493500D02*
X188910500Y-139493500D01*
X169336500Y-136015500D02*
X169336500Y-136715500D01*
X170036510Y-135315490D02*
X169336500Y-136015500D01*
X178858490Y-135315490D02*
X170036510Y-135315490D01*
X180258500Y-136715500D02*
X178858490Y-135315490D01*
X190288490Y-135315490D02*
X191688500Y-136715500D01*
X180258500Y-136015500D02*
X180958510Y-135315490D01*
X180958510Y-135315490D02*
X190288490Y-135315490D01*
X180258500Y-136715500D02*
X180258500Y-136015500D01*
X157640500Y-136715500D02*
X158169500Y-136715500D01*
X154862500Y-139493500D02*
X157640500Y-136715500D01*
X167936490Y-135315490D02*
X169336500Y-136715500D01*
X158869510Y-135315490D02*
X167936490Y-135315490D01*
X158169500Y-136015500D02*
X158869510Y-135315490D01*
X158169500Y-136715500D02*
X158169500Y-136015500D01*
X168929500Y-116076500D02*
X170116500Y-114889500D01*
X168211500Y-116076500D02*
X168929500Y-116076500D01*
X151417432Y-113587500D02*
X152231422Y-114401490D01*
X169628490Y-114401490D02*
X170116500Y-114889500D01*
X149476500Y-113587500D02*
X151417432Y-113587500D01*
X132738500Y-137517500D02*
X131762500Y-138493500D01*
X136334500Y-137517500D02*
X132738500Y-137517500D01*
X127522490Y-143905490D02*
X129222500Y-145605500D01*
X127522490Y-139841008D02*
X127522490Y-143905490D01*
X128869998Y-138493500D02*
X127522490Y-139841008D01*
X131762500Y-138493500D02*
X128869998Y-138493500D01*
X130256500Y-146639500D02*
X131762500Y-146639500D01*
X129222500Y-145605500D02*
X130256500Y-146639500D01*
X135884500Y-146639500D02*
X136334500Y-147089500D01*
X131762500Y-146639500D02*
X135884500Y-146639500D01*
X144044699Y-148400101D02*
X146991700Y-145453100D01*
X137645101Y-148400101D02*
X144044699Y-148400101D01*
X136334500Y-147089500D02*
X137645101Y-148400101D01*
X156654500Y-112331500D02*
X156654500Y-114109500D01*
X156654500Y-114109500D02*
X156362510Y-114401490D01*
X152231422Y-114401490D02*
X156362510Y-114401490D01*
X156362510Y-114401490D02*
X169628490Y-114401490D01*
X137310500Y-138493500D02*
X136334500Y-137517500D01*
X147002500Y-138493500D02*
X137310500Y-138493500D01*
X147002500Y-116061500D02*
X149476500Y-113587500D01*
X147002500Y-138493500D02*
X147002500Y-116061500D01*
X156052500Y-107889501D02*
X154696500Y-106533501D01*
X163131500Y-111126500D02*
X163131500Y-108821570D01*
X162199431Y-107889501D02*
X156052500Y-107889501D01*
X163131500Y-108821570D02*
X162199431Y-107889501D01*
X160464500Y-106489500D02*
X162496500Y-106489500D01*
X164401500Y-108394500D02*
X164401500Y-111126500D01*
X162496500Y-106489500D02*
X164401500Y-108394500D01*
X165671500Y-106988501D02*
X165671500Y-111126500D01*
X166126500Y-106533501D02*
X165671500Y-106988501D01*
X166941500Y-111126500D02*
X166941500Y-108394500D01*
X168802499Y-106533501D02*
X171714500Y-106533501D01*
X166941500Y-108394500D02*
X168802499Y-106533501D01*
D30*
X145986500Y-83883500D02*
X145986500Y-86423500D01*
X145986500Y-89598500D02*
X145986500Y-83883500D01*
X145986500Y-83883500D02*
X145986500Y-75184510D01*
D29*
X176346500Y-145212640D02*
X176346500Y-144843500D01*
X171125112Y-150434028D02*
X176346500Y-145212640D01*
X160467028Y-150434028D02*
X171125112Y-150434028D01*
X156654500Y-146621500D02*
X160467028Y-150434028D01*
X186088500Y-144843500D02*
X191438500Y-139493500D01*
X176346500Y-144843500D02*
X186088500Y-144843500D01*
X161807020Y-149234020D02*
X159194500Y-146621500D01*
X169455980Y-149234020D02*
X161807020Y-149234020D01*
X173846500Y-144843500D02*
X169455980Y-149234020D01*
X175521510Y-143168490D02*
X179411510Y-143168490D01*
X173846500Y-144843500D02*
X175521510Y-143168490D01*
X180008500Y-142571500D02*
X180008500Y-139493500D01*
X179411510Y-143168490D02*
X180008500Y-142571500D01*
X161734500Y-147334000D02*
X161734500Y-146621500D01*
X162434510Y-148034010D02*
X161734500Y-147334000D01*
X168324510Y-148034010D02*
X162434510Y-148034010D01*
X171346500Y-145012020D02*
X168324510Y-148034010D01*
X171346500Y-144843500D02*
X171346500Y-145012020D01*
X171346500Y-142007500D02*
X168832500Y-139493500D01*
X171346500Y-144843500D02*
X171346500Y-142007500D01*
X167068500Y-146621500D02*
X168846500Y-144843500D01*
X164274500Y-146621500D02*
X167068500Y-146621500D01*
X159302510Y-141393510D02*
X157402500Y-139493500D01*
X164546510Y-141393510D02*
X159302510Y-141393510D01*
X167996500Y-144843500D02*
X164546510Y-141393510D01*
X168846500Y-144843500D02*
X167996500Y-144843500D01*
X166941500Y-120118500D02*
X166941500Y-116076500D01*
X167536500Y-120713500D02*
X166941500Y-120118500D01*
X165671500Y-120078500D02*
X165671500Y-116076500D01*
X165036500Y-120713500D02*
X165671500Y-120078500D01*
X164401500Y-118848500D02*
X164401500Y-116076500D01*
X162536500Y-120713500D02*
X164401500Y-118848500D01*
X163131500Y-117618500D02*
X163131500Y-116076500D01*
X160036500Y-120713500D02*
X163131500Y-117618500D01*
X156242020Y-110281500D02*
X154183020Y-112340500D01*
X154183020Y-112340500D02*
X154114500Y-112340500D01*
X156654500Y-110281500D02*
X156242020Y-110281500D01*
X153620500Y-119443500D02*
X155130500Y-119443500D01*
X149476500Y-123587500D02*
X153620500Y-119443500D01*
X179387500Y-109594000D02*
X179387500Y-122958854D01*
X179387500Y-122958854D02*
X179387500Y-108856500D01*
X162482500Y-131132452D02*
X167502462Y-126112490D01*
X176233864Y-126112490D02*
X179387500Y-122958854D01*
X167502462Y-126112490D02*
X176233864Y-126112490D01*
X162482500Y-131873500D02*
X162482500Y-131132452D01*
D30*
X179387500Y-105144000D02*
X179387500Y-103048500D01*
D29*
X184467500Y-120424452D02*
X184467500Y-109530500D01*
X184467500Y-120424452D02*
X184467500Y-108793000D01*
X173912500Y-130979452D02*
X184467500Y-120424452D01*
X173912500Y-131873500D02*
X173912500Y-130979452D01*
D30*
X184467500Y-103048500D02*
X184467500Y-105080500D01*
D29*
X189547500Y-108793000D02*
X189547500Y-117919500D01*
X185221510Y-131740490D02*
X185088500Y-131873500D01*
X185221510Y-122245490D02*
X185221510Y-131740490D01*
X189547500Y-117919500D02*
X185221510Y-122245490D01*
D31*
X189603500Y-103048500D02*
X190238500Y-103048500D01*
D30*
X189547500Y-105080500D02*
X189547500Y-103048500D01*
D29*
X194627500Y-108793000D02*
X194627500Y-123507500D01*
X196518500Y-125398500D02*
X196518500Y-131873500D01*
X194627500Y-123507500D02*
X196518500Y-125398500D01*
D30*
X194627500Y-103048500D02*
X194627500Y-105080500D01*
D29*
X130238500Y-143065500D02*
X131762500Y-144589500D01*
X129222500Y-143065500D02*
X130238500Y-143065500D01*
X131762500Y-144589500D02*
X136334500Y-144589500D01*
X141693900Y-144589500D02*
X141973300Y-144310100D01*
X136334500Y-144589500D02*
X141693900Y-144589500D01*
D30*
X194627500Y-94938500D02*
X194627500Y-97073500D01*
X179387500Y-97073500D02*
X179387500Y-94938500D01*
X189547500Y-97073500D02*
X189547500Y-94938500D01*
X184467500Y-94938500D02*
X184467500Y-97073500D01*
M02*
