%TF.GenerationSoftware,KiCad,Pcbnew,(5.1.6)-1*%
%TF.CreationDate,2020-08-28T22:53:53+02:00*%
%TF.ProjectId,pcbdesign,70636264-6573-4696-976e-2e6b69636164,rev?*%
%TF.SameCoordinates,Original*%
%TF.FileFunction,Glue,Bot*%
%TF.FilePolarity,Positive*%
%FSLAX46Y46*%
G04 Gerber Fmt 4.6, Leading zero omitted, Abs format (unit mm)*
G04 Created by KiCad (PCBNEW (5.1.6)-1) date 2020-08-28 22:53:53*
%MOMM*%
%LPD*%
G01*
G04 APERTURE LIST*
%ADD10C,0.150000*%
G04 APERTURE END LIST*
D10*
X132095714Y-91844761D02*
X132190952Y-91892380D01*
X132381428Y-91892380D01*
X132476666Y-91844761D01*
X132524285Y-91797142D01*
X132571904Y-91701904D01*
X132571904Y-91416190D01*
X132524285Y-91320952D01*
X132476666Y-91273333D01*
X132381428Y-91225714D01*
X132190952Y-91225714D01*
X132095714Y-91273333D01*
X131667142Y-91892380D02*
X131667142Y-91225714D01*
X131667142Y-91416190D02*
X131619523Y-91320952D01*
X131571904Y-91273333D01*
X131476666Y-91225714D01*
X131381428Y-91225714D01*
X130619523Y-91225714D02*
X130619523Y-92035238D01*
X130667142Y-92130476D01*
X130714761Y-92178095D01*
X130810000Y-92225714D01*
X130952857Y-92225714D01*
X131048095Y-92178095D01*
X130619523Y-91844761D02*
X130714761Y-91892380D01*
X130905238Y-91892380D01*
X131000476Y-91844761D01*
X131048095Y-91797142D01*
X131095714Y-91701904D01*
X131095714Y-91416190D01*
X131048095Y-91320952D01*
X131000476Y-91273333D01*
X130905238Y-91225714D01*
X130714761Y-91225714D01*
X130619523Y-91273333D01*
X129714761Y-91892380D02*
X129714761Y-91368571D01*
X129762380Y-91273333D01*
X129857619Y-91225714D01*
X130048095Y-91225714D01*
X130143333Y-91273333D01*
X129714761Y-91844761D02*
X129810000Y-91892380D01*
X130048095Y-91892380D01*
X130143333Y-91844761D01*
X130190952Y-91749523D01*
X130190952Y-91654285D01*
X130143333Y-91559047D01*
X130048095Y-91511428D01*
X129810000Y-91511428D01*
X129714761Y-91463809D01*
X129238571Y-91892380D02*
X129238571Y-91225714D01*
X129238571Y-91416190D02*
X129190952Y-91320952D01*
X129143333Y-91273333D01*
X129048095Y-91225714D01*
X128952857Y-91225714D01*
M02*
