%TF.GenerationSoftware,KiCad,Pcbnew,(5.1.6)-1*%
%TF.CreationDate,2020-08-28T22:53:53+02:00*%
%TF.ProjectId,pcbdesign,70636264-6573-4696-976e-2e6b69636164,rev?*%
%TF.SameCoordinates,Original*%
%TF.FileFunction,Copper,L1,Top*%
%TF.FilePolarity,Positive*%
%FSLAX46Y46*%
G04 Gerber Fmt 4.6, Leading zero omitted, Abs format (unit mm)*
G04 Created by KiCad (PCBNEW (5.1.6)-1) date 2020-08-28 22:53:53*
%MOMM*%
%LPD*%
G01*
G04 APERTURE LIST*
%TA.AperFunction,ComponentPad*%
%ADD10R,1.700000X1.700000*%
%TD*%
%TA.AperFunction,ComponentPad*%
%ADD11O,1.700000X1.700000*%
%TD*%
%TA.AperFunction,ComponentPad*%
%ADD12R,1.600000X1.600000*%
%TD*%
%TA.AperFunction,ComponentPad*%
%ADD13O,1.600000X1.600000*%
%TD*%
%TA.AperFunction,ComponentPad*%
%ADD14R,1.800000X1.800000*%
%TD*%
%TA.AperFunction,ComponentPad*%
%ADD15C,1.800000*%
%TD*%
%TA.AperFunction,ComponentPad*%
%ADD16C,1.400000*%
%TD*%
%TA.AperFunction,ComponentPad*%
%ADD17O,1.400000X1.400000*%
%TD*%
%TA.AperFunction,ViaPad*%
%ADD18C,0.800000*%
%TD*%
%TA.AperFunction,Conductor*%
%ADD19C,0.900000*%
%TD*%
%TA.AperFunction,Conductor*%
%ADD20C,0.254000*%
%TD*%
G04 APERTURE END LIST*
D10*
%TO.P,J1,1*%
%TO.N,Net-(A1-Pad16)*%
X97625874Y-129753609D03*
D11*
%TO.P,J1,2*%
%TO.N,Net-(A1-Pad15)*%
X97625874Y-127213609D03*
%TO.P,J1,3*%
%TO.N,Net-(A1-Pad14)*%
X97625874Y-124673609D03*
%TO.P,J1,4*%
%TO.N,Net-(A1-Pad13)*%
X97625874Y-122133609D03*
%TO.P,J1,5*%
%TO.N,Net-(A1-Pad12)*%
X97625874Y-119593609D03*
%TO.P,J1,6*%
%TO.N,Net-(A1-Pad11)*%
X97625874Y-117053609D03*
%TO.P,J1,7*%
%TO.N,Net-(A1-Pad10)*%
X97625874Y-114513609D03*
%TO.P,J1,8*%
%TO.N,Net-(A1-Pad9)*%
X97625874Y-111973609D03*
%TO.P,J1,9*%
%TO.N,Net-(A1-Pad8)*%
X97625874Y-109433609D03*
%TO.P,J1,10*%
%TO.N,Net-(A1-Pad7)*%
X97625874Y-106893609D03*
%TO.P,J1,11*%
%TO.N,Net-(A1-Pad6)*%
X97625874Y-104353609D03*
%TO.P,J1,12*%
%TO.N,Net-(A1-Pad5)*%
X97625874Y-101813609D03*
%TO.P,J1,13*%
%TO.N,Net-(A1-Pad1)*%
X97625874Y-99273609D03*
%TO.P,J1,14*%
%TO.N,Net-(A1-Pad2)*%
X97625874Y-96733609D03*
%TO.P,J1,15*%
%TO.N,GND*%
X97625874Y-94193609D03*
%TD*%
D12*
%TO.P,A1,1*%
%TO.N,Net-(A1-Pad1)*%
X106965001Y-91715001D03*
D13*
%TO.P,A1,17*%
%TO.N,Net-(A1-Pad17)*%
X122205001Y-124735001D03*
%TO.P,A1,2*%
%TO.N,Net-(A1-Pad2)*%
X106965001Y-94255001D03*
%TO.P,A1,18*%
%TO.N,Net-(A1-Pad18)*%
X122205001Y-122195001D03*
%TO.P,A1,3*%
%TO.N,Net-(A1-Pad3)*%
X106965001Y-96795001D03*
%TO.P,A1,19*%
%TO.N,Net-(A1-Pad19)*%
X122205001Y-119655001D03*
%TO.P,A1,4*%
%TO.N,GND*%
X106965001Y-99335001D03*
%TO.P,A1,20*%
%TO.N,Net-(A1-Pad20)*%
X122205001Y-117115001D03*
%TO.P,A1,5*%
%TO.N,Net-(A1-Pad5)*%
X106965001Y-101875001D03*
%TO.P,A1,21*%
%TO.N,Net-(A1-Pad21)*%
X122205001Y-114575001D03*
%TO.P,A1,6*%
%TO.N,Net-(A1-Pad6)*%
X106965001Y-104415001D03*
%TO.P,A1,22*%
%TO.N,Net-(A1-Pad22)*%
X122205001Y-112035001D03*
%TO.P,A1,7*%
%TO.N,Net-(A1-Pad7)*%
X106965001Y-106955001D03*
%TO.P,A1,23*%
%TO.N,Net-(A1-Pad23)*%
X122205001Y-109495001D03*
%TO.P,A1,8*%
%TO.N,Net-(A1-Pad8)*%
X106965001Y-109495001D03*
%TO.P,A1,24*%
%TO.N,Net-(A1-Pad24)*%
X122205001Y-106955001D03*
%TO.P,A1,9*%
%TO.N,Net-(A1-Pad9)*%
X106965001Y-112035001D03*
%TO.P,A1,25*%
%TO.N,Net-(A1-Pad25)*%
X122205001Y-104415001D03*
%TO.P,A1,10*%
%TO.N,Net-(A1-Pad10)*%
X106965001Y-114575001D03*
%TO.P,A1,26*%
%TO.N,Net-(A1-Pad26)*%
X122205001Y-101875001D03*
%TO.P,A1,11*%
%TO.N,Net-(A1-Pad11)*%
X106965001Y-117115001D03*
%TO.P,A1,27*%
%TO.N,+1V5*%
X122205001Y-99335001D03*
%TO.P,A1,12*%
%TO.N,Net-(A1-Pad12)*%
X106965001Y-119655001D03*
%TO.P,A1,28*%
%TO.N,Net-(A1-Pad28)*%
X122205001Y-96795001D03*
%TO.P,A1,13*%
%TO.N,Net-(A1-Pad13)*%
X106965001Y-122195001D03*
%TO.P,A1,29*%
%TO.N,GND*%
X122205001Y-94255001D03*
%TO.P,A1,14*%
%TO.N,Net-(A1-Pad14)*%
X106965001Y-124735001D03*
%TO.P,A1,30*%
%TO.N,Net-(A1-Pad30)*%
X122205001Y-91715001D03*
%TO.P,A1,15*%
%TO.N,Net-(A1-Pad15)*%
X106965001Y-127275001D03*
%TO.P,A1,16*%
%TO.N,Net-(A1-Pad16)*%
X122205001Y-127275001D03*
%TD*%
D14*
%TO.P,D1,1*%
%TO.N,GND*%
X91440000Y-106680000D03*
D15*
%TO.P,D1,2*%
%TO.N,Net-(D1-Pad2)*%
X91440000Y-109220000D03*
%TD*%
D11*
%TO.P,J2,15*%
%TO.N,Net-(A1-Pad26)*%
X134191782Y-101878186D03*
%TO.P,J2,14*%
%TO.N,Net-(A1-Pad25)*%
X134191782Y-104418186D03*
%TO.P,J2,13*%
%TO.N,Net-(A1-Pad24)*%
X134191782Y-106958186D03*
%TO.P,J2,12*%
%TO.N,Net-(A1-Pad23)*%
X134191782Y-109498186D03*
%TO.P,J2,11*%
%TO.N,Net-(A1-Pad22)*%
X134191782Y-112038186D03*
%TO.P,J2,10*%
%TO.N,Net-(A1-Pad21)*%
X134191782Y-114578186D03*
%TO.P,J2,9*%
%TO.N,Net-(A1-Pad20)*%
X134191782Y-117118186D03*
%TO.P,J2,8*%
%TO.N,Net-(A1-Pad19)*%
X134191782Y-119658186D03*
%TO.P,J2,7*%
%TO.N,Net-(J2-Pad7)*%
X134191782Y-122198186D03*
%TO.P,J2,6*%
%TO.N,Net-(A1-Pad18)*%
X134191782Y-124738186D03*
%TO.P,J2,5*%
%TO.N,Net-(J2-Pad5)*%
X134191782Y-127278186D03*
%TO.P,J2,4*%
%TO.N,Net-(J2-Pad4)*%
X134191782Y-129818186D03*
%TO.P,J2,3*%
%TO.N,Net-(A1-Pad3)*%
X134191782Y-132358186D03*
%TO.P,J2,2*%
%TO.N,Net-(A1-Pad28)*%
X134191782Y-134898186D03*
D10*
%TO.P,J2,1*%
%TO.N,Net-(J2-Pad1)*%
X134191782Y-137438186D03*
%TD*%
D16*
%TO.P,R1,1*%
%TO.N,Net-(A1-Pad13)*%
X91440000Y-120650000D03*
D17*
%TO.P,R1,2*%
%TO.N,Net-(D1-Pad2)*%
X91440000Y-115570000D03*
%TD*%
D18*
%TO.N,GND*%
X102870000Y-99060000D03*
X101600000Y-93980000D03*
%TD*%
D19*
%TO.N,Net-(A1-Pad1)*%
X97625874Y-99273609D02*
X92923609Y-99273609D01*
X92923609Y-99273609D02*
X92710000Y-99060000D01*
X92710000Y-99060000D02*
X92710000Y-96889481D01*
X97884480Y-91715001D02*
X106965001Y-91715001D01*
X92710000Y-96889481D02*
X97884480Y-91715001D01*
%TO.N,Net-(A1-Pad2)*%
X104486393Y-96733609D02*
X106965001Y-94255001D01*
X97625874Y-96733609D02*
X104486393Y-96733609D01*
%TO.N,Net-(A1-Pad18)*%
X131648597Y-122195001D02*
X134191782Y-124738186D01*
X122205001Y-122195001D02*
X131648597Y-122195001D01*
%TO.N,Net-(A1-Pad3)*%
X108505002Y-95255000D02*
X106965001Y-96795001D01*
X108505002Y-88435800D02*
X108505002Y-95255000D01*
X107704202Y-87635000D02*
X108505002Y-88435800D01*
X100408832Y-87635000D02*
X107704202Y-87635000D01*
X98210448Y-133208185D02*
X89889999Y-124887736D01*
X133341783Y-133208185D02*
X98210448Y-133208185D01*
X89889999Y-98153833D02*
X100408832Y-87635000D01*
X89889999Y-124887736D02*
X89889999Y-98153833D01*
X134191782Y-132358186D02*
X133341783Y-133208185D01*
%TO.N,Net-(A1-Pad19)*%
X122208186Y-119658186D02*
X122205001Y-119655001D01*
X134191782Y-119658186D02*
X122208186Y-119658186D01*
%TO.N,GND*%
X106965001Y-99335001D02*
X106955001Y-99335001D01*
X112181000Y-101179000D02*
X113030000Y-100330000D01*
X106955001Y-99335001D02*
X108799000Y-101179000D01*
X108799000Y-101179000D02*
X112181000Y-101179000D01*
X106965001Y-99335001D02*
X103145001Y-99335001D01*
X103145001Y-99335001D02*
X102870000Y-99060000D01*
X97839483Y-93980000D02*
X97625874Y-94193609D01*
X101600000Y-93980000D02*
X97839483Y-93980000D01*
%TO.N,Net-(A1-Pad20)*%
X134188597Y-117115001D02*
X134191782Y-117118186D01*
X122205001Y-117115001D02*
X134188597Y-117115001D01*
%TO.N,Net-(A1-Pad5)*%
X106903609Y-101813609D02*
X106965001Y-101875001D01*
X97625874Y-101813609D02*
X106903609Y-101813609D01*
%TO.N,Net-(A1-Pad21)*%
X122208186Y-114578186D02*
X122205001Y-114575001D01*
X134191782Y-114578186D02*
X122208186Y-114578186D01*
%TO.N,Net-(A1-Pad6)*%
X97687266Y-104415001D02*
X97625874Y-104353609D01*
X106965001Y-104415001D02*
X97687266Y-104415001D01*
%TO.N,Net-(A1-Pad22)*%
X134188597Y-112035001D02*
X134191782Y-112038186D01*
X122205001Y-112035001D02*
X134188597Y-112035001D01*
%TO.N,Net-(A1-Pad7)*%
X106903609Y-106893609D02*
X106965001Y-106955001D01*
X97625874Y-106893609D02*
X106903609Y-106893609D01*
%TO.N,Net-(A1-Pad23)*%
X122208186Y-109498186D02*
X122205001Y-109495001D01*
X134191782Y-109498186D02*
X122208186Y-109498186D01*
%TO.N,Net-(A1-Pad8)*%
X97687266Y-109495001D02*
X97625874Y-109433609D01*
X106965001Y-109495001D02*
X97687266Y-109495001D01*
%TO.N,Net-(A1-Pad24)*%
X134188597Y-106955001D02*
X134191782Y-106958186D01*
X122205001Y-106955001D02*
X134188597Y-106955001D01*
%TO.N,Net-(A1-Pad9)*%
X97687266Y-112035001D02*
X97625874Y-111973609D01*
X106965001Y-112035001D02*
X97687266Y-112035001D01*
%TO.N,Net-(A1-Pad25)*%
X122208186Y-104418186D02*
X122205001Y-104415001D01*
X134191782Y-104418186D02*
X122208186Y-104418186D01*
%TO.N,Net-(A1-Pad10)*%
X106903609Y-114513609D02*
X106965001Y-114575001D01*
X97625874Y-114513609D02*
X106903609Y-114513609D01*
%TO.N,Net-(A1-Pad26)*%
X134188597Y-101875001D02*
X134191782Y-101878186D01*
X122205001Y-101875001D02*
X134188597Y-101875001D01*
%TO.N,Net-(A1-Pad11)*%
X97687266Y-117115001D02*
X97625874Y-117053609D01*
X106965001Y-117115001D02*
X97687266Y-117115001D01*
%TO.N,Net-(A1-Pad12)*%
X106903609Y-119593609D02*
X106965001Y-119655001D01*
X97625874Y-119593609D02*
X106903609Y-119593609D01*
%TO.N,Net-(A1-Pad28)*%
X131328599Y-96795001D02*
X137160000Y-102626402D01*
X122205001Y-96795001D02*
X131328599Y-96795001D01*
X137160000Y-131609970D02*
X134149970Y-134620000D01*
X137160000Y-102626402D02*
X137160000Y-131609970D01*
X134149970Y-134856374D02*
X134191782Y-134898186D01*
X134149970Y-134620000D02*
X134149970Y-134856374D01*
%TO.N,Net-(A1-Pad13)*%
X106903609Y-122133609D02*
X106965001Y-122195001D01*
X97625874Y-122133609D02*
X106903609Y-122133609D01*
X92923609Y-122133609D02*
X91440000Y-120650000D01*
X97625874Y-122133609D02*
X92923609Y-122133609D01*
%TO.N,Net-(A1-Pad14)*%
X106903609Y-124673609D02*
X106965001Y-124735001D01*
X97625874Y-124673609D02*
X106903609Y-124673609D01*
%TO.N,Net-(A1-Pad15)*%
X106903609Y-127213609D02*
X106965001Y-127275001D01*
X97625874Y-127213609D02*
X106903609Y-127213609D01*
%TO.N,Net-(A1-Pad16)*%
X97625874Y-129753609D02*
X103083609Y-129753609D01*
X103083609Y-129753609D02*
X105410000Y-132080000D01*
X105410000Y-132080000D02*
X113030000Y-132080000D01*
X117834999Y-127275001D02*
X122205001Y-127275001D01*
X113030000Y-132080000D02*
X117834999Y-127275001D01*
%TO.N,Net-(D1-Pad2)*%
X91440000Y-115570000D02*
X91440000Y-109220000D01*
%TD*%
D20*
%TO.N,GND*%
G36*
X139575919Y-140843000D02*
G01*
X87757000Y-140843000D01*
X87757000Y-98153833D01*
X88799751Y-98153833D01*
X88805000Y-98207129D01*
X88804999Y-124834450D01*
X88799751Y-124887736D01*
X88804999Y-124941022D01*
X88804999Y-124941029D01*
X88805656Y-124947697D01*
X88820699Y-125100433D01*
X88836409Y-125152221D01*
X88882740Y-125304955D01*
X88983490Y-125493446D01*
X89119077Y-125658658D01*
X89160473Y-125692631D01*
X97405557Y-133937716D01*
X97439526Y-133979107D01*
X97480917Y-134013076D01*
X97480921Y-134013080D01*
X97527711Y-134051479D01*
X97604738Y-134114694D01*
X97793228Y-134215444D01*
X97997751Y-134277485D01*
X98157154Y-134293185D01*
X98157162Y-134293185D01*
X98210448Y-134298433D01*
X98263734Y-134293185D01*
X132835029Y-134293185D01*
X132763850Y-134465028D01*
X132706782Y-134751926D01*
X132706782Y-135044446D01*
X132763850Y-135331344D01*
X132875792Y-135601597D01*
X133038307Y-135844818D01*
X133170162Y-135976673D01*
X133097602Y-135998684D01*
X132987288Y-136057649D01*
X132890597Y-136137001D01*
X132811245Y-136233692D01*
X132752280Y-136344006D01*
X132715970Y-136463704D01*
X132703710Y-136588186D01*
X132703710Y-138288186D01*
X132715970Y-138412668D01*
X132752280Y-138532366D01*
X132811245Y-138642680D01*
X132890597Y-138739371D01*
X132987288Y-138818723D01*
X133097602Y-138877688D01*
X133217300Y-138913998D01*
X133341782Y-138926258D01*
X135041782Y-138926258D01*
X135166264Y-138913998D01*
X135285962Y-138877688D01*
X135396276Y-138818723D01*
X135492967Y-138739371D01*
X135572319Y-138642680D01*
X135631284Y-138532366D01*
X135667594Y-138412668D01*
X135679854Y-138288186D01*
X135679854Y-136588186D01*
X135667594Y-136463704D01*
X135631284Y-136344006D01*
X135572319Y-136233692D01*
X135492967Y-136137001D01*
X135396276Y-136057649D01*
X135285962Y-135998684D01*
X135213402Y-135976673D01*
X135345257Y-135844818D01*
X135507772Y-135601597D01*
X135619714Y-135331344D01*
X135676782Y-135044446D01*
X135676782Y-134751926D01*
X135656156Y-134648235D01*
X137889531Y-132414861D01*
X137930922Y-132380892D01*
X137964891Y-132339501D01*
X137964895Y-132339497D01*
X138008343Y-132286555D01*
X138066509Y-132215680D01*
X138167259Y-132027190D01*
X138229300Y-131822667D01*
X138245000Y-131663264D01*
X138245000Y-131663257D01*
X138250248Y-131609971D01*
X138245000Y-131556685D01*
X138245000Y-102679687D01*
X138250248Y-102626401D01*
X138245000Y-102573115D01*
X138245000Y-102573108D01*
X138229300Y-102413705D01*
X138167259Y-102209182D01*
X138066509Y-102020692D01*
X138046838Y-101996722D01*
X137964895Y-101896875D01*
X137964891Y-101896871D01*
X137930922Y-101855480D01*
X137889531Y-101821511D01*
X132133494Y-96065475D01*
X132099521Y-96024079D01*
X131934309Y-95888492D01*
X131745819Y-95787742D01*
X131541296Y-95725701D01*
X131381893Y-95710001D01*
X131381885Y-95710001D01*
X131328599Y-95704753D01*
X131275313Y-95710001D01*
X123149397Y-95710001D01*
X123119760Y-95680364D01*
X122884728Y-95523321D01*
X122874136Y-95518934D01*
X123060132Y-95407386D01*
X123268520Y-95218415D01*
X123436038Y-94992421D01*
X123556247Y-94738088D01*
X123596905Y-94604040D01*
X123474916Y-94382001D01*
X122332001Y-94382001D01*
X122332001Y-94402001D01*
X122078001Y-94402001D01*
X122078001Y-94382001D01*
X120935086Y-94382001D01*
X120813097Y-94604040D01*
X120853755Y-94738088D01*
X120973964Y-94992421D01*
X121141482Y-95218415D01*
X121349870Y-95407386D01*
X121535866Y-95518934D01*
X121525274Y-95523321D01*
X121290242Y-95680364D01*
X121090364Y-95880242D01*
X120933321Y-96115274D01*
X120825148Y-96376427D01*
X120770001Y-96653666D01*
X120770001Y-96936336D01*
X120825148Y-97213575D01*
X120933321Y-97474728D01*
X121090364Y-97709760D01*
X121290242Y-97909638D01*
X121522760Y-98065001D01*
X121290242Y-98220364D01*
X121090364Y-98420242D01*
X120933321Y-98655274D01*
X120825148Y-98916427D01*
X120770001Y-99193666D01*
X120770001Y-99476336D01*
X120825148Y-99753575D01*
X120933321Y-100014728D01*
X121090364Y-100249760D01*
X121290242Y-100449638D01*
X121522760Y-100605001D01*
X121290242Y-100760364D01*
X121090364Y-100960242D01*
X120933321Y-101195274D01*
X120825148Y-101456427D01*
X120770001Y-101733666D01*
X120770001Y-102016336D01*
X120825148Y-102293575D01*
X120933321Y-102554728D01*
X121090364Y-102789760D01*
X121290242Y-102989638D01*
X121522760Y-103145001D01*
X121290242Y-103300364D01*
X121090364Y-103500242D01*
X120933321Y-103735274D01*
X120825148Y-103996427D01*
X120770001Y-104273666D01*
X120770001Y-104556336D01*
X120825148Y-104833575D01*
X120933321Y-105094728D01*
X121090364Y-105329760D01*
X121290242Y-105529638D01*
X121522760Y-105685001D01*
X121290242Y-105840364D01*
X121090364Y-106040242D01*
X120933321Y-106275274D01*
X120825148Y-106536427D01*
X120770001Y-106813666D01*
X120770001Y-107096336D01*
X120825148Y-107373575D01*
X120933321Y-107634728D01*
X121090364Y-107869760D01*
X121290242Y-108069638D01*
X121522760Y-108225001D01*
X121290242Y-108380364D01*
X121090364Y-108580242D01*
X120933321Y-108815274D01*
X120825148Y-109076427D01*
X120770001Y-109353666D01*
X120770001Y-109636336D01*
X120825148Y-109913575D01*
X120933321Y-110174728D01*
X121090364Y-110409760D01*
X121290242Y-110609638D01*
X121522760Y-110765001D01*
X121290242Y-110920364D01*
X121090364Y-111120242D01*
X120933321Y-111355274D01*
X120825148Y-111616427D01*
X120770001Y-111893666D01*
X120770001Y-112176336D01*
X120825148Y-112453575D01*
X120933321Y-112714728D01*
X121090364Y-112949760D01*
X121290242Y-113149638D01*
X121522760Y-113305001D01*
X121290242Y-113460364D01*
X121090364Y-113660242D01*
X120933321Y-113895274D01*
X120825148Y-114156427D01*
X120770001Y-114433666D01*
X120770001Y-114716336D01*
X120825148Y-114993575D01*
X120933321Y-115254728D01*
X121090364Y-115489760D01*
X121290242Y-115689638D01*
X121522760Y-115845001D01*
X121290242Y-116000364D01*
X121090364Y-116200242D01*
X120933321Y-116435274D01*
X120825148Y-116696427D01*
X120770001Y-116973666D01*
X120770001Y-117256336D01*
X120825148Y-117533575D01*
X120933321Y-117794728D01*
X121090364Y-118029760D01*
X121290242Y-118229638D01*
X121522760Y-118385001D01*
X121290242Y-118540364D01*
X121090364Y-118740242D01*
X120933321Y-118975274D01*
X120825148Y-119236427D01*
X120770001Y-119513666D01*
X120770001Y-119796336D01*
X120825148Y-120073575D01*
X120933321Y-120334728D01*
X121090364Y-120569760D01*
X121290242Y-120769638D01*
X121522760Y-120925001D01*
X121290242Y-121080364D01*
X121090364Y-121280242D01*
X120933321Y-121515274D01*
X120825148Y-121776427D01*
X120770001Y-122053666D01*
X120770001Y-122336336D01*
X120825148Y-122613575D01*
X120933321Y-122874728D01*
X121090364Y-123109760D01*
X121290242Y-123309638D01*
X121522760Y-123465001D01*
X121290242Y-123620364D01*
X121090364Y-123820242D01*
X120933321Y-124055274D01*
X120825148Y-124316427D01*
X120770001Y-124593666D01*
X120770001Y-124876336D01*
X120825148Y-125153575D01*
X120933321Y-125414728D01*
X121090364Y-125649760D01*
X121290242Y-125849638D01*
X121522760Y-126005001D01*
X121290242Y-126160364D01*
X121260605Y-126190001D01*
X117888285Y-126190001D01*
X117834999Y-126184753D01*
X117781713Y-126190001D01*
X117781705Y-126190001D01*
X117622302Y-126205701D01*
X117417779Y-126267742D01*
X117229289Y-126368492D01*
X117180279Y-126408714D01*
X117105472Y-126470106D01*
X117105468Y-126470110D01*
X117064077Y-126504079D01*
X117030108Y-126545470D01*
X112580579Y-130995000D01*
X107941678Y-130995000D01*
X108149546Y-130787132D01*
X108316439Y-130537359D01*
X108431396Y-130259827D01*
X108490001Y-129965200D01*
X108490001Y-129664802D01*
X108431396Y-129370175D01*
X108316439Y-129092643D01*
X108149546Y-128842870D01*
X107937132Y-128630456D01*
X107728241Y-128490880D01*
X107879760Y-128389638D01*
X108079638Y-128189760D01*
X108236681Y-127954728D01*
X108344854Y-127693575D01*
X108400001Y-127416336D01*
X108400001Y-127133666D01*
X108344854Y-126856427D01*
X108236681Y-126595274D01*
X108079638Y-126360242D01*
X107879760Y-126160364D01*
X107647242Y-126005001D01*
X107879760Y-125849638D01*
X108079638Y-125649760D01*
X108236681Y-125414728D01*
X108344854Y-125153575D01*
X108400001Y-124876336D01*
X108400001Y-124593666D01*
X108344854Y-124316427D01*
X108236681Y-124055274D01*
X108079638Y-123820242D01*
X107879760Y-123620364D01*
X107647242Y-123465001D01*
X107879760Y-123309638D01*
X108079638Y-123109760D01*
X108236681Y-122874728D01*
X108344854Y-122613575D01*
X108400001Y-122336336D01*
X108400001Y-122053666D01*
X108344854Y-121776427D01*
X108236681Y-121515274D01*
X108079638Y-121280242D01*
X107879760Y-121080364D01*
X107647242Y-120925001D01*
X107879760Y-120769638D01*
X108079638Y-120569760D01*
X108236681Y-120334728D01*
X108344854Y-120073575D01*
X108400001Y-119796336D01*
X108400001Y-119513666D01*
X108344854Y-119236427D01*
X108236681Y-118975274D01*
X108079638Y-118740242D01*
X107879760Y-118540364D01*
X107647242Y-118385001D01*
X107879760Y-118229638D01*
X108079638Y-118029760D01*
X108236681Y-117794728D01*
X108344854Y-117533575D01*
X108400001Y-117256336D01*
X108400001Y-116973666D01*
X108344854Y-116696427D01*
X108236681Y-116435274D01*
X108079638Y-116200242D01*
X107879760Y-116000364D01*
X107647242Y-115845001D01*
X107879760Y-115689638D01*
X108079638Y-115489760D01*
X108236681Y-115254728D01*
X108344854Y-114993575D01*
X108400001Y-114716336D01*
X108400001Y-114433666D01*
X108344854Y-114156427D01*
X108236681Y-113895274D01*
X108079638Y-113660242D01*
X107879760Y-113460364D01*
X107647242Y-113305001D01*
X107879760Y-113149638D01*
X108079638Y-112949760D01*
X108236681Y-112714728D01*
X108344854Y-112453575D01*
X108400001Y-112176336D01*
X108400001Y-111893666D01*
X108344854Y-111616427D01*
X108236681Y-111355274D01*
X108079638Y-111120242D01*
X107879760Y-110920364D01*
X107647242Y-110765001D01*
X107879760Y-110609638D01*
X108079638Y-110409760D01*
X108236681Y-110174728D01*
X108344854Y-109913575D01*
X108400001Y-109636336D01*
X108400001Y-109353666D01*
X108344854Y-109076427D01*
X108236681Y-108815274D01*
X108079638Y-108580242D01*
X107879760Y-108380364D01*
X107647242Y-108225001D01*
X107879760Y-108069638D01*
X108079638Y-107869760D01*
X108236681Y-107634728D01*
X108344854Y-107373575D01*
X108400001Y-107096336D01*
X108400001Y-106813666D01*
X108344854Y-106536427D01*
X108236681Y-106275274D01*
X108079638Y-106040242D01*
X107879760Y-105840364D01*
X107647242Y-105685001D01*
X107879760Y-105529638D01*
X108079638Y-105329760D01*
X108236681Y-105094728D01*
X108344854Y-104833575D01*
X108400001Y-104556336D01*
X108400001Y-104273666D01*
X108344854Y-103996427D01*
X108236681Y-103735274D01*
X108079638Y-103500242D01*
X107879760Y-103300364D01*
X107647242Y-103145001D01*
X107879760Y-102989638D01*
X108079638Y-102789760D01*
X108236681Y-102554728D01*
X108344854Y-102293575D01*
X108400001Y-102016336D01*
X108400001Y-101733666D01*
X108344854Y-101456427D01*
X108236681Y-101195274D01*
X108079638Y-100960242D01*
X107879760Y-100760364D01*
X107644728Y-100603321D01*
X107634136Y-100598934D01*
X107820132Y-100487386D01*
X108028520Y-100298415D01*
X108196038Y-100072421D01*
X108316247Y-99818088D01*
X108356905Y-99684040D01*
X108234916Y-99462001D01*
X107092001Y-99462001D01*
X107092001Y-99482001D01*
X106838001Y-99482001D01*
X106838001Y-99462001D01*
X105695086Y-99462001D01*
X105573097Y-99684040D01*
X105613755Y-99818088D01*
X105733964Y-100072421D01*
X105901482Y-100298415D01*
X106109870Y-100487386D01*
X106295866Y-100598934D01*
X106285274Y-100603321D01*
X106097767Y-100728609D01*
X98640981Y-100728609D01*
X98572506Y-100660134D01*
X98398114Y-100543609D01*
X98572506Y-100427084D01*
X98779349Y-100220241D01*
X98941864Y-99977020D01*
X99053806Y-99706767D01*
X99110874Y-99419869D01*
X99110874Y-99127349D01*
X99053806Y-98840451D01*
X98941864Y-98570198D01*
X98779349Y-98326977D01*
X98572506Y-98120134D01*
X98398114Y-98003609D01*
X98572506Y-97887084D01*
X98640981Y-97818609D01*
X104433107Y-97818609D01*
X104486393Y-97823857D01*
X104539679Y-97818609D01*
X104539687Y-97818609D01*
X104699090Y-97802909D01*
X104903613Y-97740868D01*
X105092103Y-97640118D01*
X105257315Y-97504531D01*
X105291288Y-97463135D01*
X105577798Y-97176625D01*
X105585148Y-97213575D01*
X105693321Y-97474728D01*
X105850364Y-97709760D01*
X106050242Y-97909638D01*
X106285274Y-98066681D01*
X106295866Y-98071068D01*
X106109870Y-98182616D01*
X105901482Y-98371587D01*
X105733964Y-98597581D01*
X105613755Y-98851914D01*
X105573097Y-98985962D01*
X105695086Y-99208001D01*
X106838001Y-99208001D01*
X106838001Y-99188001D01*
X107092001Y-99188001D01*
X107092001Y-99208001D01*
X108234916Y-99208001D01*
X108356905Y-98985962D01*
X108316247Y-98851914D01*
X108196038Y-98597581D01*
X108028520Y-98371587D01*
X107820132Y-98182616D01*
X107634136Y-98071068D01*
X107644728Y-98066681D01*
X107879760Y-97909638D01*
X108079638Y-97709760D01*
X108236681Y-97474728D01*
X108344854Y-97213575D01*
X108400001Y-96936336D01*
X108400001Y-96894422D01*
X109234533Y-96059891D01*
X109275924Y-96025922D01*
X109309893Y-95984531D01*
X109309897Y-95984527D01*
X109411510Y-95860711D01*
X109411511Y-95860710D01*
X109512261Y-95672220D01*
X109574302Y-95467697D01*
X109590002Y-95308294D01*
X109590002Y-95308287D01*
X109595250Y-95255001D01*
X109590002Y-95201715D01*
X109590002Y-89024802D01*
X120680001Y-89024802D01*
X120680001Y-89325200D01*
X120738606Y-89619827D01*
X120853563Y-89897359D01*
X121020456Y-90147132D01*
X121232870Y-90359546D01*
X121441761Y-90499122D01*
X121290242Y-90600364D01*
X121090364Y-90800242D01*
X120933321Y-91035274D01*
X120825148Y-91296427D01*
X120770001Y-91573666D01*
X120770001Y-91856336D01*
X120825148Y-92133575D01*
X120933321Y-92394728D01*
X121090364Y-92629760D01*
X121290242Y-92829638D01*
X121525274Y-92986681D01*
X121535866Y-92991068D01*
X121349870Y-93102616D01*
X121141482Y-93291587D01*
X120973964Y-93517581D01*
X120853755Y-93771914D01*
X120813097Y-93905962D01*
X120935086Y-94128001D01*
X122078001Y-94128001D01*
X122078001Y-94108001D01*
X122332001Y-94108001D01*
X122332001Y-94128001D01*
X123474916Y-94128001D01*
X123596905Y-93905962D01*
X123556247Y-93771914D01*
X123436038Y-93517581D01*
X123268520Y-93291587D01*
X123060132Y-93102616D01*
X122874136Y-92991068D01*
X122884728Y-92986681D01*
X123119760Y-92829638D01*
X123319638Y-92629760D01*
X123476681Y-92394728D01*
X123584854Y-92133575D01*
X123640001Y-91856336D01*
X123640001Y-91573666D01*
X123584854Y-91296427D01*
X123476681Y-91035274D01*
X123319638Y-90800242D01*
X123119760Y-90600364D01*
X122968241Y-90499122D01*
X123177132Y-90359546D01*
X123389546Y-90147132D01*
X123556439Y-89897359D01*
X123671396Y-89619827D01*
X123730001Y-89325200D01*
X123730001Y-89024802D01*
X123671396Y-88730175D01*
X123556439Y-88452643D01*
X123389546Y-88202870D01*
X123177132Y-87990456D01*
X122927359Y-87823563D01*
X122649827Y-87708606D01*
X122355200Y-87650001D01*
X122054802Y-87650001D01*
X121760175Y-87708606D01*
X121482643Y-87823563D01*
X121232870Y-87990456D01*
X121020456Y-88202870D01*
X120853563Y-88452643D01*
X120738606Y-88730175D01*
X120680001Y-89024802D01*
X109590002Y-89024802D01*
X109590002Y-88489085D01*
X109595250Y-88435799D01*
X109590002Y-88382513D01*
X109590002Y-88382506D01*
X109574302Y-88223103D01*
X109568165Y-88202870D01*
X109555482Y-88161061D01*
X109512261Y-88018580D01*
X109411511Y-87830090D01*
X109353345Y-87759215D01*
X109309897Y-87706273D01*
X109309893Y-87706269D01*
X109275924Y-87664878D01*
X109234533Y-87630909D01*
X108509097Y-86905474D01*
X108475124Y-86864078D01*
X108309912Y-86728491D01*
X108121422Y-86627741D01*
X107916899Y-86565700D01*
X107757496Y-86550000D01*
X107757488Y-86550000D01*
X107704202Y-86544752D01*
X107650916Y-86550000D01*
X100462117Y-86550000D01*
X100408831Y-86544752D01*
X100355545Y-86550000D01*
X100355538Y-86550000D01*
X100215910Y-86563752D01*
X100196134Y-86565700D01*
X100134093Y-86584520D01*
X99991612Y-86627741D01*
X99803122Y-86728491D01*
X99732247Y-86786657D01*
X99679305Y-86830105D01*
X99679301Y-86830109D01*
X99637910Y-86864078D01*
X99603941Y-86905469D01*
X89160469Y-97348942D01*
X89119078Y-97382911D01*
X89085109Y-97424302D01*
X89085104Y-97424307D01*
X89043725Y-97474728D01*
X88983491Y-97548123D01*
X88901504Y-97701510D01*
X88882741Y-97736613D01*
X88820699Y-97941136D01*
X88799751Y-98153833D01*
X87757000Y-98153833D01*
X87757000Y-86487000D01*
X140840012Y-86487000D01*
X139575919Y-140843000D01*
G37*
X139575919Y-140843000D02*
X87757000Y-140843000D01*
X87757000Y-98153833D01*
X88799751Y-98153833D01*
X88805000Y-98207129D01*
X88804999Y-124834450D01*
X88799751Y-124887736D01*
X88804999Y-124941022D01*
X88804999Y-124941029D01*
X88805656Y-124947697D01*
X88820699Y-125100433D01*
X88836409Y-125152221D01*
X88882740Y-125304955D01*
X88983490Y-125493446D01*
X89119077Y-125658658D01*
X89160473Y-125692631D01*
X97405557Y-133937716D01*
X97439526Y-133979107D01*
X97480917Y-134013076D01*
X97480921Y-134013080D01*
X97527711Y-134051479D01*
X97604738Y-134114694D01*
X97793228Y-134215444D01*
X97997751Y-134277485D01*
X98157154Y-134293185D01*
X98157162Y-134293185D01*
X98210448Y-134298433D01*
X98263734Y-134293185D01*
X132835029Y-134293185D01*
X132763850Y-134465028D01*
X132706782Y-134751926D01*
X132706782Y-135044446D01*
X132763850Y-135331344D01*
X132875792Y-135601597D01*
X133038307Y-135844818D01*
X133170162Y-135976673D01*
X133097602Y-135998684D01*
X132987288Y-136057649D01*
X132890597Y-136137001D01*
X132811245Y-136233692D01*
X132752280Y-136344006D01*
X132715970Y-136463704D01*
X132703710Y-136588186D01*
X132703710Y-138288186D01*
X132715970Y-138412668D01*
X132752280Y-138532366D01*
X132811245Y-138642680D01*
X132890597Y-138739371D01*
X132987288Y-138818723D01*
X133097602Y-138877688D01*
X133217300Y-138913998D01*
X133341782Y-138926258D01*
X135041782Y-138926258D01*
X135166264Y-138913998D01*
X135285962Y-138877688D01*
X135396276Y-138818723D01*
X135492967Y-138739371D01*
X135572319Y-138642680D01*
X135631284Y-138532366D01*
X135667594Y-138412668D01*
X135679854Y-138288186D01*
X135679854Y-136588186D01*
X135667594Y-136463704D01*
X135631284Y-136344006D01*
X135572319Y-136233692D01*
X135492967Y-136137001D01*
X135396276Y-136057649D01*
X135285962Y-135998684D01*
X135213402Y-135976673D01*
X135345257Y-135844818D01*
X135507772Y-135601597D01*
X135619714Y-135331344D01*
X135676782Y-135044446D01*
X135676782Y-134751926D01*
X135656156Y-134648235D01*
X137889531Y-132414861D01*
X137930922Y-132380892D01*
X137964891Y-132339501D01*
X137964895Y-132339497D01*
X138008343Y-132286555D01*
X138066509Y-132215680D01*
X138167259Y-132027190D01*
X138229300Y-131822667D01*
X138245000Y-131663264D01*
X138245000Y-131663257D01*
X138250248Y-131609971D01*
X138245000Y-131556685D01*
X138245000Y-102679687D01*
X138250248Y-102626401D01*
X138245000Y-102573115D01*
X138245000Y-102573108D01*
X138229300Y-102413705D01*
X138167259Y-102209182D01*
X138066509Y-102020692D01*
X138046838Y-101996722D01*
X137964895Y-101896875D01*
X137964891Y-101896871D01*
X137930922Y-101855480D01*
X137889531Y-101821511D01*
X132133494Y-96065475D01*
X132099521Y-96024079D01*
X131934309Y-95888492D01*
X131745819Y-95787742D01*
X131541296Y-95725701D01*
X131381893Y-95710001D01*
X131381885Y-95710001D01*
X131328599Y-95704753D01*
X131275313Y-95710001D01*
X123149397Y-95710001D01*
X123119760Y-95680364D01*
X122884728Y-95523321D01*
X122874136Y-95518934D01*
X123060132Y-95407386D01*
X123268520Y-95218415D01*
X123436038Y-94992421D01*
X123556247Y-94738088D01*
X123596905Y-94604040D01*
X123474916Y-94382001D01*
X122332001Y-94382001D01*
X122332001Y-94402001D01*
X122078001Y-94402001D01*
X122078001Y-94382001D01*
X120935086Y-94382001D01*
X120813097Y-94604040D01*
X120853755Y-94738088D01*
X120973964Y-94992421D01*
X121141482Y-95218415D01*
X121349870Y-95407386D01*
X121535866Y-95518934D01*
X121525274Y-95523321D01*
X121290242Y-95680364D01*
X121090364Y-95880242D01*
X120933321Y-96115274D01*
X120825148Y-96376427D01*
X120770001Y-96653666D01*
X120770001Y-96936336D01*
X120825148Y-97213575D01*
X120933321Y-97474728D01*
X121090364Y-97709760D01*
X121290242Y-97909638D01*
X121522760Y-98065001D01*
X121290242Y-98220364D01*
X121090364Y-98420242D01*
X120933321Y-98655274D01*
X120825148Y-98916427D01*
X120770001Y-99193666D01*
X120770001Y-99476336D01*
X120825148Y-99753575D01*
X120933321Y-100014728D01*
X121090364Y-100249760D01*
X121290242Y-100449638D01*
X121522760Y-100605001D01*
X121290242Y-100760364D01*
X121090364Y-100960242D01*
X120933321Y-101195274D01*
X120825148Y-101456427D01*
X120770001Y-101733666D01*
X120770001Y-102016336D01*
X120825148Y-102293575D01*
X120933321Y-102554728D01*
X121090364Y-102789760D01*
X121290242Y-102989638D01*
X121522760Y-103145001D01*
X121290242Y-103300364D01*
X121090364Y-103500242D01*
X120933321Y-103735274D01*
X120825148Y-103996427D01*
X120770001Y-104273666D01*
X120770001Y-104556336D01*
X120825148Y-104833575D01*
X120933321Y-105094728D01*
X121090364Y-105329760D01*
X121290242Y-105529638D01*
X121522760Y-105685001D01*
X121290242Y-105840364D01*
X121090364Y-106040242D01*
X120933321Y-106275274D01*
X120825148Y-106536427D01*
X120770001Y-106813666D01*
X120770001Y-107096336D01*
X120825148Y-107373575D01*
X120933321Y-107634728D01*
X121090364Y-107869760D01*
X121290242Y-108069638D01*
X121522760Y-108225001D01*
X121290242Y-108380364D01*
X121090364Y-108580242D01*
X120933321Y-108815274D01*
X120825148Y-109076427D01*
X120770001Y-109353666D01*
X120770001Y-109636336D01*
X120825148Y-109913575D01*
X120933321Y-110174728D01*
X121090364Y-110409760D01*
X121290242Y-110609638D01*
X121522760Y-110765001D01*
X121290242Y-110920364D01*
X121090364Y-111120242D01*
X120933321Y-111355274D01*
X120825148Y-111616427D01*
X120770001Y-111893666D01*
X120770001Y-112176336D01*
X120825148Y-112453575D01*
X120933321Y-112714728D01*
X121090364Y-112949760D01*
X121290242Y-113149638D01*
X121522760Y-113305001D01*
X121290242Y-113460364D01*
X121090364Y-113660242D01*
X120933321Y-113895274D01*
X120825148Y-114156427D01*
X120770001Y-114433666D01*
X120770001Y-114716336D01*
X120825148Y-114993575D01*
X120933321Y-115254728D01*
X121090364Y-115489760D01*
X121290242Y-115689638D01*
X121522760Y-115845001D01*
X121290242Y-116000364D01*
X121090364Y-116200242D01*
X120933321Y-116435274D01*
X120825148Y-116696427D01*
X120770001Y-116973666D01*
X120770001Y-117256336D01*
X120825148Y-117533575D01*
X120933321Y-117794728D01*
X121090364Y-118029760D01*
X121290242Y-118229638D01*
X121522760Y-118385001D01*
X121290242Y-118540364D01*
X121090364Y-118740242D01*
X120933321Y-118975274D01*
X120825148Y-119236427D01*
X120770001Y-119513666D01*
X120770001Y-119796336D01*
X120825148Y-120073575D01*
X120933321Y-120334728D01*
X121090364Y-120569760D01*
X121290242Y-120769638D01*
X121522760Y-120925001D01*
X121290242Y-121080364D01*
X121090364Y-121280242D01*
X120933321Y-121515274D01*
X120825148Y-121776427D01*
X120770001Y-122053666D01*
X120770001Y-122336336D01*
X120825148Y-122613575D01*
X120933321Y-122874728D01*
X121090364Y-123109760D01*
X121290242Y-123309638D01*
X121522760Y-123465001D01*
X121290242Y-123620364D01*
X121090364Y-123820242D01*
X120933321Y-124055274D01*
X120825148Y-124316427D01*
X120770001Y-124593666D01*
X120770001Y-124876336D01*
X120825148Y-125153575D01*
X120933321Y-125414728D01*
X121090364Y-125649760D01*
X121290242Y-125849638D01*
X121522760Y-126005001D01*
X121290242Y-126160364D01*
X121260605Y-126190001D01*
X117888285Y-126190001D01*
X117834999Y-126184753D01*
X117781713Y-126190001D01*
X117781705Y-126190001D01*
X117622302Y-126205701D01*
X117417779Y-126267742D01*
X117229289Y-126368492D01*
X117180279Y-126408714D01*
X117105472Y-126470106D01*
X117105468Y-126470110D01*
X117064077Y-126504079D01*
X117030108Y-126545470D01*
X112580579Y-130995000D01*
X107941678Y-130995000D01*
X108149546Y-130787132D01*
X108316439Y-130537359D01*
X108431396Y-130259827D01*
X108490001Y-129965200D01*
X108490001Y-129664802D01*
X108431396Y-129370175D01*
X108316439Y-129092643D01*
X108149546Y-128842870D01*
X107937132Y-128630456D01*
X107728241Y-128490880D01*
X107879760Y-128389638D01*
X108079638Y-128189760D01*
X108236681Y-127954728D01*
X108344854Y-127693575D01*
X108400001Y-127416336D01*
X108400001Y-127133666D01*
X108344854Y-126856427D01*
X108236681Y-126595274D01*
X108079638Y-126360242D01*
X107879760Y-126160364D01*
X107647242Y-126005001D01*
X107879760Y-125849638D01*
X108079638Y-125649760D01*
X108236681Y-125414728D01*
X108344854Y-125153575D01*
X108400001Y-124876336D01*
X108400001Y-124593666D01*
X108344854Y-124316427D01*
X108236681Y-124055274D01*
X108079638Y-123820242D01*
X107879760Y-123620364D01*
X107647242Y-123465001D01*
X107879760Y-123309638D01*
X108079638Y-123109760D01*
X108236681Y-122874728D01*
X108344854Y-122613575D01*
X108400001Y-122336336D01*
X108400001Y-122053666D01*
X108344854Y-121776427D01*
X108236681Y-121515274D01*
X108079638Y-121280242D01*
X107879760Y-121080364D01*
X107647242Y-120925001D01*
X107879760Y-120769638D01*
X108079638Y-120569760D01*
X108236681Y-120334728D01*
X108344854Y-120073575D01*
X108400001Y-119796336D01*
X108400001Y-119513666D01*
X108344854Y-119236427D01*
X108236681Y-118975274D01*
X108079638Y-118740242D01*
X107879760Y-118540364D01*
X107647242Y-118385001D01*
X107879760Y-118229638D01*
X108079638Y-118029760D01*
X108236681Y-117794728D01*
X108344854Y-117533575D01*
X108400001Y-117256336D01*
X108400001Y-116973666D01*
X108344854Y-116696427D01*
X108236681Y-116435274D01*
X108079638Y-116200242D01*
X107879760Y-116000364D01*
X107647242Y-115845001D01*
X107879760Y-115689638D01*
X108079638Y-115489760D01*
X108236681Y-115254728D01*
X108344854Y-114993575D01*
X108400001Y-114716336D01*
X108400001Y-114433666D01*
X108344854Y-114156427D01*
X108236681Y-113895274D01*
X108079638Y-113660242D01*
X107879760Y-113460364D01*
X107647242Y-113305001D01*
X107879760Y-113149638D01*
X108079638Y-112949760D01*
X108236681Y-112714728D01*
X108344854Y-112453575D01*
X108400001Y-112176336D01*
X108400001Y-111893666D01*
X108344854Y-111616427D01*
X108236681Y-111355274D01*
X108079638Y-111120242D01*
X107879760Y-110920364D01*
X107647242Y-110765001D01*
X107879760Y-110609638D01*
X108079638Y-110409760D01*
X108236681Y-110174728D01*
X108344854Y-109913575D01*
X108400001Y-109636336D01*
X108400001Y-109353666D01*
X108344854Y-109076427D01*
X108236681Y-108815274D01*
X108079638Y-108580242D01*
X107879760Y-108380364D01*
X107647242Y-108225001D01*
X107879760Y-108069638D01*
X108079638Y-107869760D01*
X108236681Y-107634728D01*
X108344854Y-107373575D01*
X108400001Y-107096336D01*
X108400001Y-106813666D01*
X108344854Y-106536427D01*
X108236681Y-106275274D01*
X108079638Y-106040242D01*
X107879760Y-105840364D01*
X107647242Y-105685001D01*
X107879760Y-105529638D01*
X108079638Y-105329760D01*
X108236681Y-105094728D01*
X108344854Y-104833575D01*
X108400001Y-104556336D01*
X108400001Y-104273666D01*
X108344854Y-103996427D01*
X108236681Y-103735274D01*
X108079638Y-103500242D01*
X107879760Y-103300364D01*
X107647242Y-103145001D01*
X107879760Y-102989638D01*
X108079638Y-102789760D01*
X108236681Y-102554728D01*
X108344854Y-102293575D01*
X108400001Y-102016336D01*
X108400001Y-101733666D01*
X108344854Y-101456427D01*
X108236681Y-101195274D01*
X108079638Y-100960242D01*
X107879760Y-100760364D01*
X107644728Y-100603321D01*
X107634136Y-100598934D01*
X107820132Y-100487386D01*
X108028520Y-100298415D01*
X108196038Y-100072421D01*
X108316247Y-99818088D01*
X108356905Y-99684040D01*
X108234916Y-99462001D01*
X107092001Y-99462001D01*
X107092001Y-99482001D01*
X106838001Y-99482001D01*
X106838001Y-99462001D01*
X105695086Y-99462001D01*
X105573097Y-99684040D01*
X105613755Y-99818088D01*
X105733964Y-100072421D01*
X105901482Y-100298415D01*
X106109870Y-100487386D01*
X106295866Y-100598934D01*
X106285274Y-100603321D01*
X106097767Y-100728609D01*
X98640981Y-100728609D01*
X98572506Y-100660134D01*
X98398114Y-100543609D01*
X98572506Y-100427084D01*
X98779349Y-100220241D01*
X98941864Y-99977020D01*
X99053806Y-99706767D01*
X99110874Y-99419869D01*
X99110874Y-99127349D01*
X99053806Y-98840451D01*
X98941864Y-98570198D01*
X98779349Y-98326977D01*
X98572506Y-98120134D01*
X98398114Y-98003609D01*
X98572506Y-97887084D01*
X98640981Y-97818609D01*
X104433107Y-97818609D01*
X104486393Y-97823857D01*
X104539679Y-97818609D01*
X104539687Y-97818609D01*
X104699090Y-97802909D01*
X104903613Y-97740868D01*
X105092103Y-97640118D01*
X105257315Y-97504531D01*
X105291288Y-97463135D01*
X105577798Y-97176625D01*
X105585148Y-97213575D01*
X105693321Y-97474728D01*
X105850364Y-97709760D01*
X106050242Y-97909638D01*
X106285274Y-98066681D01*
X106295866Y-98071068D01*
X106109870Y-98182616D01*
X105901482Y-98371587D01*
X105733964Y-98597581D01*
X105613755Y-98851914D01*
X105573097Y-98985962D01*
X105695086Y-99208001D01*
X106838001Y-99208001D01*
X106838001Y-99188001D01*
X107092001Y-99188001D01*
X107092001Y-99208001D01*
X108234916Y-99208001D01*
X108356905Y-98985962D01*
X108316247Y-98851914D01*
X108196038Y-98597581D01*
X108028520Y-98371587D01*
X107820132Y-98182616D01*
X107634136Y-98071068D01*
X107644728Y-98066681D01*
X107879760Y-97909638D01*
X108079638Y-97709760D01*
X108236681Y-97474728D01*
X108344854Y-97213575D01*
X108400001Y-96936336D01*
X108400001Y-96894422D01*
X109234533Y-96059891D01*
X109275924Y-96025922D01*
X109309893Y-95984531D01*
X109309897Y-95984527D01*
X109411510Y-95860711D01*
X109411511Y-95860710D01*
X109512261Y-95672220D01*
X109574302Y-95467697D01*
X109590002Y-95308294D01*
X109590002Y-95308287D01*
X109595250Y-95255001D01*
X109590002Y-95201715D01*
X109590002Y-89024802D01*
X120680001Y-89024802D01*
X120680001Y-89325200D01*
X120738606Y-89619827D01*
X120853563Y-89897359D01*
X121020456Y-90147132D01*
X121232870Y-90359546D01*
X121441761Y-90499122D01*
X121290242Y-90600364D01*
X121090364Y-90800242D01*
X120933321Y-91035274D01*
X120825148Y-91296427D01*
X120770001Y-91573666D01*
X120770001Y-91856336D01*
X120825148Y-92133575D01*
X120933321Y-92394728D01*
X121090364Y-92629760D01*
X121290242Y-92829638D01*
X121525274Y-92986681D01*
X121535866Y-92991068D01*
X121349870Y-93102616D01*
X121141482Y-93291587D01*
X120973964Y-93517581D01*
X120853755Y-93771914D01*
X120813097Y-93905962D01*
X120935086Y-94128001D01*
X122078001Y-94128001D01*
X122078001Y-94108001D01*
X122332001Y-94108001D01*
X122332001Y-94128001D01*
X123474916Y-94128001D01*
X123596905Y-93905962D01*
X123556247Y-93771914D01*
X123436038Y-93517581D01*
X123268520Y-93291587D01*
X123060132Y-93102616D01*
X122874136Y-92991068D01*
X122884728Y-92986681D01*
X123119760Y-92829638D01*
X123319638Y-92629760D01*
X123476681Y-92394728D01*
X123584854Y-92133575D01*
X123640001Y-91856336D01*
X123640001Y-91573666D01*
X123584854Y-91296427D01*
X123476681Y-91035274D01*
X123319638Y-90800242D01*
X123119760Y-90600364D01*
X122968241Y-90499122D01*
X123177132Y-90359546D01*
X123389546Y-90147132D01*
X123556439Y-89897359D01*
X123671396Y-89619827D01*
X123730001Y-89325200D01*
X123730001Y-89024802D01*
X123671396Y-88730175D01*
X123556439Y-88452643D01*
X123389546Y-88202870D01*
X123177132Y-87990456D01*
X122927359Y-87823563D01*
X122649827Y-87708606D01*
X122355200Y-87650001D01*
X122054802Y-87650001D01*
X121760175Y-87708606D01*
X121482643Y-87823563D01*
X121232870Y-87990456D01*
X121020456Y-88202870D01*
X120853563Y-88452643D01*
X120738606Y-88730175D01*
X120680001Y-89024802D01*
X109590002Y-89024802D01*
X109590002Y-88489085D01*
X109595250Y-88435799D01*
X109590002Y-88382513D01*
X109590002Y-88382506D01*
X109574302Y-88223103D01*
X109568165Y-88202870D01*
X109555482Y-88161061D01*
X109512261Y-88018580D01*
X109411511Y-87830090D01*
X109353345Y-87759215D01*
X109309897Y-87706273D01*
X109309893Y-87706269D01*
X109275924Y-87664878D01*
X109234533Y-87630909D01*
X108509097Y-86905474D01*
X108475124Y-86864078D01*
X108309912Y-86728491D01*
X108121422Y-86627741D01*
X107916899Y-86565700D01*
X107757496Y-86550000D01*
X107757488Y-86550000D01*
X107704202Y-86544752D01*
X107650916Y-86550000D01*
X100462117Y-86550000D01*
X100408831Y-86544752D01*
X100355545Y-86550000D01*
X100355538Y-86550000D01*
X100215910Y-86563752D01*
X100196134Y-86565700D01*
X100134093Y-86584520D01*
X99991612Y-86627741D01*
X99803122Y-86728491D01*
X99732247Y-86786657D01*
X99679305Y-86830105D01*
X99679301Y-86830109D01*
X99637910Y-86864078D01*
X99603941Y-86905469D01*
X89160469Y-97348942D01*
X89119078Y-97382911D01*
X89085109Y-97424302D01*
X89085104Y-97424307D01*
X89043725Y-97474728D01*
X88983491Y-97548123D01*
X88901504Y-97701510D01*
X88882741Y-97736613D01*
X88820699Y-97941136D01*
X88799751Y-98153833D01*
X87757000Y-98153833D01*
X87757000Y-86487000D01*
X140840012Y-86487000D01*
X139575919Y-140843000D01*
G36*
X91625000Y-99006714D02*
G01*
X91619752Y-99060000D01*
X91625000Y-99113286D01*
X91625000Y-99113293D01*
X91640700Y-99272696D01*
X91702741Y-99477219D01*
X91803491Y-99665710D01*
X91939078Y-99830922D01*
X91980474Y-99864895D01*
X92118714Y-100003135D01*
X92152687Y-100044531D01*
X92317899Y-100180118D01*
X92506389Y-100280868D01*
X92710912Y-100342909D01*
X92870315Y-100358609D01*
X92870323Y-100358609D01*
X92923609Y-100363857D01*
X92976895Y-100358609D01*
X96610767Y-100358609D01*
X96679242Y-100427084D01*
X96853634Y-100543609D01*
X96679242Y-100660134D01*
X96472399Y-100866977D01*
X96309884Y-101110198D01*
X96197942Y-101380451D01*
X96140874Y-101667349D01*
X96140874Y-101959869D01*
X96197942Y-102246767D01*
X96309884Y-102517020D01*
X96472399Y-102760241D01*
X96679242Y-102967084D01*
X96853634Y-103083609D01*
X96679242Y-103200134D01*
X96472399Y-103406977D01*
X96309884Y-103650198D01*
X96197942Y-103920451D01*
X96140874Y-104207349D01*
X96140874Y-104499869D01*
X96197942Y-104786767D01*
X96309884Y-105057020D01*
X96472399Y-105300241D01*
X96679242Y-105507084D01*
X96853634Y-105623609D01*
X96679242Y-105740134D01*
X96472399Y-105946977D01*
X96309884Y-106190198D01*
X96197942Y-106460451D01*
X96140874Y-106747349D01*
X96140874Y-107039869D01*
X96197942Y-107326767D01*
X96309884Y-107597020D01*
X96472399Y-107840241D01*
X96679242Y-108047084D01*
X96853634Y-108163609D01*
X96679242Y-108280134D01*
X96472399Y-108486977D01*
X96309884Y-108730198D01*
X96197942Y-109000451D01*
X96140874Y-109287349D01*
X96140874Y-109579869D01*
X96197942Y-109866767D01*
X96309884Y-110137020D01*
X96472399Y-110380241D01*
X96679242Y-110587084D01*
X96853634Y-110703609D01*
X96679242Y-110820134D01*
X96472399Y-111026977D01*
X96309884Y-111270198D01*
X96197942Y-111540451D01*
X96140874Y-111827349D01*
X96140874Y-112119869D01*
X96197942Y-112406767D01*
X96309884Y-112677020D01*
X96472399Y-112920241D01*
X96679242Y-113127084D01*
X96853634Y-113243609D01*
X96679242Y-113360134D01*
X96472399Y-113566977D01*
X96309884Y-113810198D01*
X96197942Y-114080451D01*
X96140874Y-114367349D01*
X96140874Y-114659869D01*
X96197942Y-114946767D01*
X96309884Y-115217020D01*
X96472399Y-115460241D01*
X96679242Y-115667084D01*
X96853634Y-115783609D01*
X96679242Y-115900134D01*
X96472399Y-116106977D01*
X96309884Y-116350198D01*
X96197942Y-116620451D01*
X96140874Y-116907349D01*
X96140874Y-117199869D01*
X96197942Y-117486767D01*
X96309884Y-117757020D01*
X96472399Y-118000241D01*
X96679242Y-118207084D01*
X96853634Y-118323609D01*
X96679242Y-118440134D01*
X96472399Y-118646977D01*
X96309884Y-118890198D01*
X96197942Y-119160451D01*
X96140874Y-119447349D01*
X96140874Y-119739869D01*
X96197942Y-120026767D01*
X96309884Y-120297020D01*
X96472399Y-120540241D01*
X96679242Y-120747084D01*
X96853634Y-120863609D01*
X96679242Y-120980134D01*
X96610767Y-121048609D01*
X93373031Y-121048609D01*
X92758131Y-120433710D01*
X92723696Y-120260595D01*
X92623061Y-120017641D01*
X92476962Y-119798987D01*
X92291013Y-119613038D01*
X92072359Y-119466939D01*
X91829405Y-119366304D01*
X91571486Y-119315000D01*
X91308514Y-119315000D01*
X91050595Y-119366304D01*
X90974999Y-119397617D01*
X90974999Y-116822383D01*
X91050595Y-116853696D01*
X91308514Y-116905000D01*
X91571486Y-116905000D01*
X91829405Y-116853696D01*
X92072359Y-116753061D01*
X92291013Y-116606962D01*
X92476962Y-116421013D01*
X92623061Y-116202359D01*
X92723696Y-115959405D01*
X92775000Y-115701486D01*
X92775000Y-115438514D01*
X92723696Y-115180595D01*
X92623061Y-114937641D01*
X92525000Y-114790881D01*
X92525000Y-110305817D01*
X92632312Y-110198505D01*
X92800299Y-109947095D01*
X92916011Y-109667743D01*
X92975000Y-109371184D01*
X92975000Y-109068816D01*
X92916011Y-108772257D01*
X92800299Y-108492905D01*
X92632312Y-108241495D01*
X92565873Y-108175056D01*
X92584180Y-108169502D01*
X92694494Y-108110537D01*
X92791185Y-108031185D01*
X92870537Y-107934494D01*
X92929502Y-107824180D01*
X92965812Y-107704482D01*
X92978072Y-107580000D01*
X92975000Y-106965750D01*
X92816250Y-106807000D01*
X91567000Y-106807000D01*
X91567000Y-106827000D01*
X91313000Y-106827000D01*
X91313000Y-106807000D01*
X91293000Y-106807000D01*
X91293000Y-106553000D01*
X91313000Y-106553000D01*
X91313000Y-105303750D01*
X91567000Y-105303750D01*
X91567000Y-106553000D01*
X92816250Y-106553000D01*
X92975000Y-106394250D01*
X92978072Y-105780000D01*
X92965812Y-105655518D01*
X92929502Y-105535820D01*
X92870537Y-105425506D01*
X92791185Y-105328815D01*
X92694494Y-105249463D01*
X92584180Y-105190498D01*
X92464482Y-105154188D01*
X92340000Y-105141928D01*
X91725750Y-105145000D01*
X91567000Y-105303750D01*
X91313000Y-105303750D01*
X91154250Y-105145000D01*
X90974999Y-105144104D01*
X90974999Y-98603254D01*
X91625001Y-97953253D01*
X91625000Y-99006714D01*
G37*
X91625000Y-99006714D02*
X91619752Y-99060000D01*
X91625000Y-99113286D01*
X91625000Y-99113293D01*
X91640700Y-99272696D01*
X91702741Y-99477219D01*
X91803491Y-99665710D01*
X91939078Y-99830922D01*
X91980474Y-99864895D01*
X92118714Y-100003135D01*
X92152687Y-100044531D01*
X92317899Y-100180118D01*
X92506389Y-100280868D01*
X92710912Y-100342909D01*
X92870315Y-100358609D01*
X92870323Y-100358609D01*
X92923609Y-100363857D01*
X92976895Y-100358609D01*
X96610767Y-100358609D01*
X96679242Y-100427084D01*
X96853634Y-100543609D01*
X96679242Y-100660134D01*
X96472399Y-100866977D01*
X96309884Y-101110198D01*
X96197942Y-101380451D01*
X96140874Y-101667349D01*
X96140874Y-101959869D01*
X96197942Y-102246767D01*
X96309884Y-102517020D01*
X96472399Y-102760241D01*
X96679242Y-102967084D01*
X96853634Y-103083609D01*
X96679242Y-103200134D01*
X96472399Y-103406977D01*
X96309884Y-103650198D01*
X96197942Y-103920451D01*
X96140874Y-104207349D01*
X96140874Y-104499869D01*
X96197942Y-104786767D01*
X96309884Y-105057020D01*
X96472399Y-105300241D01*
X96679242Y-105507084D01*
X96853634Y-105623609D01*
X96679242Y-105740134D01*
X96472399Y-105946977D01*
X96309884Y-106190198D01*
X96197942Y-106460451D01*
X96140874Y-106747349D01*
X96140874Y-107039869D01*
X96197942Y-107326767D01*
X96309884Y-107597020D01*
X96472399Y-107840241D01*
X96679242Y-108047084D01*
X96853634Y-108163609D01*
X96679242Y-108280134D01*
X96472399Y-108486977D01*
X96309884Y-108730198D01*
X96197942Y-109000451D01*
X96140874Y-109287349D01*
X96140874Y-109579869D01*
X96197942Y-109866767D01*
X96309884Y-110137020D01*
X96472399Y-110380241D01*
X96679242Y-110587084D01*
X96853634Y-110703609D01*
X96679242Y-110820134D01*
X96472399Y-111026977D01*
X96309884Y-111270198D01*
X96197942Y-111540451D01*
X96140874Y-111827349D01*
X96140874Y-112119869D01*
X96197942Y-112406767D01*
X96309884Y-112677020D01*
X96472399Y-112920241D01*
X96679242Y-113127084D01*
X96853634Y-113243609D01*
X96679242Y-113360134D01*
X96472399Y-113566977D01*
X96309884Y-113810198D01*
X96197942Y-114080451D01*
X96140874Y-114367349D01*
X96140874Y-114659869D01*
X96197942Y-114946767D01*
X96309884Y-115217020D01*
X96472399Y-115460241D01*
X96679242Y-115667084D01*
X96853634Y-115783609D01*
X96679242Y-115900134D01*
X96472399Y-116106977D01*
X96309884Y-116350198D01*
X96197942Y-116620451D01*
X96140874Y-116907349D01*
X96140874Y-117199869D01*
X96197942Y-117486767D01*
X96309884Y-117757020D01*
X96472399Y-118000241D01*
X96679242Y-118207084D01*
X96853634Y-118323609D01*
X96679242Y-118440134D01*
X96472399Y-118646977D01*
X96309884Y-118890198D01*
X96197942Y-119160451D01*
X96140874Y-119447349D01*
X96140874Y-119739869D01*
X96197942Y-120026767D01*
X96309884Y-120297020D01*
X96472399Y-120540241D01*
X96679242Y-120747084D01*
X96853634Y-120863609D01*
X96679242Y-120980134D01*
X96610767Y-121048609D01*
X93373031Y-121048609D01*
X92758131Y-120433710D01*
X92723696Y-120260595D01*
X92623061Y-120017641D01*
X92476962Y-119798987D01*
X92291013Y-119613038D01*
X92072359Y-119466939D01*
X91829405Y-119366304D01*
X91571486Y-119315000D01*
X91308514Y-119315000D01*
X91050595Y-119366304D01*
X90974999Y-119397617D01*
X90974999Y-116822383D01*
X91050595Y-116853696D01*
X91308514Y-116905000D01*
X91571486Y-116905000D01*
X91829405Y-116853696D01*
X92072359Y-116753061D01*
X92291013Y-116606962D01*
X92476962Y-116421013D01*
X92623061Y-116202359D01*
X92723696Y-115959405D01*
X92775000Y-115701486D01*
X92775000Y-115438514D01*
X92723696Y-115180595D01*
X92623061Y-114937641D01*
X92525000Y-114790881D01*
X92525000Y-110305817D01*
X92632312Y-110198505D01*
X92800299Y-109947095D01*
X92916011Y-109667743D01*
X92975000Y-109371184D01*
X92975000Y-109068816D01*
X92916011Y-108772257D01*
X92800299Y-108492905D01*
X92632312Y-108241495D01*
X92565873Y-108175056D01*
X92584180Y-108169502D01*
X92694494Y-108110537D01*
X92791185Y-108031185D01*
X92870537Y-107934494D01*
X92929502Y-107824180D01*
X92965812Y-107704482D01*
X92978072Y-107580000D01*
X92975000Y-106965750D01*
X92816250Y-106807000D01*
X91567000Y-106807000D01*
X91567000Y-106827000D01*
X91313000Y-106827000D01*
X91313000Y-106807000D01*
X91293000Y-106807000D01*
X91293000Y-106553000D01*
X91313000Y-106553000D01*
X91313000Y-105303750D01*
X91567000Y-105303750D01*
X91567000Y-106553000D01*
X92816250Y-106553000D01*
X92975000Y-106394250D01*
X92978072Y-105780000D01*
X92965812Y-105655518D01*
X92929502Y-105535820D01*
X92870537Y-105425506D01*
X92791185Y-105328815D01*
X92694494Y-105249463D01*
X92584180Y-105190498D01*
X92464482Y-105154188D01*
X92340000Y-105141928D01*
X91725750Y-105145000D01*
X91567000Y-105303750D01*
X91313000Y-105303750D01*
X91154250Y-105145000D01*
X90974999Y-105144104D01*
X90974999Y-98603254D01*
X91625001Y-97953253D01*
X91625000Y-99006714D01*
G36*
X105634464Y-92869495D02*
G01*
X105713816Y-92966186D01*
X105810507Y-93045538D01*
X105920821Y-93104503D01*
X106040519Y-93140813D01*
X106048962Y-93141644D01*
X105850364Y-93340242D01*
X105693321Y-93575274D01*
X105585148Y-93836427D01*
X105530001Y-94113666D01*
X105530001Y-94155579D01*
X104036972Y-95648609D01*
X98640981Y-95648609D01*
X98572506Y-95580134D01*
X98390340Y-95458414D01*
X98507229Y-95388787D01*
X98723462Y-95193878D01*
X98897515Y-94960529D01*
X99022699Y-94697708D01*
X99067350Y-94550499D01*
X98946029Y-94320609D01*
X97752874Y-94320609D01*
X97752874Y-94340609D01*
X97498874Y-94340609D01*
X97498874Y-94320609D01*
X97478874Y-94320609D01*
X97478874Y-94066609D01*
X97498874Y-94066609D01*
X97498874Y-94046609D01*
X97752874Y-94046609D01*
X97752874Y-94066609D01*
X98946029Y-94066609D01*
X99067350Y-93836719D01*
X99022699Y-93689510D01*
X98897515Y-93426689D01*
X98723462Y-93193340D01*
X98507229Y-92998431D01*
X98274250Y-92859653D01*
X98333902Y-92800001D01*
X105597318Y-92800001D01*
X105634464Y-92869495D01*
G37*
X105634464Y-92869495D02*
X105713816Y-92966186D01*
X105810507Y-93045538D01*
X105920821Y-93104503D01*
X106040519Y-93140813D01*
X106048962Y-93141644D01*
X105850364Y-93340242D01*
X105693321Y-93575274D01*
X105585148Y-93836427D01*
X105530001Y-94113666D01*
X105530001Y-94155579D01*
X104036972Y-95648609D01*
X98640981Y-95648609D01*
X98572506Y-95580134D01*
X98390340Y-95458414D01*
X98507229Y-95388787D01*
X98723462Y-95193878D01*
X98897515Y-94960529D01*
X99022699Y-94697708D01*
X99067350Y-94550499D01*
X98946029Y-94320609D01*
X97752874Y-94320609D01*
X97752874Y-94340609D01*
X97498874Y-94340609D01*
X97498874Y-94320609D01*
X97478874Y-94320609D01*
X97478874Y-94066609D01*
X97498874Y-94066609D01*
X97498874Y-94046609D01*
X97752874Y-94046609D01*
X97752874Y-94066609D01*
X98946029Y-94066609D01*
X99067350Y-93836719D01*
X99022699Y-93689510D01*
X98897515Y-93426689D01*
X98723462Y-93193340D01*
X98507229Y-92998431D01*
X98274250Y-92859653D01*
X98333902Y-92800001D01*
X105597318Y-92800001D01*
X105634464Y-92869495D01*
%TD*%
M02*
