%TF.GenerationSoftware,KiCad,Pcbnew,(5.1.6)-1*%
%TF.CreationDate,2021-08-29T18:12:57+02:00*%
%TF.ProjectId,hamodule,68616d6f-6475-46c6-952e-6b696361645f,rev?*%
%TF.SameCoordinates,Original*%
%TF.FileFunction,Soldermask,Top*%
%TF.FilePolarity,Negative*%
%FSLAX46Y46*%
G04 Gerber Fmt 4.6, Leading zero omitted, Abs format (unit mm)*
G04 Created by KiCad (PCBNEW (5.1.6)-1) date 2021-08-29 18:12:57*
%MOMM*%
%LPD*%
G01*
G04 APERTURE LIST*
%ADD10C,5.600000*%
%ADD11C,1.660000*%
%ADD12R,1.660000X1.660000*%
%ADD13R,1.600000X1.600000*%
%ADD14C,1.600000*%
%ADD15C,2.100000*%
%ADD16R,2.100000X2.100000*%
%ADD17O,1.500000X1.500000*%
%ADD18C,1.500000*%
%ADD19C,1.750000*%
%ADD20C,1.100000*%
%ADD21C,3.835000*%
%ADD22C,2.050000*%
%ADD23R,2.050000X2.050000*%
%ADD24C,2.400000*%
%ADD25R,2.400000X2.400000*%
%ADD26O,1.700000X1.700000*%
%ADD27R,1.700000X1.700000*%
%ADD28O,2.900000X2.900000*%
%ADD29R,2.900000X2.900000*%
G04 APERTURE END LIST*
D10*
%TO.C,H8*%
X151130000Y-36830000D03*
%TD*%
%TO.C,H7*%
X200660000Y-78740000D03*
%TD*%
%TO.C,H6*%
X210820000Y-22860000D03*
%TD*%
%TO.C,H5*%
X62230000Y-83820000D03*
%TD*%
%TO.C,H4*%
X39370000Y-24130000D03*
%TD*%
%TO.C,H3*%
X105410000Y-83820000D03*
%TD*%
%TO.C,H2*%
X25400000Y-24130000D03*
%TD*%
%TO.C,H1*%
X151130000Y-24130000D03*
%TD*%
D11*
%TO.C,U1*%
X113030000Y-29920000D03*
X113030000Y-32460000D03*
X113030000Y-35000000D03*
X113030000Y-37540000D03*
X113030000Y-40080000D03*
X113030000Y-42620000D03*
X113030000Y-45160000D03*
X113030000Y-47700000D03*
X113030000Y-50240000D03*
X113030000Y-52780000D03*
X113030000Y-55320000D03*
X113030000Y-57860000D03*
X113030000Y-60400000D03*
X113030000Y-62940000D03*
X113030000Y-65480000D03*
X113030000Y-68020000D03*
X113030000Y-70560000D03*
X113030000Y-73100000D03*
X113030000Y-75640000D03*
X138430000Y-32460000D03*
X138430000Y-35000000D03*
X138430000Y-37540000D03*
X138430000Y-40080000D03*
X138430000Y-42620000D03*
X138430000Y-45160000D03*
X138430000Y-47700000D03*
X138430000Y-50240000D03*
X138430000Y-52780000D03*
X138430000Y-55320000D03*
X138430000Y-57860000D03*
X138430000Y-60400000D03*
X138430000Y-62940000D03*
X138430000Y-65480000D03*
X138430000Y-68020000D03*
X138430000Y-70560000D03*
X138430000Y-29920000D03*
X138430000Y-73100000D03*
D12*
X138430000Y-75640000D03*
%TD*%
D13*
%TO.C,Q1*%
X58420000Y-72390000D03*
D14*
X53340000Y-72390000D03*
X55880000Y-74930000D03*
%TD*%
D13*
%TO.C,Q2*%
X73660000Y-72390000D03*
D14*
X68580000Y-72390000D03*
X71120000Y-74930000D03*
%TD*%
D13*
%TO.C,Q4*%
X104140000Y-72390000D03*
D14*
X99060000Y-72390000D03*
X101600000Y-74930000D03*
%TD*%
D13*
%TO.C,Q3*%
X88900000Y-72390000D03*
D14*
X83820000Y-72390000D03*
X86360000Y-74930000D03*
%TD*%
D15*
%TO.C,PS4*%
X164660000Y-86470000D03*
X164660000Y-64880000D03*
X164660000Y-76310000D03*
X185420000Y-85180000D03*
D16*
X185420000Y-81280000D03*
%TD*%
D15*
%TO.C,PS2*%
X164660000Y-59800000D03*
X164660000Y-38210000D03*
X164660000Y-49640000D03*
X185420000Y-58510000D03*
D16*
X185420000Y-54610000D03*
%TD*%
D15*
%TO.C,PS1*%
X191330000Y-59800000D03*
X191330000Y-38210000D03*
X191330000Y-49640000D03*
X212090000Y-58510000D03*
D16*
X212090000Y-54610000D03*
%TD*%
D15*
%TO.C,PS3*%
X191330000Y-86470000D03*
X191330000Y-64880000D03*
X191330000Y-76310000D03*
X212090000Y-85180000D03*
D16*
X212090000Y-81280000D03*
%TD*%
D17*
%TO.C,R5*%
X160020000Y-41910000D03*
D18*
X160020000Y-49530000D03*
%TD*%
D17*
%TO.C,R6*%
X160020000Y-53340000D03*
D18*
X160020000Y-60960000D03*
%TD*%
D19*
%TO.C,J2*%
X75880000Y-27590000D03*
X50880000Y-27590000D03*
D20*
X73680000Y-33090000D03*
X73680000Y-20090000D03*
X53080000Y-33090000D03*
X53080000Y-23090000D03*
D21*
X70880000Y-31590000D03*
X65880000Y-21590000D03*
X60880000Y-31590000D03*
X55880000Y-21590000D03*
%TD*%
D22*
%TO.C,PS5*%
X43220000Y-81280000D03*
X33060000Y-81280000D03*
X22900000Y-35560000D03*
D23*
X43220000Y-35560000D03*
%TD*%
D24*
%TO.C,K2*%
X67310000Y-59690000D03*
X67310000Y-44450000D03*
X74930000Y-41910000D03*
X74930000Y-49530000D03*
D25*
X74930000Y-59690000D03*
%TD*%
D26*
%TO.C,U2*%
X144780000Y-64770000D03*
X152400000Y-46990000D03*
X144780000Y-62230000D03*
X152400000Y-49530000D03*
X144780000Y-59690000D03*
X152400000Y-52070000D03*
X144780000Y-57150000D03*
X152400000Y-54610000D03*
X144780000Y-54610000D03*
X152400000Y-57150000D03*
X144780000Y-52070000D03*
X152400000Y-59690000D03*
X144780000Y-49530000D03*
X152400000Y-62230000D03*
X144780000Y-46990000D03*
D27*
X152400000Y-64770000D03*
%TD*%
D21*
%TO.C,J3*%
X179070000Y-21590000D03*
X184070000Y-31590000D03*
X189070000Y-21590000D03*
X194070000Y-31590000D03*
D20*
X176270000Y-23090000D03*
X176270000Y-33090000D03*
X196870000Y-20090000D03*
X196870000Y-33090000D03*
D19*
X174070000Y-27590000D03*
X199070000Y-27590000D03*
%TD*%
%TO.C,J1*%
X107630000Y-27590000D03*
X82630000Y-27590000D03*
D20*
X105430000Y-33090000D03*
X105430000Y-20090000D03*
X84830000Y-33090000D03*
X84830000Y-23090000D03*
D21*
X102630000Y-31590000D03*
X97630000Y-21590000D03*
X92630000Y-31590000D03*
X87630000Y-21590000D03*
%TD*%
D17*
%TO.C,R16*%
X107950000Y-68580000D03*
D18*
X107950000Y-76200000D03*
%TD*%
D17*
%TO.C,R15*%
X92710000Y-68580000D03*
D18*
X92710000Y-76200000D03*
%TD*%
D17*
%TO.C,R14*%
X77470000Y-68580000D03*
D18*
X77470000Y-76200000D03*
%TD*%
D17*
%TO.C,R13*%
X62230000Y-68580000D03*
D18*
X62230000Y-76200000D03*
%TD*%
D17*
%TO.C,R12*%
X152400000Y-71120000D03*
D18*
X144780000Y-71120000D03*
%TD*%
D17*
%TO.C,R11*%
X152400000Y-73660000D03*
D18*
X144780000Y-73660000D03*
%TD*%
D17*
%TO.C,R10*%
X152400000Y-76200000D03*
D18*
X144780000Y-76200000D03*
%TD*%
D17*
%TO.C,R9*%
X152400000Y-78740000D03*
D18*
X144780000Y-78740000D03*
%TD*%
D17*
%TO.C,R8*%
X160020000Y-74930000D03*
D18*
X160020000Y-82550000D03*
%TD*%
D17*
%TO.C,R7*%
X160020000Y-71120000D03*
D18*
X160020000Y-63500000D03*
%TD*%
D17*
%TO.C,R4*%
X105410000Y-78740000D03*
D18*
X97790000Y-78740000D03*
%TD*%
D17*
%TO.C,R3*%
X90170000Y-78740000D03*
D18*
X82550000Y-78740000D03*
%TD*%
D17*
%TO.C,R2*%
X74930000Y-78740000D03*
D18*
X67310000Y-78740000D03*
%TD*%
D17*
%TO.C,R1*%
X59690000Y-78740000D03*
D18*
X52070000Y-78740000D03*
%TD*%
D24*
%TO.C,K4*%
X97790000Y-59690000D03*
X97790000Y-44450000D03*
X105410000Y-41910000D03*
X105410000Y-49530000D03*
D25*
X105410000Y-59690000D03*
%TD*%
D24*
%TO.C,K3*%
X82550000Y-59690000D03*
X82550000Y-44450000D03*
X90170000Y-41910000D03*
X90170000Y-49530000D03*
D25*
X90170000Y-59690000D03*
%TD*%
D24*
%TO.C,K1*%
X53340000Y-59690000D03*
X53340000Y-44450000D03*
X60960000Y-41910000D03*
X60960000Y-49530000D03*
D25*
X60960000Y-59690000D03*
%TD*%
D28*
%TO.C,D4*%
X107950000Y-64770000D03*
D29*
X97790000Y-64770000D03*
%TD*%
D28*
%TO.C,D3*%
X92710000Y-64770000D03*
D29*
X82550000Y-64770000D03*
%TD*%
D28*
%TO.C,D2*%
X77470000Y-64770000D03*
D29*
X67310000Y-64770000D03*
%TD*%
D28*
%TO.C,D1*%
X62230000Y-64770000D03*
D29*
X52070000Y-64770000D03*
%TD*%
M02*
