G04 Layer: TopLayer*
G04 EasyEDA v6.4.21, 2021-08-30T13:38:49+01:00*
G04 675468226515401a9f91b2405e789893,c56e7913202049aab2d2ce8198c124d2,10*
G04 Gerber Generator version 0.2*
G04 Scale: 100 percent, Rotated: No, Reflected: No *
G04 Dimensions in millimeters *
G04 leading zeros omitted , absolute positions ,4 integer and 5 decimal *
%FSLAX45Y45*%
%MOMM*%

%ADD11C,2.0000*%
%ADD12C,1.0000*%
%ADD13C,0.5000*%
%ADD14C,2.5000*%
%ADD15C,4.0000*%
%ADD16R,1.2000X3.5000*%
%ADD17R,1.3500X1.4100*%
%ADD18R,1.3770X1.1325*%
%ADD21R,1.1000X1.0000*%
%ADD25R,1.0000X2.2000*%
%ADD27C,1.6000*%
%ADD28C,2.7940*%
%ADD29C,1.8000*%
%ADD30R,1.8000X1.8000*%

%LPD*%
G36*
X36068Y-1823974D02*
G01*
X32156Y-1823212D01*
X28905Y-1820976D01*
X26670Y-1817725D01*
X25908Y-1813814D01*
X25908Y5313934D01*
X26670Y5317845D01*
X28905Y5321096D01*
X32156Y5323332D01*
X36068Y5324094D01*
X13984732Y5324094D01*
X13988643Y5323332D01*
X13991894Y5321096D01*
X13994130Y5317845D01*
X13994892Y5313934D01*
X13994892Y-1813814D01*
X13994130Y-1817725D01*
X13991894Y-1820976D01*
X13988643Y-1823212D01*
X13984732Y-1823974D01*
G37*

%LPC*%
G36*
X10083952Y-1662633D02*
G01*
X13779195Y-1662633D01*
X13794689Y-1661668D01*
X13809624Y-1658924D01*
X13824153Y-1654403D01*
X13838021Y-1648155D01*
X13851026Y-1640281D01*
X13862964Y-1630933D01*
X13873734Y-1620164D01*
X13883081Y-1608226D01*
X13890955Y-1595221D01*
X13897203Y-1581353D01*
X13901724Y-1566824D01*
X13904468Y-1551889D01*
X13905382Y-1536700D01*
X13904468Y-1521510D01*
X13901724Y-1506575D01*
X13897203Y-1492046D01*
X13890955Y-1478178D01*
X13887094Y-1471777D01*
X13885976Y-1469237D01*
X13885621Y-1466494D01*
X13885621Y-1353870D01*
X13884910Y-1347571D01*
X13882979Y-1342085D01*
X13879880Y-1337208D01*
X13875816Y-1333093D01*
X13869924Y-1329385D01*
X13866977Y-1326591D01*
X13865402Y-1322832D01*
X13865402Y-1318768D01*
X13866977Y-1315008D01*
X13869924Y-1312214D01*
X13875816Y-1308506D01*
X13879880Y-1304391D01*
X13882979Y-1299514D01*
X13884910Y-1294028D01*
X13885621Y-1287729D01*
X13885621Y-1147876D01*
X13884910Y-1141526D01*
X13882979Y-1136091D01*
X13879880Y-1131163D01*
X13875816Y-1127099D01*
X13870889Y-1124000D01*
X13865453Y-1122121D01*
X13859154Y-1121410D01*
X13725245Y-1121410D01*
X13718946Y-1122121D01*
X13713510Y-1124000D01*
X13708583Y-1127099D01*
X13704519Y-1131163D01*
X13701420Y-1136091D01*
X13698372Y-1145184D01*
X13696035Y-1148130D01*
X13692784Y-1150010D01*
X13689025Y-1150620D01*
X13685316Y-1149756D01*
X13682218Y-1147622D01*
X13613231Y-1078636D01*
X13611301Y-1075944D01*
X13610336Y-1072794D01*
X13610488Y-1069492D01*
X13612571Y-1058824D01*
X13613485Y-1045006D01*
X13612571Y-1031189D01*
X13609878Y-1017625D01*
X13605408Y-1004468D01*
X13599312Y-992073D01*
X13591590Y-980541D01*
X13582497Y-970127D01*
X13572083Y-960983D01*
X13560551Y-953312D01*
X13548106Y-947166D01*
X13534999Y-942746D01*
X13521436Y-940003D01*
X13507618Y-939139D01*
X13493800Y-940003D01*
X13480186Y-942746D01*
X13467080Y-947166D01*
X13454684Y-953312D01*
X13443153Y-960983D01*
X13432739Y-970127D01*
X13423595Y-980541D01*
X13417550Y-989584D01*
X13415314Y-992022D01*
X13412368Y-993546D01*
X13409117Y-994105D01*
X12956082Y-994105D01*
X12952831Y-993546D01*
X12949936Y-992022D01*
X12947650Y-989584D01*
X12941604Y-980541D01*
X12932460Y-970127D01*
X12922046Y-960983D01*
X12910566Y-953312D01*
X12898120Y-947166D01*
X12885013Y-942746D01*
X12871450Y-940003D01*
X12857581Y-939139D01*
X12843764Y-940003D01*
X12830200Y-942746D01*
X12817094Y-947166D01*
X12804648Y-953312D01*
X12793167Y-960983D01*
X12782753Y-970127D01*
X12773609Y-980541D01*
X12767564Y-989584D01*
X12765278Y-992022D01*
X12762382Y-993546D01*
X12759131Y-994105D01*
X12667792Y-994105D01*
X12663830Y-993292D01*
X12660477Y-991006D01*
X12658293Y-987602D01*
X12657632Y-983640D01*
X12658547Y-979678D01*
X12660934Y-976426D01*
X12665760Y-973886D01*
X12670688Y-970787D01*
X12674752Y-966724D01*
X12677851Y-961796D01*
X12679730Y-956360D01*
X12680442Y-950010D01*
X12680442Y-837895D01*
X12679730Y-831596D01*
X12677851Y-826211D01*
X12673838Y-820013D01*
X12672618Y-817321D01*
X12672212Y-814476D01*
X12672212Y1036675D01*
X12672974Y1040587D01*
X12675158Y1043889D01*
X12678460Y1046073D01*
X12682372Y1046835D01*
X12730734Y1046835D01*
X12737033Y1047546D01*
X12742519Y1049477D01*
X12747396Y1052576D01*
X12751511Y1056640D01*
X12754559Y1061567D01*
X12756489Y1067003D01*
X12757200Y1073302D01*
X12757200Y1172210D01*
X12756489Y1178509D01*
X12754965Y1182878D01*
X12754356Y1186230D01*
X12754965Y1189634D01*
X12756489Y1194003D01*
X12757200Y1200302D01*
X12757200Y1299210D01*
X12756489Y1305509D01*
X12754965Y1309878D01*
X12754356Y1313230D01*
X12754965Y1316634D01*
X12756489Y1321003D01*
X12757200Y1327302D01*
X12757200Y1426210D01*
X12756489Y1432509D01*
X12754762Y1437386D01*
X12754203Y1440738D01*
X12754762Y1444091D01*
X12756235Y1448257D01*
X12756946Y1454556D01*
X12756946Y1553464D01*
X12756235Y1559763D01*
X12754711Y1564132D01*
X12754102Y1567484D01*
X12754711Y1570888D01*
X12756235Y1575257D01*
X12756946Y1581556D01*
X12756946Y1680464D01*
X12756235Y1686763D01*
X12754711Y1691132D01*
X12754102Y1694484D01*
X12754711Y1697888D01*
X12756235Y1702257D01*
X12756946Y1708556D01*
X12756946Y1807464D01*
X12756235Y1813763D01*
X12754711Y1818132D01*
X12754102Y1821484D01*
X12754711Y1824888D01*
X12756235Y1829257D01*
X12756946Y1835556D01*
X12756946Y1934464D01*
X12756235Y1940763D01*
X12754864Y1944674D01*
X12754305Y1948027D01*
X12754864Y1951380D01*
X12756489Y1956003D01*
X12757200Y1962302D01*
X12757200Y2061210D01*
X12756489Y2067509D01*
X12754965Y2071878D01*
X12754356Y2075230D01*
X12754965Y2078634D01*
X12756489Y2083003D01*
X12757200Y2089302D01*
X12757200Y2188210D01*
X12756489Y2194509D01*
X12755880Y2196185D01*
X12755321Y2199995D01*
X12756235Y2203754D01*
X12758470Y2206853D01*
X12761722Y2208936D01*
X12765481Y2209698D01*
X12915696Y2209698D01*
X12920319Y2209901D01*
X12924739Y2210460D01*
X12929057Y2211425D01*
X12933324Y2212746D01*
X12937388Y2214473D01*
X12941350Y2216505D01*
X12945110Y2218893D01*
X12948615Y2221585D01*
X12952069Y2224735D01*
X12996265Y2268982D01*
X12999669Y2271217D01*
X13003631Y2271979D01*
X13007543Y2271064D01*
X13010845Y2268728D01*
X13014350Y2265019D01*
X13025577Y2255723D01*
X13037870Y2247950D01*
X13051028Y2241753D01*
X13064896Y2237232D01*
X13079171Y2234539D01*
X13093700Y2233625D01*
X13108228Y2234539D01*
X13122503Y2237232D01*
X13136372Y2241753D01*
X13149529Y2247950D01*
X13161822Y2255723D01*
X13173049Y2265019D01*
X13183006Y2275636D01*
X13191540Y2287422D01*
X13198551Y2300173D01*
X13203936Y2313686D01*
X13207542Y2327808D01*
X13209371Y2342235D01*
X13209371Y2356764D01*
X13207542Y2371191D01*
X13203936Y2385314D01*
X13198551Y2398826D01*
X13191540Y2411577D01*
X13183006Y2423363D01*
X13173049Y2433980D01*
X13161822Y2443276D01*
X13149529Y2451049D01*
X13136372Y2457246D01*
X13122503Y2461768D01*
X13108228Y2464460D01*
X13093700Y2465374D01*
X13079171Y2464460D01*
X13064896Y2461768D01*
X13051028Y2457246D01*
X13037870Y2451049D01*
X13025577Y2443276D01*
X13014350Y2433980D01*
X13004393Y2423363D01*
X12995859Y2411577D01*
X12989864Y2400655D01*
X12987528Y2397861D01*
X12979349Y2393594D01*
X12975590Y2391206D01*
X12972084Y2388514D01*
X12968630Y2385364D01*
X12897764Y2314498D01*
X12894513Y2312263D01*
X12890601Y2311501D01*
X12766700Y2311501D01*
X12763042Y2312162D01*
X12759893Y2314092D01*
X12757658Y2316988D01*
X12756489Y2321509D01*
X12754965Y2325878D01*
X12754356Y2329230D01*
X12754965Y2332634D01*
X12756489Y2337003D01*
X12757200Y2343302D01*
X12757200Y2351938D01*
X12757962Y2355799D01*
X12760147Y2359101D01*
X12763449Y2361336D01*
X12767360Y2362098D01*
X12864896Y2362098D01*
X12869519Y2362301D01*
X12873939Y2362860D01*
X12878257Y2363825D01*
X12882524Y2365146D01*
X12886588Y2366873D01*
X12890550Y2368905D01*
X12894310Y2371293D01*
X12897815Y2373985D01*
X12901269Y2377135D01*
X13024865Y2500782D01*
X13027660Y2502763D01*
X13030962Y2503678D01*
X13034365Y2503474D01*
X13051028Y2495753D01*
X13064896Y2491232D01*
X13079171Y2488539D01*
X13093700Y2487625D01*
X13108228Y2488539D01*
X13122503Y2491232D01*
X13136372Y2495753D01*
X13149529Y2501950D01*
X13161822Y2509723D01*
X13173049Y2519019D01*
X13183006Y2529636D01*
X13191540Y2541422D01*
X13198551Y2554173D01*
X13203936Y2567686D01*
X13207542Y2581808D01*
X13209371Y2596235D01*
X13209371Y2610764D01*
X13207542Y2625191D01*
X13203936Y2639314D01*
X13198551Y2652826D01*
X13191540Y2665577D01*
X13183006Y2677363D01*
X13173049Y2687980D01*
X13161822Y2697276D01*
X13149529Y2705049D01*
X13136372Y2711246D01*
X13122503Y2715768D01*
X13108228Y2718460D01*
X13093700Y2719374D01*
X13079171Y2718460D01*
X13064896Y2715768D01*
X13051028Y2711246D01*
X13037870Y2705049D01*
X13025577Y2697276D01*
X13014350Y2687980D01*
X13004393Y2677363D01*
X12995859Y2665577D01*
X12988848Y2652826D01*
X12983464Y2639314D01*
X12979857Y2625191D01*
X12978028Y2610764D01*
X12978028Y2602128D01*
X12977266Y2598267D01*
X12975082Y2594965D01*
X12846964Y2466898D01*
X12843713Y2464663D01*
X12839801Y2463901D01*
X12767360Y2463901D01*
X12763449Y2464663D01*
X12760147Y2466898D01*
X12757962Y2470200D01*
X12757200Y2474061D01*
X12757200Y2569210D01*
X12756489Y2575509D01*
X12755118Y2579420D01*
X12754559Y2582773D01*
X12755118Y2586126D01*
X12756743Y2590749D01*
X12757454Y2597048D01*
X12757454Y2695956D01*
X12756743Y2702255D01*
X12755219Y2706624D01*
X12754660Y2709976D01*
X12755219Y2713329D01*
X12756946Y2718358D01*
X12757658Y2724658D01*
X12757658Y2823413D01*
X12756642Y2831388D01*
X12756743Y2834487D01*
X12757708Y2837383D01*
X12759537Y2839872D01*
X12850164Y2930448D01*
X12853314Y2933903D01*
X12856006Y2937408D01*
X12858394Y2941167D01*
X12860426Y2945130D01*
X12862153Y2949194D01*
X12863474Y2953461D01*
X12864439Y2957779D01*
X12864998Y2962198D01*
X12865201Y2966821D01*
X12865201Y3304438D01*
X12865963Y3308299D01*
X12868198Y3311601D01*
X12871500Y3313836D01*
X12875361Y3314598D01*
X12983718Y3314598D01*
X12987223Y3313937D01*
X12990322Y3312109D01*
X12992608Y3309315D01*
X12995859Y3303422D01*
X13004393Y3291636D01*
X13014350Y3281019D01*
X13025577Y3271723D01*
X13037870Y3263950D01*
X13051028Y3257753D01*
X13064896Y3253232D01*
X13079171Y3250539D01*
X13093700Y3249625D01*
X13108228Y3250539D01*
X13122503Y3253232D01*
X13136372Y3257753D01*
X13149529Y3263950D01*
X13161822Y3271723D01*
X13173049Y3281019D01*
X13183006Y3291636D01*
X13191540Y3303422D01*
X13198551Y3316173D01*
X13203936Y3329686D01*
X13207542Y3343808D01*
X13209371Y3358235D01*
X13209371Y3372764D01*
X13207542Y3387191D01*
X13203936Y3401314D01*
X13198551Y3414826D01*
X13191540Y3427577D01*
X13183006Y3439363D01*
X13173049Y3449980D01*
X13161822Y3459276D01*
X13149529Y3467049D01*
X13136372Y3473246D01*
X13122503Y3477768D01*
X13108228Y3480460D01*
X13093700Y3481374D01*
X13079171Y3480460D01*
X13064896Y3477768D01*
X13051028Y3473246D01*
X13037870Y3467049D01*
X13025577Y3459276D01*
X13014350Y3449980D01*
X13004393Y3439363D01*
X12995859Y3427577D01*
X12992608Y3421684D01*
X12990322Y3418890D01*
X12987223Y3417062D01*
X12983718Y3416401D01*
X12827203Y3416401D01*
X12822580Y3416198D01*
X12818160Y3415639D01*
X12813842Y3414674D01*
X12809575Y3413353D01*
X12805511Y3411626D01*
X12801549Y3409594D01*
X12797790Y3407206D01*
X12794284Y3404514D01*
X12790830Y3401364D01*
X12778435Y3388969D01*
X12775285Y3385515D01*
X12772593Y3382010D01*
X12770205Y3378250D01*
X12768173Y3374288D01*
X12766446Y3370224D01*
X12765125Y3365957D01*
X12764160Y3361639D01*
X12763601Y3357219D01*
X12763398Y3352596D01*
X12763398Y2991916D01*
X12762636Y2988005D01*
X12760401Y2984754D01*
X12628676Y2852978D01*
X12625374Y2850743D01*
X12621463Y2849981D01*
X12512344Y2849981D01*
X12505994Y2849270D01*
X12500559Y2847390D01*
X12495631Y2844292D01*
X12491567Y2840177D01*
X12488468Y2835300D01*
X12486589Y2829814D01*
X12485878Y2823514D01*
X12485878Y2724658D01*
X12486589Y2718358D01*
X12488113Y2713990D01*
X12488672Y2710637D01*
X12488113Y2707284D01*
X12486335Y2702255D01*
X12485624Y2695956D01*
X12485624Y2597048D01*
X12486335Y2590749D01*
X12487706Y2586837D01*
X12488265Y2583484D01*
X12487706Y2580132D01*
X12486081Y2575509D01*
X12485370Y2569210D01*
X12485370Y2470302D01*
X12486081Y2464003D01*
X12487605Y2459634D01*
X12488214Y2456230D01*
X12487605Y2452878D01*
X12486081Y2448509D01*
X12485370Y2442210D01*
X12485370Y2343302D01*
X12486081Y2337003D01*
X12487605Y2332634D01*
X12488214Y2329230D01*
X12487605Y2325878D01*
X12486081Y2321509D01*
X12485370Y2315210D01*
X12485370Y2216302D01*
X12486081Y2210003D01*
X12487605Y2205634D01*
X12488214Y2202230D01*
X12487605Y2198878D01*
X12486081Y2194509D01*
X12485370Y2188210D01*
X12485370Y2110638D01*
X12484557Y2106625D01*
X12482169Y2103221D01*
X12478664Y2101088D01*
X12474549Y2100529D01*
X12470587Y2101596D01*
X12467386Y2104186D01*
X12462205Y2110333D01*
X12459716Y2113788D01*
X12458801Y2117902D01*
X12458801Y4406696D01*
X12458598Y4411319D01*
X12458039Y4415739D01*
X12457074Y4420057D01*
X12455753Y4424324D01*
X12454026Y4428388D01*
X12451994Y4432350D01*
X12449606Y4436110D01*
X12446914Y4439615D01*
X12443764Y4443069D01*
X12380569Y4506264D01*
X12377115Y4509414D01*
X12373610Y4512106D01*
X12369850Y4514494D01*
X12365888Y4516526D01*
X12361824Y4518253D01*
X12357557Y4519574D01*
X12353239Y4520539D01*
X12348819Y4521098D01*
X12344196Y4521301D01*
X5624982Y4521301D01*
X5621528Y4521911D01*
X5613450Y4527194D01*
X5609488Y4529226D01*
X5605424Y4530953D01*
X5601157Y4532274D01*
X5596839Y4533239D01*
X5592419Y4533798D01*
X5587796Y4534001D01*
X4835144Y4534001D01*
X4830470Y4533798D01*
X4826050Y4533239D01*
X4821732Y4532274D01*
X4817516Y4530953D01*
X4813401Y4529226D01*
X4809439Y4527194D01*
X4805730Y4524806D01*
X4802174Y4522114D01*
X4798771Y4518964D01*
X4489958Y4210151D01*
X4486706Y4207967D01*
X4482795Y4207205D01*
X4428693Y4207205D01*
X4422343Y4206494D01*
X4416907Y4204563D01*
X4411980Y4201515D01*
X4407916Y4197400D01*
X4404817Y4192524D01*
X4402886Y4187037D01*
X4402175Y4180738D01*
X4402175Y4081881D01*
X4402886Y4075531D01*
X4404817Y4070096D01*
X4407916Y4065168D01*
X4411980Y4061104D01*
X4413859Y4059885D01*
X4416806Y4057091D01*
X4418431Y4053332D01*
X4418431Y4049268D01*
X4416806Y4045508D01*
X4413859Y4042714D01*
X4411980Y4041495D01*
X4407916Y4037431D01*
X4404817Y4032504D01*
X4402886Y4027068D01*
X4402175Y4020718D01*
X4402175Y3921861D01*
X4402886Y3915562D01*
X4404817Y3910076D01*
X4407916Y3905199D01*
X4411980Y3901084D01*
X4416907Y3898036D01*
X4418787Y3897376D01*
X4422343Y3895191D01*
X4424730Y3891838D01*
X4425594Y3887774D01*
X4425594Y3793490D01*
X4424832Y3789578D01*
X4422597Y3786327D01*
X4421276Y3785006D01*
X4418228Y3780078D01*
X4416298Y3774643D01*
X4415586Y3768293D01*
X4415586Y3644442D01*
X4416298Y3638092D01*
X4418228Y3632657D01*
X4421276Y3627729D01*
X4425391Y3623665D01*
X4430268Y3620566D01*
X4435754Y3618687D01*
X4442053Y3617976D01*
X4510938Y3617976D01*
X4517237Y3618687D01*
X4522724Y3620566D01*
X4527600Y3623665D01*
X4531715Y3627729D01*
X4534763Y3632657D01*
X4536694Y3638092D01*
X4537405Y3644442D01*
X4537405Y3768293D01*
X4536694Y3774643D01*
X4534763Y3780078D01*
X4531715Y3785006D01*
X4530394Y3786327D01*
X4528159Y3789578D01*
X4527397Y3793490D01*
X4527397Y3885234D01*
X4528058Y3888892D01*
X4529988Y3892042D01*
X4532934Y3894277D01*
X4536490Y3895344D01*
X4543907Y3896106D01*
X4549292Y3898036D01*
X4554220Y3901084D01*
X4558284Y3905199D01*
X4561382Y3910076D01*
X4563313Y3915562D01*
X4564024Y3921861D01*
X4564024Y4020718D01*
X4563313Y4027068D01*
X4561382Y4032504D01*
X4558284Y4037431D01*
X4554220Y4041495D01*
X4552340Y4042714D01*
X4549394Y4045508D01*
X4547768Y4049268D01*
X4547768Y4053332D01*
X4549394Y4057091D01*
X4552340Y4059885D01*
X4554220Y4061104D01*
X4558284Y4065168D01*
X4561382Y4070096D01*
X4563313Y4075531D01*
X4564024Y4081881D01*
X4564024Y4135983D01*
X4564786Y4139895D01*
X4566970Y4143197D01*
X4853025Y4429201D01*
X4856327Y4431436D01*
X4860188Y4432198D01*
X5563717Y4432198D01*
X5567172Y4431588D01*
X5575249Y4426305D01*
X5579211Y4424273D01*
X5583275Y4422546D01*
X5587542Y4421225D01*
X5591860Y4420260D01*
X5596280Y4419701D01*
X5600903Y4419498D01*
X6139281Y4419498D01*
X6142990Y4418787D01*
X6146190Y4416755D01*
X6148425Y4413707D01*
X6149441Y4410049D01*
X6148984Y4406290D01*
X6147206Y4402988D01*
X6143142Y4397908D01*
X6140805Y4394250D01*
X6138773Y4390288D01*
X6137046Y4386224D01*
X6135725Y4381957D01*
X6134760Y4377639D01*
X6134201Y4373219D01*
X6133998Y4368596D01*
X6133998Y4165854D01*
X6133338Y4162247D01*
X6131407Y4159097D01*
X6128512Y4156862D01*
X6124143Y4155694D01*
X6118707Y4153763D01*
X6113780Y4150715D01*
X6109716Y4146600D01*
X6106617Y4141724D01*
X6104686Y4136237D01*
X6103975Y4129938D01*
X6103975Y4031081D01*
X6104686Y4024731D01*
X6106617Y4019296D01*
X6109716Y4014368D01*
X6113780Y4010304D01*
X6115659Y4009085D01*
X6118606Y4006291D01*
X6120231Y4002532D01*
X6120231Y3998468D01*
X6118606Y3994708D01*
X6115659Y3991914D01*
X6113780Y3990695D01*
X6109716Y3986631D01*
X6106617Y3981704D01*
X6104686Y3976268D01*
X6103975Y3969918D01*
X6103975Y3871061D01*
X6104686Y3864762D01*
X6106617Y3859276D01*
X6109716Y3854399D01*
X6113780Y3850284D01*
X6118707Y3847236D01*
X6124143Y3845306D01*
X6130493Y3844594D01*
X6142634Y3844594D01*
X6146495Y3843832D01*
X6149797Y3841597D01*
X6152032Y3838346D01*
X6152794Y3834434D01*
X6152794Y3793490D01*
X6152032Y3789578D01*
X6149797Y3786327D01*
X6148476Y3785006D01*
X6145428Y3780078D01*
X6143498Y3774643D01*
X6142786Y3768293D01*
X6142786Y3644442D01*
X6143498Y3638092D01*
X6145428Y3632657D01*
X6148476Y3627729D01*
X6152591Y3623665D01*
X6157468Y3620566D01*
X6162954Y3618687D01*
X6169253Y3617976D01*
X6238138Y3617976D01*
X6244437Y3618687D01*
X6249924Y3620566D01*
X6254800Y3623665D01*
X6258915Y3627729D01*
X6261963Y3632657D01*
X6263894Y3638092D01*
X6264605Y3644442D01*
X6264605Y3768293D01*
X6263894Y3774643D01*
X6261963Y3780078D01*
X6258915Y3785006D01*
X6257594Y3786327D01*
X6255359Y3789578D01*
X6254597Y3793490D01*
X6254597Y3844696D01*
X6255359Y3848557D01*
X6257594Y3851859D01*
X6260084Y3854399D01*
X6263182Y3859276D01*
X6265113Y3864762D01*
X6265824Y3871061D01*
X6265824Y3969918D01*
X6265113Y3976268D01*
X6263182Y3981704D01*
X6260084Y3986631D01*
X6256020Y3990695D01*
X6254140Y3991914D01*
X6251194Y3994708D01*
X6249568Y3998468D01*
X6249568Y4002532D01*
X6251194Y4006291D01*
X6254140Y4009085D01*
X6256020Y4010304D01*
X6260084Y4014368D01*
X6263182Y4019296D01*
X6265113Y4024731D01*
X6265824Y4031081D01*
X6265824Y4129938D01*
X6265113Y4136237D01*
X6263182Y4141724D01*
X6260084Y4146600D01*
X6256020Y4150715D01*
X6251092Y4153763D01*
X6241288Y4156862D01*
X6238392Y4159097D01*
X6236462Y4162247D01*
X6235801Y4165854D01*
X6235801Y4269638D01*
X6236563Y4273499D01*
X6238798Y4276801D01*
X6242100Y4279036D01*
X6245961Y4279798D01*
X12014301Y4279798D01*
X12018213Y4279036D01*
X12021464Y4276801D01*
X12227001Y4071264D01*
X12229236Y4068013D01*
X12229998Y4064101D01*
X12229998Y3766921D01*
X12229236Y3763060D01*
X12227001Y3759758D01*
X12223699Y3757523D01*
X12219838Y3756761D01*
X12215926Y3757523D01*
X12212624Y3759758D01*
X12193270Y3779164D01*
X12191695Y3781196D01*
X12190679Y3783533D01*
X12188952Y3789426D01*
X12187326Y3793388D01*
X12185294Y3797350D01*
X12182906Y3801110D01*
X12180214Y3804615D01*
X12177064Y3808069D01*
X11770969Y4214164D01*
X11767515Y4217314D01*
X11764010Y4220006D01*
X11760250Y4222394D01*
X11756288Y4224426D01*
X11752224Y4226153D01*
X11747957Y4227474D01*
X11743639Y4228439D01*
X11739219Y4228998D01*
X11734596Y4229201D01*
X8048244Y4229201D01*
X8043570Y4228998D01*
X8039150Y4228439D01*
X8034832Y4227474D01*
X8030616Y4226153D01*
X8026501Y4224426D01*
X8022539Y4222394D01*
X8018830Y4220006D01*
X8015274Y4217314D01*
X8011871Y4214164D01*
X7918958Y4121251D01*
X7915706Y4119067D01*
X7911795Y4118305D01*
X7857693Y4118305D01*
X7851343Y4117594D01*
X7845907Y4115663D01*
X7840980Y4112615D01*
X7836916Y4108500D01*
X7833817Y4103624D01*
X7831886Y4098137D01*
X7831175Y4091838D01*
X7831175Y3992981D01*
X7831886Y3986631D01*
X7833817Y3981196D01*
X7836916Y3976268D01*
X7840980Y3972204D01*
X7842859Y3970985D01*
X7845806Y3968191D01*
X7847431Y3964432D01*
X7847431Y3960368D01*
X7845806Y3956608D01*
X7842859Y3953814D01*
X7840980Y3952595D01*
X7836916Y3948531D01*
X7833817Y3943604D01*
X7831886Y3938168D01*
X7831175Y3931818D01*
X7831175Y3832961D01*
X7831886Y3826662D01*
X7833817Y3821176D01*
X7836916Y3816299D01*
X7840980Y3812184D01*
X7845907Y3809136D01*
X7847787Y3808476D01*
X7851343Y3806291D01*
X7853730Y3802938D01*
X7854594Y3798874D01*
X7854594Y3704590D01*
X7853832Y3700678D01*
X7851597Y3697427D01*
X7850276Y3696106D01*
X7847228Y3691178D01*
X7845298Y3685743D01*
X7844586Y3679393D01*
X7844586Y3555542D01*
X7845298Y3549192D01*
X7847228Y3543757D01*
X7850276Y3538829D01*
X7854391Y3534765D01*
X7859268Y3531666D01*
X7864754Y3529787D01*
X7871053Y3529076D01*
X7939938Y3529076D01*
X7946237Y3529787D01*
X7951724Y3531666D01*
X7956600Y3534765D01*
X7960715Y3538829D01*
X7963763Y3543757D01*
X7965694Y3549192D01*
X7966405Y3555542D01*
X7966405Y3679393D01*
X7965694Y3685743D01*
X7963763Y3691178D01*
X7960715Y3696106D01*
X7959394Y3697427D01*
X7957159Y3700678D01*
X7956397Y3704590D01*
X7956397Y3796334D01*
X7957058Y3799992D01*
X7958988Y3803142D01*
X7961934Y3805377D01*
X7965490Y3806444D01*
X7972907Y3807206D01*
X7978292Y3809136D01*
X7983220Y3812184D01*
X7987284Y3816299D01*
X7990382Y3821176D01*
X7992313Y3826662D01*
X7993024Y3832961D01*
X7993024Y3931818D01*
X7992313Y3938168D01*
X7990382Y3943604D01*
X7987284Y3948531D01*
X7983220Y3952595D01*
X7981340Y3953814D01*
X7978394Y3956608D01*
X7976768Y3960368D01*
X7976768Y3964432D01*
X7978394Y3968191D01*
X7981340Y3970985D01*
X7983220Y3972204D01*
X7987284Y3976268D01*
X7990382Y3981196D01*
X7992313Y3986631D01*
X7993024Y3992981D01*
X7993024Y4047083D01*
X7993786Y4050995D01*
X7995970Y4054297D01*
X8066125Y4124401D01*
X8069427Y4126636D01*
X8073288Y4127398D01*
X11709501Y4127398D01*
X11713413Y4126636D01*
X11716664Y4124401D01*
X11756085Y4085031D01*
X11758320Y4081678D01*
X11759031Y4077715D01*
X11758168Y4073753D01*
X11755882Y4070451D01*
X11752427Y4068318D01*
X11748465Y4067708D01*
X11743486Y4067911D01*
X9753803Y4067911D01*
X9749739Y4068775D01*
X9746335Y4071162D01*
X9744202Y4074718D01*
X9742982Y4078224D01*
X9739884Y4083100D01*
X9735820Y4087215D01*
X9730892Y4090263D01*
X9725456Y4092194D01*
X9719106Y4092905D01*
X9610293Y4092905D01*
X9603943Y4092194D01*
X9598507Y4090263D01*
X9593580Y4087215D01*
X9589516Y4083100D01*
X9586417Y4078224D01*
X9584486Y4072737D01*
X9583775Y4066438D01*
X9583775Y3967581D01*
X9584486Y3961231D01*
X9586417Y3955796D01*
X9589516Y3950868D01*
X9593580Y3946804D01*
X9595459Y3945585D01*
X9598406Y3942791D01*
X9600031Y3939032D01*
X9600031Y3934968D01*
X9598406Y3931208D01*
X9595459Y3928414D01*
X9593580Y3927195D01*
X9589516Y3923131D01*
X9586417Y3918204D01*
X9584486Y3912768D01*
X9583775Y3906418D01*
X9583775Y3807561D01*
X9584486Y3801262D01*
X9586417Y3795776D01*
X9589516Y3790899D01*
X9593580Y3786784D01*
X9598507Y3783736D01*
X9603943Y3781806D01*
X9610293Y3781094D01*
X9664395Y3781094D01*
X9668306Y3780332D01*
X9671608Y3778097D01*
X9680397Y3769309D01*
X9682632Y3766007D01*
X9683394Y3762095D01*
X9683394Y3704590D01*
X9682632Y3700729D01*
X9680397Y3697427D01*
X9679076Y3696106D01*
X9676028Y3691178D01*
X9674098Y3685743D01*
X9673386Y3679393D01*
X9673386Y3555542D01*
X9674098Y3549192D01*
X9676028Y3543757D01*
X9679076Y3538829D01*
X9683191Y3534765D01*
X9688068Y3531666D01*
X9693554Y3529787D01*
X9699853Y3529076D01*
X9768738Y3529076D01*
X9775037Y3529787D01*
X9780524Y3531666D01*
X9785400Y3534765D01*
X9789515Y3538829D01*
X9792563Y3543757D01*
X9794494Y3549192D01*
X9795205Y3555542D01*
X9795205Y3679393D01*
X9794494Y3685743D01*
X9792563Y3691178D01*
X9789515Y3696106D01*
X9788194Y3697376D01*
X9785959Y3700678D01*
X9785197Y3704590D01*
X9785197Y3787190D01*
X9784994Y3791864D01*
X9784435Y3796233D01*
X9783470Y3800601D01*
X9782149Y3804818D01*
X9780422Y3808933D01*
X9778390Y3812844D01*
X9776002Y3816604D01*
X9773310Y3820109D01*
X9770160Y3823563D01*
X9748570Y3845102D01*
X9746386Y3848404D01*
X9745624Y3852316D01*
X9745624Y3906418D01*
X9744913Y3912768D01*
X9742982Y3918204D01*
X9739884Y3923131D01*
X9735820Y3927195D01*
X9733940Y3928414D01*
X9730994Y3931208D01*
X9729368Y3934968D01*
X9729368Y3939032D01*
X9730994Y3942791D01*
X9733940Y3945585D01*
X9735820Y3946804D01*
X9739884Y3950868D01*
X9742982Y3955796D01*
X9744202Y3959301D01*
X9746335Y3962857D01*
X9749739Y3965244D01*
X9753803Y3966108D01*
X11718391Y3966108D01*
X11722303Y3965346D01*
X11725554Y3963111D01*
X12011101Y3677564D01*
X12013336Y3674313D01*
X12014098Y3670401D01*
X12014098Y1752803D01*
X12014301Y1748180D01*
X12014860Y1743760D01*
X12015825Y1739442D01*
X12017146Y1735175D01*
X12018873Y1731111D01*
X12020905Y1727149D01*
X12023293Y1723389D01*
X12025985Y1719884D01*
X12029033Y1716633D01*
X12032284Y1713585D01*
X12035790Y1710893D01*
X12039549Y1708505D01*
X12043511Y1706473D01*
X12047575Y1704746D01*
X12051842Y1703425D01*
X12056160Y1702460D01*
X12060580Y1701901D01*
X12065000Y1701698D01*
X12069419Y1701901D01*
X12073839Y1702460D01*
X12078157Y1703425D01*
X12082373Y1704746D01*
X12085980Y1706270D01*
X12089942Y1707083D01*
X12476937Y1707083D01*
X12481001Y1706270D01*
X12484404Y1703832D01*
X12486538Y1700275D01*
X12487351Y1697888D01*
X12487960Y1694484D01*
X12487351Y1691132D01*
X12485827Y1686763D01*
X12485116Y1680464D01*
X12485116Y1581556D01*
X12485827Y1575257D01*
X12487351Y1570888D01*
X12487960Y1567484D01*
X12487351Y1564132D01*
X12485827Y1559763D01*
X12485116Y1553464D01*
X12485116Y1454556D01*
X12485827Y1448257D01*
X12487554Y1443380D01*
X12488113Y1440027D01*
X12487554Y1436674D01*
X12486081Y1432509D01*
X12485370Y1426210D01*
X12485370Y1327302D01*
X12486081Y1321003D01*
X12487605Y1316634D01*
X12488214Y1313230D01*
X12487605Y1309878D01*
X12486081Y1305509D01*
X12485370Y1299210D01*
X12485370Y1200302D01*
X12486081Y1194003D01*
X12487605Y1189634D01*
X12488214Y1186230D01*
X12487605Y1182878D01*
X12486081Y1178509D01*
X12485370Y1172210D01*
X12485370Y1073302D01*
X12486081Y1067003D01*
X12488011Y1061567D01*
X12491059Y1056640D01*
X12495174Y1052576D01*
X12500051Y1049477D01*
X12505537Y1047546D01*
X12511836Y1046835D01*
X12560198Y1046835D01*
X12564110Y1046073D01*
X12567412Y1043889D01*
X12569596Y1040587D01*
X12570358Y1036675D01*
X12570358Y-801268D01*
X12569596Y-805180D01*
X12567412Y-808482D01*
X12564110Y-810666D01*
X12560198Y-811428D01*
X12517424Y-811428D01*
X12511074Y-812139D01*
X12505639Y-814069D01*
X12500711Y-817118D01*
X12496647Y-821232D01*
X12493548Y-826109D01*
X12491669Y-831596D01*
X12490958Y-837895D01*
X12490958Y-869442D01*
X12490145Y-873353D01*
X12487960Y-876655D01*
X12443815Y-920800D01*
X12440208Y-923137D01*
X12435941Y-923747D01*
X12431826Y-922578D01*
X12428575Y-919835D01*
X12426746Y-915924D01*
X12372492Y-915924D01*
X12372492Y-963828D01*
X12376251Y-963828D01*
X12380163Y-964590D01*
X12383465Y-966774D01*
X12385649Y-970076D01*
X12386411Y-973988D01*
X12385649Y-977849D01*
X12383465Y-981151D01*
X12375591Y-989025D01*
X12372289Y-991209D01*
X12368428Y-991971D01*
X12263424Y-991971D01*
X12257074Y-992682D01*
X12251639Y-994613D01*
X12246711Y-997712D01*
X12242647Y-1001776D01*
X12239548Y-1006703D01*
X12237669Y-1012139D01*
X12236958Y-1018489D01*
X12236958Y-1130604D01*
X12237669Y-1136904D01*
X12239548Y-1142390D01*
X12242647Y-1147267D01*
X12246711Y-1151382D01*
X12251639Y-1154430D01*
X12257074Y-1156360D01*
X12263424Y-1157071D01*
X12399975Y-1157071D01*
X12406325Y-1156360D01*
X12411760Y-1154430D01*
X12416688Y-1151382D01*
X12420752Y-1147267D01*
X12423851Y-1142390D01*
X12425730Y-1136904D01*
X12426442Y-1130604D01*
X12426442Y-1086358D01*
X12427254Y-1082446D01*
X12429439Y-1079144D01*
X12473584Y-1034999D01*
X12476886Y-1032814D01*
X12480798Y-1032002D01*
X12484658Y-1032814D01*
X12487960Y-1034999D01*
X12490145Y-1038301D01*
X12490958Y-1042162D01*
X12490958Y-1143304D01*
X12491669Y-1149604D01*
X12493548Y-1155090D01*
X12496647Y-1159967D01*
X12500711Y-1164082D01*
X12505639Y-1167130D01*
X12511074Y-1169060D01*
X12517424Y-1169771D01*
X12653975Y-1169771D01*
X12660325Y-1169060D01*
X12665760Y-1167130D01*
X12670688Y-1164082D01*
X12674752Y-1159967D01*
X12677851Y-1155090D01*
X12679730Y-1149604D01*
X12680442Y-1143304D01*
X12680442Y-1106068D01*
X12681254Y-1102207D01*
X12683439Y-1098905D01*
X12686741Y-1096670D01*
X12690602Y-1095908D01*
X12759131Y-1095908D01*
X12762382Y-1096467D01*
X12765278Y-1098042D01*
X12767564Y-1100429D01*
X12773609Y-1109472D01*
X12782753Y-1119886D01*
X12793167Y-1129030D01*
X12804648Y-1136700D01*
X12817094Y-1142847D01*
X12830200Y-1147267D01*
X12843764Y-1150010D01*
X12857581Y-1150874D01*
X12871450Y-1150010D01*
X12885013Y-1147267D01*
X12898120Y-1142847D01*
X12910566Y-1136700D01*
X12922046Y-1129030D01*
X12932460Y-1119886D01*
X12941604Y-1109472D01*
X12947650Y-1100429D01*
X12949885Y-1098042D01*
X12952831Y-1096467D01*
X12956082Y-1095908D01*
X13409117Y-1095908D01*
X13412368Y-1096467D01*
X13415314Y-1098042D01*
X13417550Y-1100429D01*
X13423595Y-1109472D01*
X13432739Y-1119886D01*
X13443153Y-1129030D01*
X13454684Y-1136700D01*
X13467080Y-1142847D01*
X13480186Y-1147267D01*
X13493800Y-1150010D01*
X13507618Y-1150874D01*
X13521436Y-1150010D01*
X13532104Y-1147876D01*
X13535406Y-1147775D01*
X13538555Y-1148740D01*
X13541248Y-1150670D01*
X13644270Y-1253642D01*
X13647674Y-1256792D01*
X13651230Y-1259484D01*
X13654938Y-1261872D01*
X13658900Y-1263954D01*
X13663015Y-1265631D01*
X13667232Y-1266952D01*
X13671550Y-1267917D01*
X13675969Y-1268526D01*
X13680643Y-1268730D01*
X13688618Y-1268730D01*
X13692530Y-1269492D01*
X13695832Y-1271676D01*
X13698016Y-1274978D01*
X13698778Y-1278890D01*
X13698778Y-1287729D01*
X13699490Y-1294028D01*
X13701420Y-1299514D01*
X13704519Y-1304391D01*
X13708583Y-1308506D01*
X13714476Y-1312214D01*
X13717422Y-1315008D01*
X13718997Y-1318768D01*
X13718997Y-1322832D01*
X13717422Y-1326591D01*
X13714476Y-1329385D01*
X13708583Y-1333093D01*
X13704519Y-1337208D01*
X13701420Y-1342085D01*
X13699490Y-1347571D01*
X13698778Y-1353870D01*
X13698778Y-1362710D01*
X13698016Y-1366621D01*
X13695832Y-1369923D01*
X13692530Y-1372108D01*
X13688618Y-1372870D01*
X13579043Y-1372870D01*
X13574369Y-1373073D01*
X13569950Y-1373682D01*
X13565632Y-1374648D01*
X13561415Y-1375968D01*
X13557300Y-1377645D01*
X13553338Y-1379728D01*
X13549630Y-1382115D01*
X13546124Y-1384757D01*
X13540994Y-1389583D01*
X13538352Y-1391361D01*
X13535304Y-1392275D01*
X13532053Y-1392123D01*
X13521436Y-1390040D01*
X13507618Y-1389126D01*
X13493800Y-1390040D01*
X13480186Y-1392732D01*
X13467080Y-1397203D01*
X13454684Y-1403299D01*
X13445998Y-1409090D01*
X13443305Y-1410360D01*
X13440359Y-1410817D01*
X12924840Y-1410817D01*
X12921894Y-1410360D01*
X12919202Y-1409090D01*
X12910566Y-1403299D01*
X12898120Y-1397203D01*
X12885013Y-1392732D01*
X12871450Y-1390040D01*
X12857581Y-1389126D01*
X12843764Y-1390040D01*
X12830200Y-1392732D01*
X12817094Y-1397203D01*
X12804648Y-1403299D01*
X12796012Y-1409090D01*
X12793319Y-1410360D01*
X12790373Y-1410817D01*
X11952681Y-1410817D01*
X11948769Y-1410004D01*
X11945467Y-1407820D01*
X11943283Y-1404518D01*
X11942521Y-1400657D01*
X11942521Y-1353870D01*
X11941810Y-1347571D01*
X11939879Y-1342085D01*
X11936780Y-1337208D01*
X11932716Y-1333093D01*
X11926824Y-1329385D01*
X11923877Y-1326591D01*
X11922302Y-1322832D01*
X11922302Y-1318768D01*
X11923877Y-1315008D01*
X11926824Y-1312214D01*
X11932716Y-1308506D01*
X11936780Y-1304391D01*
X11939879Y-1299514D01*
X11941810Y-1294028D01*
X11942521Y-1287729D01*
X11942521Y-1147876D01*
X11941810Y-1141526D01*
X11939879Y-1136091D01*
X11936780Y-1131163D01*
X11932716Y-1127099D01*
X11927789Y-1124000D01*
X11922353Y-1122121D01*
X11916054Y-1121410D01*
X11828881Y-1121410D01*
X11825020Y-1120597D01*
X11821718Y-1118412D01*
X11699748Y-996442D01*
X11696344Y-993292D01*
X11692788Y-990600D01*
X11689029Y-988212D01*
X11685117Y-986180D01*
X11681002Y-984453D01*
X11676786Y-983132D01*
X11672417Y-982167D01*
X11668048Y-981608D01*
X11663375Y-981405D01*
X11650319Y-981405D01*
X11647017Y-980846D01*
X11644122Y-979322D01*
X11641836Y-976884D01*
X11635790Y-967841D01*
X11626646Y-957427D01*
X11616232Y-948283D01*
X11604752Y-940612D01*
X11592306Y-934466D01*
X11579199Y-929995D01*
X11565636Y-927303D01*
X11551818Y-926388D01*
X11537950Y-927303D01*
X11524386Y-929995D01*
X11511280Y-934466D01*
X11498834Y-940612D01*
X11487353Y-948283D01*
X11476939Y-957427D01*
X11467795Y-967841D01*
X11461750Y-976884D01*
X11459464Y-979322D01*
X11456568Y-980846D01*
X11453317Y-981405D01*
X11000282Y-981405D01*
X10997031Y-980846D01*
X10994085Y-979322D01*
X10991850Y-976884D01*
X10985804Y-967841D01*
X10976660Y-957427D01*
X10966246Y-948283D01*
X10954715Y-940612D01*
X10942320Y-934466D01*
X10929213Y-929995D01*
X10915599Y-927303D01*
X10901781Y-926388D01*
X10887964Y-927303D01*
X10874400Y-929995D01*
X10861294Y-934466D01*
X10848848Y-940612D01*
X10837316Y-948283D01*
X10826902Y-957427D01*
X10817809Y-967841D01*
X10811764Y-976884D01*
X10809478Y-979322D01*
X10806582Y-980846D01*
X10803280Y-981405D01*
X10593374Y-981405D01*
X10588752Y-981608D01*
X10584332Y-982167D01*
X10580014Y-983132D01*
X10575747Y-984453D01*
X10571683Y-986180D01*
X10567720Y-988212D01*
X10563961Y-990600D01*
X10560456Y-993292D01*
X10557002Y-996442D01*
X10503712Y-1049782D01*
X10500410Y-1051966D01*
X10496550Y-1052728D01*
X10421924Y-1052728D01*
X10415574Y-1053439D01*
X10410139Y-1055370D01*
X10405211Y-1058418D01*
X10401147Y-1062532D01*
X10398048Y-1067409D01*
X10396169Y-1072896D01*
X10395458Y-1079195D01*
X10395458Y-1183538D01*
X10394645Y-1187399D01*
X10392460Y-1190701D01*
X10389158Y-1192936D01*
X10385298Y-1193698D01*
X10350398Y-1193698D01*
X10346486Y-1192936D01*
X10343235Y-1190701D01*
X10256367Y-1103884D01*
X10254183Y-1100582D01*
X10253421Y-1096721D01*
X10253421Y-1058976D01*
X10252710Y-1052626D01*
X10250779Y-1047191D01*
X10247680Y-1042263D01*
X10243616Y-1038199D01*
X10238689Y-1035100D01*
X10233253Y-1033221D01*
X10226954Y-1032510D01*
X10221061Y-1032510D01*
X10217200Y-1031697D01*
X10213898Y-1029512D01*
X10211663Y-1026210D01*
X10210901Y-1022350D01*
X10210901Y-944676D01*
X10211663Y-940765D01*
X10213898Y-937514D01*
X10228122Y-923239D01*
X10231424Y-921054D01*
X10235336Y-920242D01*
X10309910Y-920242D01*
X10316260Y-919530D01*
X10321696Y-917651D01*
X10326624Y-914552D01*
X10330688Y-910488D01*
X10333786Y-905560D01*
X10335717Y-900125D01*
X10336428Y-893775D01*
X10336428Y-757224D01*
X10335717Y-750874D01*
X10333786Y-745439D01*
X10330688Y-740511D01*
X10326624Y-736447D01*
X10321696Y-733348D01*
X10316260Y-731469D01*
X10313924Y-731215D01*
X10310368Y-730097D01*
X10307472Y-727862D01*
X10305542Y-724712D01*
X10304881Y-721106D01*
X10304881Y-58318D01*
X10305643Y-54406D01*
X10307878Y-51155D01*
X11059464Y700430D01*
X11062614Y703884D01*
X11065306Y707390D01*
X11067694Y711149D01*
X11069726Y715111D01*
X11071453Y719175D01*
X11072774Y723442D01*
X11073739Y727760D01*
X11074298Y732180D01*
X11074501Y736803D01*
X11074501Y823366D01*
X11075416Y827532D01*
X11078006Y830986D01*
X11081766Y833069D01*
X11086033Y833424D01*
X11090097Y831951D01*
X11094161Y829411D01*
X11099596Y827481D01*
X11105896Y826769D01*
X11204803Y826769D01*
X11211102Y827481D01*
X11215471Y829005D01*
X11218875Y829614D01*
X11222228Y829005D01*
X11226596Y827481D01*
X11232896Y826769D01*
X11331803Y826769D01*
X11338102Y827481D01*
X11342471Y829005D01*
X11345875Y829614D01*
X11349228Y829005D01*
X11353596Y827481D01*
X11359896Y826769D01*
X11458803Y826769D01*
X11465102Y827481D01*
X11469014Y828852D01*
X11472367Y829411D01*
X11475720Y828852D01*
X11480342Y827227D01*
X11486642Y826516D01*
X11585549Y826516D01*
X11591848Y827227D01*
X11596217Y828751D01*
X11599621Y829360D01*
X11602974Y828751D01*
X11607342Y827227D01*
X11613642Y826516D01*
X11712549Y826516D01*
X11718848Y827227D01*
X11723217Y828751D01*
X11726621Y829360D01*
X11729974Y828751D01*
X11734342Y827227D01*
X11740642Y826516D01*
X11839549Y826516D01*
X11845848Y827227D01*
X11850217Y828751D01*
X11853621Y829360D01*
X11856974Y828751D01*
X11861342Y827227D01*
X11867642Y826516D01*
X11966549Y826516D01*
X11972848Y827227D01*
X11977725Y828954D01*
X11981078Y829513D01*
X11984431Y828954D01*
X11988596Y827481D01*
X11994896Y826769D01*
X12093803Y826769D01*
X12100102Y827481D01*
X12104471Y829005D01*
X12107875Y829614D01*
X12111228Y829005D01*
X12115596Y827481D01*
X12121896Y826769D01*
X12220803Y826769D01*
X12227102Y827481D01*
X12231471Y829005D01*
X12234875Y829614D01*
X12238228Y829005D01*
X12242596Y827481D01*
X12248896Y826769D01*
X12347803Y826769D01*
X12354102Y827481D01*
X12359538Y829411D01*
X12364466Y832459D01*
X12368530Y836574D01*
X12371628Y841451D01*
X12373559Y846937D01*
X12374270Y853236D01*
X12374270Y1072134D01*
X12373559Y1078433D01*
X12371628Y1083919D01*
X12368530Y1088796D01*
X12364466Y1092911D01*
X12359538Y1095959D01*
X12354102Y1097889D01*
X12347803Y1098600D01*
X12248896Y1098600D01*
X12242596Y1097889D01*
X12238228Y1096365D01*
X12234875Y1095756D01*
X12231471Y1096365D01*
X12227102Y1097889D01*
X12220803Y1098600D01*
X12121896Y1098600D01*
X12115596Y1097889D01*
X12111228Y1096365D01*
X12107875Y1095756D01*
X12104471Y1096365D01*
X12100102Y1097889D01*
X12093803Y1098600D01*
X11994896Y1098600D01*
X11988596Y1097889D01*
X11983720Y1096162D01*
X11980367Y1095603D01*
X11977014Y1096162D01*
X11972848Y1097635D01*
X11966549Y1098346D01*
X11867642Y1098346D01*
X11861342Y1097635D01*
X11856974Y1096111D01*
X11853621Y1095502D01*
X11850217Y1096111D01*
X11845848Y1097635D01*
X11839549Y1098346D01*
X11740642Y1098346D01*
X11734342Y1097635D01*
X11729974Y1096111D01*
X11726621Y1095502D01*
X11723217Y1096111D01*
X11718848Y1097635D01*
X11712549Y1098346D01*
X11613642Y1098346D01*
X11607342Y1097635D01*
X11602974Y1096111D01*
X11599621Y1095502D01*
X11596217Y1096111D01*
X11591848Y1097635D01*
X11585549Y1098346D01*
X11486642Y1098346D01*
X11480342Y1097635D01*
X11476431Y1096264D01*
X11473078Y1095705D01*
X11469725Y1096264D01*
X11465102Y1097889D01*
X11458803Y1098600D01*
X11359896Y1098600D01*
X11353596Y1097889D01*
X11349228Y1096365D01*
X11345875Y1095756D01*
X11342471Y1096365D01*
X11338102Y1097889D01*
X11331803Y1098600D01*
X11241430Y1098600D01*
X11237518Y1099362D01*
X11234216Y1101547D01*
X11232032Y1104849D01*
X11231270Y1108760D01*
X11231270Y2744673D01*
X11231930Y2748280D01*
X11234013Y2753664D01*
X11237264Y2764383D01*
X11238992Y2775610D01*
X11238992Y2786989D01*
X11237264Y2798165D01*
X11233912Y2809036D01*
X11229035Y2819247D01*
X11222634Y2828594D01*
X11214912Y2836926D01*
X11206022Y2843987D01*
X11196218Y2849676D01*
X11185652Y2853791D01*
X11174628Y2856331D01*
X11162944Y2857195D01*
X10827512Y2857144D01*
X10818418Y2856280D01*
X10813999Y2856839D01*
X10810290Y2859227D01*
X10800181Y2869336D01*
X10796727Y2872486D01*
X10793222Y2875178D01*
X10789462Y2877566D01*
X10785500Y2879648D01*
X10781436Y2881325D01*
X10777169Y2882646D01*
X10772851Y2883611D01*
X10768431Y2884220D01*
X10763808Y2884424D01*
X10644581Y2884424D01*
X10640669Y2885186D01*
X10637367Y2887370D01*
X10635183Y2890672D01*
X10634421Y2894584D01*
X10634421Y2903423D01*
X10633710Y2909773D01*
X10631779Y2915208D01*
X10628680Y2920136D01*
X10624616Y2924200D01*
X10619689Y2927299D01*
X10614253Y2929178D01*
X10607954Y2929890D01*
X10602061Y2929890D01*
X10598200Y2930702D01*
X10594898Y2932887D01*
X10592663Y2936189D01*
X10591901Y2940050D01*
X10591901Y3632301D01*
X10592663Y3636213D01*
X10594898Y3639464D01*
X10602264Y3646830D01*
X10605363Y3650234D01*
X10608106Y3653790D01*
X10610443Y3657498D01*
X10612526Y3661511D01*
X10614202Y3665524D01*
X10615574Y3669842D01*
X10616539Y3674110D01*
X10617098Y3678580D01*
X10617301Y3682949D01*
X10617098Y3687419D01*
X10616539Y3691788D01*
X10615574Y3696157D01*
X10614253Y3700373D01*
X10612526Y3704539D01*
X10610494Y3708400D01*
X10608106Y3712210D01*
X10605414Y3715664D01*
X10602366Y3719017D01*
X10599166Y3721963D01*
X10595610Y3724706D01*
X10591901Y3727043D01*
X10587888Y3729126D01*
X10583875Y3730802D01*
X10579557Y3732174D01*
X10575290Y3733139D01*
X10570819Y3733698D01*
X10566247Y3733901D01*
X10408462Y3734054D01*
X10404551Y3734866D01*
X10401300Y3737051D01*
X10399064Y3740353D01*
X10398302Y3744214D01*
X10398302Y3857751D01*
X10397591Y3864051D01*
X10395661Y3869537D01*
X10392613Y3874414D01*
X10388498Y3878529D01*
X10383621Y3881577D01*
X10378135Y3883507D01*
X10371836Y3884218D01*
X10252964Y3884218D01*
X10246664Y3883507D01*
X10241178Y3881577D01*
X10236301Y3878529D01*
X10232186Y3874414D01*
X10229138Y3869537D01*
X10227208Y3864051D01*
X10226497Y3857751D01*
X10226497Y3508857D01*
X10227208Y3502558D01*
X10229138Y3497072D01*
X10232186Y3492195D01*
X10236301Y3488080D01*
X10241178Y3485032D01*
X10246664Y3483101D01*
X10252964Y3482390D01*
X10371836Y3482390D01*
X10378135Y3483101D01*
X10383621Y3485032D01*
X10388498Y3488080D01*
X10392613Y3492195D01*
X10395661Y3497072D01*
X10397591Y3502558D01*
X10398302Y3508857D01*
X10398302Y3622090D01*
X10399064Y3626002D01*
X10401300Y3629253D01*
X10404602Y3631488D01*
X10408462Y3632250D01*
X10479938Y3632200D01*
X10483850Y3631387D01*
X10487101Y3629202D01*
X10489336Y3625900D01*
X10490098Y3622040D01*
X10490098Y2940050D01*
X10489336Y2936189D01*
X10487101Y2932887D01*
X10483799Y2930702D01*
X10479938Y2929890D01*
X10474045Y2929890D01*
X10467746Y2929178D01*
X10462310Y2927299D01*
X10457383Y2924200D01*
X10453319Y2920136D01*
X10450220Y2915208D01*
X10448290Y2909773D01*
X10447578Y2903423D01*
X10447578Y2763570D01*
X10448290Y2757271D01*
X10450220Y2751785D01*
X10453319Y2746908D01*
X10457383Y2742793D01*
X10463276Y2739085D01*
X10466222Y2736291D01*
X10467797Y2732532D01*
X10467797Y2728468D01*
X10466222Y2724708D01*
X10463276Y2721914D01*
X10457383Y2718206D01*
X10453319Y2714091D01*
X10450220Y2709214D01*
X10448290Y2703728D01*
X10447578Y2697429D01*
X10447578Y2669082D01*
X10500918Y2669082D01*
X10500918Y2726944D01*
X10501680Y2730804D01*
X10503865Y2734106D01*
X10507167Y2736342D01*
X10511078Y2737104D01*
X10570921Y2737104D01*
X10574832Y2736342D01*
X10578134Y2734106D01*
X10580319Y2730804D01*
X10581081Y2726944D01*
X10581081Y2669082D01*
X10634421Y2669082D01*
X10634421Y2697429D01*
X10633710Y2703728D01*
X10631779Y2709214D01*
X10628680Y2714091D01*
X10624616Y2718206D01*
X10618724Y2721914D01*
X10615777Y2724708D01*
X10614202Y2728468D01*
X10614202Y2732532D01*
X10615777Y2736291D01*
X10618724Y2739085D01*
X10624616Y2742793D01*
X10628680Y2746908D01*
X10631779Y2751785D01*
X10633710Y2757271D01*
X10634421Y2763570D01*
X10634421Y2772410D01*
X10635183Y2776321D01*
X10637367Y2779623D01*
X10640669Y2781808D01*
X10644581Y2782570D01*
X10677144Y2782570D01*
X10681004Y2781808D01*
X10684306Y2779623D01*
X10686491Y2776321D01*
X10687304Y2772410D01*
X10687304Y2724861D01*
X10688015Y2718562D01*
X10689539Y2714193D01*
X10690098Y2710840D01*
X10689539Y2707487D01*
X10687761Y2702509D01*
X10687050Y2696210D01*
X10687050Y2678125D01*
X10761624Y2678125D01*
X10761624Y2688234D01*
X10762386Y2692146D01*
X10764570Y2695448D01*
X10767872Y2697632D01*
X10771784Y2698394D01*
X10874146Y2698394D01*
X10878058Y2697632D01*
X10881360Y2695448D01*
X10883544Y2692146D01*
X10884306Y2688234D01*
X10884306Y2678125D01*
X10958880Y2678125D01*
X10958880Y2695244D01*
X10959642Y2699105D01*
X10961827Y2702407D01*
X10965129Y2704642D01*
X10969040Y2705404D01*
X11069269Y2705404D01*
X11073180Y2704642D01*
X11076482Y2702407D01*
X11078667Y2699105D01*
X11079429Y2695244D01*
X11079429Y2560269D01*
X11078667Y2556408D01*
X11076482Y2553106D01*
X11073180Y2550922D01*
X11069269Y2550109D01*
X11065408Y2550922D01*
X11062106Y2553106D01*
X11056315Y2558897D01*
X11049050Y2563977D01*
X11040973Y2567736D01*
X11032439Y2570022D01*
X11023142Y2570835D01*
X10966856Y2570835D01*
X10962792Y2571699D01*
X10959388Y2574086D01*
X10957255Y2577642D01*
X10955985Y2583027D01*
X10956544Y2586380D01*
X10958169Y2591003D01*
X10958880Y2597302D01*
X10958880Y2615387D01*
X10884306Y2615387D01*
X10884306Y2606090D01*
X10883544Y2602179D01*
X10881360Y2598877D01*
X10878058Y2596692D01*
X10874146Y2595930D01*
X10771784Y2595930D01*
X10767872Y2596692D01*
X10764570Y2598877D01*
X10762386Y2602179D01*
X10761624Y2606090D01*
X10761624Y2615387D01*
X10687050Y2615387D01*
X10687050Y2597302D01*
X10687761Y2591003D01*
X10689132Y2587091D01*
X10689691Y2583738D01*
X10689132Y2580386D01*
X10687507Y2575763D01*
X10686796Y2569464D01*
X10686796Y2470556D01*
X10687507Y2464257D01*
X10689031Y2459888D01*
X10689640Y2456484D01*
X10689031Y2453132D01*
X10687507Y2448763D01*
X10686796Y2442464D01*
X10686796Y2343556D01*
X10687507Y2337257D01*
X10689031Y2332888D01*
X10689640Y2329484D01*
X10689031Y2326132D01*
X10687507Y2321763D01*
X10686796Y2315464D01*
X10686796Y2216556D01*
X10687507Y2210257D01*
X10689031Y2205888D01*
X10689640Y2202484D01*
X10689031Y2199132D01*
X10687507Y2194763D01*
X10686796Y2188464D01*
X10686796Y2089556D01*
X10687507Y2083257D01*
X10689031Y2078888D01*
X10689640Y2075484D01*
X10689031Y2072132D01*
X10687507Y2067763D01*
X10686796Y2061464D01*
X10686796Y1962556D01*
X10687507Y1956257D01*
X10688878Y1952345D01*
X10689437Y1948992D01*
X10688878Y1945639D01*
X10687100Y1940560D01*
X10685018Y1937054D01*
X10681665Y1934667D01*
X10677702Y1933752D01*
X10476941Y1930501D01*
X10471353Y1930146D01*
X10467949Y1929587D01*
X10462666Y1928266D01*
X10459415Y1927148D01*
X10454436Y1924964D01*
X10451388Y1923288D01*
X10446918Y1920290D01*
X10444226Y1918106D01*
X10440314Y1914347D01*
X10438028Y1911756D01*
X10434726Y1907235D01*
X10304475Y1707794D01*
X10301528Y1704848D01*
X10297617Y1703324D01*
X10293451Y1703476D01*
X10289692Y1705356D01*
X10287000Y1708556D01*
X10283139Y1724710D01*
X10278821Y1735480D01*
X10272877Y1745437D01*
X10265460Y1754428D01*
X10256774Y1762150D01*
X10247071Y1768449D01*
X10236454Y1773224D01*
X10225227Y1776272D01*
X10213695Y1777644D01*
X10202113Y1777187D01*
X10190683Y1774952D01*
X10179761Y1771040D01*
X10169550Y1765503D01*
X10160304Y1758442D01*
X10157815Y1755800D01*
X10154462Y1753514D01*
X10150449Y1752701D01*
X10122103Y1752701D01*
X10117480Y1752498D01*
X10113060Y1751939D01*
X10108742Y1750974D01*
X10104475Y1749653D01*
X10100411Y1747926D01*
X10096449Y1745894D01*
X10092690Y1743506D01*
X10089184Y1740814D01*
X10085730Y1737664D01*
X9786264Y1438198D01*
X9783013Y1435963D01*
X9779101Y1435201D01*
X8750503Y1435201D01*
X8745880Y1434998D01*
X8741460Y1434439D01*
X8737142Y1433474D01*
X8732875Y1432153D01*
X8728811Y1430426D01*
X8724849Y1428394D01*
X8721090Y1426006D01*
X8717584Y1423314D01*
X8714130Y1420164D01*
X8503564Y1209598D01*
X8500313Y1207363D01*
X8496401Y1206601D01*
X8449970Y1206601D01*
X8445703Y1207516D01*
X8442248Y1210157D01*
X8440216Y1213967D01*
X8439912Y1218336D01*
X8441486Y1222349D01*
X8444585Y1225397D01*
X8449360Y1228344D01*
X8452815Y1230985D01*
X8456269Y1234135D01*
X8708898Y1486814D01*
X8711946Y1488897D01*
X8715603Y1489760D01*
X8719261Y1489252D01*
X8724493Y1487525D01*
X8728760Y1486560D01*
X8733180Y1486001D01*
X8737803Y1485798D01*
X9359696Y1485798D01*
X9364319Y1486001D01*
X9368739Y1486560D01*
X9373057Y1487525D01*
X9377324Y1488846D01*
X9381388Y1490573D01*
X9385350Y1492605D01*
X9389110Y1494993D01*
X9392615Y1497685D01*
X9396069Y1500835D01*
X9433864Y1538630D01*
X9437014Y1542084D01*
X9439706Y1545590D01*
X9442094Y1549349D01*
X9444126Y1553311D01*
X9445853Y1557375D01*
X9447174Y1561642D01*
X9448139Y1565960D01*
X9448698Y1570380D01*
X9448901Y1575003D01*
X9448901Y1856638D01*
X9449663Y1860499D01*
X9451898Y1863801D01*
X9455200Y1866036D01*
X9459061Y1866798D01*
X9804501Y1866798D01*
X9808413Y1866036D01*
X9811664Y1863801D01*
X9819030Y1856435D01*
X9822484Y1853285D01*
X9825990Y1850593D01*
X9829749Y1848205D01*
X9833711Y1846173D01*
X9837775Y1844446D01*
X9842042Y1843125D01*
X9846360Y1842160D01*
X9850780Y1841601D01*
X9855403Y1841398D01*
X10074249Y1841398D01*
X10078262Y1840585D01*
X10081615Y1838299D01*
X10084104Y1835657D01*
X10093350Y1828596D01*
X10103561Y1823059D01*
X10114483Y1819148D01*
X10125913Y1816912D01*
X10137495Y1816455D01*
X10149027Y1817827D01*
X10160254Y1820875D01*
X10170871Y1825650D01*
X10180574Y1831949D01*
X10189260Y1839671D01*
X10196677Y1848662D01*
X10202621Y1858619D01*
X10206939Y1869389D01*
X10209580Y1880717D01*
X10210495Y1892300D01*
X10209580Y1903882D01*
X10206939Y1915210D01*
X10202621Y1925980D01*
X10196677Y1935937D01*
X10189260Y1944928D01*
X10180574Y1952650D01*
X10170871Y1958949D01*
X10160254Y1963724D01*
X10149027Y1966772D01*
X10137495Y1968144D01*
X10125913Y1967687D01*
X10114483Y1965452D01*
X10103561Y1961540D01*
X10093350Y1956003D01*
X10084104Y1948942D01*
X10081615Y1946300D01*
X10078262Y1944014D01*
X10074249Y1943201D01*
X9880498Y1943201D01*
X9876586Y1943963D01*
X9873335Y1946198D01*
X9865969Y1953564D01*
X9862515Y1956714D01*
X9859010Y1959406D01*
X9855250Y1961794D01*
X9851288Y1963826D01*
X9847224Y1965553D01*
X9842957Y1966874D01*
X9838639Y1967839D01*
X9834219Y1968398D01*
X9829596Y1968601D01*
X9423603Y1968601D01*
X9418980Y1968398D01*
X9414560Y1967839D01*
X9410242Y1966874D01*
X9405975Y1965553D01*
X9401911Y1963826D01*
X9397949Y1961794D01*
X9394190Y1959406D01*
X9390684Y1956714D01*
X9387230Y1953564D01*
X9362135Y1928469D01*
X9358985Y1925015D01*
X9356293Y1921510D01*
X9353905Y1917750D01*
X9351873Y1913788D01*
X9350146Y1909724D01*
X9348825Y1905457D01*
X9347860Y1901139D01*
X9347301Y1896719D01*
X9347098Y1892096D01*
X9347098Y1600098D01*
X9346336Y1596186D01*
X9344101Y1592935D01*
X9341764Y1590598D01*
X9338513Y1588363D01*
X9334601Y1587601D01*
X8762898Y1587601D01*
X8758986Y1588363D01*
X8755735Y1590598D01*
X8748522Y1597761D01*
X8741359Y1603756D01*
X8733688Y1608226D01*
X8725357Y1611223D01*
X8716619Y1612798D01*
X8707780Y1612798D01*
X8699042Y1611223D01*
X8690711Y1608226D01*
X8683040Y1603756D01*
X8675878Y1597761D01*
X8401964Y1323898D01*
X8398713Y1321663D01*
X8394801Y1320901D01*
X7988198Y1320901D01*
X7984286Y1321663D01*
X7981035Y1323898D01*
X7872069Y1432864D01*
X7868615Y1436014D01*
X7865109Y1438706D01*
X7861350Y1441094D01*
X7857388Y1443126D01*
X7853324Y1444853D01*
X7849057Y1446174D01*
X7844739Y1447139D01*
X7840319Y1447698D01*
X7835696Y1447901D01*
X5626303Y1447901D01*
X5621680Y1447698D01*
X5617260Y1447139D01*
X5612942Y1446174D01*
X5608675Y1444853D01*
X5604611Y1443126D01*
X5600649Y1441094D01*
X5596890Y1438706D01*
X5593384Y1436014D01*
X5589930Y1432864D01*
X5214264Y1057198D01*
X5211013Y1054963D01*
X5207101Y1054201D01*
X4254703Y1054201D01*
X4250893Y1054963D01*
X4247642Y1057046D01*
X4245406Y1060196D01*
X4238904Y1074572D01*
X4231030Y1087577D01*
X4221683Y1099566D01*
X4210913Y1110284D01*
X4198924Y1119682D01*
X4185920Y1127506D01*
X4172051Y1133754D01*
X4157522Y1138275D01*
X4142587Y1140968D01*
X4127398Y1141882D01*
X4112209Y1140968D01*
X4097274Y1138224D01*
X4082745Y1133652D01*
X4068927Y1127404D01*
X4055922Y1119530D01*
X4043934Y1110183D01*
X4034840Y1101039D01*
X4031538Y1098854D01*
X4027627Y1098042D01*
X4002989Y1098042D01*
X3996639Y1097330D01*
X3991203Y1095451D01*
X3986276Y1092352D01*
X3982212Y1088288D01*
X3979113Y1083360D01*
X3977182Y1077925D01*
X3976471Y1071575D01*
X3976471Y1030427D01*
X3975608Y1026261D01*
X3971696Y1017574D01*
X3967175Y1003046D01*
X3964432Y988110D01*
X3963466Y972058D01*
X3962552Y968400D01*
X3960317Y965301D01*
X3957065Y963218D01*
X3953357Y962507D01*
X3900424Y962507D01*
X3900424Y908558D01*
X3921810Y908558D01*
X3928160Y909269D01*
X3933596Y911148D01*
X3938524Y914247D01*
X3942587Y918311D01*
X3944721Y921715D01*
X3947769Y924814D01*
X3951833Y926337D01*
X3956151Y926084D01*
X3959961Y924001D01*
X3962552Y920546D01*
X3963466Y916330D01*
X3963466Y839825D01*
X3962552Y835609D01*
X3959961Y832103D01*
X3956151Y830071D01*
X3951833Y829767D01*
X3947769Y831342D01*
X3940505Y838708D01*
X3935628Y841806D01*
X3930142Y843686D01*
X3923842Y844397D01*
X3746957Y844397D01*
X3740658Y843686D01*
X3735171Y841806D01*
X3730294Y838708D01*
X3726179Y834593D01*
X3723132Y829716D01*
X3721201Y824230D01*
X3720490Y817930D01*
X3720490Y579069D01*
X3721201Y572770D01*
X3723132Y567283D01*
X3726179Y562406D01*
X3730294Y558292D01*
X3735171Y555193D01*
X3740658Y553313D01*
X3746957Y552602D01*
X3923842Y552602D01*
X3930142Y553313D01*
X3935628Y555193D01*
X3940505Y558292D01*
X3944620Y562406D01*
X3947668Y567283D01*
X3949598Y572770D01*
X3950309Y579069D01*
X3950309Y655726D01*
X3951122Y659739D01*
X3953459Y663092D01*
X3956964Y665276D01*
X3960977Y665886D01*
X3964940Y664819D01*
X3968191Y662330D01*
X3970172Y658723D01*
X3971696Y653846D01*
X3973576Y649630D01*
X3974490Y645464D01*
X3974490Y579069D01*
X3975201Y572770D01*
X3977132Y567283D01*
X3980179Y562406D01*
X3984294Y558292D01*
X3989171Y555193D01*
X3994658Y553313D01*
X4000957Y552602D01*
X4177842Y552602D01*
X4184142Y553313D01*
X4189628Y555193D01*
X4194505Y558292D01*
X4198620Y562406D01*
X4201668Y567283D01*
X4203598Y572770D01*
X4204309Y579069D01*
X4204309Y645464D01*
X4205224Y649630D01*
X4207256Y654202D01*
X4209542Y657402D01*
X4212945Y659536D01*
X4216857Y660196D01*
X4220718Y659282D01*
X4223918Y656996D01*
X4226001Y653643D01*
X4227830Y648868D01*
X4228490Y645261D01*
X4228490Y579069D01*
X4229201Y572770D01*
X4230166Y568198D01*
X4230166Y368604D01*
X4231132Y353110D01*
X4233875Y338175D01*
X4238396Y323646D01*
X4244644Y309778D01*
X4252518Y296773D01*
X4261866Y284835D01*
X4272635Y274066D01*
X4284573Y264718D01*
X4297578Y256844D01*
X4311446Y250596D01*
X4325975Y246075D01*
X4340910Y243332D01*
X4356404Y242366D01*
X9448647Y242366D01*
X9456420Y242620D01*
X9463989Y243332D01*
X9471507Y244449D01*
X9478924Y246075D01*
X9486239Y248107D01*
X9493402Y250545D01*
X9501987Y254254D01*
X9506000Y255066D01*
X9604857Y255066D01*
X9608718Y254304D01*
X9612020Y252120D01*
X9614204Y248818D01*
X9615017Y244906D01*
X9615017Y-1333347D01*
X9615220Y-1341120D01*
X9615932Y-1348689D01*
X9617049Y-1356207D01*
X9618675Y-1363624D01*
X9620707Y-1370939D01*
X9623196Y-1378153D01*
X9626092Y-1385163D01*
X9629394Y-1392021D01*
X9633153Y-1398625D01*
X9637268Y-1405026D01*
X9641789Y-1411122D01*
X9646666Y-1416964D01*
X9652000Y-1422654D01*
X9715246Y-1485900D01*
X9720935Y-1491234D01*
X9726777Y-1496110D01*
X9732873Y-1500632D01*
X9739274Y-1504746D01*
X9745878Y-1508506D01*
X9752736Y-1511808D01*
X9759746Y-1514703D01*
X9766960Y-1517192D01*
X9774275Y-1519224D01*
X9781692Y-1520850D01*
X9789210Y-1521968D01*
X9796780Y-1522679D01*
X9804552Y-1522933D01*
X9947960Y-1522933D01*
X9951974Y-1523746D01*
X9955326Y-1526082D01*
X9957511Y-1529588D01*
X9958070Y-1533702D01*
X9957917Y-1536852D01*
X9958120Y-1544320D01*
X9958832Y-1551889D01*
X9959949Y-1559407D01*
X9961575Y-1566824D01*
X9963607Y-1574139D01*
X9966096Y-1581353D01*
X9968992Y-1588363D01*
X9972294Y-1595221D01*
X9976053Y-1601825D01*
X9980168Y-1608226D01*
X9984689Y-1614322D01*
X9989566Y-1620164D01*
X9994798Y-1625752D01*
X10000335Y-1630933D01*
X10006177Y-1635810D01*
X10012273Y-1640332D01*
X10018674Y-1644446D01*
X10025278Y-1648206D01*
X10032136Y-1651507D01*
X10039146Y-1654403D01*
X10046360Y-1656892D01*
X10053675Y-1658924D01*
X10061092Y-1660550D01*
X10068610Y-1661668D01*
X10076180Y-1662379D01*
G37*
G36*
X1836521Y-1610156D02*
G01*
X1857400Y-1609648D01*
X1878126Y-1607210D01*
X1898497Y-1602892D01*
X1918462Y-1596694D01*
X1937715Y-1588668D01*
X1956155Y-1578914D01*
X1973630Y-1567535D01*
X1989988Y-1554530D01*
X2005025Y-1540154D01*
X2018741Y-1524355D01*
X2030882Y-1507439D01*
X2041448Y-1489405D01*
X2050288Y-1470507D01*
X2057349Y-1450898D01*
X2062581Y-1430680D01*
X2065680Y-1412087D01*
X2078329Y-1310944D01*
X2080006Y-1289913D01*
X2079701Y-1269034D01*
X2077466Y-1248308D01*
X2073351Y-1227836D01*
X2071522Y-1221841D01*
X2071116Y-1218742D01*
X2105406Y335686D01*
X2153056Y1455724D01*
X2153615Y1458671D01*
X2154986Y1461312D01*
X2486710Y1916226D01*
X2488946Y1918462D01*
X2491790Y1919884D01*
X2494940Y1920392D01*
X7201509Y1920392D01*
X7204709Y1919884D01*
X7215276Y1916328D01*
X7235596Y1911553D01*
X7256272Y1908657D01*
X7277100Y1907692D01*
X7297928Y1908657D01*
X7318603Y1911553D01*
X7338923Y1916328D01*
X7349490Y1919884D01*
X7352690Y1920392D01*
X9042146Y1920392D01*
X9063228Y1921357D01*
X9083903Y1924253D01*
X9104223Y1929028D01*
X9123984Y1935632D01*
X9143085Y1944065D01*
X9161322Y1954225D01*
X9178544Y1966010D01*
X9194596Y1979371D01*
X9209328Y1994103D01*
X9222689Y2010156D01*
X9234474Y2027377D01*
X9244634Y2045614D01*
X9253067Y2064715D01*
X9259671Y2084476D01*
X9264446Y2104796D01*
X9267342Y2125472D01*
X9268307Y2146554D01*
X9268307Y3071977D01*
X9267342Y3093059D01*
X9264446Y3113735D01*
X9259671Y3134004D01*
X9253067Y3153816D01*
X9244634Y3172917D01*
X9234474Y3191103D01*
X9222689Y3208324D01*
X9209328Y3224377D01*
X9194596Y3239160D01*
X9178544Y3252470D01*
X9161322Y3264255D01*
X9143085Y3274415D01*
X9123984Y3282848D01*
X9104223Y3289503D01*
X9083903Y3294278D01*
X9063228Y3297123D01*
X9042400Y3298088D01*
X9021572Y3297123D01*
X9000896Y3294278D01*
X8980576Y3289503D01*
X8960815Y3282848D01*
X8941714Y3274415D01*
X8923477Y3264255D01*
X8906256Y3252470D01*
X8890203Y3239160D01*
X8875471Y3224377D01*
X8862110Y3208324D01*
X8850325Y3191103D01*
X8840165Y3172917D01*
X8831732Y3153816D01*
X8825128Y3134004D01*
X8820353Y3113735D01*
X8817457Y3093059D01*
X8816492Y3071977D01*
X8816492Y2382367D01*
X8815730Y2378456D01*
X8813495Y2375204D01*
X8810244Y2372969D01*
X8806332Y2372207D01*
X7513167Y2372207D01*
X7509256Y2372969D01*
X7506004Y2375204D01*
X7503769Y2378456D01*
X7503007Y2382367D01*
X7503007Y2978962D01*
X7504074Y2983484D01*
X7509154Y2993644D01*
X7516672Y3013100D01*
X7522413Y3033166D01*
X7526223Y3053689D01*
X7528153Y3074466D01*
X7528153Y3095345D01*
X7526223Y3116122D01*
X7522413Y3136646D01*
X7516672Y3156712D01*
X7509154Y3176168D01*
X7499858Y3194812D01*
X7488885Y3212592D01*
X7476286Y3229203D01*
X7462215Y3244646D01*
X7446822Y3258718D01*
X7430160Y3271265D01*
X7412431Y3282238D01*
X7393736Y3291535D01*
X7374280Y3299104D01*
X7354214Y3304794D01*
X7333691Y3308654D01*
X7312914Y3310585D01*
X7292086Y3310585D01*
X7271308Y3308654D01*
X7250785Y3304794D01*
X7230719Y3299104D01*
X7211263Y3291535D01*
X7192568Y3282238D01*
X7174839Y3271265D01*
X7158177Y3258718D01*
X7142581Y3244494D01*
X7117537Y3219399D01*
X7110171Y3211677D01*
X7103313Y3203803D01*
X7096810Y3195624D01*
X7090714Y3187192D01*
X7085025Y3178403D01*
X7079742Y3169412D01*
X7074865Y3160217D01*
X7070445Y3150768D01*
X7066432Y3141116D01*
X7062927Y3131312D01*
X7059828Y3121304D01*
X7057186Y3111246D01*
X7055053Y3101035D01*
X7053376Y3090722D01*
X7052157Y3080359D01*
X7051446Y3069945D01*
X7051192Y3059277D01*
X7051192Y2382367D01*
X7050430Y2378456D01*
X7048195Y2375204D01*
X7044944Y2372969D01*
X7041032Y2372207D01*
X5760567Y2372207D01*
X5756656Y2372969D01*
X5753404Y2375204D01*
X5751169Y2378456D01*
X5750407Y2382367D01*
X5750407Y3059277D01*
X5749442Y3080359D01*
X5746546Y3101035D01*
X5741771Y3121304D01*
X5735167Y3141116D01*
X5726734Y3160217D01*
X5716574Y3178403D01*
X5704789Y3195624D01*
X5691428Y3211677D01*
X5676696Y3226460D01*
X5660644Y3239770D01*
X5643422Y3251555D01*
X5625185Y3261715D01*
X5606084Y3270148D01*
X5586323Y3276803D01*
X5566003Y3281578D01*
X5545328Y3284423D01*
X5524500Y3285388D01*
X5503672Y3284423D01*
X5482996Y3281578D01*
X5462676Y3276803D01*
X5442915Y3270148D01*
X5423814Y3261715D01*
X5405577Y3251555D01*
X5388356Y3239770D01*
X5372303Y3226460D01*
X5357571Y3211677D01*
X5344210Y3195624D01*
X5332425Y3178403D01*
X5322265Y3160217D01*
X5313832Y3141116D01*
X5307228Y3121304D01*
X5302453Y3101035D01*
X5299557Y3080359D01*
X5298592Y3059277D01*
X5298592Y2382367D01*
X5297830Y2378456D01*
X5295595Y2375204D01*
X5292344Y2372969D01*
X5288432Y2372207D01*
X4059631Y2372207D01*
X4055770Y2372969D01*
X4052519Y2375103D01*
X4050284Y2378354D01*
X4049471Y2382164D01*
X4035856Y3076397D01*
X4034485Y3097428D01*
X4031183Y3118053D01*
X4026001Y3138271D01*
X4018991Y3157931D01*
X4010202Y3176828D01*
X3999687Y3194862D01*
X3987546Y3211830D01*
X3973931Y3227628D01*
X3958894Y3242106D01*
X3942587Y3255111D01*
X3925112Y3266541D01*
X3906723Y3276346D01*
X3887470Y3284423D01*
X3867556Y3290671D01*
X3847134Y3295040D01*
X3826408Y3297529D01*
X3805580Y3298037D01*
X3784752Y3296665D01*
X3764127Y3293414D01*
X3743960Y3288233D01*
X3724300Y3281222D01*
X3705351Y3272434D01*
X3687318Y3261918D01*
X3670350Y3249777D01*
X3654551Y3236112D01*
X3640124Y3221075D01*
X3627120Y3204768D01*
X3615639Y3187344D01*
X3605834Y3168904D01*
X3597808Y3149650D01*
X3591560Y3129737D01*
X3587191Y3109366D01*
X3584701Y3088640D01*
X3584143Y3067558D01*
X3597554Y2382570D01*
X3596843Y2378608D01*
X3594658Y2375255D01*
X3591356Y2373020D01*
X3587394Y2372207D01*
X2371293Y2372156D01*
X2353868Y2371242D01*
X2333193Y2368346D01*
X2329840Y2367686D01*
X2312873Y2363520D01*
X2293112Y2356866D01*
X2289962Y2355646D01*
X2274011Y2348433D01*
X2271014Y2346909D01*
X2255824Y2338273D01*
X2252929Y2336444D01*
X2235911Y2324404D01*
X2222550Y2313127D01*
X2207818Y2298344D01*
X2205532Y2295804D01*
X2194509Y2282291D01*
X1743659Y1663801D01*
X1736293Y1652270D01*
X1732737Y1646021D01*
X1726438Y1633829D01*
X1723491Y1627327D01*
X1718360Y1614627D01*
X1715973Y1607870D01*
X1712061Y1594713D01*
X1710334Y1587754D01*
X1707642Y1574342D01*
X1706575Y1567230D01*
X1705152Y1553616D01*
X1704695Y1546199D01*
X1658874Y469138D01*
X1657756Y464921D01*
X1654962Y461568D01*
X1651609Y458927D01*
X1640890Y448208D01*
X1631492Y436219D01*
X1623618Y423214D01*
X1617370Y409346D01*
X1612849Y394817D01*
X1610106Y379882D01*
X1609191Y364693D01*
X1610106Y349554D01*
X1612849Y334568D01*
X1617370Y320040D01*
X1623618Y306222D01*
X1631492Y293217D01*
X1640890Y281228D01*
X1648968Y273151D01*
X1651203Y269748D01*
X1651914Y265734D01*
X1617776Y-1283512D01*
X1617167Y-1286713D01*
X1615592Y-1289558D01*
X1607362Y-1300073D01*
X1599488Y-1313078D01*
X1593240Y-1326946D01*
X1588719Y-1341475D01*
X1585976Y-1356410D01*
X1585061Y-1371600D01*
X1585976Y-1386789D01*
X1588719Y-1401724D01*
X1593240Y-1416253D01*
X1599488Y-1430121D01*
X1607362Y-1443126D01*
X1616710Y-1455064D01*
X1627479Y-1465834D01*
X1630629Y-1468323D01*
X1632457Y-1470152D01*
X1633728Y-1472438D01*
X1637131Y-1480515D01*
X1646885Y-1498955D01*
X1658264Y-1516430D01*
X1671269Y-1532788D01*
X1685645Y-1547825D01*
X1701444Y-1561541D01*
X1718360Y-1573682D01*
X1736394Y-1584248D01*
X1755292Y-1593088D01*
X1774901Y-1600149D01*
X1795119Y-1605381D01*
X1815693Y-1608734D01*
G37*
G36*
X1092200Y-1597507D02*
G01*
X1113028Y-1596542D01*
X1133703Y-1593646D01*
X1154023Y-1588871D01*
X1173784Y-1582267D01*
X1192885Y-1573834D01*
X1211122Y-1563674D01*
X1228344Y-1551889D01*
X1244396Y-1538528D01*
X1259128Y-1523796D01*
X1272489Y-1507744D01*
X1284274Y-1490522D01*
X1294434Y-1472285D01*
X1299464Y-1460906D01*
X1301546Y-1457807D01*
X1304290Y-1455064D01*
X1313637Y-1443126D01*
X1321511Y-1430121D01*
X1327759Y-1416253D01*
X1332280Y-1401724D01*
X1335024Y-1386789D01*
X1335938Y-1371600D01*
X1335024Y-1356410D01*
X1332280Y-1341475D01*
X1327759Y-1326946D01*
X1321511Y-1313078D01*
X1319580Y-1309878D01*
X1318463Y-1307338D01*
X1318107Y-1304594D01*
X1318107Y229412D01*
X1318564Y232410D01*
X1319885Y235153D01*
X1327150Y245770D01*
X1337310Y264007D01*
X1345742Y283108D01*
X1352397Y302869D01*
X1357172Y323189D01*
X1360017Y343865D01*
X1360982Y364693D01*
X1360017Y385521D01*
X1357172Y406196D01*
X1352397Y426516D01*
X1345742Y446278D01*
X1337310Y465378D01*
X1327150Y483616D01*
X1315364Y500837D01*
X1302054Y516890D01*
X1287272Y531622D01*
X1271219Y544982D01*
X1253998Y556768D01*
X1235811Y566928D01*
X1216710Y575360D01*
X1196898Y581964D01*
X1176629Y586740D01*
X1155954Y589635D01*
X1134872Y590600D01*
X1092454Y590600D01*
X1071372Y589635D01*
X1050696Y586740D01*
X1030376Y581964D01*
X1010615Y575360D01*
X991514Y566928D01*
X973277Y556768D01*
X956056Y544982D01*
X940003Y531622D01*
X925271Y516890D01*
X911910Y500837D01*
X900125Y483616D01*
X889965Y465378D01*
X881532Y446278D01*
X874928Y426516D01*
X870153Y406196D01*
X867257Y385521D01*
X866292Y364439D01*
X866292Y-1371346D01*
X867257Y-1392428D01*
X870153Y-1413103D01*
X874928Y-1433423D01*
X881532Y-1453184D01*
X889965Y-1472285D01*
X900125Y-1490522D01*
X911910Y-1507744D01*
X925271Y-1523796D01*
X940003Y-1538528D01*
X956056Y-1551889D01*
X973277Y-1563674D01*
X991514Y-1573834D01*
X1010615Y-1582267D01*
X1030376Y-1588871D01*
X1050696Y-1593646D01*
X1071372Y-1596542D01*
G37*
G36*
X7425944Y-1497076D02*
G01*
X7442860Y-1496161D01*
X7459522Y-1493316D01*
X7475778Y-1488643D01*
X7491425Y-1482140D01*
X7506208Y-1473962D01*
X7520025Y-1464157D01*
X7532624Y-1452880D01*
X7543901Y-1440281D01*
X7553706Y-1426464D01*
X7561884Y-1411681D01*
X7568387Y-1396034D01*
X7573060Y-1379778D01*
X7575905Y-1363116D01*
X7576870Y-1345895D01*
X7576870Y-736904D01*
X7575905Y-719683D01*
X7573060Y-703021D01*
X7568387Y-686765D01*
X7561884Y-671118D01*
X7553706Y-656336D01*
X7543901Y-642518D01*
X7532624Y-629920D01*
X7520025Y-618642D01*
X7506208Y-608838D01*
X7491425Y-600659D01*
X7475778Y-594156D01*
X7459522Y-589483D01*
X7456220Y-588924D01*
X7452868Y-587756D01*
X7450175Y-585470D01*
X7448397Y-582422D01*
X7447737Y-578916D01*
X7447737Y-550519D01*
X7447025Y-544220D01*
X7445146Y-538734D01*
X7442047Y-533857D01*
X7437983Y-529742D01*
X7433056Y-526643D01*
X7427620Y-524764D01*
X7421270Y-524052D01*
X7301687Y-524052D01*
X7295337Y-524764D01*
X7289901Y-526643D01*
X7284974Y-529742D01*
X7280909Y-533857D01*
X7277811Y-538734D01*
X7275880Y-544220D01*
X7275169Y-550519D01*
X7275169Y-719480D01*
X7275677Y-725220D01*
X7275017Y-736904D01*
X7275017Y-1345895D01*
X7275982Y-1363116D01*
X7278827Y-1379778D01*
X7283500Y-1396034D01*
X7290003Y-1411681D01*
X7298181Y-1426464D01*
X7307986Y-1440281D01*
X7319264Y-1452880D01*
X7331862Y-1464157D01*
X7345680Y-1473962D01*
X7360462Y-1482140D01*
X7376109Y-1488643D01*
X7392365Y-1493316D01*
X7409027Y-1496161D01*
G37*
G36*
X5286756Y-1484782D02*
G01*
X5301945Y-1483868D01*
X5316880Y-1481124D01*
X5331409Y-1476603D01*
X5345277Y-1470355D01*
X5358282Y-1462481D01*
X5370220Y-1453134D01*
X5380990Y-1442364D01*
X5390337Y-1430426D01*
X5398211Y-1417421D01*
X5404459Y-1403553D01*
X5408980Y-1389024D01*
X5411724Y-1374089D01*
X5412638Y-1358900D01*
X5411724Y-1343710D01*
X5408980Y-1328775D01*
X5404459Y-1314246D01*
X5398211Y-1300378D01*
X5390337Y-1287373D01*
X5380990Y-1275435D01*
X5370220Y-1264666D01*
X5358282Y-1255318D01*
X5345277Y-1247444D01*
X5331409Y-1241196D01*
X5316880Y-1236675D01*
X5301945Y-1233932D01*
X5286756Y-1233017D01*
X5271566Y-1233932D01*
X5256631Y-1236675D01*
X5242102Y-1241196D01*
X5228234Y-1247444D01*
X5215229Y-1255318D01*
X5203291Y-1264666D01*
X5192522Y-1275435D01*
X5183174Y-1287373D01*
X5175300Y-1300378D01*
X5169052Y-1314246D01*
X5164531Y-1328775D01*
X5161788Y-1343710D01*
X5160873Y-1358900D01*
X5161788Y-1374089D01*
X5164531Y-1389024D01*
X5169052Y-1403553D01*
X5175300Y-1417421D01*
X5183174Y-1430426D01*
X5192522Y-1442364D01*
X5203291Y-1453134D01*
X5215229Y-1462481D01*
X5228234Y-1470355D01*
X5242102Y-1476603D01*
X5256631Y-1481124D01*
X5271566Y-1483868D01*
G37*
G36*
X3597656Y-1484782D02*
G01*
X3612845Y-1483868D01*
X3627780Y-1481124D01*
X3642309Y-1476603D01*
X3656177Y-1470355D01*
X3669182Y-1462481D01*
X3681120Y-1453134D01*
X3691890Y-1442364D01*
X3701237Y-1430426D01*
X3709111Y-1417421D01*
X3715359Y-1403553D01*
X3719880Y-1389024D01*
X3722624Y-1374089D01*
X3723538Y-1358900D01*
X3722624Y-1343710D01*
X3719880Y-1328775D01*
X3715359Y-1314246D01*
X3709111Y-1300378D01*
X3701237Y-1287373D01*
X3691890Y-1275435D01*
X3681120Y-1264666D01*
X3669182Y-1255318D01*
X3656177Y-1247444D01*
X3642309Y-1241196D01*
X3627780Y-1236675D01*
X3612845Y-1233932D01*
X3597656Y-1233017D01*
X3582466Y-1233932D01*
X3567531Y-1236675D01*
X3553002Y-1241196D01*
X3539134Y-1247444D01*
X3526129Y-1255318D01*
X3514191Y-1264666D01*
X3503422Y-1275435D01*
X3494074Y-1287373D01*
X3486200Y-1300378D01*
X3479952Y-1314246D01*
X3475431Y-1328775D01*
X3472687Y-1343710D01*
X3471773Y-1358900D01*
X3472687Y-1374089D01*
X3475431Y-1389024D01*
X3479952Y-1403553D01*
X3486200Y-1417421D01*
X3494074Y-1430426D01*
X3503422Y-1442364D01*
X3514191Y-1453134D01*
X3526129Y-1462481D01*
X3539134Y-1470355D01*
X3553002Y-1476603D01*
X3567531Y-1481124D01*
X3582466Y-1483868D01*
G37*
G36*
X5787644Y-1484782D02*
G01*
X5802833Y-1483868D01*
X5817768Y-1481124D01*
X5832297Y-1476603D01*
X5846165Y-1470355D01*
X5859170Y-1462481D01*
X5871108Y-1453134D01*
X5881878Y-1442364D01*
X5891225Y-1430426D01*
X5899099Y-1417421D01*
X5905347Y-1403553D01*
X5909868Y-1389024D01*
X5912612Y-1374089D01*
X5913526Y-1358392D01*
X5912561Y-685901D01*
X5911596Y-670458D01*
X5908802Y-655472D01*
X5904280Y-640994D01*
X5898032Y-627126D01*
X5890107Y-614121D01*
X5880709Y-602183D01*
X5873191Y-594664D01*
X5870803Y-590854D01*
X5870346Y-589534D01*
X5867247Y-584657D01*
X5863183Y-580542D01*
X5858256Y-577443D01*
X5852820Y-575564D01*
X5847791Y-575005D01*
X5844794Y-574141D01*
X5831078Y-568045D01*
X5816549Y-563524D01*
X5801614Y-560781D01*
X5786424Y-559917D01*
X5771286Y-560832D01*
X5756300Y-563626D01*
X5741822Y-568147D01*
X5728512Y-574141D01*
X5725464Y-575005D01*
X5720537Y-575564D01*
X5715101Y-577443D01*
X5710174Y-580542D01*
X5706110Y-584657D01*
X5703011Y-589534D01*
X5700217Y-594461D01*
X5692292Y-602437D01*
X5682894Y-614426D01*
X5675071Y-627481D01*
X5668873Y-641350D01*
X5664352Y-655878D01*
X5661609Y-670814D01*
X5660745Y-686308D01*
X5661710Y-1358798D01*
X5662676Y-1374089D01*
X5665419Y-1389024D01*
X5669940Y-1403553D01*
X5676188Y-1417421D01*
X5684062Y-1430426D01*
X5693410Y-1442364D01*
X5704179Y-1453134D01*
X5716117Y-1462481D01*
X5729122Y-1470355D01*
X5742990Y-1476603D01*
X5757519Y-1481124D01*
X5772454Y-1483868D01*
G37*
G36*
X4098544Y-1484782D02*
G01*
X4106164Y-1484579D01*
X4113733Y-1483868D01*
X4121251Y-1482750D01*
X4128668Y-1481124D01*
X4135983Y-1479092D01*
X4143197Y-1476603D01*
X4150207Y-1473708D01*
X4157065Y-1470406D01*
X4163669Y-1466646D01*
X4170070Y-1462532D01*
X4176166Y-1458010D01*
X4182008Y-1453134D01*
X4187698Y-1447800D01*
X4224578Y-1410919D01*
X4229912Y-1405229D01*
X4234789Y-1399387D01*
X4239310Y-1393291D01*
X4243425Y-1386890D01*
X4247184Y-1380286D01*
X4250486Y-1373428D01*
X4253382Y-1366418D01*
X4255871Y-1359204D01*
X4257903Y-1351889D01*
X4259529Y-1344472D01*
X4260646Y-1336954D01*
X4261358Y-1329385D01*
X4261612Y-1321612D01*
X4261612Y-736904D01*
X4260646Y-721410D01*
X4257903Y-706475D01*
X4253382Y-691946D01*
X4247134Y-678078D01*
X4239260Y-665073D01*
X4229912Y-653135D01*
X4222191Y-645363D01*
X4219752Y-641553D01*
X4219346Y-640334D01*
X4216247Y-635457D01*
X4212183Y-631342D01*
X4207256Y-628243D01*
X4201820Y-626364D01*
X4196842Y-625805D01*
X4193794Y-624941D01*
X4180332Y-618896D01*
X4165803Y-614375D01*
X4150868Y-611632D01*
X4135678Y-610717D01*
X4120489Y-611632D01*
X4105554Y-614375D01*
X4091025Y-618896D01*
X4077563Y-624941D01*
X4074515Y-625805D01*
X4069537Y-626364D01*
X4064101Y-628243D01*
X4059174Y-631342D01*
X4055110Y-635457D01*
X4052011Y-640334D01*
X4050588Y-643585D01*
X4049166Y-645363D01*
X4041444Y-653135D01*
X4032097Y-665073D01*
X4024223Y-678078D01*
X4017975Y-691946D01*
X4013454Y-706475D01*
X4010710Y-721410D01*
X4009796Y-736904D01*
X4009796Y-1265732D01*
X4008983Y-1269644D01*
X4006799Y-1272946D01*
X4004208Y-1275537D01*
X3999433Y-1281277D01*
X3994912Y-1287373D01*
X3990797Y-1293774D01*
X3987037Y-1300378D01*
X3983736Y-1307236D01*
X3980840Y-1314246D01*
X3978351Y-1321460D01*
X3976319Y-1328775D01*
X3974693Y-1336192D01*
X3973576Y-1343710D01*
X3972864Y-1351280D01*
X3972661Y-1358900D01*
X3972864Y-1366520D01*
X3973576Y-1374089D01*
X3974693Y-1381607D01*
X3976319Y-1389024D01*
X3978351Y-1396339D01*
X3980840Y-1403553D01*
X3983736Y-1410563D01*
X3987037Y-1417421D01*
X3990797Y-1424025D01*
X3994912Y-1430426D01*
X3999433Y-1436522D01*
X4004310Y-1442364D01*
X4009491Y-1447952D01*
X4015079Y-1453134D01*
X4020921Y-1458010D01*
X4027017Y-1462532D01*
X4033418Y-1466646D01*
X4040022Y-1470406D01*
X4046880Y-1473708D01*
X4053890Y-1476603D01*
X4061104Y-1479092D01*
X4068419Y-1481124D01*
X4075836Y-1482750D01*
X4083354Y-1483868D01*
X4090924Y-1484579D01*
G37*
G36*
X8703056Y-1472082D02*
G01*
X8718245Y-1471168D01*
X8733180Y-1468424D01*
X8747709Y-1463903D01*
X8761577Y-1457655D01*
X8774582Y-1449781D01*
X8786520Y-1440434D01*
X8797290Y-1429664D01*
X8806637Y-1417726D01*
X8814511Y-1404721D01*
X8820759Y-1390853D01*
X8825280Y-1376324D01*
X8828024Y-1361389D01*
X8828938Y-1346200D01*
X8828024Y-1331010D01*
X8825280Y-1316075D01*
X8820759Y-1301546D01*
X8814511Y-1287678D01*
X8806637Y-1274673D01*
X8797290Y-1262735D01*
X8786520Y-1251966D01*
X8774582Y-1242618D01*
X8761577Y-1234744D01*
X8747709Y-1228496D01*
X8733180Y-1223975D01*
X8718245Y-1221232D01*
X8703056Y-1220317D01*
X8687866Y-1221232D01*
X8672931Y-1223975D01*
X8658402Y-1228496D01*
X8644534Y-1234744D01*
X8631529Y-1242618D01*
X8619591Y-1251966D01*
X8608822Y-1262735D01*
X8599474Y-1274673D01*
X8591600Y-1287678D01*
X8585352Y-1301546D01*
X8580831Y-1316075D01*
X8578088Y-1331010D01*
X8577173Y-1346200D01*
X8578088Y-1361389D01*
X8580831Y-1376324D01*
X8585352Y-1390853D01*
X8591600Y-1404721D01*
X8599474Y-1417726D01*
X8608822Y-1429664D01*
X8619591Y-1440434D01*
X8631529Y-1449781D01*
X8644534Y-1457655D01*
X8658402Y-1463903D01*
X8672931Y-1468424D01*
X8687866Y-1471168D01*
G37*
G36*
X6925056Y-1472082D02*
G01*
X6940245Y-1471168D01*
X6955180Y-1468424D01*
X6969709Y-1463903D01*
X6983577Y-1457655D01*
X6996582Y-1449781D01*
X7008520Y-1440434D01*
X7019290Y-1429664D01*
X7028637Y-1417726D01*
X7036511Y-1404721D01*
X7042759Y-1390853D01*
X7047280Y-1376324D01*
X7050024Y-1361389D01*
X7050938Y-1346200D01*
X7050024Y-1331010D01*
X7047280Y-1316075D01*
X7042759Y-1301546D01*
X7036511Y-1287678D01*
X7028637Y-1274673D01*
X7019290Y-1262735D01*
X7008520Y-1251966D01*
X6996582Y-1242618D01*
X6983577Y-1234744D01*
X6969709Y-1228496D01*
X6955180Y-1223975D01*
X6940245Y-1221232D01*
X6925056Y-1220317D01*
X6909866Y-1221232D01*
X6894931Y-1223975D01*
X6880402Y-1228496D01*
X6866534Y-1234744D01*
X6853529Y-1242618D01*
X6841591Y-1251966D01*
X6830822Y-1262735D01*
X6821474Y-1274673D01*
X6813600Y-1287678D01*
X6807352Y-1301546D01*
X6802831Y-1316075D01*
X6800088Y-1331010D01*
X6799173Y-1346200D01*
X6800088Y-1361389D01*
X6802831Y-1376324D01*
X6807352Y-1390853D01*
X6813600Y-1404721D01*
X6821474Y-1417726D01*
X6830822Y-1429664D01*
X6841591Y-1440434D01*
X6853529Y-1449781D01*
X6866534Y-1457655D01*
X6880402Y-1463903D01*
X6894931Y-1468424D01*
X6909866Y-1471168D01*
G37*
G36*
X9203944Y-1472082D02*
G01*
X9211564Y-1471879D01*
X9219133Y-1471168D01*
X9226651Y-1470050D01*
X9234068Y-1468424D01*
X9241383Y-1466392D01*
X9248597Y-1463903D01*
X9255607Y-1461008D01*
X9262465Y-1457706D01*
X9269069Y-1453946D01*
X9275470Y-1449832D01*
X9281566Y-1445310D01*
X9287408Y-1440434D01*
X9292996Y-1435252D01*
X9298178Y-1429664D01*
X9303054Y-1423822D01*
X9307576Y-1417726D01*
X9311690Y-1411325D01*
X9315450Y-1404721D01*
X9318752Y-1397863D01*
X9321647Y-1390853D01*
X9324136Y-1383639D01*
X9326168Y-1376324D01*
X9327794Y-1368907D01*
X9328912Y-1361389D01*
X9329623Y-1353820D01*
X9329826Y-1346200D01*
X9329623Y-1338580D01*
X9328912Y-1331010D01*
X9327794Y-1323492D01*
X9326168Y-1316075D01*
X9324136Y-1308760D01*
X9321647Y-1301546D01*
X9318752Y-1294536D01*
X9315450Y-1287678D01*
X9311690Y-1281074D01*
X9307576Y-1274673D01*
X9303054Y-1268577D01*
X9298178Y-1262735D01*
X9292844Y-1257046D01*
X9255658Y-1219860D01*
X9253474Y-1216558D01*
X9252712Y-1212697D01*
X9252712Y-673404D01*
X9251746Y-657910D01*
X9249003Y-642975D01*
X9244482Y-628446D01*
X9238234Y-614578D01*
X9230360Y-601573D01*
X9221012Y-589635D01*
X9213291Y-581863D01*
X9210852Y-578053D01*
X9210446Y-576834D01*
X9207347Y-571957D01*
X9203283Y-567842D01*
X9198356Y-564743D01*
X9192920Y-562864D01*
X9187942Y-562305D01*
X9184894Y-561441D01*
X9171432Y-555396D01*
X9156903Y-550875D01*
X9141968Y-548132D01*
X9126778Y-547217D01*
X9111589Y-548132D01*
X9096654Y-550875D01*
X9082125Y-555396D01*
X9068663Y-561441D01*
X9065615Y-562305D01*
X9060637Y-562864D01*
X9055201Y-564743D01*
X9050274Y-567842D01*
X9046210Y-571957D01*
X9043111Y-576834D01*
X9041688Y-580085D01*
X9040266Y-581863D01*
X9032544Y-589635D01*
X9023197Y-601573D01*
X9015323Y-614578D01*
X9009075Y-628446D01*
X9004554Y-642975D01*
X9001810Y-657910D01*
X9000896Y-673404D01*
X9000896Y-1268882D01*
X9001099Y-1276654D01*
X9001810Y-1284224D01*
X9002928Y-1291742D01*
X9004554Y-1299159D01*
X9006586Y-1306474D01*
X9009075Y-1313688D01*
X9011970Y-1320698D01*
X9015272Y-1327556D01*
X9019032Y-1334160D01*
X9023146Y-1340561D01*
X9027668Y-1346657D01*
X9032544Y-1352499D01*
X9037878Y-1358188D01*
X9114790Y-1435100D01*
X9120479Y-1440434D01*
X9126321Y-1445310D01*
X9132417Y-1449832D01*
X9138818Y-1453946D01*
X9145422Y-1457706D01*
X9152280Y-1461008D01*
X9159290Y-1463903D01*
X9166504Y-1466392D01*
X9173819Y-1468424D01*
X9181236Y-1470050D01*
X9188754Y-1471168D01*
X9196324Y-1471879D01*
G37*
G36*
X12263424Y-963828D02*
G01*
X12290907Y-963828D01*
X12290907Y-915924D01*
X12236958Y-915924D01*
X12236958Y-937310D01*
X12237669Y-943660D01*
X12239548Y-949096D01*
X12242647Y-954024D01*
X12246711Y-958087D01*
X12251639Y-961186D01*
X12257074Y-963117D01*
G37*
G36*
X10481767Y-920242D02*
G01*
X10503204Y-920242D01*
X10509504Y-919530D01*
X10514990Y-917651D01*
X10519867Y-914552D01*
X10523982Y-910488D01*
X10527030Y-905560D01*
X10528960Y-900125D01*
X10529671Y-893775D01*
X10529671Y-866292D01*
X10481767Y-866292D01*
G37*
G36*
X10391089Y-920242D02*
G01*
X10412476Y-920242D01*
X10412476Y-866292D01*
X10364571Y-866292D01*
X10364571Y-893775D01*
X10365282Y-900125D01*
X10367213Y-905560D01*
X10370312Y-910488D01*
X10374376Y-914552D01*
X10379303Y-917651D01*
X10384739Y-919530D01*
G37*
G36*
X3771900Y-849782D02*
G01*
X3787089Y-848868D01*
X3795166Y-847547D01*
X3899712Y-847547D01*
X3906062Y-846836D01*
X3911498Y-844956D01*
X3916426Y-841857D01*
X3920490Y-837742D01*
X3923588Y-832866D01*
X3925519Y-827379D01*
X3926230Y-821080D01*
X3926230Y-652119D01*
X3925519Y-645820D01*
X3923588Y-640334D01*
X3920490Y-635457D01*
X3916426Y-631342D01*
X3911549Y-628294D01*
X3904691Y-625957D01*
X3901084Y-623824D01*
X3898646Y-620420D01*
X3897833Y-616356D01*
X3897833Y-422757D01*
X3898595Y-418896D01*
X3900779Y-415594D01*
X3904081Y-413359D01*
X3907993Y-412597D01*
X3923842Y-412597D01*
X3930142Y-411886D01*
X3935628Y-410006D01*
X3940505Y-406908D01*
X3944620Y-402793D01*
X3947668Y-397916D01*
X3949598Y-392430D01*
X3950309Y-386130D01*
X3950309Y-319938D01*
X3950970Y-316331D01*
X3952798Y-311556D01*
X3954881Y-308203D01*
X3958082Y-305917D01*
X3961993Y-305003D01*
X3965854Y-305663D01*
X3969258Y-307797D01*
X3971544Y-310997D01*
X3973576Y-315569D01*
X3974490Y-319735D01*
X3974490Y-386130D01*
X3975201Y-392430D01*
X3977132Y-397916D01*
X3980179Y-402793D01*
X3984294Y-406908D01*
X3989171Y-410006D01*
X3994658Y-411886D01*
X4000957Y-412597D01*
X4177842Y-412597D01*
X4184142Y-411886D01*
X4189628Y-410006D01*
X4194505Y-406908D01*
X4198620Y-402793D01*
X4201668Y-397916D01*
X4203598Y-392430D01*
X4204309Y-386130D01*
X4204309Y-319735D01*
X4205224Y-315569D01*
X4207103Y-311353D01*
X4208627Y-306476D01*
X4210608Y-302869D01*
X4213860Y-300380D01*
X4217822Y-299313D01*
X4221835Y-299923D01*
X4225340Y-302107D01*
X4227677Y-305460D01*
X4228490Y-309473D01*
X4228490Y-386130D01*
X4229201Y-392430D01*
X4231132Y-397916D01*
X4234180Y-402793D01*
X4238294Y-406908D01*
X4243171Y-410006D01*
X4248658Y-411886D01*
X4254957Y-412597D01*
X4431842Y-412597D01*
X4438142Y-411886D01*
X4443628Y-410006D01*
X4448505Y-406908D01*
X4452620Y-402793D01*
X4455668Y-397916D01*
X4457598Y-392430D01*
X4458309Y-386130D01*
X4458309Y-147269D01*
X4457598Y-140970D01*
X4455668Y-135483D01*
X4452620Y-130606D01*
X4448505Y-126492D01*
X4443628Y-123393D01*
X4438142Y-121513D01*
X4431842Y-120802D01*
X4254957Y-120802D01*
X4248658Y-121513D01*
X4243171Y-123393D01*
X4238294Y-126492D01*
X4231030Y-133858D01*
X4226966Y-135432D01*
X4222648Y-135128D01*
X4218838Y-133096D01*
X4216247Y-129590D01*
X4215333Y-125374D01*
X4215333Y-72593D01*
X4216095Y-68681D01*
X4218279Y-65379D01*
X4221581Y-63195D01*
X4225493Y-62433D01*
X5584342Y-62433D01*
X5588152Y-63144D01*
X5591403Y-65227D01*
X5593638Y-68427D01*
X5594502Y-72186D01*
X5596229Y-119024D01*
X5595569Y-122986D01*
X5593435Y-126390D01*
X5590133Y-128727D01*
X5586222Y-129539D01*
X5582259Y-128828D01*
X5573928Y-123393D01*
X5568442Y-121513D01*
X5562142Y-120802D01*
X5385257Y-120802D01*
X5378958Y-121513D01*
X5373471Y-123393D01*
X5368594Y-126492D01*
X5364480Y-130606D01*
X5361432Y-135483D01*
X5359501Y-140970D01*
X5358790Y-147269D01*
X5358790Y-213664D01*
X5357876Y-217830D01*
X5355996Y-222046D01*
X5351475Y-236575D01*
X5348732Y-251510D01*
X5347817Y-267004D01*
X5347817Y-685495D01*
X5348732Y-700989D01*
X5351475Y-715924D01*
X5355996Y-730453D01*
X5362244Y-744321D01*
X5370118Y-757326D01*
X5379466Y-769264D01*
X5390235Y-780034D01*
X5402173Y-789381D01*
X5415178Y-797255D01*
X5429046Y-803503D01*
X5443575Y-808024D01*
X5458510Y-810768D01*
X5474004Y-811733D01*
X5490667Y-811733D01*
X5506161Y-810768D01*
X5521096Y-808024D01*
X5535625Y-803503D01*
X5549138Y-797407D01*
X5552135Y-796594D01*
X5557062Y-796036D01*
X5562498Y-794156D01*
X5567426Y-791057D01*
X5571490Y-786942D01*
X5574588Y-782066D01*
X5575960Y-778865D01*
X5577382Y-777087D01*
X5585206Y-769264D01*
X5594553Y-757326D01*
X5602427Y-744321D01*
X5608675Y-730453D01*
X5613196Y-715924D01*
X5615940Y-700989D01*
X5616854Y-685800D01*
X5615940Y-670610D01*
X5613196Y-655675D01*
X5608675Y-641146D01*
X5602427Y-627278D01*
X5599988Y-622503D01*
X5599633Y-619760D01*
X5599633Y-408025D01*
X5600547Y-403809D01*
X5603138Y-400304D01*
X5606948Y-398272D01*
X5611266Y-397967D01*
X5615330Y-399542D01*
X5622594Y-406908D01*
X5627471Y-410006D01*
X5632958Y-411886D01*
X5639257Y-412597D01*
X5816142Y-412597D01*
X5822442Y-411886D01*
X5827928Y-410006D01*
X5832805Y-406908D01*
X5836920Y-402793D01*
X5839968Y-397916D01*
X5841898Y-392430D01*
X5842609Y-386130D01*
X5842609Y-319684D01*
X5843371Y-315874D01*
X5847232Y-306374D01*
X5849416Y-303022D01*
X5852718Y-300837D01*
X5856579Y-300024D01*
X5860491Y-300786D01*
X5863793Y-302971D01*
X5866028Y-306273D01*
X5866790Y-310184D01*
X5866790Y-386130D01*
X5867501Y-392430D01*
X5869432Y-397916D01*
X5872480Y-402793D01*
X5876594Y-406908D01*
X5881471Y-410006D01*
X5886958Y-411886D01*
X5893257Y-412597D01*
X6070142Y-412597D01*
X6076442Y-411886D01*
X6081928Y-410006D01*
X6086805Y-406908D01*
X6090920Y-402793D01*
X6093968Y-397916D01*
X6095898Y-392430D01*
X6096609Y-386130D01*
X6096609Y-147269D01*
X6095898Y-140970D01*
X6093968Y-135483D01*
X6090920Y-130606D01*
X6086805Y-126492D01*
X6081928Y-123393D01*
X6076442Y-121513D01*
X6070142Y-120802D01*
X5893257Y-120802D01*
X5886958Y-121513D01*
X5881471Y-123393D01*
X5876594Y-126492D01*
X5872480Y-130606D01*
X5869432Y-135483D01*
X5868568Y-137922D01*
X5866536Y-141376D01*
X5863336Y-143764D01*
X5859475Y-144729D01*
X5855512Y-144119D01*
X5852109Y-142087D01*
X5849721Y-138836D01*
X5848807Y-134975D01*
X5846521Y-72948D01*
X5847181Y-68935D01*
X5849366Y-65532D01*
X5852718Y-63195D01*
X5856681Y-62433D01*
X7186168Y-62433D01*
X7190028Y-63195D01*
X7193330Y-65379D01*
X7195515Y-68681D01*
X7196328Y-72593D01*
X7195515Y-76454D01*
X7190231Y-84683D01*
X7188301Y-90170D01*
X7187742Y-94996D01*
X7186625Y-98653D01*
X7184136Y-101650D01*
X7180783Y-103530D01*
X7176922Y-103987D01*
X7165086Y-103124D01*
X7148169Y-103835D01*
X7131456Y-106426D01*
X7115098Y-110845D01*
X7099401Y-117094D01*
X7084212Y-125171D01*
X6985660Y-185064D01*
X6971639Y-195021D01*
X6959041Y-206298D01*
X6947763Y-218897D01*
X6937959Y-232714D01*
X6929780Y-247497D01*
X6923278Y-263144D01*
X6918604Y-279400D01*
X6915759Y-296062D01*
X6914794Y-313283D01*
X6914794Y-634695D01*
X6915759Y-651916D01*
X6918604Y-668578D01*
X6923278Y-684834D01*
X6929780Y-700481D01*
X6937959Y-715264D01*
X6947763Y-729081D01*
X6959041Y-741680D01*
X6971639Y-752957D01*
X6985457Y-762762D01*
X7000240Y-770940D01*
X7015886Y-777443D01*
X7032142Y-782116D01*
X7048804Y-784961D01*
X7065721Y-785876D01*
X7082637Y-784961D01*
X7099300Y-782116D01*
X7115556Y-777443D01*
X7131202Y-770940D01*
X7145985Y-762762D01*
X7159802Y-752957D01*
X7172401Y-741680D01*
X7183678Y-729081D01*
X7193483Y-715264D01*
X7201662Y-700481D01*
X7208164Y-684834D01*
X7212838Y-668578D01*
X7215682Y-651916D01*
X7216648Y-634695D01*
X7216648Y-403606D01*
X7217206Y-400202D01*
X7218934Y-397154D01*
X7221524Y-394919D01*
X7240930Y-383133D01*
X7255103Y-373380D01*
X7265568Y-364286D01*
X7268667Y-362458D01*
X7272223Y-361797D01*
X7390942Y-361797D01*
X7397242Y-361086D01*
X7402728Y-359206D01*
X7407605Y-356108D01*
X7411720Y-351993D01*
X7414768Y-347116D01*
X7416698Y-341630D01*
X7417409Y-335330D01*
X7417409Y-258927D01*
X7418222Y-255016D01*
X7420457Y-251714D01*
X7423810Y-249529D01*
X7427722Y-248818D01*
X7431633Y-249631D01*
X7434935Y-251967D01*
X7437069Y-255371D01*
X7440930Y-265531D01*
X7441590Y-269138D01*
X7441590Y-335330D01*
X7442301Y-341630D01*
X7444231Y-347116D01*
X7447280Y-351993D01*
X7451394Y-356108D01*
X7456271Y-359206D01*
X7461758Y-361086D01*
X7468057Y-361797D01*
X7644942Y-361797D01*
X7651242Y-361086D01*
X7656728Y-359206D01*
X7661605Y-356108D01*
X7665720Y-351993D01*
X7668768Y-347116D01*
X7670698Y-341630D01*
X7671409Y-335330D01*
X7671409Y-274472D01*
X7671714Y-272034D01*
X7672578Y-269748D01*
X7676438Y-262382D01*
X7679334Y-258978D01*
X7683398Y-257149D01*
X7687868Y-257251D01*
X7691831Y-259232D01*
X7694625Y-262737D01*
X7695590Y-267106D01*
X7695590Y-335330D01*
X7696301Y-341630D01*
X7698231Y-347116D01*
X7701280Y-351993D01*
X7705394Y-356108D01*
X7710271Y-359206D01*
X7715758Y-361086D01*
X7722057Y-361797D01*
X7898942Y-361797D01*
X7905242Y-361086D01*
X7910728Y-359206D01*
X7915605Y-356108D01*
X7919720Y-351993D01*
X7922768Y-347116D01*
X7924698Y-341630D01*
X7925409Y-335330D01*
X7925409Y-96469D01*
X7924698Y-90170D01*
X7922768Y-84683D01*
X7917484Y-76454D01*
X7916672Y-72593D01*
X7917484Y-68681D01*
X7919669Y-65379D01*
X7922971Y-63195D01*
X7926831Y-62433D01*
X8748268Y-62433D01*
X8752128Y-63195D01*
X8755430Y-65379D01*
X8757615Y-68681D01*
X8758428Y-72593D01*
X8757615Y-76454D01*
X8752332Y-84683D01*
X8750401Y-90170D01*
X8749690Y-96469D01*
X8749690Y-148539D01*
X8748928Y-152450D01*
X8746693Y-155702D01*
X8736787Y-166014D01*
X8731910Y-171856D01*
X8727389Y-177952D01*
X8723274Y-184353D01*
X8719515Y-190957D01*
X8716213Y-197815D01*
X8713317Y-204825D01*
X8710828Y-212039D01*
X8708796Y-219354D01*
X8707170Y-226771D01*
X8706053Y-234289D01*
X8705342Y-241858D01*
X8705138Y-249631D01*
X8705138Y-672795D01*
X8706053Y-688289D01*
X8708796Y-703224D01*
X8713317Y-717753D01*
X8719566Y-731621D01*
X8727440Y-744626D01*
X8736787Y-756564D01*
X8744508Y-764336D01*
X8746947Y-768146D01*
X8747353Y-769366D01*
X8750452Y-774242D01*
X8754516Y-778357D01*
X8759444Y-781456D01*
X8764879Y-783336D01*
X8769858Y-783894D01*
X8772906Y-784758D01*
X8786368Y-790803D01*
X8800896Y-795324D01*
X8815832Y-798068D01*
X8831021Y-798982D01*
X8846210Y-798068D01*
X8861145Y-795324D01*
X8875674Y-790803D01*
X8889136Y-784758D01*
X8892184Y-783894D01*
X8897162Y-783336D01*
X8902598Y-781456D01*
X8907526Y-778357D01*
X8911590Y-774242D01*
X8914688Y-769366D01*
X8916111Y-766114D01*
X8917533Y-764336D01*
X8925255Y-756564D01*
X8934602Y-744626D01*
X8942476Y-731621D01*
X8948724Y-717753D01*
X8953246Y-703224D01*
X8955989Y-688289D01*
X8956954Y-672795D01*
X8956954Y-369163D01*
X8957767Y-365099D01*
X8960154Y-361696D01*
X8964828Y-359206D01*
X8969705Y-356108D01*
X8973820Y-351993D01*
X8976868Y-347116D01*
X8978798Y-341630D01*
X8979509Y-335330D01*
X8979509Y-269138D01*
X8980170Y-265531D01*
X8981998Y-260756D01*
X8984081Y-257403D01*
X8987282Y-255117D01*
X8991193Y-254203D01*
X8995054Y-254863D01*
X8998458Y-256997D01*
X9000744Y-260197D01*
X9002776Y-264769D01*
X9003690Y-268935D01*
X9003690Y-335330D01*
X9004401Y-341630D01*
X9006332Y-347116D01*
X9009380Y-351993D01*
X9013494Y-356108D01*
X9018371Y-359206D01*
X9023858Y-361086D01*
X9030157Y-361797D01*
X9207042Y-361797D01*
X9213342Y-361086D01*
X9218828Y-359206D01*
X9223705Y-356108D01*
X9227820Y-351993D01*
X9230868Y-347116D01*
X9232798Y-341630D01*
X9233509Y-335330D01*
X9233509Y-268935D01*
X9234424Y-264769D01*
X9236303Y-260553D01*
X9237827Y-255676D01*
X9239808Y-252069D01*
X9243060Y-249580D01*
X9247022Y-248513D01*
X9251035Y-249123D01*
X9254540Y-251307D01*
X9256877Y-254660D01*
X9257690Y-258673D01*
X9257690Y-335330D01*
X9258401Y-341630D01*
X9260332Y-347116D01*
X9263380Y-351993D01*
X9267494Y-356108D01*
X9272371Y-359206D01*
X9277858Y-361086D01*
X9284157Y-361797D01*
X9461042Y-361797D01*
X9467342Y-361086D01*
X9472828Y-359206D01*
X9477705Y-356108D01*
X9481820Y-351993D01*
X9484868Y-347116D01*
X9486798Y-341630D01*
X9487509Y-335330D01*
X9487509Y-96469D01*
X9486798Y-90170D01*
X9484868Y-84683D01*
X9481820Y-79806D01*
X9477705Y-75692D01*
X9472828Y-72593D01*
X9467342Y-70713D01*
X9461042Y-70002D01*
X9284157Y-70002D01*
X9277858Y-70713D01*
X9272371Y-72593D01*
X9267494Y-75692D01*
X9260230Y-83058D01*
X9256166Y-84632D01*
X9251848Y-84328D01*
X9248038Y-82296D01*
X9245447Y-78790D01*
X9244533Y-74574D01*
X9244533Y63195D01*
X9243568Y78689D01*
X9240824Y93624D01*
X9236303Y108153D01*
X9230055Y122021D01*
X9222181Y135026D01*
X9212834Y146964D01*
X9202064Y157734D01*
X9190126Y167081D01*
X9177121Y174955D01*
X9163253Y181203D01*
X9148724Y185724D01*
X9133789Y188468D01*
X9118295Y189382D01*
X5772200Y189382D01*
X5768136Y190246D01*
X5759500Y193954D01*
X5755386Y195478D01*
X5745022Y198475D01*
X5740704Y199440D01*
X5730036Y201218D01*
X5725668Y201676D01*
X5714898Y202082D01*
X5710478Y202031D01*
X5699709Y201168D01*
X5695340Y200558D01*
X5684774Y198424D01*
X5680456Y197256D01*
X5670245Y193903D01*
X5660390Y189687D01*
X5658053Y189382D01*
X4089704Y189382D01*
X4074210Y188468D01*
X4059275Y185724D01*
X4044746Y181203D01*
X4036771Y177596D01*
X4032554Y176682D01*
X2679852Y176682D01*
X2672080Y176479D01*
X2664510Y175768D01*
X2656992Y174650D01*
X2649575Y173024D01*
X2642260Y170992D01*
X2635046Y168503D01*
X2628036Y165608D01*
X2621178Y162306D01*
X2614574Y158546D01*
X2608173Y154432D01*
X2602077Y149910D01*
X2596235Y145034D01*
X2590546Y139700D01*
X2311400Y-139446D01*
X2306066Y-145135D01*
X2301189Y-150977D01*
X2296668Y-157073D01*
X2292553Y-163474D01*
X2288794Y-170078D01*
X2285492Y-176936D01*
X2282596Y-183946D01*
X2280107Y-191160D01*
X2278075Y-198475D01*
X2276449Y-205892D01*
X2275332Y-213410D01*
X2274620Y-220979D01*
X2274366Y-228752D01*
X2274366Y-558495D01*
X2275332Y-573989D01*
X2278075Y-588924D01*
X2282596Y-603453D01*
X2288844Y-617321D01*
X2296718Y-630326D01*
X2306066Y-642264D01*
X2316835Y-653034D01*
X2328773Y-662381D01*
X2341778Y-670255D01*
X2355646Y-676503D01*
X2370175Y-681024D01*
X2385110Y-683768D01*
X2400300Y-684682D01*
X2415489Y-683768D01*
X2430424Y-681024D01*
X2444953Y-676503D01*
X2458821Y-670255D01*
X2471826Y-662381D01*
X2483764Y-653034D01*
X2494534Y-642264D01*
X2503881Y-630326D01*
X2511755Y-617321D01*
X2518003Y-603453D01*
X2522524Y-588924D01*
X2525268Y-573989D01*
X2526233Y-558495D01*
X2526233Y-284937D01*
X2526995Y-281076D01*
X2529179Y-277774D01*
X2728874Y-78079D01*
X2732176Y-75895D01*
X2736037Y-75133D01*
X3953357Y-75133D01*
X3957218Y-75895D01*
X3960520Y-78079D01*
X3962704Y-81381D01*
X3963466Y-85293D01*
X3963466Y-125374D01*
X3962552Y-129590D01*
X3959961Y-133096D01*
X3956151Y-135128D01*
X3951833Y-135432D01*
X3947769Y-133858D01*
X3940505Y-126492D01*
X3935628Y-123393D01*
X3930142Y-121513D01*
X3923842Y-120802D01*
X3746957Y-120802D01*
X3740658Y-121513D01*
X3735171Y-123393D01*
X3730294Y-126492D01*
X3726179Y-130606D01*
X3723132Y-135483D01*
X3721201Y-140970D01*
X3720490Y-147269D01*
X3720490Y-199339D01*
X3719728Y-203250D01*
X3717493Y-206502D01*
X3683000Y-241046D01*
X3677665Y-246735D01*
X3672789Y-252577D01*
X3668268Y-258673D01*
X3664153Y-265074D01*
X3660394Y-271678D01*
X3657092Y-278536D01*
X3654196Y-285546D01*
X3651707Y-292760D01*
X3649675Y-300075D01*
X3648049Y-307492D01*
X3646932Y-315010D01*
X3646220Y-322580D01*
X3645966Y-330352D01*
X3645966Y-723595D01*
X3646932Y-739089D01*
X3649675Y-754024D01*
X3654196Y-768553D01*
X3660444Y-782421D01*
X3668318Y-795426D01*
X3677665Y-807364D01*
X3688435Y-818134D01*
X3700373Y-827481D01*
X3713378Y-835355D01*
X3727246Y-841603D01*
X3741775Y-846124D01*
X3756710Y-848868D01*
G37*
G36*
X12372492Y-846632D02*
G01*
X12426442Y-846632D01*
X12426442Y-825195D01*
X12425730Y-818896D01*
X12423851Y-813409D01*
X12420752Y-808532D01*
X12416688Y-804418D01*
X12411760Y-801370D01*
X12406325Y-799439D01*
X12399975Y-798728D01*
X12372492Y-798728D01*
G37*
G36*
X12236958Y-846632D02*
G01*
X12290907Y-846632D01*
X12290907Y-798728D01*
X12263424Y-798728D01*
X12257074Y-799439D01*
X12251639Y-801370D01*
X12246711Y-804418D01*
X12242647Y-808532D01*
X12239548Y-813409D01*
X12237669Y-818896D01*
X12236958Y-825195D01*
G37*
G36*
X10481767Y-784707D02*
G01*
X10529671Y-784707D01*
X10529671Y-757224D01*
X10528960Y-750874D01*
X10527030Y-745439D01*
X10523982Y-740511D01*
X10519867Y-736447D01*
X10514990Y-733348D01*
X10509504Y-731469D01*
X10503204Y-730758D01*
X10481767Y-730758D01*
G37*
G36*
X10364571Y-784707D02*
G01*
X10412476Y-784707D01*
X10412476Y-730758D01*
X10391089Y-730758D01*
X10384739Y-731469D01*
X10379303Y-733348D01*
X10374376Y-736447D01*
X10370312Y-740511D01*
X10367213Y-745439D01*
X10365282Y-750874D01*
X10364571Y-757224D01*
G37*
G36*
X3809695Y908558D02*
G01*
X3831132Y908558D01*
X3831132Y962507D01*
X3783228Y962507D01*
X3783228Y935024D01*
X3783939Y928674D01*
X3785870Y923239D01*
X3788918Y918311D01*
X3793032Y914247D01*
X3797909Y911148D01*
X3803396Y909269D01*
G37*
G36*
X3900424Y1044092D02*
G01*
X3948328Y1044092D01*
X3948328Y1071575D01*
X3947617Y1077925D01*
X3945686Y1083360D01*
X3942587Y1088288D01*
X3938524Y1092352D01*
X3933596Y1095451D01*
X3928160Y1097330D01*
X3921810Y1098042D01*
X3900424Y1098042D01*
G37*
G36*
X3783228Y1044092D02*
G01*
X3831132Y1044092D01*
X3831132Y1098042D01*
X3809695Y1098042D01*
X3803396Y1097330D01*
X3797909Y1095451D01*
X3793032Y1092352D01*
X3788918Y1088288D01*
X3785870Y1083360D01*
X3783939Y1077925D01*
X3783228Y1071575D01*
G37*
G36*
X4915763Y1474165D02*
G01*
X4933340Y1474165D01*
X4950917Y1476044D01*
X4968138Y1479753D01*
X4984851Y1485290D01*
X5000904Y1492554D01*
X5016093Y1501495D01*
X5030216Y1512011D01*
X5043170Y1524000D01*
X5054803Y1537258D01*
X5064912Y1551686D01*
X5073497Y1567078D01*
X5080304Y1583334D01*
X5085435Y1600200D01*
X5088686Y1617522D01*
X5090109Y1635099D01*
X5089601Y1652727D01*
X5087264Y1670202D01*
X5083098Y1687322D01*
X5077104Y1703882D01*
X5069382Y1719732D01*
X5060035Y1734667D01*
X5049164Y1748536D01*
X5036870Y1761185D01*
X5023307Y1772412D01*
X5008626Y1782165D01*
X4992979Y1790293D01*
X4976571Y1796745D01*
X4959553Y1801368D01*
X4942128Y1804162D01*
X4924552Y1805076D01*
X4906975Y1804162D01*
X4889550Y1801368D01*
X4872532Y1796745D01*
X4856124Y1790293D01*
X4840478Y1782165D01*
X4825796Y1772412D01*
X4812233Y1761185D01*
X4799939Y1748536D01*
X4789068Y1734667D01*
X4779721Y1719732D01*
X4771999Y1703882D01*
X4766005Y1687322D01*
X4761839Y1670202D01*
X4759502Y1652727D01*
X4758994Y1635099D01*
X4760417Y1617522D01*
X4763668Y1600200D01*
X4768799Y1583334D01*
X4775657Y1567078D01*
X4784191Y1551686D01*
X4794300Y1537258D01*
X4805934Y1524000D01*
X4818888Y1512011D01*
X4833010Y1501495D01*
X4848199Y1492554D01*
X4864252Y1485290D01*
X4880965Y1479753D01*
X4898237Y1476044D01*
G37*
G36*
X6115659Y1474165D02*
G01*
X6133236Y1474165D01*
X6150813Y1475994D01*
X6168034Y1479753D01*
X6184747Y1485290D01*
X6200800Y1492554D01*
X6215989Y1501495D01*
X6230112Y1512011D01*
X6243066Y1524000D01*
X6254699Y1537258D01*
X6264808Y1551686D01*
X6273393Y1567078D01*
X6280200Y1583334D01*
X6285331Y1600200D01*
X6288582Y1617522D01*
X6290005Y1635099D01*
X6289497Y1652727D01*
X6287160Y1670202D01*
X6282994Y1687322D01*
X6277000Y1703882D01*
X6269278Y1719732D01*
X6259931Y1734667D01*
X6249060Y1748536D01*
X6236766Y1761185D01*
X6223203Y1772412D01*
X6208522Y1782165D01*
X6192875Y1790293D01*
X6176467Y1796694D01*
X6159449Y1801368D01*
X6142024Y1804162D01*
X6124448Y1805076D01*
X6106871Y1804162D01*
X6089446Y1801368D01*
X6072428Y1796694D01*
X6056020Y1790293D01*
X6040374Y1782165D01*
X6025692Y1772412D01*
X6012129Y1761185D01*
X5999835Y1748536D01*
X5988964Y1734667D01*
X5979617Y1719732D01*
X5971895Y1703882D01*
X5965901Y1687322D01*
X5961735Y1670202D01*
X5959398Y1652727D01*
X5958890Y1635099D01*
X5960313Y1617522D01*
X5963564Y1600200D01*
X5968695Y1583334D01*
X5975553Y1567078D01*
X5984087Y1551686D01*
X5994196Y1537258D01*
X6005830Y1524000D01*
X6018784Y1512011D01*
X6032906Y1501495D01*
X6048095Y1492554D01*
X6064148Y1485290D01*
X6080861Y1479753D01*
X6098133Y1475994D01*
G37*
G36*
X9633559Y1486865D02*
G01*
X9651136Y1486865D01*
X9668713Y1488694D01*
X9685934Y1492453D01*
X9702647Y1497990D01*
X9718700Y1505254D01*
X9733889Y1514195D01*
X9748012Y1524711D01*
X9760966Y1536700D01*
X9772599Y1549958D01*
X9782708Y1564386D01*
X9791293Y1579778D01*
X9798100Y1596034D01*
X9803231Y1612900D01*
X9806482Y1630222D01*
X9807905Y1647799D01*
X9807397Y1665427D01*
X9805060Y1682902D01*
X9800894Y1700022D01*
X9794900Y1716582D01*
X9787178Y1732432D01*
X9777831Y1747367D01*
X9766960Y1761236D01*
X9754666Y1773885D01*
X9741103Y1785112D01*
X9726422Y1794865D01*
X9710775Y1802993D01*
X9694367Y1809394D01*
X9677349Y1814068D01*
X9659924Y1816862D01*
X9642348Y1817776D01*
X9624771Y1816862D01*
X9607346Y1814068D01*
X9590328Y1809394D01*
X9573920Y1802993D01*
X9558274Y1794865D01*
X9543592Y1785112D01*
X9530029Y1773885D01*
X9517735Y1761236D01*
X9506864Y1747367D01*
X9497517Y1732432D01*
X9489795Y1716582D01*
X9483801Y1700022D01*
X9479635Y1682902D01*
X9477298Y1665427D01*
X9476790Y1647799D01*
X9478213Y1630222D01*
X9481464Y1612900D01*
X9486595Y1596034D01*
X9493453Y1579778D01*
X9501987Y1564386D01*
X9512096Y1549958D01*
X9523730Y1536700D01*
X9536684Y1524711D01*
X9550806Y1514195D01*
X9565995Y1505254D01*
X9582048Y1497990D01*
X9598761Y1492453D01*
X9616033Y1488694D01*
G37*
G36*
X3201263Y1486865D02*
G01*
X3218840Y1486865D01*
X3236417Y1488744D01*
X3253638Y1492453D01*
X3270351Y1497990D01*
X3286404Y1505254D01*
X3301593Y1514195D01*
X3315715Y1524711D01*
X3328670Y1536700D01*
X3340303Y1549958D01*
X3350412Y1564386D01*
X3358997Y1579778D01*
X3365804Y1596034D01*
X3370935Y1612900D01*
X3374186Y1630222D01*
X3375609Y1647799D01*
X3375101Y1665427D01*
X3372764Y1682902D01*
X3368598Y1700022D01*
X3362604Y1716582D01*
X3354882Y1732432D01*
X3345535Y1747367D01*
X3334664Y1761236D01*
X3322370Y1773885D01*
X3308807Y1785112D01*
X3294126Y1794865D01*
X3278479Y1802993D01*
X3262071Y1809445D01*
X3245053Y1814068D01*
X3227628Y1816862D01*
X3210052Y1817776D01*
X3192475Y1816862D01*
X3175050Y1814068D01*
X3158032Y1809445D01*
X3141624Y1802993D01*
X3125978Y1794865D01*
X3111296Y1785112D01*
X3097733Y1773885D01*
X3085439Y1761236D01*
X3074568Y1747367D01*
X3065221Y1732432D01*
X3057499Y1716582D01*
X3051505Y1700022D01*
X3047339Y1682902D01*
X3045002Y1665427D01*
X3044494Y1647799D01*
X3045917Y1630222D01*
X3049168Y1612900D01*
X3054299Y1596034D01*
X3061157Y1579778D01*
X3069691Y1564386D01*
X3079800Y1549958D01*
X3091434Y1536700D01*
X3104388Y1524711D01*
X3118510Y1514195D01*
X3133699Y1505254D01*
X3149752Y1497990D01*
X3166465Y1492453D01*
X3183737Y1488744D01*
G37*
G36*
X8433663Y1486865D02*
G01*
X8451240Y1486865D01*
X8468817Y1488744D01*
X8486038Y1492453D01*
X8502751Y1497990D01*
X8518804Y1505254D01*
X8533993Y1514195D01*
X8548116Y1524711D01*
X8561070Y1536700D01*
X8572703Y1549958D01*
X8582812Y1564386D01*
X8591397Y1579778D01*
X8598204Y1596034D01*
X8603335Y1612900D01*
X8606586Y1630222D01*
X8608009Y1647799D01*
X8607501Y1665427D01*
X8605164Y1682902D01*
X8600998Y1700022D01*
X8595004Y1716582D01*
X8587282Y1732432D01*
X8577935Y1747367D01*
X8567064Y1761236D01*
X8554770Y1773885D01*
X8541207Y1785112D01*
X8526526Y1794865D01*
X8510879Y1802993D01*
X8494471Y1809445D01*
X8477453Y1814068D01*
X8460028Y1816862D01*
X8442452Y1817776D01*
X8424875Y1816862D01*
X8407450Y1814068D01*
X8390432Y1809445D01*
X8374024Y1802993D01*
X8358378Y1794865D01*
X8343696Y1785112D01*
X8330133Y1773885D01*
X8317839Y1761236D01*
X8306968Y1747367D01*
X8297621Y1732432D01*
X8289899Y1716582D01*
X8283905Y1700022D01*
X8279739Y1682902D01*
X8277402Y1665427D01*
X8276894Y1647799D01*
X8278317Y1630222D01*
X8281568Y1612900D01*
X8286699Y1596034D01*
X8293557Y1579778D01*
X8302091Y1564386D01*
X8312200Y1549958D01*
X8323834Y1536700D01*
X8336788Y1524711D01*
X8350910Y1514195D01*
X8366099Y1505254D01*
X8382152Y1497990D01*
X8398865Y1492453D01*
X8416137Y1488744D01*
G37*
G36*
X4401159Y1486865D02*
G01*
X4418736Y1486865D01*
X4436313Y1488694D01*
X4453534Y1492453D01*
X4470247Y1497990D01*
X4486300Y1505254D01*
X4501489Y1514195D01*
X4515612Y1524711D01*
X4528566Y1536700D01*
X4540199Y1549958D01*
X4550308Y1564386D01*
X4558893Y1579778D01*
X4565700Y1596034D01*
X4570831Y1612900D01*
X4574082Y1630222D01*
X4575505Y1647799D01*
X4574997Y1665427D01*
X4572660Y1682902D01*
X4568494Y1700022D01*
X4562500Y1716582D01*
X4554778Y1732432D01*
X4545431Y1747367D01*
X4534560Y1761236D01*
X4522266Y1773885D01*
X4508703Y1785112D01*
X4494022Y1794865D01*
X4478375Y1802993D01*
X4461967Y1809394D01*
X4444949Y1814068D01*
X4427524Y1816862D01*
X4409948Y1817776D01*
X4392371Y1816862D01*
X4374946Y1814068D01*
X4357928Y1809394D01*
X4341520Y1802993D01*
X4325874Y1794865D01*
X4311192Y1785112D01*
X4297629Y1773885D01*
X4285335Y1761236D01*
X4274464Y1747367D01*
X4265117Y1732432D01*
X4257395Y1716582D01*
X4251401Y1700022D01*
X4247235Y1682902D01*
X4244898Y1665427D01*
X4244390Y1647799D01*
X4245813Y1630222D01*
X4249064Y1612900D01*
X4254195Y1596034D01*
X4261002Y1579778D01*
X4269587Y1564386D01*
X4279696Y1549958D01*
X4291330Y1536700D01*
X4304284Y1524711D01*
X4318406Y1514195D01*
X4333595Y1505254D01*
X4349648Y1497990D01*
X4366361Y1492453D01*
X4383582Y1488694D01*
G37*
G36*
X7893659Y1499565D02*
G01*
X7911236Y1499565D01*
X7928813Y1501394D01*
X7946034Y1505153D01*
X7962747Y1510690D01*
X7978800Y1517954D01*
X7993989Y1526895D01*
X8008112Y1537411D01*
X8021066Y1549400D01*
X8032699Y1562658D01*
X8042808Y1577086D01*
X8051393Y1592478D01*
X8058200Y1608734D01*
X8063331Y1625600D01*
X8066582Y1642922D01*
X8068005Y1660499D01*
X8067497Y1678127D01*
X8065160Y1695602D01*
X8060994Y1712722D01*
X8055000Y1729282D01*
X8047278Y1745132D01*
X8037931Y1760067D01*
X8027060Y1773936D01*
X8014766Y1786585D01*
X8001203Y1797812D01*
X7986522Y1807565D01*
X7970875Y1815693D01*
X7954467Y1822094D01*
X7937449Y1826768D01*
X7920024Y1829562D01*
X7902448Y1830476D01*
X7884871Y1829562D01*
X7867446Y1826768D01*
X7850428Y1822094D01*
X7834020Y1815693D01*
X7818374Y1807565D01*
X7803692Y1797812D01*
X7790129Y1786585D01*
X7777835Y1773936D01*
X7766964Y1760067D01*
X7757617Y1745132D01*
X7749895Y1729282D01*
X7743901Y1712722D01*
X7739735Y1695602D01*
X7737398Y1678127D01*
X7736890Y1660499D01*
X7738313Y1642922D01*
X7741564Y1625600D01*
X7746695Y1608734D01*
X7753553Y1592478D01*
X7762087Y1577086D01*
X7772196Y1562658D01*
X7783830Y1549400D01*
X7796784Y1537411D01*
X7810906Y1526895D01*
X7826095Y1517954D01*
X7842148Y1510690D01*
X7858861Y1505153D01*
X7876133Y1501394D01*
G37*
G36*
X6693763Y1499565D02*
G01*
X6711340Y1499565D01*
X6728917Y1501444D01*
X6746138Y1505153D01*
X6762851Y1510690D01*
X6778904Y1517954D01*
X6794093Y1526895D01*
X6808216Y1537411D01*
X6821170Y1549400D01*
X6832803Y1562658D01*
X6842912Y1577086D01*
X6851497Y1592478D01*
X6858304Y1608734D01*
X6863435Y1625600D01*
X6866686Y1642922D01*
X6868109Y1660499D01*
X6867601Y1678127D01*
X6865264Y1695602D01*
X6861098Y1712722D01*
X6855104Y1729282D01*
X6847382Y1745132D01*
X6838035Y1760067D01*
X6827164Y1773936D01*
X6814870Y1786585D01*
X6801307Y1797812D01*
X6786625Y1807565D01*
X6770979Y1815693D01*
X6754571Y1822145D01*
X6737553Y1826768D01*
X6720128Y1829562D01*
X6702552Y1830476D01*
X6684975Y1829562D01*
X6667550Y1826768D01*
X6650532Y1822145D01*
X6634124Y1815693D01*
X6618478Y1807565D01*
X6603796Y1797812D01*
X6590233Y1786585D01*
X6577939Y1773936D01*
X6567068Y1760067D01*
X6557721Y1745132D01*
X6549999Y1729282D01*
X6544005Y1712722D01*
X6539839Y1695602D01*
X6537502Y1678127D01*
X6536994Y1660499D01*
X6538417Y1642922D01*
X6541668Y1625600D01*
X6546799Y1608734D01*
X6553657Y1592478D01*
X6562191Y1577086D01*
X6572300Y1562658D01*
X6583934Y1549400D01*
X6596888Y1537411D01*
X6611010Y1526895D01*
X6626199Y1517954D01*
X6642252Y1510690D01*
X6658965Y1505153D01*
X6676237Y1501444D01*
G37*
G36*
X11522557Y1804924D02*
G01*
X11921439Y1804924D01*
X11927738Y1805635D01*
X11933224Y1807565D01*
X11938101Y1810613D01*
X11942216Y1814728D01*
X11945264Y1819605D01*
X11947194Y1825091D01*
X11947906Y1831390D01*
X11947906Y2230272D01*
X11947194Y2236571D01*
X11945264Y2242058D01*
X11942216Y2246934D01*
X11938101Y2251049D01*
X11933224Y2254097D01*
X11927738Y2256028D01*
X11921439Y2256739D01*
X11522557Y2256739D01*
X11516258Y2256028D01*
X11510772Y2254097D01*
X11505895Y2251049D01*
X11501780Y2246934D01*
X11498732Y2242058D01*
X11496802Y2236571D01*
X11496090Y2230272D01*
X11496090Y1831390D01*
X11496802Y1825091D01*
X11498732Y1819605D01*
X11501780Y1814728D01*
X11505895Y1810613D01*
X11510772Y1807565D01*
X11516258Y1805635D01*
G37*
G36*
X13004292Y1979574D02*
G01*
X13183107Y1979574D01*
X13189457Y1980285D01*
X13194893Y1982216D01*
X13199821Y1985314D01*
X13203885Y1989378D01*
X13206984Y1994306D01*
X13208914Y1999742D01*
X13209625Y2006092D01*
X13209625Y2184908D01*
X13208914Y2191258D01*
X13206984Y2196693D01*
X13203885Y2201621D01*
X13199821Y2205685D01*
X13194893Y2208784D01*
X13189457Y2210714D01*
X13183107Y2211425D01*
X13004292Y2211425D01*
X12997942Y2210714D01*
X12992506Y2208784D01*
X12987578Y2205685D01*
X12983514Y2201621D01*
X12980416Y2196693D01*
X12978485Y2191258D01*
X12977774Y2184908D01*
X12977774Y2006092D01*
X12978485Y1999742D01*
X12980416Y1994306D01*
X12983514Y1989378D01*
X12987578Y1985314D01*
X12992506Y1982216D01*
X12997942Y1980285D01*
G37*
G36*
X10581081Y2531110D02*
G01*
X10607954Y2531110D01*
X10614253Y2531821D01*
X10619689Y2533700D01*
X10624616Y2536799D01*
X10628680Y2540863D01*
X10631779Y2545791D01*
X10633710Y2551226D01*
X10634421Y2557576D01*
X10634421Y2585923D01*
X10581081Y2585923D01*
G37*
G36*
X10474045Y2531110D02*
G01*
X10500918Y2531110D01*
X10500918Y2585923D01*
X10447578Y2585923D01*
X10447578Y2557576D01*
X10448290Y2551226D01*
X10450220Y2545791D01*
X10453319Y2540863D01*
X10457383Y2536799D01*
X10462310Y2533700D01*
X10467746Y2531821D01*
G37*
G36*
X6115710Y2694127D02*
G01*
X6133287Y2694127D01*
X6150864Y2696006D01*
X6168085Y2699715D01*
X6184798Y2705252D01*
X6200851Y2712567D01*
X6216040Y2721508D01*
X6230162Y2732024D01*
X6243116Y2743962D01*
X6254750Y2757220D01*
X6264859Y2771648D01*
X6273444Y2787091D01*
X6280251Y2803347D01*
X6285382Y2820212D01*
X6288633Y2837535D01*
X6290056Y2855112D01*
X6289548Y2872689D01*
X6287211Y2890164D01*
X6283045Y2907284D01*
X6277051Y2923895D01*
X6269329Y2939745D01*
X6259982Y2954680D01*
X6249111Y2968548D01*
X6236817Y2981198D01*
X6223254Y2992424D01*
X6208572Y3002178D01*
X6192926Y3010306D01*
X6181852Y3014624D01*
X6178499Y3016808D01*
X6176213Y3020110D01*
X6175400Y3024073D01*
X6175400Y3440429D01*
X6175197Y3445052D01*
X6174638Y3449472D01*
X6173673Y3453790D01*
X6172352Y3458006D01*
X6170371Y3462629D01*
X6169609Y3466592D01*
X6169609Y3518357D01*
X6168898Y3524707D01*
X6166967Y3530142D01*
X6163919Y3535070D01*
X6159804Y3539134D01*
X6154928Y3542233D01*
X6149441Y3544112D01*
X6143142Y3544824D01*
X6074257Y3544824D01*
X6067958Y3544112D01*
X6062472Y3542233D01*
X6057595Y3539134D01*
X6053480Y3535070D01*
X6050432Y3530142D01*
X6048502Y3524707D01*
X6047790Y3518357D01*
X6047790Y3394506D01*
X6048502Y3388156D01*
X6050432Y3382721D01*
X6053480Y3377793D01*
X6057595Y3373729D01*
X6062472Y3370630D01*
X6066790Y3369157D01*
X6070346Y3367024D01*
X6072733Y3363620D01*
X6073597Y3359556D01*
X6073597Y3024073D01*
X6072784Y3020110D01*
X6070498Y3016808D01*
X6067145Y3014624D01*
X6056071Y3010306D01*
X6040424Y3002178D01*
X6025743Y2992424D01*
X6012180Y2981198D01*
X5999886Y2968548D01*
X5989015Y2954680D01*
X5979668Y2939745D01*
X5971946Y2923895D01*
X5965952Y2907284D01*
X5961786Y2890164D01*
X5959449Y2872689D01*
X5958941Y2855112D01*
X5960364Y2837535D01*
X5963615Y2820212D01*
X5968746Y2803347D01*
X5975604Y2787091D01*
X5984138Y2771648D01*
X5994247Y2757220D01*
X6005880Y2743962D01*
X6018834Y2732024D01*
X6032957Y2721508D01*
X6048146Y2712567D01*
X6064199Y2705252D01*
X6080912Y2699715D01*
X6098184Y2696006D01*
G37*
G36*
X9633610Y2706827D02*
G01*
X9651187Y2706827D01*
X9668764Y2708706D01*
X9685985Y2712415D01*
X9702698Y2717952D01*
X9718751Y2725267D01*
X9733940Y2734208D01*
X9748062Y2744724D01*
X9761016Y2756662D01*
X9772650Y2769920D01*
X9782759Y2784348D01*
X9791344Y2799791D01*
X9798151Y2816047D01*
X9803282Y2832912D01*
X9806533Y2850235D01*
X9807956Y2867812D01*
X9807448Y2885389D01*
X9805111Y2902864D01*
X9800945Y2919984D01*
X9794951Y2936595D01*
X9787229Y2952445D01*
X9777882Y2967380D01*
X9767011Y2981248D01*
X9754717Y2993898D01*
X9741154Y3005124D01*
X9726472Y3014878D01*
X9710826Y3023006D01*
X9699752Y3027324D01*
X9696399Y3029508D01*
X9694113Y3032810D01*
X9693300Y3036773D01*
X9693300Y3284067D01*
X9693706Y3286912D01*
X9694875Y3289503D01*
X9697567Y3293821D01*
X9699498Y3299256D01*
X9700209Y3305606D01*
X9700209Y3429457D01*
X9699498Y3435807D01*
X9697567Y3441242D01*
X9694519Y3446170D01*
X9690404Y3450234D01*
X9685528Y3453333D01*
X9680041Y3455212D01*
X9673742Y3455924D01*
X9604857Y3455924D01*
X9598558Y3455212D01*
X9593072Y3453333D01*
X9588195Y3450234D01*
X9584080Y3446170D01*
X9581032Y3441242D01*
X9579102Y3435807D01*
X9578390Y3429457D01*
X9578390Y3305606D01*
X9579102Y3299256D01*
X9581032Y3293821D01*
X9584080Y3288893D01*
X9588500Y3284474D01*
X9590735Y3281222D01*
X9591497Y3277311D01*
X9591497Y3036773D01*
X9590684Y3032810D01*
X9588398Y3029508D01*
X9585045Y3027324D01*
X9573971Y3023006D01*
X9558324Y3014878D01*
X9543643Y3005124D01*
X9530080Y2993898D01*
X9517786Y2981248D01*
X9506915Y2967380D01*
X9497568Y2952445D01*
X9489846Y2936595D01*
X9483852Y2919984D01*
X9479686Y2902864D01*
X9477349Y2885389D01*
X9476841Y2867812D01*
X9478264Y2850235D01*
X9481515Y2832912D01*
X9486646Y2816047D01*
X9493504Y2799791D01*
X9502038Y2784348D01*
X9512147Y2769920D01*
X9523780Y2756662D01*
X9536734Y2744724D01*
X9550857Y2734208D01*
X9566046Y2725267D01*
X9582099Y2717952D01*
X9598812Y2712415D01*
X9616084Y2708706D01*
G37*
G36*
X4401210Y2706827D02*
G01*
X4418787Y2706827D01*
X4436364Y2708706D01*
X4453585Y2712415D01*
X4470298Y2717952D01*
X4486351Y2725267D01*
X4501540Y2734208D01*
X4515662Y2744724D01*
X4528616Y2756662D01*
X4540250Y2769920D01*
X4550359Y2784348D01*
X4558944Y2799791D01*
X4565751Y2816047D01*
X4570882Y2832912D01*
X4574133Y2850235D01*
X4575556Y2867812D01*
X4575048Y2885389D01*
X4572711Y2902864D01*
X4568545Y2919984D01*
X4562551Y2936595D01*
X4554829Y2952445D01*
X4545482Y2967380D01*
X4534611Y2981248D01*
X4522317Y2993898D01*
X4508754Y3005124D01*
X4494072Y3014878D01*
X4478426Y3023006D01*
X4467352Y3027324D01*
X4463999Y3029508D01*
X4461713Y3032810D01*
X4460900Y3036773D01*
X4460900Y3427729D01*
X4460697Y3432352D01*
X4460138Y3436772D01*
X4459173Y3441090D01*
X4457852Y3445357D01*
X4456125Y3449421D01*
X4454093Y3453384D01*
X4451705Y3457143D01*
X4449013Y3460648D01*
X4445101Y3464814D01*
X4443120Y3468014D01*
X4442409Y3471722D01*
X4442409Y3518357D01*
X4441698Y3524707D01*
X4439767Y3530142D01*
X4436719Y3535070D01*
X4432604Y3539134D01*
X4427728Y3542233D01*
X4422241Y3544112D01*
X4415942Y3544824D01*
X4347057Y3544824D01*
X4340758Y3544112D01*
X4335272Y3542233D01*
X4330395Y3539134D01*
X4326280Y3535070D01*
X4323232Y3530142D01*
X4321302Y3524707D01*
X4320590Y3518357D01*
X4320590Y3394506D01*
X4321302Y3388156D01*
X4323232Y3382721D01*
X4326280Y3377793D01*
X4330395Y3373729D01*
X4335272Y3370630D01*
X4340758Y3368751D01*
X4347057Y3368040D01*
X4348937Y3368040D01*
X4352798Y3367227D01*
X4356100Y3365042D01*
X4358335Y3361740D01*
X4359097Y3357879D01*
X4359097Y3036773D01*
X4358284Y3032810D01*
X4355998Y3029508D01*
X4352645Y3027324D01*
X4341571Y3023006D01*
X4325924Y3014878D01*
X4311243Y3005124D01*
X4297680Y2993898D01*
X4285386Y2981248D01*
X4274515Y2967380D01*
X4265168Y2952445D01*
X4257446Y2936595D01*
X4251452Y2919984D01*
X4247286Y2902864D01*
X4244949Y2885389D01*
X4244441Y2867812D01*
X4245864Y2850235D01*
X4249115Y2832912D01*
X4254246Y2816047D01*
X4261104Y2799791D01*
X4269638Y2784348D01*
X4279747Y2769920D01*
X4291380Y2756662D01*
X4304334Y2744724D01*
X4318457Y2734208D01*
X4333646Y2725267D01*
X4349699Y2717952D01*
X4366412Y2712415D01*
X4383684Y2708706D01*
G37*
G36*
X5000701Y2712466D02*
G01*
X5016042Y2721508D01*
X5030165Y2732024D01*
X5043119Y2743962D01*
X5054752Y2757220D01*
X5064861Y2771648D01*
X5071313Y2783281D01*
X5000701Y2783281D01*
G37*
G36*
X4848301Y2712466D02*
G01*
X4848301Y2783281D01*
X4777689Y2783281D01*
X4784140Y2771648D01*
X4794250Y2757220D01*
X4805883Y2743962D01*
X4818837Y2732024D01*
X4832959Y2721508D01*
G37*
G36*
X7893710Y2719527D02*
G01*
X7911287Y2719527D01*
X7928864Y2721406D01*
X7946085Y2725115D01*
X7962798Y2730652D01*
X7978851Y2737967D01*
X7994040Y2746908D01*
X8008162Y2757424D01*
X8021116Y2769362D01*
X8032750Y2782620D01*
X8042859Y2797048D01*
X8051444Y2812491D01*
X8058251Y2828747D01*
X8063382Y2845612D01*
X8066633Y2862935D01*
X8068056Y2880512D01*
X8067548Y2898089D01*
X8065211Y2915564D01*
X8061045Y2932684D01*
X8055051Y2949295D01*
X8047329Y2965145D01*
X8037982Y2980080D01*
X8027111Y2993948D01*
X8014817Y3006598D01*
X8001253Y3017824D01*
X7986572Y3027578D01*
X7970926Y3035706D01*
X7959852Y3040024D01*
X7956499Y3042208D01*
X7954213Y3045510D01*
X7953400Y3049473D01*
X7953400Y3275329D01*
X7953197Y3279952D01*
X7952638Y3284372D01*
X7951673Y3288690D01*
X7950352Y3292957D01*
X7948625Y3297021D01*
X7946593Y3300984D01*
X7944205Y3304743D01*
X7941513Y3308248D01*
X7938363Y3311702D01*
X7874406Y3375660D01*
X7872171Y3378962D01*
X7871409Y3382822D01*
X7871409Y3429457D01*
X7870698Y3435807D01*
X7868767Y3441242D01*
X7865719Y3446170D01*
X7861604Y3450234D01*
X7856728Y3453333D01*
X7851241Y3455212D01*
X7844942Y3455924D01*
X7776057Y3455924D01*
X7769758Y3455212D01*
X7764272Y3453333D01*
X7759395Y3450234D01*
X7755280Y3446170D01*
X7752232Y3441242D01*
X7750302Y3435807D01*
X7749590Y3429457D01*
X7749590Y3305606D01*
X7750302Y3299256D01*
X7752232Y3293821D01*
X7755280Y3288893D01*
X7759395Y3284829D01*
X7764272Y3281730D01*
X7769758Y3279851D01*
X7776057Y3279140D01*
X7822692Y3279140D01*
X7826603Y3278327D01*
X7829905Y3276142D01*
X7848600Y3257397D01*
X7850835Y3254146D01*
X7851597Y3250234D01*
X7851597Y3049473D01*
X7850784Y3045510D01*
X7848498Y3042208D01*
X7845145Y3040024D01*
X7834071Y3035706D01*
X7818424Y3027578D01*
X7803743Y3017824D01*
X7790180Y3006598D01*
X7777886Y2993948D01*
X7767015Y2980080D01*
X7757668Y2965145D01*
X7749946Y2949295D01*
X7743952Y2932684D01*
X7739786Y2915564D01*
X7737449Y2898089D01*
X7736941Y2880512D01*
X7738364Y2862935D01*
X7741615Y2845612D01*
X7746746Y2828747D01*
X7753603Y2812491D01*
X7762138Y2797048D01*
X7772247Y2782620D01*
X7783880Y2769362D01*
X7796834Y2757424D01*
X7810957Y2746908D01*
X7826146Y2737967D01*
X7842199Y2730652D01*
X7858912Y2725115D01*
X7876184Y2721406D01*
G37*
G36*
X8518601Y2725166D02*
G01*
X8533942Y2734208D01*
X8548065Y2744724D01*
X8561019Y2756662D01*
X8572652Y2769920D01*
X8582761Y2784348D01*
X8589213Y2795981D01*
X8518601Y2795981D01*
G37*
G36*
X8366201Y2725166D02*
G01*
X8366201Y2795981D01*
X8295589Y2795981D01*
X8302040Y2784348D01*
X8312150Y2769920D01*
X8323783Y2756662D01*
X8336737Y2744724D01*
X8350859Y2734208D01*
G37*
G36*
X3286201Y2725166D02*
G01*
X3301542Y2734208D01*
X3315665Y2744724D01*
X3328619Y2756662D01*
X3340252Y2769920D01*
X3350361Y2784348D01*
X3356813Y2795981D01*
X3286201Y2795981D01*
G37*
G36*
X3133801Y2725166D02*
G01*
X3133801Y2795981D01*
X3063189Y2795981D01*
X3069640Y2784348D01*
X3079750Y2769920D01*
X3091383Y2756662D01*
X3104337Y2744724D01*
X3118459Y2734208D01*
G37*
G36*
X6626301Y2737866D02*
G01*
X6626301Y2808681D01*
X6555689Y2808681D01*
X6562140Y2797048D01*
X6572250Y2782620D01*
X6583883Y2769362D01*
X6596837Y2757424D01*
X6610959Y2746908D01*
G37*
G36*
X6778701Y2737866D02*
G01*
X6794042Y2746908D01*
X6808165Y2757424D01*
X6821119Y2769362D01*
X6832752Y2782620D01*
X6842861Y2797048D01*
X6849313Y2808681D01*
X6778701Y2808681D01*
G37*
G36*
X13042341Y2753817D02*
G01*
X13042341Y2806141D01*
X12989966Y2806141D01*
X12995859Y2795422D01*
X13004393Y2783636D01*
X13014350Y2773019D01*
X13025577Y2763723D01*
X13037870Y2755950D01*
G37*
G36*
X13145058Y2753817D02*
G01*
X13149529Y2755950D01*
X13161822Y2763723D01*
X13173049Y2773019D01*
X13183006Y2783636D01*
X13191540Y2795422D01*
X13197433Y2806141D01*
X13145058Y2806141D01*
G37*
G36*
X12989966Y2908858D02*
G01*
X13042341Y2908858D01*
X13042341Y2961182D01*
X13037870Y2959049D01*
X13025577Y2951276D01*
X13014350Y2941980D01*
X13004393Y2931363D01*
X12995859Y2919577D01*
G37*
G36*
X13145058Y2908858D02*
G01*
X13197433Y2908858D01*
X13191540Y2919577D01*
X13183006Y2931363D01*
X13173049Y2941980D01*
X13161822Y2951276D01*
X13149529Y2959049D01*
X13145058Y2961182D01*
G37*
G36*
X4777689Y2935681D02*
G01*
X4848301Y2935681D01*
X4848301Y3006242D01*
X4840427Y3002178D01*
X4825746Y2992424D01*
X4812182Y2981198D01*
X4799888Y2968548D01*
X4789017Y2954680D01*
X4779670Y2939745D01*
G37*
G36*
X5000701Y2935681D02*
G01*
X5071313Y2935681D01*
X5069332Y2939745D01*
X5059984Y2954680D01*
X5049113Y2968548D01*
X5036820Y2981198D01*
X5023256Y2992424D01*
X5008575Y3002178D01*
X5000701Y3006242D01*
G37*
G36*
X8518601Y2948381D02*
G01*
X8589213Y2948381D01*
X8587232Y2952445D01*
X8577884Y2967380D01*
X8567013Y2981248D01*
X8554720Y2993898D01*
X8541156Y3005124D01*
X8526475Y3014878D01*
X8518601Y3018942D01*
G37*
G36*
X8295589Y2948381D02*
G01*
X8366201Y2948381D01*
X8366201Y3018942D01*
X8358327Y3014878D01*
X8343646Y3005124D01*
X8330082Y2993898D01*
X8317788Y2981248D01*
X8306917Y2967380D01*
X8297570Y2952445D01*
G37*
G36*
X3063189Y2948381D02*
G01*
X3133801Y2948381D01*
X3133801Y3018942D01*
X3125927Y3014878D01*
X3111246Y3005124D01*
X3097682Y2993898D01*
X3085388Y2981248D01*
X3074517Y2967380D01*
X3065170Y2952445D01*
G37*
G36*
X3286201Y2948381D02*
G01*
X3356813Y2948381D01*
X3354832Y2952445D01*
X3345484Y2967380D01*
X3334613Y2981248D01*
X3322320Y2993898D01*
X3308756Y3005124D01*
X3294075Y3014878D01*
X3286201Y3018942D01*
G37*
G36*
X10252964Y2948381D02*
G01*
X10276027Y2948381D01*
X10276027Y3055467D01*
X10226497Y3055467D01*
X10226497Y2974848D01*
X10227208Y2968548D01*
X10229138Y2963062D01*
X10232186Y2958185D01*
X10236301Y2954070D01*
X10241178Y2951022D01*
X10246664Y2949092D01*
G37*
G36*
X10348772Y2948381D02*
G01*
X10371836Y2948381D01*
X10378135Y2949092D01*
X10383621Y2951022D01*
X10388498Y2954070D01*
X10392613Y2958185D01*
X10395661Y2963062D01*
X10397591Y2968548D01*
X10398302Y2974848D01*
X10398302Y3055467D01*
X10348772Y3055467D01*
G37*
G36*
X6555689Y2961081D02*
G01*
X6626301Y2961081D01*
X6626301Y3031642D01*
X6618427Y3027578D01*
X6603746Y3017824D01*
X6590182Y3006598D01*
X6577888Y2993948D01*
X6567017Y2980080D01*
X6557670Y2965145D01*
G37*
G36*
X6778701Y2961081D02*
G01*
X6849313Y2961081D01*
X6847331Y2965145D01*
X6837984Y2980080D01*
X6827113Y2993948D01*
X6814820Y3006598D01*
X6801256Y3017824D01*
X6786575Y3027578D01*
X6778701Y3031642D01*
G37*
G36*
X13093700Y2995625D02*
G01*
X13108228Y2996539D01*
X13122503Y2999232D01*
X13136372Y3003753D01*
X13149529Y3009950D01*
X13161822Y3017723D01*
X13173049Y3027019D01*
X13183006Y3037636D01*
X13191540Y3049422D01*
X13198551Y3062173D01*
X13203936Y3075686D01*
X13207542Y3089808D01*
X13209371Y3104235D01*
X13209371Y3118764D01*
X13207542Y3133191D01*
X13203936Y3147314D01*
X13198551Y3160826D01*
X13191540Y3173577D01*
X13183006Y3185363D01*
X13173049Y3195980D01*
X13161822Y3205276D01*
X13149529Y3213049D01*
X13136372Y3219246D01*
X13122503Y3223768D01*
X13108228Y3226460D01*
X13093700Y3227374D01*
X13079171Y3226460D01*
X13064896Y3223768D01*
X13051028Y3219246D01*
X13037870Y3213049D01*
X13025577Y3205276D01*
X13014350Y3195980D01*
X13004393Y3185363D01*
X12995859Y3173577D01*
X12988848Y3160826D01*
X12983464Y3147314D01*
X12979857Y3133191D01*
X12978028Y3118764D01*
X12978028Y3104235D01*
X12979857Y3089808D01*
X12983464Y3075686D01*
X12988848Y3062173D01*
X12995859Y3049422D01*
X13004393Y3037636D01*
X13014350Y3027019D01*
X13025577Y3017723D01*
X13037870Y3009950D01*
X13051028Y3003753D01*
X13064896Y2999232D01*
X13079171Y2996539D01*
G37*
G36*
X10226497Y3243173D02*
G01*
X10276027Y3243173D01*
X10276027Y3350209D01*
X10252964Y3350209D01*
X10246664Y3349498D01*
X10241178Y3347567D01*
X10236301Y3344519D01*
X10232186Y3340404D01*
X10229138Y3335528D01*
X10227208Y3330041D01*
X10226497Y3323742D01*
G37*
G36*
X10348772Y3243173D02*
G01*
X10398302Y3243173D01*
X10398302Y3323742D01*
X10397591Y3330041D01*
X10395661Y3335528D01*
X10392613Y3340404D01*
X10388498Y3344519D01*
X10383621Y3347567D01*
X10378135Y3349498D01*
X10371836Y3350209D01*
X10348772Y3350209D01*
G37*
G36*
X9509861Y3529076D02*
G01*
X9578746Y3529076D01*
X9585045Y3529787D01*
X9590532Y3531666D01*
X9595408Y3534765D01*
X9599523Y3538829D01*
X9602571Y3543757D01*
X9604502Y3549192D01*
X9605213Y3555542D01*
X9605213Y3582670D01*
X9605924Y3586429D01*
X9610039Y3596589D01*
X9612680Y3607917D01*
X9613595Y3619500D01*
X9612680Y3631082D01*
X9610039Y3642410D01*
X9605924Y3652570D01*
X9605213Y3656329D01*
X9605213Y3679393D01*
X9604502Y3685743D01*
X9602571Y3691178D01*
X9599523Y3696106D01*
X9595408Y3700170D01*
X9590532Y3703269D01*
X9585045Y3705148D01*
X9578746Y3705860D01*
X9509861Y3705860D01*
X9503562Y3705148D01*
X9498076Y3703269D01*
X9493199Y3700170D01*
X9489084Y3696106D01*
X9486036Y3691178D01*
X9484106Y3685743D01*
X9483394Y3679393D01*
X9483394Y3676294D01*
X9482683Y3672484D01*
X9480550Y3669233D01*
X9479178Y3667760D01*
X9472472Y3658260D01*
X9467342Y3647846D01*
X9463836Y3636772D01*
X9462058Y3625291D01*
X9462058Y3613708D01*
X9463836Y3602228D01*
X9467342Y3591153D01*
X9472472Y3580739D01*
X9479178Y3571240D01*
X9480550Y3569766D01*
X9482683Y3566515D01*
X9483394Y3562705D01*
X9483394Y3555542D01*
X9484106Y3549192D01*
X9486036Y3543757D01*
X9489084Y3538829D01*
X9493199Y3534765D01*
X9498076Y3531666D01*
X9503562Y3529787D01*
G37*
G36*
X7681061Y3529076D02*
G01*
X7749946Y3529076D01*
X7756245Y3529787D01*
X7761731Y3531666D01*
X7766608Y3534765D01*
X7770723Y3538829D01*
X7773771Y3543757D01*
X7775702Y3549192D01*
X7776413Y3555542D01*
X7776413Y3569055D01*
X7776768Y3571748D01*
X7777835Y3574287D01*
X7783525Y3583787D01*
X7787843Y3594557D01*
X7790484Y3605885D01*
X7791399Y3617468D01*
X7790484Y3629050D01*
X7787843Y3640378D01*
X7783525Y3651148D01*
X7777835Y3660648D01*
X7776768Y3663187D01*
X7776413Y3665880D01*
X7776413Y3679393D01*
X7775702Y3685743D01*
X7773771Y3691178D01*
X7770723Y3696106D01*
X7766608Y3700170D01*
X7761731Y3703269D01*
X7756245Y3705148D01*
X7749946Y3705860D01*
X7681061Y3705860D01*
X7674762Y3705148D01*
X7669275Y3703269D01*
X7664399Y3700170D01*
X7660284Y3696106D01*
X7657236Y3691178D01*
X7655306Y3685743D01*
X7654594Y3679393D01*
X7654594Y3665575D01*
X7654137Y3662527D01*
X7652766Y3659733D01*
X7650276Y3656228D01*
X7645146Y3645814D01*
X7641640Y3634740D01*
X7639862Y3623259D01*
X7639862Y3611676D01*
X7641640Y3600196D01*
X7645146Y3589121D01*
X7650276Y3578707D01*
X7652766Y3575202D01*
X7654137Y3572408D01*
X7654594Y3569360D01*
X7654594Y3555542D01*
X7655306Y3549192D01*
X7657236Y3543757D01*
X7660284Y3538829D01*
X7664399Y3534765D01*
X7669275Y3531666D01*
X7674762Y3529787D01*
G37*
G36*
X535127Y3598824D02*
G01*
X550265Y3599738D01*
X565251Y3602482D01*
X579729Y3607003D01*
X593598Y3613251D01*
X606602Y3621125D01*
X618591Y3630472D01*
X629310Y3641242D01*
X638708Y3653180D01*
X646582Y3666185D01*
X652830Y3680053D01*
X657352Y3694582D01*
X660095Y3709517D01*
X661009Y3724706D01*
X660095Y3739896D01*
X657352Y3754831D01*
X652830Y3769360D01*
X646582Y3783228D01*
X638708Y3796233D01*
X629310Y3808171D01*
X618591Y3818940D01*
X606602Y3828287D01*
X593598Y3836162D01*
X579729Y3842410D01*
X565251Y3846931D01*
X550265Y3849674D01*
X535127Y3850589D01*
X519938Y3849674D01*
X504951Y3846931D01*
X490474Y3842410D01*
X476605Y3836162D01*
X463600Y3828287D01*
X451612Y3818940D01*
X440893Y3808171D01*
X431495Y3796233D01*
X423621Y3783228D01*
X417372Y3769360D01*
X412851Y3754831D01*
X410108Y3739896D01*
X409194Y3724706D01*
X410108Y3709517D01*
X412851Y3694582D01*
X417372Y3680053D01*
X423621Y3666185D01*
X431495Y3653180D01*
X440893Y3641242D01*
X451612Y3630472D01*
X463600Y3621125D01*
X476605Y3613251D01*
X490474Y3607003D01*
X504951Y3602482D01*
X519938Y3599738D01*
G37*
G36*
X2391460Y3612286D02*
G01*
X2393594Y3613251D01*
X2406599Y3621125D01*
X2418588Y3630472D01*
X2429306Y3641242D01*
X2438704Y3653180D01*
X2446578Y3666185D01*
X2447544Y3668369D01*
X2391460Y3668369D01*
G37*
G36*
X2278735Y3612286D02*
G01*
X2278735Y3668369D01*
X2222652Y3668369D01*
X2223617Y3666185D01*
X2231491Y3653180D01*
X2240889Y3641242D01*
X2251608Y3630472D01*
X2263597Y3621125D01*
X2276602Y3613251D01*
G37*
G36*
X4252061Y3617976D02*
G01*
X4320946Y3617976D01*
X4327245Y3618687D01*
X4332732Y3620566D01*
X4337608Y3623665D01*
X4341723Y3627729D01*
X4344771Y3632657D01*
X4346702Y3638092D01*
X4347413Y3644442D01*
X4347413Y3657955D01*
X4347768Y3660648D01*
X4348835Y3663187D01*
X4354525Y3672687D01*
X4358843Y3683457D01*
X4361484Y3694785D01*
X4362399Y3706368D01*
X4361484Y3717950D01*
X4358843Y3729278D01*
X4354525Y3740048D01*
X4348835Y3749548D01*
X4347768Y3752087D01*
X4347413Y3754780D01*
X4347413Y3768293D01*
X4346702Y3774643D01*
X4344771Y3780078D01*
X4341723Y3785006D01*
X4337608Y3789070D01*
X4332732Y3792169D01*
X4327245Y3794048D01*
X4320946Y3794760D01*
X4252061Y3794760D01*
X4245762Y3794048D01*
X4240276Y3792169D01*
X4235399Y3789070D01*
X4231284Y3785006D01*
X4228236Y3780078D01*
X4226306Y3774643D01*
X4225594Y3768293D01*
X4225594Y3754475D01*
X4225137Y3751427D01*
X4223766Y3748633D01*
X4221276Y3745128D01*
X4216146Y3734714D01*
X4212640Y3723640D01*
X4210862Y3712159D01*
X4210862Y3700576D01*
X4212640Y3689096D01*
X4216146Y3678021D01*
X4221276Y3667607D01*
X4223766Y3664102D01*
X4225137Y3661308D01*
X4225594Y3658260D01*
X4225594Y3644442D01*
X4226306Y3638092D01*
X4228236Y3632657D01*
X4231284Y3627729D01*
X4235399Y3623665D01*
X4240276Y3620566D01*
X4245762Y3618687D01*
G37*
G36*
X5979261Y3617976D02*
G01*
X6048146Y3617976D01*
X6054445Y3618687D01*
X6059932Y3620566D01*
X6064808Y3623665D01*
X6068923Y3627729D01*
X6071971Y3632657D01*
X6073902Y3638092D01*
X6074613Y3644442D01*
X6074613Y3657955D01*
X6074968Y3660648D01*
X6076035Y3663187D01*
X6081725Y3672687D01*
X6086043Y3683457D01*
X6088684Y3694785D01*
X6089599Y3706368D01*
X6088684Y3717950D01*
X6086043Y3729278D01*
X6081725Y3740048D01*
X6076035Y3749548D01*
X6074968Y3752087D01*
X6074613Y3754780D01*
X6074613Y3768293D01*
X6073902Y3774643D01*
X6071971Y3780078D01*
X6068923Y3785006D01*
X6064808Y3789070D01*
X6059932Y3792169D01*
X6054445Y3794048D01*
X6048146Y3794760D01*
X5979261Y3794760D01*
X5972962Y3794048D01*
X5967476Y3792169D01*
X5962599Y3789070D01*
X5958484Y3785006D01*
X5955436Y3780078D01*
X5953506Y3774643D01*
X5952794Y3768293D01*
X5952794Y3754475D01*
X5952337Y3751427D01*
X5950966Y3748633D01*
X5948476Y3745128D01*
X5943346Y3734714D01*
X5939840Y3723640D01*
X5938062Y3712159D01*
X5938062Y3700576D01*
X5939840Y3689096D01*
X5943346Y3678021D01*
X5948476Y3667607D01*
X5950966Y3664102D01*
X5952337Y3661308D01*
X5952794Y3658260D01*
X5952794Y3644442D01*
X5953506Y3638092D01*
X5955436Y3632657D01*
X5958484Y3627729D01*
X5962599Y3623665D01*
X5967476Y3620566D01*
X5972962Y3618687D01*
G37*
G36*
X2222652Y3781044D02*
G01*
X2278735Y3781044D01*
X2278735Y3837127D01*
X2276602Y3836162D01*
X2263597Y3828287D01*
X2251608Y3818940D01*
X2240889Y3808171D01*
X2231491Y3796233D01*
X2223617Y3783228D01*
G37*
G36*
X2391460Y3781044D02*
G01*
X2447544Y3781044D01*
X2446578Y3783228D01*
X2438704Y3796233D01*
X2429306Y3808171D01*
X2418588Y3818940D01*
X2406599Y3828287D01*
X2393594Y3836162D01*
X2391460Y3837127D01*
G37*

%LPD*%
G36*
X4492193Y494182D02*
G01*
X4488281Y494995D01*
X4484979Y497179D01*
X4482795Y500481D01*
X4482033Y504342D01*
X4482033Y685647D01*
X4481779Y693420D01*
X4481068Y700989D01*
X4479950Y708507D01*
X4478324Y715924D01*
X4476292Y723239D01*
X4473803Y730453D01*
X4470908Y737463D01*
X4467606Y744321D01*
X4463846Y750925D01*
X4459935Y756920D01*
X4458716Y759561D01*
X4458309Y762457D01*
X4458309Y817930D01*
X4457598Y824230D01*
X4455668Y829716D01*
X4452620Y834593D01*
X4448505Y838708D01*
X4443628Y841806D01*
X4438142Y843686D01*
X4431842Y844397D01*
X4254957Y844397D01*
X4248658Y843686D01*
X4243171Y841806D01*
X4238294Y838708D01*
X4231030Y831342D01*
X4226966Y829767D01*
X4222648Y830071D01*
X4218838Y832103D01*
X4216247Y835609D01*
X4215333Y839825D01*
X4215333Y921359D01*
X4215942Y924966D01*
X4217873Y928116D01*
X4221632Y932332D01*
X4231182Y944575D01*
X4232910Y947470D01*
X4235196Y950112D01*
X4238193Y951788D01*
X4241596Y952398D01*
X5232196Y952398D01*
X5236819Y952601D01*
X5241239Y953160D01*
X5245557Y954125D01*
X5249824Y955446D01*
X5253888Y957173D01*
X5257850Y959205D01*
X5261610Y961593D01*
X5265115Y964285D01*
X5268569Y967435D01*
X5407202Y1106119D01*
X5410454Y1108303D01*
X5414264Y1109116D01*
X5418074Y1108405D01*
X5421376Y1106373D01*
X5423611Y1103223D01*
X5424576Y1099413D01*
X5424017Y1095603D01*
X5422239Y1090625D01*
X5421528Y1084275D01*
X5421528Y1056792D01*
X5469432Y1056792D01*
X5469432Y1110742D01*
X5447995Y1110742D01*
X5441696Y1110030D01*
X5436717Y1108303D01*
X5432856Y1107744D01*
X5429097Y1108659D01*
X5425948Y1110945D01*
X5423865Y1114247D01*
X5423204Y1118057D01*
X5424017Y1121867D01*
X5426151Y1125067D01*
X5644235Y1343101D01*
X5647486Y1345336D01*
X5651398Y1346098D01*
X5934151Y1346098D01*
X5938418Y1345184D01*
X5941872Y1342542D01*
X5943904Y1338732D01*
X5944209Y1334363D01*
X5942634Y1330350D01*
X5939536Y1327302D01*
X5934811Y1324356D01*
X5931306Y1321714D01*
X5927852Y1318564D01*
X5801766Y1192428D01*
X5799124Y1190498D01*
X5795975Y1189532D01*
X5792724Y1189634D01*
X5780989Y1191768D01*
X5765495Y1192682D01*
X5728004Y1192682D01*
X5712510Y1191768D01*
X5697575Y1189024D01*
X5683046Y1184503D01*
X5669178Y1178255D01*
X5656173Y1170381D01*
X5644235Y1161034D01*
X5633466Y1150264D01*
X5624118Y1138326D01*
X5616244Y1125321D01*
X5609996Y1111453D01*
X5605475Y1096924D01*
X5604916Y1093774D01*
X5603189Y1089710D01*
X5599887Y1086764D01*
X5595670Y1085494D01*
X5591302Y1086104D01*
X5587644Y1088542D01*
X5585307Y1092250D01*
X5583986Y1096060D01*
X5580888Y1100988D01*
X5576824Y1105052D01*
X5571896Y1108151D01*
X5566460Y1110030D01*
X5560110Y1110742D01*
X5538724Y1110742D01*
X5538724Y1056792D01*
X5591657Y1056792D01*
X5595518Y1055979D01*
X5598820Y1053795D01*
X5601004Y1050493D01*
X5601817Y1046632D01*
X5601817Y985367D01*
X5601004Y981506D01*
X5598820Y978204D01*
X5595518Y976020D01*
X5591657Y975207D01*
X5538724Y975207D01*
X5538724Y921258D01*
X5560110Y921258D01*
X5566460Y921969D01*
X5571896Y923848D01*
X5576824Y926947D01*
X5580888Y931011D01*
X5583021Y934415D01*
X5586069Y937514D01*
X5590133Y939037D01*
X5594451Y938784D01*
X5598261Y936701D01*
X5600852Y933246D01*
X5601817Y929030D01*
X5601817Y839825D01*
X5600852Y835609D01*
X5598261Y832103D01*
X5594451Y830071D01*
X5590133Y829767D01*
X5586069Y831342D01*
X5578805Y838708D01*
X5573928Y841806D01*
X5568442Y843686D01*
X5562142Y844397D01*
X5385257Y844397D01*
X5378958Y843686D01*
X5373471Y841806D01*
X5368594Y838708D01*
X5364480Y834593D01*
X5361432Y829716D01*
X5359501Y824230D01*
X5358790Y817930D01*
X5358790Y579069D01*
X5359501Y572770D01*
X5361432Y567283D01*
X5364480Y562406D01*
X5368594Y558292D01*
X5373471Y555193D01*
X5378958Y553313D01*
X5385257Y552602D01*
X5562142Y552602D01*
X5568442Y553313D01*
X5573928Y555193D01*
X5578805Y558292D01*
X5582920Y562406D01*
X5585968Y567283D01*
X5587898Y572770D01*
X5588609Y579069D01*
X5588609Y655726D01*
X5589422Y659739D01*
X5591759Y663092D01*
X5595264Y665276D01*
X5599277Y665886D01*
X5603240Y664819D01*
X5606491Y662330D01*
X5608472Y658723D01*
X5609996Y653846D01*
X5611876Y649630D01*
X5612790Y645464D01*
X5612790Y579069D01*
X5613501Y572770D01*
X5615432Y567283D01*
X5618480Y562406D01*
X5622594Y558292D01*
X5627471Y555193D01*
X5632958Y553313D01*
X5639257Y552602D01*
X5816142Y552602D01*
X5822442Y553313D01*
X5827928Y555193D01*
X5832805Y558292D01*
X5836920Y562406D01*
X5839968Y567283D01*
X5841898Y572770D01*
X5842609Y579069D01*
X5842609Y645464D01*
X5843524Y649630D01*
X5845556Y654202D01*
X5847842Y657402D01*
X5851245Y659536D01*
X5855157Y660196D01*
X5859018Y659282D01*
X5862218Y656996D01*
X5864301Y653643D01*
X5866130Y648868D01*
X5866790Y645261D01*
X5866790Y579069D01*
X5867501Y572770D01*
X5869432Y567283D01*
X5872480Y562406D01*
X5876594Y558292D01*
X5881420Y555244D01*
X5888278Y552907D01*
X5891885Y550773D01*
X5894324Y547370D01*
X5895187Y543306D01*
X5895187Y504342D01*
X5894425Y500481D01*
X5892190Y497179D01*
X5888888Y494995D01*
X5885027Y494182D01*
G37*

%LPC*%
G36*
X5447995Y921258D02*
G01*
X5469432Y921258D01*
X5469432Y975207D01*
X5421528Y975207D01*
X5421528Y947724D01*
X5422239Y941374D01*
X5424170Y935939D01*
X5427218Y931011D01*
X5431332Y926947D01*
X5436209Y923848D01*
X5441696Y921969D01*
G37*

%LPD*%
G36*
X6157163Y494182D02*
G01*
X6153251Y494995D01*
X6150000Y497179D01*
X6147765Y500481D01*
X6147003Y504342D01*
X6147003Y658977D01*
X6146749Y666699D01*
X6146088Y674268D01*
X6144920Y681786D01*
X6143345Y689254D01*
X6141313Y696569D01*
X6138824Y703732D01*
X6135928Y710793D01*
X6132576Y717600D01*
X6128816Y724255D01*
X6124702Y730605D01*
X6120180Y736752D01*
X6115354Y742594D01*
X6110020Y748233D01*
X6099606Y758698D01*
X6097371Y761949D01*
X6096609Y765860D01*
X6096609Y817930D01*
X6095898Y824230D01*
X6093968Y829716D01*
X6090920Y834593D01*
X6086805Y838708D01*
X6081928Y841806D01*
X6076442Y843686D01*
X6070142Y844397D01*
X5893257Y844397D01*
X5886958Y843686D01*
X5881471Y841806D01*
X5876594Y838708D01*
X5869330Y831342D01*
X5865266Y829767D01*
X5860948Y830071D01*
X5857138Y832103D01*
X5854547Y835609D01*
X5853633Y839825D01*
X5853633Y972667D01*
X5854395Y976579D01*
X5856579Y979881D01*
X5860034Y983335D01*
X5869381Y995273D01*
X5877255Y1008278D01*
X5883503Y1022146D01*
X5888024Y1036675D01*
X5890768Y1051610D01*
X5891682Y1066800D01*
X5890768Y1081989D01*
X5888024Y1096924D01*
X5883503Y1111453D01*
X5880557Y1117955D01*
X5879693Y1121918D01*
X5880404Y1125931D01*
X5882640Y1129334D01*
X5982157Y1228801D01*
X5985459Y1231036D01*
X5989320Y1231798D01*
X7149896Y1231798D01*
X7154519Y1232001D01*
X7158939Y1232560D01*
X7163257Y1233525D01*
X7167524Y1234846D01*
X7171588Y1236573D01*
X7175347Y1238504D01*
X7181291Y1242669D01*
X7184034Y1244041D01*
X7187082Y1244498D01*
X7515352Y1244498D01*
X7519365Y1243685D01*
X7522718Y1241348D01*
X7524851Y1237843D01*
X7525461Y1233830D01*
X7524445Y1229868D01*
X7521956Y1226616D01*
X7518349Y1224635D01*
X7511846Y1222603D01*
X7497978Y1216355D01*
X7484973Y1208481D01*
X7473035Y1199134D01*
X7462266Y1188364D01*
X7452918Y1176426D01*
X7445044Y1163421D01*
X7438796Y1149553D01*
X7434783Y1136751D01*
X7432954Y1133297D01*
X7429906Y1130808D01*
X7426096Y1129639D01*
X7422184Y1130046D01*
X7418730Y1131874D01*
X7416190Y1134872D01*
X7415022Y1138631D01*
X7414717Y1141425D01*
X7412786Y1146860D01*
X7409688Y1151788D01*
X7405624Y1155852D01*
X7400696Y1158951D01*
X7395260Y1160830D01*
X7388910Y1161542D01*
X7367524Y1161542D01*
X7367524Y1107592D01*
X7420457Y1107592D01*
X7424318Y1106779D01*
X7427620Y1104595D01*
X7429804Y1101293D01*
X7430617Y1097432D01*
X7430617Y1036167D01*
X7429804Y1032306D01*
X7427620Y1029004D01*
X7424318Y1026820D01*
X7420457Y1026007D01*
X7367524Y1026007D01*
X7367524Y972058D01*
X7388910Y972058D01*
X7395260Y972769D01*
X7400696Y974648D01*
X7405624Y977747D01*
X7409688Y981811D01*
X7411821Y985215D01*
X7414869Y988314D01*
X7418933Y989837D01*
X7423251Y989584D01*
X7427061Y987501D01*
X7429652Y984046D01*
X7430617Y979830D01*
X7430617Y890625D01*
X7429652Y886409D01*
X7427061Y882903D01*
X7423251Y880871D01*
X7418933Y880567D01*
X7414869Y882142D01*
X7407605Y889508D01*
X7402728Y892606D01*
X7397242Y894486D01*
X7390942Y895197D01*
X7214057Y895197D01*
X7207758Y894486D01*
X7202271Y892606D01*
X7197394Y889508D01*
X7193280Y885393D01*
X7190231Y880516D01*
X7188301Y875030D01*
X7187590Y868730D01*
X7187590Y629869D01*
X7188301Y623570D01*
X7190231Y618083D01*
X7193280Y613206D01*
X7197394Y609092D01*
X7202271Y605993D01*
X7207758Y604113D01*
X7214057Y603402D01*
X7390942Y603402D01*
X7397242Y604113D01*
X7402728Y605993D01*
X7407605Y609092D01*
X7411720Y613206D01*
X7414768Y618083D01*
X7416698Y623570D01*
X7417409Y629869D01*
X7417409Y706526D01*
X7418222Y710539D01*
X7420559Y713892D01*
X7424064Y716076D01*
X7428077Y716686D01*
X7432040Y715619D01*
X7435291Y713130D01*
X7437272Y709523D01*
X7438796Y704646D01*
X7440675Y700430D01*
X7441590Y696264D01*
X7441590Y629869D01*
X7442301Y623570D01*
X7444231Y618083D01*
X7447280Y613206D01*
X7451394Y609092D01*
X7456271Y605993D01*
X7461758Y604113D01*
X7468057Y603402D01*
X7644942Y603402D01*
X7651242Y604113D01*
X7656728Y605993D01*
X7661605Y609092D01*
X7665720Y613206D01*
X7668768Y618083D01*
X7670698Y623570D01*
X7671409Y629869D01*
X7671409Y696264D01*
X7672324Y700430D01*
X7674356Y705002D01*
X7676642Y708202D01*
X7680045Y710336D01*
X7683957Y710996D01*
X7687818Y710082D01*
X7691018Y707796D01*
X7693101Y704443D01*
X7694930Y699668D01*
X7695590Y696061D01*
X7695590Y629869D01*
X7696301Y623570D01*
X7699502Y615238D01*
X7699908Y612444D01*
X7699908Y504342D01*
X7699146Y500481D01*
X7696962Y497179D01*
X7693659Y494995D01*
X7689748Y494182D01*
G37*

%LPC*%
G36*
X7276795Y972058D02*
G01*
X7298232Y972058D01*
X7298232Y1026007D01*
X7250328Y1026007D01*
X7250328Y998524D01*
X7251039Y992174D01*
X7252970Y986739D01*
X7256018Y981811D01*
X7260132Y977747D01*
X7265009Y974648D01*
X7270496Y972769D01*
G37*
G36*
X7250328Y1107592D02*
G01*
X7298232Y1107592D01*
X7298232Y1161542D01*
X7276795Y1161542D01*
X7270496Y1160830D01*
X7265009Y1158951D01*
X7260132Y1155852D01*
X7256018Y1151788D01*
X7252970Y1146860D01*
X7251039Y1141425D01*
X7250328Y1135075D01*
G37*

%LPD*%
G36*
X7961884Y494182D02*
G01*
X7958023Y494995D01*
X7954721Y497179D01*
X7952536Y500481D01*
X7951724Y504342D01*
X7951724Y733806D01*
X7951520Y741578D01*
X7950809Y749147D01*
X7949692Y756666D01*
X7948066Y764082D01*
X7946034Y771448D01*
X7943545Y778611D01*
X7940649Y785622D01*
X7937296Y792480D01*
X7933588Y799084D01*
X7929524Y805383D01*
X7927594Y807872D01*
X7925968Y810818D01*
X7925409Y814120D01*
X7925409Y868730D01*
X7924698Y875030D01*
X7922768Y880516D01*
X7919720Y885393D01*
X7915605Y889508D01*
X7910728Y892606D01*
X7905242Y894486D01*
X7898942Y895197D01*
X7722057Y895197D01*
X7715758Y894486D01*
X7710271Y892606D01*
X7705394Y889508D01*
X7698130Y882142D01*
X7694066Y880567D01*
X7689748Y880871D01*
X7685938Y882903D01*
X7683347Y886409D01*
X7682433Y890625D01*
X7682433Y954938D01*
X7683195Y958799D01*
X7685379Y962101D01*
X7688681Y964336D01*
X7692593Y965098D01*
X8623096Y965098D01*
X8627719Y965301D01*
X8632139Y965860D01*
X8636457Y966825D01*
X8640724Y968146D01*
X8644788Y969873D01*
X8648750Y971905D01*
X8652510Y974293D01*
X8656015Y976985D01*
X8659469Y980135D01*
X8798102Y1118819D01*
X8801354Y1121003D01*
X8805164Y1121816D01*
X8808974Y1121105D01*
X8812276Y1119073D01*
X8814511Y1115923D01*
X8815476Y1112113D01*
X8814917Y1108303D01*
X8813139Y1103325D01*
X8812428Y1096975D01*
X8812428Y1069492D01*
X8860332Y1069492D01*
X8860332Y1123442D01*
X8838895Y1123442D01*
X8832596Y1122730D01*
X8827617Y1121003D01*
X8823756Y1120444D01*
X8819997Y1121359D01*
X8816848Y1123645D01*
X8814765Y1126947D01*
X8814104Y1130757D01*
X8814917Y1134567D01*
X8817051Y1137767D01*
X8882735Y1203401D01*
X8885986Y1205636D01*
X8889898Y1206398D01*
X9114993Y1206398D01*
X9118904Y1205585D01*
X9122206Y1203350D01*
X9124391Y1199997D01*
X9125102Y1196035D01*
X9124289Y1192123D01*
X9121952Y1188872D01*
X9118549Y1186738D01*
X9105036Y1181608D01*
X9091574Y1174546D01*
X9079077Y1165910D01*
X9067444Y1155598D01*
X9038234Y1126388D01*
X9035440Y1124407D01*
X9032138Y1123442D01*
X9025839Y1122730D01*
X9020403Y1120851D01*
X9015476Y1117752D01*
X9011412Y1113688D01*
X9008313Y1108760D01*
X9006382Y1103325D01*
X9005671Y1096975D01*
X9005671Y1086459D01*
X9005417Y1084021D01*
X9000896Y1073353D01*
X8997442Y1062786D01*
X8995968Y1059891D01*
X8996019Y1057198D01*
X8994749Y1051407D01*
X8993632Y1043889D01*
X8992920Y1036319D01*
X8992717Y1028547D01*
X8992717Y998067D01*
X8991904Y994206D01*
X8989720Y990904D01*
X8986418Y988720D01*
X8982557Y987907D01*
X8929624Y987907D01*
X8929624Y933958D01*
X8951010Y933958D01*
X8957360Y934669D01*
X8962796Y936548D01*
X8967724Y939647D01*
X8971788Y943711D01*
X8973921Y947115D01*
X8976969Y950214D01*
X8981033Y951737D01*
X8985351Y951484D01*
X8989161Y949401D01*
X8991752Y945946D01*
X8992717Y941730D01*
X8992717Y890625D01*
X8991752Y886409D01*
X8989161Y882903D01*
X8985351Y880871D01*
X8981033Y880567D01*
X8976969Y882142D01*
X8969705Y889508D01*
X8964828Y892606D01*
X8959342Y894486D01*
X8953042Y895197D01*
X8776157Y895197D01*
X8769858Y894486D01*
X8764371Y892606D01*
X8759494Y889508D01*
X8755380Y885393D01*
X8752332Y880516D01*
X8750401Y875030D01*
X8749690Y868730D01*
X8749690Y629869D01*
X8750401Y623570D01*
X8752332Y618083D01*
X8755380Y613206D01*
X8759494Y609092D01*
X8764371Y605993D01*
X8769858Y604113D01*
X8776157Y603402D01*
X8953042Y603402D01*
X8959342Y604113D01*
X8964828Y605993D01*
X8969705Y609092D01*
X8973820Y613206D01*
X8976868Y618083D01*
X8978798Y623570D01*
X8979509Y629869D01*
X8979509Y706526D01*
X8980322Y710539D01*
X8982659Y713892D01*
X8986164Y716076D01*
X8990177Y716686D01*
X8994140Y715619D01*
X8997391Y713130D01*
X8999372Y709523D01*
X9000896Y704646D01*
X9002776Y700430D01*
X9003690Y696264D01*
X9003690Y629869D01*
X9004401Y623570D01*
X9006332Y618083D01*
X9009380Y613206D01*
X9013494Y609092D01*
X9018371Y605993D01*
X9023858Y604113D01*
X9030157Y603402D01*
X9207042Y603402D01*
X9213342Y604113D01*
X9218828Y605993D01*
X9223705Y609092D01*
X9230969Y616458D01*
X9235033Y618032D01*
X9239351Y617728D01*
X9243161Y615696D01*
X9245752Y612190D01*
X9246717Y607974D01*
X9246717Y504342D01*
X9245904Y500481D01*
X9243720Y497179D01*
X9240418Y494995D01*
X9236557Y494182D01*
G37*

%LPC*%
G36*
X8838895Y933958D02*
G01*
X8860332Y933958D01*
X8860332Y987907D01*
X8812428Y987907D01*
X8812428Y960424D01*
X8813139Y954074D01*
X8815070Y948639D01*
X8818118Y943711D01*
X8822232Y939647D01*
X8827109Y936548D01*
X8832596Y934669D01*
G37*
G36*
X8929624Y1069492D02*
G01*
X8977528Y1069492D01*
X8977528Y1096975D01*
X8976817Y1103325D01*
X8974886Y1108760D01*
X8971788Y1113688D01*
X8967724Y1117752D01*
X8962796Y1120851D01*
X8957360Y1122730D01*
X8951010Y1123442D01*
X8929624Y1123442D01*
G37*

%LPD*%
D11*
X10447121Y-825500D02*
G01*
X10485221Y-787400D01*
X12331700Y-787400D01*
X12331700Y-881278D01*
D12*
X10823193Y2774314D02*
G01*
X10830179Y2781300D01*
X11163300Y2781300D01*
X11155349Y2760649D01*
X11155349Y962685D01*
D11*
X9372600Y444500D02*
G01*
X9436100Y381000D01*
X9690100Y381000D01*
X9690100Y381000D02*
G01*
X9690100Y381000D01*
X9740900Y330200D01*
X9740900Y-1333500D01*
X9804400Y-1397000D01*
X10147300Y-1397000D01*
X10147300Y-1473200D01*
X10083800Y-1536700D01*
X13779500Y-1536700D01*
D13*
X12585700Y-893978D02*
G01*
X12621285Y-858393D01*
X12621285Y1122756D01*
X10822686Y2519934D02*
G01*
X11023600Y2519934D01*
X11023600Y736600D01*
X10253979Y-33020D01*
X10253979Y-825500D01*
X12585700Y-894079D02*
G01*
X12542520Y-894079D01*
X12362179Y-1074420D01*
X12331700Y-1074420D01*
X12585700Y-1087221D02*
G01*
X12627912Y-1045009D01*
X13507603Y-1045009D01*
X13507605Y-1045006D02*
G01*
X13680401Y-1217803D01*
X13792200Y-1217803D01*
X13507605Y-1494993D02*
G01*
X13578801Y-1423796D01*
X13792200Y-1423796D01*
X10253878Y-825500D02*
G01*
X10160000Y-919378D01*
X10160000Y-1128903D01*
X10490200Y-1328521D02*
G01*
X10406278Y-1244600D01*
X10325100Y-1244600D01*
X10209402Y-1128903D01*
X10160000Y-1128903D01*
X10160000Y-1334896D02*
G01*
X10185400Y-1360296D01*
X10185400Y-1498600D01*
X10201706Y-1482293D01*
X10901794Y-1482293D01*
X10490200Y-1135278D02*
G01*
X10593171Y-1032306D01*
X10901794Y-1032306D01*
X11551805Y-1032306D02*
G01*
X10901794Y-1032306D01*
X11849100Y-1217803D02*
G01*
X11663603Y-1032306D01*
X11551805Y-1032306D01*
X13507618Y-1494993D02*
G01*
X10914499Y-1494993D01*
X10901796Y-1482290D01*
X4381500Y3456431D02*
G01*
X4409998Y3427933D01*
X4409998Y2872206D01*
X6108700Y3456431D02*
G01*
X6124498Y3440633D01*
X6124498Y2859506D01*
X7810500Y3367531D02*
G01*
X7902498Y3275533D01*
X7902498Y2884906D01*
X9639300Y3367531D02*
G01*
X9642398Y3364433D01*
X9642398Y2872206D01*
X10312400Y3683254D02*
G01*
X10566400Y3683000D01*
X10541000Y3657600D01*
X10541000Y2833370D01*
X10823193Y2774314D02*
G01*
X10764011Y2833496D01*
X10541000Y2833496D01*
X10822965Y2646756D02*
G01*
X10803712Y2627503D01*
X10541000Y2627503D01*
X10312400Y3149345D02*
G01*
X10274300Y3111245D01*
X10275824Y2627629D01*
X10541000Y2627629D01*
X12621768Y2774086D02*
G01*
X12814300Y2966618D01*
X12814300Y3352800D01*
X12827000Y3365500D01*
X13093700Y3365500D01*
X12621285Y2392756D02*
G01*
X12641529Y2413000D01*
X12865100Y2413000D01*
X13055600Y2603500D01*
X13093700Y2603500D01*
X12621285Y2265756D02*
G01*
X12626441Y2260600D01*
X12915900Y2260600D01*
X13004800Y2349500D01*
X13093700Y2349500D01*
X4483100Y4131299D02*
G01*
X4834900Y4483100D01*
X5588000Y4483100D01*
X5600700Y4470400D01*
X12344400Y4470400D01*
X12407900Y4406900D01*
X12407900Y2057400D01*
X6184900Y4080499D02*
G01*
X6184900Y4368800D01*
X6223000Y4330700D01*
X12039600Y4330700D01*
X12280900Y4089400D01*
X12280900Y2032000D01*
X7912100Y4042399D02*
G01*
X8048000Y4178300D01*
X11734800Y4178300D01*
X12141200Y3771900D01*
X12141200Y3759200D01*
X12179300Y3721100D01*
X12179300Y1879600D01*
X12184710Y1885010D01*
X12621031Y1885010D01*
X9664700Y4017010D02*
G01*
X11743690Y4017010D01*
X12065000Y3695700D01*
X12065000Y1752600D01*
X12070407Y1758007D01*
X12621033Y1758007D01*
X9664700Y3857015D02*
G01*
X9734301Y3787414D01*
X9734301Y3617465D01*
X7912100Y3882405D02*
G01*
X7905495Y3875801D01*
X7905495Y3617468D01*
X6184900Y3920505D02*
G01*
X6203695Y3901709D01*
X6203695Y3706368D01*
X4483100Y3971305D02*
G01*
X4476495Y3964701D01*
X4476495Y3706368D01*
X10822431Y1758187D02*
G01*
X10502900Y1758187D01*
X10502900Y1346200D01*
X10401300Y1244600D01*
X10439400Y1217929D01*
X7526020Y1066800D02*
G01*
X7576820Y1016000D01*
X8623300Y1016000D01*
X8864600Y1257300D01*
X10071100Y1257300D01*
X10477500Y1879600D01*
X10822431Y1885187D01*
X4059026Y1003300D02*
G01*
X5232400Y1003300D01*
X5626100Y1397000D01*
X7835900Y1397000D01*
X7962900Y1270000D01*
X8420100Y1270000D01*
X8712200Y1562100D01*
X8737600Y1536700D01*
X9359900Y1536700D01*
X9398000Y1574800D01*
X9398000Y1892300D01*
X9423400Y1917700D01*
X9829800Y1917700D01*
X9855200Y1892300D01*
X10134600Y1892300D01*
X5697326Y1016000D02*
G01*
X5964026Y1282700D01*
X7150100Y1282700D01*
X7162800Y1295400D01*
X7721600Y1295400D01*
X7861300Y1155700D01*
X8521700Y1155700D01*
X8750300Y1384300D01*
X9804400Y1384300D01*
X10121900Y1701800D01*
X10210800Y1701800D01*
X9088120Y1028700D02*
G01*
X10439400Y1028700D01*
X10439400Y1244600D01*
X10430042Y1273340D01*
D11*
X7810500Y749300D02*
G01*
X7825831Y733968D01*
X7825831Y368300D01*
X5981700Y698500D02*
G01*
X6021092Y659107D01*
X6021092Y368300D01*
X4343400Y698500D02*
G01*
X4356100Y685800D01*
X4356100Y368300D01*
X4356100Y368300D02*
G01*
X4356100Y368300D01*
X5436778Y368300D01*
X5436778Y368300D02*
G01*
X7443378Y368300D01*
X7443378Y368300D02*
G01*
X8103778Y368300D01*
X8103778Y368300D02*
G01*
X8764178Y368300D01*
X8764178Y368300D02*
G01*
X9145178Y368300D01*
X9145178Y368300D02*
G01*
X9448800Y368300D01*
X9372600Y444500D01*
X9372600Y749300D01*
X7556500Y-215900D02*
G01*
X7561582Y-210817D01*
X7543800Y50800D01*
X4089400Y50800D02*
G01*
X2679700Y50800D01*
X2400300Y-228600D01*
X5727700Y-266700D02*
G01*
X5715000Y76200D01*
X5715000Y25400D01*
D14*
X7065721Y-635000D02*
G01*
X7065721Y-312978D01*
X7162800Y-254000D01*
D11*
X4089400Y-266700D02*
G01*
X4089400Y63500D01*
X9118600Y63500D01*
X9118600Y-215900D01*
X2400300Y-228600D02*
G01*
X2400300Y-228600D01*
X2400300Y-346125D01*
X2400300Y-346125D02*
G01*
X2400300Y-558800D01*
D15*
X1879600Y342900D02*
G01*
X1930400Y1536700D01*
X2374900Y2146300D01*
X9042400Y2146300D01*
X9042400Y3072206D01*
D11*
X5473700Y-266700D02*
G01*
X5473700Y-685800D01*
X5490972Y-685800D01*
X9118600Y749300D02*
G01*
X9118600Y1028700D01*
X9156700Y1066800D01*
X5727700Y698500D02*
G01*
X5727700Y1066800D01*
X5765800Y1066800D01*
X4127500Y1016000D02*
G01*
X4089400Y972921D01*
X4089400Y698500D01*
X5786627Y-685800D02*
G01*
X5787643Y-1358900D01*
X3835400Y-266700D02*
G01*
X3771900Y-330200D01*
X3771900Y-723900D01*
X4098543Y-1358900D02*
G01*
X4135678Y-1321765D01*
X4135678Y-736600D01*
X8864600Y-215900D02*
G01*
X8831021Y-249478D01*
X8831021Y-673100D01*
X9203943Y-1346200D02*
G01*
X9126778Y-1269034D01*
X9126778Y-673100D01*
X7556500Y749300D02*
G01*
X7556500Y1104900D01*
D14*
X7425943Y-1346200D02*
G01*
X7425943Y-736600D01*
D15*
X7302500Y3084906D02*
G01*
X7277100Y3059506D01*
X7277100Y2133600D01*
X5524500Y3059506D02*
G01*
X5524500Y2164445D01*
X5542645Y2146300D01*
X3810000Y3072206D02*
G01*
X3828143Y2146300D01*
X3793670Y2146300D01*
X1092200Y-1371600D02*
G01*
X1092200Y364693D01*
X1135100Y364693D01*
X1879600Y342900D02*
G01*
X1841500Y-1384300D01*
X1854200Y-1282700D01*
D16*
G01*
X10312400Y3149295D03*
G01*
X10312400Y3683304D03*
G36*
X10227500Y-1199400D02*
G01*
X10092499Y-1199400D01*
X10092499Y-1058400D01*
X10227500Y-1058400D01*
G37*
D17*
G01*
X10160000Y-1334896D03*
G36*
X10473499Y2698000D02*
G01*
X10608500Y2698000D01*
X10608500Y2557000D01*
X10473499Y2557000D01*
G37*
G01*
X10541000Y2833496D03*
G36*
X11916600Y-1288300D02*
G01*
X11781599Y-1288300D01*
X11781599Y-1147300D01*
X11916600Y-1147300D01*
G37*
G01*
X11849100Y-1423796D03*
G36*
X13859700Y-1288300D02*
G01*
X13724699Y-1288300D01*
X13724699Y-1147300D01*
X13859700Y-1147300D01*
G37*
G01*
X13792200Y-1423796D03*
G36*
X12400549Y-937900D02*
G01*
X12262850Y-937900D01*
X12262850Y-824646D01*
X12400549Y-824646D01*
G37*
D18*
G01*
X12331700Y-1074521D03*
G36*
X10390499Y-894349D02*
G01*
X10390499Y-756650D01*
X10503753Y-756650D01*
X10503753Y-894349D01*
G37*
G36*
X10310500Y-894349D02*
G01*
X10310500Y-756650D01*
X10197246Y-756650D01*
X10197246Y-894349D01*
G37*
G36*
X12654549Y-950600D02*
G01*
X12516850Y-950600D01*
X12516850Y-837346D01*
X12654549Y-837346D01*
G37*
G01*
X12585700Y-1087221D03*
G36*
X10421350Y-1271899D02*
G01*
X10559049Y-1271899D01*
X10559049Y-1385153D01*
X10421350Y-1385153D01*
G37*
G01*
X10490200Y-1135278D03*
G36*
X4346498Y3518931D02*
G01*
X4416501Y3518931D01*
X4416501Y3393932D01*
X4346498Y3393932D01*
G37*
G36*
X4251502Y3768867D02*
G01*
X4321505Y3768867D01*
X4321505Y3643868D01*
X4251502Y3643868D01*
G37*
G36*
X4441494Y3768867D02*
G01*
X4511497Y3768867D01*
X4511497Y3643868D01*
X4441494Y3643868D01*
G37*
G36*
X7775498Y3430031D02*
G01*
X7845501Y3430031D01*
X7845501Y3305032D01*
X7775498Y3305032D01*
G37*
G36*
X7680502Y3679967D02*
G01*
X7750505Y3679967D01*
X7750505Y3554968D01*
X7680502Y3554968D01*
G37*
G36*
X7870494Y3679967D02*
G01*
X7940497Y3679967D01*
X7940497Y3554968D01*
X7870494Y3554968D01*
G37*
G36*
X6073698Y3518931D02*
G01*
X6143701Y3518931D01*
X6143701Y3393932D01*
X6073698Y3393932D01*
G37*
G36*
X5978702Y3768867D02*
G01*
X6048705Y3768867D01*
X6048705Y3643868D01*
X5978702Y3643868D01*
G37*
G36*
X6168694Y3768867D02*
G01*
X6238697Y3768867D01*
X6238697Y3643868D01*
X6168694Y3643868D01*
G37*
G36*
X9604298Y3430031D02*
G01*
X9674301Y3430031D01*
X9674301Y3305032D01*
X9604298Y3305032D01*
G37*
G36*
X9509302Y3679967D02*
G01*
X9579305Y3679967D01*
X9579305Y3554968D01*
X9509302Y3554968D01*
G37*
G36*
X9699294Y3679967D02*
G01*
X9769297Y3679967D01*
X9769297Y3554968D01*
X9699294Y3554968D01*
G37*
G36*
X4002399Y934450D02*
G01*
X4002399Y1072149D01*
X4115653Y1072149D01*
X4115653Y934450D01*
G37*
G36*
X3922400Y934450D02*
G01*
X3922400Y1072149D01*
X3809146Y1072149D01*
X3809146Y934450D01*
G37*
G36*
X7469499Y997950D02*
G01*
X7469499Y1135649D01*
X7582753Y1135649D01*
X7582753Y997950D01*
G37*
G36*
X7389500Y997950D02*
G01*
X7389500Y1135649D01*
X7276246Y1135649D01*
X7276246Y997950D01*
G37*
G36*
X5640699Y947150D02*
G01*
X5640699Y1084849D01*
X5753953Y1084849D01*
X5753953Y947150D01*
G37*
G36*
X5560700Y947150D02*
G01*
X5560700Y1084849D01*
X5447446Y1084849D01*
X5447446Y947150D01*
G37*
G36*
X9031599Y959850D02*
G01*
X9031599Y1097549D01*
X9144853Y1097549D01*
X9144853Y959850D01*
G37*
G36*
X8951600Y959850D02*
G01*
X8951600Y1097549D01*
X8838346Y1097549D01*
X8838346Y959850D01*
G37*
D21*
G01*
X4483100Y3971305D03*
G01*
X4483100Y4131299D03*
G01*
X6184900Y3920505D03*
G01*
X6184900Y4080499D03*
G01*
X7912100Y3882405D03*
G01*
X7912100Y4042399D03*
G01*
X9664700Y3857005D03*
G01*
X9664700Y4016999D03*
G36*
X7301100Y-720049D02*
G01*
X7301100Y-549950D01*
X7421852Y-549950D01*
X7421852Y-720049D01*
G37*
G36*
X7126099Y-720049D02*
G01*
X7126099Y-549950D01*
X7005347Y-549950D01*
X7005347Y-720049D01*
G37*
G36*
X4075300Y-821649D02*
G01*
X4075300Y-651550D01*
X4196052Y-651550D01*
X4196052Y-821649D01*
G37*
G36*
X3900299Y-821649D02*
G01*
X3900299Y-651550D01*
X3779547Y-651550D01*
X3779547Y-821649D01*
G37*
G36*
X5726300Y-770849D02*
G01*
X5726300Y-600750D01*
X5847052Y-600750D01*
X5847052Y-770849D01*
G37*
G36*
X5551299Y-770849D02*
G01*
X5551299Y-600750D01*
X5430547Y-600750D01*
X5430547Y-770849D01*
G37*
G36*
X9066400Y-758149D02*
G01*
X9066400Y-588050D01*
X9187152Y-588050D01*
X9187152Y-758149D01*
G37*
G36*
X8891399Y-758149D02*
G01*
X8891399Y-588050D01*
X8770647Y-588050D01*
X8770647Y-758149D01*
G37*
G36*
X7213500Y-95900D02*
G01*
X7391501Y-95900D01*
X7391501Y-335899D01*
X7213500Y-335899D01*
G37*
G36*
X7467500Y-95900D02*
G01*
X7645501Y-95900D01*
X7645501Y-335899D01*
X7467500Y-335899D01*
G37*
G36*
X7721500Y-95900D02*
G01*
X7899501Y-95900D01*
X7899501Y-335899D01*
X7721500Y-335899D01*
G37*
G36*
X7721500Y869299D02*
G01*
X7899501Y869299D01*
X7899501Y629300D01*
X7721500Y629300D01*
G37*
G36*
X7467500Y869299D02*
G01*
X7645501Y869299D01*
X7645501Y629300D01*
X7467500Y629300D01*
G37*
G36*
X7213500Y869299D02*
G01*
X7391501Y869299D01*
X7391501Y629300D01*
X7213500Y629300D01*
G37*
G36*
X3746400Y-146700D02*
G01*
X3924401Y-146700D01*
X3924401Y-386699D01*
X3746400Y-386699D01*
G37*
G36*
X4000400Y-146700D02*
G01*
X4178401Y-146700D01*
X4178401Y-386699D01*
X4000400Y-386699D01*
G37*
G36*
X4254400Y-146700D02*
G01*
X4432401Y-146700D01*
X4432401Y-386699D01*
X4254400Y-386699D01*
G37*
G36*
X4254400Y818499D02*
G01*
X4432401Y818499D01*
X4432401Y578500D01*
X4254400Y578500D01*
G37*
G36*
X4000400Y818499D02*
G01*
X4178401Y818499D01*
X4178401Y578500D01*
X4000400Y578500D01*
G37*
G36*
X3746400Y818499D02*
G01*
X3924401Y818499D01*
X3924401Y578500D01*
X3746400Y578500D01*
G37*
G36*
X5384700Y-146700D02*
G01*
X5562701Y-146700D01*
X5562701Y-386699D01*
X5384700Y-386699D01*
G37*
G36*
X5638700Y-146700D02*
G01*
X5816701Y-146700D01*
X5816701Y-386699D01*
X5638700Y-386699D01*
G37*
G36*
X5892700Y-146700D02*
G01*
X6070701Y-146700D01*
X6070701Y-386699D01*
X5892700Y-386699D01*
G37*
G36*
X5892700Y818499D02*
G01*
X6070701Y818499D01*
X6070701Y578500D01*
X5892700Y578500D01*
G37*
G36*
X5638700Y818499D02*
G01*
X5816701Y818499D01*
X5816701Y578500D01*
X5638700Y578500D01*
G37*
G36*
X5384700Y818499D02*
G01*
X5562701Y818499D01*
X5562701Y578500D01*
X5384700Y578500D01*
G37*
G36*
X8775600Y-95900D02*
G01*
X8953601Y-95900D01*
X8953601Y-335899D01*
X8775600Y-335899D01*
G37*
G36*
X9029600Y-95900D02*
G01*
X9207601Y-95900D01*
X9207601Y-335899D01*
X9029600Y-335899D01*
G37*
G36*
X9283600Y-95900D02*
G01*
X9461601Y-95900D01*
X9461601Y-335899D01*
X9283600Y-335899D01*
G37*
G36*
X9283600Y869299D02*
G01*
X9461601Y869299D01*
X9461601Y629300D01*
X9283600Y629300D01*
G37*
G36*
X9029600Y869299D02*
G01*
X9207601Y869299D01*
X9207601Y629300D01*
X9029600Y629300D01*
G37*
G36*
X8775600Y869299D02*
G01*
X8953601Y869299D01*
X8953601Y629300D01*
X8775600Y629300D01*
G37*
G36*
X12511760Y2824073D02*
G01*
X12731775Y2824073D01*
X12731775Y2724073D01*
X12511760Y2724073D01*
G37*
G36*
X12511531Y2696514D02*
G01*
X12731521Y2696514D01*
X12731521Y2596514D01*
X12511531Y2596514D01*
G37*
G36*
X12511277Y2569768D02*
G01*
X12731267Y2569768D01*
X12731267Y2469769D01*
X12511277Y2469769D01*
G37*
G36*
X12511277Y2442768D02*
G01*
X12731267Y2442768D01*
X12731267Y2342769D01*
X12511277Y2342769D01*
G37*
G36*
X12511277Y2315768D02*
G01*
X12731267Y2315768D01*
X12731267Y2215769D01*
X12511277Y2215769D01*
G37*
G36*
X12511277Y2188768D02*
G01*
X12731267Y2188768D01*
X12731267Y2088769D01*
X12511277Y2088769D01*
G37*
G36*
X12511277Y2061768D02*
G01*
X12731267Y2061768D01*
X12731267Y1961769D01*
X12511277Y1961769D01*
G37*
G36*
X12511024Y1935022D02*
G01*
X12731013Y1935022D01*
X12731013Y1835022D01*
X12511024Y1835022D01*
G37*
G36*
X12511024Y1808022D02*
G01*
X12731013Y1808022D01*
X12731013Y1708022D01*
X12511024Y1708022D01*
G37*
G36*
X12511024Y1681022D02*
G01*
X12731013Y1681022D01*
X12731013Y1581022D01*
X12511024Y1581022D01*
G37*
G36*
X12511024Y1554022D02*
G01*
X12731013Y1554022D01*
X12731013Y1454022D01*
X12511024Y1454022D01*
G37*
G36*
X12511277Y1426768D02*
G01*
X12731267Y1426768D01*
X12731267Y1326769D01*
X12511277Y1326769D01*
G37*
G36*
X12511277Y1299768D02*
G01*
X12731267Y1299768D01*
X12731267Y1199769D01*
X12511277Y1199769D01*
G37*
G36*
X12511277Y1172768D02*
G01*
X12731267Y1172768D01*
X12731267Y1072769D01*
X12511277Y1072769D01*
G37*
G36*
X10713186Y2824327D02*
G01*
X10933201Y2824327D01*
X10933201Y2724327D01*
X10713186Y2724327D01*
G37*
G36*
X10712958Y2696768D02*
G01*
X10932947Y2696768D01*
X10932947Y2596769D01*
X10712958Y2596769D01*
G37*
G36*
X10712704Y2570022D02*
G01*
X10932693Y2570022D01*
X10932693Y2470022D01*
X10712704Y2470022D01*
G37*
G36*
X10712704Y2443022D02*
G01*
X10932693Y2443022D01*
X10932693Y2343022D01*
X10712704Y2343022D01*
G37*
G36*
X10712704Y2316022D02*
G01*
X10932693Y2316022D01*
X10932693Y2216022D01*
X10712704Y2216022D01*
G37*
G36*
X10712704Y2189022D02*
G01*
X10932693Y2189022D01*
X10932693Y2089022D01*
X10712704Y2089022D01*
G37*
G36*
X10712704Y2062022D02*
G01*
X10932693Y2062022D01*
X10932693Y1962022D01*
X10712704Y1962022D01*
G37*
G36*
X10712450Y1935276D02*
G01*
X10932439Y1935276D01*
X10932439Y1835277D01*
X10712450Y1835277D01*
G37*
G36*
X10712450Y1808276D02*
G01*
X10932439Y1808276D01*
X10932439Y1708277D01*
X10712450Y1708277D01*
G37*
G36*
X10712450Y1681276D02*
G01*
X10932439Y1681276D01*
X10932439Y1581277D01*
X10712450Y1581277D01*
G37*
G36*
X10712450Y1554276D02*
G01*
X10932439Y1554276D01*
X10932439Y1454277D01*
X10712450Y1454277D01*
G37*
G36*
X10712704Y1427022D02*
G01*
X10932693Y1427022D01*
X10932693Y1327022D01*
X10712704Y1327022D01*
G37*
G36*
X10712704Y1300022D02*
G01*
X10932693Y1300022D01*
X10932693Y1200022D01*
X10712704Y1200022D01*
G37*
G36*
X10712704Y1173022D02*
G01*
X10932693Y1173022D01*
X10932693Y1073022D01*
X10712704Y1073022D01*
G37*
D25*
G01*
X11155349Y962685D03*
G01*
X11282349Y962685D03*
G01*
X11409349Y962685D03*
G01*
X11536095Y962431D03*
G01*
X11663095Y962431D03*
G01*
X11790095Y962431D03*
G01*
X11917095Y962431D03*
G01*
X12044349Y962685D03*
G01*
X12171349Y962685D03*
G01*
X12298349Y962685D03*
G36*
X11521998Y2230831D02*
G01*
X11921997Y2230831D01*
X11921997Y1830831D01*
X11521998Y1830831D01*
G37*
D27*
G01*
X13507605Y-1045006D03*
G01*
X12857594Y-1045006D03*
G01*
X12857594Y-1494993D03*
G01*
X13507605Y-1494993D03*
G01*
X10901794Y-1482293D03*
G01*
X11551805Y-1482293D03*
G01*
X11551805Y-1032306D03*
G01*
X10901794Y-1032306D03*
D28*
G01*
X3210052Y1652193D03*
G01*
X3810000Y3072206D03*
G01*
X4409998Y2872206D03*
G01*
X3210001Y2872206D03*
G01*
X4409947Y1652193D03*
G01*
X8442452Y1652193D03*
G01*
X9042400Y3072206D03*
G01*
X9642398Y2872206D03*
G01*
X8442401Y2872206D03*
G01*
X9642347Y1652193D03*
D11*
G01*
X1710944Y-1371600D03*
G01*
X1210055Y-1371600D03*
G01*
X4098543Y-1358900D03*
G01*
X3597656Y-1358900D03*
G01*
X7425943Y-1346200D03*
G01*
X6925056Y-1346200D03*
G01*
X5787643Y-1358900D03*
G01*
X5286756Y-1358900D03*
G01*
X9203943Y-1346200D03*
G01*
X8703056Y-1346200D03*
D29*
G01*
X13093700Y3365500D03*
G01*
X13093700Y3111500D03*
G01*
X13093700Y2857500D03*
G01*
X13093700Y2603500D03*
G01*
X13093700Y2349500D03*
D30*
G01*
X13093700Y2095500D03*
D11*
G01*
X2335098Y3724694D03*
G01*
X535101Y3724694D03*
G01*
X1735099Y364705D03*
G01*
X1135100Y364705D03*
D28*
G01*
X4924552Y1639493D03*
G01*
X5524500Y3059506D03*
G01*
X6124498Y2859506D03*
G01*
X4924501Y2859506D03*
G01*
X6124447Y1639493D03*
G01*
X6702552Y1664893D03*
G01*
X7302500Y3084906D03*
G01*
X7902498Y2884906D03*
G01*
X6702501Y2884906D03*
G01*
X7902447Y1664893D03*
D12*
G01*
X3865778Y1003300D03*
G01*
X5504078Y1016000D03*
G01*
X7332878Y1066800D03*
G01*
X8894978Y1028700D03*
G01*
X2400300Y-558800D03*
G01*
X2400300Y-346125D03*
G01*
X2400300Y-228600D03*
G01*
X10820400Y1625600D03*
G01*
X10820400Y1498600D03*
G01*
X10134600Y1892300D03*
G01*
X10210800Y1701800D03*
G01*
X12280900Y2032000D03*
G01*
X12407900Y2057400D03*
G01*
X12621031Y1504010D03*
G01*
X12621285Y1376756D03*
G01*
X10447121Y-825500D03*
G01*
X10820400Y2641600D03*
G01*
X12621768Y2774086D03*
G01*
X10823193Y2774314D03*
G01*
X9537700Y3619500D03*
G01*
X7715504Y3617468D03*
G01*
X6013704Y3706368D03*
G01*
X4286504Y3706368D03*
G01*
X10541000Y2627503D03*
G01*
X10312400Y3683254D03*
G01*
X11163300Y965200D03*
G01*
X9690100Y381000D03*
G01*
X9145178Y368300D03*
G01*
X8764178Y368300D03*
G01*
X8103778Y368300D03*
G01*
X7443378Y368300D03*
G01*
X7825831Y733968D03*
G01*
X6021092Y659107D03*
G01*
X6021092Y368300D03*
G01*
X4356100Y368300D03*
G01*
X4356100Y685800D03*
G01*
X5436778Y368300D03*
M02*
