G04 Layer: TopPasteMaskLayer*
G04 EasyEDA v6.4.21, 2021-08-30T13:38:49+01:00*
G04 675468226515401a9f91b2405e789893,c56e7913202049aab2d2ce8198c124d2,10*
G04 Gerber Generator version 0.2*
G04 Scale: 100 percent, Rotated: No, Reflected: No *
G04 Dimensions in millimeters *
G04 leading zeros omitted , absolute positions ,4 integer and 5 decimal *
%FSLAX45Y45*%
%MOMM*%

%ADD16R,1.2000X3.5000*%
%ADD21R,1.1000X1.0000*%
%ADD25R,1.0000X2.2000*%

%LPD*%
G36*
X10135006Y-1273911D02*
G01*
X10094010Y-1274419D01*
X10088981Y-1279398D01*
X10088981Y-1394409D01*
X10094010Y-1399387D01*
X10221976Y-1399387D01*
X10227005Y-1394409D01*
X10227005Y-1279398D01*
X10221976Y-1274419D01*
X10180015Y-1274876D01*
X10180015Y-1318920D01*
X10135006Y-1318920D01*
G37*
G36*
X10094010Y-1059383D02*
G01*
X10088981Y-1064412D01*
X10088981Y-1179423D01*
X10094010Y-1184402D01*
X10135006Y-1183894D01*
X10135006Y-1139901D01*
X10180015Y-1139901D01*
X10180015Y-1184402D01*
X10221976Y-1184402D01*
X10227005Y-1179423D01*
X10227005Y-1064412D01*
X10221976Y-1059383D01*
G37*
G36*
X10479024Y2897987D02*
G01*
X10473994Y2893009D01*
X10473994Y2777998D01*
X10479024Y2773019D01*
X10520984Y2773476D01*
X10520984Y2817520D01*
X10565993Y2817520D01*
X10565993Y2772511D01*
X10606989Y2773019D01*
X10612018Y2777998D01*
X10612018Y2893009D01*
X10606989Y2897987D01*
G37*
G36*
X10479024Y2683002D02*
G01*
X10473994Y2678023D01*
X10473994Y2563012D01*
X10479024Y2557983D01*
X10606989Y2557983D01*
X10612018Y2563012D01*
X10612018Y2678023D01*
X10606989Y2683002D01*
X10565993Y2682494D01*
X10565993Y2638501D01*
X10520984Y2638501D01*
X10520984Y2683002D01*
G37*
G36*
X11824106Y-1362811D02*
G01*
X11783110Y-1363319D01*
X11778081Y-1368298D01*
X11778081Y-1483309D01*
X11783110Y-1488287D01*
X11911076Y-1488287D01*
X11916105Y-1483309D01*
X11916105Y-1368298D01*
X11911076Y-1363319D01*
X11869115Y-1363776D01*
X11869115Y-1407820D01*
X11824106Y-1407820D01*
G37*
G36*
X11783110Y-1148283D02*
G01*
X11778081Y-1153312D01*
X11778081Y-1268323D01*
X11783110Y-1273302D01*
X11824106Y-1272794D01*
X11824106Y-1228801D01*
X11869115Y-1228801D01*
X11869115Y-1273302D01*
X11911076Y-1273302D01*
X11916105Y-1268323D01*
X11916105Y-1153312D01*
X11911076Y-1148283D01*
G37*
G36*
X13767206Y-1362811D02*
G01*
X13726210Y-1363319D01*
X13721181Y-1368298D01*
X13721181Y-1483309D01*
X13726210Y-1488287D01*
X13854176Y-1488287D01*
X13859205Y-1483309D01*
X13859205Y-1368298D01*
X13854176Y-1363319D01*
X13812215Y-1363776D01*
X13812215Y-1407820D01*
X13767206Y-1407820D01*
G37*
G36*
X13726210Y-1148283D02*
G01*
X13721181Y-1153312D01*
X13721181Y-1268323D01*
X13726210Y-1273302D01*
X13767206Y-1272794D01*
X13767206Y-1228801D01*
X13812215Y-1228801D01*
X13812215Y-1273302D01*
X13854176Y-1273302D01*
X13859205Y-1268323D01*
X13859205Y-1153312D01*
X13854176Y-1148283D01*
G37*
G36*
X12308687Y-1022400D02*
G01*
X12267692Y-1022908D01*
X12262713Y-1027887D01*
X12262713Y-1142898D01*
X12267692Y-1147927D01*
X12395708Y-1147927D01*
X12400686Y-1142898D01*
X12400686Y-1027887D01*
X12395708Y-1022908D01*
X12353696Y-1023416D01*
X12353696Y-1067409D01*
X12308687Y-1067409D01*
G37*
G36*
X12267692Y-807923D02*
G01*
X12262713Y-812901D01*
X12262713Y-927912D01*
X12267692Y-932891D01*
X12308687Y-932383D01*
X12308687Y-888390D01*
X12353696Y-888390D01*
X12353696Y-932891D01*
X12395708Y-932891D01*
X12400686Y-927912D01*
X12400686Y-812901D01*
X12395708Y-807923D01*
G37*
G36*
X10185501Y-756513D02*
G01*
X10180472Y-761492D01*
X10180472Y-889508D01*
X10185501Y-894486D01*
X10300512Y-894486D01*
X10305491Y-889508D01*
X10304983Y-847496D01*
X10260990Y-847496D01*
X10260990Y-802487D01*
X10305999Y-802487D01*
X10305491Y-761492D01*
X10300512Y-756513D01*
G37*
G36*
X10400487Y-756513D02*
G01*
X10395508Y-761492D01*
X10396016Y-802487D01*
X10440009Y-802487D01*
X10440009Y-847496D01*
X10395508Y-847496D01*
X10395508Y-889508D01*
X10400487Y-894486D01*
X10515498Y-894486D01*
X10520476Y-889508D01*
X10520476Y-761492D01*
X10515498Y-756513D01*
G37*
G36*
X12562687Y-1035100D02*
G01*
X12521692Y-1035608D01*
X12516713Y-1040587D01*
X12516713Y-1155598D01*
X12521692Y-1160627D01*
X12649708Y-1160627D01*
X12654686Y-1155598D01*
X12654686Y-1040587D01*
X12649708Y-1035608D01*
X12607696Y-1036116D01*
X12607696Y-1080109D01*
X12562687Y-1080109D01*
G37*
G36*
X12521692Y-820623D02*
G01*
X12516713Y-825601D01*
X12516713Y-940612D01*
X12521692Y-945591D01*
X12562687Y-945083D01*
X12562687Y-901090D01*
X12607696Y-901090D01*
X12607696Y-945591D01*
X12649708Y-945591D01*
X12654686Y-940612D01*
X12654686Y-825601D01*
X12649708Y-820623D01*
G37*
G36*
X10426192Y-1061872D02*
G01*
X10421213Y-1066901D01*
X10421213Y-1181912D01*
X10426192Y-1186891D01*
X10468203Y-1186383D01*
X10468203Y-1142390D01*
X10513212Y-1142390D01*
X10513212Y-1187399D01*
X10554208Y-1186891D01*
X10559186Y-1181912D01*
X10559186Y-1066901D01*
X10554208Y-1061872D01*
G37*
G36*
X10426192Y-1276908D02*
G01*
X10421213Y-1281887D01*
X10421213Y-1396898D01*
X10426192Y-1401876D01*
X10554208Y-1401876D01*
X10559186Y-1396898D01*
X10559186Y-1281887D01*
X10554208Y-1276908D01*
X10513212Y-1277416D01*
X10513212Y-1321409D01*
X10468203Y-1321409D01*
X10468203Y-1276908D01*
G37*
G36*
X3797401Y1072286D02*
G01*
X3792372Y1067308D01*
X3792372Y939292D01*
X3797401Y934313D01*
X3912412Y934313D01*
X3917391Y939292D01*
X3916883Y981303D01*
X3872890Y981303D01*
X3872890Y1026312D01*
X3917899Y1026312D01*
X3917391Y1067308D01*
X3912412Y1072286D01*
G37*
G36*
X4012387Y1072286D02*
G01*
X4007408Y1067308D01*
X4007916Y1026312D01*
X4051909Y1026312D01*
X4051909Y981303D01*
X4007408Y981303D01*
X4007408Y939292D01*
X4012387Y934313D01*
X4127398Y934313D01*
X4132376Y939292D01*
X4132376Y1067308D01*
X4127398Y1072286D01*
G37*
G36*
X7264501Y1135786D02*
G01*
X7259472Y1130808D01*
X7259472Y1002792D01*
X7264501Y997813D01*
X7379512Y997813D01*
X7384491Y1002792D01*
X7383983Y1044803D01*
X7339990Y1044803D01*
X7339990Y1089812D01*
X7384999Y1089812D01*
X7384491Y1130808D01*
X7379512Y1135786D01*
G37*
G36*
X7479487Y1135786D02*
G01*
X7474508Y1130808D01*
X7475016Y1089812D01*
X7519009Y1089812D01*
X7519009Y1044803D01*
X7474508Y1044803D01*
X7474508Y1002792D01*
X7479487Y997813D01*
X7594498Y997813D01*
X7599476Y1002792D01*
X7599476Y1130808D01*
X7594498Y1135786D01*
G37*
G36*
X5435701Y1084986D02*
G01*
X5430672Y1080008D01*
X5430672Y951992D01*
X5435701Y947013D01*
X5550712Y947013D01*
X5555691Y951992D01*
X5555183Y994003D01*
X5511190Y994003D01*
X5511190Y1039012D01*
X5556199Y1039012D01*
X5555691Y1080008D01*
X5550712Y1084986D01*
G37*
G36*
X5650687Y1084986D02*
G01*
X5645708Y1080008D01*
X5646216Y1039012D01*
X5690209Y1039012D01*
X5690209Y994003D01*
X5645708Y994003D01*
X5645708Y951992D01*
X5650687Y947013D01*
X5765698Y947013D01*
X5770676Y951992D01*
X5770676Y1080008D01*
X5765698Y1084986D01*
G37*
G36*
X8826601Y1097686D02*
G01*
X8821572Y1092708D01*
X8821572Y964692D01*
X8826601Y959713D01*
X8941612Y959713D01*
X8946591Y964692D01*
X8946083Y1006703D01*
X8902090Y1006703D01*
X8902090Y1051712D01*
X8947099Y1051712D01*
X8946591Y1092708D01*
X8941612Y1097686D01*
G37*
G36*
X9041587Y1097686D02*
G01*
X9036608Y1092708D01*
X9037116Y1051712D01*
X9081109Y1051712D01*
X9081109Y1006703D01*
X9036608Y1006703D01*
X9036608Y964692D01*
X9041587Y959713D01*
X9156598Y959713D01*
X9161576Y964692D01*
X9161576Y1092708D01*
X9156598Y1097686D01*
G37*
G36*
X7311085Y-549960D02*
G01*
X7301077Y-559968D01*
X7301077Y-596087D01*
X7311085Y-606094D01*
X7332167Y-606094D01*
X7342174Y-616102D01*
X7342174Y-653897D01*
X7332167Y-663905D01*
X7311085Y-663905D01*
X7301077Y-673912D01*
X7301077Y-710031D01*
X7311085Y-720039D01*
X7411872Y-720039D01*
X7421829Y-710031D01*
X7421829Y-559968D01*
X7411872Y-549960D01*
G37*
G36*
X7015327Y-549960D02*
G01*
X7005370Y-559968D01*
X7005370Y-710031D01*
X7015327Y-720039D01*
X7116114Y-720039D01*
X7126122Y-710031D01*
X7126122Y-673912D01*
X7116114Y-663905D01*
X7095032Y-663905D01*
X7085025Y-653897D01*
X7085025Y-616102D01*
X7095032Y-606094D01*
X7116114Y-606094D01*
X7126122Y-596087D01*
X7126122Y-559968D01*
X7116114Y-549960D01*
G37*
G36*
X4085285Y-651560D02*
G01*
X4075277Y-661568D01*
X4075277Y-697687D01*
X4085285Y-707694D01*
X4106367Y-707694D01*
X4116374Y-717702D01*
X4116374Y-755497D01*
X4106367Y-765505D01*
X4085285Y-765505D01*
X4075277Y-775512D01*
X4075277Y-811631D01*
X4085285Y-821639D01*
X4186072Y-821639D01*
X4196029Y-811631D01*
X4196029Y-661568D01*
X4186072Y-651560D01*
G37*
G36*
X3789527Y-651560D02*
G01*
X3779570Y-661568D01*
X3779570Y-811631D01*
X3789527Y-821639D01*
X3890314Y-821639D01*
X3900322Y-811631D01*
X3900322Y-775512D01*
X3890314Y-765505D01*
X3869232Y-765505D01*
X3859225Y-755497D01*
X3859225Y-717702D01*
X3869232Y-707694D01*
X3890314Y-707694D01*
X3900322Y-697687D01*
X3900322Y-661568D01*
X3890314Y-651560D01*
G37*
G36*
X5736285Y-600760D02*
G01*
X5726277Y-610768D01*
X5726277Y-646887D01*
X5736285Y-656894D01*
X5757367Y-656894D01*
X5767374Y-666902D01*
X5767374Y-704697D01*
X5757367Y-714705D01*
X5736285Y-714705D01*
X5726277Y-724712D01*
X5726277Y-760831D01*
X5736285Y-770839D01*
X5837072Y-770839D01*
X5847029Y-760831D01*
X5847029Y-610768D01*
X5837072Y-600760D01*
G37*
G36*
X5440527Y-600760D02*
G01*
X5430570Y-610768D01*
X5430570Y-760831D01*
X5440527Y-770839D01*
X5541314Y-770839D01*
X5551322Y-760831D01*
X5551322Y-724712D01*
X5541314Y-714705D01*
X5520232Y-714705D01*
X5510225Y-704697D01*
X5510225Y-666902D01*
X5520232Y-656894D01*
X5541314Y-656894D01*
X5551322Y-646887D01*
X5551322Y-610768D01*
X5541314Y-600760D01*
G37*
G36*
X9076385Y-588060D02*
G01*
X9066377Y-598068D01*
X9066377Y-634187D01*
X9076385Y-644194D01*
X9097467Y-644194D01*
X9107474Y-654202D01*
X9107474Y-691997D01*
X9097467Y-702005D01*
X9076385Y-702005D01*
X9066377Y-712012D01*
X9066377Y-748131D01*
X9076385Y-758139D01*
X9177172Y-758139D01*
X9187129Y-748131D01*
X9187129Y-598068D01*
X9177172Y-588060D01*
G37*
G36*
X8780627Y-588060D02*
G01*
X8770670Y-598068D01*
X8770670Y-748131D01*
X8780627Y-758139D01*
X8881414Y-758139D01*
X8891422Y-748131D01*
X8891422Y-712012D01*
X8881414Y-702005D01*
X8860332Y-702005D01*
X8850325Y-691997D01*
X8850325Y-654202D01*
X8860332Y-644194D01*
X8881414Y-644194D01*
X8891422Y-634187D01*
X8891422Y-598068D01*
X8881414Y-588060D01*
G37*
D16*
G01*
X10312400Y3149295D03*
G01*
X10312400Y3683304D03*
G36*
X4346498Y3518931D02*
G01*
X4416501Y3518931D01*
X4416501Y3393932D01*
X4346498Y3393932D01*
G37*
G36*
X4251502Y3768867D02*
G01*
X4321505Y3768867D01*
X4321505Y3643868D01*
X4251502Y3643868D01*
G37*
G36*
X4441494Y3768867D02*
G01*
X4511497Y3768867D01*
X4511497Y3643868D01*
X4441494Y3643868D01*
G37*
G36*
X7775498Y3430031D02*
G01*
X7845501Y3430031D01*
X7845501Y3305032D01*
X7775498Y3305032D01*
G37*
G36*
X7680502Y3679967D02*
G01*
X7750505Y3679967D01*
X7750505Y3554968D01*
X7680502Y3554968D01*
G37*
G36*
X7870494Y3679967D02*
G01*
X7940497Y3679967D01*
X7940497Y3554968D01*
X7870494Y3554968D01*
G37*
G36*
X6073698Y3518931D02*
G01*
X6143701Y3518931D01*
X6143701Y3393932D01*
X6073698Y3393932D01*
G37*
G36*
X5978702Y3768867D02*
G01*
X6048705Y3768867D01*
X6048705Y3643868D01*
X5978702Y3643868D01*
G37*
G36*
X6168694Y3768867D02*
G01*
X6238697Y3768867D01*
X6238697Y3643868D01*
X6168694Y3643868D01*
G37*
G36*
X9604298Y3430031D02*
G01*
X9674301Y3430031D01*
X9674301Y3305032D01*
X9604298Y3305032D01*
G37*
G36*
X9509302Y3679967D02*
G01*
X9579305Y3679967D01*
X9579305Y3554968D01*
X9509302Y3554968D01*
G37*
G36*
X9699294Y3679967D02*
G01*
X9769297Y3679967D01*
X9769297Y3554968D01*
X9699294Y3554968D01*
G37*
D21*
G01*
X4483100Y3971305D03*
G01*
X4483100Y4131299D03*
G01*
X6184900Y3920505D03*
G01*
X6184900Y4080499D03*
G01*
X7912100Y3882405D03*
G01*
X7912100Y4042399D03*
G01*
X9664700Y3857005D03*
G01*
X9664700Y4016999D03*
G36*
X7213500Y-95900D02*
G01*
X7391501Y-95900D01*
X7391501Y-335899D01*
X7213500Y-335899D01*
G37*
G36*
X7467500Y-95900D02*
G01*
X7645501Y-95900D01*
X7645501Y-335899D01*
X7467500Y-335899D01*
G37*
G36*
X7721500Y-95900D02*
G01*
X7899501Y-95900D01*
X7899501Y-335899D01*
X7721500Y-335899D01*
G37*
G36*
X7721500Y869299D02*
G01*
X7899501Y869299D01*
X7899501Y629300D01*
X7721500Y629300D01*
G37*
G36*
X7467500Y869299D02*
G01*
X7645501Y869299D01*
X7645501Y629300D01*
X7467500Y629300D01*
G37*
G36*
X7213500Y869299D02*
G01*
X7391501Y869299D01*
X7391501Y629300D01*
X7213500Y629300D01*
G37*
G36*
X3746400Y-146700D02*
G01*
X3924401Y-146700D01*
X3924401Y-386699D01*
X3746400Y-386699D01*
G37*
G36*
X4000400Y-146700D02*
G01*
X4178401Y-146700D01*
X4178401Y-386699D01*
X4000400Y-386699D01*
G37*
G36*
X4254400Y-146700D02*
G01*
X4432401Y-146700D01*
X4432401Y-386699D01*
X4254400Y-386699D01*
G37*
G36*
X4254400Y818499D02*
G01*
X4432401Y818499D01*
X4432401Y578500D01*
X4254400Y578500D01*
G37*
G36*
X4000400Y818499D02*
G01*
X4178401Y818499D01*
X4178401Y578500D01*
X4000400Y578500D01*
G37*
G36*
X3746400Y818499D02*
G01*
X3924401Y818499D01*
X3924401Y578500D01*
X3746400Y578500D01*
G37*
G36*
X5384700Y-146700D02*
G01*
X5562701Y-146700D01*
X5562701Y-386699D01*
X5384700Y-386699D01*
G37*
G36*
X5638700Y-146700D02*
G01*
X5816701Y-146700D01*
X5816701Y-386699D01*
X5638700Y-386699D01*
G37*
G36*
X5892700Y-146700D02*
G01*
X6070701Y-146700D01*
X6070701Y-386699D01*
X5892700Y-386699D01*
G37*
G36*
X5892700Y818499D02*
G01*
X6070701Y818499D01*
X6070701Y578500D01*
X5892700Y578500D01*
G37*
G36*
X5638700Y818499D02*
G01*
X5816701Y818499D01*
X5816701Y578500D01*
X5638700Y578500D01*
G37*
G36*
X5384700Y818499D02*
G01*
X5562701Y818499D01*
X5562701Y578500D01*
X5384700Y578500D01*
G37*
G36*
X8775600Y-95900D02*
G01*
X8953601Y-95900D01*
X8953601Y-335899D01*
X8775600Y-335899D01*
G37*
G36*
X9029600Y-95900D02*
G01*
X9207601Y-95900D01*
X9207601Y-335899D01*
X9029600Y-335899D01*
G37*
G36*
X9283600Y-95900D02*
G01*
X9461601Y-95900D01*
X9461601Y-335899D01*
X9283600Y-335899D01*
G37*
G36*
X9283600Y869299D02*
G01*
X9461601Y869299D01*
X9461601Y629300D01*
X9283600Y629300D01*
G37*
G36*
X9029600Y869299D02*
G01*
X9207601Y869299D01*
X9207601Y629300D01*
X9029600Y629300D01*
G37*
G36*
X8775600Y869299D02*
G01*
X8953601Y869299D01*
X8953601Y629300D01*
X8775600Y629300D01*
G37*
G36*
X12511760Y2824073D02*
G01*
X12731775Y2824073D01*
X12731775Y2724073D01*
X12511760Y2724073D01*
G37*
G36*
X12511531Y2696514D02*
G01*
X12731521Y2696514D01*
X12731521Y2596514D01*
X12511531Y2596514D01*
G37*
G36*
X12511277Y2569768D02*
G01*
X12731267Y2569768D01*
X12731267Y2469769D01*
X12511277Y2469769D01*
G37*
G36*
X12511277Y2442768D02*
G01*
X12731267Y2442768D01*
X12731267Y2342769D01*
X12511277Y2342769D01*
G37*
G36*
X12511277Y2315768D02*
G01*
X12731267Y2315768D01*
X12731267Y2215769D01*
X12511277Y2215769D01*
G37*
G36*
X12511277Y2188768D02*
G01*
X12731267Y2188768D01*
X12731267Y2088769D01*
X12511277Y2088769D01*
G37*
G36*
X12511277Y2061768D02*
G01*
X12731267Y2061768D01*
X12731267Y1961769D01*
X12511277Y1961769D01*
G37*
G36*
X12511024Y1935022D02*
G01*
X12731013Y1935022D01*
X12731013Y1835022D01*
X12511024Y1835022D01*
G37*
G36*
X12511024Y1808022D02*
G01*
X12731013Y1808022D01*
X12731013Y1708022D01*
X12511024Y1708022D01*
G37*
G36*
X12511024Y1681022D02*
G01*
X12731013Y1681022D01*
X12731013Y1581022D01*
X12511024Y1581022D01*
G37*
G36*
X12511024Y1554022D02*
G01*
X12731013Y1554022D01*
X12731013Y1454022D01*
X12511024Y1454022D01*
G37*
G36*
X12511277Y1426768D02*
G01*
X12731267Y1426768D01*
X12731267Y1326769D01*
X12511277Y1326769D01*
G37*
G36*
X12511277Y1299768D02*
G01*
X12731267Y1299768D01*
X12731267Y1199769D01*
X12511277Y1199769D01*
G37*
G36*
X12511277Y1172768D02*
G01*
X12731267Y1172768D01*
X12731267Y1072769D01*
X12511277Y1072769D01*
G37*
G36*
X10713186Y2824327D02*
G01*
X10933201Y2824327D01*
X10933201Y2724327D01*
X10713186Y2724327D01*
G37*
G36*
X10712958Y2696768D02*
G01*
X10932947Y2696768D01*
X10932947Y2596769D01*
X10712958Y2596769D01*
G37*
G36*
X10712704Y2570022D02*
G01*
X10932693Y2570022D01*
X10932693Y2470022D01*
X10712704Y2470022D01*
G37*
G36*
X10712704Y2443022D02*
G01*
X10932693Y2443022D01*
X10932693Y2343022D01*
X10712704Y2343022D01*
G37*
G36*
X10712704Y2316022D02*
G01*
X10932693Y2316022D01*
X10932693Y2216022D01*
X10712704Y2216022D01*
G37*
G36*
X10712704Y2189022D02*
G01*
X10932693Y2189022D01*
X10932693Y2089022D01*
X10712704Y2089022D01*
G37*
G36*
X10712704Y2062022D02*
G01*
X10932693Y2062022D01*
X10932693Y1962022D01*
X10712704Y1962022D01*
G37*
G36*
X10712450Y1935276D02*
G01*
X10932439Y1935276D01*
X10932439Y1835277D01*
X10712450Y1835277D01*
G37*
G36*
X10712450Y1808276D02*
G01*
X10932439Y1808276D01*
X10932439Y1708277D01*
X10712450Y1708277D01*
G37*
G36*
X10712450Y1681276D02*
G01*
X10932439Y1681276D01*
X10932439Y1581277D01*
X10712450Y1581277D01*
G37*
G36*
X10712450Y1554276D02*
G01*
X10932439Y1554276D01*
X10932439Y1454277D01*
X10712450Y1454277D01*
G37*
G36*
X10712704Y1427022D02*
G01*
X10932693Y1427022D01*
X10932693Y1327022D01*
X10712704Y1327022D01*
G37*
G36*
X10712704Y1300022D02*
G01*
X10932693Y1300022D01*
X10932693Y1200022D01*
X10712704Y1200022D01*
G37*
G36*
X10712704Y1173022D02*
G01*
X10932693Y1173022D01*
X10932693Y1073022D01*
X10712704Y1073022D01*
G37*
D25*
G01*
X11155349Y962685D03*
G01*
X11282349Y962685D03*
G01*
X11409349Y962685D03*
G01*
X11536095Y962431D03*
G01*
X11663095Y962431D03*
G01*
X11790095Y962431D03*
G01*
X11917095Y962431D03*
G01*
X12044349Y962685D03*
G01*
X12171349Y962685D03*
G01*
X12298349Y962685D03*
G36*
X11521998Y2230831D02*
G01*
X11921997Y2230831D01*
X11921997Y1830831D01*
X11521998Y1830831D01*
G37*
M02*
