G04 #@! TF.GenerationSoftware,KiCad,Pcbnew,(5.1.6)-1*
G04 #@! TF.CreationDate,2021-10-26T14:42:57+02:00*
G04 #@! TF.ProjectId,hamodule,68616d6f-6475-46c6-952e-6b696361645f,rev?*
G04 #@! TF.SameCoordinates,Original*
G04 #@! TF.FileFunction,Profile,NP*
%FSLAX46Y46*%
G04 Gerber Fmt 4.6, Leading zero omitted, Abs format (unit mm)*
G04 Created by KiCad (PCBNEW (5.1.6)-1) date 2021-10-26 14:42:57*
%MOMM*%
%LPD*%
G01*
G04 APERTURE LIST*
G04 #@! TA.AperFunction,Profile*
%ADD10C,0.050000*%
G04 #@! TD*
G04 #@! TA.AperFunction,Profile*
%ADD11C,0.100000*%
G04 #@! TD*
G04 APERTURE END LIST*
D10*
X207708500Y-67373500D02*
G75*
G02*
X208216500Y-67881500I0J-508000D01*
G01*
X208216500Y-141033500D02*
G75*
G02*
X205676500Y-143573500I-2540000J0D01*
G01*
X101536500Y-143573500D02*
G75*
G02*
X98996500Y-141033500I0J2540000D01*
G01*
X98996500Y-69913500D02*
G75*
G02*
X101536500Y-67373500I2540000J0D01*
G01*
X207800805Y-103568500D02*
G75*
G03*
X207800805Y-103568500I-854305J0D01*
G01*
X207844526Y-95948500D02*
G75*
G03*
X207844526Y-95948500I-898026J0D01*
G01*
X184594500Y-97409000D02*
G75*
G02*
X183324500Y-97409000I-635000J0D01*
G01*
X183324500Y-75374500D02*
G75*
G02*
X184594500Y-75374500I635000J0D01*
G01*
D11*
X183324500Y-97409000D02*
X183324500Y-75374500D01*
X184594500Y-97409000D02*
X184594500Y-75374500D01*
D10*
X177101500Y-103568500D02*
G75*
G02*
X176403000Y-104267000I-698500J0D01*
G01*
X175831500Y-76898500D02*
G75*
G02*
X177101500Y-76898500I635000J0D01*
G01*
D11*
X177101500Y-103568500D02*
X177101500Y-76898500D01*
X175831500Y-99758500D02*
X175831500Y-76898500D01*
D10*
X175831500Y-99758500D02*
G75*
G02*
X175196500Y-100393500I-635000J0D01*
G01*
X116522500Y-72834500D02*
G75*
G02*
X116522500Y-71945500I0J444500D01*
G01*
X127190500Y-71945500D02*
G75*
G02*
X127190500Y-72834500I0J-444500D01*
G01*
X173291500Y-71945500D02*
G75*
G02*
X173291500Y-72834500I0J-444500D01*
G01*
X150503367Y-72831068D02*
G75*
G02*
X150558500Y-71945500I55133J441068D01*
G01*
X205916500Y-120078500D02*
G75*
G02*
X205916500Y-121348500I0J-635000D01*
G01*
X161861500Y-121348500D02*
G75*
G02*
X161861500Y-120078500I0J635000D01*
G01*
D11*
X161861500Y-120078500D02*
X205916500Y-120078500D01*
X205916500Y-121348500D02*
X161861500Y-121348500D01*
D10*
X120586500Y-121983500D02*
G75*
G02*
X116776500Y-121983500I-1905000J0D01*
G01*
X116776500Y-106743500D02*
G75*
G02*
X123126500Y-100393500I6350000J0D01*
G01*
X120586500Y-106743500D02*
G75*
G02*
X123126500Y-104203500I2540000J0D01*
G01*
X123126500Y-100393500D02*
X128206500Y-100393500D01*
X116776500Y-121983500D02*
X116776500Y-106743500D01*
X120586500Y-106743500D02*
X120586500Y-121983500D01*
X126033345Y-104203500D02*
X123126500Y-104203500D01*
X111206500Y-104838500D02*
G75*
G02*
X109406500Y-104838500I-900000J-50000D01*
G01*
X109426500Y-89728500D02*
G75*
G02*
X111226500Y-89728500I900000J50000D01*
G01*
X111206500Y-104838500D02*
X111226500Y-89728500D01*
X109426500Y-89728500D02*
X109406500Y-104838500D01*
D11*
X116522500Y-71945500D02*
X127190500Y-71945500D01*
X127190500Y-72834500D02*
X116522500Y-72834500D01*
X150558500Y-71945500D02*
X173291500Y-71945500D01*
X173291500Y-72834500D02*
X150503367Y-72831068D01*
X128206500Y-100393500D02*
X175196500Y-100393500D01*
X176403000Y-104267000D02*
X126033345Y-104203500D01*
D10*
X98996500Y-141033500D02*
X98996500Y-69913500D01*
X207708500Y-67373500D02*
X101536500Y-67373500D01*
X205676500Y-143573500D02*
X101536500Y-143573500D01*
X208216500Y-141033500D02*
X208216500Y-67881500D01*
M02*
