M48
; DRILL file {KiCad (5.1.6)-1} date 10/23/21 11:59:03
; FORMAT={-:-/ absolute / metric / decimal}
; #@! TF.CreationDate,2021-10-23T11:59:03+02:00
; #@! TF.GenerationSoftware,Kicad,Pcbnew,(5.1.6)-1
; #@! TF.FileFunction,Plated,1,2,PTH
FMAT,2
METRIC
T1C0.400
T2C0.800
T3C0.950
T4C1.000
T5C1.100
T6C1.300
T7C1.400
T8C3.200
%
G90
G05
T1
X152.781Y-116.395
X152.781Y-120.396
X152.781Y-124.206
T2
X188.677Y-113.444
X190.677Y-113.444
X125.514Y-136.055
X125.514Y-138.555
X162.737Y-117.903
X162.737Y-125.523
X165.276Y-117.903
X165.276Y-125.523
X167.816Y-117.903
X167.816Y-125.523
X170.356Y-117.903
X170.356Y-125.523
X185.85Y-117.903
X185.85Y-125.523
X188.391Y-117.903
X188.391Y-125.523
X190.93Y-117.903
X190.93Y-125.523
X193.47Y-117.903
X193.47Y-125.523
X106.416Y-93.04
X113.916Y-94.673
X197.28Y-117.903
X197.28Y-125.523
X199.82Y-117.903
X199.82Y-125.523
X202.361Y-117.903
X202.361Y-125.523
X204.9Y-117.903
X204.9Y-125.523
X166.084Y-113.5
X168.084Y-113.5
X174.166Y-117.903
X174.166Y-125.523
X176.707Y-117.903
X176.707Y-125.523
X179.246Y-117.903
X179.246Y-125.523
X181.786Y-117.903
X181.786Y-125.523
X199.906Y-113.444
X201.906Y-113.444
X138.367Y-135.953
X138.367Y-138.453
X139.636Y-114.363
X139.636Y-116.903
X139.636Y-119.444
X139.636Y-121.983
X139.636Y-124.523
X139.636Y-127.063
X139.636Y-129.603
X139.636Y-132.143
X147.256Y-114.363
X147.256Y-116.903
X147.256Y-119.444
X147.256Y-121.983
X147.256Y-124.523
X147.256Y-127.063
X147.256Y-129.603
X147.256Y-132.143
X176.96Y-113.444
X178.96Y-113.444
T3
X172.642Y-130.683
X172.642Y-133.183
X172.642Y-135.683
X172.642Y-138.183
X172.642Y-140.683
X157.671Y-116.014
X157.671Y-118.514
X157.671Y-121.014
X157.671Y-123.514
X184.912Y-130.683
X184.912Y-133.183
X184.912Y-135.683
X184.912Y-138.183
X157.656Y-130.603
X157.656Y-133.103
X157.656Y-135.603
X157.656Y-138.103
X157.656Y-140.603
T4
X133.299Y-114.356
X133.299Y-116.856
X181.927Y-103.759
X181.927Y-108.839
X132.372Y-122.215
X134.912Y-122.215
X121.856Y-89.599
X121.856Y-94.678
T5
X104.076Y-103.569
X104.076Y-123.569
X124.076Y-108.569
X124.076Y-118.569
X133.286Y-133.413
X133.286Y-135.953
X133.286Y-138.493
T6
X165.671Y-92.773
X165.671Y-108.013
X173.291Y-90.233
X173.291Y-97.853
X173.291Y-108.013
X154.114Y-92.773
X154.114Y-108.013
X161.734Y-90.233
X161.734Y-97.853
X161.734Y-108.013
X142.177Y-92.773
X142.177Y-108.013
X149.796Y-90.233
X149.796Y-97.853
X149.796Y-108.013
X130.112Y-92.773
X130.112Y-108.013
X137.731Y-90.233
X137.731Y-97.853
X137.731Y-108.013
T7
X106.617Y-75.183
X106.617Y-83.883
X111.697Y-75.183
X111.697Y-83.883
X116.776Y-75.183
X116.776Y-83.883
X121.856Y-75.183
X121.856Y-83.883
X154.876Y-75.183
X154.876Y-83.883
X159.957Y-75.183
X159.957Y-83.883
X165.036Y-75.183
X165.036Y-83.883
X170.117Y-75.183
X170.117Y-83.883
X188.587Y-75.171
X188.587Y-83.871
X193.667Y-75.171
X193.667Y-83.871
X198.748Y-75.171
X198.748Y-83.871
X203.827Y-75.171
X203.827Y-83.871
T8
X182.372Y-71.247
X204.305Y-139.662
X147.256Y-139.954
X104.712Y-134.683
X199.644Y-106.426
X128.27Y-77.343
T0
M30
