G04 #@! TF.GenerationSoftware,KiCad,Pcbnew,(5.1.6)-1*
G04 #@! TF.CreationDate,2021-10-24T13:14:29+02:00*
G04 #@! TF.ProjectId,hamodule,68616d6f-6475-46c6-952e-6b696361645f,rev?*
G04 #@! TF.SameCoordinates,Original*
G04 #@! TF.FileFunction,Soldermask,Top*
G04 #@! TF.FilePolarity,Negative*
%FSLAX46Y46*%
G04 Gerber Fmt 4.6, Leading zero omitted, Abs format (unit mm)*
G04 Created by KiCad (PCBNEW (5.1.6)-1) date 2021-10-24 13:14:29*
%MOMM*%
%LPD*%
G01*
G04 APERTURE LIST*
%ADD10O,1.800000X1.800000*%
%ADD11R,1.800000X1.800000*%
%ADD12O,1.800000X2.100000*%
%ADD13C,2.100000*%
%ADD14R,1.000000X0.900000*%
%ADD15C,1.700000*%
%ADD16R,1.700000X1.700000*%
%ADD17C,5.600000*%
%ADD18C,1.900000*%
%ADD19R,2.400000X2.400000*%
%ADD20C,2.400000*%
%ADD21R,2.500000X1.700000*%
%ADD22O,2.500000X1.700000*%
%ADD23O,2.050000X1.800000*%
%ADD24R,1.700000X2.500000*%
%ADD25O,1.700000X2.500000*%
%ADD26O,2.100000X2.005000*%
%ADD27R,2.100000X2.005000*%
%ADD28O,2.100000X1.800000*%
%ADD29C,1.750000*%
%ADD30R,1.750000X1.750000*%
G04 APERTURE END LIST*
D10*
X141973300Y-135928100D03*
D11*
X141973300Y-138468100D03*
D12*
X149491700Y-137071100D03*
G36*
G01*
X146091700Y-137856394D02*
X146091700Y-136285806D01*
G75*
G02*
X146356406Y-136021100I264706J0D01*
G01*
X147626994Y-136021100D01*
G75*
G02*
X147891700Y-136285806I0J-264706D01*
G01*
X147891700Y-137856394D01*
G75*
G02*
X147626994Y-138121100I-264706J0D01*
G01*
X146356406Y-138121100D01*
G75*
G02*
X146091700Y-137856394I0J264706D01*
G01*
G37*
G36*
G01*
X193469100Y-131199362D02*
X193469100Y-130242838D01*
G75*
G02*
X193740838Y-129971100I271738J0D01*
G01*
X194447362Y-129971100D01*
G75*
G02*
X194719100Y-130242838I0J-271738D01*
G01*
X194719100Y-131199362D01*
G75*
G02*
X194447362Y-131471100I-271738J0D01*
G01*
X193740838Y-131471100D01*
G75*
G02*
X193469100Y-131199362I0J271738D01*
G01*
G37*
G36*
G01*
X191419100Y-131199362D02*
X191419100Y-130242838D01*
G75*
G02*
X191690838Y-129971100I271738J0D01*
G01*
X192397362Y-129971100D01*
G75*
G02*
X192669100Y-130242838I0J-271738D01*
G01*
X192669100Y-131199362D01*
G75*
G02*
X192397362Y-131471100I-271738J0D01*
G01*
X191690838Y-131471100D01*
G75*
G02*
X191419100Y-131199362I0J271738D01*
G01*
G37*
G36*
G01*
X118141700Y-136101562D02*
X118141700Y-135145038D01*
G75*
G02*
X118413438Y-134873300I271738J0D01*
G01*
X119119962Y-134873300D01*
G75*
G02*
X119391700Y-135145038I0J-271738D01*
G01*
X119391700Y-136101562D01*
G75*
G02*
X119119962Y-136373300I-271738J0D01*
G01*
X118413438Y-136373300D01*
G75*
G02*
X118141700Y-136101562I0J271738D01*
G01*
G37*
G36*
G01*
X116091700Y-136101562D02*
X116091700Y-135145038D01*
G75*
G02*
X116363438Y-134873300I271738J0D01*
G01*
X117069962Y-134873300D01*
G75*
G02*
X117341700Y-135145038I0J-271738D01*
G01*
X117341700Y-136101562D01*
G75*
G02*
X117069962Y-136373300I-271738J0D01*
G01*
X116363438Y-136373300D01*
G75*
G02*
X116091700Y-136101562I0J271738D01*
G01*
G37*
G36*
G01*
X117316300Y-137202438D02*
X117316300Y-138158962D01*
G75*
G02*
X117044562Y-138430700I-271738J0D01*
G01*
X116338038Y-138430700D01*
G75*
G02*
X116066300Y-138158962I0J271738D01*
G01*
X116066300Y-137202438D01*
G75*
G02*
X116338038Y-136930700I271738J0D01*
G01*
X117044562Y-136930700D01*
G75*
G02*
X117316300Y-137202438I0J-271738D01*
G01*
G37*
G36*
G01*
X119366300Y-137202438D02*
X119366300Y-138158962D01*
G75*
G02*
X119094562Y-138430700I-271738J0D01*
G01*
X118388038Y-138430700D01*
G75*
G02*
X118116300Y-138158962I0J271738D01*
G01*
X118116300Y-137202438D01*
G75*
G02*
X118388038Y-136930700I271738J0D01*
G01*
X119094562Y-136930700D01*
G75*
G02*
X119366300Y-137202438I0J-271738D01*
G01*
G37*
G36*
G01*
X200958500Y-128045738D02*
X200958500Y-129002262D01*
G75*
G02*
X200686762Y-129274000I-271738J0D01*
G01*
X199980238Y-129274000D01*
G75*
G02*
X199708500Y-129002262I0J271738D01*
G01*
X199708500Y-128045738D01*
G75*
G02*
X199980238Y-127774000I271738J0D01*
G01*
X200686762Y-127774000D01*
G75*
G02*
X200958500Y-128045738I0J-271738D01*
G01*
G37*
G36*
G01*
X203008500Y-128045738D02*
X203008500Y-129002262D01*
G75*
G02*
X202736762Y-129274000I-271738J0D01*
G01*
X202030238Y-129274000D01*
G75*
G02*
X201758500Y-129002262I0J271738D01*
G01*
X201758500Y-128045738D01*
G75*
G02*
X202030238Y-127774000I271738J0D01*
G01*
X202736762Y-127774000D01*
G75*
G02*
X203008500Y-128045738I0J-271738D01*
G01*
G37*
G36*
G01*
X190980000Y-127982238D02*
X190980000Y-128938762D01*
G75*
G02*
X190708262Y-129210500I-271738J0D01*
G01*
X190001738Y-129210500D01*
G75*
G02*
X189730000Y-128938762I0J271738D01*
G01*
X189730000Y-127982238D01*
G75*
G02*
X190001738Y-127710500I271738J0D01*
G01*
X190708262Y-127710500D01*
G75*
G02*
X190980000Y-127982238I0J-271738D01*
G01*
G37*
G36*
G01*
X193030000Y-127982238D02*
X193030000Y-128938762D01*
G75*
G02*
X192758262Y-129210500I-271738J0D01*
G01*
X192051738Y-129210500D01*
G75*
G02*
X191780000Y-128938762I0J271738D01*
G01*
X191780000Y-127982238D01*
G75*
G02*
X192051738Y-127710500I271738J0D01*
G01*
X192758262Y-127710500D01*
G75*
G02*
X193030000Y-127982238I0J-271738D01*
G01*
G37*
G36*
G01*
X165897500Y-128045738D02*
X165897500Y-129002262D01*
G75*
G02*
X165625762Y-129274000I-271738J0D01*
G01*
X164919238Y-129274000D01*
G75*
G02*
X164647500Y-129002262I0J271738D01*
G01*
X164647500Y-128045738D01*
G75*
G02*
X164919238Y-127774000I271738J0D01*
G01*
X165625762Y-127774000D01*
G75*
G02*
X165897500Y-128045738I0J-271738D01*
G01*
G37*
G36*
G01*
X167947500Y-128045738D02*
X167947500Y-129002262D01*
G75*
G02*
X167675762Y-129274000I-271738J0D01*
G01*
X166969238Y-129274000D01*
G75*
G02*
X166697500Y-129002262I0J271738D01*
G01*
X166697500Y-128045738D01*
G75*
G02*
X166969238Y-127774000I271738J0D01*
G01*
X167675762Y-127774000D01*
G75*
G02*
X167947500Y-128045738I0J-271738D01*
G01*
G37*
G36*
G01*
X179550000Y-127982238D02*
X179550000Y-128938762D01*
G75*
G02*
X179278262Y-129210500I-271738J0D01*
G01*
X178571738Y-129210500D01*
G75*
G02*
X178300000Y-128938762I0J271738D01*
G01*
X178300000Y-127982238D01*
G75*
G02*
X178571738Y-127710500I271738J0D01*
G01*
X179278262Y-127710500D01*
G75*
G02*
X179550000Y-127982238I0J-271738D01*
G01*
G37*
G36*
G01*
X181600000Y-127982238D02*
X181600000Y-128938762D01*
G75*
G02*
X181328262Y-129210500I-271738J0D01*
G01*
X180621738Y-129210500D01*
G75*
G02*
X180350000Y-128938762I0J271738D01*
G01*
X180350000Y-127982238D01*
G75*
G02*
X180621738Y-127710500I271738J0D01*
G01*
X181328262Y-127710500D01*
G75*
G02*
X181600000Y-127982238I0J-271738D01*
G01*
G37*
D13*
X181927500Y-108839000D03*
X181927500Y-103759000D03*
G36*
G01*
X193469100Y-133688562D02*
X193469100Y-132732038D01*
G75*
G02*
X193740838Y-132460300I271738J0D01*
G01*
X194447362Y-132460300D01*
G75*
G02*
X194719100Y-132732038I0J-271738D01*
G01*
X194719100Y-133688562D01*
G75*
G02*
X194447362Y-133960300I-271738J0D01*
G01*
X193740838Y-133960300D01*
G75*
G02*
X193469100Y-133688562I0J271738D01*
G01*
G37*
G36*
G01*
X191419100Y-133688562D02*
X191419100Y-132732038D01*
G75*
G02*
X191690838Y-132460300I271738J0D01*
G01*
X192397362Y-132460300D01*
G75*
G02*
X192669100Y-132732038I0J-271738D01*
G01*
X192669100Y-133688562D01*
G75*
G02*
X192397362Y-133960300I-271738J0D01*
G01*
X191690838Y-133960300D01*
G75*
G02*
X191419100Y-133688562I0J271738D01*
G01*
G37*
G36*
G01*
X193469100Y-136228562D02*
X193469100Y-135272038D01*
G75*
G02*
X193740838Y-135000300I271738J0D01*
G01*
X194447362Y-135000300D01*
G75*
G02*
X194719100Y-135272038I0J-271738D01*
G01*
X194719100Y-136228562D01*
G75*
G02*
X194447362Y-136500300I-271738J0D01*
G01*
X193740838Y-136500300D01*
G75*
G02*
X193469100Y-136228562I0J271738D01*
G01*
G37*
G36*
G01*
X191419100Y-136228562D02*
X191419100Y-135272038D01*
G75*
G02*
X191690838Y-135000300I271738J0D01*
G01*
X192397362Y-135000300D01*
G75*
G02*
X192669100Y-135272038I0J-271738D01*
G01*
X192669100Y-136228562D01*
G75*
G02*
X192397362Y-136500300I-271738J0D01*
G01*
X191690838Y-136500300D01*
G75*
G02*
X191419100Y-136228562I0J271738D01*
G01*
G37*
G36*
G01*
X193469100Y-138666962D02*
X193469100Y-137710438D01*
G75*
G02*
X193740838Y-137438700I271738J0D01*
G01*
X194447362Y-137438700D01*
G75*
G02*
X194719100Y-137710438I0J-271738D01*
G01*
X194719100Y-138666962D01*
G75*
G02*
X194447362Y-138938700I-271738J0D01*
G01*
X193740838Y-138938700D01*
G75*
G02*
X193469100Y-138666962I0J271738D01*
G01*
G37*
G36*
G01*
X191419100Y-138666962D02*
X191419100Y-137710438D01*
G75*
G02*
X191690838Y-137438700I271738J0D01*
G01*
X192397362Y-137438700D01*
G75*
G02*
X192669100Y-137710438I0J-271738D01*
G01*
X192669100Y-138666962D01*
G75*
G02*
X192397362Y-138938700I-271738J0D01*
G01*
X191690838Y-138938700D01*
G75*
G02*
X191419100Y-138666962I0J271738D01*
G01*
G37*
D14*
X149606000Y-126943500D03*
X151606000Y-125993500D03*
X151606000Y-127893500D03*
X149606000Y-123243500D03*
X151606000Y-122293500D03*
X151606000Y-124193500D03*
X149606000Y-119443500D03*
X151606000Y-118493500D03*
X151606000Y-120393500D03*
X149606000Y-115443000D03*
X151606000Y-114493000D03*
X151606000Y-116393000D03*
G36*
G01*
X202346731Y-99305500D02*
X205308269Y-99305500D01*
G75*
G02*
X205577500Y-99574731I0J-269231D01*
G01*
X205577500Y-100436269D01*
G75*
G02*
X205308269Y-100705500I-269231J0D01*
G01*
X202346731Y-100705500D01*
G75*
G02*
X202077500Y-100436269I0J269231D01*
G01*
X202077500Y-99574731D01*
G75*
G02*
X202346731Y-99305500I269231J0D01*
G01*
G37*
G36*
G01*
X202346731Y-94855500D02*
X205308269Y-94855500D01*
G75*
G02*
X205577500Y-95124731I0J-269231D01*
G01*
X205577500Y-95986269D01*
G75*
G02*
X205308269Y-96255500I-269231J0D01*
G01*
X202346731Y-96255500D01*
G75*
G02*
X202077500Y-95986269I0J269231D01*
G01*
X202077500Y-95124731D01*
G75*
G02*
X202346731Y-94855500I269231J0D01*
G01*
G37*
G36*
G01*
X197266731Y-99305500D02*
X200228269Y-99305500D01*
G75*
G02*
X200497500Y-99574731I0J-269231D01*
G01*
X200497500Y-100436269D01*
G75*
G02*
X200228269Y-100705500I-269231J0D01*
G01*
X197266731Y-100705500D01*
G75*
G02*
X196997500Y-100436269I0J269231D01*
G01*
X196997500Y-99574731D01*
G75*
G02*
X197266731Y-99305500I269231J0D01*
G01*
G37*
G36*
G01*
X197266731Y-94855500D02*
X200228269Y-94855500D01*
G75*
G02*
X200497500Y-95124731I0J-269231D01*
G01*
X200497500Y-95986269D01*
G75*
G02*
X200228269Y-96255500I-269231J0D01*
G01*
X197266731Y-96255500D01*
G75*
G02*
X196997500Y-95986269I0J269231D01*
G01*
X196997500Y-95124731D01*
G75*
G02*
X197266731Y-94855500I269231J0D01*
G01*
G37*
G36*
G01*
X192186731Y-99305500D02*
X195148269Y-99305500D01*
G75*
G02*
X195417500Y-99574731I0J-269231D01*
G01*
X195417500Y-100436269D01*
G75*
G02*
X195148269Y-100705500I-269231J0D01*
G01*
X192186731Y-100705500D01*
G75*
G02*
X191917500Y-100436269I0J269231D01*
G01*
X191917500Y-99574731D01*
G75*
G02*
X192186731Y-99305500I269231J0D01*
G01*
G37*
G36*
G01*
X192186731Y-94855500D02*
X195148269Y-94855500D01*
G75*
G02*
X195417500Y-95124731I0J-269231D01*
G01*
X195417500Y-95986269D01*
G75*
G02*
X195148269Y-96255500I-269231J0D01*
G01*
X192186731Y-96255500D01*
G75*
G02*
X191917500Y-95986269I0J269231D01*
G01*
X191917500Y-95124731D01*
G75*
G02*
X192186731Y-94855500I269231J0D01*
G01*
G37*
G36*
G01*
X187106731Y-99369000D02*
X190068269Y-99369000D01*
G75*
G02*
X190337500Y-99638231I0J-269231D01*
G01*
X190337500Y-100499769D01*
G75*
G02*
X190068269Y-100769000I-269231J0D01*
G01*
X187106731Y-100769000D01*
G75*
G02*
X186837500Y-100499769I0J269231D01*
G01*
X186837500Y-99638231D01*
G75*
G02*
X187106731Y-99369000I269231J0D01*
G01*
G37*
G36*
G01*
X187106731Y-94919000D02*
X190068269Y-94919000D01*
G75*
G02*
X190337500Y-95188231I0J-269231D01*
G01*
X190337500Y-96049769D01*
G75*
G02*
X190068269Y-96319000I-269231J0D01*
G01*
X187106731Y-96319000D01*
G75*
G02*
X186837500Y-96049769I0J269231D01*
G01*
X186837500Y-95188231D01*
G75*
G02*
X187106731Y-94919000I269231J0D01*
G01*
G37*
G36*
G01*
X197308500Y-131199362D02*
X197308500Y-130242838D01*
G75*
G02*
X197580238Y-129971100I271738J0D01*
G01*
X198286762Y-129971100D01*
G75*
G02*
X198558500Y-130242838I0J-271738D01*
G01*
X198558500Y-131199362D01*
G75*
G02*
X198286762Y-131471100I-271738J0D01*
G01*
X197580238Y-131471100D01*
G75*
G02*
X197308500Y-131199362I0J271738D01*
G01*
G37*
G36*
G01*
X195258500Y-131199362D02*
X195258500Y-130242838D01*
G75*
G02*
X195530238Y-129971100I271738J0D01*
G01*
X196236762Y-129971100D01*
G75*
G02*
X196508500Y-130242838I0J-271738D01*
G01*
X196508500Y-131199362D01*
G75*
G02*
X196236762Y-131471100I-271738J0D01*
G01*
X195530238Y-131471100D01*
G75*
G02*
X195258500Y-131199362I0J271738D01*
G01*
G37*
G36*
G01*
X197308500Y-133685262D02*
X197308500Y-132728738D01*
G75*
G02*
X197580238Y-132457000I271738J0D01*
G01*
X198286762Y-132457000D01*
G75*
G02*
X198558500Y-132728738I0J-271738D01*
G01*
X198558500Y-133685262D01*
G75*
G02*
X198286762Y-133957000I-271738J0D01*
G01*
X197580238Y-133957000D01*
G75*
G02*
X197308500Y-133685262I0J271738D01*
G01*
G37*
G36*
G01*
X195258500Y-133685262D02*
X195258500Y-132728738D01*
G75*
G02*
X195530238Y-132457000I271738J0D01*
G01*
X196236762Y-132457000D01*
G75*
G02*
X196508500Y-132728738I0J-271738D01*
G01*
X196508500Y-133685262D01*
G75*
G02*
X196236762Y-133957000I-271738J0D01*
G01*
X195530238Y-133957000D01*
G75*
G02*
X195258500Y-133685262I0J271738D01*
G01*
G37*
G36*
G01*
X197297100Y-136228562D02*
X197297100Y-135272038D01*
G75*
G02*
X197568838Y-135000300I271738J0D01*
G01*
X198275362Y-135000300D01*
G75*
G02*
X198547100Y-135272038I0J-271738D01*
G01*
X198547100Y-136228562D01*
G75*
G02*
X198275362Y-136500300I-271738J0D01*
G01*
X197568838Y-136500300D01*
G75*
G02*
X197297100Y-136228562I0J271738D01*
G01*
G37*
G36*
G01*
X195247100Y-136228562D02*
X195247100Y-135272038D01*
G75*
G02*
X195518838Y-135000300I271738J0D01*
G01*
X196225362Y-135000300D01*
G75*
G02*
X196497100Y-135272038I0J-271738D01*
G01*
X196497100Y-136228562D01*
G75*
G02*
X196225362Y-136500300I-271738J0D01*
G01*
X195518838Y-136500300D01*
G75*
G02*
X195247100Y-136228562I0J271738D01*
G01*
G37*
G36*
G01*
X197297100Y-138666962D02*
X197297100Y-137710438D01*
G75*
G02*
X197568838Y-137438700I271738J0D01*
G01*
X198275362Y-137438700D01*
G75*
G02*
X198547100Y-137710438I0J-271738D01*
G01*
X198547100Y-138666962D01*
G75*
G02*
X198275362Y-138938700I-271738J0D01*
G01*
X197568838Y-138938700D01*
G75*
G02*
X197297100Y-138666962I0J271738D01*
G01*
G37*
G36*
G01*
X195247100Y-138666962D02*
X195247100Y-137710438D01*
G75*
G02*
X195518838Y-137438700I271738J0D01*
G01*
X196225362Y-137438700D01*
G75*
G02*
X196497100Y-137710438I0J-271738D01*
G01*
X196497100Y-138666962D01*
G75*
G02*
X196225362Y-138938700I-271738J0D01*
G01*
X195518838Y-138938700D01*
G75*
G02*
X195247100Y-138666962I0J271738D01*
G01*
G37*
G36*
G01*
X179545000Y-137681738D02*
X179545000Y-138638262D01*
G75*
G02*
X179273262Y-138910000I-271738J0D01*
G01*
X178566738Y-138910000D01*
G75*
G02*
X178295000Y-138638262I0J271738D01*
G01*
X178295000Y-137681738D01*
G75*
G02*
X178566738Y-137410000I271738J0D01*
G01*
X179273262Y-137410000D01*
G75*
G02*
X179545000Y-137681738I0J-271738D01*
G01*
G37*
G36*
G01*
X181595000Y-137681738D02*
X181595000Y-138638262D01*
G75*
G02*
X181323262Y-138910000I-271738J0D01*
G01*
X180616738Y-138910000D01*
G75*
G02*
X180345000Y-138638262I0J271738D01*
G01*
X180345000Y-137681738D01*
G75*
G02*
X180616738Y-137410000I271738J0D01*
G01*
X181323262Y-137410000D01*
G75*
G02*
X181595000Y-137681738I0J-271738D01*
G01*
G37*
G36*
G01*
X179536000Y-135205238D02*
X179536000Y-136161762D01*
G75*
G02*
X179264262Y-136433500I-271738J0D01*
G01*
X178557738Y-136433500D01*
G75*
G02*
X178286000Y-136161762I0J271738D01*
G01*
X178286000Y-135205238D01*
G75*
G02*
X178557738Y-134933500I271738J0D01*
G01*
X179264262Y-134933500D01*
G75*
G02*
X179536000Y-135205238I0J-271738D01*
G01*
G37*
G36*
G01*
X181586000Y-135205238D02*
X181586000Y-136161762D01*
G75*
G02*
X181314262Y-136433500I-271738J0D01*
G01*
X180607738Y-136433500D01*
G75*
G02*
X180336000Y-136161762I0J271738D01*
G01*
X180336000Y-135205238D01*
G75*
G02*
X180607738Y-134933500I271738J0D01*
G01*
X181314262Y-134933500D01*
G75*
G02*
X181586000Y-135205238I0J-271738D01*
G01*
G37*
G36*
G01*
X179545000Y-132728738D02*
X179545000Y-133685262D01*
G75*
G02*
X179273262Y-133957000I-271738J0D01*
G01*
X178566738Y-133957000D01*
G75*
G02*
X178295000Y-133685262I0J271738D01*
G01*
X178295000Y-132728738D01*
G75*
G02*
X178566738Y-132457000I271738J0D01*
G01*
X179273262Y-132457000D01*
G75*
G02*
X179545000Y-132728738I0J-271738D01*
G01*
G37*
G36*
G01*
X181595000Y-132728738D02*
X181595000Y-133685262D01*
G75*
G02*
X181323262Y-133957000I-271738J0D01*
G01*
X180616738Y-133957000D01*
G75*
G02*
X180345000Y-133685262I0J271738D01*
G01*
X180345000Y-132728738D01*
G75*
G02*
X180616738Y-132457000I271738J0D01*
G01*
X181323262Y-132457000D01*
G75*
G02*
X181595000Y-132728738I0J-271738D01*
G01*
G37*
G36*
G01*
X179536000Y-130252238D02*
X179536000Y-131208762D01*
G75*
G02*
X179264262Y-131480500I-271738J0D01*
G01*
X178557738Y-131480500D01*
G75*
G02*
X178286000Y-131208762I0J271738D01*
G01*
X178286000Y-130252238D01*
G75*
G02*
X178557738Y-129980500I271738J0D01*
G01*
X179264262Y-129980500D01*
G75*
G02*
X179536000Y-130252238I0J-271738D01*
G01*
G37*
G36*
G01*
X181586000Y-130252238D02*
X181586000Y-131208762D01*
G75*
G02*
X181314262Y-131480500I-271738J0D01*
G01*
X180607738Y-131480500D01*
G75*
G02*
X180336000Y-131208762I0J271738D01*
G01*
X180336000Y-130252238D01*
G75*
G02*
X180607738Y-129980500I271738J0D01*
G01*
X181314262Y-129980500D01*
G75*
G02*
X181586000Y-130252238I0J-271738D01*
G01*
G37*
G36*
G01*
X187128892Y-92711000D02*
X190046108Y-92711000D01*
G75*
G02*
X190312500Y-92977392I0J-266392D01*
G01*
X190312500Y-94069608D01*
G75*
G02*
X190046108Y-94336000I-266392J0D01*
G01*
X187128892Y-94336000D01*
G75*
G02*
X186862500Y-94069608I0J266392D01*
G01*
X186862500Y-92977392D01*
G75*
G02*
X187128892Y-92711000I266392J0D01*
G01*
G37*
G36*
G01*
X187128892Y-86736000D02*
X190046108Y-86736000D01*
G75*
G02*
X190312500Y-87002392I0J-266392D01*
G01*
X190312500Y-88094608D01*
G75*
G02*
X190046108Y-88361000I-266392J0D01*
G01*
X187128892Y-88361000D01*
G75*
G02*
X186862500Y-88094608I0J266392D01*
G01*
X186862500Y-87002392D01*
G75*
G02*
X187128892Y-86736000I266392J0D01*
G01*
G37*
G36*
G01*
X192208892Y-92711000D02*
X195126108Y-92711000D01*
G75*
G02*
X195392500Y-92977392I0J-266392D01*
G01*
X195392500Y-94069608D01*
G75*
G02*
X195126108Y-94336000I-266392J0D01*
G01*
X192208892Y-94336000D01*
G75*
G02*
X191942500Y-94069608I0J266392D01*
G01*
X191942500Y-92977392D01*
G75*
G02*
X192208892Y-92711000I266392J0D01*
G01*
G37*
G36*
G01*
X192208892Y-86736000D02*
X195126108Y-86736000D01*
G75*
G02*
X195392500Y-87002392I0J-266392D01*
G01*
X195392500Y-88094608D01*
G75*
G02*
X195126108Y-88361000I-266392J0D01*
G01*
X192208892Y-88361000D01*
G75*
G02*
X191942500Y-88094608I0J266392D01*
G01*
X191942500Y-87002392D01*
G75*
G02*
X192208892Y-86736000I266392J0D01*
G01*
G37*
G36*
G01*
X197288892Y-92711000D02*
X200206108Y-92711000D01*
G75*
G02*
X200472500Y-92977392I0J-266392D01*
G01*
X200472500Y-94069608D01*
G75*
G02*
X200206108Y-94336000I-266392J0D01*
G01*
X197288892Y-94336000D01*
G75*
G02*
X197022500Y-94069608I0J266392D01*
G01*
X197022500Y-92977392D01*
G75*
G02*
X197288892Y-92711000I266392J0D01*
G01*
G37*
G36*
G01*
X197288892Y-86736000D02*
X200206108Y-86736000D01*
G75*
G02*
X200472500Y-87002392I0J-266392D01*
G01*
X200472500Y-88094608D01*
G75*
G02*
X200206108Y-88361000I-266392J0D01*
G01*
X197288892Y-88361000D01*
G75*
G02*
X197022500Y-88094608I0J266392D01*
G01*
X197022500Y-87002392D01*
G75*
G02*
X197288892Y-86736000I266392J0D01*
G01*
G37*
G36*
G01*
X202368892Y-92711000D02*
X205286108Y-92711000D01*
G75*
G02*
X205552500Y-92977392I0J-266392D01*
G01*
X205552500Y-94069608D01*
G75*
G02*
X205286108Y-94336000I-266392J0D01*
G01*
X202368892Y-94336000D01*
G75*
G02*
X202102500Y-94069608I0J266392D01*
G01*
X202102500Y-92977392D01*
G75*
G02*
X202368892Y-92711000I266392J0D01*
G01*
G37*
G36*
G01*
X202368892Y-86736000D02*
X205286108Y-86736000D01*
G75*
G02*
X205552500Y-87002392I0J-266392D01*
G01*
X205552500Y-88094608D01*
G75*
G02*
X205286108Y-88361000I-266392J0D01*
G01*
X202368892Y-88361000D01*
G75*
G02*
X202102500Y-88094608I0J266392D01*
G01*
X202102500Y-87002392D01*
G75*
G02*
X202368892Y-86736000I266392J0D01*
G01*
G37*
D15*
X199906500Y-113443500D03*
D16*
X201906500Y-113443500D03*
D15*
X188676500Y-113443500D03*
D16*
X190676500Y-113443500D03*
D15*
X176960500Y-113443500D03*
D16*
X178960500Y-113443500D03*
D15*
X166084500Y-113499900D03*
D16*
X168084500Y-113499900D03*
G36*
G01*
X203177500Y-82321500D02*
X204477500Y-82321500D01*
G75*
G02*
X205127500Y-82971500I0J-650000D01*
G01*
X205127500Y-84771500D01*
G75*
G02*
X204477500Y-85421500I-650000J0D01*
G01*
X203177500Y-85421500D01*
G75*
G02*
X202527500Y-84771500I0J650000D01*
G01*
X202527500Y-82971500D01*
G75*
G02*
X203177500Y-82321500I650000J0D01*
G01*
G37*
G36*
G01*
X203177500Y-73621500D02*
X204477500Y-73621500D01*
G75*
G02*
X205127500Y-74271500I0J-650000D01*
G01*
X205127500Y-76071500D01*
G75*
G02*
X204477500Y-76721500I-650000J0D01*
G01*
X203177500Y-76721500D01*
G75*
G02*
X202527500Y-76071500I0J650000D01*
G01*
X202527500Y-74271500D01*
G75*
G02*
X203177500Y-73621500I650000J0D01*
G01*
G37*
G36*
G01*
X198097500Y-82321500D02*
X199397500Y-82321500D01*
G75*
G02*
X200047500Y-82971500I0J-650000D01*
G01*
X200047500Y-84771500D01*
G75*
G02*
X199397500Y-85421500I-650000J0D01*
G01*
X198097500Y-85421500D01*
G75*
G02*
X197447500Y-84771500I0J650000D01*
G01*
X197447500Y-82971500D01*
G75*
G02*
X198097500Y-82321500I650000J0D01*
G01*
G37*
G36*
G01*
X198097500Y-73621500D02*
X199397500Y-73621500D01*
G75*
G02*
X200047500Y-74271500I0J-650000D01*
G01*
X200047500Y-76071500D01*
G75*
G02*
X199397500Y-76721500I-650000J0D01*
G01*
X198097500Y-76721500D01*
G75*
G02*
X197447500Y-76071500I0J650000D01*
G01*
X197447500Y-74271500D01*
G75*
G02*
X198097500Y-73621500I650000J0D01*
G01*
G37*
G36*
G01*
X193017500Y-82321500D02*
X194317500Y-82321500D01*
G75*
G02*
X194967500Y-82971500I0J-650000D01*
G01*
X194967500Y-84771500D01*
G75*
G02*
X194317500Y-85421500I-650000J0D01*
G01*
X193017500Y-85421500D01*
G75*
G02*
X192367500Y-84771500I0J650000D01*
G01*
X192367500Y-82971500D01*
G75*
G02*
X193017500Y-82321500I650000J0D01*
G01*
G37*
G36*
G01*
X193017500Y-73621500D02*
X194317500Y-73621500D01*
G75*
G02*
X194967500Y-74271500I0J-650000D01*
G01*
X194967500Y-76071500D01*
G75*
G02*
X194317500Y-76721500I-650000J0D01*
G01*
X193017500Y-76721500D01*
G75*
G02*
X192367500Y-76071500I0J650000D01*
G01*
X192367500Y-74271500D01*
G75*
G02*
X193017500Y-73621500I650000J0D01*
G01*
G37*
G36*
G01*
X187937500Y-82321500D02*
X189237500Y-82321500D01*
G75*
G02*
X189887500Y-82971500I0J-650000D01*
G01*
X189887500Y-84771500D01*
G75*
G02*
X189237500Y-85421500I-650000J0D01*
G01*
X187937500Y-85421500D01*
G75*
G02*
X187287500Y-84771500I0J650000D01*
G01*
X187287500Y-82971500D01*
G75*
G02*
X187937500Y-82321500I650000J0D01*
G01*
G37*
G36*
G01*
X187937500Y-73621500D02*
X189237500Y-73621500D01*
G75*
G02*
X189887500Y-74271500I0J-650000D01*
G01*
X189887500Y-76071500D01*
G75*
G02*
X189237500Y-76721500I-650000J0D01*
G01*
X187937500Y-76721500D01*
G75*
G02*
X187287500Y-76071500I0J650000D01*
G01*
X187287500Y-74271500D01*
G75*
G02*
X187937500Y-73621500I650000J0D01*
G01*
G37*
G36*
G01*
X121206500Y-82333500D02*
X122506500Y-82333500D01*
G75*
G02*
X123156500Y-82983500I0J-650000D01*
G01*
X123156500Y-84783500D01*
G75*
G02*
X122506500Y-85433500I-650000J0D01*
G01*
X121206500Y-85433500D01*
G75*
G02*
X120556500Y-84783500I0J650000D01*
G01*
X120556500Y-82983500D01*
G75*
G02*
X121206500Y-82333500I650000J0D01*
G01*
G37*
G36*
G01*
X121206500Y-73633500D02*
X122506500Y-73633500D01*
G75*
G02*
X123156500Y-74283500I0J-650000D01*
G01*
X123156500Y-76083500D01*
G75*
G02*
X122506500Y-76733500I-650000J0D01*
G01*
X121206500Y-76733500D01*
G75*
G02*
X120556500Y-76083500I0J650000D01*
G01*
X120556500Y-74283500D01*
G75*
G02*
X121206500Y-73633500I650000J0D01*
G01*
G37*
G36*
G01*
X116126500Y-82333500D02*
X117426500Y-82333500D01*
G75*
G02*
X118076500Y-82983500I0J-650000D01*
G01*
X118076500Y-84783500D01*
G75*
G02*
X117426500Y-85433500I-650000J0D01*
G01*
X116126500Y-85433500D01*
G75*
G02*
X115476500Y-84783500I0J650000D01*
G01*
X115476500Y-82983500D01*
G75*
G02*
X116126500Y-82333500I650000J0D01*
G01*
G37*
G36*
G01*
X116126500Y-73633500D02*
X117426500Y-73633500D01*
G75*
G02*
X118076500Y-74283500I0J-650000D01*
G01*
X118076500Y-76083500D01*
G75*
G02*
X117426500Y-76733500I-650000J0D01*
G01*
X116126500Y-76733500D01*
G75*
G02*
X115476500Y-76083500I0J650000D01*
G01*
X115476500Y-74283500D01*
G75*
G02*
X116126500Y-73633500I650000J0D01*
G01*
G37*
G36*
G01*
X111046500Y-82333500D02*
X112346500Y-82333500D01*
G75*
G02*
X112996500Y-82983500I0J-650000D01*
G01*
X112996500Y-84783500D01*
G75*
G02*
X112346500Y-85433500I-650000J0D01*
G01*
X111046500Y-85433500D01*
G75*
G02*
X110396500Y-84783500I0J650000D01*
G01*
X110396500Y-82983500D01*
G75*
G02*
X111046500Y-82333500I650000J0D01*
G01*
G37*
G36*
G01*
X111046500Y-73633500D02*
X112346500Y-73633500D01*
G75*
G02*
X112996500Y-74283500I0J-650000D01*
G01*
X112996500Y-76083500D01*
G75*
G02*
X112346500Y-76733500I-650000J0D01*
G01*
X111046500Y-76733500D01*
G75*
G02*
X110396500Y-76083500I0J650000D01*
G01*
X110396500Y-74283500D01*
G75*
G02*
X111046500Y-73633500I650000J0D01*
G01*
G37*
G36*
G01*
X105966500Y-82333500D02*
X107266500Y-82333500D01*
G75*
G02*
X107916500Y-82983500I0J-650000D01*
G01*
X107916500Y-84783500D01*
G75*
G02*
X107266500Y-85433500I-650000J0D01*
G01*
X105966500Y-85433500D01*
G75*
G02*
X105316500Y-84783500I0J650000D01*
G01*
X105316500Y-82983500D01*
G75*
G02*
X105966500Y-82333500I650000J0D01*
G01*
G37*
G36*
G01*
X105966500Y-73633500D02*
X107266500Y-73633500D01*
G75*
G02*
X107916500Y-74283500I0J-650000D01*
G01*
X107916500Y-76083500D01*
G75*
G02*
X107266500Y-76733500I-650000J0D01*
G01*
X105966500Y-76733500D01*
G75*
G02*
X105316500Y-76083500I0J650000D01*
G01*
X105316500Y-74283500D01*
G75*
G02*
X105966500Y-73633500I650000J0D01*
G01*
G37*
G36*
G01*
X169466500Y-82333500D02*
X170766500Y-82333500D01*
G75*
G02*
X171416500Y-82983500I0J-650000D01*
G01*
X171416500Y-84783500D01*
G75*
G02*
X170766500Y-85433500I-650000J0D01*
G01*
X169466500Y-85433500D01*
G75*
G02*
X168816500Y-84783500I0J650000D01*
G01*
X168816500Y-82983500D01*
G75*
G02*
X169466500Y-82333500I650000J0D01*
G01*
G37*
G36*
G01*
X169466500Y-73633500D02*
X170766500Y-73633500D01*
G75*
G02*
X171416500Y-74283500I0J-650000D01*
G01*
X171416500Y-76083500D01*
G75*
G02*
X170766500Y-76733500I-650000J0D01*
G01*
X169466500Y-76733500D01*
G75*
G02*
X168816500Y-76083500I0J650000D01*
G01*
X168816500Y-74283500D01*
G75*
G02*
X169466500Y-73633500I650000J0D01*
G01*
G37*
G36*
G01*
X164386500Y-82333500D02*
X165686500Y-82333500D01*
G75*
G02*
X166336500Y-82983500I0J-650000D01*
G01*
X166336500Y-84783500D01*
G75*
G02*
X165686500Y-85433500I-650000J0D01*
G01*
X164386500Y-85433500D01*
G75*
G02*
X163736500Y-84783500I0J650000D01*
G01*
X163736500Y-82983500D01*
G75*
G02*
X164386500Y-82333500I650000J0D01*
G01*
G37*
G36*
G01*
X164386500Y-73633500D02*
X165686500Y-73633500D01*
G75*
G02*
X166336500Y-74283500I0J-650000D01*
G01*
X166336500Y-76083500D01*
G75*
G02*
X165686500Y-76733500I-650000J0D01*
G01*
X164386500Y-76733500D01*
G75*
G02*
X163736500Y-76083500I0J650000D01*
G01*
X163736500Y-74283500D01*
G75*
G02*
X164386500Y-73633500I650000J0D01*
G01*
G37*
G36*
G01*
X159306500Y-82333500D02*
X160606500Y-82333500D01*
G75*
G02*
X161256500Y-82983500I0J-650000D01*
G01*
X161256500Y-84783500D01*
G75*
G02*
X160606500Y-85433500I-650000J0D01*
G01*
X159306500Y-85433500D01*
G75*
G02*
X158656500Y-84783500I0J650000D01*
G01*
X158656500Y-82983500D01*
G75*
G02*
X159306500Y-82333500I650000J0D01*
G01*
G37*
G36*
G01*
X159306500Y-73633500D02*
X160606500Y-73633500D01*
G75*
G02*
X161256500Y-74283500I0J-650000D01*
G01*
X161256500Y-76083500D01*
G75*
G02*
X160606500Y-76733500I-650000J0D01*
G01*
X159306500Y-76733500D01*
G75*
G02*
X158656500Y-76083500I0J650000D01*
G01*
X158656500Y-74283500D01*
G75*
G02*
X159306500Y-73633500I650000J0D01*
G01*
G37*
G36*
G01*
X154226500Y-82333500D02*
X155526500Y-82333500D01*
G75*
G02*
X156176500Y-82983500I0J-650000D01*
G01*
X156176500Y-84783500D01*
G75*
G02*
X155526500Y-85433500I-650000J0D01*
G01*
X154226500Y-85433500D01*
G75*
G02*
X153576500Y-84783500I0J650000D01*
G01*
X153576500Y-82983500D01*
G75*
G02*
X154226500Y-82333500I650000J0D01*
G01*
G37*
G36*
G01*
X154226500Y-73633500D02*
X155526500Y-73633500D01*
G75*
G02*
X156176500Y-74283500I0J-650000D01*
G01*
X156176500Y-76083500D01*
G75*
G02*
X155526500Y-76733500I-650000J0D01*
G01*
X154226500Y-76733500D01*
G75*
G02*
X153576500Y-76083500I0J650000D01*
G01*
X153576500Y-74283500D01*
G75*
G02*
X154226500Y-73633500I650000J0D01*
G01*
G37*
D10*
X132372100Y-122214640D03*
D11*
X134912100Y-122214640D03*
D17*
X199644000Y-106426000D03*
D15*
X136690100Y-138188700D03*
D16*
X136690100Y-135688700D03*
D15*
X123507500Y-137920100D03*
D16*
X123507500Y-135420100D03*
D18*
X113916500Y-94673500D03*
X106416500Y-93040170D03*
D17*
X129171700Y-77152500D03*
D19*
X161734500Y-108013500D03*
D20*
X161734500Y-97853500D03*
X161734500Y-90233500D03*
X154114500Y-92773500D03*
X154114500Y-108013500D03*
D21*
X147256500Y-132143500D03*
D22*
X139636500Y-114363500D03*
X147256500Y-129603500D03*
X139636500Y-116903500D03*
X147256500Y-127063500D03*
X139636500Y-119443500D03*
X147256500Y-124523500D03*
X139636500Y-121983500D03*
X147256500Y-121983500D03*
X139636500Y-124523500D03*
X147256500Y-119443500D03*
X139636500Y-127063500D03*
X147256500Y-116903500D03*
X139636500Y-129603500D03*
X147256500Y-114363500D03*
X139636500Y-132143500D03*
D23*
X157670500Y-123514500D03*
X157670500Y-121014500D03*
X157670500Y-118514500D03*
G36*
G01*
X156910206Y-115114500D02*
X158430794Y-115114500D01*
G75*
G02*
X158695500Y-115379206I0J-264706D01*
G01*
X158695500Y-116649794D01*
G75*
G02*
X158430794Y-116914500I-264706J0D01*
G01*
X156910206Y-116914500D01*
G75*
G02*
X156645500Y-116649794I0J264706D01*
G01*
X156645500Y-115379206D01*
G75*
G02*
X156910206Y-115114500I264706J0D01*
G01*
G37*
X172642500Y-130683500D03*
X172642500Y-133183500D03*
X172642500Y-135683500D03*
X172642500Y-138183500D03*
G36*
G01*
X173402794Y-141583500D02*
X171882206Y-141583500D01*
G75*
G02*
X171617500Y-141318794I0J264706D01*
G01*
X171617500Y-140048206D01*
G75*
G02*
X171882206Y-139783500I264706J0D01*
G01*
X173402794Y-139783500D01*
G75*
G02*
X173667500Y-140048206I0J-264706D01*
G01*
X173667500Y-141318794D01*
G75*
G02*
X173402794Y-141583500I-264706J0D01*
G01*
G37*
D24*
X181786500Y-117903500D03*
D25*
X174166500Y-125523500D03*
X179246500Y-117903500D03*
X176706500Y-125523500D03*
X176706500Y-117903500D03*
X179246500Y-125523500D03*
X174166500Y-117903500D03*
X181786500Y-125523500D03*
D24*
X204900500Y-117903500D03*
D25*
X197280500Y-125523500D03*
X202360500Y-117903500D03*
X199820500Y-125523500D03*
X199820500Y-117903500D03*
X202360500Y-125523500D03*
X197280500Y-117903500D03*
X204900500Y-125523500D03*
D24*
X193470500Y-117903500D03*
D25*
X185850500Y-125523500D03*
X190930500Y-117903500D03*
X188390500Y-125523500D03*
X188390500Y-117903500D03*
X190930500Y-125523500D03*
X185850500Y-117903500D03*
X193470500Y-125523500D03*
D24*
X170356500Y-117903500D03*
D25*
X162736500Y-125523500D03*
X167816500Y-117903500D03*
X165276500Y-125523500D03*
X165276500Y-117903500D03*
X167816500Y-125523500D03*
X162736500Y-117903500D03*
X170356500Y-125523500D03*
D26*
X131279900Y-132778500D03*
X131279900Y-135318500D03*
D27*
X131279900Y-137858500D03*
D23*
X157656500Y-140603500D03*
X157656500Y-138103500D03*
X157656500Y-135603500D03*
X157656500Y-133103500D03*
G36*
G01*
X156896206Y-129703500D02*
X158416794Y-129703500D01*
G75*
G02*
X158681500Y-129968206I0J-264706D01*
G01*
X158681500Y-131238794D01*
G75*
G02*
X158416794Y-131503500I-264706J0D01*
G01*
X156896206Y-131503500D01*
G75*
G02*
X156631500Y-131238794I0J264706D01*
G01*
X156631500Y-129968206D01*
G75*
G02*
X156896206Y-129703500I264706J0D01*
G01*
G37*
X184912000Y-130683000D03*
X184912000Y-133183000D03*
X184912000Y-135683000D03*
G36*
G01*
X185672294Y-139083000D02*
X184151706Y-139083000D01*
G75*
G02*
X183887000Y-138818294I0J264706D01*
G01*
X183887000Y-137547706D01*
G75*
G02*
X184151706Y-137283000I264706J0D01*
G01*
X185672294Y-137283000D01*
G75*
G02*
X185937000Y-137547706I0J-264706D01*
G01*
X185937000Y-138818294D01*
G75*
G02*
X185672294Y-139083000I-264706J0D01*
G01*
G37*
D28*
X133299200Y-114355880D03*
G36*
G01*
X134084494Y-117755880D02*
X132513906Y-117755880D01*
G75*
G02*
X132249200Y-117491174I0J264706D01*
G01*
X132249200Y-116220586D01*
G75*
G02*
X132513906Y-115955880I264706J0D01*
G01*
X134084494Y-115955880D01*
G75*
G02*
X134349200Y-116220586I0J-264706D01*
G01*
X134349200Y-117491174D01*
G75*
G02*
X134084494Y-117755880I-264706J0D01*
G01*
G37*
D29*
X124076500Y-108568500D03*
X124076500Y-118568500D03*
X104076500Y-123568500D03*
D30*
X104076500Y-103568500D03*
D17*
X204304900Y-139661900D03*
X104711500Y-134683500D03*
X112585500Y-134810500D03*
X181317900Y-70929500D03*
D13*
X121856500Y-94678500D03*
X121856500Y-89598500D03*
D19*
X137731500Y-108013500D03*
D20*
X137731500Y-97853500D03*
X137731500Y-90233500D03*
X130111500Y-92773500D03*
X130111500Y-108013500D03*
D19*
X149796500Y-108013500D03*
D20*
X149796500Y-97853500D03*
X149796500Y-90233500D03*
X142176500Y-92773500D03*
X142176500Y-108013500D03*
D19*
X173291500Y-108013500D03*
D20*
X173291500Y-97853500D03*
X173291500Y-90233500D03*
X165671500Y-92773500D03*
X165671500Y-108013500D03*
M02*
