G04 #@! TF.GenerationSoftware,KiCad,Pcbnew,(5.1.6)-1*
G04 #@! TF.CreationDate,2021-10-23T11:58:58+02:00*
G04 #@! TF.ProjectId,hamodule,68616d6f-6475-46c6-952e-6b696361645f,rev?*
G04 #@! TF.SameCoordinates,Original*
G04 #@! TF.FileFunction,Soldermask,Bot*
G04 #@! TF.FilePolarity,Negative*
%FSLAX46Y46*%
G04 Gerber Fmt 4.6, Leading zero omitted, Abs format (unit mm)*
G04 Created by KiCad (PCBNEW (5.1.6)-1) date 2021-10-23 11:58:58*
%MOMM*%
%LPD*%
G01*
G04 APERTURE LIST*
%ADD10C,2.100000*%
%ADD11C,1.700000*%
%ADD12R,1.700000X1.700000*%
%ADD13O,1.800000X1.800000*%
%ADD14R,1.800000X1.800000*%
%ADD15C,5.600000*%
%ADD16C,1.900000*%
%ADD17R,2.400000X2.400000*%
%ADD18C,2.400000*%
%ADD19R,2.500000X1.700000*%
%ADD20O,2.500000X1.700000*%
%ADD21O,2.050000X1.800000*%
%ADD22R,1.700000X2.500000*%
%ADD23O,1.700000X2.500000*%
%ADD24O,2.100000X2.005000*%
%ADD25R,2.100000X2.005000*%
%ADD26O,2.100000X1.800000*%
%ADD27C,1.750000*%
%ADD28R,1.750000X1.750000*%
G04 APERTURE END LIST*
D10*
X181927500Y-108839000D03*
X181927500Y-103759000D03*
D11*
X199906500Y-113443500D03*
D12*
X201906500Y-113443500D03*
D11*
X188676500Y-113443500D03*
D12*
X190676500Y-113443500D03*
D11*
X176960500Y-113443500D03*
D12*
X178960500Y-113443500D03*
D11*
X166084500Y-113499900D03*
D12*
X168084500Y-113499900D03*
G36*
G01*
X203177500Y-82321500D02*
X204477500Y-82321500D01*
G75*
G02*
X205127500Y-82971500I0J-650000D01*
G01*
X205127500Y-84771500D01*
G75*
G02*
X204477500Y-85421500I-650000J0D01*
G01*
X203177500Y-85421500D01*
G75*
G02*
X202527500Y-84771500I0J650000D01*
G01*
X202527500Y-82971500D01*
G75*
G02*
X203177500Y-82321500I650000J0D01*
G01*
G37*
G36*
G01*
X203177500Y-73621500D02*
X204477500Y-73621500D01*
G75*
G02*
X205127500Y-74271500I0J-650000D01*
G01*
X205127500Y-76071500D01*
G75*
G02*
X204477500Y-76721500I-650000J0D01*
G01*
X203177500Y-76721500D01*
G75*
G02*
X202527500Y-76071500I0J650000D01*
G01*
X202527500Y-74271500D01*
G75*
G02*
X203177500Y-73621500I650000J0D01*
G01*
G37*
G36*
G01*
X198097500Y-82321500D02*
X199397500Y-82321500D01*
G75*
G02*
X200047500Y-82971500I0J-650000D01*
G01*
X200047500Y-84771500D01*
G75*
G02*
X199397500Y-85421500I-650000J0D01*
G01*
X198097500Y-85421500D01*
G75*
G02*
X197447500Y-84771500I0J650000D01*
G01*
X197447500Y-82971500D01*
G75*
G02*
X198097500Y-82321500I650000J0D01*
G01*
G37*
G36*
G01*
X198097500Y-73621500D02*
X199397500Y-73621500D01*
G75*
G02*
X200047500Y-74271500I0J-650000D01*
G01*
X200047500Y-76071500D01*
G75*
G02*
X199397500Y-76721500I-650000J0D01*
G01*
X198097500Y-76721500D01*
G75*
G02*
X197447500Y-76071500I0J650000D01*
G01*
X197447500Y-74271500D01*
G75*
G02*
X198097500Y-73621500I650000J0D01*
G01*
G37*
G36*
G01*
X193017500Y-82321500D02*
X194317500Y-82321500D01*
G75*
G02*
X194967500Y-82971500I0J-650000D01*
G01*
X194967500Y-84771500D01*
G75*
G02*
X194317500Y-85421500I-650000J0D01*
G01*
X193017500Y-85421500D01*
G75*
G02*
X192367500Y-84771500I0J650000D01*
G01*
X192367500Y-82971500D01*
G75*
G02*
X193017500Y-82321500I650000J0D01*
G01*
G37*
G36*
G01*
X193017500Y-73621500D02*
X194317500Y-73621500D01*
G75*
G02*
X194967500Y-74271500I0J-650000D01*
G01*
X194967500Y-76071500D01*
G75*
G02*
X194317500Y-76721500I-650000J0D01*
G01*
X193017500Y-76721500D01*
G75*
G02*
X192367500Y-76071500I0J650000D01*
G01*
X192367500Y-74271500D01*
G75*
G02*
X193017500Y-73621500I650000J0D01*
G01*
G37*
G36*
G01*
X187937500Y-82321500D02*
X189237500Y-82321500D01*
G75*
G02*
X189887500Y-82971500I0J-650000D01*
G01*
X189887500Y-84771500D01*
G75*
G02*
X189237500Y-85421500I-650000J0D01*
G01*
X187937500Y-85421500D01*
G75*
G02*
X187287500Y-84771500I0J650000D01*
G01*
X187287500Y-82971500D01*
G75*
G02*
X187937500Y-82321500I650000J0D01*
G01*
G37*
G36*
G01*
X187937500Y-73621500D02*
X189237500Y-73621500D01*
G75*
G02*
X189887500Y-74271500I0J-650000D01*
G01*
X189887500Y-76071500D01*
G75*
G02*
X189237500Y-76721500I-650000J0D01*
G01*
X187937500Y-76721500D01*
G75*
G02*
X187287500Y-76071500I0J650000D01*
G01*
X187287500Y-74271500D01*
G75*
G02*
X187937500Y-73621500I650000J0D01*
G01*
G37*
G36*
G01*
X121206500Y-82333500D02*
X122506500Y-82333500D01*
G75*
G02*
X123156500Y-82983500I0J-650000D01*
G01*
X123156500Y-84783500D01*
G75*
G02*
X122506500Y-85433500I-650000J0D01*
G01*
X121206500Y-85433500D01*
G75*
G02*
X120556500Y-84783500I0J650000D01*
G01*
X120556500Y-82983500D01*
G75*
G02*
X121206500Y-82333500I650000J0D01*
G01*
G37*
G36*
G01*
X121206500Y-73633500D02*
X122506500Y-73633500D01*
G75*
G02*
X123156500Y-74283500I0J-650000D01*
G01*
X123156500Y-76083500D01*
G75*
G02*
X122506500Y-76733500I-650000J0D01*
G01*
X121206500Y-76733500D01*
G75*
G02*
X120556500Y-76083500I0J650000D01*
G01*
X120556500Y-74283500D01*
G75*
G02*
X121206500Y-73633500I650000J0D01*
G01*
G37*
G36*
G01*
X116126500Y-82333500D02*
X117426500Y-82333500D01*
G75*
G02*
X118076500Y-82983500I0J-650000D01*
G01*
X118076500Y-84783500D01*
G75*
G02*
X117426500Y-85433500I-650000J0D01*
G01*
X116126500Y-85433500D01*
G75*
G02*
X115476500Y-84783500I0J650000D01*
G01*
X115476500Y-82983500D01*
G75*
G02*
X116126500Y-82333500I650000J0D01*
G01*
G37*
G36*
G01*
X116126500Y-73633500D02*
X117426500Y-73633500D01*
G75*
G02*
X118076500Y-74283500I0J-650000D01*
G01*
X118076500Y-76083500D01*
G75*
G02*
X117426500Y-76733500I-650000J0D01*
G01*
X116126500Y-76733500D01*
G75*
G02*
X115476500Y-76083500I0J650000D01*
G01*
X115476500Y-74283500D01*
G75*
G02*
X116126500Y-73633500I650000J0D01*
G01*
G37*
G36*
G01*
X111046500Y-82333500D02*
X112346500Y-82333500D01*
G75*
G02*
X112996500Y-82983500I0J-650000D01*
G01*
X112996500Y-84783500D01*
G75*
G02*
X112346500Y-85433500I-650000J0D01*
G01*
X111046500Y-85433500D01*
G75*
G02*
X110396500Y-84783500I0J650000D01*
G01*
X110396500Y-82983500D01*
G75*
G02*
X111046500Y-82333500I650000J0D01*
G01*
G37*
G36*
G01*
X111046500Y-73633500D02*
X112346500Y-73633500D01*
G75*
G02*
X112996500Y-74283500I0J-650000D01*
G01*
X112996500Y-76083500D01*
G75*
G02*
X112346500Y-76733500I-650000J0D01*
G01*
X111046500Y-76733500D01*
G75*
G02*
X110396500Y-76083500I0J650000D01*
G01*
X110396500Y-74283500D01*
G75*
G02*
X111046500Y-73633500I650000J0D01*
G01*
G37*
G36*
G01*
X105966500Y-82333500D02*
X107266500Y-82333500D01*
G75*
G02*
X107916500Y-82983500I0J-650000D01*
G01*
X107916500Y-84783500D01*
G75*
G02*
X107266500Y-85433500I-650000J0D01*
G01*
X105966500Y-85433500D01*
G75*
G02*
X105316500Y-84783500I0J650000D01*
G01*
X105316500Y-82983500D01*
G75*
G02*
X105966500Y-82333500I650000J0D01*
G01*
G37*
G36*
G01*
X105966500Y-73633500D02*
X107266500Y-73633500D01*
G75*
G02*
X107916500Y-74283500I0J-650000D01*
G01*
X107916500Y-76083500D01*
G75*
G02*
X107266500Y-76733500I-650000J0D01*
G01*
X105966500Y-76733500D01*
G75*
G02*
X105316500Y-76083500I0J650000D01*
G01*
X105316500Y-74283500D01*
G75*
G02*
X105966500Y-73633500I650000J0D01*
G01*
G37*
G36*
G01*
X169466500Y-82333500D02*
X170766500Y-82333500D01*
G75*
G02*
X171416500Y-82983500I0J-650000D01*
G01*
X171416500Y-84783500D01*
G75*
G02*
X170766500Y-85433500I-650000J0D01*
G01*
X169466500Y-85433500D01*
G75*
G02*
X168816500Y-84783500I0J650000D01*
G01*
X168816500Y-82983500D01*
G75*
G02*
X169466500Y-82333500I650000J0D01*
G01*
G37*
G36*
G01*
X169466500Y-73633500D02*
X170766500Y-73633500D01*
G75*
G02*
X171416500Y-74283500I0J-650000D01*
G01*
X171416500Y-76083500D01*
G75*
G02*
X170766500Y-76733500I-650000J0D01*
G01*
X169466500Y-76733500D01*
G75*
G02*
X168816500Y-76083500I0J650000D01*
G01*
X168816500Y-74283500D01*
G75*
G02*
X169466500Y-73633500I650000J0D01*
G01*
G37*
G36*
G01*
X164386500Y-82333500D02*
X165686500Y-82333500D01*
G75*
G02*
X166336500Y-82983500I0J-650000D01*
G01*
X166336500Y-84783500D01*
G75*
G02*
X165686500Y-85433500I-650000J0D01*
G01*
X164386500Y-85433500D01*
G75*
G02*
X163736500Y-84783500I0J650000D01*
G01*
X163736500Y-82983500D01*
G75*
G02*
X164386500Y-82333500I650000J0D01*
G01*
G37*
G36*
G01*
X164386500Y-73633500D02*
X165686500Y-73633500D01*
G75*
G02*
X166336500Y-74283500I0J-650000D01*
G01*
X166336500Y-76083500D01*
G75*
G02*
X165686500Y-76733500I-650000J0D01*
G01*
X164386500Y-76733500D01*
G75*
G02*
X163736500Y-76083500I0J650000D01*
G01*
X163736500Y-74283500D01*
G75*
G02*
X164386500Y-73633500I650000J0D01*
G01*
G37*
G36*
G01*
X159306500Y-82333500D02*
X160606500Y-82333500D01*
G75*
G02*
X161256500Y-82983500I0J-650000D01*
G01*
X161256500Y-84783500D01*
G75*
G02*
X160606500Y-85433500I-650000J0D01*
G01*
X159306500Y-85433500D01*
G75*
G02*
X158656500Y-84783500I0J650000D01*
G01*
X158656500Y-82983500D01*
G75*
G02*
X159306500Y-82333500I650000J0D01*
G01*
G37*
G36*
G01*
X159306500Y-73633500D02*
X160606500Y-73633500D01*
G75*
G02*
X161256500Y-74283500I0J-650000D01*
G01*
X161256500Y-76083500D01*
G75*
G02*
X160606500Y-76733500I-650000J0D01*
G01*
X159306500Y-76733500D01*
G75*
G02*
X158656500Y-76083500I0J650000D01*
G01*
X158656500Y-74283500D01*
G75*
G02*
X159306500Y-73633500I650000J0D01*
G01*
G37*
G36*
G01*
X154226500Y-82333500D02*
X155526500Y-82333500D01*
G75*
G02*
X156176500Y-82983500I0J-650000D01*
G01*
X156176500Y-84783500D01*
G75*
G02*
X155526500Y-85433500I-650000J0D01*
G01*
X154226500Y-85433500D01*
G75*
G02*
X153576500Y-84783500I0J650000D01*
G01*
X153576500Y-82983500D01*
G75*
G02*
X154226500Y-82333500I650000J0D01*
G01*
G37*
G36*
G01*
X154226500Y-73633500D02*
X155526500Y-73633500D01*
G75*
G02*
X156176500Y-74283500I0J-650000D01*
G01*
X156176500Y-76083500D01*
G75*
G02*
X155526500Y-76733500I-650000J0D01*
G01*
X154226500Y-76733500D01*
G75*
G02*
X153576500Y-76083500I0J650000D01*
G01*
X153576500Y-74283500D01*
G75*
G02*
X154226500Y-73633500I650000J0D01*
G01*
G37*
D13*
X132372100Y-122214640D03*
D14*
X134912100Y-122214640D03*
D15*
X199644000Y-106426000D03*
D11*
X138366500Y-138453500D03*
D12*
X138366500Y-135953500D03*
D11*
X125514100Y-138555100D03*
D12*
X125514100Y-136055100D03*
D16*
X113916500Y-94673500D03*
X106416500Y-93040170D03*
D15*
X128270000Y-77343000D03*
D17*
X161734500Y-108013500D03*
D18*
X161734500Y-97853500D03*
X161734500Y-90233500D03*
X154114500Y-92773500D03*
X154114500Y-108013500D03*
D19*
X147256500Y-132143500D03*
D20*
X139636500Y-114363500D03*
X147256500Y-129603500D03*
X139636500Y-116903500D03*
X147256500Y-127063500D03*
X139636500Y-119443500D03*
X147256500Y-124523500D03*
X139636500Y-121983500D03*
X147256500Y-121983500D03*
X139636500Y-124523500D03*
X147256500Y-119443500D03*
X139636500Y-127063500D03*
X147256500Y-116903500D03*
X139636500Y-129603500D03*
X147256500Y-114363500D03*
X139636500Y-132143500D03*
D21*
X157670500Y-123514500D03*
X157670500Y-121014500D03*
X157670500Y-118514500D03*
G36*
G01*
X156910206Y-115114500D02*
X158430794Y-115114500D01*
G75*
G02*
X158695500Y-115379206I0J-264706D01*
G01*
X158695500Y-116649794D01*
G75*
G02*
X158430794Y-116914500I-264706J0D01*
G01*
X156910206Y-116914500D01*
G75*
G02*
X156645500Y-116649794I0J264706D01*
G01*
X156645500Y-115379206D01*
G75*
G02*
X156910206Y-115114500I264706J0D01*
G01*
G37*
X172642500Y-130683500D03*
X172642500Y-133183500D03*
X172642500Y-135683500D03*
X172642500Y-138183500D03*
G36*
G01*
X173402794Y-141583500D02*
X171882206Y-141583500D01*
G75*
G02*
X171617500Y-141318794I0J264706D01*
G01*
X171617500Y-140048206D01*
G75*
G02*
X171882206Y-139783500I264706J0D01*
G01*
X173402794Y-139783500D01*
G75*
G02*
X173667500Y-140048206I0J-264706D01*
G01*
X173667500Y-141318794D01*
G75*
G02*
X173402794Y-141583500I-264706J0D01*
G01*
G37*
D22*
X181786500Y-117903500D03*
D23*
X174166500Y-125523500D03*
X179246500Y-117903500D03*
X176706500Y-125523500D03*
X176706500Y-117903500D03*
X179246500Y-125523500D03*
X174166500Y-117903500D03*
X181786500Y-125523500D03*
D22*
X204900500Y-117903500D03*
D23*
X197280500Y-125523500D03*
X202360500Y-117903500D03*
X199820500Y-125523500D03*
X199820500Y-117903500D03*
X202360500Y-125523500D03*
X197280500Y-117903500D03*
X204900500Y-125523500D03*
D22*
X193470500Y-117903500D03*
D23*
X185850500Y-125523500D03*
X190930500Y-117903500D03*
X188390500Y-125523500D03*
X188390500Y-117903500D03*
X190930500Y-125523500D03*
X185850500Y-117903500D03*
X193470500Y-125523500D03*
D22*
X170356500Y-117903500D03*
D23*
X162736500Y-125523500D03*
X167816500Y-117903500D03*
X165276500Y-125523500D03*
X165276500Y-117903500D03*
X167816500Y-125523500D03*
X162736500Y-117903500D03*
X170356500Y-125523500D03*
D24*
X133286500Y-133413500D03*
X133286500Y-135953500D03*
D25*
X133286500Y-138493500D03*
D21*
X157656500Y-140603500D03*
X157656500Y-138103500D03*
X157656500Y-135603500D03*
X157656500Y-133103500D03*
G36*
G01*
X156896206Y-129703500D02*
X158416794Y-129703500D01*
G75*
G02*
X158681500Y-129968206I0J-264706D01*
G01*
X158681500Y-131238794D01*
G75*
G02*
X158416794Y-131503500I-264706J0D01*
G01*
X156896206Y-131503500D01*
G75*
G02*
X156631500Y-131238794I0J264706D01*
G01*
X156631500Y-129968206D01*
G75*
G02*
X156896206Y-129703500I264706J0D01*
G01*
G37*
X184912000Y-130683000D03*
X184912000Y-133183000D03*
X184912000Y-135683000D03*
G36*
G01*
X185672294Y-139083000D02*
X184151706Y-139083000D01*
G75*
G02*
X183887000Y-138818294I0J264706D01*
G01*
X183887000Y-137547706D01*
G75*
G02*
X184151706Y-137283000I264706J0D01*
G01*
X185672294Y-137283000D01*
G75*
G02*
X185937000Y-137547706I0J-264706D01*
G01*
X185937000Y-138818294D01*
G75*
G02*
X185672294Y-139083000I-264706J0D01*
G01*
G37*
D26*
X133299200Y-114355880D03*
G36*
G01*
X134084494Y-117755880D02*
X132513906Y-117755880D01*
G75*
G02*
X132249200Y-117491174I0J264706D01*
G01*
X132249200Y-116220586D01*
G75*
G02*
X132513906Y-115955880I264706J0D01*
G01*
X134084494Y-115955880D01*
G75*
G02*
X134349200Y-116220586I0J-264706D01*
G01*
X134349200Y-117491174D01*
G75*
G02*
X134084494Y-117755880I-264706J0D01*
G01*
G37*
D27*
X124076500Y-108568500D03*
X124076500Y-118568500D03*
X104076500Y-123568500D03*
D28*
X104076500Y-103568500D03*
D15*
X204304900Y-139661900D03*
X104711500Y-134683500D03*
X147256500Y-139954000D03*
X182372000Y-71247000D03*
D10*
X121856500Y-94678500D03*
X121856500Y-89598500D03*
D17*
X137731500Y-108013500D03*
D18*
X137731500Y-97853500D03*
X137731500Y-90233500D03*
X130111500Y-92773500D03*
X130111500Y-108013500D03*
D17*
X149796500Y-108013500D03*
D18*
X149796500Y-97853500D03*
X149796500Y-90233500D03*
X142176500Y-92773500D03*
X142176500Y-108013500D03*
D17*
X173291500Y-108013500D03*
D18*
X173291500Y-97853500D03*
X173291500Y-90233500D03*
X165671500Y-92773500D03*
X165671500Y-108013500D03*
M02*
