G04 #@! TF.GenerationSoftware,KiCad,Pcbnew,(5.1.6)-1*
G04 #@! TF.CreationDate,2021-10-26T14:42:57+02:00*
G04 #@! TF.ProjectId,hamodule,68616d6f-6475-46c6-952e-6b696361645f,rev?*
G04 #@! TF.SameCoordinates,Original*
G04 #@! TF.FileFunction,Copper,L1,Top*
G04 #@! TF.FilePolarity,Positive*
%FSLAX46Y46*%
G04 Gerber Fmt 4.6, Leading zero omitted, Abs format (unit mm)*
G04 Created by KiCad (PCBNEW (5.1.6)-1) date 2021-10-26 14:42:57*
%MOMM*%
%LPD*%
G01*
G04 APERTURE LIST*
G04 #@! TA.AperFunction,ComponentPad*
%ADD10R,2.400000X1.600000*%
G04 #@! TD*
G04 #@! TA.AperFunction,ComponentPad*
%ADD11O,2.400000X1.600000*%
G04 #@! TD*
G04 #@! TA.AperFunction,ComponentPad*
%ADD12C,2.000000*%
G04 #@! TD*
G04 #@! TA.AperFunction,ComponentPad*
%ADD13O,1.700000X1.700000*%
G04 #@! TD*
G04 #@! TA.AperFunction,ComponentPad*
%ADD14R,1.700000X1.700000*%
G04 #@! TD*
G04 #@! TA.AperFunction,ComponentPad*
%ADD15O,1.700000X2.000000*%
G04 #@! TD*
G04 #@! TA.AperFunction,SMDPad,CuDef*
%ADD16R,0.900000X0.800000*%
G04 #@! TD*
G04 #@! TA.AperFunction,ComponentPad*
%ADD17C,5.500000*%
G04 #@! TD*
G04 #@! TA.AperFunction,ComponentPad*
%ADD18C,1.600000*%
G04 #@! TD*
G04 #@! TA.AperFunction,ComponentPad*
%ADD19R,1.600000X1.600000*%
G04 #@! TD*
G04 #@! TA.AperFunction,ComponentPad*
%ADD20C,1.800000*%
G04 #@! TD*
G04 #@! TA.AperFunction,ComponentPad*
%ADD21R,2.300000X2.300000*%
G04 #@! TD*
G04 #@! TA.AperFunction,ComponentPad*
%ADD22C,2.300000*%
G04 #@! TD*
G04 #@! TA.AperFunction,ComponentPad*
%ADD23O,1.950000X1.700000*%
G04 #@! TD*
G04 #@! TA.AperFunction,ComponentPad*
%ADD24R,1.600000X2.400000*%
G04 #@! TD*
G04 #@! TA.AperFunction,ComponentPad*
%ADD25O,1.600000X2.400000*%
G04 #@! TD*
G04 #@! TA.AperFunction,ComponentPad*
%ADD26O,2.000000X1.905000*%
G04 #@! TD*
G04 #@! TA.AperFunction,ComponentPad*
%ADD27R,2.000000X1.905000*%
G04 #@! TD*
G04 #@! TA.AperFunction,ComponentPad*
%ADD28O,2.000000X1.700000*%
G04 #@! TD*
G04 #@! TA.AperFunction,ComponentPad*
%ADD29C,1.650000*%
G04 #@! TD*
G04 #@! TA.AperFunction,ComponentPad*
%ADD30R,1.650000X1.650000*%
G04 #@! TD*
G04 #@! TA.AperFunction,ViaPad*
%ADD31C,0.800000*%
G04 #@! TD*
G04 #@! TA.AperFunction,Conductor*
%ADD32C,3.000000*%
G04 #@! TD*
G04 #@! TA.AperFunction,Conductor*
%ADD33C,1.000000*%
G04 #@! TD*
G04 #@! TA.AperFunction,Conductor*
%ADD34C,0.250000*%
G04 #@! TD*
G04 APERTURE END LIST*
D10*
X147256500Y-132143500D03*
D11*
X139636500Y-114363500D03*
X147256500Y-129603500D03*
X139636500Y-116903500D03*
X147256500Y-127063500D03*
X139636500Y-119443500D03*
X147256500Y-124523500D03*
X139636500Y-121983500D03*
X147256500Y-121983500D03*
X139636500Y-124523500D03*
X147256500Y-119443500D03*
X139636500Y-127063500D03*
X147256500Y-116903500D03*
X139636500Y-129603500D03*
X147256500Y-114363500D03*
X139636500Y-132143500D03*
G04 #@! TA.AperFunction,SMDPad,CuDef*
G36*
G01*
X199939000Y-113438500D02*
X199939000Y-115288500D01*
G75*
G02*
X199689000Y-115538500I-250000J0D01*
G01*
X198689000Y-115538500D01*
G75*
G02*
X198439000Y-115288500I0J250000D01*
G01*
X198439000Y-113438500D01*
G75*
G02*
X198689000Y-113188500I250000J0D01*
G01*
X199689000Y-113188500D01*
G75*
G02*
X199939000Y-113438500I0J-250000D01*
G01*
G37*
G04 #@! TD.AperFunction*
G04 #@! TA.AperFunction,SMDPad,CuDef*
G36*
G01*
X203189000Y-113438500D02*
X203189000Y-115288500D01*
G75*
G02*
X202939000Y-115538500I-250000J0D01*
G01*
X201939000Y-115538500D01*
G75*
G02*
X201689000Y-115288500I0J250000D01*
G01*
X201689000Y-113438500D01*
G75*
G02*
X201939000Y-113188500I250000J0D01*
G01*
X202939000Y-113188500D01*
G75*
G02*
X203189000Y-113438500I0J-250000D01*
G01*
G37*
G04 #@! TD.AperFunction*
G04 #@! TA.AperFunction,SMDPad,CuDef*
G36*
G01*
X188646500Y-113438500D02*
X188646500Y-115288500D01*
G75*
G02*
X188396500Y-115538500I-250000J0D01*
G01*
X187396500Y-115538500D01*
G75*
G02*
X187146500Y-115288500I0J250000D01*
G01*
X187146500Y-113438500D01*
G75*
G02*
X187396500Y-113188500I250000J0D01*
G01*
X188396500Y-113188500D01*
G75*
G02*
X188646500Y-113438500I0J-250000D01*
G01*
G37*
G04 #@! TD.AperFunction*
G04 #@! TA.AperFunction,SMDPad,CuDef*
G36*
G01*
X191896500Y-113438500D02*
X191896500Y-115288500D01*
G75*
G02*
X191646500Y-115538500I-250000J0D01*
G01*
X190646500Y-115538500D01*
G75*
G02*
X190396500Y-115288500I0J250000D01*
G01*
X190396500Y-113438500D01*
G75*
G02*
X190646500Y-113188500I250000J0D01*
G01*
X191646500Y-113188500D01*
G75*
G02*
X191896500Y-113438500I0J-250000D01*
G01*
G37*
G04 #@! TD.AperFunction*
G04 #@! TA.AperFunction,SMDPad,CuDef*
G36*
G01*
X177079000Y-113438500D02*
X177079000Y-115288500D01*
G75*
G02*
X176829000Y-115538500I-250000J0D01*
G01*
X175829000Y-115538500D01*
G75*
G02*
X175579000Y-115288500I0J250000D01*
G01*
X175579000Y-113438500D01*
G75*
G02*
X175829000Y-113188500I250000J0D01*
G01*
X176829000Y-113188500D01*
G75*
G02*
X177079000Y-113438500I0J-250000D01*
G01*
G37*
G04 #@! TD.AperFunction*
G04 #@! TA.AperFunction,SMDPad,CuDef*
G36*
G01*
X180329000Y-113438500D02*
X180329000Y-115288500D01*
G75*
G02*
X180079000Y-115538500I-250000J0D01*
G01*
X179079000Y-115538500D01*
G75*
G02*
X178829000Y-115288500I0J250000D01*
G01*
X178829000Y-113438500D01*
G75*
G02*
X179079000Y-113188500I250000J0D01*
G01*
X180079000Y-113188500D01*
G75*
G02*
X180329000Y-113438500I0J-250000D01*
G01*
G37*
G04 #@! TD.AperFunction*
G04 #@! TA.AperFunction,SMDPad,CuDef*
G36*
G01*
X165849000Y-113438500D02*
X165849000Y-115288500D01*
G75*
G02*
X165599000Y-115538500I-250000J0D01*
G01*
X164599000Y-115538500D01*
G75*
G02*
X164349000Y-115288500I0J250000D01*
G01*
X164349000Y-113438500D01*
G75*
G02*
X164599000Y-113188500I250000J0D01*
G01*
X165599000Y-113188500D01*
G75*
G02*
X165849000Y-113438500I0J-250000D01*
G01*
G37*
G04 #@! TD.AperFunction*
G04 #@! TA.AperFunction,SMDPad,CuDef*
G36*
G01*
X169099000Y-113438500D02*
X169099000Y-115288500D01*
G75*
G02*
X168849000Y-115538500I-250000J0D01*
G01*
X167849000Y-115538500D01*
G75*
G02*
X167599000Y-115288500I0J250000D01*
G01*
X167599000Y-113438500D01*
G75*
G02*
X167849000Y-113188500I250000J0D01*
G01*
X168849000Y-113188500D01*
G75*
G02*
X169099000Y-113438500I0J-250000D01*
G01*
G37*
G04 #@! TD.AperFunction*
D12*
X142176500Y-73088500D03*
X137096500Y-73088500D03*
G04 #@! TA.AperFunction,SMDPad,CuDef*
G36*
G01*
X202346499Y-94176000D02*
X205196501Y-94176000D01*
G75*
G02*
X205446500Y-94425999I0J-249999D01*
G01*
X205446500Y-95451001D01*
G75*
G02*
X205196501Y-95701000I-249999J0D01*
G01*
X202346499Y-95701000D01*
G75*
G02*
X202096500Y-95451001I0J249999D01*
G01*
X202096500Y-94425999D01*
G75*
G02*
X202346499Y-94176000I249999J0D01*
G01*
G37*
G04 #@! TD.AperFunction*
G04 #@! TA.AperFunction,SMDPad,CuDef*
G36*
G01*
X202346499Y-88201000D02*
X205196501Y-88201000D01*
G75*
G02*
X205446500Y-88450999I0J-249999D01*
G01*
X205446500Y-89476001D01*
G75*
G02*
X205196501Y-89726000I-249999J0D01*
G01*
X202346499Y-89726000D01*
G75*
G02*
X202096500Y-89476001I0J249999D01*
G01*
X202096500Y-88450999D01*
G75*
G02*
X202346499Y-88201000I249999J0D01*
G01*
G37*
G04 #@! TD.AperFunction*
G04 #@! TA.AperFunction,SMDPad,CuDef*
G36*
G01*
X197266499Y-94176000D02*
X200116501Y-94176000D01*
G75*
G02*
X200366500Y-94425999I0J-249999D01*
G01*
X200366500Y-95451001D01*
G75*
G02*
X200116501Y-95701000I-249999J0D01*
G01*
X197266499Y-95701000D01*
G75*
G02*
X197016500Y-95451001I0J249999D01*
G01*
X197016500Y-94425999D01*
G75*
G02*
X197266499Y-94176000I249999J0D01*
G01*
G37*
G04 #@! TD.AperFunction*
G04 #@! TA.AperFunction,SMDPad,CuDef*
G36*
G01*
X197266499Y-88201000D02*
X200116501Y-88201000D01*
G75*
G02*
X200366500Y-88450999I0J-249999D01*
G01*
X200366500Y-89476001D01*
G75*
G02*
X200116501Y-89726000I-249999J0D01*
G01*
X197266499Y-89726000D01*
G75*
G02*
X197016500Y-89476001I0J249999D01*
G01*
X197016500Y-88450999D01*
G75*
G02*
X197266499Y-88201000I249999J0D01*
G01*
G37*
G04 #@! TD.AperFunction*
G04 #@! TA.AperFunction,SMDPad,CuDef*
G36*
G01*
X192186499Y-94176000D02*
X195036501Y-94176000D01*
G75*
G02*
X195286500Y-94425999I0J-249999D01*
G01*
X195286500Y-95451001D01*
G75*
G02*
X195036501Y-95701000I-249999J0D01*
G01*
X192186499Y-95701000D01*
G75*
G02*
X191936500Y-95451001I0J249999D01*
G01*
X191936500Y-94425999D01*
G75*
G02*
X192186499Y-94176000I249999J0D01*
G01*
G37*
G04 #@! TD.AperFunction*
G04 #@! TA.AperFunction,SMDPad,CuDef*
G36*
G01*
X192186499Y-88201000D02*
X195036501Y-88201000D01*
G75*
G02*
X195286500Y-88450999I0J-249999D01*
G01*
X195286500Y-89476001D01*
G75*
G02*
X195036501Y-89726000I-249999J0D01*
G01*
X192186499Y-89726000D01*
G75*
G02*
X191936500Y-89476001I0J249999D01*
G01*
X191936500Y-88450999D01*
G75*
G02*
X192186499Y-88201000I249999J0D01*
G01*
G37*
G04 #@! TD.AperFunction*
G04 #@! TA.AperFunction,SMDPad,CuDef*
G36*
G01*
X187106499Y-94176000D02*
X189956501Y-94176000D01*
G75*
G02*
X190206500Y-94425999I0J-249999D01*
G01*
X190206500Y-95451001D01*
G75*
G02*
X189956501Y-95701000I-249999J0D01*
G01*
X187106499Y-95701000D01*
G75*
G02*
X186856500Y-95451001I0J249999D01*
G01*
X186856500Y-94425999D01*
G75*
G02*
X187106499Y-94176000I249999J0D01*
G01*
G37*
G04 #@! TD.AperFunction*
G04 #@! TA.AperFunction,SMDPad,CuDef*
G36*
G01*
X187106499Y-88201000D02*
X189956501Y-88201000D01*
G75*
G02*
X190206500Y-88450999I0J-249999D01*
G01*
X190206500Y-89476001D01*
G75*
G02*
X189956501Y-89726000I-249999J0D01*
G01*
X187106499Y-89726000D01*
G75*
G02*
X186856500Y-89476001I0J249999D01*
G01*
X186856500Y-88450999D01*
G75*
G02*
X187106499Y-88201000I249999J0D01*
G01*
G37*
G04 #@! TD.AperFunction*
D13*
X141973300Y-135928100D03*
D14*
X141973300Y-138468100D03*
D15*
X149491700Y-137071100D03*
G04 #@! TA.AperFunction,ComponentPad*
G36*
G01*
X146141700Y-137821100D02*
X146141700Y-136321100D01*
G75*
G02*
X146391700Y-136071100I250000J0D01*
G01*
X147591700Y-136071100D01*
G75*
G02*
X147841700Y-136321100I0J-250000D01*
G01*
X147841700Y-137821100D01*
G75*
G02*
X147591700Y-138071100I-250000J0D01*
G01*
X146391700Y-138071100D01*
G75*
G02*
X146141700Y-137821100I0J250000D01*
G01*
G37*
G04 #@! TD.AperFunction*
G04 #@! TA.AperFunction,SMDPad,CuDef*
G36*
G01*
X193519100Y-131171101D02*
X193519100Y-130271099D01*
G75*
G02*
X193769099Y-130021100I249999J0D01*
G01*
X194419101Y-130021100D01*
G75*
G02*
X194669100Y-130271099I0J-249999D01*
G01*
X194669100Y-131171101D01*
G75*
G02*
X194419101Y-131421100I-249999J0D01*
G01*
X193769099Y-131421100D01*
G75*
G02*
X193519100Y-131171101I0J249999D01*
G01*
G37*
G04 #@! TD.AperFunction*
G04 #@! TA.AperFunction,SMDPad,CuDef*
G36*
G01*
X191469100Y-131171101D02*
X191469100Y-130271099D01*
G75*
G02*
X191719099Y-130021100I249999J0D01*
G01*
X192369101Y-130021100D01*
G75*
G02*
X192619100Y-130271099I0J-249999D01*
G01*
X192619100Y-131171101D01*
G75*
G02*
X192369101Y-131421100I-249999J0D01*
G01*
X191719099Y-131421100D01*
G75*
G02*
X191469100Y-131171101I0J249999D01*
G01*
G37*
G04 #@! TD.AperFunction*
G04 #@! TA.AperFunction,SMDPad,CuDef*
G36*
G01*
X118191700Y-136073301D02*
X118191700Y-135173299D01*
G75*
G02*
X118441699Y-134923300I249999J0D01*
G01*
X119091701Y-134923300D01*
G75*
G02*
X119341700Y-135173299I0J-249999D01*
G01*
X119341700Y-136073301D01*
G75*
G02*
X119091701Y-136323300I-249999J0D01*
G01*
X118441699Y-136323300D01*
G75*
G02*
X118191700Y-136073301I0J249999D01*
G01*
G37*
G04 #@! TD.AperFunction*
G04 #@! TA.AperFunction,SMDPad,CuDef*
G36*
G01*
X116141700Y-136073301D02*
X116141700Y-135173299D01*
G75*
G02*
X116391699Y-134923300I249999J0D01*
G01*
X117041701Y-134923300D01*
G75*
G02*
X117291700Y-135173299I0J-249999D01*
G01*
X117291700Y-136073301D01*
G75*
G02*
X117041701Y-136323300I-249999J0D01*
G01*
X116391699Y-136323300D01*
G75*
G02*
X116141700Y-136073301I0J249999D01*
G01*
G37*
G04 #@! TD.AperFunction*
G04 #@! TA.AperFunction,SMDPad,CuDef*
G36*
G01*
X117266300Y-137230699D02*
X117266300Y-138130701D01*
G75*
G02*
X117016301Y-138380700I-249999J0D01*
G01*
X116366299Y-138380700D01*
G75*
G02*
X116116300Y-138130701I0J249999D01*
G01*
X116116300Y-137230699D01*
G75*
G02*
X116366299Y-136980700I249999J0D01*
G01*
X117016301Y-136980700D01*
G75*
G02*
X117266300Y-137230699I0J-249999D01*
G01*
G37*
G04 #@! TD.AperFunction*
G04 #@! TA.AperFunction,SMDPad,CuDef*
G36*
G01*
X119316300Y-137230699D02*
X119316300Y-138130701D01*
G75*
G02*
X119066301Y-138380700I-249999J0D01*
G01*
X118416299Y-138380700D01*
G75*
G02*
X118166300Y-138130701I0J249999D01*
G01*
X118166300Y-137230699D01*
G75*
G02*
X118416299Y-136980700I249999J0D01*
G01*
X119066301Y-136980700D01*
G75*
G02*
X119316300Y-137230699I0J-249999D01*
G01*
G37*
G04 #@! TD.AperFunction*
G04 #@! TA.AperFunction,SMDPad,CuDef*
G36*
G01*
X200908500Y-128073999D02*
X200908500Y-128974001D01*
G75*
G02*
X200658501Y-129224000I-249999J0D01*
G01*
X200008499Y-129224000D01*
G75*
G02*
X199758500Y-128974001I0J249999D01*
G01*
X199758500Y-128073999D01*
G75*
G02*
X200008499Y-127824000I249999J0D01*
G01*
X200658501Y-127824000D01*
G75*
G02*
X200908500Y-128073999I0J-249999D01*
G01*
G37*
G04 #@! TD.AperFunction*
G04 #@! TA.AperFunction,SMDPad,CuDef*
G36*
G01*
X202958500Y-128073999D02*
X202958500Y-128974001D01*
G75*
G02*
X202708501Y-129224000I-249999J0D01*
G01*
X202058499Y-129224000D01*
G75*
G02*
X201808500Y-128974001I0J249999D01*
G01*
X201808500Y-128073999D01*
G75*
G02*
X202058499Y-127824000I249999J0D01*
G01*
X202708501Y-127824000D01*
G75*
G02*
X202958500Y-128073999I0J-249999D01*
G01*
G37*
G04 #@! TD.AperFunction*
G04 #@! TA.AperFunction,SMDPad,CuDef*
G36*
G01*
X190930000Y-128010499D02*
X190930000Y-128910501D01*
G75*
G02*
X190680001Y-129160500I-249999J0D01*
G01*
X190029999Y-129160500D01*
G75*
G02*
X189780000Y-128910501I0J249999D01*
G01*
X189780000Y-128010499D01*
G75*
G02*
X190029999Y-127760500I249999J0D01*
G01*
X190680001Y-127760500D01*
G75*
G02*
X190930000Y-128010499I0J-249999D01*
G01*
G37*
G04 #@! TD.AperFunction*
G04 #@! TA.AperFunction,SMDPad,CuDef*
G36*
G01*
X192980000Y-128010499D02*
X192980000Y-128910501D01*
G75*
G02*
X192730001Y-129160500I-249999J0D01*
G01*
X192079999Y-129160500D01*
G75*
G02*
X191830000Y-128910501I0J249999D01*
G01*
X191830000Y-128010499D01*
G75*
G02*
X192079999Y-127760500I249999J0D01*
G01*
X192730001Y-127760500D01*
G75*
G02*
X192980000Y-128010499I0J-249999D01*
G01*
G37*
G04 #@! TD.AperFunction*
G04 #@! TA.AperFunction,SMDPad,CuDef*
G36*
G01*
X165847500Y-128073999D02*
X165847500Y-128974001D01*
G75*
G02*
X165597501Y-129224000I-249999J0D01*
G01*
X164947499Y-129224000D01*
G75*
G02*
X164697500Y-128974001I0J249999D01*
G01*
X164697500Y-128073999D01*
G75*
G02*
X164947499Y-127824000I249999J0D01*
G01*
X165597501Y-127824000D01*
G75*
G02*
X165847500Y-128073999I0J-249999D01*
G01*
G37*
G04 #@! TD.AperFunction*
G04 #@! TA.AperFunction,SMDPad,CuDef*
G36*
G01*
X167897500Y-128073999D02*
X167897500Y-128974001D01*
G75*
G02*
X167647501Y-129224000I-249999J0D01*
G01*
X166997499Y-129224000D01*
G75*
G02*
X166747500Y-128974001I0J249999D01*
G01*
X166747500Y-128073999D01*
G75*
G02*
X166997499Y-127824000I249999J0D01*
G01*
X167647501Y-127824000D01*
G75*
G02*
X167897500Y-128073999I0J-249999D01*
G01*
G37*
G04 #@! TD.AperFunction*
G04 #@! TA.AperFunction,SMDPad,CuDef*
G36*
G01*
X178230000Y-128010499D02*
X178230000Y-128910501D01*
G75*
G02*
X177980001Y-129160500I-249999J0D01*
G01*
X177329999Y-129160500D01*
G75*
G02*
X177080000Y-128910501I0J249999D01*
G01*
X177080000Y-128010499D01*
G75*
G02*
X177329999Y-127760500I249999J0D01*
G01*
X177980001Y-127760500D01*
G75*
G02*
X178230000Y-128010499I0J-249999D01*
G01*
G37*
G04 #@! TD.AperFunction*
G04 #@! TA.AperFunction,SMDPad,CuDef*
G36*
G01*
X180280000Y-128010499D02*
X180280000Y-128910501D01*
G75*
G02*
X180030001Y-129160500I-249999J0D01*
G01*
X179379999Y-129160500D01*
G75*
G02*
X179130000Y-128910501I0J249999D01*
G01*
X179130000Y-128010499D01*
G75*
G02*
X179379999Y-127760500I249999J0D01*
G01*
X180030001Y-127760500D01*
G75*
G02*
X180280000Y-128010499I0J-249999D01*
G01*
G37*
G04 #@! TD.AperFunction*
G04 #@! TA.AperFunction,SMDPad,CuDef*
G36*
G01*
X193519100Y-133660301D02*
X193519100Y-132760299D01*
G75*
G02*
X193769099Y-132510300I249999J0D01*
G01*
X194419101Y-132510300D01*
G75*
G02*
X194669100Y-132760299I0J-249999D01*
G01*
X194669100Y-133660301D01*
G75*
G02*
X194419101Y-133910300I-249999J0D01*
G01*
X193769099Y-133910300D01*
G75*
G02*
X193519100Y-133660301I0J249999D01*
G01*
G37*
G04 #@! TD.AperFunction*
G04 #@! TA.AperFunction,SMDPad,CuDef*
G36*
G01*
X191469100Y-133660301D02*
X191469100Y-132760299D01*
G75*
G02*
X191719099Y-132510300I249999J0D01*
G01*
X192369101Y-132510300D01*
G75*
G02*
X192619100Y-132760299I0J-249999D01*
G01*
X192619100Y-133660301D01*
G75*
G02*
X192369101Y-133910300I-249999J0D01*
G01*
X191719099Y-133910300D01*
G75*
G02*
X191469100Y-133660301I0J249999D01*
G01*
G37*
G04 #@! TD.AperFunction*
G04 #@! TA.AperFunction,SMDPad,CuDef*
G36*
G01*
X193519100Y-136200301D02*
X193519100Y-135300299D01*
G75*
G02*
X193769099Y-135050300I249999J0D01*
G01*
X194419101Y-135050300D01*
G75*
G02*
X194669100Y-135300299I0J-249999D01*
G01*
X194669100Y-136200301D01*
G75*
G02*
X194419101Y-136450300I-249999J0D01*
G01*
X193769099Y-136450300D01*
G75*
G02*
X193519100Y-136200301I0J249999D01*
G01*
G37*
G04 #@! TD.AperFunction*
G04 #@! TA.AperFunction,SMDPad,CuDef*
G36*
G01*
X191469100Y-136200301D02*
X191469100Y-135300299D01*
G75*
G02*
X191719099Y-135050300I249999J0D01*
G01*
X192369101Y-135050300D01*
G75*
G02*
X192619100Y-135300299I0J-249999D01*
G01*
X192619100Y-136200301D01*
G75*
G02*
X192369101Y-136450300I-249999J0D01*
G01*
X191719099Y-136450300D01*
G75*
G02*
X191469100Y-136200301I0J249999D01*
G01*
G37*
G04 #@! TD.AperFunction*
G04 #@! TA.AperFunction,SMDPad,CuDef*
G36*
G01*
X193519100Y-138638701D02*
X193519100Y-137738699D01*
G75*
G02*
X193769099Y-137488700I249999J0D01*
G01*
X194419101Y-137488700D01*
G75*
G02*
X194669100Y-137738699I0J-249999D01*
G01*
X194669100Y-138638701D01*
G75*
G02*
X194419101Y-138888700I-249999J0D01*
G01*
X193769099Y-138888700D01*
G75*
G02*
X193519100Y-138638701I0J249999D01*
G01*
G37*
G04 #@! TD.AperFunction*
G04 #@! TA.AperFunction,SMDPad,CuDef*
G36*
G01*
X191469100Y-138638701D02*
X191469100Y-137738699D01*
G75*
G02*
X191719099Y-137488700I249999J0D01*
G01*
X192369101Y-137488700D01*
G75*
G02*
X192619100Y-137738699I0J-249999D01*
G01*
X192619100Y-138638701D01*
G75*
G02*
X192369101Y-138888700I-249999J0D01*
G01*
X191719099Y-138888700D01*
G75*
G02*
X191469100Y-138638701I0J249999D01*
G01*
G37*
G04 #@! TD.AperFunction*
D16*
X149606000Y-126943500D03*
X151606000Y-125993500D03*
X151606000Y-127893500D03*
X149606000Y-123243500D03*
X151606000Y-122293500D03*
X151606000Y-124193500D03*
X149606000Y-119443500D03*
X151606000Y-118493500D03*
X151606000Y-120393500D03*
X149606000Y-115443000D03*
X151606000Y-114493000D03*
X151606000Y-116393000D03*
G04 #@! TA.AperFunction,SMDPad,CuDef*
G36*
G01*
X202321500Y-108880500D02*
X205221500Y-108880500D01*
G75*
G02*
X205471500Y-109130500I0J-250000D01*
G01*
X205471500Y-109930500D01*
G75*
G02*
X205221500Y-110180500I-250000J0D01*
G01*
X202321500Y-110180500D01*
G75*
G02*
X202071500Y-109930500I0J250000D01*
G01*
X202071500Y-109130500D01*
G75*
G02*
X202321500Y-108880500I250000J0D01*
G01*
G37*
G04 #@! TD.AperFunction*
G04 #@! TA.AperFunction,SMDPad,CuDef*
G36*
G01*
X202321500Y-104430500D02*
X205221500Y-104430500D01*
G75*
G02*
X205471500Y-104680500I0J-250000D01*
G01*
X205471500Y-105480500D01*
G75*
G02*
X205221500Y-105730500I-250000J0D01*
G01*
X202321500Y-105730500D01*
G75*
G02*
X202071500Y-105480500I0J250000D01*
G01*
X202071500Y-104680500D01*
G75*
G02*
X202321500Y-104430500I250000J0D01*
G01*
G37*
G04 #@! TD.AperFunction*
G04 #@! TA.AperFunction,SMDPad,CuDef*
G36*
G01*
X197241500Y-108880500D02*
X200141500Y-108880500D01*
G75*
G02*
X200391500Y-109130500I0J-250000D01*
G01*
X200391500Y-109930500D01*
G75*
G02*
X200141500Y-110180500I-250000J0D01*
G01*
X197241500Y-110180500D01*
G75*
G02*
X196991500Y-109930500I0J250000D01*
G01*
X196991500Y-109130500D01*
G75*
G02*
X197241500Y-108880500I250000J0D01*
G01*
G37*
G04 #@! TD.AperFunction*
G04 #@! TA.AperFunction,SMDPad,CuDef*
G36*
G01*
X197241500Y-104430500D02*
X200141500Y-104430500D01*
G75*
G02*
X200391500Y-104680500I0J-250000D01*
G01*
X200391500Y-105480500D01*
G75*
G02*
X200141500Y-105730500I-250000J0D01*
G01*
X197241500Y-105730500D01*
G75*
G02*
X196991500Y-105480500I0J250000D01*
G01*
X196991500Y-104680500D01*
G75*
G02*
X197241500Y-104430500I250000J0D01*
G01*
G37*
G04 #@! TD.AperFunction*
G04 #@! TA.AperFunction,SMDPad,CuDef*
G36*
G01*
X192161500Y-108880500D02*
X195061500Y-108880500D01*
G75*
G02*
X195311500Y-109130500I0J-250000D01*
G01*
X195311500Y-109930500D01*
G75*
G02*
X195061500Y-110180500I-250000J0D01*
G01*
X192161500Y-110180500D01*
G75*
G02*
X191911500Y-109930500I0J250000D01*
G01*
X191911500Y-109130500D01*
G75*
G02*
X192161500Y-108880500I250000J0D01*
G01*
G37*
G04 #@! TD.AperFunction*
G04 #@! TA.AperFunction,SMDPad,CuDef*
G36*
G01*
X192161500Y-104430500D02*
X195061500Y-104430500D01*
G75*
G02*
X195311500Y-104680500I0J-250000D01*
G01*
X195311500Y-105480500D01*
G75*
G02*
X195061500Y-105730500I-250000J0D01*
G01*
X192161500Y-105730500D01*
G75*
G02*
X191911500Y-105480500I0J250000D01*
G01*
X191911500Y-104680500D01*
G75*
G02*
X192161500Y-104430500I250000J0D01*
G01*
G37*
G04 #@! TD.AperFunction*
G04 #@! TA.AperFunction,SMDPad,CuDef*
G36*
G01*
X187081500Y-108944000D02*
X189981500Y-108944000D01*
G75*
G02*
X190231500Y-109194000I0J-250000D01*
G01*
X190231500Y-109994000D01*
G75*
G02*
X189981500Y-110244000I-250000J0D01*
G01*
X187081500Y-110244000D01*
G75*
G02*
X186831500Y-109994000I0J250000D01*
G01*
X186831500Y-109194000D01*
G75*
G02*
X187081500Y-108944000I250000J0D01*
G01*
G37*
G04 #@! TD.AperFunction*
G04 #@! TA.AperFunction,SMDPad,CuDef*
G36*
G01*
X187081500Y-104494000D02*
X189981500Y-104494000D01*
G75*
G02*
X190231500Y-104744000I0J-250000D01*
G01*
X190231500Y-105544000D01*
G75*
G02*
X189981500Y-105794000I-250000J0D01*
G01*
X187081500Y-105794000D01*
G75*
G02*
X186831500Y-105544000I0J250000D01*
G01*
X186831500Y-104744000D01*
G75*
G02*
X187081500Y-104494000I250000J0D01*
G01*
G37*
G04 #@! TD.AperFunction*
G04 #@! TA.AperFunction,SMDPad,CuDef*
G36*
G01*
X197358500Y-131171101D02*
X197358500Y-130271099D01*
G75*
G02*
X197608499Y-130021100I249999J0D01*
G01*
X198258501Y-130021100D01*
G75*
G02*
X198508500Y-130271099I0J-249999D01*
G01*
X198508500Y-131171101D01*
G75*
G02*
X198258501Y-131421100I-249999J0D01*
G01*
X197608499Y-131421100D01*
G75*
G02*
X197358500Y-131171101I0J249999D01*
G01*
G37*
G04 #@! TD.AperFunction*
G04 #@! TA.AperFunction,SMDPad,CuDef*
G36*
G01*
X195308500Y-131171101D02*
X195308500Y-130271099D01*
G75*
G02*
X195558499Y-130021100I249999J0D01*
G01*
X196208501Y-130021100D01*
G75*
G02*
X196458500Y-130271099I0J-249999D01*
G01*
X196458500Y-131171101D01*
G75*
G02*
X196208501Y-131421100I-249999J0D01*
G01*
X195558499Y-131421100D01*
G75*
G02*
X195308500Y-131171101I0J249999D01*
G01*
G37*
G04 #@! TD.AperFunction*
G04 #@! TA.AperFunction,SMDPad,CuDef*
G36*
G01*
X197358500Y-133657001D02*
X197358500Y-132756999D01*
G75*
G02*
X197608499Y-132507000I249999J0D01*
G01*
X198258501Y-132507000D01*
G75*
G02*
X198508500Y-132756999I0J-249999D01*
G01*
X198508500Y-133657001D01*
G75*
G02*
X198258501Y-133907000I-249999J0D01*
G01*
X197608499Y-133907000D01*
G75*
G02*
X197358500Y-133657001I0J249999D01*
G01*
G37*
G04 #@! TD.AperFunction*
G04 #@! TA.AperFunction,SMDPad,CuDef*
G36*
G01*
X195308500Y-133657001D02*
X195308500Y-132756999D01*
G75*
G02*
X195558499Y-132507000I249999J0D01*
G01*
X196208501Y-132507000D01*
G75*
G02*
X196458500Y-132756999I0J-249999D01*
G01*
X196458500Y-133657001D01*
G75*
G02*
X196208501Y-133907000I-249999J0D01*
G01*
X195558499Y-133907000D01*
G75*
G02*
X195308500Y-133657001I0J249999D01*
G01*
G37*
G04 #@! TD.AperFunction*
G04 #@! TA.AperFunction,SMDPad,CuDef*
G36*
G01*
X197347100Y-136200301D02*
X197347100Y-135300299D01*
G75*
G02*
X197597099Y-135050300I249999J0D01*
G01*
X198247101Y-135050300D01*
G75*
G02*
X198497100Y-135300299I0J-249999D01*
G01*
X198497100Y-136200301D01*
G75*
G02*
X198247101Y-136450300I-249999J0D01*
G01*
X197597099Y-136450300D01*
G75*
G02*
X197347100Y-136200301I0J249999D01*
G01*
G37*
G04 #@! TD.AperFunction*
G04 #@! TA.AperFunction,SMDPad,CuDef*
G36*
G01*
X195297100Y-136200301D02*
X195297100Y-135300299D01*
G75*
G02*
X195547099Y-135050300I249999J0D01*
G01*
X196197101Y-135050300D01*
G75*
G02*
X196447100Y-135300299I0J-249999D01*
G01*
X196447100Y-136200301D01*
G75*
G02*
X196197101Y-136450300I-249999J0D01*
G01*
X195547099Y-136450300D01*
G75*
G02*
X195297100Y-136200301I0J249999D01*
G01*
G37*
G04 #@! TD.AperFunction*
G04 #@! TA.AperFunction,SMDPad,CuDef*
G36*
G01*
X197347100Y-138638701D02*
X197347100Y-137738699D01*
G75*
G02*
X197597099Y-137488700I249999J0D01*
G01*
X198247101Y-137488700D01*
G75*
G02*
X198497100Y-137738699I0J-249999D01*
G01*
X198497100Y-138638701D01*
G75*
G02*
X198247101Y-138888700I-249999J0D01*
G01*
X197597099Y-138888700D01*
G75*
G02*
X197347100Y-138638701I0J249999D01*
G01*
G37*
G04 #@! TD.AperFunction*
G04 #@! TA.AperFunction,SMDPad,CuDef*
G36*
G01*
X195297100Y-138638701D02*
X195297100Y-137738699D01*
G75*
G02*
X195547099Y-137488700I249999J0D01*
G01*
X196197101Y-137488700D01*
G75*
G02*
X196447100Y-137738699I0J-249999D01*
G01*
X196447100Y-138638701D01*
G75*
G02*
X196197101Y-138888700I-249999J0D01*
G01*
X195547099Y-138888700D01*
G75*
G02*
X195297100Y-138638701I0J249999D01*
G01*
G37*
G04 #@! TD.AperFunction*
G04 #@! TA.AperFunction,SMDPad,CuDef*
G36*
G01*
X178225000Y-137709999D02*
X178225000Y-138610001D01*
G75*
G02*
X177975001Y-138860000I-249999J0D01*
G01*
X177324999Y-138860000D01*
G75*
G02*
X177075000Y-138610001I0J249999D01*
G01*
X177075000Y-137709999D01*
G75*
G02*
X177324999Y-137460000I249999J0D01*
G01*
X177975001Y-137460000D01*
G75*
G02*
X178225000Y-137709999I0J-249999D01*
G01*
G37*
G04 #@! TD.AperFunction*
G04 #@! TA.AperFunction,SMDPad,CuDef*
G36*
G01*
X180275000Y-137709999D02*
X180275000Y-138610001D01*
G75*
G02*
X180025001Y-138860000I-249999J0D01*
G01*
X179374999Y-138860000D01*
G75*
G02*
X179125000Y-138610001I0J249999D01*
G01*
X179125000Y-137709999D01*
G75*
G02*
X179374999Y-137460000I249999J0D01*
G01*
X180025001Y-137460000D01*
G75*
G02*
X180275000Y-137709999I0J-249999D01*
G01*
G37*
G04 #@! TD.AperFunction*
G04 #@! TA.AperFunction,SMDPad,CuDef*
G36*
G01*
X178216000Y-135233499D02*
X178216000Y-136133501D01*
G75*
G02*
X177966001Y-136383500I-249999J0D01*
G01*
X177315999Y-136383500D01*
G75*
G02*
X177066000Y-136133501I0J249999D01*
G01*
X177066000Y-135233499D01*
G75*
G02*
X177315999Y-134983500I249999J0D01*
G01*
X177966001Y-134983500D01*
G75*
G02*
X178216000Y-135233499I0J-249999D01*
G01*
G37*
G04 #@! TD.AperFunction*
G04 #@! TA.AperFunction,SMDPad,CuDef*
G36*
G01*
X180266000Y-135233499D02*
X180266000Y-136133501D01*
G75*
G02*
X180016001Y-136383500I-249999J0D01*
G01*
X179365999Y-136383500D01*
G75*
G02*
X179116000Y-136133501I0J249999D01*
G01*
X179116000Y-135233499D01*
G75*
G02*
X179365999Y-134983500I249999J0D01*
G01*
X180016001Y-134983500D01*
G75*
G02*
X180266000Y-135233499I0J-249999D01*
G01*
G37*
G04 #@! TD.AperFunction*
G04 #@! TA.AperFunction,SMDPad,CuDef*
G36*
G01*
X178225000Y-132756999D02*
X178225000Y-133657001D01*
G75*
G02*
X177975001Y-133907000I-249999J0D01*
G01*
X177324999Y-133907000D01*
G75*
G02*
X177075000Y-133657001I0J249999D01*
G01*
X177075000Y-132756999D01*
G75*
G02*
X177324999Y-132507000I249999J0D01*
G01*
X177975001Y-132507000D01*
G75*
G02*
X178225000Y-132756999I0J-249999D01*
G01*
G37*
G04 #@! TD.AperFunction*
G04 #@! TA.AperFunction,SMDPad,CuDef*
G36*
G01*
X180275000Y-132756999D02*
X180275000Y-133657001D01*
G75*
G02*
X180025001Y-133907000I-249999J0D01*
G01*
X179374999Y-133907000D01*
G75*
G02*
X179125000Y-133657001I0J249999D01*
G01*
X179125000Y-132756999D01*
G75*
G02*
X179374999Y-132507000I249999J0D01*
G01*
X180025001Y-132507000D01*
G75*
G02*
X180275000Y-132756999I0J-249999D01*
G01*
G37*
G04 #@! TD.AperFunction*
G04 #@! TA.AperFunction,SMDPad,CuDef*
G36*
G01*
X178216000Y-130280499D02*
X178216000Y-131180501D01*
G75*
G02*
X177966001Y-131430500I-249999J0D01*
G01*
X177315999Y-131430500D01*
G75*
G02*
X177066000Y-131180501I0J249999D01*
G01*
X177066000Y-130280499D01*
G75*
G02*
X177315999Y-130030500I249999J0D01*
G01*
X177966001Y-130030500D01*
G75*
G02*
X178216000Y-130280499I0J-249999D01*
G01*
G37*
G04 #@! TD.AperFunction*
G04 #@! TA.AperFunction,SMDPad,CuDef*
G36*
G01*
X180266000Y-130280499D02*
X180266000Y-131180501D01*
G75*
G02*
X180016001Y-131430500I-249999J0D01*
G01*
X179365999Y-131430500D01*
G75*
G02*
X179116000Y-131180501I0J249999D01*
G01*
X179116000Y-130280499D01*
G75*
G02*
X179365999Y-130030500I249999J0D01*
G01*
X180016001Y-130030500D01*
G75*
G02*
X180266000Y-130280499I0J-249999D01*
G01*
G37*
G04 #@! TD.AperFunction*
G04 #@! TA.AperFunction,SMDPad,CuDef*
G36*
G01*
X187106499Y-102286000D02*
X189956501Y-102286000D01*
G75*
G02*
X190206500Y-102535999I0J-249999D01*
G01*
X190206500Y-103561001D01*
G75*
G02*
X189956501Y-103811000I-249999J0D01*
G01*
X187106499Y-103811000D01*
G75*
G02*
X186856500Y-103561001I0J249999D01*
G01*
X186856500Y-102535999D01*
G75*
G02*
X187106499Y-102286000I249999J0D01*
G01*
G37*
G04 #@! TD.AperFunction*
G04 #@! TA.AperFunction,SMDPad,CuDef*
G36*
G01*
X187106499Y-96311000D02*
X189956501Y-96311000D01*
G75*
G02*
X190206500Y-96560999I0J-249999D01*
G01*
X190206500Y-97586001D01*
G75*
G02*
X189956501Y-97836000I-249999J0D01*
G01*
X187106499Y-97836000D01*
G75*
G02*
X186856500Y-97586001I0J249999D01*
G01*
X186856500Y-96560999D01*
G75*
G02*
X187106499Y-96311000I249999J0D01*
G01*
G37*
G04 #@! TD.AperFunction*
G04 #@! TA.AperFunction,SMDPad,CuDef*
G36*
G01*
X192186499Y-102286000D02*
X195036501Y-102286000D01*
G75*
G02*
X195286500Y-102535999I0J-249999D01*
G01*
X195286500Y-103561001D01*
G75*
G02*
X195036501Y-103811000I-249999J0D01*
G01*
X192186499Y-103811000D01*
G75*
G02*
X191936500Y-103561001I0J249999D01*
G01*
X191936500Y-102535999D01*
G75*
G02*
X192186499Y-102286000I249999J0D01*
G01*
G37*
G04 #@! TD.AperFunction*
G04 #@! TA.AperFunction,SMDPad,CuDef*
G36*
G01*
X192186499Y-96311000D02*
X195036501Y-96311000D01*
G75*
G02*
X195286500Y-96560999I0J-249999D01*
G01*
X195286500Y-97586001D01*
G75*
G02*
X195036501Y-97836000I-249999J0D01*
G01*
X192186499Y-97836000D01*
G75*
G02*
X191936500Y-97586001I0J249999D01*
G01*
X191936500Y-96560999D01*
G75*
G02*
X192186499Y-96311000I249999J0D01*
G01*
G37*
G04 #@! TD.AperFunction*
G04 #@! TA.AperFunction,SMDPad,CuDef*
G36*
G01*
X197266499Y-102286000D02*
X200116501Y-102286000D01*
G75*
G02*
X200366500Y-102535999I0J-249999D01*
G01*
X200366500Y-103561001D01*
G75*
G02*
X200116501Y-103811000I-249999J0D01*
G01*
X197266499Y-103811000D01*
G75*
G02*
X197016500Y-103561001I0J249999D01*
G01*
X197016500Y-102535999D01*
G75*
G02*
X197266499Y-102286000I249999J0D01*
G01*
G37*
G04 #@! TD.AperFunction*
G04 #@! TA.AperFunction,SMDPad,CuDef*
G36*
G01*
X197266499Y-96311000D02*
X200116501Y-96311000D01*
G75*
G02*
X200366500Y-96560999I0J-249999D01*
G01*
X200366500Y-97586001D01*
G75*
G02*
X200116501Y-97836000I-249999J0D01*
G01*
X197266499Y-97836000D01*
G75*
G02*
X197016500Y-97586001I0J249999D01*
G01*
X197016500Y-96560999D01*
G75*
G02*
X197266499Y-96311000I249999J0D01*
G01*
G37*
G04 #@! TD.AperFunction*
G04 #@! TA.AperFunction,SMDPad,CuDef*
G36*
G01*
X202346499Y-102286000D02*
X205196501Y-102286000D01*
G75*
G02*
X205446500Y-102535999I0J-249999D01*
G01*
X205446500Y-103561001D01*
G75*
G02*
X205196501Y-103811000I-249999J0D01*
G01*
X202346499Y-103811000D01*
G75*
G02*
X202096500Y-103561001I0J249999D01*
G01*
X202096500Y-102535999D01*
G75*
G02*
X202346499Y-102286000I249999J0D01*
G01*
G37*
G04 #@! TD.AperFunction*
G04 #@! TA.AperFunction,SMDPad,CuDef*
G36*
G01*
X202346499Y-96311000D02*
X205196501Y-96311000D01*
G75*
G02*
X205446500Y-96560999I0J-249999D01*
G01*
X205446500Y-97586001D01*
G75*
G02*
X205196501Y-97836000I-249999J0D01*
G01*
X202346499Y-97836000D01*
G75*
G02*
X202096500Y-97586001I0J249999D01*
G01*
X202096500Y-96560999D01*
G75*
G02*
X202346499Y-96311000I249999J0D01*
G01*
G37*
G04 #@! TD.AperFunction*
G04 #@! TA.AperFunction,ComponentPad*
G36*
G01*
X203202500Y-82371500D02*
X204452500Y-82371500D01*
G75*
G02*
X205077500Y-82996500I0J-625000D01*
G01*
X205077500Y-84746500D01*
G75*
G02*
X204452500Y-85371500I-625000J0D01*
G01*
X203202500Y-85371500D01*
G75*
G02*
X202577500Y-84746500I0J625000D01*
G01*
X202577500Y-82996500D01*
G75*
G02*
X203202500Y-82371500I625000J0D01*
G01*
G37*
G04 #@! TD.AperFunction*
G04 #@! TA.AperFunction,ComponentPad*
G36*
G01*
X203202500Y-73671500D02*
X204452500Y-73671500D01*
G75*
G02*
X205077500Y-74296500I0J-625000D01*
G01*
X205077500Y-76046500D01*
G75*
G02*
X204452500Y-76671500I-625000J0D01*
G01*
X203202500Y-76671500D01*
G75*
G02*
X202577500Y-76046500I0J625000D01*
G01*
X202577500Y-74296500D01*
G75*
G02*
X203202500Y-73671500I625000J0D01*
G01*
G37*
G04 #@! TD.AperFunction*
G04 #@! TA.AperFunction,ComponentPad*
G36*
G01*
X198122500Y-82371500D02*
X199372500Y-82371500D01*
G75*
G02*
X199997500Y-82996500I0J-625000D01*
G01*
X199997500Y-84746500D01*
G75*
G02*
X199372500Y-85371500I-625000J0D01*
G01*
X198122500Y-85371500D01*
G75*
G02*
X197497500Y-84746500I0J625000D01*
G01*
X197497500Y-82996500D01*
G75*
G02*
X198122500Y-82371500I625000J0D01*
G01*
G37*
G04 #@! TD.AperFunction*
G04 #@! TA.AperFunction,ComponentPad*
G36*
G01*
X198122500Y-73671500D02*
X199372500Y-73671500D01*
G75*
G02*
X199997500Y-74296500I0J-625000D01*
G01*
X199997500Y-76046500D01*
G75*
G02*
X199372500Y-76671500I-625000J0D01*
G01*
X198122500Y-76671500D01*
G75*
G02*
X197497500Y-76046500I0J625000D01*
G01*
X197497500Y-74296500D01*
G75*
G02*
X198122500Y-73671500I625000J0D01*
G01*
G37*
G04 #@! TD.AperFunction*
G04 #@! TA.AperFunction,ComponentPad*
G36*
G01*
X193042500Y-82371500D02*
X194292500Y-82371500D01*
G75*
G02*
X194917500Y-82996500I0J-625000D01*
G01*
X194917500Y-84746500D01*
G75*
G02*
X194292500Y-85371500I-625000J0D01*
G01*
X193042500Y-85371500D01*
G75*
G02*
X192417500Y-84746500I0J625000D01*
G01*
X192417500Y-82996500D01*
G75*
G02*
X193042500Y-82371500I625000J0D01*
G01*
G37*
G04 #@! TD.AperFunction*
G04 #@! TA.AperFunction,ComponentPad*
G36*
G01*
X193042500Y-73671500D02*
X194292500Y-73671500D01*
G75*
G02*
X194917500Y-74296500I0J-625000D01*
G01*
X194917500Y-76046500D01*
G75*
G02*
X194292500Y-76671500I-625000J0D01*
G01*
X193042500Y-76671500D01*
G75*
G02*
X192417500Y-76046500I0J625000D01*
G01*
X192417500Y-74296500D01*
G75*
G02*
X193042500Y-73671500I625000J0D01*
G01*
G37*
G04 #@! TD.AperFunction*
G04 #@! TA.AperFunction,ComponentPad*
G36*
G01*
X187962500Y-82371500D02*
X189212500Y-82371500D01*
G75*
G02*
X189837500Y-82996500I0J-625000D01*
G01*
X189837500Y-84746500D01*
G75*
G02*
X189212500Y-85371500I-625000J0D01*
G01*
X187962500Y-85371500D01*
G75*
G02*
X187337500Y-84746500I0J625000D01*
G01*
X187337500Y-82996500D01*
G75*
G02*
X187962500Y-82371500I625000J0D01*
G01*
G37*
G04 #@! TD.AperFunction*
G04 #@! TA.AperFunction,ComponentPad*
G36*
G01*
X187962500Y-73671500D02*
X189212500Y-73671500D01*
G75*
G02*
X189837500Y-74296500I0J-625000D01*
G01*
X189837500Y-76046500D01*
G75*
G02*
X189212500Y-76671500I-625000J0D01*
G01*
X187962500Y-76671500D01*
G75*
G02*
X187337500Y-76046500I0J625000D01*
G01*
X187337500Y-74296500D01*
G75*
G02*
X187962500Y-73671500I625000J0D01*
G01*
G37*
G04 #@! TD.AperFunction*
G04 #@! TA.AperFunction,ComponentPad*
G36*
G01*
X121231500Y-82383500D02*
X122481500Y-82383500D01*
G75*
G02*
X123106500Y-83008500I0J-625000D01*
G01*
X123106500Y-84758500D01*
G75*
G02*
X122481500Y-85383500I-625000J0D01*
G01*
X121231500Y-85383500D01*
G75*
G02*
X120606500Y-84758500I0J625000D01*
G01*
X120606500Y-83008500D01*
G75*
G02*
X121231500Y-82383500I625000J0D01*
G01*
G37*
G04 #@! TD.AperFunction*
G04 #@! TA.AperFunction,ComponentPad*
G36*
G01*
X121231500Y-73683500D02*
X122481500Y-73683500D01*
G75*
G02*
X123106500Y-74308500I0J-625000D01*
G01*
X123106500Y-76058500D01*
G75*
G02*
X122481500Y-76683500I-625000J0D01*
G01*
X121231500Y-76683500D01*
G75*
G02*
X120606500Y-76058500I0J625000D01*
G01*
X120606500Y-74308500D01*
G75*
G02*
X121231500Y-73683500I625000J0D01*
G01*
G37*
G04 #@! TD.AperFunction*
G04 #@! TA.AperFunction,ComponentPad*
G36*
G01*
X116151500Y-82383500D02*
X117401500Y-82383500D01*
G75*
G02*
X118026500Y-83008500I0J-625000D01*
G01*
X118026500Y-84758500D01*
G75*
G02*
X117401500Y-85383500I-625000J0D01*
G01*
X116151500Y-85383500D01*
G75*
G02*
X115526500Y-84758500I0J625000D01*
G01*
X115526500Y-83008500D01*
G75*
G02*
X116151500Y-82383500I625000J0D01*
G01*
G37*
G04 #@! TD.AperFunction*
G04 #@! TA.AperFunction,ComponentPad*
G36*
G01*
X116151500Y-73683500D02*
X117401500Y-73683500D01*
G75*
G02*
X118026500Y-74308500I0J-625000D01*
G01*
X118026500Y-76058500D01*
G75*
G02*
X117401500Y-76683500I-625000J0D01*
G01*
X116151500Y-76683500D01*
G75*
G02*
X115526500Y-76058500I0J625000D01*
G01*
X115526500Y-74308500D01*
G75*
G02*
X116151500Y-73683500I625000J0D01*
G01*
G37*
G04 #@! TD.AperFunction*
G04 #@! TA.AperFunction,ComponentPad*
G36*
G01*
X111071500Y-82383500D02*
X112321500Y-82383500D01*
G75*
G02*
X112946500Y-83008500I0J-625000D01*
G01*
X112946500Y-84758500D01*
G75*
G02*
X112321500Y-85383500I-625000J0D01*
G01*
X111071500Y-85383500D01*
G75*
G02*
X110446500Y-84758500I0J625000D01*
G01*
X110446500Y-83008500D01*
G75*
G02*
X111071500Y-82383500I625000J0D01*
G01*
G37*
G04 #@! TD.AperFunction*
G04 #@! TA.AperFunction,ComponentPad*
G36*
G01*
X111071500Y-73683500D02*
X112321500Y-73683500D01*
G75*
G02*
X112946500Y-74308500I0J-625000D01*
G01*
X112946500Y-76058500D01*
G75*
G02*
X112321500Y-76683500I-625000J0D01*
G01*
X111071500Y-76683500D01*
G75*
G02*
X110446500Y-76058500I0J625000D01*
G01*
X110446500Y-74308500D01*
G75*
G02*
X111071500Y-73683500I625000J0D01*
G01*
G37*
G04 #@! TD.AperFunction*
G04 #@! TA.AperFunction,ComponentPad*
G36*
G01*
X105991500Y-82383500D02*
X107241500Y-82383500D01*
G75*
G02*
X107866500Y-83008500I0J-625000D01*
G01*
X107866500Y-84758500D01*
G75*
G02*
X107241500Y-85383500I-625000J0D01*
G01*
X105991500Y-85383500D01*
G75*
G02*
X105366500Y-84758500I0J625000D01*
G01*
X105366500Y-83008500D01*
G75*
G02*
X105991500Y-82383500I625000J0D01*
G01*
G37*
G04 #@! TD.AperFunction*
G04 #@! TA.AperFunction,ComponentPad*
G36*
G01*
X105991500Y-73683500D02*
X107241500Y-73683500D01*
G75*
G02*
X107866500Y-74308500I0J-625000D01*
G01*
X107866500Y-76058500D01*
G75*
G02*
X107241500Y-76683500I-625000J0D01*
G01*
X105991500Y-76683500D01*
G75*
G02*
X105366500Y-76058500I0J625000D01*
G01*
X105366500Y-74308500D01*
G75*
G02*
X105991500Y-73683500I625000J0D01*
G01*
G37*
G04 #@! TD.AperFunction*
G04 #@! TA.AperFunction,ComponentPad*
G36*
G01*
X169491500Y-82383500D02*
X170741500Y-82383500D01*
G75*
G02*
X171366500Y-83008500I0J-625000D01*
G01*
X171366500Y-84758500D01*
G75*
G02*
X170741500Y-85383500I-625000J0D01*
G01*
X169491500Y-85383500D01*
G75*
G02*
X168866500Y-84758500I0J625000D01*
G01*
X168866500Y-83008500D01*
G75*
G02*
X169491500Y-82383500I625000J0D01*
G01*
G37*
G04 #@! TD.AperFunction*
G04 #@! TA.AperFunction,ComponentPad*
G36*
G01*
X169491500Y-73683500D02*
X170741500Y-73683500D01*
G75*
G02*
X171366500Y-74308500I0J-625000D01*
G01*
X171366500Y-76058500D01*
G75*
G02*
X170741500Y-76683500I-625000J0D01*
G01*
X169491500Y-76683500D01*
G75*
G02*
X168866500Y-76058500I0J625000D01*
G01*
X168866500Y-74308500D01*
G75*
G02*
X169491500Y-73683500I625000J0D01*
G01*
G37*
G04 #@! TD.AperFunction*
G04 #@! TA.AperFunction,ComponentPad*
G36*
G01*
X164411500Y-82383500D02*
X165661500Y-82383500D01*
G75*
G02*
X166286500Y-83008500I0J-625000D01*
G01*
X166286500Y-84758500D01*
G75*
G02*
X165661500Y-85383500I-625000J0D01*
G01*
X164411500Y-85383500D01*
G75*
G02*
X163786500Y-84758500I0J625000D01*
G01*
X163786500Y-83008500D01*
G75*
G02*
X164411500Y-82383500I625000J0D01*
G01*
G37*
G04 #@! TD.AperFunction*
G04 #@! TA.AperFunction,ComponentPad*
G36*
G01*
X164411500Y-73683500D02*
X165661500Y-73683500D01*
G75*
G02*
X166286500Y-74308500I0J-625000D01*
G01*
X166286500Y-76058500D01*
G75*
G02*
X165661500Y-76683500I-625000J0D01*
G01*
X164411500Y-76683500D01*
G75*
G02*
X163786500Y-76058500I0J625000D01*
G01*
X163786500Y-74308500D01*
G75*
G02*
X164411500Y-73683500I625000J0D01*
G01*
G37*
G04 #@! TD.AperFunction*
G04 #@! TA.AperFunction,ComponentPad*
G36*
G01*
X159331500Y-82383500D02*
X160581500Y-82383500D01*
G75*
G02*
X161206500Y-83008500I0J-625000D01*
G01*
X161206500Y-84758500D01*
G75*
G02*
X160581500Y-85383500I-625000J0D01*
G01*
X159331500Y-85383500D01*
G75*
G02*
X158706500Y-84758500I0J625000D01*
G01*
X158706500Y-83008500D01*
G75*
G02*
X159331500Y-82383500I625000J0D01*
G01*
G37*
G04 #@! TD.AperFunction*
G04 #@! TA.AperFunction,ComponentPad*
G36*
G01*
X159331500Y-73683500D02*
X160581500Y-73683500D01*
G75*
G02*
X161206500Y-74308500I0J-625000D01*
G01*
X161206500Y-76058500D01*
G75*
G02*
X160581500Y-76683500I-625000J0D01*
G01*
X159331500Y-76683500D01*
G75*
G02*
X158706500Y-76058500I0J625000D01*
G01*
X158706500Y-74308500D01*
G75*
G02*
X159331500Y-73683500I625000J0D01*
G01*
G37*
G04 #@! TD.AperFunction*
G04 #@! TA.AperFunction,ComponentPad*
G36*
G01*
X154251500Y-82383500D02*
X155501500Y-82383500D01*
G75*
G02*
X156126500Y-83008500I0J-625000D01*
G01*
X156126500Y-84758500D01*
G75*
G02*
X155501500Y-85383500I-625000J0D01*
G01*
X154251500Y-85383500D01*
G75*
G02*
X153626500Y-84758500I0J625000D01*
G01*
X153626500Y-83008500D01*
G75*
G02*
X154251500Y-82383500I625000J0D01*
G01*
G37*
G04 #@! TD.AperFunction*
G04 #@! TA.AperFunction,ComponentPad*
G36*
G01*
X154251500Y-73683500D02*
X155501500Y-73683500D01*
G75*
G02*
X156126500Y-74308500I0J-625000D01*
G01*
X156126500Y-76058500D01*
G75*
G02*
X155501500Y-76683500I-625000J0D01*
G01*
X154251500Y-76683500D01*
G75*
G02*
X153626500Y-76058500I0J625000D01*
G01*
X153626500Y-74308500D01*
G75*
G02*
X154251500Y-73683500I625000J0D01*
G01*
G37*
G04 #@! TD.AperFunction*
D13*
X132372100Y-122214640D03*
D14*
X134912100Y-122214640D03*
D17*
X181800500Y-105473500D03*
D18*
X136690100Y-138188700D03*
D19*
X136690100Y-135688700D03*
D18*
X123507500Y-137920100D03*
D19*
X123507500Y-135420100D03*
D20*
X113916500Y-94673500D03*
X106416500Y-93040170D03*
D17*
X129171700Y-77152500D03*
D21*
X161734500Y-108013500D03*
D22*
X161734500Y-97853500D03*
X161734500Y-90233500D03*
X154114500Y-92773500D03*
X154114500Y-108013500D03*
D23*
X157670500Y-123514500D03*
X157670500Y-121014500D03*
X157670500Y-118514500D03*
G04 #@! TA.AperFunction,ComponentPad*
G36*
G01*
X156945500Y-115164500D02*
X158395500Y-115164500D01*
G75*
G02*
X158645500Y-115414500I0J-250000D01*
G01*
X158645500Y-116614500D01*
G75*
G02*
X158395500Y-116864500I-250000J0D01*
G01*
X156945500Y-116864500D01*
G75*
G02*
X156695500Y-116614500I0J250000D01*
G01*
X156695500Y-115414500D01*
G75*
G02*
X156945500Y-115164500I250000J0D01*
G01*
G37*
G04 #@! TD.AperFunction*
X171372500Y-130683500D03*
X171372500Y-133183500D03*
X171372500Y-135683500D03*
X171372500Y-138183500D03*
G04 #@! TA.AperFunction,ComponentPad*
G36*
G01*
X172097500Y-141533500D02*
X170647500Y-141533500D01*
G75*
G02*
X170397500Y-141283500I0J250000D01*
G01*
X170397500Y-140083500D01*
G75*
G02*
X170647500Y-139833500I250000J0D01*
G01*
X172097500Y-139833500D01*
G75*
G02*
X172347500Y-140083500I0J-250000D01*
G01*
X172347500Y-141283500D01*
G75*
G02*
X172097500Y-141533500I-250000J0D01*
G01*
G37*
G04 #@! TD.AperFunction*
D24*
X181786500Y-117903500D03*
D25*
X174166500Y-125523500D03*
X179246500Y-117903500D03*
X176706500Y-125523500D03*
X176706500Y-117903500D03*
X179246500Y-125523500D03*
X174166500Y-117903500D03*
X181786500Y-125523500D03*
D24*
X204900500Y-117903500D03*
D25*
X197280500Y-125523500D03*
X202360500Y-117903500D03*
X199820500Y-125523500D03*
X199820500Y-117903500D03*
X202360500Y-125523500D03*
X197280500Y-117903500D03*
X204900500Y-125523500D03*
D24*
X193470500Y-117903500D03*
D25*
X185850500Y-125523500D03*
X190930500Y-117903500D03*
X188390500Y-125523500D03*
X188390500Y-117903500D03*
X190930500Y-125523500D03*
X185850500Y-117903500D03*
X193470500Y-125523500D03*
D24*
X170356500Y-117903500D03*
D25*
X162736500Y-125523500D03*
X167816500Y-117903500D03*
X165276500Y-125523500D03*
X165276500Y-117903500D03*
X167816500Y-125523500D03*
X162736500Y-117903500D03*
X170356500Y-125523500D03*
D26*
X131279900Y-132778500D03*
X131279900Y-135318500D03*
D27*
X131279900Y-137858500D03*
D23*
X157656500Y-140603500D03*
X157656500Y-138103500D03*
X157656500Y-135603500D03*
X157656500Y-133103500D03*
G04 #@! TA.AperFunction,ComponentPad*
G36*
G01*
X156931500Y-129753500D02*
X158381500Y-129753500D01*
G75*
G02*
X158631500Y-130003500I0J-250000D01*
G01*
X158631500Y-131203500D01*
G75*
G02*
X158381500Y-131453500I-250000J0D01*
G01*
X156931500Y-131453500D01*
G75*
G02*
X156681500Y-131203500I0J250000D01*
G01*
X156681500Y-130003500D01*
G75*
G02*
X156931500Y-129753500I250000J0D01*
G01*
G37*
G04 #@! TD.AperFunction*
X184912000Y-130683000D03*
X184912000Y-133183000D03*
X184912000Y-135683000D03*
G04 #@! TA.AperFunction,ComponentPad*
G36*
G01*
X185637000Y-139033000D02*
X184187000Y-139033000D01*
G75*
G02*
X183937000Y-138783000I0J250000D01*
G01*
X183937000Y-137583000D01*
G75*
G02*
X184187000Y-137333000I250000J0D01*
G01*
X185637000Y-137333000D01*
G75*
G02*
X185887000Y-137583000I0J-250000D01*
G01*
X185887000Y-138783000D01*
G75*
G02*
X185637000Y-139033000I-250000J0D01*
G01*
G37*
G04 #@! TD.AperFunction*
D28*
X133299200Y-114355880D03*
G04 #@! TA.AperFunction,ComponentPad*
G36*
G01*
X134049200Y-117705880D02*
X132549200Y-117705880D01*
G75*
G02*
X132299200Y-117455880I0J250000D01*
G01*
X132299200Y-116255880D01*
G75*
G02*
X132549200Y-116005880I250000J0D01*
G01*
X134049200Y-116005880D01*
G75*
G02*
X134299200Y-116255880I0J-250000D01*
G01*
X134299200Y-117455880D01*
G75*
G02*
X134049200Y-117705880I-250000J0D01*
G01*
G37*
G04 #@! TD.AperFunction*
D29*
X124076500Y-108568500D03*
X124076500Y-118568500D03*
X104076500Y-123568500D03*
D30*
X104076500Y-103568500D03*
D17*
X204304900Y-139661900D03*
X104711500Y-134683500D03*
X112585500Y-134810500D03*
X181546500Y-70548500D03*
D12*
X121856500Y-94678500D03*
X121856500Y-89598500D03*
D21*
X137731500Y-108013500D03*
D22*
X137731500Y-97853500D03*
X137731500Y-90233500D03*
X130111500Y-92773500D03*
X130111500Y-108013500D03*
D21*
X149796500Y-108013500D03*
D22*
X149796500Y-97853500D03*
X149796500Y-90233500D03*
X142176500Y-92773500D03*
X142176500Y-108013500D03*
D21*
X173291500Y-108013500D03*
D22*
X173291500Y-97853500D03*
X173291500Y-90233500D03*
X165671500Y-92773500D03*
X165671500Y-108013500D03*
D31*
X152781000Y-124206000D03*
X152781000Y-120396000D03*
X152781000Y-116395500D03*
D32*
X125031500Y-97853500D02*
X121856500Y-94678500D01*
X137731500Y-97853500D02*
X125031500Y-97853500D01*
X137731500Y-97853500D02*
X149796500Y-97853500D01*
X149796500Y-97853500D02*
X161734500Y-97853500D01*
X161734500Y-97853500D02*
X173291500Y-97853500D01*
X104076500Y-115834692D02*
X104076500Y-123568500D01*
X113916500Y-105994692D02*
X104076500Y-115834692D01*
X113916500Y-94673500D02*
X113916500Y-105994692D01*
X121856500Y-94678500D02*
X113921500Y-94678500D01*
X113921500Y-94678500D02*
X113916500Y-94673500D01*
D33*
X163186499Y-106163499D02*
X155456501Y-106163499D01*
X165036500Y-108013500D02*
X163186499Y-106163499D01*
X151756499Y-106163499D02*
X144026501Y-106163499D01*
X153606500Y-108013500D02*
X151756499Y-106163499D01*
X153606500Y-106743500D02*
X154186501Y-106163499D01*
X154186501Y-106163499D02*
X155456501Y-106163499D01*
X153606500Y-108013500D02*
X153606500Y-106743500D01*
X151756499Y-106163499D02*
X153026499Y-106163499D01*
X153606500Y-106743500D02*
X153026499Y-106163499D01*
X153026499Y-106163499D02*
X154186501Y-106163499D01*
X153606500Y-108013500D02*
X154876500Y-106743500D01*
X155456501Y-106163499D02*
X154876500Y-106743500D01*
X142176500Y-106743500D02*
X141596499Y-106163499D01*
X140326499Y-106163499D02*
X141596499Y-106163499D01*
X142176500Y-106743500D02*
X142756501Y-106163499D01*
X141596499Y-106163499D02*
X142756501Y-106163499D01*
X142176500Y-108013500D02*
X142176500Y-106743500D01*
X142756501Y-106163499D02*
X144026501Y-106163499D01*
X152264499Y-106163499D02*
X154114500Y-108013500D01*
X144026501Y-106163499D02*
X152264499Y-106163499D01*
X142176500Y-108013500D02*
X144026501Y-106163499D01*
X163821499Y-106163499D02*
X165671500Y-108013500D01*
X155964501Y-106163499D02*
X163821499Y-106163499D01*
X154114500Y-108013500D02*
X155964501Y-106163499D01*
X140326499Y-106163499D02*
X142176500Y-108013500D01*
X131961501Y-106163499D02*
X140326499Y-106163499D01*
X130111500Y-108013500D02*
X131961501Y-106163499D01*
X130111500Y-111168180D02*
X133299200Y-114355880D01*
X130111500Y-108013500D02*
X130111500Y-111168180D01*
X134999210Y-122127530D02*
X134912100Y-122214640D01*
X134999210Y-115862370D02*
X134999210Y-122127530D01*
X133492720Y-114355880D02*
X134999210Y-115862370D01*
X133299200Y-114355880D02*
X133492720Y-114355880D01*
X134895700Y-127689500D02*
X134912100Y-127673100D01*
X134912100Y-122214640D02*
X134912100Y-127673100D01*
X134912100Y-129146300D02*
X131279900Y-132778500D01*
X134912100Y-122214640D02*
X134912100Y-129146300D01*
X126149100Y-132778500D02*
X123507500Y-135420100D01*
X131279900Y-132778500D02*
X126149100Y-132778500D01*
X118969900Y-135420100D02*
X118766700Y-135623300D01*
X123507500Y-135420100D02*
X118969900Y-135420100D01*
X139636500Y-114363500D02*
X139636500Y-113093500D01*
X142176500Y-110553500D02*
X142176500Y-108013500D01*
X139636500Y-113093500D02*
X142176500Y-110553500D01*
X195370510Y-123623490D02*
X193470500Y-125523500D01*
X203000490Y-123623490D02*
X195370510Y-123623490D01*
X172256510Y-123623490D02*
X170356500Y-125523500D01*
X179867824Y-123623490D02*
X172256510Y-123623490D01*
X181767834Y-125523500D02*
X179867824Y-123623490D01*
X181786500Y-125523500D02*
X181767834Y-125523500D01*
X191570490Y-123623490D02*
X183686510Y-123623490D01*
X183686510Y-123623490D02*
X181786500Y-125523500D01*
X193470500Y-125523500D02*
X191570490Y-123623490D01*
X160601510Y-125137156D02*
X160601510Y-138928490D01*
X162115176Y-123623490D02*
X160601510Y-125137156D01*
X168456490Y-123623490D02*
X162115176Y-123623490D01*
X170356500Y-125523500D02*
X168456490Y-123623490D01*
X203000490Y-123623490D02*
X204900500Y-125523500D01*
X170356500Y-124263480D02*
X169716510Y-123623490D01*
X170356500Y-125523500D02*
X170356500Y-124263480D01*
X168456490Y-123623490D02*
X169716510Y-123623490D01*
X170356500Y-124253500D02*
X170986510Y-123623490D01*
X170356500Y-125523500D02*
X170356500Y-124253500D01*
X169716510Y-123623490D02*
X170986510Y-123623490D01*
X181786500Y-124263480D02*
X181146510Y-123623490D01*
X170986510Y-123623490D02*
X181146510Y-123623490D01*
X181786500Y-124263480D02*
X182426490Y-123623490D01*
X181786500Y-125523500D02*
X181786500Y-124263480D01*
X181146510Y-123623490D02*
X182426490Y-123623490D01*
X193470500Y-124507500D02*
X192586490Y-123623490D01*
X193470500Y-125523500D02*
X193470500Y-124507500D01*
X182426490Y-123623490D02*
X192586490Y-123623490D01*
X193470500Y-125269500D02*
X194486500Y-124253500D01*
X193470500Y-125269500D02*
X193470500Y-125523500D01*
X193470500Y-124009480D02*
X193856490Y-123623490D01*
X193470500Y-125523500D02*
X193470500Y-124009480D01*
X192586490Y-123623490D02*
X193856490Y-123623490D01*
X193856490Y-123623490D02*
X203000490Y-123623490D01*
X160601510Y-139578510D02*
X161626500Y-140603500D01*
X160601510Y-138928490D02*
X160601510Y-139578510D01*
X158926500Y-140603500D02*
X161626500Y-140603500D01*
X159576520Y-140603500D02*
X160601510Y-139578510D01*
X158926500Y-140603500D02*
X159576520Y-140603500D01*
X198060500Y-130857500D02*
X197933500Y-130730500D01*
X198060500Y-138223500D02*
X198060500Y-130857500D01*
X197933500Y-129986500D02*
X193470500Y-125523500D01*
X197933500Y-130730500D02*
X197933500Y-129986500D01*
X158926500Y-140603500D02*
X160601510Y-138928490D01*
X157656500Y-140603500D02*
X158926500Y-140603500D01*
X160601510Y-138958510D02*
X162246500Y-140603500D01*
X160601510Y-138928490D02*
X160601510Y-138958510D01*
X157656500Y-140603500D02*
X162246500Y-140603500D01*
X202383500Y-128040500D02*
X204900500Y-125523500D01*
X202383500Y-128524000D02*
X202383500Y-128040500D01*
X192405000Y-126589000D02*
X193470500Y-125523500D01*
X192405000Y-128460500D02*
X192405000Y-126589000D01*
X167356000Y-128524000D02*
X170356500Y-125523500D01*
X167322500Y-128524000D02*
X167356000Y-128524000D01*
X149491700Y-137264620D02*
X149491700Y-137071100D01*
X145998190Y-138771110D02*
X147985210Y-138771110D01*
X145695180Y-138468100D02*
X145998190Y-138771110D01*
X147985210Y-138771110D02*
X149491700Y-137264620D01*
X141973300Y-138468100D02*
X145695180Y-138468100D01*
X154124100Y-137071100D02*
X157656500Y-140603500D01*
X149491700Y-137071100D02*
X154124100Y-137071100D01*
X179705000Y-127605000D02*
X181786500Y-125523500D01*
X179705000Y-128460500D02*
X179705000Y-127605000D01*
X171292500Y-140603500D02*
X171372500Y-140683500D01*
X162246500Y-140603500D02*
X171292500Y-140603500D01*
D32*
X203827500Y-88907500D02*
X203771500Y-88963500D01*
X203827500Y-75171500D02*
X203827500Y-88907500D01*
X198691500Y-75227500D02*
X198747500Y-75171500D01*
X198691500Y-88963500D02*
X198691500Y-75227500D01*
X188531500Y-88963500D02*
X188531500Y-74993500D01*
X188587500Y-75049500D02*
X188587500Y-75171500D01*
X188531500Y-74993500D02*
X188587500Y-75049500D01*
X193667500Y-88907500D02*
X193611500Y-88963500D01*
X193667500Y-75171500D02*
X193667500Y-88907500D01*
X170116500Y-83883500D02*
X170116500Y-75183500D01*
X170116500Y-87058500D02*
X173291500Y-90233500D01*
X170116500Y-83883500D02*
X170116500Y-87058500D01*
X165036500Y-83883500D02*
X165036500Y-75183500D01*
X165036500Y-86931500D02*
X161734500Y-90233500D01*
X165036500Y-83883500D02*
X165036500Y-86931500D01*
X159956500Y-83883500D02*
X159956500Y-75183500D01*
X159956500Y-85368424D02*
X156001425Y-89323499D01*
X156001425Y-89323499D02*
X150706501Y-89323499D01*
X159956500Y-83883500D02*
X159956500Y-85368424D01*
X150706501Y-89323499D02*
X149796500Y-90233500D01*
X154876500Y-83883500D02*
X154876500Y-75183500D01*
X154876500Y-83883500D02*
X144081500Y-83883500D01*
X144081500Y-83883500D02*
X137731500Y-90233500D01*
D33*
X165099000Y-117726000D02*
X165276500Y-117903500D01*
X165099000Y-114363500D02*
X165099000Y-117726000D01*
X168211500Y-117508500D02*
X167816500Y-117903500D01*
X167816500Y-114896000D02*
X168349000Y-114363500D01*
X167816500Y-117903500D02*
X167816500Y-114896000D01*
X176706500Y-114741000D02*
X176329000Y-114363500D01*
X176706500Y-117903500D02*
X176706500Y-114741000D01*
X179246500Y-114696000D02*
X179579000Y-114363500D01*
X179246500Y-117903500D02*
X179246500Y-114696000D01*
X188390500Y-114857500D02*
X187896500Y-114363500D01*
X188390500Y-117903500D02*
X188390500Y-114857500D01*
X190871500Y-117844500D02*
X190930500Y-117903500D01*
X190930500Y-114579500D02*
X191146500Y-114363500D01*
X190930500Y-117903500D02*
X190930500Y-114579500D01*
X199820500Y-114995000D02*
X199189000Y-114363500D01*
X199820500Y-117903500D02*
X199820500Y-114995000D01*
X202360500Y-114442000D02*
X202439000Y-114363500D01*
X202360500Y-117903500D02*
X202360500Y-114442000D01*
X200281000Y-128524000D02*
X200333500Y-128524000D01*
X197280500Y-125523500D02*
X200281000Y-128524000D01*
X188787500Y-128460500D02*
X185850500Y-125523500D01*
X190355000Y-128460500D02*
X188787500Y-128460500D01*
X165272500Y-128059500D02*
X162736500Y-125523500D01*
X165272500Y-128524000D02*
X165272500Y-128059500D01*
X123268100Y-137680700D02*
X123507500Y-137920100D01*
X118741300Y-137680700D02*
X123268100Y-137680700D01*
X131218300Y-137920100D02*
X131279900Y-137858500D01*
X123507500Y-137920100D02*
X131218300Y-137920100D01*
X131279900Y-137858500D02*
X136359900Y-137858500D01*
X177103500Y-128460500D02*
X177655000Y-128460500D01*
X174166500Y-125523500D02*
X177103500Y-128460500D01*
X138366500Y-108013500D02*
X137736490Y-108643510D01*
X137736490Y-115003490D02*
X139636500Y-116903500D01*
X137736490Y-108643510D02*
X137736490Y-115003490D01*
X149796500Y-108013500D02*
X147346529Y-110463471D01*
X139636500Y-119424834D02*
X141536510Y-117524824D01*
X144034549Y-110463471D02*
X147346529Y-110463471D01*
X141536510Y-117524824D02*
X141536510Y-112961510D01*
X139636500Y-119443500D02*
X139636500Y-119424834D01*
X141536510Y-112961510D02*
X144034549Y-110463471D01*
X142792055Y-113493945D02*
X144622521Y-111663479D01*
X158084521Y-111663479D02*
X159321500Y-110426500D01*
X139636500Y-121983500D02*
X142792055Y-118827945D01*
X144622521Y-111663479D02*
X158084521Y-111663479D01*
X161734500Y-108013500D02*
X159321500Y-110426500D01*
X142792055Y-118827945D02*
X142792055Y-113493945D01*
X171441499Y-109863501D02*
X161581569Y-109863501D01*
X158581581Y-112863489D02*
X145236511Y-112863489D01*
X145236511Y-112863489D02*
X143992065Y-114107935D01*
X143992065Y-114107935D02*
X143992065Y-120167935D01*
X143992065Y-120167935D02*
X139636500Y-124523500D01*
X173291500Y-108013500D02*
X171441499Y-109863501D01*
X161581569Y-109863501D02*
X158581581Y-112863489D01*
D32*
X121856500Y-83883500D02*
X121856500Y-86423500D01*
X121856500Y-89598500D02*
X121856500Y-83883500D01*
X121856500Y-83883500D02*
X121856500Y-75184510D01*
D33*
X192034700Y-130730500D02*
X192044100Y-130721100D01*
X179691000Y-130730500D02*
X192034700Y-130730500D01*
X192040800Y-133207000D02*
X192044100Y-133210300D01*
X179700000Y-133207000D02*
X192040800Y-133207000D01*
X191977300Y-135683500D02*
X192044100Y-135750300D01*
X179691000Y-135683500D02*
X191977300Y-135683500D01*
X192015400Y-138160000D02*
X192044100Y-138188700D01*
X179700000Y-138160000D02*
X192015400Y-138160000D01*
X149606000Y-115443000D02*
X148145500Y-116903500D01*
X148145500Y-116903500D02*
X147256500Y-116903500D01*
X149606000Y-119443500D02*
X147256500Y-119443500D01*
X149606000Y-123126500D02*
X148463000Y-121983500D01*
X148463000Y-121983500D02*
X147256500Y-121983500D01*
X149606000Y-123243500D02*
X149606000Y-123126500D01*
X149606000Y-125349000D02*
X148780500Y-124523500D01*
X148780500Y-124523500D02*
X147256500Y-124523500D01*
X149606000Y-126943500D02*
X149606000Y-125349000D01*
X177594000Y-130683500D02*
X177641000Y-130730500D01*
X171372500Y-130683500D02*
X177594000Y-130683500D01*
X177626500Y-133183500D02*
X177650000Y-133207000D01*
X171372500Y-133183500D02*
X177626500Y-133183500D01*
X171372500Y-135683500D02*
X177641000Y-135683500D01*
X177626500Y-138183500D02*
X177650000Y-138160000D01*
X171372500Y-138183500D02*
X177626500Y-138183500D01*
X195872100Y-138188700D02*
X194094100Y-138188700D01*
X195872100Y-135750300D02*
X194094100Y-135750300D01*
X194097400Y-133207000D02*
X194094100Y-133210300D01*
X195883500Y-133207000D02*
X194097400Y-133207000D01*
X195883500Y-130721100D02*
X194094100Y-130721100D01*
X155191500Y-125993500D02*
X151606000Y-125993500D01*
X157670500Y-123514500D02*
X155191500Y-125993500D01*
X156149000Y-114493000D02*
X151606000Y-114493000D01*
X157670500Y-116014500D02*
X156149000Y-114493000D01*
X116716700Y-137655300D02*
X116691300Y-137680700D01*
X116716700Y-135623300D02*
X116716700Y-137655300D01*
X128725960Y-118568500D02*
X132372100Y-122214640D01*
X124076500Y-118568500D02*
X128725960Y-118568500D01*
X177481452Y-109594000D02*
X170356500Y-116718952D01*
X170356500Y-116718952D02*
X170356500Y-117903500D01*
X188531500Y-109594000D02*
X177481452Y-109594000D01*
D32*
X188531500Y-105144000D02*
X188531500Y-103048500D01*
D33*
X181532500Y-117649500D02*
X181786500Y-117903500D01*
X193611500Y-109530500D02*
X191253510Y-111888490D01*
X182751510Y-111888490D02*
X181629010Y-113010990D01*
X191253510Y-111888490D02*
X182751510Y-111888490D01*
X181629010Y-117746010D02*
X181786500Y-117903500D01*
X181629010Y-113010990D02*
X181629010Y-117746010D01*
D32*
X193611500Y-103048500D02*
X193611500Y-105080500D01*
D33*
X193881500Y-117903500D02*
X196786500Y-114998500D01*
X193470500Y-117903500D02*
X193881500Y-117903500D01*
X196786500Y-111435500D02*
X198691500Y-109530500D01*
X196786500Y-114998500D02*
X196786500Y-111435500D01*
D34*
X198747500Y-103048500D02*
X199382500Y-103048500D01*
D32*
X198691500Y-105080500D02*
X198691500Y-103048500D01*
D33*
X204900500Y-117073638D02*
X204900500Y-117903500D01*
X204900500Y-110659500D02*
X204900500Y-117903500D01*
X203771500Y-109530500D02*
X204900500Y-110659500D01*
D32*
X203771500Y-103048500D02*
X203771500Y-105080500D01*
D33*
X157656500Y-137920545D02*
X157656500Y-138103500D01*
X151606000Y-131870045D02*
X157656500Y-137920545D01*
X151606000Y-127893500D02*
X151606000Y-131870045D01*
X151606000Y-124193500D02*
X152768500Y-124193500D01*
X152768500Y-124193500D02*
X152781000Y-124206000D01*
X151606000Y-120393500D02*
X152778500Y-120393500D01*
X152778500Y-120393500D02*
X152781000Y-120396000D01*
X151606000Y-116393000D02*
X152778500Y-116393000D01*
X152778500Y-116393000D02*
X152781000Y-116395500D01*
X151627000Y-118514500D02*
X151606000Y-118493500D01*
X157670500Y-118514500D02*
X151627000Y-118514500D01*
X156391500Y-122293500D02*
X151606000Y-122293500D01*
X157670500Y-121014500D02*
X156391500Y-122293500D01*
X136319900Y-135318500D02*
X136690100Y-135688700D01*
X131279900Y-135318500D02*
X136319900Y-135318500D01*
X141733900Y-135688700D02*
X141973300Y-135928100D01*
X136690100Y-135688700D02*
X141733900Y-135688700D01*
D32*
X203771500Y-94938500D02*
X203771500Y-97073500D01*
X188531500Y-97073500D02*
X188531500Y-94938500D01*
X198691500Y-97073500D02*
X198691500Y-94938500D01*
X193611500Y-94938500D02*
X193611500Y-97073500D01*
M02*
