G04 #@! TF.GenerationSoftware,KiCad,Pcbnew,(6.0.0)*
G04 #@! TF.CreationDate,2022-02-24T16:51:53+01:00*
G04 #@! TF.ProjectId,hamodule,68616d6f-6475-46c6-952e-6b696361645f,rev?*
G04 #@! TF.SameCoordinates,Original*
G04 #@! TF.FileFunction,Paste,Top*
G04 #@! TF.FilePolarity,Positive*
%FSLAX46Y46*%
G04 Gerber Fmt 4.6, Leading zero omitted, Abs format (unit mm)*
G04 Created by KiCad (PCBNEW (6.0.0)) date 2022-02-24 16:51:53*
%MOMM*%
%LPD*%
G01*
G04 APERTURE LIST*
G04 Aperture macros list*
%AMRoundRect*
0 Rectangle with rounded corners*
0 $1 Rounding radius*
0 $2 $3 $4 $5 $6 $7 $8 $9 X,Y pos of 4 corners*
0 Add a 4 corners polygon primitive as box body*
4,1,4,$2,$3,$4,$5,$6,$7,$8,$9,$2,$3,0*
0 Add four circle primitives for the rounded corners*
1,1,$1+$1,$2,$3*
1,1,$1+$1,$4,$5*
1,1,$1+$1,$6,$7*
1,1,$1+$1,$8,$9*
0 Add four rect primitives between the rounded corners*
20,1,$1+$1,$2,$3,$4,$5,0*
20,1,$1+$1,$4,$5,$6,$7,0*
20,1,$1+$1,$6,$7,$8,$9,0*
20,1,$1+$1,$8,$9,$2,$3,0*%
G04 Aperture macros list end*
%ADD10RoundRect,0.250000X-0.412500X-0.650000X0.412500X-0.650000X0.412500X0.650000X-0.412500X0.650000X0*%
%ADD11RoundRect,0.249999X-1.425001X0.450001X-1.425001X-0.450001X1.425001X-0.450001X1.425001X0.450001X0*%
%ADD12RoundRect,0.250000X0.450000X-0.325000X0.450000X0.325000X-0.450000X0.325000X-0.450000X-0.325000X0*%
%ADD13RoundRect,0.250000X0.450000X-0.350000X0.450000X0.350000X-0.450000X0.350000X-0.450000X-0.350000X0*%
%ADD14RoundRect,0.237500X-0.237500X0.300000X-0.237500X-0.300000X0.237500X-0.300000X0.237500X0.300000X0*%
%ADD15RoundRect,0.237500X0.237500X-0.300000X0.237500X0.300000X-0.237500X0.300000X-0.237500X-0.300000X0*%
%ADD16RoundRect,0.150000X0.150000X-0.825000X0.150000X0.825000X-0.150000X0.825000X-0.150000X-0.825000X0*%
%ADD17RoundRect,0.237500X-0.300000X-0.237500X0.300000X-0.237500X0.300000X0.237500X-0.300000X0.237500X0*%
%ADD18RoundRect,0.237500X0.300000X0.237500X-0.300000X0.237500X-0.300000X-0.237500X0.300000X-0.237500X0*%
%ADD19RoundRect,0.250000X0.412500X0.650000X-0.412500X0.650000X-0.412500X-0.650000X0.412500X-0.650000X0*%
%ADD20RoundRect,0.237500X-0.250000X-0.237500X0.250000X-0.237500X0.250000X0.237500X-0.250000X0.237500X0*%
%ADD21RoundRect,0.150000X-0.150000X0.587500X-0.150000X-0.587500X0.150000X-0.587500X0.150000X0.587500X0*%
%ADD22RoundRect,0.237500X0.250000X0.237500X-0.250000X0.237500X-0.250000X-0.237500X0.250000X-0.237500X0*%
%ADD23R,0.600000X0.700000*%
%ADD24R,1.100000X1.800000*%
%ADD25RoundRect,0.237500X-0.237500X0.250000X-0.237500X-0.250000X0.237500X-0.250000X0.237500X0.250000X0*%
%ADD26R,0.450000X0.600000*%
%ADD27R,0.900000X2.000000*%
%ADD28R,2.000000X0.900000*%
%ADD29R,5.000000X5.000000*%
%ADD30RoundRect,0.150000X0.587500X0.150000X-0.587500X0.150000X-0.587500X-0.150000X0.587500X-0.150000X0*%
%ADD31RoundRect,0.250000X0.400000X0.625000X-0.400000X0.625000X-0.400000X-0.625000X0.400000X-0.625000X0*%
%ADD32RoundRect,0.250000X0.350000X0.450000X-0.350000X0.450000X-0.350000X-0.450000X0.350000X-0.450000X0*%
%ADD33RoundRect,0.225000X0.225000X-0.225000X0.225000X0.225000X-0.225000X0.225000X-0.225000X-0.225000X0*%
%ADD34RoundRect,0.062500X0.062500X-0.337500X0.062500X0.337500X-0.062500X0.337500X-0.062500X-0.337500X0*%
%ADD35RoundRect,0.062500X0.337500X-0.062500X0.337500X0.062500X-0.337500X0.062500X-0.337500X-0.062500X0*%
%ADD36RoundRect,0.250000X-0.450000X0.350000X-0.450000X-0.350000X0.450000X-0.350000X0.450000X0.350000X0*%
%ADD37RoundRect,0.249999X-0.450001X-1.425001X0.450001X-1.425001X0.450001X1.425001X-0.450001X1.425001X0*%
G04 APERTURE END LIST*
D10*
X180097900Y-120103900D03*
X183222900Y-120103900D03*
D11*
X178142900Y-92316300D03*
X178142900Y-98416300D03*
X183070500Y-92316300D03*
X183070500Y-98416300D03*
X183070500Y-100444300D03*
X183070500Y-106544300D03*
X178142900Y-100444300D03*
X178142900Y-106544300D03*
D12*
X156654500Y-112331500D03*
X156654500Y-110281500D03*
D13*
X154114500Y-112315500D03*
X154114500Y-110315500D03*
D14*
X131762500Y-144752000D03*
X131762500Y-146477000D03*
D15*
X131762500Y-140381000D03*
X131762500Y-138656000D03*
D14*
X170116500Y-113002000D03*
X170116500Y-114727000D03*
D16*
X159321500Y-116076500D03*
X160591500Y-116076500D03*
X161861500Y-116076500D03*
X163131500Y-116076500D03*
X164401500Y-116076500D03*
X165671500Y-116076500D03*
X166941500Y-116076500D03*
X168211500Y-116076500D03*
X168211500Y-111126500D03*
X166941500Y-111126500D03*
X165671500Y-111126500D03*
X164401500Y-111126500D03*
X163131500Y-111126500D03*
X161861500Y-111126500D03*
X160591500Y-111126500D03*
X159321500Y-111126500D03*
D17*
X180022500Y-122085100D03*
X181747500Y-122085100D03*
D18*
X186725900Y-122085100D03*
X185000900Y-122085100D03*
D19*
X188239800Y-120103900D03*
X185114800Y-120103900D03*
D10*
X190182500Y-120103900D03*
X193307500Y-120103900D03*
D11*
X193128900Y-100393500D03*
X193128900Y-106493500D03*
X188099700Y-92265500D03*
X188099700Y-98365500D03*
X193128900Y-92261500D03*
X193128900Y-98361500D03*
X188099700Y-100393500D03*
X188099700Y-106493500D03*
D18*
X178295300Y-122085100D03*
X176570300Y-122085100D03*
D17*
X190080900Y-122085100D03*
X191805900Y-122085100D03*
D20*
X189256000Y-125412500D03*
X191081000Y-125412500D03*
D17*
X192659000Y-125412500D03*
X194384000Y-125412500D03*
D18*
X191018500Y-126936500D03*
X189293500Y-126936500D03*
D21*
X166687500Y-130428000D03*
X164787500Y-130428000D03*
X165737500Y-132303000D03*
D20*
X162918800Y-128638300D03*
X164743800Y-128638300D03*
D22*
X164741200Y-127088900D03*
X162916200Y-127088900D03*
D23*
X158033000Y-143918900D03*
X156633000Y-143918900D03*
D24*
X168846500Y-125740300D03*
X168846500Y-131940300D03*
X172546500Y-131940300D03*
X172546500Y-125740300D03*
X158885500Y-125868500D03*
X158885500Y-132068500D03*
X155185500Y-125868500D03*
X155185500Y-132068500D03*
D14*
X165024900Y-142096300D03*
X165024900Y-143821300D03*
D20*
X165115500Y-137428900D03*
X166940500Y-137428900D03*
D22*
X166940500Y-140476900D03*
X165115500Y-140476900D03*
D20*
X165115500Y-138952900D03*
X166940500Y-138952900D03*
D14*
X166624900Y-142102800D03*
X166624900Y-143827800D03*
D25*
X156456500Y-140571000D03*
X156456500Y-142396000D03*
D26*
X154916500Y-144081900D03*
X154916500Y-146181900D03*
D23*
X160633000Y-143918900D03*
X159233000Y-143918900D03*
X161943000Y-143918900D03*
X163343000Y-143918900D03*
D27*
X193865500Y-128986500D03*
X192595500Y-128986500D03*
X191325500Y-128986500D03*
X190055500Y-128986500D03*
X188785500Y-128986500D03*
X187515500Y-128986500D03*
X186245500Y-128986500D03*
X184975500Y-128986500D03*
X183705500Y-128986500D03*
X182435500Y-128986500D03*
X181165500Y-128986500D03*
X179895500Y-128986500D03*
X178625500Y-128986500D03*
X177355500Y-128986500D03*
D28*
X176355500Y-131771500D03*
X176355500Y-133041500D03*
X176355500Y-134311500D03*
X176355500Y-135581500D03*
X176355500Y-136851500D03*
X176355500Y-138121500D03*
X176355500Y-139391500D03*
X176355500Y-140661500D03*
X176355500Y-141931500D03*
X176355500Y-143201500D03*
D27*
X177355500Y-145986500D03*
X178625500Y-145986500D03*
X179895500Y-145986500D03*
X181165500Y-145986500D03*
X182435500Y-145986500D03*
X183705500Y-145986500D03*
X184975500Y-145986500D03*
X186245500Y-145986500D03*
X187515500Y-145986500D03*
X188785500Y-145986500D03*
X190055500Y-145986500D03*
X191325500Y-145986500D03*
X192595500Y-145986500D03*
X193865500Y-145986500D03*
D29*
X186365500Y-136486500D03*
D21*
X162811500Y-130460000D03*
X160911500Y-130460000D03*
X161861500Y-132335000D03*
D30*
X170596800Y-137091500D03*
X170596800Y-135191500D03*
X168721800Y-136141500D03*
D31*
X162829000Y-135593500D03*
X159729000Y-135593500D03*
D32*
X181578000Y-150304500D03*
X179578000Y-150304500D03*
X181578000Y-148272500D03*
X179578000Y-148272500D03*
D33*
X161033000Y-138838900D03*
X162153000Y-141078900D03*
X162153000Y-138838900D03*
X159913000Y-138838900D03*
X159913000Y-139958900D03*
X161033000Y-139958900D03*
X161033000Y-141078900D03*
X162153000Y-139958900D03*
X159913000Y-141078900D03*
D34*
X159533000Y-142408900D03*
X160033000Y-142408900D03*
X160533000Y-142408900D03*
X161033000Y-142408900D03*
X161533000Y-142408900D03*
X162033000Y-142408900D03*
X162533000Y-142408900D03*
D35*
X163483000Y-141458900D03*
X163483000Y-140958900D03*
X163483000Y-140458900D03*
X163483000Y-139958900D03*
X163483000Y-139458900D03*
X163483000Y-138958900D03*
X163483000Y-138458900D03*
D34*
X162533000Y-137508900D03*
X162033000Y-137508900D03*
X161533000Y-137508900D03*
X161033000Y-137508900D03*
X160533000Y-137508900D03*
X160033000Y-137508900D03*
X159533000Y-137508900D03*
D35*
X158583000Y-138458900D03*
X158583000Y-138958900D03*
X158583000Y-139458900D03*
X158583000Y-139958900D03*
X158583000Y-140458900D03*
X158583000Y-140958900D03*
X158583000Y-141458900D03*
D17*
X192648500Y-126936500D03*
X194373500Y-126936500D03*
D19*
X178168300Y-120103900D03*
X175043300Y-120103900D03*
D17*
X172480900Y-137093500D03*
X174205900Y-137093500D03*
X172507400Y-135191500D03*
X174232400Y-135191500D03*
D20*
X167424100Y-146824700D03*
X169249100Y-146824700D03*
X187413900Y-114795300D03*
X189238900Y-114795300D03*
X176241700Y-114795300D03*
X178066700Y-114795300D03*
D22*
X193607700Y-114795300D03*
X191782700Y-114795300D03*
D36*
X153856500Y-135153500D03*
X153856500Y-137153500D03*
D37*
X168338500Y-149567900D03*
X174438500Y-149567900D03*
D22*
X182435500Y-114795300D03*
X180610500Y-114795300D03*
D25*
X155155900Y-148733500D03*
X155155900Y-150558500D03*
M02*
