M48
; DRILL file {KiCad (6.0.0)} date Wed Feb  2 02:52:54 2022
; FORMAT={-:-/ absolute / metric / decimal}
; #@! TF.CreationDate,2022-02-02T02:52:54+01:00
; #@! TF.GenerationSoftware,Kicad,Pcbnew,(6.0.0)
; #@! TF.FileFunction,Plated,1,2,PTH
FMAT,2
METRIC
; #@! TA.AperFunction,Plated,PTH,ViaDrill
T1C0.400
; #@! TA.AperFunction,Plated,PTH,ComponentDrill
T2C0.400
; #@! TA.AperFunction,Plated,PTH,ComponentDrill
T3C0.600
; #@! TA.AperFunction,Plated,PTH,ComponentDrill
T4C0.800
; #@! TA.AperFunction,Plated,PTH,ComponentDrill
T5C0.900
; #@! TA.AperFunction,Plated,PTH,ComponentDrill
T6C0.950
; #@! TA.AperFunction,Plated,PTH,ComponentDrill
T7C1.000
; #@! TA.AperFunction,Plated,PTH,ComponentDrill
T8C1.100
; #@! TA.AperFunction,Plated,PTH,ComponentDrill
T9C1.295
; #@! TA.AperFunction,Plated,PTH,ComponentDrill
T10C2.200
; #@! TA.AperFunction,Plated,PTH,ComponentDrill
T11C3.200
%
G90
G05
T1
X153.708Y-125.895
X155.156Y-133.693
X156.117Y-138.023
X157.134Y-138.032
X159.837Y-141.122
X159.846Y-140.017
X159.855Y-138.9
X159.982Y-133.464
X159.985Y-130.442
X160.972Y-138.874
X160.972Y-139.992
X160.976Y-141.122
X161.867Y-133.523
X162.141Y-139.967
X162.156Y-141.192
X162.166Y-138.874
X164.071Y-143.919
X167.207Y-133.534
X167.45Y-146.774
X167.805Y-143.827
X168.745Y-134.074
X168.796Y-138.976
X169.634Y-143.904
X169.674Y-142.814
X169.71Y-139.001
X169.776Y-141.785
X172.885Y-133.54
X172.897Y-127.273
X173.325Y-138.263
X174.275Y-138.243
X174.494Y-131.772
X175.832Y-148.907
X175.832Y-149.974
X178.041Y-131.762
X179.159Y-131.762
X184.404Y-134.493
X184.404Y-135.509
X184.404Y-136.525
X184.404Y-137.605
X184.404Y-138.557
X185.356Y-134.493
X185.356Y-135.509
X185.356Y-136.525
X185.356Y-137.605
X185.356Y-138.557
X186.373Y-134.493
X186.373Y-135.509
X186.373Y-136.525
X186.373Y-137.605
X186.373Y-138.557
X187.388Y-134.493
X187.388Y-135.509
X187.388Y-136.525
X187.388Y-137.605
X187.388Y-138.557
X187.947Y-126.886
X188.404Y-134.493
X188.404Y-135.509
X188.404Y-136.525
X188.404Y-137.605
X188.404Y-138.557
X191.732Y-124.422
X192.672Y-124.432
X193.846Y-147.643
X193.856Y-144.344
X193.865Y-130.645
X193.865Y-131.686
X194.397Y-124.173
T2
X158.316Y-145.763
X158.316Y-147.113
X159.166Y-145.763
X159.166Y-147.113
X160.016Y-145.763
X160.016Y-147.113
X160.867Y-145.763
X160.867Y-147.113
X161.716Y-145.763
X161.716Y-147.113
X162.566Y-145.763
X162.566Y-147.113
X163.416Y-145.763
X163.416Y-147.113
X164.266Y-145.763
X164.266Y-147.113
T4
X132.644Y-99.014
X136.334Y-137.605
X136.334Y-140.105
X136.334Y-144.589
X136.334Y-147.089
X140.144Y-100.647
X154.106Y-139.633
X154.106Y-141.633
X178.498Y-111.061
X178.498Y-118.681
X180.911Y-125.222
X181.038Y-111.061
X181.038Y-118.681
X182.911Y-125.222
X183.578Y-111.061
X183.578Y-118.681
X184.911Y-125.222
X186.118Y-111.061
X186.118Y-118.681
X186.911Y-125.222
X188.278Y-148.844
X189.674Y-111.061
X189.674Y-118.681
X190.278Y-148.844
X192.214Y-111.061
X192.214Y-118.681
X194.754Y-111.061
X194.754Y-118.681
X197.294Y-111.061
X197.294Y-118.681
T5
X154.686Y-103.822
X154.686Y-106.362
X160.083Y-103.803
X160.083Y-106.343
X165.428Y-103.803
X165.428Y-106.343
X170.826Y-103.803
X170.826Y-106.343
T6
X160.076Y-120.332
X162.576Y-120.332
X165.076Y-120.332
X167.576Y-120.332
T7
X134.556Y-92.265
X139.636Y-92.265
X141.973Y-144.31
X141.973Y-146.85
X146.749Y-89.218
X146.749Y-94.297
X146.992Y-145.453
X147.002Y-138.493
X149.492Y-145.453
X149.502Y-138.493
X155.13Y-119.444
X155.13Y-121.983
T8
X129.222Y-140.525
X129.222Y-143.065
X129.222Y-145.606
X129.476Y-108.587
X129.476Y-128.588
X149.476Y-113.587
X149.476Y-123.587
X154.686Y-88.582
X154.686Y-96.203
X160.083Y-88.563
X160.083Y-96.183
X165.428Y-88.563
X165.428Y-96.183
X170.826Y-88.563
X170.826Y-96.183
T9
X141.749Y-70.858
X141.749Y-79.057
X146.749Y-70.858
X146.749Y-79.057
X155.117Y-70.858
X155.117Y-79.057
X160.117Y-70.858
X160.117Y-79.057
X165.117Y-70.858
X165.117Y-79.057
X170.117Y-70.858
X170.117Y-79.057
X179.387Y-70.858
X179.387Y-79.057
X184.387Y-70.858
X184.387Y-79.057
X189.387Y-70.858
X189.387Y-79.057
X194.387Y-70.858
X194.387Y-79.057
T10
X175.704Y-84.899
X199.174Y-103.289
T11
X132.256Y-76.504
X132.27Y-85.407
X198.564Y-85.407
T3
X156.966Y-145.993G85X156.966Y-147.493
G05
X156.966Y-149.724G85X156.966Y-150.523
G05
X165.617Y-145.993G85X165.617Y-147.493
G05
X165.617Y-149.724G85X165.617Y-150.523
G05
T0
M30
