M48
; DRILL file {KiCad (6.0.0)} date Thu Feb 24 16:52:07 2022
; FORMAT={-:-/ absolute / metric / decimal}
; #@! TF.CreationDate,2022-02-24T16:52:07+01:00
; #@! TF.GenerationSoftware,Kicad,Pcbnew,(6.0.0)
; #@! TF.FileFunction,Plated,1,2,PTH
FMAT,2
METRIC
; #@! TA.AperFunction,Plated,PTH,ViaDrill
T1C0.400
; #@! TA.AperFunction,Plated,PTH,ComponentDrill
T2C0.400
; #@! TA.AperFunction,Plated,PTH,ComponentDrill
T3C0.600
; #@! TA.AperFunction,Plated,PTH,ComponentDrill
T4C0.800
; #@! TA.AperFunction,Plated,PTH,ComponentDrill
T5C0.900
; #@! TA.AperFunction,Plated,PTH,ComponentDrill
T6C0.950
; #@! TA.AperFunction,Plated,PTH,ComponentDrill
T7C1.000
; #@! TA.AperFunction,Plated,PTH,ComponentDrill
T8C1.100
; #@! TA.AperFunction,Plated,PTH,ComponentDrill
T9C1.295
; #@! TA.AperFunction,Plated,PTH,ComponentDrill
T10C3.200
%
G90
G05
T1
X153.708Y-125.895
X153.861Y-150.533
X154.242Y-147.79
X155.156Y-133.693
X156.117Y-138.023
X157.134Y-138.032
X157.662Y-142.727
X159.837Y-141.122
X159.846Y-140.017
X159.855Y-138.9
X159.982Y-133.464
X159.985Y-130.442
X160.972Y-138.874
X160.972Y-139.992
X160.976Y-141.122
X161.867Y-133.523
X162.141Y-139.967
X162.156Y-141.192
X162.166Y-138.874
X164.071Y-143.919
X167.039Y-148.145
X167.207Y-133.534
X167.805Y-143.827
X168.796Y-138.976
X169.227Y-145.453
X169.634Y-143.904
X169.674Y-142.814
X169.71Y-139.001
X169.776Y-141.785
X170.574Y-136.106
X170.574Y-146.875
X171.183Y-130.442
X172.504Y-133.972
X174.18Y-126.657
X174.231Y-138.341
X174.494Y-131.772
X175.832Y-148.907
X175.832Y-149.974
X176.568Y-123.253
X178.244Y-134.277
X182.918Y-122.085
X183.172Y-134.887
X183.172Y-135.852
X183.172Y-136.766
X183.172Y-137.731
X183.172Y-138.646
X183.782Y-122.085
X184.34Y-139.713
X184.493Y-133.312
X185.407Y-139.713
X185.56Y-133.312
X186.373Y-139.713
X186.525Y-133.312
X187.338Y-139.713
X187.49Y-133.312
X188.201Y-126.403
X188.354Y-139.713
X188.506Y-133.312
X189.573Y-134.887
X189.573Y-135.852
X189.573Y-136.766
X189.573Y-137.731
X189.573Y-138.646
X190.797Y-130.51
X191.732Y-124.422
X192.672Y-124.432
X193.078Y-122.085
X193.846Y-147.643
X193.856Y-144.344
X193.865Y-130.645
X193.865Y-131.686
X194.602Y-120.104
T2
X158.316Y-145.763
X158.316Y-147.113
X159.166Y-145.763
X159.166Y-147.113
X160.016Y-145.763
X160.016Y-147.113
X160.867Y-145.763
X160.867Y-147.113
X161.716Y-145.763
X161.716Y-147.113
X162.566Y-145.763
X162.566Y-147.113
X163.416Y-145.763
X163.416Y-147.113
X164.266Y-145.763
X164.266Y-147.113
T4
X136.334Y-144.576
X136.334Y-147.076
X136.666Y-96.02
X144.166Y-97.653
X154.106Y-139.633
X154.106Y-141.633
X175.552Y-109.639
X175.552Y-117.259
X178.092Y-109.639
X178.092Y-117.259
X180.632Y-109.639
X180.632Y-117.259
X183.172Y-109.639
X183.172Y-117.259
X186.728Y-109.639
X186.728Y-117.259
X189.268Y-109.639
X189.268Y-117.259
X191.808Y-109.639
X191.808Y-117.259
X194.348Y-109.639
X194.348Y-117.259
T5
X151.219Y-98.971
X151.219Y-101.511
X156.616Y-98.952
X156.616Y-101.492
X161.961Y-98.952
X161.961Y-101.492
X167.358Y-98.952
X167.358Y-101.492
X178.092Y-84.239
X178.092Y-89.319
X183.07Y-84.239
X183.07Y-89.319
X188.1Y-84.239
X188.1Y-89.319
X193.129Y-84.239
X193.129Y-89.319
T6
X160.076Y-120.332
X162.576Y-120.332
X165.076Y-120.332
X167.576Y-120.332
T7
X141.973Y-144.31
X141.973Y-146.85
X144.166Y-87.133
X144.166Y-92.213
X146.992Y-145.453
X147.002Y-138.493
X149.492Y-145.453
X149.502Y-138.493
X155.13Y-119.444
X155.13Y-121.983
X178.956Y-125.082
X181.496Y-125.082
X184.036Y-125.082
X184.442Y-149.161
X186.576Y-125.082
X186.982Y-149.161
T8
X129.136Y-109.444
X129.136Y-129.444
X129.222Y-140.525
X129.222Y-143.065
X129.222Y-145.606
X149.136Y-114.444
X149.136Y-124.444
X151.219Y-83.731
X151.219Y-91.351
X156.616Y-83.712
X156.616Y-91.332
X161.961Y-83.712
X161.961Y-91.332
X167.358Y-83.712
X167.358Y-91.332
T9
X140.5Y-70.777
X140.5Y-78.977
X145.5Y-70.777
X145.5Y-78.977
X154.147Y-70.754
X154.147Y-78.953
X159.147Y-70.754
X159.147Y-78.953
X164.147Y-70.754
X164.147Y-78.953
X169.147Y-70.754
X169.147Y-78.953
X178.106Y-70.713
X178.106Y-78.913
X183.106Y-70.713
X183.106Y-78.913
X188.106Y-70.713
X188.106Y-78.913
X193.106Y-70.713
X193.106Y-78.913
T10
X132.256Y-76.504
X132.27Y-85.407
X198.564Y-85.407
T3
X156.966Y-145.993G85X156.966Y-147.493
G05
X156.966Y-149.724G85X156.966Y-150.523
G05
X165.617Y-145.993G85X165.617Y-147.493
G05
X165.617Y-149.724G85X165.617Y-150.523
G05
T0
M30
