G04 #@! TF.GenerationSoftware,KiCad,Pcbnew,(6.0.4)*
G04 #@! TF.CreationDate,2022-03-20T23:44:11+01:00*
G04 #@! TF.ProjectId,hamodule,68616d6f-6475-46c6-952e-6b696361645f,rev?*
G04 #@! TF.SameCoordinates,Original*
G04 #@! TF.FileFunction,Paste,Top*
G04 #@! TF.FilePolarity,Positive*
%FSLAX46Y46*%
G04 Gerber Fmt 4.6, Leading zero omitted, Abs format (unit mm)*
G04 Created by KiCad (PCBNEW (6.0.4)) date 2022-03-20 23:44:11*
%MOMM*%
%LPD*%
G01*
G04 APERTURE LIST*
G04 Aperture macros list*
%AMRoundRect*
0 Rectangle with rounded corners*
0 $1 Rounding radius*
0 $2 $3 $4 $5 $6 $7 $8 $9 X,Y pos of 4 corners*
0 Add a 4 corners polygon primitive as box body*
4,1,4,$2,$3,$4,$5,$6,$7,$8,$9,$2,$3,0*
0 Add four circle primitives for the rounded corners*
1,1,$1+$1,$2,$3*
1,1,$1+$1,$4,$5*
1,1,$1+$1,$6,$7*
1,1,$1+$1,$8,$9*
0 Add four rect primitives between the rounded corners*
20,1,$1+$1,$2,$3,$4,$5,0*
20,1,$1+$1,$4,$5,$6,$7,0*
20,1,$1+$1,$6,$7,$8,$9,0*
20,1,$1+$1,$8,$9,$2,$3,0*%
G04 Aperture macros list end*
%ADD10RoundRect,0.250000X-0.412500X-0.650000X0.412500X-0.650000X0.412500X0.650000X-0.412500X0.650000X0*%
%ADD11RoundRect,0.249999X-1.425001X0.450001X-1.425001X-0.450001X1.425001X-0.450001X1.425001X0.450001X0*%
%ADD12RoundRect,0.250000X0.450000X-0.325000X0.450000X0.325000X-0.450000X0.325000X-0.450000X-0.325000X0*%
%ADD13RoundRect,0.250000X0.450000X-0.350000X0.450000X0.350000X-0.450000X0.350000X-0.450000X-0.350000X0*%
%ADD14RoundRect,0.237500X-0.237500X0.300000X-0.237500X-0.300000X0.237500X-0.300000X0.237500X0.300000X0*%
%ADD15RoundRect,0.237500X0.237500X-0.300000X0.237500X0.300000X-0.237500X0.300000X-0.237500X-0.300000X0*%
%ADD16RoundRect,0.150000X0.150000X-0.825000X0.150000X0.825000X-0.150000X0.825000X-0.150000X-0.825000X0*%
%ADD17RoundRect,0.237500X-0.300000X-0.237500X0.300000X-0.237500X0.300000X0.237500X-0.300000X0.237500X0*%
%ADD18RoundRect,0.237500X0.300000X0.237500X-0.300000X0.237500X-0.300000X-0.237500X0.300000X-0.237500X0*%
%ADD19RoundRect,0.250000X0.412500X0.650000X-0.412500X0.650000X-0.412500X-0.650000X0.412500X-0.650000X0*%
%ADD20RoundRect,0.237500X-0.250000X-0.237500X0.250000X-0.237500X0.250000X0.237500X-0.250000X0.237500X0*%
%ADD21RoundRect,0.150000X-0.150000X0.587500X-0.150000X-0.587500X0.150000X-0.587500X0.150000X0.587500X0*%
%ADD22RoundRect,0.237500X0.250000X0.237500X-0.250000X0.237500X-0.250000X-0.237500X0.250000X-0.237500X0*%
%ADD23R,0.600000X0.700000*%
%ADD24R,1.100000X1.800000*%
%ADD25RoundRect,0.237500X-0.237500X0.250000X-0.237500X-0.250000X0.237500X-0.250000X0.237500X0.250000X0*%
%ADD26R,0.450000X0.600000*%
%ADD27R,0.900000X2.000000*%
%ADD28R,2.000000X0.900000*%
%ADD29R,5.000000X5.000000*%
%ADD30RoundRect,0.250000X0.400000X0.625000X-0.400000X0.625000X-0.400000X-0.625000X0.400000X-0.625000X0*%
%ADD31RoundRect,0.250000X0.350000X0.450000X-0.350000X0.450000X-0.350000X-0.450000X0.350000X-0.450000X0*%
%ADD32RoundRect,0.225000X0.225000X-0.225000X0.225000X0.225000X-0.225000X0.225000X-0.225000X-0.225000X0*%
%ADD33RoundRect,0.062500X0.062500X-0.337500X0.062500X0.337500X-0.062500X0.337500X-0.062500X-0.337500X0*%
%ADD34RoundRect,0.062500X0.337500X-0.062500X0.337500X0.062500X-0.337500X0.062500X-0.337500X-0.062500X0*%
%ADD35RoundRect,0.250000X-0.450000X0.325000X-0.450000X-0.325000X0.450000X-0.325000X0.450000X0.325000X0*%
%ADD36R,0.600000X1.450000*%
%ADD37R,0.300000X1.450000*%
%ADD38RoundRect,0.250000X-0.450000X0.350000X-0.450000X-0.350000X0.450000X-0.350000X0.450000X0.350000X0*%
%ADD39RoundRect,0.249999X-0.450001X-1.425001X0.450001X-1.425001X0.450001X1.425001X-0.450001X1.425001X0*%
%ADD40R,0.300000X0.500000*%
G04 APERTURE END LIST*
D10*
X180097900Y-120103900D03*
X183222900Y-120103900D03*
D11*
X178117500Y-91986100D03*
X178117500Y-98086100D03*
X183070500Y-91986100D03*
X183070500Y-98086100D03*
X183070500Y-100037900D03*
X183070500Y-106137900D03*
X178117500Y-100037900D03*
X178117500Y-106137900D03*
D12*
X156604500Y-110313500D03*
X156604500Y-108263500D03*
D13*
X154064500Y-110297500D03*
X154064500Y-108297500D03*
D14*
X131762500Y-144752000D03*
X131762500Y-146477000D03*
D15*
X131762500Y-140381000D03*
X131762500Y-138656000D03*
D14*
X169710100Y-109105700D03*
X169710100Y-110830700D03*
D16*
X159271500Y-114058500D03*
X160541500Y-114058500D03*
X161811500Y-114058500D03*
X163081500Y-114058500D03*
X164351500Y-114058500D03*
X165621500Y-114058500D03*
X166891500Y-114058500D03*
X168161500Y-114058500D03*
X168161500Y-109108500D03*
X166891500Y-109108500D03*
X165621500Y-109108500D03*
X164351500Y-109108500D03*
X163081500Y-109108500D03*
X161811500Y-109108500D03*
X160541500Y-109108500D03*
X159271500Y-109108500D03*
D17*
X181419500Y-122085100D03*
X183144500Y-122085100D03*
D18*
X186725900Y-122085100D03*
X185000900Y-122085100D03*
D19*
X188239800Y-120103900D03*
X185114800Y-120103900D03*
D10*
X190182500Y-120103900D03*
X193307500Y-120103900D03*
D11*
X193128900Y-100037900D03*
X193128900Y-106137900D03*
X188099700Y-91986100D03*
X188099700Y-98086100D03*
X193128900Y-91986100D03*
X193128900Y-98086100D03*
X188099700Y-100037900D03*
X188099700Y-106137900D03*
D18*
X178295300Y-122085100D03*
X176570300Y-122085100D03*
D17*
X190080900Y-122085100D03*
X191805900Y-122085100D03*
D20*
X189256000Y-125412500D03*
X191081000Y-125412500D03*
D17*
X192659000Y-125412500D03*
X194384000Y-125412500D03*
D18*
X191018500Y-126936500D03*
X189293500Y-126936500D03*
D21*
X164746500Y-129298500D03*
X162846500Y-129298500D03*
X163796500Y-131173500D03*
D20*
X161071500Y-127513500D03*
X162896500Y-127513500D03*
D22*
X162896500Y-125983500D03*
X161071500Y-125983500D03*
D23*
X157983000Y-141900900D03*
X156583000Y-141900900D03*
D24*
X166566500Y-124803500D03*
X166566500Y-131003500D03*
X170266500Y-131003500D03*
X170266500Y-124803500D03*
X157556500Y-124833500D03*
X157556500Y-131033500D03*
X153856500Y-124833500D03*
X153856500Y-131033500D03*
D14*
X164974900Y-140078300D03*
X164974900Y-141803300D03*
D20*
X165065500Y-135410900D03*
X166890500Y-135410900D03*
D22*
X166890500Y-138458900D03*
X165065500Y-138458900D03*
D20*
X165065500Y-136934900D03*
X166890500Y-136934900D03*
D14*
X166574900Y-140084800D03*
X166574900Y-141809800D03*
D25*
X156406500Y-138553000D03*
X156406500Y-140378000D03*
D26*
X154876500Y-143514100D03*
X154876500Y-145614100D03*
D23*
X160583000Y-141900900D03*
X159183000Y-141900900D03*
X161893000Y-141900900D03*
X163293000Y-141900900D03*
D27*
X193865500Y-128986500D03*
X192595500Y-128986500D03*
X191325500Y-128986500D03*
X190055500Y-128986500D03*
X188785500Y-128986500D03*
X187515500Y-128986500D03*
X186245500Y-128986500D03*
X184975500Y-128986500D03*
X183705500Y-128986500D03*
X182435500Y-128986500D03*
X181165500Y-128986500D03*
X179895500Y-128986500D03*
X178625500Y-128986500D03*
X177355500Y-128986500D03*
D28*
X176355500Y-131771500D03*
X176355500Y-133041500D03*
X176355500Y-134311500D03*
X176355500Y-135581500D03*
X176355500Y-136851500D03*
X176355500Y-138121500D03*
X176355500Y-139391500D03*
X176355500Y-140661500D03*
X176355500Y-141931500D03*
X176355500Y-143201500D03*
D27*
X177355500Y-145986500D03*
X178625500Y-145986500D03*
X179895500Y-145986500D03*
X181165500Y-145986500D03*
X182435500Y-145986500D03*
X183705500Y-145986500D03*
X184975500Y-145986500D03*
X186245500Y-145986500D03*
X187515500Y-145986500D03*
X188785500Y-145986500D03*
X190055500Y-145986500D03*
X191325500Y-145986500D03*
X192595500Y-145986500D03*
X193865500Y-145986500D03*
D29*
X186365500Y-136486500D03*
D21*
X161286500Y-129308500D03*
X159386500Y-129308500D03*
X160336500Y-131183500D03*
D30*
X162779000Y-133575500D03*
X159679000Y-133575500D03*
D31*
X181578000Y-150304500D03*
X179578000Y-150304500D03*
X181578000Y-148272500D03*
X179578000Y-148272500D03*
D32*
X160983000Y-136820900D03*
X162103000Y-139060900D03*
X162103000Y-136820900D03*
X159863000Y-136820900D03*
X159863000Y-137940900D03*
X160983000Y-137940900D03*
X160983000Y-139060900D03*
X162103000Y-137940900D03*
X159863000Y-139060900D03*
D33*
X159483000Y-140390900D03*
X159983000Y-140390900D03*
X160483000Y-140390900D03*
X160983000Y-140390900D03*
X161483000Y-140390900D03*
X161983000Y-140390900D03*
X162483000Y-140390900D03*
D34*
X163433000Y-139440900D03*
X163433000Y-138940900D03*
X163433000Y-138440900D03*
X163433000Y-137940900D03*
X163433000Y-137440900D03*
X163433000Y-136940900D03*
X163433000Y-136440900D03*
D33*
X162483000Y-135490900D03*
X161983000Y-135490900D03*
X161483000Y-135490900D03*
X160983000Y-135490900D03*
X160483000Y-135490900D03*
X159983000Y-135490900D03*
X159483000Y-135490900D03*
D34*
X158533000Y-136440900D03*
X158533000Y-136940900D03*
X158533000Y-137440900D03*
X158533000Y-137940900D03*
X158533000Y-138440900D03*
X158533000Y-138940900D03*
X158533000Y-139440900D03*
D17*
X192648500Y-126936500D03*
X194373500Y-126936500D03*
D19*
X178168300Y-120103900D03*
X175043300Y-120103900D03*
D18*
X173594100Y-133540500D03*
X171869100Y-133540500D03*
D20*
X168096500Y-146513500D03*
X169921500Y-146513500D03*
X187413900Y-114795300D03*
X189238900Y-114795300D03*
X176241700Y-114795300D03*
X178066700Y-114795300D03*
D35*
X193484500Y-148217500D03*
X193484500Y-150267500D03*
D36*
X158023000Y-143955900D03*
X158823000Y-143955900D03*
D37*
X160023000Y-143955900D03*
X161023000Y-143955900D03*
X161523000Y-143955900D03*
X162523000Y-143955900D03*
D36*
X163723000Y-143955900D03*
X164523000Y-143955900D03*
X164523000Y-143955900D03*
X163723000Y-143955900D03*
D37*
X163023000Y-143955900D03*
X162023000Y-143955900D03*
X160523000Y-143955900D03*
X159523000Y-143955900D03*
D36*
X158823000Y-143955900D03*
X158023000Y-143955900D03*
D22*
X193607700Y-114795300D03*
X191782700Y-114795300D03*
D38*
X153806500Y-133135500D03*
X153806500Y-135135500D03*
D39*
X168326500Y-149243500D03*
X174426500Y-149243500D03*
D40*
X172993100Y-136284000D03*
X173793100Y-136284000D03*
X173793100Y-134884000D03*
X172993100Y-134884000D03*
D20*
X171869100Y-137604500D03*
X173694100Y-137604500D03*
D22*
X182435500Y-114795300D03*
X180610500Y-114795300D03*
D20*
X171869100Y-139128500D03*
X173694100Y-139128500D03*
D13*
X191407500Y-150242500D03*
X191407500Y-148242500D03*
D25*
X155086500Y-147013500D03*
X155086500Y-148838500D03*
M02*
