G04 #@! TF.GenerationSoftware,KiCad,Pcbnew,(6.0.0)*
G04 #@! TF.CreationDate,2022-02-26T11:33:25+01:00*
G04 #@! TF.ProjectId,hamodule,68616d6f-6475-46c6-952e-6b696361645f,rev?*
G04 #@! TF.SameCoordinates,Original*
G04 #@! TF.FileFunction,Soldermask,Bot*
G04 #@! TF.FilePolarity,Negative*
%FSLAX46Y46*%
G04 Gerber Fmt 4.6, Leading zero omitted, Abs format (unit mm)*
G04 Created by KiCad (PCBNEW (6.0.0)) date 2022-02-26 11:33:25*
%MOMM*%
%LPD*%
G01*
G04 APERTURE LIST*
G04 Aperture macros list*
%AMRoundRect*
0 Rectangle with rounded corners*
0 $1 Rounding radius*
0 $2 $3 $4 $5 $6 $7 $8 $9 X,Y pos of 4 corners*
0 Add a 4 corners polygon primitive as box body*
4,1,4,$2,$3,$4,$5,$6,$7,$8,$9,$2,$3,0*
0 Add four circle primitives for the rounded corners*
1,1,$1+$1,$2,$3*
1,1,$1+$1,$4,$5*
1,1,$1+$1,$6,$7*
1,1,$1+$1,$8,$9*
0 Add four rect primitives between the rounded corners*
20,1,$1+$1,$2,$3,$4,$5,0*
20,1,$1+$1,$4,$5,$6,$7,0*
20,1,$1+$1,$6,$7,$8,$9,0*
20,1,$1+$1,$8,$9,$2,$3,0*%
G04 Aperture macros list end*
%ADD10RoundRect,0.050000X-0.850000X-0.850000X0.850000X-0.850000X0.850000X0.850000X-0.850000X0.850000X0*%
%ADD11C,2.100000*%
%ADD12RoundRect,0.050000X0.850000X0.850000X-0.850000X0.850000X-0.850000X-0.850000X0.850000X-0.850000X0*%
%ADD13O,1.800000X1.800000*%
%ADD14C,1.900000*%
%ADD15RoundRect,0.300000X-0.600000X-0.750000X0.600000X-0.750000X0.600000X0.750000X-0.600000X0.750000X0*%
%ADD16O,1.800000X2.100000*%
%ADD17RoundRect,0.300000X-0.600000X-0.725000X0.600000X-0.725000X0.600000X0.725000X-0.600000X0.725000X0*%
%ADD18O,1.800000X2.050000*%
%ADD19RoundRect,0.050000X-0.825000X-0.825000X0.825000X-0.825000X0.825000X0.825000X-0.825000X0.825000X0*%
%ADD20C,1.750000*%
%ADD21RoundRect,0.050000X1.000000X-0.952500X1.000000X0.952500X-1.000000X0.952500X-1.000000X-0.952500X0*%
%ADD22O,2.100000X2.005000*%
%ADD23RoundRect,0.050000X0.850000X-0.850000X0.850000X0.850000X-0.850000X0.850000X-0.850000X-0.850000X0*%
%ADD24O,2.050000X1.800000*%
%ADD25RoundRect,0.675000X0.625000X0.625000X-0.625000X0.625000X-0.625000X-0.625000X0.625000X-0.625000X0*%
%ADD26C,5.600000*%
%ADD27RoundRect,0.050000X-0.800000X1.200000X-0.800000X-1.200000X0.800000X-1.200000X0.800000X1.200000X0*%
%ADD28O,1.700000X2.500000*%
%ADD29RoundRect,0.050000X0.675000X0.675000X-0.675000X0.675000X-0.675000X-0.675000X0.675000X-0.675000X0*%
%ADD30O,1.450000X1.450000*%
%ADD31C,1.508000*%
%ADD32C,0.750000*%
%ADD33O,1.100000X2.200000*%
%ADD34O,1.100000X1.700000*%
%ADD35RoundRect,0.050000X-0.800000X0.800000X-0.800000X-0.800000X0.800000X-0.800000X0.800000X0.800000X0*%
%ADD36C,1.700000*%
G04 APERTURE END LIST*
D10*
X173236500Y-132583500D03*
D11*
X143546500Y-95413500D03*
X143536500Y-100493500D03*
X143546500Y-85283500D03*
X143536500Y-90363500D03*
D12*
X141973300Y-146850100D03*
D13*
X141973300Y-144310100D03*
D14*
X128386500Y-94623500D03*
X135886500Y-96256830D03*
D15*
X147002500Y-138493500D03*
D16*
X149502500Y-138493500D03*
D12*
X155080500Y-119965500D03*
D13*
X155080500Y-117425500D03*
D17*
X160026500Y-118314500D03*
D18*
X162526500Y-118314500D03*
X165026500Y-118314500D03*
X167526500Y-118314500D03*
D19*
X129136100Y-109443500D03*
D20*
X129136100Y-129443500D03*
X149136100Y-124443500D03*
X149136100Y-114443500D03*
D21*
X129222500Y-145605500D03*
D22*
X129222500Y-143065500D03*
X129222500Y-140525500D03*
D11*
X151218900Y-83731100D03*
X151218900Y-91351100D03*
D23*
X151218900Y-101511100D03*
D24*
X151218900Y-98971100D03*
D11*
X156616400Y-83711601D03*
X156616400Y-91331601D03*
D23*
X156616400Y-101491601D03*
D24*
X156616400Y-98951601D03*
D11*
X167358400Y-83711601D03*
X167358400Y-91331601D03*
D23*
X167358400Y-101491601D03*
D24*
X167358400Y-98951601D03*
D25*
X169146500Y-78953500D03*
X169146500Y-70753501D03*
X164146500Y-78953500D03*
X164146500Y-70753501D03*
X159146500Y-78953500D03*
X159146500Y-70753501D03*
X154146500Y-78953500D03*
X154146500Y-70753501D03*
X145500100Y-78977099D03*
X145500100Y-70777100D03*
X140500100Y-78977099D03*
X140500100Y-70777100D03*
X193106500Y-78913499D03*
X193106500Y-70713500D03*
X188106500Y-78913499D03*
X188106500Y-70713500D03*
X183106500Y-78913499D03*
X183106500Y-70713500D03*
X178106500Y-78913499D03*
X178106500Y-70713500D03*
D26*
X198564500Y-85407500D03*
X132270500Y-85407500D03*
D11*
X161960900Y-83711601D03*
X161960900Y-91331601D03*
D23*
X161960900Y-101491601D03*
D24*
X161960900Y-98951601D03*
D26*
X132256500Y-76503500D03*
D27*
X183172100Y-109639100D03*
D28*
X180632100Y-109639100D03*
X178092100Y-109639100D03*
X175552100Y-109639100D03*
X175552100Y-117259100D03*
X178092100Y-117259100D03*
X180632100Y-117259100D03*
X183172100Y-117259100D03*
D27*
X194348100Y-109639100D03*
D28*
X191808100Y-109639100D03*
X189268100Y-109639100D03*
X186728100Y-109639100D03*
X186728100Y-117259100D03*
X189268100Y-117259100D03*
X191808100Y-117259100D03*
X194348100Y-117259100D03*
D15*
X146991700Y-145453100D03*
D16*
X149491700Y-145453100D03*
D23*
X178955700Y-125082300D03*
D13*
X181495700Y-125082300D03*
X184035700Y-125082300D03*
X186575700Y-125082300D03*
D23*
X184442100Y-149161500D03*
D13*
X186982100Y-149161500D03*
D29*
X154056500Y-139615500D03*
D30*
X154056500Y-137615500D03*
D31*
X183070500Y-89319100D03*
X183070500Y-84239100D03*
X193128900Y-89319100D03*
X193128900Y-84239100D03*
D32*
X158383000Y-145400900D03*
X164163000Y-145400900D03*
D33*
X165593000Y-144870900D03*
D34*
X165593000Y-149050900D03*
D33*
X156953000Y-144870900D03*
D34*
X156953000Y-149050900D03*
D31*
X188099700Y-89319100D03*
X188099700Y-84239100D03*
D35*
X136334500Y-144575521D03*
D36*
X136334500Y-147075521D03*
D31*
X178092100Y-89319100D03*
X178092100Y-84239100D03*
M02*
