%FSLAX45Y45*%
G04 Gerber Fmt 4.5, Leading zero omitted, Abs format (unit mm)*
G04 Created by KiCad (PCBNEW (6.0.0)) date 2022-02-02 02:52:55*
%MOMM*%
%LPD*%
G01*
G04 APERTURE LIST*
%TA.AperFunction,Profile*%
%ADD10C,0.050000*%
%TD*%
%TA.AperFunction,Profile*%
%ADD11C,0.100000*%
%TD*%
%ADD12C,0.200000*%
%ADD13C,0.040000*%
%ADD14C,0.060000*%
%ADD15C,0.080000*%
%ADD16C,0.090000*%
%ADD17C,0.095000*%
%ADD18C,0.100000*%
%ADD19C,0.110000*%
%ADD20C,0.129540*%
%ADD21C,0.220000*%
%ADD22C,0.320000*%
G04 APERTURE END LIST*
D10*
X19932650Y-15170150D02*
G75*
G03*
X20186650Y-14916150I0J254000D01*
G01*
X20186650Y-14916150D02*
X20186650Y-6991350D01*
X16183650Y-15170350D02*
X12769850Y-15170150D01*
X20059650Y-9594850D02*
G75*
G03*
X20059650Y-9594850I-89803J0D01*
G01*
D11*
X17418050Y-10255250D02*
X15371490Y-10254693D01*
D10*
X19932650Y-6737350D02*
X12769850Y-6737350D01*
D11*
X15386050Y-9874250D02*
X17418050Y-9874250D01*
D10*
X15386050Y-9874250D02*
G75*
G03*
X15371490Y-10254693I0J-190500D01*
G01*
X12515850Y-14916150D02*
X12515850Y-6991350D01*
X17418050Y-10255250D02*
G75*
G03*
X17418050Y-9874250I0J190500D01*
G01*
X12515850Y-14916150D02*
G75*
G03*
X12769850Y-15170150I254000J0D01*
G01*
D11*
X15386050Y-9099550D02*
X17418050Y-9099550D01*
X17418050Y-9404350D02*
X15386050Y-9404350D01*
D10*
X17621250Y-11156950D02*
G75*
G03*
X17468850Y-11156950I-76200J0D01*
G01*
X17621250Y-11309350D02*
X17621250Y-11156950D01*
X19932650Y-15170150D02*
X16183650Y-15170350D01*
X20186650Y-6991350D02*
G75*
G03*
X19932650Y-6737350I-254000J0D01*
G01*
X19170650Y-10547350D02*
X19170650Y-8538210D01*
X18662650Y-10547350D02*
G75*
G03*
X18728690Y-10547350I33020J0D01*
G01*
D11*
X17468850Y-11817350D02*
X17468850Y-11156950D01*
D10*
X18728690Y-8538210D02*
G75*
G03*
X18662650Y-8538210I-33020J0D01*
G01*
X14344650Y-10547350D02*
G75*
G03*
X14217650Y-10547350I-63500J0D01*
G01*
X19236690Y-8538210D02*
G75*
G03*
X19170650Y-8538210I-33020J0D01*
G01*
D11*
X17646650Y-11334750D02*
X19856450Y-11334750D01*
D10*
X19236690Y-8538210D02*
X19236690Y-10547350D01*
X18220690Y-8538210D02*
X18220690Y-10547350D01*
D11*
X19856450Y-11436350D02*
X17646650Y-11436350D01*
D10*
X17621250Y-11309350D02*
G75*
G03*
X17646650Y-11334750I25400J0D01*
G01*
X18154650Y-10547350D02*
X18154650Y-8538210D01*
X18662650Y-10547350D02*
X18662650Y-8538210D01*
X13455650Y-11182350D02*
X12693650Y-11182350D01*
X12693650Y-11055350D02*
X13455650Y-11055350D01*
X14217650Y-13214350D02*
G75*
G03*
X14344650Y-13214350I63500J0D01*
G01*
X17418050Y-9404350D02*
G75*
G03*
X17418050Y-9099550I0J152400D01*
G01*
X18154650Y-10547350D02*
G75*
G03*
X18220690Y-10547350I33020J0D01*
G01*
X15386050Y-9099550D02*
G75*
G03*
X15386050Y-9404350I0J-152400D01*
G01*
X12769850Y-6737350D02*
G75*
G03*
X12515850Y-6991350I0J-254000D01*
G01*
X17468850Y-11817350D02*
G75*
G03*
X17621250Y-11817350I76200J0D01*
G01*
X19170650Y-10547350D02*
G75*
G03*
X19236690Y-10547350I33020J0D01*
G01*
X14217650Y-10547350D02*
X14217650Y-13214350D01*
X18728690Y-8538210D02*
X18728690Y-10547350D01*
X19856450Y-11436350D02*
G75*
G03*
X19856450Y-11334750I0J50800D01*
G01*
D11*
X17621250Y-11461750D02*
X17621250Y-11817350D01*
D10*
X17646650Y-11436350D02*
G75*
G03*
X17621250Y-11461750I0J-25400D01*
G01*
X14344650Y-13214350D02*
X14344650Y-10547350D01*
X18220690Y-8538210D02*
G75*
G03*
X18154650Y-8538210I-33020J0D01*
G01*
X12693650Y-11055350D02*
G75*
G03*
X12693650Y-11182350I0J-63500D01*
G01*
X13455650Y-11182350D02*
G75*
G03*
X13455650Y-11055350I0J63500D01*
G01*
D12*
D13*
X15350810Y-12569510D02*
X15390810Y-12609510D01*
X15390810Y-12569510D02*
X15350810Y-12609510D01*
X15495590Y-13349290D02*
X15535590Y-13389290D01*
X15535590Y-13349290D02*
X15495590Y-13389290D01*
X15591650Y-13782350D02*
X15631650Y-13822350D01*
X15631650Y-13782350D02*
X15591650Y-13822350D01*
X15693398Y-13783190D02*
X15733398Y-13823190D01*
X15733398Y-13783190D02*
X15693398Y-13823190D01*
X15963650Y-14092190D02*
X16003650Y-14132190D01*
X16003650Y-14092190D02*
X15963650Y-14132190D01*
X15964650Y-13981750D02*
X16004650Y-14021750D01*
X16004650Y-13981750D02*
X15964650Y-14021750D01*
X15965490Y-13869990D02*
X16005490Y-13909990D01*
X16005490Y-13869990D02*
X15965490Y-13909990D01*
X15978190Y-13326430D02*
X16018190Y-13366430D01*
X16018190Y-13326430D02*
X15978190Y-13366430D01*
X15978500Y-13024170D02*
X16018500Y-13064170D01*
X16018500Y-13024170D02*
X15978500Y-13064170D01*
X16077250Y-13867450D02*
X16117250Y-13907450D01*
X16117250Y-13867450D02*
X16077250Y-13907450D01*
X16077250Y-13979210D02*
X16117250Y-14019210D01*
X16117250Y-13979210D02*
X16077250Y-14019210D01*
X16077650Y-14092190D02*
X16117650Y-14132190D01*
X16117650Y-14092190D02*
X16077650Y-14132190D01*
X16166650Y-13332350D02*
X16206650Y-13372350D01*
X16206650Y-13332350D02*
X16166650Y-13372350D01*
X16194090Y-13976670D02*
X16234090Y-14016670D01*
X16234090Y-13976670D02*
X16194090Y-14016670D01*
X16195650Y-14099190D02*
X16235650Y-14139190D01*
X16235650Y-14099190D02*
X16195650Y-14139190D01*
X16196630Y-13867450D02*
X16236630Y-13907450D01*
X16236630Y-13867450D02*
X16196630Y-13907450D01*
X16387110Y-14371890D02*
X16427110Y-14411890D01*
X16427110Y-14371890D02*
X16387110Y-14411890D01*
X16700650Y-13333350D02*
X16740650Y-13373350D01*
X16740650Y-13333350D02*
X16700650Y-13373350D01*
X16724950Y-14657390D02*
X16764950Y-14697390D01*
X16764950Y-14657390D02*
X16724950Y-14697390D01*
X16760510Y-14362750D02*
X16800510Y-14402750D01*
X16800510Y-14362750D02*
X16760510Y-14402750D01*
X16854490Y-13387390D02*
X16894490Y-13427390D01*
X16894490Y-13387390D02*
X16854490Y-13427390D01*
X16859570Y-13877610D02*
X16899570Y-13917610D01*
X16899570Y-13877610D02*
X16859570Y-13917610D01*
X16943390Y-14370370D02*
X16983390Y-14410370D01*
X16983390Y-14370370D02*
X16943390Y-14410370D01*
X16947447Y-14261360D02*
X16987447Y-14301360D01*
X16987447Y-14261360D02*
X16947447Y-14301360D01*
X16951010Y-13880150D02*
X16991010Y-13920150D01*
X16991010Y-13880150D02*
X16951010Y-13920150D01*
X16957643Y-14158490D02*
X16997643Y-14198490D01*
X16997643Y-14158490D02*
X16957643Y-14198490D01*
X17268510Y-13334050D02*
X17308510Y-13374050D01*
X17308510Y-13334050D02*
X17268510Y-13374050D01*
X17269650Y-12707350D02*
X17309650Y-12747350D01*
X17309650Y-12707350D02*
X17269650Y-12747350D01*
X17312540Y-13806350D02*
X17352540Y-13846350D01*
X17352540Y-13806350D02*
X17312540Y-13846350D01*
X17407540Y-13804350D02*
X17447540Y-13844350D01*
X17447540Y-13804350D02*
X17407540Y-13844350D01*
X17429430Y-13157150D02*
X17469430Y-13197150D01*
X17469430Y-13157150D02*
X17429430Y-13197150D01*
X17563150Y-14870750D02*
X17603150Y-14910750D01*
X17603150Y-14870750D02*
X17563150Y-14910750D01*
X17563150Y-14977430D02*
X17603150Y-15017430D01*
X17603150Y-14977430D02*
X17563150Y-15017430D01*
X17784130Y-13156250D02*
X17824130Y-13196250D01*
X17824130Y-13156250D02*
X17784130Y-13196250D01*
X17895890Y-13156250D02*
X17935890Y-13196250D01*
X17935890Y-13156250D02*
X17895890Y-13196250D01*
X18420400Y-13429300D02*
X18460400Y-13469300D01*
X18460400Y-13429300D02*
X18420400Y-13469300D01*
X18420400Y-13530900D02*
X18460400Y-13570900D01*
X18460400Y-13530900D02*
X18420400Y-13570900D01*
X18420400Y-13632500D02*
X18460400Y-13672500D01*
X18460400Y-13632500D02*
X18420400Y-13672500D01*
X18420400Y-13740450D02*
X18460400Y-13780450D01*
X18460400Y-13740450D02*
X18420400Y-13780450D01*
X18420400Y-13835700D02*
X18460400Y-13875700D01*
X18460400Y-13835700D02*
X18420400Y-13875700D01*
X18515650Y-13429300D02*
X18555650Y-13469300D01*
X18555650Y-13429300D02*
X18515650Y-13469300D01*
X18515650Y-13530900D02*
X18555650Y-13570900D01*
X18555650Y-13530900D02*
X18515650Y-13570900D01*
X18515650Y-13632500D02*
X18555650Y-13672500D01*
X18555650Y-13632500D02*
X18515650Y-13672500D01*
X18515650Y-13740450D02*
X18555650Y-13780450D01*
X18555650Y-13740450D02*
X18515650Y-13780450D01*
X18515650Y-13835700D02*
X18555650Y-13875700D01*
X18555650Y-13835700D02*
X18515650Y-13875700D01*
X18617250Y-13429300D02*
X18657250Y-13469300D01*
X18657250Y-13429300D02*
X18617250Y-13469300D01*
X18617250Y-13530900D02*
X18657250Y-13570900D01*
X18657250Y-13530900D02*
X18617250Y-13570900D01*
X18617250Y-13632500D02*
X18657250Y-13672500D01*
X18657250Y-13632500D02*
X18617250Y-13672500D01*
X18617250Y-13740450D02*
X18657250Y-13780450D01*
X18657250Y-13740450D02*
X18617250Y-13780450D01*
X18617250Y-13835700D02*
X18657250Y-13875700D01*
X18657250Y-13835700D02*
X18617250Y-13875700D01*
X18718850Y-13429300D02*
X18758850Y-13469300D01*
X18758850Y-13429300D02*
X18718850Y-13469300D01*
X18718850Y-13530900D02*
X18758850Y-13570900D01*
X18758850Y-13530900D02*
X18718850Y-13570900D01*
X18718850Y-13632500D02*
X18758850Y-13672500D01*
X18758850Y-13632500D02*
X18718850Y-13672500D01*
X18718850Y-13740450D02*
X18758850Y-13780450D01*
X18758850Y-13740450D02*
X18718850Y-13780450D01*
X18718850Y-13835700D02*
X18758850Y-13875700D01*
X18758850Y-13835700D02*
X18718850Y-13875700D01*
X18774669Y-12668631D02*
X18814669Y-12708631D01*
X18814669Y-12668631D02*
X18774669Y-12708631D01*
X18820450Y-13429300D02*
X18860450Y-13469300D01*
X18860450Y-13429300D02*
X18820450Y-13469300D01*
X18820450Y-13530900D02*
X18860450Y-13570900D01*
X18860450Y-13530900D02*
X18820450Y-13570900D01*
X18820450Y-13632500D02*
X18860450Y-13672500D01*
X18860450Y-13632500D02*
X18820450Y-13672500D01*
X18820450Y-13740450D02*
X18860450Y-13780450D01*
X18860450Y-13740450D02*
X18820450Y-13780450D01*
X18820450Y-13835700D02*
X18860450Y-13875700D01*
X18860450Y-13835700D02*
X18820450Y-13875700D01*
X19153190Y-12422190D02*
X19193190Y-12462190D01*
X19193190Y-12422190D02*
X19153190Y-12462190D01*
X19247170Y-12423242D02*
X19287170Y-12463242D01*
X19287170Y-12423242D02*
X19247170Y-12463242D01*
X19364650Y-14744350D02*
X19404650Y-14784350D01*
X19404650Y-14744350D02*
X19364650Y-14784350D01*
X19365650Y-14414350D02*
X19405650Y-14454350D01*
X19405650Y-14414350D02*
X19365650Y-14454350D01*
X19366550Y-13044490D02*
X19406550Y-13084490D01*
X19406550Y-13044490D02*
X19366550Y-13084490D01*
X19366550Y-13148630D02*
X19406550Y-13188630D01*
X19406550Y-13148630D02*
X19366550Y-13188630D01*
X19419650Y-12397350D02*
X19459650Y-12437350D01*
X19459650Y-12397350D02*
X19419650Y-12437350D01*
X15851650Y-14576350D02*
G75*
G03*
X15851650Y-14576350I-20000J0D01*
G01*
X15851650Y-14711350D02*
G75*
G03*
X15851650Y-14711350I-20000J0D01*
G01*
X15936650Y-14576350D02*
G75*
G03*
X15936650Y-14576350I-20000J0D01*
G01*
X15936650Y-14711350D02*
G75*
G03*
X15936650Y-14711350I-20000J0D01*
G01*
X16021650Y-14576350D02*
G75*
G03*
X16021650Y-14576350I-20000J0D01*
G01*
X16021650Y-14711350D02*
G75*
G03*
X16021650Y-14711350I-20000J0D01*
G01*
X16106650Y-14576350D02*
G75*
G03*
X16106650Y-14576350I-20000J0D01*
G01*
X16106650Y-14711350D02*
G75*
G03*
X16106650Y-14711350I-20000J0D01*
G01*
X16191650Y-14576350D02*
G75*
G03*
X16191650Y-14576350I-20000J0D01*
G01*
X16191650Y-14711350D02*
G75*
G03*
X16191650Y-14711350I-20000J0D01*
G01*
X16276650Y-14576350D02*
G75*
G03*
X16276650Y-14576350I-20000J0D01*
G01*
X16276650Y-14711350D02*
G75*
G03*
X16276650Y-14711350I-20000J0D01*
G01*
X16361650Y-14576350D02*
G75*
G03*
X16361650Y-14576350I-20000J0D01*
G01*
X16361650Y-14711350D02*
G75*
G03*
X16361650Y-14711350I-20000J0D01*
G01*
X16446650Y-14576350D02*
G75*
G03*
X16446650Y-14576350I-20000J0D01*
G01*
X16446650Y-14711350D02*
G75*
G03*
X16446650Y-14711350I-20000J0D01*
G01*
D14*
X15696650Y-14644350D02*
X15696650Y-14704350D01*
X15666650Y-14674350D02*
X15726650Y-14674350D01*
D12*
X15676650Y-14599350D02*
X15676650Y-14749350D01*
X15716650Y-14599350D02*
X15716650Y-14749350D01*
X15676650Y-14749350D02*
G75*
G03*
X15716650Y-14749350I20000J0D01*
G01*
X15716650Y-14599350D02*
G75*
G03*
X15676650Y-14599350I-20000J0D01*
G01*
D14*
X15696650Y-14982350D02*
X15696650Y-15042350D01*
X15666650Y-15012350D02*
X15726650Y-15012350D01*
D12*
X15676650Y-14972350D02*
X15676650Y-15052350D01*
X15716650Y-14972350D02*
X15716650Y-15052350D01*
X15676650Y-15052350D02*
G75*
G03*
X15716650Y-15052350I20000J0D01*
G01*
X15716650Y-14972350D02*
G75*
G03*
X15676650Y-14972350I-20000J0D01*
G01*
D14*
X16561650Y-14644350D02*
X16561650Y-14704350D01*
X16531650Y-14674350D02*
X16591650Y-14674350D01*
D12*
X16541650Y-14599350D02*
X16541650Y-14749350D01*
X16581650Y-14599350D02*
X16581650Y-14749350D01*
X16541650Y-14749350D02*
G75*
G03*
X16581650Y-14749350I20000J0D01*
G01*
X16581650Y-14599350D02*
G75*
G03*
X16541650Y-14599350I-20000J0D01*
G01*
D14*
X16561650Y-14982350D02*
X16561650Y-15042350D01*
X16531650Y-15012350D02*
X16591650Y-15012350D01*
D12*
X16541650Y-14972350D02*
X16541650Y-15052350D01*
X16581650Y-14972350D02*
X16581650Y-15052350D01*
X16541650Y-15052350D02*
G75*
G03*
X16581650Y-15052350I20000J0D01*
G01*
X16581650Y-14972350D02*
G75*
G03*
X16541650Y-14972350I-20000J0D01*
G01*
D15*
X13292734Y-9929702D02*
X13292734Y-9873133D01*
X13236165Y-9873133D01*
X13236165Y-9929702D01*
X13292734Y-9929702D01*
X13661734Y-13788734D02*
X13661734Y-13732165D01*
X13605165Y-13732165D01*
X13605165Y-13788734D01*
X13661734Y-13788734D01*
X13661734Y-14038734D02*
X13661734Y-13982165D01*
X13605165Y-13982165D01*
X13605165Y-14038734D01*
X13661734Y-14038734D01*
X13661734Y-14487234D02*
X13661734Y-14430665D01*
X13605165Y-14430665D01*
X13605165Y-14487234D01*
X13661734Y-14487234D01*
X13661734Y-14737234D02*
X13661734Y-14680665D01*
X13605165Y-14680665D01*
X13605165Y-14737234D01*
X13661734Y-14737234D01*
X14042734Y-10093035D02*
X14042734Y-10036466D01*
X13986165Y-10036466D01*
X13986165Y-10093035D01*
X14042734Y-10093035D01*
X15438934Y-13991634D02*
X15438934Y-13935065D01*
X15382365Y-13935065D01*
X15382365Y-13991634D01*
X15438934Y-13991634D01*
X15438934Y-14191634D02*
X15438934Y-14135065D01*
X15382365Y-14135065D01*
X15382365Y-14191634D01*
X15438934Y-14191634D01*
X17878135Y-11134435D02*
X17878135Y-11077866D01*
X17821566Y-11077866D01*
X17821566Y-11134435D01*
X17878135Y-11134435D01*
X17878135Y-11896434D02*
X17878135Y-11839865D01*
X17821566Y-11839865D01*
X17821566Y-11896434D01*
X17878135Y-11896434D01*
X18119435Y-12550484D02*
X18119435Y-12493915D01*
X18062866Y-12493915D01*
X18062866Y-12550484D01*
X18119435Y-12550484D01*
X18132135Y-11134435D02*
X18132135Y-11077866D01*
X18075566Y-11077866D01*
X18075566Y-11134435D01*
X18132135Y-11134435D01*
X18132135Y-11896434D02*
X18132135Y-11839865D01*
X18075566Y-11839865D01*
X18075566Y-11896434D01*
X18132135Y-11896434D01*
X18319435Y-12550484D02*
X18319435Y-12493915D01*
X18262866Y-12493915D01*
X18262866Y-12550484D01*
X18319435Y-12550484D01*
X18386135Y-11134435D02*
X18386135Y-11077866D01*
X18329566Y-11077866D01*
X18329566Y-11134435D01*
X18386135Y-11134435D01*
X18386135Y-11896434D02*
X18386135Y-11839865D01*
X18329566Y-11839865D01*
X18329566Y-11896434D01*
X18386135Y-11896434D01*
X18519435Y-12550484D02*
X18519435Y-12493915D01*
X18462866Y-12493915D01*
X18462866Y-12550484D01*
X18519435Y-12550484D01*
X18640135Y-11134435D02*
X18640135Y-11077866D01*
X18583566Y-11077866D01*
X18583566Y-11134435D01*
X18640135Y-11134435D01*
X18640135Y-11896434D02*
X18640135Y-11839865D01*
X18583566Y-11839865D01*
X18583566Y-11896434D01*
X18640135Y-11896434D01*
X18719435Y-12550484D02*
X18719435Y-12493915D01*
X18662866Y-12493915D01*
X18662866Y-12550484D01*
X18719435Y-12550484D01*
X18856035Y-14912684D02*
X18856035Y-14856115D01*
X18799466Y-14856115D01*
X18799466Y-14912684D01*
X18856035Y-14912684D01*
X18995735Y-11134435D02*
X18995735Y-11077866D01*
X18939166Y-11077866D01*
X18939166Y-11134435D01*
X18995735Y-11134435D01*
X18995735Y-11896434D02*
X18995735Y-11839865D01*
X18939166Y-11839865D01*
X18939166Y-11896434D01*
X18995735Y-11896434D01*
X19056035Y-14912684D02*
X19056035Y-14856115D01*
X18999466Y-14856115D01*
X18999466Y-14912684D01*
X19056035Y-14912684D01*
X19249735Y-11134435D02*
X19249735Y-11077866D01*
X19193166Y-11077866D01*
X19193166Y-11134435D01*
X19249735Y-11134435D01*
X19249735Y-11896434D02*
X19249735Y-11839865D01*
X19193166Y-11839865D01*
X19193166Y-11896434D01*
X19249735Y-11896434D01*
X19503735Y-11134435D02*
X19503735Y-11077866D01*
X19447166Y-11077866D01*
X19447166Y-11134435D01*
X19503735Y-11134435D01*
X19503735Y-11896434D02*
X19503735Y-11839865D01*
X19447166Y-11839865D01*
X19447166Y-11896434D01*
X19503735Y-11896434D01*
X19757735Y-11134435D02*
X19757735Y-11077866D01*
X19701166Y-11077866D01*
X19701166Y-11134435D01*
X19757735Y-11134435D01*
X19757735Y-11896434D02*
X19757735Y-11839865D01*
X19701166Y-11839865D01*
X19701166Y-11896434D01*
X19757735Y-11896434D01*
D16*
X15468600Y-10427250D02*
X15513600Y-10382250D01*
X15468600Y-10337250D01*
X15423600Y-10382250D01*
X15468600Y-10427250D01*
X15468600Y-10681250D02*
X15513600Y-10636250D01*
X15468600Y-10591250D01*
X15423600Y-10636250D01*
X15468600Y-10681250D01*
X16008350Y-10425300D02*
X16053350Y-10380300D01*
X16008350Y-10335300D01*
X15963350Y-10380300D01*
X16008350Y-10425300D01*
X16008350Y-10679300D02*
X16053350Y-10634300D01*
X16008350Y-10589300D01*
X15963350Y-10634300D01*
X16008350Y-10679300D01*
X16542800Y-10425300D02*
X16587800Y-10380300D01*
X16542800Y-10335300D01*
X16497800Y-10380300D01*
X16542800Y-10425300D01*
X16542800Y-10679300D02*
X16587800Y-10634300D01*
X16542800Y-10589300D01*
X16497800Y-10634300D01*
X16542800Y-10679300D01*
X17082550Y-10425300D02*
X17127550Y-10380300D01*
X17082550Y-10335300D01*
X17037550Y-10380300D01*
X17082550Y-10425300D01*
X17082550Y-10679300D02*
X17127550Y-10634300D01*
X17082550Y-10589300D01*
X17037550Y-10634300D01*
X17082550Y-10679300D01*
D17*
X15960150Y-11985750D02*
X16055150Y-12080750D01*
X16055150Y-11985750D02*
X15960150Y-12080750D01*
X16055150Y-12033250D02*
G75*
G03*
X16055150Y-12033250I-47500J0D01*
G01*
X16210150Y-11985750D02*
X16305150Y-12080750D01*
X16305150Y-11985750D02*
X16210150Y-12080750D01*
X16305150Y-12033250D02*
G75*
G03*
X16305150Y-12033250I-47500J0D01*
G01*
X16460150Y-11985750D02*
X16555150Y-12080750D01*
X16555150Y-11985750D02*
X16460150Y-12080750D01*
X16555150Y-12033250D02*
G75*
G03*
X16555150Y-12033250I-47500J0D01*
G01*
X16710150Y-11985750D02*
X16805150Y-12080750D01*
X16805150Y-11985750D02*
X16710150Y-12080750D01*
X16805150Y-12033250D02*
G75*
G03*
X16805150Y-12033250I-47500J0D01*
G01*
D18*
X13405650Y-9176550D02*
X13505650Y-9276550D01*
X13505650Y-9176550D02*
X13405650Y-9276550D01*
X13455650Y-9176550D02*
X13455650Y-9276550D01*
X13405650Y-9226550D02*
X13505650Y-9226550D01*
X13913650Y-9176550D02*
X14013650Y-9276550D01*
X14013650Y-9176550D02*
X13913650Y-9276550D01*
X13963650Y-9176550D02*
X13963650Y-9276550D01*
X13913650Y-9226550D02*
X14013650Y-9226550D01*
X14147330Y-14381010D02*
X14247330Y-14481010D01*
X14247330Y-14381010D02*
X14147330Y-14481010D01*
X14197330Y-14381010D02*
X14197330Y-14481010D01*
X14147330Y-14431010D02*
X14247330Y-14431010D01*
X14147330Y-14635010D02*
X14247330Y-14735010D01*
X14247330Y-14635010D02*
X14147330Y-14735010D01*
X14197330Y-14635010D02*
X14197330Y-14735010D01*
X14147330Y-14685010D02*
X14247330Y-14685010D01*
X14624850Y-8871750D02*
X14724850Y-8971750D01*
X14724850Y-8871750D02*
X14624850Y-8971750D01*
X14674850Y-8871750D02*
X14674850Y-8971750D01*
X14624850Y-8921750D02*
X14724850Y-8921750D01*
X14624850Y-9379750D02*
X14724850Y-9479750D01*
X14724850Y-9379750D02*
X14624850Y-9479750D01*
X14674850Y-9379750D02*
X14674850Y-9479750D01*
X14624850Y-9429750D02*
X14724850Y-9429750D01*
X14649170Y-14495310D02*
X14749170Y-14595310D01*
X14749170Y-14495310D02*
X14649170Y-14595310D01*
X14699170Y-14495310D02*
X14699170Y-14595310D01*
X14649170Y-14545310D02*
X14749170Y-14545310D01*
X14650250Y-13799350D02*
X14750250Y-13899350D01*
X14750250Y-13799350D02*
X14650250Y-13899350D01*
X14700250Y-13799350D02*
X14700250Y-13899350D01*
X14650250Y-13849350D02*
X14750250Y-13849350D01*
X14899170Y-14495310D02*
X14999170Y-14595310D01*
X14999170Y-14495310D02*
X14899170Y-14595310D01*
X14949170Y-14495310D02*
X14949170Y-14595310D01*
X14899170Y-14545310D02*
X14999170Y-14545310D01*
X14900250Y-13799350D02*
X15000250Y-13899350D01*
X15000250Y-13799350D02*
X14900250Y-13899350D01*
X14950250Y-13799350D02*
X14950250Y-13899350D01*
X14900250Y-13849350D02*
X15000250Y-13849350D01*
X15463050Y-11894350D02*
X15563050Y-11994350D01*
X15563050Y-11894350D02*
X15463050Y-11994350D01*
X15513050Y-11894350D02*
X15513050Y-11994350D01*
X15463050Y-11944350D02*
X15563050Y-11944350D01*
X15463050Y-12148350D02*
X15563050Y-12248350D01*
X15563050Y-12148350D02*
X15463050Y-12248350D01*
X15513050Y-12148350D02*
X15513050Y-12248350D01*
X15463050Y-12198350D02*
X15563050Y-12198350D01*
D19*
X12867250Y-13997550D02*
X12977250Y-14107550D01*
X12977250Y-13997550D02*
X12867250Y-14107550D01*
X12961141Y-14091441D02*
X12961141Y-14013659D01*
X12883359Y-14013659D01*
X12883359Y-14091441D01*
X12961141Y-14091441D01*
X12867250Y-14251550D02*
X12977250Y-14361550D01*
X12977250Y-14251550D02*
X12867250Y-14361550D01*
X12961141Y-14345441D02*
X12961141Y-14267659D01*
X12883359Y-14267659D01*
X12883359Y-14345441D01*
X12961141Y-14345441D01*
X12867250Y-14505550D02*
X12977250Y-14615550D01*
X12977250Y-14505550D02*
X12867250Y-14615550D01*
X12961141Y-14599441D02*
X12961141Y-14521659D01*
X12883359Y-14521659D01*
X12883359Y-14599441D01*
X12961141Y-14599441D01*
X12892650Y-10803750D02*
X13002650Y-10913750D01*
X13002650Y-10803750D02*
X12892650Y-10913750D01*
X12986541Y-10897641D02*
X12986541Y-10819859D01*
X12908759Y-10819859D01*
X12908759Y-10897641D01*
X12986541Y-10897641D01*
X12892650Y-12803750D02*
X13002650Y-12913750D01*
X13002650Y-12803750D02*
X12892650Y-12913750D01*
X12986541Y-12897641D02*
X12986541Y-12819859D01*
X12908759Y-12819859D01*
X12908759Y-12897641D01*
X12986541Y-12897641D01*
X14892650Y-11303750D02*
X15002650Y-11413750D01*
X15002650Y-11303750D02*
X14892650Y-11413750D01*
X14986541Y-11397641D02*
X14986541Y-11319859D01*
X14908759Y-11319859D01*
X14908759Y-11397641D01*
X14986541Y-11397641D01*
X14892650Y-12303750D02*
X15002650Y-12413750D01*
X15002650Y-12303750D02*
X14892650Y-12413750D01*
X14986541Y-12397641D02*
X14986541Y-12319859D01*
X14908759Y-12319859D01*
X14908759Y-12397641D01*
X14986541Y-12397641D01*
X15413600Y-8803250D02*
X15523600Y-8913250D01*
X15523600Y-8803250D02*
X15413600Y-8913250D01*
X15507491Y-8897141D02*
X15507491Y-8819359D01*
X15429709Y-8819359D01*
X15429709Y-8897141D01*
X15507491Y-8897141D01*
X15413600Y-9565250D02*
X15523600Y-9675250D01*
X15523600Y-9565250D02*
X15413600Y-9675250D01*
X15507491Y-9659141D02*
X15507491Y-9581359D01*
X15429709Y-9581359D01*
X15429709Y-9659141D01*
X15507491Y-9659141D01*
X15953350Y-8801300D02*
X16063350Y-8911300D01*
X16063350Y-8801300D02*
X15953350Y-8911300D01*
X16047241Y-8895191D02*
X16047241Y-8817409D01*
X15969459Y-8817409D01*
X15969459Y-8895191D01*
X16047241Y-8895191D01*
X15953350Y-9563300D02*
X16063350Y-9673300D01*
X16063350Y-9563300D02*
X15953350Y-9673300D01*
X16047241Y-9657191D02*
X16047241Y-9579409D01*
X15969459Y-9579409D01*
X15969459Y-9657191D01*
X16047241Y-9657191D01*
X16487800Y-8801300D02*
X16597800Y-8911300D01*
X16597800Y-8801300D02*
X16487800Y-8911300D01*
X16581691Y-8895191D02*
X16581691Y-8817409D01*
X16503909Y-8817409D01*
X16503909Y-8895191D01*
X16581691Y-8895191D01*
X16487800Y-9563300D02*
X16597800Y-9673300D01*
X16597800Y-9563300D02*
X16487800Y-9673300D01*
X16581691Y-9657191D02*
X16581691Y-9579409D01*
X16503909Y-9579409D01*
X16503909Y-9657191D01*
X16581691Y-9657191D01*
X17027550Y-8801300D02*
X17137550Y-8911300D01*
X17137550Y-8801300D02*
X17027550Y-8911300D01*
X17121441Y-8895191D02*
X17121441Y-8817409D01*
X17043659Y-8817409D01*
X17043659Y-8895191D01*
X17121441Y-8895191D01*
X17027550Y-9563300D02*
X17137550Y-9673300D01*
X17137550Y-9563300D02*
X17027550Y-9673300D01*
X17121441Y-9657191D02*
X17121441Y-9579409D01*
X17043659Y-9579409D01*
X17043659Y-9657191D01*
X17121441Y-9657191D01*
D20*
X14110080Y-7020980D02*
X14239620Y-7150520D01*
X14239620Y-7020980D02*
X14110080Y-7150520D01*
X14174850Y-7150520D02*
X14239620Y-7085750D01*
X14174850Y-7020980D01*
X14110080Y-7085750D01*
X14174850Y-7150520D01*
X14110080Y-7840980D02*
X14239620Y-7970520D01*
X14239620Y-7840980D02*
X14110080Y-7970520D01*
X14174850Y-7970520D02*
X14239620Y-7905750D01*
X14174850Y-7840980D01*
X14110080Y-7905750D01*
X14174850Y-7970520D01*
X14610080Y-7020980D02*
X14739620Y-7150520D01*
X14739620Y-7020980D02*
X14610080Y-7150520D01*
X14674850Y-7150520D02*
X14739620Y-7085750D01*
X14674850Y-7020980D01*
X14610080Y-7085750D01*
X14674850Y-7150520D01*
X14610080Y-7840980D02*
X14739620Y-7970520D01*
X14739620Y-7840980D02*
X14610080Y-7970520D01*
X14674850Y-7970520D02*
X14739620Y-7905750D01*
X14674850Y-7840980D01*
X14610080Y-7905750D01*
X14674850Y-7970520D01*
X15446880Y-7020980D02*
X15576420Y-7150520D01*
X15576420Y-7020980D02*
X15446880Y-7150520D01*
X15511650Y-7150520D02*
X15576420Y-7085750D01*
X15511650Y-7020980D01*
X15446880Y-7085750D01*
X15511650Y-7150520D01*
X15446880Y-7840980D02*
X15576420Y-7970520D01*
X15576420Y-7840980D02*
X15446880Y-7970520D01*
X15511650Y-7970520D02*
X15576420Y-7905750D01*
X15511650Y-7840980D01*
X15446880Y-7905750D01*
X15511650Y-7970520D01*
X15946880Y-7020980D02*
X16076420Y-7150520D01*
X16076420Y-7020980D02*
X15946880Y-7150520D01*
X16011650Y-7150520D02*
X16076420Y-7085750D01*
X16011650Y-7020980D01*
X15946880Y-7085750D01*
X16011650Y-7150520D01*
X15946880Y-7840980D02*
X16076420Y-7970520D01*
X16076420Y-7840980D02*
X15946880Y-7970520D01*
X16011650Y-7970520D02*
X16076420Y-7905750D01*
X16011650Y-7840980D01*
X15946880Y-7905750D01*
X16011650Y-7970520D01*
X16446880Y-7020980D02*
X16576420Y-7150520D01*
X16576420Y-7020980D02*
X16446880Y-7150520D01*
X16511650Y-7150520D02*
X16576420Y-7085750D01*
X16511650Y-7020980D01*
X16446880Y-7085750D01*
X16511650Y-7150520D01*
X16446880Y-7840980D02*
X16576420Y-7970520D01*
X16576420Y-7840980D02*
X16446880Y-7970520D01*
X16511650Y-7970520D02*
X16576420Y-7905750D01*
X16511650Y-7840980D01*
X16446880Y-7905750D01*
X16511650Y-7970520D01*
X16946880Y-7020980D02*
X17076420Y-7150520D01*
X17076420Y-7020980D02*
X16946880Y-7150520D01*
X17011650Y-7150520D02*
X17076420Y-7085750D01*
X17011650Y-7020980D01*
X16946880Y-7085750D01*
X17011650Y-7150520D01*
X16946880Y-7840980D02*
X17076420Y-7970520D01*
X17076420Y-7840980D02*
X16946880Y-7970520D01*
X17011650Y-7970520D02*
X17076420Y-7905750D01*
X17011650Y-7840980D01*
X16946880Y-7905750D01*
X17011650Y-7970520D01*
X17873980Y-7020980D02*
X18003520Y-7150520D01*
X18003520Y-7020980D02*
X17873980Y-7150520D01*
X17938750Y-7150520D02*
X18003520Y-7085750D01*
X17938750Y-7020980D01*
X17873980Y-7085750D01*
X17938750Y-7150520D01*
X17873980Y-7840980D02*
X18003520Y-7970520D01*
X18003520Y-7840980D02*
X17873980Y-7970520D01*
X17938750Y-7970520D02*
X18003520Y-7905750D01*
X17938750Y-7840980D01*
X17873980Y-7905750D01*
X17938750Y-7970520D01*
X18373980Y-7020980D02*
X18503520Y-7150520D01*
X18503520Y-7020980D02*
X18373980Y-7150520D01*
X18438750Y-7150520D02*
X18503520Y-7085750D01*
X18438750Y-7020980D01*
X18373980Y-7085750D01*
X18438750Y-7150520D01*
X18373980Y-7840980D02*
X18503520Y-7970520D01*
X18503520Y-7840980D02*
X18373980Y-7970520D01*
X18438750Y-7970520D02*
X18503520Y-7905750D01*
X18438750Y-7840980D01*
X18373980Y-7905750D01*
X18438750Y-7970520D01*
X18873980Y-7020980D02*
X19003520Y-7150520D01*
X19003520Y-7020980D02*
X18873980Y-7150520D01*
X18938750Y-7150520D02*
X19003520Y-7085750D01*
X18938750Y-7020980D01*
X18873980Y-7085750D01*
X18938750Y-7150520D01*
X18873980Y-7840980D02*
X19003520Y-7970520D01*
X19003520Y-7840980D02*
X18873980Y-7970520D01*
X18938750Y-7970520D02*
X19003520Y-7905750D01*
X18938750Y-7840980D01*
X18873980Y-7905750D01*
X18938750Y-7970520D01*
X19373980Y-7020980D02*
X19503520Y-7150520D01*
X19503520Y-7020980D02*
X19373980Y-7150520D01*
X19438750Y-7150520D02*
X19503520Y-7085750D01*
X19438750Y-7020980D01*
X19373980Y-7085750D01*
X19438750Y-7150520D01*
X19373980Y-7840980D02*
X19503520Y-7970520D01*
X19503520Y-7840980D02*
X19373980Y-7970520D01*
X19438750Y-7970520D02*
X19503520Y-7905750D01*
X19438750Y-7840980D01*
X19373980Y-7905750D01*
X19438750Y-7970520D01*
D21*
X17570450Y-8379950D02*
X17570450Y-8599950D01*
X17460450Y-8489950D02*
X17680450Y-8489950D01*
X17680450Y-8489950D02*
G75*
G03*
X17680450Y-8489950I-110000J0D01*
G01*
X19917410Y-10218910D02*
X19917410Y-10438910D01*
X19807410Y-10328910D02*
X20027410Y-10328910D01*
X20027410Y-10328910D02*
G75*
G03*
X20027410Y-10328910I-110000J0D01*
G01*
D22*
X13338788Y-7763488D02*
X13338788Y-7537212D01*
X13112512Y-7537212D01*
X13112512Y-7763488D01*
X13338788Y-7763488D01*
X13385650Y-7650350D02*
G75*
G03*
X13385650Y-7650350I-160000J0D01*
G01*
X13340188Y-8653888D02*
X13340188Y-8427612D01*
X13113912Y-8427612D01*
X13113912Y-8653888D01*
X13340188Y-8653888D01*
X13387050Y-8540750D02*
G75*
G03*
X13387050Y-8540750I-160000J0D01*
G01*
X19969588Y-8653888D02*
X19969588Y-8427612D01*
X19743312Y-8427612D01*
X19743312Y-8653888D01*
X19969588Y-8653888D01*
X20016450Y-8540750D02*
G75*
G03*
X20016450Y-8540750I-160000J0D01*
G01*
D12*
X12770969Y-15483326D02*
X12770969Y-15283326D01*
X12818588Y-15283326D01*
X12847159Y-15292850D01*
X12866207Y-15311898D01*
X12875731Y-15330945D01*
X12885255Y-15369040D01*
X12885255Y-15397612D01*
X12875731Y-15435707D01*
X12866207Y-15454755D01*
X12847159Y-15473802D01*
X12818588Y-15483326D01*
X12770969Y-15483326D01*
X12970969Y-15483326D02*
X12970969Y-15349993D01*
X12970969Y-15388088D02*
X12980493Y-15369040D01*
X12990017Y-15359517D01*
X13009064Y-15349993D01*
X13028112Y-15349993D01*
X13094778Y-15483326D02*
X13094778Y-15349993D01*
X13094778Y-15283326D02*
X13085255Y-15292850D01*
X13094778Y-15302374D01*
X13104302Y-15292850D01*
X13094778Y-15283326D01*
X13094778Y-15302374D01*
X13218588Y-15483326D02*
X13199540Y-15473802D01*
X13190017Y-15454755D01*
X13190017Y-15283326D01*
X13323350Y-15483326D02*
X13304302Y-15473802D01*
X13294778Y-15454755D01*
X13294778Y-15283326D01*
X13551921Y-15483326D02*
X13551921Y-15283326D01*
X13618588Y-15426183D01*
X13685255Y-15283326D01*
X13685255Y-15483326D01*
X13866207Y-15483326D02*
X13866207Y-15378564D01*
X13856683Y-15359517D01*
X13837636Y-15349993D01*
X13799540Y-15349993D01*
X13780493Y-15359517D01*
X13866207Y-15473802D02*
X13847159Y-15483326D01*
X13799540Y-15483326D01*
X13780493Y-15473802D01*
X13770969Y-15454755D01*
X13770969Y-15435707D01*
X13780493Y-15416659D01*
X13799540Y-15407136D01*
X13847159Y-15407136D01*
X13866207Y-15397612D01*
X13961445Y-15349993D02*
X13961445Y-15549993D01*
X13961445Y-15359517D02*
X13980493Y-15349993D01*
X14018588Y-15349993D01*
X14037636Y-15359517D01*
X14047159Y-15369040D01*
X14056683Y-15388088D01*
X14056683Y-15445231D01*
X14047159Y-15464278D01*
X14037636Y-15473802D01*
X14018588Y-15483326D01*
X13980493Y-15483326D01*
X13961445Y-15473802D01*
X14142398Y-15464278D02*
X14151921Y-15473802D01*
X14142398Y-15483326D01*
X14132874Y-15473802D01*
X14142398Y-15464278D01*
X14142398Y-15483326D01*
X14142398Y-15359517D02*
X14151921Y-15369040D01*
X14142398Y-15378564D01*
X14132874Y-15369040D01*
X14142398Y-15359517D01*
X14142398Y-15378564D01*
D13*
X12473350Y-15792850D02*
X12513350Y-15832850D01*
X12513350Y-15792850D02*
X12473350Y-15832850D01*
D12*
X12809064Y-15703326D02*
X12828112Y-15703326D01*
X12847159Y-15712850D01*
X12856683Y-15722374D01*
X12866207Y-15741421D01*
X12875731Y-15779517D01*
X12875731Y-15827136D01*
X12866207Y-15865231D01*
X12856683Y-15884278D01*
X12847159Y-15893802D01*
X12828112Y-15903326D01*
X12809064Y-15903326D01*
X12790017Y-15893802D01*
X12780493Y-15884278D01*
X12770969Y-15865231D01*
X12761445Y-15827136D01*
X12761445Y-15779517D01*
X12770969Y-15741421D01*
X12780493Y-15722374D01*
X12790017Y-15712850D01*
X12809064Y-15703326D01*
X12961445Y-15884278D02*
X12970969Y-15893802D01*
X12961445Y-15903326D01*
X12951921Y-15893802D01*
X12961445Y-15884278D01*
X12961445Y-15903326D01*
X13142398Y-15769993D02*
X13142398Y-15903326D01*
X13094778Y-15693802D02*
X13047159Y-15836659D01*
X13170969Y-15836659D01*
X13285255Y-15703326D02*
X13304302Y-15703326D01*
X13323350Y-15712850D01*
X13332874Y-15722374D01*
X13342398Y-15741421D01*
X13351921Y-15779517D01*
X13351921Y-15827136D01*
X13342398Y-15865231D01*
X13332874Y-15884278D01*
X13323350Y-15893802D01*
X13304302Y-15903326D01*
X13285255Y-15903326D01*
X13266207Y-15893802D01*
X13256683Y-15884278D01*
X13247159Y-15865231D01*
X13237636Y-15827136D01*
X13237636Y-15779517D01*
X13247159Y-15741421D01*
X13256683Y-15722374D01*
X13266207Y-15712850D01*
X13285255Y-15703326D01*
X13475731Y-15703326D02*
X13494778Y-15703326D01*
X13513826Y-15712850D01*
X13523350Y-15722374D01*
X13532874Y-15741421D01*
X13542398Y-15779517D01*
X13542398Y-15827136D01*
X13532874Y-15865231D01*
X13523350Y-15884278D01*
X13513826Y-15893802D01*
X13494778Y-15903326D01*
X13475731Y-15903326D01*
X13456683Y-15893802D01*
X13447159Y-15884278D01*
X13437636Y-15865231D01*
X13428112Y-15827136D01*
X13428112Y-15779517D01*
X13437636Y-15741421D01*
X13447159Y-15722374D01*
X13456683Y-15712850D01*
X13475731Y-15703326D01*
X13628112Y-15903326D02*
X13628112Y-15769993D01*
X13628112Y-15789040D02*
X13637636Y-15779517D01*
X13656683Y-15769993D01*
X13685255Y-15769993D01*
X13704302Y-15779517D01*
X13713826Y-15798564D01*
X13713826Y-15903326D01*
X13713826Y-15798564D02*
X13723350Y-15779517D01*
X13742398Y-15769993D01*
X13770969Y-15769993D01*
X13790017Y-15779517D01*
X13799540Y-15798564D01*
X13799540Y-15903326D01*
X13894778Y-15903326D02*
X13894778Y-15769993D01*
X13894778Y-15789040D02*
X13904302Y-15779517D01*
X13923350Y-15769993D01*
X13951921Y-15769993D01*
X13970969Y-15779517D01*
X13980493Y-15798564D01*
X13980493Y-15903326D01*
X13980493Y-15798564D02*
X13990017Y-15779517D01*
X14009064Y-15769993D01*
X14037636Y-15769993D01*
X14056683Y-15779517D01*
X14066207Y-15798564D01*
X14066207Y-15903326D01*
X14456683Y-15693802D02*
X14285255Y-15950945D01*
X14713826Y-15703326D02*
X14732874Y-15703326D01*
X14751921Y-15712850D01*
X14761445Y-15722374D01*
X14770969Y-15741421D01*
X14780493Y-15779517D01*
X14780493Y-15827136D01*
X14770969Y-15865231D01*
X14761445Y-15884278D01*
X14751921Y-15893802D01*
X14732874Y-15903326D01*
X14713826Y-15903326D01*
X14694778Y-15893802D01*
X14685255Y-15884278D01*
X14675731Y-15865231D01*
X14666207Y-15827136D01*
X14666207Y-15779517D01*
X14675731Y-15741421D01*
X14685255Y-15722374D01*
X14694778Y-15712850D01*
X14713826Y-15703326D01*
X14866207Y-15884278D02*
X14875731Y-15893802D01*
X14866207Y-15903326D01*
X14856683Y-15893802D01*
X14866207Y-15884278D01*
X14866207Y-15903326D01*
X14999540Y-15703326D02*
X15018588Y-15703326D01*
X15037636Y-15712850D01*
X15047159Y-15722374D01*
X15056683Y-15741421D01*
X15066207Y-15779517D01*
X15066207Y-15827136D01*
X15056683Y-15865231D01*
X15047159Y-15884278D01*
X15037636Y-15893802D01*
X15018588Y-15903326D01*
X14999540Y-15903326D01*
X14980493Y-15893802D01*
X14970969Y-15884278D01*
X14961445Y-15865231D01*
X14951921Y-15827136D01*
X14951921Y-15779517D01*
X14961445Y-15741421D01*
X14970969Y-15722374D01*
X14980493Y-15712850D01*
X14999540Y-15703326D01*
X15256683Y-15903326D02*
X15142398Y-15903326D01*
X15199540Y-15903326D02*
X15199540Y-15703326D01*
X15180493Y-15731898D01*
X15161445Y-15750945D01*
X15142398Y-15760469D01*
X15437636Y-15703326D02*
X15342398Y-15703326D01*
X15332874Y-15798564D01*
X15342398Y-15789040D01*
X15361445Y-15779517D01*
X15409064Y-15779517D01*
X15428112Y-15789040D01*
X15437636Y-15798564D01*
X15447159Y-15817612D01*
X15447159Y-15865231D01*
X15437636Y-15884278D01*
X15428112Y-15893802D01*
X15409064Y-15903326D01*
X15361445Y-15903326D01*
X15342398Y-15893802D01*
X15332874Y-15884278D01*
X15513826Y-15703326D02*
X15647159Y-15703326D01*
X15561445Y-15903326D01*
X15713826Y-15703326D02*
X15713826Y-15741421D01*
X15790017Y-15703326D02*
X15790017Y-15741421D01*
X16085255Y-15979517D02*
X16075731Y-15969993D01*
X16056683Y-15941421D01*
X16047159Y-15922374D01*
X16037636Y-15893802D01*
X16028112Y-15846183D01*
X16028112Y-15808088D01*
X16037636Y-15760469D01*
X16047159Y-15731898D01*
X16056683Y-15712850D01*
X16075731Y-15684278D01*
X16085255Y-15674755D01*
X16247159Y-15703326D02*
X16209064Y-15703326D01*
X16190017Y-15712850D01*
X16180493Y-15722374D01*
X16161445Y-15750945D01*
X16151921Y-15789040D01*
X16151921Y-15865231D01*
X16161445Y-15884278D01*
X16170969Y-15893802D01*
X16190017Y-15903326D01*
X16228112Y-15903326D01*
X16247159Y-15893802D01*
X16256683Y-15884278D01*
X16266207Y-15865231D01*
X16266207Y-15817612D01*
X16256683Y-15798564D01*
X16247159Y-15789040D01*
X16228112Y-15779517D01*
X16190017Y-15779517D01*
X16170969Y-15789040D01*
X16161445Y-15798564D01*
X16151921Y-15817612D01*
X16380493Y-15789040D02*
X16361445Y-15779517D01*
X16351921Y-15769993D01*
X16342398Y-15750945D01*
X16342398Y-15741421D01*
X16351921Y-15722374D01*
X16361445Y-15712850D01*
X16380493Y-15703326D01*
X16418588Y-15703326D01*
X16437636Y-15712850D01*
X16447159Y-15722374D01*
X16456683Y-15741421D01*
X16456683Y-15750945D01*
X16447159Y-15769993D01*
X16437636Y-15779517D01*
X16418588Y-15789040D01*
X16380493Y-15789040D01*
X16361445Y-15798564D01*
X16351921Y-15808088D01*
X16342398Y-15827136D01*
X16342398Y-15865231D01*
X16351921Y-15884278D01*
X16361445Y-15893802D01*
X16380493Y-15903326D01*
X16418588Y-15903326D01*
X16437636Y-15893802D01*
X16447159Y-15884278D01*
X16456683Y-15865231D01*
X16456683Y-15827136D01*
X16447159Y-15808088D01*
X16437636Y-15798564D01*
X16418588Y-15789040D01*
X16694778Y-15903326D02*
X16694778Y-15703326D01*
X16780493Y-15903326D02*
X16780493Y-15798564D01*
X16770969Y-15779517D01*
X16751921Y-15769993D01*
X16723350Y-15769993D01*
X16704302Y-15779517D01*
X16694778Y-15789040D01*
X16904302Y-15903326D02*
X16885255Y-15893802D01*
X16875731Y-15884278D01*
X16866207Y-15865231D01*
X16866207Y-15808088D01*
X16875731Y-15789040D01*
X16885255Y-15779517D01*
X16904302Y-15769993D01*
X16932874Y-15769993D01*
X16951921Y-15779517D01*
X16961445Y-15789040D01*
X16970969Y-15808088D01*
X16970969Y-15865231D01*
X16961445Y-15884278D01*
X16951921Y-15893802D01*
X16932874Y-15903326D01*
X16904302Y-15903326D01*
X17085255Y-15903326D02*
X17066207Y-15893802D01*
X17056683Y-15874755D01*
X17056683Y-15703326D01*
X17237636Y-15893802D02*
X17218588Y-15903326D01*
X17180493Y-15903326D01*
X17161445Y-15893802D01*
X17151921Y-15874755D01*
X17151921Y-15798564D01*
X17161445Y-15779517D01*
X17180493Y-15769993D01*
X17218588Y-15769993D01*
X17237636Y-15779517D01*
X17247160Y-15798564D01*
X17247160Y-15817612D01*
X17151921Y-15836659D01*
X17323350Y-15893802D02*
X17342398Y-15903326D01*
X17380493Y-15903326D01*
X17399540Y-15893802D01*
X17409064Y-15874755D01*
X17409064Y-15865231D01*
X17399540Y-15846183D01*
X17380493Y-15836659D01*
X17351921Y-15836659D01*
X17332874Y-15827136D01*
X17323350Y-15808088D01*
X17323350Y-15798564D01*
X17332874Y-15779517D01*
X17351921Y-15769993D01*
X17380493Y-15769993D01*
X17399540Y-15779517D01*
X17475731Y-15979517D02*
X17485255Y-15969993D01*
X17504302Y-15941421D01*
X17513826Y-15922374D01*
X17523350Y-15893802D01*
X17532874Y-15846183D01*
X17532874Y-15808088D01*
X17523350Y-15760469D01*
X17513826Y-15731898D01*
X17504302Y-15712850D01*
X17485255Y-15684278D01*
X17475731Y-15674755D01*
D13*
X12513350Y-16076850D02*
G75*
G03*
X12513350Y-16076850I-20000J0D01*
G01*
D12*
X12809064Y-15967326D02*
X12828112Y-15967326D01*
X12847159Y-15976850D01*
X12856683Y-15986374D01*
X12866207Y-16005421D01*
X12875731Y-16043517D01*
X12875731Y-16091136D01*
X12866207Y-16129231D01*
X12856683Y-16148278D01*
X12847159Y-16157802D01*
X12828112Y-16167326D01*
X12809064Y-16167326D01*
X12790017Y-16157802D01*
X12780493Y-16148278D01*
X12770969Y-16129231D01*
X12761445Y-16091136D01*
X12761445Y-16043517D01*
X12770969Y-16005421D01*
X12780493Y-15986374D01*
X12790017Y-15976850D01*
X12809064Y-15967326D01*
X12961445Y-16148278D02*
X12970969Y-16157802D01*
X12961445Y-16167326D01*
X12951921Y-16157802D01*
X12961445Y-16148278D01*
X12961445Y-16167326D01*
X13142398Y-16033993D02*
X13142398Y-16167326D01*
X13094778Y-15957802D02*
X13047159Y-16100659D01*
X13170969Y-16100659D01*
X13285255Y-15967326D02*
X13304302Y-15967326D01*
X13323350Y-15976850D01*
X13332874Y-15986374D01*
X13342398Y-16005421D01*
X13351921Y-16043517D01*
X13351921Y-16091136D01*
X13342398Y-16129231D01*
X13332874Y-16148278D01*
X13323350Y-16157802D01*
X13304302Y-16167326D01*
X13285255Y-16167326D01*
X13266207Y-16157802D01*
X13256683Y-16148278D01*
X13247159Y-16129231D01*
X13237636Y-16091136D01*
X13237636Y-16043517D01*
X13247159Y-16005421D01*
X13256683Y-15986374D01*
X13266207Y-15976850D01*
X13285255Y-15967326D01*
X13475731Y-15967326D02*
X13494778Y-15967326D01*
X13513826Y-15976850D01*
X13523350Y-15986374D01*
X13532874Y-16005421D01*
X13542398Y-16043517D01*
X13542398Y-16091136D01*
X13532874Y-16129231D01*
X13523350Y-16148278D01*
X13513826Y-16157802D01*
X13494778Y-16167326D01*
X13475731Y-16167326D01*
X13456683Y-16157802D01*
X13447159Y-16148278D01*
X13437636Y-16129231D01*
X13428112Y-16091136D01*
X13428112Y-16043517D01*
X13437636Y-16005421D01*
X13447159Y-15986374D01*
X13456683Y-15976850D01*
X13475731Y-15967326D01*
X13628112Y-16167326D02*
X13628112Y-16033993D01*
X13628112Y-16053040D02*
X13637636Y-16043517D01*
X13656683Y-16033993D01*
X13685255Y-16033993D01*
X13704302Y-16043517D01*
X13713826Y-16062564D01*
X13713826Y-16167326D01*
X13713826Y-16062564D02*
X13723350Y-16043517D01*
X13742398Y-16033993D01*
X13770969Y-16033993D01*
X13790017Y-16043517D01*
X13799540Y-16062564D01*
X13799540Y-16167326D01*
X13894778Y-16167326D02*
X13894778Y-16033993D01*
X13894778Y-16053040D02*
X13904302Y-16043517D01*
X13923350Y-16033993D01*
X13951921Y-16033993D01*
X13970969Y-16043517D01*
X13980493Y-16062564D01*
X13980493Y-16167326D01*
X13980493Y-16062564D02*
X13990017Y-16043517D01*
X14009064Y-16033993D01*
X14037636Y-16033993D01*
X14056683Y-16043517D01*
X14066207Y-16062564D01*
X14066207Y-16167326D01*
X14456683Y-15957802D02*
X14285255Y-16214945D01*
X14713826Y-15967326D02*
X14732874Y-15967326D01*
X14751921Y-15976850D01*
X14761445Y-15986374D01*
X14770969Y-16005421D01*
X14780493Y-16043517D01*
X14780493Y-16091136D01*
X14770969Y-16129231D01*
X14761445Y-16148278D01*
X14751921Y-16157802D01*
X14732874Y-16167326D01*
X14713826Y-16167326D01*
X14694778Y-16157802D01*
X14685255Y-16148278D01*
X14675731Y-16129231D01*
X14666207Y-16091136D01*
X14666207Y-16043517D01*
X14675731Y-16005421D01*
X14685255Y-15986374D01*
X14694778Y-15976850D01*
X14713826Y-15967326D01*
X14866207Y-16148278D02*
X14875731Y-16157802D01*
X14866207Y-16167326D01*
X14856683Y-16157802D01*
X14866207Y-16148278D01*
X14866207Y-16167326D01*
X14999540Y-15967326D02*
X15018588Y-15967326D01*
X15037636Y-15976850D01*
X15047159Y-15986374D01*
X15056683Y-16005421D01*
X15066207Y-16043517D01*
X15066207Y-16091136D01*
X15056683Y-16129231D01*
X15047159Y-16148278D01*
X15037636Y-16157802D01*
X15018588Y-16167326D01*
X14999540Y-16167326D01*
X14980493Y-16157802D01*
X14970969Y-16148278D01*
X14961445Y-16129231D01*
X14951921Y-16091136D01*
X14951921Y-16043517D01*
X14961445Y-16005421D01*
X14970969Y-15986374D01*
X14980493Y-15976850D01*
X14999540Y-15967326D01*
X15256683Y-16167326D02*
X15142398Y-16167326D01*
X15199540Y-16167326D02*
X15199540Y-15967326D01*
X15180493Y-15995898D01*
X15161445Y-16014945D01*
X15142398Y-16024469D01*
X15437636Y-15967326D02*
X15342398Y-15967326D01*
X15332874Y-16062564D01*
X15342398Y-16053040D01*
X15361445Y-16043517D01*
X15409064Y-16043517D01*
X15428112Y-16053040D01*
X15437636Y-16062564D01*
X15447159Y-16081612D01*
X15447159Y-16129231D01*
X15437636Y-16148278D01*
X15428112Y-16157802D01*
X15409064Y-16167326D01*
X15361445Y-16167326D01*
X15342398Y-16157802D01*
X15332874Y-16148278D01*
X15513826Y-15967326D02*
X15647159Y-15967326D01*
X15561445Y-16167326D01*
X15713826Y-15967326D02*
X15713826Y-16005421D01*
X15790017Y-15967326D02*
X15790017Y-16005421D01*
X16085255Y-16243517D02*
X16075731Y-16233993D01*
X16056683Y-16205421D01*
X16047159Y-16186374D01*
X16037636Y-16157802D01*
X16028112Y-16110183D01*
X16028112Y-16072088D01*
X16037636Y-16024469D01*
X16047159Y-15995898D01*
X16056683Y-15976850D01*
X16075731Y-15948278D01*
X16085255Y-15938755D01*
X16266207Y-16167326D02*
X16151921Y-16167326D01*
X16209064Y-16167326D02*
X16209064Y-15967326D01*
X16190017Y-15995898D01*
X16170969Y-16014945D01*
X16151921Y-16024469D01*
X16437636Y-15967326D02*
X16399540Y-15967326D01*
X16380493Y-15976850D01*
X16370969Y-15986374D01*
X16351921Y-16014945D01*
X16342398Y-16053040D01*
X16342398Y-16129231D01*
X16351921Y-16148278D01*
X16361445Y-16157802D01*
X16380493Y-16167326D01*
X16418588Y-16167326D01*
X16437636Y-16157802D01*
X16447159Y-16148278D01*
X16456683Y-16129231D01*
X16456683Y-16081612D01*
X16447159Y-16062564D01*
X16437636Y-16053040D01*
X16418588Y-16043517D01*
X16380493Y-16043517D01*
X16361445Y-16053040D01*
X16351921Y-16062564D01*
X16342398Y-16081612D01*
X16694778Y-16167326D02*
X16694778Y-15967326D01*
X16780493Y-16167326D02*
X16780493Y-16062564D01*
X16770969Y-16043517D01*
X16751921Y-16033993D01*
X16723350Y-16033993D01*
X16704302Y-16043517D01*
X16694778Y-16053040D01*
X16904302Y-16167326D02*
X16885255Y-16157802D01*
X16875731Y-16148278D01*
X16866207Y-16129231D01*
X16866207Y-16072088D01*
X16875731Y-16053040D01*
X16885255Y-16043517D01*
X16904302Y-16033993D01*
X16932874Y-16033993D01*
X16951921Y-16043517D01*
X16961445Y-16053040D01*
X16970969Y-16072088D01*
X16970969Y-16129231D01*
X16961445Y-16148278D01*
X16951921Y-16157802D01*
X16932874Y-16167326D01*
X16904302Y-16167326D01*
X17085255Y-16167326D02*
X17066207Y-16157802D01*
X17056683Y-16138755D01*
X17056683Y-15967326D01*
X17237636Y-16157802D02*
X17218588Y-16167326D01*
X17180493Y-16167326D01*
X17161445Y-16157802D01*
X17151921Y-16138755D01*
X17151921Y-16062564D01*
X17161445Y-16043517D01*
X17180493Y-16033993D01*
X17218588Y-16033993D01*
X17237636Y-16043517D01*
X17247160Y-16062564D01*
X17247160Y-16081612D01*
X17151921Y-16100659D01*
X17323350Y-16157802D02*
X17342398Y-16167326D01*
X17380493Y-16167326D01*
X17399540Y-16157802D01*
X17409064Y-16138755D01*
X17409064Y-16129231D01*
X17399540Y-16110183D01*
X17380493Y-16100659D01*
X17351921Y-16100659D01*
X17332874Y-16091136D01*
X17323350Y-16072088D01*
X17323350Y-16062564D01*
X17332874Y-16043517D01*
X17351921Y-16033993D01*
X17380493Y-16033993D01*
X17399540Y-16043517D01*
X17475731Y-16243517D02*
X17485255Y-16233993D01*
X17504302Y-16205421D01*
X17513826Y-16186374D01*
X17523350Y-16157802D01*
X17532874Y-16110183D01*
X17532874Y-16072088D01*
X17523350Y-16024469D01*
X17513826Y-15995898D01*
X17504302Y-15976850D01*
X17485255Y-15948278D01*
X17475731Y-15938755D01*
D14*
X12483350Y-16310850D02*
X12483350Y-16370850D01*
X12453350Y-16340850D02*
X12513350Y-16340850D01*
D12*
X12809064Y-16231326D02*
X12828112Y-16231326D01*
X12847159Y-16240850D01*
X12856683Y-16250374D01*
X12866207Y-16269421D01*
X12875731Y-16307517D01*
X12875731Y-16355136D01*
X12866207Y-16393231D01*
X12856683Y-16412278D01*
X12847159Y-16421802D01*
X12828112Y-16431326D01*
X12809064Y-16431326D01*
X12790017Y-16421802D01*
X12780493Y-16412278D01*
X12770969Y-16393231D01*
X12761445Y-16355136D01*
X12761445Y-16307517D01*
X12770969Y-16269421D01*
X12780493Y-16250374D01*
X12790017Y-16240850D01*
X12809064Y-16231326D01*
X12961445Y-16412278D02*
X12970969Y-16421802D01*
X12961445Y-16431326D01*
X12951921Y-16421802D01*
X12961445Y-16412278D01*
X12961445Y-16431326D01*
X13142398Y-16231326D02*
X13104302Y-16231326D01*
X13085255Y-16240850D01*
X13075731Y-16250374D01*
X13056683Y-16278945D01*
X13047159Y-16317040D01*
X13047159Y-16393231D01*
X13056683Y-16412278D01*
X13066207Y-16421802D01*
X13085255Y-16431326D01*
X13123350Y-16431326D01*
X13142398Y-16421802D01*
X13151921Y-16412278D01*
X13161445Y-16393231D01*
X13161445Y-16345612D01*
X13151921Y-16326564D01*
X13142398Y-16317040D01*
X13123350Y-16307517D01*
X13085255Y-16307517D01*
X13066207Y-16317040D01*
X13056683Y-16326564D01*
X13047159Y-16345612D01*
X13285255Y-16231326D02*
X13304302Y-16231326D01*
X13323350Y-16240850D01*
X13332874Y-16250374D01*
X13342398Y-16269421D01*
X13351921Y-16307517D01*
X13351921Y-16355136D01*
X13342398Y-16393231D01*
X13332874Y-16412278D01*
X13323350Y-16421802D01*
X13304302Y-16431326D01*
X13285255Y-16431326D01*
X13266207Y-16421802D01*
X13256683Y-16412278D01*
X13247159Y-16393231D01*
X13237636Y-16355136D01*
X13237636Y-16307517D01*
X13247159Y-16269421D01*
X13256683Y-16250374D01*
X13266207Y-16240850D01*
X13285255Y-16231326D01*
X13475731Y-16231326D02*
X13494778Y-16231326D01*
X13513826Y-16240850D01*
X13523350Y-16250374D01*
X13532874Y-16269421D01*
X13542398Y-16307517D01*
X13542398Y-16355136D01*
X13532874Y-16393231D01*
X13523350Y-16412278D01*
X13513826Y-16421802D01*
X13494778Y-16431326D01*
X13475731Y-16431326D01*
X13456683Y-16421802D01*
X13447159Y-16412278D01*
X13437636Y-16393231D01*
X13428112Y-16355136D01*
X13428112Y-16307517D01*
X13437636Y-16269421D01*
X13447159Y-16250374D01*
X13456683Y-16240850D01*
X13475731Y-16231326D01*
X13628112Y-16431326D02*
X13628112Y-16297993D01*
X13628112Y-16317040D02*
X13637636Y-16307517D01*
X13656683Y-16297993D01*
X13685255Y-16297993D01*
X13704302Y-16307517D01*
X13713826Y-16326564D01*
X13713826Y-16431326D01*
X13713826Y-16326564D02*
X13723350Y-16307517D01*
X13742398Y-16297993D01*
X13770969Y-16297993D01*
X13790017Y-16307517D01*
X13799540Y-16326564D01*
X13799540Y-16431326D01*
X13894778Y-16431326D02*
X13894778Y-16297993D01*
X13894778Y-16317040D02*
X13904302Y-16307517D01*
X13923350Y-16297993D01*
X13951921Y-16297993D01*
X13970969Y-16307517D01*
X13980493Y-16326564D01*
X13980493Y-16431326D01*
X13980493Y-16326564D02*
X13990017Y-16307517D01*
X14009064Y-16297993D01*
X14037636Y-16297993D01*
X14056683Y-16307517D01*
X14066207Y-16326564D01*
X14066207Y-16431326D01*
X14456683Y-16221802D02*
X14285255Y-16478945D01*
X14713826Y-16231326D02*
X14732874Y-16231326D01*
X14751921Y-16240850D01*
X14761445Y-16250374D01*
X14770969Y-16269421D01*
X14780493Y-16307517D01*
X14780493Y-16355136D01*
X14770969Y-16393231D01*
X14761445Y-16412278D01*
X14751921Y-16421802D01*
X14732874Y-16431326D01*
X14713826Y-16431326D01*
X14694778Y-16421802D01*
X14685255Y-16412278D01*
X14675731Y-16393231D01*
X14666207Y-16355136D01*
X14666207Y-16307517D01*
X14675731Y-16269421D01*
X14685255Y-16250374D01*
X14694778Y-16240850D01*
X14713826Y-16231326D01*
X14866207Y-16412278D02*
X14875731Y-16421802D01*
X14866207Y-16431326D01*
X14856683Y-16421802D01*
X14866207Y-16412278D01*
X14866207Y-16431326D01*
X14999540Y-16231326D02*
X15018588Y-16231326D01*
X15037636Y-16240850D01*
X15047159Y-16250374D01*
X15056683Y-16269421D01*
X15066207Y-16307517D01*
X15066207Y-16355136D01*
X15056683Y-16393231D01*
X15047159Y-16412278D01*
X15037636Y-16421802D01*
X15018588Y-16431326D01*
X14999540Y-16431326D01*
X14980493Y-16421802D01*
X14970969Y-16412278D01*
X14961445Y-16393231D01*
X14951921Y-16355136D01*
X14951921Y-16307517D01*
X14961445Y-16269421D01*
X14970969Y-16250374D01*
X14980493Y-16240850D01*
X14999540Y-16231326D01*
X15142398Y-16250374D02*
X15151921Y-16240850D01*
X15170969Y-16231326D01*
X15218588Y-16231326D01*
X15237636Y-16240850D01*
X15247159Y-16250374D01*
X15256683Y-16269421D01*
X15256683Y-16288469D01*
X15247159Y-16317040D01*
X15132874Y-16431326D01*
X15256683Y-16431326D01*
X15323350Y-16231326D02*
X15447159Y-16231326D01*
X15380493Y-16307517D01*
X15409064Y-16307517D01*
X15428112Y-16317040D01*
X15437636Y-16326564D01*
X15447159Y-16345612D01*
X15447159Y-16393231D01*
X15437636Y-16412278D01*
X15428112Y-16421802D01*
X15409064Y-16431326D01*
X15351921Y-16431326D01*
X15332874Y-16421802D01*
X15323350Y-16412278D01*
X15618588Y-16231326D02*
X15580493Y-16231326D01*
X15561445Y-16240850D01*
X15551921Y-16250374D01*
X15532874Y-16278945D01*
X15523350Y-16317040D01*
X15523350Y-16393231D01*
X15532874Y-16412278D01*
X15542398Y-16421802D01*
X15561445Y-16431326D01*
X15599540Y-16431326D01*
X15618588Y-16421802D01*
X15628112Y-16412278D01*
X15637636Y-16393231D01*
X15637636Y-16345612D01*
X15628112Y-16326564D01*
X15618588Y-16317040D01*
X15599540Y-16307517D01*
X15561445Y-16307517D01*
X15542398Y-16317040D01*
X15532874Y-16326564D01*
X15523350Y-16345612D01*
X15713826Y-16231326D02*
X15713826Y-16269421D01*
X15790017Y-16231326D02*
X15790017Y-16269421D01*
X16085255Y-16507517D02*
X16075731Y-16497993D01*
X16056683Y-16469421D01*
X16047159Y-16450374D01*
X16037636Y-16421802D01*
X16028112Y-16374183D01*
X16028112Y-16336088D01*
X16037636Y-16288469D01*
X16047159Y-16259898D01*
X16056683Y-16240850D01*
X16075731Y-16212278D01*
X16085255Y-16202755D01*
X16199540Y-16231326D02*
X16218588Y-16231326D01*
X16237636Y-16240850D01*
X16247159Y-16250374D01*
X16256683Y-16269421D01*
X16266207Y-16307517D01*
X16266207Y-16355136D01*
X16256683Y-16393231D01*
X16247159Y-16412278D01*
X16237636Y-16421802D01*
X16218588Y-16431326D01*
X16199540Y-16431326D01*
X16180493Y-16421802D01*
X16170969Y-16412278D01*
X16161445Y-16393231D01*
X16151921Y-16355136D01*
X16151921Y-16307517D01*
X16161445Y-16269421D01*
X16170969Y-16250374D01*
X16180493Y-16240850D01*
X16199540Y-16231326D01*
X16504302Y-16431326D02*
X16504302Y-16231326D01*
X16590017Y-16431326D02*
X16590017Y-16326564D01*
X16580493Y-16307517D01*
X16561445Y-16297993D01*
X16532874Y-16297993D01*
X16513826Y-16307517D01*
X16504302Y-16317040D01*
X16713826Y-16431326D02*
X16694778Y-16421802D01*
X16685255Y-16412278D01*
X16675731Y-16393231D01*
X16675731Y-16336088D01*
X16685255Y-16317040D01*
X16694778Y-16307517D01*
X16713826Y-16297993D01*
X16742398Y-16297993D01*
X16761445Y-16307517D01*
X16770969Y-16317040D01*
X16780493Y-16336088D01*
X16780493Y-16393231D01*
X16770969Y-16412278D01*
X16761445Y-16421802D01*
X16742398Y-16431326D01*
X16713826Y-16431326D01*
X16894779Y-16431326D02*
X16875731Y-16421802D01*
X16866207Y-16402755D01*
X16866207Y-16231326D01*
X17047160Y-16421802D02*
X17028112Y-16431326D01*
X16990017Y-16431326D01*
X16970969Y-16421802D01*
X16961445Y-16402755D01*
X16961445Y-16326564D01*
X16970969Y-16307517D01*
X16990017Y-16297993D01*
X17028112Y-16297993D01*
X17047160Y-16307517D01*
X17056683Y-16326564D01*
X17056683Y-16345612D01*
X16961445Y-16364659D01*
X17132874Y-16421802D02*
X17151921Y-16431326D01*
X17190017Y-16431326D01*
X17209064Y-16421802D01*
X17218588Y-16402755D01*
X17218588Y-16393231D01*
X17209064Y-16374183D01*
X17190017Y-16364659D01*
X17161445Y-16364659D01*
X17142398Y-16355136D01*
X17132874Y-16336088D01*
X17132874Y-16326564D01*
X17142398Y-16307517D01*
X17161445Y-16297993D01*
X17190017Y-16297993D01*
X17209064Y-16307517D01*
X17456683Y-16355136D02*
X17609064Y-16355136D01*
X17532874Y-16431326D02*
X17532874Y-16278945D01*
X17942398Y-16297993D02*
X17942398Y-16431326D01*
X17894779Y-16221802D02*
X17847160Y-16364659D01*
X17970969Y-16364659D01*
X18190017Y-16421802D02*
X18209064Y-16431326D01*
X18247160Y-16431326D01*
X18266207Y-16421802D01*
X18275731Y-16402755D01*
X18275731Y-16393231D01*
X18266207Y-16374183D01*
X18247160Y-16364659D01*
X18218588Y-16364659D01*
X18199540Y-16355136D01*
X18190017Y-16336088D01*
X18190017Y-16326564D01*
X18199540Y-16307517D01*
X18218588Y-16297993D01*
X18247160Y-16297993D01*
X18266207Y-16307517D01*
X18390017Y-16431326D02*
X18370969Y-16421802D01*
X18361445Y-16402755D01*
X18361445Y-16231326D01*
X18494779Y-16431326D02*
X18475731Y-16421802D01*
X18466207Y-16412278D01*
X18456683Y-16393231D01*
X18456683Y-16336088D01*
X18466207Y-16317040D01*
X18475731Y-16307517D01*
X18494779Y-16297993D01*
X18523350Y-16297993D01*
X18542398Y-16307517D01*
X18551921Y-16317040D01*
X18561445Y-16336088D01*
X18561445Y-16393231D01*
X18551921Y-16412278D01*
X18542398Y-16421802D01*
X18523350Y-16431326D01*
X18494779Y-16431326D01*
X18618588Y-16297993D02*
X18694779Y-16297993D01*
X18647160Y-16231326D02*
X18647160Y-16402755D01*
X18656683Y-16421802D01*
X18675731Y-16431326D01*
X18694779Y-16431326D01*
X18751921Y-16421802D02*
X18770969Y-16431326D01*
X18809064Y-16431326D01*
X18828112Y-16421802D01*
X18837636Y-16402755D01*
X18837636Y-16393231D01*
X18828112Y-16374183D01*
X18809064Y-16364659D01*
X18780493Y-16364659D01*
X18761445Y-16355136D01*
X18751921Y-16336088D01*
X18751921Y-16326564D01*
X18761445Y-16307517D01*
X18780493Y-16297993D01*
X18809064Y-16297993D01*
X18828112Y-16307517D01*
X18904302Y-16507517D02*
X18913826Y-16497993D01*
X18932874Y-16469421D01*
X18942398Y-16450374D01*
X18951921Y-16421802D01*
X18961445Y-16374183D01*
X18961445Y-16336088D01*
X18951921Y-16288469D01*
X18942398Y-16259898D01*
X18932874Y-16240850D01*
X18913826Y-16212278D01*
X18904302Y-16202755D01*
D15*
X12501634Y-16633134D02*
X12501634Y-16576565D01*
X12445065Y-16576565D01*
X12445065Y-16633134D01*
X12501634Y-16633134D01*
D12*
X12809064Y-16495326D02*
X12828112Y-16495326D01*
X12847159Y-16504850D01*
X12856683Y-16514374D01*
X12866207Y-16533421D01*
X12875731Y-16571517D01*
X12875731Y-16619136D01*
X12866207Y-16657231D01*
X12856683Y-16676278D01*
X12847159Y-16685802D01*
X12828112Y-16695326D01*
X12809064Y-16695326D01*
X12790017Y-16685802D01*
X12780493Y-16676278D01*
X12770969Y-16657231D01*
X12761445Y-16619136D01*
X12761445Y-16571517D01*
X12770969Y-16533421D01*
X12780493Y-16514374D01*
X12790017Y-16504850D01*
X12809064Y-16495326D01*
X12961445Y-16676278D02*
X12970969Y-16685802D01*
X12961445Y-16695326D01*
X12951921Y-16685802D01*
X12961445Y-16676278D01*
X12961445Y-16695326D01*
X13085255Y-16581040D02*
X13066207Y-16571517D01*
X13056683Y-16561993D01*
X13047159Y-16542945D01*
X13047159Y-16533421D01*
X13056683Y-16514374D01*
X13066207Y-16504850D01*
X13085255Y-16495326D01*
X13123350Y-16495326D01*
X13142398Y-16504850D01*
X13151921Y-16514374D01*
X13161445Y-16533421D01*
X13161445Y-16542945D01*
X13151921Y-16561993D01*
X13142398Y-16571517D01*
X13123350Y-16581040D01*
X13085255Y-16581040D01*
X13066207Y-16590564D01*
X13056683Y-16600088D01*
X13047159Y-16619136D01*
X13047159Y-16657231D01*
X13056683Y-16676278D01*
X13066207Y-16685802D01*
X13085255Y-16695326D01*
X13123350Y-16695326D01*
X13142398Y-16685802D01*
X13151921Y-16676278D01*
X13161445Y-16657231D01*
X13161445Y-16619136D01*
X13151921Y-16600088D01*
X13142398Y-16590564D01*
X13123350Y-16581040D01*
X13285255Y-16495326D02*
X13304302Y-16495326D01*
X13323350Y-16504850D01*
X13332874Y-16514374D01*
X13342398Y-16533421D01*
X13351921Y-16571517D01*
X13351921Y-16619136D01*
X13342398Y-16657231D01*
X13332874Y-16676278D01*
X13323350Y-16685802D01*
X13304302Y-16695326D01*
X13285255Y-16695326D01*
X13266207Y-16685802D01*
X13256683Y-16676278D01*
X13247159Y-16657231D01*
X13237636Y-16619136D01*
X13237636Y-16571517D01*
X13247159Y-16533421D01*
X13256683Y-16514374D01*
X13266207Y-16504850D01*
X13285255Y-16495326D01*
X13475731Y-16495326D02*
X13494778Y-16495326D01*
X13513826Y-16504850D01*
X13523350Y-16514374D01*
X13532874Y-16533421D01*
X13542398Y-16571517D01*
X13542398Y-16619136D01*
X13532874Y-16657231D01*
X13523350Y-16676278D01*
X13513826Y-16685802D01*
X13494778Y-16695326D01*
X13475731Y-16695326D01*
X13456683Y-16685802D01*
X13447159Y-16676278D01*
X13437636Y-16657231D01*
X13428112Y-16619136D01*
X13428112Y-16571517D01*
X13437636Y-16533421D01*
X13447159Y-16514374D01*
X13456683Y-16504850D01*
X13475731Y-16495326D01*
X13628112Y-16695326D02*
X13628112Y-16561993D01*
X13628112Y-16581040D02*
X13637636Y-16571517D01*
X13656683Y-16561993D01*
X13685255Y-16561993D01*
X13704302Y-16571517D01*
X13713826Y-16590564D01*
X13713826Y-16695326D01*
X13713826Y-16590564D02*
X13723350Y-16571517D01*
X13742398Y-16561993D01*
X13770969Y-16561993D01*
X13790017Y-16571517D01*
X13799540Y-16590564D01*
X13799540Y-16695326D01*
X13894778Y-16695326D02*
X13894778Y-16561993D01*
X13894778Y-16581040D02*
X13904302Y-16571517D01*
X13923350Y-16561993D01*
X13951921Y-16561993D01*
X13970969Y-16571517D01*
X13980493Y-16590564D01*
X13980493Y-16695326D01*
X13980493Y-16590564D02*
X13990017Y-16571517D01*
X14009064Y-16561993D01*
X14037636Y-16561993D01*
X14056683Y-16571517D01*
X14066207Y-16590564D01*
X14066207Y-16695326D01*
X14456683Y-16485802D02*
X14285255Y-16742945D01*
X14713826Y-16495326D02*
X14732874Y-16495326D01*
X14751921Y-16504850D01*
X14761445Y-16514374D01*
X14770969Y-16533421D01*
X14780493Y-16571517D01*
X14780493Y-16619136D01*
X14770969Y-16657231D01*
X14761445Y-16676278D01*
X14751921Y-16685802D01*
X14732874Y-16695326D01*
X14713826Y-16695326D01*
X14694778Y-16685802D01*
X14685255Y-16676278D01*
X14675731Y-16657231D01*
X14666207Y-16619136D01*
X14666207Y-16571517D01*
X14675731Y-16533421D01*
X14685255Y-16514374D01*
X14694778Y-16504850D01*
X14713826Y-16495326D01*
X14866207Y-16676278D02*
X14875731Y-16685802D01*
X14866207Y-16695326D01*
X14856683Y-16685802D01*
X14866207Y-16676278D01*
X14866207Y-16695326D01*
X14999540Y-16495326D02*
X15018588Y-16495326D01*
X15037636Y-16504850D01*
X15047159Y-16514374D01*
X15056683Y-16533421D01*
X15066207Y-16571517D01*
X15066207Y-16619136D01*
X15056683Y-16657231D01*
X15047159Y-16676278D01*
X15037636Y-16685802D01*
X15018588Y-16695326D01*
X14999540Y-16695326D01*
X14980493Y-16685802D01*
X14970969Y-16676278D01*
X14961445Y-16657231D01*
X14951921Y-16619136D01*
X14951921Y-16571517D01*
X14961445Y-16533421D01*
X14970969Y-16514374D01*
X14980493Y-16504850D01*
X14999540Y-16495326D01*
X15132874Y-16495326D02*
X15256683Y-16495326D01*
X15190017Y-16571517D01*
X15218588Y-16571517D01*
X15237636Y-16581040D01*
X15247159Y-16590564D01*
X15256683Y-16609612D01*
X15256683Y-16657231D01*
X15247159Y-16676278D01*
X15237636Y-16685802D01*
X15218588Y-16695326D01*
X15161445Y-16695326D01*
X15142398Y-16685802D01*
X15132874Y-16676278D01*
X15447159Y-16695326D02*
X15332874Y-16695326D01*
X15390017Y-16695326D02*
X15390017Y-16495326D01*
X15370969Y-16523898D01*
X15351921Y-16542945D01*
X15332874Y-16552469D01*
X15628112Y-16495326D02*
X15532874Y-16495326D01*
X15523350Y-16590564D01*
X15532874Y-16581040D01*
X15551921Y-16571517D01*
X15599540Y-16571517D01*
X15618588Y-16581040D01*
X15628112Y-16590564D01*
X15637636Y-16609612D01*
X15637636Y-16657231D01*
X15628112Y-16676278D01*
X15618588Y-16685802D01*
X15599540Y-16695326D01*
X15551921Y-16695326D01*
X15532874Y-16685802D01*
X15523350Y-16676278D01*
X15713826Y-16495326D02*
X15713826Y-16533421D01*
X15790017Y-16495326D02*
X15790017Y-16533421D01*
X16085255Y-16771517D02*
X16075731Y-16761993D01*
X16056683Y-16733421D01*
X16047159Y-16714374D01*
X16037636Y-16685802D01*
X16028112Y-16638183D01*
X16028112Y-16600088D01*
X16037636Y-16552469D01*
X16047159Y-16523898D01*
X16056683Y-16504850D01*
X16075731Y-16476278D01*
X16085255Y-16466755D01*
X16142398Y-16495326D02*
X16266207Y-16495326D01*
X16199540Y-16571517D01*
X16228112Y-16571517D01*
X16247159Y-16581040D01*
X16256683Y-16590564D01*
X16266207Y-16609612D01*
X16266207Y-16657231D01*
X16256683Y-16676278D01*
X16247159Y-16685802D01*
X16228112Y-16695326D01*
X16170969Y-16695326D01*
X16151921Y-16685802D01*
X16142398Y-16676278D01*
X16390017Y-16495326D02*
X16409064Y-16495326D01*
X16428112Y-16504850D01*
X16437636Y-16514374D01*
X16447159Y-16533421D01*
X16456683Y-16571517D01*
X16456683Y-16619136D01*
X16447159Y-16657231D01*
X16437636Y-16676278D01*
X16428112Y-16685802D01*
X16409064Y-16695326D01*
X16390017Y-16695326D01*
X16370969Y-16685802D01*
X16361445Y-16676278D01*
X16351921Y-16657231D01*
X16342398Y-16619136D01*
X16342398Y-16571517D01*
X16351921Y-16533421D01*
X16361445Y-16514374D01*
X16370969Y-16504850D01*
X16390017Y-16495326D01*
X16694778Y-16695326D02*
X16694778Y-16495326D01*
X16780493Y-16695326D02*
X16780493Y-16590564D01*
X16770969Y-16571517D01*
X16751921Y-16561993D01*
X16723350Y-16561993D01*
X16704302Y-16571517D01*
X16694778Y-16581040D01*
X16904302Y-16695326D02*
X16885255Y-16685802D01*
X16875731Y-16676278D01*
X16866207Y-16657231D01*
X16866207Y-16600088D01*
X16875731Y-16581040D01*
X16885255Y-16571517D01*
X16904302Y-16561993D01*
X16932874Y-16561993D01*
X16951921Y-16571517D01*
X16961445Y-16581040D01*
X16970969Y-16600088D01*
X16970969Y-16657231D01*
X16961445Y-16676278D01*
X16951921Y-16685802D01*
X16932874Y-16695326D01*
X16904302Y-16695326D01*
X17085255Y-16695326D02*
X17066207Y-16685802D01*
X17056683Y-16666755D01*
X17056683Y-16495326D01*
X17237636Y-16685802D02*
X17218588Y-16695326D01*
X17180493Y-16695326D01*
X17161445Y-16685802D01*
X17151921Y-16666755D01*
X17151921Y-16590564D01*
X17161445Y-16571517D01*
X17180493Y-16561993D01*
X17218588Y-16561993D01*
X17237636Y-16571517D01*
X17247160Y-16590564D01*
X17247160Y-16609612D01*
X17151921Y-16628659D01*
X17323350Y-16685802D02*
X17342398Y-16695326D01*
X17380493Y-16695326D01*
X17399540Y-16685802D01*
X17409064Y-16666755D01*
X17409064Y-16657231D01*
X17399540Y-16638183D01*
X17380493Y-16628659D01*
X17351921Y-16628659D01*
X17332874Y-16619136D01*
X17323350Y-16600088D01*
X17323350Y-16590564D01*
X17332874Y-16571517D01*
X17351921Y-16561993D01*
X17380493Y-16561993D01*
X17399540Y-16571517D01*
X17475731Y-16771517D02*
X17485255Y-16761993D01*
X17504302Y-16733421D01*
X17513826Y-16714374D01*
X17523350Y-16685802D01*
X17532874Y-16638183D01*
X17532874Y-16600088D01*
X17523350Y-16552469D01*
X17513826Y-16523898D01*
X17504302Y-16504850D01*
X17485255Y-16476278D01*
X17475731Y-16466755D01*
D16*
X12468350Y-16913850D02*
X12513350Y-16868850D01*
X12468350Y-16823850D01*
X12423350Y-16868850D01*
X12468350Y-16913850D01*
D12*
X12809064Y-16759326D02*
X12828112Y-16759326D01*
X12847159Y-16768850D01*
X12856683Y-16778374D01*
X12866207Y-16797421D01*
X12875731Y-16835517D01*
X12875731Y-16883136D01*
X12866207Y-16921231D01*
X12856683Y-16940279D01*
X12847159Y-16949802D01*
X12828112Y-16959326D01*
X12809064Y-16959326D01*
X12790017Y-16949802D01*
X12780493Y-16940279D01*
X12770969Y-16921231D01*
X12761445Y-16883136D01*
X12761445Y-16835517D01*
X12770969Y-16797421D01*
X12780493Y-16778374D01*
X12790017Y-16768850D01*
X12809064Y-16759326D01*
X12961445Y-16940279D02*
X12970969Y-16949802D01*
X12961445Y-16959326D01*
X12951921Y-16949802D01*
X12961445Y-16940279D01*
X12961445Y-16959326D01*
X13066207Y-16959326D02*
X13104302Y-16959326D01*
X13123350Y-16949802D01*
X13132874Y-16940279D01*
X13151921Y-16911707D01*
X13161445Y-16873612D01*
X13161445Y-16797421D01*
X13151921Y-16778374D01*
X13142398Y-16768850D01*
X13123350Y-16759326D01*
X13085255Y-16759326D01*
X13066207Y-16768850D01*
X13056683Y-16778374D01*
X13047159Y-16797421D01*
X13047159Y-16845040D01*
X13056683Y-16864088D01*
X13066207Y-16873612D01*
X13085255Y-16883136D01*
X13123350Y-16883136D01*
X13142398Y-16873612D01*
X13151921Y-16864088D01*
X13161445Y-16845040D01*
X13285255Y-16759326D02*
X13304302Y-16759326D01*
X13323350Y-16768850D01*
X13332874Y-16778374D01*
X13342398Y-16797421D01*
X13351921Y-16835517D01*
X13351921Y-16883136D01*
X13342398Y-16921231D01*
X13332874Y-16940279D01*
X13323350Y-16949802D01*
X13304302Y-16959326D01*
X13285255Y-16959326D01*
X13266207Y-16949802D01*
X13256683Y-16940279D01*
X13247159Y-16921231D01*
X13237636Y-16883136D01*
X13237636Y-16835517D01*
X13247159Y-16797421D01*
X13256683Y-16778374D01*
X13266207Y-16768850D01*
X13285255Y-16759326D01*
X13475731Y-16759326D02*
X13494778Y-16759326D01*
X13513826Y-16768850D01*
X13523350Y-16778374D01*
X13532874Y-16797421D01*
X13542398Y-16835517D01*
X13542398Y-16883136D01*
X13532874Y-16921231D01*
X13523350Y-16940279D01*
X13513826Y-16949802D01*
X13494778Y-16959326D01*
X13475731Y-16959326D01*
X13456683Y-16949802D01*
X13447159Y-16940279D01*
X13437636Y-16921231D01*
X13428112Y-16883136D01*
X13428112Y-16835517D01*
X13437636Y-16797421D01*
X13447159Y-16778374D01*
X13456683Y-16768850D01*
X13475731Y-16759326D01*
X13628112Y-16959326D02*
X13628112Y-16825993D01*
X13628112Y-16845040D02*
X13637636Y-16835517D01*
X13656683Y-16825993D01*
X13685255Y-16825993D01*
X13704302Y-16835517D01*
X13713826Y-16854564D01*
X13713826Y-16959326D01*
X13713826Y-16854564D02*
X13723350Y-16835517D01*
X13742398Y-16825993D01*
X13770969Y-16825993D01*
X13790017Y-16835517D01*
X13799540Y-16854564D01*
X13799540Y-16959326D01*
X13894778Y-16959326D02*
X13894778Y-16825993D01*
X13894778Y-16845040D02*
X13904302Y-16835517D01*
X13923350Y-16825993D01*
X13951921Y-16825993D01*
X13970969Y-16835517D01*
X13980493Y-16854564D01*
X13980493Y-16959326D01*
X13980493Y-16854564D02*
X13990017Y-16835517D01*
X14009064Y-16825993D01*
X14037636Y-16825993D01*
X14056683Y-16835517D01*
X14066207Y-16854564D01*
X14066207Y-16959326D01*
X14456683Y-16749802D02*
X14285255Y-17006945D01*
X14713826Y-16759326D02*
X14732874Y-16759326D01*
X14751921Y-16768850D01*
X14761445Y-16778374D01*
X14770969Y-16797421D01*
X14780493Y-16835517D01*
X14780493Y-16883136D01*
X14770969Y-16921231D01*
X14761445Y-16940279D01*
X14751921Y-16949802D01*
X14732874Y-16959326D01*
X14713826Y-16959326D01*
X14694778Y-16949802D01*
X14685255Y-16940279D01*
X14675731Y-16921231D01*
X14666207Y-16883136D01*
X14666207Y-16835517D01*
X14675731Y-16797421D01*
X14685255Y-16778374D01*
X14694778Y-16768850D01*
X14713826Y-16759326D01*
X14866207Y-16940279D02*
X14875731Y-16949802D01*
X14866207Y-16959326D01*
X14856683Y-16949802D01*
X14866207Y-16940279D01*
X14866207Y-16959326D01*
X14999540Y-16759326D02*
X15018588Y-16759326D01*
X15037636Y-16768850D01*
X15047159Y-16778374D01*
X15056683Y-16797421D01*
X15066207Y-16835517D01*
X15066207Y-16883136D01*
X15056683Y-16921231D01*
X15047159Y-16940279D01*
X15037636Y-16949802D01*
X15018588Y-16959326D01*
X14999540Y-16959326D01*
X14980493Y-16949802D01*
X14970969Y-16940279D01*
X14961445Y-16921231D01*
X14951921Y-16883136D01*
X14951921Y-16835517D01*
X14961445Y-16797421D01*
X14970969Y-16778374D01*
X14980493Y-16768850D01*
X14999540Y-16759326D01*
X15132874Y-16759326D02*
X15256683Y-16759326D01*
X15190017Y-16835517D01*
X15218588Y-16835517D01*
X15237636Y-16845040D01*
X15247159Y-16854564D01*
X15256683Y-16873612D01*
X15256683Y-16921231D01*
X15247159Y-16940279D01*
X15237636Y-16949802D01*
X15218588Y-16959326D01*
X15161445Y-16959326D01*
X15142398Y-16949802D01*
X15132874Y-16940279D01*
X15437636Y-16759326D02*
X15342398Y-16759326D01*
X15332874Y-16854564D01*
X15342398Y-16845040D01*
X15361445Y-16835517D01*
X15409064Y-16835517D01*
X15428112Y-16845040D01*
X15437636Y-16854564D01*
X15447159Y-16873612D01*
X15447159Y-16921231D01*
X15437636Y-16940279D01*
X15428112Y-16949802D01*
X15409064Y-16959326D01*
X15361445Y-16959326D01*
X15342398Y-16949802D01*
X15332874Y-16940279D01*
X15618588Y-16825993D02*
X15618588Y-16959326D01*
X15570969Y-16749802D02*
X15523350Y-16892660D01*
X15647159Y-16892660D01*
X15713826Y-16759326D02*
X15713826Y-16797421D01*
X15790017Y-16759326D02*
X15790017Y-16797421D01*
X16085255Y-17035517D02*
X16075731Y-17025993D01*
X16056683Y-16997421D01*
X16047159Y-16978374D01*
X16037636Y-16949802D01*
X16028112Y-16902183D01*
X16028112Y-16864088D01*
X16037636Y-16816469D01*
X16047159Y-16787898D01*
X16056683Y-16768850D01*
X16075731Y-16740278D01*
X16085255Y-16730755D01*
X16190017Y-16845040D02*
X16170969Y-16835517D01*
X16161445Y-16825993D01*
X16151921Y-16806945D01*
X16151921Y-16797421D01*
X16161445Y-16778374D01*
X16170969Y-16768850D01*
X16190017Y-16759326D01*
X16228112Y-16759326D01*
X16247159Y-16768850D01*
X16256683Y-16778374D01*
X16266207Y-16797421D01*
X16266207Y-16806945D01*
X16256683Y-16825993D01*
X16247159Y-16835517D01*
X16228112Y-16845040D01*
X16190017Y-16845040D01*
X16170969Y-16854564D01*
X16161445Y-16864088D01*
X16151921Y-16883136D01*
X16151921Y-16921231D01*
X16161445Y-16940279D01*
X16170969Y-16949802D01*
X16190017Y-16959326D01*
X16228112Y-16959326D01*
X16247159Y-16949802D01*
X16256683Y-16940279D01*
X16266207Y-16921231D01*
X16266207Y-16883136D01*
X16256683Y-16864088D01*
X16247159Y-16854564D01*
X16228112Y-16845040D01*
X16504302Y-16959326D02*
X16504302Y-16759326D01*
X16590017Y-16959326D02*
X16590017Y-16854564D01*
X16580493Y-16835517D01*
X16561445Y-16825993D01*
X16532874Y-16825993D01*
X16513826Y-16835517D01*
X16504302Y-16845040D01*
X16713826Y-16959326D02*
X16694778Y-16949802D01*
X16685255Y-16940279D01*
X16675731Y-16921231D01*
X16675731Y-16864088D01*
X16685255Y-16845040D01*
X16694778Y-16835517D01*
X16713826Y-16825993D01*
X16742398Y-16825993D01*
X16761445Y-16835517D01*
X16770969Y-16845040D01*
X16780493Y-16864088D01*
X16780493Y-16921231D01*
X16770969Y-16940279D01*
X16761445Y-16949802D01*
X16742398Y-16959326D01*
X16713826Y-16959326D01*
X16894779Y-16959326D02*
X16875731Y-16949802D01*
X16866207Y-16930755D01*
X16866207Y-16759326D01*
X17047160Y-16949802D02*
X17028112Y-16959326D01*
X16990017Y-16959326D01*
X16970969Y-16949802D01*
X16961445Y-16930755D01*
X16961445Y-16854564D01*
X16970969Y-16835517D01*
X16990017Y-16825993D01*
X17028112Y-16825993D01*
X17047160Y-16835517D01*
X17056683Y-16854564D01*
X17056683Y-16873612D01*
X16961445Y-16892660D01*
X17132874Y-16949802D02*
X17151921Y-16959326D01*
X17190017Y-16959326D01*
X17209064Y-16949802D01*
X17218588Y-16930755D01*
X17218588Y-16921231D01*
X17209064Y-16902183D01*
X17190017Y-16892660D01*
X17161445Y-16892660D01*
X17142398Y-16883136D01*
X17132874Y-16864088D01*
X17132874Y-16854564D01*
X17142398Y-16835517D01*
X17161445Y-16825993D01*
X17190017Y-16825993D01*
X17209064Y-16835517D01*
X17285255Y-17035517D02*
X17294779Y-17025993D01*
X17313826Y-16997421D01*
X17323350Y-16978374D01*
X17332874Y-16949802D01*
X17342398Y-16902183D01*
X17342398Y-16864088D01*
X17332874Y-16816469D01*
X17323350Y-16787898D01*
X17313826Y-16768850D01*
X17294779Y-16740278D01*
X17285255Y-16730755D01*
D17*
X12418350Y-17085350D02*
X12513350Y-17180350D01*
X12513350Y-17085350D02*
X12418350Y-17180350D01*
X12513350Y-17132850D02*
G75*
G03*
X12513350Y-17132850I-47500J0D01*
G01*
D12*
X12809064Y-17023326D02*
X12828112Y-17023326D01*
X12847159Y-17032850D01*
X12856683Y-17042374D01*
X12866207Y-17061421D01*
X12875731Y-17099517D01*
X12875731Y-17147136D01*
X12866207Y-17185231D01*
X12856683Y-17204279D01*
X12847159Y-17213802D01*
X12828112Y-17223326D01*
X12809064Y-17223326D01*
X12790017Y-17213802D01*
X12780493Y-17204279D01*
X12770969Y-17185231D01*
X12761445Y-17147136D01*
X12761445Y-17099517D01*
X12770969Y-17061421D01*
X12780493Y-17042374D01*
X12790017Y-17032850D01*
X12809064Y-17023326D01*
X12961445Y-17204279D02*
X12970969Y-17213802D01*
X12961445Y-17223326D01*
X12951921Y-17213802D01*
X12961445Y-17204279D01*
X12961445Y-17223326D01*
X13066207Y-17223326D02*
X13104302Y-17223326D01*
X13123350Y-17213802D01*
X13132874Y-17204279D01*
X13151921Y-17175707D01*
X13161445Y-17137612D01*
X13161445Y-17061421D01*
X13151921Y-17042374D01*
X13142398Y-17032850D01*
X13123350Y-17023326D01*
X13085255Y-17023326D01*
X13066207Y-17032850D01*
X13056683Y-17042374D01*
X13047159Y-17061421D01*
X13047159Y-17109040D01*
X13056683Y-17128088D01*
X13066207Y-17137612D01*
X13085255Y-17147136D01*
X13123350Y-17147136D01*
X13142398Y-17137612D01*
X13151921Y-17128088D01*
X13161445Y-17109040D01*
X13342398Y-17023326D02*
X13247159Y-17023326D01*
X13237636Y-17118564D01*
X13247159Y-17109040D01*
X13266207Y-17099517D01*
X13313826Y-17099517D01*
X13332874Y-17109040D01*
X13342398Y-17118564D01*
X13351921Y-17137612D01*
X13351921Y-17185231D01*
X13342398Y-17204279D01*
X13332874Y-17213802D01*
X13313826Y-17223326D01*
X13266207Y-17223326D01*
X13247159Y-17213802D01*
X13237636Y-17204279D01*
X13475731Y-17023326D02*
X13494778Y-17023326D01*
X13513826Y-17032850D01*
X13523350Y-17042374D01*
X13532874Y-17061421D01*
X13542398Y-17099517D01*
X13542398Y-17147136D01*
X13532874Y-17185231D01*
X13523350Y-17204279D01*
X13513826Y-17213802D01*
X13494778Y-17223326D01*
X13475731Y-17223326D01*
X13456683Y-17213802D01*
X13447159Y-17204279D01*
X13437636Y-17185231D01*
X13428112Y-17147136D01*
X13428112Y-17099517D01*
X13437636Y-17061421D01*
X13447159Y-17042374D01*
X13456683Y-17032850D01*
X13475731Y-17023326D01*
X13628112Y-17223326D02*
X13628112Y-17089993D01*
X13628112Y-17109040D02*
X13637636Y-17099517D01*
X13656683Y-17089993D01*
X13685255Y-17089993D01*
X13704302Y-17099517D01*
X13713826Y-17118564D01*
X13713826Y-17223326D01*
X13713826Y-17118564D02*
X13723350Y-17099517D01*
X13742398Y-17089993D01*
X13770969Y-17089993D01*
X13790017Y-17099517D01*
X13799540Y-17118564D01*
X13799540Y-17223326D01*
X13894778Y-17223326D02*
X13894778Y-17089993D01*
X13894778Y-17109040D02*
X13904302Y-17099517D01*
X13923350Y-17089993D01*
X13951921Y-17089993D01*
X13970969Y-17099517D01*
X13980493Y-17118564D01*
X13980493Y-17223326D01*
X13980493Y-17118564D02*
X13990017Y-17099517D01*
X14009064Y-17089993D01*
X14037636Y-17089993D01*
X14056683Y-17099517D01*
X14066207Y-17118564D01*
X14066207Y-17223326D01*
X14456683Y-17013802D02*
X14285255Y-17270945D01*
X14713826Y-17023326D02*
X14732874Y-17023326D01*
X14751921Y-17032850D01*
X14761445Y-17042374D01*
X14770969Y-17061421D01*
X14780493Y-17099517D01*
X14780493Y-17147136D01*
X14770969Y-17185231D01*
X14761445Y-17204279D01*
X14751921Y-17213802D01*
X14732874Y-17223326D01*
X14713826Y-17223326D01*
X14694778Y-17213802D01*
X14685255Y-17204279D01*
X14675731Y-17185231D01*
X14666207Y-17147136D01*
X14666207Y-17099517D01*
X14675731Y-17061421D01*
X14685255Y-17042374D01*
X14694778Y-17032850D01*
X14713826Y-17023326D01*
X14866207Y-17204279D02*
X14875731Y-17213802D01*
X14866207Y-17223326D01*
X14856683Y-17213802D01*
X14866207Y-17204279D01*
X14866207Y-17223326D01*
X14999540Y-17023326D02*
X15018588Y-17023326D01*
X15037636Y-17032850D01*
X15047159Y-17042374D01*
X15056683Y-17061421D01*
X15066207Y-17099517D01*
X15066207Y-17147136D01*
X15056683Y-17185231D01*
X15047159Y-17204279D01*
X15037636Y-17213802D01*
X15018588Y-17223326D01*
X14999540Y-17223326D01*
X14980493Y-17213802D01*
X14970969Y-17204279D01*
X14961445Y-17185231D01*
X14951921Y-17147136D01*
X14951921Y-17099517D01*
X14961445Y-17061421D01*
X14970969Y-17042374D01*
X14980493Y-17032850D01*
X14999540Y-17023326D01*
X15132874Y-17023326D02*
X15256683Y-17023326D01*
X15190017Y-17099517D01*
X15218588Y-17099517D01*
X15237636Y-17109040D01*
X15247159Y-17118564D01*
X15256683Y-17137612D01*
X15256683Y-17185231D01*
X15247159Y-17204279D01*
X15237636Y-17213802D01*
X15218588Y-17223326D01*
X15161445Y-17223326D01*
X15142398Y-17213802D01*
X15132874Y-17204279D01*
X15323350Y-17023326D02*
X15456683Y-17023326D01*
X15370969Y-17223326D01*
X15618588Y-17089993D02*
X15618588Y-17223326D01*
X15570969Y-17013802D02*
X15523350Y-17156660D01*
X15647159Y-17156660D01*
X15713826Y-17023326D02*
X15713826Y-17061421D01*
X15790017Y-17023326D02*
X15790017Y-17061421D01*
X16085255Y-17299517D02*
X16075731Y-17289993D01*
X16056683Y-17261421D01*
X16047159Y-17242374D01*
X16037636Y-17213802D01*
X16028112Y-17166183D01*
X16028112Y-17128088D01*
X16037636Y-17080469D01*
X16047159Y-17051898D01*
X16056683Y-17032850D01*
X16075731Y-17004279D01*
X16085255Y-16994755D01*
X16247159Y-17089993D02*
X16247159Y-17223326D01*
X16199540Y-17013802D02*
X16151921Y-17156660D01*
X16275731Y-17156660D01*
X16504302Y-17223326D02*
X16504302Y-17023326D01*
X16590017Y-17223326D02*
X16590017Y-17118564D01*
X16580493Y-17099517D01*
X16561445Y-17089993D01*
X16532874Y-17089993D01*
X16513826Y-17099517D01*
X16504302Y-17109040D01*
X16713826Y-17223326D02*
X16694778Y-17213802D01*
X16685255Y-17204279D01*
X16675731Y-17185231D01*
X16675731Y-17128088D01*
X16685255Y-17109040D01*
X16694778Y-17099517D01*
X16713826Y-17089993D01*
X16742398Y-17089993D01*
X16761445Y-17099517D01*
X16770969Y-17109040D01*
X16780493Y-17128088D01*
X16780493Y-17185231D01*
X16770969Y-17204279D01*
X16761445Y-17213802D01*
X16742398Y-17223326D01*
X16713826Y-17223326D01*
X16894779Y-17223326D02*
X16875731Y-17213802D01*
X16866207Y-17194755D01*
X16866207Y-17023326D01*
X17047160Y-17213802D02*
X17028112Y-17223326D01*
X16990017Y-17223326D01*
X16970969Y-17213802D01*
X16961445Y-17194755D01*
X16961445Y-17118564D01*
X16970969Y-17099517D01*
X16990017Y-17089993D01*
X17028112Y-17089993D01*
X17047160Y-17099517D01*
X17056683Y-17118564D01*
X17056683Y-17137612D01*
X16961445Y-17156660D01*
X17132874Y-17213802D02*
X17151921Y-17223326D01*
X17190017Y-17223326D01*
X17209064Y-17213802D01*
X17218588Y-17194755D01*
X17218588Y-17185231D01*
X17209064Y-17166183D01*
X17190017Y-17156660D01*
X17161445Y-17156660D01*
X17142398Y-17147136D01*
X17132874Y-17128088D01*
X17132874Y-17118564D01*
X17142398Y-17099517D01*
X17161445Y-17089993D01*
X17190017Y-17089993D01*
X17209064Y-17099517D01*
X17285255Y-17299517D02*
X17294779Y-17289993D01*
X17313826Y-17261421D01*
X17323350Y-17242374D01*
X17332874Y-17213802D01*
X17342398Y-17166183D01*
X17342398Y-17128088D01*
X17332874Y-17080469D01*
X17323350Y-17051898D01*
X17313826Y-17032850D01*
X17294779Y-17004279D01*
X17285255Y-16994755D01*
D18*
X12413350Y-17346850D02*
X12513350Y-17446850D01*
X12513350Y-17346850D02*
X12413350Y-17446850D01*
X12463350Y-17346850D02*
X12463350Y-17446850D01*
X12413350Y-17396850D02*
X12513350Y-17396850D01*
D12*
X12875731Y-17487326D02*
X12761445Y-17487326D01*
X12818588Y-17487326D02*
X12818588Y-17287326D01*
X12799540Y-17315898D01*
X12780493Y-17334945D01*
X12761445Y-17344469D01*
X12961445Y-17468279D02*
X12970969Y-17477802D01*
X12961445Y-17487326D01*
X12951921Y-17477802D01*
X12961445Y-17468279D01*
X12961445Y-17487326D01*
X13094778Y-17287326D02*
X13113826Y-17287326D01*
X13132874Y-17296850D01*
X13142398Y-17306374D01*
X13151921Y-17325421D01*
X13161445Y-17363517D01*
X13161445Y-17411136D01*
X13151921Y-17449231D01*
X13142398Y-17468279D01*
X13132874Y-17477802D01*
X13113826Y-17487326D01*
X13094778Y-17487326D01*
X13075731Y-17477802D01*
X13066207Y-17468279D01*
X13056683Y-17449231D01*
X13047159Y-17411136D01*
X13047159Y-17363517D01*
X13056683Y-17325421D01*
X13066207Y-17306374D01*
X13075731Y-17296850D01*
X13094778Y-17287326D01*
X13285255Y-17287326D02*
X13304302Y-17287326D01*
X13323350Y-17296850D01*
X13332874Y-17306374D01*
X13342398Y-17325421D01*
X13351921Y-17363517D01*
X13351921Y-17411136D01*
X13342398Y-17449231D01*
X13332874Y-17468279D01*
X13323350Y-17477802D01*
X13304302Y-17487326D01*
X13285255Y-17487326D01*
X13266207Y-17477802D01*
X13256683Y-17468279D01*
X13247159Y-17449231D01*
X13237636Y-17411136D01*
X13237636Y-17363517D01*
X13247159Y-17325421D01*
X13256683Y-17306374D01*
X13266207Y-17296850D01*
X13285255Y-17287326D01*
X13475731Y-17287326D02*
X13494778Y-17287326D01*
X13513826Y-17296850D01*
X13523350Y-17306374D01*
X13532874Y-17325421D01*
X13542398Y-17363517D01*
X13542398Y-17411136D01*
X13532874Y-17449231D01*
X13523350Y-17468279D01*
X13513826Y-17477802D01*
X13494778Y-17487326D01*
X13475731Y-17487326D01*
X13456683Y-17477802D01*
X13447159Y-17468279D01*
X13437636Y-17449231D01*
X13428112Y-17411136D01*
X13428112Y-17363517D01*
X13437636Y-17325421D01*
X13447159Y-17306374D01*
X13456683Y-17296850D01*
X13475731Y-17287326D01*
X13628112Y-17487326D02*
X13628112Y-17353993D01*
X13628112Y-17373040D02*
X13637636Y-17363517D01*
X13656683Y-17353993D01*
X13685255Y-17353993D01*
X13704302Y-17363517D01*
X13713826Y-17382564D01*
X13713826Y-17487326D01*
X13713826Y-17382564D02*
X13723350Y-17363517D01*
X13742398Y-17353993D01*
X13770969Y-17353993D01*
X13790017Y-17363517D01*
X13799540Y-17382564D01*
X13799540Y-17487326D01*
X13894778Y-17487326D02*
X13894778Y-17353993D01*
X13894778Y-17373040D02*
X13904302Y-17363517D01*
X13923350Y-17353993D01*
X13951921Y-17353993D01*
X13970969Y-17363517D01*
X13980493Y-17382564D01*
X13980493Y-17487326D01*
X13980493Y-17382564D02*
X13990017Y-17363517D01*
X14009064Y-17353993D01*
X14037636Y-17353993D01*
X14056683Y-17363517D01*
X14066207Y-17382564D01*
X14066207Y-17487326D01*
X14456683Y-17277802D02*
X14285255Y-17534945D01*
X14713826Y-17287326D02*
X14732874Y-17287326D01*
X14751921Y-17296850D01*
X14761445Y-17306374D01*
X14770969Y-17325421D01*
X14780493Y-17363517D01*
X14780493Y-17411136D01*
X14770969Y-17449231D01*
X14761445Y-17468279D01*
X14751921Y-17477802D01*
X14732874Y-17487326D01*
X14713826Y-17487326D01*
X14694778Y-17477802D01*
X14685255Y-17468279D01*
X14675731Y-17449231D01*
X14666207Y-17411136D01*
X14666207Y-17363517D01*
X14675731Y-17325421D01*
X14685255Y-17306374D01*
X14694778Y-17296850D01*
X14713826Y-17287326D01*
X14866207Y-17468279D02*
X14875731Y-17477802D01*
X14866207Y-17487326D01*
X14856683Y-17477802D01*
X14866207Y-17468279D01*
X14866207Y-17487326D01*
X14999540Y-17287326D02*
X15018588Y-17287326D01*
X15037636Y-17296850D01*
X15047159Y-17306374D01*
X15056683Y-17325421D01*
X15066207Y-17363517D01*
X15066207Y-17411136D01*
X15056683Y-17449231D01*
X15047159Y-17468279D01*
X15037636Y-17477802D01*
X15018588Y-17487326D01*
X14999540Y-17487326D01*
X14980493Y-17477802D01*
X14970969Y-17468279D01*
X14961445Y-17449231D01*
X14951921Y-17411136D01*
X14951921Y-17363517D01*
X14961445Y-17325421D01*
X14970969Y-17306374D01*
X14980493Y-17296850D01*
X14999540Y-17287326D01*
X15132874Y-17287326D02*
X15256683Y-17287326D01*
X15190017Y-17363517D01*
X15218588Y-17363517D01*
X15237636Y-17373040D01*
X15247159Y-17382564D01*
X15256683Y-17401612D01*
X15256683Y-17449231D01*
X15247159Y-17468279D01*
X15237636Y-17477802D01*
X15218588Y-17487326D01*
X15161445Y-17487326D01*
X15142398Y-17477802D01*
X15132874Y-17468279D01*
X15351921Y-17487326D02*
X15390017Y-17487326D01*
X15409064Y-17477802D01*
X15418588Y-17468279D01*
X15437636Y-17439707D01*
X15447159Y-17401612D01*
X15447159Y-17325421D01*
X15437636Y-17306374D01*
X15428112Y-17296850D01*
X15409064Y-17287326D01*
X15370969Y-17287326D01*
X15351921Y-17296850D01*
X15342398Y-17306374D01*
X15332874Y-17325421D01*
X15332874Y-17373040D01*
X15342398Y-17392088D01*
X15351921Y-17401612D01*
X15370969Y-17411136D01*
X15409064Y-17411136D01*
X15428112Y-17401612D01*
X15437636Y-17392088D01*
X15447159Y-17373040D01*
X15618588Y-17353993D02*
X15618588Y-17487326D01*
X15570969Y-17277802D02*
X15523350Y-17420660D01*
X15647159Y-17420660D01*
X15713826Y-17287326D02*
X15713826Y-17325421D01*
X15790017Y-17287326D02*
X15790017Y-17325421D01*
X16085255Y-17563517D02*
X16075731Y-17553993D01*
X16056683Y-17525421D01*
X16047159Y-17506374D01*
X16037636Y-17477802D01*
X16028112Y-17430183D01*
X16028112Y-17392088D01*
X16037636Y-17344469D01*
X16047159Y-17315898D01*
X16056683Y-17296850D01*
X16075731Y-17268279D01*
X16085255Y-17258755D01*
X16266207Y-17487326D02*
X16151921Y-17487326D01*
X16209064Y-17487326D02*
X16209064Y-17287326D01*
X16190017Y-17315898D01*
X16170969Y-17334945D01*
X16151921Y-17344469D01*
X16342398Y-17306374D02*
X16351921Y-17296850D01*
X16370969Y-17287326D01*
X16418588Y-17287326D01*
X16437636Y-17296850D01*
X16447159Y-17306374D01*
X16456683Y-17325421D01*
X16456683Y-17344469D01*
X16447159Y-17373040D01*
X16332874Y-17487326D01*
X16456683Y-17487326D01*
X16694778Y-17487326D02*
X16694778Y-17287326D01*
X16780493Y-17487326D02*
X16780493Y-17382564D01*
X16770969Y-17363517D01*
X16751921Y-17353993D01*
X16723350Y-17353993D01*
X16704302Y-17363517D01*
X16694778Y-17373040D01*
X16904302Y-17487326D02*
X16885255Y-17477802D01*
X16875731Y-17468279D01*
X16866207Y-17449231D01*
X16866207Y-17392088D01*
X16875731Y-17373040D01*
X16885255Y-17363517D01*
X16904302Y-17353993D01*
X16932874Y-17353993D01*
X16951921Y-17363517D01*
X16961445Y-17373040D01*
X16970969Y-17392088D01*
X16970969Y-17449231D01*
X16961445Y-17468279D01*
X16951921Y-17477802D01*
X16932874Y-17487326D01*
X16904302Y-17487326D01*
X17085255Y-17487326D02*
X17066207Y-17477802D01*
X17056683Y-17458755D01*
X17056683Y-17287326D01*
X17237636Y-17477802D02*
X17218588Y-17487326D01*
X17180493Y-17487326D01*
X17161445Y-17477802D01*
X17151921Y-17458755D01*
X17151921Y-17382564D01*
X17161445Y-17363517D01*
X17180493Y-17353993D01*
X17218588Y-17353993D01*
X17237636Y-17363517D01*
X17247160Y-17382564D01*
X17247160Y-17401612D01*
X17151921Y-17420660D01*
X17323350Y-17477802D02*
X17342398Y-17487326D01*
X17380493Y-17487326D01*
X17399540Y-17477802D01*
X17409064Y-17458755D01*
X17409064Y-17449231D01*
X17399540Y-17430183D01*
X17380493Y-17420660D01*
X17351921Y-17420660D01*
X17332874Y-17411136D01*
X17323350Y-17392088D01*
X17323350Y-17382564D01*
X17332874Y-17363517D01*
X17351921Y-17353993D01*
X17380493Y-17353993D01*
X17399540Y-17363517D01*
X17475731Y-17563517D02*
X17485255Y-17553993D01*
X17504302Y-17525421D01*
X17513826Y-17506374D01*
X17523350Y-17477802D01*
X17532874Y-17430183D01*
X17532874Y-17392088D01*
X17523350Y-17344469D01*
X17513826Y-17315898D01*
X17504302Y-17296850D01*
X17485255Y-17268279D01*
X17475731Y-17258755D01*
D19*
X12403350Y-17605850D02*
X12513350Y-17715850D01*
X12513350Y-17605850D02*
X12403350Y-17715850D01*
X12497241Y-17699741D02*
X12497241Y-17621959D01*
X12419459Y-17621959D01*
X12419459Y-17699741D01*
X12497241Y-17699741D01*
D12*
X12875731Y-17751326D02*
X12761445Y-17751326D01*
X12818588Y-17751326D02*
X12818588Y-17551326D01*
X12799540Y-17579898D01*
X12780493Y-17598945D01*
X12761445Y-17608469D01*
X12961445Y-17732279D02*
X12970969Y-17741802D01*
X12961445Y-17751326D01*
X12951921Y-17741802D01*
X12961445Y-17732279D01*
X12961445Y-17751326D01*
X13161445Y-17751326D02*
X13047159Y-17751326D01*
X13104302Y-17751326D02*
X13104302Y-17551326D01*
X13085255Y-17579898D01*
X13066207Y-17598945D01*
X13047159Y-17608469D01*
X13285255Y-17551326D02*
X13304302Y-17551326D01*
X13323350Y-17560850D01*
X13332874Y-17570374D01*
X13342398Y-17589421D01*
X13351921Y-17627517D01*
X13351921Y-17675136D01*
X13342398Y-17713231D01*
X13332874Y-17732279D01*
X13323350Y-17741802D01*
X13304302Y-17751326D01*
X13285255Y-17751326D01*
X13266207Y-17741802D01*
X13256683Y-17732279D01*
X13247159Y-17713231D01*
X13237636Y-17675136D01*
X13237636Y-17627517D01*
X13247159Y-17589421D01*
X13256683Y-17570374D01*
X13266207Y-17560850D01*
X13285255Y-17551326D01*
X13475731Y-17551326D02*
X13494778Y-17551326D01*
X13513826Y-17560850D01*
X13523350Y-17570374D01*
X13532874Y-17589421D01*
X13542398Y-17627517D01*
X13542398Y-17675136D01*
X13532874Y-17713231D01*
X13523350Y-17732279D01*
X13513826Y-17741802D01*
X13494778Y-17751326D01*
X13475731Y-17751326D01*
X13456683Y-17741802D01*
X13447159Y-17732279D01*
X13437636Y-17713231D01*
X13428112Y-17675136D01*
X13428112Y-17627517D01*
X13437636Y-17589421D01*
X13447159Y-17570374D01*
X13456683Y-17560850D01*
X13475731Y-17551326D01*
X13628112Y-17751326D02*
X13628112Y-17617993D01*
X13628112Y-17637040D02*
X13637636Y-17627517D01*
X13656683Y-17617993D01*
X13685255Y-17617993D01*
X13704302Y-17627517D01*
X13713826Y-17646564D01*
X13713826Y-17751326D01*
X13713826Y-17646564D02*
X13723350Y-17627517D01*
X13742398Y-17617993D01*
X13770969Y-17617993D01*
X13790017Y-17627517D01*
X13799540Y-17646564D01*
X13799540Y-17751326D01*
X13894778Y-17751326D02*
X13894778Y-17617993D01*
X13894778Y-17637040D02*
X13904302Y-17627517D01*
X13923350Y-17617993D01*
X13951921Y-17617993D01*
X13970969Y-17627517D01*
X13980493Y-17646564D01*
X13980493Y-17751326D01*
X13980493Y-17646564D02*
X13990017Y-17627517D01*
X14009064Y-17617993D01*
X14037636Y-17617993D01*
X14056683Y-17627517D01*
X14066207Y-17646564D01*
X14066207Y-17751326D01*
X14456683Y-17541802D02*
X14285255Y-17798945D01*
X14713826Y-17551326D02*
X14732874Y-17551326D01*
X14751921Y-17560850D01*
X14761445Y-17570374D01*
X14770969Y-17589421D01*
X14780493Y-17627517D01*
X14780493Y-17675136D01*
X14770969Y-17713231D01*
X14761445Y-17732279D01*
X14751921Y-17741802D01*
X14732874Y-17751326D01*
X14713826Y-17751326D01*
X14694778Y-17741802D01*
X14685255Y-17732279D01*
X14675731Y-17713231D01*
X14666207Y-17675136D01*
X14666207Y-17627517D01*
X14675731Y-17589421D01*
X14685255Y-17570374D01*
X14694778Y-17560850D01*
X14713826Y-17551326D01*
X14866207Y-17732279D02*
X14875731Y-17741802D01*
X14866207Y-17751326D01*
X14856683Y-17741802D01*
X14866207Y-17732279D01*
X14866207Y-17751326D01*
X14999540Y-17551326D02*
X15018588Y-17551326D01*
X15037636Y-17560850D01*
X15047159Y-17570374D01*
X15056683Y-17589421D01*
X15066207Y-17627517D01*
X15066207Y-17675136D01*
X15056683Y-17713231D01*
X15047159Y-17732279D01*
X15037636Y-17741802D01*
X15018588Y-17751326D01*
X14999540Y-17751326D01*
X14980493Y-17741802D01*
X14970969Y-17732279D01*
X14961445Y-17713231D01*
X14951921Y-17675136D01*
X14951921Y-17627517D01*
X14961445Y-17589421D01*
X14970969Y-17570374D01*
X14980493Y-17560850D01*
X14999540Y-17551326D01*
X15237636Y-17617993D02*
X15237636Y-17751326D01*
X15190017Y-17541802D02*
X15142398Y-17684660D01*
X15266207Y-17684660D01*
X15323350Y-17551326D02*
X15447159Y-17551326D01*
X15380493Y-17627517D01*
X15409064Y-17627517D01*
X15428112Y-17637040D01*
X15437636Y-17646564D01*
X15447159Y-17665612D01*
X15447159Y-17713231D01*
X15437636Y-17732279D01*
X15428112Y-17741802D01*
X15409064Y-17751326D01*
X15351921Y-17751326D01*
X15332874Y-17741802D01*
X15323350Y-17732279D01*
X15513826Y-17551326D02*
X15637636Y-17551326D01*
X15570969Y-17627517D01*
X15599540Y-17627517D01*
X15618588Y-17637040D01*
X15628112Y-17646564D01*
X15637636Y-17665612D01*
X15637636Y-17713231D01*
X15628112Y-17732279D01*
X15618588Y-17741802D01*
X15599540Y-17751326D01*
X15542398Y-17751326D01*
X15523350Y-17741802D01*
X15513826Y-17732279D01*
X15713826Y-17551326D02*
X15713826Y-17589421D01*
X15790017Y-17551326D02*
X15790017Y-17589421D01*
X16085255Y-17827517D02*
X16075731Y-17817993D01*
X16056683Y-17789421D01*
X16047159Y-17770374D01*
X16037636Y-17741802D01*
X16028112Y-17694183D01*
X16028112Y-17656088D01*
X16037636Y-17608469D01*
X16047159Y-17579898D01*
X16056683Y-17560850D01*
X16075731Y-17532279D01*
X16085255Y-17522755D01*
X16266207Y-17751326D02*
X16151921Y-17751326D01*
X16209064Y-17751326D02*
X16209064Y-17551326D01*
X16190017Y-17579898D01*
X16170969Y-17598945D01*
X16151921Y-17608469D01*
X16447159Y-17551326D02*
X16351921Y-17551326D01*
X16342398Y-17646564D01*
X16351921Y-17637040D01*
X16370969Y-17627517D01*
X16418588Y-17627517D01*
X16437636Y-17637040D01*
X16447159Y-17646564D01*
X16456683Y-17665612D01*
X16456683Y-17713231D01*
X16447159Y-17732279D01*
X16437636Y-17741802D01*
X16418588Y-17751326D01*
X16370969Y-17751326D01*
X16351921Y-17741802D01*
X16342398Y-17732279D01*
X16694778Y-17751326D02*
X16694778Y-17551326D01*
X16780493Y-17751326D02*
X16780493Y-17646564D01*
X16770969Y-17627517D01*
X16751921Y-17617993D01*
X16723350Y-17617993D01*
X16704302Y-17627517D01*
X16694778Y-17637040D01*
X16904302Y-17751326D02*
X16885255Y-17741802D01*
X16875731Y-17732279D01*
X16866207Y-17713231D01*
X16866207Y-17656088D01*
X16875731Y-17637040D01*
X16885255Y-17627517D01*
X16904302Y-17617993D01*
X16932874Y-17617993D01*
X16951921Y-17627517D01*
X16961445Y-17637040D01*
X16970969Y-17656088D01*
X16970969Y-17713231D01*
X16961445Y-17732279D01*
X16951921Y-17741802D01*
X16932874Y-17751326D01*
X16904302Y-17751326D01*
X17085255Y-17751326D02*
X17066207Y-17741802D01*
X17056683Y-17722755D01*
X17056683Y-17551326D01*
X17237636Y-17741802D02*
X17218588Y-17751326D01*
X17180493Y-17751326D01*
X17161445Y-17741802D01*
X17151921Y-17722755D01*
X17151921Y-17646564D01*
X17161445Y-17627517D01*
X17180493Y-17617993D01*
X17218588Y-17617993D01*
X17237636Y-17627517D01*
X17247160Y-17646564D01*
X17247160Y-17665612D01*
X17151921Y-17684660D01*
X17323350Y-17741802D02*
X17342398Y-17751326D01*
X17380493Y-17751326D01*
X17399540Y-17741802D01*
X17409064Y-17722755D01*
X17409064Y-17713231D01*
X17399540Y-17694183D01*
X17380493Y-17684660D01*
X17351921Y-17684660D01*
X17332874Y-17675136D01*
X17323350Y-17656088D01*
X17323350Y-17646564D01*
X17332874Y-17627517D01*
X17351921Y-17617993D01*
X17380493Y-17617993D01*
X17399540Y-17627517D01*
X17475731Y-17827517D02*
X17485255Y-17817993D01*
X17504302Y-17789421D01*
X17513826Y-17770374D01*
X17523350Y-17741802D01*
X17532874Y-17694183D01*
X17532874Y-17656088D01*
X17523350Y-17608469D01*
X17513826Y-17579898D01*
X17504302Y-17560850D01*
X17485255Y-17532279D01*
X17475731Y-17522755D01*
D20*
X12383810Y-17860080D02*
X12513350Y-17989620D01*
X12513350Y-17860080D02*
X12383810Y-17989620D01*
X12448580Y-17989620D02*
X12513350Y-17924850D01*
X12448580Y-17860080D01*
X12383810Y-17924850D01*
X12448580Y-17989620D01*
D12*
X12875731Y-18015326D02*
X12761445Y-18015326D01*
X12818588Y-18015326D02*
X12818588Y-17815326D01*
X12799540Y-17843898D01*
X12780493Y-17862945D01*
X12761445Y-17872469D01*
X12961445Y-17996279D02*
X12970969Y-18005802D01*
X12961445Y-18015326D01*
X12951921Y-18005802D01*
X12961445Y-17996279D01*
X12961445Y-18015326D01*
X13047159Y-17834374D02*
X13056683Y-17824850D01*
X13075731Y-17815326D01*
X13123350Y-17815326D01*
X13142398Y-17824850D01*
X13151921Y-17834374D01*
X13161445Y-17853421D01*
X13161445Y-17872469D01*
X13151921Y-17901040D01*
X13037636Y-18015326D01*
X13161445Y-18015326D01*
X13256683Y-18015326D02*
X13294778Y-18015326D01*
X13313826Y-18005802D01*
X13323350Y-17996279D01*
X13342398Y-17967707D01*
X13351921Y-17929612D01*
X13351921Y-17853421D01*
X13342398Y-17834374D01*
X13332874Y-17824850D01*
X13313826Y-17815326D01*
X13275731Y-17815326D01*
X13256683Y-17824850D01*
X13247159Y-17834374D01*
X13237636Y-17853421D01*
X13237636Y-17901040D01*
X13247159Y-17920088D01*
X13256683Y-17929612D01*
X13275731Y-17939136D01*
X13313826Y-17939136D01*
X13332874Y-17929612D01*
X13342398Y-17920088D01*
X13351921Y-17901040D01*
X13532874Y-17815326D02*
X13437636Y-17815326D01*
X13428112Y-17910564D01*
X13437636Y-17901040D01*
X13456683Y-17891517D01*
X13504302Y-17891517D01*
X13523350Y-17901040D01*
X13532874Y-17910564D01*
X13542398Y-17929612D01*
X13542398Y-17977231D01*
X13532874Y-17996279D01*
X13523350Y-18005802D01*
X13504302Y-18015326D01*
X13456683Y-18015326D01*
X13437636Y-18005802D01*
X13428112Y-17996279D01*
X13628112Y-18015326D02*
X13628112Y-17881993D01*
X13628112Y-17901040D02*
X13637636Y-17891517D01*
X13656683Y-17881993D01*
X13685255Y-17881993D01*
X13704302Y-17891517D01*
X13713826Y-17910564D01*
X13713826Y-18015326D01*
X13713826Y-17910564D02*
X13723350Y-17891517D01*
X13742398Y-17881993D01*
X13770969Y-17881993D01*
X13790017Y-17891517D01*
X13799540Y-17910564D01*
X13799540Y-18015326D01*
X13894778Y-18015326D02*
X13894778Y-17881993D01*
X13894778Y-17901040D02*
X13904302Y-17891517D01*
X13923350Y-17881993D01*
X13951921Y-17881993D01*
X13970969Y-17891517D01*
X13980493Y-17910564D01*
X13980493Y-18015326D01*
X13980493Y-17910564D02*
X13990017Y-17891517D01*
X14009064Y-17881993D01*
X14037636Y-17881993D01*
X14056683Y-17891517D01*
X14066207Y-17910564D01*
X14066207Y-18015326D01*
X14456683Y-17805802D02*
X14285255Y-18062945D01*
X14713826Y-17815326D02*
X14732874Y-17815326D01*
X14751921Y-17824850D01*
X14761445Y-17834374D01*
X14770969Y-17853421D01*
X14780493Y-17891517D01*
X14780493Y-17939136D01*
X14770969Y-17977231D01*
X14761445Y-17996279D01*
X14751921Y-18005802D01*
X14732874Y-18015326D01*
X14713826Y-18015326D01*
X14694778Y-18005802D01*
X14685255Y-17996279D01*
X14675731Y-17977231D01*
X14666207Y-17939136D01*
X14666207Y-17891517D01*
X14675731Y-17853421D01*
X14685255Y-17834374D01*
X14694778Y-17824850D01*
X14713826Y-17815326D01*
X14866207Y-17996279D02*
X14875731Y-18005802D01*
X14866207Y-18015326D01*
X14856683Y-18005802D01*
X14866207Y-17996279D01*
X14866207Y-18015326D01*
X14999540Y-17815326D02*
X15018588Y-17815326D01*
X15037636Y-17824850D01*
X15047159Y-17834374D01*
X15056683Y-17853421D01*
X15066207Y-17891517D01*
X15066207Y-17939136D01*
X15056683Y-17977231D01*
X15047159Y-17996279D01*
X15037636Y-18005802D01*
X15018588Y-18015326D01*
X14999540Y-18015326D01*
X14980493Y-18005802D01*
X14970969Y-17996279D01*
X14961445Y-17977231D01*
X14951921Y-17939136D01*
X14951921Y-17891517D01*
X14961445Y-17853421D01*
X14970969Y-17834374D01*
X14980493Y-17824850D01*
X14999540Y-17815326D01*
X15247159Y-17815326D02*
X15151921Y-17815326D01*
X15142398Y-17910564D01*
X15151921Y-17901040D01*
X15170969Y-17891517D01*
X15218588Y-17891517D01*
X15237636Y-17901040D01*
X15247159Y-17910564D01*
X15256683Y-17929612D01*
X15256683Y-17977231D01*
X15247159Y-17996279D01*
X15237636Y-18005802D01*
X15218588Y-18015326D01*
X15170969Y-18015326D01*
X15151921Y-18005802D01*
X15142398Y-17996279D01*
X15447159Y-18015326D02*
X15332874Y-18015326D01*
X15390017Y-18015326D02*
X15390017Y-17815326D01*
X15370969Y-17843898D01*
X15351921Y-17862945D01*
X15332874Y-17872469D01*
X15570969Y-17815326D02*
X15590017Y-17815326D01*
X15609064Y-17824850D01*
X15618588Y-17834374D01*
X15628112Y-17853421D01*
X15637636Y-17891517D01*
X15637636Y-17939136D01*
X15628112Y-17977231D01*
X15618588Y-17996279D01*
X15609064Y-18005802D01*
X15590017Y-18015326D01*
X15570969Y-18015326D01*
X15551921Y-18005802D01*
X15542398Y-17996279D01*
X15532874Y-17977231D01*
X15523350Y-17939136D01*
X15523350Y-17891517D01*
X15532874Y-17853421D01*
X15542398Y-17834374D01*
X15551921Y-17824850D01*
X15570969Y-17815326D01*
X15713826Y-17815326D02*
X15713826Y-17853421D01*
X15790017Y-17815326D02*
X15790017Y-17853421D01*
X16085255Y-18091517D02*
X16075731Y-18081993D01*
X16056683Y-18053421D01*
X16047159Y-18034374D01*
X16037636Y-18005802D01*
X16028112Y-17958183D01*
X16028112Y-17920088D01*
X16037636Y-17872469D01*
X16047159Y-17843898D01*
X16056683Y-17824850D01*
X16075731Y-17796279D01*
X16085255Y-17786755D01*
X16151921Y-17834374D02*
X16161445Y-17824850D01*
X16180493Y-17815326D01*
X16228112Y-17815326D01*
X16247159Y-17824850D01*
X16256683Y-17834374D01*
X16266207Y-17853421D01*
X16266207Y-17872469D01*
X16256683Y-17901040D01*
X16142398Y-18015326D01*
X16266207Y-18015326D01*
X16390017Y-17815326D02*
X16409064Y-17815326D01*
X16428112Y-17824850D01*
X16437636Y-17834374D01*
X16447159Y-17853421D01*
X16456683Y-17891517D01*
X16456683Y-17939136D01*
X16447159Y-17977231D01*
X16437636Y-17996279D01*
X16428112Y-18005802D01*
X16409064Y-18015326D01*
X16390017Y-18015326D01*
X16370969Y-18005802D01*
X16361445Y-17996279D01*
X16351921Y-17977231D01*
X16342398Y-17939136D01*
X16342398Y-17891517D01*
X16351921Y-17853421D01*
X16361445Y-17834374D01*
X16370969Y-17824850D01*
X16390017Y-17815326D01*
X16694778Y-18015326D02*
X16694778Y-17815326D01*
X16780493Y-18015326D02*
X16780493Y-17910564D01*
X16770969Y-17891517D01*
X16751921Y-17881993D01*
X16723350Y-17881993D01*
X16704302Y-17891517D01*
X16694778Y-17901040D01*
X16904302Y-18015326D02*
X16885255Y-18005802D01*
X16875731Y-17996279D01*
X16866207Y-17977231D01*
X16866207Y-17920088D01*
X16875731Y-17901040D01*
X16885255Y-17891517D01*
X16904302Y-17881993D01*
X16932874Y-17881993D01*
X16951921Y-17891517D01*
X16961445Y-17901040D01*
X16970969Y-17920088D01*
X16970969Y-17977231D01*
X16961445Y-17996279D01*
X16951921Y-18005802D01*
X16932874Y-18015326D01*
X16904302Y-18015326D01*
X17085255Y-18015326D02*
X17066207Y-18005802D01*
X17056683Y-17986755D01*
X17056683Y-17815326D01*
X17237636Y-18005802D02*
X17218588Y-18015326D01*
X17180493Y-18015326D01*
X17161445Y-18005802D01*
X17151921Y-17986755D01*
X17151921Y-17910564D01*
X17161445Y-17891517D01*
X17180493Y-17881993D01*
X17218588Y-17881993D01*
X17237636Y-17891517D01*
X17247160Y-17910564D01*
X17247160Y-17929612D01*
X17151921Y-17948660D01*
X17323350Y-18005802D02*
X17342398Y-18015326D01*
X17380493Y-18015326D01*
X17399540Y-18005802D01*
X17409064Y-17986755D01*
X17409064Y-17977231D01*
X17399540Y-17958183D01*
X17380493Y-17948660D01*
X17351921Y-17948660D01*
X17332874Y-17939136D01*
X17323350Y-17920088D01*
X17323350Y-17910564D01*
X17332874Y-17891517D01*
X17351921Y-17881993D01*
X17380493Y-17881993D01*
X17399540Y-17891517D01*
X17475731Y-18091517D02*
X17485255Y-18081993D01*
X17504302Y-18053421D01*
X17513826Y-18034374D01*
X17523350Y-18005802D01*
X17532874Y-17958183D01*
X17532874Y-17920088D01*
X17523350Y-17872469D01*
X17513826Y-17843898D01*
X17504302Y-17824850D01*
X17485255Y-17796279D01*
X17475731Y-17786755D01*
X12413350Y-18088850D02*
X12413350Y-18288850D01*
X12313350Y-18188850D02*
X12513350Y-18188850D01*
X12513350Y-18188850D02*
G75*
G03*
X12513350Y-18188850I-100000J0D01*
G01*
X12761445Y-18098374D02*
X12770969Y-18088850D01*
X12790017Y-18079326D01*
X12837636Y-18079326D01*
X12856683Y-18088850D01*
X12866207Y-18098374D01*
X12875731Y-18117421D01*
X12875731Y-18136469D01*
X12866207Y-18165040D01*
X12751921Y-18279326D01*
X12875731Y-18279326D01*
X12961445Y-18260279D02*
X12970969Y-18269802D01*
X12961445Y-18279326D01*
X12951921Y-18269802D01*
X12961445Y-18260279D01*
X12961445Y-18279326D01*
X13047159Y-18098374D02*
X13056683Y-18088850D01*
X13075731Y-18079326D01*
X13123350Y-18079326D01*
X13142398Y-18088850D01*
X13151921Y-18098374D01*
X13161445Y-18117421D01*
X13161445Y-18136469D01*
X13151921Y-18165040D01*
X13037636Y-18279326D01*
X13161445Y-18279326D01*
X13285255Y-18079326D02*
X13304302Y-18079326D01*
X13323350Y-18088850D01*
X13332874Y-18098374D01*
X13342398Y-18117421D01*
X13351921Y-18155517D01*
X13351921Y-18203136D01*
X13342398Y-18241231D01*
X13332874Y-18260279D01*
X13323350Y-18269802D01*
X13304302Y-18279326D01*
X13285255Y-18279326D01*
X13266207Y-18269802D01*
X13256683Y-18260279D01*
X13247159Y-18241231D01*
X13237636Y-18203136D01*
X13237636Y-18155517D01*
X13247159Y-18117421D01*
X13256683Y-18098374D01*
X13266207Y-18088850D01*
X13285255Y-18079326D01*
X13475731Y-18079326D02*
X13494778Y-18079326D01*
X13513826Y-18088850D01*
X13523350Y-18098374D01*
X13532874Y-18117421D01*
X13542398Y-18155517D01*
X13542398Y-18203136D01*
X13532874Y-18241231D01*
X13523350Y-18260279D01*
X13513826Y-18269802D01*
X13494778Y-18279326D01*
X13475731Y-18279326D01*
X13456683Y-18269802D01*
X13447159Y-18260279D01*
X13437636Y-18241231D01*
X13428112Y-18203136D01*
X13428112Y-18155517D01*
X13437636Y-18117421D01*
X13447159Y-18098374D01*
X13456683Y-18088850D01*
X13475731Y-18079326D01*
X13628112Y-18279326D02*
X13628112Y-18145993D01*
X13628112Y-18165040D02*
X13637636Y-18155517D01*
X13656683Y-18145993D01*
X13685255Y-18145993D01*
X13704302Y-18155517D01*
X13713826Y-18174564D01*
X13713826Y-18279326D01*
X13713826Y-18174564D02*
X13723350Y-18155517D01*
X13742398Y-18145993D01*
X13770969Y-18145993D01*
X13790017Y-18155517D01*
X13799540Y-18174564D01*
X13799540Y-18279326D01*
X13894778Y-18279326D02*
X13894778Y-18145993D01*
X13894778Y-18165040D02*
X13904302Y-18155517D01*
X13923350Y-18145993D01*
X13951921Y-18145993D01*
X13970969Y-18155517D01*
X13980493Y-18174564D01*
X13980493Y-18279326D01*
X13980493Y-18174564D02*
X13990017Y-18155517D01*
X14009064Y-18145993D01*
X14037636Y-18145993D01*
X14056683Y-18155517D01*
X14066207Y-18174564D01*
X14066207Y-18279326D01*
X14456683Y-18069802D02*
X14285255Y-18326945D01*
X14713826Y-18079326D02*
X14732874Y-18079326D01*
X14751921Y-18088850D01*
X14761445Y-18098374D01*
X14770969Y-18117421D01*
X14780493Y-18155517D01*
X14780493Y-18203136D01*
X14770969Y-18241231D01*
X14761445Y-18260279D01*
X14751921Y-18269802D01*
X14732874Y-18279326D01*
X14713826Y-18279326D01*
X14694778Y-18269802D01*
X14685255Y-18260279D01*
X14675731Y-18241231D01*
X14666207Y-18203136D01*
X14666207Y-18155517D01*
X14675731Y-18117421D01*
X14685255Y-18098374D01*
X14694778Y-18088850D01*
X14713826Y-18079326D01*
X14866207Y-18260279D02*
X14875731Y-18269802D01*
X14866207Y-18279326D01*
X14856683Y-18269802D01*
X14866207Y-18260279D01*
X14866207Y-18279326D01*
X14999540Y-18079326D02*
X15018588Y-18079326D01*
X15037636Y-18088850D01*
X15047159Y-18098374D01*
X15056683Y-18117421D01*
X15066207Y-18155517D01*
X15066207Y-18203136D01*
X15056683Y-18241231D01*
X15047159Y-18260279D01*
X15037636Y-18269802D01*
X15018588Y-18279326D01*
X14999540Y-18279326D01*
X14980493Y-18269802D01*
X14970969Y-18260279D01*
X14961445Y-18241231D01*
X14951921Y-18203136D01*
X14951921Y-18155517D01*
X14961445Y-18117421D01*
X14970969Y-18098374D01*
X14980493Y-18088850D01*
X14999540Y-18079326D01*
X15180493Y-18165040D02*
X15161445Y-18155517D01*
X15151921Y-18145993D01*
X15142398Y-18126945D01*
X15142398Y-18117421D01*
X15151921Y-18098374D01*
X15161445Y-18088850D01*
X15180493Y-18079326D01*
X15218588Y-18079326D01*
X15237636Y-18088850D01*
X15247159Y-18098374D01*
X15256683Y-18117421D01*
X15256683Y-18126945D01*
X15247159Y-18145993D01*
X15237636Y-18155517D01*
X15218588Y-18165040D01*
X15180493Y-18165040D01*
X15161445Y-18174564D01*
X15151921Y-18184088D01*
X15142398Y-18203136D01*
X15142398Y-18241231D01*
X15151921Y-18260279D01*
X15161445Y-18269802D01*
X15180493Y-18279326D01*
X15218588Y-18279326D01*
X15237636Y-18269802D01*
X15247159Y-18260279D01*
X15256683Y-18241231D01*
X15256683Y-18203136D01*
X15247159Y-18184088D01*
X15237636Y-18174564D01*
X15218588Y-18165040D01*
X15428112Y-18079326D02*
X15390017Y-18079326D01*
X15370969Y-18088850D01*
X15361445Y-18098374D01*
X15342398Y-18126945D01*
X15332874Y-18165040D01*
X15332874Y-18241231D01*
X15342398Y-18260279D01*
X15351921Y-18269802D01*
X15370969Y-18279326D01*
X15409064Y-18279326D01*
X15428112Y-18269802D01*
X15437636Y-18260279D01*
X15447159Y-18241231D01*
X15447159Y-18193612D01*
X15437636Y-18174564D01*
X15428112Y-18165040D01*
X15409064Y-18155517D01*
X15370969Y-18155517D01*
X15351921Y-18165040D01*
X15342398Y-18174564D01*
X15332874Y-18193612D01*
X15618588Y-18079326D02*
X15580493Y-18079326D01*
X15561445Y-18088850D01*
X15551921Y-18098374D01*
X15532874Y-18126945D01*
X15523350Y-18165040D01*
X15523350Y-18241231D01*
X15532874Y-18260279D01*
X15542398Y-18269802D01*
X15561445Y-18279326D01*
X15599540Y-18279326D01*
X15618588Y-18269802D01*
X15628112Y-18260279D01*
X15637636Y-18241231D01*
X15637636Y-18193612D01*
X15628112Y-18174564D01*
X15618588Y-18165040D01*
X15599540Y-18155517D01*
X15561445Y-18155517D01*
X15542398Y-18165040D01*
X15532874Y-18174564D01*
X15523350Y-18193612D01*
X15713826Y-18079326D02*
X15713826Y-18117421D01*
X15790017Y-18079326D02*
X15790017Y-18117421D01*
X16085255Y-18355517D02*
X16075731Y-18345993D01*
X16056683Y-18317421D01*
X16047159Y-18298374D01*
X16037636Y-18269802D01*
X16028112Y-18222183D01*
X16028112Y-18184088D01*
X16037636Y-18136469D01*
X16047159Y-18107898D01*
X16056683Y-18088850D01*
X16075731Y-18060279D01*
X16085255Y-18050755D01*
X16151921Y-18098374D02*
X16161445Y-18088850D01*
X16180493Y-18079326D01*
X16228112Y-18079326D01*
X16247159Y-18088850D01*
X16256683Y-18098374D01*
X16266207Y-18117421D01*
X16266207Y-18136469D01*
X16256683Y-18165040D01*
X16142398Y-18279326D01*
X16266207Y-18279326D01*
X16504302Y-18279326D02*
X16504302Y-18079326D01*
X16590017Y-18279326D02*
X16590017Y-18174564D01*
X16580493Y-18155517D01*
X16561445Y-18145993D01*
X16532874Y-18145993D01*
X16513826Y-18155517D01*
X16504302Y-18165040D01*
X16713826Y-18279326D02*
X16694778Y-18269802D01*
X16685255Y-18260279D01*
X16675731Y-18241231D01*
X16675731Y-18184088D01*
X16685255Y-18165040D01*
X16694778Y-18155517D01*
X16713826Y-18145993D01*
X16742398Y-18145993D01*
X16761445Y-18155517D01*
X16770969Y-18165040D01*
X16780493Y-18184088D01*
X16780493Y-18241231D01*
X16770969Y-18260279D01*
X16761445Y-18269802D01*
X16742398Y-18279326D01*
X16713826Y-18279326D01*
X16894779Y-18279326D02*
X16875731Y-18269802D01*
X16866207Y-18250755D01*
X16866207Y-18079326D01*
X17047160Y-18269802D02*
X17028112Y-18279326D01*
X16990017Y-18279326D01*
X16970969Y-18269802D01*
X16961445Y-18250755D01*
X16961445Y-18174564D01*
X16970969Y-18155517D01*
X16990017Y-18145993D01*
X17028112Y-18145993D01*
X17047160Y-18155517D01*
X17056683Y-18174564D01*
X17056683Y-18193612D01*
X16961445Y-18212660D01*
X17132874Y-18269802D02*
X17151921Y-18279326D01*
X17190017Y-18279326D01*
X17209064Y-18269802D01*
X17218588Y-18250755D01*
X17218588Y-18241231D01*
X17209064Y-18222183D01*
X17190017Y-18212660D01*
X17161445Y-18212660D01*
X17142398Y-18203136D01*
X17132874Y-18184088D01*
X17132874Y-18174564D01*
X17142398Y-18155517D01*
X17161445Y-18145993D01*
X17190017Y-18145993D01*
X17209064Y-18155517D01*
X17285255Y-18355517D02*
X17294779Y-18345993D01*
X17313826Y-18317421D01*
X17323350Y-18298374D01*
X17332874Y-18269802D01*
X17342398Y-18222183D01*
X17342398Y-18184088D01*
X17332874Y-18136469D01*
X17323350Y-18107898D01*
X17313826Y-18088850D01*
X17294779Y-18060279D01*
X17285255Y-18050755D01*
X12484061Y-18579561D02*
X12484061Y-18438139D01*
X12342639Y-18438139D01*
X12342639Y-18579561D01*
X12484061Y-18579561D01*
X12513350Y-18508850D02*
G75*
G03*
X12513350Y-18508850I-100000J0D01*
G01*
X12751921Y-18399326D02*
X12875731Y-18399326D01*
X12809064Y-18475517D01*
X12837636Y-18475517D01*
X12856683Y-18485040D01*
X12866207Y-18494564D01*
X12875731Y-18513612D01*
X12875731Y-18561231D01*
X12866207Y-18580279D01*
X12856683Y-18589802D01*
X12837636Y-18599326D01*
X12780493Y-18599326D01*
X12761445Y-18589802D01*
X12751921Y-18580279D01*
X12961445Y-18580279D02*
X12970969Y-18589802D01*
X12961445Y-18599326D01*
X12951921Y-18589802D01*
X12961445Y-18580279D01*
X12961445Y-18599326D01*
X13047159Y-18418374D02*
X13056683Y-18408850D01*
X13075731Y-18399326D01*
X13123350Y-18399326D01*
X13142398Y-18408850D01*
X13151921Y-18418374D01*
X13161445Y-18437421D01*
X13161445Y-18456469D01*
X13151921Y-18485040D01*
X13037636Y-18599326D01*
X13161445Y-18599326D01*
X13285255Y-18399326D02*
X13304302Y-18399326D01*
X13323350Y-18408850D01*
X13332874Y-18418374D01*
X13342398Y-18437421D01*
X13351921Y-18475517D01*
X13351921Y-18523136D01*
X13342398Y-18561231D01*
X13332874Y-18580279D01*
X13323350Y-18589802D01*
X13304302Y-18599326D01*
X13285255Y-18599326D01*
X13266207Y-18589802D01*
X13256683Y-18580279D01*
X13247159Y-18561231D01*
X13237636Y-18523136D01*
X13237636Y-18475517D01*
X13247159Y-18437421D01*
X13256683Y-18418374D01*
X13266207Y-18408850D01*
X13285255Y-18399326D01*
X13475731Y-18399326D02*
X13494778Y-18399326D01*
X13513826Y-18408850D01*
X13523350Y-18418374D01*
X13532874Y-18437421D01*
X13542398Y-18475517D01*
X13542398Y-18523136D01*
X13532874Y-18561231D01*
X13523350Y-18580279D01*
X13513826Y-18589802D01*
X13494778Y-18599326D01*
X13475731Y-18599326D01*
X13456683Y-18589802D01*
X13447159Y-18580279D01*
X13437636Y-18561231D01*
X13428112Y-18523136D01*
X13428112Y-18475517D01*
X13437636Y-18437421D01*
X13447159Y-18418374D01*
X13456683Y-18408850D01*
X13475731Y-18399326D01*
X13628112Y-18599326D02*
X13628112Y-18465993D01*
X13628112Y-18485040D02*
X13637636Y-18475517D01*
X13656683Y-18465993D01*
X13685255Y-18465993D01*
X13704302Y-18475517D01*
X13713826Y-18494564D01*
X13713826Y-18599326D01*
X13713826Y-18494564D02*
X13723350Y-18475517D01*
X13742398Y-18465993D01*
X13770969Y-18465993D01*
X13790017Y-18475517D01*
X13799540Y-18494564D01*
X13799540Y-18599326D01*
X13894778Y-18599326D02*
X13894778Y-18465993D01*
X13894778Y-18485040D02*
X13904302Y-18475517D01*
X13923350Y-18465993D01*
X13951921Y-18465993D01*
X13970969Y-18475517D01*
X13980493Y-18494564D01*
X13980493Y-18599326D01*
X13980493Y-18494564D02*
X13990017Y-18475517D01*
X14009064Y-18465993D01*
X14037636Y-18465993D01*
X14056683Y-18475517D01*
X14066207Y-18494564D01*
X14066207Y-18599326D01*
X14456683Y-18389802D02*
X14285255Y-18646945D01*
X14713826Y-18399326D02*
X14732874Y-18399326D01*
X14751921Y-18408850D01*
X14761445Y-18418374D01*
X14770969Y-18437421D01*
X14780493Y-18475517D01*
X14780493Y-18523136D01*
X14770969Y-18561231D01*
X14761445Y-18580279D01*
X14751921Y-18589802D01*
X14732874Y-18599326D01*
X14713826Y-18599326D01*
X14694778Y-18589802D01*
X14685255Y-18580279D01*
X14675731Y-18561231D01*
X14666207Y-18523136D01*
X14666207Y-18475517D01*
X14675731Y-18437421D01*
X14685255Y-18418374D01*
X14694778Y-18408850D01*
X14713826Y-18399326D01*
X14866207Y-18580279D02*
X14875731Y-18589802D01*
X14866207Y-18599326D01*
X14856683Y-18589802D01*
X14866207Y-18580279D01*
X14866207Y-18599326D01*
X15066207Y-18599326D02*
X14951921Y-18599326D01*
X15009064Y-18599326D02*
X15009064Y-18399326D01*
X14990017Y-18427898D01*
X14970969Y-18446945D01*
X14951921Y-18456469D01*
X15142398Y-18418374D02*
X15151921Y-18408850D01*
X15170969Y-18399326D01*
X15218588Y-18399326D01*
X15237636Y-18408850D01*
X15247159Y-18418374D01*
X15256683Y-18437421D01*
X15256683Y-18456469D01*
X15247159Y-18485040D01*
X15132874Y-18599326D01*
X15256683Y-18599326D01*
X15428112Y-18399326D02*
X15390017Y-18399326D01*
X15370969Y-18408850D01*
X15361445Y-18418374D01*
X15342398Y-18446945D01*
X15332874Y-18485040D01*
X15332874Y-18561231D01*
X15342398Y-18580279D01*
X15351921Y-18589802D01*
X15370969Y-18599326D01*
X15409064Y-18599326D01*
X15428112Y-18589802D01*
X15437636Y-18580279D01*
X15447159Y-18561231D01*
X15447159Y-18513612D01*
X15437636Y-18494564D01*
X15428112Y-18485040D01*
X15409064Y-18475517D01*
X15370969Y-18475517D01*
X15351921Y-18485040D01*
X15342398Y-18494564D01*
X15332874Y-18513612D01*
X15570969Y-18399326D02*
X15590017Y-18399326D01*
X15609064Y-18408850D01*
X15618588Y-18418374D01*
X15628112Y-18437421D01*
X15637636Y-18475517D01*
X15637636Y-18523136D01*
X15628112Y-18561231D01*
X15618588Y-18580279D01*
X15609064Y-18589802D01*
X15590017Y-18599326D01*
X15570969Y-18599326D01*
X15551921Y-18589802D01*
X15542398Y-18580279D01*
X15532874Y-18561231D01*
X15523350Y-18523136D01*
X15523350Y-18475517D01*
X15532874Y-18437421D01*
X15542398Y-18418374D01*
X15551921Y-18408850D01*
X15570969Y-18399326D01*
X15713826Y-18399326D02*
X15713826Y-18437421D01*
X15790017Y-18399326D02*
X15790017Y-18437421D01*
X16085255Y-18675517D02*
X16075731Y-18665993D01*
X16056683Y-18637421D01*
X16047159Y-18618374D01*
X16037636Y-18589802D01*
X16028112Y-18542183D01*
X16028112Y-18504088D01*
X16037636Y-18456469D01*
X16047159Y-18427898D01*
X16056683Y-18408850D01*
X16075731Y-18380279D01*
X16085255Y-18370755D01*
X16142398Y-18399326D02*
X16266207Y-18399326D01*
X16199540Y-18475517D01*
X16228112Y-18475517D01*
X16247159Y-18485040D01*
X16256683Y-18494564D01*
X16266207Y-18513612D01*
X16266207Y-18561231D01*
X16256683Y-18580279D01*
X16247159Y-18589802D01*
X16228112Y-18599326D01*
X16170969Y-18599326D01*
X16151921Y-18589802D01*
X16142398Y-18580279D01*
X16504302Y-18599326D02*
X16504302Y-18399326D01*
X16590017Y-18599326D02*
X16590017Y-18494564D01*
X16580493Y-18475517D01*
X16561445Y-18465993D01*
X16532874Y-18465993D01*
X16513826Y-18475517D01*
X16504302Y-18485040D01*
X16713826Y-18599326D02*
X16694778Y-18589802D01*
X16685255Y-18580279D01*
X16675731Y-18561231D01*
X16675731Y-18504088D01*
X16685255Y-18485040D01*
X16694778Y-18475517D01*
X16713826Y-18465993D01*
X16742398Y-18465993D01*
X16761445Y-18475517D01*
X16770969Y-18485040D01*
X16780493Y-18504088D01*
X16780493Y-18561231D01*
X16770969Y-18580279D01*
X16761445Y-18589802D01*
X16742398Y-18599326D01*
X16713826Y-18599326D01*
X16894779Y-18599326D02*
X16875731Y-18589802D01*
X16866207Y-18570755D01*
X16866207Y-18399326D01*
X17047160Y-18589802D02*
X17028112Y-18599326D01*
X16990017Y-18599326D01*
X16970969Y-18589802D01*
X16961445Y-18570755D01*
X16961445Y-18494564D01*
X16970969Y-18475517D01*
X16990017Y-18465993D01*
X17028112Y-18465993D01*
X17047160Y-18475517D01*
X17056683Y-18494564D01*
X17056683Y-18513612D01*
X16961445Y-18532660D01*
X17132874Y-18589802D02*
X17151921Y-18599326D01*
X17190017Y-18599326D01*
X17209064Y-18589802D01*
X17218588Y-18570755D01*
X17218588Y-18561231D01*
X17209064Y-18542183D01*
X17190017Y-18532660D01*
X17161445Y-18532660D01*
X17142398Y-18523136D01*
X17132874Y-18504088D01*
X17132874Y-18494564D01*
X17142398Y-18475517D01*
X17161445Y-18465993D01*
X17190017Y-18465993D01*
X17209064Y-18475517D01*
X17285255Y-18675517D02*
X17294779Y-18665993D01*
X17313826Y-18637421D01*
X17323350Y-18618374D01*
X17332874Y-18589802D01*
X17342398Y-18542183D01*
X17342398Y-18504088D01*
X17332874Y-18456469D01*
X17323350Y-18427898D01*
X17313826Y-18408850D01*
X17294779Y-18380279D01*
X17285255Y-18370755D01*
M02*
