G04 #@! TF.GenerationSoftware,KiCad,Pcbnew,(6.0.0)*
G04 #@! TF.CreationDate,2022-02-24T16:51:53+01:00*
G04 #@! TF.ProjectId,hamodule,68616d6f-6475-46c6-952e-6b696361645f,rev?*
G04 #@! TF.SameCoordinates,Original*
G04 #@! TF.FileFunction,Profile,NP*
%FSLAX46Y46*%
G04 Gerber Fmt 4.6, Leading zero omitted, Abs format (unit mm)*
G04 Created by KiCad (PCBNEW (6.0.0)) date 2022-02-24 16:51:53*
%MOMM*%
%LPD*%
G01*
G04 APERTURE LIST*
G04 #@! TA.AperFunction,Profile*
%ADD10C,0.050000*%
G04 #@! TD*
G04 #@! TA.AperFunction,Profile*
%ADD11C,0.100000*%
G04 #@! TD*
G04 APERTURE END LIST*
D10*
X199326500Y-151701500D02*
G75*
G03*
X201866500Y-149161500I-1J2540001D01*
G01*
X201866500Y-149161500D02*
X201866500Y-69913500D01*
X161836500Y-151703500D02*
X127698500Y-151703500D01*
X200596501Y-95948500D02*
G75*
G03*
X200596501Y-95948500I-898026J0D01*
G01*
D11*
X170713400Y-97701100D02*
X150247805Y-97695528D01*
D10*
X199326500Y-67373500D02*
X127698500Y-67373500D01*
D11*
X150393400Y-93891100D02*
X170713400Y-93891100D01*
D10*
X150393400Y-93891100D02*
G75*
G03*
X150247805Y-97695528I0J-1905000D01*
G01*
X125158500Y-149161500D02*
X125158500Y-69913500D01*
X170713400Y-97701100D02*
G75*
G03*
X170713400Y-93891100I0J1905000D01*
G01*
X125158498Y-149161500D02*
G75*
G03*
X127698500Y-151703500I2542047J46D01*
G01*
D11*
X150393400Y-86144100D02*
X170713400Y-86144100D01*
X170713400Y-89192100D02*
X150393400Y-89192100D01*
D10*
X173367700Y-108673900D02*
G75*
G03*
X171843700Y-108673900I-762000J0D01*
G01*
X199326500Y-151701500D02*
X161836500Y-151703500D01*
X201866500Y-69913500D02*
G75*
G03*
X199326500Y-67373500I-2540001J-1D01*
G01*
D11*
X171843700Y-116344700D02*
X171843700Y-108673900D01*
D10*
X143936500Y-108213500D02*
G75*
G03*
X142666500Y-108213500I-635000J0D01*
G01*
D11*
X173621700Y-111518700D02*
X195719700Y-111518700D01*
D10*
X186126500Y-76183500D02*
G75*
G03*
X185126500Y-76183500I-500000J0D01*
G01*
X191118250Y-76203500D02*
G75*
G03*
X190118250Y-76203500I-500000J0D01*
G01*
D11*
X173367700Y-108673900D02*
X173367700Y-111264700D01*
D10*
X180106500Y-76253500D02*
X180106500Y-105343500D01*
X185126500Y-76183500D02*
X185126500Y-105273500D01*
D11*
X195719700Y-112534700D02*
X173621700Y-112534700D01*
D10*
X180106500Y-105343500D02*
G75*
G03*
X181103000Y-105343500I498250J0D01*
G01*
X173367700Y-111264700D02*
G75*
G03*
X173621700Y-111518700I254000J0D01*
G01*
X190118250Y-76203500D02*
X190118250Y-105293500D01*
X181103000Y-105343500D02*
X181106500Y-76253500D01*
X190118250Y-105293500D02*
G75*
G03*
X191114750Y-105293500I498250J0D01*
G01*
X185126500Y-105273500D02*
G75*
G03*
X186123000Y-105273500I498250J0D01*
G01*
X137866500Y-106243500D02*
X137866500Y-113863500D01*
X191114750Y-105293500D02*
X191118250Y-76203500D01*
X136596500Y-113863500D02*
X136596500Y-106243500D01*
X142666500Y-127619100D02*
G75*
G03*
X143936500Y-127619100I635000J15614D01*
G01*
X170713400Y-89192100D02*
G75*
G03*
X170713400Y-86144100I0J1524000D01*
G01*
X150393400Y-86144100D02*
G75*
G03*
X150393400Y-89192100I0J-1524000D01*
G01*
X127698500Y-67373500D02*
G75*
G03*
X125158500Y-69913500I1J-2540001D01*
G01*
X171843700Y-116344700D02*
G75*
G03*
X173367700Y-116344700I762000J0D01*
G01*
X142666500Y-108213500D02*
X142666500Y-127619100D01*
X186123000Y-105273500D02*
X186126500Y-76183500D01*
X195719700Y-112534700D02*
G75*
G03*
X195719700Y-111518700I0J508000D01*
G01*
D11*
X173367700Y-112788700D02*
X173367700Y-116344700D01*
D10*
X173621700Y-112534700D02*
G75*
G03*
X173367700Y-112788700I0J-254000D01*
G01*
X143936500Y-127619100D02*
X143936500Y-108213500D01*
X181106500Y-76253500D02*
G75*
G03*
X180106500Y-76253500I-500000J0D01*
G01*
X136596500Y-113863500D02*
G75*
G03*
X137866500Y-113863500I635000J0D01*
G01*
X137866500Y-106243500D02*
G75*
G03*
X136596500Y-106243500I-635000J0D01*
G01*
M02*
