G04 #@! TF.GenerationSoftware,KiCad,Pcbnew,(6.0.0)*
G04 #@! TF.CreationDate,2022-02-24T16:51:53+01:00*
G04 #@! TF.ProjectId,hamodule,68616d6f-6475-46c6-952e-6b696361645f,rev?*
G04 #@! TF.SameCoordinates,Original*
G04 #@! TF.FileFunction,Copper,L1,Top*
G04 #@! TF.FilePolarity,Positive*
%FSLAX46Y46*%
G04 Gerber Fmt 4.6, Leading zero omitted, Abs format (unit mm)*
G04 Created by KiCad (PCBNEW (6.0.0)) date 2022-02-24 16:51:53*
%MOMM*%
%LPD*%
G01*
G04 APERTURE LIST*
G04 Aperture macros list*
%AMRoundRect*
0 Rectangle with rounded corners*
0 $1 Rounding radius*
0 $2 $3 $4 $5 $6 $7 $8 $9 X,Y pos of 4 corners*
0 Add a 4 corners polygon primitive as box body*
4,1,4,$2,$3,$4,$5,$6,$7,$8,$9,$2,$3,0*
0 Add four circle primitives for the rounded corners*
1,1,$1+$1,$2,$3*
1,1,$1+$1,$4,$5*
1,1,$1+$1,$6,$7*
1,1,$1+$1,$8,$9*
0 Add four rect primitives between the rounded corners*
20,1,$1+$1,$2,$3,$4,$5,0*
20,1,$1+$1,$4,$5,$6,$7,0*
20,1,$1+$1,$6,$7,$8,$9,0*
20,1,$1+$1,$8,$9,$2,$3,0*%
G04 Aperture macros list end*
G04 #@! TA.AperFunction,ComponentPad*
%ADD10R,1.700000X1.700000*%
G04 #@! TD*
G04 #@! TA.AperFunction,ComponentPad*
%ADD11O,1.700000X1.700000*%
G04 #@! TD*
G04 #@! TA.AperFunction,SMDPad,CuDef*
%ADD12RoundRect,0.250000X-0.412500X-0.650000X0.412500X-0.650000X0.412500X0.650000X-0.412500X0.650000X0*%
G04 #@! TD*
G04 #@! TA.AperFunction,SMDPad,CuDef*
%ADD13RoundRect,0.249999X-1.425001X0.450001X-1.425001X-0.450001X1.425001X-0.450001X1.425001X0.450001X0*%
G04 #@! TD*
G04 #@! TA.AperFunction,ComponentPad*
%ADD14C,1.800000*%
G04 #@! TD*
G04 #@! TA.AperFunction,SMDPad,CuDef*
%ADD15RoundRect,0.250000X0.450000X-0.325000X0.450000X0.325000X-0.450000X0.325000X-0.450000X-0.325000X0*%
G04 #@! TD*
G04 #@! TA.AperFunction,SMDPad,CuDef*
%ADD16RoundRect,0.250000X0.450000X-0.350000X0.450000X0.350000X-0.450000X0.350000X-0.450000X-0.350000X0*%
G04 #@! TD*
G04 #@! TA.AperFunction,ComponentPad*
%ADD17RoundRect,0.250000X-0.600000X-0.750000X0.600000X-0.750000X0.600000X0.750000X-0.600000X0.750000X0*%
G04 #@! TD*
G04 #@! TA.AperFunction,ComponentPad*
%ADD18O,1.700000X2.000000*%
G04 #@! TD*
G04 #@! TA.AperFunction,SMDPad,CuDef*
%ADD19RoundRect,0.237500X-0.237500X0.300000X-0.237500X-0.300000X0.237500X-0.300000X0.237500X0.300000X0*%
G04 #@! TD*
G04 #@! TA.AperFunction,SMDPad,CuDef*
%ADD20RoundRect,0.237500X0.237500X-0.300000X0.237500X0.300000X-0.237500X0.300000X-0.237500X-0.300000X0*%
G04 #@! TD*
G04 #@! TA.AperFunction,ComponentPad*
%ADD21RoundRect,0.250000X-0.600000X-0.725000X0.600000X-0.725000X0.600000X0.725000X-0.600000X0.725000X0*%
G04 #@! TD*
G04 #@! TA.AperFunction,ComponentPad*
%ADD22O,1.700000X1.950000*%
G04 #@! TD*
G04 #@! TA.AperFunction,ComponentPad*
%ADD23R,1.650000X1.650000*%
G04 #@! TD*
G04 #@! TA.AperFunction,ComponentPad*
%ADD24C,1.650000*%
G04 #@! TD*
G04 #@! TA.AperFunction,ComponentPad*
%ADD25R,2.000000X1.905000*%
G04 #@! TD*
G04 #@! TA.AperFunction,ComponentPad*
%ADD26O,2.000000X1.905000*%
G04 #@! TD*
G04 #@! TA.AperFunction,ComponentPad*
%ADD27C,2.000000*%
G04 #@! TD*
G04 #@! TA.AperFunction,ComponentPad*
%ADD28O,1.950000X1.700000*%
G04 #@! TD*
G04 #@! TA.AperFunction,ComponentPad*
%ADD29RoundRect,0.625000X0.625000X0.625000X-0.625000X0.625000X-0.625000X-0.625000X0.625000X-0.625000X0*%
G04 #@! TD*
G04 #@! TA.AperFunction,ComponentPad*
%ADD30C,5.500000*%
G04 #@! TD*
G04 #@! TA.AperFunction,SMDPad,CuDef*
%ADD31RoundRect,0.150000X0.150000X-0.825000X0.150000X0.825000X-0.150000X0.825000X-0.150000X-0.825000X0*%
G04 #@! TD*
G04 #@! TA.AperFunction,SMDPad,CuDef*
%ADD32RoundRect,0.237500X-0.300000X-0.237500X0.300000X-0.237500X0.300000X0.237500X-0.300000X0.237500X0*%
G04 #@! TD*
G04 #@! TA.AperFunction,SMDPad,CuDef*
%ADD33RoundRect,0.237500X0.300000X0.237500X-0.300000X0.237500X-0.300000X-0.237500X0.300000X-0.237500X0*%
G04 #@! TD*
G04 #@! TA.AperFunction,SMDPad,CuDef*
%ADD34RoundRect,0.250000X0.412500X0.650000X-0.412500X0.650000X-0.412500X-0.650000X0.412500X-0.650000X0*%
G04 #@! TD*
G04 #@! TA.AperFunction,ComponentPad*
%ADD35R,1.600000X2.400000*%
G04 #@! TD*
G04 #@! TA.AperFunction,ComponentPad*
%ADD36O,1.600000X2.400000*%
G04 #@! TD*
G04 #@! TA.AperFunction,SMDPad,CuDef*
%ADD37RoundRect,0.237500X-0.250000X-0.237500X0.250000X-0.237500X0.250000X0.237500X-0.250000X0.237500X0*%
G04 #@! TD*
G04 #@! TA.AperFunction,SMDPad,CuDef*
%ADD38RoundRect,0.150000X-0.150000X0.587500X-0.150000X-0.587500X0.150000X-0.587500X0.150000X0.587500X0*%
G04 #@! TD*
G04 #@! TA.AperFunction,SMDPad,CuDef*
%ADD39RoundRect,0.237500X0.250000X0.237500X-0.250000X0.237500X-0.250000X-0.237500X0.250000X-0.237500X0*%
G04 #@! TD*
G04 #@! TA.AperFunction,SMDPad,CuDef*
%ADD40R,0.600000X0.700000*%
G04 #@! TD*
G04 #@! TA.AperFunction,SMDPad,CuDef*
%ADD41R,1.100000X1.800000*%
G04 #@! TD*
G04 #@! TA.AperFunction,SMDPad,CuDef*
%ADD42RoundRect,0.237500X-0.237500X0.250000X-0.237500X-0.250000X0.237500X-0.250000X0.237500X0.250000X0*%
G04 #@! TD*
G04 #@! TA.AperFunction,SMDPad,CuDef*
%ADD43R,0.450000X0.600000*%
G04 #@! TD*
G04 #@! TA.AperFunction,SMDPad,CuDef*
%ADD44R,0.900000X2.000000*%
G04 #@! TD*
G04 #@! TA.AperFunction,SMDPad,CuDef*
%ADD45R,2.000000X0.900000*%
G04 #@! TD*
G04 #@! TA.AperFunction,SMDPad,CuDef*
%ADD46R,5.000000X5.000000*%
G04 #@! TD*
G04 #@! TA.AperFunction,SMDPad,CuDef*
%ADD47RoundRect,0.150000X0.587500X0.150000X-0.587500X0.150000X-0.587500X-0.150000X0.587500X-0.150000X0*%
G04 #@! TD*
G04 #@! TA.AperFunction,SMDPad,CuDef*
%ADD48RoundRect,0.250000X0.400000X0.625000X-0.400000X0.625000X-0.400000X-0.625000X0.400000X-0.625000X0*%
G04 #@! TD*
G04 #@! TA.AperFunction,SMDPad,CuDef*
%ADD49RoundRect,0.250000X0.350000X0.450000X-0.350000X0.450000X-0.350000X-0.450000X0.350000X-0.450000X0*%
G04 #@! TD*
G04 #@! TA.AperFunction,SMDPad,CuDef*
%ADD50RoundRect,0.062500X0.062500X-0.337500X0.062500X0.337500X-0.062500X0.337500X-0.062500X-0.337500X0*%
G04 #@! TD*
G04 #@! TA.AperFunction,SMDPad,CuDef*
%ADD51RoundRect,0.062500X0.337500X-0.062500X0.337500X0.062500X-0.337500X0.062500X-0.337500X-0.062500X0*%
G04 #@! TD*
G04 #@! TA.AperFunction,SMDPad,CuDef*
%ADD52R,3.350000X3.350000*%
G04 #@! TD*
G04 #@! TA.AperFunction,ComponentPad*
%ADD53R,1.350000X1.350000*%
G04 #@! TD*
G04 #@! TA.AperFunction,ComponentPad*
%ADD54O,1.350000X1.350000*%
G04 #@! TD*
G04 #@! TA.AperFunction,ComponentPad*
%ADD55C,1.408000*%
G04 #@! TD*
G04 #@! TA.AperFunction,ComponentPad*
%ADD56C,0.700000*%
G04 #@! TD*
G04 #@! TA.AperFunction,ComponentPad*
%ADD57O,0.900000X2.400000*%
G04 #@! TD*
G04 #@! TA.AperFunction,ComponentPad*
%ADD58O,0.900000X1.700000*%
G04 #@! TD*
G04 #@! TA.AperFunction,SMDPad,CuDef*
%ADD59RoundRect,0.250000X-0.450000X0.350000X-0.450000X-0.350000X0.450000X-0.350000X0.450000X0.350000X0*%
G04 #@! TD*
G04 #@! TA.AperFunction,SMDPad,CuDef*
%ADD60RoundRect,0.249999X-0.450001X-1.425001X0.450001X-1.425001X0.450001X1.425001X-0.450001X1.425001X0*%
G04 #@! TD*
G04 #@! TA.AperFunction,ComponentPad*
%ADD61R,1.600000X1.600000*%
G04 #@! TD*
G04 #@! TA.AperFunction,ComponentPad*
%ADD62C,1.600000*%
G04 #@! TD*
G04 #@! TA.AperFunction,ViaPad*
%ADD63C,0.800000*%
G04 #@! TD*
G04 #@! TA.AperFunction,Conductor*
%ADD64C,3.000000*%
G04 #@! TD*
G04 #@! TA.AperFunction,Conductor*
%ADD65C,1.000000*%
G04 #@! TD*
G04 #@! TA.AperFunction,Conductor*
%ADD66C,2.000000*%
G04 #@! TD*
G04 #@! TA.AperFunction,Conductor*
%ADD67C,0.250000*%
G04 #@! TD*
G04 #@! TA.AperFunction,Conductor*
%ADD68C,0.600000*%
G04 #@! TD*
G04 #@! TA.AperFunction,Conductor*
%ADD69C,0.350000*%
G04 #@! TD*
G04 #@! TA.AperFunction,Conductor*
%ADD70C,0.400000*%
G04 #@! TD*
G04 #@! TA.AperFunction,Conductor*
%ADD71C,0.200000*%
G04 #@! TD*
G04 APERTURE END LIST*
D10*
X141973300Y-146850100D03*
D11*
X141973300Y-144310100D03*
D12*
X180097900Y-120103900D03*
X183222900Y-120103900D03*
D13*
X178142900Y-92316300D03*
X178142900Y-98416300D03*
X183070500Y-92316300D03*
X183070500Y-98416300D03*
D14*
X136666500Y-96020170D03*
X144166500Y-97653500D03*
D13*
X183070500Y-100444300D03*
X183070500Y-106544300D03*
X178142900Y-100444300D03*
X178142900Y-106544300D03*
D15*
X156654500Y-112331500D03*
X156654500Y-110281500D03*
D16*
X154114500Y-112315500D03*
X154114500Y-110315500D03*
D17*
X147002500Y-138493500D03*
D18*
X149502500Y-138493500D03*
D10*
X155130500Y-121983500D03*
D11*
X155130500Y-119443500D03*
D19*
X131762500Y-144752000D03*
X131762500Y-146477000D03*
D20*
X131762500Y-140381000D03*
X131762500Y-138656000D03*
D21*
X160076500Y-120332500D03*
D22*
X162576500Y-120332500D03*
X165076500Y-120332500D03*
X167576500Y-120332500D03*
D19*
X170116500Y-113002000D03*
X170116500Y-114727000D03*
D23*
X129136100Y-109443500D03*
D24*
X129136100Y-129443500D03*
X149136100Y-124443500D03*
X149136100Y-114443500D03*
D25*
X129222500Y-145605500D03*
D26*
X129222500Y-143065500D03*
X129222500Y-140525500D03*
D27*
X151218900Y-83731100D03*
X151218900Y-91351100D03*
D10*
X151218900Y-101511100D03*
D28*
X151218900Y-98971100D03*
D27*
X156616400Y-83711601D03*
X156616400Y-91331601D03*
D10*
X156616400Y-101491601D03*
D28*
X156616400Y-98951601D03*
D27*
X167358400Y-83711601D03*
X167358400Y-91331601D03*
D10*
X167358400Y-101491601D03*
D28*
X167358400Y-98951601D03*
D29*
X169146500Y-78953500D03*
X169146500Y-70753501D03*
X164146500Y-78953500D03*
X164146500Y-70753501D03*
X159146500Y-78953500D03*
X159146500Y-70753501D03*
X154146500Y-78953500D03*
X154146500Y-70753501D03*
X145500100Y-78977099D03*
X145500100Y-70777100D03*
X140500100Y-78977099D03*
X140500100Y-70777100D03*
X193106500Y-78913499D03*
X193106500Y-70713500D03*
X188106500Y-78913499D03*
X188106500Y-70713500D03*
X183106500Y-78913499D03*
X183106500Y-70713500D03*
X178106500Y-78913499D03*
X178106500Y-70713500D03*
D27*
X144166500Y-87133500D03*
X144166500Y-92213500D03*
D30*
X198564500Y-85407500D03*
X132270500Y-85407500D03*
D27*
X161960900Y-83711601D03*
X161960900Y-91331601D03*
D10*
X161960900Y-101491601D03*
D28*
X161960900Y-98951601D03*
D30*
X132256500Y-76503500D03*
D31*
X159321500Y-116076500D03*
X160591500Y-116076500D03*
X161861500Y-116076500D03*
X163131500Y-116076500D03*
X164401500Y-116076500D03*
X165671500Y-116076500D03*
X166941500Y-116076500D03*
X168211500Y-116076500D03*
X168211500Y-111126500D03*
X166941500Y-111126500D03*
X165671500Y-111126500D03*
X164401500Y-111126500D03*
X163131500Y-111126500D03*
X161861500Y-111126500D03*
X160591500Y-111126500D03*
X159321500Y-111126500D03*
D32*
X180022500Y-122085100D03*
X181747500Y-122085100D03*
D33*
X186725900Y-122085100D03*
X185000900Y-122085100D03*
D34*
X188239800Y-120103900D03*
X185114800Y-120103900D03*
D12*
X190182500Y-120103900D03*
X193307500Y-120103900D03*
D13*
X193128900Y-100393500D03*
X193128900Y-106493500D03*
X188099700Y-92265500D03*
X188099700Y-98365500D03*
X193128900Y-92261500D03*
X193128900Y-98361500D03*
D35*
X183172100Y-109639100D03*
D36*
X180632100Y-109639100D03*
X178092100Y-109639100D03*
X175552100Y-109639100D03*
X175552100Y-117259100D03*
X178092100Y-117259100D03*
X180632100Y-117259100D03*
X183172100Y-117259100D03*
D35*
X194348100Y-109639100D03*
D36*
X191808100Y-109639100D03*
X189268100Y-109639100D03*
X186728100Y-109639100D03*
X186728100Y-117259100D03*
X189268100Y-117259100D03*
X191808100Y-117259100D03*
X194348100Y-117259100D03*
D13*
X188099700Y-100393500D03*
X188099700Y-106493500D03*
D33*
X178295300Y-122085100D03*
X176570300Y-122085100D03*
D32*
X190080900Y-122085100D03*
X191805900Y-122085100D03*
D37*
X189256000Y-125412500D03*
X191081000Y-125412500D03*
D32*
X192659000Y-125412500D03*
X194384000Y-125412500D03*
D33*
X191018500Y-126936500D03*
X189293500Y-126936500D03*
D38*
X166687500Y-130428000D03*
X164787500Y-130428000D03*
X165737500Y-132303000D03*
D37*
X162918800Y-128638300D03*
X164743800Y-128638300D03*
D39*
X164741200Y-127088900D03*
X162916200Y-127088900D03*
D40*
X158033000Y-143918900D03*
X156633000Y-143918900D03*
D17*
X146991700Y-145453100D03*
D18*
X149491700Y-145453100D03*
D41*
X168846500Y-125740300D03*
X168846500Y-131940300D03*
X172546500Y-131940300D03*
X172546500Y-125740300D03*
X158885500Y-125868500D03*
X158885500Y-132068500D03*
X155185500Y-125868500D03*
X155185500Y-132068500D03*
D19*
X165024900Y-142096300D03*
X165024900Y-143821300D03*
D37*
X165115500Y-137428900D03*
X166940500Y-137428900D03*
D39*
X166940500Y-140476900D03*
X165115500Y-140476900D03*
D37*
X165115500Y-138952900D03*
X166940500Y-138952900D03*
D19*
X166624900Y-142102800D03*
X166624900Y-143827800D03*
D42*
X156456500Y-140571000D03*
X156456500Y-142396000D03*
D43*
X154916500Y-144081900D03*
X154916500Y-146181900D03*
D40*
X160633000Y-143918900D03*
X159233000Y-143918900D03*
X161943000Y-143918900D03*
X163343000Y-143918900D03*
D44*
X193865500Y-128986500D03*
X192595500Y-128986500D03*
X191325500Y-128986500D03*
X190055500Y-128986500D03*
X188785500Y-128986500D03*
X187515500Y-128986500D03*
X186245500Y-128986500D03*
X184975500Y-128986500D03*
X183705500Y-128986500D03*
X182435500Y-128986500D03*
X181165500Y-128986500D03*
X179895500Y-128986500D03*
X178625500Y-128986500D03*
X177355500Y-128986500D03*
D45*
X176355500Y-131771500D03*
X176355500Y-133041500D03*
X176355500Y-134311500D03*
X176355500Y-135581500D03*
X176355500Y-136851500D03*
X176355500Y-138121500D03*
X176355500Y-139391500D03*
X176355500Y-140661500D03*
X176355500Y-141931500D03*
X176355500Y-143201500D03*
D44*
X177355500Y-145986500D03*
X178625500Y-145986500D03*
X179895500Y-145986500D03*
X181165500Y-145986500D03*
X182435500Y-145986500D03*
X183705500Y-145986500D03*
X184975500Y-145986500D03*
X186245500Y-145986500D03*
X187515500Y-145986500D03*
X188785500Y-145986500D03*
X190055500Y-145986500D03*
X191325500Y-145986500D03*
X192595500Y-145986500D03*
X193865500Y-145986500D03*
D46*
X186365500Y-136486500D03*
D38*
X162811500Y-130460000D03*
X160911500Y-130460000D03*
X161861500Y-132335000D03*
D10*
X178955700Y-125082300D03*
D11*
X181495700Y-125082300D03*
X184035700Y-125082300D03*
X186575700Y-125082300D03*
D10*
X184442100Y-149161500D03*
D11*
X186982100Y-149161500D03*
D47*
X170596800Y-137091500D03*
X170596800Y-135191500D03*
X168721800Y-136141500D03*
D48*
X162829000Y-135593500D03*
X159729000Y-135593500D03*
D49*
X181578000Y-150304500D03*
X179578000Y-150304500D03*
X181578000Y-148272500D03*
X179578000Y-148272500D03*
D50*
X159533000Y-142408900D03*
X160033000Y-142408900D03*
X160533000Y-142408900D03*
X161033000Y-142408900D03*
X161533000Y-142408900D03*
X162033000Y-142408900D03*
X162533000Y-142408900D03*
D51*
X163483000Y-141458900D03*
X163483000Y-140958900D03*
X163483000Y-140458900D03*
X163483000Y-139958900D03*
X163483000Y-139458900D03*
X163483000Y-138958900D03*
X163483000Y-138458900D03*
D50*
X162533000Y-137508900D03*
X162033000Y-137508900D03*
X161533000Y-137508900D03*
X161033000Y-137508900D03*
X160533000Y-137508900D03*
X160033000Y-137508900D03*
X159533000Y-137508900D03*
D51*
X158583000Y-138458900D03*
X158583000Y-138958900D03*
X158583000Y-139458900D03*
X158583000Y-139958900D03*
X158583000Y-140458900D03*
X158583000Y-140958900D03*
X158583000Y-141458900D03*
D52*
X161033000Y-139958900D03*
D32*
X192648500Y-126936500D03*
X194373500Y-126936500D03*
D34*
X178168300Y-120103900D03*
X175043300Y-120103900D03*
D53*
X154106500Y-141633500D03*
D54*
X154106500Y-139633500D03*
D32*
X172480900Y-137093500D03*
X174205900Y-137093500D03*
X172507400Y-135191500D03*
X174232400Y-135191500D03*
D37*
X167424100Y-146824700D03*
X169249100Y-146824700D03*
X187413900Y-114795300D03*
X189238900Y-114795300D03*
D55*
X183070500Y-89319100D03*
X183070500Y-84239100D03*
D37*
X176241700Y-114795300D03*
X178066700Y-114795300D03*
D55*
X193128900Y-89319100D03*
X193128900Y-84239100D03*
D56*
X158316500Y-145763500D03*
X159166500Y-145763500D03*
X160016500Y-145763500D03*
X160866500Y-145763500D03*
X161716500Y-145763500D03*
X162566500Y-145763500D03*
X163416500Y-145763500D03*
X164266500Y-145763500D03*
X164266500Y-147113500D03*
X163416500Y-147113500D03*
X162566500Y-147113500D03*
X161716500Y-147113500D03*
X160866500Y-147113500D03*
X160016500Y-147113500D03*
X159166500Y-147113500D03*
X158316500Y-147113500D03*
D57*
X165616500Y-146743500D03*
X156966500Y-146743500D03*
D58*
X156966500Y-150123500D03*
X165616500Y-150123500D03*
D39*
X193607700Y-114795300D03*
X191782700Y-114795300D03*
D55*
X188099700Y-89319100D03*
X188099700Y-84239100D03*
D59*
X153856500Y-135153500D03*
X153856500Y-137153500D03*
D60*
X168338500Y-149567900D03*
X174438500Y-149567900D03*
D61*
X136334500Y-144575521D03*
D62*
X136334500Y-147075521D03*
D55*
X178092100Y-89319100D03*
X178092100Y-84239100D03*
D39*
X182435500Y-114795300D03*
X180610500Y-114795300D03*
D42*
X155155900Y-148733500D03*
X155155900Y-150558500D03*
D63*
X167206500Y-133533500D03*
X170573700Y-136105900D03*
X191731900Y-124421900D03*
X192671700Y-124432420D03*
X190797430Y-130510120D03*
X171183300Y-130441998D03*
X161866500Y-133523500D03*
X169776431Y-141784903D03*
X159985000Y-130441700D03*
X159981900Y-133464300D03*
X178244500Y-134277100D03*
X172504100Y-133972300D03*
X193846500Y-147643500D03*
X183172100Y-135851900D03*
X184340500Y-139712700D03*
X185407300Y-139712700D03*
X186372500Y-139712700D03*
X188353700Y-139712700D03*
X187337700Y-139712700D03*
X185559700Y-133311900D03*
X189572900Y-136766300D03*
X162166300Y-138874500D03*
X160976500Y-141121900D03*
X184492900Y-133311900D03*
X170573700Y-146875500D03*
X159836500Y-141121900D03*
X188201300Y-126403100D03*
X162156500Y-141191900D03*
X193856500Y-144343500D03*
X189572900Y-135851900D03*
X183781700Y-122085100D03*
X169227500Y-145453100D03*
X153860500Y-150533100D03*
X186524900Y-133311900D03*
X189572900Y-137731500D03*
X193078100Y-122085100D03*
X183172100Y-138645900D03*
X193865500Y-130644900D03*
X167805100Y-143827500D03*
X159846500Y-140017500D03*
X160972500Y-139992100D03*
X160972500Y-138874500D03*
X155155900Y-133692900D03*
X168795700Y-138976100D03*
X187490100Y-133311900D03*
X153708100Y-125895100D03*
X183172100Y-134886700D03*
X157662099Y-142726899D03*
X174231300Y-138341100D03*
X174494300Y-131771500D03*
X174180500Y-126657100D03*
X175831500Y-148907500D03*
X176568100Y-123253500D03*
X183172100Y-136766300D03*
X182918100Y-122085100D03*
X169710100Y-139001500D03*
X159854900Y-138899900D03*
X164071100Y-143918900D03*
X183172100Y-137731500D03*
X189572900Y-134886700D03*
X189572900Y-138645900D03*
X194602100Y-120103900D03*
X175831500Y-149974300D03*
X162140900Y-139966700D03*
X193865500Y-131686300D03*
X188506100Y-133311900D03*
X169674468Y-142813604D03*
X156116500Y-138023500D03*
X169633900Y-143903700D03*
X157133980Y-138031900D03*
X154241500Y-147789900D03*
X167039000Y-148145500D03*
D64*
X144166500Y-92213500D02*
X144166500Y-97653500D01*
X145048399Y-91331601D02*
X144166500Y-92213500D01*
X167358400Y-91331601D02*
X145048399Y-91331601D01*
X144166500Y-97653500D02*
X140648832Y-101171168D01*
X140648832Y-117930768D02*
X129136100Y-129443500D01*
X140648832Y-101171168D02*
X140648832Y-117930768D01*
D65*
X151218900Y-98971100D02*
X167338901Y-98971100D01*
X170116500Y-99734701D02*
X170116500Y-113002000D01*
X149669389Y-105870389D02*
X154114500Y-110315500D01*
X167338901Y-98971100D02*
X167358400Y-98951601D01*
X156680011Y-120433989D02*
X155130500Y-121983500D01*
X150158500Y-135153500D02*
X149502500Y-135809500D01*
X154114500Y-110315500D02*
X153971676Y-110315500D01*
X150659878Y-98971100D02*
X149669389Y-99961589D01*
X131762500Y-140543500D02*
X129240500Y-140543500D01*
X169333400Y-98951601D02*
X170116500Y-99734701D01*
X156680011Y-118477011D02*
X156680011Y-120433989D01*
D66*
X149502500Y-127527500D02*
X149502500Y-135809500D01*
X155046500Y-121983500D02*
X149502500Y-127527500D01*
D65*
X170116500Y-113002000D02*
X170087000Y-113002000D01*
X149502500Y-138686324D02*
X147807824Y-140381000D01*
X152714980Y-111572196D02*
X152714980Y-114511980D01*
X153856500Y-135153500D02*
X150158500Y-135153500D01*
X152714980Y-114511980D02*
X156680011Y-118477011D01*
X167358400Y-98951601D02*
X169333400Y-98951601D01*
D66*
X149502500Y-135809500D02*
X149502500Y-138493500D01*
D65*
X147807824Y-140381000D02*
X131762500Y-140381000D01*
D66*
X155130500Y-121983500D02*
X155046500Y-121983500D01*
D65*
X151218900Y-98971100D02*
X150659878Y-98971100D01*
X153971676Y-110315500D02*
X152714980Y-111572196D01*
X170087000Y-113002000D02*
X168211500Y-111126500D01*
X149502500Y-138493500D02*
X149502500Y-138686324D01*
X149669389Y-99961589D02*
X149669389Y-105870389D01*
X195866500Y-120851644D02*
X195866500Y-116053500D01*
D67*
X166624900Y-142102800D02*
X166053480Y-141531380D01*
D68*
X182435500Y-114795300D02*
X182435500Y-113699060D01*
X166903000Y-133837000D02*
X167206500Y-133533500D01*
D65*
X177416220Y-113620780D02*
X176241700Y-114795300D01*
X193607700Y-114795300D02*
X193595346Y-114795300D01*
X192659000Y-125412500D02*
X192659000Y-128923000D01*
D68*
X170596800Y-136129000D02*
X170573700Y-136105900D01*
D69*
X165977520Y-138354380D02*
X166903000Y-137428900D01*
D65*
X182513780Y-113620780D02*
X177416220Y-113620780D01*
X192671700Y-124046444D02*
X195866500Y-120851644D01*
D67*
X166053480Y-138278420D02*
X166903000Y-137428900D01*
X166053480Y-141531380D02*
X166053480Y-138278420D01*
D65*
X194608300Y-114795300D02*
X193607700Y-114795300D01*
D68*
X187413900Y-113680900D02*
X187353780Y-113620780D01*
D65*
X191731900Y-124724100D02*
X191043500Y-125412500D01*
D69*
X165797200Y-142102800D02*
X165977520Y-141922480D01*
D65*
X142276310Y-147153110D02*
X147985210Y-147153110D01*
X193595346Y-114795300D02*
X192420826Y-113620780D01*
D68*
X166903000Y-137428900D02*
X166903000Y-133837000D01*
D65*
X192659000Y-125412500D02*
X192659000Y-124445120D01*
X164712300Y-142408900D02*
X162357520Y-142408900D01*
D68*
X182435500Y-113699060D02*
X182513780Y-113620780D01*
D65*
X147985210Y-147153110D02*
X149491700Y-145646620D01*
X187353780Y-113620780D02*
X182513780Y-113620780D01*
D68*
X170596800Y-137091500D02*
X170596800Y-136129000D01*
D65*
X166624900Y-142102800D02*
X165797200Y-142102800D01*
X192659000Y-128923000D02*
X192595500Y-128986500D01*
D69*
X165977520Y-141922480D02*
X165977520Y-138354380D01*
D68*
X170596800Y-137091500D02*
X172478900Y-137091500D01*
D65*
X191731900Y-124421900D02*
X191731900Y-124724100D01*
D68*
X187413900Y-114795300D02*
X187413900Y-113680900D01*
D65*
X165797200Y-142102800D02*
X165031400Y-142102800D01*
X192671700Y-124432420D02*
X192671700Y-124046444D01*
X192659000Y-124445120D02*
X192671700Y-124432420D01*
X192420826Y-113620780D02*
X187353780Y-113620780D01*
X195866500Y-116053500D02*
X194608300Y-114795300D01*
X165024900Y-142096300D02*
X164712300Y-142408900D01*
D68*
X172478900Y-137091500D02*
X172480900Y-137093500D01*
D65*
X165031400Y-142102800D02*
X165024900Y-142096300D01*
X191043500Y-125412500D02*
X192659000Y-125412500D01*
D66*
X193128900Y-84239100D02*
X193128900Y-78935899D01*
X193128900Y-78935899D02*
X193106500Y-78913499D01*
X193106500Y-78913499D02*
X193106500Y-70713500D01*
X188099700Y-78920299D02*
X188106500Y-78913499D01*
X188106500Y-70713500D02*
X188106500Y-78913499D01*
X188099700Y-84239100D02*
X188099700Y-78920299D01*
X183070500Y-84239100D02*
X183070500Y-70749500D01*
X183070500Y-70749500D02*
X183106500Y-70713500D01*
X178106500Y-70713500D02*
X178106500Y-78913499D01*
X178106500Y-84224700D02*
X178092100Y-84239100D01*
X178106500Y-78913499D02*
X178106500Y-84224700D01*
X169146500Y-70753501D02*
X169146500Y-81923501D01*
X169146500Y-81923501D02*
X167358400Y-83711601D01*
X164146500Y-81526001D02*
X161960900Y-83711601D01*
X164146500Y-70753501D02*
X164146500Y-81526001D01*
X159146500Y-81181501D02*
X156616400Y-83711601D01*
X159146500Y-70753501D02*
X159146500Y-81181501D01*
X154146500Y-80803500D02*
X151218900Y-83731100D01*
X154146500Y-70753501D02*
X154146500Y-80803500D01*
D68*
X163131500Y-111126500D02*
X163131500Y-110502941D01*
X163131500Y-110502941D02*
X154139659Y-101511100D01*
X154139659Y-101511100D02*
X151218900Y-101511100D01*
X164401500Y-111126500D02*
X164401500Y-109276701D01*
X164401500Y-109276701D02*
X156616400Y-101491601D01*
X165671500Y-111126500D02*
X165671500Y-109278500D01*
X161960900Y-101491601D02*
X161960900Y-105567900D01*
X161960900Y-105567900D02*
X165671500Y-109278500D01*
X166941500Y-111126500D02*
X166941500Y-103758500D01*
X166941500Y-103758500D02*
X167358400Y-103341600D01*
X167358400Y-103341600D02*
X167358400Y-101491601D01*
X178066700Y-114795300D02*
X178066700Y-117233700D01*
X178092100Y-117259100D02*
X178092100Y-121881900D01*
D69*
X184975500Y-127636500D02*
X184393220Y-127054220D01*
X181988562Y-126352300D02*
X180378100Y-126352300D01*
X184975500Y-128986500D02*
X184975500Y-127636500D01*
D68*
X178092100Y-121881900D02*
X178295300Y-122085100D01*
D69*
X184393220Y-127054220D02*
X182690481Y-127054219D01*
D68*
X178295300Y-124421900D02*
X178955700Y-125082300D01*
D69*
X179108100Y-125082300D02*
X178955700Y-125082300D01*
D68*
X178066700Y-117233700D02*
X178092100Y-117259100D01*
D69*
X182690481Y-127054219D02*
X181988562Y-126352300D01*
D68*
X178295300Y-122085100D02*
X178295300Y-124421900D01*
D69*
X180378100Y-126352300D02*
X179108100Y-125082300D01*
X182918100Y-126504700D02*
X185113700Y-126504700D01*
X186245500Y-127636500D02*
X186245500Y-128986500D01*
D68*
X180022500Y-123609100D02*
X181495700Y-125082300D01*
D69*
X181495700Y-125082300D02*
X182918100Y-126504700D01*
D68*
X180610500Y-114795300D02*
X180610500Y-117237500D01*
X180097900Y-120103900D02*
X180097900Y-122009700D01*
D69*
X185113700Y-126504700D02*
X186245500Y-127636500D01*
D68*
X180022500Y-122085100D02*
X180022500Y-123609100D01*
X180610500Y-117237500D02*
X180632100Y-117259100D01*
X180097900Y-122009700D02*
X180022500Y-122085100D01*
X180632100Y-117259100D02*
X180632100Y-119569700D01*
X180632100Y-119569700D02*
X180097900Y-120103900D01*
D69*
X187515500Y-127749300D02*
X187510979Y-127749300D01*
D68*
X189238900Y-117229900D02*
X189268100Y-117259100D01*
X188239800Y-120103900D02*
X188239800Y-121373108D01*
X188239800Y-121373108D02*
X187527808Y-122085100D01*
X187527808Y-122085100D02*
X186725900Y-122085100D01*
X188239800Y-118287400D02*
X189268100Y-117259100D01*
X186725900Y-122392100D02*
X184035700Y-125082300D01*
D69*
X187515500Y-128986500D02*
X187515500Y-127749300D01*
X187510979Y-127749300D02*
X184843979Y-125082300D01*
D68*
X186725900Y-122085100D02*
X186725900Y-122392100D01*
X188239800Y-120103900D02*
X188239800Y-118287400D01*
X189238900Y-114795300D02*
X189238900Y-117229900D01*
D69*
X184843979Y-125082300D02*
X184035700Y-125082300D01*
D68*
X191782700Y-114795300D02*
X191782700Y-117233700D01*
D69*
X186575700Y-125082300D02*
X186575700Y-125996700D01*
D68*
X190080900Y-122085100D02*
X189572900Y-122085100D01*
X190080900Y-122085100D02*
X190080900Y-120205500D01*
D69*
X186575700Y-125996700D02*
X188785500Y-128206500D01*
D68*
X191808100Y-118478300D02*
X190182500Y-120103900D01*
X191808100Y-117259100D02*
X191808100Y-118478300D01*
X189572900Y-122085100D02*
X186575700Y-125082300D01*
X190080900Y-120205500D02*
X190182500Y-120103900D01*
D69*
X188785500Y-128206500D02*
X188785500Y-128986500D01*
D68*
X191782700Y-117233700D02*
X191808100Y-117259100D01*
D69*
X176355500Y-133041500D02*
X177705500Y-133041500D01*
X177705500Y-133041500D02*
X177855011Y-132891989D01*
D65*
X163131500Y-117277500D02*
X160076500Y-120332500D01*
D69*
X175907700Y-127063500D02*
X173028690Y-124184490D01*
X175907700Y-129755900D02*
X175907700Y-127063500D01*
D65*
X163131500Y-116076500D02*
X163131500Y-117277500D01*
D69*
X173028690Y-124184490D02*
X163928490Y-124184490D01*
X177855011Y-132891989D02*
X177855011Y-130839611D01*
X177855011Y-130839611D02*
X177634900Y-130619500D01*
X163928490Y-124184490D02*
X160076500Y-120332500D01*
X176771300Y-130619500D02*
X175907700Y-129755900D01*
X177634900Y-130619500D02*
X176771300Y-130619500D01*
X165878970Y-123634970D02*
X162576500Y-120332500D01*
X179044051Y-127405851D02*
X177275953Y-127405851D01*
D65*
X164401500Y-116076500D02*
X164401500Y-118507500D01*
D69*
X179895500Y-128257300D02*
X179044051Y-127405851D01*
X179895500Y-128986500D02*
X179895500Y-128257300D01*
X173505072Y-123634970D02*
X165878970Y-123634970D01*
X177275953Y-127405851D02*
X173505072Y-123634970D01*
D65*
X164401500Y-118507500D02*
X162576500Y-120332500D01*
D69*
X181165500Y-127636500D02*
X181004758Y-127475758D01*
X173606220Y-122958980D02*
X167702980Y-122958980D01*
X181004758Y-127475758D02*
X179906309Y-127475758D01*
X179906309Y-127475758D02*
X179286882Y-126856331D01*
X179286882Y-126856331D02*
X177503570Y-126856330D01*
X181165500Y-128986500D02*
X181165500Y-127636500D01*
D65*
X165671500Y-116076500D02*
X165671500Y-119737500D01*
D69*
X177503570Y-126856330D02*
X173606220Y-122958980D01*
X167702980Y-122958980D02*
X165076500Y-120332500D01*
D65*
X165671500Y-119737500D02*
X165076500Y-120332500D01*
X166941500Y-119697500D02*
X167576500Y-120332500D01*
D69*
X173895260Y-122409460D02*
X169653460Y-122409460D01*
X181760944Y-126901820D02*
X180109509Y-126901820D01*
X179514500Y-126306811D02*
X177792611Y-126306811D01*
X182435500Y-127576376D02*
X181760944Y-126901820D01*
X177792611Y-126306811D02*
X173895260Y-122409460D01*
X182435500Y-128986500D02*
X182435500Y-127576376D01*
X180109509Y-126901820D02*
X179514500Y-126306811D01*
X169653460Y-122409460D02*
X167576500Y-120332500D01*
D65*
X166941500Y-116076500D02*
X166941500Y-119697500D01*
D64*
X145500100Y-85799900D02*
X144166500Y-87133500D01*
X145500100Y-78977099D02*
X145500100Y-85799900D01*
X145500100Y-70777100D02*
X145500100Y-78977099D01*
D70*
X191018500Y-127328000D02*
X191325500Y-127635000D01*
D68*
X170344802Y-130441998D02*
X168846500Y-131940300D01*
X191325500Y-128986500D02*
X191325500Y-129944500D01*
X168483800Y-132303000D02*
X168846500Y-131940300D01*
D70*
X190817500Y-126936500D02*
X189293500Y-125412500D01*
D68*
X170344802Y-130441998D02*
X171183300Y-130441998D01*
X165737500Y-132303000D02*
X168483800Y-132303000D01*
D70*
X191018500Y-126936500D02*
X191018500Y-127328000D01*
D65*
X168846500Y-131940300D02*
X168846500Y-125740300D01*
D70*
X191325500Y-127635000D02*
X191325500Y-128986500D01*
D68*
X191325500Y-129944500D02*
X190783989Y-130486011D01*
D71*
X161063000Y-144398900D02*
X161063000Y-145127084D01*
X160866500Y-146194952D02*
X161716500Y-147044952D01*
X160633000Y-143868900D02*
X161063000Y-143438900D01*
X161066499Y-145563501D02*
X161066500Y-145021124D01*
X161063000Y-143438900D02*
X161063000Y-142531392D01*
X161716500Y-147044952D02*
X161716500Y-147113500D01*
X160633000Y-143918900D02*
X160633000Y-143968900D01*
X160866500Y-145763500D02*
X160866500Y-146194952D01*
X160866500Y-145763500D02*
X161066499Y-145563501D01*
X160633000Y-143918900D02*
X160633000Y-143868900D01*
X160633000Y-143968900D02*
X161063000Y-144398900D01*
X161513000Y-144398900D02*
X161513000Y-145127084D01*
X161943000Y-143868900D02*
X161513000Y-143438900D01*
X161943000Y-143968900D02*
X161513000Y-144398900D01*
X161943000Y-143918900D02*
X161943000Y-143868900D01*
X161716500Y-145763500D02*
X161516501Y-145563501D01*
X161516501Y-145563501D02*
X161516500Y-145021124D01*
X161943000Y-143918900D02*
X161943000Y-143968900D01*
X161513000Y-143438900D02*
X161513000Y-142531392D01*
D68*
X162766500Y-135593500D02*
X162766500Y-134311900D01*
X164787500Y-128719500D02*
X164706300Y-128638300D01*
X162766500Y-134311900D02*
X164787500Y-132290900D01*
X164787500Y-130428000D02*
X164787500Y-128719500D01*
X164787500Y-132290900D02*
X164787500Y-130428000D01*
D70*
X169776431Y-141784903D02*
X169801103Y-141784903D01*
X169801103Y-141784903D02*
X174002700Y-145986500D01*
X159214500Y-132397500D02*
X158885500Y-132068500D01*
D68*
X161861500Y-132335000D02*
X161861500Y-133518500D01*
D70*
X161861500Y-132397500D02*
X159214500Y-132397500D01*
D68*
X161861500Y-133518500D02*
X161866500Y-133523500D01*
D70*
X174002700Y-145986500D02*
X177355500Y-145986500D01*
D65*
X158885500Y-125868500D02*
X158885500Y-132068500D01*
D68*
X160911500Y-128267500D02*
X162090100Y-127088900D01*
D70*
X156456500Y-140608500D02*
X155316989Y-139468989D01*
X155316989Y-139468989D02*
X155316989Y-137672011D01*
D68*
X162090100Y-127088900D02*
X162953700Y-127088900D01*
D70*
X155316989Y-137672011D02*
X159524700Y-133464300D01*
X159524700Y-133464300D02*
X159981900Y-133464300D01*
D68*
X160911500Y-130460000D02*
X160911500Y-128267500D01*
X160003300Y-130460000D02*
X159985000Y-130441700D01*
X160911500Y-130460000D02*
X160003300Y-130460000D01*
X188785500Y-145986500D02*
X188785500Y-147165522D01*
X188211922Y-147739100D02*
X185864500Y-147739100D01*
X185864500Y-147739100D02*
X184442100Y-149161500D01*
X184442100Y-149161500D02*
X183553100Y-148272500D01*
X183553100Y-148272500D02*
X181578000Y-148272500D01*
X188785500Y-147165522D02*
X188211922Y-147739100D01*
X185632589Y-150511011D02*
X186982100Y-149161500D01*
X186982100Y-149161500D02*
X188912500Y-149161500D01*
X181578000Y-150304500D02*
X181784511Y-150511011D01*
X181784511Y-150511011D02*
X185632589Y-150511011D01*
X188912500Y-149161500D02*
X190055500Y-148018500D01*
X190055500Y-148018500D02*
X190055500Y-145986500D01*
D67*
X159166500Y-145052400D02*
X158033000Y-143918900D01*
D68*
X163416500Y-147860500D02*
X163416500Y-147113500D01*
X159166500Y-148543500D02*
X156673676Y-148543500D01*
D70*
X168116500Y-144823500D02*
X163861526Y-144823500D01*
X168616989Y-142153389D02*
X168616989Y-144323011D01*
D68*
X162733500Y-148543500D02*
X163416500Y-147860500D01*
X154916500Y-146786324D02*
X154916500Y-146181900D01*
D70*
X163416500Y-145763500D02*
X163416500Y-147113500D01*
X163861526Y-144823500D02*
X163416500Y-145268526D01*
X166940500Y-140476900D02*
X168616989Y-142153389D01*
D68*
X156673676Y-148543500D02*
X154916500Y-146786324D01*
D70*
X159166500Y-145763500D02*
X159166500Y-147113500D01*
D68*
X159166500Y-147113500D02*
X159166500Y-148543500D01*
X159166500Y-148543500D02*
X162733500Y-148543500D01*
D67*
X159166500Y-145763500D02*
X159166500Y-145052400D01*
D70*
X163416500Y-145268526D02*
X163416500Y-145763500D01*
X168616989Y-144323011D02*
X168116500Y-144823500D01*
D68*
X183705500Y-130035300D02*
X183222900Y-130517900D01*
X172504100Y-135188200D02*
X172507400Y-135191500D01*
X172504100Y-133972300D02*
X172504100Y-135188200D01*
X183705500Y-129832100D02*
X183705500Y-130035300D01*
X178752500Y-133261100D02*
X178752500Y-133769100D01*
X178752500Y-131330700D02*
X178752500Y-133261100D01*
X183222900Y-130517900D02*
X179565300Y-130517900D01*
X183705500Y-128986500D02*
X183705500Y-129832100D01*
X179565300Y-130517900D02*
X178752500Y-131330700D01*
X178752500Y-133769100D02*
X178244500Y-134277100D01*
X172507400Y-135191500D02*
X170596800Y-135191500D01*
D65*
X184492900Y-134613900D02*
X186365500Y-136486500D01*
X193865500Y-130644900D02*
X193865500Y-131686300D01*
D68*
X188709300Y-126403100D02*
X188201300Y-126403100D01*
D65*
X170116500Y-114727000D02*
X170116500Y-115703500D01*
X175552100Y-117259100D02*
X175552100Y-119595100D01*
D68*
X189115700Y-126403100D02*
X188709300Y-126403100D01*
X191805900Y-122085100D02*
X193078100Y-122085100D01*
X158316500Y-145602400D02*
X156633000Y-143918900D01*
D65*
X184340500Y-139712700D02*
X184340500Y-138511500D01*
X174967700Y-117843500D02*
X175552100Y-117259100D01*
D68*
X158316500Y-145763500D02*
X158316500Y-145602400D01*
D65*
X172256500Y-117843500D02*
X174967700Y-117843500D01*
D68*
X168795700Y-138976100D02*
X168795700Y-136215400D01*
D65*
X193865500Y-145986500D02*
X193865500Y-144352500D01*
D68*
X157662099Y-142889801D02*
X156633000Y-143918900D01*
D67*
X160533000Y-141565400D02*
X160976500Y-141121900D01*
D65*
X189572900Y-137731500D02*
X187610500Y-137731500D01*
D68*
X157662099Y-142726899D02*
X158490021Y-142726899D01*
D65*
X187337700Y-137458700D02*
X186365500Y-136486500D01*
X128869998Y-138493500D02*
X127522490Y-139841008D01*
D68*
X158316500Y-147113500D02*
X158316500Y-145763500D01*
D65*
X136334500Y-147075521D02*
X132361021Y-147075521D01*
X183222900Y-120103900D02*
X185114800Y-120103900D01*
X189572900Y-134886700D02*
X187965300Y-134886700D01*
X188353700Y-139712700D02*
X188353700Y-138474700D01*
X131925000Y-138493500D02*
X131762500Y-138656000D01*
X181747500Y-122085100D02*
X182918100Y-122085100D01*
D70*
X153885900Y-150558500D02*
X153860500Y-150533100D01*
D65*
X153734700Y-125868500D02*
X153708100Y-125895100D01*
X174844900Y-149974300D02*
X175831500Y-149974300D01*
X183172100Y-137731500D02*
X185120500Y-137731500D01*
D68*
X159233000Y-143469878D02*
X159233000Y-143918900D01*
D65*
X131762500Y-138493500D02*
X128869998Y-138493500D01*
X187610500Y-137731500D02*
X186365500Y-136486500D01*
X164071100Y-143918900D02*
X164927300Y-143918900D01*
X175831500Y-148907500D02*
X175831500Y-149517100D01*
D68*
X174232400Y-138340000D02*
X174231300Y-138341100D01*
D65*
X188506100Y-133311900D02*
X188506100Y-134345900D01*
D67*
X160533000Y-142897389D02*
X159511489Y-143918900D01*
D68*
X174232400Y-135191500D02*
X174232400Y-138340000D01*
X189293500Y-126580900D02*
X189115700Y-126403100D01*
X166940500Y-138952900D02*
X168772500Y-138952900D01*
D65*
X174438500Y-149567900D02*
X174815500Y-149944900D01*
D70*
X169249100Y-146824700D02*
X169249100Y-145474700D01*
D65*
X130094000Y-146477000D02*
X129222500Y-145605500D01*
D70*
X155155900Y-150558500D02*
X153885900Y-150558500D01*
D65*
X191805900Y-121605500D02*
X193307500Y-120103900D01*
X183172100Y-138645900D02*
X184206100Y-138645900D01*
D70*
X169249100Y-145474700D02*
X169227500Y-145453100D01*
D68*
X173263700Y-125740300D02*
X174180500Y-126657100D01*
D65*
X155185500Y-125868500D02*
X153734700Y-125868500D01*
X188353700Y-138474700D02*
X186365500Y-136486500D01*
X175780700Y-149567900D02*
X175831500Y-149517100D01*
X182918100Y-122085100D02*
X183781700Y-122085100D01*
X163343000Y-143918900D02*
X164071100Y-143918900D01*
X193865500Y-145986500D02*
X193865500Y-147624500D01*
D68*
X176570300Y-122085100D02*
X176570300Y-123251300D01*
D65*
X183172100Y-134886700D02*
X184765700Y-134886700D01*
D67*
X159511489Y-143918900D02*
X159233000Y-143918900D01*
D65*
X193865500Y-128986500D02*
X193865500Y-130644900D01*
X186372500Y-139712700D02*
X186372500Y-136493500D01*
D70*
X169249100Y-146824700D02*
X170522900Y-146824700D01*
D65*
X175552100Y-119595100D02*
X175043300Y-120103900D01*
X175043300Y-120103900D02*
X175043300Y-120558100D01*
X193865500Y-144352500D02*
X193856500Y-144343500D01*
X184340500Y-138511500D02*
X186365500Y-136486500D01*
X174815500Y-149944900D02*
X174844900Y-149974300D01*
X174942500Y-148907500D02*
X175831500Y-148907500D01*
X165024900Y-143821300D02*
X167717469Y-143821300D01*
X185730900Y-135851900D02*
X186365500Y-136486500D01*
X127522490Y-143905490D02*
X129222500Y-145605500D01*
X170116500Y-115703500D02*
X172256500Y-117843500D01*
X193865500Y-127444500D02*
X194373500Y-126936500D01*
X174438500Y-149567900D02*
X175780700Y-149567900D01*
X174438500Y-149411500D02*
X174942500Y-148907500D01*
X172715300Y-131771500D02*
X172546500Y-131940300D01*
X187337700Y-139712700D02*
X187337700Y-137458700D01*
X169790990Y-114401490D02*
X156946490Y-114401490D01*
X184492900Y-133311900D02*
X184492900Y-134613900D01*
X189572900Y-136766300D02*
X186645300Y-136766300D01*
X185559700Y-135680700D02*
X186365500Y-136486500D01*
X174438500Y-149567900D02*
X174438500Y-149411500D01*
X132361021Y-147075521D02*
X131762500Y-146477000D01*
D68*
X157662099Y-142726899D02*
X157662099Y-142889801D01*
D70*
X170522900Y-146824700D02*
X170573700Y-146875500D01*
D65*
X186372500Y-136493500D02*
X186365500Y-136486500D01*
X191805900Y-122085100D02*
X191805900Y-121605500D01*
D68*
X172546500Y-125740300D02*
X173263700Y-125740300D01*
D65*
X170116500Y-114727000D02*
X169790990Y-114401490D01*
X164927300Y-143918900D02*
X165024900Y-143821300D01*
X187490100Y-133311900D02*
X187490100Y-135361900D01*
X186645300Y-136766300D02*
X186365500Y-136486500D01*
D67*
X160533000Y-142408900D02*
X160533000Y-142897389D01*
D68*
X169684700Y-138976100D02*
X169710100Y-139001500D01*
D65*
X131762500Y-146477000D02*
X130094000Y-146477000D01*
X189572900Y-135851900D02*
X187000100Y-135851900D01*
X155185500Y-125868500D02*
X155185500Y-127374500D01*
D68*
X168772500Y-138952900D02*
X168795700Y-138976100D01*
D65*
X156654500Y-112331500D02*
X156654500Y-114109500D01*
X194384000Y-125412500D02*
X194384000Y-126926000D01*
X185120500Y-137731500D02*
X186365500Y-136486500D01*
X194384000Y-126926000D02*
X194373500Y-126936500D01*
X176355500Y-131771500D02*
X174494300Y-131771500D01*
X185407300Y-139712700D02*
X185407300Y-137444700D01*
X183222900Y-122135900D02*
X183222900Y-120103900D01*
X147002500Y-138493500D02*
X131925000Y-138493500D01*
X155185500Y-133663300D02*
X155155900Y-133692900D01*
X186524900Y-133311900D02*
X186524900Y-136327100D01*
X168767000Y-116076500D02*
X170116500Y-114727000D01*
X174494300Y-131771500D02*
X172715300Y-131771500D01*
X189572900Y-138645900D02*
X188524900Y-138645900D01*
X193865500Y-147624500D02*
X193846500Y-147643500D01*
X184765700Y-134886700D02*
X186365500Y-136486500D01*
X186524900Y-136327100D02*
X186365500Y-136486500D01*
X184206100Y-138645900D02*
X186365500Y-136486500D01*
X183781700Y-122085100D02*
X185000900Y-122085100D01*
X127522490Y-139841008D02*
X127522490Y-143905490D01*
D68*
X168795700Y-138976100D02*
X169684700Y-138976100D01*
D65*
X185407300Y-137444700D02*
X186365500Y-136486500D01*
D68*
X158490021Y-142726899D02*
X159233000Y-143469878D01*
D65*
X186085700Y-136766300D02*
X186365500Y-136486500D01*
X187000100Y-135851900D02*
X186365500Y-136486500D01*
X155185500Y-132068500D02*
X155185500Y-133663300D01*
X187965300Y-134886700D02*
X186365500Y-136486500D01*
X175043300Y-120558100D02*
X176570300Y-122085100D01*
D68*
X189293500Y-126936500D02*
X189293500Y-126580900D01*
X168795700Y-136215400D02*
X168721800Y-136141500D01*
D65*
X185559700Y-133311900D02*
X185559700Y-135680700D01*
X188506100Y-134345900D02*
X186365500Y-136486500D01*
X168211500Y-116076500D02*
X168767000Y-116076500D01*
D68*
X193307500Y-120103900D02*
X194602100Y-120103900D01*
D67*
X160533000Y-142408900D02*
X160533000Y-141565400D01*
D65*
X183172100Y-136766300D02*
X186085700Y-136766300D01*
X187490100Y-135361900D02*
X186365500Y-136486500D01*
X183172100Y-135851900D02*
X185730900Y-135851900D01*
X193865500Y-128986500D02*
X193865500Y-127444500D01*
X156946490Y-114401490D02*
X156654500Y-114109500D01*
X188524900Y-138645900D02*
X186365500Y-136486500D01*
X175831500Y-149517100D02*
X175831500Y-149974300D01*
X155185500Y-127374500D02*
X155185500Y-132068500D01*
X167717469Y-143821300D02*
X167717469Y-143827500D01*
D70*
X179578000Y-148272500D02*
X177392478Y-148272500D01*
D67*
X157701900Y-140458900D02*
X158583000Y-140458900D01*
D70*
X173774100Y-146723100D02*
X169864604Y-142813604D01*
X175843078Y-146723100D02*
X173774100Y-146723100D01*
D67*
X156116500Y-138873500D02*
X157701900Y-140458900D01*
X156116500Y-138023500D02*
X156116500Y-138873500D01*
D70*
X177392478Y-148272500D02*
X175843078Y-146723100D01*
X169864604Y-142813604D02*
X169674468Y-142813604D01*
D67*
X158876500Y-135593500D02*
X159791500Y-135593500D01*
X158583000Y-139458900D02*
X158135672Y-139458900D01*
X157858480Y-136611520D02*
X158876500Y-135593500D01*
X158135672Y-139458900D02*
X157858480Y-139181708D01*
X157858480Y-139181708D02*
X157858480Y-136611520D01*
D66*
X177959152Y-106544300D02*
X175552100Y-108951352D01*
X178142900Y-106544300D02*
X177959152Y-106544300D01*
X175552100Y-108951352D02*
X175552100Y-109639100D01*
D68*
X166687500Y-128181100D02*
X165595300Y-127088900D01*
X166687500Y-130428000D02*
X166687500Y-128181100D01*
X165595300Y-127088900D02*
X164703700Y-127088900D01*
X162811500Y-128745600D02*
X162918800Y-128638300D01*
X162811500Y-130460000D02*
X162811500Y-128745600D01*
D66*
X149136100Y-122653900D02*
X152346500Y-119443500D01*
X152346500Y-119443500D02*
X154980491Y-119443500D01*
X149136100Y-124443500D02*
X149136100Y-122653900D01*
D70*
X175594748Y-147322620D02*
X178576628Y-150304500D01*
X178576628Y-150304500D02*
X179578000Y-150304500D01*
X169633900Y-143903700D02*
X172834300Y-147104100D01*
X173052820Y-147322620D02*
X175594748Y-147322620D01*
X172834300Y-147104100D02*
X173052820Y-147322620D01*
D67*
X158583000Y-139958900D02*
X157999954Y-139958900D01*
X157999954Y-139958900D02*
X157133980Y-139092926D01*
X157133980Y-139092926D02*
X157133980Y-138031900D01*
D66*
X183172100Y-109639100D02*
X183172100Y-106645900D01*
X183172100Y-106645900D02*
X183070500Y-106544300D01*
X186728100Y-109639100D02*
X186728100Y-107865100D01*
X186728100Y-107865100D02*
X188099700Y-106493500D01*
X194348100Y-107712700D02*
X193128900Y-106493500D01*
X194348100Y-109639100D02*
X194348100Y-107712700D01*
D65*
X131762500Y-144752000D02*
X136158021Y-144752000D01*
X141707879Y-144575521D02*
X141973300Y-144310100D01*
X136158021Y-144752000D02*
X136334500Y-144575521D01*
X129222500Y-143065500D02*
X130076000Y-143065500D01*
X136334500Y-144575521D02*
X141707879Y-144575521D01*
X130076000Y-143065500D02*
X131762500Y-144752000D01*
D68*
X154620500Y-112315500D02*
X156654500Y-110281500D01*
X154114500Y-112315500D02*
X154620500Y-112315500D01*
D65*
X154106500Y-143271900D02*
X154916500Y-144081900D01*
X154106500Y-141633500D02*
X154106500Y-143271900D01*
D70*
X155155900Y-148733500D02*
X155155900Y-148704300D01*
X155155900Y-148704300D02*
X154241500Y-147789900D01*
X167039000Y-148145500D02*
X167039000Y-147209800D01*
X167039000Y-147209800D02*
X167424100Y-146824700D01*
D65*
X165616500Y-150123500D02*
X167782900Y-150123500D01*
X167782900Y-150123500D02*
X168338500Y-149567900D01*
X165616500Y-150123500D02*
X156966500Y-150123500D01*
X165616500Y-146743500D02*
X165616500Y-150123500D01*
X153856500Y-137153500D02*
X153856500Y-139383500D01*
X153856500Y-139383500D02*
X154106500Y-139633500D01*
D67*
X164329984Y-141458900D02*
X165115500Y-140673384D01*
X163483000Y-141458900D02*
X164329984Y-141458900D01*
D68*
X165115500Y-138952900D02*
X165115500Y-140476900D01*
D67*
X165115500Y-140673384D02*
X165115500Y-140476900D01*
X164009500Y-140958900D02*
X164303480Y-140664920D01*
X164303480Y-140664920D02*
X164303480Y-138278420D01*
X163483000Y-140958900D02*
X164009500Y-140958900D01*
X164303480Y-138278420D02*
X165153000Y-137428900D01*
X158583000Y-141458900D02*
X157905500Y-141458900D01*
X156456500Y-142358500D02*
X157005900Y-142358500D01*
X157005900Y-142358500D02*
X157905500Y-141458900D01*
D66*
X178142900Y-92316300D02*
X178142900Y-89369900D01*
X178142900Y-89369900D02*
X178092100Y-89319100D01*
X183070500Y-89319100D02*
X183070500Y-92316300D01*
X188099700Y-89319100D02*
X188099700Y-92265500D01*
X193128900Y-92261500D02*
X193128900Y-89319100D01*
X178142900Y-98416300D02*
X178142900Y-100444300D01*
X183070500Y-98416300D02*
X183070500Y-100444300D01*
X188099700Y-98365500D02*
X188099700Y-100393500D01*
X193128900Y-98361500D02*
X193128900Y-100393500D01*
G04 #@! TA.AperFunction,Conductor*
G36*
X193147221Y-123857702D02*
G01*
X193193714Y-123911358D01*
X193205100Y-123963700D01*
X193205100Y-124310070D01*
X193185098Y-124378191D01*
X193131442Y-124424684D01*
X193066258Y-124435414D01*
X193011733Y-124429828D01*
X193005315Y-124429500D01*
X192931115Y-124429500D01*
X192915876Y-124433975D01*
X192914671Y-124435365D01*
X192913000Y-124443048D01*
X192913000Y-125540500D01*
X192892998Y-125608621D01*
X192839342Y-125655114D01*
X192787000Y-125666500D01*
X191223900Y-125666500D01*
X191223900Y-125158500D01*
X192386885Y-125158500D01*
X192402124Y-125154025D01*
X192403329Y-125152635D01*
X192405000Y-125144952D01*
X192405000Y-124447615D01*
X192400525Y-124432376D01*
X192399135Y-124431171D01*
X192391452Y-124429500D01*
X192312734Y-124429500D01*
X192306218Y-124429837D01*
X192212368Y-124439575D01*
X192198972Y-124442468D01*
X192047547Y-124492988D01*
X192034383Y-124499154D01*
X191911413Y-124575250D01*
X191842961Y-124594088D01*
X191778994Y-124575366D01*
X191654437Y-124498588D01*
X191641259Y-124492444D01*
X191489734Y-124442185D01*
X191476368Y-124439319D01*
X191383730Y-124429828D01*
X191377315Y-124429500D01*
X191349900Y-124429500D01*
X191281779Y-124409498D01*
X191235286Y-124355842D01*
X191223900Y-124303500D01*
X191223900Y-123963700D01*
X191243902Y-123895579D01*
X191297558Y-123849086D01*
X191349900Y-123837700D01*
X193079100Y-123837700D01*
X193147221Y-123857702D01*
G37*
G04 #@! TD.AperFunction*
M02*
