G04 #@! TF.GenerationSoftware,KiCad,Pcbnew,(5.1.12)-1*
G04 #@! TF.CreationDate,2022-01-16T14:13:13-03:00*
G04 #@! TF.ProjectId,hamodule,68616d6f-6475-46c6-952e-6b696361645f,rev?*
G04 #@! TF.SameCoordinates,Original*
G04 #@! TF.FileFunction,Copper,L2,Bot*
G04 #@! TF.FilePolarity,Positive*
%FSLAX46Y46*%
G04 Gerber Fmt 4.6, Leading zero omitted, Abs format (unit mm)*
G04 Created by KiCad (PCBNEW (5.1.12)-1) date 2022-01-16 14:13:13*
%MOMM*%
%LPD*%
G01*
G04 APERTURE LIST*
G04 #@! TA.AperFunction,ConnectorPad*
%ADD10C,3.800000*%
G04 #@! TD*
G04 #@! TA.AperFunction,ComponentPad*
%ADD11C,2.600000*%
G04 #@! TD*
G04 #@! TA.AperFunction,ComponentPad*
%ADD12O,1.350000X1.350000*%
G04 #@! TD*
G04 #@! TA.AperFunction,ComponentPad*
%ADD13R,1.350000X1.350000*%
G04 #@! TD*
G04 #@! TA.AperFunction,ComponentPad*
%ADD14C,1.450000*%
G04 #@! TD*
G04 #@! TA.AperFunction,ComponentPad*
%ADD15O,1.200000X1.900000*%
G04 #@! TD*
G04 #@! TA.AperFunction,ComponentPad*
%ADD16O,1.700000X1.950000*%
G04 #@! TD*
G04 #@! TA.AperFunction,ComponentPad*
%ADD17O,1.600000X2.400000*%
G04 #@! TD*
G04 #@! TA.AperFunction,ComponentPad*
%ADD18R,1.600000X2.400000*%
G04 #@! TD*
G04 #@! TA.AperFunction,ComponentPad*
%ADD19C,5.500000*%
G04 #@! TD*
G04 #@! TA.AperFunction,ComponentPad*
%ADD20R,1.700000X1.700000*%
G04 #@! TD*
G04 #@! TA.AperFunction,ComponentPad*
%ADD21O,1.950000X1.700000*%
G04 #@! TD*
G04 #@! TA.AperFunction,ComponentPad*
%ADD22C,2.000000*%
G04 #@! TD*
G04 #@! TA.AperFunction,ComponentPad*
%ADD23C,1.700000*%
G04 #@! TD*
G04 #@! TA.AperFunction,ComponentPad*
%ADD24C,1.600000*%
G04 #@! TD*
G04 #@! TA.AperFunction,ComponentPad*
%ADD25R,1.600000X1.600000*%
G04 #@! TD*
G04 #@! TA.AperFunction,ComponentPad*
%ADD26O,2.000000X1.905000*%
G04 #@! TD*
G04 #@! TA.AperFunction,ComponentPad*
%ADD27R,2.000000X1.905000*%
G04 #@! TD*
G04 #@! TA.AperFunction,ComponentPad*
%ADD28C,1.650000*%
G04 #@! TD*
G04 #@! TA.AperFunction,ComponentPad*
%ADD29R,1.650000X1.650000*%
G04 #@! TD*
G04 #@! TA.AperFunction,ComponentPad*
%ADD30O,1.700000X1.700000*%
G04 #@! TD*
G04 #@! TA.AperFunction,ComponentPad*
%ADD31O,1.700000X2.000000*%
G04 #@! TD*
G04 #@! TA.AperFunction,ComponentPad*
%ADD32C,1.800000*%
G04 #@! TD*
G04 #@! TA.AperFunction,ViaPad*
%ADD33C,0.800000*%
G04 #@! TD*
G04 #@! TA.AperFunction,Conductor*
%ADD34C,2.000000*%
G04 #@! TD*
G04 #@! TA.AperFunction,Conductor*
%ADD35C,0.400000*%
G04 #@! TD*
G04 #@! TA.AperFunction,Conductor*
%ADD36C,1.000000*%
G04 #@! TD*
G04 #@! TA.AperFunction,Conductor*
%ADD37C,3.000000*%
G04 #@! TD*
G04 #@! TA.AperFunction,Conductor*
%ADD38C,0.200000*%
G04 #@! TD*
G04 #@! TA.AperFunction,Conductor*
%ADD39C,0.250000*%
G04 #@! TD*
G04 #@! TA.AperFunction,Conductor*
%ADD40C,0.254000*%
G04 #@! TD*
G04 #@! TA.AperFunction,Conductor*
%ADD41C,0.100000*%
G04 #@! TD*
G04 APERTURE END LIST*
D10*
X175704500Y-84899500D03*
D11*
X175704500Y-84899500D03*
D10*
X199174100Y-103289100D03*
D11*
X199174100Y-103289100D03*
D12*
X190277500Y-148844000D03*
D13*
X188277500Y-148844000D03*
X180911500Y-125222000D03*
D12*
X182911500Y-125222000D03*
X184911500Y-125222000D03*
X186911500Y-125222000D03*
D14*
X157505000Y-147414000D03*
X162505000Y-147414000D03*
D15*
X156505000Y-150114000D03*
X163505000Y-150114000D03*
D16*
X167576500Y-120332500D03*
X165076500Y-120332500D03*
X162576500Y-120332500D03*
G04 #@! TA.AperFunction,ComponentPad*
G36*
G01*
X159226500Y-121057500D02*
X159226500Y-119607500D01*
G75*
G02*
X159476500Y-119357500I250000J0D01*
G01*
X160676500Y-119357500D01*
G75*
G02*
X160926500Y-119607500I0J-250000D01*
G01*
X160926500Y-121057500D01*
G75*
G02*
X160676500Y-121307500I-250000J0D01*
G01*
X159476500Y-121307500D01*
G75*
G02*
X159226500Y-121057500I0J250000D01*
G01*
G37*
G04 #@! TD.AperFunction*
D17*
X197294500Y-118681500D03*
X189674500Y-111061500D03*
X194754500Y-118681500D03*
X192214500Y-111061500D03*
X192214500Y-118681500D03*
X194754500Y-111061500D03*
X189674500Y-118681500D03*
D18*
X197294500Y-111061500D03*
D17*
X186118500Y-118681500D03*
X178498500Y-111061500D03*
X183578500Y-118681500D03*
X181038500Y-111061500D03*
X181038500Y-118681500D03*
X183578500Y-111061500D03*
X178498500Y-118681500D03*
D18*
X186118500Y-111061500D03*
D19*
X132270500Y-74739500D03*
X198564500Y-85407500D03*
X132270500Y-85407500D03*
G04 #@! TA.AperFunction,ComponentPad*
G36*
G01*
X195637500Y-78432500D02*
X195637500Y-79682500D01*
G75*
G02*
X195012500Y-80307500I-625000J0D01*
G01*
X193762500Y-80307500D01*
G75*
G02*
X193137500Y-79682500I0J625000D01*
G01*
X193137500Y-78432500D01*
G75*
G02*
X193762500Y-77807500I625000J0D01*
G01*
X195012500Y-77807500D01*
G75*
G02*
X195637500Y-78432500I0J-625000D01*
G01*
G37*
G04 #@! TD.AperFunction*
G04 #@! TA.AperFunction,ComponentPad*
G36*
G01*
X190637500Y-78432500D02*
X190637500Y-79682500D01*
G75*
G02*
X190012500Y-80307500I-625000J0D01*
G01*
X188762500Y-80307500D01*
G75*
G02*
X188137500Y-79682500I0J625000D01*
G01*
X188137500Y-78432500D01*
G75*
G02*
X188762500Y-77807500I625000J0D01*
G01*
X190012500Y-77807500D01*
G75*
G02*
X190637500Y-78432500I0J-625000D01*
G01*
G37*
G04 #@! TD.AperFunction*
G04 #@! TA.AperFunction,ComponentPad*
G36*
G01*
X185637500Y-78432500D02*
X185637500Y-79682500D01*
G75*
G02*
X185012500Y-80307500I-625000J0D01*
G01*
X183762500Y-80307500D01*
G75*
G02*
X183137500Y-79682500I0J625000D01*
G01*
X183137500Y-78432500D01*
G75*
G02*
X183762500Y-77807500I625000J0D01*
G01*
X185012500Y-77807500D01*
G75*
G02*
X185637500Y-78432500I0J-625000D01*
G01*
G37*
G04 #@! TD.AperFunction*
G04 #@! TA.AperFunction,ComponentPad*
G36*
G01*
X180637500Y-78432500D02*
X180637500Y-79682500D01*
G75*
G02*
X180012500Y-80307500I-625000J0D01*
G01*
X178762500Y-80307500D01*
G75*
G02*
X178137500Y-79682500I0J625000D01*
G01*
X178137500Y-78432500D01*
G75*
G02*
X178762500Y-77807500I625000J0D01*
G01*
X180012500Y-77807500D01*
G75*
G02*
X180637500Y-78432500I0J-625000D01*
G01*
G37*
G04 #@! TD.AperFunction*
G04 #@! TA.AperFunction,ComponentPad*
G36*
G01*
X195637500Y-70232501D02*
X195637500Y-71482501D01*
G75*
G02*
X195012500Y-72107501I-625000J0D01*
G01*
X193762500Y-72107501D01*
G75*
G02*
X193137500Y-71482501I0J625000D01*
G01*
X193137500Y-70232501D01*
G75*
G02*
X193762500Y-69607501I625000J0D01*
G01*
X195012500Y-69607501D01*
G75*
G02*
X195637500Y-70232501I0J-625000D01*
G01*
G37*
G04 #@! TD.AperFunction*
G04 #@! TA.AperFunction,ComponentPad*
G36*
G01*
X190637500Y-70232501D02*
X190637500Y-71482501D01*
G75*
G02*
X190012500Y-72107501I-625000J0D01*
G01*
X188762500Y-72107501D01*
G75*
G02*
X188137500Y-71482501I0J625000D01*
G01*
X188137500Y-70232501D01*
G75*
G02*
X188762500Y-69607501I625000J0D01*
G01*
X190012500Y-69607501D01*
G75*
G02*
X190637500Y-70232501I0J-625000D01*
G01*
G37*
G04 #@! TD.AperFunction*
G04 #@! TA.AperFunction,ComponentPad*
G36*
G01*
X185637500Y-70232501D02*
X185637500Y-71482501D01*
G75*
G02*
X185012500Y-72107501I-625000J0D01*
G01*
X183762500Y-72107501D01*
G75*
G02*
X183137500Y-71482501I0J625000D01*
G01*
X183137500Y-70232501D01*
G75*
G02*
X183762500Y-69607501I625000J0D01*
G01*
X185012500Y-69607501D01*
G75*
G02*
X185637500Y-70232501I0J-625000D01*
G01*
G37*
G04 #@! TD.AperFunction*
G04 #@! TA.AperFunction,ComponentPad*
G36*
G01*
X180637500Y-70232501D02*
X180637500Y-71482501D01*
G75*
G02*
X180012500Y-72107501I-625000J0D01*
G01*
X178762500Y-72107501D01*
G75*
G02*
X178137500Y-71482501I0J625000D01*
G01*
X178137500Y-70232501D01*
G75*
G02*
X178762500Y-69607501I625000J0D01*
G01*
X180012500Y-69607501D01*
G75*
G02*
X180637500Y-70232501I0J-625000D01*
G01*
G37*
G04 #@! TD.AperFunction*
G04 #@! TA.AperFunction,ComponentPad*
G36*
G01*
X147998500Y-78432500D02*
X147998500Y-79682500D01*
G75*
G02*
X147373500Y-80307500I-625000J0D01*
G01*
X146123500Y-80307500D01*
G75*
G02*
X145498500Y-79682500I0J625000D01*
G01*
X145498500Y-78432500D01*
G75*
G02*
X146123500Y-77807500I625000J0D01*
G01*
X147373500Y-77807500D01*
G75*
G02*
X147998500Y-78432500I0J-625000D01*
G01*
G37*
G04 #@! TD.AperFunction*
G04 #@! TA.AperFunction,ComponentPad*
G36*
G01*
X142998500Y-78432500D02*
X142998500Y-79682500D01*
G75*
G02*
X142373500Y-80307500I-625000J0D01*
G01*
X141123500Y-80307500D01*
G75*
G02*
X140498500Y-79682500I0J625000D01*
G01*
X140498500Y-78432500D01*
G75*
G02*
X141123500Y-77807500I625000J0D01*
G01*
X142373500Y-77807500D01*
G75*
G02*
X142998500Y-78432500I0J-625000D01*
G01*
G37*
G04 #@! TD.AperFunction*
G04 #@! TA.AperFunction,ComponentPad*
G36*
G01*
X147998500Y-70232501D02*
X147998500Y-71482501D01*
G75*
G02*
X147373500Y-72107501I-625000J0D01*
G01*
X146123500Y-72107501D01*
G75*
G02*
X145498500Y-71482501I0J625000D01*
G01*
X145498500Y-70232501D01*
G75*
G02*
X146123500Y-69607501I625000J0D01*
G01*
X147373500Y-69607501D01*
G75*
G02*
X147998500Y-70232501I0J-625000D01*
G01*
G37*
G04 #@! TD.AperFunction*
G04 #@! TA.AperFunction,ComponentPad*
G36*
G01*
X142998500Y-70232501D02*
X142998500Y-71482501D01*
G75*
G02*
X142373500Y-72107501I-625000J0D01*
G01*
X141123500Y-72107501D01*
G75*
G02*
X140498500Y-71482501I0J625000D01*
G01*
X140498500Y-70232501D01*
G75*
G02*
X141123500Y-69607501I625000J0D01*
G01*
X142373500Y-69607501D01*
G75*
G02*
X142998500Y-70232501I0J-625000D01*
G01*
G37*
G04 #@! TD.AperFunction*
G04 #@! TA.AperFunction,ComponentPad*
G36*
G01*
X171366500Y-78432500D02*
X171366500Y-79682500D01*
G75*
G02*
X170741500Y-80307500I-625000J0D01*
G01*
X169491500Y-80307500D01*
G75*
G02*
X168866500Y-79682500I0J625000D01*
G01*
X168866500Y-78432500D01*
G75*
G02*
X169491500Y-77807500I625000J0D01*
G01*
X170741500Y-77807500D01*
G75*
G02*
X171366500Y-78432500I0J-625000D01*
G01*
G37*
G04 #@! TD.AperFunction*
G04 #@! TA.AperFunction,ComponentPad*
G36*
G01*
X166366500Y-78432500D02*
X166366500Y-79682500D01*
G75*
G02*
X165741500Y-80307500I-625000J0D01*
G01*
X164491500Y-80307500D01*
G75*
G02*
X163866500Y-79682500I0J625000D01*
G01*
X163866500Y-78432500D01*
G75*
G02*
X164491500Y-77807500I625000J0D01*
G01*
X165741500Y-77807500D01*
G75*
G02*
X166366500Y-78432500I0J-625000D01*
G01*
G37*
G04 #@! TD.AperFunction*
G04 #@! TA.AperFunction,ComponentPad*
G36*
G01*
X161366500Y-78432500D02*
X161366500Y-79682500D01*
G75*
G02*
X160741500Y-80307500I-625000J0D01*
G01*
X159491500Y-80307500D01*
G75*
G02*
X158866500Y-79682500I0J625000D01*
G01*
X158866500Y-78432500D01*
G75*
G02*
X159491500Y-77807500I625000J0D01*
G01*
X160741500Y-77807500D01*
G75*
G02*
X161366500Y-78432500I0J-625000D01*
G01*
G37*
G04 #@! TD.AperFunction*
G04 #@! TA.AperFunction,ComponentPad*
G36*
G01*
X156366500Y-78432500D02*
X156366500Y-79682500D01*
G75*
G02*
X155741500Y-80307500I-625000J0D01*
G01*
X154491500Y-80307500D01*
G75*
G02*
X153866500Y-79682500I0J625000D01*
G01*
X153866500Y-78432500D01*
G75*
G02*
X154491500Y-77807500I625000J0D01*
G01*
X155741500Y-77807500D01*
G75*
G02*
X156366500Y-78432500I0J-625000D01*
G01*
G37*
G04 #@! TD.AperFunction*
G04 #@! TA.AperFunction,ComponentPad*
G36*
G01*
X171366500Y-70232501D02*
X171366500Y-71482501D01*
G75*
G02*
X170741500Y-72107501I-625000J0D01*
G01*
X169491500Y-72107501D01*
G75*
G02*
X168866500Y-71482501I0J625000D01*
G01*
X168866500Y-70232501D01*
G75*
G02*
X169491500Y-69607501I625000J0D01*
G01*
X170741500Y-69607501D01*
G75*
G02*
X171366500Y-70232501I0J-625000D01*
G01*
G37*
G04 #@! TD.AperFunction*
G04 #@! TA.AperFunction,ComponentPad*
G36*
G01*
X166366500Y-70232501D02*
X166366500Y-71482501D01*
G75*
G02*
X165741500Y-72107501I-625000J0D01*
G01*
X164491500Y-72107501D01*
G75*
G02*
X163866500Y-71482501I0J625000D01*
G01*
X163866500Y-70232501D01*
G75*
G02*
X164491500Y-69607501I625000J0D01*
G01*
X165741500Y-69607501D01*
G75*
G02*
X166366500Y-70232501I0J-625000D01*
G01*
G37*
G04 #@! TD.AperFunction*
G04 #@! TA.AperFunction,ComponentPad*
G36*
G01*
X161366500Y-70232501D02*
X161366500Y-71482501D01*
G75*
G02*
X160741500Y-72107501I-625000J0D01*
G01*
X159491500Y-72107501D01*
G75*
G02*
X158866500Y-71482501I0J625000D01*
G01*
X158866500Y-70232501D01*
G75*
G02*
X159491500Y-69607501I625000J0D01*
G01*
X160741500Y-69607501D01*
G75*
G02*
X161366500Y-70232501I0J-625000D01*
G01*
G37*
G04 #@! TD.AperFunction*
G04 #@! TA.AperFunction,ComponentPad*
G36*
G01*
X156366500Y-70232501D02*
X156366500Y-71482501D01*
G75*
G02*
X155741500Y-72107501I-625000J0D01*
G01*
X154491500Y-72107501D01*
G75*
G02*
X153866500Y-71482501I0J625000D01*
G01*
X153866500Y-70232501D01*
G75*
G02*
X154491500Y-69607501I625000J0D01*
G01*
X155741500Y-69607501D01*
G75*
G02*
X156366500Y-70232501I0J-625000D01*
G01*
G37*
G04 #@! TD.AperFunction*
D20*
X154686000Y-106362500D03*
D21*
X154686000Y-103822500D03*
D22*
X154686000Y-96202500D03*
X154686000Y-88582500D03*
D20*
X170825500Y-106343001D03*
D23*
X170825500Y-103803001D03*
D22*
X170825500Y-96183001D03*
X170825500Y-88563001D03*
D20*
X165428000Y-106343001D03*
D23*
X165428000Y-103803001D03*
D22*
X165428000Y-96183001D03*
X165428000Y-88563001D03*
D20*
X160083500Y-106343001D03*
D23*
X160083500Y-103803001D03*
D22*
X160083500Y-96183001D03*
X160083500Y-88563001D03*
D24*
X136334500Y-147089500D03*
D25*
X136334500Y-144589500D03*
D24*
X136334500Y-137604500D03*
D25*
X136334500Y-140104500D03*
D26*
X129222500Y-140525500D03*
X129222500Y-143065500D03*
D27*
X129222500Y-145605500D03*
D28*
X149476500Y-113587500D03*
X149476500Y-123587500D03*
X129476500Y-128587500D03*
D29*
X129476500Y-108587500D03*
D22*
X139636500Y-92265500D03*
X134556500Y-92265500D03*
D30*
X141973300Y-144310100D03*
D20*
X141973300Y-146850100D03*
D31*
X149491700Y-145453100D03*
G04 #@! TA.AperFunction,ComponentPad*
G36*
G01*
X146141700Y-146203100D02*
X146141700Y-144703100D01*
G75*
G02*
X146391700Y-144453100I250000J0D01*
G01*
X147591700Y-144453100D01*
G75*
G02*
X147841700Y-144703100I0J-250000D01*
G01*
X147841700Y-146203100D01*
G75*
G02*
X147591700Y-146453100I-250000J0D01*
G01*
X146391700Y-146453100D01*
G75*
G02*
X146141700Y-146203100I0J250000D01*
G01*
G37*
G04 #@! TD.AperFunction*
D30*
X155130500Y-119443500D03*
D20*
X155130500Y-121983500D03*
D32*
X140144500Y-100647500D03*
X132644500Y-99014170D03*
D31*
X149502500Y-138493500D03*
G04 #@! TA.AperFunction,ComponentPad*
G36*
G01*
X146152500Y-139243500D02*
X146152500Y-137743500D01*
G75*
G02*
X146402500Y-137493500I250000J0D01*
G01*
X147602500Y-137493500D01*
G75*
G02*
X147852500Y-137743500I0J-250000D01*
G01*
X147852500Y-139243500D01*
G75*
G02*
X147602500Y-139493500I-250000J0D01*
G01*
X146402500Y-139493500D01*
G75*
G02*
X146152500Y-139243500I0J250000D01*
G01*
G37*
G04 #@! TD.AperFunction*
D19*
X147256500Y-99377500D03*
D22*
X146748500Y-94297500D03*
X146748500Y-89217500D03*
D33*
X153098500Y-140081000D03*
X192595500Y-130937000D03*
X151828500Y-131445000D03*
X191643000Y-130937000D03*
X174117000Y-135382000D03*
X163851000Y-137325100D03*
X160205000Y-145613998D03*
X162801000Y-137325100D03*
X159155000Y-145613998D03*
X163837489Y-133540500D03*
X165862000Y-133540500D03*
X183007000Y-148018500D03*
X184086500Y-148018500D03*
X185039000Y-148018500D03*
X185991500Y-148018500D03*
X174815500Y-148145500D03*
X175577500Y-148907500D03*
X173990000Y-147320000D03*
X173164500Y-146431000D03*
X184404000Y-138557000D03*
X185356500Y-138557000D03*
X186372500Y-138557000D03*
X188404500Y-138557000D03*
X187388500Y-138557000D03*
X184404000Y-137604500D03*
X185356500Y-137604500D03*
X186372500Y-137604500D03*
X188404500Y-137604500D03*
X187388500Y-137604500D03*
X184404000Y-136525000D03*
X185356500Y-136525000D03*
X186372500Y-136525000D03*
X188404500Y-136525000D03*
X187388500Y-136525000D03*
X184404000Y-135509000D03*
X185356500Y-135509000D03*
X186372500Y-135509000D03*
X188404500Y-135509000D03*
X187388500Y-135509000D03*
X188404500Y-134493000D03*
X187388500Y-134493000D03*
X186372500Y-134493000D03*
X185356500Y-134493000D03*
X184404000Y-134493000D03*
X193865500Y-148082000D03*
X172847000Y-128206500D03*
X172855500Y-133604000D03*
X187946686Y-126886314D03*
X155185500Y-129739000D03*
X155185500Y-128587500D03*
X178689000Y-132778500D03*
X193865500Y-133159500D03*
X193865500Y-132207000D03*
X176339500Y-149669500D03*
X163639500Y-141414500D03*
X164719000Y-140335000D03*
X164719000Y-141478000D03*
X163639500Y-140335000D03*
X163639500Y-142557500D03*
X164719000Y-142557500D03*
X162433000Y-142557500D03*
X162433000Y-141478000D03*
X162433000Y-140335000D03*
X177228500Y-150495000D03*
X156591000Y-137058400D03*
X161036000Y-150114000D03*
X158877000Y-150114000D03*
X197129400Y-91948000D03*
X198272400Y-91948000D03*
X197078600Y-100152200D03*
X198221600Y-100152200D03*
X178346100Y-91960700D03*
X195961000Y-91948000D03*
X195834000Y-100139500D03*
X178181000Y-100139500D03*
X179387500Y-100139500D03*
X180530500Y-100139500D03*
X181864000Y-100139500D03*
X187007500Y-100139500D03*
X183324500Y-100139500D03*
X185674000Y-100139500D03*
X184531000Y-100139500D03*
X192151000Y-100139500D03*
X188468000Y-100139500D03*
X190817500Y-100139500D03*
X189674500Y-100139500D03*
X193484500Y-100139500D03*
X194691000Y-100139500D03*
X184658000Y-91948000D03*
X190944500Y-91948000D03*
X188595000Y-91948000D03*
X189801500Y-91948000D03*
X194818000Y-91948000D03*
X192278000Y-91948000D03*
X181991000Y-91948000D03*
X185801000Y-91948000D03*
X187134500Y-91948000D03*
X183451500Y-91948000D03*
X193611500Y-91948000D03*
X179514500Y-91948000D03*
X180733700Y-91935300D03*
X177050700Y-100139500D03*
X177228500Y-91960700D03*
D34*
X174620225Y-109029500D02*
X175588235Y-108061490D01*
X175588235Y-108061490D02*
X181086490Y-108061490D01*
X139636500Y-92265500D02*
X137444499Y-94457501D01*
X137444499Y-94457501D02*
X137444499Y-101943501D01*
X137444499Y-101943501D02*
X144530498Y-109029500D01*
X144530498Y-109029500D02*
X174620225Y-109029500D01*
X183518499Y-108421499D02*
X183518499Y-111061500D01*
X183530510Y-108409488D02*
X183518499Y-108421499D01*
X183530510Y-108061490D02*
X183530510Y-108409488D01*
X181086490Y-109572521D02*
X181098510Y-109584541D01*
X181086490Y-108061490D02*
X181086490Y-109572521D01*
X181098510Y-109584541D02*
X181098510Y-111061500D01*
X181086490Y-108061490D02*
X183530510Y-108061490D01*
X192274510Y-111001490D02*
X192274510Y-111061500D01*
X193024490Y-110251510D02*
X192274510Y-111001490D01*
X193024490Y-108061490D02*
X193024490Y-110251510D01*
X183530510Y-108061490D02*
X193024490Y-108061490D01*
X193230500Y-111061500D02*
X194694499Y-111061500D01*
X193024490Y-110855490D02*
X193230500Y-111061500D01*
X193024490Y-108061490D02*
X193024490Y-110855490D01*
X194694499Y-111001499D02*
X194694499Y-111061500D01*
X193024490Y-109331490D02*
X194694499Y-111001499D01*
X193024490Y-108061490D02*
X193024490Y-109331490D01*
D35*
X153098500Y-140081000D02*
X150495000Y-140081000D01*
X149502500Y-139088500D02*
X149502500Y-138493500D01*
X150495000Y-140081000D02*
X149502500Y-139088500D01*
D36*
X151912501Y-131529001D02*
X151828500Y-131445000D01*
X173383501Y-131529001D02*
X151912501Y-131529001D01*
X173975502Y-130937000D02*
X173383501Y-131529001D01*
X191643000Y-130937000D02*
X173975502Y-130937000D01*
D35*
X174117000Y-131078498D02*
X173975502Y-130937000D01*
X174117000Y-135382000D02*
X174117000Y-131078498D01*
D37*
X141748500Y-80073500D02*
X141748500Y-85073500D01*
D34*
X132644500Y-105419500D02*
X129476500Y-108587500D01*
X132644500Y-99014170D02*
X132644500Y-105419500D01*
X134556500Y-92265500D02*
X132524500Y-94297500D01*
X132524500Y-98894170D02*
X132644500Y-99014170D01*
X132524500Y-94297500D02*
X132524500Y-98894170D01*
D37*
X141748500Y-79057500D02*
X141748500Y-70857501D01*
X141748500Y-85073500D02*
X134556500Y-92265500D01*
X141748500Y-79057500D02*
X141748500Y-85073500D01*
D38*
X160354500Y-138997900D02*
X159905000Y-139447400D01*
X159905000Y-139447400D02*
X159905000Y-145313998D01*
X159905000Y-145313998D02*
X160205000Y-145613998D01*
X163072300Y-138997900D02*
X160354500Y-138997900D01*
X163551000Y-138519200D02*
X163072300Y-138997900D01*
X163551000Y-137625100D02*
X163551000Y-138519200D01*
X163851000Y-137325100D02*
X163551000Y-137625100D01*
X162801000Y-137325100D02*
X163101000Y-137625100D01*
X163101000Y-137625100D02*
X163101000Y-138332800D01*
X163101000Y-138332800D02*
X162885900Y-138547900D01*
X162885900Y-138547900D02*
X160168100Y-138547900D01*
X159455000Y-145313998D02*
X159155000Y-145613998D01*
X159455000Y-139261000D02*
X159455000Y-145313998D01*
X160168100Y-138547900D02*
X159455000Y-139261000D01*
D39*
X163837489Y-133540500D02*
X165862000Y-133540500D01*
D36*
X147002500Y-145442300D02*
X146991700Y-145453100D01*
X147002500Y-138493500D02*
X147002500Y-145442300D01*
X147002500Y-116061500D02*
X147002500Y-138493500D01*
X149476500Y-113587500D02*
X147002500Y-116061500D01*
D37*
X146952490Y-138443490D02*
X146952490Y-138493500D01*
X146951499Y-138442499D02*
X146952490Y-138443490D01*
X146951499Y-116112501D02*
X146951499Y-138442499D01*
X149476500Y-113587500D02*
X146951499Y-116112501D01*
D39*
X175704500Y-85356700D02*
X176466500Y-86118700D01*
X175704500Y-84899500D02*
X175704500Y-85356700D01*
X175196500Y-84848700D02*
X176466500Y-86118700D01*
D36*
X175704500Y-84899500D02*
X178346100Y-87541100D01*
X178346100Y-87541100D02*
X178346100Y-91960700D01*
X197078600Y-101193600D02*
X197078600Y-100152200D01*
X199174100Y-103289100D02*
X197078600Y-101193600D01*
D40*
X199072500Y-122999500D02*
X194881500Y-122999500D01*
X194856724Y-123001940D01*
X194832899Y-123009167D01*
X194810943Y-123020903D01*
X194791697Y-123036697D01*
X194775903Y-123055943D01*
X194764167Y-123077899D01*
X194756940Y-123101724D01*
X194754500Y-123126500D01*
X194754500Y-151041745D01*
X164601831Y-151043353D01*
X164691493Y-150829496D01*
X164740000Y-150591000D01*
X164740000Y-150241000D01*
X163632000Y-150241000D01*
X163632000Y-150261000D01*
X163378000Y-150261000D01*
X163378000Y-150241000D01*
X162270000Y-150241000D01*
X162270000Y-150591000D01*
X162318507Y-150829496D01*
X162408218Y-151043470D01*
X161838018Y-151043500D01*
X157601874Y-151043252D01*
X157691493Y-150829496D01*
X157740000Y-150591000D01*
X157740000Y-150241000D01*
X156632000Y-150241000D01*
X156632000Y-150261000D01*
X156378000Y-150261000D01*
X156378000Y-150241000D01*
X155270000Y-150241000D01*
X155270000Y-150591000D01*
X155318507Y-150829496D01*
X155408073Y-151043124D01*
X144526000Y-151042487D01*
X144526000Y-149637000D01*
X155270000Y-149637000D01*
X155270000Y-149987000D01*
X156378000Y-149987000D01*
X156378000Y-148695269D01*
X156632000Y-148695269D01*
X156632000Y-149987000D01*
X157740000Y-149987000D01*
X157740000Y-149637000D01*
X157691493Y-149398504D01*
X157597390Y-149174054D01*
X157461307Y-148972275D01*
X157288474Y-148800922D01*
X157193164Y-148737829D01*
X157310849Y-148766719D01*
X157578482Y-148778604D01*
X157843291Y-148738048D01*
X158095100Y-148646609D01*
X158202035Y-148589450D01*
X158264528Y-148353133D01*
X161745472Y-148353133D01*
X161807965Y-148589450D01*
X162050678Y-148702850D01*
X162310849Y-148766719D01*
X162578482Y-148778604D01*
X162808442Y-148743385D01*
X162721526Y-148800922D01*
X162548693Y-148972275D01*
X162412610Y-149174054D01*
X162318507Y-149398504D01*
X162270000Y-149637000D01*
X162270000Y-149987000D01*
X163378000Y-149987000D01*
X163378000Y-148695269D01*
X163632000Y-148695269D01*
X163632000Y-149987000D01*
X164740000Y-149987000D01*
X164740000Y-149637000D01*
X164691493Y-149398504D01*
X164597390Y-149174054D01*
X164461307Y-148972275D01*
X164288474Y-148800922D01*
X164085533Y-148666579D01*
X163860282Y-148574409D01*
X163822609Y-148570538D01*
X163632000Y-148695269D01*
X163378000Y-148695269D01*
X163204138Y-148581497D01*
X163264528Y-148353133D01*
X162505000Y-147593605D01*
X161745472Y-148353133D01*
X158264528Y-148353133D01*
X157505000Y-147593605D01*
X156745472Y-148353133D01*
X156805862Y-148581497D01*
X156632000Y-148695269D01*
X156378000Y-148695269D01*
X156187391Y-148570538D01*
X156149718Y-148574409D01*
X155924467Y-148666579D01*
X155721526Y-148800922D01*
X155548693Y-148972275D01*
X155412610Y-149174054D01*
X155318507Y-149398504D01*
X155270000Y-149637000D01*
X144526000Y-149637000D01*
X144526000Y-149352000D01*
X144523560Y-149327224D01*
X144516333Y-149303399D01*
X144504597Y-149281443D01*
X144488803Y-149262197D01*
X144469557Y-149246403D01*
X144447601Y-149234667D01*
X144423776Y-149227440D01*
X144399000Y-149225000D01*
X126682500Y-149225000D01*
X126682500Y-148082202D01*
X135521403Y-148082202D01*
X135592986Y-148326171D01*
X135848496Y-148447071D01*
X136122684Y-148515800D01*
X136405012Y-148529717D01*
X136684630Y-148488287D01*
X136950792Y-148393103D01*
X137076014Y-148326171D01*
X137147597Y-148082202D01*
X136334500Y-147269105D01*
X135521403Y-148082202D01*
X126682500Y-148082202D01*
X126682500Y-146558000D01*
X127584428Y-146558000D01*
X127596688Y-146682482D01*
X127632998Y-146802180D01*
X127691963Y-146912494D01*
X127771315Y-147009185D01*
X127868006Y-147088537D01*
X127978320Y-147147502D01*
X128098018Y-147183812D01*
X128222500Y-147196072D01*
X128936750Y-147193000D01*
X129095500Y-147034250D01*
X129095500Y-145732500D01*
X129349500Y-145732500D01*
X129349500Y-147034250D01*
X129508250Y-147193000D01*
X130222500Y-147196072D01*
X130346982Y-147183812D01*
X130425440Y-147160012D01*
X134894283Y-147160012D01*
X134935713Y-147439630D01*
X135030897Y-147705792D01*
X135097829Y-147831014D01*
X135341798Y-147902597D01*
X136154895Y-147089500D01*
X136514105Y-147089500D01*
X137327202Y-147902597D01*
X137571171Y-147831014D01*
X137692071Y-147575504D01*
X137760800Y-147301316D01*
X137774717Y-147018988D01*
X137733287Y-146739370D01*
X137638103Y-146473208D01*
X137571171Y-146347986D01*
X137327202Y-146276403D01*
X136514105Y-147089500D01*
X136154895Y-147089500D01*
X135341798Y-146276403D01*
X135097829Y-146347986D01*
X134976929Y-146603496D01*
X134908200Y-146877684D01*
X134894283Y-147160012D01*
X130425440Y-147160012D01*
X130466680Y-147147502D01*
X130576994Y-147088537D01*
X130673685Y-147009185D01*
X130753037Y-146912494D01*
X130812002Y-146802180D01*
X130848312Y-146682482D01*
X130860572Y-146558000D01*
X130857500Y-145891250D01*
X130698750Y-145732500D01*
X129349500Y-145732500D01*
X129095500Y-145732500D01*
X127746250Y-145732500D01*
X127587500Y-145891250D01*
X127584428Y-146558000D01*
X126682500Y-146558000D01*
X126682500Y-140525500D01*
X127579819Y-140525500D01*
X127610470Y-140836704D01*
X127701245Y-141135949D01*
X127848655Y-141411735D01*
X128047037Y-141653463D01*
X128220109Y-141795500D01*
X128047037Y-141937537D01*
X127848655Y-142179265D01*
X127701245Y-142455051D01*
X127610470Y-142754296D01*
X127579819Y-143065500D01*
X127610470Y-143376704D01*
X127701245Y-143675949D01*
X127848655Y-143951735D01*
X127951946Y-144077595D01*
X127868006Y-144122463D01*
X127771315Y-144201815D01*
X127691963Y-144298506D01*
X127632998Y-144408820D01*
X127596688Y-144528518D01*
X127584428Y-144653000D01*
X127587500Y-145319750D01*
X127746250Y-145478500D01*
X129095500Y-145478500D01*
X129095500Y-145458500D01*
X129349500Y-145458500D01*
X129349500Y-145478500D01*
X130698750Y-145478500D01*
X130857500Y-145319750D01*
X130860572Y-144653000D01*
X130848312Y-144528518D01*
X130812002Y-144408820D01*
X130753037Y-144298506D01*
X130673685Y-144201815D01*
X130576994Y-144122463D01*
X130493054Y-144077595D01*
X130596345Y-143951735D01*
X130683061Y-143789500D01*
X134896428Y-143789500D01*
X134896428Y-145389500D01*
X134908688Y-145513982D01*
X134944998Y-145633680D01*
X135003963Y-145743994D01*
X135083315Y-145840685D01*
X135180006Y-145920037D01*
X135290320Y-145979002D01*
X135410018Y-146015312D01*
X135534500Y-146027572D01*
X135541715Y-146027572D01*
X135521403Y-146096798D01*
X136334500Y-146909895D01*
X137147597Y-146096798D01*
X137127285Y-146027572D01*
X137134500Y-146027572D01*
X137258982Y-146015312D01*
X137309129Y-146000100D01*
X140485228Y-146000100D01*
X140485228Y-147700100D01*
X140497488Y-147824582D01*
X140533798Y-147944280D01*
X140592763Y-148054594D01*
X140672115Y-148151285D01*
X140768806Y-148230637D01*
X140879120Y-148289602D01*
X140998818Y-148325912D01*
X141123300Y-148338172D01*
X142823300Y-148338172D01*
X142947782Y-148325912D01*
X143067480Y-148289602D01*
X143177794Y-148230637D01*
X143274485Y-148151285D01*
X143353837Y-148054594D01*
X143412802Y-147944280D01*
X143449112Y-147824582D01*
X143461372Y-147700100D01*
X143461372Y-147487482D01*
X156140396Y-147487482D01*
X156180952Y-147752291D01*
X156272391Y-148004100D01*
X156329550Y-148111035D01*
X156565867Y-148173528D01*
X157325395Y-147414000D01*
X157684605Y-147414000D01*
X158444133Y-148173528D01*
X158680450Y-148111035D01*
X158793850Y-147868322D01*
X158857719Y-147608151D01*
X158863077Y-147487482D01*
X161140396Y-147487482D01*
X161180952Y-147752291D01*
X161272391Y-148004100D01*
X161329550Y-148111035D01*
X161565867Y-148173528D01*
X162325395Y-147414000D01*
X162684605Y-147414000D01*
X163444133Y-148173528D01*
X163461255Y-148169000D01*
X186964428Y-148169000D01*
X186964428Y-149519000D01*
X186976688Y-149643482D01*
X187012998Y-149763180D01*
X187071963Y-149873494D01*
X187151315Y-149970185D01*
X187248006Y-150049537D01*
X187358320Y-150108502D01*
X187478018Y-150144812D01*
X187602500Y-150157072D01*
X188952500Y-150157072D01*
X189076982Y-150144812D01*
X189196680Y-150108502D01*
X189306994Y-150049537D01*
X189403685Y-149970185D01*
X189474987Y-149883303D01*
X189656982Y-150004907D01*
X189895387Y-150103658D01*
X190148476Y-150154000D01*
X190406524Y-150154000D01*
X190659613Y-150103658D01*
X190898018Y-150004907D01*
X191112577Y-149861544D01*
X191295044Y-149679077D01*
X191438407Y-149464518D01*
X191537158Y-149226113D01*
X191587500Y-148973024D01*
X191587500Y-148714976D01*
X191537158Y-148461887D01*
X191438407Y-148223482D01*
X191295044Y-148008923D01*
X191112577Y-147826456D01*
X190898018Y-147683093D01*
X190659613Y-147584342D01*
X190406524Y-147534000D01*
X190148476Y-147534000D01*
X189895387Y-147584342D01*
X189656982Y-147683093D01*
X189474987Y-147804697D01*
X189403685Y-147717815D01*
X189306994Y-147638463D01*
X189196680Y-147579498D01*
X189076982Y-147543188D01*
X188952500Y-147530928D01*
X187602500Y-147530928D01*
X187478018Y-147543188D01*
X187358320Y-147579498D01*
X187248006Y-147638463D01*
X187151315Y-147717815D01*
X187071963Y-147814506D01*
X187012998Y-147924820D01*
X186976688Y-148044518D01*
X186964428Y-148169000D01*
X163461255Y-148169000D01*
X163680450Y-148111035D01*
X163793850Y-147868322D01*
X163857719Y-147608151D01*
X163869604Y-147340518D01*
X163829048Y-147075709D01*
X163737609Y-146823900D01*
X163680450Y-146716965D01*
X163444133Y-146654472D01*
X162684605Y-147414000D01*
X162325395Y-147414000D01*
X161565867Y-146654472D01*
X161329550Y-146716965D01*
X161216150Y-146959678D01*
X161152281Y-147219849D01*
X161140396Y-147487482D01*
X158863077Y-147487482D01*
X158869604Y-147340518D01*
X158829048Y-147075709D01*
X158737609Y-146823900D01*
X158680450Y-146716965D01*
X158444133Y-146654472D01*
X157684605Y-147414000D01*
X157325395Y-147414000D01*
X156565867Y-146654472D01*
X156329550Y-146716965D01*
X156216150Y-146959678D01*
X156152281Y-147219849D01*
X156140396Y-147487482D01*
X143461372Y-147487482D01*
X143461372Y-146453100D01*
X145503628Y-146453100D01*
X145515888Y-146577582D01*
X145552198Y-146697280D01*
X145611163Y-146807594D01*
X145690515Y-146904285D01*
X145787206Y-146983637D01*
X145897520Y-147042602D01*
X146017218Y-147078912D01*
X146141700Y-147091172D01*
X146705950Y-147088100D01*
X146864700Y-146929350D01*
X146864700Y-145580100D01*
X145665450Y-145580100D01*
X145506700Y-145738850D01*
X145503628Y-146453100D01*
X143461372Y-146453100D01*
X143461372Y-146000100D01*
X143449112Y-145875618D01*
X143412802Y-145755920D01*
X143353837Y-145645606D01*
X143274485Y-145548915D01*
X143177794Y-145469563D01*
X143067480Y-145410598D01*
X142994920Y-145388587D01*
X143126775Y-145256732D01*
X143289290Y-145013511D01*
X143401232Y-144743258D01*
X143458300Y-144456360D01*
X143458300Y-144453100D01*
X145503628Y-144453100D01*
X145506700Y-145167350D01*
X145665450Y-145326100D01*
X146864700Y-145326100D01*
X146864700Y-143976850D01*
X147118700Y-143976850D01*
X147118700Y-145326100D01*
X147138700Y-145326100D01*
X147138700Y-145580100D01*
X147118700Y-145580100D01*
X147118700Y-146929350D01*
X147277450Y-147088100D01*
X147841700Y-147091172D01*
X147966182Y-147078912D01*
X148085880Y-147042602D01*
X148196194Y-146983637D01*
X148292885Y-146904285D01*
X148372237Y-146807594D01*
X148431202Y-146697280D01*
X148441755Y-146662492D01*
X148662687Y-146843806D01*
X148920667Y-146981699D01*
X149200590Y-147066613D01*
X149491700Y-147095285D01*
X149782811Y-147066613D01*
X150062734Y-146981699D01*
X150320714Y-146843806D01*
X150546834Y-146658234D01*
X150697319Y-146474867D01*
X156745472Y-146474867D01*
X157505000Y-147234395D01*
X158264528Y-146474867D01*
X158202035Y-146238550D01*
X157959322Y-146125150D01*
X157699151Y-146061281D01*
X157431518Y-146049396D01*
X157166709Y-146089952D01*
X156914900Y-146181391D01*
X156807965Y-146238550D01*
X156745472Y-146474867D01*
X150697319Y-146474867D01*
X150732406Y-146432114D01*
X150870299Y-146174133D01*
X150955213Y-145894210D01*
X150976700Y-145676049D01*
X150976700Y-145512059D01*
X158120000Y-145512059D01*
X158120000Y-145715937D01*
X158159774Y-145915896D01*
X158237795Y-146104254D01*
X158351063Y-146273772D01*
X158495226Y-146417935D01*
X158664744Y-146531203D01*
X158853102Y-146609224D01*
X159053061Y-146648998D01*
X159256939Y-146648998D01*
X159456898Y-146609224D01*
X159645256Y-146531203D01*
X159680000Y-146507988D01*
X159714744Y-146531203D01*
X159903102Y-146609224D01*
X160103061Y-146648998D01*
X160306939Y-146648998D01*
X160506898Y-146609224D01*
X160695256Y-146531203D01*
X160779569Y-146474867D01*
X161745472Y-146474867D01*
X162505000Y-147234395D01*
X163264528Y-146474867D01*
X163202035Y-146238550D01*
X162959322Y-146125150D01*
X162699151Y-146061281D01*
X162431518Y-146049396D01*
X162166709Y-146089952D01*
X161914900Y-146181391D01*
X161807965Y-146238550D01*
X161745472Y-146474867D01*
X160779569Y-146474867D01*
X160864774Y-146417935D01*
X161008937Y-146273772D01*
X161122205Y-146104254D01*
X161200226Y-145915896D01*
X161240000Y-145715937D01*
X161240000Y-145512059D01*
X161200226Y-145312100D01*
X161122205Y-145123742D01*
X161008937Y-144954224D01*
X160864774Y-144810061D01*
X160695256Y-144696793D01*
X160640000Y-144673905D01*
X160640000Y-139751846D01*
X160658946Y-139732900D01*
X163036195Y-139732900D01*
X163072300Y-139736456D01*
X163108405Y-139732900D01*
X163216385Y-139722265D01*
X163354933Y-139680237D01*
X163482620Y-139611987D01*
X163594538Y-139520138D01*
X163617559Y-139492087D01*
X164045187Y-139064459D01*
X164073238Y-139041438D01*
X164165087Y-138929520D01*
X164233337Y-138801833D01*
X164275365Y-138663285D01*
X164289556Y-138519201D01*
X164286000Y-138483096D01*
X164286000Y-138265193D01*
X164341256Y-138242305D01*
X164510774Y-138129037D01*
X164654937Y-137984874D01*
X164768205Y-137815356D01*
X164846226Y-137626998D01*
X164886000Y-137427039D01*
X164886000Y-137223161D01*
X164846226Y-137023202D01*
X164768205Y-136834844D01*
X164654937Y-136665326D01*
X164510774Y-136521163D01*
X164341256Y-136407895D01*
X164152898Y-136329874D01*
X163952939Y-136290100D01*
X163749061Y-136290100D01*
X163549102Y-136329874D01*
X163360744Y-136407895D01*
X163326000Y-136431110D01*
X163291256Y-136407895D01*
X163102898Y-136329874D01*
X162902939Y-136290100D01*
X162699061Y-136290100D01*
X162499102Y-136329874D01*
X162310744Y-136407895D01*
X162141226Y-136521163D01*
X161997063Y-136665326D01*
X161883795Y-136834844D01*
X161805774Y-137023202D01*
X161766000Y-137223161D01*
X161766000Y-137427039D01*
X161805774Y-137626998D01*
X161882778Y-137812900D01*
X160204205Y-137812900D01*
X160168100Y-137809344D01*
X160024015Y-137823535D01*
X159885466Y-137865563D01*
X159811472Y-137905114D01*
X159757780Y-137933813D01*
X159645862Y-138025662D01*
X159622846Y-138053707D01*
X158960808Y-138715746D01*
X158932762Y-138738763D01*
X158840913Y-138850681D01*
X158772663Y-138978368D01*
X158748760Y-139057165D01*
X158730635Y-139116915D01*
X158716444Y-139261000D01*
X158720000Y-139297105D01*
X158720001Y-144673905D01*
X158664744Y-144696793D01*
X158495226Y-144810061D01*
X158351063Y-144954224D01*
X158237795Y-145123742D01*
X158159774Y-145312100D01*
X158120000Y-145512059D01*
X150976700Y-145512059D01*
X150976700Y-145230150D01*
X150955213Y-145011989D01*
X150870299Y-144732066D01*
X150732406Y-144474086D01*
X150546834Y-144247966D01*
X150320713Y-144062394D01*
X150062733Y-143924501D01*
X149782810Y-143839587D01*
X149491700Y-143810915D01*
X149200589Y-143839587D01*
X148920666Y-143924501D01*
X148662686Y-144062394D01*
X148441755Y-144243708D01*
X148431202Y-144208920D01*
X148372237Y-144098606D01*
X148292885Y-144001915D01*
X148196194Y-143922563D01*
X148085880Y-143863598D01*
X147966182Y-143827288D01*
X147841700Y-143815028D01*
X147277450Y-143818100D01*
X147118700Y-143976850D01*
X146864700Y-143976850D01*
X146705950Y-143818100D01*
X146141700Y-143815028D01*
X146017218Y-143827288D01*
X145897520Y-143863598D01*
X145787206Y-143922563D01*
X145690515Y-144001915D01*
X145611163Y-144098606D01*
X145552198Y-144208920D01*
X145515888Y-144328618D01*
X145503628Y-144453100D01*
X143458300Y-144453100D01*
X143458300Y-144163840D01*
X143401232Y-143876942D01*
X143289290Y-143606689D01*
X143126775Y-143363468D01*
X142919932Y-143156625D01*
X142676711Y-142994110D01*
X142406458Y-142882168D01*
X142119560Y-142825100D01*
X141827040Y-142825100D01*
X141540142Y-142882168D01*
X141269889Y-142994110D01*
X141026668Y-143156625D01*
X140819825Y-143363468D01*
X140657310Y-143606689D01*
X140545368Y-143876942D01*
X140488300Y-144163840D01*
X140488300Y-144456360D01*
X140545368Y-144743258D01*
X140657310Y-145013511D01*
X140819825Y-145256732D01*
X140951680Y-145388587D01*
X140879120Y-145410598D01*
X140768806Y-145469563D01*
X140672115Y-145548915D01*
X140592763Y-145645606D01*
X140533798Y-145755920D01*
X140497488Y-145875618D01*
X140485228Y-146000100D01*
X137309129Y-146000100D01*
X137378680Y-145979002D01*
X137488994Y-145920037D01*
X137585685Y-145840685D01*
X137665037Y-145743994D01*
X137724002Y-145633680D01*
X137760312Y-145513982D01*
X137772572Y-145389500D01*
X137772572Y-143789500D01*
X137760312Y-143665018D01*
X137724002Y-143545320D01*
X137665037Y-143435006D01*
X137585685Y-143338315D01*
X137488994Y-143258963D01*
X137378680Y-143199998D01*
X137258982Y-143163688D01*
X137134500Y-143151428D01*
X135534500Y-143151428D01*
X135410018Y-143163688D01*
X135290320Y-143199998D01*
X135180006Y-143258963D01*
X135083315Y-143338315D01*
X135003963Y-143435006D01*
X134944998Y-143545320D01*
X134908688Y-143665018D01*
X134896428Y-143789500D01*
X130683061Y-143789500D01*
X130743755Y-143675949D01*
X130834530Y-143376704D01*
X130865181Y-143065500D01*
X130834530Y-142754296D01*
X130743755Y-142455051D01*
X130596345Y-142179265D01*
X130397963Y-141937537D01*
X130224891Y-141795500D01*
X130397963Y-141653463D01*
X130596345Y-141411735D01*
X130743755Y-141135949D01*
X130834530Y-140836704D01*
X130865181Y-140525500D01*
X130834530Y-140214296D01*
X130743755Y-139915051D01*
X130596345Y-139639265D01*
X130397963Y-139397537D01*
X130284598Y-139304500D01*
X134896428Y-139304500D01*
X134896428Y-140904500D01*
X134908688Y-141028982D01*
X134944998Y-141148680D01*
X135003963Y-141258994D01*
X135083315Y-141355685D01*
X135180006Y-141435037D01*
X135290320Y-141494002D01*
X135410018Y-141530312D01*
X135534500Y-141542572D01*
X137134500Y-141542572D01*
X137258982Y-141530312D01*
X137378680Y-141494002D01*
X137488994Y-141435037D01*
X137585685Y-141355685D01*
X137665037Y-141258994D01*
X137724002Y-141148680D01*
X137760312Y-141028982D01*
X137772572Y-140904500D01*
X137772572Y-139493500D01*
X145514428Y-139493500D01*
X145526688Y-139617982D01*
X145562998Y-139737680D01*
X145621963Y-139847994D01*
X145701315Y-139944685D01*
X145798006Y-140024037D01*
X145908320Y-140083002D01*
X146028018Y-140119312D01*
X146152500Y-140131572D01*
X146716750Y-140128500D01*
X146875500Y-139969750D01*
X146875500Y-138620500D01*
X145676250Y-138620500D01*
X145517500Y-138779250D01*
X145514428Y-139493500D01*
X137772572Y-139493500D01*
X137772572Y-139304500D01*
X137760312Y-139180018D01*
X137724002Y-139060320D01*
X137665037Y-138950006D01*
X137585685Y-138853315D01*
X137488994Y-138773963D01*
X137378680Y-138714998D01*
X137258982Y-138678688D01*
X137134500Y-138666428D01*
X137127285Y-138666428D01*
X137147597Y-138597202D01*
X136334500Y-137784105D01*
X135521403Y-138597202D01*
X135541715Y-138666428D01*
X135534500Y-138666428D01*
X135410018Y-138678688D01*
X135290320Y-138714998D01*
X135180006Y-138773963D01*
X135083315Y-138853315D01*
X135003963Y-138950006D01*
X134944998Y-139060320D01*
X134908688Y-139180018D01*
X134896428Y-139304500D01*
X130284598Y-139304500D01*
X130156235Y-139199155D01*
X129880449Y-139051745D01*
X129581204Y-138960970D01*
X129347986Y-138938000D01*
X129097014Y-138938000D01*
X128863796Y-138960970D01*
X128564551Y-139051745D01*
X128288765Y-139199155D01*
X128047037Y-139397537D01*
X127848655Y-139639265D01*
X127701245Y-139915051D01*
X127610470Y-140214296D01*
X127579819Y-140525500D01*
X126682500Y-140525500D01*
X126682500Y-137675012D01*
X134894283Y-137675012D01*
X134935713Y-137954630D01*
X135030897Y-138220792D01*
X135097829Y-138346014D01*
X135341798Y-138417597D01*
X136154895Y-137604500D01*
X136514105Y-137604500D01*
X137327202Y-138417597D01*
X137571171Y-138346014D01*
X137692071Y-138090504D01*
X137760800Y-137816316D01*
X137774717Y-137533988D01*
X137768719Y-137493500D01*
X145514428Y-137493500D01*
X145517500Y-138207750D01*
X145676250Y-138366500D01*
X146875500Y-138366500D01*
X146875500Y-137017250D01*
X147129500Y-137017250D01*
X147129500Y-138366500D01*
X147149500Y-138366500D01*
X147149500Y-138620500D01*
X147129500Y-138620500D01*
X147129500Y-139969750D01*
X147288250Y-140128500D01*
X147852500Y-140131572D01*
X147976982Y-140119312D01*
X148096680Y-140083002D01*
X148206994Y-140024037D01*
X148303685Y-139944685D01*
X148383037Y-139847994D01*
X148442002Y-139737680D01*
X148452555Y-139702892D01*
X148673487Y-139884206D01*
X148931467Y-140022099D01*
X149211390Y-140107013D01*
X149354212Y-140121080D01*
X149875563Y-140642432D01*
X149901709Y-140674291D01*
X149933568Y-140700437D01*
X149933570Y-140700439D01*
X150028854Y-140778636D01*
X150173913Y-140856172D01*
X150331311Y-140903918D01*
X150495000Y-140920040D01*
X150536018Y-140916000D01*
X152485215Y-140916000D01*
X152608244Y-140998205D01*
X152796602Y-141076226D01*
X152996561Y-141116000D01*
X153200439Y-141116000D01*
X153400398Y-141076226D01*
X153588756Y-140998205D01*
X153758274Y-140884937D01*
X153902437Y-140740774D01*
X154015705Y-140571256D01*
X154093726Y-140382898D01*
X154133500Y-140182939D01*
X154133500Y-139979061D01*
X154093726Y-139779102D01*
X154015705Y-139590744D01*
X153902437Y-139421226D01*
X153758274Y-139277063D01*
X153588756Y-139163795D01*
X153400398Y-139085774D01*
X153200439Y-139046000D01*
X152996561Y-139046000D01*
X152796602Y-139085774D01*
X152608244Y-139163795D01*
X152485215Y-139246000D01*
X150864280Y-139246000D01*
X150881099Y-139214533D01*
X150966013Y-138934610D01*
X150987500Y-138716449D01*
X150987500Y-138270550D01*
X150966013Y-138052389D01*
X150881099Y-137772466D01*
X150743206Y-137514486D01*
X150557634Y-137288366D01*
X150331513Y-137102794D01*
X150073533Y-136964901D01*
X149793610Y-136879987D01*
X149502500Y-136851315D01*
X149211389Y-136879987D01*
X148931466Y-136964901D01*
X148673486Y-137102794D01*
X148452555Y-137284108D01*
X148442002Y-137249320D01*
X148383037Y-137139006D01*
X148303685Y-137042315D01*
X148206994Y-136962963D01*
X148096680Y-136903998D01*
X147976982Y-136867688D01*
X147852500Y-136855428D01*
X147288250Y-136858500D01*
X147129500Y-137017250D01*
X146875500Y-137017250D01*
X146716750Y-136858500D01*
X146152500Y-136855428D01*
X146028018Y-136867688D01*
X145908320Y-136903998D01*
X145798006Y-136962963D01*
X145701315Y-137042315D01*
X145621963Y-137139006D01*
X145562998Y-137249320D01*
X145526688Y-137369018D01*
X145514428Y-137493500D01*
X137768719Y-137493500D01*
X137733287Y-137254370D01*
X137638103Y-136988208D01*
X137571171Y-136862986D01*
X137327202Y-136791403D01*
X136514105Y-137604500D01*
X136154895Y-137604500D01*
X135341798Y-136791403D01*
X135097829Y-136862986D01*
X134976929Y-137118496D01*
X134908200Y-137392684D01*
X134894283Y-137675012D01*
X126682500Y-137675012D01*
X126682500Y-136611798D01*
X135521403Y-136611798D01*
X136334500Y-137424895D01*
X137147597Y-136611798D01*
X137076014Y-136367829D01*
X136820504Y-136246929D01*
X136546316Y-136178200D01*
X136263988Y-136164283D01*
X135984370Y-136205713D01*
X135718208Y-136300897D01*
X135592986Y-136367829D01*
X135521403Y-136611798D01*
X126682500Y-136611798D01*
X126682500Y-134810096D01*
X146494904Y-134746999D01*
X146519673Y-134744480D01*
X146543474Y-134737177D01*
X146565393Y-134725371D01*
X146584588Y-134709516D01*
X146600321Y-134690221D01*
X146611987Y-134668227D01*
X146619138Y-134644380D01*
X146621491Y-134621494D01*
X146658861Y-131445000D01*
X150688009Y-131445000D01*
X150709923Y-131667498D01*
X150774824Y-131881446D01*
X150880217Y-132078622D01*
X150986512Y-132208143D01*
X151070505Y-132292136D01*
X151106052Y-132335450D01*
X151278878Y-132477285D01*
X151476054Y-132582677D01*
X151690002Y-132647578D01*
X151856749Y-132664001D01*
X151856759Y-132664001D01*
X151912500Y-132669491D01*
X151968242Y-132664001D01*
X163286312Y-132664001D01*
X163177715Y-132736563D01*
X163033552Y-132880726D01*
X162920284Y-133050244D01*
X162842263Y-133238602D01*
X162802489Y-133438561D01*
X162802489Y-133642439D01*
X162842263Y-133842398D01*
X162920284Y-134030756D01*
X163033552Y-134200274D01*
X163177715Y-134344437D01*
X163347233Y-134457705D01*
X163535591Y-134535726D01*
X163735550Y-134575500D01*
X163939428Y-134575500D01*
X164139387Y-134535726D01*
X164327745Y-134457705D01*
X164497263Y-134344437D01*
X164541200Y-134300500D01*
X165158289Y-134300500D01*
X165202226Y-134344437D01*
X165371744Y-134457705D01*
X165560102Y-134535726D01*
X165760061Y-134575500D01*
X165963939Y-134575500D01*
X166163898Y-134535726D01*
X166352256Y-134457705D01*
X166521774Y-134344437D01*
X166665937Y-134200274D01*
X166779205Y-134030756D01*
X166857226Y-133842398D01*
X166897000Y-133642439D01*
X166897000Y-133438561D01*
X166857226Y-133238602D01*
X166779205Y-133050244D01*
X166665937Y-132880726D01*
X166521774Y-132736563D01*
X166413177Y-132664001D01*
X173282001Y-132664001D01*
X173282000Y-134768715D01*
X173199795Y-134891744D01*
X173121774Y-135080102D01*
X173082000Y-135280061D01*
X173082000Y-135483939D01*
X173121774Y-135683898D01*
X173199795Y-135872256D01*
X173313063Y-136041774D01*
X173457226Y-136185937D01*
X173626744Y-136299205D01*
X173815102Y-136377226D01*
X174015061Y-136417000D01*
X174218939Y-136417000D01*
X174418898Y-136377226D01*
X174607256Y-136299205D01*
X174776774Y-136185937D01*
X174920937Y-136041774D01*
X175034205Y-135872256D01*
X175112226Y-135683898D01*
X175152000Y-135483939D01*
X175152000Y-135280061D01*
X175112226Y-135080102D01*
X175034205Y-134891744D01*
X174952000Y-134768715D01*
X174952000Y-132072000D01*
X191037898Y-132072000D01*
X191119125Y-132080000D01*
X193055875Y-132080000D01*
X193179757Y-132067799D01*
X193298879Y-132031664D01*
X193408662Y-131972983D01*
X193504888Y-131894013D01*
X193583858Y-131797787D01*
X193642539Y-131688004D01*
X193678674Y-131568882D01*
X193690875Y-131445000D01*
X193690875Y-130429000D01*
X193678674Y-130305118D01*
X193642539Y-130185996D01*
X193583858Y-130076213D01*
X193504888Y-129979987D01*
X193408662Y-129901017D01*
X193298879Y-129842336D01*
X193179757Y-129806201D01*
X193055875Y-129794000D01*
X191119125Y-129794000D01*
X191037898Y-129802000D01*
X174031254Y-129802000D01*
X173975502Y-129796509D01*
X173919750Y-129802000D01*
X173753003Y-129818423D01*
X173539055Y-129883324D01*
X173341879Y-129988716D01*
X173169053Y-130130551D01*
X173133506Y-130173865D01*
X172913370Y-130394001D01*
X152269954Y-130394001D01*
X152264946Y-130391324D01*
X152050998Y-130326423D01*
X151828500Y-130304509D01*
X151606002Y-130326423D01*
X151392054Y-130391324D01*
X151194878Y-130496717D01*
X151022052Y-130638552D01*
X150880217Y-130811378D01*
X150774824Y-131008554D01*
X150709923Y-131222502D01*
X150688009Y-131445000D01*
X146658861Y-131445000D01*
X146715261Y-126651013D01*
X177005985Y-126714250D01*
X177030766Y-126711861D01*
X177054606Y-126704684D01*
X177076587Y-126692994D01*
X177095865Y-126677240D01*
X177111699Y-126658028D01*
X177123481Y-126636096D01*
X177130758Y-126612286D01*
X177133244Y-126586033D01*
X177113701Y-124547000D01*
X179598428Y-124547000D01*
X179598428Y-125897000D01*
X179610688Y-126021482D01*
X179646998Y-126141180D01*
X179705963Y-126251494D01*
X179785315Y-126348185D01*
X179882006Y-126427537D01*
X179992320Y-126486502D01*
X180112018Y-126522812D01*
X180236500Y-126535072D01*
X181586500Y-126535072D01*
X181710982Y-126522812D01*
X181830680Y-126486502D01*
X181940994Y-126427537D01*
X182037685Y-126348185D01*
X182108987Y-126261303D01*
X182290982Y-126382907D01*
X182529387Y-126481658D01*
X182782476Y-126532000D01*
X183040524Y-126532000D01*
X183293613Y-126481658D01*
X183532018Y-126382907D01*
X183746577Y-126239544D01*
X183911500Y-126074621D01*
X184076423Y-126239544D01*
X184290982Y-126382907D01*
X184529387Y-126481658D01*
X184782476Y-126532000D01*
X185040524Y-126532000D01*
X185293613Y-126481658D01*
X185532018Y-126382907D01*
X185746577Y-126239544D01*
X185911500Y-126074621D01*
X186076423Y-126239544D01*
X186290982Y-126382907D01*
X186529387Y-126481658D01*
X186782476Y-126532000D01*
X187040524Y-126532000D01*
X187293613Y-126481658D01*
X187532018Y-126382907D01*
X187746577Y-126239544D01*
X187929044Y-126057077D01*
X188072407Y-125842518D01*
X188171158Y-125604113D01*
X188221500Y-125351024D01*
X188221500Y-125092976D01*
X188171158Y-124839887D01*
X188072407Y-124601482D01*
X187929044Y-124386923D01*
X187746577Y-124204456D01*
X187532018Y-124061093D01*
X187293613Y-123962342D01*
X187040524Y-123912000D01*
X186782476Y-123912000D01*
X186529387Y-123962342D01*
X186290982Y-124061093D01*
X186076423Y-124204456D01*
X185911500Y-124369379D01*
X185746577Y-124204456D01*
X185532018Y-124061093D01*
X185293613Y-123962342D01*
X185040524Y-123912000D01*
X184782476Y-123912000D01*
X184529387Y-123962342D01*
X184290982Y-124061093D01*
X184076423Y-124204456D01*
X183911500Y-124369379D01*
X183746577Y-124204456D01*
X183532018Y-124061093D01*
X183293613Y-123962342D01*
X183040524Y-123912000D01*
X182782476Y-123912000D01*
X182529387Y-123962342D01*
X182290982Y-124061093D01*
X182108987Y-124182697D01*
X182037685Y-124095815D01*
X181940994Y-124016463D01*
X181830680Y-123957498D01*
X181710982Y-123921188D01*
X181586500Y-123908928D01*
X180236500Y-123908928D01*
X180112018Y-123921188D01*
X179992320Y-123957498D01*
X179882006Y-124016463D01*
X179785315Y-124095815D01*
X179705963Y-124192506D01*
X179646998Y-124302820D01*
X179610688Y-124422518D01*
X179598428Y-124547000D01*
X177113701Y-124547000D01*
X177058699Y-118808500D01*
X177063500Y-118808500D01*
X177063500Y-119208500D01*
X177115850Y-119486014D01*
X177221334Y-119747983D01*
X177375899Y-119984339D01*
X177573605Y-120186000D01*
X177806854Y-120345215D01*
X178066682Y-120455867D01*
X178149461Y-120473404D01*
X178371500Y-120351415D01*
X178371500Y-118808500D01*
X177063500Y-118808500D01*
X177058699Y-118808500D01*
X177052431Y-118154500D01*
X177063500Y-118154500D01*
X177063500Y-118554500D01*
X178371500Y-118554500D01*
X178371500Y-117011585D01*
X178625500Y-117011585D01*
X178625500Y-118554500D01*
X178645500Y-118554500D01*
X178645500Y-118808500D01*
X178625500Y-118808500D01*
X178625500Y-120351415D01*
X178847539Y-120473404D01*
X178930318Y-120455867D01*
X179190146Y-120345215D01*
X179423395Y-120186000D01*
X179621101Y-119984339D01*
X179771235Y-119754758D01*
X179839568Y-119882600D01*
X180018892Y-120101107D01*
X180237399Y-120280432D01*
X180486692Y-120413682D01*
X180757191Y-120495736D01*
X181038500Y-120523443D01*
X181319808Y-120495736D01*
X181590307Y-120413682D01*
X181839600Y-120280432D01*
X182058107Y-120101108D01*
X182237432Y-119882601D01*
X182308500Y-119749642D01*
X182379568Y-119882600D01*
X182558892Y-120101107D01*
X182777399Y-120280432D01*
X183026692Y-120413682D01*
X183297191Y-120495736D01*
X183578500Y-120523443D01*
X183859808Y-120495736D01*
X184130307Y-120413682D01*
X184379600Y-120280432D01*
X184598107Y-120101108D01*
X184777432Y-119882601D01*
X184845765Y-119754759D01*
X184995899Y-119984339D01*
X185193605Y-120186000D01*
X185426854Y-120345215D01*
X185686682Y-120455867D01*
X185769461Y-120473404D01*
X185991500Y-120351415D01*
X185991500Y-118808500D01*
X186245500Y-118808500D01*
X186245500Y-120351415D01*
X186467539Y-120473404D01*
X186550318Y-120455867D01*
X186810146Y-120345215D01*
X187043395Y-120186000D01*
X187241101Y-119984339D01*
X187395666Y-119747983D01*
X187501150Y-119486014D01*
X187553500Y-119208500D01*
X187553500Y-118808500D01*
X188239500Y-118808500D01*
X188239500Y-119208500D01*
X188291850Y-119486014D01*
X188397334Y-119747983D01*
X188551899Y-119984339D01*
X188749605Y-120186000D01*
X188982854Y-120345215D01*
X189242682Y-120455867D01*
X189325461Y-120473404D01*
X189547500Y-120351415D01*
X189547500Y-118808500D01*
X188239500Y-118808500D01*
X187553500Y-118808500D01*
X186245500Y-118808500D01*
X185991500Y-118808500D01*
X185971500Y-118808500D01*
X185971500Y-118554500D01*
X185991500Y-118554500D01*
X185991500Y-117011585D01*
X186245500Y-117011585D01*
X186245500Y-118554500D01*
X187553500Y-118554500D01*
X187553500Y-118154500D01*
X188239500Y-118154500D01*
X188239500Y-118554500D01*
X189547500Y-118554500D01*
X189547500Y-117011585D01*
X189801500Y-117011585D01*
X189801500Y-118554500D01*
X189821500Y-118554500D01*
X189821500Y-118808500D01*
X189801500Y-118808500D01*
X189801500Y-120351415D01*
X190023539Y-120473404D01*
X190106318Y-120455867D01*
X190366146Y-120345215D01*
X190599395Y-120186000D01*
X190797101Y-119984339D01*
X190947235Y-119754758D01*
X191015568Y-119882600D01*
X191194892Y-120101107D01*
X191413399Y-120280432D01*
X191662692Y-120413682D01*
X191933191Y-120495736D01*
X192214500Y-120523443D01*
X192495808Y-120495736D01*
X192766307Y-120413682D01*
X193015600Y-120280432D01*
X193234107Y-120101108D01*
X193413432Y-119882601D01*
X193484500Y-119749642D01*
X193555568Y-119882600D01*
X193734892Y-120101107D01*
X193953399Y-120280432D01*
X194202692Y-120413682D01*
X194473191Y-120495736D01*
X194754500Y-120523443D01*
X195035808Y-120495736D01*
X195306307Y-120413682D01*
X195555600Y-120280432D01*
X195774107Y-120101108D01*
X195953432Y-119882601D01*
X196021765Y-119754759D01*
X196171899Y-119984339D01*
X196369605Y-120186000D01*
X196602854Y-120345215D01*
X196862682Y-120455867D01*
X196945461Y-120473404D01*
X197167500Y-120351415D01*
X197167500Y-118808500D01*
X197421500Y-118808500D01*
X197421500Y-120351415D01*
X197643539Y-120473404D01*
X197726318Y-120455867D01*
X197986146Y-120345215D01*
X198219395Y-120186000D01*
X198417101Y-119984339D01*
X198571666Y-119747983D01*
X198677150Y-119486014D01*
X198729500Y-119208500D01*
X198729500Y-118808500D01*
X197421500Y-118808500D01*
X197167500Y-118808500D01*
X197147500Y-118808500D01*
X197147500Y-118554500D01*
X197167500Y-118554500D01*
X197167500Y-117011585D01*
X197421500Y-117011585D01*
X197421500Y-118554500D01*
X198729500Y-118554500D01*
X198729500Y-118154500D01*
X198677150Y-117876986D01*
X198571666Y-117615017D01*
X198417101Y-117378661D01*
X198219395Y-117177000D01*
X197986146Y-117017785D01*
X197726318Y-116907133D01*
X197643539Y-116889596D01*
X197421500Y-117011585D01*
X197167500Y-117011585D01*
X196945461Y-116889596D01*
X196862682Y-116907133D01*
X196602854Y-117017785D01*
X196369605Y-117177000D01*
X196171899Y-117378661D01*
X196021765Y-117608241D01*
X195953432Y-117480399D01*
X195774108Y-117261892D01*
X195555601Y-117082568D01*
X195306308Y-116949318D01*
X195035809Y-116867264D01*
X194754500Y-116839557D01*
X194473192Y-116867264D01*
X194202693Y-116949318D01*
X193953400Y-117082568D01*
X193734893Y-117261892D01*
X193555568Y-117480399D01*
X193484500Y-117613358D01*
X193413432Y-117480399D01*
X193234108Y-117261892D01*
X193015601Y-117082568D01*
X192766308Y-116949318D01*
X192495809Y-116867264D01*
X192214500Y-116839557D01*
X191933192Y-116867264D01*
X191662693Y-116949318D01*
X191413400Y-117082568D01*
X191194893Y-117261892D01*
X191015568Y-117480399D01*
X190947235Y-117608241D01*
X190797101Y-117378661D01*
X190599395Y-117177000D01*
X190366146Y-117017785D01*
X190106318Y-116907133D01*
X190023539Y-116889596D01*
X189801500Y-117011585D01*
X189547500Y-117011585D01*
X189325461Y-116889596D01*
X189242682Y-116907133D01*
X188982854Y-117017785D01*
X188749605Y-117177000D01*
X188551899Y-117378661D01*
X188397334Y-117615017D01*
X188291850Y-117876986D01*
X188239500Y-118154500D01*
X187553500Y-118154500D01*
X187501150Y-117876986D01*
X187395666Y-117615017D01*
X187241101Y-117378661D01*
X187043395Y-117177000D01*
X186810146Y-117017785D01*
X186550318Y-116907133D01*
X186467539Y-116889596D01*
X186245500Y-117011585D01*
X185991500Y-117011585D01*
X185769461Y-116889596D01*
X185686682Y-116907133D01*
X185426854Y-117017785D01*
X185193605Y-117177000D01*
X184995899Y-117378661D01*
X184845765Y-117608241D01*
X184777432Y-117480399D01*
X184598108Y-117261892D01*
X184379601Y-117082568D01*
X184130308Y-116949318D01*
X183859809Y-116867264D01*
X183578500Y-116839557D01*
X183297192Y-116867264D01*
X183026693Y-116949318D01*
X182777400Y-117082568D01*
X182558893Y-117261892D01*
X182379568Y-117480399D01*
X182308500Y-117613358D01*
X182237432Y-117480399D01*
X182058108Y-117261892D01*
X181839601Y-117082568D01*
X181590308Y-116949318D01*
X181319809Y-116867264D01*
X181038500Y-116839557D01*
X180757192Y-116867264D01*
X180486693Y-116949318D01*
X180237400Y-117082568D01*
X180018893Y-117261892D01*
X179839568Y-117480399D01*
X179771235Y-117608241D01*
X179621101Y-117378661D01*
X179423395Y-117177000D01*
X179190146Y-117017785D01*
X178930318Y-116907133D01*
X178847539Y-116889596D01*
X178625500Y-117011585D01*
X178371500Y-117011585D01*
X178149461Y-116889596D01*
X178066682Y-116907133D01*
X177806854Y-117017785D01*
X177573605Y-117177000D01*
X177375899Y-117378661D01*
X177221334Y-117615017D01*
X177115850Y-117876986D01*
X177063500Y-118154500D01*
X177052431Y-118154500D01*
X177039219Y-116776135D01*
X199072500Y-116713362D01*
X199072500Y-122999500D01*
G04 #@! TA.AperFunction,Conductor*
D41*
G36*
X199072500Y-122999500D02*
G01*
X194881500Y-122999500D01*
X194856724Y-123001940D01*
X194832899Y-123009167D01*
X194810943Y-123020903D01*
X194791697Y-123036697D01*
X194775903Y-123055943D01*
X194764167Y-123077899D01*
X194756940Y-123101724D01*
X194754500Y-123126500D01*
X194754500Y-151041745D01*
X164601831Y-151043353D01*
X164691493Y-150829496D01*
X164740000Y-150591000D01*
X164740000Y-150241000D01*
X163632000Y-150241000D01*
X163632000Y-150261000D01*
X163378000Y-150261000D01*
X163378000Y-150241000D01*
X162270000Y-150241000D01*
X162270000Y-150591000D01*
X162318507Y-150829496D01*
X162408218Y-151043470D01*
X161838018Y-151043500D01*
X157601874Y-151043252D01*
X157691493Y-150829496D01*
X157740000Y-150591000D01*
X157740000Y-150241000D01*
X156632000Y-150241000D01*
X156632000Y-150261000D01*
X156378000Y-150261000D01*
X156378000Y-150241000D01*
X155270000Y-150241000D01*
X155270000Y-150591000D01*
X155318507Y-150829496D01*
X155408073Y-151043124D01*
X144526000Y-151042487D01*
X144526000Y-149637000D01*
X155270000Y-149637000D01*
X155270000Y-149987000D01*
X156378000Y-149987000D01*
X156378000Y-148695269D01*
X156632000Y-148695269D01*
X156632000Y-149987000D01*
X157740000Y-149987000D01*
X157740000Y-149637000D01*
X157691493Y-149398504D01*
X157597390Y-149174054D01*
X157461307Y-148972275D01*
X157288474Y-148800922D01*
X157193164Y-148737829D01*
X157310849Y-148766719D01*
X157578482Y-148778604D01*
X157843291Y-148738048D01*
X158095100Y-148646609D01*
X158202035Y-148589450D01*
X158264528Y-148353133D01*
X161745472Y-148353133D01*
X161807965Y-148589450D01*
X162050678Y-148702850D01*
X162310849Y-148766719D01*
X162578482Y-148778604D01*
X162808442Y-148743385D01*
X162721526Y-148800922D01*
X162548693Y-148972275D01*
X162412610Y-149174054D01*
X162318507Y-149398504D01*
X162270000Y-149637000D01*
X162270000Y-149987000D01*
X163378000Y-149987000D01*
X163378000Y-148695269D01*
X163632000Y-148695269D01*
X163632000Y-149987000D01*
X164740000Y-149987000D01*
X164740000Y-149637000D01*
X164691493Y-149398504D01*
X164597390Y-149174054D01*
X164461307Y-148972275D01*
X164288474Y-148800922D01*
X164085533Y-148666579D01*
X163860282Y-148574409D01*
X163822609Y-148570538D01*
X163632000Y-148695269D01*
X163378000Y-148695269D01*
X163204138Y-148581497D01*
X163264528Y-148353133D01*
X162505000Y-147593605D01*
X161745472Y-148353133D01*
X158264528Y-148353133D01*
X157505000Y-147593605D01*
X156745472Y-148353133D01*
X156805862Y-148581497D01*
X156632000Y-148695269D01*
X156378000Y-148695269D01*
X156187391Y-148570538D01*
X156149718Y-148574409D01*
X155924467Y-148666579D01*
X155721526Y-148800922D01*
X155548693Y-148972275D01*
X155412610Y-149174054D01*
X155318507Y-149398504D01*
X155270000Y-149637000D01*
X144526000Y-149637000D01*
X144526000Y-149352000D01*
X144523560Y-149327224D01*
X144516333Y-149303399D01*
X144504597Y-149281443D01*
X144488803Y-149262197D01*
X144469557Y-149246403D01*
X144447601Y-149234667D01*
X144423776Y-149227440D01*
X144399000Y-149225000D01*
X126682500Y-149225000D01*
X126682500Y-148082202D01*
X135521403Y-148082202D01*
X135592986Y-148326171D01*
X135848496Y-148447071D01*
X136122684Y-148515800D01*
X136405012Y-148529717D01*
X136684630Y-148488287D01*
X136950792Y-148393103D01*
X137076014Y-148326171D01*
X137147597Y-148082202D01*
X136334500Y-147269105D01*
X135521403Y-148082202D01*
X126682500Y-148082202D01*
X126682500Y-146558000D01*
X127584428Y-146558000D01*
X127596688Y-146682482D01*
X127632998Y-146802180D01*
X127691963Y-146912494D01*
X127771315Y-147009185D01*
X127868006Y-147088537D01*
X127978320Y-147147502D01*
X128098018Y-147183812D01*
X128222500Y-147196072D01*
X128936750Y-147193000D01*
X129095500Y-147034250D01*
X129095500Y-145732500D01*
X129349500Y-145732500D01*
X129349500Y-147034250D01*
X129508250Y-147193000D01*
X130222500Y-147196072D01*
X130346982Y-147183812D01*
X130425440Y-147160012D01*
X134894283Y-147160012D01*
X134935713Y-147439630D01*
X135030897Y-147705792D01*
X135097829Y-147831014D01*
X135341798Y-147902597D01*
X136154895Y-147089500D01*
X136514105Y-147089500D01*
X137327202Y-147902597D01*
X137571171Y-147831014D01*
X137692071Y-147575504D01*
X137760800Y-147301316D01*
X137774717Y-147018988D01*
X137733287Y-146739370D01*
X137638103Y-146473208D01*
X137571171Y-146347986D01*
X137327202Y-146276403D01*
X136514105Y-147089500D01*
X136154895Y-147089500D01*
X135341798Y-146276403D01*
X135097829Y-146347986D01*
X134976929Y-146603496D01*
X134908200Y-146877684D01*
X134894283Y-147160012D01*
X130425440Y-147160012D01*
X130466680Y-147147502D01*
X130576994Y-147088537D01*
X130673685Y-147009185D01*
X130753037Y-146912494D01*
X130812002Y-146802180D01*
X130848312Y-146682482D01*
X130860572Y-146558000D01*
X130857500Y-145891250D01*
X130698750Y-145732500D01*
X129349500Y-145732500D01*
X129095500Y-145732500D01*
X127746250Y-145732500D01*
X127587500Y-145891250D01*
X127584428Y-146558000D01*
X126682500Y-146558000D01*
X126682500Y-140525500D01*
X127579819Y-140525500D01*
X127610470Y-140836704D01*
X127701245Y-141135949D01*
X127848655Y-141411735D01*
X128047037Y-141653463D01*
X128220109Y-141795500D01*
X128047037Y-141937537D01*
X127848655Y-142179265D01*
X127701245Y-142455051D01*
X127610470Y-142754296D01*
X127579819Y-143065500D01*
X127610470Y-143376704D01*
X127701245Y-143675949D01*
X127848655Y-143951735D01*
X127951946Y-144077595D01*
X127868006Y-144122463D01*
X127771315Y-144201815D01*
X127691963Y-144298506D01*
X127632998Y-144408820D01*
X127596688Y-144528518D01*
X127584428Y-144653000D01*
X127587500Y-145319750D01*
X127746250Y-145478500D01*
X129095500Y-145478500D01*
X129095500Y-145458500D01*
X129349500Y-145458500D01*
X129349500Y-145478500D01*
X130698750Y-145478500D01*
X130857500Y-145319750D01*
X130860572Y-144653000D01*
X130848312Y-144528518D01*
X130812002Y-144408820D01*
X130753037Y-144298506D01*
X130673685Y-144201815D01*
X130576994Y-144122463D01*
X130493054Y-144077595D01*
X130596345Y-143951735D01*
X130683061Y-143789500D01*
X134896428Y-143789500D01*
X134896428Y-145389500D01*
X134908688Y-145513982D01*
X134944998Y-145633680D01*
X135003963Y-145743994D01*
X135083315Y-145840685D01*
X135180006Y-145920037D01*
X135290320Y-145979002D01*
X135410018Y-146015312D01*
X135534500Y-146027572D01*
X135541715Y-146027572D01*
X135521403Y-146096798D01*
X136334500Y-146909895D01*
X137147597Y-146096798D01*
X137127285Y-146027572D01*
X137134500Y-146027572D01*
X137258982Y-146015312D01*
X137309129Y-146000100D01*
X140485228Y-146000100D01*
X140485228Y-147700100D01*
X140497488Y-147824582D01*
X140533798Y-147944280D01*
X140592763Y-148054594D01*
X140672115Y-148151285D01*
X140768806Y-148230637D01*
X140879120Y-148289602D01*
X140998818Y-148325912D01*
X141123300Y-148338172D01*
X142823300Y-148338172D01*
X142947782Y-148325912D01*
X143067480Y-148289602D01*
X143177794Y-148230637D01*
X143274485Y-148151285D01*
X143353837Y-148054594D01*
X143412802Y-147944280D01*
X143449112Y-147824582D01*
X143461372Y-147700100D01*
X143461372Y-147487482D01*
X156140396Y-147487482D01*
X156180952Y-147752291D01*
X156272391Y-148004100D01*
X156329550Y-148111035D01*
X156565867Y-148173528D01*
X157325395Y-147414000D01*
X157684605Y-147414000D01*
X158444133Y-148173528D01*
X158680450Y-148111035D01*
X158793850Y-147868322D01*
X158857719Y-147608151D01*
X158863077Y-147487482D01*
X161140396Y-147487482D01*
X161180952Y-147752291D01*
X161272391Y-148004100D01*
X161329550Y-148111035D01*
X161565867Y-148173528D01*
X162325395Y-147414000D01*
X162684605Y-147414000D01*
X163444133Y-148173528D01*
X163461255Y-148169000D01*
X186964428Y-148169000D01*
X186964428Y-149519000D01*
X186976688Y-149643482D01*
X187012998Y-149763180D01*
X187071963Y-149873494D01*
X187151315Y-149970185D01*
X187248006Y-150049537D01*
X187358320Y-150108502D01*
X187478018Y-150144812D01*
X187602500Y-150157072D01*
X188952500Y-150157072D01*
X189076982Y-150144812D01*
X189196680Y-150108502D01*
X189306994Y-150049537D01*
X189403685Y-149970185D01*
X189474987Y-149883303D01*
X189656982Y-150004907D01*
X189895387Y-150103658D01*
X190148476Y-150154000D01*
X190406524Y-150154000D01*
X190659613Y-150103658D01*
X190898018Y-150004907D01*
X191112577Y-149861544D01*
X191295044Y-149679077D01*
X191438407Y-149464518D01*
X191537158Y-149226113D01*
X191587500Y-148973024D01*
X191587500Y-148714976D01*
X191537158Y-148461887D01*
X191438407Y-148223482D01*
X191295044Y-148008923D01*
X191112577Y-147826456D01*
X190898018Y-147683093D01*
X190659613Y-147584342D01*
X190406524Y-147534000D01*
X190148476Y-147534000D01*
X189895387Y-147584342D01*
X189656982Y-147683093D01*
X189474987Y-147804697D01*
X189403685Y-147717815D01*
X189306994Y-147638463D01*
X189196680Y-147579498D01*
X189076982Y-147543188D01*
X188952500Y-147530928D01*
X187602500Y-147530928D01*
X187478018Y-147543188D01*
X187358320Y-147579498D01*
X187248006Y-147638463D01*
X187151315Y-147717815D01*
X187071963Y-147814506D01*
X187012998Y-147924820D01*
X186976688Y-148044518D01*
X186964428Y-148169000D01*
X163461255Y-148169000D01*
X163680450Y-148111035D01*
X163793850Y-147868322D01*
X163857719Y-147608151D01*
X163869604Y-147340518D01*
X163829048Y-147075709D01*
X163737609Y-146823900D01*
X163680450Y-146716965D01*
X163444133Y-146654472D01*
X162684605Y-147414000D01*
X162325395Y-147414000D01*
X161565867Y-146654472D01*
X161329550Y-146716965D01*
X161216150Y-146959678D01*
X161152281Y-147219849D01*
X161140396Y-147487482D01*
X158863077Y-147487482D01*
X158869604Y-147340518D01*
X158829048Y-147075709D01*
X158737609Y-146823900D01*
X158680450Y-146716965D01*
X158444133Y-146654472D01*
X157684605Y-147414000D01*
X157325395Y-147414000D01*
X156565867Y-146654472D01*
X156329550Y-146716965D01*
X156216150Y-146959678D01*
X156152281Y-147219849D01*
X156140396Y-147487482D01*
X143461372Y-147487482D01*
X143461372Y-146453100D01*
X145503628Y-146453100D01*
X145515888Y-146577582D01*
X145552198Y-146697280D01*
X145611163Y-146807594D01*
X145690515Y-146904285D01*
X145787206Y-146983637D01*
X145897520Y-147042602D01*
X146017218Y-147078912D01*
X146141700Y-147091172D01*
X146705950Y-147088100D01*
X146864700Y-146929350D01*
X146864700Y-145580100D01*
X145665450Y-145580100D01*
X145506700Y-145738850D01*
X145503628Y-146453100D01*
X143461372Y-146453100D01*
X143461372Y-146000100D01*
X143449112Y-145875618D01*
X143412802Y-145755920D01*
X143353837Y-145645606D01*
X143274485Y-145548915D01*
X143177794Y-145469563D01*
X143067480Y-145410598D01*
X142994920Y-145388587D01*
X143126775Y-145256732D01*
X143289290Y-145013511D01*
X143401232Y-144743258D01*
X143458300Y-144456360D01*
X143458300Y-144453100D01*
X145503628Y-144453100D01*
X145506700Y-145167350D01*
X145665450Y-145326100D01*
X146864700Y-145326100D01*
X146864700Y-143976850D01*
X147118700Y-143976850D01*
X147118700Y-145326100D01*
X147138700Y-145326100D01*
X147138700Y-145580100D01*
X147118700Y-145580100D01*
X147118700Y-146929350D01*
X147277450Y-147088100D01*
X147841700Y-147091172D01*
X147966182Y-147078912D01*
X148085880Y-147042602D01*
X148196194Y-146983637D01*
X148292885Y-146904285D01*
X148372237Y-146807594D01*
X148431202Y-146697280D01*
X148441755Y-146662492D01*
X148662687Y-146843806D01*
X148920667Y-146981699D01*
X149200590Y-147066613D01*
X149491700Y-147095285D01*
X149782811Y-147066613D01*
X150062734Y-146981699D01*
X150320714Y-146843806D01*
X150546834Y-146658234D01*
X150697319Y-146474867D01*
X156745472Y-146474867D01*
X157505000Y-147234395D01*
X158264528Y-146474867D01*
X158202035Y-146238550D01*
X157959322Y-146125150D01*
X157699151Y-146061281D01*
X157431518Y-146049396D01*
X157166709Y-146089952D01*
X156914900Y-146181391D01*
X156807965Y-146238550D01*
X156745472Y-146474867D01*
X150697319Y-146474867D01*
X150732406Y-146432114D01*
X150870299Y-146174133D01*
X150955213Y-145894210D01*
X150976700Y-145676049D01*
X150976700Y-145512059D01*
X158120000Y-145512059D01*
X158120000Y-145715937D01*
X158159774Y-145915896D01*
X158237795Y-146104254D01*
X158351063Y-146273772D01*
X158495226Y-146417935D01*
X158664744Y-146531203D01*
X158853102Y-146609224D01*
X159053061Y-146648998D01*
X159256939Y-146648998D01*
X159456898Y-146609224D01*
X159645256Y-146531203D01*
X159680000Y-146507988D01*
X159714744Y-146531203D01*
X159903102Y-146609224D01*
X160103061Y-146648998D01*
X160306939Y-146648998D01*
X160506898Y-146609224D01*
X160695256Y-146531203D01*
X160779569Y-146474867D01*
X161745472Y-146474867D01*
X162505000Y-147234395D01*
X163264528Y-146474867D01*
X163202035Y-146238550D01*
X162959322Y-146125150D01*
X162699151Y-146061281D01*
X162431518Y-146049396D01*
X162166709Y-146089952D01*
X161914900Y-146181391D01*
X161807965Y-146238550D01*
X161745472Y-146474867D01*
X160779569Y-146474867D01*
X160864774Y-146417935D01*
X161008937Y-146273772D01*
X161122205Y-146104254D01*
X161200226Y-145915896D01*
X161240000Y-145715937D01*
X161240000Y-145512059D01*
X161200226Y-145312100D01*
X161122205Y-145123742D01*
X161008937Y-144954224D01*
X160864774Y-144810061D01*
X160695256Y-144696793D01*
X160640000Y-144673905D01*
X160640000Y-139751846D01*
X160658946Y-139732900D01*
X163036195Y-139732900D01*
X163072300Y-139736456D01*
X163108405Y-139732900D01*
X163216385Y-139722265D01*
X163354933Y-139680237D01*
X163482620Y-139611987D01*
X163594538Y-139520138D01*
X163617559Y-139492087D01*
X164045187Y-139064459D01*
X164073238Y-139041438D01*
X164165087Y-138929520D01*
X164233337Y-138801833D01*
X164275365Y-138663285D01*
X164289556Y-138519201D01*
X164286000Y-138483096D01*
X164286000Y-138265193D01*
X164341256Y-138242305D01*
X164510774Y-138129037D01*
X164654937Y-137984874D01*
X164768205Y-137815356D01*
X164846226Y-137626998D01*
X164886000Y-137427039D01*
X164886000Y-137223161D01*
X164846226Y-137023202D01*
X164768205Y-136834844D01*
X164654937Y-136665326D01*
X164510774Y-136521163D01*
X164341256Y-136407895D01*
X164152898Y-136329874D01*
X163952939Y-136290100D01*
X163749061Y-136290100D01*
X163549102Y-136329874D01*
X163360744Y-136407895D01*
X163326000Y-136431110D01*
X163291256Y-136407895D01*
X163102898Y-136329874D01*
X162902939Y-136290100D01*
X162699061Y-136290100D01*
X162499102Y-136329874D01*
X162310744Y-136407895D01*
X162141226Y-136521163D01*
X161997063Y-136665326D01*
X161883795Y-136834844D01*
X161805774Y-137023202D01*
X161766000Y-137223161D01*
X161766000Y-137427039D01*
X161805774Y-137626998D01*
X161882778Y-137812900D01*
X160204205Y-137812900D01*
X160168100Y-137809344D01*
X160024015Y-137823535D01*
X159885466Y-137865563D01*
X159811472Y-137905114D01*
X159757780Y-137933813D01*
X159645862Y-138025662D01*
X159622846Y-138053707D01*
X158960808Y-138715746D01*
X158932762Y-138738763D01*
X158840913Y-138850681D01*
X158772663Y-138978368D01*
X158748760Y-139057165D01*
X158730635Y-139116915D01*
X158716444Y-139261000D01*
X158720000Y-139297105D01*
X158720001Y-144673905D01*
X158664744Y-144696793D01*
X158495226Y-144810061D01*
X158351063Y-144954224D01*
X158237795Y-145123742D01*
X158159774Y-145312100D01*
X158120000Y-145512059D01*
X150976700Y-145512059D01*
X150976700Y-145230150D01*
X150955213Y-145011989D01*
X150870299Y-144732066D01*
X150732406Y-144474086D01*
X150546834Y-144247966D01*
X150320713Y-144062394D01*
X150062733Y-143924501D01*
X149782810Y-143839587D01*
X149491700Y-143810915D01*
X149200589Y-143839587D01*
X148920666Y-143924501D01*
X148662686Y-144062394D01*
X148441755Y-144243708D01*
X148431202Y-144208920D01*
X148372237Y-144098606D01*
X148292885Y-144001915D01*
X148196194Y-143922563D01*
X148085880Y-143863598D01*
X147966182Y-143827288D01*
X147841700Y-143815028D01*
X147277450Y-143818100D01*
X147118700Y-143976850D01*
X146864700Y-143976850D01*
X146705950Y-143818100D01*
X146141700Y-143815028D01*
X146017218Y-143827288D01*
X145897520Y-143863598D01*
X145787206Y-143922563D01*
X145690515Y-144001915D01*
X145611163Y-144098606D01*
X145552198Y-144208920D01*
X145515888Y-144328618D01*
X145503628Y-144453100D01*
X143458300Y-144453100D01*
X143458300Y-144163840D01*
X143401232Y-143876942D01*
X143289290Y-143606689D01*
X143126775Y-143363468D01*
X142919932Y-143156625D01*
X142676711Y-142994110D01*
X142406458Y-142882168D01*
X142119560Y-142825100D01*
X141827040Y-142825100D01*
X141540142Y-142882168D01*
X141269889Y-142994110D01*
X141026668Y-143156625D01*
X140819825Y-143363468D01*
X140657310Y-143606689D01*
X140545368Y-143876942D01*
X140488300Y-144163840D01*
X140488300Y-144456360D01*
X140545368Y-144743258D01*
X140657310Y-145013511D01*
X140819825Y-145256732D01*
X140951680Y-145388587D01*
X140879120Y-145410598D01*
X140768806Y-145469563D01*
X140672115Y-145548915D01*
X140592763Y-145645606D01*
X140533798Y-145755920D01*
X140497488Y-145875618D01*
X140485228Y-146000100D01*
X137309129Y-146000100D01*
X137378680Y-145979002D01*
X137488994Y-145920037D01*
X137585685Y-145840685D01*
X137665037Y-145743994D01*
X137724002Y-145633680D01*
X137760312Y-145513982D01*
X137772572Y-145389500D01*
X137772572Y-143789500D01*
X137760312Y-143665018D01*
X137724002Y-143545320D01*
X137665037Y-143435006D01*
X137585685Y-143338315D01*
X137488994Y-143258963D01*
X137378680Y-143199998D01*
X137258982Y-143163688D01*
X137134500Y-143151428D01*
X135534500Y-143151428D01*
X135410018Y-143163688D01*
X135290320Y-143199998D01*
X135180006Y-143258963D01*
X135083315Y-143338315D01*
X135003963Y-143435006D01*
X134944998Y-143545320D01*
X134908688Y-143665018D01*
X134896428Y-143789500D01*
X130683061Y-143789500D01*
X130743755Y-143675949D01*
X130834530Y-143376704D01*
X130865181Y-143065500D01*
X130834530Y-142754296D01*
X130743755Y-142455051D01*
X130596345Y-142179265D01*
X130397963Y-141937537D01*
X130224891Y-141795500D01*
X130397963Y-141653463D01*
X130596345Y-141411735D01*
X130743755Y-141135949D01*
X130834530Y-140836704D01*
X130865181Y-140525500D01*
X130834530Y-140214296D01*
X130743755Y-139915051D01*
X130596345Y-139639265D01*
X130397963Y-139397537D01*
X130284598Y-139304500D01*
X134896428Y-139304500D01*
X134896428Y-140904500D01*
X134908688Y-141028982D01*
X134944998Y-141148680D01*
X135003963Y-141258994D01*
X135083315Y-141355685D01*
X135180006Y-141435037D01*
X135290320Y-141494002D01*
X135410018Y-141530312D01*
X135534500Y-141542572D01*
X137134500Y-141542572D01*
X137258982Y-141530312D01*
X137378680Y-141494002D01*
X137488994Y-141435037D01*
X137585685Y-141355685D01*
X137665037Y-141258994D01*
X137724002Y-141148680D01*
X137760312Y-141028982D01*
X137772572Y-140904500D01*
X137772572Y-139493500D01*
X145514428Y-139493500D01*
X145526688Y-139617982D01*
X145562998Y-139737680D01*
X145621963Y-139847994D01*
X145701315Y-139944685D01*
X145798006Y-140024037D01*
X145908320Y-140083002D01*
X146028018Y-140119312D01*
X146152500Y-140131572D01*
X146716750Y-140128500D01*
X146875500Y-139969750D01*
X146875500Y-138620500D01*
X145676250Y-138620500D01*
X145517500Y-138779250D01*
X145514428Y-139493500D01*
X137772572Y-139493500D01*
X137772572Y-139304500D01*
X137760312Y-139180018D01*
X137724002Y-139060320D01*
X137665037Y-138950006D01*
X137585685Y-138853315D01*
X137488994Y-138773963D01*
X137378680Y-138714998D01*
X137258982Y-138678688D01*
X137134500Y-138666428D01*
X137127285Y-138666428D01*
X137147597Y-138597202D01*
X136334500Y-137784105D01*
X135521403Y-138597202D01*
X135541715Y-138666428D01*
X135534500Y-138666428D01*
X135410018Y-138678688D01*
X135290320Y-138714998D01*
X135180006Y-138773963D01*
X135083315Y-138853315D01*
X135003963Y-138950006D01*
X134944998Y-139060320D01*
X134908688Y-139180018D01*
X134896428Y-139304500D01*
X130284598Y-139304500D01*
X130156235Y-139199155D01*
X129880449Y-139051745D01*
X129581204Y-138960970D01*
X129347986Y-138938000D01*
X129097014Y-138938000D01*
X128863796Y-138960970D01*
X128564551Y-139051745D01*
X128288765Y-139199155D01*
X128047037Y-139397537D01*
X127848655Y-139639265D01*
X127701245Y-139915051D01*
X127610470Y-140214296D01*
X127579819Y-140525500D01*
X126682500Y-140525500D01*
X126682500Y-137675012D01*
X134894283Y-137675012D01*
X134935713Y-137954630D01*
X135030897Y-138220792D01*
X135097829Y-138346014D01*
X135341798Y-138417597D01*
X136154895Y-137604500D01*
X136514105Y-137604500D01*
X137327202Y-138417597D01*
X137571171Y-138346014D01*
X137692071Y-138090504D01*
X137760800Y-137816316D01*
X137774717Y-137533988D01*
X137768719Y-137493500D01*
X145514428Y-137493500D01*
X145517500Y-138207750D01*
X145676250Y-138366500D01*
X146875500Y-138366500D01*
X146875500Y-137017250D01*
X147129500Y-137017250D01*
X147129500Y-138366500D01*
X147149500Y-138366500D01*
X147149500Y-138620500D01*
X147129500Y-138620500D01*
X147129500Y-139969750D01*
X147288250Y-140128500D01*
X147852500Y-140131572D01*
X147976982Y-140119312D01*
X148096680Y-140083002D01*
X148206994Y-140024037D01*
X148303685Y-139944685D01*
X148383037Y-139847994D01*
X148442002Y-139737680D01*
X148452555Y-139702892D01*
X148673487Y-139884206D01*
X148931467Y-140022099D01*
X149211390Y-140107013D01*
X149354212Y-140121080D01*
X149875563Y-140642432D01*
X149901709Y-140674291D01*
X149933568Y-140700437D01*
X149933570Y-140700439D01*
X150028854Y-140778636D01*
X150173913Y-140856172D01*
X150331311Y-140903918D01*
X150495000Y-140920040D01*
X150536018Y-140916000D01*
X152485215Y-140916000D01*
X152608244Y-140998205D01*
X152796602Y-141076226D01*
X152996561Y-141116000D01*
X153200439Y-141116000D01*
X153400398Y-141076226D01*
X153588756Y-140998205D01*
X153758274Y-140884937D01*
X153902437Y-140740774D01*
X154015705Y-140571256D01*
X154093726Y-140382898D01*
X154133500Y-140182939D01*
X154133500Y-139979061D01*
X154093726Y-139779102D01*
X154015705Y-139590744D01*
X153902437Y-139421226D01*
X153758274Y-139277063D01*
X153588756Y-139163795D01*
X153400398Y-139085774D01*
X153200439Y-139046000D01*
X152996561Y-139046000D01*
X152796602Y-139085774D01*
X152608244Y-139163795D01*
X152485215Y-139246000D01*
X150864280Y-139246000D01*
X150881099Y-139214533D01*
X150966013Y-138934610D01*
X150987500Y-138716449D01*
X150987500Y-138270550D01*
X150966013Y-138052389D01*
X150881099Y-137772466D01*
X150743206Y-137514486D01*
X150557634Y-137288366D01*
X150331513Y-137102794D01*
X150073533Y-136964901D01*
X149793610Y-136879987D01*
X149502500Y-136851315D01*
X149211389Y-136879987D01*
X148931466Y-136964901D01*
X148673486Y-137102794D01*
X148452555Y-137284108D01*
X148442002Y-137249320D01*
X148383037Y-137139006D01*
X148303685Y-137042315D01*
X148206994Y-136962963D01*
X148096680Y-136903998D01*
X147976982Y-136867688D01*
X147852500Y-136855428D01*
X147288250Y-136858500D01*
X147129500Y-137017250D01*
X146875500Y-137017250D01*
X146716750Y-136858500D01*
X146152500Y-136855428D01*
X146028018Y-136867688D01*
X145908320Y-136903998D01*
X145798006Y-136962963D01*
X145701315Y-137042315D01*
X145621963Y-137139006D01*
X145562998Y-137249320D01*
X145526688Y-137369018D01*
X145514428Y-137493500D01*
X137768719Y-137493500D01*
X137733287Y-137254370D01*
X137638103Y-136988208D01*
X137571171Y-136862986D01*
X137327202Y-136791403D01*
X136514105Y-137604500D01*
X136154895Y-137604500D01*
X135341798Y-136791403D01*
X135097829Y-136862986D01*
X134976929Y-137118496D01*
X134908200Y-137392684D01*
X134894283Y-137675012D01*
X126682500Y-137675012D01*
X126682500Y-136611798D01*
X135521403Y-136611798D01*
X136334500Y-137424895D01*
X137147597Y-136611798D01*
X137076014Y-136367829D01*
X136820504Y-136246929D01*
X136546316Y-136178200D01*
X136263988Y-136164283D01*
X135984370Y-136205713D01*
X135718208Y-136300897D01*
X135592986Y-136367829D01*
X135521403Y-136611798D01*
X126682500Y-136611798D01*
X126682500Y-134810096D01*
X146494904Y-134746999D01*
X146519673Y-134744480D01*
X146543474Y-134737177D01*
X146565393Y-134725371D01*
X146584588Y-134709516D01*
X146600321Y-134690221D01*
X146611987Y-134668227D01*
X146619138Y-134644380D01*
X146621491Y-134621494D01*
X146658861Y-131445000D01*
X150688009Y-131445000D01*
X150709923Y-131667498D01*
X150774824Y-131881446D01*
X150880217Y-132078622D01*
X150986512Y-132208143D01*
X151070505Y-132292136D01*
X151106052Y-132335450D01*
X151278878Y-132477285D01*
X151476054Y-132582677D01*
X151690002Y-132647578D01*
X151856749Y-132664001D01*
X151856759Y-132664001D01*
X151912500Y-132669491D01*
X151968242Y-132664001D01*
X163286312Y-132664001D01*
X163177715Y-132736563D01*
X163033552Y-132880726D01*
X162920284Y-133050244D01*
X162842263Y-133238602D01*
X162802489Y-133438561D01*
X162802489Y-133642439D01*
X162842263Y-133842398D01*
X162920284Y-134030756D01*
X163033552Y-134200274D01*
X163177715Y-134344437D01*
X163347233Y-134457705D01*
X163535591Y-134535726D01*
X163735550Y-134575500D01*
X163939428Y-134575500D01*
X164139387Y-134535726D01*
X164327745Y-134457705D01*
X164497263Y-134344437D01*
X164541200Y-134300500D01*
X165158289Y-134300500D01*
X165202226Y-134344437D01*
X165371744Y-134457705D01*
X165560102Y-134535726D01*
X165760061Y-134575500D01*
X165963939Y-134575500D01*
X166163898Y-134535726D01*
X166352256Y-134457705D01*
X166521774Y-134344437D01*
X166665937Y-134200274D01*
X166779205Y-134030756D01*
X166857226Y-133842398D01*
X166897000Y-133642439D01*
X166897000Y-133438561D01*
X166857226Y-133238602D01*
X166779205Y-133050244D01*
X166665937Y-132880726D01*
X166521774Y-132736563D01*
X166413177Y-132664001D01*
X173282001Y-132664001D01*
X173282000Y-134768715D01*
X173199795Y-134891744D01*
X173121774Y-135080102D01*
X173082000Y-135280061D01*
X173082000Y-135483939D01*
X173121774Y-135683898D01*
X173199795Y-135872256D01*
X173313063Y-136041774D01*
X173457226Y-136185937D01*
X173626744Y-136299205D01*
X173815102Y-136377226D01*
X174015061Y-136417000D01*
X174218939Y-136417000D01*
X174418898Y-136377226D01*
X174607256Y-136299205D01*
X174776774Y-136185937D01*
X174920937Y-136041774D01*
X175034205Y-135872256D01*
X175112226Y-135683898D01*
X175152000Y-135483939D01*
X175152000Y-135280061D01*
X175112226Y-135080102D01*
X175034205Y-134891744D01*
X174952000Y-134768715D01*
X174952000Y-132072000D01*
X191037898Y-132072000D01*
X191119125Y-132080000D01*
X193055875Y-132080000D01*
X193179757Y-132067799D01*
X193298879Y-132031664D01*
X193408662Y-131972983D01*
X193504888Y-131894013D01*
X193583858Y-131797787D01*
X193642539Y-131688004D01*
X193678674Y-131568882D01*
X193690875Y-131445000D01*
X193690875Y-130429000D01*
X193678674Y-130305118D01*
X193642539Y-130185996D01*
X193583858Y-130076213D01*
X193504888Y-129979987D01*
X193408662Y-129901017D01*
X193298879Y-129842336D01*
X193179757Y-129806201D01*
X193055875Y-129794000D01*
X191119125Y-129794000D01*
X191037898Y-129802000D01*
X174031254Y-129802000D01*
X173975502Y-129796509D01*
X173919750Y-129802000D01*
X173753003Y-129818423D01*
X173539055Y-129883324D01*
X173341879Y-129988716D01*
X173169053Y-130130551D01*
X173133506Y-130173865D01*
X172913370Y-130394001D01*
X152269954Y-130394001D01*
X152264946Y-130391324D01*
X152050998Y-130326423D01*
X151828500Y-130304509D01*
X151606002Y-130326423D01*
X151392054Y-130391324D01*
X151194878Y-130496717D01*
X151022052Y-130638552D01*
X150880217Y-130811378D01*
X150774824Y-131008554D01*
X150709923Y-131222502D01*
X150688009Y-131445000D01*
X146658861Y-131445000D01*
X146715261Y-126651013D01*
X177005985Y-126714250D01*
X177030766Y-126711861D01*
X177054606Y-126704684D01*
X177076587Y-126692994D01*
X177095865Y-126677240D01*
X177111699Y-126658028D01*
X177123481Y-126636096D01*
X177130758Y-126612286D01*
X177133244Y-126586033D01*
X177113701Y-124547000D01*
X179598428Y-124547000D01*
X179598428Y-125897000D01*
X179610688Y-126021482D01*
X179646998Y-126141180D01*
X179705963Y-126251494D01*
X179785315Y-126348185D01*
X179882006Y-126427537D01*
X179992320Y-126486502D01*
X180112018Y-126522812D01*
X180236500Y-126535072D01*
X181586500Y-126535072D01*
X181710982Y-126522812D01*
X181830680Y-126486502D01*
X181940994Y-126427537D01*
X182037685Y-126348185D01*
X182108987Y-126261303D01*
X182290982Y-126382907D01*
X182529387Y-126481658D01*
X182782476Y-126532000D01*
X183040524Y-126532000D01*
X183293613Y-126481658D01*
X183532018Y-126382907D01*
X183746577Y-126239544D01*
X183911500Y-126074621D01*
X184076423Y-126239544D01*
X184290982Y-126382907D01*
X184529387Y-126481658D01*
X184782476Y-126532000D01*
X185040524Y-126532000D01*
X185293613Y-126481658D01*
X185532018Y-126382907D01*
X185746577Y-126239544D01*
X185911500Y-126074621D01*
X186076423Y-126239544D01*
X186290982Y-126382907D01*
X186529387Y-126481658D01*
X186782476Y-126532000D01*
X187040524Y-126532000D01*
X187293613Y-126481658D01*
X187532018Y-126382907D01*
X187746577Y-126239544D01*
X187929044Y-126057077D01*
X188072407Y-125842518D01*
X188171158Y-125604113D01*
X188221500Y-125351024D01*
X188221500Y-125092976D01*
X188171158Y-124839887D01*
X188072407Y-124601482D01*
X187929044Y-124386923D01*
X187746577Y-124204456D01*
X187532018Y-124061093D01*
X187293613Y-123962342D01*
X187040524Y-123912000D01*
X186782476Y-123912000D01*
X186529387Y-123962342D01*
X186290982Y-124061093D01*
X186076423Y-124204456D01*
X185911500Y-124369379D01*
X185746577Y-124204456D01*
X185532018Y-124061093D01*
X185293613Y-123962342D01*
X185040524Y-123912000D01*
X184782476Y-123912000D01*
X184529387Y-123962342D01*
X184290982Y-124061093D01*
X184076423Y-124204456D01*
X183911500Y-124369379D01*
X183746577Y-124204456D01*
X183532018Y-124061093D01*
X183293613Y-123962342D01*
X183040524Y-123912000D01*
X182782476Y-123912000D01*
X182529387Y-123962342D01*
X182290982Y-124061093D01*
X182108987Y-124182697D01*
X182037685Y-124095815D01*
X181940994Y-124016463D01*
X181830680Y-123957498D01*
X181710982Y-123921188D01*
X181586500Y-123908928D01*
X180236500Y-123908928D01*
X180112018Y-123921188D01*
X179992320Y-123957498D01*
X179882006Y-124016463D01*
X179785315Y-124095815D01*
X179705963Y-124192506D01*
X179646998Y-124302820D01*
X179610688Y-124422518D01*
X179598428Y-124547000D01*
X177113701Y-124547000D01*
X177058699Y-118808500D01*
X177063500Y-118808500D01*
X177063500Y-119208500D01*
X177115850Y-119486014D01*
X177221334Y-119747983D01*
X177375899Y-119984339D01*
X177573605Y-120186000D01*
X177806854Y-120345215D01*
X178066682Y-120455867D01*
X178149461Y-120473404D01*
X178371500Y-120351415D01*
X178371500Y-118808500D01*
X177063500Y-118808500D01*
X177058699Y-118808500D01*
X177052431Y-118154500D01*
X177063500Y-118154500D01*
X177063500Y-118554500D01*
X178371500Y-118554500D01*
X178371500Y-117011585D01*
X178625500Y-117011585D01*
X178625500Y-118554500D01*
X178645500Y-118554500D01*
X178645500Y-118808500D01*
X178625500Y-118808500D01*
X178625500Y-120351415D01*
X178847539Y-120473404D01*
X178930318Y-120455867D01*
X179190146Y-120345215D01*
X179423395Y-120186000D01*
X179621101Y-119984339D01*
X179771235Y-119754758D01*
X179839568Y-119882600D01*
X180018892Y-120101107D01*
X180237399Y-120280432D01*
X180486692Y-120413682D01*
X180757191Y-120495736D01*
X181038500Y-120523443D01*
X181319808Y-120495736D01*
X181590307Y-120413682D01*
X181839600Y-120280432D01*
X182058107Y-120101108D01*
X182237432Y-119882601D01*
X182308500Y-119749642D01*
X182379568Y-119882600D01*
X182558892Y-120101107D01*
X182777399Y-120280432D01*
X183026692Y-120413682D01*
X183297191Y-120495736D01*
X183578500Y-120523443D01*
X183859808Y-120495736D01*
X184130307Y-120413682D01*
X184379600Y-120280432D01*
X184598107Y-120101108D01*
X184777432Y-119882601D01*
X184845765Y-119754759D01*
X184995899Y-119984339D01*
X185193605Y-120186000D01*
X185426854Y-120345215D01*
X185686682Y-120455867D01*
X185769461Y-120473404D01*
X185991500Y-120351415D01*
X185991500Y-118808500D01*
X186245500Y-118808500D01*
X186245500Y-120351415D01*
X186467539Y-120473404D01*
X186550318Y-120455867D01*
X186810146Y-120345215D01*
X187043395Y-120186000D01*
X187241101Y-119984339D01*
X187395666Y-119747983D01*
X187501150Y-119486014D01*
X187553500Y-119208500D01*
X187553500Y-118808500D01*
X188239500Y-118808500D01*
X188239500Y-119208500D01*
X188291850Y-119486014D01*
X188397334Y-119747983D01*
X188551899Y-119984339D01*
X188749605Y-120186000D01*
X188982854Y-120345215D01*
X189242682Y-120455867D01*
X189325461Y-120473404D01*
X189547500Y-120351415D01*
X189547500Y-118808500D01*
X188239500Y-118808500D01*
X187553500Y-118808500D01*
X186245500Y-118808500D01*
X185991500Y-118808500D01*
X185971500Y-118808500D01*
X185971500Y-118554500D01*
X185991500Y-118554500D01*
X185991500Y-117011585D01*
X186245500Y-117011585D01*
X186245500Y-118554500D01*
X187553500Y-118554500D01*
X187553500Y-118154500D01*
X188239500Y-118154500D01*
X188239500Y-118554500D01*
X189547500Y-118554500D01*
X189547500Y-117011585D01*
X189801500Y-117011585D01*
X189801500Y-118554500D01*
X189821500Y-118554500D01*
X189821500Y-118808500D01*
X189801500Y-118808500D01*
X189801500Y-120351415D01*
X190023539Y-120473404D01*
X190106318Y-120455867D01*
X190366146Y-120345215D01*
X190599395Y-120186000D01*
X190797101Y-119984339D01*
X190947235Y-119754758D01*
X191015568Y-119882600D01*
X191194892Y-120101107D01*
X191413399Y-120280432D01*
X191662692Y-120413682D01*
X191933191Y-120495736D01*
X192214500Y-120523443D01*
X192495808Y-120495736D01*
X192766307Y-120413682D01*
X193015600Y-120280432D01*
X193234107Y-120101108D01*
X193413432Y-119882601D01*
X193484500Y-119749642D01*
X193555568Y-119882600D01*
X193734892Y-120101107D01*
X193953399Y-120280432D01*
X194202692Y-120413682D01*
X194473191Y-120495736D01*
X194754500Y-120523443D01*
X195035808Y-120495736D01*
X195306307Y-120413682D01*
X195555600Y-120280432D01*
X195774107Y-120101108D01*
X195953432Y-119882601D01*
X196021765Y-119754759D01*
X196171899Y-119984339D01*
X196369605Y-120186000D01*
X196602854Y-120345215D01*
X196862682Y-120455867D01*
X196945461Y-120473404D01*
X197167500Y-120351415D01*
X197167500Y-118808500D01*
X197421500Y-118808500D01*
X197421500Y-120351415D01*
X197643539Y-120473404D01*
X197726318Y-120455867D01*
X197986146Y-120345215D01*
X198219395Y-120186000D01*
X198417101Y-119984339D01*
X198571666Y-119747983D01*
X198677150Y-119486014D01*
X198729500Y-119208500D01*
X198729500Y-118808500D01*
X197421500Y-118808500D01*
X197167500Y-118808500D01*
X197147500Y-118808500D01*
X197147500Y-118554500D01*
X197167500Y-118554500D01*
X197167500Y-117011585D01*
X197421500Y-117011585D01*
X197421500Y-118554500D01*
X198729500Y-118554500D01*
X198729500Y-118154500D01*
X198677150Y-117876986D01*
X198571666Y-117615017D01*
X198417101Y-117378661D01*
X198219395Y-117177000D01*
X197986146Y-117017785D01*
X197726318Y-116907133D01*
X197643539Y-116889596D01*
X197421500Y-117011585D01*
X197167500Y-117011585D01*
X196945461Y-116889596D01*
X196862682Y-116907133D01*
X196602854Y-117017785D01*
X196369605Y-117177000D01*
X196171899Y-117378661D01*
X196021765Y-117608241D01*
X195953432Y-117480399D01*
X195774108Y-117261892D01*
X195555601Y-117082568D01*
X195306308Y-116949318D01*
X195035809Y-116867264D01*
X194754500Y-116839557D01*
X194473192Y-116867264D01*
X194202693Y-116949318D01*
X193953400Y-117082568D01*
X193734893Y-117261892D01*
X193555568Y-117480399D01*
X193484500Y-117613358D01*
X193413432Y-117480399D01*
X193234108Y-117261892D01*
X193015601Y-117082568D01*
X192766308Y-116949318D01*
X192495809Y-116867264D01*
X192214500Y-116839557D01*
X191933192Y-116867264D01*
X191662693Y-116949318D01*
X191413400Y-117082568D01*
X191194893Y-117261892D01*
X191015568Y-117480399D01*
X190947235Y-117608241D01*
X190797101Y-117378661D01*
X190599395Y-117177000D01*
X190366146Y-117017785D01*
X190106318Y-116907133D01*
X190023539Y-116889596D01*
X189801500Y-117011585D01*
X189547500Y-117011585D01*
X189325461Y-116889596D01*
X189242682Y-116907133D01*
X188982854Y-117017785D01*
X188749605Y-117177000D01*
X188551899Y-117378661D01*
X188397334Y-117615017D01*
X188291850Y-117876986D01*
X188239500Y-118154500D01*
X187553500Y-118154500D01*
X187501150Y-117876986D01*
X187395666Y-117615017D01*
X187241101Y-117378661D01*
X187043395Y-117177000D01*
X186810146Y-117017785D01*
X186550318Y-116907133D01*
X186467539Y-116889596D01*
X186245500Y-117011585D01*
X185991500Y-117011585D01*
X185769461Y-116889596D01*
X185686682Y-116907133D01*
X185426854Y-117017785D01*
X185193605Y-117177000D01*
X184995899Y-117378661D01*
X184845765Y-117608241D01*
X184777432Y-117480399D01*
X184598108Y-117261892D01*
X184379601Y-117082568D01*
X184130308Y-116949318D01*
X183859809Y-116867264D01*
X183578500Y-116839557D01*
X183297192Y-116867264D01*
X183026693Y-116949318D01*
X182777400Y-117082568D01*
X182558893Y-117261892D01*
X182379568Y-117480399D01*
X182308500Y-117613358D01*
X182237432Y-117480399D01*
X182058108Y-117261892D01*
X181839601Y-117082568D01*
X181590308Y-116949318D01*
X181319809Y-116867264D01*
X181038500Y-116839557D01*
X180757192Y-116867264D01*
X180486693Y-116949318D01*
X180237400Y-117082568D01*
X180018893Y-117261892D01*
X179839568Y-117480399D01*
X179771235Y-117608241D01*
X179621101Y-117378661D01*
X179423395Y-117177000D01*
X179190146Y-117017785D01*
X178930318Y-116907133D01*
X178847539Y-116889596D01*
X178625500Y-117011585D01*
X178371500Y-117011585D01*
X178149461Y-116889596D01*
X178066682Y-116907133D01*
X177806854Y-117017785D01*
X177573605Y-117177000D01*
X177375899Y-117378661D01*
X177221334Y-117615017D01*
X177115850Y-117876986D01*
X177063500Y-118154500D01*
X177052431Y-118154500D01*
X177039219Y-116776135D01*
X199072500Y-116713362D01*
X199072500Y-122999500D01*
G37*
G04 #@! TD.AperFunction*
D40*
X192928875Y-131318000D02*
X191246125Y-131318000D01*
X191246125Y-130556000D01*
X192928875Y-130556000D01*
X192928875Y-131318000D01*
G04 #@! TA.AperFunction,Conductor*
D41*
G36*
X192928875Y-131318000D02*
G01*
X191246125Y-131318000D01*
X191246125Y-130556000D01*
X192928875Y-130556000D01*
X192928875Y-131318000D01*
G37*
G04 #@! TD.AperFunction*
D40*
X177480849Y-86496244D02*
X177837367Y-86292138D01*
X178068075Y-85849277D01*
X178189574Y-85432900D01*
X195179500Y-85432900D01*
X195179500Y-85740893D01*
X195309583Y-86394868D01*
X195564752Y-87010899D01*
X195935198Y-87565312D01*
X196406688Y-88036802D01*
X196961101Y-88407248D01*
X197577132Y-88662417D01*
X198231107Y-88792500D01*
X198897893Y-88792500D01*
X199551868Y-88662417D01*
X199707500Y-88597952D01*
X199707500Y-94378073D01*
X199543801Y-94378073D01*
X199240398Y-94438423D01*
X198954599Y-94556805D01*
X198697386Y-94728669D01*
X198478644Y-94947411D01*
X198306780Y-95204624D01*
X198188398Y-95490423D01*
X198128048Y-95793826D01*
X198128048Y-96103174D01*
X198188398Y-96406577D01*
X198306780Y-96692376D01*
X198478644Y-96949589D01*
X198697386Y-97168331D01*
X198954599Y-97340195D01*
X199240398Y-97458577D01*
X199543801Y-97518927D01*
X199707500Y-97518927D01*
X199707500Y-100804026D01*
X199644517Y-100785648D01*
X199147079Y-100741977D01*
X198650678Y-100796191D01*
X198174393Y-100946206D01*
X197781462Y-101156233D01*
X197577356Y-101512751D01*
X199174100Y-103109495D01*
X199188243Y-103095353D01*
X199367848Y-103274958D01*
X199353705Y-103289100D01*
X199367848Y-103303243D01*
X199188243Y-103482848D01*
X199174100Y-103468705D01*
X199159958Y-103482848D01*
X198980353Y-103303243D01*
X198994495Y-103289100D01*
X197397751Y-101692356D01*
X197041233Y-101896462D01*
X196810525Y-102339323D01*
X196670648Y-102818683D01*
X196626977Y-103316121D01*
X196681191Y-103812522D01*
X196716335Y-103924100D01*
X176225459Y-103924100D01*
X176229007Y-102178658D01*
X176288899Y-102104167D01*
X176321659Y-102054104D01*
X176355104Y-102004520D01*
X176359430Y-101996383D01*
X176531679Y-101666902D01*
X176554081Y-101611456D01*
X176577269Y-101556293D01*
X176579932Y-101547471D01*
X176684904Y-101190806D01*
X176696108Y-101132075D01*
X176708142Y-101073451D01*
X176709041Y-101064280D01*
X176742738Y-100694020D01*
X176742320Y-100634202D01*
X176742738Y-100574383D01*
X176741838Y-100565212D01*
X176702975Y-100195458D01*
X176690949Y-100136871D01*
X176679738Y-100078101D01*
X176677074Y-100069279D01*
X176567133Y-99714115D01*
X176543949Y-99658964D01*
X176521544Y-99603508D01*
X176517217Y-99595372D01*
X176340385Y-99268327D01*
X176306969Y-99218785D01*
X176274180Y-99168678D01*
X176268355Y-99161537D01*
X176235220Y-99121484D01*
X176247242Y-93206867D01*
X176310653Y-92991416D01*
X176321861Y-92932662D01*
X176333891Y-92874058D01*
X176334790Y-92864886D01*
X176361747Y-92568679D01*
X176361329Y-92508861D01*
X176361747Y-92449044D01*
X176360847Y-92439872D01*
X176329758Y-92144069D01*
X176317729Y-92085472D01*
X176306520Y-92026710D01*
X176303856Y-92017888D01*
X176250012Y-91843947D01*
X176259079Y-87382595D01*
X176704207Y-87242394D01*
X177097138Y-87032367D01*
X177301244Y-86675849D01*
X176262627Y-85637232D01*
X176263042Y-85432900D01*
X176417505Y-85432900D01*
X177480849Y-86496244D01*
G04 #@! TA.AperFunction,Conductor*
D41*
G36*
X177480849Y-86496244D02*
G01*
X177837367Y-86292138D01*
X178068075Y-85849277D01*
X178189574Y-85432900D01*
X195179500Y-85432900D01*
X195179500Y-85740893D01*
X195309583Y-86394868D01*
X195564752Y-87010899D01*
X195935198Y-87565312D01*
X196406688Y-88036802D01*
X196961101Y-88407248D01*
X197577132Y-88662417D01*
X198231107Y-88792500D01*
X198897893Y-88792500D01*
X199551868Y-88662417D01*
X199707500Y-88597952D01*
X199707500Y-94378073D01*
X199543801Y-94378073D01*
X199240398Y-94438423D01*
X198954599Y-94556805D01*
X198697386Y-94728669D01*
X198478644Y-94947411D01*
X198306780Y-95204624D01*
X198188398Y-95490423D01*
X198128048Y-95793826D01*
X198128048Y-96103174D01*
X198188398Y-96406577D01*
X198306780Y-96692376D01*
X198478644Y-96949589D01*
X198697386Y-97168331D01*
X198954599Y-97340195D01*
X199240398Y-97458577D01*
X199543801Y-97518927D01*
X199707500Y-97518927D01*
X199707500Y-100804026D01*
X199644517Y-100785648D01*
X199147079Y-100741977D01*
X198650678Y-100796191D01*
X198174393Y-100946206D01*
X197781462Y-101156233D01*
X197577356Y-101512751D01*
X199174100Y-103109495D01*
X199188243Y-103095353D01*
X199367848Y-103274958D01*
X199353705Y-103289100D01*
X199367848Y-103303243D01*
X199188243Y-103482848D01*
X199174100Y-103468705D01*
X199159958Y-103482848D01*
X198980353Y-103303243D01*
X198994495Y-103289100D01*
X197397751Y-101692356D01*
X197041233Y-101896462D01*
X196810525Y-102339323D01*
X196670648Y-102818683D01*
X196626977Y-103316121D01*
X196681191Y-103812522D01*
X196716335Y-103924100D01*
X176225459Y-103924100D01*
X176229007Y-102178658D01*
X176288899Y-102104167D01*
X176321659Y-102054104D01*
X176355104Y-102004520D01*
X176359430Y-101996383D01*
X176531679Y-101666902D01*
X176554081Y-101611456D01*
X176577269Y-101556293D01*
X176579932Y-101547471D01*
X176684904Y-101190806D01*
X176696108Y-101132075D01*
X176708142Y-101073451D01*
X176709041Y-101064280D01*
X176742738Y-100694020D01*
X176742320Y-100634202D01*
X176742738Y-100574383D01*
X176741838Y-100565212D01*
X176702975Y-100195458D01*
X176690949Y-100136871D01*
X176679738Y-100078101D01*
X176677074Y-100069279D01*
X176567133Y-99714115D01*
X176543949Y-99658964D01*
X176521544Y-99603508D01*
X176517217Y-99595372D01*
X176340385Y-99268327D01*
X176306969Y-99218785D01*
X176274180Y-99168678D01*
X176268355Y-99161537D01*
X176235220Y-99121484D01*
X176247242Y-93206867D01*
X176310653Y-92991416D01*
X176321861Y-92932662D01*
X176333891Y-92874058D01*
X176334790Y-92864886D01*
X176361747Y-92568679D01*
X176361329Y-92508861D01*
X176361747Y-92449044D01*
X176360847Y-92439872D01*
X176329758Y-92144069D01*
X176317729Y-92085472D01*
X176306520Y-92026710D01*
X176303856Y-92017888D01*
X176250012Y-91843947D01*
X176259079Y-87382595D01*
X176704207Y-87242394D01*
X177097138Y-87032367D01*
X177301244Y-86675849D01*
X176262627Y-85637232D01*
X176263042Y-85432900D01*
X176417505Y-85432900D01*
X177480849Y-86496244D01*
G37*
G04 #@! TD.AperFunction*
M02*
