G04 #@! TF.GenerationSoftware,KiCad,Pcbnew,(6.0.0)*
G04 #@! TF.CreationDate,2022-02-02T02:52:29+01:00*
G04 #@! TF.ProjectId,hamodule,68616d6f-6475-46c6-952e-6b696361645f,rev?*
G04 #@! TF.SameCoordinates,Original*
G04 #@! TF.FileFunction,Soldermask,Top*
G04 #@! TF.FilePolarity,Negative*
%FSLAX46Y46*%
G04 Gerber Fmt 4.6, Leading zero omitted, Abs format (unit mm)*
G04 Created by KiCad (PCBNEW (6.0.0)) date 2022-02-02 02:52:29*
%MOMM*%
%LPD*%
G01*
G04 APERTURE LIST*
G04 Aperture macros list*
%AMRoundRect*
0 Rectangle with rounded corners*
0 $1 Rounding radius*
0 $2 $3 $4 $5 $6 $7 $8 $9 X,Y pos of 4 corners*
0 Add a 4 corners polygon primitive as box body*
4,1,4,$2,$3,$4,$5,$6,$7,$8,$9,$2,$3,0*
0 Add four circle primitives for the rounded corners*
1,1,$1+$1,$2,$3*
1,1,$1+$1,$4,$5*
1,1,$1+$1,$6,$7*
1,1,$1+$1,$8,$9*
0 Add four rect primitives between the rounded corners*
20,1,$1+$1,$2,$3,$4,$5,0*
20,1,$1+$1,$4,$5,$6,$7,0*
20,1,$1+$1,$6,$7,$8,$9,0*
20,1,$1+$1,$8,$9,$2,$3,0*%
G04 Aperture macros list end*
%ADD10RoundRect,0.287500X-0.237500X0.250000X-0.237500X-0.250000X0.237500X-0.250000X0.237500X0.250000X0*%
%ADD11RoundRect,0.287500X-0.250000X-0.237500X0.250000X-0.237500X0.250000X0.237500X-0.250000X0.237500X0*%
%ADD12RoundRect,0.287500X0.250000X0.237500X-0.250000X0.237500X-0.250000X-0.237500X0.250000X-0.237500X0*%
%ADD13RoundRect,0.300000X0.400000X0.625000X-0.400000X0.625000X-0.400000X-0.625000X0.400000X-0.625000X0*%
%ADD14RoundRect,0.050000X0.850000X0.850000X-0.850000X0.850000X-0.850000X-0.850000X0.850000X-0.850000X0*%
%ADD15O,1.800000X1.800000*%
%ADD16RoundRect,0.300000X-0.412500X-0.650000X0.412500X-0.650000X0.412500X0.650000X-0.412500X0.650000X0*%
%ADD17RoundRect,0.299999X-1.425001X0.450001X-1.425001X-0.450001X1.425001X-0.450001X1.425001X0.450001X0*%
%ADD18C,1.900000*%
%ADD19RoundRect,0.300000X0.450000X-0.325000X0.450000X0.325000X-0.450000X0.325000X-0.450000X-0.325000X0*%
%ADD20RoundRect,0.300000X0.450000X-0.350000X0.450000X0.350000X-0.450000X0.350000X-0.450000X-0.350000X0*%
%ADD21RoundRect,0.300000X-0.600000X-0.750000X0.600000X-0.750000X0.600000X0.750000X-0.600000X0.750000X0*%
%ADD22O,1.800000X2.100000*%
%ADD23RoundRect,0.287500X-0.237500X0.300000X-0.237500X-0.300000X0.237500X-0.300000X0.237500X0.300000X0*%
%ADD24RoundRect,0.287500X0.237500X-0.300000X0.237500X0.300000X-0.237500X0.300000X-0.237500X-0.300000X0*%
%ADD25RoundRect,0.300000X-0.600000X-0.725000X0.600000X-0.725000X0.600000X0.725000X-0.600000X0.725000X0*%
%ADD26O,1.800000X2.050000*%
%ADD27RoundRect,0.050000X1.000000X-0.952500X1.000000X0.952500X-1.000000X0.952500X-1.000000X-0.952500X0*%
%ADD28O,2.100000X2.005000*%
%ADD29RoundRect,0.050000X-0.800000X0.800000X-0.800000X-0.800000X0.800000X-0.800000X0.800000X0.800000X0*%
%ADD30C,1.700000*%
%ADD31RoundRect,0.050000X0.800000X-0.800000X0.800000X0.800000X-0.800000X0.800000X-0.800000X-0.800000X0*%
%ADD32RoundRect,0.050000X0.850000X-0.850000X0.850000X0.850000X-0.850000X0.850000X-0.850000X-0.850000X0*%
%ADD33O,2.050000X1.800000*%
%ADD34C,2.100000*%
%ADD35RoundRect,0.675000X0.625000X0.625000X-0.625000X0.625000X-0.625000X-0.625000X0.625000X-0.625000X0*%
%ADD36C,5.600000*%
%ADD37RoundRect,0.200000X0.150000X-0.825000X0.150000X0.825000X-0.150000X0.825000X-0.150000X-0.825000X0*%
%ADD38RoundRect,0.287500X-0.300000X-0.237500X0.300000X-0.237500X0.300000X0.237500X-0.300000X0.237500X0*%
%ADD39RoundRect,0.287500X0.300000X0.237500X-0.300000X0.237500X-0.300000X-0.237500X0.300000X-0.237500X0*%
%ADD40RoundRect,0.300000X0.412500X0.650000X-0.412500X0.650000X-0.412500X-0.650000X0.412500X-0.650000X0*%
%ADD41RoundRect,0.050000X-0.800000X1.200000X-0.800000X-1.200000X0.800000X-1.200000X0.800000X1.200000X0*%
%ADD42O,1.700000X2.500000*%
%ADD43RoundRect,0.200000X-0.150000X0.587500X-0.150000X-0.587500X0.150000X-0.587500X0.150000X0.587500X0*%
%ADD44RoundRect,0.050000X-0.300000X-0.350000X0.300000X-0.350000X0.300000X0.350000X-0.300000X0.350000X0*%
%ADD45RoundRect,0.050000X0.550000X-0.900000X0.550000X0.900000X-0.550000X0.900000X-0.550000X-0.900000X0*%
%ADD46RoundRect,0.050000X-0.550000X0.900000X-0.550000X-0.900000X0.550000X-0.900000X0.550000X0.900000X0*%
%ADD47RoundRect,0.050000X-0.225000X0.300000X-0.225000X-0.300000X0.225000X-0.300000X0.225000X0.300000X0*%
%ADD48RoundRect,0.050000X0.300000X0.350000X-0.300000X0.350000X-0.300000X-0.350000X0.300000X-0.350000X0*%
%ADD49RoundRect,0.050000X-2.500000X2.500000X-2.500000X-2.500000X2.500000X-2.500000X2.500000X2.500000X0*%
%ADD50RoundRect,0.050000X-0.450000X1.000000X-0.450000X-1.000000X0.450000X-1.000000X0.450000X1.000000X0*%
%ADD51RoundRect,0.050000X-1.000000X-0.450000X1.000000X-0.450000X1.000000X0.450000X-1.000000X0.450000X0*%
%ADD52RoundRect,0.050000X0.675000X-0.675000X0.675000X0.675000X-0.675000X0.675000X-0.675000X-0.675000X0*%
%ADD53O,1.450000X1.450000*%
%ADD54RoundRect,0.200000X0.587500X0.150000X-0.587500X0.150000X-0.587500X-0.150000X0.587500X-0.150000X0*%
%ADD55RoundRect,0.300000X0.350000X0.450000X-0.350000X0.450000X-0.350000X-0.450000X0.350000X-0.450000X0*%
%ADD56RoundRect,0.112500X0.062500X-0.337500X0.062500X0.337500X-0.062500X0.337500X-0.062500X-0.337500X0*%
%ADD57RoundRect,0.112500X0.337500X-0.062500X0.337500X0.062500X-0.337500X0.062500X-0.337500X-0.062500X0*%
%ADD58RoundRect,0.050000X1.675000X-1.675000X1.675000X1.675000X-1.675000X1.675000X-1.675000X-1.675000X0*%
%ADD59RoundRect,0.050000X0.675000X0.675000X-0.675000X0.675000X-0.675000X-0.675000X0.675000X-0.675000X0*%
%ADD60C,0.800000*%
%ADD61O,1.000000X2.500000*%
%ADD62O,1.000000X1.800000*%
%ADD63RoundRect,0.300000X-0.450000X0.350000X-0.450000X-0.350000X0.450000X-0.350000X0.450000X0.350000X0*%
%ADD64RoundRect,0.299999X-0.450001X-1.425001X0.450001X-1.425001X0.450001X1.425001X-0.450001X1.425001X0*%
%ADD65C,2.700000*%
%ADD66RoundRect,0.050000X-0.825000X-0.825000X0.825000X-0.825000X0.825000X0.825000X-0.825000X0.825000X0*%
%ADD67C,1.750000*%
G04 APERTURE END LIST*
D10*
X156456500Y-140571000D03*
X156456500Y-142396000D03*
D11*
X165115500Y-137428900D03*
X166940500Y-137428900D03*
X162918800Y-128638300D03*
X164743800Y-128638300D03*
D12*
X164741200Y-127088900D03*
X162916200Y-127088900D03*
D11*
X189256000Y-125412500D03*
X191081000Y-125412500D03*
D13*
X162829000Y-135593500D03*
X159729000Y-135593500D03*
D14*
X141973300Y-146850100D03*
D15*
X141973300Y-144310100D03*
D16*
X183628500Y-121627900D03*
X186753500Y-121627900D03*
D17*
X179387500Y-88901000D03*
X179387500Y-95001000D03*
X184467500Y-88901000D03*
X184467500Y-95001000D03*
D18*
X132644500Y-99014170D03*
X140144500Y-100647500D03*
D17*
X184467500Y-97011000D03*
X184467500Y-103111000D03*
X179387500Y-97011000D03*
X179387500Y-103111000D03*
D19*
X156654500Y-112331500D03*
X156654500Y-110281500D03*
D20*
X154114500Y-112315500D03*
X154114500Y-110315500D03*
D21*
X147002500Y-138493500D03*
D22*
X149502500Y-138493500D03*
D14*
X155130500Y-121983500D03*
D15*
X155130500Y-119443500D03*
D23*
X131762500Y-144752000D03*
X131762500Y-146477000D03*
D24*
X131762500Y-140381000D03*
X131762500Y-138656000D03*
D25*
X160076500Y-120332500D03*
D26*
X162576500Y-120332500D03*
X165076500Y-120332500D03*
X167576500Y-120332500D03*
D23*
X170116500Y-113002000D03*
X170116500Y-114727000D03*
D27*
X129222500Y-145605500D03*
D28*
X129222500Y-143065500D03*
X129222500Y-140525500D03*
D29*
X136334500Y-144589500D03*
D30*
X136334500Y-147089500D03*
D31*
X136334500Y-140104500D03*
D30*
X136334500Y-137604500D03*
D32*
X154686000Y-106362500D03*
D33*
X154686000Y-103822500D03*
D34*
X154686000Y-96202500D03*
X154686000Y-88582500D03*
D32*
X160083500Y-106343001D03*
D33*
X160083500Y-103803001D03*
D34*
X160083500Y-96183001D03*
X160083500Y-88563001D03*
D32*
X170825500Y-106343001D03*
D33*
X170825500Y-103803001D03*
D34*
X170825500Y-96183001D03*
X170825500Y-88563001D03*
D35*
X155116500Y-70857501D03*
X160116500Y-70857501D03*
X165116500Y-70857501D03*
X170116500Y-70857501D03*
X155116500Y-79057500D03*
X160116500Y-79057500D03*
X165116500Y-79057500D03*
X170116500Y-79057500D03*
X141748500Y-70857501D03*
X146748500Y-70857501D03*
X141748500Y-79057500D03*
X146748500Y-79057500D03*
X179387500Y-70857501D03*
X184387500Y-70857501D03*
X189387500Y-70857501D03*
X194387500Y-70857501D03*
X179387500Y-79057500D03*
X184387500Y-79057500D03*
X189387500Y-79057500D03*
X194387500Y-79057500D03*
D34*
X146748500Y-89217500D03*
X146748500Y-94297500D03*
D36*
X198564500Y-85407500D03*
X132270500Y-85407500D03*
D34*
X134556500Y-92265500D03*
X139636500Y-92265500D03*
D32*
X165428000Y-106343001D03*
D33*
X165428000Y-103803001D03*
D34*
X165428000Y-96183001D03*
X165428000Y-88563001D03*
D36*
X132256500Y-76503500D03*
D37*
X159321500Y-116076500D03*
X160591500Y-116076500D03*
X161861500Y-116076500D03*
X163131500Y-116076500D03*
X164401500Y-116076500D03*
X165671500Y-116076500D03*
X166941500Y-116076500D03*
X168211500Y-116076500D03*
X168211500Y-111126500D03*
X166941500Y-111126500D03*
X165671500Y-111126500D03*
X164401500Y-111126500D03*
X163131500Y-111126500D03*
X161861500Y-111126500D03*
X160591500Y-111126500D03*
X159321500Y-111126500D03*
D38*
X183995000Y-115887500D03*
X185720000Y-115887500D03*
D39*
X191816000Y-115887500D03*
X190091000Y-115887500D03*
D40*
X192341500Y-121627900D03*
X189216500Y-121627900D03*
D16*
X194804500Y-121627900D03*
X197929500Y-121627900D03*
D17*
X194754500Y-97029000D03*
X194754500Y-103129000D03*
X189674500Y-88901000D03*
X189674500Y-95001000D03*
X194754500Y-88901000D03*
X194754500Y-95001000D03*
D41*
X186118500Y-111061500D03*
D42*
X178498500Y-118681500D03*
X183578500Y-111061500D03*
X181038500Y-118681500D03*
X181038500Y-111061500D03*
X183578500Y-118681500D03*
X178498500Y-111061500D03*
X186118500Y-118681500D03*
D41*
X197294500Y-111061500D03*
D42*
X189674500Y-118681500D03*
X194754500Y-111061500D03*
X192214500Y-118681500D03*
X192214500Y-111061500D03*
X194754500Y-118681500D03*
X189674500Y-111061500D03*
X197294500Y-118681500D03*
D17*
X189674500Y-97013300D03*
X189674500Y-103113300D03*
D39*
X180622000Y-115887500D03*
X178897000Y-115887500D03*
D38*
X195171000Y-115887500D03*
X196896000Y-115887500D03*
X192659000Y-125412500D03*
X194384000Y-125412500D03*
D39*
X191018500Y-126936500D03*
X189293500Y-126936500D03*
D43*
X166687500Y-130428000D03*
X164787500Y-130428000D03*
X165737500Y-132303000D03*
D44*
X156633000Y-143918900D03*
X158033000Y-143918900D03*
D21*
X146991700Y-145453100D03*
D22*
X149491700Y-145453100D03*
D45*
X169155500Y-131941500D03*
X169155500Y-125741500D03*
X172855500Y-131941500D03*
X172855500Y-125741500D03*
D46*
X158885500Y-125868500D03*
X158885500Y-132068500D03*
X155185500Y-125868500D03*
X155185500Y-132068500D03*
D23*
X165024900Y-142096300D03*
X165024900Y-143821300D03*
D12*
X166940500Y-140476900D03*
X165115500Y-140476900D03*
D11*
X165115500Y-138952900D03*
X166940500Y-138952900D03*
D23*
X166624900Y-142102800D03*
X166624900Y-143827800D03*
D47*
X154916500Y-144081900D03*
X154916500Y-146181900D03*
D44*
X159233000Y-143918900D03*
X160633000Y-143918900D03*
D48*
X163343000Y-143918900D03*
X161943000Y-143918900D03*
D49*
X186365500Y-136486500D03*
D50*
X193865500Y-128986500D03*
X192595500Y-128986500D03*
X191325500Y-128986500D03*
X190055500Y-128986500D03*
X188785500Y-128986500D03*
X187515500Y-128986500D03*
X186245500Y-128986500D03*
X184975500Y-128986500D03*
X183705500Y-128986500D03*
X182435500Y-128986500D03*
X181165500Y-128986500D03*
X179895500Y-128986500D03*
X178625500Y-128986500D03*
X177355500Y-128986500D03*
D51*
X176355500Y-131771500D03*
X176355500Y-133041500D03*
X176355500Y-134311500D03*
X176355500Y-135581500D03*
X176355500Y-136851500D03*
X176355500Y-138121500D03*
X176355500Y-139391500D03*
X176355500Y-140661500D03*
X176355500Y-141931500D03*
X176355500Y-143201500D03*
D50*
X177355500Y-145986500D03*
X178625500Y-145986500D03*
X179895500Y-145986500D03*
X181165500Y-145986500D03*
X182435500Y-145986500D03*
X183705500Y-145986500D03*
X184975500Y-145986500D03*
X186245500Y-145986500D03*
X187515500Y-145986500D03*
X188785500Y-145986500D03*
X190055500Y-145986500D03*
X191325500Y-145986500D03*
X192595500Y-145986500D03*
X193865500Y-145986500D03*
D43*
X162811500Y-130460000D03*
X160911500Y-130460000D03*
X161861500Y-132335000D03*
D52*
X180911500Y-125222000D03*
D53*
X182911500Y-125222000D03*
X184911500Y-125222000D03*
X186911500Y-125222000D03*
D52*
X188277500Y-148844000D03*
D53*
X190277500Y-148844000D03*
D54*
X170596800Y-137091500D03*
X170596800Y-135191500D03*
X168721800Y-136141500D03*
D55*
X181578000Y-150304500D03*
X179578000Y-150304500D03*
X181578000Y-148272500D03*
X179578000Y-148272500D03*
D56*
X159533000Y-142408900D03*
X160033000Y-142408900D03*
X160533000Y-142408900D03*
X161033000Y-142408900D03*
X161533000Y-142408900D03*
X162033000Y-142408900D03*
X162533000Y-142408900D03*
D57*
X163483000Y-141458900D03*
X163483000Y-140958900D03*
X163483000Y-140458900D03*
X163483000Y-139958900D03*
X163483000Y-139458900D03*
X163483000Y-138958900D03*
X163483000Y-138458900D03*
D56*
X162533000Y-137508900D03*
X162033000Y-137508900D03*
X161533000Y-137508900D03*
X161033000Y-137508900D03*
X160533000Y-137508900D03*
X160033000Y-137508900D03*
X159533000Y-137508900D03*
D57*
X158583000Y-138458900D03*
X158583000Y-138958900D03*
X158583000Y-139458900D03*
X158583000Y-139958900D03*
X158583000Y-140458900D03*
X158583000Y-140958900D03*
X158583000Y-141458900D03*
D58*
X161033000Y-139958900D03*
D38*
X192648500Y-126936500D03*
X194373500Y-126936500D03*
D40*
X181217500Y-121627900D03*
X178092500Y-121627900D03*
D59*
X154106500Y-141633500D03*
D53*
X154106500Y-139633500D03*
D38*
X172480900Y-137093500D03*
X174205900Y-137093500D03*
X172507400Y-135191500D03*
X174232400Y-135191500D03*
D60*
X158316500Y-145763500D03*
X159166500Y-145763500D03*
X160016500Y-145763500D03*
X160866500Y-145763500D03*
X161716500Y-145763500D03*
X162566500Y-145763500D03*
X163416500Y-145763500D03*
X164266500Y-145763500D03*
X159166500Y-147113500D03*
X160866500Y-147113500D03*
X160016500Y-147113500D03*
X158316500Y-147113500D03*
X162566500Y-147113500D03*
X163416500Y-147113500D03*
X164266500Y-147113500D03*
X161716500Y-147113500D03*
D61*
X156966500Y-146743500D03*
X165616500Y-146743500D03*
D62*
X156966500Y-150123500D03*
X165616500Y-150123500D03*
D63*
X154206500Y-135153500D03*
X154206500Y-137153500D03*
D64*
X174438500Y-149567900D03*
X168338500Y-149567900D03*
D65*
X199174100Y-103289100D03*
X175704500Y-84899500D03*
D66*
X129476500Y-108587500D03*
D67*
X129476500Y-128587500D03*
X149476500Y-123587500D03*
X149476500Y-113587500D03*
M02*
