%TF.GenerationSoftware,KiCad,Pcbnew,(5.1.6)-1*%
%TF.CreationDate,2020-08-28T22:53:53+02:00*%
%TF.ProjectId,pcbdesign,70636264-6573-4696-976e-2e6b69636164,rev?*%
%TF.SameCoordinates,Original*%
%TF.FileFunction,Legend,Top*%
%TF.FilePolarity,Positive*%
%FSLAX46Y46*%
G04 Gerber Fmt 4.6, Leading zero omitted, Abs format (unit mm)*
G04 Created by KiCad (PCBNEW (5.1.6)-1) date 2020-08-28 22:53:53*
%MOMM*%
%LPD*%
G01*
G04 APERTURE LIST*
%ADD10C,1.000000*%
%ADD11C,0.150000*%
%ADD12C,0.120000*%
G04 APERTURE END LIST*
D10*
X107474761Y-117355714D02*
X107236666Y-117593809D01*
X106522380Y-117831904D01*
X106046190Y-117831904D01*
X105331904Y-117593809D01*
X104855714Y-117117619D01*
X104617619Y-116641428D01*
X104379523Y-115689047D01*
X104379523Y-114974761D01*
X104617619Y-114022380D01*
X104855714Y-113546190D01*
X105331904Y-113070000D01*
X106046190Y-112831904D01*
X106522380Y-112831904D01*
X107236666Y-113070000D01*
X107474761Y-113308095D01*
X112474761Y-117831904D02*
X110808095Y-115450952D01*
X109617619Y-117831904D02*
X109617619Y-112831904D01*
X111522380Y-112831904D01*
X111998571Y-113070000D01*
X112236666Y-113308095D01*
X112474761Y-113784285D01*
X112474761Y-114498571D01*
X112236666Y-114974761D01*
X111998571Y-115212857D01*
X111522380Y-115450952D01*
X109617619Y-115450952D01*
X117236666Y-113070000D02*
X116760476Y-112831904D01*
X116046190Y-112831904D01*
X115331904Y-113070000D01*
X114855714Y-113546190D01*
X114617619Y-114022380D01*
X114379523Y-114974761D01*
X114379523Y-115689047D01*
X114617619Y-116641428D01*
X114855714Y-117117619D01*
X115331904Y-117593809D01*
X116046190Y-117831904D01*
X116522380Y-117831904D01*
X117236666Y-117593809D01*
X117474761Y-117355714D01*
X117474761Y-115689047D01*
X116522380Y-115689047D01*
X119379523Y-116403333D02*
X121760476Y-116403333D01*
X118903333Y-117831904D02*
X120570000Y-112831904D01*
X122236666Y-117831904D01*
X126760476Y-117831904D02*
X125093809Y-115450952D01*
X123903333Y-117831904D02*
X123903333Y-112831904D01*
X125808095Y-112831904D01*
X126284285Y-113070000D01*
X126522380Y-113308095D01*
X126760476Y-113784285D01*
X126760476Y-114498571D01*
X126522380Y-114974761D01*
X126284285Y-115212857D01*
X125808095Y-115450952D01*
X123903333Y-115450952D01*
D11*
X103790952Y-137517142D02*
X103743333Y-137564761D01*
X103600476Y-137612380D01*
X103505238Y-137612380D01*
X103362380Y-137564761D01*
X103267142Y-137469523D01*
X103219523Y-137374285D01*
X103171904Y-137183809D01*
X103171904Y-137040952D01*
X103219523Y-136850476D01*
X103267142Y-136755238D01*
X103362380Y-136660000D01*
X103505238Y-136612380D01*
X103600476Y-136612380D01*
X103743333Y-136660000D01*
X103790952Y-136707619D01*
X104790952Y-137612380D02*
X104457619Y-137136190D01*
X104219523Y-137612380D02*
X104219523Y-136612380D01*
X104600476Y-136612380D01*
X104695714Y-136660000D01*
X104743333Y-136707619D01*
X104790952Y-136802857D01*
X104790952Y-136945714D01*
X104743333Y-137040952D01*
X104695714Y-137088571D01*
X104600476Y-137136190D01*
X104219523Y-137136190D01*
X105743333Y-136660000D02*
X105648095Y-136612380D01*
X105505238Y-136612380D01*
X105362380Y-136660000D01*
X105267142Y-136755238D01*
X105219523Y-136850476D01*
X105171904Y-137040952D01*
X105171904Y-137183809D01*
X105219523Y-137374285D01*
X105267142Y-137469523D01*
X105362380Y-137564761D01*
X105505238Y-137612380D01*
X105600476Y-137612380D01*
X105743333Y-137564761D01*
X105790952Y-137517142D01*
X105790952Y-137183809D01*
X105600476Y-137183809D01*
X106171904Y-137326666D02*
X106648095Y-137326666D01*
X106076666Y-137612380D02*
X106410000Y-136612380D01*
X106743333Y-137612380D01*
X107648095Y-137612380D02*
X107314761Y-137136190D01*
X107076666Y-137612380D02*
X107076666Y-136612380D01*
X107457619Y-136612380D01*
X107552857Y-136660000D01*
X107600476Y-136707619D01*
X107648095Y-136802857D01*
X107648095Y-136945714D01*
X107600476Y-137040952D01*
X107552857Y-137088571D01*
X107457619Y-137136190D01*
X107076666Y-137136190D01*
X89820952Y-140057142D02*
X89773333Y-140104761D01*
X89630476Y-140152380D01*
X89535238Y-140152380D01*
X89392380Y-140104761D01*
X89297142Y-140009523D01*
X89249523Y-139914285D01*
X89201904Y-139723809D01*
X89201904Y-139580952D01*
X89249523Y-139390476D01*
X89297142Y-139295238D01*
X89392380Y-139200000D01*
X89535238Y-139152380D01*
X89630476Y-139152380D01*
X89773333Y-139200000D01*
X89820952Y-139247619D01*
X90820952Y-140152380D02*
X90487619Y-139676190D01*
X90249523Y-140152380D02*
X90249523Y-139152380D01*
X90630476Y-139152380D01*
X90725714Y-139200000D01*
X90773333Y-139247619D01*
X90820952Y-139342857D01*
X90820952Y-139485714D01*
X90773333Y-139580952D01*
X90725714Y-139628571D01*
X90630476Y-139676190D01*
X90249523Y-139676190D01*
X91773333Y-139200000D02*
X91678095Y-139152380D01*
X91535238Y-139152380D01*
X91392380Y-139200000D01*
X91297142Y-139295238D01*
X91249523Y-139390476D01*
X91201904Y-139580952D01*
X91201904Y-139723809D01*
X91249523Y-139914285D01*
X91297142Y-140009523D01*
X91392380Y-140104761D01*
X91535238Y-140152380D01*
X91630476Y-140152380D01*
X91773333Y-140104761D01*
X91820952Y-140057142D01*
X91820952Y-139723809D01*
X91630476Y-139723809D01*
X92201904Y-139866666D02*
X92678095Y-139866666D01*
X92106666Y-140152380D02*
X92440000Y-139152380D01*
X92773333Y-140152380D01*
X93678095Y-140152380D02*
X93344761Y-139676190D01*
X93106666Y-140152380D02*
X93106666Y-139152380D01*
X93487619Y-139152380D01*
X93582857Y-139200000D01*
X93630476Y-139247619D01*
X93678095Y-139342857D01*
X93678095Y-139485714D01*
X93630476Y-139580952D01*
X93582857Y-139628571D01*
X93487619Y-139676190D01*
X93106666Y-139676190D01*
D12*
%TO.C,J1*%
X98955874Y-128483609D02*
X96295874Y-128483609D01*
X98955874Y-128483609D02*
X98955874Y-92863609D01*
X98955874Y-92863609D02*
X96295874Y-92863609D01*
X96295874Y-128483609D02*
X96295874Y-92863609D01*
X96295874Y-131083609D02*
X96295874Y-129753609D01*
X97625874Y-131083609D02*
X96295874Y-131083609D01*
%TO.C,A1*%
X108235001Y-92985001D02*
X108235001Y-90445001D01*
X108235001Y-90445001D02*
X105565001Y-90445001D01*
X105565001Y-92985001D02*
X105565001Y-131215001D01*
X105565001Y-87775001D02*
X105565001Y-90445001D01*
X120935001Y-90445001D02*
X123605001Y-90445001D01*
X120935001Y-90445001D02*
X120935001Y-128545001D01*
X120935001Y-128545001D02*
X123605001Y-128545001D01*
X108235001Y-92985001D02*
X105565001Y-92985001D01*
X108235001Y-92985001D02*
X108235001Y-128545001D01*
X108235001Y-128545001D02*
X105565001Y-128545001D01*
X105565001Y-131215001D02*
X123605001Y-131215001D01*
X123605001Y-131215001D02*
X123605001Y-87775001D01*
X123605001Y-87775001D02*
X105565001Y-87775001D01*
%TO.C,D1*%
X92676000Y-106390000D02*
X92520000Y-106390000D01*
X90360000Y-106390000D02*
X90204000Y-106390000D01*
X92518608Y-109622335D02*
G75*
G03*
X92675516Y-106390000I-1078608J1672335D01*
G01*
X90361392Y-109622335D02*
G75*
G02*
X90204484Y-106390000I1078608J1672335D01*
G01*
X92519837Y-108991130D02*
G75*
G03*
X92520000Y-106909039I-1079837J1041130D01*
G01*
X90360163Y-108991130D02*
G75*
G02*
X90360000Y-106909039I1079837J1041130D01*
G01*
%TO.C,J2*%
X134191782Y-138768186D02*
X132861782Y-138768186D01*
X132861782Y-138768186D02*
X132861782Y-137438186D01*
X132861782Y-136168186D02*
X132861782Y-100548186D01*
X135521782Y-100548186D02*
X132861782Y-100548186D01*
X135521782Y-136168186D02*
X135521782Y-100548186D01*
X135521782Y-136168186D02*
X132861782Y-136168186D01*
%TO.C,R1*%
X90520000Y-120030000D02*
X90520000Y-116190000D01*
X92360000Y-120030000D02*
X92360000Y-116190000D01*
%TO.C,J1*%
D11*
X97292540Y-131975989D02*
X97292540Y-132690275D01*
X97244921Y-132833132D01*
X97149683Y-132928370D01*
X97006826Y-132975989D01*
X96911588Y-132975989D01*
X98292540Y-132975989D02*
X97721112Y-132975989D01*
X98006826Y-132975989D02*
X98006826Y-131975989D01*
X97911588Y-132118847D01*
X97816350Y-132214085D01*
X97721112Y-132261704D01*
%TO.C,A1*%
X113870715Y-86801667D02*
X114346905Y-86801667D01*
X113775477Y-87087381D02*
X114108810Y-86087381D01*
X114442143Y-87087381D01*
X115299286Y-87087381D02*
X114727858Y-87087381D01*
X115013572Y-87087381D02*
X115013572Y-86087381D01*
X114918334Y-86230239D01*
X114823096Y-86325477D01*
X114727858Y-86373096D01*
%TO.C,D1*%
X94852380Y-108688095D02*
X93852380Y-108688095D01*
X93852380Y-108450000D01*
X93900000Y-108307142D01*
X93995238Y-108211904D01*
X94090476Y-108164285D01*
X94280952Y-108116666D01*
X94423809Y-108116666D01*
X94614285Y-108164285D01*
X94709523Y-108211904D01*
X94804761Y-108307142D01*
X94852380Y-108450000D01*
X94852380Y-108688095D01*
X94852380Y-107164285D02*
X94852380Y-107735714D01*
X94852380Y-107450000D02*
X93852380Y-107450000D01*
X93995238Y-107545238D01*
X94090476Y-107640476D01*
X94138095Y-107735714D01*
%TO.C,J2*%
X133858448Y-139660566D02*
X133858448Y-140374852D01*
X133810829Y-140517709D01*
X133715591Y-140612947D01*
X133572734Y-140660566D01*
X133477496Y-140660566D01*
X134287020Y-139755805D02*
X134334639Y-139708186D01*
X134429877Y-139660566D01*
X134667972Y-139660566D01*
X134763210Y-139708186D01*
X134810829Y-139755805D01*
X134858448Y-139851043D01*
X134858448Y-139946281D01*
X134810829Y-140089138D01*
X134239401Y-140660566D01*
X134858448Y-140660566D01*
%TO.C,R1*%
X89972380Y-118276666D02*
X89496190Y-118610000D01*
X89972380Y-118848095D02*
X88972380Y-118848095D01*
X88972380Y-118467142D01*
X89020000Y-118371904D01*
X89067619Y-118324285D01*
X89162857Y-118276666D01*
X89305714Y-118276666D01*
X89400952Y-118324285D01*
X89448571Y-118371904D01*
X89496190Y-118467142D01*
X89496190Y-118848095D01*
X89972380Y-117324285D02*
X89972380Y-117895714D01*
X89972380Y-117610000D02*
X88972380Y-117610000D01*
X89115238Y-117705238D01*
X89210476Y-117800476D01*
X89258095Y-117895714D01*
%TD*%
M02*
