M48
; DRILL file {KiCad 9.0.3} date 2025-07-28T22:00:32+0200
; FORMAT={-:-/ absolute / metric / decimal}
; #@! TF.CreationDate,2025-07-28T22:00:32+02:00
; #@! TF.GenerationSoftware,Kicad,Pcbnew,9.0.3
; #@! TF.FileFunction,Plated,1,4,PTH
FMAT,2
METRIC
; #@! TA.AperFunction,Plated,PTH,ViaDrill
T1C0.400
; #@! TA.AperFunction,Plated,PTH,ComponentDrill
T2C0.500
; #@! TA.AperFunction,Plated,PTH,ComponentDrill
T3C0.600
; #@! TA.AperFunction,Plated,PTH,ComponentDrill
T4C0.800
; #@! TA.AperFunction,Plated,PTH,ComponentDrill
T5C0.950
; #@! TA.AperFunction,Plated,PTH,ComponentDrill
T6C1.000
; #@! TA.AperFunction,Plated,PTH,ComponentDrill
T7C1.100
; #@! TA.AperFunction,Plated,PTH,ComponentDrill
T8C1.295
; #@! TA.AperFunction,Plated,PTH,ComponentDrill
T9C3.200
%
G90
G05
T1
X24.5Y-100.5
X24.55Y-94.55
X24.65Y-105.95
X30.5Y-99.5
X30.5Y-101.27
X30.5Y-103.327
X30.5Y-105.459
X31.0Y-98.2
X33.0Y-114.5
X34.0Y-94.5
X40.9Y-105.4
X41.097Y-106.8
X41.7Y-99.8
X42.1Y-102.5
X42.5Y-115.0
X45.0Y-94.5
X50.5Y-114.5
X52.325Y-81.9
X52.325Y-87.175
X53.5Y-73.5
X55.4Y-113.5
X56.5Y-106.5
X57.5Y-103.0
X59.246Y-98.443
X59.8Y-112.4
X60.45Y-98.5
X60.5Y-108.678
X60.5Y-114.5
X60.529Y-95.495
X61.272Y-102.0
X61.5Y-98.0
X61.5Y-101.0
X61.528Y-95.528
X62.0Y-88.0
X62.5Y-98.0
X62.526Y-95.468
X62.948Y-100.5
X63.0Y-73.5
X63.132Y-101.632
X63.616Y-95.8
X63.7Y-108.678
X64.446Y-100.946
X64.523Y-102.0
X64.616Y-95.8
X66.001Y-101.81
X66.149Y-100.5
X67.0Y-108.678
X67.763Y-102.0
X67.899Y-101.0
X68.0Y-92.777
X69.4Y-95.0
X69.4Y-100.2
X69.5Y-91.5
X69.532Y-101.2
X69.6Y-89.0
X70.168Y-94.2
X70.542Y-93.272
X70.947Y-100.947
X71.026Y-102.0
X72.0Y-91.0
X72.125Y-107.0
X73.0Y-83.0
X73.0Y-100.0
X73.294Y-111.1
X74.0Y-73.5
X74.75Y-111.0
X74.8Y-88.5
X75.2Y-86.293
X76.0Y-87.0
X76.0Y-88.601
X76.5Y-89.5
X77.429Y-102.071
X77.5Y-86.7
X77.609Y-89.609
X77.68Y-99.215
X78.566Y-86.7
X79.941Y-94.48
X80.0Y-96.5
X81.026Y-114.427
X83.1Y-93.2
X84.0Y-94.8
X84.1Y-93.2
X84.5Y-73.5
X85.0Y-94.0
X85.5Y-91.0
X86.202Y-106.636
X86.5Y-83.0
X86.5Y-86.5
X86.5Y-105.5
X87.0Y-97.425
X87.5Y-86.5
X88.002Y-113.548
X88.952Y-98.725
X91.0Y-86.5
X91.364Y-113.436
X91.529Y-104.2
X92.537Y-98.8
X92.71Y-112.32
X93.421Y-96.836
X93.5Y-73.5
X94.019Y-104.2
X94.03Y-78.45
X95.15Y-87.25
X95.15Y-88.35
X97.687Y-107.187
X98.65Y-103.3
X98.65Y-107.15
X98.85Y-101.37
X98.887Y-96.0
X100.482Y-84.201
X100.482Y-85.725
X102.0Y-100.0
X102.006Y-85.776
X102.057Y-84.252
X102.501Y-106.606
X103.258Y-98.852
X105.1Y-100.142
X105.5Y-98.292
X106.121Y-106.921
X106.2Y-101.37
X106.3Y-103.2
X107.5Y-98.292
X108.0Y-106.921
X109.4Y-98.292
X109.695Y-100.23
X109.754Y-110.946
X110.0Y-107.5
X110.5Y-102.3
X111.0Y-107.0
X111.3Y-98.292
X111.582Y-85.725
X111.608Y-84.226
X111.7Y-105.2
X111.9Y-113.284
X112.7Y-112.2
X113.233Y-84.201
X113.233Y-85.725
X113.5Y-115.0
X115.295Y-97.576
X115.331Y-100.71
X115.5Y-110.0
X115.729Y-98.692
X115.729Y-99.742
X117.0Y-112.7
X117.5Y-93.5
X117.5Y-110.0
X119.0Y-100.5
X119.005Y-108.97
X119.731Y-108.17
X119.914Y-99.991
X120.0Y-115.0
X120.165Y-95.0
X120.165Y-97.0
X120.258Y-98.284
X120.5Y-104.5
X120.657Y-99.248
X120.669Y-100.647
X121.5Y-98.5
X121.624Y-100.0
X122.0Y-108.17
X122.598Y-107.368
X122.8Y-112.7
X123.0Y-106.0
X123.1Y-95.5
X123.406Y-85.776
X123.432Y-84.252
X124.422Y-84.252
X124.422Y-85.75
X124.5Y-104.5
X124.6Y-107.3
X126.0Y-100.0
X126.0Y-103.1
X126.0Y-106.0
X126.1Y-97.0
X127.5Y-104.5
X127.7Y-95.6
X128.9Y-108.2
X129.0Y-106.0
X129.1Y-97.0
X129.5Y-83.0
X130.5Y-95.6
X130.5Y-104.5
X130.5Y-114.5
X131.016Y-87.436
X131.117Y-91.77
X132.0Y-97.0
X132.0Y-106.0
X132.0Y-108.2
X132.289Y-89.0
X133.4Y-88.4
X133.5Y-95.5
X133.5Y-100.0
X133.5Y-102.8
X135.0Y-95.5
X135.0Y-98.5
X135.0Y-101.5
X135.0Y-104.5
X135.0Y-106.0
X135.1Y-109.1
X135.115Y-112.0
X135.7Y-88.5
X135.8Y-90.5
X135.8Y-91.5
X137.231Y-84.968
X145.2Y-86.05
T2
X118.3Y-84.5
T4
X33.75Y-58.463
X36.611Y-102.819
X39.111Y-102.819
X41.25Y-60.096
X53.535Y-48.453
X53.535Y-53.533
X54.3Y-96.482
X54.3Y-98.982
X58.488Y-48.453
X58.488Y-53.533
X63.408Y-48.453
X63.408Y-53.533
X68.408Y-48.453
X68.408Y-53.533
X76.95Y-48.539
X76.95Y-53.619
X81.903Y-48.539
X81.903Y-53.619
X86.983Y-48.539
X86.983Y-53.619
X91.936Y-48.539
X91.936Y-53.619
X97.461Y-74.24
X97.461Y-81.86
X100.001Y-74.24
X100.001Y-81.86
X100.126Y-48.436
X100.126Y-53.516
X102.541Y-74.24
X102.541Y-81.86
X105.081Y-74.24
X105.081Y-81.86
X105.104Y-48.436
X105.104Y-53.516
X108.637Y-74.24
X108.637Y-81.86
X110.133Y-48.436
X110.133Y-53.516
X111.177Y-74.24
X111.177Y-81.86
X113.717Y-74.24
X113.717Y-81.86
X115.162Y-48.436
X115.162Y-53.516
X116.257Y-74.24
X116.257Y-81.86
X120.085Y-74.236
X120.085Y-81.856
X122.625Y-74.236
X122.625Y-81.856
X123.498Y-48.408
X123.498Y-53.488
X125.165Y-74.236
X125.165Y-81.856
X127.705Y-74.236
X127.705Y-81.856
X128.498Y-48.438
X128.498Y-53.518
X131.769Y-74.236
X131.769Y-81.856
X133.502Y-48.438
X133.502Y-53.518
X134.309Y-74.236
X134.309Y-81.856
X136.849Y-74.236
X136.849Y-81.856
X138.481Y-48.438
X138.481Y-53.518
X139.389Y-74.236
X139.389Y-81.856
X144.5Y-79.0
X144.5Y-81.5
T5
X75.0Y-105.7
X77.5Y-105.7
X80.0Y-105.7
X82.5Y-105.7
X85.0Y-105.7
T6
X34.05Y-109.4
X34.05Y-111.9
X41.275Y-54.305
X41.285Y-49.225
X41.45Y-109.4
X41.45Y-111.9
X47.55Y-110.02
X47.55Y-112.56
X47.71Y-96.09
X47.71Y-98.63
X47.71Y-101.17
X55.694Y-57.724
X55.694Y-65.344
X55.694Y-75.504
X55.694Y-78.044
X60.52Y-57.724
X60.52Y-65.344
X60.52Y-75.504
X60.52Y-78.044
X65.346Y-57.724
X65.346Y-65.344
X65.346Y-75.504
X65.346Y-78.044
X66.96Y-113.0
X69.5Y-113.0
X70.299Y-57.724
X70.299Y-65.344
X70.299Y-75.504
X70.299Y-78.044
X72.04Y-113.0
X76.787Y-57.724
X76.787Y-65.344
X76.787Y-75.504
X76.787Y-78.044
X81.867Y-57.724
X81.867Y-65.344
X81.867Y-75.504
X81.867Y-78.044
X86.947Y-57.724
X86.947Y-65.344
X86.947Y-75.504
X86.947Y-78.044
X90.15Y-82.31
X90.15Y-84.85
X91.9Y-57.724
X91.9Y-65.344
X91.9Y-75.504
X91.9Y-78.044
X94.05Y-82.3
X94.05Y-84.84
X106.62Y-92.1
X107.915Y-101.545
X107.915Y-104.085
X109.16Y-92.1
X111.6Y-95.9
X111.7Y-92.1
X111.806Y-108.89
X114.14Y-95.9
X114.24Y-92.1
X114.346Y-108.89
X125.305Y-113.66
X127.845Y-113.66
T7
X27.656Y-68.047
X27.656Y-88.047
X37.119Y-97.739
X39.659Y-97.739
X42.199Y-97.739
X47.656Y-73.047
X47.656Y-83.047
T8
X39.02Y-35.156
X39.02Y-43.356
X44.02Y-35.156
X44.02Y-43.356
X53.568Y-35.132
X53.568Y-43.332
X58.568Y-35.132
X58.568Y-43.332
X63.568Y-35.132
X63.568Y-43.332
X68.568Y-35.132
X68.568Y-43.332
X76.936Y-35.132
X76.936Y-43.332
X81.936Y-35.132
X81.936Y-43.332
X86.936Y-35.132
X86.936Y-43.332
X91.936Y-35.132
X91.936Y-43.332
X100.14Y-35.128
X100.14Y-43.328
X105.14Y-35.128
X105.14Y-43.328
X110.14Y-35.128
X110.14Y-43.328
X115.14Y-35.128
X115.14Y-43.328
X123.498Y-35.128
X123.498Y-43.328
X128.498Y-35.128
X128.498Y-43.328
X133.498Y-35.128
X133.498Y-43.328
X138.498Y-35.128
X138.498Y-43.328
T9
X49.0Y-58.5
X52.25Y-104.6
X150.3Y-83.388
T3
G00X98.161Y-108.696
M15
G01X98.161Y-109.796
M16
G05
G00X98.161Y-113.126
M15
G01X98.161Y-113.726
M16
G05
G00X106.801Y-108.696
M15
G01X106.801Y-109.796
M16
G05
G00X106.801Y-113.126
M15
G01X106.801Y-113.726
M16
G05
M30
