G04 #@! TF.GenerationSoftware,KiCad,Pcbnew,(6.0.4)*
G04 #@! TF.CreationDate,2022-03-31T22:15:08+02:00*
G04 #@! TF.ProjectId,hamodule,68616d6f-6475-46c6-952e-6b696361645f,rev?*
G04 #@! TF.SameCoordinates,Original*
G04 #@! TF.FileFunction,Other,User*
%FSLAX46Y46*%
G04 Gerber Fmt 4.6, Leading zero omitted, Abs format (unit mm)*
G04 Created by KiCad (PCBNEW (6.0.4)) date 2022-03-31 22:15:08*
%MOMM*%
%LPD*%
G01*
G04 APERTURE LIST*
%ADD10C,0.050000*%
%ADD11C,0.150000*%
G04 APERTURE END LIST*
D10*
X148758500Y-142738700D02*
X148758500Y-148888700D01*
X148758500Y-148888700D02*
X152358500Y-148888700D01*
X152358500Y-142738700D02*
X148758500Y-142738700D01*
X152358500Y-148888700D02*
X152358500Y-142738700D01*
X184140400Y-121253900D02*
X179180400Y-121253900D01*
X179180400Y-118953900D02*
X184140400Y-118953900D01*
X179180400Y-121253900D02*
X179180400Y-118953900D01*
X184140400Y-118953900D02*
X184140400Y-121253900D01*
X176197500Y-91036100D02*
X180037500Y-91036100D01*
X180037500Y-91036100D02*
X180037500Y-99036100D01*
X176197500Y-99036100D02*
X176197500Y-91036100D01*
X180037500Y-99036100D02*
X176197500Y-99036100D01*
X184990500Y-99036100D02*
X181150500Y-99036100D01*
X184990500Y-91036100D02*
X184990500Y-99036100D01*
X181150500Y-91036100D02*
X184990500Y-91036100D01*
X181150500Y-99036100D02*
X181150500Y-91036100D01*
X125886500Y-97793500D02*
X138386500Y-97793500D01*
X125886500Y-93093500D02*
X138386500Y-93093500D01*
X138386500Y-93093500D02*
X138386500Y-97793500D01*
X125886500Y-93093500D02*
X125886500Y-97793500D01*
X184990500Y-99087900D02*
X184990500Y-107087900D01*
X181150500Y-99087900D02*
X184990500Y-99087900D01*
X184990500Y-107087900D02*
X181150500Y-107087900D01*
X181150500Y-107087900D02*
X181150500Y-99087900D01*
X180037500Y-99087900D02*
X180037500Y-107087900D01*
X180037500Y-107087900D02*
X176197500Y-107087900D01*
X176197500Y-99087900D02*
X180037500Y-99087900D01*
X176197500Y-107087900D02*
X176197500Y-99087900D01*
X155654500Y-111138500D02*
X155654500Y-107438500D01*
X157554500Y-107438500D02*
X157554500Y-111138500D01*
X157554500Y-111138500D02*
X155654500Y-111138500D01*
X155654500Y-107438500D02*
X157554500Y-107438500D01*
X155014500Y-111147500D02*
X153114500Y-111147500D01*
X153114500Y-107447500D02*
X155014500Y-107447500D01*
X155014500Y-107447500D02*
X155014500Y-111147500D01*
X153114500Y-111147500D02*
X153114500Y-107447500D01*
X140059300Y-142503500D02*
X148459300Y-142503500D01*
X140059300Y-135753500D02*
X140059300Y-142503500D01*
X148459300Y-135753500D02*
X140059300Y-135753500D01*
X148459300Y-142503500D02*
X148459300Y-135753500D01*
X153280500Y-121765500D02*
X156880500Y-121765500D01*
X156880500Y-121765500D02*
X156880500Y-115615500D01*
X153280500Y-115615500D02*
X153280500Y-121765500D01*
X156880500Y-115615500D02*
X153280500Y-115615500D01*
X131032500Y-147264500D02*
X131032500Y-143964500D01*
X131032500Y-143964500D02*
X132492500Y-143964500D01*
X132492500Y-147264500D02*
X131032500Y-147264500D01*
X132492500Y-143964500D02*
X132492500Y-147264500D01*
X132492500Y-141168500D02*
X131032500Y-141168500D01*
X131032500Y-141168500D02*
X131032500Y-137868500D01*
X132492500Y-137868500D02*
X132492500Y-141168500D01*
X131032500Y-137868500D02*
X132492500Y-137868500D01*
X157076500Y-122214500D02*
X170476500Y-122214500D01*
X170476500Y-115464500D02*
X157076500Y-115464500D01*
X170476500Y-122214500D02*
X170476500Y-115464500D01*
X157076500Y-115464500D02*
X157076500Y-122214500D01*
X168980100Y-108318200D02*
X170440100Y-108318200D01*
X170440100Y-108318200D02*
X170440100Y-111618200D01*
X168980100Y-111618200D02*
X168980100Y-108318200D01*
X170440100Y-111618200D02*
X168980100Y-111618200D01*
X125536100Y-103343500D02*
X152736100Y-103343500D01*
X152736100Y-103343500D02*
X152736100Y-135543500D01*
X152736100Y-135543500D02*
X125536100Y-135543500D01*
X125536100Y-135543500D02*
X125536100Y-103343500D01*
X125822500Y-137815500D02*
X125822500Y-148315500D01*
X130732500Y-137815500D02*
X125822500Y-137815500D01*
X125822500Y-148315500D02*
X130732500Y-148315500D01*
X130732500Y-148315500D02*
X130732500Y-137815500D01*
D11*
X150997800Y-82675598D02*
X150997800Y-103025598D01*
X156147800Y-82675598D02*
X150997800Y-82675598D01*
X150997800Y-82675598D02*
X150997800Y-82675598D01*
X150997800Y-103025598D02*
X156147800Y-103025598D01*
X156147800Y-103025598D02*
X156147800Y-82675598D01*
X161545300Y-103006099D02*
X161545300Y-82656099D01*
X156395300Y-103006099D02*
X161545300Y-103006099D01*
X156395300Y-82656099D02*
X156395300Y-103006099D01*
X161545300Y-82656099D02*
X156395300Y-82656099D01*
X156395300Y-82656099D02*
X156395300Y-82656099D01*
X172490500Y-103006099D02*
X172490500Y-82656099D01*
X172490500Y-82656099D02*
X167340500Y-82656099D01*
X167340500Y-82656099D02*
X167340500Y-103006099D01*
X167340500Y-82656099D02*
X167340500Y-82656099D01*
X167340500Y-103006099D02*
X172490500Y-103006099D01*
D10*
X172101902Y-62397100D02*
X149191102Y-62397100D01*
X172101902Y-82107500D02*
X172101902Y-62397100D01*
X149191102Y-82107500D02*
X172101902Y-82107500D01*
X149191102Y-62397100D02*
X149191102Y-82107500D01*
X135546102Y-62420699D02*
X135546102Y-82131099D01*
X148454102Y-82131099D02*
X148454102Y-62420699D01*
X135546102Y-82131099D02*
X148454102Y-82131099D01*
X148454102Y-62420699D02*
X135546102Y-62420699D01*
X173151102Y-82067499D02*
X196061902Y-82067499D01*
X196061902Y-62357099D02*
X173151102Y-62357099D01*
X196061902Y-82067499D02*
X196061902Y-62357099D01*
X173151102Y-62357099D02*
X173151102Y-82067499D01*
X138536500Y-92823500D02*
X138536500Y-82823500D01*
X138536500Y-92823500D02*
X148536500Y-92823500D01*
X148536500Y-82823500D02*
X148536500Y-92823500D01*
X148536500Y-82823500D02*
X138536500Y-82823500D01*
X201564500Y-85407500D02*
G75*
G03*
X201564500Y-85407500I-3000000J0D01*
G01*
X135270500Y-85407500D02*
G75*
G03*
X135270500Y-85407500I-3000000J0D01*
G01*
D11*
X161943000Y-82656099D02*
X161943000Y-82656099D01*
X167093000Y-103006099D02*
X167093000Y-82656099D01*
X167093000Y-82656099D02*
X161943000Y-82656099D01*
X161943000Y-103006099D02*
X167093000Y-103006099D01*
X161943000Y-82656099D02*
X161943000Y-103006099D01*
D10*
X135256500Y-76503500D02*
G75*
G03*
X135256500Y-76503500I-3000000J0D01*
G01*
X168916500Y-115283500D02*
X168916500Y-107883500D01*
X168916500Y-107883500D02*
X158516500Y-107883500D01*
X158516500Y-107883500D02*
X158516500Y-115283500D01*
X158516500Y-115283500D02*
X168916500Y-115283500D01*
X183932000Y-122815100D02*
X180632000Y-122815100D01*
X180632000Y-121355100D02*
X183932000Y-121355100D01*
X183932000Y-121355100D02*
X183932000Y-122815100D01*
X180632000Y-122815100D02*
X180632000Y-121355100D01*
X187513400Y-122815100D02*
X184213400Y-122815100D01*
X184213400Y-121355100D02*
X187513400Y-121355100D01*
X184213400Y-122815100D02*
X184213400Y-121355100D01*
X187513400Y-121355100D02*
X187513400Y-122815100D01*
X184197300Y-118953900D02*
X189157300Y-118953900D01*
X189157300Y-121253900D02*
X184197300Y-121253900D01*
X184197300Y-121253900D02*
X184197300Y-118953900D01*
X189157300Y-118953900D02*
X189157300Y-121253900D01*
X189265000Y-118953900D02*
X194225000Y-118953900D01*
X189265000Y-121253900D02*
X189265000Y-118953900D01*
X194225000Y-118953900D02*
X194225000Y-121253900D01*
X194225000Y-121253900D02*
X189265000Y-121253900D01*
X195048900Y-107087900D02*
X191208900Y-107087900D01*
X195048900Y-99087900D02*
X195048900Y-107087900D01*
X191208900Y-99087900D02*
X195048900Y-99087900D01*
X191208900Y-107087900D02*
X191208900Y-99087900D01*
X190019700Y-91036100D02*
X190019700Y-99036100D01*
X190019700Y-99036100D02*
X186179700Y-99036100D01*
X186179700Y-91036100D02*
X190019700Y-91036100D01*
X186179700Y-99036100D02*
X186179700Y-91036100D01*
X191208900Y-99036100D02*
X191208900Y-91036100D01*
X191208900Y-91036100D02*
X195048900Y-91036100D01*
X195048900Y-91036100D02*
X195048900Y-99036100D01*
X195048900Y-99036100D02*
X191208900Y-99036100D01*
X184772100Y-118789100D02*
X184772100Y-108089100D01*
X173972100Y-118789100D02*
X184772100Y-118789100D01*
X173972100Y-108089100D02*
X173972100Y-118789100D01*
X184772100Y-108089100D02*
X173972100Y-108089100D01*
X185148100Y-108089100D02*
X185148100Y-118789100D01*
X195948100Y-118789100D02*
X195948100Y-108089100D01*
X185148100Y-118789100D02*
X195948100Y-118789100D01*
X195948100Y-108089100D02*
X185148100Y-108089100D01*
X186179700Y-99087900D02*
X190019700Y-99087900D01*
X190019700Y-107087900D02*
X186179700Y-107087900D01*
X190019700Y-99087900D02*
X190019700Y-107087900D01*
X186179700Y-107087900D02*
X186179700Y-99087900D01*
X175782800Y-122815100D02*
X175782800Y-121355100D01*
X175782800Y-121355100D02*
X179082800Y-121355100D01*
X179082800Y-121355100D02*
X179082800Y-122815100D01*
X179082800Y-122815100D02*
X175782800Y-122815100D01*
X189293400Y-122815100D02*
X189293400Y-121355100D01*
X189293400Y-121355100D02*
X192593400Y-121355100D01*
X192593400Y-121355100D02*
X192593400Y-122815100D01*
X192593400Y-122815100D02*
X189293400Y-122815100D01*
X191818500Y-126142500D02*
X188518500Y-126142500D01*
X188518500Y-126142500D02*
X188518500Y-124682500D01*
X188518500Y-124682500D02*
X191818500Y-124682500D01*
X191818500Y-124682500D02*
X191818500Y-126142500D01*
X195171500Y-126142500D02*
X191871500Y-126142500D01*
X191871500Y-124682500D02*
X195171500Y-124682500D01*
X195171500Y-124682500D02*
X195171500Y-126142500D01*
X191871500Y-126142500D02*
X191871500Y-124682500D01*
X191806000Y-126206500D02*
X191806000Y-127666500D01*
X191806000Y-127666500D02*
X188506000Y-127666500D01*
X188506000Y-126206500D02*
X191806000Y-126206500D01*
X188506000Y-127666500D02*
X188506000Y-126206500D01*
X165496500Y-128316000D02*
X162096500Y-128316000D01*
X162096500Y-132156000D02*
X165496500Y-132156000D01*
X165496500Y-132156000D02*
X165496500Y-128316000D01*
X162096500Y-128316000D02*
X162096500Y-132156000D01*
X163634000Y-128243500D02*
X160334000Y-128243500D01*
X160334000Y-126783500D02*
X163634000Y-126783500D01*
X160334000Y-128243500D02*
X160334000Y-126783500D01*
X163634000Y-126783500D02*
X163634000Y-128243500D01*
X163634000Y-126713500D02*
X160334000Y-126713500D01*
X163634000Y-125253500D02*
X163634000Y-126713500D01*
X160334000Y-126713500D02*
X160334000Y-125253500D01*
X160334000Y-125253500D02*
X163634000Y-125253500D01*
X156033000Y-141200900D02*
X158533000Y-141200900D01*
X156033000Y-142600900D02*
X156033000Y-141200900D01*
X158533000Y-142600900D02*
X156033000Y-142600900D01*
X158533000Y-141200900D02*
X158533000Y-142600900D01*
X148459300Y-142730100D02*
X140059300Y-142730100D01*
X140059300Y-142730100D02*
X140059300Y-149480100D01*
X140059300Y-149480100D02*
X148459300Y-149480100D01*
X148459300Y-149480100D02*
X148459300Y-142730100D01*
X165566500Y-132153500D02*
X171266500Y-132153500D01*
X171266500Y-132153500D02*
X171266500Y-123653500D01*
X165566500Y-123653500D02*
X165566500Y-132153500D01*
X171266500Y-123653500D02*
X165566500Y-123653500D01*
X152856500Y-132183500D02*
X158556500Y-132183500D01*
X158556500Y-132183500D02*
X158556500Y-123683500D01*
X158556500Y-123683500D02*
X152856500Y-123683500D01*
X152856500Y-123683500D02*
X152856500Y-132183500D01*
X165704900Y-142590800D02*
X164244900Y-142590800D01*
X164244900Y-139290800D02*
X165704900Y-139290800D01*
X165704900Y-139290800D02*
X165704900Y-142590800D01*
X164244900Y-142590800D02*
X164244900Y-139290800D01*
X164328000Y-136140900D02*
X164328000Y-134680900D01*
X167628000Y-136140900D02*
X164328000Y-136140900D01*
X164328000Y-134680900D02*
X167628000Y-134680900D01*
X167628000Y-134680900D02*
X167628000Y-136140900D01*
X164328000Y-137728900D02*
X167628000Y-137728900D01*
X167628000Y-137728900D02*
X167628000Y-139188900D01*
X167628000Y-139188900D02*
X164328000Y-139188900D01*
X164328000Y-139188900D02*
X164328000Y-137728900D01*
X167628000Y-137664900D02*
X164328000Y-137664900D01*
X164328000Y-136204900D02*
X167628000Y-136204900D01*
X167628000Y-136204900D02*
X167628000Y-137664900D01*
X164328000Y-137664900D02*
X164328000Y-136204900D01*
X167304900Y-142597300D02*
X165844900Y-142597300D01*
X167304900Y-139297300D02*
X167304900Y-142597300D01*
X165844900Y-139297300D02*
X167304900Y-139297300D01*
X165844900Y-142597300D02*
X165844900Y-139297300D01*
X155676500Y-137815500D02*
X157136500Y-137815500D01*
X157136500Y-137815500D02*
X157136500Y-141115500D01*
X157136500Y-141115500D02*
X155676500Y-141115500D01*
X155676500Y-141115500D02*
X155676500Y-137815500D01*
X155826500Y-142964100D02*
X155826500Y-146164100D01*
X155826500Y-142964100D02*
X153926500Y-142964100D01*
X155826500Y-146164100D02*
X153926500Y-146164100D01*
X153926500Y-142964100D02*
X153926500Y-146164100D01*
X161133000Y-142600900D02*
X158633000Y-142600900D01*
X161133000Y-141200900D02*
X161133000Y-142600900D01*
X158633000Y-142600900D02*
X158633000Y-141200900D01*
X158633000Y-141200900D02*
X161133000Y-141200900D01*
X161343000Y-142600900D02*
X161343000Y-141200900D01*
X161343000Y-141200900D02*
X163843000Y-141200900D01*
X163843000Y-142600900D02*
X161343000Y-142600900D01*
X163843000Y-141200900D02*
X163843000Y-142600900D01*
X206610500Y-123236500D02*
X195330500Y-123236500D01*
X195330500Y-147236500D02*
X175110500Y-147236500D01*
X206610500Y-123236500D02*
X206610500Y-151736500D01*
X175110500Y-127736500D02*
X175110500Y-147236500D01*
X195330500Y-147236500D02*
X195330500Y-151736500D01*
X206610500Y-151736500D02*
X195330500Y-151736500D01*
X175110500Y-127736500D02*
X195330500Y-127736500D01*
X195330500Y-123236500D02*
X195330500Y-127736500D01*
X158636500Y-128326000D02*
X158636500Y-132166000D01*
X162036500Y-132166000D02*
X162036500Y-128326000D01*
X158636500Y-132166000D02*
X162036500Y-132166000D01*
X162036500Y-128326000D02*
X158636500Y-128326000D01*
X177155700Y-123332300D02*
X188355700Y-123332300D01*
X188355700Y-126882300D02*
X177155700Y-126882300D01*
X177155700Y-126882300D02*
X177155700Y-123332300D01*
X188355700Y-123332300D02*
X188355700Y-126882300D01*
X182642100Y-150961500D02*
X188792100Y-150961500D01*
X182642100Y-147361500D02*
X182642100Y-150961500D01*
X188792100Y-147361500D02*
X182642100Y-147361500D01*
X188792100Y-150961500D02*
X188792100Y-147361500D01*
X158779000Y-134695500D02*
X158779000Y-132455500D01*
X158779000Y-132455500D02*
X163679000Y-132455500D01*
X163679000Y-132455500D02*
X163679000Y-134695500D01*
X163679000Y-134695500D02*
X158779000Y-134695500D01*
X182428000Y-149354500D02*
X182428000Y-151254500D01*
X182428000Y-151254500D02*
X178728000Y-151254500D01*
X178728000Y-151254500D02*
X178728000Y-149354500D01*
X178728000Y-149354500D02*
X182428000Y-149354500D01*
X178728000Y-149222500D02*
X178728000Y-147322500D01*
X182428000Y-147322500D02*
X182428000Y-149222500D01*
X178728000Y-147322500D02*
X182428000Y-147322500D01*
X182428000Y-149222500D02*
X178728000Y-149222500D01*
X164083000Y-134840900D02*
X157883000Y-134840900D01*
X164083000Y-141040900D02*
X164083000Y-134840900D01*
X157883000Y-134840900D02*
X157883000Y-141040900D01*
X157883000Y-141040900D02*
X164083000Y-141040900D01*
X195161000Y-127666500D02*
X191861000Y-127666500D01*
X191861000Y-127666500D02*
X191861000Y-126206500D01*
X191861000Y-126206500D02*
X195161000Y-126206500D01*
X195161000Y-126206500D02*
X195161000Y-127666500D01*
X179085800Y-121253900D02*
X174125800Y-121253900D01*
X179085800Y-118953900D02*
X179085800Y-121253900D01*
X174125800Y-118953900D02*
X179085800Y-118953900D01*
X174125800Y-121253900D02*
X174125800Y-118953900D01*
X155533500Y-136358300D02*
X151933500Y-136358300D01*
X151933500Y-142508300D02*
X155533500Y-142508300D01*
X151933500Y-136358300D02*
X151933500Y-142508300D01*
X155533500Y-142508300D02*
X155533500Y-136358300D01*
X174381600Y-134270500D02*
X171081600Y-134270500D01*
X171081600Y-132810500D02*
X174381600Y-132810500D01*
X171081600Y-134270500D02*
X171081600Y-132810500D01*
X174381600Y-132810500D02*
X174381600Y-134270500D01*
X170659000Y-147243500D02*
X167359000Y-147243500D01*
X170659000Y-145783500D02*
X170659000Y-147243500D01*
X167359000Y-145783500D02*
X170659000Y-145783500D01*
X167359000Y-147243500D02*
X167359000Y-145783500D01*
X189976400Y-115525300D02*
X186676400Y-115525300D01*
X189976400Y-114065300D02*
X189976400Y-115525300D01*
X186676400Y-114065300D02*
X189976400Y-114065300D01*
X186676400Y-115525300D02*
X186676400Y-114065300D01*
X180820500Y-90975500D02*
X180820500Y-82125500D01*
X185320500Y-90975500D02*
X180820500Y-90975500D01*
X185320500Y-82125500D02*
X185320500Y-90975500D01*
X180820500Y-82125500D02*
X185320500Y-82125500D01*
X178804200Y-114065300D02*
X178804200Y-115525300D01*
X175504200Y-114065300D02*
X178804200Y-114065300D01*
X178804200Y-115525300D02*
X175504200Y-115525300D01*
X175504200Y-115525300D02*
X175504200Y-114065300D01*
X195378900Y-82125500D02*
X195378900Y-90975500D01*
X190878900Y-90975500D02*
X190878900Y-82125500D01*
X190878900Y-82125500D02*
X195378900Y-82125500D01*
X195378900Y-90975500D02*
X190878900Y-90975500D01*
X175050700Y-143519300D02*
X175050700Y-139919300D01*
X168900700Y-143519300D02*
X175050700Y-143519300D01*
X168900700Y-139919300D02*
X168900700Y-143519300D01*
X175050700Y-139919300D02*
X168900700Y-139919300D01*
X194434500Y-147392500D02*
X194434500Y-151092500D01*
X192534500Y-151092500D02*
X192534500Y-147392500D01*
X194434500Y-151092500D02*
X192534500Y-151092500D01*
X192534500Y-147392500D02*
X194434500Y-147392500D01*
X155953000Y-142730900D02*
X155953000Y-152150900D01*
X166593000Y-142730900D02*
X166593000Y-152150900D01*
X155953000Y-142730900D02*
X166593000Y-142730900D01*
X155953000Y-152150900D02*
X166593000Y-152150900D01*
X191045200Y-115525300D02*
X191045200Y-114065300D01*
X194345200Y-115525300D02*
X191045200Y-115525300D01*
X191045200Y-114065300D02*
X194345200Y-114065300D01*
X194345200Y-114065300D02*
X194345200Y-115525300D01*
X190349700Y-90975500D02*
X185849700Y-90975500D01*
X190349700Y-82125500D02*
X190349700Y-90975500D01*
X185849700Y-90975500D02*
X185849700Y-82125500D01*
X185849700Y-82125500D02*
X190349700Y-82125500D01*
X148536500Y-92953500D02*
X148536500Y-102953500D01*
X138536500Y-102953500D02*
X138536500Y-92953500D01*
X148536500Y-92953500D02*
X138536500Y-92953500D01*
X138536500Y-102953500D02*
X148536500Y-102953500D01*
X152856500Y-132285500D02*
X154756500Y-132285500D01*
X152856500Y-135985500D02*
X152856500Y-132285500D01*
X154756500Y-135985500D02*
X152856500Y-135985500D01*
X154756500Y-132285500D02*
X154756500Y-135985500D01*
X175376500Y-147323500D02*
X175376500Y-151163500D01*
X167376500Y-151163500D02*
X167376500Y-147323500D01*
X175376500Y-151163500D02*
X167376500Y-151163500D01*
X167376500Y-147323500D02*
X175376500Y-147323500D01*
X174393100Y-134384000D02*
X172393100Y-134384000D01*
X172393100Y-134384000D02*
X172393100Y-136784000D01*
X172393100Y-136784000D02*
X174393100Y-136784000D01*
X174393100Y-136784000D02*
X174393100Y-134384000D01*
X174431600Y-138334500D02*
X171131600Y-138334500D01*
X171131600Y-136874500D02*
X174431600Y-136874500D01*
X174431600Y-136874500D02*
X174431600Y-138334500D01*
X171131600Y-138334500D02*
X171131600Y-136874500D01*
X139734500Y-145825521D02*
G75*
G03*
X139734500Y-145825521I-3400000J0D01*
G01*
X180342100Y-82125500D02*
X180342100Y-90975500D01*
X180342100Y-90975500D02*
X175842100Y-90975500D01*
X175842100Y-82125500D02*
X180342100Y-82125500D01*
X175842100Y-90975500D02*
X175842100Y-82125500D01*
X179873000Y-115525300D02*
X179873000Y-114065300D01*
X179873000Y-114065300D02*
X183173000Y-114065300D01*
X183173000Y-114065300D02*
X183173000Y-115525300D01*
X183173000Y-115525300D02*
X179873000Y-115525300D01*
X171131600Y-138398500D02*
X174431600Y-138398500D01*
X174431600Y-138398500D02*
X174431600Y-139858500D01*
X174431600Y-139858500D02*
X171131600Y-139858500D01*
X171131600Y-139858500D02*
X171131600Y-138398500D01*
X192357500Y-151092500D02*
X190457500Y-151092500D01*
X190457500Y-151092500D02*
X190457500Y-147392500D01*
X190457500Y-147392500D02*
X192357500Y-147392500D01*
X192357500Y-147392500D02*
X192357500Y-151092500D01*
X155816500Y-149576000D02*
X154356500Y-149576000D01*
X154356500Y-149576000D02*
X154356500Y-146276000D01*
X155816500Y-146276000D02*
X155816500Y-149576000D01*
X154356500Y-146276000D02*
X155816500Y-146276000D01*
M02*
