G04 #@! TF.GenerationSoftware,KiCad,Pcbnew,(6.0.4)*
G04 #@! TF.CreationDate,2022-06-03T19:01:50+02:00*
G04 #@! TF.ProjectId,hamodule,68616d6f-6475-46c6-952e-6b696361645f,rev?*
G04 #@! TF.SameCoordinates,Original*
G04 #@! TF.FileFunction,Copper,L2,Bot*
G04 #@! TF.FilePolarity,Positive*
%FSLAX46Y46*%
G04 Gerber Fmt 4.6, Leading zero omitted, Abs format (unit mm)*
G04 Created by KiCad (PCBNEW (6.0.4)) date 2022-06-03 19:01:50*
%MOMM*%
%LPD*%
G01*
G04 APERTURE LIST*
G04 Aperture macros list*
%AMRoundRect*
0 Rectangle with rounded corners*
0 $1 Rounding radius*
0 $2 $3 $4 $5 $6 $7 $8 $9 X,Y pos of 4 corners*
0 Add a 4 corners polygon primitive as box body*
4,1,4,$2,$3,$4,$5,$6,$7,$8,$9,$2,$3,0*
0 Add four circle primitives for the rounded corners*
1,1,$1+$1,$2,$3*
1,1,$1+$1,$4,$5*
1,1,$1+$1,$6,$7*
1,1,$1+$1,$8,$9*
0 Add four rect primitives between the rounded corners*
20,1,$1+$1,$2,$3,$4,$5,0*
20,1,$1+$1,$4,$5,$6,$7,0*
20,1,$1+$1,$6,$7,$8,$9,0*
20,1,$1+$1,$8,$9,$2,$3,0*%
G04 Aperture macros list end*
G04 #@! TA.AperFunction,ComponentPad*
%ADD10R,1.700000X1.700000*%
G04 #@! TD*
G04 #@! TA.AperFunction,ComponentPad*
%ADD11O,1.700000X1.700000*%
G04 #@! TD*
G04 #@! TA.AperFunction,ComponentPad*
%ADD12C,1.800000*%
G04 #@! TD*
G04 #@! TA.AperFunction,ComponentPad*
%ADD13RoundRect,0.250000X-0.600000X-0.750000X0.600000X-0.750000X0.600000X0.750000X-0.600000X0.750000X0*%
G04 #@! TD*
G04 #@! TA.AperFunction,ComponentPad*
%ADD14O,1.700000X2.000000*%
G04 #@! TD*
G04 #@! TA.AperFunction,ComponentPad*
%ADD15R,1.650000X1.650000*%
G04 #@! TD*
G04 #@! TA.AperFunction,ComponentPad*
%ADD16C,1.650000*%
G04 #@! TD*
G04 #@! TA.AperFunction,ComponentPad*
%ADD17R,1.905000X2.000000*%
G04 #@! TD*
G04 #@! TA.AperFunction,ComponentPad*
%ADD18O,1.905000X2.000000*%
G04 #@! TD*
G04 #@! TA.AperFunction,ComponentPad*
%ADD19C,2.000000*%
G04 #@! TD*
G04 #@! TA.AperFunction,ComponentPad*
%ADD20O,1.950000X1.700000*%
G04 #@! TD*
G04 #@! TA.AperFunction,ComponentPad*
%ADD21RoundRect,0.625000X0.625000X0.625000X-0.625000X0.625000X-0.625000X-0.625000X0.625000X-0.625000X0*%
G04 #@! TD*
G04 #@! TA.AperFunction,ComponentPad*
%ADD22C,5.500000*%
G04 #@! TD*
G04 #@! TA.AperFunction,ComponentPad*
%ADD23R,1.600000X2.400000*%
G04 #@! TD*
G04 #@! TA.AperFunction,ComponentPad*
%ADD24O,1.600000X2.400000*%
G04 #@! TD*
G04 #@! TA.AperFunction,ComponentPad*
%ADD25C,1.408000*%
G04 #@! TD*
G04 #@! TA.AperFunction,ComponentPad*
%ADD26O,1.000000X2.100000*%
G04 #@! TD*
G04 #@! TA.AperFunction,ComponentPad*
%ADD27O,1.000000X1.600000*%
G04 #@! TD*
G04 #@! TA.AperFunction,ComponentPad*
%ADD28R,1.600000X1.600000*%
G04 #@! TD*
G04 #@! TA.AperFunction,ComponentPad*
%ADD29C,1.600000*%
G04 #@! TD*
G04 #@! TA.AperFunction,SMDPad,CuDef*
%ADD30C,2.000000*%
G04 #@! TD*
G04 #@! TA.AperFunction,ViaPad*
%ADD31C,0.800000*%
G04 #@! TD*
G04 #@! TA.AperFunction,ViaPad*
%ADD32C,0.500000*%
G04 #@! TD*
G04 #@! TA.AperFunction,Conductor*
%ADD33C,1.000000*%
G04 #@! TD*
G04 #@! TA.AperFunction,Conductor*
%ADD34C,3.000000*%
G04 #@! TD*
G04 #@! TA.AperFunction,Conductor*
%ADD35C,2.000000*%
G04 #@! TD*
G04 #@! TA.AperFunction,Conductor*
%ADD36C,0.250000*%
G04 #@! TD*
G04 #@! TA.AperFunction,Conductor*
%ADD37C,0.400000*%
G04 #@! TD*
G04 #@! TA.AperFunction,Conductor*
%ADD38C,1.500000*%
G04 #@! TD*
G04 APERTURE END LIST*
G36*
X179371500Y-106711500D02*
G01*
X177371500Y-106711500D01*
X177371500Y-102711500D01*
X179371500Y-102711500D01*
X179371500Y-106711500D01*
G37*
D10*
X150558500Y-144538700D03*
D11*
X150558500Y-147078700D03*
D12*
X128386500Y-94623500D03*
X135886500Y-96256830D03*
D13*
X143009300Y-138603500D03*
D14*
X145509300Y-138603500D03*
D10*
X155080500Y-119965500D03*
D11*
X155080500Y-117425500D03*
D15*
X129136100Y-109443500D03*
D16*
X129136100Y-129443500D03*
X149136100Y-124443500D03*
X149136100Y-114443500D03*
D17*
X128960000Y-139600000D03*
D18*
X131500000Y-139600000D03*
X134040000Y-139600000D03*
D19*
X154100000Y-92300000D03*
X154100000Y-99920000D03*
D10*
X154100000Y-110080000D03*
D20*
X154100000Y-107540000D03*
D19*
X159500000Y-92300000D03*
X159500000Y-99920000D03*
D10*
X159500000Y-110080000D03*
D20*
X159500000Y-107540000D03*
D19*
X170300000Y-92300000D03*
X170300000Y-99920000D03*
D10*
X170300000Y-110080000D03*
D20*
X170300000Y-107540000D03*
D21*
X169146500Y-78953500D03*
X169146500Y-70753501D03*
X164146500Y-78953500D03*
X164146500Y-70753501D03*
X159146500Y-78953500D03*
X159146500Y-70753501D03*
X154146500Y-78953500D03*
X154146500Y-70753501D03*
X145500100Y-78977099D03*
X145500100Y-70777100D03*
X140500100Y-78977099D03*
X140500100Y-70777100D03*
X193106500Y-78913499D03*
X193106500Y-70713500D03*
X188106500Y-78913499D03*
X188106500Y-70713500D03*
X183106500Y-78913499D03*
X183106500Y-70713500D03*
X178106500Y-78913499D03*
X178106500Y-70713500D03*
D19*
X143546500Y-85283500D03*
X143536500Y-90363500D03*
D22*
X198564500Y-85407500D03*
X132270500Y-85407500D03*
D19*
X164900000Y-92300000D03*
X164900000Y-99920000D03*
D10*
X164900000Y-110080000D03*
D20*
X164900000Y-107540000D03*
D22*
X132256500Y-76503500D03*
D23*
X185751274Y-110118320D03*
D24*
X183211274Y-110118320D03*
X180671274Y-110118320D03*
X178131274Y-110118320D03*
X178131274Y-117738320D03*
X180671274Y-117738320D03*
X183211274Y-117738320D03*
X185751274Y-117738320D03*
D23*
X196927274Y-110118320D03*
D24*
X194387274Y-110118320D03*
X191847274Y-110118320D03*
X189307274Y-110118320D03*
X189307274Y-117738320D03*
X191847274Y-117738320D03*
X194387274Y-117738320D03*
X196927274Y-117738320D03*
D13*
X143009300Y-145580100D03*
D14*
X145509300Y-145580100D03*
D10*
X178955700Y-125082300D03*
D11*
X181495700Y-125082300D03*
X184035700Y-125082300D03*
X186575700Y-125082300D03*
D10*
X184442100Y-149161500D03*
D11*
X186982100Y-149161500D03*
D10*
X153733500Y-140708300D03*
D11*
X153733500Y-138168300D03*
D25*
X183070500Y-89090500D03*
X183070500Y-84010500D03*
X193128900Y-89090500D03*
X193128900Y-84010500D03*
D10*
X170700700Y-141719300D03*
D11*
X173240700Y-141719300D03*
D25*
X154100000Y-89180000D03*
X154100000Y-84100000D03*
D26*
X165593000Y-144870900D03*
D27*
X156953000Y-149050900D03*
D26*
X156953000Y-144870900D03*
D27*
X165593000Y-149050900D03*
D25*
X188099700Y-89090500D03*
X188099700Y-84010500D03*
D19*
X143546500Y-95413500D03*
X143536500Y-100493500D03*
D25*
X164900000Y-89140000D03*
X164900000Y-84060000D03*
D28*
X135400000Y-143400000D03*
D29*
X135400000Y-145900000D03*
D25*
X178092100Y-89090500D03*
X178092100Y-84010500D03*
X170300000Y-89140000D03*
X170300000Y-84060000D03*
D10*
X174000000Y-121600000D03*
D11*
X171460000Y-121600000D03*
X168920000Y-121600000D03*
X166380000Y-121600000D03*
D25*
X159500000Y-89140000D03*
X159500000Y-84060000D03*
D30*
X178371500Y-102711500D03*
X178371500Y-106711500D03*
D31*
X175900000Y-117000000D03*
X168719500Y-134048500D03*
X167703500Y-134048500D03*
X191731900Y-124421900D03*
X192671700Y-124432420D03*
X190836500Y-130523500D03*
X168700000Y-132700000D03*
D32*
X160503000Y-145224500D03*
X161607500Y-145224500D03*
D31*
X170192700Y-143497300D03*
X161536500Y-131663500D03*
X160296500Y-129123000D03*
X158966500Y-132033500D03*
X158983000Y-146300784D03*
X163600000Y-146300000D03*
X183172100Y-135851900D03*
X185407300Y-139712700D03*
X187337700Y-139712700D03*
X185559700Y-133311900D03*
X190500000Y-136766300D03*
X162116300Y-136856500D03*
X160926500Y-139103900D03*
X188400000Y-132270500D03*
X157356500Y-142843500D03*
X186500000Y-132270500D03*
X153800000Y-133100000D03*
X182181500Y-136740900D03*
X159786500Y-139103900D03*
X188201300Y-126403100D03*
X155106500Y-150003500D03*
X162106500Y-139173900D03*
X193856500Y-144343500D03*
X171912632Y-125487368D03*
X184518300Y-140652500D03*
X171500000Y-136300000D03*
X172212000Y-146812000D03*
X193865500Y-130644900D03*
X166738300Y-143116300D03*
X171900000Y-131300000D03*
X159796500Y-137999500D03*
X160922500Y-137974100D03*
X160922500Y-136856500D03*
X173228000Y-146812000D03*
X189600000Y-135826500D03*
X189600000Y-137700000D03*
X187490100Y-133311900D03*
X188277500Y-140652500D03*
X157612099Y-140708899D03*
X171196000Y-146812000D03*
X184600000Y-132270500D03*
X168100000Y-136100000D03*
X156324300Y-142862300D03*
X182181500Y-138620500D03*
X153826500Y-148833500D03*
X159804900Y-136881900D03*
X182181500Y-134861300D03*
X165773100Y-142811500D03*
X164021100Y-141900900D03*
X183172100Y-137731500D03*
X190500000Y-134900000D03*
X190500000Y-138700000D03*
X186397900Y-140652500D03*
X162090900Y-137948700D03*
X157083980Y-136013900D03*
X169176700Y-145300700D03*
X169659300Y-144411700D03*
X156066500Y-136005500D03*
D33*
X166226500Y-128143500D02*
X166346500Y-128023500D01*
X191731900Y-124421900D02*
X191731900Y-125372220D01*
X175900000Y-117000000D02*
X175900000Y-127900000D01*
X170596500Y-128023500D02*
X176023500Y-128023500D01*
X189080620Y-128023500D02*
X190423560Y-126680560D01*
X191731900Y-125372220D02*
X190423560Y-126680560D01*
X150558500Y-131231500D02*
X150558500Y-144538700D01*
X192671700Y-124432420D02*
X191742420Y-124432420D01*
X167703500Y-134048500D02*
X166226500Y-132571500D01*
X166226500Y-131334500D02*
X166226500Y-128143500D01*
X153766500Y-128023500D02*
X150558500Y-131231500D01*
X191742420Y-124432420D02*
X191731900Y-124421900D01*
X170596500Y-128023500D02*
X166346500Y-128023500D01*
X176023500Y-128023500D02*
X189080620Y-128023500D01*
X166226500Y-132571500D02*
X166226500Y-131334500D01*
X192671700Y-124432420D02*
X191731900Y-125372220D01*
X167703500Y-134048500D02*
X168719500Y-134048500D01*
X166346500Y-128023500D02*
X153766500Y-128023500D01*
X175900000Y-127900000D02*
X176023500Y-128023500D01*
D34*
X140500100Y-70777100D02*
X140500100Y-75018900D01*
X128386500Y-94623500D02*
X128386500Y-103303500D01*
X130469915Y-91267293D02*
X128386500Y-93350708D01*
X138020011Y-81457188D02*
X138020011Y-87789027D01*
D35*
X173824900Y-93814900D02*
X173824900Y-77963162D01*
D34*
X128386500Y-93350708D02*
X128386500Y-94623500D01*
D35*
X178371500Y-102711500D02*
X178371500Y-98361500D01*
X178371500Y-98361500D02*
X173824900Y-93814900D01*
D34*
X140500100Y-75018900D02*
X140500100Y-78977099D01*
X128386500Y-103303500D02*
X128386500Y-108693900D01*
X138020011Y-87789027D02*
X134541745Y-91267293D01*
D35*
X170880638Y-75018900D02*
X140500100Y-75018900D01*
D34*
X134541745Y-91267293D02*
X130469915Y-91267293D01*
D35*
X173824900Y-77963162D02*
X170880638Y-75018900D01*
D34*
X128386500Y-108693900D02*
X129136100Y-109443500D01*
X140500100Y-78977099D02*
X138020011Y-81457188D01*
D33*
X172054944Y-132700000D02*
X168700000Y-132700000D01*
X174231444Y-130523500D02*
X172054944Y-132700000D01*
X190836500Y-130523500D02*
X174231444Y-130523500D01*
D36*
X160503000Y-145224500D02*
X161607500Y-145224500D01*
D37*
X161536500Y-131663500D02*
X169125900Y-139252900D01*
X169583100Y-143497300D02*
X170192700Y-143497300D01*
X169125900Y-143040100D02*
X169583100Y-143497300D01*
X169125900Y-139252900D02*
X169125900Y-143040100D01*
X158966500Y-130453000D02*
X160296500Y-129123000D01*
X158966500Y-132033500D02*
X158966500Y-130453000D01*
X159300000Y-147800000D02*
X163200000Y-147800000D01*
X163200000Y-147800000D02*
X163543000Y-147457000D01*
X158983000Y-147483000D02*
X159300000Y-147800000D01*
X163543000Y-147457000D02*
X163543000Y-146300900D01*
X158983000Y-146300784D02*
X158983000Y-147483000D01*
D35*
X149136100Y-124443500D02*
X149136100Y-121810878D01*
X149136100Y-121810878D02*
X153521478Y-117425500D01*
X153521478Y-117425500D02*
X155080500Y-117425500D01*
D37*
X163774375Y-135818625D02*
X167926860Y-139971110D01*
X157083980Y-136013900D02*
X157279255Y-135818625D01*
X167926860Y-139971110D02*
X167926860Y-144050860D01*
X167926860Y-144050860D02*
X169176700Y-145300700D01*
X157279255Y-135818625D02*
X163774375Y-135818625D01*
D33*
X156953000Y-144870900D02*
X156953000Y-149050900D01*
X165593000Y-149050900D02*
X165593000Y-144870900D01*
D38*
X194387274Y-107887274D02*
X194387274Y-110118320D01*
X183211274Y-110118320D02*
X183211274Y-106811726D01*
X180671274Y-107028726D02*
X180988500Y-106711500D01*
X180988500Y-106711500D02*
X183311500Y-106711500D01*
X193211500Y-106711500D02*
X194387274Y-107887274D01*
X191988500Y-106711500D02*
X193211500Y-106711500D01*
X183311500Y-106711500D02*
X191988500Y-106711500D01*
X178371500Y-106711500D02*
X180988500Y-106711500D01*
X191847274Y-106852726D02*
X191988500Y-106711500D01*
X180671274Y-110118320D02*
X180671274Y-107028726D01*
X183211274Y-106811726D02*
X183311500Y-106711500D01*
X191847274Y-110118320D02*
X191847274Y-106852726D01*
D37*
X169598850Y-144360900D02*
X169710100Y-144360900D01*
X156066500Y-136005500D02*
X156066500Y-135900700D01*
X156752811Y-135214389D02*
X164017989Y-135214389D01*
X164017989Y-135214389D02*
X168526380Y-139722780D01*
X168526380Y-143288430D02*
X169649650Y-144411700D01*
X169649650Y-144411700D02*
X169659300Y-144411700D01*
X168526380Y-139722780D02*
X168526380Y-143288430D01*
X156066500Y-135900700D02*
X156752811Y-135214389D01*
G04 #@! TA.AperFunction,Conductor*
G36*
X172475261Y-111532776D02*
G01*
X172543369Y-111552822D01*
X172589828Y-111606507D01*
X172601177Y-111659719D01*
X172590444Y-113093500D01*
X172604241Y-113093494D01*
X172604243Y-113093494D01*
X174387997Y-113092663D01*
X174746211Y-113092496D01*
X174814341Y-113112466D01*
X174841000Y-113135417D01*
X174945464Y-113254536D01*
X175147763Y-113431947D01*
X175371488Y-113581435D01*
X175375187Y-113583259D01*
X175375192Y-113583262D01*
X175609116Y-113698620D01*
X175612811Y-113700442D01*
X175616709Y-113701765D01*
X175616711Y-113701766D01*
X175863693Y-113785606D01*
X175863697Y-113785607D01*
X175867603Y-113786933D01*
X175871647Y-113787737D01*
X175871653Y-113787739D01*
X176127461Y-113838622D01*
X176127464Y-113838622D01*
X176131504Y-113839426D01*
X176135616Y-113839696D01*
X176135620Y-113839696D01*
X176224486Y-113845520D01*
X176366529Y-113854830D01*
X176379188Y-113856306D01*
X176387448Y-113857696D01*
X176393941Y-113857775D01*
X176395140Y-113857790D01*
X176395143Y-113857790D01*
X176400000Y-113857849D01*
X176427624Y-113853893D01*
X176445486Y-113852620D01*
X198245610Y-113852620D01*
X198266520Y-113854367D01*
X198286302Y-113857696D01*
X198292578Y-113857772D01*
X198293989Y-113857790D01*
X198293993Y-113857790D01*
X198298854Y-113857849D01*
X198303671Y-113857159D01*
X198303674Y-113857159D01*
X198308996Y-113856397D01*
X198315878Y-113855604D01*
X198409440Y-113847422D01*
X198504823Y-113839081D01*
X198704534Y-113785575D01*
X198709515Y-113783252D01*
X198709519Y-113783251D01*
X198859458Y-113713338D01*
X198891920Y-113698202D01*
X198991559Y-113628437D01*
X199058834Y-113605750D01*
X199127694Y-113623036D01*
X199176277Y-113674807D01*
X199189828Y-113731521D01*
X199199370Y-123000370D01*
X199179438Y-123068512D01*
X199125830Y-123115060D01*
X199073370Y-123126500D01*
X194881500Y-123126500D01*
X194881500Y-151067317D01*
X194861498Y-151135438D01*
X194807842Y-151181931D01*
X194755506Y-151193317D01*
X161839100Y-151195000D01*
X127748118Y-151195000D01*
X127728635Y-151193485D01*
X127714044Y-151191201D01*
X127714042Y-151191201D01*
X127705180Y-151189814D01*
X127689176Y-151191894D01*
X127688890Y-151191931D01*
X127664317Y-151192706D01*
X127441857Y-151177957D01*
X127425526Y-151175795D01*
X127181001Y-151126981D01*
X127165092Y-151122707D01*
X126929019Y-151042408D01*
X126913813Y-151036100D01*
X126690226Y-150925683D01*
X126675966Y-150917440D01*
X126468703Y-150778804D01*
X126455638Y-150768770D01*
X126268224Y-150604270D01*
X126256598Y-150592634D01*
X126092250Y-150405094D01*
X126082227Y-150392024D01*
X126043931Y-150334673D01*
X125943751Y-150184647D01*
X125935521Y-150170383D01*
X125911585Y-150121816D01*
X125825288Y-149946722D01*
X125818987Y-149931502D01*
X125738872Y-149695365D01*
X125734611Y-149679453D01*
X125711179Y-149561594D01*
X125685987Y-149434882D01*
X125683839Y-149418555D01*
X125683356Y-149411173D01*
X125682668Y-149400669D01*
X155944500Y-149400669D01*
X155944800Y-149403725D01*
X155944800Y-149403732D01*
X155950537Y-149462240D01*
X155958920Y-149547733D01*
X156016084Y-149737069D01*
X156108934Y-149911696D01*
X156137501Y-149946722D01*
X156230040Y-150060187D01*
X156230043Y-150060190D01*
X156233935Y-150064962D01*
X156238682Y-150068889D01*
X156238684Y-150068891D01*
X156381575Y-150187101D01*
X156381579Y-150187103D01*
X156386325Y-150191030D01*
X156560299Y-150285098D01*
X156749232Y-150343582D01*
X156755357Y-150344226D01*
X156755358Y-150344226D01*
X156939796Y-150363611D01*
X156939798Y-150363611D01*
X156945925Y-150364255D01*
X157028424Y-150356747D01*
X157136749Y-150346889D01*
X157136752Y-150346888D01*
X157142888Y-150346330D01*
X157148794Y-150344592D01*
X157148798Y-150344591D01*
X157253924Y-150313651D01*
X157332619Y-150290490D01*
X157338077Y-150287637D01*
X157338081Y-150287635D01*
X157428853Y-150240180D01*
X157507890Y-150198860D01*
X157662025Y-150074932D01*
X157789154Y-149923426D01*
X157792121Y-149918028D01*
X157792125Y-149918023D01*
X157881467Y-149755508D01*
X157884433Y-149750113D01*
X157886846Y-149742508D01*
X157942373Y-149567464D01*
X157942373Y-149567463D01*
X157944235Y-149561594D01*
X157961500Y-149407673D01*
X157961500Y-146818731D01*
X157981502Y-146750610D01*
X158035158Y-146704117D01*
X158105432Y-146694013D01*
X158170012Y-146723507D01*
X158196619Y-146755731D01*
X158238579Y-146828407D01*
X158243960Y-146837728D01*
X158248379Y-146842636D01*
X158250436Y-146845467D01*
X158274295Y-146912335D01*
X158274500Y-146919528D01*
X158274500Y-147454088D01*
X158274208Y-147462658D01*
X158271030Y-147509281D01*
X158270275Y-147520352D01*
X158271580Y-147527829D01*
X158271580Y-147527830D01*
X158281261Y-147583299D01*
X158282223Y-147589821D01*
X158289898Y-147653242D01*
X158292581Y-147660343D01*
X158293222Y-147662952D01*
X158297685Y-147679262D01*
X158298450Y-147681798D01*
X158299757Y-147689284D01*
X158319705Y-147734725D01*
X158325442Y-147747795D01*
X158327935Y-147753904D01*
X158347356Y-147805300D01*
X158350513Y-147813656D01*
X158354817Y-147819919D01*
X158356054Y-147822285D01*
X158364299Y-147837097D01*
X158365632Y-147839351D01*
X158368685Y-147846305D01*
X158397448Y-147883788D01*
X158407579Y-147896991D01*
X158411459Y-147902332D01*
X158443339Y-147948720D01*
X158443344Y-147948725D01*
X158447643Y-147954981D01*
X158453313Y-147960032D01*
X158453314Y-147960034D01*
X158494170Y-147996435D01*
X158499446Y-148001416D01*
X158778550Y-148280520D01*
X158784404Y-148286785D01*
X158822439Y-148330385D01*
X158849440Y-148349361D01*
X158874697Y-148367112D01*
X158879993Y-148371045D01*
X158930282Y-148410477D01*
X158937204Y-148413602D01*
X158939452Y-148414964D01*
X158954185Y-148423368D01*
X158956524Y-148424622D01*
X158962739Y-148428990D01*
X158969815Y-148431749D01*
X158969819Y-148431751D01*
X159022269Y-148452200D01*
X159028334Y-148454749D01*
X159086573Y-148481045D01*
X159094038Y-148482429D01*
X159096582Y-148483226D01*
X159112848Y-148487859D01*
X159115428Y-148488521D01*
X159122509Y-148491282D01*
X159130042Y-148492274D01*
X159130043Y-148492274D01*
X159143261Y-148494014D01*
X159185857Y-148499622D01*
X159192355Y-148500650D01*
X159255187Y-148512296D01*
X159262767Y-148511859D01*
X159262768Y-148511859D01*
X159317398Y-148508709D01*
X159324651Y-148508500D01*
X163171088Y-148508500D01*
X163179658Y-148508792D01*
X163229776Y-148512209D01*
X163229780Y-148512209D01*
X163237352Y-148512725D01*
X163244829Y-148511420D01*
X163244830Y-148511420D01*
X163271308Y-148506799D01*
X163300303Y-148501738D01*
X163306821Y-148500777D01*
X163370242Y-148493102D01*
X163377343Y-148490419D01*
X163379952Y-148489778D01*
X163396262Y-148485315D01*
X163398798Y-148484550D01*
X163406284Y-148483243D01*
X163464800Y-148457556D01*
X163470904Y-148455065D01*
X163475319Y-148453397D01*
X163498563Y-148444614D01*
X163523548Y-148435173D01*
X163523549Y-148435172D01*
X163530656Y-148432487D01*
X163536919Y-148428183D01*
X163539285Y-148426946D01*
X163554097Y-148418701D01*
X163556351Y-148417368D01*
X163563305Y-148414315D01*
X163614002Y-148375413D01*
X163619332Y-148371541D01*
X163665720Y-148339661D01*
X163665725Y-148339656D01*
X163671981Y-148335357D01*
X163713435Y-148288830D01*
X163718416Y-148283554D01*
X164023535Y-147978436D01*
X164029800Y-147972583D01*
X164067664Y-147939552D01*
X164067665Y-147939551D01*
X164073385Y-147934561D01*
X164110136Y-147882271D01*
X164114028Y-147877029D01*
X164153476Y-147826718D01*
X164156600Y-147819799D01*
X164157988Y-147817507D01*
X164166367Y-147802816D01*
X164167621Y-147800476D01*
X164171990Y-147794261D01*
X164187725Y-147753904D01*
X164195202Y-147734725D01*
X164197759Y-147728642D01*
X164211722Y-147697720D01*
X164224045Y-147670427D01*
X164225430Y-147662954D01*
X164226234Y-147660388D01*
X164230855Y-147644165D01*
X164231520Y-147641573D01*
X164234282Y-147634491D01*
X164242622Y-147571139D01*
X164243654Y-147564623D01*
X164253911Y-147509281D01*
X164255295Y-147501814D01*
X164251709Y-147439620D01*
X164251500Y-147432367D01*
X164251500Y-146982533D01*
X164271502Y-146914412D01*
X164283858Y-146898230D01*
X164339040Y-146836944D01*
X164342339Y-146831231D01*
X164342342Y-146831226D01*
X164349381Y-146819033D01*
X164400764Y-146770040D01*
X164470477Y-146756604D01*
X164536388Y-146782991D01*
X164577570Y-146840823D01*
X164584500Y-146882033D01*
X164584500Y-149400669D01*
X164584800Y-149403725D01*
X164584800Y-149403732D01*
X164590537Y-149462240D01*
X164598920Y-149547733D01*
X164656084Y-149737069D01*
X164748934Y-149911696D01*
X164777501Y-149946722D01*
X164870040Y-150060187D01*
X164870043Y-150060190D01*
X164873935Y-150064962D01*
X164878682Y-150068889D01*
X164878684Y-150068891D01*
X165021575Y-150187101D01*
X165021579Y-150187103D01*
X165026325Y-150191030D01*
X165200299Y-150285098D01*
X165389232Y-150343582D01*
X165395357Y-150344226D01*
X165395358Y-150344226D01*
X165579796Y-150363611D01*
X165579798Y-150363611D01*
X165585925Y-150364255D01*
X165668424Y-150356747D01*
X165776749Y-150346889D01*
X165776752Y-150346888D01*
X165782888Y-150346330D01*
X165788794Y-150344592D01*
X165788798Y-150344591D01*
X165893924Y-150313651D01*
X165972619Y-150290490D01*
X165978077Y-150287637D01*
X165978081Y-150287635D01*
X166068853Y-150240180D01*
X166147890Y-150198860D01*
X166302025Y-150074932D01*
X166314862Y-150059634D01*
X183083600Y-150059634D01*
X183090355Y-150121816D01*
X183141485Y-150258205D01*
X183228839Y-150374761D01*
X183345395Y-150462115D01*
X183481784Y-150513245D01*
X183543966Y-150520000D01*
X185340234Y-150520000D01*
X185402416Y-150513245D01*
X185538805Y-150462115D01*
X185655361Y-150374761D01*
X185742715Y-150258205D01*
X185764899Y-150199029D01*
X185786698Y-150140882D01*
X185829340Y-150084118D01*
X185895902Y-150059418D01*
X185965250Y-150074626D01*
X185999917Y-150102614D01*
X186028350Y-150135438D01*
X186200226Y-150278132D01*
X186393100Y-150390838D01*
X186601792Y-150470530D01*
X186606860Y-150471561D01*
X186606863Y-150471562D01*
X186714117Y-150493383D01*
X186820697Y-150515067D01*
X186825872Y-150515257D01*
X186825874Y-150515257D01*
X187038773Y-150523064D01*
X187038777Y-150523064D01*
X187043937Y-150523253D01*
X187049057Y-150522597D01*
X187049059Y-150522597D01*
X187260388Y-150495525D01*
X187260389Y-150495525D01*
X187265516Y-150494868D01*
X187270466Y-150493383D01*
X187474529Y-150432161D01*
X187474534Y-150432159D01*
X187479484Y-150430674D01*
X187680094Y-150332396D01*
X187861960Y-150202673D01*
X187865787Y-150198860D01*
X188005716Y-150059418D01*
X188020196Y-150044989D01*
X188150553Y-149863577D01*
X188249530Y-149663311D01*
X188314470Y-149449569D01*
X188343629Y-149228090D01*
X188344714Y-149183699D01*
X188345174Y-149164865D01*
X188345174Y-149164861D01*
X188345256Y-149161500D01*
X188326952Y-148938861D01*
X188272531Y-148722202D01*
X188183454Y-148517340D01*
X188126298Y-148428990D01*
X188064922Y-148334117D01*
X188064920Y-148334114D01*
X188062114Y-148329777D01*
X187911770Y-148164551D01*
X187907719Y-148161352D01*
X187907715Y-148161348D01*
X187740514Y-148029300D01*
X187740510Y-148029298D01*
X187736459Y-148026098D01*
X187691748Y-148001416D01*
X187650119Y-147978436D01*
X187540889Y-147918138D01*
X187536020Y-147916414D01*
X187536016Y-147916412D01*
X187335187Y-147845295D01*
X187335183Y-147845294D01*
X187330312Y-147843569D01*
X187325219Y-147842662D01*
X187325216Y-147842661D01*
X187115473Y-147805300D01*
X187115467Y-147805299D01*
X187110384Y-147804394D01*
X187036552Y-147803492D01*
X186892181Y-147801728D01*
X186892179Y-147801728D01*
X186887011Y-147801665D01*
X186666191Y-147835455D01*
X186453856Y-147904857D01*
X186423543Y-147920637D01*
X186277937Y-147996435D01*
X186255707Y-148008007D01*
X186251574Y-148011110D01*
X186251571Y-148011112D01*
X186106715Y-148119873D01*
X186077065Y-148142135D01*
X186020637Y-148201184D01*
X185996383Y-148226564D01*
X185934859Y-148261994D01*
X185863946Y-148258537D01*
X185806160Y-148217291D01*
X185787307Y-148183743D01*
X185745867Y-148073203D01*
X185742715Y-148064795D01*
X185655361Y-147948239D01*
X185538805Y-147860885D01*
X185402416Y-147809755D01*
X185340234Y-147803000D01*
X183543966Y-147803000D01*
X183481784Y-147809755D01*
X183345395Y-147860885D01*
X183228839Y-147948239D01*
X183141485Y-148064795D01*
X183090355Y-148201184D01*
X183083600Y-148263366D01*
X183083600Y-150059634D01*
X166314862Y-150059634D01*
X166429154Y-149923426D01*
X166432121Y-149918028D01*
X166432125Y-149918023D01*
X166521467Y-149755508D01*
X166524433Y-149750113D01*
X166526846Y-149742508D01*
X166582373Y-149567464D01*
X166582373Y-149567463D01*
X166584235Y-149561594D01*
X166601500Y-149407673D01*
X166601500Y-144271131D01*
X166600814Y-144264127D01*
X166591276Y-144166860D01*
X166587080Y-144124067D01*
X166578513Y-144095690D01*
X166531697Y-143940631D01*
X166529916Y-143934731D01*
X166437066Y-143760104D01*
X166339573Y-143640566D01*
X166315960Y-143611613D01*
X166315957Y-143611610D01*
X166312065Y-143606838D01*
X166305724Y-143601592D01*
X166164425Y-143484699D01*
X166164421Y-143484697D01*
X166159675Y-143480770D01*
X165985701Y-143386702D01*
X165796768Y-143328218D01*
X165790643Y-143327574D01*
X165790642Y-143327574D01*
X165606204Y-143308189D01*
X165606202Y-143308189D01*
X165600075Y-143307545D01*
X165529861Y-143313935D01*
X165409251Y-143324911D01*
X165409248Y-143324912D01*
X165403112Y-143325470D01*
X165397206Y-143327208D01*
X165397202Y-143327209D01*
X165292076Y-143358149D01*
X165213381Y-143381310D01*
X165207923Y-143384163D01*
X165207919Y-143384165D01*
X165117147Y-143431620D01*
X165038110Y-143472940D01*
X164883975Y-143596868D01*
X164756846Y-143748374D01*
X164753879Y-143753772D01*
X164753875Y-143753777D01*
X164750397Y-143760104D01*
X164661567Y-143921687D01*
X164659706Y-143927554D01*
X164659705Y-143927556D01*
X164611992Y-144077965D01*
X164601765Y-144110206D01*
X164584500Y-144264127D01*
X164584500Y-144483762D01*
X164564498Y-144551883D01*
X164510842Y-144598376D01*
X164440568Y-144608480D01*
X164431014Y-144606728D01*
X164312370Y-144580208D01*
X164256457Y-144567710D01*
X164250912Y-144567400D01*
X164117756Y-144567400D01*
X163982963Y-144582043D01*
X163864810Y-144621806D01*
X163817796Y-144637628D01*
X163817794Y-144637629D01*
X163811325Y-144639806D01*
X163656095Y-144733077D01*
X163651138Y-144737765D01*
X163651135Y-144737767D01*
X163529473Y-144852818D01*
X163524515Y-144857507D01*
X163520683Y-144863145D01*
X163520680Y-144863149D01*
X163462578Y-144948644D01*
X163422723Y-145007288D01*
X163355470Y-145175434D01*
X163354356Y-145182162D01*
X163354355Y-145182166D01*
X163330553Y-145325944D01*
X163325892Y-145354098D01*
X163325918Y-145354595D01*
X163302960Y-145419206D01*
X163252175Y-145460385D01*
X163149281Y-145506195D01*
X163149274Y-145506199D01*
X163143248Y-145508882D01*
X162988747Y-145621134D01*
X162984326Y-145626044D01*
X162984325Y-145626045D01*
X162899730Y-145719998D01*
X162860960Y-145763056D01*
X162765473Y-145928444D01*
X162706458Y-146110072D01*
X162705768Y-146116633D01*
X162705768Y-146116635D01*
X162696039Y-146209200D01*
X162686496Y-146300000D01*
X162687186Y-146306565D01*
X162705342Y-146479306D01*
X162706458Y-146489928D01*
X162765473Y-146671556D01*
X162768776Y-146677278D01*
X162768777Y-146677279D01*
X162817619Y-146761875D01*
X162834500Y-146824875D01*
X162834500Y-146965500D01*
X162814498Y-147033621D01*
X162760842Y-147080114D01*
X162708500Y-147091500D01*
X159817500Y-147091500D01*
X159749379Y-147071498D01*
X159702886Y-147017842D01*
X159691500Y-146965500D01*
X159691500Y-146919528D01*
X159711502Y-146851407D01*
X159715564Y-146845467D01*
X159717621Y-146842636D01*
X159722040Y-146837728D01*
X159725794Y-146831226D01*
X159814223Y-146678063D01*
X159814224Y-146678062D01*
X159817527Y-146672340D01*
X159876542Y-146490712D01*
X159886794Y-146393175D01*
X159895814Y-146307349D01*
X159896504Y-146300784D01*
X159890849Y-146246977D01*
X159877232Y-146117419D01*
X159877232Y-146117417D01*
X159876542Y-146110856D01*
X159826154Y-145955779D01*
X159824126Y-145884813D01*
X159860789Y-145824015D01*
X159924501Y-145792690D01*
X159995035Y-145800782D01*
X160015917Y-145813454D01*
X160016455Y-145812632D01*
X160148238Y-145898868D01*
X160158846Y-145905810D01*
X160165450Y-145908266D01*
X160165452Y-145908267D01*
X160221815Y-145929228D01*
X160318341Y-145965126D01*
X160487015Y-145987632D01*
X160494026Y-145986994D01*
X160494030Y-145986994D01*
X160649462Y-145972848D01*
X160656483Y-145972209D01*
X160663185Y-145970031D01*
X160663187Y-145970031D01*
X160811623Y-145921801D01*
X160811626Y-145921800D01*
X160818322Y-145919624D01*
X160824373Y-145916017D01*
X160824375Y-145916016D01*
X160891887Y-145875771D01*
X160956404Y-145858000D01*
X161152723Y-145858000D01*
X161221716Y-145878568D01*
X161252738Y-145898868D01*
X161263346Y-145905810D01*
X161269950Y-145908266D01*
X161269952Y-145908267D01*
X161326315Y-145929228D01*
X161422841Y-145965126D01*
X161591515Y-145987632D01*
X161598526Y-145986994D01*
X161598530Y-145986994D01*
X161753962Y-145972848D01*
X161760983Y-145972209D01*
X161767685Y-145970031D01*
X161767687Y-145970031D01*
X161916123Y-145921801D01*
X161916126Y-145921800D01*
X161922822Y-145919624D01*
X162068990Y-145832490D01*
X162074084Y-145827639D01*
X162074088Y-145827636D01*
X162161094Y-145744781D01*
X162192221Y-145715139D01*
X162220713Y-145672256D01*
X162245196Y-145635405D01*
X162286391Y-145573402D01*
X162346819Y-145414325D01*
X162370501Y-145245813D01*
X162370618Y-145237464D01*
X162370744Y-145228461D01*
X162370744Y-145228455D01*
X162370799Y-145224500D01*
X162351831Y-145055392D01*
X162295868Y-144894689D01*
X162289883Y-144885110D01*
X162229452Y-144788403D01*
X162205692Y-144750379D01*
X162085786Y-144629632D01*
X162069539Y-144619321D01*
X162010798Y-144582043D01*
X161942108Y-144538451D01*
X161781800Y-144481368D01*
X161612829Y-144461220D01*
X161605826Y-144461956D01*
X161605825Y-144461956D01*
X161450601Y-144478270D01*
X161450597Y-144478271D01*
X161443593Y-144479007D01*
X161282503Y-144533846D01*
X161219968Y-144572318D01*
X161153948Y-144591000D01*
X160957018Y-144591000D01*
X160889506Y-144571387D01*
X160837608Y-144538451D01*
X160677300Y-144481368D01*
X160508329Y-144461220D01*
X160501326Y-144461956D01*
X160501325Y-144461956D01*
X160346101Y-144478270D01*
X160346097Y-144478271D01*
X160339093Y-144479007D01*
X160332422Y-144481278D01*
X160184673Y-144531575D01*
X160184670Y-144531576D01*
X160178003Y-144533846D01*
X160172005Y-144537536D01*
X160172003Y-144537537D01*
X160039065Y-144619321D01*
X160039063Y-144619323D01*
X160033066Y-144623012D01*
X159911486Y-144742073D01*
X159907675Y-144747987D01*
X159907673Y-144747989D01*
X159874826Y-144798957D01*
X159819304Y-144885110D01*
X159761103Y-145045016D01*
X159739775Y-145213843D01*
X159756381Y-145383199D01*
X159776584Y-145443930D01*
X159788986Y-145481213D01*
X159791509Y-145552165D01*
X159755272Y-145613217D01*
X159691780Y-145644987D01*
X159621192Y-145637386D01*
X159595016Y-145620868D01*
X159594253Y-145621918D01*
X159445094Y-145513547D01*
X159445093Y-145513546D01*
X159439752Y-145509666D01*
X159433726Y-145506983D01*
X159433719Y-145506979D01*
X159288723Y-145442424D01*
X159234627Y-145396444D01*
X159214144Y-145333911D01*
X159213428Y-145320235D01*
X159210630Y-145266853D01*
X159203748Y-145241866D01*
X159164352Y-145098841D01*
X159162539Y-145092259D01*
X159078078Y-144932064D01*
X159073673Y-144926851D01*
X159073670Y-144926847D01*
X158965594Y-144798957D01*
X158965590Y-144798953D01*
X158961187Y-144793743D01*
X158953996Y-144788245D01*
X158822743Y-144687894D01*
X158822739Y-144687891D01*
X158817322Y-144683750D01*
X158711982Y-144634629D01*
X158659369Y-144610095D01*
X158659366Y-144610094D01*
X158653192Y-144607215D01*
X158646544Y-144605729D01*
X158646541Y-144605728D01*
X158519184Y-144577261D01*
X158476457Y-144567710D01*
X158470912Y-144567400D01*
X158337756Y-144567400D01*
X158202963Y-144582043D01*
X158127688Y-144607376D01*
X158056747Y-144610146D01*
X157995568Y-144574123D01*
X157963577Y-144510742D01*
X157961500Y-144487957D01*
X157961500Y-144271131D01*
X157960814Y-144264127D01*
X157951276Y-144166860D01*
X157947080Y-144124067D01*
X157938513Y-144095690D01*
X157891697Y-143940631D01*
X157889916Y-143934731D01*
X157797066Y-143760104D01*
X157699573Y-143640566D01*
X157675960Y-143611613D01*
X157675957Y-143611610D01*
X157672065Y-143606838D01*
X157665724Y-143601592D01*
X157524425Y-143484699D01*
X157524421Y-143484697D01*
X157519675Y-143480770D01*
X157345701Y-143386702D01*
X157156768Y-143328218D01*
X157150643Y-143327574D01*
X157150642Y-143327574D01*
X156966204Y-143308189D01*
X156966202Y-143308189D01*
X156960075Y-143307545D01*
X156889861Y-143313935D01*
X156769251Y-143324911D01*
X156769248Y-143324912D01*
X156763112Y-143325470D01*
X156757206Y-143327208D01*
X156757202Y-143327209D01*
X156652076Y-143358149D01*
X156573381Y-143381310D01*
X156567923Y-143384163D01*
X156567919Y-143384165D01*
X156477147Y-143431620D01*
X156398110Y-143472940D01*
X156243975Y-143596868D01*
X156116846Y-143748374D01*
X156113879Y-143753772D01*
X156113875Y-143753777D01*
X156110397Y-143760104D01*
X156021567Y-143921687D01*
X156019706Y-143927554D01*
X156019705Y-143927556D01*
X155971992Y-144077965D01*
X155961765Y-144110206D01*
X155944500Y-144264127D01*
X155944500Y-149400669D01*
X125682668Y-149400669D01*
X125669974Y-149206906D01*
X125671149Y-149183727D01*
X125670833Y-149183699D01*
X125671267Y-149178859D01*
X125672076Y-149174052D01*
X125672229Y-149161500D01*
X125668273Y-149133876D01*
X125667000Y-149116014D01*
X125667000Y-146986062D01*
X134678493Y-146986062D01*
X134687789Y-146998077D01*
X134738994Y-147033931D01*
X134748489Y-147039414D01*
X134945947Y-147131490D01*
X134956239Y-147135236D01*
X135166688Y-147191625D01*
X135177481Y-147193528D01*
X135394525Y-147212517D01*
X135405475Y-147212517D01*
X135622519Y-147193528D01*
X135633312Y-147191625D01*
X135843761Y-147135236D01*
X135854053Y-147131490D01*
X136051511Y-147039414D01*
X136061006Y-147033931D01*
X136113048Y-146997491D01*
X136121424Y-146987012D01*
X136114356Y-146973566D01*
X135412812Y-146272022D01*
X135398868Y-146264408D01*
X135397035Y-146264539D01*
X135390420Y-146268790D01*
X134684923Y-146974287D01*
X134678493Y-146986062D01*
X125667000Y-146986062D01*
X125667000Y-145905475D01*
X134087483Y-145905475D01*
X134106472Y-146122519D01*
X134108375Y-146133312D01*
X134164764Y-146343761D01*
X134168510Y-146354053D01*
X134260586Y-146551511D01*
X134266069Y-146561006D01*
X134302509Y-146613048D01*
X134312988Y-146621424D01*
X134326434Y-146614356D01*
X135027978Y-145912812D01*
X135034356Y-145901132D01*
X135764408Y-145901132D01*
X135764539Y-145902965D01*
X135768790Y-145909580D01*
X136474287Y-146615077D01*
X136486062Y-146621507D01*
X136498077Y-146612211D01*
X136533931Y-146561006D01*
X136539414Y-146551511D01*
X136620699Y-146377195D01*
X141651301Y-146377195D01*
X141651638Y-146383714D01*
X141661557Y-146479306D01*
X141664449Y-146492700D01*
X141715888Y-146646884D01*
X141722061Y-146660062D01*
X141807363Y-146797907D01*
X141816399Y-146809308D01*
X141931129Y-146923839D01*
X141942540Y-146932851D01*
X142080543Y-147017916D01*
X142093724Y-147024063D01*
X142248010Y-147075238D01*
X142261386Y-147078105D01*
X142355738Y-147087772D01*
X142362154Y-147088100D01*
X142737185Y-147088100D01*
X142752424Y-147083625D01*
X142753629Y-147082235D01*
X142755300Y-147074552D01*
X142755300Y-147069984D01*
X143263300Y-147069984D01*
X143267775Y-147085223D01*
X143269165Y-147086428D01*
X143276848Y-147088099D01*
X143656395Y-147088099D01*
X143662914Y-147087762D01*
X143758506Y-147077843D01*
X143771900Y-147074951D01*
X143926084Y-147023512D01*
X143939262Y-147017339D01*
X144077107Y-146932037D01*
X144088508Y-146923001D01*
X144203039Y-146808271D01*
X144212053Y-146796857D01*
X144298023Y-146657387D01*
X144350795Y-146609893D01*
X144420866Y-146598469D01*
X144485990Y-146626743D01*
X144496449Y-146636526D01*
X144605876Y-146751235D01*
X144790842Y-146888854D01*
X144795593Y-146891270D01*
X144795597Y-146891272D01*
X144851173Y-146919528D01*
X144996351Y-146993340D01*
X145001445Y-146994922D01*
X145001448Y-146994923D01*
X145144732Y-147039414D01*
X145216527Y-147061707D01*
X145221816Y-147062408D01*
X145439789Y-147091298D01*
X145439794Y-147091298D01*
X145445074Y-147091998D01*
X145450403Y-147091798D01*
X145450405Y-147091798D01*
X145560266Y-147087673D01*
X145675458Y-147083349D01*
X145680768Y-147082235D01*
X145831774Y-147050551D01*
X145856348Y-147045395D01*
X149195751Y-147045395D01*
X149196048Y-147050548D01*
X149196048Y-147050551D01*
X149201511Y-147145290D01*
X149208610Y-147268415D01*
X149209747Y-147273461D01*
X149209748Y-147273467D01*
X149229619Y-147361639D01*
X149257722Y-147486339D01*
X149295961Y-147580511D01*
X149329437Y-147662952D01*
X149341766Y-147693316D01*
X149375151Y-147747795D01*
X149447753Y-147866271D01*
X149458487Y-147883788D01*
X149604750Y-148052638D01*
X149776626Y-148195332D01*
X149969500Y-148308038D01*
X149974325Y-148309880D01*
X149974326Y-148309881D01*
X150026429Y-148329777D01*
X150178192Y-148387730D01*
X150183260Y-148388761D01*
X150183263Y-148388762D01*
X150266964Y-148405791D01*
X150397097Y-148432267D01*
X150402272Y-148432457D01*
X150402274Y-148432457D01*
X150615173Y-148440264D01*
X150615177Y-148440264D01*
X150620337Y-148440453D01*
X150625457Y-148439797D01*
X150625459Y-148439797D01*
X150836788Y-148412725D01*
X150836789Y-148412725D01*
X150841916Y-148412068D01*
X150847219Y-148410477D01*
X151050929Y-148349361D01*
X151050934Y-148349359D01*
X151055884Y-148347874D01*
X151256494Y-148249596D01*
X151438360Y-148119873D01*
X151596596Y-147962189D01*
X151601776Y-147954981D01*
X151723935Y-147784977D01*
X151726953Y-147780777D01*
X151740235Y-147753904D01*
X151823636Y-147585153D01*
X151823637Y-147585151D01*
X151825930Y-147580511D01*
X151868736Y-147439620D01*
X151889365Y-147371723D01*
X151889365Y-147371721D01*
X151890870Y-147366769D01*
X151920029Y-147145290D01*
X151921348Y-147091298D01*
X151921574Y-147082065D01*
X151921574Y-147082061D01*
X151921656Y-147078700D01*
X151903352Y-146856061D01*
X151848931Y-146639402D01*
X151759854Y-146434540D01*
X151701126Y-146343761D01*
X151641322Y-146251317D01*
X151641320Y-146251314D01*
X151638514Y-146246977D01*
X151635032Y-146243150D01*
X151491298Y-146085188D01*
X151460246Y-146021342D01*
X151468641Y-145950843D01*
X151513817Y-145896075D01*
X151540261Y-145882406D01*
X151646797Y-145842467D01*
X151655205Y-145839315D01*
X151771761Y-145751961D01*
X151859115Y-145635405D01*
X151910245Y-145499016D01*
X151917000Y-145436834D01*
X151917000Y-143640566D01*
X151910245Y-143578384D01*
X151859115Y-143441995D01*
X151771761Y-143325439D01*
X151655205Y-143238085D01*
X151646796Y-143234933D01*
X151638925Y-143230623D01*
X151639836Y-143228959D01*
X151592010Y-143193037D01*
X151567307Y-143126476D01*
X151567000Y-143117691D01*
X151567000Y-138134995D01*
X152370751Y-138134995D01*
X152371048Y-138140148D01*
X152371048Y-138140151D01*
X152380955Y-138311975D01*
X152383610Y-138358015D01*
X152384747Y-138363061D01*
X152384748Y-138363067D01*
X152392682Y-138398270D01*
X152432722Y-138575939D01*
X152469658Y-138666901D01*
X152499123Y-138739465D01*
X152516766Y-138782916D01*
X152633487Y-138973388D01*
X152779750Y-139142238D01*
X152783730Y-139145542D01*
X152788481Y-139149487D01*
X152828116Y-139208390D01*
X152829613Y-139279371D01*
X152792497Y-139339893D01*
X152752224Y-139364412D01*
X152636795Y-139407685D01*
X152520239Y-139495039D01*
X152432885Y-139611595D01*
X152381755Y-139747984D01*
X152375000Y-139810166D01*
X152375000Y-141606434D01*
X152381755Y-141668616D01*
X152432885Y-141805005D01*
X152520239Y-141921561D01*
X152636795Y-142008915D01*
X152773184Y-142060045D01*
X152835366Y-142066800D01*
X154631634Y-142066800D01*
X154693816Y-142060045D01*
X154830205Y-142008915D01*
X154946761Y-141921561D01*
X155034115Y-141805005D01*
X155085245Y-141668616D01*
X155092000Y-141606434D01*
X155092000Y-139810166D01*
X155085245Y-139747984D01*
X155034115Y-139611595D01*
X154946761Y-139495039D01*
X154830205Y-139407685D01*
X154817632Y-139402972D01*
X154711703Y-139363260D01*
X154654939Y-139320618D01*
X154630239Y-139254056D01*
X154645447Y-139184708D01*
X154666993Y-139156027D01*
X154719781Y-139103423D01*
X154771596Y-139051789D01*
X154775548Y-139046290D01*
X154893739Y-138881808D01*
X154901953Y-138870377D01*
X154904871Y-138864474D01*
X154998636Y-138674753D01*
X154998637Y-138674751D01*
X155000930Y-138670111D01*
X155065870Y-138456369D01*
X155095029Y-138234890D01*
X155095171Y-138229091D01*
X155096574Y-138171665D01*
X155096574Y-138171661D01*
X155096656Y-138168300D01*
X155078352Y-137945661D01*
X155023931Y-137729002D01*
X154934854Y-137524140D01*
X154837913Y-137374292D01*
X154816322Y-137340917D01*
X154816320Y-137340914D01*
X154813514Y-137336577D01*
X154663170Y-137171351D01*
X154659119Y-137168152D01*
X154659115Y-137168148D01*
X154491914Y-137036100D01*
X154491910Y-137036098D01*
X154487859Y-137032898D01*
X154292289Y-136924938D01*
X154287420Y-136923214D01*
X154287416Y-136923212D01*
X154086587Y-136852095D01*
X154086583Y-136852094D01*
X154081712Y-136850369D01*
X154076619Y-136849462D01*
X154076616Y-136849461D01*
X153866873Y-136812100D01*
X153866867Y-136812099D01*
X153861784Y-136811194D01*
X153787952Y-136810292D01*
X153643581Y-136808528D01*
X153643579Y-136808528D01*
X153638411Y-136808465D01*
X153417591Y-136842255D01*
X153205256Y-136911657D01*
X153007107Y-137014807D01*
X153002974Y-137017910D01*
X153002971Y-137017912D01*
X152862373Y-137123476D01*
X152828465Y-137148935D01*
X152817807Y-137160088D01*
X152689125Y-137294746D01*
X152674129Y-137310438D01*
X152671215Y-137314710D01*
X152671214Y-137314711D01*
X152622079Y-137386740D01*
X152548243Y-137494980D01*
X152454188Y-137697605D01*
X152394489Y-137912870D01*
X152370751Y-138134995D01*
X151567000Y-138134995D01*
X151567000Y-136005500D01*
X155152996Y-136005500D01*
X155172958Y-136195428D01*
X155231973Y-136377056D01*
X155327460Y-136542444D01*
X155331878Y-136547351D01*
X155331879Y-136547352D01*
X155450825Y-136679455D01*
X155455247Y-136684366D01*
X155609748Y-136796618D01*
X155615776Y-136799302D01*
X155615778Y-136799303D01*
X155730475Y-136850369D01*
X155784212Y-136874294D01*
X155877613Y-136894147D01*
X155964556Y-136912628D01*
X155964561Y-136912628D01*
X155971013Y-136914000D01*
X156161987Y-136914000D01*
X156168439Y-136912628D01*
X156168444Y-136912628D01*
X156255387Y-136894147D01*
X156348788Y-136874294D01*
X156354815Y-136871611D01*
X156354823Y-136871608D01*
X156515873Y-136799904D01*
X156586240Y-136790470D01*
X156626847Y-136804741D01*
X156627228Y-136805018D01*
X156633254Y-136807701D01*
X156785907Y-136875666D01*
X156801692Y-136882694D01*
X156895093Y-136902547D01*
X156982036Y-136921028D01*
X156982041Y-136921028D01*
X156988493Y-136922400D01*
X157179467Y-136922400D01*
X157185919Y-136921028D01*
X157185924Y-136921028D01*
X157272867Y-136902547D01*
X157366268Y-136882694D01*
X157372299Y-136880009D01*
X157534702Y-136807703D01*
X157534704Y-136807702D01*
X157540732Y-136805018D01*
X157695233Y-136692766D01*
X157699655Y-136687855D01*
X157806839Y-136568815D01*
X157867285Y-136531575D01*
X157900475Y-136527125D01*
X163428715Y-136527125D01*
X163496836Y-136547127D01*
X163517810Y-136564030D01*
X167181455Y-140227675D01*
X167215481Y-140289987D01*
X167218360Y-140316770D01*
X167218360Y-144021948D01*
X167218068Y-144030518D01*
X167214834Y-144077965D01*
X167214135Y-144088212D01*
X167215440Y-144095689D01*
X167215440Y-144095690D01*
X167225121Y-144151159D01*
X167226083Y-144157681D01*
X167233758Y-144221102D01*
X167236441Y-144228203D01*
X167237082Y-144230812D01*
X167241545Y-144247122D01*
X167242310Y-144249658D01*
X167243617Y-144257144D01*
X167257346Y-144288418D01*
X167269302Y-144315655D01*
X167271793Y-144321759D01*
X167294373Y-144381516D01*
X167298677Y-144387779D01*
X167299914Y-144390145D01*
X167308159Y-144404957D01*
X167309492Y-144407211D01*
X167312545Y-144414165D01*
X167349293Y-144462054D01*
X167351439Y-144464851D01*
X167355319Y-144470192D01*
X167387199Y-144516580D01*
X167387204Y-144516585D01*
X167391503Y-144522841D01*
X167397173Y-144527892D01*
X167397174Y-144527894D01*
X167438030Y-144564295D01*
X167443306Y-144569276D01*
X168242035Y-145368005D01*
X168276061Y-145430317D01*
X168278250Y-145443928D01*
X168283158Y-145490628D01*
X168285198Y-145496905D01*
X168285198Y-145496907D01*
X168310053Y-145573402D01*
X168342173Y-145672256D01*
X168345476Y-145677978D01*
X168345477Y-145677979D01*
X168369737Y-145719998D01*
X168437660Y-145837644D01*
X168442078Y-145842551D01*
X168442079Y-145842552D01*
X168532791Y-145943298D01*
X168565447Y-145979566D01*
X168664543Y-146051564D01*
X168710823Y-146085188D01*
X168719948Y-146091818D01*
X168725976Y-146094502D01*
X168725978Y-146094503D01*
X168888381Y-146166809D01*
X168894412Y-146169494D01*
X168957821Y-146182972D01*
X169074756Y-146207828D01*
X169074761Y-146207828D01*
X169081213Y-146209200D01*
X169272187Y-146209200D01*
X169278639Y-146207828D01*
X169278644Y-146207828D01*
X169395579Y-146182972D01*
X169458988Y-146169494D01*
X169465019Y-146166809D01*
X169627422Y-146094503D01*
X169627424Y-146094502D01*
X169633452Y-146091818D01*
X169642578Y-146085188D01*
X169688857Y-146051564D01*
X169787953Y-145979566D01*
X169820609Y-145943298D01*
X169911321Y-145842552D01*
X169911322Y-145842551D01*
X169915740Y-145837644D01*
X169983663Y-145719998D01*
X170007923Y-145677979D01*
X170007924Y-145677978D01*
X170011227Y-145672256D01*
X170070242Y-145490628D01*
X170073857Y-145456239D01*
X170089514Y-145307265D01*
X170090204Y-145300700D01*
X170089514Y-145294135D01*
X170089514Y-145287530D01*
X170092279Y-145287530D01*
X170102868Y-145229695D01*
X170141333Y-145184450D01*
X170153743Y-145175434D01*
X170187730Y-145150740D01*
X170265209Y-145094449D01*
X170265211Y-145094447D01*
X170270553Y-145090566D01*
X170398340Y-144948644D01*
X170493827Y-144783256D01*
X170552842Y-144601628D01*
X170554901Y-144582043D01*
X170572114Y-144418265D01*
X170572804Y-144411700D01*
X170572114Y-144405135D01*
X170572114Y-144404676D01*
X170592116Y-144336555D01*
X170638871Y-144296435D01*
X170637700Y-144294406D01*
X170643420Y-144291103D01*
X170649452Y-144288418D01*
X170668565Y-144274532D01*
X170721102Y-144236361D01*
X170803953Y-144176166D01*
X170812332Y-144166860D01*
X170927321Y-144039152D01*
X170927322Y-144039151D01*
X170931740Y-144034244D01*
X171027227Y-143868856D01*
X171086242Y-143687228D01*
X171091504Y-143637169D01*
X171105514Y-143503865D01*
X171106204Y-143497300D01*
X171088896Y-143332619D01*
X171086932Y-143313935D01*
X171086932Y-143313933D01*
X171086242Y-143307372D01*
X171065240Y-143242735D01*
X171063212Y-143171769D01*
X171099874Y-143110971D01*
X171163586Y-143079646D01*
X171185073Y-143077800D01*
X171598834Y-143077800D01*
X171661016Y-143071045D01*
X171797405Y-143019915D01*
X171913961Y-142932561D01*
X172001315Y-142816005D01*
X172023499Y-142756829D01*
X172045298Y-142698682D01*
X172087940Y-142641918D01*
X172154502Y-142617218D01*
X172223850Y-142632426D01*
X172258517Y-142660414D01*
X172286950Y-142693238D01*
X172458826Y-142835932D01*
X172651700Y-142948638D01*
X172860392Y-143028330D01*
X172865460Y-143029361D01*
X172865463Y-143029362D01*
X172972717Y-143051183D01*
X173079297Y-143072867D01*
X173084472Y-143073057D01*
X173084474Y-143073057D01*
X173297373Y-143080864D01*
X173297377Y-143080864D01*
X173302537Y-143081053D01*
X173307657Y-143080397D01*
X173307659Y-143080397D01*
X173518988Y-143053325D01*
X173518989Y-143053325D01*
X173524116Y-143052668D01*
X173529066Y-143051183D01*
X173733129Y-142989961D01*
X173733134Y-142989959D01*
X173738084Y-142988474D01*
X173938694Y-142890196D01*
X174120560Y-142760473D01*
X174278796Y-142602789D01*
X174409153Y-142421377D01*
X174508130Y-142221111D01*
X174573070Y-142007369D01*
X174602229Y-141785890D01*
X174603856Y-141719300D01*
X174585552Y-141496661D01*
X174531131Y-141280002D01*
X174442054Y-141075140D01*
X174435998Y-141065778D01*
X174323522Y-140891917D01*
X174323520Y-140891914D01*
X174320714Y-140887577D01*
X174170370Y-140722351D01*
X174166319Y-140719152D01*
X174166315Y-140719148D01*
X173999114Y-140587100D01*
X173999110Y-140587098D01*
X173995059Y-140583898D01*
X173976816Y-140573827D01*
X173911253Y-140537635D01*
X173799489Y-140475938D01*
X173794620Y-140474214D01*
X173794616Y-140474212D01*
X173593787Y-140403095D01*
X173593783Y-140403094D01*
X173588912Y-140401369D01*
X173583819Y-140400462D01*
X173583816Y-140400461D01*
X173374073Y-140363100D01*
X173374067Y-140363099D01*
X173368984Y-140362194D01*
X173295152Y-140361292D01*
X173150781Y-140359528D01*
X173150779Y-140359528D01*
X173145611Y-140359465D01*
X172924791Y-140393255D01*
X172712456Y-140462657D01*
X172514307Y-140565807D01*
X172510174Y-140568910D01*
X172510171Y-140568912D01*
X172339800Y-140696830D01*
X172335665Y-140699935D01*
X172279237Y-140758984D01*
X172254983Y-140784364D01*
X172193459Y-140819794D01*
X172122546Y-140816337D01*
X172064760Y-140775091D01*
X172045907Y-140741543D01*
X172004467Y-140631003D01*
X172001315Y-140622595D01*
X171913961Y-140506039D01*
X171797405Y-140418685D01*
X171661016Y-140367555D01*
X171598834Y-140360800D01*
X169960400Y-140360800D01*
X169892279Y-140340798D01*
X169845786Y-140287142D01*
X169834400Y-140234800D01*
X169834400Y-139281812D01*
X169834692Y-139273242D01*
X169838109Y-139223124D01*
X169838109Y-139223120D01*
X169838625Y-139215548D01*
X169827639Y-139152603D01*
X169826677Y-139146082D01*
X169819915Y-139090204D01*
X169819002Y-139082658D01*
X169816316Y-139075550D01*
X169815679Y-139072956D01*
X169811218Y-139056650D01*
X169810448Y-139054099D01*
X169809142Y-139046616D01*
X169783461Y-138988112D01*
X169780969Y-138982005D01*
X169761073Y-138929352D01*
X169761073Y-138929351D01*
X169758387Y-138922244D01*
X169754084Y-138915983D01*
X169752847Y-138913617D01*
X169744620Y-138898837D01*
X169743269Y-138896552D01*
X169740215Y-138889595D01*
X169735595Y-138883575D01*
X169735592Y-138883569D01*
X169701321Y-138838909D01*
X169697441Y-138833568D01*
X169665561Y-138787180D01*
X169665556Y-138787175D01*
X169661257Y-138780919D01*
X169614729Y-138739464D01*
X169609454Y-138734484D01*
X162471165Y-131596195D01*
X162437139Y-131533883D01*
X162434950Y-131520270D01*
X162434731Y-131518181D01*
X162430042Y-131473572D01*
X162371027Y-131291944D01*
X162367288Y-131285467D01*
X162306384Y-131179979D01*
X162275540Y-131126556D01*
X162247060Y-131094925D01*
X162152175Y-130989545D01*
X162152174Y-130989544D01*
X162147753Y-130984634D01*
X161993252Y-130872382D01*
X161987224Y-130869698D01*
X161987222Y-130869697D01*
X161824819Y-130797391D01*
X161824818Y-130797391D01*
X161818788Y-130794706D01*
X161725387Y-130774853D01*
X161638444Y-130756372D01*
X161638439Y-130756372D01*
X161631987Y-130755000D01*
X161441013Y-130755000D01*
X161434561Y-130756372D01*
X161434556Y-130756372D01*
X161347613Y-130774853D01*
X161254212Y-130794706D01*
X161248182Y-130797391D01*
X161248181Y-130797391D01*
X161085778Y-130869697D01*
X161085776Y-130869698D01*
X161079748Y-130872382D01*
X160925247Y-130984634D01*
X160920826Y-130989544D01*
X160920825Y-130989545D01*
X160825941Y-131094925D01*
X160797460Y-131126556D01*
X160766616Y-131179979D01*
X160705713Y-131285467D01*
X160701973Y-131291944D01*
X160642958Y-131473572D01*
X160642268Y-131480133D01*
X160642268Y-131480135D01*
X160636817Y-131532000D01*
X160622996Y-131663500D01*
X160623686Y-131670065D01*
X160633767Y-131765976D01*
X160642958Y-131853428D01*
X160701973Y-132035056D01*
X160797460Y-132200444D01*
X160801878Y-132205351D01*
X160801879Y-132205352D01*
X160898975Y-132313188D01*
X160925247Y-132342366D01*
X161079748Y-132454618D01*
X161085776Y-132457302D01*
X161085778Y-132457303D01*
X161173215Y-132496232D01*
X161254212Y-132532294D01*
X161388735Y-132560888D01*
X161407069Y-132564785D01*
X161469967Y-132598937D01*
X163161824Y-134290794D01*
X163195850Y-134353106D01*
X163190785Y-134423921D01*
X163148238Y-134480757D01*
X163081718Y-134505568D01*
X163072729Y-134505889D01*
X156781723Y-134505889D01*
X156773153Y-134505597D01*
X156723035Y-134502180D01*
X156723031Y-134502180D01*
X156715459Y-134501664D01*
X156707982Y-134502969D01*
X156707981Y-134502969D01*
X156693090Y-134505568D01*
X156652514Y-134512650D01*
X156645997Y-134513611D01*
X156582569Y-134521287D01*
X156575461Y-134523973D01*
X156572867Y-134524610D01*
X156556561Y-134529071D01*
X156554010Y-134529841D01*
X156546527Y-134531147D01*
X156539575Y-134534199D01*
X156539574Y-134534199D01*
X156488023Y-134556828D01*
X156481916Y-134559320D01*
X156429263Y-134579216D01*
X156422155Y-134581902D01*
X156415894Y-134586205D01*
X156413528Y-134587442D01*
X156398748Y-134595669D01*
X156396463Y-134597020D01*
X156389506Y-134600074D01*
X156383486Y-134604694D01*
X156383480Y-134604697D01*
X156369826Y-134615175D01*
X156338809Y-134638976D01*
X156333479Y-134642848D01*
X156287091Y-134674728D01*
X156287086Y-134674733D01*
X156280830Y-134679032D01*
X156275779Y-134684702D01*
X156275777Y-134684703D01*
X156239376Y-134725559D01*
X156234395Y-134730835D01*
X155866877Y-135098353D01*
X155803977Y-135132505D01*
X155798918Y-135133580D01*
X155790666Y-135135334D01*
X155790664Y-135135335D01*
X155784212Y-135136706D01*
X155778185Y-135139389D01*
X155778186Y-135139389D01*
X155615778Y-135211697D01*
X155615776Y-135211698D01*
X155609748Y-135214382D01*
X155455247Y-135326634D01*
X155327460Y-135468556D01*
X155231973Y-135633944D01*
X155172958Y-135815572D01*
X155152996Y-136005500D01*
X151567000Y-136005500D01*
X151567000Y-131701425D01*
X151587002Y-131633304D01*
X151603905Y-131612330D01*
X154147329Y-129068905D01*
X154209641Y-129034880D01*
X154236424Y-129032000D01*
X159081340Y-129032000D01*
X159149461Y-129052002D01*
X159195954Y-129105658D01*
X159206058Y-129175932D01*
X159176564Y-129240512D01*
X159170435Y-129247095D01*
X158485980Y-129931550D01*
X158479715Y-129937404D01*
X158436115Y-129975439D01*
X158431748Y-129981653D01*
X158399372Y-130027719D01*
X158395439Y-130033014D01*
X158356024Y-130083282D01*
X158352901Y-130090198D01*
X158351517Y-130092484D01*
X158343143Y-130107165D01*
X158341878Y-130109525D01*
X158337510Y-130115739D01*
X158334750Y-130122818D01*
X158334749Y-130122820D01*
X158314298Y-130175275D01*
X158311747Y-130181344D01*
X158285455Y-130239573D01*
X158284071Y-130247040D01*
X158283270Y-130249595D01*
X158278641Y-130265848D01*
X158277978Y-130268428D01*
X158275218Y-130275509D01*
X158274227Y-130283040D01*
X158274226Y-130283042D01*
X158266879Y-130338852D01*
X158265848Y-130345359D01*
X158254204Y-130408186D01*
X158254641Y-130415766D01*
X158254641Y-130415767D01*
X158257791Y-130470392D01*
X158258000Y-130477646D01*
X158258000Y-131414756D01*
X158237998Y-131482877D01*
X158233936Y-131488817D01*
X158231879Y-131491648D01*
X158227460Y-131496556D01*
X158224159Y-131502274D01*
X158224158Y-131502275D01*
X158139311Y-131649235D01*
X158131973Y-131661944D01*
X158072958Y-131843572D01*
X158052996Y-132033500D01*
X158072958Y-132223428D01*
X158131973Y-132405056D01*
X158227460Y-132570444D01*
X158231878Y-132575351D01*
X158231879Y-132575352D01*
X158312295Y-132664663D01*
X158355247Y-132712366D01*
X158509748Y-132824618D01*
X158515776Y-132827302D01*
X158515778Y-132827303D01*
X158585774Y-132858467D01*
X158684212Y-132902294D01*
X158777613Y-132922147D01*
X158864556Y-132940628D01*
X158864561Y-132940628D01*
X158871013Y-132942000D01*
X159061987Y-132942000D01*
X159068439Y-132940628D01*
X159068444Y-132940628D01*
X159155387Y-132922147D01*
X159248788Y-132902294D01*
X159347226Y-132858467D01*
X159417222Y-132827303D01*
X159417224Y-132827302D01*
X159423252Y-132824618D01*
X159577753Y-132712366D01*
X159620705Y-132664663D01*
X159701121Y-132575352D01*
X159701122Y-132575351D01*
X159705540Y-132570444D01*
X159801027Y-132405056D01*
X159860042Y-132223428D01*
X159880004Y-132033500D01*
X159860042Y-131843572D01*
X159801027Y-131661944D01*
X159793690Y-131649235D01*
X159708842Y-131502275D01*
X159708841Y-131502274D01*
X159705540Y-131496556D01*
X159701121Y-131491648D01*
X159699064Y-131488817D01*
X159675205Y-131421949D01*
X159675000Y-131414756D01*
X159675000Y-130798660D01*
X159695002Y-130730539D01*
X159711905Y-130709565D01*
X160363033Y-130058437D01*
X160425931Y-130024285D01*
X160442089Y-130020850D01*
X160578788Y-129991794D01*
X160584819Y-129989109D01*
X160747222Y-129916803D01*
X160747224Y-129916802D01*
X160753252Y-129914118D01*
X160907753Y-129801866D01*
X160956533Y-129747690D01*
X161031121Y-129664852D01*
X161031122Y-129664851D01*
X161035540Y-129659944D01*
X161111085Y-129529096D01*
X161127723Y-129500279D01*
X161127724Y-129500278D01*
X161131027Y-129494556D01*
X161190042Y-129312928D01*
X161204441Y-129175932D01*
X161207710Y-129144829D01*
X161234723Y-129079173D01*
X161292945Y-129038543D01*
X161333020Y-129032000D01*
X165092000Y-129032000D01*
X165160121Y-129052002D01*
X165206614Y-129105658D01*
X165218000Y-129158000D01*
X165218000Y-132509657D01*
X165217263Y-132523264D01*
X165213176Y-132560888D01*
X165215473Y-132587138D01*
X165217550Y-132610888D01*
X165217879Y-132615714D01*
X165218000Y-132618186D01*
X165218000Y-132621269D01*
X165218301Y-132624337D01*
X165222190Y-132664006D01*
X165222312Y-132665319D01*
X165230413Y-132757913D01*
X165231900Y-132763032D01*
X165232420Y-132768333D01*
X165259291Y-132857334D01*
X165259626Y-132858467D01*
X165283497Y-132940628D01*
X165285591Y-132947836D01*
X165288044Y-132952568D01*
X165289584Y-132957669D01*
X165292478Y-132963112D01*
X165333231Y-133039760D01*
X165333843Y-133040926D01*
X165376608Y-133123426D01*
X165379931Y-133127589D01*
X165382434Y-133132296D01*
X165441255Y-133204418D01*
X165441946Y-133205274D01*
X165473238Y-133244473D01*
X165475742Y-133246977D01*
X165476384Y-133247695D01*
X165480085Y-133252028D01*
X165507435Y-133285562D01*
X165512182Y-133289489D01*
X165512184Y-133289491D01*
X165542762Y-133314787D01*
X165551542Y-133322777D01*
X166946645Y-134717879D01*
X166955747Y-134728022D01*
X166979468Y-134757525D01*
X167017956Y-134789820D01*
X167021575Y-134792978D01*
X167023390Y-134794624D01*
X167025575Y-134796809D01*
X167027955Y-134798764D01*
X167027965Y-134798773D01*
X167058736Y-134824049D01*
X167059751Y-134824891D01*
X167130974Y-134884654D01*
X167135648Y-134887223D01*
X167139761Y-134890602D01*
X167145198Y-134893517D01*
X167145199Y-134893518D01*
X167221547Y-134934455D01*
X167222677Y-134935068D01*
X167304287Y-134979933D01*
X167309369Y-134981545D01*
X167314063Y-134984062D01*
X167403031Y-135011262D01*
X167404059Y-135011582D01*
X167492806Y-135039735D01*
X167498102Y-135040329D01*
X167503198Y-135041887D01*
X167595757Y-135051290D01*
X167596893Y-135051411D01*
X167630508Y-135055181D01*
X167643230Y-135056608D01*
X167643234Y-135056608D01*
X167646727Y-135057000D01*
X167650254Y-135057000D01*
X167651239Y-135057055D01*
X167656919Y-135057502D01*
X167686325Y-135060489D01*
X167693837Y-135061252D01*
X167693839Y-135061252D01*
X167699962Y-135061874D01*
X167745608Y-135057559D01*
X167757467Y-135057000D01*
X168769269Y-135057000D01*
X168772325Y-135056700D01*
X168772332Y-135056700D01*
X168830840Y-135050963D01*
X168916333Y-135042580D01*
X168922234Y-135040798D01*
X168922236Y-135040798D01*
X169019536Y-135011421D01*
X169105669Y-134985416D01*
X169280296Y-134892566D01*
X169366562Y-134822209D01*
X169428787Y-134771460D01*
X169428790Y-134771457D01*
X169433562Y-134767565D01*
X169466275Y-134728022D01*
X169555701Y-134619925D01*
X169555703Y-134619921D01*
X169559630Y-134615175D01*
X169653698Y-134441201D01*
X169712182Y-134252268D01*
X169732855Y-134055575D01*
X169714930Y-133858612D01*
X169714361Y-133856680D01*
X169721105Y-133787447D01*
X169765099Y-133731724D01*
X169837990Y-133708500D01*
X171993101Y-133708500D01*
X172006708Y-133709237D01*
X172038206Y-133712659D01*
X172038211Y-133712659D01*
X172044332Y-133713324D01*
X172070582Y-133711027D01*
X172094332Y-133708950D01*
X172099158Y-133708621D01*
X172101630Y-133708500D01*
X172104713Y-133708500D01*
X172116682Y-133707326D01*
X172147450Y-133704310D01*
X172148763Y-133704188D01*
X172193028Y-133700315D01*
X172241357Y-133696087D01*
X172246476Y-133694600D01*
X172251777Y-133694080D01*
X172340778Y-133667209D01*
X172341911Y-133666874D01*
X172425358Y-133642630D01*
X172425362Y-133642628D01*
X172431280Y-133640909D01*
X172436012Y-133638456D01*
X172441113Y-133636916D01*
X172446556Y-133634022D01*
X172523204Y-133593269D01*
X172524370Y-133592657D01*
X172601397Y-133552729D01*
X172606870Y-133549892D01*
X172611033Y-133546569D01*
X172615740Y-133544066D01*
X172687862Y-133485245D01*
X172688718Y-133484554D01*
X172727917Y-133453262D01*
X172730421Y-133450758D01*
X172731139Y-133450116D01*
X172735472Y-133446415D01*
X172769006Y-133419065D01*
X172798232Y-133383737D01*
X172806221Y-133374958D01*
X173708741Y-132472438D01*
X174612273Y-131568905D01*
X174674585Y-131534880D01*
X174701368Y-131532000D01*
X190886269Y-131532000D01*
X190889325Y-131531700D01*
X190889332Y-131531700D01*
X190947840Y-131525963D01*
X191033333Y-131517580D01*
X191039234Y-131515798D01*
X191039236Y-131515798D01*
X191128600Y-131488817D01*
X191222669Y-131460416D01*
X191397296Y-131367566D01*
X191497959Y-131285467D01*
X191545787Y-131246460D01*
X191545790Y-131246457D01*
X191550562Y-131242565D01*
X191602950Y-131179239D01*
X191672701Y-131094925D01*
X191672703Y-131094921D01*
X191676630Y-131090175D01*
X191770698Y-130916201D01*
X191829182Y-130727268D01*
X191835417Y-130667949D01*
X191849211Y-130536704D01*
X191849211Y-130536702D01*
X191849855Y-130530575D01*
X191831930Y-130333612D01*
X191776090Y-130143881D01*
X191756896Y-130107165D01*
X191713566Y-130024285D01*
X191684460Y-129968610D01*
X191560532Y-129814475D01*
X191554221Y-129809179D01*
X191515983Y-129777094D01*
X191409026Y-129687346D01*
X191403628Y-129684379D01*
X191403623Y-129684375D01*
X191241108Y-129595033D01*
X191241109Y-129595033D01*
X191235713Y-129592067D01*
X191229846Y-129590206D01*
X191229844Y-129590205D01*
X191053064Y-129534127D01*
X191053063Y-129534127D01*
X191047194Y-129532265D01*
X190893273Y-129515000D01*
X174293287Y-129515000D01*
X174279680Y-129514263D01*
X174248182Y-129510841D01*
X174248177Y-129510841D01*
X174242056Y-129510176D01*
X174215806Y-129512473D01*
X174192056Y-129514550D01*
X174187230Y-129514879D01*
X174184758Y-129515000D01*
X174181675Y-129515000D01*
X174169706Y-129516174D01*
X174138938Y-129519190D01*
X174137625Y-129519312D01*
X174093360Y-129523185D01*
X174045031Y-129527413D01*
X174039912Y-129528900D01*
X174034611Y-129529420D01*
X173945610Y-129556291D01*
X173944477Y-129556626D01*
X173861030Y-129580870D01*
X173861026Y-129580872D01*
X173855108Y-129582591D01*
X173850376Y-129585044D01*
X173845275Y-129586584D01*
X173839832Y-129589478D01*
X173763184Y-129630231D01*
X173762018Y-129630843D01*
X173716909Y-129654226D01*
X173679518Y-129673608D01*
X173675355Y-129676931D01*
X173670648Y-129679434D01*
X173665873Y-129683328D01*
X173665872Y-129683329D01*
X173598546Y-129738239D01*
X173597519Y-129739067D01*
X173561236Y-129768031D01*
X173561231Y-129768036D01*
X173558472Y-129770238D01*
X173555971Y-129772739D01*
X173555253Y-129773381D01*
X173550905Y-129777094D01*
X173517382Y-129804435D01*
X173513459Y-129809177D01*
X173513457Y-129809179D01*
X173488147Y-129839773D01*
X173480157Y-129848553D01*
X171674115Y-131654595D01*
X171611803Y-131688621D01*
X171585020Y-131691500D01*
X168650231Y-131691500D01*
X168647175Y-131691800D01*
X168647168Y-131691800D01*
X168588660Y-131697537D01*
X168503167Y-131705920D01*
X168497266Y-131707702D01*
X168497264Y-131707702D01*
X168423947Y-131729838D01*
X168313831Y-131763084D01*
X168139204Y-131855934D01*
X168052938Y-131926291D01*
X167990713Y-131977040D01*
X167990710Y-131977043D01*
X167985938Y-131980935D01*
X167982011Y-131985682D01*
X167982009Y-131985684D01*
X167863799Y-132128575D01*
X167863797Y-132128579D01*
X167859870Y-132133325D01*
X167765802Y-132307299D01*
X167763979Y-132313187D01*
X167763979Y-132313188D01*
X167738389Y-132395858D01*
X167699139Y-132455018D01*
X167634134Y-132483566D01*
X167564015Y-132472438D01*
X167528929Y-132447695D01*
X167271905Y-132190671D01*
X167237879Y-132128359D01*
X167235000Y-132101576D01*
X167235000Y-129158000D01*
X167255002Y-129089879D01*
X167308658Y-129043386D01*
X167361000Y-129032000D01*
X175965596Y-129032000D01*
X175978329Y-129032645D01*
X176013834Y-129036252D01*
X176013839Y-129036252D01*
X176019962Y-129036874D01*
X176065608Y-129032559D01*
X176077467Y-129032000D01*
X189018777Y-129032000D01*
X189032384Y-129032737D01*
X189063882Y-129036159D01*
X189063887Y-129036159D01*
X189070008Y-129036824D01*
X189096258Y-129034527D01*
X189120008Y-129032450D01*
X189124834Y-129032121D01*
X189127306Y-129032000D01*
X189130389Y-129032000D01*
X189142358Y-129030826D01*
X189173126Y-129027810D01*
X189174439Y-129027688D01*
X189218704Y-129023815D01*
X189267033Y-129019587D01*
X189272152Y-129018100D01*
X189277453Y-129017580D01*
X189366454Y-128990709D01*
X189367587Y-128990374D01*
X189451034Y-128966130D01*
X189451038Y-128966128D01*
X189456956Y-128964409D01*
X189461688Y-128961956D01*
X189466789Y-128960416D01*
X189472232Y-128957522D01*
X189548880Y-128916769D01*
X189550046Y-128916157D01*
X189627073Y-128876229D01*
X189632546Y-128873392D01*
X189636709Y-128870069D01*
X189641416Y-128867566D01*
X189713538Y-128808745D01*
X189714394Y-128808054D01*
X189753593Y-128776762D01*
X189756097Y-128774258D01*
X189756815Y-128773616D01*
X189761148Y-128769915D01*
X189794682Y-128742565D01*
X189823908Y-128707237D01*
X189831897Y-128698458D01*
X191096523Y-127433831D01*
X191096530Y-127433825D01*
X191096533Y-127433822D01*
X192401279Y-126129075D01*
X192411422Y-126119973D01*
X192436118Y-126100117D01*
X192440925Y-126096252D01*
X192472972Y-126058060D01*
X192480387Y-126049968D01*
X193343870Y-125186484D01*
X193353330Y-125177936D01*
X193355886Y-125175851D01*
X193385762Y-125151485D01*
X193389687Y-125146741D01*
X193417878Y-125112664D01*
X193419096Y-125111258D01*
X193420009Y-125110345D01*
X193449880Y-125073980D01*
X193511830Y-124999095D01*
X193512675Y-124997532D01*
X193513803Y-124996159D01*
X193559620Y-124910709D01*
X193605898Y-124825121D01*
X193606425Y-124823417D01*
X193607262Y-124821857D01*
X193635587Y-124729214D01*
X193635716Y-124728796D01*
X193662636Y-124641828D01*
X193664382Y-124636188D01*
X193664567Y-124634425D01*
X193665088Y-124632722D01*
X193674922Y-124535903D01*
X193685055Y-124439495D01*
X193684894Y-124437728D01*
X193685074Y-124435958D01*
X193675928Y-124339204D01*
X193667130Y-124242532D01*
X193666628Y-124240827D01*
X193666461Y-124239058D01*
X193664777Y-124233409D01*
X193664776Y-124233404D01*
X193638764Y-124146148D01*
X193638639Y-124145727D01*
X193630676Y-124118671D01*
X193611290Y-124052801D01*
X193610466Y-124051225D01*
X193609959Y-124049524D01*
X193564664Y-123963614D01*
X193519660Y-123877530D01*
X193518548Y-123876146D01*
X193517718Y-123874573D01*
X193498482Y-123850818D01*
X193456592Y-123799089D01*
X193456316Y-123798746D01*
X193399444Y-123728011D01*
X193399441Y-123728008D01*
X193395732Y-123723395D01*
X193394369Y-123722252D01*
X193393253Y-123720873D01*
X193318925Y-123658945D01*
X193318588Y-123658663D01*
X193248744Y-123600057D01*
X193244226Y-123596266D01*
X193242665Y-123595408D01*
X193241304Y-123594274D01*
X193236137Y-123591457D01*
X193236133Y-123591454D01*
X193156181Y-123547862D01*
X193156037Y-123547783D01*
X193070913Y-123500987D01*
X193069224Y-123500451D01*
X193067659Y-123499598D01*
X193062048Y-123497840D01*
X193062044Y-123497838D01*
X193002543Y-123479192D01*
X192974855Y-123470516D01*
X192974652Y-123470451D01*
X192882394Y-123441185D01*
X192880630Y-123440987D01*
X192878932Y-123440455D01*
X192782460Y-123429975D01*
X192782245Y-123429951D01*
X192757173Y-123427139D01*
X192731970Y-123424312D01*
X192731966Y-123424312D01*
X192728473Y-123423920D01*
X192727171Y-123423920D01*
X192725319Y-123423768D01*
X192706200Y-123421691D01*
X192688436Y-123419761D01*
X192688433Y-123419761D01*
X192682312Y-123419096D01*
X192634545Y-123423275D01*
X192632647Y-123423441D01*
X192621666Y-123423920D01*
X191893369Y-123423920D01*
X191880636Y-123423275D01*
X191835704Y-123418711D01*
X191835440Y-123418684D01*
X191738975Y-123408545D01*
X191737208Y-123408706D01*
X191735438Y-123408526D01*
X191729556Y-123409082D01*
X191729555Y-123409082D01*
X191638722Y-123417668D01*
X191638285Y-123417708D01*
X191593169Y-123421814D01*
X191542012Y-123426470D01*
X191540307Y-123426972D01*
X191538538Y-123427139D01*
X191532889Y-123428823D01*
X191532884Y-123428824D01*
X191445628Y-123454836D01*
X191445207Y-123454961D01*
X191352281Y-123482310D01*
X191350705Y-123483134D01*
X191349004Y-123483641D01*
X191263152Y-123528906D01*
X191177010Y-123573940D01*
X191175625Y-123575054D01*
X191174054Y-123575882D01*
X191169472Y-123579592D01*
X191169468Y-123579595D01*
X191098818Y-123636807D01*
X191098476Y-123637083D01*
X191027491Y-123694156D01*
X191027488Y-123694159D01*
X191022875Y-123697868D01*
X191021732Y-123699231D01*
X191020353Y-123700347D01*
X191016563Y-123704896D01*
X190958425Y-123774675D01*
X190958143Y-123775012D01*
X190895746Y-123849374D01*
X190894888Y-123850935D01*
X190893754Y-123852296D01*
X190890937Y-123857463D01*
X190890934Y-123857467D01*
X190850345Y-123931912D01*
X190847275Y-123937542D01*
X190800467Y-124022687D01*
X190799931Y-124024376D01*
X190799078Y-124025941D01*
X190797320Y-124031552D01*
X190797318Y-124031556D01*
X190781464Y-124082148D01*
X190769974Y-124118814D01*
X190740665Y-124211206D01*
X190740467Y-124212970D01*
X190739935Y-124214668D01*
X190729441Y-124311266D01*
X190723400Y-124365127D01*
X190723400Y-124366429D01*
X190723248Y-124368281D01*
X190718576Y-124411288D01*
X190719113Y-124417423D01*
X190722921Y-124460953D01*
X190723400Y-124471934D01*
X190723400Y-124902294D01*
X190703398Y-124970415D01*
X190686496Y-124991389D01*
X190218238Y-125459648D01*
X189750592Y-125927294D01*
X189750587Y-125927298D01*
X188699790Y-126978096D01*
X188637479Y-127012120D01*
X188610696Y-127015000D01*
X177034500Y-127015000D01*
X176966379Y-126994998D01*
X176919886Y-126941342D01*
X176908500Y-126889000D01*
X176908500Y-125980434D01*
X177597200Y-125980434D01*
X177603955Y-126042616D01*
X177655085Y-126179005D01*
X177742439Y-126295561D01*
X177858995Y-126382915D01*
X177995384Y-126434045D01*
X178057566Y-126440800D01*
X179853834Y-126440800D01*
X179916016Y-126434045D01*
X180052405Y-126382915D01*
X180168961Y-126295561D01*
X180256315Y-126179005D01*
X180276009Y-126126471D01*
X180300298Y-126061682D01*
X180342940Y-126004918D01*
X180409502Y-125980218D01*
X180478850Y-125995426D01*
X180513517Y-126023414D01*
X180541950Y-126056238D01*
X180713826Y-126198932D01*
X180906700Y-126311638D01*
X181115392Y-126391330D01*
X181120460Y-126392361D01*
X181120463Y-126392362D01*
X181227717Y-126414183D01*
X181334297Y-126435867D01*
X181339472Y-126436057D01*
X181339474Y-126436057D01*
X181552373Y-126443864D01*
X181552377Y-126443864D01*
X181557537Y-126444053D01*
X181562657Y-126443397D01*
X181562659Y-126443397D01*
X181773988Y-126416325D01*
X181773989Y-126416325D01*
X181779116Y-126415668D01*
X181784066Y-126414183D01*
X181988129Y-126352961D01*
X181988134Y-126352959D01*
X181993084Y-126351474D01*
X182193694Y-126253196D01*
X182375560Y-126123473D01*
X182533796Y-125965789D01*
X182541006Y-125955756D01*
X182664153Y-125784377D01*
X182665476Y-125785328D01*
X182712345Y-125742157D01*
X182782280Y-125729925D01*
X182847726Y-125757444D01*
X182875575Y-125789294D01*
X182935687Y-125887388D01*
X183081950Y-126056238D01*
X183253826Y-126198932D01*
X183446700Y-126311638D01*
X183655392Y-126391330D01*
X183660460Y-126392361D01*
X183660463Y-126392362D01*
X183767717Y-126414183D01*
X183874297Y-126435867D01*
X183879472Y-126436057D01*
X183879474Y-126436057D01*
X184092373Y-126443864D01*
X184092377Y-126443864D01*
X184097537Y-126444053D01*
X184102657Y-126443397D01*
X184102659Y-126443397D01*
X184313988Y-126416325D01*
X184313989Y-126416325D01*
X184319116Y-126415668D01*
X184324066Y-126414183D01*
X184528129Y-126352961D01*
X184528134Y-126352959D01*
X184533084Y-126351474D01*
X184733694Y-126253196D01*
X184915560Y-126123473D01*
X185073796Y-125965789D01*
X185081006Y-125955756D01*
X185204153Y-125784377D01*
X185205476Y-125785328D01*
X185252345Y-125742157D01*
X185322280Y-125729925D01*
X185387726Y-125757444D01*
X185415575Y-125789294D01*
X185475687Y-125887388D01*
X185621950Y-126056238D01*
X185793826Y-126198932D01*
X185986700Y-126311638D01*
X186195392Y-126391330D01*
X186200460Y-126392361D01*
X186200463Y-126392362D01*
X186307717Y-126414183D01*
X186414297Y-126435867D01*
X186419472Y-126436057D01*
X186419474Y-126436057D01*
X186632373Y-126443864D01*
X186632377Y-126443864D01*
X186637537Y-126444053D01*
X186642657Y-126443397D01*
X186642659Y-126443397D01*
X186853988Y-126416325D01*
X186853989Y-126416325D01*
X186859116Y-126415668D01*
X186864066Y-126414183D01*
X187068129Y-126352961D01*
X187068134Y-126352959D01*
X187073084Y-126351474D01*
X187273694Y-126253196D01*
X187455560Y-126123473D01*
X187613796Y-125965789D01*
X187621006Y-125955756D01*
X187741135Y-125788577D01*
X187744153Y-125784377D01*
X187757902Y-125756559D01*
X187840836Y-125588753D01*
X187840837Y-125588751D01*
X187843130Y-125584111D01*
X187908070Y-125370369D01*
X187937229Y-125148890D01*
X187937311Y-125145540D01*
X187938774Y-125085665D01*
X187938774Y-125085661D01*
X187938856Y-125082300D01*
X187920552Y-124859661D01*
X187866131Y-124643002D01*
X187777054Y-124438140D01*
X187727557Y-124361630D01*
X187658522Y-124254917D01*
X187658520Y-124254914D01*
X187655714Y-124250577D01*
X187505370Y-124085351D01*
X187501319Y-124082152D01*
X187501315Y-124082148D01*
X187334114Y-123950100D01*
X187334110Y-123950098D01*
X187330059Y-123946898D01*
X187134489Y-123838938D01*
X187129620Y-123837214D01*
X187129616Y-123837212D01*
X186928787Y-123766095D01*
X186928783Y-123766094D01*
X186923912Y-123764369D01*
X186918819Y-123763462D01*
X186918816Y-123763461D01*
X186709073Y-123726100D01*
X186709067Y-123726099D01*
X186703984Y-123725194D01*
X186630152Y-123724292D01*
X186485781Y-123722528D01*
X186485779Y-123722528D01*
X186480611Y-123722465D01*
X186259791Y-123756255D01*
X186047456Y-123825657D01*
X185849307Y-123928807D01*
X185845174Y-123931910D01*
X185845171Y-123931912D01*
X185684162Y-124052801D01*
X185670665Y-124062935D01*
X185667093Y-124066673D01*
X185526932Y-124213343D01*
X185516329Y-124224438D01*
X185408901Y-124381921D01*
X185353993Y-124426921D01*
X185283468Y-124435092D01*
X185219721Y-124403838D01*
X185199024Y-124379354D01*
X185118522Y-124254917D01*
X185118520Y-124254914D01*
X185115714Y-124250577D01*
X184965370Y-124085351D01*
X184961319Y-124082152D01*
X184961315Y-124082148D01*
X184794114Y-123950100D01*
X184794110Y-123950098D01*
X184790059Y-123946898D01*
X184594489Y-123838938D01*
X184589620Y-123837214D01*
X184589616Y-123837212D01*
X184388787Y-123766095D01*
X184388783Y-123766094D01*
X184383912Y-123764369D01*
X184378819Y-123763462D01*
X184378816Y-123763461D01*
X184169073Y-123726100D01*
X184169067Y-123726099D01*
X184163984Y-123725194D01*
X184090152Y-123724292D01*
X183945781Y-123722528D01*
X183945779Y-123722528D01*
X183940611Y-123722465D01*
X183719791Y-123756255D01*
X183507456Y-123825657D01*
X183309307Y-123928807D01*
X183305174Y-123931910D01*
X183305171Y-123931912D01*
X183144162Y-124052801D01*
X183130665Y-124062935D01*
X183127093Y-124066673D01*
X182986932Y-124213343D01*
X182976329Y-124224438D01*
X182868901Y-124381921D01*
X182813993Y-124426921D01*
X182743468Y-124435092D01*
X182679721Y-124403838D01*
X182659024Y-124379354D01*
X182578522Y-124254917D01*
X182578520Y-124254914D01*
X182575714Y-124250577D01*
X182425370Y-124085351D01*
X182421319Y-124082152D01*
X182421315Y-124082148D01*
X182254114Y-123950100D01*
X182254110Y-123950098D01*
X182250059Y-123946898D01*
X182054489Y-123838938D01*
X182049620Y-123837214D01*
X182049616Y-123837212D01*
X181848787Y-123766095D01*
X181848783Y-123766094D01*
X181843912Y-123764369D01*
X181838819Y-123763462D01*
X181838816Y-123763461D01*
X181629073Y-123726100D01*
X181629067Y-123726099D01*
X181623984Y-123725194D01*
X181550152Y-123724292D01*
X181405781Y-123722528D01*
X181405779Y-123722528D01*
X181400611Y-123722465D01*
X181179791Y-123756255D01*
X180967456Y-123825657D01*
X180769307Y-123928807D01*
X180765174Y-123931910D01*
X180765171Y-123931912D01*
X180604162Y-124052801D01*
X180590665Y-124062935D01*
X180534237Y-124121984D01*
X180509983Y-124147364D01*
X180448459Y-124182794D01*
X180377546Y-124179337D01*
X180319760Y-124138091D01*
X180300907Y-124104543D01*
X180259467Y-123994003D01*
X180256315Y-123985595D01*
X180168961Y-123869039D01*
X180052405Y-123781685D01*
X179916016Y-123730555D01*
X179853834Y-123723800D01*
X178057566Y-123723800D01*
X177995384Y-123730555D01*
X177858995Y-123781685D01*
X177742439Y-123869039D01*
X177655085Y-123985595D01*
X177603955Y-124121984D01*
X177597200Y-124184166D01*
X177597200Y-125980434D01*
X176908500Y-125980434D01*
X176908500Y-119069169D01*
X176928502Y-119001048D01*
X176982158Y-118954555D01*
X177052432Y-118944451D01*
X177117012Y-118973945D01*
X177125346Y-118982413D01*
X177125461Y-118982298D01*
X177283399Y-119140236D01*
X177291807Y-119147292D01*
X177470267Y-119272251D01*
X177479763Y-119277734D01*
X177677221Y-119369810D01*
X177687513Y-119373556D01*
X177859777Y-119419714D01*
X177873873Y-119419378D01*
X177877274Y-119411436D01*
X177877274Y-119406287D01*
X178385274Y-119406287D01*
X178389247Y-119419818D01*
X178397796Y-119421047D01*
X178575035Y-119373556D01*
X178585327Y-119369810D01*
X178782785Y-119277734D01*
X178792281Y-119272251D01*
X178970741Y-119147292D01*
X178979149Y-119140236D01*
X179133190Y-118986195D01*
X179140246Y-118977787D01*
X179265205Y-118799327D01*
X179270688Y-118789831D01*
X179286803Y-118755271D01*
X179333720Y-118701986D01*
X179401997Y-118682525D01*
X179469957Y-118703067D01*
X179515193Y-118755271D01*
X179531425Y-118790082D01*
X179531428Y-118790087D01*
X179533751Y-118795069D01*
X179536908Y-118799577D01*
X179659002Y-118973945D01*
X179665076Y-118982620D01*
X179826974Y-119144518D01*
X179831482Y-119147675D01*
X179831485Y-119147677D01*
X179909663Y-119202418D01*
X180014525Y-119275843D01*
X180019507Y-119278166D01*
X180019512Y-119278169D01*
X180216039Y-119369810D01*
X180222031Y-119372604D01*
X180227339Y-119374026D01*
X180227341Y-119374027D01*
X180437872Y-119430439D01*
X180437874Y-119430439D01*
X180443187Y-119431863D01*
X180671274Y-119451818D01*
X180899361Y-119431863D01*
X180904674Y-119430439D01*
X180904676Y-119430439D01*
X181115207Y-119374027D01*
X181115209Y-119374026D01*
X181120517Y-119372604D01*
X181126509Y-119369810D01*
X181323036Y-119278169D01*
X181323041Y-119278166D01*
X181328023Y-119275843D01*
X181432885Y-119202418D01*
X181511063Y-119147677D01*
X181511066Y-119147675D01*
X181515574Y-119144518D01*
X181677472Y-118982620D01*
X181683547Y-118973945D01*
X181805640Y-118799577D01*
X181808797Y-118795069D01*
X181811120Y-118790087D01*
X181811123Y-118790082D01*
X181827079Y-118755863D01*
X181873996Y-118702578D01*
X181942273Y-118683117D01*
X182010233Y-118703659D01*
X182055469Y-118755863D01*
X182071425Y-118790082D01*
X182071428Y-118790087D01*
X182073751Y-118795069D01*
X182076908Y-118799577D01*
X182199002Y-118973945D01*
X182205076Y-118982620D01*
X182366974Y-119144518D01*
X182371482Y-119147675D01*
X182371485Y-119147677D01*
X182449663Y-119202418D01*
X182554525Y-119275843D01*
X182559507Y-119278166D01*
X182559512Y-119278169D01*
X182756039Y-119369810D01*
X182762031Y-119372604D01*
X182767339Y-119374026D01*
X182767341Y-119374027D01*
X182977872Y-119430439D01*
X182977874Y-119430439D01*
X182983187Y-119431863D01*
X183211274Y-119451818D01*
X183439361Y-119431863D01*
X183444674Y-119430439D01*
X183444676Y-119430439D01*
X183655207Y-119374027D01*
X183655209Y-119374026D01*
X183660517Y-119372604D01*
X183666509Y-119369810D01*
X183863036Y-119278169D01*
X183863041Y-119278166D01*
X183868023Y-119275843D01*
X183972885Y-119202418D01*
X184051063Y-119147677D01*
X184051066Y-119147675D01*
X184055574Y-119144518D01*
X184217472Y-118982620D01*
X184223547Y-118973945D01*
X184345640Y-118799577D01*
X184348797Y-118795069D01*
X184351120Y-118790087D01*
X184351123Y-118790082D01*
X184367355Y-118755271D01*
X184414272Y-118701986D01*
X184482549Y-118682525D01*
X184550509Y-118703067D01*
X184595745Y-118755271D01*
X184611860Y-118789831D01*
X184617343Y-118799327D01*
X184742302Y-118977787D01*
X184749358Y-118986195D01*
X184903399Y-119140236D01*
X184911807Y-119147292D01*
X185090267Y-119272251D01*
X185099763Y-119277734D01*
X185297221Y-119369810D01*
X185307513Y-119373556D01*
X185479777Y-119419714D01*
X185493873Y-119419378D01*
X185497274Y-119411436D01*
X185497274Y-119406287D01*
X186005274Y-119406287D01*
X186009247Y-119419818D01*
X186017796Y-119421047D01*
X186195035Y-119373556D01*
X186205327Y-119369810D01*
X186402785Y-119277734D01*
X186412281Y-119272251D01*
X186590741Y-119147292D01*
X186599149Y-119140236D01*
X186753190Y-118986195D01*
X186760246Y-118977787D01*
X186885205Y-118799327D01*
X186890688Y-118789831D01*
X186982764Y-118592373D01*
X186986510Y-118582081D01*
X187042899Y-118371632D01*
X187044802Y-118360839D01*
X187059036Y-118198150D01*
X187059274Y-118192685D01*
X187999274Y-118192685D01*
X187999512Y-118198150D01*
X188013746Y-118360839D01*
X188015649Y-118371632D01*
X188072038Y-118582081D01*
X188075784Y-118592373D01*
X188167860Y-118789831D01*
X188173343Y-118799327D01*
X188298302Y-118977787D01*
X188305358Y-118986195D01*
X188459399Y-119140236D01*
X188467807Y-119147292D01*
X188646267Y-119272251D01*
X188655763Y-119277734D01*
X188853221Y-119369810D01*
X188863513Y-119373556D01*
X189035777Y-119419714D01*
X189049873Y-119419378D01*
X189053274Y-119411436D01*
X189053274Y-119406287D01*
X189561274Y-119406287D01*
X189565247Y-119419818D01*
X189573796Y-119421047D01*
X189751035Y-119373556D01*
X189761327Y-119369810D01*
X189958785Y-119277734D01*
X189968281Y-119272251D01*
X190146741Y-119147292D01*
X190155149Y-119140236D01*
X190309190Y-118986195D01*
X190316246Y-118977787D01*
X190441205Y-118799327D01*
X190446688Y-118789831D01*
X190462803Y-118755271D01*
X190509720Y-118701986D01*
X190577997Y-118682525D01*
X190645957Y-118703067D01*
X190691193Y-118755271D01*
X190707425Y-118790082D01*
X190707428Y-118790087D01*
X190709751Y-118795069D01*
X190712908Y-118799577D01*
X190835002Y-118973945D01*
X190841076Y-118982620D01*
X191002974Y-119144518D01*
X191007482Y-119147675D01*
X191007485Y-119147677D01*
X191085663Y-119202418D01*
X191190525Y-119275843D01*
X191195507Y-119278166D01*
X191195512Y-119278169D01*
X191392039Y-119369810D01*
X191398031Y-119372604D01*
X191403339Y-119374026D01*
X191403341Y-119374027D01*
X191613872Y-119430439D01*
X191613874Y-119430439D01*
X191619187Y-119431863D01*
X191847274Y-119451818D01*
X192075361Y-119431863D01*
X192080674Y-119430439D01*
X192080676Y-119430439D01*
X192291207Y-119374027D01*
X192291209Y-119374026D01*
X192296517Y-119372604D01*
X192302509Y-119369810D01*
X192499036Y-119278169D01*
X192499041Y-119278166D01*
X192504023Y-119275843D01*
X192608885Y-119202418D01*
X192687063Y-119147677D01*
X192687066Y-119147675D01*
X192691574Y-119144518D01*
X192853472Y-118982620D01*
X192859547Y-118973945D01*
X192981640Y-118799577D01*
X192984797Y-118795069D01*
X192987120Y-118790087D01*
X192987123Y-118790082D01*
X193003079Y-118755863D01*
X193049996Y-118702578D01*
X193118273Y-118683117D01*
X193186233Y-118703659D01*
X193231469Y-118755863D01*
X193247425Y-118790082D01*
X193247428Y-118790087D01*
X193249751Y-118795069D01*
X193252908Y-118799577D01*
X193375002Y-118973945D01*
X193381076Y-118982620D01*
X193542974Y-119144518D01*
X193547482Y-119147675D01*
X193547485Y-119147677D01*
X193625663Y-119202418D01*
X193730525Y-119275843D01*
X193735507Y-119278166D01*
X193735512Y-119278169D01*
X193932039Y-119369810D01*
X193938031Y-119372604D01*
X193943339Y-119374026D01*
X193943341Y-119374027D01*
X194153872Y-119430439D01*
X194153874Y-119430439D01*
X194159187Y-119431863D01*
X194387274Y-119451818D01*
X194615361Y-119431863D01*
X194620674Y-119430439D01*
X194620676Y-119430439D01*
X194831207Y-119374027D01*
X194831209Y-119374026D01*
X194836517Y-119372604D01*
X194842509Y-119369810D01*
X195039036Y-119278169D01*
X195039041Y-119278166D01*
X195044023Y-119275843D01*
X195148885Y-119202418D01*
X195227063Y-119147677D01*
X195227066Y-119147675D01*
X195231574Y-119144518D01*
X195393472Y-118982620D01*
X195399547Y-118973945D01*
X195521640Y-118799577D01*
X195524797Y-118795069D01*
X195527120Y-118790087D01*
X195527123Y-118790082D01*
X195543355Y-118755271D01*
X195590272Y-118701986D01*
X195658549Y-118682525D01*
X195726509Y-118703067D01*
X195771745Y-118755271D01*
X195787860Y-118789831D01*
X195793343Y-118799327D01*
X195918302Y-118977787D01*
X195925358Y-118986195D01*
X196079399Y-119140236D01*
X196087807Y-119147292D01*
X196266267Y-119272251D01*
X196275763Y-119277734D01*
X196473221Y-119369810D01*
X196483513Y-119373556D01*
X196655777Y-119419714D01*
X196669873Y-119419378D01*
X196673274Y-119411436D01*
X196673274Y-119406287D01*
X197181274Y-119406287D01*
X197185247Y-119419818D01*
X197193796Y-119421047D01*
X197371035Y-119373556D01*
X197381327Y-119369810D01*
X197578785Y-119277734D01*
X197588281Y-119272251D01*
X197766741Y-119147292D01*
X197775149Y-119140236D01*
X197929190Y-118986195D01*
X197936246Y-118977787D01*
X198061205Y-118799327D01*
X198066688Y-118789831D01*
X198158764Y-118592373D01*
X198162510Y-118582081D01*
X198218899Y-118371632D01*
X198220802Y-118360839D01*
X198235036Y-118198150D01*
X198235274Y-118192685D01*
X198235274Y-118010435D01*
X198230799Y-117995196D01*
X198229409Y-117993991D01*
X198221726Y-117992320D01*
X197199389Y-117992320D01*
X197184150Y-117996795D01*
X197182945Y-117998185D01*
X197181274Y-118005868D01*
X197181274Y-119406287D01*
X196673274Y-119406287D01*
X196673274Y-117466205D01*
X197181274Y-117466205D01*
X197185749Y-117481444D01*
X197187139Y-117482649D01*
X197194822Y-117484320D01*
X198217159Y-117484320D01*
X198232398Y-117479845D01*
X198233603Y-117478455D01*
X198235274Y-117470772D01*
X198235274Y-117283955D01*
X198235036Y-117278490D01*
X198220802Y-117115801D01*
X198218899Y-117105008D01*
X198162510Y-116894559D01*
X198158764Y-116884267D01*
X198066688Y-116686809D01*
X198061205Y-116677313D01*
X197936246Y-116498853D01*
X197929190Y-116490445D01*
X197775149Y-116336404D01*
X197766741Y-116329348D01*
X197588281Y-116204389D01*
X197578785Y-116198906D01*
X197381327Y-116106830D01*
X197371035Y-116103084D01*
X197198771Y-116056926D01*
X197184675Y-116057262D01*
X197181274Y-116065204D01*
X197181274Y-117466205D01*
X196673274Y-117466205D01*
X196673274Y-116070353D01*
X196669301Y-116056822D01*
X196660752Y-116055593D01*
X196483513Y-116103084D01*
X196473221Y-116106830D01*
X196275763Y-116198906D01*
X196266267Y-116204389D01*
X196087807Y-116329348D01*
X196079399Y-116336404D01*
X195925358Y-116490445D01*
X195918302Y-116498853D01*
X195793343Y-116677313D01*
X195787860Y-116686809D01*
X195771745Y-116721369D01*
X195724828Y-116774654D01*
X195656551Y-116794115D01*
X195588591Y-116773573D01*
X195543355Y-116721369D01*
X195527123Y-116686558D01*
X195527120Y-116686553D01*
X195524797Y-116681571D01*
X195393472Y-116494020D01*
X195231574Y-116332122D01*
X195227066Y-116328965D01*
X195227063Y-116328963D01*
X195132535Y-116262774D01*
X195044023Y-116200797D01*
X195039041Y-116198474D01*
X195039036Y-116198471D01*
X194841499Y-116106359D01*
X194841498Y-116106359D01*
X194836517Y-116104036D01*
X194831209Y-116102614D01*
X194831207Y-116102613D01*
X194620676Y-116046201D01*
X194620674Y-116046201D01*
X194615361Y-116044777D01*
X194387274Y-116024822D01*
X194159187Y-116044777D01*
X194153874Y-116046201D01*
X194153872Y-116046201D01*
X193943341Y-116102613D01*
X193943339Y-116102614D01*
X193938031Y-116104036D01*
X193933050Y-116106359D01*
X193933049Y-116106359D01*
X193735512Y-116198471D01*
X193735507Y-116198474D01*
X193730525Y-116200797D01*
X193642013Y-116262774D01*
X193547485Y-116328963D01*
X193547482Y-116328965D01*
X193542974Y-116332122D01*
X193381076Y-116494020D01*
X193249751Y-116681571D01*
X193247428Y-116686553D01*
X193247425Y-116686558D01*
X193231469Y-116720777D01*
X193184552Y-116774062D01*
X193116275Y-116793523D01*
X193048315Y-116772981D01*
X193003079Y-116720777D01*
X192987123Y-116686558D01*
X192987120Y-116686553D01*
X192984797Y-116681571D01*
X192853472Y-116494020D01*
X192691574Y-116332122D01*
X192687066Y-116328965D01*
X192687063Y-116328963D01*
X192592535Y-116262774D01*
X192504023Y-116200797D01*
X192499041Y-116198474D01*
X192499036Y-116198471D01*
X192301499Y-116106359D01*
X192301498Y-116106359D01*
X192296517Y-116104036D01*
X192291209Y-116102614D01*
X192291207Y-116102613D01*
X192080676Y-116046201D01*
X192080674Y-116046201D01*
X192075361Y-116044777D01*
X191847274Y-116024822D01*
X191619187Y-116044777D01*
X191613874Y-116046201D01*
X191613872Y-116046201D01*
X191403341Y-116102613D01*
X191403339Y-116102614D01*
X191398031Y-116104036D01*
X191393050Y-116106359D01*
X191393049Y-116106359D01*
X191195512Y-116198471D01*
X191195507Y-116198474D01*
X191190525Y-116200797D01*
X191102013Y-116262774D01*
X191007485Y-116328963D01*
X191007482Y-116328965D01*
X191002974Y-116332122D01*
X190841076Y-116494020D01*
X190709751Y-116681571D01*
X190707428Y-116686553D01*
X190707425Y-116686558D01*
X190691193Y-116721369D01*
X190644276Y-116774654D01*
X190575999Y-116794115D01*
X190508039Y-116773573D01*
X190462803Y-116721369D01*
X190446688Y-116686809D01*
X190441205Y-116677313D01*
X190316246Y-116498853D01*
X190309190Y-116490445D01*
X190155149Y-116336404D01*
X190146741Y-116329348D01*
X189968281Y-116204389D01*
X189958785Y-116198906D01*
X189761327Y-116106830D01*
X189751035Y-116103084D01*
X189578771Y-116056926D01*
X189564675Y-116057262D01*
X189561274Y-116065204D01*
X189561274Y-119406287D01*
X189053274Y-119406287D01*
X189053274Y-118010435D01*
X189048799Y-117995196D01*
X189047409Y-117993991D01*
X189039726Y-117992320D01*
X188017389Y-117992320D01*
X188002150Y-117996795D01*
X188000945Y-117998185D01*
X187999274Y-118005868D01*
X187999274Y-118192685D01*
X187059274Y-118192685D01*
X187059274Y-118010435D01*
X187054799Y-117995196D01*
X187053409Y-117993991D01*
X187045726Y-117992320D01*
X186023389Y-117992320D01*
X186008150Y-117996795D01*
X186006945Y-117998185D01*
X186005274Y-118005868D01*
X186005274Y-119406287D01*
X185497274Y-119406287D01*
X185497274Y-117466205D01*
X186005274Y-117466205D01*
X186009749Y-117481444D01*
X186011139Y-117482649D01*
X186018822Y-117484320D01*
X187041159Y-117484320D01*
X187056398Y-117479845D01*
X187057603Y-117478455D01*
X187059274Y-117470772D01*
X187059274Y-117466205D01*
X187999274Y-117466205D01*
X188003749Y-117481444D01*
X188005139Y-117482649D01*
X188012822Y-117484320D01*
X189035159Y-117484320D01*
X189050398Y-117479845D01*
X189051603Y-117478455D01*
X189053274Y-117470772D01*
X189053274Y-116070353D01*
X189049301Y-116056822D01*
X189040752Y-116055593D01*
X188863513Y-116103084D01*
X188853221Y-116106830D01*
X188655763Y-116198906D01*
X188646267Y-116204389D01*
X188467807Y-116329348D01*
X188459399Y-116336404D01*
X188305358Y-116490445D01*
X188298302Y-116498853D01*
X188173343Y-116677313D01*
X188167860Y-116686809D01*
X188075784Y-116884267D01*
X188072038Y-116894559D01*
X188015649Y-117105008D01*
X188013746Y-117115801D01*
X187999512Y-117278490D01*
X187999274Y-117283955D01*
X187999274Y-117466205D01*
X187059274Y-117466205D01*
X187059274Y-117283955D01*
X187059036Y-117278490D01*
X187044802Y-117115801D01*
X187042899Y-117105008D01*
X186986510Y-116894559D01*
X186982764Y-116884267D01*
X186890688Y-116686809D01*
X186885205Y-116677313D01*
X186760246Y-116498853D01*
X186753190Y-116490445D01*
X186599149Y-116336404D01*
X186590741Y-116329348D01*
X186412281Y-116204389D01*
X186402785Y-116198906D01*
X186205327Y-116106830D01*
X186195035Y-116103084D01*
X186022771Y-116056926D01*
X186008675Y-116057262D01*
X186005274Y-116065204D01*
X186005274Y-117466205D01*
X185497274Y-117466205D01*
X185497274Y-116070353D01*
X185493301Y-116056822D01*
X185484752Y-116055593D01*
X185307513Y-116103084D01*
X185297221Y-116106830D01*
X185099763Y-116198906D01*
X185090267Y-116204389D01*
X184911807Y-116329348D01*
X184903399Y-116336404D01*
X184749358Y-116490445D01*
X184742302Y-116498853D01*
X184617343Y-116677313D01*
X184611860Y-116686809D01*
X184595745Y-116721369D01*
X184548828Y-116774654D01*
X184480551Y-116794115D01*
X184412591Y-116773573D01*
X184367355Y-116721369D01*
X184351123Y-116686558D01*
X184351120Y-116686553D01*
X184348797Y-116681571D01*
X184217472Y-116494020D01*
X184055574Y-116332122D01*
X184051066Y-116328965D01*
X184051063Y-116328963D01*
X183956535Y-116262774D01*
X183868023Y-116200797D01*
X183863041Y-116198474D01*
X183863036Y-116198471D01*
X183665499Y-116106359D01*
X183665498Y-116106359D01*
X183660517Y-116104036D01*
X183655209Y-116102614D01*
X183655207Y-116102613D01*
X183444676Y-116046201D01*
X183444674Y-116046201D01*
X183439361Y-116044777D01*
X183211274Y-116024822D01*
X182983187Y-116044777D01*
X182977874Y-116046201D01*
X182977872Y-116046201D01*
X182767341Y-116102613D01*
X182767339Y-116102614D01*
X182762031Y-116104036D01*
X182757050Y-116106359D01*
X182757049Y-116106359D01*
X182559512Y-116198471D01*
X182559507Y-116198474D01*
X182554525Y-116200797D01*
X182466013Y-116262774D01*
X182371485Y-116328963D01*
X182371482Y-116328965D01*
X182366974Y-116332122D01*
X182205076Y-116494020D01*
X182073751Y-116681571D01*
X182071428Y-116686553D01*
X182071425Y-116686558D01*
X182055469Y-116720777D01*
X182008552Y-116774062D01*
X181940275Y-116793523D01*
X181872315Y-116772981D01*
X181827079Y-116720777D01*
X181811123Y-116686558D01*
X181811120Y-116686553D01*
X181808797Y-116681571D01*
X181677472Y-116494020D01*
X181515574Y-116332122D01*
X181511066Y-116328965D01*
X181511063Y-116328963D01*
X181416535Y-116262774D01*
X181328023Y-116200797D01*
X181323041Y-116198474D01*
X181323036Y-116198471D01*
X181125499Y-116106359D01*
X181125498Y-116106359D01*
X181120517Y-116104036D01*
X181115209Y-116102614D01*
X181115207Y-116102613D01*
X180904676Y-116046201D01*
X180904674Y-116046201D01*
X180899361Y-116044777D01*
X180671274Y-116024822D01*
X180443187Y-116044777D01*
X180437874Y-116046201D01*
X180437872Y-116046201D01*
X180227341Y-116102613D01*
X180227339Y-116102614D01*
X180222031Y-116104036D01*
X180217050Y-116106359D01*
X180217049Y-116106359D01*
X180019512Y-116198471D01*
X180019507Y-116198474D01*
X180014525Y-116200797D01*
X179926013Y-116262774D01*
X179831485Y-116328963D01*
X179831482Y-116328965D01*
X179826974Y-116332122D01*
X179665076Y-116494020D01*
X179533751Y-116681571D01*
X179531428Y-116686553D01*
X179531425Y-116686558D01*
X179515193Y-116721369D01*
X179468276Y-116774654D01*
X179399999Y-116794115D01*
X179332039Y-116773573D01*
X179286803Y-116721369D01*
X179270688Y-116686809D01*
X179265205Y-116677313D01*
X179140246Y-116498853D01*
X179133190Y-116490445D01*
X178979149Y-116336404D01*
X178970741Y-116329348D01*
X178792281Y-116204389D01*
X178782785Y-116198906D01*
X178585327Y-116106830D01*
X178575035Y-116103084D01*
X178402771Y-116056926D01*
X178388675Y-116057262D01*
X178385274Y-116065204D01*
X178385274Y-119406287D01*
X177877274Y-119406287D01*
X177877274Y-116070353D01*
X177873301Y-116056822D01*
X177864752Y-116055593D01*
X177687513Y-116103084D01*
X177677221Y-116106830D01*
X177479763Y-116198906D01*
X177470267Y-116204389D01*
X177291807Y-116329348D01*
X177283399Y-116336404D01*
X177129358Y-116490445D01*
X177122298Y-116498858D01*
X177043279Y-116611710D01*
X176987822Y-116656039D01*
X176917203Y-116663348D01*
X176853843Y-116631318D01*
X176828814Y-116598593D01*
X176746959Y-116444645D01*
X176744066Y-116439204D01*
X176656732Y-116332122D01*
X176622960Y-116290713D01*
X176622957Y-116290710D01*
X176619065Y-116285938D01*
X176614316Y-116282009D01*
X176471425Y-116163799D01*
X176471421Y-116163797D01*
X176466675Y-116159870D01*
X176292701Y-116065802D01*
X176103768Y-116007318D01*
X176097643Y-116006674D01*
X176097642Y-116006674D01*
X175913204Y-115987289D01*
X175913202Y-115987289D01*
X175907075Y-115986645D01*
X175824576Y-115994153D01*
X175716251Y-116004011D01*
X175716248Y-116004012D01*
X175710112Y-116004570D01*
X175704206Y-116006308D01*
X175704202Y-116006309D01*
X175639673Y-116025301D01*
X175520381Y-116060410D01*
X175514923Y-116063263D01*
X175514919Y-116063265D01*
X175436933Y-116104036D01*
X175345110Y-116152040D01*
X175190975Y-116275968D01*
X175063846Y-116427474D01*
X175060879Y-116432872D01*
X175060875Y-116432877D01*
X174982095Y-116576180D01*
X174968567Y-116600787D01*
X174966706Y-116606654D01*
X174966705Y-116606656D01*
X174944371Y-116677063D01*
X174908765Y-116789306D01*
X174891500Y-116943227D01*
X174891500Y-120115500D01*
X174871498Y-120183621D01*
X174817842Y-120230114D01*
X174765500Y-120241500D01*
X173101866Y-120241500D01*
X173039684Y-120248255D01*
X172903295Y-120299385D01*
X172786739Y-120386739D01*
X172699385Y-120503295D01*
X172696233Y-120511703D01*
X172654919Y-120621907D01*
X172612277Y-120678671D01*
X172545716Y-120703371D01*
X172476367Y-120688163D01*
X172443743Y-120662476D01*
X172393151Y-120606875D01*
X172393142Y-120606866D01*
X172389670Y-120603051D01*
X172385619Y-120599852D01*
X172385615Y-120599848D01*
X172218414Y-120467800D01*
X172218410Y-120467798D01*
X172214359Y-120464598D01*
X172018789Y-120356638D01*
X172013920Y-120354914D01*
X172013916Y-120354912D01*
X171813087Y-120283795D01*
X171813083Y-120283794D01*
X171808212Y-120282069D01*
X171803119Y-120281162D01*
X171803116Y-120281161D01*
X171593373Y-120243800D01*
X171593367Y-120243799D01*
X171588284Y-120242894D01*
X171514452Y-120241992D01*
X171370081Y-120240228D01*
X171370079Y-120240228D01*
X171364911Y-120240165D01*
X171144091Y-120273955D01*
X170931756Y-120343357D01*
X170733607Y-120446507D01*
X170729474Y-120449610D01*
X170729471Y-120449612D01*
X170559100Y-120577530D01*
X170554965Y-120580635D01*
X170515525Y-120621907D01*
X170413687Y-120728474D01*
X170400629Y-120742138D01*
X170293201Y-120899621D01*
X170238293Y-120944621D01*
X170167768Y-120952792D01*
X170104021Y-120921538D01*
X170083324Y-120897054D01*
X170002822Y-120772617D01*
X170002820Y-120772614D01*
X170000014Y-120768277D01*
X169849670Y-120603051D01*
X169845619Y-120599852D01*
X169845615Y-120599848D01*
X169678414Y-120467800D01*
X169678410Y-120467798D01*
X169674359Y-120464598D01*
X169478789Y-120356638D01*
X169473920Y-120354914D01*
X169473916Y-120354912D01*
X169273087Y-120283795D01*
X169273083Y-120283794D01*
X169268212Y-120282069D01*
X169263119Y-120281162D01*
X169263116Y-120281161D01*
X169053373Y-120243800D01*
X169053367Y-120243799D01*
X169048284Y-120242894D01*
X168974452Y-120241992D01*
X168830081Y-120240228D01*
X168830079Y-120240228D01*
X168824911Y-120240165D01*
X168604091Y-120273955D01*
X168391756Y-120343357D01*
X168193607Y-120446507D01*
X168189474Y-120449610D01*
X168189471Y-120449612D01*
X168019100Y-120577530D01*
X168014965Y-120580635D01*
X167975525Y-120621907D01*
X167873687Y-120728474D01*
X167860629Y-120742138D01*
X167753201Y-120899621D01*
X167698293Y-120944621D01*
X167627768Y-120952792D01*
X167564021Y-120921538D01*
X167543324Y-120897054D01*
X167462822Y-120772617D01*
X167462820Y-120772614D01*
X167460014Y-120768277D01*
X167309670Y-120603051D01*
X167305619Y-120599852D01*
X167305615Y-120599848D01*
X167138414Y-120467800D01*
X167138410Y-120467798D01*
X167134359Y-120464598D01*
X166938789Y-120356638D01*
X166933920Y-120354914D01*
X166933916Y-120354912D01*
X166733087Y-120283795D01*
X166733083Y-120283794D01*
X166728212Y-120282069D01*
X166723119Y-120281162D01*
X166723116Y-120281161D01*
X166513373Y-120243800D01*
X166513367Y-120243799D01*
X166508284Y-120242894D01*
X166434452Y-120241992D01*
X166290081Y-120240228D01*
X166290079Y-120240228D01*
X166284911Y-120240165D01*
X166064091Y-120273955D01*
X165851756Y-120343357D01*
X165653607Y-120446507D01*
X165649474Y-120449610D01*
X165649471Y-120449612D01*
X165479100Y-120577530D01*
X165474965Y-120580635D01*
X165435525Y-120621907D01*
X165333687Y-120728474D01*
X165320629Y-120742138D01*
X165194743Y-120926680D01*
X165164863Y-120991052D01*
X165135738Y-121053797D01*
X165100688Y-121129305D01*
X165040989Y-121344570D01*
X165017251Y-121566695D01*
X165017548Y-121571848D01*
X165017548Y-121571851D01*
X165023650Y-121677674D01*
X165030110Y-121789715D01*
X165031247Y-121794761D01*
X165031248Y-121794767D01*
X165050202Y-121878870D01*
X165079222Y-122007639D01*
X165163266Y-122214616D01*
X165200685Y-122275678D01*
X165277291Y-122400688D01*
X165279987Y-122405088D01*
X165426250Y-122573938D01*
X165598126Y-122716632D01*
X165791000Y-122829338D01*
X165999692Y-122909030D01*
X166004760Y-122910061D01*
X166004763Y-122910062D01*
X166112017Y-122931883D01*
X166218597Y-122953567D01*
X166223772Y-122953757D01*
X166223774Y-122953757D01*
X166436673Y-122961564D01*
X166436677Y-122961564D01*
X166441837Y-122961753D01*
X166446957Y-122961097D01*
X166446959Y-122961097D01*
X166658288Y-122934025D01*
X166658289Y-122934025D01*
X166663416Y-122933368D01*
X166668366Y-122931883D01*
X166872429Y-122870661D01*
X166872434Y-122870659D01*
X166877384Y-122869174D01*
X167077994Y-122770896D01*
X167259860Y-122641173D01*
X167418096Y-122483489D01*
X167477594Y-122400689D01*
X167548453Y-122302077D01*
X167549776Y-122303028D01*
X167596645Y-122259857D01*
X167666580Y-122247625D01*
X167732026Y-122275144D01*
X167759875Y-122306994D01*
X167819987Y-122405088D01*
X167966250Y-122573938D01*
X168138126Y-122716632D01*
X168331000Y-122829338D01*
X168539692Y-122909030D01*
X168544760Y-122910061D01*
X168544763Y-122910062D01*
X168652017Y-122931883D01*
X168758597Y-122953567D01*
X168763772Y-122953757D01*
X168763774Y-122953757D01*
X168976673Y-122961564D01*
X168976677Y-122961564D01*
X168981837Y-122961753D01*
X168986957Y-122961097D01*
X168986959Y-122961097D01*
X169198288Y-122934025D01*
X169198289Y-122934025D01*
X169203416Y-122933368D01*
X169208366Y-122931883D01*
X169412429Y-122870661D01*
X169412434Y-122870659D01*
X169417384Y-122869174D01*
X169617994Y-122770896D01*
X169799860Y-122641173D01*
X169958096Y-122483489D01*
X170017594Y-122400689D01*
X170088453Y-122302077D01*
X170089776Y-122303028D01*
X170136645Y-122259857D01*
X170206580Y-122247625D01*
X170272026Y-122275144D01*
X170299875Y-122306994D01*
X170359987Y-122405088D01*
X170506250Y-122573938D01*
X170678126Y-122716632D01*
X170871000Y-122829338D01*
X171079692Y-122909030D01*
X171084760Y-122910061D01*
X171084763Y-122910062D01*
X171192017Y-122931883D01*
X171298597Y-122953567D01*
X171303772Y-122953757D01*
X171303774Y-122953757D01*
X171516673Y-122961564D01*
X171516677Y-122961564D01*
X171521837Y-122961753D01*
X171526957Y-122961097D01*
X171526959Y-122961097D01*
X171738288Y-122934025D01*
X171738289Y-122934025D01*
X171743416Y-122933368D01*
X171748366Y-122931883D01*
X171952429Y-122870661D01*
X171952434Y-122870659D01*
X171957384Y-122869174D01*
X172157994Y-122770896D01*
X172339860Y-122641173D01*
X172448091Y-122533319D01*
X172510462Y-122499404D01*
X172581268Y-122504592D01*
X172638030Y-122547238D01*
X172655012Y-122578341D01*
X172699385Y-122696705D01*
X172786739Y-122813261D01*
X172903295Y-122900615D01*
X173039684Y-122951745D01*
X173101866Y-122958500D01*
X174765500Y-122958500D01*
X174833621Y-122978502D01*
X174880114Y-123032158D01*
X174891500Y-123084500D01*
X174891500Y-126889000D01*
X174871498Y-126957121D01*
X174817842Y-127003614D01*
X174765500Y-127015000D01*
X166408350Y-127015000D01*
X166394742Y-127014263D01*
X166394162Y-127014200D01*
X166357112Y-127010175D01*
X166307428Y-127014522D01*
X166296468Y-127015000D01*
X153828342Y-127015000D01*
X153814735Y-127014263D01*
X153783237Y-127010841D01*
X153783232Y-127010841D01*
X153777111Y-127010176D01*
X153759111Y-127011751D01*
X153727109Y-127014550D01*
X153722284Y-127014879D01*
X153719813Y-127015000D01*
X153716731Y-127015000D01*
X153694263Y-127017203D01*
X153673989Y-127019191D01*
X153672674Y-127019313D01*
X153640413Y-127022136D01*
X153580087Y-127027413D01*
X153574968Y-127028900D01*
X153569667Y-127029420D01*
X153480666Y-127056291D01*
X153479533Y-127056626D01*
X153396086Y-127080870D01*
X153396082Y-127080872D01*
X153390164Y-127082591D01*
X153385432Y-127085044D01*
X153380331Y-127086584D01*
X153374888Y-127089478D01*
X153298240Y-127130231D01*
X153297074Y-127130843D01*
X153220047Y-127170771D01*
X153214574Y-127173608D01*
X153210411Y-127176931D01*
X153205704Y-127179434D01*
X153133582Y-127238255D01*
X153132726Y-127238946D01*
X153093527Y-127270238D01*
X153091023Y-127272742D01*
X153090305Y-127273384D01*
X153085972Y-127277085D01*
X153052438Y-127304435D01*
X153048511Y-127309182D01*
X153048509Y-127309184D01*
X153023213Y-127339762D01*
X153015223Y-127348542D01*
X149889121Y-130474645D01*
X149878978Y-130483747D01*
X149849475Y-130507468D01*
X149845508Y-130512196D01*
X149817209Y-130545921D01*
X149814028Y-130549569D01*
X149812385Y-130551381D01*
X149810191Y-130553575D01*
X149782858Y-130586849D01*
X149782196Y-130587647D01*
X149722346Y-130658974D01*
X149719778Y-130663644D01*
X149716397Y-130667761D01*
X149693982Y-130709565D01*
X149672523Y-130749586D01*
X149671894Y-130750745D01*
X149630038Y-130826881D01*
X149630035Y-130826889D01*
X149627067Y-130832287D01*
X149625455Y-130837369D01*
X149622938Y-130842063D01*
X149595738Y-130931031D01*
X149595418Y-130932059D01*
X149567265Y-131020806D01*
X149566671Y-131026102D01*
X149565113Y-131031198D01*
X149558640Y-131094925D01*
X149555718Y-131123687D01*
X149555589Y-131124893D01*
X149550000Y-131174727D01*
X149550000Y-131178254D01*
X149549945Y-131179239D01*
X149549498Y-131184919D01*
X149545126Y-131227962D01*
X149546875Y-131246460D01*
X149549441Y-131273609D01*
X149550000Y-131285467D01*
X149550000Y-143117691D01*
X149529998Y-143185812D01*
X149476342Y-143232305D01*
X149470806Y-143234603D01*
X149470204Y-143234932D01*
X149461795Y-143238085D01*
X149345239Y-143325439D01*
X149257885Y-143441995D01*
X149206755Y-143578384D01*
X149200000Y-143640566D01*
X149200000Y-145436834D01*
X149206755Y-145499016D01*
X149257885Y-145635405D01*
X149345239Y-145751961D01*
X149461795Y-145839315D01*
X149470204Y-145842467D01*
X149470205Y-145842468D01*
X149578951Y-145883235D01*
X149635716Y-145925876D01*
X149660416Y-145992438D01*
X149645209Y-146061787D01*
X149625816Y-146088268D01*
X149619858Y-146094503D01*
X149510251Y-146209200D01*
X149499129Y-146220838D01*
X149496215Y-146225110D01*
X149496214Y-146225111D01*
X149443774Y-146301986D01*
X149373243Y-146405380D01*
X149357503Y-146439290D01*
X149305412Y-146551511D01*
X149279188Y-146608005D01*
X149219489Y-146823270D01*
X149195751Y-147045395D01*
X145856348Y-147045395D01*
X145901091Y-147036007D01*
X145906050Y-147034049D01*
X145906052Y-147034048D01*
X146110556Y-146953285D01*
X146110558Y-146953284D01*
X146115521Y-146951324D01*
X146214484Y-146891272D01*
X146308057Y-146834490D01*
X146308056Y-146834490D01*
X146312617Y-146831723D01*
X146393110Y-146761875D01*
X146482712Y-146684123D01*
X146482714Y-146684121D01*
X146486745Y-146680623D01*
X146535285Y-146621424D01*
X146629540Y-146506473D01*
X146629544Y-146506467D01*
X146632924Y-146502345D01*
X146635973Y-146496990D01*
X146744332Y-146306629D01*
X146746975Y-146301986D01*
X146825637Y-146085275D01*
X146826587Y-146080023D01*
X146865923Y-145862492D01*
X146865924Y-145862485D01*
X146866661Y-145858408D01*
X146867800Y-145834256D01*
X146867800Y-145372210D01*
X146856740Y-145241866D01*
X146853671Y-145205691D01*
X146853670Y-145205687D01*
X146853220Y-145200380D01*
X146851882Y-145195225D01*
X146851881Y-145195219D01*
X146796643Y-144982397D01*
X146796642Y-144982393D01*
X146795301Y-144977228D01*
X146777678Y-144938105D01*
X146714996Y-144798957D01*
X146700612Y-144767025D01*
X146571859Y-144575781D01*
X146567667Y-144571386D01*
X146466037Y-144464851D01*
X146412724Y-144408965D01*
X146227758Y-144271346D01*
X146223007Y-144268930D01*
X146223003Y-144268928D01*
X146101031Y-144206915D01*
X146022249Y-144166860D01*
X146017155Y-144165278D01*
X146017152Y-144165277D01*
X145807171Y-144100076D01*
X145802073Y-144098493D01*
X145796784Y-144097792D01*
X145578811Y-144068902D01*
X145578806Y-144068902D01*
X145573526Y-144068202D01*
X145568197Y-144068402D01*
X145568195Y-144068402D01*
X145469668Y-144072101D01*
X145343142Y-144076851D01*
X145337923Y-144077946D01*
X145318149Y-144082095D01*
X145117509Y-144124193D01*
X145112550Y-144126151D01*
X145112548Y-144126152D01*
X144908044Y-144206915D01*
X144908042Y-144206916D01*
X144903079Y-144208876D01*
X144898520Y-144211643D01*
X144898517Y-144211644D01*
X144800486Y-144271131D01*
X144705983Y-144328477D01*
X144701953Y-144331974D01*
X144552049Y-144462054D01*
X144531855Y-144479577D01*
X144528424Y-144483762D01*
X144502294Y-144515629D01*
X144443634Y-144555624D01*
X144372664Y-144557555D01*
X144311916Y-144520810D01*
X144297716Y-144502041D01*
X144211237Y-144362293D01*
X144202201Y-144350892D01*
X144087471Y-144236361D01*
X144076060Y-144227349D01*
X143938057Y-144142284D01*
X143924876Y-144136137D01*
X143770590Y-144084962D01*
X143757214Y-144082095D01*
X143662862Y-144072428D01*
X143656445Y-144072100D01*
X143281415Y-144072100D01*
X143266176Y-144076575D01*
X143264971Y-144077965D01*
X143263300Y-144085648D01*
X143263300Y-147069984D01*
X142755300Y-147069984D01*
X142755300Y-145852215D01*
X142750825Y-145836976D01*
X142749435Y-145835771D01*
X142741752Y-145834100D01*
X141669416Y-145834100D01*
X141654177Y-145838575D01*
X141652972Y-145839965D01*
X141651301Y-145847648D01*
X141651301Y-146377195D01*
X136620699Y-146377195D01*
X136631490Y-146354053D01*
X136635236Y-146343761D01*
X136691625Y-146133312D01*
X136693528Y-146122519D01*
X136712517Y-145905475D01*
X136712517Y-145894525D01*
X136693528Y-145677481D01*
X136691625Y-145666688D01*
X136635236Y-145456239D01*
X136631490Y-145445947D01*
X136567157Y-145307985D01*
X141651300Y-145307985D01*
X141655775Y-145323224D01*
X141657165Y-145324429D01*
X141664848Y-145326100D01*
X142737185Y-145326100D01*
X142752424Y-145321625D01*
X142753629Y-145320235D01*
X142755300Y-145312552D01*
X142755300Y-144090216D01*
X142750825Y-144074977D01*
X142749435Y-144073772D01*
X142741752Y-144072101D01*
X142362205Y-144072101D01*
X142355686Y-144072438D01*
X142260094Y-144082357D01*
X142246700Y-144085249D01*
X142092516Y-144136688D01*
X142079338Y-144142861D01*
X141941493Y-144228163D01*
X141930092Y-144237199D01*
X141815561Y-144351929D01*
X141806549Y-144363340D01*
X141721484Y-144501343D01*
X141715337Y-144514524D01*
X141664162Y-144668810D01*
X141661295Y-144682186D01*
X141651628Y-144776538D01*
X141651300Y-144782955D01*
X141651300Y-145307985D01*
X136567157Y-145307985D01*
X136539414Y-145248489D01*
X136533931Y-145238994D01*
X136497491Y-145186952D01*
X136487012Y-145178576D01*
X136473566Y-145185644D01*
X135772022Y-145887188D01*
X135764408Y-145901132D01*
X135034356Y-145901132D01*
X135035592Y-145898868D01*
X135035461Y-145897035D01*
X135031210Y-145890420D01*
X134325713Y-145184923D01*
X134313938Y-145178493D01*
X134301923Y-145187789D01*
X134266069Y-145238994D01*
X134260586Y-145248489D01*
X134168510Y-145445947D01*
X134164764Y-145456239D01*
X134108375Y-145666688D01*
X134106472Y-145677481D01*
X134087483Y-145894525D01*
X134087483Y-145905475D01*
X125667000Y-145905475D01*
X125667000Y-144248134D01*
X134091500Y-144248134D01*
X134098255Y-144310316D01*
X134149385Y-144446705D01*
X134236739Y-144563261D01*
X134353295Y-144650615D01*
X134489684Y-144701745D01*
X134533252Y-144706478D01*
X134548486Y-144708133D01*
X134548489Y-144708133D01*
X134551866Y-144708500D01*
X134555185Y-144708500D01*
X134622110Y-144732153D01*
X134657804Y-144778156D01*
X134659734Y-144777141D01*
X134665442Y-144788000D01*
X134665632Y-144788245D01*
X134665653Y-144788403D01*
X134685644Y-144826434D01*
X135387188Y-145527978D01*
X135401132Y-145535592D01*
X135402965Y-145535461D01*
X135409580Y-145531210D01*
X136115077Y-144825713D01*
X136137871Y-144783971D01*
X136140047Y-144773971D01*
X136190253Y-144723773D01*
X136243814Y-144708549D01*
X136244719Y-144708500D01*
X136248134Y-144708500D01*
X136251530Y-144708131D01*
X136251532Y-144708131D01*
X136263879Y-144706790D01*
X136310316Y-144701745D01*
X136446705Y-144650615D01*
X136563261Y-144563261D01*
X136650615Y-144446705D01*
X136701745Y-144310316D01*
X136708500Y-144248134D01*
X136708500Y-142551866D01*
X136701745Y-142489684D01*
X136650615Y-142353295D01*
X136563261Y-142236739D01*
X136446705Y-142149385D01*
X136310316Y-142098255D01*
X136248134Y-142091500D01*
X134551866Y-142091500D01*
X134489684Y-142098255D01*
X134353295Y-142149385D01*
X134236739Y-142236739D01*
X134149385Y-142353295D01*
X134098255Y-142489684D01*
X134091500Y-142551866D01*
X134091500Y-144248134D01*
X125667000Y-144248134D01*
X125667000Y-140644669D01*
X127499501Y-140644669D01*
X127499871Y-140651490D01*
X127505395Y-140702352D01*
X127509021Y-140717604D01*
X127554176Y-140838054D01*
X127562714Y-140853649D01*
X127639215Y-140955724D01*
X127651776Y-140968285D01*
X127753851Y-141044786D01*
X127769446Y-141053324D01*
X127889894Y-141098478D01*
X127905149Y-141102105D01*
X127956014Y-141107631D01*
X127962828Y-141108000D01*
X128687885Y-141108000D01*
X128703124Y-141103525D01*
X128704329Y-141102135D01*
X128706000Y-141094452D01*
X128706000Y-141089884D01*
X129214000Y-141089884D01*
X129218475Y-141105123D01*
X129219865Y-141106328D01*
X129227548Y-141107999D01*
X129957169Y-141107999D01*
X129963990Y-141107629D01*
X130014852Y-141102105D01*
X130030104Y-141098479D01*
X130150554Y-141053324D01*
X130166149Y-141044786D01*
X130268224Y-140968285D01*
X130280785Y-140955724D01*
X130357286Y-140853649D01*
X130365824Y-140838055D01*
X130370160Y-140826487D01*
X130412801Y-140769721D01*
X130479362Y-140745020D01*
X130548711Y-140760226D01*
X130566233Y-140771831D01*
X130582103Y-140784364D01*
X130684670Y-140865367D01*
X130684675Y-140865370D01*
X130688724Y-140868568D01*
X130693240Y-140871061D01*
X130693243Y-140871063D01*
X130894526Y-140982177D01*
X130894530Y-140982179D01*
X130899050Y-140984674D01*
X130903919Y-140986398D01*
X130903923Y-140986400D01*
X131120640Y-141063144D01*
X131120644Y-141063145D01*
X131125515Y-141064870D01*
X131130608Y-141065777D01*
X131130611Y-141065778D01*
X131356948Y-141106095D01*
X131356954Y-141106096D01*
X131362037Y-141107001D01*
X131443804Y-141108000D01*
X131597093Y-141109873D01*
X131597095Y-141109873D01*
X131602263Y-141109936D01*
X131839744Y-141073596D01*
X131951997Y-141036906D01*
X132063183Y-141000566D01*
X132063189Y-141000563D01*
X132068101Y-140998958D01*
X132072687Y-140996571D01*
X132072691Y-140996569D01*
X132276607Y-140890416D01*
X132281200Y-140888025D01*
X132376679Y-140816337D01*
X132469185Y-140746882D01*
X132469188Y-140746880D01*
X132473320Y-140743777D01*
X132543409Y-140670433D01*
X132635730Y-140573825D01*
X132635731Y-140573824D01*
X132639301Y-140570088D01*
X132664535Y-140533097D01*
X132719444Y-140488096D01*
X132789968Y-140479925D01*
X132853716Y-140511179D01*
X132874411Y-140535660D01*
X132878498Y-140541977D01*
X133040186Y-140719670D01*
X133089966Y-140758984D01*
X133224670Y-140865367D01*
X133224675Y-140865370D01*
X133228724Y-140868568D01*
X133233240Y-140871061D01*
X133233243Y-140871063D01*
X133434526Y-140982177D01*
X133434530Y-140982179D01*
X133439050Y-140984674D01*
X133443919Y-140986398D01*
X133443923Y-140986400D01*
X133660640Y-141063144D01*
X133660644Y-141063145D01*
X133665515Y-141064870D01*
X133670608Y-141065777D01*
X133670611Y-141065778D01*
X133896948Y-141106095D01*
X133896954Y-141106096D01*
X133902037Y-141107001D01*
X133983804Y-141108000D01*
X134137093Y-141109873D01*
X134137095Y-141109873D01*
X134142263Y-141109936D01*
X134379744Y-141073596D01*
X134491997Y-141036906D01*
X134603183Y-141000566D01*
X134603189Y-141000563D01*
X134608101Y-140998958D01*
X134612687Y-140996571D01*
X134612691Y-140996569D01*
X134816607Y-140890416D01*
X134821200Y-140888025D01*
X134916679Y-140816337D01*
X135009185Y-140746882D01*
X135009188Y-140746880D01*
X135013320Y-140743777D01*
X135179301Y-140570088D01*
X135284732Y-140415533D01*
X135311774Y-140375891D01*
X135311775Y-140375890D01*
X135314686Y-140371622D01*
X135319063Y-140362194D01*
X135413658Y-140158405D01*
X135413659Y-140158401D01*
X135415837Y-140153710D01*
X135480040Y-139922202D01*
X135486702Y-139859865D01*
X135500644Y-139729407D01*
X135500644Y-139729399D01*
X135501000Y-139726072D01*
X135501000Y-139491598D01*
X135499548Y-139473928D01*
X135493518Y-139400595D01*
X141651301Y-139400595D01*
X141651638Y-139407114D01*
X141661557Y-139502706D01*
X141664449Y-139516100D01*
X141715888Y-139670284D01*
X141722061Y-139683462D01*
X141807363Y-139821307D01*
X141816399Y-139832708D01*
X141931129Y-139947239D01*
X141942540Y-139956251D01*
X142080543Y-140041316D01*
X142093724Y-140047463D01*
X142248010Y-140098638D01*
X142261386Y-140101505D01*
X142355738Y-140111172D01*
X142362154Y-140111500D01*
X142737185Y-140111500D01*
X142752424Y-140107025D01*
X142753629Y-140105635D01*
X142755300Y-140097952D01*
X142755300Y-140093384D01*
X143263300Y-140093384D01*
X143267775Y-140108623D01*
X143269165Y-140109828D01*
X143276848Y-140111499D01*
X143656395Y-140111499D01*
X143662914Y-140111162D01*
X143758506Y-140101243D01*
X143771900Y-140098351D01*
X143926084Y-140046912D01*
X143939262Y-140040739D01*
X144077107Y-139955437D01*
X144088508Y-139946401D01*
X144203039Y-139831671D01*
X144212053Y-139820257D01*
X144298023Y-139680787D01*
X144350795Y-139633293D01*
X144420866Y-139621869D01*
X144485990Y-139650143D01*
X144496449Y-139659926D01*
X144605876Y-139774635D01*
X144610154Y-139777818D01*
X144653631Y-139810166D01*
X144790842Y-139912254D01*
X144795593Y-139914670D01*
X144795597Y-139914672D01*
X144858004Y-139946401D01*
X144996351Y-140016740D01*
X145001445Y-140018322D01*
X145001448Y-140018323D01*
X145201320Y-140080385D01*
X145216527Y-140085107D01*
X145221816Y-140085808D01*
X145439789Y-140114698D01*
X145439794Y-140114698D01*
X145445074Y-140115398D01*
X145450403Y-140115198D01*
X145450405Y-140115198D01*
X145560266Y-140111074D01*
X145675458Y-140106749D01*
X145680768Y-140105635D01*
X145895872Y-140060502D01*
X145901091Y-140059407D01*
X145906050Y-140057449D01*
X145906052Y-140057448D01*
X146110556Y-139976685D01*
X146110558Y-139976684D01*
X146115521Y-139974724D01*
X146202075Y-139922202D01*
X146308057Y-139857890D01*
X146308056Y-139857890D01*
X146312617Y-139855123D01*
X146368340Y-139806769D01*
X146482712Y-139707523D01*
X146482714Y-139707521D01*
X146486745Y-139704023D01*
X146555637Y-139620003D01*
X146629540Y-139529873D01*
X146629544Y-139529867D01*
X146632924Y-139525745D01*
X146638415Y-139516100D01*
X146744332Y-139330029D01*
X146746975Y-139325386D01*
X146825637Y-139108675D01*
X146832096Y-139072956D01*
X146865923Y-138885892D01*
X146865924Y-138885885D01*
X146866661Y-138881808D01*
X146867800Y-138857656D01*
X146867800Y-138395610D01*
X146860967Y-138315085D01*
X146853671Y-138229091D01*
X146853670Y-138229087D01*
X146853220Y-138223780D01*
X146851882Y-138218625D01*
X146851881Y-138218619D01*
X146796643Y-138005797D01*
X146796642Y-138005793D01*
X146795301Y-138000628D01*
X146770541Y-137945661D01*
X146702807Y-137795298D01*
X146700612Y-137790425D01*
X146571859Y-137599181D01*
X146412724Y-137432365D01*
X146227758Y-137294746D01*
X146223007Y-137292330D01*
X146223003Y-137292328D01*
X146101031Y-137230315D01*
X146022249Y-137190260D01*
X146017155Y-137188678D01*
X146017152Y-137188677D01*
X145807171Y-137123476D01*
X145802073Y-137121893D01*
X145796784Y-137121192D01*
X145578811Y-137092302D01*
X145578806Y-137092302D01*
X145573526Y-137091602D01*
X145568197Y-137091802D01*
X145568195Y-137091802D01*
X145469668Y-137095501D01*
X145343142Y-137100251D01*
X145337923Y-137101346D01*
X145318149Y-137105495D01*
X145117509Y-137147593D01*
X145112550Y-137149551D01*
X145112548Y-137149552D01*
X144908044Y-137230315D01*
X144908042Y-137230316D01*
X144903079Y-137232276D01*
X144898520Y-137235043D01*
X144898517Y-137235044D01*
X144800132Y-137294746D01*
X144705983Y-137351877D01*
X144701953Y-137355374D01*
X144541071Y-137494980D01*
X144531855Y-137502977D01*
X144528468Y-137507108D01*
X144502294Y-137539029D01*
X144443634Y-137579024D01*
X144372664Y-137580955D01*
X144311916Y-137544210D01*
X144297716Y-137525441D01*
X144211237Y-137385693D01*
X144202201Y-137374292D01*
X144087471Y-137259761D01*
X144076060Y-137250749D01*
X143938057Y-137165684D01*
X143924876Y-137159537D01*
X143770590Y-137108362D01*
X143757214Y-137105495D01*
X143662862Y-137095828D01*
X143656445Y-137095500D01*
X143281415Y-137095500D01*
X143266176Y-137099975D01*
X143264971Y-137101365D01*
X143263300Y-137109048D01*
X143263300Y-140093384D01*
X142755300Y-140093384D01*
X142755300Y-138875615D01*
X142750825Y-138860376D01*
X142749435Y-138859171D01*
X142741752Y-138857500D01*
X141669416Y-138857500D01*
X141654177Y-138861975D01*
X141652972Y-138863365D01*
X141651301Y-138871048D01*
X141651301Y-139400595D01*
X135493518Y-139400595D01*
X135492487Y-139388054D01*
X135486322Y-139313063D01*
X135427794Y-139080056D01*
X135355425Y-138913617D01*
X135334057Y-138864474D01*
X135334055Y-138864471D01*
X135331997Y-138859737D01*
X135209322Y-138670111D01*
X135204310Y-138662363D01*
X135204308Y-138662360D01*
X135201502Y-138658023D01*
X135039814Y-138480330D01*
X134932540Y-138395610D01*
X134855330Y-138334633D01*
X134855325Y-138334630D01*
X134851276Y-138331432D01*
X134851191Y-138331385D01*
X141651300Y-138331385D01*
X141655775Y-138346624D01*
X141657165Y-138347829D01*
X141664848Y-138349500D01*
X142737185Y-138349500D01*
X142752424Y-138345025D01*
X142753629Y-138343635D01*
X142755300Y-138335952D01*
X142755300Y-137113616D01*
X142750825Y-137098377D01*
X142749435Y-137097172D01*
X142741752Y-137095501D01*
X142362205Y-137095501D01*
X142355686Y-137095838D01*
X142260094Y-137105757D01*
X142246700Y-137108649D01*
X142092516Y-137160088D01*
X142079338Y-137166261D01*
X141941493Y-137251563D01*
X141930092Y-137260599D01*
X141815561Y-137375329D01*
X141806549Y-137386740D01*
X141721484Y-137524743D01*
X141715337Y-137537924D01*
X141664162Y-137692210D01*
X141661295Y-137705586D01*
X141651628Y-137799938D01*
X141651300Y-137806355D01*
X141651300Y-138331385D01*
X134851191Y-138331385D01*
X134846760Y-138328939D01*
X134846757Y-138328937D01*
X134645474Y-138217823D01*
X134645470Y-138217821D01*
X134640950Y-138215326D01*
X134636081Y-138213602D01*
X134636077Y-138213600D01*
X134419360Y-138136856D01*
X134419356Y-138136855D01*
X134414485Y-138135130D01*
X134409392Y-138134223D01*
X134409389Y-138134222D01*
X134183052Y-138093905D01*
X134183046Y-138093904D01*
X134177963Y-138092999D01*
X134090600Y-138091932D01*
X133942907Y-138090127D01*
X133942905Y-138090127D01*
X133937737Y-138090064D01*
X133700256Y-138126404D01*
X133612111Y-138155214D01*
X133476817Y-138199434D01*
X133476811Y-138199437D01*
X133471899Y-138201042D01*
X133467313Y-138203429D01*
X133467309Y-138203431D01*
X133263393Y-138309584D01*
X133258800Y-138311975D01*
X133066680Y-138456223D01*
X132900699Y-138629912D01*
X132875465Y-138666903D01*
X132820556Y-138711904D01*
X132750032Y-138720075D01*
X132686284Y-138688821D01*
X132665589Y-138664340D01*
X132664311Y-138662365D01*
X132661502Y-138658023D01*
X132499814Y-138480330D01*
X132392540Y-138395610D01*
X132315330Y-138334633D01*
X132315325Y-138334630D01*
X132311276Y-138331432D01*
X132306760Y-138328939D01*
X132306757Y-138328937D01*
X132105474Y-138217823D01*
X132105470Y-138217821D01*
X132100950Y-138215326D01*
X132096081Y-138213602D01*
X132096077Y-138213600D01*
X131879360Y-138136856D01*
X131879356Y-138136855D01*
X131874485Y-138135130D01*
X131869392Y-138134223D01*
X131869389Y-138134222D01*
X131643052Y-138093905D01*
X131643046Y-138093904D01*
X131637963Y-138092999D01*
X131550600Y-138091932D01*
X131402907Y-138090127D01*
X131402905Y-138090127D01*
X131397737Y-138090064D01*
X131160256Y-138126404D01*
X131072111Y-138155214D01*
X130936817Y-138199434D01*
X130936811Y-138199437D01*
X130931899Y-138201042D01*
X130927313Y-138203429D01*
X130927309Y-138203431D01*
X130723393Y-138309584D01*
X130718800Y-138311975D01*
X130563300Y-138428728D01*
X130496818Y-138453633D01*
X130427422Y-138438641D01*
X130377148Y-138388511D01*
X130369667Y-138372197D01*
X130365824Y-138361946D01*
X130357286Y-138346351D01*
X130280785Y-138244276D01*
X130268224Y-138231715D01*
X130166149Y-138155214D01*
X130150554Y-138146676D01*
X130030106Y-138101522D01*
X130014851Y-138097895D01*
X129963986Y-138092369D01*
X129957172Y-138092000D01*
X129232115Y-138092000D01*
X129216876Y-138096475D01*
X129215671Y-138097865D01*
X129214000Y-138105548D01*
X129214000Y-141089884D01*
X128706000Y-141089884D01*
X128706000Y-139872115D01*
X128701525Y-139856876D01*
X128700135Y-139855671D01*
X128692452Y-139854000D01*
X127517616Y-139854000D01*
X127502377Y-139858475D01*
X127501172Y-139859865D01*
X127499501Y-139867548D01*
X127499501Y-140644669D01*
X125667000Y-140644669D01*
X125667000Y-139327885D01*
X127499500Y-139327885D01*
X127503975Y-139343124D01*
X127505365Y-139344329D01*
X127513048Y-139346000D01*
X128687885Y-139346000D01*
X128703124Y-139341525D01*
X128704329Y-139340135D01*
X128706000Y-139332452D01*
X128706000Y-138110116D01*
X128701525Y-138094877D01*
X128700135Y-138093672D01*
X128692452Y-138092001D01*
X127962831Y-138092001D01*
X127956010Y-138092371D01*
X127905148Y-138097895D01*
X127889896Y-138101521D01*
X127769446Y-138146676D01*
X127753851Y-138155214D01*
X127651776Y-138231715D01*
X127639215Y-138244276D01*
X127562714Y-138346351D01*
X127554176Y-138361946D01*
X127509022Y-138482394D01*
X127505395Y-138497649D01*
X127499869Y-138548514D01*
X127499500Y-138555328D01*
X127499500Y-139327885D01*
X125667000Y-139327885D01*
X125667000Y-135793487D01*
X125687002Y-135725366D01*
X125740658Y-135678873D01*
X125793050Y-135667487D01*
X146832347Y-135675808D01*
X146832348Y-135675808D01*
X146850462Y-135675815D01*
X146850421Y-135218263D01*
X146849590Y-126061682D01*
X146849207Y-121837291D01*
X147622922Y-121837291D01*
X147623416Y-121842326D01*
X147626999Y-121878870D01*
X147627600Y-121891166D01*
X147627600Y-124504501D01*
X147627802Y-124507009D01*
X147627802Y-124507014D01*
X147638744Y-124643002D01*
X147642160Y-124685465D01*
X147643366Y-124690373D01*
X147643366Y-124690376D01*
X147676349Y-124824658D01*
X147700063Y-124921206D01*
X147794912Y-125144656D01*
X147924267Y-125350067D01*
X147946533Y-125375323D01*
X148081450Y-125528358D01*
X148081453Y-125528361D01*
X148084798Y-125532155D01*
X148088706Y-125535365D01*
X148088707Y-125535366D01*
X148195342Y-125622956D01*
X148272378Y-125686234D01*
X148347446Y-125729925D01*
X148394729Y-125757444D01*
X148482178Y-125808341D01*
X148486901Y-125810154D01*
X148704078Y-125893520D01*
X148704082Y-125893521D01*
X148708802Y-125895333D01*
X148713752Y-125896367D01*
X148713755Y-125896368D01*
X148941469Y-125943940D01*
X148941473Y-125943940D01*
X148946420Y-125944974D01*
X149188917Y-125955986D01*
X149193937Y-125955405D01*
X149193941Y-125955405D01*
X149425029Y-125928667D01*
X149425033Y-125928666D01*
X149430056Y-125928085D01*
X149434920Y-125926709D01*
X149434923Y-125926708D01*
X149658769Y-125863366D01*
X149658768Y-125863366D01*
X149663632Y-125861990D01*
X149668208Y-125859856D01*
X149668214Y-125859854D01*
X149879054Y-125761538D01*
X149879058Y-125761536D01*
X149883636Y-125759401D01*
X150084407Y-125622956D01*
X150260781Y-125456168D01*
X150322592Y-125375323D01*
X150405147Y-125267346D01*
X150405150Y-125267342D01*
X150408220Y-125263326D01*
X150522931Y-125049391D01*
X150601962Y-124819869D01*
X150632512Y-124643002D01*
X150642604Y-124584574D01*
X150642605Y-124584568D01*
X150643279Y-124580664D01*
X150644600Y-124551575D01*
X150644600Y-122487909D01*
X150664602Y-122419788D01*
X150681505Y-122398814D01*
X153506905Y-119573414D01*
X153569217Y-119539388D01*
X153640032Y-119544453D01*
X153696868Y-119587000D01*
X153721679Y-119653520D01*
X153722000Y-119662509D01*
X153722000Y-120863634D01*
X153728755Y-120925816D01*
X153779885Y-121062205D01*
X153867239Y-121178761D01*
X153983795Y-121266115D01*
X154120184Y-121317245D01*
X154182366Y-121324000D01*
X155978634Y-121324000D01*
X156040816Y-121317245D01*
X156177205Y-121266115D01*
X156293761Y-121178761D01*
X156381115Y-121062205D01*
X156432245Y-120925816D01*
X156439000Y-120863634D01*
X156439000Y-119067366D01*
X156432245Y-119005184D01*
X156381115Y-118868795D01*
X156293761Y-118752239D01*
X156181101Y-118667805D01*
X156138587Y-118610947D01*
X156133561Y-118540128D01*
X156165929Y-118479646D01*
X156169155Y-118476802D01*
X156323234Y-118289222D01*
X156445341Y-118079422D01*
X156447154Y-118074699D01*
X156530520Y-117857522D01*
X156530521Y-117857518D01*
X156532333Y-117852798D01*
X156581974Y-117615180D01*
X156592986Y-117372683D01*
X156582400Y-117281193D01*
X156565667Y-117136571D01*
X156565666Y-117136567D01*
X156565085Y-117131544D01*
X156498990Y-116897968D01*
X156496856Y-116893392D01*
X156496854Y-116893386D01*
X156398538Y-116682546D01*
X156398536Y-116682542D01*
X156396401Y-116677964D01*
X156259956Y-116477193D01*
X156093168Y-116300819D01*
X156079950Y-116290713D01*
X155904346Y-116156453D01*
X155904342Y-116156450D01*
X155900326Y-116153380D01*
X155810945Y-116105454D01*
X155690852Y-116041061D01*
X155686391Y-116038669D01*
X155456869Y-115959638D01*
X155339684Y-115939397D01*
X155221574Y-115918996D01*
X155221568Y-115918995D01*
X155217664Y-115918321D01*
X155213703Y-115918141D01*
X155213702Y-115918141D01*
X155189994Y-115917064D01*
X155189975Y-115917064D01*
X155188575Y-115917000D01*
X153545494Y-115917000D01*
X153541976Y-115916951D01*
X153447328Y-115914307D01*
X153447325Y-115914307D01*
X153442273Y-115914166D01*
X153364380Y-115924559D01*
X153357839Y-115925258D01*
X153329146Y-115927567D01*
X153284555Y-115931154D01*
X153284551Y-115931155D01*
X153279513Y-115931560D01*
X153247600Y-115939399D01*
X153234220Y-115941926D01*
X153201658Y-115946271D01*
X153196817Y-115947732D01*
X153196815Y-115947733D01*
X153126449Y-115968978D01*
X153120088Y-115970719D01*
X153043772Y-115989463D01*
X153039112Y-115991441D01*
X153013527Y-116002301D01*
X153000717Y-116006938D01*
X152969270Y-116016433D01*
X152964722Y-116018651D01*
X152964715Y-116018654D01*
X152898660Y-116050871D01*
X152892658Y-116053607D01*
X152847974Y-116072575D01*
X152820322Y-116084312D01*
X152796010Y-116099623D01*
X152792522Y-116101819D01*
X152780618Y-116108445D01*
X152751090Y-116122846D01*
X152703450Y-116156453D01*
X152686881Y-116168141D01*
X152681392Y-116171801D01*
X152638351Y-116198906D01*
X152614911Y-116213667D01*
X152611122Y-116217008D01*
X152611116Y-116217012D01*
X152590261Y-116235398D01*
X152579566Y-116243844D01*
X152552731Y-116262774D01*
X152531228Y-116282409D01*
X152491512Y-116322125D01*
X152485742Y-116327544D01*
X152436620Y-116370850D01*
X152436617Y-116370853D01*
X152432823Y-116374198D01*
X152429613Y-116378106D01*
X152429612Y-116378107D01*
X152406299Y-116406489D01*
X152398029Y-116415608D01*
X148086434Y-120727203D01*
X148083912Y-120729657D01*
X148066204Y-120746403D01*
X148011419Y-120798210D01*
X147963692Y-120860635D01*
X147959548Y-120865770D01*
X147908630Y-120925598D01*
X147906011Y-120929923D01*
X147906007Y-120929928D01*
X147891609Y-120953702D01*
X147883937Y-120964949D01*
X147863980Y-120991052D01*
X147830337Y-121053797D01*
X147826861Y-121060279D01*
X147823596Y-121066004D01*
X147782879Y-121133236D01*
X147780984Y-121137927D01*
X147770573Y-121163695D01*
X147764793Y-121176036D01*
X147749269Y-121204987D01*
X147747623Y-121209768D01*
X147747621Y-121209772D01*
X147723688Y-121279279D01*
X147721378Y-121285457D01*
X147691945Y-121358307D01*
X147690823Y-121363246D01*
X147684668Y-121390338D01*
X147680937Y-121403437D01*
X147670238Y-121434509D01*
X147656857Y-121511978D01*
X147655577Y-121518382D01*
X147638165Y-121595022D01*
X147636101Y-121627831D01*
X147634515Y-121641331D01*
X147628921Y-121673714D01*
X147627600Y-121702803D01*
X147627600Y-121758986D01*
X147627351Y-121766897D01*
X147622922Y-121837291D01*
X146849207Y-121837291D01*
X146848636Y-115547513D01*
X148396642Y-115547513D01*
X148405938Y-115559528D01*
X148462546Y-115599165D01*
X148472041Y-115604648D01*
X148673464Y-115698572D01*
X148683756Y-115702318D01*
X148898428Y-115759839D01*
X148909223Y-115761742D01*
X149130625Y-115781113D01*
X149141575Y-115781113D01*
X149362977Y-115761742D01*
X149373772Y-115759839D01*
X149588444Y-115702318D01*
X149598736Y-115698572D01*
X149800159Y-115604648D01*
X149809654Y-115599165D01*
X149867100Y-115558941D01*
X149875475Y-115548464D01*
X149868407Y-115535017D01*
X149148912Y-114815522D01*
X149134968Y-114807908D01*
X149133135Y-114808039D01*
X149126520Y-114812290D01*
X148403072Y-115535738D01*
X148396642Y-115547513D01*
X146848636Y-115547513D01*
X146848536Y-114448975D01*
X147798487Y-114448975D01*
X147817858Y-114670377D01*
X147819761Y-114681172D01*
X147877282Y-114895844D01*
X147881028Y-114906136D01*
X147974952Y-115107559D01*
X147980435Y-115117054D01*
X148020659Y-115174500D01*
X148031136Y-115182875D01*
X148044583Y-115175807D01*
X148764078Y-114456312D01*
X148770456Y-114444632D01*
X149500508Y-114444632D01*
X149500639Y-114446465D01*
X149504890Y-114453080D01*
X150228338Y-115176528D01*
X150240113Y-115182958D01*
X150252128Y-115173662D01*
X150291765Y-115117054D01*
X150297248Y-115107559D01*
X150391172Y-114906136D01*
X150394918Y-114895844D01*
X150452439Y-114681172D01*
X150454342Y-114670377D01*
X150473713Y-114448975D01*
X150473713Y-114438025D01*
X150454342Y-114216623D01*
X150452439Y-114205828D01*
X150394918Y-113991156D01*
X150391172Y-113980864D01*
X150297248Y-113779441D01*
X150291765Y-113769946D01*
X150251541Y-113712500D01*
X150241064Y-113704125D01*
X150227617Y-113711193D01*
X149508122Y-114430688D01*
X149500508Y-114444632D01*
X148770456Y-114444632D01*
X148771692Y-114442368D01*
X148771561Y-114440535D01*
X148767310Y-114433920D01*
X148043862Y-113710472D01*
X148032087Y-113704042D01*
X148020072Y-113713338D01*
X147980435Y-113769946D01*
X147974952Y-113779441D01*
X147881028Y-113980864D01*
X147877282Y-113991156D01*
X147819761Y-114205828D01*
X147817858Y-114216623D01*
X147798487Y-114438025D01*
X147798487Y-114448975D01*
X146848536Y-114448975D01*
X146848435Y-113338536D01*
X148396725Y-113338536D01*
X148403793Y-113351983D01*
X149123288Y-114071478D01*
X149137232Y-114079092D01*
X149139065Y-114078961D01*
X149145680Y-114074710D01*
X149869128Y-113351262D01*
X149875558Y-113339487D01*
X149866262Y-113327472D01*
X149809654Y-113287835D01*
X149800159Y-113282352D01*
X149598736Y-113188428D01*
X149588444Y-113184682D01*
X149373772Y-113127161D01*
X149362977Y-113125258D01*
X149141575Y-113105887D01*
X149130625Y-113105887D01*
X148909223Y-113125258D01*
X148898428Y-113127161D01*
X148683756Y-113184682D01*
X148673464Y-113188428D01*
X148472041Y-113282352D01*
X148462546Y-113287835D01*
X148405100Y-113328059D01*
X148396725Y-113338536D01*
X146848435Y-113338536D01*
X146848281Y-111642524D01*
X146868277Y-111574403D01*
X146921928Y-111527905D01*
X146974359Y-111516514D01*
X172475261Y-111532776D01*
G37*
G04 #@! TD.AperFunction*
M02*
