G04 #@! TF.GenerationSoftware,KiCad,Pcbnew,(6.0.4)*
G04 #@! TF.CreationDate,2022-05-30T19:29:21+02:00*
G04 #@! TF.ProjectId,hamodule,68616d6f-6475-46c6-952e-6b696361645f,rev?*
G04 #@! TF.SameCoordinates,Original*
G04 #@! TF.FileFunction,Copper,L2,Bot*
G04 #@! TF.FilePolarity,Positive*
%FSLAX46Y46*%
G04 Gerber Fmt 4.6, Leading zero omitted, Abs format (unit mm)*
G04 Created by KiCad (PCBNEW (6.0.4)) date 2022-05-30 19:29:21*
%MOMM*%
%LPD*%
G01*
G04 APERTURE LIST*
G04 Aperture macros list*
%AMRoundRect*
0 Rectangle with rounded corners*
0 $1 Rounding radius*
0 $2 $3 $4 $5 $6 $7 $8 $9 X,Y pos of 4 corners*
0 Add a 4 corners polygon primitive as box body*
4,1,4,$2,$3,$4,$5,$6,$7,$8,$9,$2,$3,0*
0 Add four circle primitives for the rounded corners*
1,1,$1+$1,$2,$3*
1,1,$1+$1,$4,$5*
1,1,$1+$1,$6,$7*
1,1,$1+$1,$8,$9*
0 Add four rect primitives between the rounded corners*
20,1,$1+$1,$2,$3,$4,$5,0*
20,1,$1+$1,$4,$5,$6,$7,0*
20,1,$1+$1,$6,$7,$8,$9,0*
20,1,$1+$1,$8,$9,$2,$3,0*%
G04 Aperture macros list end*
G04 #@! TA.AperFunction,ComponentPad*
%ADD10R,1.700000X1.700000*%
G04 #@! TD*
G04 #@! TA.AperFunction,ComponentPad*
%ADD11O,1.700000X1.700000*%
G04 #@! TD*
G04 #@! TA.AperFunction,ComponentPad*
%ADD12C,1.800000*%
G04 #@! TD*
G04 #@! TA.AperFunction,ComponentPad*
%ADD13RoundRect,0.250000X-0.600000X-0.750000X0.600000X-0.750000X0.600000X0.750000X-0.600000X0.750000X0*%
G04 #@! TD*
G04 #@! TA.AperFunction,ComponentPad*
%ADD14O,1.700000X2.000000*%
G04 #@! TD*
G04 #@! TA.AperFunction,ComponentPad*
%ADD15RoundRect,0.250000X-0.600000X-0.725000X0.600000X-0.725000X0.600000X0.725000X-0.600000X0.725000X0*%
G04 #@! TD*
G04 #@! TA.AperFunction,ComponentPad*
%ADD16O,1.700000X1.950000*%
G04 #@! TD*
G04 #@! TA.AperFunction,ComponentPad*
%ADD17R,1.650000X1.650000*%
G04 #@! TD*
G04 #@! TA.AperFunction,ComponentPad*
%ADD18C,1.650000*%
G04 #@! TD*
G04 #@! TA.AperFunction,ComponentPad*
%ADD19R,2.000000X1.905000*%
G04 #@! TD*
G04 #@! TA.AperFunction,ComponentPad*
%ADD20O,2.000000X1.905000*%
G04 #@! TD*
G04 #@! TA.AperFunction,ComponentPad*
%ADD21O,1.950000X1.700000*%
G04 #@! TD*
G04 #@! TA.AperFunction,ComponentPad*
%ADD22C,2.000000*%
G04 #@! TD*
G04 #@! TA.AperFunction,ComponentPad*
%ADD23RoundRect,0.625000X0.625000X0.625000X-0.625000X0.625000X-0.625000X-0.625000X0.625000X-0.625000X0*%
G04 #@! TD*
G04 #@! TA.AperFunction,ComponentPad*
%ADD24C,5.500000*%
G04 #@! TD*
G04 #@! TA.AperFunction,ComponentPad*
%ADD25R,1.600000X2.400000*%
G04 #@! TD*
G04 #@! TA.AperFunction,ComponentPad*
%ADD26O,1.600000X2.400000*%
G04 #@! TD*
G04 #@! TA.AperFunction,ComponentPad*
%ADD27C,1.408000*%
G04 #@! TD*
G04 #@! TA.AperFunction,ComponentPad*
%ADD28O,1.000000X1.600000*%
G04 #@! TD*
G04 #@! TA.AperFunction,ComponentPad*
%ADD29O,1.000000X2.100000*%
G04 #@! TD*
G04 #@! TA.AperFunction,ComponentPad*
%ADD30R,1.600000X1.600000*%
G04 #@! TD*
G04 #@! TA.AperFunction,ComponentPad*
%ADD31C,1.600000*%
G04 #@! TD*
G04 #@! TA.AperFunction,SMDPad,CuDef*
%ADD32C,2.000000*%
G04 #@! TD*
G04 #@! TA.AperFunction,ViaPad*
%ADD33C,0.800000*%
G04 #@! TD*
G04 #@! TA.AperFunction,ViaPad*
%ADD34C,0.500000*%
G04 #@! TD*
G04 #@! TA.AperFunction,Conductor*
%ADD35C,1.000000*%
G04 #@! TD*
G04 #@! TA.AperFunction,Conductor*
%ADD36C,3.000000*%
G04 #@! TD*
G04 #@! TA.AperFunction,Conductor*
%ADD37C,2.000000*%
G04 #@! TD*
G04 #@! TA.AperFunction,Conductor*
%ADD38C,0.600000*%
G04 #@! TD*
G04 #@! TA.AperFunction,Conductor*
%ADD39C,0.250000*%
G04 #@! TD*
G04 #@! TA.AperFunction,Conductor*
%ADD40C,0.400000*%
G04 #@! TD*
G04 #@! TA.AperFunction,Conductor*
%ADD41C,1.500000*%
G04 #@! TD*
G04 APERTURE END LIST*
G36*
X179371500Y-106711500D02*
G01*
X177371500Y-106711500D01*
X177371500Y-102711500D01*
X179371500Y-102711500D01*
X179371500Y-106711500D01*
G37*
D10*
X150558500Y-144538700D03*
D11*
X150558500Y-147078700D03*
D12*
X128386500Y-94623500D03*
X135886500Y-96256830D03*
D13*
X143009300Y-138603500D03*
D14*
X145509300Y-138603500D03*
D10*
X155080500Y-119965500D03*
D11*
X155080500Y-117425500D03*
D15*
X160026500Y-118314500D03*
D16*
X162526500Y-118314500D03*
X165026500Y-118314500D03*
X167526500Y-118314500D03*
D17*
X129136100Y-109443500D03*
D18*
X129136100Y-129443500D03*
X149136100Y-124443500D03*
X149136100Y-114443500D03*
D19*
X129200000Y-143680000D03*
D20*
X129200000Y-141140000D03*
X129200000Y-138600000D03*
D10*
X152122800Y-101530599D03*
D21*
X152122800Y-98990599D03*
D22*
X152122800Y-91370599D03*
X152122800Y-83750599D03*
D10*
X157520300Y-101511100D03*
D21*
X157520300Y-98971100D03*
D22*
X157520300Y-91351100D03*
X157520300Y-83731100D03*
D10*
X168465500Y-101511100D03*
D21*
X168465500Y-98971100D03*
D22*
X168465500Y-91351100D03*
X168465500Y-83731100D03*
D23*
X154146500Y-70753501D03*
X159146500Y-70753501D03*
X164146500Y-70753501D03*
X169146500Y-70753501D03*
X154146500Y-78953500D03*
X159146500Y-78953500D03*
X164146500Y-78953500D03*
X169146500Y-78953500D03*
X140500100Y-70777100D03*
X145500100Y-70777100D03*
X140500100Y-78977099D03*
X145500100Y-78977099D03*
X178106500Y-70713500D03*
X183106500Y-70713500D03*
X188106500Y-70713500D03*
X193106500Y-70713500D03*
X178106500Y-78913499D03*
X183106500Y-78913499D03*
X188106500Y-78913499D03*
X193106500Y-78913499D03*
D22*
X143546500Y-85283500D03*
X143536500Y-90363500D03*
D24*
X198564500Y-85407500D03*
X132270500Y-85407500D03*
D10*
X163068000Y-101511100D03*
D21*
X163068000Y-98971100D03*
D22*
X163068000Y-91351100D03*
X163068000Y-83731100D03*
D24*
X132256500Y-76503500D03*
D25*
X183172100Y-109639100D03*
D26*
X180632100Y-109639100D03*
X178092100Y-109639100D03*
X175552100Y-109639100D03*
X175552100Y-117259100D03*
X178092100Y-117259100D03*
X180632100Y-117259100D03*
X183172100Y-117259100D03*
D25*
X194348100Y-109639100D03*
D26*
X191808100Y-109639100D03*
X189268100Y-109639100D03*
X186728100Y-109639100D03*
X186728100Y-117259100D03*
X189268100Y-117259100D03*
X191808100Y-117259100D03*
X194348100Y-117259100D03*
D13*
X143009300Y-145580100D03*
D14*
X145509300Y-145580100D03*
D10*
X178955700Y-125082300D03*
D11*
X181495700Y-125082300D03*
X184035700Y-125082300D03*
X186575700Y-125082300D03*
D10*
X184442100Y-149161500D03*
D11*
X186982100Y-149161500D03*
D10*
X153733500Y-140708300D03*
D11*
X153733500Y-138168300D03*
D27*
X183070500Y-89090500D03*
X183070500Y-84010500D03*
X193128900Y-89090500D03*
X193128900Y-84010500D03*
D10*
X170700700Y-141719300D03*
D11*
X173240700Y-141719300D03*
D28*
X156953000Y-149050900D03*
D29*
X156953000Y-144870900D03*
X165593000Y-144870900D03*
D28*
X165593000Y-149050900D03*
D27*
X188099700Y-89090500D03*
X188099700Y-84010500D03*
D22*
X143546500Y-95413500D03*
X143536500Y-100493500D03*
D30*
X136334500Y-143400000D03*
D31*
X136334500Y-145900000D03*
D27*
X178092100Y-89090500D03*
X178092100Y-84010500D03*
D32*
X178371500Y-102711500D03*
X178371500Y-106711500D03*
D33*
X171500000Y-136300000D03*
X168719500Y-134048500D03*
X167703500Y-134048500D03*
X191731900Y-124421900D03*
X192671700Y-124432420D03*
X190836500Y-130523500D03*
X169608500Y-132823500D03*
D34*
X160503000Y-145224500D03*
X161607500Y-145224500D03*
D33*
X170192700Y-143497300D03*
X161536500Y-131663500D03*
X160296500Y-129123000D03*
X158966500Y-132033500D03*
X158983000Y-146300784D03*
X163600000Y-146300000D03*
X183172100Y-135851900D03*
X185407300Y-139712700D03*
X187337700Y-139712700D03*
X185559700Y-133311900D03*
X190500000Y-136766300D03*
X162116300Y-136856500D03*
X160926500Y-139103900D03*
X154965400Y-123164600D03*
X188400000Y-132270500D03*
X157356500Y-142843500D03*
X186500000Y-132270500D03*
X182181500Y-136740900D03*
X159786500Y-139103900D03*
X188201300Y-126403100D03*
X163639500Y-110832900D03*
X155106500Y-150003500D03*
X162106500Y-139173900D03*
X193856500Y-144343500D03*
X171912632Y-125487368D03*
X184518300Y-140652500D03*
X169436500Y-114123500D03*
X171916500Y-126443500D03*
X193078100Y-122085100D03*
X172212000Y-146812000D03*
X193865500Y-130644900D03*
X157975300Y-110832900D03*
X170406500Y-114103500D03*
X168338500Y-110832900D03*
X166738300Y-143116300D03*
X159796500Y-137999500D03*
X160922500Y-137974100D03*
X160922500Y-136856500D03*
X173228000Y-146812000D03*
X189600000Y-135826500D03*
X189600000Y-137700000D03*
X187490100Y-133311900D03*
X188277500Y-140652500D03*
X157612099Y-140708899D03*
X153856500Y-123153500D03*
X176568100Y-123253500D03*
X171196000Y-146812000D03*
X184600000Y-132270500D03*
X168100000Y-136100000D03*
X156324300Y-142862300D03*
X182181500Y-138620500D03*
X153826500Y-148833500D03*
X159804900Y-136881900D03*
X182181500Y-134861300D03*
X184213500Y-122999500D03*
X165773100Y-142811500D03*
X164021100Y-141900900D03*
X183172100Y-137731500D03*
X190500000Y-134900000D03*
X190500000Y-138700000D03*
X191900000Y-120103900D03*
X160600000Y-110832900D03*
X186397900Y-140652500D03*
X162090900Y-137948700D03*
X157083980Y-136013900D03*
X169176700Y-145300700D03*
X169659300Y-144411700D03*
X156066500Y-136005500D03*
D35*
X166226500Y-128143500D02*
X166346500Y-128023500D01*
X191731900Y-124421900D02*
X191731900Y-125372220D01*
X189080620Y-128023500D02*
X190423560Y-126680560D01*
X191731900Y-125372220D02*
X190423560Y-126680560D01*
X150558500Y-131231500D02*
X150558500Y-144538700D01*
X170596500Y-128023500D02*
X189080620Y-128023500D01*
X192671700Y-124432420D02*
X191742420Y-124432420D01*
X167703500Y-134048500D02*
X166226500Y-132571500D01*
X166226500Y-131334500D02*
X166226500Y-128143500D01*
X153766500Y-128023500D02*
X150558500Y-131231500D01*
X191742420Y-124432420D02*
X191731900Y-124421900D01*
X170596500Y-128023500D02*
X166346500Y-128023500D01*
X166226500Y-132571500D02*
X166226500Y-131334500D01*
X192671700Y-124432420D02*
X191731900Y-125372220D01*
X167703500Y-134048500D02*
X168719500Y-134048500D01*
X166346500Y-128023500D02*
X153766500Y-128023500D01*
D36*
X140500100Y-70777100D02*
X140500100Y-75018900D01*
X128386500Y-94623500D02*
X128386500Y-103303500D01*
X130469915Y-91267293D02*
X128386500Y-93350708D01*
X138020011Y-81457188D02*
X138020011Y-87789027D01*
D37*
X173824900Y-93814900D02*
X173824900Y-77963162D01*
D36*
X128386500Y-93350708D02*
X128386500Y-94623500D01*
D37*
X178371500Y-102711500D02*
X178371500Y-98361500D01*
X178371500Y-98361500D02*
X173824900Y-93814900D01*
D36*
X140500100Y-75018900D02*
X140500100Y-78977099D01*
X128386500Y-103303500D02*
X128386500Y-108693900D01*
X138020011Y-87789027D02*
X134541745Y-91267293D01*
D37*
X170880638Y-75018900D02*
X140500100Y-75018900D01*
D36*
X134541745Y-91267293D02*
X130469915Y-91267293D01*
D37*
X173824900Y-77963162D02*
X170880638Y-75018900D01*
D36*
X128386500Y-108693900D02*
X129136100Y-109443500D01*
X140500100Y-78977099D02*
X138020011Y-81457188D01*
D38*
X169614300Y-132823500D02*
X171927680Y-130510120D01*
X171927680Y-130510120D02*
X173781880Y-130510120D01*
X173781880Y-130510120D02*
X190797430Y-130510120D01*
X169608500Y-132823500D02*
X169614300Y-132823500D01*
D39*
X160503000Y-145224500D02*
X161607500Y-145224500D01*
D40*
X161536500Y-131663500D02*
X169125900Y-139252900D01*
X169583100Y-143497300D02*
X170192700Y-143497300D01*
X169125900Y-143040100D02*
X169583100Y-143497300D01*
X169125900Y-139252900D02*
X169125900Y-143040100D01*
X158966500Y-130453000D02*
X160296500Y-129123000D01*
X158966500Y-132033500D02*
X158966500Y-130453000D01*
X159300000Y-147800000D02*
X163200000Y-147800000D01*
X163200000Y-147800000D02*
X163543000Y-147457000D01*
X158983000Y-147483000D02*
X159300000Y-147800000D01*
X163543000Y-147457000D02*
X163543000Y-146300900D01*
X158983000Y-146300784D02*
X158983000Y-147483000D01*
X163774375Y-135818625D02*
X167926860Y-139971110D01*
X157083980Y-136013900D02*
X157279255Y-135818625D01*
X167926860Y-139971110D02*
X167926860Y-144050860D01*
X167926860Y-144050860D02*
X169176700Y-145300700D01*
X157279255Y-135818625D02*
X163774375Y-135818625D01*
D37*
X149136100Y-124443500D02*
X149136100Y-121810878D01*
X149136100Y-121810878D02*
X153521478Y-117425500D01*
X153521478Y-117425500D02*
X155080500Y-117425500D01*
D35*
X156953000Y-144870900D02*
X156953000Y-149050900D01*
X165593000Y-149050900D02*
X165593000Y-144870900D01*
D40*
X169598850Y-144360900D02*
X169710100Y-144360900D01*
X156066500Y-136005500D02*
X156066500Y-135900700D01*
X156752811Y-135214389D02*
X164017989Y-135214389D01*
X164017989Y-135214389D02*
X168526380Y-139722780D01*
X168526380Y-143288430D02*
X169649650Y-144411700D01*
X169649650Y-144411700D02*
X169659300Y-144411700D01*
X168526380Y-139722780D02*
X168526380Y-143288430D01*
X156066500Y-135900700D02*
X156752811Y-135214389D01*
D41*
X180632100Y-109639100D02*
X180632100Y-106718100D01*
D37*
X188808589Y-106639589D02*
X191748589Y-109579589D01*
D38*
X189268100Y-109639100D02*
X189268100Y-107099100D01*
D37*
X180553589Y-106639589D02*
X178340411Y-106639589D01*
D41*
X178092100Y-109639100D02*
X178092100Y-106887900D01*
D37*
X191748589Y-109579589D02*
X191748589Y-109639100D01*
D41*
X178092100Y-106887900D02*
X178340411Y-106639589D01*
D37*
X188808589Y-106639589D02*
X180553589Y-106639589D01*
D35*
X189268100Y-109639100D02*
X191808100Y-109639100D01*
D38*
X189268100Y-107099100D02*
X188808589Y-106639589D01*
D41*
X180632100Y-106718100D02*
X180553589Y-106639589D01*
G04 #@! TA.AperFunction,Conductor*
G36*
X171387078Y-107947005D02*
G01*
X171455186Y-107967049D01*
X171501646Y-108020733D01*
X171513000Y-108073005D01*
X171513000Y-111215333D01*
X171511500Y-111234718D01*
X171509190Y-111249551D01*
X171509190Y-111249555D01*
X171507809Y-111258424D01*
X171508630Y-111264700D01*
X171508475Y-111264700D01*
X171508922Y-111271521D01*
X171508922Y-111271525D01*
X171510317Y-111292807D01*
X171526554Y-111540531D01*
X171527358Y-111544571D01*
X171527358Y-111544574D01*
X171543860Y-111627533D01*
X171580481Y-111811643D01*
X171581807Y-111815549D01*
X171581808Y-111815553D01*
X171655428Y-112032429D01*
X171669335Y-112073396D01*
X171791593Y-112321313D01*
X171945166Y-112551150D01*
X172127424Y-112758976D01*
X172335250Y-112941234D01*
X172565088Y-113094807D01*
X172568787Y-113096631D01*
X172568792Y-113096634D01*
X172792683Y-113207044D01*
X172813004Y-113217065D01*
X172816902Y-113218388D01*
X172816904Y-113218389D01*
X173070847Y-113304592D01*
X173070851Y-113304593D01*
X173074757Y-113305919D01*
X173078801Y-113306723D01*
X173078807Y-113306725D01*
X173341826Y-113359042D01*
X173341829Y-113359042D01*
X173345869Y-113359846D01*
X173349980Y-113360115D01*
X173349984Y-113360116D01*
X173589406Y-113375809D01*
X173602061Y-113377284D01*
X173602562Y-113377368D01*
X173609148Y-113378476D01*
X173615526Y-113378554D01*
X173616840Y-113378570D01*
X173616843Y-113378570D01*
X173621700Y-113378629D01*
X173649324Y-113374673D01*
X173667186Y-113373400D01*
X195666450Y-113373400D01*
X195687355Y-113375146D01*
X195702356Y-113377670D01*
X195702359Y-113377670D01*
X195707148Y-113378476D01*
X195713424Y-113378552D01*
X195714841Y-113378570D01*
X195714844Y-113378570D01*
X195719700Y-113378629D01*
X195727001Y-113377583D01*
X195729092Y-113377284D01*
X195735974Y-113376490D01*
X195779351Y-113372695D01*
X195925667Y-113359894D01*
X195930981Y-113358470D01*
X195930982Y-113358470D01*
X196120065Y-113307806D01*
X196120067Y-113307805D01*
X196125375Y-113306383D01*
X196130357Y-113304060D01*
X196307770Y-113221331D01*
X196307775Y-113221328D01*
X196312757Y-113219005D01*
X196475381Y-113105134D01*
X196547593Y-113082347D01*
X199063230Y-113081176D01*
X199131360Y-113101146D01*
X199177878Y-113154780D01*
X199189289Y-113207044D01*
X199195904Y-119633634D01*
X199199370Y-123000370D01*
X199179438Y-123068512D01*
X199125830Y-123115060D01*
X199073370Y-123126500D01*
X194881500Y-123126500D01*
X194881500Y-151067317D01*
X194861498Y-151135438D01*
X194807842Y-151181931D01*
X194755506Y-151193317D01*
X161839100Y-151195000D01*
X127748118Y-151195000D01*
X127728635Y-151193485D01*
X127714044Y-151191201D01*
X127714042Y-151191201D01*
X127705180Y-151189814D01*
X127689176Y-151191894D01*
X127688890Y-151191931D01*
X127664317Y-151192706D01*
X127441857Y-151177957D01*
X127425526Y-151175795D01*
X127181001Y-151126981D01*
X127165092Y-151122707D01*
X126929019Y-151042408D01*
X126913813Y-151036100D01*
X126690226Y-150925683D01*
X126675966Y-150917440D01*
X126468703Y-150778804D01*
X126455638Y-150768770D01*
X126268224Y-150604270D01*
X126256598Y-150592634D01*
X126092250Y-150405094D01*
X126082227Y-150392024D01*
X126043931Y-150334673D01*
X125943751Y-150184647D01*
X125935521Y-150170383D01*
X125911585Y-150121816D01*
X125825288Y-149946722D01*
X125818987Y-149931502D01*
X125738872Y-149695365D01*
X125734611Y-149679453D01*
X125711179Y-149561594D01*
X125685987Y-149434882D01*
X125683839Y-149418555D01*
X125683356Y-149411173D01*
X125682668Y-149400669D01*
X155944500Y-149400669D01*
X155944800Y-149403725D01*
X155944800Y-149403732D01*
X155950537Y-149462240D01*
X155958920Y-149547733D01*
X156016084Y-149737069D01*
X156108934Y-149911696D01*
X156137501Y-149946722D01*
X156230040Y-150060187D01*
X156230043Y-150060190D01*
X156233935Y-150064962D01*
X156238682Y-150068889D01*
X156238684Y-150068891D01*
X156381575Y-150187101D01*
X156381579Y-150187103D01*
X156386325Y-150191030D01*
X156560299Y-150285098D01*
X156749232Y-150343582D01*
X156755357Y-150344226D01*
X156755358Y-150344226D01*
X156939796Y-150363611D01*
X156939798Y-150363611D01*
X156945925Y-150364255D01*
X157028424Y-150356747D01*
X157136749Y-150346889D01*
X157136752Y-150346888D01*
X157142888Y-150346330D01*
X157148794Y-150344592D01*
X157148798Y-150344591D01*
X157253924Y-150313651D01*
X157332619Y-150290490D01*
X157338077Y-150287637D01*
X157338081Y-150287635D01*
X157428853Y-150240180D01*
X157507890Y-150198860D01*
X157662025Y-150074932D01*
X157789154Y-149923426D01*
X157792121Y-149918028D01*
X157792125Y-149918023D01*
X157881467Y-149755508D01*
X157884433Y-149750113D01*
X157886846Y-149742508D01*
X157942373Y-149567464D01*
X157942373Y-149567463D01*
X157944235Y-149561594D01*
X157961500Y-149407673D01*
X157961500Y-146818731D01*
X157981502Y-146750610D01*
X158035158Y-146704117D01*
X158105432Y-146694013D01*
X158170012Y-146723507D01*
X158196619Y-146755731D01*
X158238579Y-146828407D01*
X158243960Y-146837728D01*
X158248379Y-146842636D01*
X158250436Y-146845467D01*
X158274295Y-146912335D01*
X158274500Y-146919528D01*
X158274500Y-147454088D01*
X158274208Y-147462658D01*
X158271030Y-147509281D01*
X158270275Y-147520352D01*
X158271580Y-147527829D01*
X158271580Y-147527830D01*
X158281261Y-147583299D01*
X158282223Y-147589821D01*
X158289898Y-147653242D01*
X158292581Y-147660343D01*
X158293222Y-147662952D01*
X158297685Y-147679262D01*
X158298450Y-147681798D01*
X158299757Y-147689284D01*
X158319705Y-147734725D01*
X158325442Y-147747795D01*
X158327935Y-147753904D01*
X158347356Y-147805300D01*
X158350513Y-147813656D01*
X158354817Y-147819919D01*
X158356054Y-147822285D01*
X158364299Y-147837097D01*
X158365632Y-147839351D01*
X158368685Y-147846305D01*
X158397448Y-147883788D01*
X158407579Y-147896991D01*
X158411459Y-147902332D01*
X158443339Y-147948720D01*
X158443344Y-147948725D01*
X158447643Y-147954981D01*
X158453313Y-147960032D01*
X158453314Y-147960034D01*
X158494170Y-147996435D01*
X158499446Y-148001416D01*
X158778550Y-148280520D01*
X158784404Y-148286785D01*
X158822439Y-148330385D01*
X158849440Y-148349361D01*
X158874697Y-148367112D01*
X158879993Y-148371045D01*
X158930282Y-148410477D01*
X158937204Y-148413602D01*
X158939452Y-148414964D01*
X158954185Y-148423368D01*
X158956524Y-148424622D01*
X158962739Y-148428990D01*
X158969815Y-148431749D01*
X158969819Y-148431751D01*
X159022269Y-148452200D01*
X159028334Y-148454749D01*
X159086573Y-148481045D01*
X159094038Y-148482429D01*
X159096582Y-148483226D01*
X159112848Y-148487859D01*
X159115428Y-148488521D01*
X159122509Y-148491282D01*
X159130042Y-148492274D01*
X159130043Y-148492274D01*
X159143261Y-148494014D01*
X159185857Y-148499622D01*
X159192355Y-148500650D01*
X159255187Y-148512296D01*
X159262767Y-148511859D01*
X159262768Y-148511859D01*
X159317398Y-148508709D01*
X159324651Y-148508500D01*
X163171088Y-148508500D01*
X163179658Y-148508792D01*
X163229776Y-148512209D01*
X163229780Y-148512209D01*
X163237352Y-148512725D01*
X163244829Y-148511420D01*
X163244830Y-148511420D01*
X163271308Y-148506799D01*
X163300303Y-148501738D01*
X163306821Y-148500777D01*
X163370242Y-148493102D01*
X163377343Y-148490419D01*
X163379952Y-148489778D01*
X163396262Y-148485315D01*
X163398798Y-148484550D01*
X163406284Y-148483243D01*
X163464800Y-148457556D01*
X163470904Y-148455065D01*
X163475319Y-148453397D01*
X163498563Y-148444614D01*
X163523548Y-148435173D01*
X163523549Y-148435172D01*
X163530656Y-148432487D01*
X163536919Y-148428183D01*
X163539285Y-148426946D01*
X163554097Y-148418701D01*
X163556351Y-148417368D01*
X163563305Y-148414315D01*
X163614002Y-148375413D01*
X163619332Y-148371541D01*
X163665720Y-148339661D01*
X163665725Y-148339656D01*
X163671981Y-148335357D01*
X163713435Y-148288830D01*
X163718416Y-148283554D01*
X164023535Y-147978436D01*
X164029800Y-147972583D01*
X164067664Y-147939552D01*
X164067665Y-147939551D01*
X164073385Y-147934561D01*
X164110136Y-147882271D01*
X164114028Y-147877029D01*
X164153476Y-147826718D01*
X164156600Y-147819799D01*
X164157988Y-147817507D01*
X164166367Y-147802816D01*
X164167621Y-147800476D01*
X164171990Y-147794261D01*
X164187725Y-147753904D01*
X164195202Y-147734725D01*
X164197759Y-147728642D01*
X164211722Y-147697720D01*
X164224045Y-147670427D01*
X164225430Y-147662954D01*
X164226234Y-147660388D01*
X164230855Y-147644165D01*
X164231520Y-147641573D01*
X164234282Y-147634491D01*
X164242622Y-147571139D01*
X164243654Y-147564623D01*
X164253911Y-147509281D01*
X164255295Y-147501814D01*
X164251709Y-147439620D01*
X164251500Y-147432367D01*
X164251500Y-146982533D01*
X164271502Y-146914412D01*
X164283858Y-146898230D01*
X164339040Y-146836944D01*
X164342339Y-146831231D01*
X164342342Y-146831226D01*
X164349381Y-146819033D01*
X164400764Y-146770040D01*
X164470477Y-146756604D01*
X164536388Y-146782991D01*
X164577570Y-146840823D01*
X164584500Y-146882033D01*
X164584500Y-149400669D01*
X164584800Y-149403725D01*
X164584800Y-149403732D01*
X164590537Y-149462240D01*
X164598920Y-149547733D01*
X164656084Y-149737069D01*
X164748934Y-149911696D01*
X164777501Y-149946722D01*
X164870040Y-150060187D01*
X164870043Y-150060190D01*
X164873935Y-150064962D01*
X164878682Y-150068889D01*
X164878684Y-150068891D01*
X165021575Y-150187101D01*
X165021579Y-150187103D01*
X165026325Y-150191030D01*
X165200299Y-150285098D01*
X165389232Y-150343582D01*
X165395357Y-150344226D01*
X165395358Y-150344226D01*
X165579796Y-150363611D01*
X165579798Y-150363611D01*
X165585925Y-150364255D01*
X165668424Y-150356747D01*
X165776749Y-150346889D01*
X165776752Y-150346888D01*
X165782888Y-150346330D01*
X165788794Y-150344592D01*
X165788798Y-150344591D01*
X165893924Y-150313651D01*
X165972619Y-150290490D01*
X165978077Y-150287637D01*
X165978081Y-150287635D01*
X166068853Y-150240180D01*
X166147890Y-150198860D01*
X166302025Y-150074932D01*
X166314862Y-150059634D01*
X183083600Y-150059634D01*
X183090355Y-150121816D01*
X183141485Y-150258205D01*
X183228839Y-150374761D01*
X183345395Y-150462115D01*
X183481784Y-150513245D01*
X183543966Y-150520000D01*
X185340234Y-150520000D01*
X185402416Y-150513245D01*
X185538805Y-150462115D01*
X185655361Y-150374761D01*
X185742715Y-150258205D01*
X185764899Y-150199029D01*
X185786698Y-150140882D01*
X185829340Y-150084118D01*
X185895902Y-150059418D01*
X185965250Y-150074626D01*
X185999917Y-150102614D01*
X186028350Y-150135438D01*
X186200226Y-150278132D01*
X186393100Y-150390838D01*
X186601792Y-150470530D01*
X186606860Y-150471561D01*
X186606863Y-150471562D01*
X186714117Y-150493383D01*
X186820697Y-150515067D01*
X186825872Y-150515257D01*
X186825874Y-150515257D01*
X187038773Y-150523064D01*
X187038777Y-150523064D01*
X187043937Y-150523253D01*
X187049057Y-150522597D01*
X187049059Y-150522597D01*
X187260388Y-150495525D01*
X187260389Y-150495525D01*
X187265516Y-150494868D01*
X187270466Y-150493383D01*
X187474529Y-150432161D01*
X187474534Y-150432159D01*
X187479484Y-150430674D01*
X187680094Y-150332396D01*
X187861960Y-150202673D01*
X187865787Y-150198860D01*
X188005716Y-150059418D01*
X188020196Y-150044989D01*
X188150553Y-149863577D01*
X188249530Y-149663311D01*
X188314470Y-149449569D01*
X188343629Y-149228090D01*
X188344714Y-149183699D01*
X188345174Y-149164865D01*
X188345174Y-149164861D01*
X188345256Y-149161500D01*
X188326952Y-148938861D01*
X188272531Y-148722202D01*
X188183454Y-148517340D01*
X188126298Y-148428990D01*
X188064922Y-148334117D01*
X188064920Y-148334114D01*
X188062114Y-148329777D01*
X187911770Y-148164551D01*
X187907719Y-148161352D01*
X187907715Y-148161348D01*
X187740514Y-148029300D01*
X187740510Y-148029298D01*
X187736459Y-148026098D01*
X187691748Y-148001416D01*
X187650119Y-147978436D01*
X187540889Y-147918138D01*
X187536020Y-147916414D01*
X187536016Y-147916412D01*
X187335187Y-147845295D01*
X187335183Y-147845294D01*
X187330312Y-147843569D01*
X187325219Y-147842662D01*
X187325216Y-147842661D01*
X187115473Y-147805300D01*
X187115467Y-147805299D01*
X187110384Y-147804394D01*
X187036552Y-147803492D01*
X186892181Y-147801728D01*
X186892179Y-147801728D01*
X186887011Y-147801665D01*
X186666191Y-147835455D01*
X186453856Y-147904857D01*
X186423543Y-147920637D01*
X186277937Y-147996435D01*
X186255707Y-148008007D01*
X186251574Y-148011110D01*
X186251571Y-148011112D01*
X186106715Y-148119873D01*
X186077065Y-148142135D01*
X186020637Y-148201184D01*
X185996383Y-148226564D01*
X185934859Y-148261994D01*
X185863946Y-148258537D01*
X185806160Y-148217291D01*
X185787307Y-148183743D01*
X185745867Y-148073203D01*
X185742715Y-148064795D01*
X185655361Y-147948239D01*
X185538805Y-147860885D01*
X185402416Y-147809755D01*
X185340234Y-147803000D01*
X183543966Y-147803000D01*
X183481784Y-147809755D01*
X183345395Y-147860885D01*
X183228839Y-147948239D01*
X183141485Y-148064795D01*
X183090355Y-148201184D01*
X183083600Y-148263366D01*
X183083600Y-150059634D01*
X166314862Y-150059634D01*
X166429154Y-149923426D01*
X166432121Y-149918028D01*
X166432125Y-149918023D01*
X166521467Y-149755508D01*
X166524433Y-149750113D01*
X166526846Y-149742508D01*
X166582373Y-149567464D01*
X166582373Y-149567463D01*
X166584235Y-149561594D01*
X166601500Y-149407673D01*
X166601500Y-144271131D01*
X166600814Y-144264127D01*
X166591276Y-144166860D01*
X166587080Y-144124067D01*
X166578513Y-144095690D01*
X166556248Y-144021948D01*
X166529916Y-143934731D01*
X166437066Y-143760104D01*
X166339573Y-143640566D01*
X166315960Y-143611613D01*
X166315957Y-143611610D01*
X166312065Y-143606838D01*
X166305724Y-143601592D01*
X166164425Y-143484699D01*
X166164421Y-143484697D01*
X166159675Y-143480770D01*
X165985701Y-143386702D01*
X165796768Y-143328218D01*
X165790643Y-143327574D01*
X165790642Y-143327574D01*
X165606204Y-143308189D01*
X165606202Y-143308189D01*
X165600075Y-143307545D01*
X165529861Y-143313935D01*
X165409251Y-143324911D01*
X165409248Y-143324912D01*
X165403112Y-143325470D01*
X165397206Y-143327208D01*
X165397202Y-143327209D01*
X165292076Y-143358149D01*
X165213381Y-143381310D01*
X165207923Y-143384163D01*
X165207919Y-143384165D01*
X165131094Y-143424329D01*
X165038110Y-143472940D01*
X164883975Y-143596868D01*
X164756846Y-143748374D01*
X164753879Y-143753772D01*
X164753875Y-143753777D01*
X164750397Y-143760104D01*
X164661567Y-143921687D01*
X164659706Y-143927554D01*
X164659705Y-143927556D01*
X164611992Y-144077965D01*
X164601765Y-144110206D01*
X164584500Y-144264127D01*
X164584500Y-144483762D01*
X164564498Y-144551883D01*
X164510842Y-144598376D01*
X164440568Y-144608480D01*
X164431014Y-144606728D01*
X164312370Y-144580208D01*
X164256457Y-144567710D01*
X164250912Y-144567400D01*
X164117756Y-144567400D01*
X163982963Y-144582043D01*
X163864810Y-144621806D01*
X163817796Y-144637628D01*
X163817794Y-144637629D01*
X163811325Y-144639806D01*
X163656095Y-144733077D01*
X163651138Y-144737765D01*
X163651135Y-144737767D01*
X163529473Y-144852818D01*
X163524515Y-144857507D01*
X163520683Y-144863145D01*
X163520680Y-144863149D01*
X163462578Y-144948644D01*
X163422723Y-145007288D01*
X163355470Y-145175434D01*
X163354356Y-145182162D01*
X163354355Y-145182166D01*
X163330553Y-145325944D01*
X163325892Y-145354098D01*
X163325918Y-145354595D01*
X163302960Y-145419206D01*
X163252175Y-145460385D01*
X163149281Y-145506195D01*
X163149274Y-145506199D01*
X163143248Y-145508882D01*
X162988747Y-145621134D01*
X162984326Y-145626044D01*
X162984325Y-145626045D01*
X162899730Y-145719998D01*
X162860960Y-145763056D01*
X162765473Y-145928444D01*
X162706458Y-146110072D01*
X162705768Y-146116633D01*
X162705768Y-146116635D01*
X162696039Y-146209200D01*
X162686496Y-146300000D01*
X162687186Y-146306565D01*
X162705342Y-146479306D01*
X162706458Y-146489928D01*
X162765473Y-146671556D01*
X162768776Y-146677278D01*
X162768777Y-146677279D01*
X162817619Y-146761875D01*
X162834500Y-146824875D01*
X162834500Y-146965500D01*
X162814498Y-147033621D01*
X162760842Y-147080114D01*
X162708500Y-147091500D01*
X159817500Y-147091500D01*
X159749379Y-147071498D01*
X159702886Y-147017842D01*
X159691500Y-146965500D01*
X159691500Y-146919528D01*
X159711502Y-146851407D01*
X159715564Y-146845467D01*
X159717621Y-146842636D01*
X159722040Y-146837728D01*
X159725794Y-146831226D01*
X159814223Y-146678063D01*
X159814224Y-146678062D01*
X159817527Y-146672340D01*
X159876542Y-146490712D01*
X159886794Y-146393175D01*
X159895814Y-146307349D01*
X159896504Y-146300784D01*
X159890849Y-146246977D01*
X159877232Y-146117419D01*
X159877232Y-146117417D01*
X159876542Y-146110856D01*
X159826154Y-145955779D01*
X159824126Y-145884813D01*
X159860789Y-145824015D01*
X159924501Y-145792690D01*
X159995035Y-145800782D01*
X160015917Y-145813454D01*
X160016455Y-145812632D01*
X160148238Y-145898868D01*
X160158846Y-145905810D01*
X160165450Y-145908266D01*
X160165452Y-145908267D01*
X160221815Y-145929228D01*
X160318341Y-145965126D01*
X160487015Y-145987632D01*
X160494026Y-145986994D01*
X160494030Y-145986994D01*
X160649462Y-145972848D01*
X160656483Y-145972209D01*
X160663185Y-145970031D01*
X160663187Y-145970031D01*
X160811623Y-145921801D01*
X160811626Y-145921800D01*
X160818322Y-145919624D01*
X160824373Y-145916017D01*
X160824375Y-145916016D01*
X160891887Y-145875771D01*
X160956404Y-145858000D01*
X161152723Y-145858000D01*
X161221716Y-145878568D01*
X161252738Y-145898868D01*
X161263346Y-145905810D01*
X161269950Y-145908266D01*
X161269952Y-145908267D01*
X161326315Y-145929228D01*
X161422841Y-145965126D01*
X161591515Y-145987632D01*
X161598526Y-145986994D01*
X161598530Y-145986994D01*
X161753962Y-145972848D01*
X161760983Y-145972209D01*
X161767685Y-145970031D01*
X161767687Y-145970031D01*
X161916123Y-145921801D01*
X161916126Y-145921800D01*
X161922822Y-145919624D01*
X162068990Y-145832490D01*
X162074084Y-145827639D01*
X162074088Y-145827636D01*
X162161094Y-145744781D01*
X162192221Y-145715139D01*
X162220713Y-145672256D01*
X162245196Y-145635405D01*
X162286391Y-145573402D01*
X162346819Y-145414325D01*
X162370501Y-145245813D01*
X162370618Y-145237464D01*
X162370744Y-145228461D01*
X162370744Y-145228455D01*
X162370799Y-145224500D01*
X162351831Y-145055392D01*
X162295868Y-144894689D01*
X162289883Y-144885110D01*
X162229452Y-144788403D01*
X162205692Y-144750379D01*
X162085786Y-144629632D01*
X162069539Y-144619321D01*
X162010798Y-144582043D01*
X161942108Y-144538451D01*
X161781800Y-144481368D01*
X161612829Y-144461220D01*
X161605826Y-144461956D01*
X161605825Y-144461956D01*
X161450601Y-144478270D01*
X161450597Y-144478271D01*
X161443593Y-144479007D01*
X161282503Y-144533846D01*
X161219968Y-144572318D01*
X161153948Y-144591000D01*
X160957018Y-144591000D01*
X160889506Y-144571387D01*
X160837608Y-144538451D01*
X160677300Y-144481368D01*
X160508329Y-144461220D01*
X160501326Y-144461956D01*
X160501325Y-144461956D01*
X160346101Y-144478270D01*
X160346097Y-144478271D01*
X160339093Y-144479007D01*
X160332422Y-144481278D01*
X160184673Y-144531575D01*
X160184670Y-144531576D01*
X160178003Y-144533846D01*
X160172005Y-144537536D01*
X160172003Y-144537537D01*
X160039065Y-144619321D01*
X160039063Y-144619323D01*
X160033066Y-144623012D01*
X159911486Y-144742073D01*
X159907675Y-144747987D01*
X159907673Y-144747989D01*
X159874826Y-144798957D01*
X159819304Y-144885110D01*
X159761103Y-145045016D01*
X159739775Y-145213843D01*
X159756381Y-145383199D01*
X159776584Y-145443930D01*
X159788986Y-145481213D01*
X159791509Y-145552165D01*
X159755272Y-145613217D01*
X159691780Y-145644987D01*
X159621192Y-145637386D01*
X159595016Y-145620868D01*
X159594253Y-145621918D01*
X159445094Y-145513547D01*
X159445093Y-145513546D01*
X159439752Y-145509666D01*
X159433726Y-145506983D01*
X159433719Y-145506979D01*
X159288723Y-145442424D01*
X159234627Y-145396444D01*
X159214144Y-145333911D01*
X159213428Y-145320235D01*
X159210630Y-145266853D01*
X159203748Y-145241866D01*
X159164352Y-145098841D01*
X159162539Y-145092259D01*
X159078078Y-144932064D01*
X159073673Y-144926851D01*
X159073670Y-144926847D01*
X158965594Y-144798957D01*
X158965590Y-144798953D01*
X158961187Y-144793743D01*
X158953996Y-144788245D01*
X158822743Y-144687894D01*
X158822739Y-144687891D01*
X158817322Y-144683750D01*
X158711982Y-144634629D01*
X158659369Y-144610095D01*
X158659366Y-144610094D01*
X158653192Y-144607215D01*
X158646544Y-144605729D01*
X158646541Y-144605728D01*
X158519184Y-144577261D01*
X158476457Y-144567710D01*
X158470912Y-144567400D01*
X158337756Y-144567400D01*
X158202963Y-144582043D01*
X158127688Y-144607376D01*
X158056747Y-144610146D01*
X157995568Y-144574123D01*
X157963577Y-144510742D01*
X157961500Y-144487957D01*
X157961500Y-144271131D01*
X157960814Y-144264127D01*
X157951276Y-144166860D01*
X157947080Y-144124067D01*
X157938513Y-144095690D01*
X157916248Y-144021948D01*
X157889916Y-143934731D01*
X157797066Y-143760104D01*
X157699573Y-143640566D01*
X157675960Y-143611613D01*
X157675957Y-143611610D01*
X157672065Y-143606838D01*
X157665724Y-143601592D01*
X157524425Y-143484699D01*
X157524421Y-143484697D01*
X157519675Y-143480770D01*
X157345701Y-143386702D01*
X157156768Y-143328218D01*
X157150643Y-143327574D01*
X157150642Y-143327574D01*
X156966204Y-143308189D01*
X156966202Y-143308189D01*
X156960075Y-143307545D01*
X156889861Y-143313935D01*
X156769251Y-143324911D01*
X156769248Y-143324912D01*
X156763112Y-143325470D01*
X156757206Y-143327208D01*
X156757202Y-143327209D01*
X156652076Y-143358149D01*
X156573381Y-143381310D01*
X156567923Y-143384163D01*
X156567919Y-143384165D01*
X156491094Y-143424329D01*
X156398110Y-143472940D01*
X156243975Y-143596868D01*
X156116846Y-143748374D01*
X156113879Y-143753772D01*
X156113875Y-143753777D01*
X156110397Y-143760104D01*
X156021567Y-143921687D01*
X156019706Y-143927554D01*
X156019705Y-143927556D01*
X155971992Y-144077965D01*
X155961765Y-144110206D01*
X155944500Y-144264127D01*
X155944500Y-149400669D01*
X125682668Y-149400669D01*
X125669974Y-149206906D01*
X125671149Y-149183727D01*
X125670833Y-149183699D01*
X125671267Y-149178859D01*
X125672076Y-149174052D01*
X125672229Y-149161500D01*
X125668273Y-149133876D01*
X125667000Y-149116014D01*
X125667000Y-146986062D01*
X135612993Y-146986062D01*
X135622289Y-146998077D01*
X135673494Y-147033931D01*
X135682989Y-147039414D01*
X135880447Y-147131490D01*
X135890739Y-147135236D01*
X136101188Y-147191625D01*
X136111981Y-147193528D01*
X136329025Y-147212517D01*
X136339975Y-147212517D01*
X136557019Y-147193528D01*
X136567812Y-147191625D01*
X136778261Y-147135236D01*
X136788553Y-147131490D01*
X136986011Y-147039414D01*
X136995506Y-147033931D01*
X137047548Y-146997491D01*
X137055924Y-146987012D01*
X137048856Y-146973566D01*
X136347312Y-146272022D01*
X136333368Y-146264408D01*
X136331535Y-146264539D01*
X136324920Y-146268790D01*
X135619423Y-146974287D01*
X135612993Y-146986062D01*
X125667000Y-146986062D01*
X125667000Y-145905475D01*
X135021983Y-145905475D01*
X135040972Y-146122519D01*
X135042875Y-146133312D01*
X135099264Y-146343761D01*
X135103010Y-146354053D01*
X135195086Y-146551511D01*
X135200569Y-146561006D01*
X135237009Y-146613048D01*
X135247488Y-146621424D01*
X135260934Y-146614356D01*
X135962478Y-145912812D01*
X135968856Y-145901132D01*
X136698908Y-145901132D01*
X136699039Y-145902965D01*
X136703290Y-145909580D01*
X137408787Y-146615077D01*
X137420562Y-146621507D01*
X137432577Y-146612211D01*
X137468431Y-146561006D01*
X137473914Y-146551511D01*
X137555199Y-146377195D01*
X141651301Y-146377195D01*
X141651638Y-146383714D01*
X141661557Y-146479306D01*
X141664449Y-146492700D01*
X141715888Y-146646884D01*
X141722061Y-146660062D01*
X141807363Y-146797907D01*
X141816399Y-146809308D01*
X141931129Y-146923839D01*
X141942540Y-146932851D01*
X142080543Y-147017916D01*
X142093724Y-147024063D01*
X142248010Y-147075238D01*
X142261386Y-147078105D01*
X142355738Y-147087772D01*
X142362154Y-147088100D01*
X142737185Y-147088100D01*
X142752424Y-147083625D01*
X142753629Y-147082235D01*
X142755300Y-147074552D01*
X142755300Y-147069984D01*
X143263300Y-147069984D01*
X143267775Y-147085223D01*
X143269165Y-147086428D01*
X143276848Y-147088099D01*
X143656395Y-147088099D01*
X143662914Y-147087762D01*
X143758506Y-147077843D01*
X143771900Y-147074951D01*
X143926084Y-147023512D01*
X143939262Y-147017339D01*
X144077107Y-146932037D01*
X144088508Y-146923001D01*
X144203039Y-146808271D01*
X144212053Y-146796857D01*
X144298023Y-146657387D01*
X144350795Y-146609893D01*
X144420866Y-146598469D01*
X144485990Y-146626743D01*
X144496449Y-146636526D01*
X144605876Y-146751235D01*
X144790842Y-146888854D01*
X144795593Y-146891270D01*
X144795597Y-146891272D01*
X144851173Y-146919528D01*
X144996351Y-146993340D01*
X145001445Y-146994922D01*
X145001448Y-146994923D01*
X145144732Y-147039414D01*
X145216527Y-147061707D01*
X145221816Y-147062408D01*
X145439789Y-147091298D01*
X145439794Y-147091298D01*
X145445074Y-147091998D01*
X145450403Y-147091798D01*
X145450405Y-147091798D01*
X145560266Y-147087673D01*
X145675458Y-147083349D01*
X145680768Y-147082235D01*
X145831774Y-147050551D01*
X145856348Y-147045395D01*
X149195751Y-147045395D01*
X149196048Y-147050548D01*
X149196048Y-147050551D01*
X149201511Y-147145290D01*
X149208610Y-147268415D01*
X149209747Y-147273461D01*
X149209748Y-147273467D01*
X149229619Y-147361639D01*
X149257722Y-147486339D01*
X149295961Y-147580511D01*
X149329437Y-147662952D01*
X149341766Y-147693316D01*
X149375151Y-147747795D01*
X149447753Y-147866271D01*
X149458487Y-147883788D01*
X149604750Y-148052638D01*
X149776626Y-148195332D01*
X149969500Y-148308038D01*
X149974325Y-148309880D01*
X149974326Y-148309881D01*
X150026429Y-148329777D01*
X150178192Y-148387730D01*
X150183260Y-148388761D01*
X150183263Y-148388762D01*
X150266964Y-148405791D01*
X150397097Y-148432267D01*
X150402272Y-148432457D01*
X150402274Y-148432457D01*
X150615173Y-148440264D01*
X150615177Y-148440264D01*
X150620337Y-148440453D01*
X150625457Y-148439797D01*
X150625459Y-148439797D01*
X150836788Y-148412725D01*
X150836789Y-148412725D01*
X150841916Y-148412068D01*
X150847219Y-148410477D01*
X151050929Y-148349361D01*
X151050934Y-148349359D01*
X151055884Y-148347874D01*
X151256494Y-148249596D01*
X151438360Y-148119873D01*
X151596596Y-147962189D01*
X151601776Y-147954981D01*
X151723935Y-147784977D01*
X151726953Y-147780777D01*
X151740235Y-147753904D01*
X151823636Y-147585153D01*
X151823637Y-147585151D01*
X151825930Y-147580511D01*
X151868736Y-147439620D01*
X151889365Y-147371723D01*
X151889365Y-147371721D01*
X151890870Y-147366769D01*
X151920029Y-147145290D01*
X151921348Y-147091298D01*
X151921574Y-147082065D01*
X151921574Y-147082061D01*
X151921656Y-147078700D01*
X151903352Y-146856061D01*
X151848931Y-146639402D01*
X151759854Y-146434540D01*
X151701126Y-146343761D01*
X151641322Y-146251317D01*
X151641320Y-146251314D01*
X151638514Y-146246977D01*
X151635032Y-146243150D01*
X151491298Y-146085188D01*
X151460246Y-146021342D01*
X151468641Y-145950843D01*
X151513817Y-145896075D01*
X151540261Y-145882406D01*
X151646797Y-145842467D01*
X151655205Y-145839315D01*
X151771761Y-145751961D01*
X151859115Y-145635405D01*
X151910245Y-145499016D01*
X151917000Y-145436834D01*
X151917000Y-143640566D01*
X151910245Y-143578384D01*
X151859115Y-143441995D01*
X151771761Y-143325439D01*
X151655205Y-143238085D01*
X151646796Y-143234933D01*
X151638925Y-143230623D01*
X151639836Y-143228959D01*
X151592010Y-143193037D01*
X151567307Y-143126476D01*
X151567000Y-143117691D01*
X151567000Y-138134995D01*
X152370751Y-138134995D01*
X152371048Y-138140148D01*
X152371048Y-138140151D01*
X152376511Y-138234890D01*
X152383610Y-138358015D01*
X152384747Y-138363061D01*
X152384748Y-138363067D01*
X152392682Y-138398270D01*
X152432722Y-138575939D01*
X152486093Y-138707377D01*
X152499123Y-138739465D01*
X152516766Y-138782916D01*
X152633487Y-138973388D01*
X152779750Y-139142238D01*
X152783730Y-139145542D01*
X152788481Y-139149487D01*
X152828116Y-139208390D01*
X152829613Y-139279371D01*
X152792497Y-139339893D01*
X152752225Y-139364412D01*
X152696395Y-139385342D01*
X152636795Y-139407685D01*
X152520239Y-139495039D01*
X152432885Y-139611595D01*
X152381755Y-139747984D01*
X152375000Y-139810166D01*
X152375000Y-141606434D01*
X152381755Y-141668616D01*
X152432885Y-141805005D01*
X152520239Y-141921561D01*
X152636795Y-142008915D01*
X152773184Y-142060045D01*
X152835366Y-142066800D01*
X154631634Y-142066800D01*
X154693816Y-142060045D01*
X154830205Y-142008915D01*
X154946761Y-141921561D01*
X155034115Y-141805005D01*
X155085245Y-141668616D01*
X155092000Y-141606434D01*
X155092000Y-139810166D01*
X155085245Y-139747984D01*
X155034115Y-139611595D01*
X154946761Y-139495039D01*
X154830205Y-139407685D01*
X154817632Y-139402972D01*
X154711703Y-139363260D01*
X154654939Y-139320618D01*
X154630239Y-139254056D01*
X154645447Y-139184708D01*
X154666993Y-139156027D01*
X154719781Y-139103423D01*
X154771596Y-139051789D01*
X154780310Y-139039663D01*
X154893739Y-138881808D01*
X154901953Y-138870377D01*
X154907492Y-138859171D01*
X154998636Y-138674753D01*
X154998637Y-138674751D01*
X155000930Y-138670111D01*
X155065870Y-138456369D01*
X155095029Y-138234890D01*
X155095258Y-138225515D01*
X155096574Y-138171665D01*
X155096574Y-138171661D01*
X155096656Y-138168300D01*
X155078352Y-137945661D01*
X155023931Y-137729002D01*
X154934854Y-137524140D01*
X154837913Y-137374292D01*
X154816322Y-137340917D01*
X154816320Y-137340914D01*
X154813514Y-137336577D01*
X154663170Y-137171351D01*
X154659119Y-137168152D01*
X154659115Y-137168148D01*
X154491914Y-137036100D01*
X154491910Y-137036098D01*
X154487859Y-137032898D01*
X154292289Y-136924938D01*
X154287420Y-136923214D01*
X154287416Y-136923212D01*
X154086587Y-136852095D01*
X154086583Y-136852094D01*
X154081712Y-136850369D01*
X154076619Y-136849462D01*
X154076616Y-136849461D01*
X153866873Y-136812100D01*
X153866867Y-136812099D01*
X153861784Y-136811194D01*
X153787952Y-136810292D01*
X153643581Y-136808528D01*
X153643579Y-136808528D01*
X153638411Y-136808465D01*
X153417591Y-136842255D01*
X153205256Y-136911657D01*
X153007107Y-137014807D01*
X153002974Y-137017910D01*
X153002971Y-137017912D01*
X152841223Y-137139356D01*
X152828465Y-137148935D01*
X152817929Y-137159960D01*
X152678425Y-137305943D01*
X152674129Y-137310438D01*
X152671215Y-137314710D01*
X152671214Y-137314711D01*
X152622079Y-137386740D01*
X152548243Y-137494980D01*
X152454188Y-137697605D01*
X152394489Y-137912870D01*
X152370751Y-138134995D01*
X151567000Y-138134995D01*
X151567000Y-136005500D01*
X155152996Y-136005500D01*
X155172958Y-136195428D01*
X155231973Y-136377056D01*
X155327460Y-136542444D01*
X155331878Y-136547351D01*
X155331879Y-136547352D01*
X155450825Y-136679455D01*
X155455247Y-136684366D01*
X155609748Y-136796618D01*
X155615776Y-136799302D01*
X155615778Y-136799303D01*
X155730475Y-136850369D01*
X155784212Y-136874294D01*
X155877613Y-136894147D01*
X155964556Y-136912628D01*
X155964561Y-136912628D01*
X155971013Y-136914000D01*
X156161987Y-136914000D01*
X156168439Y-136912628D01*
X156168444Y-136912628D01*
X156255387Y-136894147D01*
X156348788Y-136874294D01*
X156354815Y-136871611D01*
X156354823Y-136871608D01*
X156515873Y-136799904D01*
X156586240Y-136790470D01*
X156626847Y-136804741D01*
X156627228Y-136805018D01*
X156633254Y-136807701D01*
X156785907Y-136875666D01*
X156801692Y-136882694D01*
X156895093Y-136902547D01*
X156982036Y-136921028D01*
X156982041Y-136921028D01*
X156988493Y-136922400D01*
X157179467Y-136922400D01*
X157185919Y-136921028D01*
X157185924Y-136921028D01*
X157272867Y-136902547D01*
X157366268Y-136882694D01*
X157372299Y-136880009D01*
X157534702Y-136807703D01*
X157534704Y-136807702D01*
X157540732Y-136805018D01*
X157695233Y-136692766D01*
X157699655Y-136687855D01*
X157806839Y-136568815D01*
X157867285Y-136531575D01*
X157900475Y-136527125D01*
X163428715Y-136527125D01*
X163496836Y-136547127D01*
X163517810Y-136564030D01*
X167181455Y-140227675D01*
X167215481Y-140289987D01*
X167218360Y-140316770D01*
X167218360Y-144021948D01*
X167218068Y-144030518D01*
X167214834Y-144077965D01*
X167214135Y-144088212D01*
X167215440Y-144095689D01*
X167215440Y-144095690D01*
X167225121Y-144151159D01*
X167226083Y-144157681D01*
X167233758Y-144221102D01*
X167236441Y-144228203D01*
X167237082Y-144230812D01*
X167241545Y-144247122D01*
X167242310Y-144249658D01*
X167243617Y-144257144D01*
X167257346Y-144288418D01*
X167269302Y-144315655D01*
X167271793Y-144321759D01*
X167294373Y-144381516D01*
X167298677Y-144387779D01*
X167299914Y-144390145D01*
X167308159Y-144404957D01*
X167309492Y-144407211D01*
X167312545Y-144414165D01*
X167349293Y-144462054D01*
X167351439Y-144464851D01*
X167355319Y-144470192D01*
X167387199Y-144516580D01*
X167387204Y-144516585D01*
X167391503Y-144522841D01*
X167397173Y-144527892D01*
X167397174Y-144527894D01*
X167438030Y-144564295D01*
X167443306Y-144569276D01*
X168242035Y-145368005D01*
X168276061Y-145430317D01*
X168278250Y-145443928D01*
X168283158Y-145490628D01*
X168285198Y-145496905D01*
X168285198Y-145496907D01*
X168310053Y-145573402D01*
X168342173Y-145672256D01*
X168345476Y-145677978D01*
X168345477Y-145677979D01*
X168369737Y-145719998D01*
X168437660Y-145837644D01*
X168442078Y-145842551D01*
X168442079Y-145842552D01*
X168532791Y-145943298D01*
X168565447Y-145979566D01*
X168664543Y-146051564D01*
X168710823Y-146085188D01*
X168719948Y-146091818D01*
X168725976Y-146094502D01*
X168725978Y-146094503D01*
X168888381Y-146166809D01*
X168894412Y-146169494D01*
X168957821Y-146182972D01*
X169074756Y-146207828D01*
X169074761Y-146207828D01*
X169081213Y-146209200D01*
X169272187Y-146209200D01*
X169278639Y-146207828D01*
X169278644Y-146207828D01*
X169395579Y-146182972D01*
X169458988Y-146169494D01*
X169465019Y-146166809D01*
X169627422Y-146094503D01*
X169627424Y-146094502D01*
X169633452Y-146091818D01*
X169642578Y-146085188D01*
X169688857Y-146051564D01*
X169787953Y-145979566D01*
X169820609Y-145943298D01*
X169911321Y-145842552D01*
X169911322Y-145842551D01*
X169915740Y-145837644D01*
X169983663Y-145719998D01*
X170007923Y-145677979D01*
X170007924Y-145677978D01*
X170011227Y-145672256D01*
X170070242Y-145490628D01*
X170073857Y-145456239D01*
X170089514Y-145307265D01*
X170090204Y-145300700D01*
X170089514Y-145294135D01*
X170089514Y-145287530D01*
X170092279Y-145287530D01*
X170102868Y-145229695D01*
X170141333Y-145184450D01*
X170153743Y-145175434D01*
X170207984Y-145136025D01*
X170265209Y-145094449D01*
X170265211Y-145094447D01*
X170270553Y-145090566D01*
X170398340Y-144948644D01*
X170493827Y-144783256D01*
X170552842Y-144601628D01*
X170554901Y-144582043D01*
X170572114Y-144418265D01*
X170572804Y-144411700D01*
X170572114Y-144405135D01*
X170572114Y-144404676D01*
X170592116Y-144336555D01*
X170638871Y-144296435D01*
X170637700Y-144294406D01*
X170643420Y-144291103D01*
X170649452Y-144288418D01*
X170668565Y-144274532D01*
X170721102Y-144236361D01*
X170803953Y-144176166D01*
X170812332Y-144166860D01*
X170927321Y-144039152D01*
X170927322Y-144039151D01*
X170931740Y-144034244D01*
X171027227Y-143868856D01*
X171086242Y-143687228D01*
X171091504Y-143637169D01*
X171105514Y-143503865D01*
X171106204Y-143497300D01*
X171088896Y-143332619D01*
X171086932Y-143313935D01*
X171086932Y-143313933D01*
X171086242Y-143307372D01*
X171065240Y-143242735D01*
X171063212Y-143171769D01*
X171099874Y-143110971D01*
X171163586Y-143079646D01*
X171185073Y-143077800D01*
X171598834Y-143077800D01*
X171661016Y-143071045D01*
X171797405Y-143019915D01*
X171913961Y-142932561D01*
X172001315Y-142816005D01*
X172023499Y-142756829D01*
X172045298Y-142698682D01*
X172087940Y-142641918D01*
X172154502Y-142617218D01*
X172223850Y-142632426D01*
X172258517Y-142660414D01*
X172286950Y-142693238D01*
X172458826Y-142835932D01*
X172651700Y-142948638D01*
X172860392Y-143028330D01*
X172865460Y-143029361D01*
X172865463Y-143029362D01*
X172972717Y-143051183D01*
X173079297Y-143072867D01*
X173084472Y-143073057D01*
X173084474Y-143073057D01*
X173297373Y-143080864D01*
X173297377Y-143080864D01*
X173302537Y-143081053D01*
X173307657Y-143080397D01*
X173307659Y-143080397D01*
X173518988Y-143053325D01*
X173518989Y-143053325D01*
X173524116Y-143052668D01*
X173529066Y-143051183D01*
X173733129Y-142989961D01*
X173733134Y-142989959D01*
X173738084Y-142988474D01*
X173938694Y-142890196D01*
X174120560Y-142760473D01*
X174278796Y-142602789D01*
X174409153Y-142421377D01*
X174487501Y-142262852D01*
X174505836Y-142225753D01*
X174505837Y-142225751D01*
X174508130Y-142221111D01*
X174573070Y-142007369D01*
X174602229Y-141785890D01*
X174602311Y-141782540D01*
X174603774Y-141722665D01*
X174603774Y-141722661D01*
X174603856Y-141719300D01*
X174585552Y-141496661D01*
X174531131Y-141280002D01*
X174442054Y-141075140D01*
X174320714Y-140887577D01*
X174170370Y-140722351D01*
X174166319Y-140719152D01*
X174166315Y-140719148D01*
X173999114Y-140587100D01*
X173999110Y-140587098D01*
X173995059Y-140583898D01*
X173799489Y-140475938D01*
X173794620Y-140474214D01*
X173794616Y-140474212D01*
X173593787Y-140403095D01*
X173593783Y-140403094D01*
X173588912Y-140401369D01*
X173583819Y-140400462D01*
X173583816Y-140400461D01*
X173374073Y-140363100D01*
X173374067Y-140363099D01*
X173368984Y-140362194D01*
X173295152Y-140361292D01*
X173150781Y-140359528D01*
X173150779Y-140359528D01*
X173145611Y-140359465D01*
X172924791Y-140393255D01*
X172712456Y-140462657D01*
X172514307Y-140565807D01*
X172510174Y-140568910D01*
X172510171Y-140568912D01*
X172339800Y-140696830D01*
X172335665Y-140699935D01*
X172268126Y-140770611D01*
X172254983Y-140784364D01*
X172193459Y-140819794D01*
X172122546Y-140816337D01*
X172064760Y-140775091D01*
X172045907Y-140741543D01*
X172004467Y-140631003D01*
X172001315Y-140622595D01*
X171913961Y-140506039D01*
X171797405Y-140418685D01*
X171661016Y-140367555D01*
X171598834Y-140360800D01*
X169960400Y-140360800D01*
X169892279Y-140340798D01*
X169845786Y-140287142D01*
X169834400Y-140234800D01*
X169834400Y-139281812D01*
X169834692Y-139273242D01*
X169838109Y-139223124D01*
X169838109Y-139223120D01*
X169838625Y-139215548D01*
X169827639Y-139152603D01*
X169826677Y-139146082D01*
X169819915Y-139090204D01*
X169819002Y-139082658D01*
X169816316Y-139075550D01*
X169815679Y-139072956D01*
X169811218Y-139056650D01*
X169810448Y-139054099D01*
X169809142Y-139046616D01*
X169783461Y-138988112D01*
X169780969Y-138982005D01*
X169761073Y-138929352D01*
X169761073Y-138929351D01*
X169758387Y-138922244D01*
X169754084Y-138915983D01*
X169752847Y-138913617D01*
X169744620Y-138898837D01*
X169743269Y-138896552D01*
X169740215Y-138889595D01*
X169735595Y-138883575D01*
X169735592Y-138883569D01*
X169701321Y-138838909D01*
X169697441Y-138833568D01*
X169665561Y-138787180D01*
X169665556Y-138787175D01*
X169661257Y-138780919D01*
X169614729Y-138739464D01*
X169609454Y-138734484D01*
X162471165Y-131596195D01*
X162437139Y-131533883D01*
X162434950Y-131520270D01*
X162430732Y-131480137D01*
X162430732Y-131480135D01*
X162430042Y-131473572D01*
X162371027Y-131291944D01*
X162367288Y-131285467D01*
X162306384Y-131179979D01*
X162275540Y-131126556D01*
X162189680Y-131031198D01*
X162152175Y-130989545D01*
X162152174Y-130989544D01*
X162147753Y-130984634D01*
X162024460Y-130895056D01*
X161998594Y-130876263D01*
X161998593Y-130876262D01*
X161993252Y-130872382D01*
X161987224Y-130869698D01*
X161987222Y-130869697D01*
X161824819Y-130797391D01*
X161824818Y-130797391D01*
X161818788Y-130794706D01*
X161725387Y-130774853D01*
X161638444Y-130756372D01*
X161638439Y-130756372D01*
X161631987Y-130755000D01*
X161441013Y-130755000D01*
X161434561Y-130756372D01*
X161434556Y-130756372D01*
X161347613Y-130774853D01*
X161254212Y-130794706D01*
X161248182Y-130797391D01*
X161248181Y-130797391D01*
X161085778Y-130869697D01*
X161085776Y-130869698D01*
X161079748Y-130872382D01*
X161074407Y-130876262D01*
X161074406Y-130876263D01*
X161048540Y-130895056D01*
X160925247Y-130984634D01*
X160920826Y-130989544D01*
X160920825Y-130989545D01*
X160883321Y-131031198D01*
X160797460Y-131126556D01*
X160766616Y-131179979D01*
X160705713Y-131285467D01*
X160701973Y-131291944D01*
X160642958Y-131473572D01*
X160622996Y-131663500D01*
X160642958Y-131853428D01*
X160701973Y-132035056D01*
X160797460Y-132200444D01*
X160801878Y-132205351D01*
X160801879Y-132205352D01*
X160880144Y-132292274D01*
X160925247Y-132342366D01*
X161002882Y-132398771D01*
X161068191Y-132446221D01*
X161079748Y-132454618D01*
X161085776Y-132457302D01*
X161085778Y-132457303D01*
X161087858Y-132458229D01*
X161254212Y-132532294D01*
X161388735Y-132560888D01*
X161407069Y-132564785D01*
X161469967Y-132598937D01*
X163161824Y-134290794D01*
X163195850Y-134353106D01*
X163190785Y-134423921D01*
X163148238Y-134480757D01*
X163081718Y-134505568D01*
X163072729Y-134505889D01*
X156781723Y-134505889D01*
X156773153Y-134505597D01*
X156723035Y-134502180D01*
X156723031Y-134502180D01*
X156715459Y-134501664D01*
X156707982Y-134502969D01*
X156707981Y-134502969D01*
X156693090Y-134505568D01*
X156652514Y-134512650D01*
X156645997Y-134513611D01*
X156582569Y-134521287D01*
X156575461Y-134523973D01*
X156572867Y-134524610D01*
X156556561Y-134529071D01*
X156554010Y-134529841D01*
X156546527Y-134531147D01*
X156539575Y-134534199D01*
X156539574Y-134534199D01*
X156488023Y-134556828D01*
X156481916Y-134559320D01*
X156429263Y-134579216D01*
X156422155Y-134581902D01*
X156415894Y-134586205D01*
X156413528Y-134587442D01*
X156398748Y-134595669D01*
X156396463Y-134597020D01*
X156389506Y-134600074D01*
X156383486Y-134604694D01*
X156383480Y-134604697D01*
X156369826Y-134615175D01*
X156338809Y-134638976D01*
X156333479Y-134642848D01*
X156287091Y-134674728D01*
X156287086Y-134674733D01*
X156280830Y-134679032D01*
X156275779Y-134684702D01*
X156275777Y-134684703D01*
X156239376Y-134725559D01*
X156234395Y-134730835D01*
X155866877Y-135098353D01*
X155803977Y-135132505D01*
X155798918Y-135133580D01*
X155790666Y-135135334D01*
X155790664Y-135135335D01*
X155784212Y-135136706D01*
X155778185Y-135139389D01*
X155778186Y-135139389D01*
X155615778Y-135211697D01*
X155615776Y-135211698D01*
X155609748Y-135214382D01*
X155455247Y-135326634D01*
X155327460Y-135468556D01*
X155231973Y-135633944D01*
X155172958Y-135815572D01*
X155152996Y-136005500D01*
X151567000Y-136005500D01*
X151567000Y-131701425D01*
X151587002Y-131633304D01*
X151603905Y-131612330D01*
X154147329Y-129068905D01*
X154209641Y-129034880D01*
X154236424Y-129032000D01*
X159081340Y-129032000D01*
X159149461Y-129052002D01*
X159195954Y-129105658D01*
X159206058Y-129175932D01*
X159176564Y-129240512D01*
X159170435Y-129247095D01*
X158485980Y-129931550D01*
X158479715Y-129937404D01*
X158436115Y-129975439D01*
X158417043Y-130002576D01*
X158399372Y-130027719D01*
X158395439Y-130033014D01*
X158356024Y-130083282D01*
X158352901Y-130090198D01*
X158351517Y-130092484D01*
X158343143Y-130107165D01*
X158341878Y-130109525D01*
X158337510Y-130115739D01*
X158334750Y-130122818D01*
X158334749Y-130122820D01*
X158314298Y-130175275D01*
X158311747Y-130181344D01*
X158285455Y-130239573D01*
X158284071Y-130247040D01*
X158283270Y-130249595D01*
X158278641Y-130265848D01*
X158277978Y-130268428D01*
X158275218Y-130275509D01*
X158268401Y-130327294D01*
X158266879Y-130338852D01*
X158265848Y-130345359D01*
X158254204Y-130408186D01*
X158254641Y-130415766D01*
X158254641Y-130415767D01*
X158257791Y-130470392D01*
X158258000Y-130477646D01*
X158258000Y-131414756D01*
X158237998Y-131482877D01*
X158233936Y-131488817D01*
X158231879Y-131491648D01*
X158227460Y-131496556D01*
X158224159Y-131502274D01*
X158224158Y-131502275D01*
X158139311Y-131649235D01*
X158131973Y-131661944D01*
X158072958Y-131843572D01*
X158052996Y-132033500D01*
X158053686Y-132040065D01*
X158064677Y-132144634D01*
X158072958Y-132223428D01*
X158131973Y-132405056D01*
X158135276Y-132410778D01*
X158135277Y-132410779D01*
X158169186Y-132469510D01*
X158227460Y-132570444D01*
X158231878Y-132575351D01*
X158231879Y-132575352D01*
X158312295Y-132664663D01*
X158355247Y-132712366D01*
X158509748Y-132824618D01*
X158515776Y-132827302D01*
X158515778Y-132827303D01*
X158585774Y-132858467D01*
X158684212Y-132902294D01*
X158777613Y-132922147D01*
X158864556Y-132940628D01*
X158864561Y-132940628D01*
X158871013Y-132942000D01*
X159061987Y-132942000D01*
X159068439Y-132940628D01*
X159068444Y-132940628D01*
X159155387Y-132922147D01*
X159248788Y-132902294D01*
X159347226Y-132858467D01*
X159417222Y-132827303D01*
X159417224Y-132827302D01*
X159423252Y-132824618D01*
X159577753Y-132712366D01*
X159620705Y-132664663D01*
X159701121Y-132575352D01*
X159701122Y-132575351D01*
X159705540Y-132570444D01*
X159763814Y-132469510D01*
X159797723Y-132410779D01*
X159797724Y-132410778D01*
X159801027Y-132405056D01*
X159860042Y-132223428D01*
X159868324Y-132144634D01*
X159879314Y-132040065D01*
X159880004Y-132033500D01*
X159860042Y-131843572D01*
X159801027Y-131661944D01*
X159793690Y-131649235D01*
X159708842Y-131502275D01*
X159708841Y-131502274D01*
X159705540Y-131496556D01*
X159701121Y-131491648D01*
X159699064Y-131488817D01*
X159675205Y-131421949D01*
X159675000Y-131414756D01*
X159675000Y-130798660D01*
X159695002Y-130730539D01*
X159711905Y-130709565D01*
X160363033Y-130058437D01*
X160425931Y-130024285D01*
X160442089Y-130020850D01*
X160578788Y-129991794D01*
X160590553Y-129986556D01*
X160747222Y-129916803D01*
X160747224Y-129916802D01*
X160753252Y-129914118D01*
X160770540Y-129901558D01*
X160848888Y-129844634D01*
X160907753Y-129801866D01*
X160932791Y-129774059D01*
X161031121Y-129664852D01*
X161031122Y-129664851D01*
X161035540Y-129659944D01*
X161131027Y-129494556D01*
X161190042Y-129312928D01*
X161204441Y-129175932D01*
X161207710Y-129144829D01*
X161234723Y-129079173D01*
X161292945Y-129038543D01*
X161333020Y-129032000D01*
X165092000Y-129032000D01*
X165160121Y-129052002D01*
X165206614Y-129105658D01*
X165218000Y-129158000D01*
X165218000Y-132509657D01*
X165217263Y-132523264D01*
X165213176Y-132560888D01*
X165215473Y-132587138D01*
X165217550Y-132610888D01*
X165217879Y-132615714D01*
X165218000Y-132618186D01*
X165218000Y-132621269D01*
X165218301Y-132624337D01*
X165222190Y-132664006D01*
X165222312Y-132665319D01*
X165230413Y-132757913D01*
X165231900Y-132763032D01*
X165232420Y-132768333D01*
X165259291Y-132857334D01*
X165259626Y-132858467D01*
X165283497Y-132940628D01*
X165285591Y-132947836D01*
X165288044Y-132952568D01*
X165289584Y-132957669D01*
X165292478Y-132963112D01*
X165333231Y-133039760D01*
X165333843Y-133040926D01*
X165376608Y-133123426D01*
X165379931Y-133127589D01*
X165382434Y-133132296D01*
X165441255Y-133204418D01*
X165441946Y-133205274D01*
X165473238Y-133244473D01*
X165475742Y-133246977D01*
X165476384Y-133247695D01*
X165480085Y-133252028D01*
X165507435Y-133285562D01*
X165512182Y-133289489D01*
X165512184Y-133289491D01*
X165542762Y-133314787D01*
X165551542Y-133322777D01*
X166946645Y-134717879D01*
X166955747Y-134728022D01*
X166979468Y-134757525D01*
X167017956Y-134789820D01*
X167021575Y-134792978D01*
X167023390Y-134794624D01*
X167025575Y-134796809D01*
X167027955Y-134798764D01*
X167027965Y-134798773D01*
X167058736Y-134824049D01*
X167059751Y-134824891D01*
X167130974Y-134884654D01*
X167135648Y-134887223D01*
X167139761Y-134890602D01*
X167145198Y-134893517D01*
X167145199Y-134893518D01*
X167221547Y-134934455D01*
X167222677Y-134935068D01*
X167304287Y-134979933D01*
X167309369Y-134981545D01*
X167314063Y-134984062D01*
X167403031Y-135011262D01*
X167404059Y-135011582D01*
X167492806Y-135039735D01*
X167498102Y-135040329D01*
X167503198Y-135041887D01*
X167595757Y-135051290D01*
X167596893Y-135051411D01*
X167630508Y-135055181D01*
X167643230Y-135056608D01*
X167643234Y-135056608D01*
X167646727Y-135057000D01*
X167650254Y-135057000D01*
X167651239Y-135057055D01*
X167656919Y-135057502D01*
X167686325Y-135060489D01*
X167693837Y-135061252D01*
X167693839Y-135061252D01*
X167699962Y-135061874D01*
X167745608Y-135057559D01*
X167757467Y-135057000D01*
X168769269Y-135057000D01*
X168772325Y-135056700D01*
X168772332Y-135056700D01*
X168830840Y-135050963D01*
X168916333Y-135042580D01*
X168922234Y-135040798D01*
X168922236Y-135040798D01*
X169019536Y-135011421D01*
X169105669Y-134985416D01*
X169280296Y-134892566D01*
X169366562Y-134822209D01*
X169428787Y-134771460D01*
X169428790Y-134771457D01*
X169433562Y-134767565D01*
X169466275Y-134728022D01*
X169555701Y-134619925D01*
X169555703Y-134619921D01*
X169559630Y-134615175D01*
X169653698Y-134441201D01*
X169712182Y-134252268D01*
X169732855Y-134055575D01*
X169714930Y-133858612D01*
X169713909Y-133855144D01*
X169720710Y-133785359D01*
X169764706Y-133729637D01*
X169811396Y-133709169D01*
X169837880Y-133703540D01*
X169884330Y-133693667D01*
X169884333Y-133693666D01*
X169890788Y-133692294D01*
X169896819Y-133689609D01*
X170059222Y-133617303D01*
X170059224Y-133617302D01*
X170065252Y-133614618D01*
X170219753Y-133502366D01*
X170347540Y-133360444D01*
X170443027Y-133195056D01*
X170461062Y-133139550D01*
X170491800Y-133089392D01*
X172225667Y-131355525D01*
X172287979Y-131321499D01*
X172314762Y-131318620D01*
X190361954Y-131318620D01*
X190413203Y-131329513D01*
X190554212Y-131392294D01*
X190647612Y-131412147D01*
X190734556Y-131430628D01*
X190734561Y-131430628D01*
X190741013Y-131432000D01*
X190931987Y-131432000D01*
X190938439Y-131430628D01*
X190938444Y-131430628D01*
X191025388Y-131412147D01*
X191118788Y-131392294D01*
X191201373Y-131355525D01*
X191287222Y-131317303D01*
X191287224Y-131317302D01*
X191293252Y-131314618D01*
X191315810Y-131298229D01*
X191349696Y-131273609D01*
X191447753Y-131202366D01*
X191516013Y-131126556D01*
X191571121Y-131065352D01*
X191571122Y-131065351D01*
X191575540Y-131060444D01*
X191671027Y-130895056D01*
X191730042Y-130713428D01*
X191735275Y-130663644D01*
X191749314Y-130530065D01*
X191750004Y-130523500D01*
X191737884Y-130408186D01*
X191730732Y-130340135D01*
X191730732Y-130340133D01*
X191730042Y-130333572D01*
X191671027Y-130151944D01*
X191575540Y-129986556D01*
X191561036Y-129970447D01*
X191452175Y-129849545D01*
X191452174Y-129849544D01*
X191447753Y-129844634D01*
X191314322Y-129747690D01*
X191298594Y-129736263D01*
X191298593Y-129736262D01*
X191293252Y-129732382D01*
X191287224Y-129729698D01*
X191287222Y-129729697D01*
X191124819Y-129657391D01*
X191124818Y-129657391D01*
X191118788Y-129654706D01*
X191025387Y-129634853D01*
X190938444Y-129616372D01*
X190938439Y-129616372D01*
X190931987Y-129615000D01*
X190741013Y-129615000D01*
X190734561Y-129616372D01*
X190734556Y-129616372D01*
X190647613Y-129634853D01*
X190554212Y-129654706D01*
X190548182Y-129657391D01*
X190548181Y-129657391D01*
X190473307Y-129690727D01*
X190422058Y-129701620D01*
X171936844Y-129701620D01*
X171935525Y-129701613D01*
X171845459Y-129700670D01*
X171838573Y-129702159D01*
X171838571Y-129702159D01*
X171819993Y-129706176D01*
X171803094Y-129709830D01*
X171790515Y-129711890D01*
X171754421Y-129715938D01*
X171754418Y-129715939D01*
X171747425Y-129716723D01*
X171715748Y-129727754D01*
X171700938Y-129731916D01*
X171675058Y-129737511D01*
X171675054Y-129737512D01*
X171668169Y-129739001D01*
X171661785Y-129741978D01*
X171661779Y-129741980D01*
X171628873Y-129757324D01*
X171617064Y-129762119D01*
X171576128Y-129776375D01*
X171570156Y-129780107D01*
X171570149Y-129780110D01*
X171547685Y-129794147D01*
X171534168Y-129801486D01*
X171510161Y-129812681D01*
X171510157Y-129812683D01*
X171503778Y-129815658D01*
X171475864Y-129837310D01*
X171469524Y-129842228D01*
X171459075Y-129849517D01*
X171422304Y-129872494D01*
X171417305Y-129877459D01*
X171417303Y-129877460D01*
X171393495Y-129901103D01*
X171392872Y-129901686D01*
X171392210Y-129902199D01*
X171366362Y-129928047D01*
X171302169Y-129991794D01*
X171293598Y-130000305D01*
X171292939Y-130001343D01*
X171291833Y-130002576D01*
X169366512Y-131927897D01*
X169325472Y-131953043D01*
X169326212Y-131954706D01*
X169157778Y-132029697D01*
X169157776Y-132029698D01*
X169151748Y-132032382D01*
X169146407Y-132036262D01*
X169146406Y-132036263D01*
X169096343Y-132072636D01*
X168997247Y-132144634D01*
X168992826Y-132149544D01*
X168992825Y-132149545D01*
X168926301Y-132223428D01*
X168869460Y-132286556D01*
X168837238Y-132342366D01*
X168804673Y-132398771D01*
X168773973Y-132451944D01*
X168714958Y-132633572D01*
X168714268Y-132640133D01*
X168714268Y-132640135D01*
X168706268Y-132716249D01*
X168694996Y-132823500D01*
X168702996Y-132899609D01*
X168703124Y-132900829D01*
X168690352Y-132970667D01*
X168641850Y-133022514D01*
X168577814Y-133040000D01*
X168173424Y-133040000D01*
X168105303Y-133019998D01*
X168084329Y-133003095D01*
X167271905Y-132190671D01*
X167237879Y-132128359D01*
X167235000Y-132101576D01*
X167235000Y-129158000D01*
X167255002Y-129089879D01*
X167308658Y-129043386D01*
X167361000Y-129032000D01*
X189018777Y-129032000D01*
X189032384Y-129032737D01*
X189063882Y-129036159D01*
X189063887Y-129036159D01*
X189070008Y-129036824D01*
X189096258Y-129034527D01*
X189120008Y-129032450D01*
X189124834Y-129032121D01*
X189127306Y-129032000D01*
X189130389Y-129032000D01*
X189142358Y-129030826D01*
X189173126Y-129027810D01*
X189174439Y-129027688D01*
X189218704Y-129023815D01*
X189267033Y-129019587D01*
X189272152Y-129018100D01*
X189277453Y-129017580D01*
X189366454Y-128990709D01*
X189367587Y-128990374D01*
X189451034Y-128966130D01*
X189451038Y-128966128D01*
X189456956Y-128964409D01*
X189461688Y-128961956D01*
X189466789Y-128960416D01*
X189472232Y-128957522D01*
X189548880Y-128916769D01*
X189550046Y-128916157D01*
X189627073Y-128876229D01*
X189632546Y-128873392D01*
X189636709Y-128870069D01*
X189641416Y-128867566D01*
X189713538Y-128808745D01*
X189714394Y-128808054D01*
X189753593Y-128776762D01*
X189756097Y-128774258D01*
X189756815Y-128773616D01*
X189761148Y-128769915D01*
X189794682Y-128742565D01*
X189823908Y-128707237D01*
X189831897Y-128698458D01*
X191096523Y-127433831D01*
X191096530Y-127433825D01*
X191096533Y-127433822D01*
X192401279Y-126129075D01*
X192411422Y-126119973D01*
X192436118Y-126100117D01*
X192440925Y-126096252D01*
X192472972Y-126058060D01*
X192480387Y-126049968D01*
X193343870Y-125186484D01*
X193353330Y-125177936D01*
X193355886Y-125175851D01*
X193385762Y-125151485D01*
X193389687Y-125146741D01*
X193417878Y-125112664D01*
X193419096Y-125111258D01*
X193420009Y-125110345D01*
X193449880Y-125073980D01*
X193511830Y-124999095D01*
X193512675Y-124997532D01*
X193513803Y-124996159D01*
X193559620Y-124910709D01*
X193605898Y-124825121D01*
X193606425Y-124823417D01*
X193607262Y-124821857D01*
X193635587Y-124729214D01*
X193635716Y-124728796D01*
X193662636Y-124641828D01*
X193664382Y-124636188D01*
X193664567Y-124634425D01*
X193665088Y-124632722D01*
X193674922Y-124535903D01*
X193685055Y-124439495D01*
X193684894Y-124437728D01*
X193685074Y-124435958D01*
X193675928Y-124339204D01*
X193667130Y-124242532D01*
X193666628Y-124240827D01*
X193666461Y-124239058D01*
X193664777Y-124233409D01*
X193664776Y-124233404D01*
X193638764Y-124146148D01*
X193638639Y-124145727D01*
X193630676Y-124118671D01*
X193611290Y-124052801D01*
X193610466Y-124051225D01*
X193609959Y-124049524D01*
X193564664Y-123963614D01*
X193519660Y-123877530D01*
X193518548Y-123876146D01*
X193517718Y-123874573D01*
X193498482Y-123850818D01*
X193456592Y-123799089D01*
X193456316Y-123798746D01*
X193399444Y-123728011D01*
X193399441Y-123728008D01*
X193395732Y-123723395D01*
X193394369Y-123722252D01*
X193393253Y-123720873D01*
X193318925Y-123658945D01*
X193318588Y-123658663D01*
X193248744Y-123600057D01*
X193244226Y-123596266D01*
X193242665Y-123595408D01*
X193241304Y-123594274D01*
X193236137Y-123591457D01*
X193236133Y-123591454D01*
X193156181Y-123547862D01*
X193156037Y-123547783D01*
X193070913Y-123500987D01*
X193069224Y-123500451D01*
X193067659Y-123499598D01*
X193062048Y-123497840D01*
X193062044Y-123497838D01*
X193002543Y-123479192D01*
X192974855Y-123470516D01*
X192974652Y-123470451D01*
X192882394Y-123441185D01*
X192880630Y-123440987D01*
X192878932Y-123440455D01*
X192782460Y-123429975D01*
X192782245Y-123429951D01*
X192757173Y-123427139D01*
X192731970Y-123424312D01*
X192731966Y-123424312D01*
X192728473Y-123423920D01*
X192727171Y-123423920D01*
X192725319Y-123423768D01*
X192706200Y-123421691D01*
X192688436Y-123419761D01*
X192688433Y-123419761D01*
X192682312Y-123419096D01*
X192634545Y-123423275D01*
X192632647Y-123423441D01*
X192621666Y-123423920D01*
X191893369Y-123423920D01*
X191880636Y-123423275D01*
X191835704Y-123418711D01*
X191835440Y-123418684D01*
X191738975Y-123408545D01*
X191737208Y-123408706D01*
X191735438Y-123408526D01*
X191729556Y-123409082D01*
X191729555Y-123409082D01*
X191638722Y-123417668D01*
X191638285Y-123417708D01*
X191593169Y-123421814D01*
X191542012Y-123426470D01*
X191540307Y-123426972D01*
X191538538Y-123427139D01*
X191532889Y-123428823D01*
X191532884Y-123428824D01*
X191445628Y-123454836D01*
X191445207Y-123454961D01*
X191352281Y-123482310D01*
X191350705Y-123483134D01*
X191349004Y-123483641D01*
X191263152Y-123528906D01*
X191177010Y-123573940D01*
X191175625Y-123575054D01*
X191174054Y-123575882D01*
X191169472Y-123579592D01*
X191169468Y-123579595D01*
X191098818Y-123636807D01*
X191098476Y-123637083D01*
X191027491Y-123694156D01*
X191027488Y-123694159D01*
X191022875Y-123697868D01*
X191021732Y-123699231D01*
X191020353Y-123700347D01*
X191016563Y-123704896D01*
X190958425Y-123774675D01*
X190958143Y-123775012D01*
X190895746Y-123849374D01*
X190894888Y-123850935D01*
X190893754Y-123852296D01*
X190890937Y-123857463D01*
X190890934Y-123857467D01*
X190850345Y-123931912D01*
X190847275Y-123937542D01*
X190800467Y-124022687D01*
X190799931Y-124024376D01*
X190799078Y-124025941D01*
X190797320Y-124031552D01*
X190797318Y-124031556D01*
X190781464Y-124082148D01*
X190769974Y-124118814D01*
X190740665Y-124211206D01*
X190740467Y-124212970D01*
X190739935Y-124214668D01*
X190729441Y-124311266D01*
X190723400Y-124365127D01*
X190723400Y-124366429D01*
X190723248Y-124368281D01*
X190718576Y-124411288D01*
X190719113Y-124417423D01*
X190722921Y-124460953D01*
X190723400Y-124471934D01*
X190723400Y-124902294D01*
X190703398Y-124970415D01*
X190686496Y-124991389D01*
X190218238Y-125459648D01*
X189750592Y-125927294D01*
X189750587Y-125927298D01*
X188699790Y-126978096D01*
X188637479Y-127012120D01*
X188610696Y-127015000D01*
X166408350Y-127015000D01*
X166394742Y-127014263D01*
X166394162Y-127014200D01*
X166357112Y-127010175D01*
X166307428Y-127014522D01*
X166296468Y-127015000D01*
X153828342Y-127015000D01*
X153814735Y-127014263D01*
X153783237Y-127010841D01*
X153783232Y-127010841D01*
X153777111Y-127010176D01*
X153759111Y-127011751D01*
X153727109Y-127014550D01*
X153722284Y-127014879D01*
X153719813Y-127015000D01*
X153716731Y-127015000D01*
X153694263Y-127017203D01*
X153673989Y-127019191D01*
X153672674Y-127019313D01*
X153640413Y-127022136D01*
X153580087Y-127027413D01*
X153574968Y-127028900D01*
X153569667Y-127029420D01*
X153480666Y-127056291D01*
X153479533Y-127056626D01*
X153396086Y-127080870D01*
X153396082Y-127080872D01*
X153390164Y-127082591D01*
X153385432Y-127085044D01*
X153380331Y-127086584D01*
X153374888Y-127089478D01*
X153298240Y-127130231D01*
X153297074Y-127130843D01*
X153220047Y-127170771D01*
X153214574Y-127173608D01*
X153210411Y-127176931D01*
X153205704Y-127179434D01*
X153133582Y-127238255D01*
X153132726Y-127238946D01*
X153093527Y-127270238D01*
X153091023Y-127272742D01*
X153090305Y-127273384D01*
X153085972Y-127277085D01*
X153052438Y-127304435D01*
X153048511Y-127309182D01*
X153048509Y-127309184D01*
X153023213Y-127339762D01*
X153015223Y-127348542D01*
X149889121Y-130474645D01*
X149878978Y-130483747D01*
X149849475Y-130507468D01*
X149845508Y-130512196D01*
X149817209Y-130545921D01*
X149814028Y-130549569D01*
X149812385Y-130551381D01*
X149810191Y-130553575D01*
X149782858Y-130586849D01*
X149782196Y-130587647D01*
X149722346Y-130658974D01*
X149719778Y-130663644D01*
X149716397Y-130667761D01*
X149695430Y-130706865D01*
X149672523Y-130749586D01*
X149671894Y-130750745D01*
X149630038Y-130826881D01*
X149630035Y-130826889D01*
X149627067Y-130832287D01*
X149625455Y-130837369D01*
X149622938Y-130842063D01*
X149595738Y-130931031D01*
X149595418Y-130932059D01*
X149567265Y-131020806D01*
X149566671Y-131026102D01*
X149565113Y-131031198D01*
X149564490Y-131037334D01*
X149555718Y-131123687D01*
X149555589Y-131124893D01*
X149550000Y-131174727D01*
X149550000Y-131178254D01*
X149549945Y-131179239D01*
X149549498Y-131184919D01*
X149545126Y-131227962D01*
X149545706Y-131234093D01*
X149549441Y-131273609D01*
X149550000Y-131285467D01*
X149550000Y-143117691D01*
X149529998Y-143185812D01*
X149476342Y-143232305D01*
X149470806Y-143234603D01*
X149470204Y-143234932D01*
X149461795Y-143238085D01*
X149345239Y-143325439D01*
X149257885Y-143441995D01*
X149206755Y-143578384D01*
X149200000Y-143640566D01*
X149200000Y-145436834D01*
X149206755Y-145499016D01*
X149257885Y-145635405D01*
X149345239Y-145751961D01*
X149461795Y-145839315D01*
X149470204Y-145842467D01*
X149470205Y-145842468D01*
X149578951Y-145883235D01*
X149635716Y-145925876D01*
X149660416Y-145992438D01*
X149645209Y-146061787D01*
X149625816Y-146088268D01*
X149619858Y-146094503D01*
X149510251Y-146209200D01*
X149499129Y-146220838D01*
X149496215Y-146225110D01*
X149496214Y-146225111D01*
X149443774Y-146301986D01*
X149373243Y-146405380D01*
X149357503Y-146439290D01*
X149305412Y-146551511D01*
X149279188Y-146608005D01*
X149219489Y-146823270D01*
X149195751Y-147045395D01*
X145856348Y-147045395D01*
X145901091Y-147036007D01*
X145906050Y-147034049D01*
X145906052Y-147034048D01*
X146110556Y-146953285D01*
X146110558Y-146953284D01*
X146115521Y-146951324D01*
X146214484Y-146891272D01*
X146308057Y-146834490D01*
X146308056Y-146834490D01*
X146312617Y-146831723D01*
X146393110Y-146761875D01*
X146482712Y-146684123D01*
X146482714Y-146684121D01*
X146486745Y-146680623D01*
X146535285Y-146621424D01*
X146629540Y-146506473D01*
X146629544Y-146506467D01*
X146632924Y-146502345D01*
X146635973Y-146496990D01*
X146744332Y-146306629D01*
X146746975Y-146301986D01*
X146825637Y-146085275D01*
X146826587Y-146080023D01*
X146865923Y-145862492D01*
X146865924Y-145862485D01*
X146866661Y-145858408D01*
X146867800Y-145834256D01*
X146867800Y-145372210D01*
X146856740Y-145241866D01*
X146853671Y-145205691D01*
X146853670Y-145205687D01*
X146853220Y-145200380D01*
X146851882Y-145195225D01*
X146851881Y-145195219D01*
X146796643Y-144982397D01*
X146796642Y-144982393D01*
X146795301Y-144977228D01*
X146777678Y-144938105D01*
X146714996Y-144798957D01*
X146700612Y-144767025D01*
X146571859Y-144575781D01*
X146567667Y-144571386D01*
X146466037Y-144464851D01*
X146412724Y-144408965D01*
X146227758Y-144271346D01*
X146223007Y-144268930D01*
X146223003Y-144268928D01*
X146101031Y-144206915D01*
X146022249Y-144166860D01*
X146017155Y-144165278D01*
X146017152Y-144165277D01*
X145807171Y-144100076D01*
X145802073Y-144098493D01*
X145796784Y-144097792D01*
X145578811Y-144068902D01*
X145578806Y-144068902D01*
X145573526Y-144068202D01*
X145568197Y-144068402D01*
X145568195Y-144068402D01*
X145469668Y-144072101D01*
X145343142Y-144076851D01*
X145337923Y-144077946D01*
X145318149Y-144082095D01*
X145117509Y-144124193D01*
X145112550Y-144126151D01*
X145112548Y-144126152D01*
X144908044Y-144206915D01*
X144908042Y-144206916D01*
X144903079Y-144208876D01*
X144898520Y-144211643D01*
X144898517Y-144211644D01*
X144800486Y-144271131D01*
X144705983Y-144328477D01*
X144701953Y-144331974D01*
X144552049Y-144462054D01*
X144531855Y-144479577D01*
X144528424Y-144483762D01*
X144502294Y-144515629D01*
X144443634Y-144555624D01*
X144372664Y-144557555D01*
X144311916Y-144520810D01*
X144297716Y-144502041D01*
X144211237Y-144362293D01*
X144202201Y-144350892D01*
X144087471Y-144236361D01*
X144076060Y-144227349D01*
X143938057Y-144142284D01*
X143924876Y-144136137D01*
X143770590Y-144084962D01*
X143757214Y-144082095D01*
X143662862Y-144072428D01*
X143656445Y-144072100D01*
X143281415Y-144072100D01*
X143266176Y-144076575D01*
X143264971Y-144077965D01*
X143263300Y-144085648D01*
X143263300Y-147069984D01*
X142755300Y-147069984D01*
X142755300Y-145852215D01*
X142750825Y-145836976D01*
X142749435Y-145835771D01*
X142741752Y-145834100D01*
X141669416Y-145834100D01*
X141654177Y-145838575D01*
X141652972Y-145839965D01*
X141651301Y-145847648D01*
X141651301Y-146377195D01*
X137555199Y-146377195D01*
X137565990Y-146354053D01*
X137569736Y-146343761D01*
X137626125Y-146133312D01*
X137628028Y-146122519D01*
X137647017Y-145905475D01*
X137647017Y-145894525D01*
X137628028Y-145677481D01*
X137626125Y-145666688D01*
X137569736Y-145456239D01*
X137565990Y-145445947D01*
X137501657Y-145307985D01*
X141651300Y-145307985D01*
X141655775Y-145323224D01*
X141657165Y-145324429D01*
X141664848Y-145326100D01*
X142737185Y-145326100D01*
X142752424Y-145321625D01*
X142753629Y-145320235D01*
X142755300Y-145312552D01*
X142755300Y-144090216D01*
X142750825Y-144074977D01*
X142749435Y-144073772D01*
X142741752Y-144072101D01*
X142362205Y-144072101D01*
X142355686Y-144072438D01*
X142260094Y-144082357D01*
X142246700Y-144085249D01*
X142092516Y-144136688D01*
X142079338Y-144142861D01*
X141941493Y-144228163D01*
X141930092Y-144237199D01*
X141815561Y-144351929D01*
X141806549Y-144363340D01*
X141721484Y-144501343D01*
X141715337Y-144514524D01*
X141664162Y-144668810D01*
X141661295Y-144682186D01*
X141651628Y-144776538D01*
X141651300Y-144782955D01*
X141651300Y-145307985D01*
X137501657Y-145307985D01*
X137473914Y-145248489D01*
X137468431Y-145238994D01*
X137431991Y-145186952D01*
X137421512Y-145178576D01*
X137408066Y-145185644D01*
X136706522Y-145887188D01*
X136698908Y-145901132D01*
X135968856Y-145901132D01*
X135970092Y-145898868D01*
X135969961Y-145897035D01*
X135965710Y-145890420D01*
X135260213Y-145184923D01*
X135248438Y-145178493D01*
X135236423Y-145187789D01*
X135200569Y-145238994D01*
X135195086Y-145248489D01*
X135103010Y-145445947D01*
X135099264Y-145456239D01*
X135042875Y-145666688D01*
X135040972Y-145677481D01*
X135021983Y-145894525D01*
X135021983Y-145905475D01*
X125667000Y-145905475D01*
X125667000Y-144677169D01*
X127692001Y-144677169D01*
X127692371Y-144683990D01*
X127697895Y-144734852D01*
X127701521Y-144750104D01*
X127746676Y-144870554D01*
X127755214Y-144886149D01*
X127831715Y-144988224D01*
X127844276Y-145000785D01*
X127946351Y-145077286D01*
X127961946Y-145085824D01*
X128082394Y-145130978D01*
X128097649Y-145134605D01*
X128148514Y-145140131D01*
X128155328Y-145140500D01*
X128927885Y-145140500D01*
X128943124Y-145136025D01*
X128944329Y-145134635D01*
X128946000Y-145126952D01*
X128946000Y-145122384D01*
X129454000Y-145122384D01*
X129458475Y-145137623D01*
X129459865Y-145138828D01*
X129467548Y-145140499D01*
X130244669Y-145140499D01*
X130251490Y-145140129D01*
X130302352Y-145134605D01*
X130317604Y-145130979D01*
X130438054Y-145085824D01*
X130453649Y-145077286D01*
X130555724Y-145000785D01*
X130568285Y-144988224D01*
X130644786Y-144886149D01*
X130653324Y-144870554D01*
X130698478Y-144750106D01*
X130702105Y-144734851D01*
X130707631Y-144683986D01*
X130708000Y-144677172D01*
X130708000Y-144248134D01*
X135026000Y-144248134D01*
X135032755Y-144310316D01*
X135083885Y-144446705D01*
X135171239Y-144563261D01*
X135287795Y-144650615D01*
X135424184Y-144701745D01*
X135467752Y-144706478D01*
X135482986Y-144708133D01*
X135482989Y-144708133D01*
X135486366Y-144708500D01*
X135489685Y-144708500D01*
X135556610Y-144732153D01*
X135592304Y-144778156D01*
X135594234Y-144777141D01*
X135599942Y-144788000D01*
X135600132Y-144788245D01*
X135600153Y-144788403D01*
X135620144Y-144826434D01*
X136321688Y-145527978D01*
X136335632Y-145535592D01*
X136337465Y-145535461D01*
X136344080Y-145531210D01*
X137049577Y-144825713D01*
X137072371Y-144783971D01*
X137074547Y-144773971D01*
X137124753Y-144723773D01*
X137178314Y-144708549D01*
X137179219Y-144708500D01*
X137182634Y-144708500D01*
X137186030Y-144708131D01*
X137186032Y-144708131D01*
X137198379Y-144706790D01*
X137244816Y-144701745D01*
X137381205Y-144650615D01*
X137497761Y-144563261D01*
X137585115Y-144446705D01*
X137636245Y-144310316D01*
X137643000Y-144248134D01*
X137643000Y-142551866D01*
X137636245Y-142489684D01*
X137585115Y-142353295D01*
X137497761Y-142236739D01*
X137381205Y-142149385D01*
X137244816Y-142098255D01*
X137182634Y-142091500D01*
X135486366Y-142091500D01*
X135424184Y-142098255D01*
X135287795Y-142149385D01*
X135171239Y-142236739D01*
X135083885Y-142353295D01*
X135032755Y-142489684D01*
X135026000Y-142551866D01*
X135026000Y-144248134D01*
X130708000Y-144248134D01*
X130708000Y-143952115D01*
X130703525Y-143936876D01*
X130702135Y-143935671D01*
X130694452Y-143934000D01*
X129472115Y-143934000D01*
X129456876Y-143938475D01*
X129455671Y-143939865D01*
X129454000Y-143947548D01*
X129454000Y-145122384D01*
X128946000Y-145122384D01*
X128946000Y-143952115D01*
X128941525Y-143936876D01*
X128940135Y-143935671D01*
X128932452Y-143934000D01*
X127710116Y-143934000D01*
X127694877Y-143938475D01*
X127693672Y-143939865D01*
X127692001Y-143947548D01*
X127692001Y-144677169D01*
X125667000Y-144677169D01*
X125667000Y-141242263D01*
X127690064Y-141242263D01*
X127726404Y-141479744D01*
X127763094Y-141591997D01*
X127799434Y-141703183D01*
X127799437Y-141703189D01*
X127801042Y-141708101D01*
X127803429Y-141712687D01*
X127803431Y-141712691D01*
X127843264Y-141789208D01*
X127911975Y-141921200D01*
X128028728Y-142076700D01*
X128053633Y-142143182D01*
X128038641Y-142212578D01*
X127988511Y-142262852D01*
X127972197Y-142270333D01*
X127961946Y-142274176D01*
X127946351Y-142282714D01*
X127844276Y-142359215D01*
X127831715Y-142371776D01*
X127755214Y-142473851D01*
X127746676Y-142489446D01*
X127701522Y-142609894D01*
X127697895Y-142625149D01*
X127692369Y-142676014D01*
X127692000Y-142682828D01*
X127692000Y-143407885D01*
X127696475Y-143423124D01*
X127697865Y-143424329D01*
X127705548Y-143426000D01*
X130689884Y-143426000D01*
X130705123Y-143421525D01*
X130706328Y-143420135D01*
X130707999Y-143412452D01*
X130707999Y-142682831D01*
X130707629Y-142676010D01*
X130702105Y-142625148D01*
X130698479Y-142609896D01*
X130653324Y-142489446D01*
X130644786Y-142473851D01*
X130568285Y-142371776D01*
X130555724Y-142359215D01*
X130453649Y-142282714D01*
X130438055Y-142274176D01*
X130426487Y-142269840D01*
X130369721Y-142227199D01*
X130345020Y-142160638D01*
X130360226Y-142091289D01*
X130371832Y-142073765D01*
X130382668Y-142060045D01*
X130428320Y-142002239D01*
X130465367Y-141955330D01*
X130465370Y-141955325D01*
X130468568Y-141951276D01*
X130482885Y-141925342D01*
X130582177Y-141745474D01*
X130582179Y-141745470D01*
X130584674Y-141740950D01*
X130593529Y-141715946D01*
X130663144Y-141519360D01*
X130663145Y-141519356D01*
X130664870Y-141514485D01*
X130670183Y-141484659D01*
X130706095Y-141283052D01*
X130706096Y-141283046D01*
X130707001Y-141277963D01*
X130709936Y-141037737D01*
X130673596Y-140800256D01*
X130615528Y-140622595D01*
X130600566Y-140576817D01*
X130600563Y-140576811D01*
X130598958Y-140571899D01*
X130564674Y-140506039D01*
X130490416Y-140363393D01*
X130488025Y-140358800D01*
X130394923Y-140234800D01*
X130346882Y-140170815D01*
X130346880Y-140170812D01*
X130343777Y-140166680D01*
X130212591Y-140041316D01*
X130173825Y-140004270D01*
X130173824Y-140004269D01*
X130170088Y-140000699D01*
X130133097Y-139975465D01*
X130088096Y-139920556D01*
X130079925Y-139850032D01*
X130111179Y-139786284D01*
X130135660Y-139765589D01*
X130137635Y-139764311D01*
X130141977Y-139761502D01*
X130319670Y-139599814D01*
X130406666Y-139489658D01*
X130465367Y-139415330D01*
X130465370Y-139415325D01*
X130468568Y-139411276D01*
X130472291Y-139404533D01*
X130474465Y-139400595D01*
X141651301Y-139400595D01*
X141651638Y-139407114D01*
X141661557Y-139502706D01*
X141664449Y-139516100D01*
X141715888Y-139670284D01*
X141722061Y-139683462D01*
X141807363Y-139821307D01*
X141816399Y-139832708D01*
X141931129Y-139947239D01*
X141942540Y-139956251D01*
X142080543Y-140041316D01*
X142093724Y-140047463D01*
X142248010Y-140098638D01*
X142261386Y-140101505D01*
X142355738Y-140111172D01*
X142362154Y-140111500D01*
X142737185Y-140111500D01*
X142752424Y-140107025D01*
X142753629Y-140105635D01*
X142755300Y-140097952D01*
X142755300Y-140093384D01*
X143263300Y-140093384D01*
X143267775Y-140108623D01*
X143269165Y-140109828D01*
X143276848Y-140111499D01*
X143656395Y-140111499D01*
X143662914Y-140111162D01*
X143758506Y-140101243D01*
X143771900Y-140098351D01*
X143926084Y-140046912D01*
X143939262Y-140040739D01*
X144077107Y-139955437D01*
X144088508Y-139946401D01*
X144203039Y-139831671D01*
X144212053Y-139820257D01*
X144298023Y-139680787D01*
X144350795Y-139633293D01*
X144420866Y-139621869D01*
X144485990Y-139650143D01*
X144496449Y-139659926D01*
X144605876Y-139774635D01*
X144610154Y-139777818D01*
X144653631Y-139810166D01*
X144790842Y-139912254D01*
X144795593Y-139914670D01*
X144795597Y-139914672D01*
X144858004Y-139946401D01*
X144996351Y-140016740D01*
X145001445Y-140018322D01*
X145001448Y-140018323D01*
X145201320Y-140080385D01*
X145216527Y-140085107D01*
X145221816Y-140085808D01*
X145439789Y-140114698D01*
X145439794Y-140114698D01*
X145445074Y-140115398D01*
X145450403Y-140115198D01*
X145450405Y-140115198D01*
X145560266Y-140111074D01*
X145675458Y-140106749D01*
X145680768Y-140105635D01*
X145895872Y-140060502D01*
X145901091Y-140059407D01*
X145906050Y-140057449D01*
X145906052Y-140057448D01*
X146110556Y-139976685D01*
X146110558Y-139976684D01*
X146115521Y-139974724D01*
X146214484Y-139914672D01*
X146285788Y-139871403D01*
X146312617Y-139855123D01*
X146391947Y-139786284D01*
X146482712Y-139707523D01*
X146482714Y-139707521D01*
X146486745Y-139704023D01*
X146555637Y-139620003D01*
X146629540Y-139529873D01*
X146629544Y-139529867D01*
X146632924Y-139525745D01*
X146638415Y-139516100D01*
X146744332Y-139330029D01*
X146746975Y-139325386D01*
X146825637Y-139108675D01*
X146832096Y-139072956D01*
X146865923Y-138885892D01*
X146865924Y-138885885D01*
X146866661Y-138881808D01*
X146867800Y-138857656D01*
X146867800Y-138395610D01*
X146855898Y-138255341D01*
X146853671Y-138229091D01*
X146853670Y-138229087D01*
X146853220Y-138223780D01*
X146851882Y-138218625D01*
X146851881Y-138218619D01*
X146796643Y-138005797D01*
X146796642Y-138005793D01*
X146795301Y-138000628D01*
X146792553Y-137994526D01*
X146702807Y-137795298D01*
X146700612Y-137790425D01*
X146571859Y-137599181D01*
X146412724Y-137432365D01*
X146227758Y-137294746D01*
X146223007Y-137292330D01*
X146223003Y-137292328D01*
X146069467Y-137214267D01*
X146022249Y-137190260D01*
X146017155Y-137188678D01*
X146017152Y-137188677D01*
X145807171Y-137123476D01*
X145802073Y-137121893D01*
X145796784Y-137121192D01*
X145578811Y-137092302D01*
X145578806Y-137092302D01*
X145573526Y-137091602D01*
X145568197Y-137091802D01*
X145568195Y-137091802D01*
X145469668Y-137095501D01*
X145343142Y-137100251D01*
X145337923Y-137101346D01*
X145318149Y-137105495D01*
X145117509Y-137147593D01*
X145112550Y-137149551D01*
X145112548Y-137149552D01*
X144908044Y-137230315D01*
X144908042Y-137230316D01*
X144903079Y-137232276D01*
X144898520Y-137235043D01*
X144898517Y-137235044D01*
X144800132Y-137294746D01*
X144705983Y-137351877D01*
X144701953Y-137355374D01*
X144541071Y-137494980D01*
X144531855Y-137502977D01*
X144528468Y-137507108D01*
X144502294Y-137539029D01*
X144443634Y-137579024D01*
X144372664Y-137580955D01*
X144311916Y-137544210D01*
X144297716Y-137525441D01*
X144211237Y-137385693D01*
X144202201Y-137374292D01*
X144087471Y-137259761D01*
X144076060Y-137250749D01*
X143938057Y-137165684D01*
X143924876Y-137159537D01*
X143770590Y-137108362D01*
X143757214Y-137105495D01*
X143662862Y-137095828D01*
X143656445Y-137095500D01*
X143281415Y-137095500D01*
X143266176Y-137099975D01*
X143264971Y-137101365D01*
X143263300Y-137109048D01*
X143263300Y-140093384D01*
X142755300Y-140093384D01*
X142755300Y-138875615D01*
X142750825Y-138860376D01*
X142749435Y-138859171D01*
X142741752Y-138857500D01*
X141669416Y-138857500D01*
X141654177Y-138861975D01*
X141652972Y-138863365D01*
X141651301Y-138871048D01*
X141651301Y-139400595D01*
X130474465Y-139400595D01*
X130582177Y-139205474D01*
X130582179Y-139205470D01*
X130584674Y-139200950D01*
X130600583Y-139156027D01*
X130663144Y-138979360D01*
X130663145Y-138979356D01*
X130664870Y-138974485D01*
X130670183Y-138944659D01*
X130706095Y-138743052D01*
X130706096Y-138743046D01*
X130707001Y-138737963D01*
X130709936Y-138497737D01*
X130684480Y-138331385D01*
X141651300Y-138331385D01*
X141655775Y-138346624D01*
X141657165Y-138347829D01*
X141664848Y-138349500D01*
X142737185Y-138349500D01*
X142752424Y-138345025D01*
X142753629Y-138343635D01*
X142755300Y-138335952D01*
X142755300Y-137113616D01*
X142750825Y-137098377D01*
X142749435Y-137097172D01*
X142741752Y-137095501D01*
X142362205Y-137095501D01*
X142355686Y-137095838D01*
X142260094Y-137105757D01*
X142246700Y-137108649D01*
X142092516Y-137160088D01*
X142079338Y-137166261D01*
X141941493Y-137251563D01*
X141930092Y-137260599D01*
X141815561Y-137375329D01*
X141806549Y-137386740D01*
X141721484Y-137524743D01*
X141715337Y-137537924D01*
X141664162Y-137692210D01*
X141661295Y-137705586D01*
X141651628Y-137799938D01*
X141651300Y-137806355D01*
X141651300Y-138331385D01*
X130684480Y-138331385D01*
X130673596Y-138260256D01*
X130620669Y-138098325D01*
X130600566Y-138036817D01*
X130600563Y-138036811D01*
X130598958Y-138031899D01*
X130582680Y-138000628D01*
X130490416Y-137823393D01*
X130488025Y-137818800D01*
X130417038Y-137724254D01*
X130346882Y-137630815D01*
X130346880Y-137630812D01*
X130343777Y-137626680D01*
X130170088Y-137460699D01*
X130010562Y-137351877D01*
X129975891Y-137328226D01*
X129975890Y-137328225D01*
X129971622Y-137325314D01*
X129966939Y-137323140D01*
X129966935Y-137323138D01*
X129758405Y-137226342D01*
X129758401Y-137226341D01*
X129753710Y-137224163D01*
X129522202Y-137159960D01*
X129517065Y-137159411D01*
X129329407Y-137139356D01*
X129329399Y-137139356D01*
X129326072Y-137139000D01*
X129091598Y-137139000D01*
X129089025Y-137139212D01*
X129089014Y-137139212D01*
X128988054Y-137147513D01*
X128913063Y-137153678D01*
X128680056Y-137212206D01*
X128568759Y-137260599D01*
X128464474Y-137305943D01*
X128464471Y-137305945D01*
X128459737Y-137308003D01*
X128258023Y-137438498D01*
X128080330Y-137600186D01*
X128056141Y-137630815D01*
X127934633Y-137784670D01*
X127934630Y-137784675D01*
X127931432Y-137788724D01*
X127928939Y-137793240D01*
X127928937Y-137793243D01*
X127860064Y-137918007D01*
X127815326Y-137999050D01*
X127813602Y-138003919D01*
X127813600Y-138003923D01*
X127755391Y-138168300D01*
X127735130Y-138225515D01*
X127734223Y-138230608D01*
X127734222Y-138230611D01*
X127694009Y-138456369D01*
X127692999Y-138462037D01*
X127690064Y-138702263D01*
X127726404Y-138939744D01*
X127740217Y-138982005D01*
X127799434Y-139163183D01*
X127799437Y-139163189D01*
X127801042Y-139168101D01*
X127803429Y-139172687D01*
X127803431Y-139172691D01*
X127902636Y-139363260D01*
X127911975Y-139381200D01*
X127915085Y-139385342D01*
X128020503Y-139525745D01*
X128056223Y-139573320D01*
X128229912Y-139739301D01*
X128266903Y-139764535D01*
X128311904Y-139819444D01*
X128320075Y-139889968D01*
X128288821Y-139953716D01*
X128264340Y-139974411D01*
X128262707Y-139975468D01*
X128258023Y-139978498D01*
X128080330Y-140140186D01*
X128056141Y-140170815D01*
X127934633Y-140324670D01*
X127934630Y-140324675D01*
X127931432Y-140328724D01*
X127928939Y-140333240D01*
X127928937Y-140333243D01*
X127848786Y-140478437D01*
X127815326Y-140539050D01*
X127813602Y-140543919D01*
X127813600Y-140543923D01*
X127736856Y-140760640D01*
X127735130Y-140765515D01*
X127734223Y-140770608D01*
X127734222Y-140770611D01*
X127718044Y-140861438D01*
X127692999Y-141002037D01*
X127690064Y-141242263D01*
X125667000Y-141242263D01*
X125667000Y-135793502D01*
X125687002Y-135725381D01*
X125740658Y-135678888D01*
X125793051Y-135667502D01*
X146050000Y-135675902D01*
X146050000Y-125980434D01*
X177597200Y-125980434D01*
X177603955Y-126042616D01*
X177655085Y-126179005D01*
X177742439Y-126295561D01*
X177858995Y-126382915D01*
X177995384Y-126434045D01*
X178057566Y-126440800D01*
X179853834Y-126440800D01*
X179916016Y-126434045D01*
X180052405Y-126382915D01*
X180168961Y-126295561D01*
X180256315Y-126179005D01*
X180276009Y-126126471D01*
X180300298Y-126061682D01*
X180342940Y-126004918D01*
X180409502Y-125980218D01*
X180478850Y-125995426D01*
X180513517Y-126023414D01*
X180541950Y-126056238D01*
X180713826Y-126198932D01*
X180906700Y-126311638D01*
X181115392Y-126391330D01*
X181120460Y-126392361D01*
X181120463Y-126392362D01*
X181227717Y-126414183D01*
X181334297Y-126435867D01*
X181339472Y-126436057D01*
X181339474Y-126436057D01*
X181552373Y-126443864D01*
X181552377Y-126443864D01*
X181557537Y-126444053D01*
X181562657Y-126443397D01*
X181562659Y-126443397D01*
X181773988Y-126416325D01*
X181773989Y-126416325D01*
X181779116Y-126415668D01*
X181784066Y-126414183D01*
X181988129Y-126352961D01*
X181988134Y-126352959D01*
X181993084Y-126351474D01*
X182193694Y-126253196D01*
X182375560Y-126123473D01*
X182533796Y-125965789D01*
X182541006Y-125955756D01*
X182664153Y-125784377D01*
X182665476Y-125785328D01*
X182712345Y-125742157D01*
X182782280Y-125729925D01*
X182847726Y-125757444D01*
X182875575Y-125789294D01*
X182935687Y-125887388D01*
X183081950Y-126056238D01*
X183253826Y-126198932D01*
X183446700Y-126311638D01*
X183655392Y-126391330D01*
X183660460Y-126392361D01*
X183660463Y-126392362D01*
X183767717Y-126414183D01*
X183874297Y-126435867D01*
X183879472Y-126436057D01*
X183879474Y-126436057D01*
X184092373Y-126443864D01*
X184092377Y-126443864D01*
X184097537Y-126444053D01*
X184102657Y-126443397D01*
X184102659Y-126443397D01*
X184313988Y-126416325D01*
X184313989Y-126416325D01*
X184319116Y-126415668D01*
X184324066Y-126414183D01*
X184528129Y-126352961D01*
X184528134Y-126352959D01*
X184533084Y-126351474D01*
X184733694Y-126253196D01*
X184915560Y-126123473D01*
X185073796Y-125965789D01*
X185081006Y-125955756D01*
X185204153Y-125784377D01*
X185205476Y-125785328D01*
X185252345Y-125742157D01*
X185322280Y-125729925D01*
X185387726Y-125757444D01*
X185415575Y-125789294D01*
X185475687Y-125887388D01*
X185621950Y-126056238D01*
X185793826Y-126198932D01*
X185986700Y-126311638D01*
X186195392Y-126391330D01*
X186200460Y-126392361D01*
X186200463Y-126392362D01*
X186307717Y-126414183D01*
X186414297Y-126435867D01*
X186419472Y-126436057D01*
X186419474Y-126436057D01*
X186632373Y-126443864D01*
X186632377Y-126443864D01*
X186637537Y-126444053D01*
X186642657Y-126443397D01*
X186642659Y-126443397D01*
X186853988Y-126416325D01*
X186853989Y-126416325D01*
X186859116Y-126415668D01*
X186864066Y-126414183D01*
X187068129Y-126352961D01*
X187068134Y-126352959D01*
X187073084Y-126351474D01*
X187273694Y-126253196D01*
X187455560Y-126123473D01*
X187613796Y-125965789D01*
X187621006Y-125955756D01*
X187741135Y-125788577D01*
X187744153Y-125784377D01*
X187757902Y-125756559D01*
X187840836Y-125588753D01*
X187840837Y-125588751D01*
X187843130Y-125584111D01*
X187908070Y-125370369D01*
X187937229Y-125148890D01*
X187937311Y-125145540D01*
X187938774Y-125085665D01*
X187938774Y-125085661D01*
X187938856Y-125082300D01*
X187920552Y-124859661D01*
X187866131Y-124643002D01*
X187777054Y-124438140D01*
X187727557Y-124361630D01*
X187658522Y-124254917D01*
X187658520Y-124254914D01*
X187655714Y-124250577D01*
X187505370Y-124085351D01*
X187501319Y-124082152D01*
X187501315Y-124082148D01*
X187334114Y-123950100D01*
X187334110Y-123950098D01*
X187330059Y-123946898D01*
X187134489Y-123838938D01*
X187129620Y-123837214D01*
X187129616Y-123837212D01*
X186928787Y-123766095D01*
X186928783Y-123766094D01*
X186923912Y-123764369D01*
X186918819Y-123763462D01*
X186918816Y-123763461D01*
X186709073Y-123726100D01*
X186709067Y-123726099D01*
X186703984Y-123725194D01*
X186630152Y-123724292D01*
X186485781Y-123722528D01*
X186485779Y-123722528D01*
X186480611Y-123722465D01*
X186259791Y-123756255D01*
X186047456Y-123825657D01*
X185849307Y-123928807D01*
X185845174Y-123931910D01*
X185845171Y-123931912D01*
X185684162Y-124052801D01*
X185670665Y-124062935D01*
X185667093Y-124066673D01*
X185526932Y-124213343D01*
X185516329Y-124224438D01*
X185408901Y-124381921D01*
X185353993Y-124426921D01*
X185283468Y-124435092D01*
X185219721Y-124403838D01*
X185199024Y-124379354D01*
X185118522Y-124254917D01*
X185118520Y-124254914D01*
X185115714Y-124250577D01*
X184965370Y-124085351D01*
X184961319Y-124082152D01*
X184961315Y-124082148D01*
X184794114Y-123950100D01*
X184794110Y-123950098D01*
X184790059Y-123946898D01*
X184594489Y-123838938D01*
X184589620Y-123837214D01*
X184589616Y-123837212D01*
X184388787Y-123766095D01*
X184388783Y-123766094D01*
X184383912Y-123764369D01*
X184378819Y-123763462D01*
X184378816Y-123763461D01*
X184169073Y-123726100D01*
X184169067Y-123726099D01*
X184163984Y-123725194D01*
X184090152Y-123724292D01*
X183945781Y-123722528D01*
X183945779Y-123722528D01*
X183940611Y-123722465D01*
X183719791Y-123756255D01*
X183507456Y-123825657D01*
X183309307Y-123928807D01*
X183305174Y-123931910D01*
X183305171Y-123931912D01*
X183144162Y-124052801D01*
X183130665Y-124062935D01*
X183127093Y-124066673D01*
X182986932Y-124213343D01*
X182976329Y-124224438D01*
X182868901Y-124381921D01*
X182813993Y-124426921D01*
X182743468Y-124435092D01*
X182679721Y-124403838D01*
X182659024Y-124379354D01*
X182578522Y-124254917D01*
X182578520Y-124254914D01*
X182575714Y-124250577D01*
X182425370Y-124085351D01*
X182421319Y-124082152D01*
X182421315Y-124082148D01*
X182254114Y-123950100D01*
X182254110Y-123950098D01*
X182250059Y-123946898D01*
X182054489Y-123838938D01*
X182049620Y-123837214D01*
X182049616Y-123837212D01*
X181848787Y-123766095D01*
X181848783Y-123766094D01*
X181843912Y-123764369D01*
X181838819Y-123763462D01*
X181838816Y-123763461D01*
X181629073Y-123726100D01*
X181629067Y-123726099D01*
X181623984Y-123725194D01*
X181550152Y-123724292D01*
X181405781Y-123722528D01*
X181405779Y-123722528D01*
X181400611Y-123722465D01*
X181179791Y-123756255D01*
X180967456Y-123825657D01*
X180769307Y-123928807D01*
X180765174Y-123931910D01*
X180765171Y-123931912D01*
X180604162Y-124052801D01*
X180590665Y-124062935D01*
X180534237Y-124121984D01*
X180509983Y-124147364D01*
X180448459Y-124182794D01*
X180377546Y-124179337D01*
X180319760Y-124138091D01*
X180300907Y-124104543D01*
X180259467Y-123994003D01*
X180256315Y-123985595D01*
X180168961Y-123869039D01*
X180052405Y-123781685D01*
X179916016Y-123730555D01*
X179853834Y-123723800D01*
X178057566Y-123723800D01*
X177995384Y-123730555D01*
X177858995Y-123781685D01*
X177742439Y-123869039D01*
X177655085Y-123985595D01*
X177603955Y-124121984D01*
X177597200Y-124184166D01*
X177597200Y-125980434D01*
X146050000Y-125980434D01*
X146050000Y-121837291D01*
X147622922Y-121837291D01*
X147623416Y-121842326D01*
X147626999Y-121878870D01*
X147627600Y-121891166D01*
X147627600Y-124504501D01*
X147627802Y-124507009D01*
X147627802Y-124507014D01*
X147638744Y-124643002D01*
X147642160Y-124685465D01*
X147643366Y-124690373D01*
X147643366Y-124690376D01*
X147676349Y-124824658D01*
X147700063Y-124921206D01*
X147794912Y-125144656D01*
X147924267Y-125350067D01*
X147946533Y-125375323D01*
X148081450Y-125528358D01*
X148081453Y-125528361D01*
X148084798Y-125532155D01*
X148088706Y-125535365D01*
X148088707Y-125535366D01*
X148195342Y-125622956D01*
X148272378Y-125686234D01*
X148347446Y-125729925D01*
X148394729Y-125757444D01*
X148482178Y-125808341D01*
X148486901Y-125810154D01*
X148704078Y-125893520D01*
X148704082Y-125893521D01*
X148708802Y-125895333D01*
X148713752Y-125896367D01*
X148713755Y-125896368D01*
X148941469Y-125943940D01*
X148941473Y-125943940D01*
X148946420Y-125944974D01*
X149188917Y-125955986D01*
X149193937Y-125955405D01*
X149193941Y-125955405D01*
X149425029Y-125928667D01*
X149425033Y-125928666D01*
X149430056Y-125928085D01*
X149434920Y-125926709D01*
X149434923Y-125926708D01*
X149658769Y-125863366D01*
X149658768Y-125863366D01*
X149663632Y-125861990D01*
X149668208Y-125859856D01*
X149668214Y-125859854D01*
X149879054Y-125761538D01*
X149879058Y-125761536D01*
X149883636Y-125759401D01*
X150084407Y-125622956D01*
X150260781Y-125456168D01*
X150322592Y-125375323D01*
X150405147Y-125267346D01*
X150405150Y-125267342D01*
X150408220Y-125263326D01*
X150522931Y-125049391D01*
X150601962Y-124819869D01*
X150632512Y-124643002D01*
X150642604Y-124584574D01*
X150642605Y-124584568D01*
X150643279Y-124580664D01*
X150644600Y-124551575D01*
X150644600Y-122487909D01*
X150664602Y-122419788D01*
X150681505Y-122398814D01*
X153506905Y-119573414D01*
X153569217Y-119539388D01*
X153640032Y-119544453D01*
X153696868Y-119587000D01*
X153721679Y-119653520D01*
X153722000Y-119662509D01*
X153722000Y-120863634D01*
X153728755Y-120925816D01*
X153779885Y-121062205D01*
X153867239Y-121178761D01*
X153983795Y-121266115D01*
X154120184Y-121317245D01*
X154182366Y-121324000D01*
X155978634Y-121324000D01*
X156040816Y-121317245D01*
X156177205Y-121266115D01*
X156293761Y-121178761D01*
X156381115Y-121062205D01*
X156432245Y-120925816D01*
X156439000Y-120863634D01*
X156439000Y-119089900D01*
X158668000Y-119089900D01*
X158668337Y-119093146D01*
X158668337Y-119093150D01*
X158677375Y-119180252D01*
X158678974Y-119195666D01*
X158681155Y-119202202D01*
X158681155Y-119202204D01*
X158713008Y-119297678D01*
X158734950Y-119363446D01*
X158828022Y-119513848D01*
X158953197Y-119638805D01*
X158959427Y-119642645D01*
X158959428Y-119642646D01*
X159096590Y-119727194D01*
X159103762Y-119731615D01*
X159139438Y-119743448D01*
X159265111Y-119785132D01*
X159265113Y-119785132D01*
X159271639Y-119787297D01*
X159278475Y-119787997D01*
X159278478Y-119787998D01*
X159314163Y-119791654D01*
X159376100Y-119798000D01*
X160676900Y-119798000D01*
X160680146Y-119797663D01*
X160680150Y-119797663D01*
X160775808Y-119787738D01*
X160775812Y-119787737D01*
X160782666Y-119787026D01*
X160789202Y-119784845D01*
X160789204Y-119784845D01*
X160921306Y-119740772D01*
X160950446Y-119731050D01*
X161100848Y-119637978D01*
X161225805Y-119512803D01*
X161315581Y-119367160D01*
X161368352Y-119319668D01*
X161438424Y-119308244D01*
X161503548Y-119336518D01*
X161514010Y-119346305D01*
X161555715Y-119390023D01*
X161623076Y-119460635D01*
X161808042Y-119598254D01*
X161812793Y-119600670D01*
X161812797Y-119600672D01*
X161875981Y-119632796D01*
X162013551Y-119702740D01*
X162018645Y-119704322D01*
X162018648Y-119704323D01*
X162218520Y-119766385D01*
X162233727Y-119771107D01*
X162239016Y-119771808D01*
X162456989Y-119800698D01*
X162456994Y-119800698D01*
X162462274Y-119801398D01*
X162467603Y-119801198D01*
X162467605Y-119801198D01*
X162577466Y-119797073D01*
X162692658Y-119792749D01*
X162715302Y-119787998D01*
X162913072Y-119746502D01*
X162918291Y-119745407D01*
X162923250Y-119743449D01*
X162923252Y-119743448D01*
X163127756Y-119662685D01*
X163127758Y-119662684D01*
X163132721Y-119660724D01*
X163168843Y-119638805D01*
X163325257Y-119543890D01*
X163325256Y-119543890D01*
X163329817Y-119541123D01*
X163369634Y-119506572D01*
X163499912Y-119393523D01*
X163499914Y-119393521D01*
X163503945Y-119390023D01*
X163571000Y-119308244D01*
X163646740Y-119215873D01*
X163646744Y-119215867D01*
X163650124Y-119211745D01*
X163668052Y-119180250D01*
X163719132Y-119130945D01*
X163788762Y-119117083D01*
X163854833Y-119143066D01*
X163882073Y-119172216D01*
X163963941Y-119293819D01*
X164123076Y-119460635D01*
X164308042Y-119598254D01*
X164312793Y-119600670D01*
X164312797Y-119600672D01*
X164375981Y-119632796D01*
X164513551Y-119702740D01*
X164518645Y-119704322D01*
X164518648Y-119704323D01*
X164718520Y-119766385D01*
X164733727Y-119771107D01*
X164739016Y-119771808D01*
X164956989Y-119800698D01*
X164956994Y-119800698D01*
X164962274Y-119801398D01*
X164967603Y-119801198D01*
X164967605Y-119801198D01*
X165077466Y-119797073D01*
X165192658Y-119792749D01*
X165215302Y-119787998D01*
X165413072Y-119746502D01*
X165418291Y-119745407D01*
X165423250Y-119743449D01*
X165423252Y-119743448D01*
X165627756Y-119662685D01*
X165627758Y-119662684D01*
X165632721Y-119660724D01*
X165668843Y-119638805D01*
X165825257Y-119543890D01*
X165825256Y-119543890D01*
X165829817Y-119541123D01*
X165869634Y-119506572D01*
X165999912Y-119393523D01*
X165999914Y-119393521D01*
X166003945Y-119390023D01*
X166071000Y-119308244D01*
X166146740Y-119215873D01*
X166146744Y-119215867D01*
X166150124Y-119211745D01*
X166168052Y-119180250D01*
X166219132Y-119130945D01*
X166288762Y-119117083D01*
X166354833Y-119143066D01*
X166382073Y-119172216D01*
X166463941Y-119293819D01*
X166623076Y-119460635D01*
X166808042Y-119598254D01*
X166812793Y-119600670D01*
X166812797Y-119600672D01*
X166875981Y-119632796D01*
X167013551Y-119702740D01*
X167018645Y-119704322D01*
X167018648Y-119704323D01*
X167218520Y-119766385D01*
X167233727Y-119771107D01*
X167239016Y-119771808D01*
X167456989Y-119800698D01*
X167456994Y-119800698D01*
X167462274Y-119801398D01*
X167467603Y-119801198D01*
X167467605Y-119801198D01*
X167577466Y-119797073D01*
X167692658Y-119792749D01*
X167715302Y-119787998D01*
X167913072Y-119746502D01*
X167918291Y-119745407D01*
X167923250Y-119743449D01*
X167923252Y-119743448D01*
X168127756Y-119662685D01*
X168127758Y-119662684D01*
X168132721Y-119660724D01*
X168168843Y-119638805D01*
X168325257Y-119543890D01*
X168325256Y-119543890D01*
X168329817Y-119541123D01*
X168369634Y-119506572D01*
X168499912Y-119393523D01*
X168499914Y-119393521D01*
X168503945Y-119390023D01*
X168571000Y-119308244D01*
X168646740Y-119215873D01*
X168646744Y-119215867D01*
X168650124Y-119211745D01*
X168689219Y-119143066D01*
X168761532Y-119016029D01*
X168764175Y-119011386D01*
X168842837Y-118794675D01*
X168843787Y-118789423D01*
X168883123Y-118571892D01*
X168883124Y-118571885D01*
X168883861Y-118567808D01*
X168885000Y-118543656D01*
X168885000Y-118131610D01*
X168870420Y-117959780D01*
X168869082Y-117954625D01*
X168869081Y-117954619D01*
X168813843Y-117741797D01*
X168813842Y-117741793D01*
X168812501Y-117736628D01*
X168802067Y-117713465D01*
X174244100Y-117713465D01*
X174244338Y-117718930D01*
X174258572Y-117881619D01*
X174260475Y-117892412D01*
X174316864Y-118102861D01*
X174320610Y-118113153D01*
X174412686Y-118310611D01*
X174418169Y-118320107D01*
X174543128Y-118498567D01*
X174550184Y-118506975D01*
X174704225Y-118661016D01*
X174712633Y-118668072D01*
X174891093Y-118793031D01*
X174900589Y-118798514D01*
X175098047Y-118890590D01*
X175108339Y-118894336D01*
X175280603Y-118940494D01*
X175294699Y-118940158D01*
X175298100Y-118932216D01*
X175298100Y-118927067D01*
X175806100Y-118927067D01*
X175810073Y-118940598D01*
X175818622Y-118941827D01*
X175995861Y-118894336D01*
X176006153Y-118890590D01*
X176203611Y-118798514D01*
X176213107Y-118793031D01*
X176391567Y-118668072D01*
X176399975Y-118661016D01*
X176554016Y-118506975D01*
X176561072Y-118498567D01*
X176686031Y-118320107D01*
X176691514Y-118310611D01*
X176707629Y-118276051D01*
X176754546Y-118222766D01*
X176822823Y-118203305D01*
X176890783Y-118223847D01*
X176936019Y-118276051D01*
X176952251Y-118310862D01*
X176952254Y-118310867D01*
X176954577Y-118315849D01*
X176957734Y-118320357D01*
X177069131Y-118479448D01*
X177085902Y-118503400D01*
X177247800Y-118665298D01*
X177252308Y-118668455D01*
X177252311Y-118668457D01*
X177330489Y-118723198D01*
X177435351Y-118796623D01*
X177440333Y-118798946D01*
X177440338Y-118798949D01*
X177636865Y-118890590D01*
X177642857Y-118893384D01*
X177648165Y-118894806D01*
X177648167Y-118894807D01*
X177858698Y-118951219D01*
X177858700Y-118951219D01*
X177864013Y-118952643D01*
X178092100Y-118972598D01*
X178320187Y-118952643D01*
X178325500Y-118951219D01*
X178325502Y-118951219D01*
X178536033Y-118894807D01*
X178536035Y-118894806D01*
X178541343Y-118893384D01*
X178547335Y-118890590D01*
X178743862Y-118798949D01*
X178743867Y-118798946D01*
X178748849Y-118796623D01*
X178853711Y-118723198D01*
X178931889Y-118668457D01*
X178931892Y-118668455D01*
X178936400Y-118665298D01*
X179098298Y-118503400D01*
X179115070Y-118479448D01*
X179226466Y-118320357D01*
X179229623Y-118315849D01*
X179231946Y-118310867D01*
X179231949Y-118310862D01*
X179247905Y-118276643D01*
X179294822Y-118223358D01*
X179363099Y-118203897D01*
X179431059Y-118224439D01*
X179476295Y-118276643D01*
X179492251Y-118310862D01*
X179492254Y-118310867D01*
X179494577Y-118315849D01*
X179497734Y-118320357D01*
X179609131Y-118479448D01*
X179625902Y-118503400D01*
X179787800Y-118665298D01*
X179792308Y-118668455D01*
X179792311Y-118668457D01*
X179870489Y-118723198D01*
X179975351Y-118796623D01*
X179980333Y-118798946D01*
X179980338Y-118798949D01*
X180176865Y-118890590D01*
X180182857Y-118893384D01*
X180188165Y-118894806D01*
X180188167Y-118894807D01*
X180398698Y-118951219D01*
X180398700Y-118951219D01*
X180404013Y-118952643D01*
X180632100Y-118972598D01*
X180860187Y-118952643D01*
X180865500Y-118951219D01*
X180865502Y-118951219D01*
X181076033Y-118894807D01*
X181076035Y-118894806D01*
X181081343Y-118893384D01*
X181087335Y-118890590D01*
X181283862Y-118798949D01*
X181283867Y-118798946D01*
X181288849Y-118796623D01*
X181393711Y-118723198D01*
X181471889Y-118668457D01*
X181471892Y-118668455D01*
X181476400Y-118665298D01*
X181638298Y-118503400D01*
X181655070Y-118479448D01*
X181766466Y-118320357D01*
X181769623Y-118315849D01*
X181771946Y-118310867D01*
X181771949Y-118310862D01*
X181788181Y-118276051D01*
X181835098Y-118222766D01*
X181903375Y-118203305D01*
X181971335Y-118223847D01*
X182016571Y-118276051D01*
X182032686Y-118310611D01*
X182038169Y-118320107D01*
X182163128Y-118498567D01*
X182170184Y-118506975D01*
X182324225Y-118661016D01*
X182332633Y-118668072D01*
X182511093Y-118793031D01*
X182520589Y-118798514D01*
X182718047Y-118890590D01*
X182728339Y-118894336D01*
X182900603Y-118940494D01*
X182914699Y-118940158D01*
X182918100Y-118932216D01*
X182918100Y-118927067D01*
X183426100Y-118927067D01*
X183430073Y-118940598D01*
X183438622Y-118941827D01*
X183615861Y-118894336D01*
X183626153Y-118890590D01*
X183823611Y-118798514D01*
X183833107Y-118793031D01*
X184011567Y-118668072D01*
X184019975Y-118661016D01*
X184174016Y-118506975D01*
X184181072Y-118498567D01*
X184306031Y-118320107D01*
X184311514Y-118310611D01*
X184403590Y-118113153D01*
X184407336Y-118102861D01*
X184463725Y-117892412D01*
X184465628Y-117881619D01*
X184479862Y-117718930D01*
X184480100Y-117713465D01*
X185420100Y-117713465D01*
X185420338Y-117718930D01*
X185434572Y-117881619D01*
X185436475Y-117892412D01*
X185492864Y-118102861D01*
X185496610Y-118113153D01*
X185588686Y-118310611D01*
X185594169Y-118320107D01*
X185719128Y-118498567D01*
X185726184Y-118506975D01*
X185880225Y-118661016D01*
X185888633Y-118668072D01*
X186067093Y-118793031D01*
X186076589Y-118798514D01*
X186274047Y-118890590D01*
X186284339Y-118894336D01*
X186456603Y-118940494D01*
X186470699Y-118940158D01*
X186474100Y-118932216D01*
X186474100Y-118927067D01*
X186982100Y-118927067D01*
X186986073Y-118940598D01*
X186994622Y-118941827D01*
X187171861Y-118894336D01*
X187182153Y-118890590D01*
X187379611Y-118798514D01*
X187389107Y-118793031D01*
X187567567Y-118668072D01*
X187575975Y-118661016D01*
X187730016Y-118506975D01*
X187737072Y-118498567D01*
X187862031Y-118320107D01*
X187867514Y-118310611D01*
X187883629Y-118276051D01*
X187930546Y-118222766D01*
X187998823Y-118203305D01*
X188066783Y-118223847D01*
X188112019Y-118276051D01*
X188128251Y-118310862D01*
X188128254Y-118310867D01*
X188130577Y-118315849D01*
X188133734Y-118320357D01*
X188245131Y-118479448D01*
X188261902Y-118503400D01*
X188423800Y-118665298D01*
X188428308Y-118668455D01*
X188428311Y-118668457D01*
X188506489Y-118723198D01*
X188611351Y-118796623D01*
X188616333Y-118798946D01*
X188616338Y-118798949D01*
X188812865Y-118890590D01*
X188818857Y-118893384D01*
X188824165Y-118894806D01*
X188824167Y-118894807D01*
X189034698Y-118951219D01*
X189034700Y-118951219D01*
X189040013Y-118952643D01*
X189268100Y-118972598D01*
X189496187Y-118952643D01*
X189501500Y-118951219D01*
X189501502Y-118951219D01*
X189712033Y-118894807D01*
X189712035Y-118894806D01*
X189717343Y-118893384D01*
X189723335Y-118890590D01*
X189919862Y-118798949D01*
X189919867Y-118798946D01*
X189924849Y-118796623D01*
X190029711Y-118723198D01*
X190107889Y-118668457D01*
X190107892Y-118668455D01*
X190112400Y-118665298D01*
X190274298Y-118503400D01*
X190291070Y-118479448D01*
X190402466Y-118320357D01*
X190405623Y-118315849D01*
X190407946Y-118310867D01*
X190407949Y-118310862D01*
X190423905Y-118276643D01*
X190470822Y-118223358D01*
X190539099Y-118203897D01*
X190607059Y-118224439D01*
X190652295Y-118276643D01*
X190668251Y-118310862D01*
X190668254Y-118310867D01*
X190670577Y-118315849D01*
X190673734Y-118320357D01*
X190785131Y-118479448D01*
X190801902Y-118503400D01*
X190963800Y-118665298D01*
X190968308Y-118668455D01*
X190968311Y-118668457D01*
X191046489Y-118723198D01*
X191151351Y-118796623D01*
X191156333Y-118798946D01*
X191156338Y-118798949D01*
X191352865Y-118890590D01*
X191358857Y-118893384D01*
X191364165Y-118894806D01*
X191364167Y-118894807D01*
X191574698Y-118951219D01*
X191574700Y-118951219D01*
X191580013Y-118952643D01*
X191808100Y-118972598D01*
X192036187Y-118952643D01*
X192041500Y-118951219D01*
X192041502Y-118951219D01*
X192252033Y-118894807D01*
X192252035Y-118894806D01*
X192257343Y-118893384D01*
X192263335Y-118890590D01*
X192459862Y-118798949D01*
X192459867Y-118798946D01*
X192464849Y-118796623D01*
X192569711Y-118723198D01*
X192647889Y-118668457D01*
X192647892Y-118668455D01*
X192652400Y-118665298D01*
X192814298Y-118503400D01*
X192831070Y-118479448D01*
X192942466Y-118320357D01*
X192945623Y-118315849D01*
X192947946Y-118310867D01*
X192947949Y-118310862D01*
X192964181Y-118276051D01*
X193011098Y-118222766D01*
X193079375Y-118203305D01*
X193147335Y-118223847D01*
X193192571Y-118276051D01*
X193208686Y-118310611D01*
X193214169Y-118320107D01*
X193339128Y-118498567D01*
X193346184Y-118506975D01*
X193500225Y-118661016D01*
X193508633Y-118668072D01*
X193687093Y-118793031D01*
X193696589Y-118798514D01*
X193894047Y-118890590D01*
X193904339Y-118894336D01*
X194076603Y-118940494D01*
X194090699Y-118940158D01*
X194094100Y-118932216D01*
X194094100Y-118927067D01*
X194602100Y-118927067D01*
X194606073Y-118940598D01*
X194614622Y-118941827D01*
X194791861Y-118894336D01*
X194802153Y-118890590D01*
X194999611Y-118798514D01*
X195009107Y-118793031D01*
X195187567Y-118668072D01*
X195195975Y-118661016D01*
X195350016Y-118506975D01*
X195357072Y-118498567D01*
X195482031Y-118320107D01*
X195487514Y-118310611D01*
X195579590Y-118113153D01*
X195583336Y-118102861D01*
X195639725Y-117892412D01*
X195641628Y-117881619D01*
X195655862Y-117718930D01*
X195656100Y-117713465D01*
X195656100Y-117531215D01*
X195651625Y-117515976D01*
X195650235Y-117514771D01*
X195642552Y-117513100D01*
X194620215Y-117513100D01*
X194604976Y-117517575D01*
X194603771Y-117518965D01*
X194602100Y-117526648D01*
X194602100Y-118927067D01*
X194094100Y-118927067D01*
X194094100Y-116986985D01*
X194602100Y-116986985D01*
X194606575Y-117002224D01*
X194607965Y-117003429D01*
X194615648Y-117005100D01*
X195637985Y-117005100D01*
X195653224Y-117000625D01*
X195654429Y-116999235D01*
X195656100Y-116991552D01*
X195656100Y-116804735D01*
X195655862Y-116799270D01*
X195641628Y-116636581D01*
X195639725Y-116625788D01*
X195583336Y-116415339D01*
X195579590Y-116405047D01*
X195487514Y-116207589D01*
X195482031Y-116198093D01*
X195357072Y-116019633D01*
X195350016Y-116011225D01*
X195195975Y-115857184D01*
X195187567Y-115850128D01*
X195009107Y-115725169D01*
X194999611Y-115719686D01*
X194802153Y-115627610D01*
X194791861Y-115623864D01*
X194619597Y-115577706D01*
X194605501Y-115578042D01*
X194602100Y-115585984D01*
X194602100Y-116986985D01*
X194094100Y-116986985D01*
X194094100Y-115591133D01*
X194090127Y-115577602D01*
X194081578Y-115576373D01*
X193904339Y-115623864D01*
X193894047Y-115627610D01*
X193696589Y-115719686D01*
X193687093Y-115725169D01*
X193508633Y-115850128D01*
X193500225Y-115857184D01*
X193346184Y-116011225D01*
X193339128Y-116019633D01*
X193214169Y-116198093D01*
X193208686Y-116207589D01*
X193192571Y-116242149D01*
X193145654Y-116295434D01*
X193077377Y-116314895D01*
X193009417Y-116294353D01*
X192964181Y-116242149D01*
X192947949Y-116207338D01*
X192947946Y-116207333D01*
X192945623Y-116202351D01*
X192832686Y-116041061D01*
X192817457Y-116019311D01*
X192817455Y-116019308D01*
X192814298Y-116014800D01*
X192652400Y-115852902D01*
X192647892Y-115849745D01*
X192647889Y-115849743D01*
X192522210Y-115761742D01*
X192464849Y-115721577D01*
X192459867Y-115719254D01*
X192459862Y-115719251D01*
X192262325Y-115627139D01*
X192262324Y-115627139D01*
X192257343Y-115624816D01*
X192252035Y-115623394D01*
X192252033Y-115623393D01*
X192041502Y-115566981D01*
X192041500Y-115566981D01*
X192036187Y-115565557D01*
X191808100Y-115545602D01*
X191580013Y-115565557D01*
X191574700Y-115566981D01*
X191574698Y-115566981D01*
X191364167Y-115623393D01*
X191364165Y-115623394D01*
X191358857Y-115624816D01*
X191353876Y-115627139D01*
X191353875Y-115627139D01*
X191156338Y-115719251D01*
X191156333Y-115719254D01*
X191151351Y-115721577D01*
X191093990Y-115761742D01*
X190968311Y-115849743D01*
X190968308Y-115849745D01*
X190963800Y-115852902D01*
X190801902Y-116014800D01*
X190798745Y-116019308D01*
X190798743Y-116019311D01*
X190783514Y-116041061D01*
X190670577Y-116202351D01*
X190668254Y-116207333D01*
X190668251Y-116207338D01*
X190652295Y-116241557D01*
X190605378Y-116294842D01*
X190537101Y-116314303D01*
X190469141Y-116293761D01*
X190423905Y-116241557D01*
X190407949Y-116207338D01*
X190407946Y-116207333D01*
X190405623Y-116202351D01*
X190292686Y-116041061D01*
X190277457Y-116019311D01*
X190277455Y-116019308D01*
X190274298Y-116014800D01*
X190112400Y-115852902D01*
X190107892Y-115849745D01*
X190107889Y-115849743D01*
X189982210Y-115761742D01*
X189924849Y-115721577D01*
X189919867Y-115719254D01*
X189919862Y-115719251D01*
X189722325Y-115627139D01*
X189722324Y-115627139D01*
X189717343Y-115624816D01*
X189712035Y-115623394D01*
X189712033Y-115623393D01*
X189501502Y-115566981D01*
X189501500Y-115566981D01*
X189496187Y-115565557D01*
X189268100Y-115545602D01*
X189040013Y-115565557D01*
X189034700Y-115566981D01*
X189034698Y-115566981D01*
X188824167Y-115623393D01*
X188824165Y-115623394D01*
X188818857Y-115624816D01*
X188813876Y-115627139D01*
X188813875Y-115627139D01*
X188616338Y-115719251D01*
X188616333Y-115719254D01*
X188611351Y-115721577D01*
X188553990Y-115761742D01*
X188428311Y-115849743D01*
X188428308Y-115849745D01*
X188423800Y-115852902D01*
X188261902Y-116014800D01*
X188258745Y-116019308D01*
X188258743Y-116019311D01*
X188243514Y-116041061D01*
X188130577Y-116202351D01*
X188128254Y-116207333D01*
X188128251Y-116207338D01*
X188112019Y-116242149D01*
X188065102Y-116295434D01*
X187996825Y-116314895D01*
X187928865Y-116294353D01*
X187883629Y-116242149D01*
X187867514Y-116207589D01*
X187862031Y-116198093D01*
X187737072Y-116019633D01*
X187730016Y-116011225D01*
X187575975Y-115857184D01*
X187567567Y-115850128D01*
X187389107Y-115725169D01*
X187379611Y-115719686D01*
X187182153Y-115627610D01*
X187171861Y-115623864D01*
X186999597Y-115577706D01*
X186985501Y-115578042D01*
X186982100Y-115585984D01*
X186982100Y-118927067D01*
X186474100Y-118927067D01*
X186474100Y-117531215D01*
X186469625Y-117515976D01*
X186468235Y-117514771D01*
X186460552Y-117513100D01*
X185438215Y-117513100D01*
X185422976Y-117517575D01*
X185421771Y-117518965D01*
X185420100Y-117526648D01*
X185420100Y-117713465D01*
X184480100Y-117713465D01*
X184480100Y-117531215D01*
X184475625Y-117515976D01*
X184474235Y-117514771D01*
X184466552Y-117513100D01*
X183444215Y-117513100D01*
X183428976Y-117517575D01*
X183427771Y-117518965D01*
X183426100Y-117526648D01*
X183426100Y-118927067D01*
X182918100Y-118927067D01*
X182918100Y-116986985D01*
X183426100Y-116986985D01*
X183430575Y-117002224D01*
X183431965Y-117003429D01*
X183439648Y-117005100D01*
X184461985Y-117005100D01*
X184477224Y-117000625D01*
X184478429Y-116999235D01*
X184480100Y-116991552D01*
X184480100Y-116986985D01*
X185420100Y-116986985D01*
X185424575Y-117002224D01*
X185425965Y-117003429D01*
X185433648Y-117005100D01*
X186455985Y-117005100D01*
X186471224Y-117000625D01*
X186472429Y-116999235D01*
X186474100Y-116991552D01*
X186474100Y-115591133D01*
X186470127Y-115577602D01*
X186461578Y-115576373D01*
X186284339Y-115623864D01*
X186274047Y-115627610D01*
X186076589Y-115719686D01*
X186067093Y-115725169D01*
X185888633Y-115850128D01*
X185880225Y-115857184D01*
X185726184Y-116011225D01*
X185719128Y-116019633D01*
X185594169Y-116198093D01*
X185588686Y-116207589D01*
X185496610Y-116405047D01*
X185492864Y-116415339D01*
X185436475Y-116625788D01*
X185434572Y-116636581D01*
X185420338Y-116799270D01*
X185420100Y-116804735D01*
X185420100Y-116986985D01*
X184480100Y-116986985D01*
X184480100Y-116804735D01*
X184479862Y-116799270D01*
X184465628Y-116636581D01*
X184463725Y-116625788D01*
X184407336Y-116415339D01*
X184403590Y-116405047D01*
X184311514Y-116207589D01*
X184306031Y-116198093D01*
X184181072Y-116019633D01*
X184174016Y-116011225D01*
X184019975Y-115857184D01*
X184011567Y-115850128D01*
X183833107Y-115725169D01*
X183823611Y-115719686D01*
X183626153Y-115627610D01*
X183615861Y-115623864D01*
X183443597Y-115577706D01*
X183429501Y-115578042D01*
X183426100Y-115585984D01*
X183426100Y-116986985D01*
X182918100Y-116986985D01*
X182918100Y-115591133D01*
X182914127Y-115577602D01*
X182905578Y-115576373D01*
X182728339Y-115623864D01*
X182718047Y-115627610D01*
X182520589Y-115719686D01*
X182511093Y-115725169D01*
X182332633Y-115850128D01*
X182324225Y-115857184D01*
X182170184Y-116011225D01*
X182163128Y-116019633D01*
X182038169Y-116198093D01*
X182032686Y-116207589D01*
X182016571Y-116242149D01*
X181969654Y-116295434D01*
X181901377Y-116314895D01*
X181833417Y-116294353D01*
X181788181Y-116242149D01*
X181771949Y-116207338D01*
X181771946Y-116207333D01*
X181769623Y-116202351D01*
X181656686Y-116041061D01*
X181641457Y-116019311D01*
X181641455Y-116019308D01*
X181638298Y-116014800D01*
X181476400Y-115852902D01*
X181471892Y-115849745D01*
X181471889Y-115849743D01*
X181346210Y-115761742D01*
X181288849Y-115721577D01*
X181283867Y-115719254D01*
X181283862Y-115719251D01*
X181086325Y-115627139D01*
X181086324Y-115627139D01*
X181081343Y-115624816D01*
X181076035Y-115623394D01*
X181076033Y-115623393D01*
X180865502Y-115566981D01*
X180865500Y-115566981D01*
X180860187Y-115565557D01*
X180632100Y-115545602D01*
X180404013Y-115565557D01*
X180398700Y-115566981D01*
X180398698Y-115566981D01*
X180188167Y-115623393D01*
X180188165Y-115623394D01*
X180182857Y-115624816D01*
X180177876Y-115627139D01*
X180177875Y-115627139D01*
X179980338Y-115719251D01*
X179980333Y-115719254D01*
X179975351Y-115721577D01*
X179917990Y-115761742D01*
X179792311Y-115849743D01*
X179792308Y-115849745D01*
X179787800Y-115852902D01*
X179625902Y-116014800D01*
X179622745Y-116019308D01*
X179622743Y-116019311D01*
X179607514Y-116041061D01*
X179494577Y-116202351D01*
X179492254Y-116207333D01*
X179492251Y-116207338D01*
X179476295Y-116241557D01*
X179429378Y-116294842D01*
X179361101Y-116314303D01*
X179293141Y-116293761D01*
X179247905Y-116241557D01*
X179231949Y-116207338D01*
X179231946Y-116207333D01*
X179229623Y-116202351D01*
X179116686Y-116041061D01*
X179101457Y-116019311D01*
X179101455Y-116019308D01*
X179098298Y-116014800D01*
X178936400Y-115852902D01*
X178931892Y-115849745D01*
X178931889Y-115849743D01*
X178806210Y-115761742D01*
X178748849Y-115721577D01*
X178743867Y-115719254D01*
X178743862Y-115719251D01*
X178546325Y-115627139D01*
X178546324Y-115627139D01*
X178541343Y-115624816D01*
X178536035Y-115623394D01*
X178536033Y-115623393D01*
X178325502Y-115566981D01*
X178325500Y-115566981D01*
X178320187Y-115565557D01*
X178092100Y-115545602D01*
X177864013Y-115565557D01*
X177858700Y-115566981D01*
X177858698Y-115566981D01*
X177648167Y-115623393D01*
X177648165Y-115623394D01*
X177642857Y-115624816D01*
X177637876Y-115627139D01*
X177637875Y-115627139D01*
X177440338Y-115719251D01*
X177440333Y-115719254D01*
X177435351Y-115721577D01*
X177377990Y-115761742D01*
X177252311Y-115849743D01*
X177252308Y-115849745D01*
X177247800Y-115852902D01*
X177085902Y-116014800D01*
X177082745Y-116019308D01*
X177082743Y-116019311D01*
X177067514Y-116041061D01*
X176954577Y-116202351D01*
X176952254Y-116207333D01*
X176952251Y-116207338D01*
X176936019Y-116242149D01*
X176889102Y-116295434D01*
X176820825Y-116314895D01*
X176752865Y-116294353D01*
X176707629Y-116242149D01*
X176691514Y-116207589D01*
X176686031Y-116198093D01*
X176561072Y-116019633D01*
X176554016Y-116011225D01*
X176399975Y-115857184D01*
X176391567Y-115850128D01*
X176213107Y-115725169D01*
X176203611Y-115719686D01*
X176006153Y-115627610D01*
X175995861Y-115623864D01*
X175823597Y-115577706D01*
X175809501Y-115578042D01*
X175806100Y-115585984D01*
X175806100Y-118927067D01*
X175298100Y-118927067D01*
X175298100Y-117531215D01*
X175293625Y-117515976D01*
X175292235Y-117514771D01*
X175284552Y-117513100D01*
X174262215Y-117513100D01*
X174246976Y-117517575D01*
X174245771Y-117518965D01*
X174244100Y-117526648D01*
X174244100Y-117713465D01*
X168802067Y-117713465D01*
X168717812Y-117526425D01*
X168589059Y-117335181D01*
X168530418Y-117273709D01*
X168501225Y-117243108D01*
X168429924Y-117168365D01*
X168387192Y-117136571D01*
X168249240Y-117033932D01*
X168249241Y-117033932D01*
X168244958Y-117030746D01*
X168240207Y-117028330D01*
X168240203Y-117028328D01*
X168158886Y-116986985D01*
X174244100Y-116986985D01*
X174248575Y-117002224D01*
X174249965Y-117003429D01*
X174257648Y-117005100D01*
X175279985Y-117005100D01*
X175295224Y-117000625D01*
X175296429Y-116999235D01*
X175298100Y-116991552D01*
X175298100Y-115591133D01*
X175294127Y-115577602D01*
X175285578Y-115576373D01*
X175108339Y-115623864D01*
X175098047Y-115627610D01*
X174900589Y-115719686D01*
X174891093Y-115725169D01*
X174712633Y-115850128D01*
X174704225Y-115857184D01*
X174550184Y-116011225D01*
X174543128Y-116019633D01*
X174418169Y-116198093D01*
X174412686Y-116207589D01*
X174320610Y-116405047D01*
X174316864Y-116415339D01*
X174260475Y-116625788D01*
X174258572Y-116636581D01*
X174244338Y-116799270D01*
X174244100Y-116804735D01*
X174244100Y-116986985D01*
X168158886Y-116986985D01*
X168118231Y-116966315D01*
X168039449Y-116926260D01*
X168034355Y-116924678D01*
X168034352Y-116924677D01*
X167824371Y-116859476D01*
X167819273Y-116857893D01*
X167813984Y-116857192D01*
X167596011Y-116828302D01*
X167596006Y-116828302D01*
X167590726Y-116827602D01*
X167585397Y-116827802D01*
X167585395Y-116827802D01*
X167475534Y-116831927D01*
X167360342Y-116836251D01*
X167355123Y-116837346D01*
X167333066Y-116841974D01*
X167134709Y-116883593D01*
X167129750Y-116885551D01*
X167129748Y-116885552D01*
X166925244Y-116966315D01*
X166925242Y-116966316D01*
X166920279Y-116968276D01*
X166915720Y-116971043D01*
X166915717Y-116971044D01*
X166817332Y-117030746D01*
X166723183Y-117087877D01*
X166719153Y-117091374D01*
X166625984Y-117172222D01*
X166549055Y-117238977D01*
X166545668Y-117243108D01*
X166406260Y-117413127D01*
X166406256Y-117413133D01*
X166402876Y-117417255D01*
X166384948Y-117448750D01*
X166333868Y-117498055D01*
X166264238Y-117511917D01*
X166198167Y-117485934D01*
X166170927Y-117456784D01*
X166092039Y-117339608D01*
X166089059Y-117335181D01*
X166030418Y-117273709D01*
X166001225Y-117243108D01*
X165929924Y-117168365D01*
X165887192Y-117136571D01*
X165749240Y-117033932D01*
X165749241Y-117033932D01*
X165744958Y-117030746D01*
X165740207Y-117028330D01*
X165740203Y-117028328D01*
X165618231Y-116966315D01*
X165539449Y-116926260D01*
X165534355Y-116924678D01*
X165534352Y-116924677D01*
X165324371Y-116859476D01*
X165319273Y-116857893D01*
X165313984Y-116857192D01*
X165096011Y-116828302D01*
X165096006Y-116828302D01*
X165090726Y-116827602D01*
X165085397Y-116827802D01*
X165085395Y-116827802D01*
X164975534Y-116831927D01*
X164860342Y-116836251D01*
X164855123Y-116837346D01*
X164833066Y-116841974D01*
X164634709Y-116883593D01*
X164629750Y-116885551D01*
X164629748Y-116885552D01*
X164425244Y-116966315D01*
X164425242Y-116966316D01*
X164420279Y-116968276D01*
X164415720Y-116971043D01*
X164415717Y-116971044D01*
X164317332Y-117030746D01*
X164223183Y-117087877D01*
X164219153Y-117091374D01*
X164125984Y-117172222D01*
X164049055Y-117238977D01*
X164045668Y-117243108D01*
X163906260Y-117413127D01*
X163906256Y-117413133D01*
X163902876Y-117417255D01*
X163884948Y-117448750D01*
X163833868Y-117498055D01*
X163764238Y-117511917D01*
X163698167Y-117485934D01*
X163670927Y-117456784D01*
X163592039Y-117339608D01*
X163589059Y-117335181D01*
X163530418Y-117273709D01*
X163501225Y-117243108D01*
X163429924Y-117168365D01*
X163387192Y-117136571D01*
X163249240Y-117033932D01*
X163249241Y-117033932D01*
X163244958Y-117030746D01*
X163240207Y-117028330D01*
X163240203Y-117028328D01*
X163118231Y-116966315D01*
X163039449Y-116926260D01*
X163034355Y-116924678D01*
X163034352Y-116924677D01*
X162824371Y-116859476D01*
X162819273Y-116857893D01*
X162813984Y-116857192D01*
X162596011Y-116828302D01*
X162596006Y-116828302D01*
X162590726Y-116827602D01*
X162585397Y-116827802D01*
X162585395Y-116827802D01*
X162475534Y-116831927D01*
X162360342Y-116836251D01*
X162355123Y-116837346D01*
X162333066Y-116841974D01*
X162134709Y-116883593D01*
X162129750Y-116885551D01*
X162129748Y-116885552D01*
X161925244Y-116966315D01*
X161925242Y-116966316D01*
X161920279Y-116968276D01*
X161915720Y-116971043D01*
X161915717Y-116971044D01*
X161817332Y-117030746D01*
X161723183Y-117087877D01*
X161719153Y-117091374D01*
X161625984Y-117172222D01*
X161549055Y-117238977D01*
X161519830Y-117274620D01*
X161461171Y-117314614D01*
X161390201Y-117316546D01*
X161329452Y-117279802D01*
X161315252Y-117261032D01*
X161228832Y-117121380D01*
X161224978Y-117115152D01*
X161099803Y-116990195D01*
X161093572Y-116986354D01*
X160955468Y-116901225D01*
X160955466Y-116901224D01*
X160949238Y-116897385D01*
X160869495Y-116870936D01*
X160787889Y-116843868D01*
X160787887Y-116843868D01*
X160781361Y-116841703D01*
X160774525Y-116841003D01*
X160774522Y-116841002D01*
X160731469Y-116836591D01*
X160676900Y-116831000D01*
X159376100Y-116831000D01*
X159372854Y-116831337D01*
X159372850Y-116831337D01*
X159277192Y-116841262D01*
X159277188Y-116841263D01*
X159270334Y-116841974D01*
X159263798Y-116844155D01*
X159263796Y-116844155D01*
X159224720Y-116857192D01*
X159102554Y-116897950D01*
X158952152Y-116991022D01*
X158946979Y-116996204D01*
X158914911Y-117028328D01*
X158827195Y-117116197D01*
X158823355Y-117122427D01*
X158823354Y-117122428D01*
X158748966Y-117243108D01*
X158734385Y-117266762D01*
X158712972Y-117331322D01*
X158682932Y-117421890D01*
X158678703Y-117434639D01*
X158668000Y-117539100D01*
X158668000Y-119089900D01*
X156439000Y-119089900D01*
X156439000Y-119067366D01*
X156432245Y-119005184D01*
X156381115Y-118868795D01*
X156293761Y-118752239D01*
X156181101Y-118667805D01*
X156138587Y-118610947D01*
X156133561Y-118540128D01*
X156165929Y-118479646D01*
X156169155Y-118476802D01*
X156297865Y-118320107D01*
X156320026Y-118293128D01*
X156320028Y-118293125D01*
X156323234Y-118289222D01*
X156414967Y-118131610D01*
X156442799Y-118083790D01*
X156442800Y-118083788D01*
X156445341Y-118079422D01*
X156517127Y-117892412D01*
X156530520Y-117857522D01*
X156530521Y-117857518D01*
X156532333Y-117852798D01*
X156533368Y-117847845D01*
X156580940Y-117620131D01*
X156580940Y-117620127D01*
X156581974Y-117615180D01*
X156592986Y-117372683D01*
X156588647Y-117335181D01*
X156565667Y-117136571D01*
X156565666Y-117136567D01*
X156565085Y-117131544D01*
X156562506Y-117122428D01*
X156500366Y-116902831D01*
X156498990Y-116897968D01*
X156496856Y-116893392D01*
X156496854Y-116893386D01*
X156398538Y-116682546D01*
X156398536Y-116682542D01*
X156396401Y-116677964D01*
X156259956Y-116477193D01*
X156093168Y-116300819D01*
X156086125Y-116295434D01*
X155904346Y-116156453D01*
X155904342Y-116156450D01*
X155900326Y-116153380D01*
X155810945Y-116105454D01*
X155690852Y-116041061D01*
X155686391Y-116038669D01*
X155456869Y-115959638D01*
X155339684Y-115939397D01*
X155221574Y-115918996D01*
X155221568Y-115918995D01*
X155217664Y-115918321D01*
X155213703Y-115918141D01*
X155213702Y-115918141D01*
X155189994Y-115917064D01*
X155189975Y-115917064D01*
X155188575Y-115917000D01*
X153545494Y-115917000D01*
X153541976Y-115916951D01*
X153447328Y-115914307D01*
X153447325Y-115914307D01*
X153442273Y-115914166D01*
X153364380Y-115924559D01*
X153357839Y-115925258D01*
X153329146Y-115927567D01*
X153284555Y-115931154D01*
X153284551Y-115931155D01*
X153279513Y-115931560D01*
X153247600Y-115939399D01*
X153234220Y-115941926D01*
X153201658Y-115946271D01*
X153196817Y-115947732D01*
X153196815Y-115947733D01*
X153126449Y-115968978D01*
X153120088Y-115970719D01*
X153043772Y-115989463D01*
X153039112Y-115991441D01*
X153013527Y-116002301D01*
X153000717Y-116006938D01*
X152969270Y-116016433D01*
X152964722Y-116018651D01*
X152964715Y-116018654D01*
X152898660Y-116050871D01*
X152892658Y-116053607D01*
X152847974Y-116072575D01*
X152820322Y-116084312D01*
X152796010Y-116099623D01*
X152792522Y-116101819D01*
X152780618Y-116108445D01*
X152751090Y-116122846D01*
X152703450Y-116156453D01*
X152686881Y-116168141D01*
X152681392Y-116171801D01*
X152619192Y-116210971D01*
X152614911Y-116213667D01*
X152611122Y-116217008D01*
X152611116Y-116217012D01*
X152590261Y-116235398D01*
X152579566Y-116243844D01*
X152552731Y-116262774D01*
X152531228Y-116282409D01*
X152491512Y-116322125D01*
X152485742Y-116327544D01*
X152436620Y-116370850D01*
X152436617Y-116370853D01*
X152432823Y-116374198D01*
X152429613Y-116378106D01*
X152429612Y-116378107D01*
X152406299Y-116406489D01*
X152398029Y-116415608D01*
X148086434Y-120727203D01*
X148083912Y-120729657D01*
X148011419Y-120798210D01*
X147963692Y-120860635D01*
X147959548Y-120865770D01*
X147908630Y-120925598D01*
X147906011Y-120929923D01*
X147906007Y-120929928D01*
X147891609Y-120953702D01*
X147883937Y-120964949D01*
X147863980Y-120991052D01*
X147830337Y-121053797D01*
X147826861Y-121060279D01*
X147823596Y-121066004D01*
X147782879Y-121133236D01*
X147780984Y-121137927D01*
X147770573Y-121163695D01*
X147764793Y-121176036D01*
X147749269Y-121204987D01*
X147747623Y-121209768D01*
X147747621Y-121209772D01*
X147723688Y-121279279D01*
X147721378Y-121285457D01*
X147691945Y-121358307D01*
X147690823Y-121363246D01*
X147684668Y-121390338D01*
X147680937Y-121403437D01*
X147670238Y-121434509D01*
X147656857Y-121511978D01*
X147655577Y-121518382D01*
X147638165Y-121595022D01*
X147636101Y-121627831D01*
X147634515Y-121641331D01*
X147628921Y-121673714D01*
X147627600Y-121702803D01*
X147627600Y-121758986D01*
X147627351Y-121766897D01*
X147622922Y-121837291D01*
X146050000Y-121837291D01*
X146050000Y-115547513D01*
X148396642Y-115547513D01*
X148405938Y-115559528D01*
X148462546Y-115599165D01*
X148472041Y-115604648D01*
X148673464Y-115698572D01*
X148683756Y-115702318D01*
X148898428Y-115759839D01*
X148909223Y-115761742D01*
X149130625Y-115781113D01*
X149141575Y-115781113D01*
X149362977Y-115761742D01*
X149373772Y-115759839D01*
X149588444Y-115702318D01*
X149598736Y-115698572D01*
X149800159Y-115604648D01*
X149809654Y-115599165D01*
X149867100Y-115558941D01*
X149875475Y-115548464D01*
X149868407Y-115535017D01*
X149148912Y-114815522D01*
X149134968Y-114807908D01*
X149133135Y-114808039D01*
X149126520Y-114812290D01*
X148403072Y-115535738D01*
X148396642Y-115547513D01*
X146050000Y-115547513D01*
X146050000Y-114448975D01*
X147798487Y-114448975D01*
X147817858Y-114670377D01*
X147819761Y-114681172D01*
X147877282Y-114895844D01*
X147881028Y-114906136D01*
X147974952Y-115107559D01*
X147980435Y-115117054D01*
X148020659Y-115174500D01*
X148031136Y-115182875D01*
X148044583Y-115175807D01*
X148764078Y-114456312D01*
X148770456Y-114444632D01*
X149500508Y-114444632D01*
X149500639Y-114446465D01*
X149504890Y-114453080D01*
X150228338Y-115176528D01*
X150240113Y-115182958D01*
X150252128Y-115173662D01*
X150291765Y-115117054D01*
X150297248Y-115107559D01*
X150391172Y-114906136D01*
X150394918Y-114895844D01*
X150452439Y-114681172D01*
X150454342Y-114670377D01*
X150473713Y-114448975D01*
X150473713Y-114438025D01*
X150454342Y-114216623D01*
X150452439Y-114205828D01*
X150394918Y-113991156D01*
X150391172Y-113980864D01*
X150297248Y-113779441D01*
X150291765Y-113769946D01*
X150251541Y-113712500D01*
X150241064Y-113704125D01*
X150227617Y-113711193D01*
X149508122Y-114430688D01*
X149500508Y-114444632D01*
X148770456Y-114444632D01*
X148771692Y-114442368D01*
X148771561Y-114440535D01*
X148767310Y-114433920D01*
X148043862Y-113710472D01*
X148032087Y-113704042D01*
X148020072Y-113713338D01*
X147980435Y-113769946D01*
X147974952Y-113779441D01*
X147881028Y-113980864D01*
X147877282Y-113991156D01*
X147819761Y-114205828D01*
X147817858Y-114216623D01*
X147798487Y-114438025D01*
X147798487Y-114448975D01*
X146050000Y-114448975D01*
X146050000Y-113338536D01*
X148396725Y-113338536D01*
X148403793Y-113351983D01*
X149123288Y-114071478D01*
X149137232Y-114079092D01*
X149139065Y-114078961D01*
X149145680Y-114074710D01*
X149869128Y-113351262D01*
X149875558Y-113339487D01*
X149866262Y-113327472D01*
X149809654Y-113287835D01*
X149800159Y-113282352D01*
X149598736Y-113188428D01*
X149588444Y-113184682D01*
X149373772Y-113127161D01*
X149362977Y-113125258D01*
X149141575Y-113105887D01*
X149130625Y-113105887D01*
X148909223Y-113125258D01*
X148898428Y-113127161D01*
X148683756Y-113184682D01*
X148673464Y-113188428D01*
X148472041Y-113282352D01*
X148462546Y-113287835D01*
X148405100Y-113328059D01*
X148396725Y-113338536D01*
X146050000Y-113338536D01*
X146050000Y-108057496D01*
X146070002Y-107989375D01*
X146123658Y-107942882D01*
X146176078Y-107931496D01*
X171387078Y-107947005D01*
G37*
G04 #@! TD.AperFunction*
M02*
