G04 Layer: TopSilkLayer*
G04 EasyEDA v6.4.21, 2021-08-30T13:38:49+01:00*
G04 675468226515401a9f91b2405e789893,c56e7913202049aab2d2ce8198c124d2,10*
G04 Gerber Generator version 0.2*
G04 Scale: 100 percent, Rotated: No, Reflected: No *
G04 Dimensions in millimeters *
G04 leading zeros omitted , absolute positions ,4 integer and 5 decimal *
%FSLAX45Y45*%
%MOMM*%

%ADD10C,0.2540*%
%ADD13C,0.5000*%
%ADD32C,0.1524*%
%ADD33C,0.3000*%
%ADD34C,0.2032*%
%ADD35C,0.2030*%
%ADD36C,0.2000*%
%ADD37C,0.1778*%

%LPD*%
D13*
X282194Y-959357D02*
G01*
X663955Y-1104900D01*
X282194Y-959357D02*
G01*
X663955Y-814070D01*
X536702Y-1050289D02*
G01*
X536702Y-868426D01*
X373126Y-421386D02*
G01*
X336804Y-439420D01*
X300228Y-475742D01*
X282194Y-512063D01*
X282194Y-584962D01*
X300228Y-621284D01*
X336804Y-657605D01*
X373126Y-675894D01*
X427736Y-693928D01*
X518413Y-693928D01*
X573023Y-675894D01*
X609345Y-657605D01*
X645921Y-621284D01*
X663955Y-584962D01*
X663955Y-512063D01*
X645921Y-475742D01*
X609345Y-439420D01*
X573023Y-421386D01*
X282194Y-21336D02*
G01*
X663955Y-21336D01*
X282194Y98805D02*
G01*
X663955Y98805D01*
X282194Y98805D02*
G01*
X663955Y353313D01*
X282194Y353313D02*
G01*
X663955Y353313D01*
X282194Y473202D02*
G01*
X663955Y473202D01*
X282194Y473202D02*
G01*
X282194Y637031D01*
X300228Y691387D01*
X318515Y709676D01*
X354837Y727710D01*
X409447Y727710D01*
X445770Y709676D01*
X464057Y691387D01*
X482092Y637031D01*
X482092Y473202D01*
X282194Y847852D02*
G01*
X554989Y847852D01*
X609345Y865886D01*
X645921Y902462D01*
X663955Y956818D01*
X663955Y993394D01*
X645921Y1047750D01*
X609345Y1084071D01*
X554989Y1102360D01*
X282194Y1102360D01*
X282194Y1349755D02*
G01*
X663955Y1349755D01*
X282194Y1222247D02*
G01*
X282194Y1477010D01*
X2146300Y-1209294D02*
G01*
X2146300Y-1591055D01*
X2146300Y-1591055D02*
G01*
X2364486Y-1591055D01*
X584200Y-1234694D02*
G01*
X584200Y-1616455D01*
X584200Y-1234694D02*
G01*
X838707Y-1616455D01*
X838707Y-1234694D02*
G01*
X838707Y-1616455D01*
X2941065Y-1374394D02*
G01*
X2904743Y-1392428D01*
X2868422Y-1429004D01*
X2850388Y-1465326D01*
X2832100Y-1519936D01*
X2832100Y-1610613D01*
X2850388Y-1665223D01*
X2868422Y-1701545D01*
X2904743Y-1738121D01*
X2941065Y-1756155D01*
X3013963Y-1756155D01*
X3050286Y-1738121D01*
X3086608Y-1701545D01*
X3104895Y-1665223D01*
X3122929Y-1610613D01*
X3122929Y-1519936D01*
X3104895Y-1465326D01*
X3086608Y-1429004D01*
X3050286Y-1392428D01*
X3013963Y-1374394D01*
X2941065Y-1374394D01*
X4795265Y-1399794D02*
G01*
X4758943Y-1417828D01*
X4722622Y-1454404D01*
X4704588Y-1490726D01*
X4686300Y-1545336D01*
X4686300Y-1636013D01*
X4704588Y-1690623D01*
X4722622Y-1726945D01*
X4758943Y-1763521D01*
X4795265Y-1781555D01*
X4868163Y-1781555D01*
X4904486Y-1763521D01*
X4940808Y-1726945D01*
X4959095Y-1690623D01*
X4977129Y-1636013D01*
X4977129Y-1545336D01*
X4959095Y-1490726D01*
X4940808Y-1454404D01*
X4904486Y-1417828D01*
X4868163Y-1399794D01*
X4795265Y-1399794D01*
X6408165Y-1374394D02*
G01*
X6371843Y-1392428D01*
X6335522Y-1429004D01*
X6317488Y-1465326D01*
X6299200Y-1519936D01*
X6299200Y-1610613D01*
X6317488Y-1665223D01*
X6335522Y-1701545D01*
X6371843Y-1738121D01*
X6408165Y-1756155D01*
X6481063Y-1756155D01*
X6517386Y-1738121D01*
X6553708Y-1701545D01*
X6571995Y-1665223D01*
X6590029Y-1610613D01*
X6590029Y-1519936D01*
X6571995Y-1465326D01*
X6553708Y-1429004D01*
X6517386Y-1392428D01*
X6481063Y-1374394D01*
X6408165Y-1374394D01*
X8186165Y-1374394D02*
G01*
X8149843Y-1392428D01*
X8113522Y-1429004D01*
X8095488Y-1465326D01*
X8077200Y-1519936D01*
X8077200Y-1610613D01*
X8095488Y-1665223D01*
X8113522Y-1701545D01*
X8149843Y-1738121D01*
X8186165Y-1756155D01*
X8259063Y-1756155D01*
X8295386Y-1738121D01*
X8331708Y-1701545D01*
X8349995Y-1665223D01*
X8368029Y-1610613D01*
X8368029Y-1519936D01*
X8349995Y-1465326D01*
X8331708Y-1429004D01*
X8295386Y-1392428D01*
X8259063Y-1374394D01*
X8186165Y-1374394D01*
X4712208Y-895604D02*
G01*
X4675886Y-859028D01*
X4621275Y-840994D01*
X4548631Y-840994D01*
X4494022Y-859028D01*
X4457700Y-895604D01*
X4457700Y-931926D01*
X4475988Y-968247D01*
X4494022Y-986536D01*
X4530343Y-1004570D01*
X4639563Y-1040892D01*
X4675886Y-1059179D01*
X4694174Y-1077213D01*
X4712208Y-1113789D01*
X4712208Y-1168145D01*
X4675886Y-1204721D01*
X4621275Y-1222755D01*
X4548631Y-1222755D01*
X4494022Y-1204721D01*
X4457700Y-1168145D01*
X6401308Y-933704D02*
G01*
X6364986Y-897128D01*
X6310375Y-879094D01*
X6237731Y-879094D01*
X6183122Y-897128D01*
X6146800Y-933704D01*
X6146800Y-970026D01*
X6165088Y-1006347D01*
X6183122Y-1024636D01*
X6219443Y-1042670D01*
X6328663Y-1078992D01*
X6364986Y-1097279D01*
X6383274Y-1115313D01*
X6401308Y-1151889D01*
X6401308Y-1206245D01*
X6364986Y-1242821D01*
X6310375Y-1260855D01*
X6237731Y-1260855D01*
X6183122Y-1242821D01*
X6146800Y-1206245D01*
X8014208Y-933704D02*
G01*
X7977886Y-897128D01*
X7923275Y-879094D01*
X7850631Y-879094D01*
X7796022Y-897128D01*
X7759700Y-933704D01*
X7759700Y-970026D01*
X7777988Y-1006347D01*
X7796022Y-1024636D01*
X7832343Y-1042670D01*
X7941563Y-1078992D01*
X7977886Y-1097279D01*
X7996174Y-1115313D01*
X8014208Y-1151889D01*
X8014208Y-1206245D01*
X7977886Y-1242821D01*
X7923275Y-1260855D01*
X7850631Y-1260855D01*
X7796022Y-1242821D01*
X7759700Y-1206245D01*
X9792208Y-946404D02*
G01*
X9755886Y-909828D01*
X9701275Y-891794D01*
X9628631Y-891794D01*
X9574022Y-909828D01*
X9537700Y-946404D01*
X9537700Y-982726D01*
X9555988Y-1019047D01*
X9574022Y-1037336D01*
X9610343Y-1055370D01*
X9719563Y-1091692D01*
X9755886Y-1109979D01*
X9774174Y-1128013D01*
X9792208Y-1164589D01*
X9792208Y-1218945D01*
X9755886Y-1255521D01*
X9701275Y-1273555D01*
X9628631Y-1273555D01*
X9574022Y-1255521D01*
X9537700Y-1218945D01*
X10795000Y-446023D02*
G01*
X10795000Y-573278D01*
X10795000Y-500634D02*
G01*
X10804143Y-473202D01*
X10822177Y-455168D01*
X10840465Y-446023D01*
X10867643Y-446023D01*
X10927841Y-500634D02*
G01*
X11036808Y-500634D01*
X11036808Y-482345D01*
X11027663Y-464312D01*
X11018520Y-455168D01*
X11000486Y-446023D01*
X10973308Y-446023D01*
X10955020Y-455168D01*
X10936731Y-473202D01*
X10927841Y-500634D01*
X10927841Y-518668D01*
X10936731Y-546100D01*
X10955020Y-564134D01*
X10973308Y-573278D01*
X11000486Y-573278D01*
X11018520Y-564134D01*
X11036808Y-546100D01*
X11196827Y-473202D02*
G01*
X11187684Y-455168D01*
X11160506Y-446023D01*
X11133074Y-446023D01*
X11105895Y-455168D01*
X11096752Y-473202D01*
X11105895Y-491489D01*
X11124184Y-500634D01*
X11169650Y-509778D01*
X11187684Y-518668D01*
X11196827Y-536955D01*
X11196827Y-546100D01*
X11187684Y-564134D01*
X11160506Y-573278D01*
X11133074Y-573278D01*
X11105895Y-564134D01*
X11096752Y-546100D01*
X11284204Y-382270D02*
G01*
X11284204Y-536955D01*
X11293093Y-564134D01*
X11311381Y-573278D01*
X11329670Y-573278D01*
X11256772Y-446023D02*
G01*
X11320525Y-446023D01*
X11498579Y-446023D02*
G01*
X11498579Y-573278D01*
X11498579Y-473202D02*
G01*
X11480545Y-455168D01*
X11462258Y-446023D01*
X11435079Y-446023D01*
X11416791Y-455168D01*
X11398758Y-473202D01*
X11389613Y-500634D01*
X11389613Y-518668D01*
X11398758Y-546100D01*
X11416791Y-564134D01*
X11435079Y-573278D01*
X11462258Y-573278D01*
X11480545Y-564134D01*
X11498579Y-546100D01*
X11558524Y-446023D02*
G01*
X11558524Y-573278D01*
X11558524Y-500634D02*
G01*
X11567668Y-473202D01*
X11585956Y-455168D01*
X11603990Y-446023D01*
X11631422Y-446023D01*
X11718543Y-382270D02*
G01*
X11718543Y-536955D01*
X11727688Y-564134D01*
X11745975Y-573278D01*
X11764009Y-573278D01*
X11691365Y-446023D02*
G01*
X11755120Y-446023D01*
X12852400Y-433323D02*
G01*
X12852400Y-624331D01*
X12852400Y-460502D02*
G01*
X12870688Y-442468D01*
X12888722Y-433323D01*
X12916154Y-433323D01*
X12934188Y-442468D01*
X12952475Y-460502D01*
X12961365Y-487934D01*
X12961365Y-505968D01*
X12952475Y-533400D01*
X12934188Y-551434D01*
X12916154Y-560578D01*
X12888722Y-560578D01*
X12870688Y-551434D01*
X12852400Y-533400D01*
X13021563Y-433323D02*
G01*
X13021563Y-560578D01*
X13021563Y-487934D02*
G01*
X13030708Y-460502D01*
X13048741Y-442468D01*
X13067029Y-433323D01*
X13094208Y-433323D01*
X13199618Y-433323D02*
G01*
X13181584Y-442468D01*
X13163295Y-460502D01*
X13154152Y-487934D01*
X13154152Y-505968D01*
X13163295Y-533400D01*
X13181584Y-551434D01*
X13199618Y-560578D01*
X13227050Y-560578D01*
X13245084Y-551434D01*
X13263372Y-533400D01*
X13272516Y-505968D01*
X13272516Y-487934D01*
X13263372Y-460502D01*
X13245084Y-442468D01*
X13227050Y-433323D01*
X13199618Y-433323D01*
X13441425Y-433323D02*
G01*
X13441425Y-578865D01*
X13432281Y-606044D01*
X13423391Y-615187D01*
X13405104Y-624331D01*
X13377925Y-624331D01*
X13359638Y-615187D01*
X13441425Y-460502D02*
G01*
X13423391Y-442468D01*
X13405104Y-433323D01*
X13377925Y-433323D01*
X13359638Y-442468D01*
X13341604Y-460502D01*
X13332459Y-487934D01*
X13332459Y-505968D01*
X13341604Y-533400D01*
X13359638Y-551434D01*
X13377925Y-560578D01*
X13405104Y-560578D01*
X13423391Y-551434D01*
X13441425Y-533400D01*
D32*
X10083291Y3418078D02*
G01*
X10072877Y3412744D01*
X10062463Y3402329D01*
X10057384Y3392170D01*
X10057384Y3371342D01*
X10062463Y3360928D01*
X10072877Y3350513D01*
X10083291Y3345179D01*
X10099040Y3340100D01*
X10124947Y3340100D01*
X10140441Y3345179D01*
X10150856Y3350513D01*
X10161270Y3360928D01*
X10166350Y3371342D01*
X10166350Y3392170D01*
X10161270Y3402329D01*
X10150856Y3412744D01*
X10140441Y3418078D01*
X10083291Y3457447D02*
G01*
X10078211Y3457447D01*
X10067797Y3462781D01*
X10062463Y3467862D01*
X10057384Y3478276D01*
X10057384Y3499104D01*
X10062463Y3509518D01*
X10067797Y3514597D01*
X10078211Y3519931D01*
X10088625Y3519931D01*
X10099040Y3514597D01*
X10114534Y3504184D01*
X10166350Y3452368D01*
X10166350Y3525012D01*
X9943591Y-1153921D02*
G01*
X9933177Y-1159255D01*
X9922763Y-1169670D01*
X9917684Y-1179829D01*
X9917684Y-1200657D01*
X9922763Y-1211071D01*
X9933177Y-1221486D01*
X9943591Y-1226820D01*
X9959340Y-1231900D01*
X9985247Y-1231900D01*
X10000741Y-1226820D01*
X10011156Y-1221486D01*
X10021570Y-1211071D01*
X10026650Y-1200657D01*
X10026650Y-1179829D01*
X10021570Y-1169670D01*
X10011156Y-1159255D01*
X10000741Y-1153921D01*
X9938511Y-1119631D02*
G01*
X9933177Y-1109218D01*
X9917684Y-1093723D01*
X10026650Y-1093723D01*
X10401808Y2652521D02*
G01*
X10412222Y2657855D01*
X10422636Y2668270D01*
X10427715Y2678429D01*
X10427715Y2699257D01*
X10422636Y2709671D01*
X10412222Y2720086D01*
X10401808Y2725420D01*
X10386059Y2730500D01*
X10360152Y2730500D01*
X10344658Y2725420D01*
X10334243Y2720086D01*
X10323829Y2709671D01*
X10318750Y2699257D01*
X10318750Y2678429D01*
X10323829Y2668270D01*
X10334243Y2657855D01*
X10344658Y2652521D01*
X10427715Y2566415D02*
G01*
X10355072Y2618231D01*
X10355072Y2540254D01*
X10427715Y2566415D02*
G01*
X10318750Y2566415D01*
X12064491Y-1230121D02*
G01*
X12054077Y-1235455D01*
X12043663Y-1245870D01*
X12038584Y-1256029D01*
X12038584Y-1276857D01*
X12043663Y-1287271D01*
X12054077Y-1297686D01*
X12064491Y-1303020D01*
X12080240Y-1308100D01*
X12106147Y-1308100D01*
X12121641Y-1303020D01*
X12132056Y-1297686D01*
X12142470Y-1287271D01*
X12147550Y-1276857D01*
X12147550Y-1256029D01*
X12142470Y-1245870D01*
X12132056Y-1235455D01*
X12121641Y-1230121D01*
X12054077Y-1133602D02*
G01*
X12043663Y-1138681D01*
X12038584Y-1154429D01*
X12038584Y-1164589D01*
X12043663Y-1180337D01*
X12059411Y-1190752D01*
X12085320Y-1195831D01*
X12111227Y-1195831D01*
X12132056Y-1190752D01*
X12142470Y-1180337D01*
X12147550Y-1164589D01*
X12147550Y-1159510D01*
X12142470Y-1144015D01*
X12132056Y-1133602D01*
X12116561Y-1128268D01*
X12111227Y-1128268D01*
X12095734Y-1133602D01*
X12085320Y-1144015D01*
X12080240Y-1159510D01*
X12080240Y-1164589D01*
X12085320Y-1180337D01*
X12095734Y-1190752D01*
X12111227Y-1195831D01*
X13753591Y-1649221D02*
G01*
X13743177Y-1654555D01*
X13732763Y-1664970D01*
X13727684Y-1675129D01*
X13727684Y-1695957D01*
X13732763Y-1706371D01*
X13743177Y-1716786D01*
X13753591Y-1722120D01*
X13769340Y-1727200D01*
X13795247Y-1727200D01*
X13810741Y-1722120D01*
X13821156Y-1716786D01*
X13831570Y-1706371D01*
X13836650Y-1695957D01*
X13836650Y-1675129D01*
X13831570Y-1664970D01*
X13821156Y-1654555D01*
X13810741Y-1649221D01*
X13727684Y-1542287D02*
G01*
X13836650Y-1594104D01*
X13727684Y-1614931D02*
G01*
X13727684Y-1542287D01*
X12089384Y-977900D02*
G01*
X12198350Y-977900D01*
X12089384Y-977900D02*
G01*
X12089384Y-931163D01*
X12094463Y-915670D01*
X12099797Y-910336D01*
X12110211Y-905255D01*
X12120625Y-905255D01*
X12131040Y-910336D01*
X12136120Y-915670D01*
X12141200Y-931163D01*
X12141200Y-977900D01*
X12141200Y-941578D02*
G01*
X12198350Y-905255D01*
X12110211Y-870965D02*
G01*
X12104877Y-860552D01*
X12089384Y-844804D01*
X12198350Y-844804D01*
X12089384Y-800100D02*
G01*
X12089384Y-742950D01*
X12131040Y-774192D01*
X12131040Y-758697D01*
X12136120Y-748284D01*
X12141200Y-742950D01*
X12156947Y-737870D01*
X12167361Y-737870D01*
X12182856Y-742950D01*
X12193270Y-753363D01*
X12198350Y-769112D01*
X12198350Y-784605D01*
X12193270Y-800100D01*
X12188190Y-805434D01*
X12177775Y-810513D01*
X10350500Y-583184D02*
G01*
X10350500Y-692150D01*
X10350500Y-583184D02*
G01*
X10397236Y-583184D01*
X10412729Y-588263D01*
X10418063Y-593597D01*
X10423143Y-604012D01*
X10423143Y-614426D01*
X10418063Y-624839D01*
X10412729Y-629920D01*
X10397236Y-635000D01*
X10350500Y-635000D01*
X10386822Y-635000D02*
G01*
X10423143Y-692150D01*
X10457434Y-604012D02*
G01*
X10467847Y-598678D01*
X10483595Y-583184D01*
X10483595Y-692150D01*
X10569702Y-583184D02*
G01*
X10517886Y-655828D01*
X10595609Y-655828D01*
X10569702Y-583184D02*
G01*
X10569702Y-692150D01*
X12521184Y-762000D02*
G01*
X12630150Y-762000D01*
X12521184Y-762000D02*
G01*
X12521184Y-715263D01*
X12526263Y-699770D01*
X12531597Y-694436D01*
X12542011Y-689355D01*
X12552425Y-689355D01*
X12562840Y-694436D01*
X12567920Y-699770D01*
X12573000Y-715263D01*
X12573000Y-762000D01*
X12573000Y-725678D02*
G01*
X12630150Y-689355D01*
X12542011Y-655065D02*
G01*
X12536677Y-644652D01*
X12521184Y-628904D01*
X12630150Y-628904D01*
X12521184Y-521970D02*
G01*
X12630150Y-574039D01*
X12521184Y-594613D02*
G01*
X12521184Y-521970D01*
X10732515Y-1117600D02*
G01*
X10623550Y-1117600D01*
X10732515Y-1117600D02*
G01*
X10732515Y-1164336D01*
X10727436Y-1179829D01*
X10722102Y-1185163D01*
X10711688Y-1190244D01*
X10701274Y-1190244D01*
X10690859Y-1185163D01*
X10685779Y-1179829D01*
X10680700Y-1164336D01*
X10680700Y-1117600D01*
X10680700Y-1153921D02*
G01*
X10623550Y-1190244D01*
X10711688Y-1224534D02*
G01*
X10717022Y-1234947D01*
X10732515Y-1250695D01*
X10623550Y-1250695D01*
X10732515Y-1310894D02*
G01*
X10727436Y-1295400D01*
X10717022Y-1290065D01*
X10706608Y-1290065D01*
X10696193Y-1295400D01*
X10690859Y-1305560D01*
X10685779Y-1326387D01*
X10680700Y-1342136D01*
X10670286Y-1352550D01*
X10659872Y-1357629D01*
X10644124Y-1357629D01*
X10633709Y-1352550D01*
X10628629Y-1347215D01*
X10623550Y-1331721D01*
X10623550Y-1310894D01*
X10628629Y-1295400D01*
X10633709Y-1290065D01*
X10644124Y-1284986D01*
X10659872Y-1284986D01*
X10670286Y-1290065D01*
X10680700Y-1300479D01*
X10685779Y-1315973D01*
X10690859Y-1336802D01*
X10696193Y-1347215D01*
X10706608Y-1352550D01*
X10717022Y-1352550D01*
X10727436Y-1347215D01*
X10732515Y-1331721D01*
X10732515Y-1310894D01*
X13039343Y-725678D02*
G01*
X13028929Y-715263D01*
X13013436Y-710184D01*
X12992608Y-710184D01*
X12977113Y-715263D01*
X12966700Y-725678D01*
X12966700Y-736092D01*
X12971779Y-746505D01*
X12977113Y-751839D01*
X12987527Y-756920D01*
X13018770Y-767334D01*
X13028929Y-772413D01*
X13034263Y-777747D01*
X13039343Y-788162D01*
X13039343Y-803655D01*
X13028929Y-814070D01*
X13013436Y-819150D01*
X12992608Y-819150D01*
X12977113Y-814070D01*
X12966700Y-803655D01*
X13073634Y-710184D02*
G01*
X13099795Y-819150D01*
X13125704Y-710184D02*
G01*
X13099795Y-819150D01*
X13125704Y-710184D02*
G01*
X13151611Y-819150D01*
X13177520Y-710184D02*
G01*
X13151611Y-819150D01*
X13222224Y-710184D02*
G01*
X13279374Y-710184D01*
X13248386Y-751839D01*
X13263879Y-751839D01*
X13274293Y-756920D01*
X13279374Y-762000D01*
X13284708Y-777747D01*
X13284708Y-788162D01*
X13279374Y-803655D01*
X13268959Y-814070D01*
X13253466Y-819150D01*
X13237972Y-819150D01*
X13222224Y-814070D01*
X13217143Y-808989D01*
X13211809Y-798576D01*
X11279238Y-722071D02*
G01*
X11268824Y-711657D01*
X11253330Y-706577D01*
X11232502Y-706577D01*
X11217008Y-711657D01*
X11206594Y-722071D01*
X11206594Y-732485D01*
X11211674Y-742899D01*
X11217008Y-748233D01*
X11227422Y-753313D01*
X11258664Y-763727D01*
X11268824Y-768807D01*
X11274158Y-774141D01*
X11279238Y-784555D01*
X11279238Y-800049D01*
X11268824Y-810463D01*
X11253330Y-815543D01*
X11232502Y-815543D01*
X11217008Y-810463D01*
X11206594Y-800049D01*
X11313528Y-706577D02*
G01*
X11339690Y-815543D01*
X11365598Y-706577D02*
G01*
X11339690Y-815543D01*
X11365598Y-706577D02*
G01*
X11391506Y-815543D01*
X11417414Y-706577D02*
G01*
X11391506Y-815543D01*
X11503774Y-706577D02*
G01*
X11451704Y-779221D01*
X11529682Y-779221D01*
X11503774Y-706577D02*
G01*
X11503774Y-815543D01*
X3759200Y1550415D02*
G01*
X3759200Y1441450D01*
X3831843Y1550415D02*
G01*
X3759200Y1477771D01*
X3785108Y1503679D02*
G01*
X3831843Y1441450D01*
X3866134Y1529587D02*
G01*
X3876547Y1534921D01*
X3892295Y1550415D01*
X3892295Y1441450D01*
X9042400Y1550415D02*
G01*
X9042400Y1441450D01*
X9115043Y1550415D02*
G01*
X9042400Y1477771D01*
X9068308Y1503679D02*
G01*
X9115043Y1441450D01*
X9201404Y1550415D02*
G01*
X9149334Y1477771D01*
X9227311Y1477771D01*
X9201404Y1550415D02*
G01*
X9201404Y1441450D01*
X1562100Y-1169415D02*
G01*
X1562100Y-1060450D01*
X1562100Y-1169415D02*
G01*
X1515363Y-1169415D01*
X1499870Y-1164336D01*
X1494536Y-1159002D01*
X1489455Y-1148587D01*
X1489455Y-1133094D01*
X1494536Y-1122679D01*
X1499870Y-1117600D01*
X1515363Y-1112265D01*
X1562100Y-1112265D01*
X1455165Y-1148587D02*
G01*
X1444752Y-1153921D01*
X1429004Y-1169415D01*
X1429004Y-1060450D01*
X3937000Y-1105915D02*
G01*
X3937000Y-996950D01*
X3937000Y-1105915D02*
G01*
X3890263Y-1105915D01*
X3874770Y-1100836D01*
X3869436Y-1095502D01*
X3864356Y-1085087D01*
X3864356Y-1069594D01*
X3869436Y-1059179D01*
X3874770Y-1054100D01*
X3890263Y-1048765D01*
X3937000Y-1048765D01*
X3824731Y-1080007D02*
G01*
X3824731Y-1085087D01*
X3819652Y-1095502D01*
X3814318Y-1100836D01*
X3803904Y-1105915D01*
X3783329Y-1105915D01*
X3772915Y-1100836D01*
X3767581Y-1095502D01*
X3762502Y-1085087D01*
X3762502Y-1074673D01*
X3767581Y-1064260D01*
X3777995Y-1048765D01*
X3830065Y-996950D01*
X3757168Y-996950D01*
X7340600Y-1156715D02*
G01*
X7340600Y-1047750D01*
X7340600Y-1156715D02*
G01*
X7293863Y-1156715D01*
X7278370Y-1151636D01*
X7273036Y-1146302D01*
X7267956Y-1135887D01*
X7267956Y-1120394D01*
X7273036Y-1109979D01*
X7278370Y-1104900D01*
X7293863Y-1099565D01*
X7340600Y-1099565D01*
X7223252Y-1156715D02*
G01*
X7166102Y-1156715D01*
X7197090Y-1115060D01*
X7181595Y-1115060D01*
X7171181Y-1109979D01*
X7166102Y-1104900D01*
X7160768Y-1089152D01*
X7160768Y-1078737D01*
X7166102Y-1063244D01*
X7176515Y-1052829D01*
X7192009Y-1047750D01*
X7207504Y-1047750D01*
X7223252Y-1052829D01*
X7228331Y-1057910D01*
X7233665Y-1068323D01*
X5575300Y-1258315D02*
G01*
X5575300Y-1149350D01*
X5575300Y-1258315D02*
G01*
X5528563Y-1258315D01*
X5513070Y-1253236D01*
X5507736Y-1247902D01*
X5502656Y-1237487D01*
X5502656Y-1221994D01*
X5507736Y-1211579D01*
X5513070Y-1206500D01*
X5528563Y-1201165D01*
X5575300Y-1201165D01*
X5416295Y-1258315D02*
G01*
X5468365Y-1185671D01*
X5390388Y-1185671D01*
X5416295Y-1258315D02*
G01*
X5416295Y-1149350D01*
X9029700Y-1067815D02*
G01*
X9029700Y-958850D01*
X9029700Y-1067815D02*
G01*
X8982963Y-1067815D01*
X8967470Y-1062736D01*
X8962136Y-1057402D01*
X8957056Y-1046987D01*
X8957056Y-1031494D01*
X8962136Y-1021079D01*
X8967470Y-1016000D01*
X8982963Y-1010665D01*
X9029700Y-1010665D01*
X8860281Y-1067815D02*
G01*
X8912352Y-1067815D01*
X8917431Y-1021079D01*
X8912352Y-1026160D01*
X8896604Y-1031494D01*
X8881109Y-1031494D01*
X8865615Y-1026160D01*
X8855202Y-1016000D01*
X8849868Y-1000252D01*
X8849868Y-989837D01*
X8855202Y-974344D01*
X8865615Y-963929D01*
X8881109Y-958850D01*
X8896604Y-958850D01*
X8912352Y-963929D01*
X8917431Y-969010D01*
X8922765Y-979423D01*
X12825984Y2705100D02*
G01*
X12934950Y2705100D01*
X12825984Y2705100D02*
G01*
X12825984Y2751836D01*
X12831063Y2767329D01*
X12836397Y2772663D01*
X12846811Y2777744D01*
X12862306Y2777744D01*
X12872720Y2772663D01*
X12877800Y2767329D01*
X12883134Y2751836D01*
X12883134Y2705100D01*
X12841477Y2874518D02*
G01*
X12831063Y2869184D01*
X12825984Y2853689D01*
X12825984Y2843276D01*
X12831063Y2827781D01*
X12846811Y2817368D01*
X12872720Y2812034D01*
X12898627Y2812034D01*
X12919456Y2817368D01*
X12929870Y2827781D01*
X12934950Y2843276D01*
X12934950Y2848610D01*
X12929870Y2864104D01*
X12919456Y2874518D01*
X12903961Y2879597D01*
X12898627Y2879597D01*
X12883134Y2874518D01*
X12872720Y2864104D01*
X12867640Y2848610D01*
X12867640Y2843276D01*
X12872720Y2827781D01*
X12883134Y2817368D01*
X12898627Y2812034D01*
X4075684Y3589273D02*
G01*
X4080763Y3578860D01*
X4091177Y3568445D01*
X4101591Y3563112D01*
X4117340Y3558031D01*
X4143247Y3558031D01*
X4158741Y3563112D01*
X4169156Y3568445D01*
X4179570Y3578860D01*
X4184650Y3589273D01*
X4184650Y3610102D01*
X4179570Y3620262D01*
X4169156Y3630676D01*
X4158741Y3636010D01*
X4143247Y3641089D01*
X4117340Y3641089D01*
X4101591Y3636010D01*
X4091177Y3630676D01*
X4080763Y3620262D01*
X4075684Y3610102D01*
X4075684Y3589273D01*
X4164075Y3604768D02*
G01*
X4195063Y3636010D01*
X4096511Y3675379D02*
G01*
X4091177Y3685794D01*
X4075684Y3701542D01*
X4184650Y3701542D01*
X7504684Y3500373D02*
G01*
X7509763Y3489960D01*
X7520177Y3479545D01*
X7530591Y3474212D01*
X7546340Y3469131D01*
X7572247Y3469131D01*
X7587741Y3474212D01*
X7598156Y3479545D01*
X7608570Y3489960D01*
X7613650Y3500373D01*
X7613650Y3521202D01*
X7608570Y3531362D01*
X7598156Y3541776D01*
X7587741Y3547110D01*
X7572247Y3552189D01*
X7546340Y3552189D01*
X7530591Y3547110D01*
X7520177Y3541776D01*
X7509763Y3531362D01*
X7504684Y3521202D01*
X7504684Y3500373D01*
X7593075Y3515868D02*
G01*
X7624063Y3547110D01*
X7530591Y3591813D02*
G01*
X7525511Y3591813D01*
X7515097Y3596894D01*
X7509763Y3602228D01*
X7504684Y3612642D01*
X7504684Y3633215D01*
X7509763Y3643629D01*
X7515097Y3648963D01*
X7525511Y3654044D01*
X7535925Y3654044D01*
X7546340Y3648963D01*
X7561834Y3638550D01*
X7613650Y3586479D01*
X7613650Y3659378D01*
X5802884Y3589273D02*
G01*
X5807963Y3578860D01*
X5818377Y3568445D01*
X5828791Y3563112D01*
X5844540Y3558031D01*
X5870447Y3558031D01*
X5885941Y3563112D01*
X5896356Y3568445D01*
X5906770Y3578860D01*
X5911850Y3589273D01*
X5911850Y3610102D01*
X5906770Y3620262D01*
X5896356Y3630676D01*
X5885941Y3636010D01*
X5870447Y3641089D01*
X5844540Y3641089D01*
X5828791Y3636010D01*
X5818377Y3630676D01*
X5807963Y3620262D01*
X5802884Y3610102D01*
X5802884Y3589273D01*
X5891275Y3604768D02*
G01*
X5922263Y3636010D01*
X5802884Y3685794D02*
G01*
X5802884Y3742944D01*
X5844540Y3711702D01*
X5844540Y3727450D01*
X5849620Y3737863D01*
X5854700Y3742944D01*
X5870447Y3748278D01*
X5880861Y3748278D01*
X5896356Y3742944D01*
X5906770Y3732529D01*
X5911850Y3717036D01*
X5911850Y3701542D01*
X5906770Y3685794D01*
X5901690Y3680713D01*
X5891275Y3675379D01*
X9333484Y3500373D02*
G01*
X9338563Y3489960D01*
X9348977Y3479545D01*
X9359391Y3474212D01*
X9375140Y3469131D01*
X9401047Y3469131D01*
X9416541Y3474212D01*
X9426956Y3479545D01*
X9437370Y3489960D01*
X9442450Y3500373D01*
X9442450Y3521202D01*
X9437370Y3531362D01*
X9426956Y3541776D01*
X9416541Y3547110D01*
X9401047Y3552189D01*
X9375140Y3552189D01*
X9359391Y3547110D01*
X9348977Y3541776D01*
X9338563Y3531362D01*
X9333484Y3521202D01*
X9333484Y3500373D01*
X9421875Y3515868D02*
G01*
X9452863Y3547110D01*
X9333484Y3638550D02*
G01*
X9406127Y3586479D01*
X9406127Y3664457D01*
X9333484Y3638550D02*
G01*
X9442450Y3638550D01*
X3962400Y1245615D02*
G01*
X3962400Y1136650D01*
X3962400Y1245615D02*
G01*
X4009136Y1245615D01*
X4024629Y1240536D01*
X4029963Y1235202D01*
X4035043Y1224787D01*
X4035043Y1214373D01*
X4029963Y1203960D01*
X4024629Y1198879D01*
X4009136Y1193800D01*
X3962400Y1193800D01*
X3998722Y1193800D02*
G01*
X4035043Y1136650D01*
X4069334Y1224787D02*
G01*
X4079747Y1230121D01*
X4095495Y1245615D01*
X4095495Y1136650D01*
X7023100Y1105915D02*
G01*
X7023100Y996950D01*
X7023100Y1105915D02*
G01*
X7069836Y1105915D01*
X7085329Y1100836D01*
X7090663Y1095502D01*
X7095743Y1085087D01*
X7095743Y1074673D01*
X7090663Y1064260D01*
X7085329Y1059179D01*
X7069836Y1054100D01*
X7023100Y1054100D01*
X7059422Y1054100D02*
G01*
X7095743Y996950D01*
X7140447Y1105915D02*
G01*
X7197597Y1105915D01*
X7166609Y1064260D01*
X7182104Y1064260D01*
X7192518Y1059179D01*
X7197597Y1054100D01*
X7202931Y1038352D01*
X7202931Y1027937D01*
X7197597Y1012444D01*
X7187184Y1002029D01*
X7171690Y996950D01*
X7156195Y996950D01*
X7140447Y1002029D01*
X7135368Y1007110D01*
X7130034Y1017523D01*
X5600700Y1258315D02*
G01*
X5600700Y1149350D01*
X5600700Y1258315D02*
G01*
X5647436Y1258315D01*
X5662929Y1253236D01*
X5668263Y1247902D01*
X5673343Y1237487D01*
X5673343Y1227073D01*
X5668263Y1216660D01*
X5662929Y1211579D01*
X5647436Y1206500D01*
X5600700Y1206500D01*
X5637022Y1206500D02*
G01*
X5673343Y1149350D01*
X5770118Y1242821D02*
G01*
X5764784Y1253236D01*
X5749290Y1258315D01*
X5738875Y1258315D01*
X5723381Y1253236D01*
X5712968Y1237487D01*
X5707634Y1211579D01*
X5707634Y1185671D01*
X5712968Y1164844D01*
X5723381Y1154429D01*
X5738875Y1149350D01*
X5744209Y1149350D01*
X5759704Y1154429D01*
X5770118Y1164844D01*
X5775197Y1180337D01*
X5775197Y1185671D01*
X5770118Y1201165D01*
X5759704Y1211579D01*
X5744209Y1216660D01*
X5738875Y1216660D01*
X5723381Y1211579D01*
X5712968Y1201165D01*
X5707634Y1185671D01*
X8534400Y1118615D02*
G01*
X8534400Y1009650D01*
X8534400Y1118615D02*
G01*
X8581136Y1118615D01*
X8596629Y1113536D01*
X8601963Y1108202D01*
X8607043Y1097787D01*
X8607043Y1087373D01*
X8601963Y1076960D01*
X8596629Y1071879D01*
X8581136Y1066800D01*
X8534400Y1066800D01*
X8570722Y1066800D02*
G01*
X8607043Y1009650D01*
X8641334Y1097787D02*
G01*
X8651747Y1103121D01*
X8667495Y1118615D01*
X8667495Y1009650D01*
X8732774Y1118615D02*
G01*
X8717279Y1113536D01*
X8706865Y1097787D01*
X8701786Y1071879D01*
X8701786Y1056386D01*
X8706865Y1030223D01*
X8717279Y1014729D01*
X8732774Y1009650D01*
X8743188Y1009650D01*
X8758936Y1014729D01*
X8769350Y1030223D01*
X8774429Y1056386D01*
X8774429Y1071879D01*
X8769350Y1097787D01*
X8758936Y1113536D01*
X8743188Y1118615D01*
X8732774Y1118615D01*
X4712715Y4056192D02*
G01*
X4603750Y4056192D01*
X4712715Y4056192D02*
G01*
X4712715Y4009456D01*
X4707636Y3993962D01*
X4702302Y3988628D01*
X4691888Y3983548D01*
X4681474Y3983548D01*
X4671059Y3988628D01*
X4665979Y3993962D01*
X4660900Y4009456D01*
X4660900Y4056192D01*
X4660900Y4019870D02*
G01*
X4603750Y3983548D01*
X4686808Y3943924D02*
G01*
X4691888Y3943924D01*
X4702302Y3938844D01*
X4707636Y3933510D01*
X4712715Y3923096D01*
X4712715Y3902522D01*
X4707636Y3892108D01*
X4702302Y3886774D01*
X4691888Y3881694D01*
X4681474Y3881694D01*
X4671059Y3886774D01*
X4655565Y3897188D01*
X4603750Y3949258D01*
X4603750Y3876360D01*
X6414515Y4005392D02*
G01*
X6305550Y4005392D01*
X6414515Y4005392D02*
G01*
X6414515Y3958656D01*
X6409436Y3943162D01*
X6404102Y3937828D01*
X6393688Y3932748D01*
X6383274Y3932748D01*
X6372859Y3937828D01*
X6367779Y3943162D01*
X6362700Y3958656D01*
X6362700Y4005392D01*
X6362700Y3969070D02*
G01*
X6305550Y3932748D01*
X6414515Y3825560D02*
G01*
X6305550Y3877630D01*
X6414515Y3898458D02*
G01*
X6414515Y3825560D01*
X8141715Y3967292D02*
G01*
X8032750Y3967292D01*
X8141715Y3967292D02*
G01*
X8141715Y3920556D01*
X8136636Y3905062D01*
X8131302Y3899728D01*
X8120888Y3894648D01*
X8110474Y3894648D01*
X8100059Y3899728D01*
X8094979Y3905062D01*
X8089900Y3920556D01*
X8089900Y3967292D01*
X8089900Y3930970D02*
G01*
X8032750Y3894648D01*
X8141715Y3834196D02*
G01*
X8136636Y3849944D01*
X8126222Y3855024D01*
X8115808Y3855024D01*
X8105393Y3849944D01*
X8100059Y3839530D01*
X8094979Y3818702D01*
X8089900Y3803208D01*
X8079486Y3792794D01*
X8069072Y3787460D01*
X8053324Y3787460D01*
X8042909Y3792794D01*
X8037829Y3797874D01*
X8032750Y3813622D01*
X8032750Y3834196D01*
X8037829Y3849944D01*
X8042909Y3855024D01*
X8053324Y3860358D01*
X8069072Y3860358D01*
X8079486Y3855024D01*
X8089900Y3844610D01*
X8094979Y3829116D01*
X8100059Y3808288D01*
X8105393Y3797874D01*
X8115808Y3792794D01*
X8126222Y3792794D01*
X8136636Y3797874D01*
X8141715Y3813622D01*
X8141715Y3834196D01*
X9894315Y3941892D02*
G01*
X9785350Y3941892D01*
X9894315Y3941892D02*
G01*
X9894315Y3895156D01*
X9889236Y3879662D01*
X9883902Y3874328D01*
X9873488Y3869248D01*
X9863074Y3869248D01*
X9852659Y3874328D01*
X9847579Y3879662D01*
X9842500Y3895156D01*
X9842500Y3941892D01*
X9842500Y3905570D02*
G01*
X9785350Y3869248D01*
X9873488Y3834958D02*
G01*
X9878822Y3824544D01*
X9894315Y3808796D01*
X9785350Y3808796D01*
X9873488Y3774506D02*
G01*
X9878822Y3764092D01*
X9894315Y3748598D01*
X9785350Y3748598D01*
X7213600Y-367284D02*
G01*
X7213600Y-476250D01*
X7213600Y-367284D02*
G01*
X7260336Y-367284D01*
X7275829Y-372363D01*
X7281163Y-377697D01*
X7286243Y-388112D01*
X7286243Y-398526D01*
X7281163Y-408939D01*
X7275829Y-414020D01*
X7260336Y-419100D01*
X7213600Y-419100D01*
X7249922Y-419100D02*
G01*
X7286243Y-476250D01*
X7372604Y-367284D02*
G01*
X7320534Y-439928D01*
X7398511Y-439928D01*
X7372604Y-367284D02*
G01*
X7372604Y-476250D01*
X3987800Y-468884D02*
G01*
X3987800Y-577850D01*
X3987800Y-468884D02*
G01*
X4034536Y-468884D01*
X4050029Y-473963D01*
X4055363Y-479297D01*
X4060443Y-489712D01*
X4060443Y-500126D01*
X4055363Y-510539D01*
X4050029Y-515620D01*
X4034536Y-520700D01*
X3987800Y-520700D01*
X4024122Y-520700D02*
G01*
X4060443Y-577850D01*
X4157218Y-468884D02*
G01*
X4105147Y-468884D01*
X4100068Y-515620D01*
X4105147Y-510539D01*
X4120895Y-505205D01*
X4136390Y-505205D01*
X4151884Y-510539D01*
X4162297Y-520700D01*
X4167631Y-536447D01*
X4167631Y-546862D01*
X4162297Y-562355D01*
X4151884Y-572770D01*
X4136390Y-577850D01*
X4120895Y-577850D01*
X4105147Y-572770D01*
X4100068Y-567689D01*
X4094734Y-557276D01*
X5638800Y-418084D02*
G01*
X5638800Y-527050D01*
X5638800Y-418084D02*
G01*
X5685536Y-418084D01*
X5701029Y-423163D01*
X5706363Y-428497D01*
X5711443Y-438912D01*
X5711443Y-449326D01*
X5706363Y-459739D01*
X5701029Y-464820D01*
X5685536Y-469900D01*
X5638800Y-469900D01*
X5675122Y-469900D02*
G01*
X5711443Y-527050D01*
X5813297Y-454405D02*
G01*
X5808218Y-469900D01*
X5797804Y-480313D01*
X5782309Y-485647D01*
X5776975Y-485647D01*
X5761481Y-480313D01*
X5751068Y-469900D01*
X5745734Y-454405D01*
X5745734Y-449326D01*
X5751068Y-433578D01*
X5761481Y-423163D01*
X5776975Y-418084D01*
X5782309Y-418084D01*
X5797804Y-423163D01*
X5808218Y-433578D01*
X5813297Y-454405D01*
X5813297Y-480313D01*
X5808218Y-506476D01*
X5797804Y-521970D01*
X5782309Y-527050D01*
X5771895Y-527050D01*
X5756147Y-521970D01*
X5751068Y-511555D01*
X9309100Y-659384D02*
G01*
X9309100Y-768350D01*
X9309100Y-659384D02*
G01*
X9355836Y-659384D01*
X9371329Y-664463D01*
X9376663Y-669797D01*
X9381743Y-680212D01*
X9381743Y-690626D01*
X9376663Y-701039D01*
X9371329Y-706120D01*
X9355836Y-711200D01*
X9309100Y-711200D01*
X9345422Y-711200D02*
G01*
X9381743Y-768350D01*
X9416034Y-680212D02*
G01*
X9426447Y-674878D01*
X9442195Y-659384D01*
X9442195Y-768350D01*
X9481565Y-685292D02*
G01*
X9481565Y-680212D01*
X9486900Y-669797D01*
X9491979Y-664463D01*
X9502393Y-659384D01*
X9523222Y-659384D01*
X9533636Y-664463D01*
X9538715Y-669797D01*
X9544050Y-680212D01*
X9544050Y-690626D01*
X9538715Y-701039D01*
X9528302Y-716534D01*
X9476486Y-768350D01*
X9549129Y-768350D01*
X7467600Y280415D02*
G01*
X7467600Y202437D01*
X7472679Y186944D01*
X7483093Y176529D01*
X7498841Y171450D01*
X7509256Y171450D01*
X7524750Y176529D01*
X7535163Y186944D01*
X7540243Y202437D01*
X7540243Y280415D01*
X7574534Y259587D02*
G01*
X7584947Y264921D01*
X7600695Y280415D01*
X7600695Y171450D01*
X3987800Y293115D02*
G01*
X3987800Y215137D01*
X3992879Y199644D01*
X4003293Y189229D01*
X4019041Y184150D01*
X4029456Y184150D01*
X4044950Y189229D01*
X4055363Y199644D01*
X4060443Y215137D01*
X4060443Y293115D01*
X4100068Y267207D02*
G01*
X4100068Y272287D01*
X4105147Y282702D01*
X4110481Y288036D01*
X4120895Y293115D01*
X4141470Y293115D01*
X4151884Y288036D01*
X4157218Y282702D01*
X4162297Y272287D01*
X4162297Y261873D01*
X4157218Y251460D01*
X4146804Y235965D01*
X4094734Y184150D01*
X4167631Y184150D01*
X5664200Y280415D02*
G01*
X5664200Y202437D01*
X5669279Y186944D01*
X5679693Y176529D01*
X5695441Y171450D01*
X5705856Y171450D01*
X5721350Y176529D01*
X5731763Y186944D01*
X5736843Y202437D01*
X5736843Y280415D01*
X5823204Y280415D02*
G01*
X5771134Y207771D01*
X5849111Y207771D01*
X5823204Y280415D02*
G01*
X5823204Y171450D01*
X9080500Y331215D02*
G01*
X9080500Y253237D01*
X9085579Y237744D01*
X9095993Y227329D01*
X9111741Y222250D01*
X9122156Y222250D01*
X9137650Y227329D01*
X9148063Y237744D01*
X9153143Y253237D01*
X9153143Y331215D01*
X9249918Y331215D02*
G01*
X9197847Y331215D01*
X9192768Y284479D01*
X9197847Y289560D01*
X9213595Y294894D01*
X9229090Y294894D01*
X9244584Y289560D01*
X9254997Y279400D01*
X9260331Y263652D01*
X9260331Y253237D01*
X9254997Y237744D01*
X9244584Y227329D01*
X9229090Y222250D01*
X9213595Y222250D01*
X9197847Y227329D01*
X9192768Y232410D01*
X9187434Y242823D01*
X124282Y2022894D02*
G01*
X202260Y2022894D01*
X217754Y2027974D01*
X228168Y2038388D01*
X233248Y2054136D01*
X233248Y2064550D01*
X228168Y2080044D01*
X217754Y2090458D01*
X202260Y2095538D01*
X124282Y2095538D01*
X124282Y2140242D02*
G01*
X124282Y2197392D01*
X165938Y2166404D01*
X165938Y2181898D01*
X171018Y2192312D01*
X176098Y2197392D01*
X191846Y2202726D01*
X202260Y2202726D01*
X217754Y2197392D01*
X228168Y2186978D01*
X233248Y2171484D01*
X233248Y2155990D01*
X228168Y2140242D01*
X223088Y2135162D01*
X212674Y2129828D01*
X11722100Y3671315D02*
G01*
X11722100Y3593337D01*
X11727179Y3577844D01*
X11737593Y3567429D01*
X11753341Y3562350D01*
X11763756Y3562350D01*
X11779250Y3567429D01*
X11789663Y3577844D01*
X11794743Y3593337D01*
X11794743Y3671315D01*
X11891518Y3655821D02*
G01*
X11886184Y3666236D01*
X11870690Y3671315D01*
X11860275Y3671315D01*
X11844781Y3666236D01*
X11834368Y3650487D01*
X11829034Y3624579D01*
X11829034Y3598671D01*
X11834368Y3577844D01*
X11844781Y3567429D01*
X11860275Y3562350D01*
X11865609Y3562350D01*
X11881104Y3567429D01*
X11891518Y3577844D01*
X11896597Y3593337D01*
X11896597Y3598671D01*
X11891518Y3614165D01*
X11881104Y3624579D01*
X11865609Y3629660D01*
X11860275Y3629660D01*
X11844781Y3624579D01*
X11834368Y3614165D01*
X11829034Y3598671D01*
D37*
X11188318Y2861360D02*
G01*
X11188318Y2764332D01*
X11188318Y2861360D02*
G01*
X11248263Y2861360D01*
X11188318Y2815132D02*
G01*
X11225149Y2815132D01*
X11188318Y2764332D02*
G01*
X11248263Y2764332D01*
X11343513Y2847644D02*
G01*
X11334368Y2856788D01*
X11320399Y2861360D01*
X11301856Y2861360D01*
X11288140Y2856788D01*
X11278743Y2847644D01*
X11278743Y2838246D01*
X11283568Y2829102D01*
X11288140Y2824530D01*
X11297284Y2819958D01*
X11324970Y2810560D01*
X11334368Y2805988D01*
X11338940Y2801416D01*
X11343513Y2792018D01*
X11343513Y2778302D01*
X11334368Y2769158D01*
X11320399Y2764332D01*
X11301856Y2764332D01*
X11288140Y2769158D01*
X11278743Y2778302D01*
X11373993Y2861360D02*
G01*
X11373993Y2764332D01*
X11373993Y2861360D02*
G01*
X11415649Y2861360D01*
X11429365Y2856788D01*
X11433936Y2852216D01*
X11438509Y2842818D01*
X11438509Y2829102D01*
X11433936Y2819958D01*
X11429365Y2815132D01*
X11415649Y2810560D01*
X11373993Y2810560D01*
X11540109Y2861360D02*
G01*
X11563222Y2764332D01*
X11586336Y2861360D02*
G01*
X11563222Y2764332D01*
X11586336Y2861360D02*
G01*
X11609450Y2764332D01*
X11632565Y2861360D02*
G01*
X11609450Y2764332D01*
X11663045Y2861360D02*
G01*
X11663045Y2764332D01*
X11663045Y2861360D02*
G01*
X11704700Y2861360D01*
X11718416Y2856788D01*
X11722988Y2852216D01*
X11727815Y2842818D01*
X11727815Y2833674D01*
X11722988Y2824530D01*
X11718416Y2819958D01*
X11704700Y2815132D01*
X11663045Y2815132D01*
X11695302Y2815132D02*
G01*
X11727815Y2764332D01*
X11785981Y2861360D02*
G01*
X11776583Y2856788D01*
X11767438Y2847644D01*
X11762866Y2838246D01*
X11758295Y2824530D01*
X11758295Y2801416D01*
X11762866Y2787446D01*
X11767438Y2778302D01*
X11776583Y2769158D01*
X11785981Y2764332D01*
X11804268Y2764332D01*
X11813666Y2769158D01*
X11822811Y2778302D01*
X11827383Y2787446D01*
X11832209Y2801416D01*
X11832209Y2824530D01*
X11827383Y2838246D01*
X11822811Y2847644D01*
X11813666Y2856788D01*
X11804268Y2861360D01*
X11785981Y2861360D01*
X11890375Y2861360D02*
G01*
X11880977Y2856788D01*
X11871833Y2847644D01*
X11867261Y2838246D01*
X11862688Y2824530D01*
X11862688Y2801416D01*
X11867261Y2787446D01*
X11871833Y2778302D01*
X11880977Y2769158D01*
X11890375Y2764332D01*
X11908663Y2764332D01*
X11918061Y2769158D01*
X11927204Y2778302D01*
X11931777Y2787446D01*
X11936349Y2801416D01*
X11936349Y2824530D01*
X11931777Y2838246D01*
X11927204Y2847644D01*
X11918061Y2856788D01*
X11908663Y2861360D01*
X11890375Y2861360D01*
X11966829Y2861360D02*
G01*
X11966829Y2764332D01*
X11966829Y2861360D02*
G01*
X12003913Y2764332D01*
X12040743Y2861360D02*
G01*
X12003913Y2764332D01*
X12040743Y2861360D02*
G01*
X12040743Y2764332D01*
X12151740Y2861360D02*
G01*
X12202540Y2861360D01*
X12174854Y2824530D01*
X12188570Y2824530D01*
X12197968Y2819958D01*
X12202540Y2815132D01*
X12207113Y2801416D01*
X12207113Y2792018D01*
X12202540Y2778302D01*
X12193143Y2769158D01*
X12179427Y2764332D01*
X12165456Y2764332D01*
X12151740Y2769158D01*
X12147168Y2773730D01*
X12142343Y2782874D01*
X12242165Y2838246D02*
G01*
X12242165Y2842818D01*
X12246736Y2852216D01*
X12251309Y2856788D01*
X12260706Y2861360D01*
X12279249Y2861360D01*
X12288393Y2856788D01*
X12292965Y2852216D01*
X12297536Y2842818D01*
X12297536Y2833674D01*
X12292965Y2824530D01*
X12283820Y2810560D01*
X12237593Y2764332D01*
X12302109Y2764332D01*
D32*
X5511927Y1525015D02*
G01*
X5511927Y1416050D01*
X5584570Y1525015D02*
G01*
X5511927Y1452371D01*
X5537834Y1478279D02*
G01*
X5584570Y1416050D01*
X5623940Y1499107D02*
G01*
X5623940Y1504187D01*
X5629275Y1514602D01*
X5634354Y1519936D01*
X5644768Y1525015D01*
X5665597Y1525015D01*
X5676011Y1519936D01*
X5681090Y1514602D01*
X5686425Y1504187D01*
X5686425Y1493773D01*
X5681090Y1483360D01*
X5670677Y1467865D01*
X5618861Y1416050D01*
X5691504Y1416050D01*
X7239127Y1537715D02*
G01*
X7239127Y1428750D01*
X7311770Y1537715D02*
G01*
X7239127Y1465071D01*
X7265034Y1490979D02*
G01*
X7311770Y1428750D01*
X7356475Y1537715D02*
G01*
X7413625Y1537715D01*
X7382383Y1496060D01*
X7397877Y1496060D01*
X7408290Y1490979D01*
X7413625Y1485900D01*
X7418704Y1470152D01*
X7418704Y1459737D01*
X7413625Y1444244D01*
X7403211Y1433829D01*
X7387716Y1428750D01*
X7371968Y1428750D01*
X7356475Y1433829D01*
X7351140Y1438910D01*
X7346061Y1449323D01*
G36*
X10454284Y3726484D02*
G01*
X10454284Y3647287D01*
X10474096Y3647287D01*
X10474096Y3726484D01*
G37*
G36*
X10454284Y3185312D02*
G01*
X10454284Y3106115D01*
X10474096Y3106115D01*
X10474096Y3185312D01*
G37*
G36*
X10398201Y3155594D02*
G01*
X10398201Y3135782D01*
X10530179Y3135782D01*
X10530179Y3155594D01*
G37*
X10386326Y3751861D02*
G01*
X10649965Y3753865D01*
X10649965Y3218179D01*
X10510520Y3078734D01*
X10380979Y3080070D01*
X10241630Y3753248D02*
G01*
X9974783Y3753916D01*
X9974783Y3218296D01*
X10114396Y3078683D01*
X10243820Y3078683D01*
X10069639Y-1050780D02*
G01*
X10069639Y-1191780D01*
X10250360Y-1191780D02*
G01*
X10250360Y-1050780D01*
X10235120Y-1035540D02*
G01*
X10084879Y-1035540D01*
X10069639Y-1413019D02*
G01*
X10069639Y-1272019D01*
X10250360Y-1272019D02*
G01*
X10250360Y-1413019D01*
X10235120Y-1428259D02*
G01*
X10084879Y-1428259D01*
X10631360Y2549380D02*
G01*
X10631360Y2690380D01*
X10450639Y2690380D02*
G01*
X10450639Y2549380D01*
X10465879Y2534140D02*
G01*
X10616120Y2534140D01*
X10631360Y2911619D02*
G01*
X10631360Y2770619D01*
X10450639Y2770619D02*
G01*
X10450639Y2911619D01*
X10465879Y2926859D02*
G01*
X10616120Y2926859D01*
X11758739Y-1139680D02*
G01*
X11758739Y-1280680D01*
X11939460Y-1280680D02*
G01*
X11939460Y-1139680D01*
X11924220Y-1124440D02*
G01*
X11773979Y-1124440D01*
X11758739Y-1501919D02*
G01*
X11758739Y-1360919D01*
X11939460Y-1360919D02*
G01*
X11939460Y-1501919D01*
X11924220Y-1517159D02*
G01*
X11773979Y-1517159D01*
X13701839Y-1139680D02*
G01*
X13701839Y-1280680D01*
X13882560Y-1280680D02*
G01*
X13882560Y-1139680D01*
X13867320Y-1124440D02*
G01*
X13717079Y-1124440D01*
X13701839Y-1501919D02*
G01*
X13701839Y-1360919D01*
X13882560Y-1360919D02*
G01*
X13882560Y-1501919D01*
X13867320Y-1517159D02*
G01*
X13717079Y-1517159D01*
X12423409Y-930280D02*
G01*
X12423409Y-801786D01*
X12239990Y-801786D01*
X12239990Y-930280D01*
X12423409Y-1025519D02*
G01*
X12423409Y-1154013D01*
X12239990Y-1154013D01*
X12239990Y-1025519D01*
X10398119Y-917209D02*
G01*
X10526613Y-917209D01*
X10526613Y-733790D01*
X10398119Y-733790D01*
X10302880Y-917209D02*
G01*
X10174386Y-917209D01*
X10174386Y-733790D01*
X10302880Y-733790D01*
X12677409Y-942980D02*
G01*
X12677409Y-814486D01*
X12493990Y-814486D01*
X12493990Y-942980D01*
X12677409Y-1038219D02*
G01*
X12677409Y-1166713D01*
X12493990Y-1166713D01*
X12493990Y-1038219D01*
X10398490Y-1279519D02*
G01*
X10398490Y-1408013D01*
X10581909Y-1408013D01*
X10581909Y-1279519D01*
X10398490Y-1184280D02*
G01*
X10398490Y-1055786D01*
X10581909Y-1055786D01*
X10581909Y-1184280D01*
D10*
X13582604Y-1565653D02*
G01*
X13582604Y-1670006D01*
X13582604Y-1115654D02*
G01*
X13582604Y-1424358D01*
X13582604Y-870008D02*
G01*
X13582604Y-974359D01*
X12782605Y-870008D02*
G01*
X13582604Y-870008D01*
X12782605Y-974359D02*
G01*
X12782605Y-870008D01*
X12782605Y-1424358D02*
G01*
X12782605Y-1115654D01*
X12782605Y-1670006D02*
G01*
X12782605Y-1565653D01*
X13582604Y-1670006D02*
G01*
X12782605Y-1670006D01*
X10826795Y-961646D02*
G01*
X10826795Y-857293D01*
X10826795Y-1411645D02*
G01*
X10826795Y-1102941D01*
X10826795Y-1657291D02*
G01*
X10826795Y-1552940D01*
X11626794Y-1657291D02*
G01*
X10826795Y-1657291D01*
X11626794Y-1552940D02*
G01*
X11626794Y-1657291D01*
X11626794Y-1102941D02*
G01*
X11626794Y-1411645D01*
X11626794Y-857293D02*
G01*
X11626794Y-961646D01*
X10826795Y-857293D02*
G01*
X11626794Y-857293D01*
D33*
X3915084Y2591399D02*
G01*
X4409998Y2591399D01*
X3210001Y2591399D02*
G01*
X3704874Y2591399D01*
X3210003Y2591399D02*
G01*
X3210001Y2693187D01*
X4409996Y2591399D02*
G01*
X4409998Y2693187D01*
X3384295Y1645361D02*
G01*
X3778758Y1645361D01*
X3880104Y1747189D02*
G01*
X4040886Y1582140D01*
X3989999Y3065373D02*
G01*
X4182719Y3065373D01*
X4182719Y2201773D01*
X3882720Y2201773D01*
X3880304Y2199360D01*
X3880304Y1797761D01*
X3880304Y1746961D01*
D10*
X3030001Y1312090D02*
G01*
X3030001Y3232101D01*
X4590003Y1312103D02*
G01*
X4590003Y3232114D01*
X3029999Y1312100D02*
G01*
X4590000Y1312100D01*
X4234688Y1652270D02*
G01*
X4011929Y1652270D01*
X4590003Y3232114D02*
G01*
X3839469Y3232114D01*
X3780530Y3232114D02*
G01*
X3030001Y3232114D01*
X3909999Y2739694D02*
G01*
X3909999Y2439695D01*
X3710000Y2439695D01*
X3710000Y2739694D01*
X3909999Y2739694D01*
D33*
X9147484Y2591399D02*
G01*
X9642398Y2591399D01*
X8442401Y2591399D02*
G01*
X8937274Y2591399D01*
X8442403Y2591399D02*
G01*
X8442401Y2693187D01*
X9642396Y2591399D02*
G01*
X9642398Y2693187D01*
X8616695Y1645361D02*
G01*
X9011158Y1645361D01*
X9112504Y1747189D02*
G01*
X9273286Y1582140D01*
X9222399Y3065373D02*
G01*
X9415119Y3065373D01*
X9415119Y2201773D01*
X9115120Y2201773D01*
X9112704Y2199360D01*
X9112704Y1797761D01*
X9112704Y1746961D01*
D10*
X8262401Y1312090D02*
G01*
X8262401Y3232101D01*
X9822403Y1312103D02*
G01*
X9822403Y3232114D01*
X8262399Y1312100D02*
G01*
X9822400Y1312100D01*
X9467088Y1652270D02*
G01*
X9244329Y1652270D01*
X9822403Y3232114D02*
G01*
X9071869Y3232114D01*
X9012930Y3232114D02*
G01*
X8262401Y3232114D01*
X9142399Y2739694D02*
G01*
X9142399Y2439695D01*
X8942400Y2439695D01*
X8942400Y2739694D01*
X9142399Y2739694D01*
X939977Y-1794662D02*
G01*
X939977Y-894664D01*
X1989963Y-1791665D02*
G01*
X1989963Y-891667D01*
X1989963Y-1794662D02*
G01*
X939977Y-1794662D01*
X1992960Y-1611680D02*
G01*
X942975Y-1611680D01*
X1989963Y-1734667D02*
G01*
X939977Y-1734667D01*
X1989963Y-891667D02*
G01*
X939977Y-891667D01*
X3327577Y-1781962D02*
G01*
X3327577Y-881964D01*
X4377563Y-1778965D02*
G01*
X4377563Y-878967D01*
X4377563Y-1781962D02*
G01*
X3327577Y-1781962D01*
X4380560Y-1598980D02*
G01*
X3330575Y-1598980D01*
X4377563Y-1721967D02*
G01*
X3327577Y-1721967D01*
X4377563Y-878967D02*
G01*
X3327577Y-878967D01*
X6654977Y-1769262D02*
G01*
X6654977Y-869264D01*
X7704963Y-1766265D02*
G01*
X7704963Y-866267D01*
X7704963Y-1769262D02*
G01*
X6654977Y-1769262D01*
X7707960Y-1586280D02*
G01*
X6657975Y-1586280D01*
X7704963Y-1709267D02*
G01*
X6654977Y-1709267D01*
X7704963Y-866267D02*
G01*
X6654977Y-866267D01*
X5016677Y-1781962D02*
G01*
X5016677Y-881964D01*
X6066663Y-1778965D02*
G01*
X6066663Y-878967D01*
X6066663Y-1781962D02*
G01*
X5016677Y-1781962D01*
X6069660Y-1598980D02*
G01*
X5019675Y-1598980D01*
X6066663Y-1721967D02*
G01*
X5016677Y-1721967D01*
X6066663Y-878967D02*
G01*
X5016677Y-878967D01*
X8432977Y-1769262D02*
G01*
X8432977Y-869264D01*
X9482963Y-1766265D02*
G01*
X9482963Y-866267D01*
X9482963Y-1769262D02*
G01*
X8432977Y-1769262D01*
X9485960Y-1586280D02*
G01*
X8435975Y-1586280D01*
X9482963Y-1709267D02*
G01*
X8432977Y-1709267D01*
X9482963Y-866267D02*
G01*
X8432977Y-866267D01*
D34*
X12966700Y2159000D02*
G01*
X12966700Y1968500D01*
X13220700Y1968500D01*
X13220700Y3492500D01*
X12966700Y3492500D01*
D35*
X12966700Y3492500D02*
G01*
X12966700Y2159000D01*
D10*
X4301492Y3516401D02*
G01*
X4235500Y3516401D01*
X4301492Y3516401D01*
X4235500Y3516401D01*
X4235500Y3597910D01*
X4527501Y3597910D02*
G01*
X4527501Y3516401D01*
X4461507Y3516401D01*
D36*
X4411494Y3671392D02*
G01*
X4351505Y3671392D01*
D10*
X7730492Y3427501D02*
G01*
X7664500Y3427501D01*
X7730492Y3427501D01*
X7664500Y3427501D01*
X7664500Y3509010D01*
X7956501Y3509010D02*
G01*
X7956501Y3427501D01*
X7890507Y3427501D01*
D36*
X7840494Y3582492D02*
G01*
X7780505Y3582492D01*
D10*
X6028692Y3516401D02*
G01*
X5962700Y3516401D01*
X6028692Y3516401D01*
X5962700Y3516401D01*
X5962700Y3597910D01*
X6254701Y3597910D02*
G01*
X6254701Y3516401D01*
X6188707Y3516401D01*
D36*
X6138694Y3671392D02*
G01*
X6078705Y3671392D01*
D10*
X9559292Y3427501D02*
G01*
X9493300Y3427501D01*
X9559292Y3427501D01*
X9493300Y3427501D01*
X9493300Y3509010D01*
X9785301Y3509010D02*
G01*
X9785301Y3427501D01*
X9719307Y3427501D01*
D36*
X9669294Y3582492D02*
G01*
X9609305Y3582492D01*
D32*
X4010019Y911590D02*
G01*
X4138513Y911590D01*
X4138513Y1095009D01*
X4010019Y1095009D01*
X3914780Y911590D02*
G01*
X3786286Y911590D01*
X3786286Y1095009D01*
X3914780Y1095009D01*
X7477119Y975090D02*
G01*
X7605613Y975090D01*
X7605613Y1158509D01*
X7477119Y1158509D01*
X7381880Y975090D02*
G01*
X7253386Y975090D01*
X7253386Y1158509D01*
X7381880Y1158509D01*
X5648319Y924290D02*
G01*
X5776813Y924290D01*
X5776813Y1107709D01*
X5648319Y1107709D01*
X5553080Y924290D02*
G01*
X5424586Y924290D01*
X5424586Y1107709D01*
X5553080Y1107709D01*
X9039219Y936990D02*
G01*
X9167713Y936990D01*
X9167713Y1120409D01*
X9039219Y1120409D01*
X8943980Y936990D02*
G01*
X8815486Y936990D01*
X8815486Y1120409D01*
X8943980Y1120409D01*
D10*
X4563102Y4206295D02*
G01*
X4403097Y4206295D01*
X4403608Y4021234D02*
G01*
X4403608Y3896238D01*
X4563612Y4021234D02*
G01*
X4563612Y3896238D01*
X4403097Y4081292D02*
G01*
X4403097Y4206295D01*
X4563102Y4081292D02*
G01*
X4563102Y4206295D01*
X4563612Y3896238D02*
G01*
X4403608Y3896238D01*
X6264902Y4155495D02*
G01*
X6104897Y4155495D01*
X6105408Y3970434D02*
G01*
X6105408Y3845438D01*
X6265412Y3970434D02*
G01*
X6265412Y3845438D01*
X6104897Y4030492D02*
G01*
X6104897Y4155495D01*
X6264902Y4030492D02*
G01*
X6264902Y4155495D01*
X6265412Y3845438D02*
G01*
X6105408Y3845438D01*
X7992102Y4117395D02*
G01*
X7832097Y4117395D01*
X7832608Y3932334D02*
G01*
X7832608Y3807338D01*
X7992612Y3932334D02*
G01*
X7992612Y3807338D01*
X7832097Y3992392D02*
G01*
X7832097Y4117395D01*
X7992102Y3992392D02*
G01*
X7992102Y4117395D01*
X7992612Y3807338D02*
G01*
X7832608Y3807338D01*
X9744702Y4091995D02*
G01*
X9584697Y4091995D01*
X9585208Y3906934D02*
G01*
X9585208Y3781938D01*
X9745212Y3906934D02*
G01*
X9745212Y3781938D01*
X9584697Y3966992D02*
G01*
X9584697Y4091995D01*
X9744702Y3966992D02*
G01*
X9744702Y4091995D01*
X9745212Y3781938D02*
G01*
X9585208Y3781938D01*
D32*
X7308720Y-742909D02*
G01*
X7444712Y-742909D01*
X7444712Y-527090D01*
X7308720Y-527090D01*
X7118479Y-742909D02*
G01*
X6982487Y-742909D01*
X6982487Y-527090D01*
X7118479Y-527090D01*
X4082920Y-844509D02*
G01*
X4218912Y-844509D01*
X4218912Y-628690D01*
X4082920Y-628690D01*
X3892679Y-844509D02*
G01*
X3756687Y-844509D01*
X3756687Y-628690D01*
X3892679Y-628690D01*
X5733920Y-793709D02*
G01*
X5869912Y-793709D01*
X5869912Y-577890D01*
X5733920Y-577890D01*
X5543679Y-793709D02*
G01*
X5407687Y-793709D01*
X5407687Y-577890D01*
X5543679Y-577890D01*
X9074020Y-781009D02*
G01*
X9210012Y-781009D01*
X9210012Y-565190D01*
X9074020Y-565190D01*
X8883779Y-781009D02*
G01*
X8747787Y-781009D01*
X8747787Y-565190D01*
X8883779Y-565190D01*
D10*
X7981500Y591700D02*
G01*
X7981500Y-58300D01*
X7981500Y-58300D02*
G01*
X7131499Y-58300D01*
X7131499Y591700D02*
G01*
X7131499Y342900D01*
X7131499Y-58300D02*
G01*
X7131499Y190500D01*
X7131499Y598406D02*
G01*
X7981500Y598406D01*
X4514400Y540900D02*
G01*
X4514400Y-109100D01*
X4514400Y-109100D02*
G01*
X3664399Y-109100D01*
X3664399Y540900D02*
G01*
X3664399Y292100D01*
X3664399Y-109100D02*
G01*
X3664399Y139700D01*
X3664399Y547606D02*
G01*
X4514400Y547606D01*
X6152700Y540900D02*
G01*
X6152700Y-109100D01*
X6152700Y-109100D02*
G01*
X5302699Y-109100D01*
X5302699Y540900D02*
G01*
X5302699Y292100D01*
X5302699Y-109100D02*
G01*
X5302699Y139700D01*
X5302699Y547606D02*
G01*
X6152700Y547606D01*
X9543600Y591700D02*
G01*
X9543600Y-58300D01*
X9543600Y-58300D02*
G01*
X8693599Y-58300D01*
X8693599Y591700D02*
G01*
X8693599Y342900D01*
X8693599Y-58300D02*
G01*
X8693599Y190500D01*
X8693599Y598406D02*
G01*
X9543600Y598406D01*
X2590800Y139707D02*
G01*
X2590800Y3949702D01*
X285099Y3949702D02*
G01*
X285099Y139707D01*
X2590800Y139707D01*
X285099Y3949702D02*
G01*
X2585102Y3949702D01*
X10825352Y3519322D02*
G01*
X12625349Y3519322D01*
X10825352Y969594D02*
G01*
X12625120Y968984D01*
X12625349Y3519322D02*
G01*
X12625349Y969314D01*
X10825073Y3519423D02*
G01*
X10825073Y969416D01*
X10825200Y2919323D02*
G01*
X12625197Y2919323D01*
D36*
X11125479Y3059937D02*
G01*
X11125428Y3419525D01*
X11325428Y3419525D01*
X11325428Y3119526D01*
X11525427Y3119526D01*
X11525427Y3419525D01*
X11725427Y3419525D01*
X11725427Y3119526D01*
X11925427Y3119526D01*
X11925427Y3419525D01*
X12325426Y3419525D01*
X12325426Y3019526D01*
X12125426Y3019526D02*
G01*
X12125426Y3419525D01*
D33*
X5629584Y2578699D02*
G01*
X6124498Y2578699D01*
X4924501Y2578699D02*
G01*
X5419374Y2578699D01*
X4924503Y2578699D02*
G01*
X4924501Y2680487D01*
X6124496Y2578699D02*
G01*
X6124498Y2680487D01*
X5098795Y1632661D02*
G01*
X5493258Y1632661D01*
X5594604Y1734489D02*
G01*
X5755386Y1569440D01*
X5704499Y3052673D02*
G01*
X5897219Y3052673D01*
X5897219Y2189073D01*
X5597220Y2189073D01*
X5594804Y2186660D01*
X5594804Y1785061D01*
X5594804Y1734261D01*
D10*
X4744501Y1299390D02*
G01*
X4744501Y3219401D01*
X6304503Y1299403D02*
G01*
X6304503Y3219414D01*
X4744499Y1299400D02*
G01*
X6304500Y1299400D01*
X5949188Y1639570D02*
G01*
X5726429Y1639570D01*
X6304503Y3219414D02*
G01*
X5553969Y3219414D01*
X5495030Y3219414D02*
G01*
X4744501Y3219414D01*
X5624499Y2726994D02*
G01*
X5624499Y2426995D01*
X5424500Y2426995D01*
X5424500Y2726994D01*
X5624499Y2726994D01*
D33*
X7407584Y2604099D02*
G01*
X7902498Y2604099D01*
X6702501Y2604099D02*
G01*
X7197374Y2604099D01*
X6702503Y2604099D02*
G01*
X6702501Y2705887D01*
X7902496Y2604099D02*
G01*
X7902498Y2705887D01*
X6876795Y1658061D02*
G01*
X7271258Y1658061D01*
X7372604Y1759889D02*
G01*
X7533386Y1594840D01*
X7482499Y3078073D02*
G01*
X7675219Y3078073D01*
X7675219Y2214473D01*
X7375220Y2214473D01*
X7372804Y2212060D01*
X7372804Y1810461D01*
X7372804Y1759661D01*
D10*
X6522501Y1324790D02*
G01*
X6522501Y3244801D01*
X8082503Y1324803D02*
G01*
X8082503Y3244814D01*
X6522499Y1324800D02*
G01*
X8082500Y1324800D01*
X7727188Y1664970D02*
G01*
X7504429Y1664970D01*
X8082503Y3244814D02*
G01*
X7331969Y3244814D01*
X7273030Y3244814D02*
G01*
X6522501Y3244814D01*
X7402499Y2752394D02*
G01*
X7402499Y2452395D01*
X7202500Y2452395D01*
X7202500Y2752394D01*
X7402499Y2752394D01*
D32*
G75*
G01*
X10250360Y-1050780D02*
G03*
X10235121Y-1035540I-15240J0D01*
G75*
G01*
X10084879Y-1035540D02*
G03*
X10069640Y-1050780I1J-15240D01*
G75*
G01*
X10250360Y-1413020D02*
G02*
X10235121Y-1428260I-15240J0D01*
G75*
G01*
X10084879Y-1428260D02*
G02*
X10069640Y-1413020I1J15240D01*
G75*
G01*
X10450640Y2549380D02*
G03*
X10465879Y2534140I15240J0D01*
G75*
G01*
X10616121Y2534140D02*
G03*
X10631360Y2549380I-1J15240D01*
G75*
G01*
X10450640Y2911620D02*
G02*
X10465879Y2926860I15240J0D01*
G75*
G01*
X10616121Y2926860D02*
G02*
X10631360Y2911620I-1J-15240D01*
G75*
G01*
X11939460Y-1139680D02*
G03*
X11924221Y-1124440I-15240J0D01*
G75*
G01*
X11773979Y-1124440D02*
G03*
X11758740Y-1139680I1J-15240D01*
G75*
G01*
X11939460Y-1501920D02*
G02*
X11924221Y-1517160I-15240J0D01*
G75*
G01*
X11773979Y-1517160D02*
G02*
X11758740Y-1501920I1J15240D01*
G75*
G01*
X13882560Y-1139680D02*
G03*
X13867321Y-1124440I-15240J0D01*
G75*
G01*
X13717079Y-1124440D02*
G03*
X13701840Y-1139680I1J-15240D01*
G75*
G01*
X13882560Y-1501920D02*
G02*
X13867321Y-1517160I-15240J0D01*
G75*
G01*
X13717079Y-1517160D02*
G02*
X13701840Y-1501920I1J15240D01*
D10*
G75*
G01*
X7131500Y342900D02*
G02*
X7131558Y190500I29J-76200D01*
G75*
G01*
X3664400Y292100D02*
G02*
X3664458Y139700I29J-76200D01*
G75*
G01*
X5302700Y292100D02*
G02*
X5302758Y139700I29J-76200D01*
G75*
G01*
X8693600Y342900D02*
G02*
X8693658Y190500I29J-76200D01*
G75*
G01
X13377863Y-1270000D02*
G03X13377863Y-1270000I-195250J0D01*
G75*
G01
X11422037Y-1257300D02*
G03X11422037Y-1257300I-195250J0D01*
G75*
G01
X7175500Y-190500D02*
G03X7175500Y-190500I-25400J0D01*
G75*
G01
X3708400Y-241300D02*
G03X3708400Y-241300I-25400J0D01*
G75*
G01
X5346700Y-241300D02*
G03X5346700Y-241300I-25400J0D01*
G75*
G01
X8737600Y-190500D02*
G03X8737600Y-190500I-25400J0D01*
M02*
