G04 #@! TF.GenerationSoftware,KiCad,Pcbnew,8.0.2*
G04 #@! TF.CreationDate,2024-05-29T19:15:56+02:00*
G04 #@! TF.ProjectId,hamodule,68616d6f-6475-46c6-952e-6b696361645f,20240528.23.8*
G04 #@! TF.SameCoordinates,Original*
G04 #@! TF.FileFunction,Copper,L1,Top*
G04 #@! TF.FilePolarity,Positive*
%FSLAX46Y46*%
G04 Gerber Fmt 4.6, Leading zero omitted, Abs format (unit mm)*
G04 Created by KiCad (PCBNEW 8.0.2) date 2024-05-29 19:15:56*
%MOMM*%
%LPD*%
G01*
G04 APERTURE LIST*
G04 Aperture macros list*
%AMRoundRect*
0 Rectangle with rounded corners*
0 $1 Rounding radius*
0 $2 $3 $4 $5 $6 $7 $8 $9 X,Y pos of 4 corners*
0 Add a 4 corners polygon primitive as box body*
4,1,4,$2,$3,$4,$5,$6,$7,$8,$9,$2,$3,0*
0 Add four circle primitives for the rounded corners*
1,1,$1+$1,$2,$3*
1,1,$1+$1,$4,$5*
1,1,$1+$1,$6,$7*
1,1,$1+$1,$8,$9*
0 Add four rect primitives between the rounded corners*
20,1,$1+$1,$2,$3,$4,$5,0*
20,1,$1+$1,$4,$5,$6,$7,0*
20,1,$1+$1,$6,$7,$8,$9,0*
20,1,$1+$1,$8,$9,$2,$3,0*%
G04 Aperture macros list end*
G04 #@! TA.AperFunction,EtchedComponent*
%ADD10C,0.381000*%
G04 #@! TD*
G04 #@! TA.AperFunction,ComponentPad*
%ADD11R,1.700000X1.700000*%
G04 #@! TD*
G04 #@! TA.AperFunction,ComponentPad*
%ADD12O,1.700000X1.700000*%
G04 #@! TD*
G04 #@! TA.AperFunction,SMDPad,CuDef*
%ADD13RoundRect,0.249999X-1.425001X0.450001X-1.425001X-0.450001X1.425001X-0.450001X1.425001X0.450001X0*%
G04 #@! TD*
G04 #@! TA.AperFunction,ComponentPad*
%ADD14C,1.800000*%
G04 #@! TD*
G04 #@! TA.AperFunction,SMDPad,CuDef*
%ADD15RoundRect,0.250000X0.450000X-0.325000X0.450000X0.325000X-0.450000X0.325000X-0.450000X-0.325000X0*%
G04 #@! TD*
G04 #@! TA.AperFunction,SMDPad,CuDef*
%ADD16RoundRect,0.250000X0.450000X-0.350000X0.450000X0.350000X-0.450000X0.350000X-0.450000X-0.350000X0*%
G04 #@! TD*
G04 #@! TA.AperFunction,ComponentPad*
%ADD17RoundRect,0.250000X0.750000X-0.600000X0.750000X0.600000X-0.750000X0.600000X-0.750000X-0.600000X0*%
G04 #@! TD*
G04 #@! TA.AperFunction,ComponentPad*
%ADD18O,2.000000X1.700000*%
G04 #@! TD*
G04 #@! TA.AperFunction,SMDPad,CuDef*
%ADD19RoundRect,0.250000X0.337500X0.475000X-0.337500X0.475000X-0.337500X-0.475000X0.337500X-0.475000X0*%
G04 #@! TD*
G04 #@! TA.AperFunction,SMDPad,CuDef*
%ADD20RoundRect,0.250000X-0.337500X-0.475000X0.337500X-0.475000X0.337500X0.475000X-0.337500X0.475000X0*%
G04 #@! TD*
G04 #@! TA.AperFunction,ComponentPad*
%ADD21R,2.000000X2.000000*%
G04 #@! TD*
G04 #@! TA.AperFunction,ComponentPad*
%ADD22C,2.000000*%
G04 #@! TD*
G04 #@! TA.AperFunction,ComponentPad*
%ADD23R,1.905000X2.000000*%
G04 #@! TD*
G04 #@! TA.AperFunction,ComponentPad*
%ADD24O,1.905000X2.000000*%
G04 #@! TD*
G04 #@! TA.AperFunction,ComponentPad*
%ADD25RoundRect,0.625000X0.625000X0.625000X-0.625000X0.625000X-0.625000X-0.625000X0.625000X-0.625000X0*%
G04 #@! TD*
G04 #@! TA.AperFunction,ComponentPad*
%ADD26C,5.500000*%
G04 #@! TD*
G04 #@! TA.AperFunction,ComponentPad*
%ADD27R,1.600000X2.400000*%
G04 #@! TD*
G04 #@! TA.AperFunction,ComponentPad*
%ADD28O,1.600000X2.400000*%
G04 #@! TD*
G04 #@! TA.AperFunction,SMDPad,CuDef*
%ADD29RoundRect,0.237500X-0.250000X-0.237500X0.250000X-0.237500X0.250000X0.237500X-0.250000X0.237500X0*%
G04 #@! TD*
G04 #@! TA.AperFunction,SMDPad,CuDef*
%ADD30RoundRect,0.237500X0.300000X0.237500X-0.300000X0.237500X-0.300000X-0.237500X0.300000X-0.237500X0*%
G04 #@! TD*
G04 #@! TA.AperFunction,SMDPad,CuDef*
%ADD31R,1.800000X1.100000*%
G04 #@! TD*
G04 #@! TA.AperFunction,SMDPad,CuDef*
%ADD32RoundRect,0.237500X-0.300000X-0.237500X0.300000X-0.237500X0.300000X0.237500X-0.300000X0.237500X0*%
G04 #@! TD*
G04 #@! TA.AperFunction,SMDPad,CuDef*
%ADD33RoundRect,0.237500X-0.237500X0.300000X-0.237500X-0.300000X0.237500X-0.300000X0.237500X0.300000X0*%
G04 #@! TD*
G04 #@! TA.AperFunction,SMDPad,CuDef*
%ADD34RoundRect,0.225000X0.225000X0.250000X-0.225000X0.250000X-0.225000X-0.250000X0.225000X-0.250000X0*%
G04 #@! TD*
G04 #@! TA.AperFunction,SMDPad,CuDef*
%ADD35R,0.400000X1.000000*%
G04 #@! TD*
G04 #@! TA.AperFunction,SMDPad,CuDef*
%ADD36RoundRect,0.237500X0.237500X-0.250000X0.237500X0.250000X-0.237500X0.250000X-0.237500X-0.250000X0*%
G04 #@! TD*
G04 #@! TA.AperFunction,SMDPad,CuDef*
%ADD37RoundRect,0.218750X0.256250X-0.218750X0.256250X0.218750X-0.256250X0.218750X-0.256250X-0.218750X0*%
G04 #@! TD*
G04 #@! TA.AperFunction,SMDPad,CuDef*
%ADD38RoundRect,0.150000X0.512500X0.150000X-0.512500X0.150000X-0.512500X-0.150000X0.512500X-0.150000X0*%
G04 #@! TD*
G04 #@! TA.AperFunction,SMDPad,CuDef*
%ADD39RoundRect,0.200000X0.200000X0.275000X-0.200000X0.275000X-0.200000X-0.275000X0.200000X-0.275000X0*%
G04 #@! TD*
G04 #@! TA.AperFunction,ComponentPad*
%ADD40R,1.600000X1.600000*%
G04 #@! TD*
G04 #@! TA.AperFunction,ComponentPad*
%ADD41C,1.600000*%
G04 #@! TD*
G04 #@! TA.AperFunction,SMDPad,CuDef*
%ADD42R,0.900000X1.500000*%
G04 #@! TD*
G04 #@! TA.AperFunction,SMDPad,CuDef*
%ADD43R,1.500000X0.900000*%
G04 #@! TD*
G04 #@! TA.AperFunction,SMDPad,CuDef*
%ADD44R,1.000000X1.000000*%
G04 #@! TD*
G04 #@! TA.AperFunction,SMDPad,CuDef*
%ADD45RoundRect,0.237500X0.237500X-0.300000X0.237500X0.300000X-0.237500X0.300000X-0.237500X-0.300000X0*%
G04 #@! TD*
G04 #@! TA.AperFunction,SMDPad,CuDef*
%ADD46RoundRect,0.200000X-0.275000X0.200000X-0.275000X-0.200000X0.275000X-0.200000X0.275000X0.200000X0*%
G04 #@! TD*
G04 #@! TA.AperFunction,ComponentPad*
%ADD47R,1.000000X1.000000*%
G04 #@! TD*
G04 #@! TA.AperFunction,SMDPad,CuDef*
%ADD48RoundRect,0.250000X-0.450000X0.325000X-0.450000X-0.325000X0.450000X-0.325000X0.450000X0.325000X0*%
G04 #@! TD*
G04 #@! TA.AperFunction,SMDPad,CuDef*
%ADD49RoundRect,0.250000X-0.475000X0.337500X-0.475000X-0.337500X0.475000X-0.337500X0.475000X0.337500X0*%
G04 #@! TD*
G04 #@! TA.AperFunction,SMDPad,CuDef*
%ADD50RoundRect,0.112500X-0.112500X0.187500X-0.112500X-0.187500X0.112500X-0.187500X0.112500X0.187500X0*%
G04 #@! TD*
G04 #@! TA.AperFunction,SMDPad,CuDef*
%ADD51R,0.600000X1.450000*%
G04 #@! TD*
G04 #@! TA.AperFunction,SMDPad,CuDef*
%ADD52R,0.300000X1.450000*%
G04 #@! TD*
G04 #@! TA.AperFunction,ComponentPad*
%ADD53O,1.000000X2.100000*%
G04 #@! TD*
G04 #@! TA.AperFunction,ComponentPad*
%ADD54O,1.000000X1.600000*%
G04 #@! TD*
G04 #@! TA.AperFunction,ComponentPad*
%ADD55RoundRect,0.250000X-0.600000X-0.725000X0.600000X-0.725000X0.600000X0.725000X-0.600000X0.725000X0*%
G04 #@! TD*
G04 #@! TA.AperFunction,ComponentPad*
%ADD56O,1.700000X1.950000*%
G04 #@! TD*
G04 #@! TA.AperFunction,SMDPad,CuDef*
%ADD57RoundRect,0.150000X-0.875000X-0.150000X0.875000X-0.150000X0.875000X0.150000X-0.875000X0.150000X0*%
G04 #@! TD*
G04 #@! TA.AperFunction,SMDPad,CuDef*
%ADD58RoundRect,0.250000X-0.350000X-0.450000X0.350000X-0.450000X0.350000X0.450000X-0.350000X0.450000X0*%
G04 #@! TD*
G04 #@! TA.AperFunction,SMDPad,CuDef*
%ADD59R,0.820000X0.304800*%
G04 #@! TD*
G04 #@! TA.AperFunction,SMDPad,CuDef*
%ADD60R,0.820000X0.308800*%
G04 #@! TD*
G04 #@! TA.AperFunction,SMDPad,CuDef*
%ADD61RoundRect,0.150000X0.150000X-0.512500X0.150000X0.512500X-0.150000X0.512500X-0.150000X-0.512500X0*%
G04 #@! TD*
G04 #@! TA.AperFunction,SMDPad,CuDef*
%ADD62RoundRect,0.225000X-0.225000X-0.250000X0.225000X-0.250000X0.225000X0.250000X-0.225000X0.250000X0*%
G04 #@! TD*
G04 #@! TA.AperFunction,SMDPad,CuDef*
%ADD63R,1.500000X1.000000*%
G04 #@! TD*
G04 #@! TA.AperFunction,ViaPad*
%ADD64C,0.800000*%
G04 #@! TD*
G04 #@! TA.AperFunction,Conductor*
%ADD65C,3.000000*%
G04 #@! TD*
G04 #@! TA.AperFunction,Conductor*
%ADD66C,1.000000*%
G04 #@! TD*
G04 #@! TA.AperFunction,Conductor*
%ADD67C,0.600000*%
G04 #@! TD*
G04 #@! TA.AperFunction,Conductor*
%ADD68C,0.400000*%
G04 #@! TD*
G04 #@! TA.AperFunction,Conductor*
%ADD69C,1.500000*%
G04 #@! TD*
G04 #@! TA.AperFunction,Conductor*
%ADD70C,0.250000*%
G04 #@! TD*
G04 #@! TA.AperFunction,Conductor*
%ADD71C,2.000000*%
G04 #@! TD*
G04 #@! TA.AperFunction,Conductor*
%ADD72C,0.200000*%
G04 #@! TD*
G04 #@! TA.AperFunction,Conductor*
%ADD73C,0.350000*%
G04 #@! TD*
G04 APERTURE END LIST*
D10*
X145846800Y-75412600D02*
X152831800Y-70713600D01*
X147497800Y-74904600D02*
X151053800Y-75412600D01*
X147497800Y-75412600D02*
X147497800Y-74904600D01*
X147497800Y-75920600D02*
X147497800Y-75412600D01*
X150926800Y-75412600D02*
X147497800Y-75285600D01*
X151053800Y-75412600D02*
X147497800Y-75539600D01*
X151053800Y-75412600D02*
X147497800Y-75920600D01*
X152831800Y-70713600D02*
X152831800Y-80111600D01*
X152831800Y-80111600D02*
X145846800Y-75412600D01*
X152069800Y-75412600D02*
G75*
G02*
X151815800Y-75412600I-127000J0D01*
G01*
X151815800Y-75412600D02*
G75*
G02*
X152069800Y-75412600I127000J0D01*
G01*
X152302010Y-75412600D02*
G75*
G02*
X151583590Y-75412600I-359210J0D01*
G01*
X151583590Y-75412600D02*
G75*
G02*
X152302010Y-75412600I359210J0D01*
G01*
D11*
X47752500Y-108737400D03*
D12*
X47752500Y-111277400D03*
D13*
X100151000Y-56411500D03*
X100151000Y-62511500D03*
X105104000Y-56411500D03*
X105104000Y-62511500D03*
D14*
X34502400Y-58463070D03*
X42002400Y-60096400D03*
D13*
X105104000Y-64463300D03*
X105104000Y-70563300D03*
X100151000Y-64463300D03*
X100151000Y-70563300D03*
D15*
X54229000Y-108883200D03*
X54229000Y-106833200D03*
D16*
X52171600Y-108857800D03*
X52171600Y-106857800D03*
D17*
X40839300Y-111899700D03*
D18*
X40839300Y-109399700D03*
D19*
X33520200Y-101269800D03*
X31445200Y-101269800D03*
D20*
X42240200Y-105359200D03*
X44315200Y-105359200D03*
D21*
X27656000Y-68046600D03*
D22*
X27656000Y-88046600D03*
X47656000Y-83046600D03*
X47656000Y-73046600D03*
D23*
X37118700Y-97739200D03*
D24*
X39658700Y-97739200D03*
X42198700Y-97739200D03*
D25*
X68567800Y-43332400D03*
X68567800Y-35132401D03*
X63567800Y-43332400D03*
X63567800Y-35132401D03*
X58567800Y-43332400D03*
X58567800Y-35132401D03*
X53567800Y-43332400D03*
X53567800Y-35132401D03*
X44020000Y-43355999D03*
X44020000Y-35156000D03*
X39020000Y-43355999D03*
X39020000Y-35156000D03*
X115140000Y-43328199D03*
X115140000Y-35128200D03*
X110140000Y-43328199D03*
X110140000Y-35128200D03*
X105140000Y-43328199D03*
X105140000Y-35128200D03*
X100140000Y-43328199D03*
X100140000Y-35128200D03*
D22*
X42037000Y-49225200D03*
X42027000Y-54305200D03*
D26*
X27000000Y-36000000D03*
X150300000Y-36000000D03*
D27*
X139389178Y-74236118D03*
D28*
X136849178Y-74236118D03*
X134309178Y-74236118D03*
X131769178Y-74236118D03*
X131769178Y-81856118D03*
X134309178Y-81856118D03*
X136849178Y-81856118D03*
X139389178Y-81856118D03*
D13*
X115162400Y-64463300D03*
X115162400Y-70563300D03*
X110133200Y-56411500D03*
X110133200Y-62511500D03*
X115162400Y-56411500D03*
X115162400Y-62511500D03*
D27*
X105081300Y-74239600D03*
D28*
X102541300Y-74239600D03*
X100001300Y-74239600D03*
X97461300Y-74239600D03*
X97461300Y-81859600D03*
X100001300Y-81859600D03*
X102541300Y-81859600D03*
X105081300Y-81859600D03*
D27*
X116257300Y-74239600D03*
D28*
X113717300Y-74239600D03*
X111177300Y-74239600D03*
X108637300Y-74239600D03*
X108637300Y-81859600D03*
X111177300Y-81859600D03*
X113717300Y-81859600D03*
X116257300Y-81859600D03*
D13*
X110133200Y-64463300D03*
X110133200Y-70563300D03*
D29*
X130464402Y-89787199D03*
X132289402Y-89787199D03*
D30*
X132226902Y-91311199D03*
X130501902Y-91311199D03*
D17*
X32914500Y-111899700D03*
D18*
X32914500Y-109399700D03*
D31*
X89547000Y-99542600D03*
X95747000Y-99542600D03*
X89547000Y-103242600D03*
X95747000Y-103242600D03*
X89545800Y-109702600D03*
X95745800Y-109702600D03*
X89545800Y-113402600D03*
X95745800Y-113402600D03*
D11*
X125305402Y-113659699D03*
D12*
X127845402Y-113659699D03*
D32*
X133856902Y-91311199D03*
X135581902Y-91311199D03*
D33*
X111655402Y-102307199D03*
X111655402Y-104032199D03*
D34*
X101710402Y-101389699D03*
X100160402Y-101389699D03*
D15*
X56311800Y-108883200D03*
X56311800Y-106833200D03*
D35*
X57888800Y-90177600D03*
X58538800Y-90177600D03*
X59188800Y-90177600D03*
X59838800Y-90177600D03*
X60488800Y-90177600D03*
X61138800Y-90177600D03*
X61788800Y-90177600D03*
X62438800Y-90177600D03*
X63088800Y-90177600D03*
X63088800Y-84777600D03*
X62438800Y-84777600D03*
X61788800Y-84777600D03*
X61138800Y-84777600D03*
X60488800Y-84777600D03*
X59838800Y-84777600D03*
X59188800Y-84777600D03*
X58538800Y-84777600D03*
X57888800Y-84777600D03*
D36*
X63333600Y-105816400D03*
X63333600Y-103991400D03*
D25*
X138497702Y-43328199D03*
X138497702Y-35128200D03*
X133497702Y-43328199D03*
X133497702Y-35128200D03*
X128497702Y-43328199D03*
X128497702Y-35128200D03*
X123497702Y-43328199D03*
X123497702Y-35128200D03*
X91935800Y-43332400D03*
X91935800Y-35132401D03*
X86935800Y-43332400D03*
X86935800Y-35132401D03*
X81935800Y-43332400D03*
X81935800Y-35132401D03*
X76935800Y-43332400D03*
X76935800Y-35132401D03*
D36*
X61708000Y-105814500D03*
X61708000Y-103989500D03*
D13*
X128459200Y-64567800D03*
X128459200Y-70667800D03*
D32*
X120400002Y-85761299D03*
X122125002Y-85761299D03*
D13*
X128459200Y-56435800D03*
X128459200Y-62535800D03*
D37*
X61708000Y-108991600D03*
X61708000Y-107416600D03*
D32*
X132032102Y-85761299D03*
X133757102Y-85761299D03*
D14*
X81902800Y-53619400D03*
X81902800Y-48539400D03*
D16*
X58343800Y-108857800D03*
X58343800Y-106857800D03*
D29*
X108614626Y-84212480D03*
X110439626Y-84212480D03*
D21*
X77774800Y-78043900D03*
D22*
X77774800Y-75503900D03*
X77774800Y-65343900D03*
X77774800Y-57723900D03*
D11*
X109284000Y-95402400D03*
D12*
X111824000Y-95402400D03*
X114364000Y-95402400D03*
D14*
X105104000Y-53515900D03*
X105104000Y-48435900D03*
D36*
X69836000Y-105814500D03*
X69836000Y-103989500D03*
X68210400Y-105816400D03*
X68210400Y-103991400D03*
D13*
X123520200Y-64615600D03*
X123520200Y-70715600D03*
D29*
X97487526Y-84212480D03*
X99312526Y-84212480D03*
D38*
X86766400Y-112826800D03*
X86766400Y-111876800D03*
X86766400Y-110926800D03*
X84491400Y-110926800D03*
X84491400Y-112826800D03*
D39*
X114330402Y-98479699D03*
X112680402Y-98479699D03*
D40*
X54000400Y-97648400D03*
D41*
X54000400Y-95148400D03*
D29*
X137213702Y-84237299D03*
X139038702Y-84237299D03*
D13*
X123520200Y-56485600D03*
X123520200Y-62585600D03*
D39*
X114330402Y-99954699D03*
X112680402Y-99954699D03*
D42*
X135115402Y-93119699D03*
X133845402Y-93119699D03*
X132575402Y-93119699D03*
X131305402Y-93119699D03*
X130035402Y-93119699D03*
X128765402Y-93119699D03*
X127495402Y-93119699D03*
X126225402Y-93119699D03*
X124955402Y-93119699D03*
X123685402Y-93119699D03*
X122415402Y-93119699D03*
X121145402Y-93119699D03*
X119875402Y-93119699D03*
X118605402Y-93119699D03*
D43*
X117355402Y-94884699D03*
X117355402Y-96154699D03*
X117355402Y-97424699D03*
X117355402Y-98694699D03*
X117355402Y-99964699D03*
X117355402Y-101234699D03*
X117355402Y-102504699D03*
X117355402Y-103774699D03*
X117355402Y-105044699D03*
X117355402Y-106314699D03*
X117355402Y-107584699D03*
X117355402Y-108854699D03*
D42*
X118605402Y-110619699D03*
X119875402Y-110619699D03*
X121145402Y-110619699D03*
X122415402Y-110619699D03*
X123685402Y-110619699D03*
X124955402Y-110619699D03*
X126225402Y-110619699D03*
X127495402Y-110619699D03*
X128765402Y-110619699D03*
X130035402Y-110619699D03*
X131305402Y-110619699D03*
X132575402Y-110619699D03*
X133845402Y-110619699D03*
X135115402Y-110619699D03*
D44*
X131265402Y-99009699D03*
X129765402Y-99009699D03*
X128265402Y-99009699D03*
X131265402Y-100509699D03*
X129765402Y-100509699D03*
X128265402Y-100509699D03*
X131265402Y-102009699D03*
X129765402Y-102009699D03*
X128265402Y-102009699D03*
D13*
X138492200Y-56435800D03*
X138492200Y-62535800D03*
D37*
X69836000Y-108991500D03*
X69836000Y-107416500D03*
D21*
X82854800Y-78043900D03*
D22*
X82854800Y-75503900D03*
X82854800Y-65343900D03*
X82854800Y-57723900D03*
D29*
X84301800Y-114416800D03*
X86126800Y-114416800D03*
D14*
X115162400Y-53515900D03*
X115162400Y-48435900D03*
D11*
X107915402Y-101544699D03*
D12*
X107915402Y-104084699D03*
D14*
X133502400Y-53517800D03*
X133502400Y-48437800D03*
D45*
X75715200Y-112927700D03*
X75715200Y-111202700D03*
D46*
X86893400Y-103315000D03*
X86893400Y-104965000D03*
D11*
X111805800Y-108889800D03*
D12*
X114345800Y-108889800D03*
D29*
X125582402Y-84237299D03*
X127407402Y-84237299D03*
D47*
X129807200Y-84531200D03*
D48*
X133934200Y-112589200D03*
X133934200Y-114639200D03*
D49*
X69621400Y-84302600D03*
X69621400Y-86377600D03*
D50*
X97955600Y-103208400D03*
X97955600Y-105308400D03*
D14*
X128497800Y-53517800D03*
X128497800Y-48437800D03*
X68408300Y-53532900D03*
X68408300Y-48452900D03*
D27*
X127705178Y-74236118D03*
D28*
X125165178Y-74236118D03*
X122625178Y-74236118D03*
X120085178Y-74236118D03*
X120085178Y-81856118D03*
X122625178Y-81856118D03*
X125165178Y-81856118D03*
X127705178Y-81856118D03*
D13*
X133513800Y-56435800D03*
X133513800Y-62535800D03*
D30*
X138988702Y-85761299D03*
X137263702Y-85761299D03*
D19*
X33520200Y-103327200D03*
X31445200Y-103327200D03*
D11*
X72992800Y-113501700D03*
D12*
X70452800Y-113501700D03*
X67912800Y-113501700D03*
D14*
X76949800Y-53619400D03*
X76949800Y-48539400D03*
D51*
X99231402Y-108330599D03*
X100031402Y-108330599D03*
D52*
X101231402Y-108330599D03*
X102231402Y-108330599D03*
X102731402Y-108330599D03*
X103731402Y-108330599D03*
D51*
X104931402Y-108330599D03*
X105731402Y-108330599D03*
X105731402Y-108330599D03*
X104931402Y-108330599D03*
D52*
X104231402Y-108330599D03*
X103231402Y-108330599D03*
X101731402Y-108330599D03*
X100731402Y-108330599D03*
D51*
X100031402Y-108330599D03*
X99231402Y-108330599D03*
D53*
X98161402Y-109245599D03*
D54*
X98161402Y-113425599D03*
D53*
X106801402Y-109245599D03*
D54*
X106801402Y-113425599D03*
D29*
X114405826Y-84212480D03*
X116230826Y-84212480D03*
D55*
X73638400Y-85225400D03*
D56*
X76138400Y-85225400D03*
X78638400Y-85225400D03*
X81138400Y-85225400D03*
X83638400Y-85225400D03*
D36*
X64959200Y-105816400D03*
X64959200Y-103991400D03*
D11*
X47723200Y-103530400D03*
D12*
X47723200Y-100990400D03*
X47723200Y-98450400D03*
D32*
X108661626Y-85736480D03*
X110386626Y-85736480D03*
D37*
X73087200Y-108991500D03*
X73087200Y-107416500D03*
D57*
X75498400Y-92278200D03*
X75498400Y-93548200D03*
X75498400Y-94818200D03*
X75498400Y-96088200D03*
X75498400Y-97358200D03*
X75498400Y-98628200D03*
X75498400Y-99898200D03*
X75498400Y-101168200D03*
X75498400Y-102438200D03*
X75498400Y-103708200D03*
X75498400Y-104978200D03*
X75498400Y-106248200D03*
X75498400Y-107518200D03*
X75498400Y-108788200D03*
X84798400Y-108788200D03*
X84798400Y-107518200D03*
X84798400Y-106248200D03*
X84798400Y-104978200D03*
X84798400Y-103708200D03*
X84798400Y-102438200D03*
X84798400Y-101168200D03*
X84798400Y-99898200D03*
X84798400Y-98628200D03*
X84798400Y-97358200D03*
X84798400Y-96088200D03*
X84798400Y-94818200D03*
X84798400Y-93548200D03*
X84798400Y-92278200D03*
D32*
X103278600Y-85736480D03*
X105003600Y-85736480D03*
D20*
X42248000Y-101295200D03*
X44323000Y-101295200D03*
D14*
X138480800Y-53517800D03*
X138480800Y-48437800D03*
X110133200Y-53515900D03*
X110133200Y-48435900D03*
D29*
X120350002Y-84237299D03*
X122175002Y-84237299D03*
D37*
X63333600Y-108991500D03*
X63333600Y-107416500D03*
D33*
X65303400Y-112853300D03*
X65303400Y-114578300D03*
D14*
X86982800Y-53619400D03*
X86982800Y-48539400D03*
D36*
X73087200Y-105814500D03*
X73087200Y-103989500D03*
D32*
X125632402Y-85761299D03*
X127357402Y-85761299D03*
D19*
X74951500Y-90271600D03*
X72876500Y-90271600D03*
D30*
X116177826Y-85736480D03*
X114452826Y-85736480D03*
D49*
X65049400Y-86465500D03*
X65049400Y-88540500D03*
D36*
X105185402Y-105172199D03*
X105185402Y-103347199D03*
X71461600Y-105814500D03*
X71461600Y-103989500D03*
D21*
X55694300Y-78043900D03*
D22*
X55694300Y-75503900D03*
X55694300Y-65343900D03*
X55694300Y-57723900D03*
D21*
X60520300Y-78043900D03*
D22*
X60520300Y-75503900D03*
X60520300Y-65343900D03*
X60520300Y-57723900D03*
D14*
X58488300Y-53532900D03*
X58488300Y-48452900D03*
D21*
X70299300Y-78043900D03*
D22*
X70299300Y-75503900D03*
X70299300Y-65343900D03*
X70299300Y-57723900D03*
D21*
X87934800Y-78043900D03*
D22*
X87934800Y-75503900D03*
X87934800Y-65343900D03*
X87934800Y-57723900D03*
D21*
X92887800Y-78043900D03*
D22*
X92887800Y-75503900D03*
X92887800Y-65343900D03*
X92887800Y-57723900D03*
D58*
X108788200Y-111785400D03*
X110788200Y-111785400D03*
D59*
X115125402Y-103269699D03*
D60*
X115125402Y-102458899D03*
X113405402Y-102458899D03*
D59*
X113405402Y-103269699D03*
D37*
X66584800Y-108991500D03*
X66584800Y-107416500D03*
D61*
X101535402Y-105367199D03*
X102485402Y-105367199D03*
X103435402Y-105367199D03*
X103435402Y-103092199D03*
X102485402Y-103092199D03*
X101535402Y-103092199D03*
D21*
X65346300Y-78043900D03*
D22*
X65346300Y-75503900D03*
X65346300Y-65343900D03*
X65346300Y-57723900D03*
D62*
X103250402Y-101389699D03*
X104800402Y-101389699D03*
D26*
X150300000Y-83388200D03*
D29*
X113234502Y-104673400D03*
X115059502Y-104673400D03*
D19*
X33520200Y-105359200D03*
X31445200Y-105359200D03*
D37*
X64959200Y-108991500D03*
X64959200Y-107416500D03*
D13*
X133513800Y-64563800D03*
X133513800Y-70663800D03*
D40*
X36610700Y-102819200D03*
D41*
X39110700Y-102819200D03*
D14*
X123497800Y-53488400D03*
X123497800Y-48408400D03*
X100125600Y-53515900D03*
X100125600Y-48435900D03*
D37*
X68210400Y-108991500D03*
X68210400Y-107416500D03*
D13*
X138492200Y-64563800D03*
X138492200Y-70663800D03*
D32*
X133876002Y-89787199D03*
X135601002Y-89787199D03*
D20*
X42240200Y-103327200D03*
X44315200Y-103327200D03*
D14*
X91935800Y-53619400D03*
X91935800Y-48539400D03*
D36*
X66584800Y-105816400D03*
X66584800Y-103991400D03*
D63*
X82441600Y-114249200D03*
X82441600Y-111049200D03*
X77541600Y-111049200D03*
X77541600Y-114249200D03*
D29*
X103227926Y-84201000D03*
X105052926Y-84201000D03*
X113234502Y-106197400D03*
X115059502Y-106197400D03*
D14*
X53535300Y-53532900D03*
X53535300Y-48452900D03*
D16*
X131978400Y-114614200D03*
X131978400Y-112614200D03*
D36*
X99715402Y-105152199D03*
X99715402Y-103327199D03*
D26*
X27000000Y-109900000D03*
D32*
X97536426Y-85736480D03*
X99261426Y-85736480D03*
D14*
X63408300Y-53532900D03*
X63408300Y-48452900D03*
D20*
X133498302Y-88019699D03*
X135573302Y-88019699D03*
X76737300Y-90271600D03*
X78812300Y-90271600D03*
D37*
X71461600Y-108991500D03*
X71461600Y-107416500D03*
D29*
X131981302Y-84237299D03*
X133806302Y-84237299D03*
D64*
X110725408Y-106197400D03*
X88773000Y-105105200D03*
X132316026Y-88542594D03*
X132359400Y-87694199D03*
X133865402Y-90539699D03*
X77266800Y-101955600D03*
X56161983Y-105488783D03*
X111887000Y-106197400D03*
X92710000Y-112950099D03*
X112014000Y-110566200D03*
X135115402Y-109042200D03*
X131205402Y-103269699D03*
X68199000Y-86360000D03*
X126771400Y-99009699D03*
X87622900Y-108737400D03*
X129768600Y-96443800D03*
X69022125Y-108236067D03*
X65773581Y-108236535D03*
X91529400Y-103242600D03*
X99005402Y-101369699D03*
X100482400Y-84201000D03*
X99657400Y-102311200D03*
X55354780Y-107850914D03*
X128295400Y-97663000D03*
X111582200Y-85725000D03*
X134988800Y-84251800D03*
X134988800Y-85775800D03*
X72274123Y-108235328D03*
X97993200Y-106400600D03*
X106005402Y-101369699D03*
X124129800Y-96621600D03*
X129705402Y-103269699D03*
X110444505Y-103936800D03*
X78765400Y-91668600D03*
X44323000Y-99898200D03*
X83058000Y-107518200D03*
X124422400Y-84251800D03*
X30048200Y-105359200D03*
X30022800Y-103251000D03*
X106095800Y-103098600D03*
X74472800Y-111201200D03*
X102501400Y-106606099D03*
X129133600Y-91287600D03*
X131305402Y-97669699D03*
X136055600Y-85775800D03*
X125018800Y-95732600D03*
X78867000Y-103708200D03*
X111607600Y-84226400D03*
X129768600Y-97663000D03*
X91363800Y-113436400D03*
X66573400Y-88595200D03*
X113233200Y-85725000D03*
X124422400Y-85750400D03*
X102057200Y-84251800D03*
X135128000Y-94564200D03*
X29972000Y-101269800D03*
X98692169Y-106997031D03*
X107772200Y-106756200D03*
X44323000Y-106730800D03*
X123240800Y-97510600D03*
X113233200Y-84201000D03*
X83058000Y-106248200D03*
X123431800Y-84251800D03*
X105740200Y-106741699D03*
X113233200Y-111633000D03*
X106730800Y-106741699D03*
X128305402Y-103269699D03*
X94018600Y-103242600D03*
X62521145Y-108235392D03*
X100482400Y-85725000D03*
X131267200Y-96443800D03*
X136081000Y-84251800D03*
X102006400Y-85775800D03*
X81026000Y-114427000D03*
X123406400Y-85775800D03*
X119862468Y-108170199D03*
X77508600Y-107569000D03*
X119005402Y-108969699D03*
X77457800Y-106248200D03*
X119914170Y-99990931D03*
X115729360Y-99742199D03*
X115729360Y-98692199D03*
X120656634Y-99248467D03*
X73061800Y-92278200D03*
X73087200Y-102717600D03*
X71436200Y-93548200D03*
X71410800Y-102718000D03*
X69824600Y-102718000D03*
X69810600Y-94818200D03*
X68286600Y-96088200D03*
X68210400Y-102718000D03*
X63333600Y-102718000D03*
X63308200Y-99898200D03*
X65010000Y-98704400D03*
X65010000Y-102718000D03*
X66610200Y-97358200D03*
X66584800Y-102717600D03*
D65*
X77774800Y-65557400D02*
X92760800Y-65557400D01*
X42027000Y-60071800D02*
X42002400Y-60096400D01*
X42002400Y-60096400D02*
X42002400Y-65311600D01*
X42248200Y-65557400D02*
X77774800Y-65557400D01*
X42027000Y-54305200D02*
X42027000Y-60071800D01*
X92760800Y-65557400D02*
X92887800Y-65430400D01*
X37541200Y-65557400D02*
X27635200Y-75463400D01*
X27635200Y-80128800D02*
X27635200Y-75463400D01*
X42002400Y-65311600D02*
X42248200Y-65557400D01*
X27656000Y-80149600D02*
X27635200Y-80128800D01*
X42248200Y-65557400D02*
X37541200Y-65557400D01*
X27656000Y-88046600D02*
X27656000Y-80149600D01*
D66*
X53771800Y-76566400D02*
X53771800Y-79273400D01*
D67*
X72715600Y-84302600D02*
X73638400Y-85225400D01*
X69621400Y-84302600D02*
X67212300Y-84302600D01*
X69621400Y-84302600D02*
X72715600Y-84302600D01*
X67212300Y-84302600D02*
X65049400Y-86465500D01*
X72517000Y-111202851D02*
X65201800Y-111202851D01*
X46578100Y-105085300D02*
X46373200Y-104880400D01*
D66*
X47723200Y-100990400D02*
X44472000Y-97739200D01*
X55500400Y-86436200D02*
X55500400Y-81002000D01*
D67*
X75715200Y-112927700D02*
X74939200Y-112151700D01*
D66*
X53263800Y-100990400D02*
X52171600Y-100990400D01*
D67*
X77541600Y-111049200D02*
X77541600Y-112822200D01*
X84491400Y-112826800D02*
X77546200Y-112826800D01*
X52171600Y-106857800D02*
X52171600Y-100990400D01*
D66*
X42198700Y-97739200D02*
X42198700Y-108040300D01*
X55500400Y-88190200D02*
X55500400Y-86436200D01*
D67*
X77541600Y-112822200D02*
X77546200Y-112826800D01*
D66*
X44472000Y-97739200D02*
X42198700Y-97739200D01*
D67*
X77546200Y-112826800D02*
X75816100Y-112826800D01*
D66*
X55500400Y-88190200D02*
X55500400Y-98753800D01*
D68*
X64279800Y-84777600D02*
X65049400Y-85547200D01*
D69*
X55694300Y-75503900D02*
X92801300Y-75503900D01*
D67*
X49771600Y-110015517D02*
X49771600Y-106870800D01*
D66*
X52171600Y-100990400D02*
X47723200Y-100990400D01*
X54834300Y-75503900D02*
X53771800Y-76566400D01*
D68*
X65049400Y-85547200D02*
X65049400Y-86465500D01*
D67*
X65303400Y-111304451D02*
X65201800Y-111202851D01*
D66*
X55500400Y-98753800D02*
X53263800Y-100990400D01*
D67*
X46373200Y-102340400D02*
X47723200Y-100990400D01*
X49771600Y-106870800D02*
X47986100Y-105085300D01*
D66*
X55694300Y-75503900D02*
X54834300Y-75503900D01*
X55500400Y-81002000D02*
X53771800Y-79273400D01*
D67*
X73465849Y-112151700D02*
X72517000Y-111202851D01*
X50958934Y-111202851D02*
X49771600Y-110015517D01*
X74939200Y-112151700D02*
X73465849Y-112151700D01*
X65303400Y-112853300D02*
X67264400Y-112853300D01*
X46373200Y-104880400D02*
X46373200Y-102340400D01*
D69*
X92801300Y-75503900D02*
X92887800Y-75590400D01*
D67*
X67264400Y-112853300D02*
X67912800Y-113501700D01*
X65201800Y-111202851D02*
X50958934Y-111202851D01*
X47986100Y-105085300D02*
X46578100Y-105085300D01*
D66*
X42198700Y-108040300D02*
X40839300Y-109399700D01*
D67*
X75816100Y-112826800D02*
X75715200Y-112927700D01*
X65303400Y-112853300D02*
X65303400Y-111304451D01*
X65049400Y-86465500D02*
X55529700Y-86465500D01*
X55529700Y-86465500D02*
X55500400Y-86436200D01*
D68*
X63088800Y-84777600D02*
X64279800Y-84777600D01*
D67*
X132289402Y-89787199D02*
X133876002Y-89787199D01*
D66*
X107924600Y-79956118D02*
X104775000Y-79956118D01*
X104775000Y-79956118D02*
X102565200Y-79956118D01*
D67*
X132684900Y-88019699D02*
X133498302Y-88019699D01*
X77266800Y-101955600D02*
X76784200Y-102438200D01*
D66*
X116332000Y-79956118D02*
X113690400Y-79956118D01*
D68*
X56161983Y-105488783D02*
X57711383Y-105488783D01*
D66*
X127065178Y-79956118D02*
X125247400Y-79956118D01*
X125165178Y-81856118D02*
X125165178Y-80038340D01*
D67*
X74980800Y-89244800D02*
X76138400Y-88087200D01*
D68*
X58343800Y-106121200D02*
X58343800Y-106857800D01*
D66*
X102541300Y-79980018D02*
X102565200Y-79956118D01*
X133876002Y-88397399D02*
X133498302Y-88019699D01*
X122625178Y-81856118D02*
X125165178Y-81856118D01*
X125165178Y-80038340D02*
X125247400Y-79956118D01*
D67*
X110725408Y-106197400D02*
X109545005Y-105016997D01*
X74951500Y-89310300D02*
X74980800Y-89281000D01*
X74951500Y-90271600D02*
X74951500Y-89310300D01*
D66*
X102565200Y-79956118D02*
X99974400Y-79956118D01*
D67*
X132359400Y-88499220D02*
X132316026Y-88542594D01*
D66*
X125247400Y-79956118D02*
X122631200Y-79956118D01*
X113717300Y-79983018D02*
X113690400Y-79956118D01*
X102541300Y-81859600D02*
X102541300Y-79980018D01*
X111201200Y-79956118D02*
X107924600Y-79956118D01*
D67*
X77266800Y-90801100D02*
X76737300Y-90271600D01*
D66*
X122625178Y-79962140D02*
X122631200Y-79956118D01*
D68*
X57711383Y-105488783D02*
X58343800Y-106121200D01*
D66*
X113690400Y-79956118D02*
X111201200Y-79956118D01*
D67*
X110295109Y-102307199D02*
X109545005Y-103057302D01*
D70*
X113201902Y-102458899D02*
X111926902Y-102458899D01*
D67*
X109545005Y-105016997D02*
X109545005Y-103530400D01*
X132359400Y-87694199D02*
X132359400Y-88499220D01*
D66*
X133876002Y-89787199D02*
X133876002Y-93089099D01*
D67*
X88773000Y-105105200D02*
X88683600Y-105105200D01*
X132289402Y-88569218D02*
X132289402Y-89787199D01*
D66*
X111177300Y-81859600D02*
X111177300Y-79980018D01*
D67*
X111887000Y-106197400D02*
X110725408Y-106197400D01*
D66*
X133876002Y-89787199D02*
X133876002Y-88397399D01*
X100001300Y-79983018D02*
X99974400Y-79956118D01*
D67*
X113234502Y-104673400D02*
X113234502Y-106197400D01*
X76138400Y-88087200D02*
X76138400Y-85225400D01*
X76737300Y-88686100D02*
X76138400Y-88087200D01*
X76784200Y-102438200D02*
X75498400Y-102438200D01*
D66*
X111177300Y-79980018D02*
X111201200Y-79956118D01*
X132409178Y-79956118D02*
X116332000Y-79956118D01*
D67*
X74980800Y-89281000D02*
X74980800Y-89244800D01*
X132316026Y-88542594D02*
X132289402Y-88569218D01*
X76737300Y-90271600D02*
X76737300Y-88686100D01*
X132359400Y-87694199D02*
X132684900Y-88019699D01*
X76737300Y-90271600D02*
X74951500Y-90271600D01*
D66*
X122625178Y-81856118D02*
X122625178Y-79962140D01*
D67*
X109545005Y-103057302D02*
X109545005Y-103530400D01*
X113234502Y-106197400D02*
X111887000Y-106197400D01*
X111655402Y-102307199D02*
X110295109Y-102307199D01*
D66*
X132409178Y-79956118D02*
X134309178Y-81856118D01*
X113717300Y-81859600D02*
X113717300Y-79983018D01*
D67*
X77266800Y-101955600D02*
X77266800Y-90801100D01*
D66*
X133876002Y-93089099D02*
X133845402Y-93119699D01*
X111177300Y-81859600D02*
X113717300Y-81859600D01*
D67*
X88683600Y-105105200D02*
X86893400Y-103315000D01*
D66*
X134309178Y-81856118D02*
X136849178Y-81856118D01*
X100001300Y-81859600D02*
X100001300Y-79983018D01*
X100001300Y-81859600D02*
X102541300Y-81859600D01*
D65*
X44020000Y-43355999D02*
X44020000Y-47242200D01*
X44020000Y-47242200D02*
X42037000Y-49225200D01*
X44020000Y-35156000D02*
X44020000Y-43355999D01*
D71*
X53535300Y-55564900D02*
X55694300Y-57723900D01*
X53535300Y-53532900D02*
X53535300Y-55564900D01*
X60520300Y-55564900D02*
X60520300Y-57723900D01*
X58488300Y-53532900D02*
X60520300Y-55564900D01*
X65346300Y-57723900D02*
X65346300Y-55470900D01*
X65346300Y-55470900D02*
X63408300Y-53532900D01*
X70299300Y-55423900D02*
X68408300Y-53532900D01*
X70299300Y-57723900D02*
X70299300Y-55423900D01*
D66*
X33520200Y-108794000D02*
X32914500Y-109399700D01*
X37158003Y-113449700D02*
X45580200Y-113449700D01*
X35069600Y-102819200D02*
X33520200Y-101269800D01*
X36610700Y-102819200D02*
X35069600Y-102819200D01*
X39658700Y-97739200D02*
X39658700Y-99771200D01*
X45580200Y-113449700D02*
X47752500Y-111277400D01*
X39658700Y-99771200D02*
X36610700Y-102819200D01*
X32914500Y-109399700D02*
X33108003Y-109399700D01*
X33520200Y-101269800D02*
X33520200Y-108794000D01*
X33108003Y-109399700D02*
X37158003Y-113449700D01*
D68*
X95747000Y-99542600D02*
X97193600Y-99542600D01*
X97193600Y-99542600D02*
X97473000Y-99263200D01*
X89547000Y-99542600D02*
X95747000Y-99542600D01*
X128792901Y-89431699D02*
X130108902Y-89431699D01*
X97473000Y-99263200D02*
X97473000Y-98475800D01*
X97473000Y-98475800D02*
X97685800Y-98263000D01*
X130108902Y-89431699D02*
X130464402Y-89787199D01*
X132025902Y-91311199D02*
X130501902Y-89787199D01*
X102207000Y-98263000D02*
X108950301Y-91519699D01*
X132575402Y-93119699D02*
X132575402Y-91659699D01*
X97685800Y-98263000D02*
X102207000Y-98263000D01*
X132575402Y-91659699D02*
X132226902Y-91311199D01*
X126704901Y-91519699D02*
X128792901Y-89431699D01*
X108950301Y-91519699D02*
X126704901Y-91519699D01*
D72*
X104294298Y-99442200D02*
X103250402Y-100486096D01*
X111077903Y-99998261D02*
X111077903Y-99742200D01*
X112167903Y-99442200D02*
X111977903Y-99442200D01*
X111677903Y-99742200D02*
X111677903Y-99998261D01*
X109117113Y-99442200D02*
X104294298Y-99442200D01*
X112680402Y-99954699D02*
X112167903Y-99442200D01*
X110777903Y-99442200D02*
X109117113Y-99442200D01*
X103250402Y-100486096D02*
X103250402Y-101389699D01*
X103435402Y-103092199D02*
X103435402Y-101574699D01*
X103435402Y-101574699D02*
X103250402Y-101389699D01*
X111977903Y-99442200D02*
G75*
G03*
X111677900Y-99742200I-3J-300000D01*
G01*
X111677903Y-99998261D02*
G75*
G02*
X111377903Y-100298303I-300003J-39D01*
G01*
X111077903Y-99742200D02*
G75*
G03*
X110777903Y-99442197I-300003J0D01*
G01*
X111377903Y-100298261D02*
G75*
G02*
X111077939Y-99998261I-3J299961D01*
G01*
X104107903Y-98992198D02*
X112167903Y-98992198D01*
X101535402Y-101564699D02*
X101710402Y-101389699D01*
X101535402Y-103092199D02*
X101535402Y-101564699D01*
X112167903Y-98992198D02*
X112680402Y-98479699D01*
X101710402Y-101389699D02*
X104107903Y-98992198D01*
D68*
X91378644Y-109702600D02*
X89545800Y-109702600D01*
X91378644Y-109702600D02*
X95745800Y-109702600D01*
X118605402Y-110619699D02*
X112067499Y-110619699D01*
X92710000Y-112950099D02*
X92710000Y-111033956D01*
X112067499Y-110619699D02*
X112014000Y-110566200D01*
X92710000Y-111033956D02*
X92710000Y-110905556D01*
X93912956Y-109702600D02*
X95745800Y-109702600D01*
X92710000Y-110905556D02*
X93912956Y-109702600D01*
X92710000Y-111033956D02*
X91378644Y-109702600D01*
X125305402Y-113659699D02*
X126735402Y-112229699D01*
X130035402Y-111899699D02*
X130035402Y-110619699D01*
X126735402Y-112229699D02*
X129705402Y-112229699D01*
X129705402Y-112229699D02*
X130035402Y-111899699D01*
X131305402Y-110619699D02*
X131305402Y-111567959D01*
X129213662Y-113659699D02*
X127845402Y-113659699D01*
X131305402Y-111567959D02*
X129213662Y-113659699D01*
D66*
X86523400Y-107380200D02*
X87071200Y-106832400D01*
X50771600Y-109601303D02*
X51373148Y-110202851D01*
X73915514Y-110202851D02*
X74269165Y-109849200D01*
X86523400Y-109290282D02*
X86523400Y-107380200D01*
X50771600Y-105924903D02*
X50771600Y-109601303D01*
X85964482Y-109849200D02*
X86523400Y-109290282D01*
X97955600Y-103682800D02*
X97955600Y-103208400D01*
X74269165Y-109849200D02*
X85964482Y-109849200D01*
X51373148Y-110202851D02*
X73915514Y-110202851D01*
X47723200Y-103530400D02*
X48377097Y-103530400D01*
X48377097Y-103530400D02*
X50771600Y-105924903D01*
X87071200Y-106832400D02*
X94806000Y-106832400D01*
X94806000Y-106832400D02*
X97955600Y-103682800D01*
D70*
X99715402Y-102369202D02*
X99657400Y-102311200D01*
D67*
X102057200Y-84251800D02*
X103177126Y-84251800D01*
D66*
X132022501Y-97669699D02*
X131305402Y-97669699D01*
X44315200Y-101303000D02*
X44323000Y-101295200D01*
D68*
X105985402Y-101389699D02*
X106005402Y-101369699D01*
D66*
X128295400Y-97663000D02*
X128295400Y-96443800D01*
X135115402Y-109042200D02*
X135115402Y-107179699D01*
D67*
X105731402Y-106750497D02*
X105740200Y-106741699D01*
D68*
X74965583Y-103708200D02*
X73964800Y-104708983D01*
D67*
X84798400Y-106248200D02*
X84798400Y-108788200D01*
D68*
X131265402Y-102009699D02*
X131265402Y-99009699D01*
X95398301Y-113750099D02*
X95745800Y-113402600D01*
D66*
X124739899Y-99009699D02*
X123240800Y-97510600D01*
X128265402Y-99009699D02*
X128265402Y-97692998D01*
D68*
X100160402Y-101389699D02*
X99025402Y-101389699D01*
D70*
X106095800Y-103098600D02*
X105434001Y-103098600D01*
D66*
X44315200Y-106723000D02*
X44323000Y-106730800D01*
D67*
X78812300Y-90271600D02*
X78812300Y-85399300D01*
D68*
X56311800Y-108807934D02*
X56311800Y-108883200D01*
D67*
X129157199Y-91311199D02*
X129133600Y-91287600D01*
D68*
X91677499Y-113750099D02*
X95398301Y-113750099D01*
D67*
X136095501Y-84237299D02*
X136081000Y-84251800D01*
X68266692Y-108991500D02*
X69022125Y-108236067D01*
D68*
X104800402Y-101389699D02*
X105985402Y-101389699D01*
D66*
X129765402Y-103209699D02*
X129705402Y-103269699D01*
D67*
X69621400Y-86377600D02*
X69621400Y-87016500D01*
X69102800Y-114851700D02*
X70452800Y-113501700D01*
D66*
X131298703Y-97663000D02*
X129768600Y-97663000D01*
D68*
X75498400Y-103708200D02*
X74965583Y-103708200D01*
D67*
X105731402Y-108330599D02*
X105731402Y-106750497D01*
D66*
X125552200Y-97663000D02*
X125171200Y-97663000D01*
D68*
X113233200Y-111633000D02*
X113080800Y-111785400D01*
D67*
X87150000Y-110926800D02*
X86766400Y-110926800D01*
D68*
X135115402Y-110619699D02*
X135115402Y-111407998D01*
X129765402Y-99009699D02*
X129765402Y-102009699D01*
D66*
X127330200Y-96443800D02*
X128295400Y-96443800D01*
X135115402Y-107179699D02*
X131205402Y-103269699D01*
D67*
X78763200Y-90474800D02*
X78763200Y-91666400D01*
X99231402Y-107536264D02*
X99231402Y-108330599D01*
D68*
X91330000Y-113402600D02*
X91363800Y-113436400D01*
D67*
X65714165Y-108236535D02*
X64959200Y-108991500D01*
D66*
X135592402Y-91300699D02*
X135581902Y-91311199D01*
X125730000Y-96443800D02*
X127330200Y-96443800D01*
D67*
X110439626Y-84212480D02*
X111683080Y-84212480D01*
D66*
X135581902Y-92653199D02*
X135115402Y-93119699D01*
X128295400Y-96443800D02*
X129768600Y-96443800D01*
D67*
X103177126Y-84251800D02*
X103227926Y-84201000D01*
X72274123Y-108235328D02*
X72331028Y-108235328D01*
D66*
X128265402Y-102009699D02*
X128265402Y-103229699D01*
X129768600Y-97663000D02*
X129765402Y-97666198D01*
X128265402Y-103229699D02*
X128305402Y-103269699D01*
X135592402Y-88246699D02*
X135592402Y-91300699D01*
D68*
X102485402Y-105367199D02*
X102485402Y-106590101D01*
D66*
X131267200Y-96443800D02*
X131267200Y-97631497D01*
X133248400Y-96443800D02*
X131267200Y-96443800D01*
D68*
X55354780Y-107850914D02*
X56311800Y-108807934D01*
D66*
X131265402Y-103209699D02*
X131205402Y-103269699D01*
D67*
X62521145Y-108235392D02*
X62577492Y-108235392D01*
D70*
X99715402Y-103327199D02*
X99715402Y-102369202D01*
D66*
X128265402Y-99009699D02*
X126771400Y-99009699D01*
X135115402Y-94551602D02*
X135128000Y-94564200D01*
D67*
X87622900Y-108737400D02*
X87622900Y-110453900D01*
X136070101Y-85761299D02*
X136055600Y-85775800D01*
X88771536Y-113402600D02*
X89545800Y-113402600D01*
D70*
X111661902Y-103918899D02*
X112311102Y-103269699D01*
D68*
X65049400Y-89738200D02*
X65049400Y-88595200D01*
D66*
X44315200Y-105359200D02*
X44315200Y-101303000D01*
D68*
X97261402Y-107132398D02*
X97993200Y-106400600D01*
D67*
X124433299Y-85761299D02*
X124422400Y-85750400D01*
X137213702Y-84237299D02*
X136095501Y-84237299D01*
X105740200Y-106741699D02*
X106730800Y-106741699D01*
D68*
X89547000Y-103242600D02*
X91529400Y-103242600D01*
D67*
X73087100Y-108991600D02*
X73087200Y-108991500D01*
D66*
X135581902Y-91311199D02*
X135581902Y-92653199D01*
D68*
X97261402Y-112519842D02*
X97261402Y-107132398D01*
D67*
X87622900Y-110453900D02*
X87150000Y-110926800D01*
D66*
X31445200Y-103327200D02*
X30099000Y-103327200D01*
D67*
X122125002Y-85761299D02*
X123391899Y-85761299D01*
D66*
X129765402Y-102009699D02*
X129765402Y-103209699D01*
D67*
X72274123Y-108235328D02*
X72217772Y-108235328D01*
X69621400Y-87016500D02*
X72876500Y-90271600D01*
D68*
X91363800Y-113436400D02*
X91677499Y-113750099D01*
D66*
X131265402Y-99009699D02*
X131265402Y-97709699D01*
D68*
X73964800Y-108113900D02*
X73087200Y-108991500D01*
D67*
X107801402Y-108798602D02*
X110788200Y-111785400D01*
X65576800Y-114851700D02*
X69102800Y-114851700D01*
D66*
X31445200Y-105359200D02*
X30048200Y-105359200D01*
D68*
X131265402Y-99009699D02*
X128265402Y-99009699D01*
D67*
X81026000Y-114427000D02*
X82426400Y-114427000D01*
X110462406Y-103918899D02*
X111661902Y-103918899D01*
D68*
X73964800Y-104708983D02*
X73964800Y-108113900D01*
D67*
X69621400Y-86377600D02*
X68216600Y-86377600D01*
X99261426Y-85736480D02*
X100509520Y-85736480D01*
D66*
X129765402Y-99009699D02*
X129765402Y-97666198D01*
X44315200Y-105359200D02*
X44315200Y-106723000D01*
X125171200Y-97663000D02*
X124129800Y-96621600D01*
D68*
X128265402Y-102009699D02*
X131265402Y-102009699D01*
D70*
X105434001Y-103098600D02*
X105185402Y-103347199D01*
D67*
X107772200Y-106756200D02*
X107801402Y-106785402D01*
X98692169Y-106997031D02*
X99231402Y-107536264D01*
X69080567Y-108236067D02*
X69836000Y-108991500D01*
X68216600Y-86377600D02*
X68199000Y-86360000D01*
X124436901Y-84237299D02*
X124422400Y-84251800D01*
X134974299Y-84237299D02*
X134988800Y-84251800D01*
X62464208Y-108235392D02*
X61708000Y-108991600D01*
D66*
X131265402Y-102009699D02*
X131265402Y-103209699D01*
D67*
X82426400Y-114427000D02*
X82441600Y-114442200D01*
X107801402Y-106785402D02*
X107801402Y-108798602D01*
D68*
X54322494Y-108883200D02*
X55354780Y-107850914D01*
D67*
X74472800Y-111201200D02*
X75713700Y-111201200D01*
X123391899Y-85761299D02*
X123406400Y-85775800D01*
D66*
X125018800Y-95732600D02*
X125730000Y-96443800D01*
D68*
X95747000Y-103242600D02*
X94018600Y-103242600D01*
D67*
X68210400Y-108991500D02*
X68266692Y-108991500D01*
D66*
X30099000Y-103327200D02*
X30022800Y-103251000D01*
X128265402Y-97692998D02*
X128295400Y-97663000D01*
X128295400Y-97663000D02*
X125552200Y-97663000D01*
D68*
X129765402Y-100509699D02*
X131265402Y-100509699D01*
D67*
X78812300Y-85399300D02*
X78638400Y-85225400D01*
D68*
X66514800Y-88536600D02*
X66573400Y-88595200D01*
X54229000Y-108883200D02*
X54322494Y-108883200D01*
X99025402Y-101389699D02*
X99005402Y-101369699D01*
D67*
X125632402Y-85761299D02*
X124433299Y-85761299D01*
X78763200Y-91666400D02*
X78765400Y-91668600D01*
D66*
X135128000Y-94564200D02*
X133248400Y-96443800D01*
D67*
X98692169Y-106997031D02*
X98589631Y-106997031D01*
D66*
X135115402Y-110619699D02*
X135115402Y-109042200D01*
D67*
X72217772Y-108235328D02*
X71461600Y-108991500D01*
D66*
X129768600Y-96443800D02*
X129768600Y-97663000D01*
D67*
X82467000Y-114416800D02*
X82441600Y-114442200D01*
D66*
X135128000Y-94564200D02*
X132022501Y-97669699D01*
X131265402Y-97709699D02*
X131305402Y-97669699D01*
D68*
X96378644Y-113402600D02*
X97261402Y-112519842D01*
D66*
X129768600Y-96443800D02*
X131267200Y-96443800D01*
D67*
X72331028Y-108235328D02*
X73087200Y-108991500D01*
X88345800Y-111176800D02*
X88345800Y-112976864D01*
X65773581Y-108236535D02*
X66528546Y-108991500D01*
X61708000Y-108991600D02*
X73087100Y-108991600D01*
D68*
X135115402Y-111407998D02*
X133934200Y-112589200D01*
D67*
X133806302Y-84237299D02*
X134974299Y-84237299D01*
X110444505Y-103936800D02*
X110462406Y-103918899D01*
X66528546Y-108991500D02*
X66584800Y-108991500D01*
X98589631Y-106997031D02*
X97993200Y-106400600D01*
D66*
X135115402Y-93119699D02*
X135115402Y-94551602D01*
D67*
X134974299Y-85761299D02*
X134988800Y-85775800D01*
X84301800Y-114416800D02*
X82467000Y-114416800D01*
X122175002Y-84237299D02*
X123417299Y-84237299D01*
X88345800Y-112976864D02*
X88771536Y-113402600D01*
X87622900Y-110453900D02*
X88345800Y-111176800D01*
D66*
X129768600Y-97663000D02*
X128295400Y-97663000D01*
D68*
X102485402Y-106590101D02*
X102501400Y-106606099D01*
D67*
X65773581Y-108236535D02*
X65714165Y-108236535D01*
D66*
X31445200Y-101269800D02*
X29972000Y-101269800D01*
D68*
X64610000Y-90177600D02*
X65049400Y-89738200D01*
D67*
X99312526Y-84212480D02*
X100507080Y-84212480D01*
D66*
X44323000Y-101295200D02*
X44323000Y-99898200D01*
D67*
X103239280Y-85775800D02*
X103278600Y-85736480D01*
X133757102Y-85761299D02*
X134974299Y-85761299D01*
X114405826Y-84212480D02*
X113193880Y-84212480D01*
X123417299Y-84237299D02*
X123431800Y-84251800D01*
X69022125Y-108236067D02*
X69080567Y-108236067D01*
X113182400Y-85750400D02*
X114438906Y-85750400D01*
X106730800Y-106741699D02*
X107757699Y-106741699D01*
X102006400Y-85775800D02*
X103239280Y-85775800D01*
D66*
X124129800Y-96621600D02*
X125018800Y-95732600D01*
X124129800Y-96621600D02*
X123240800Y-97510600D01*
D70*
X112311102Y-103269699D02*
X113201902Y-103269699D01*
D68*
X65049400Y-88536600D02*
X66514800Y-88536600D01*
D67*
X75713700Y-111201200D02*
X75715200Y-111202700D01*
X130501902Y-91311199D02*
X129157199Y-91311199D01*
D66*
X131305402Y-97669699D02*
X131298703Y-97663000D01*
D67*
X107757699Y-106741699D02*
X107772200Y-106756200D01*
D68*
X89545800Y-113402600D02*
X91330000Y-113402600D01*
X91529400Y-103242600D02*
X94018600Y-103242600D01*
D67*
X137263702Y-85761299D02*
X136070101Y-85761299D01*
X125582402Y-84237299D02*
X124436901Y-84237299D01*
X62577492Y-108235392D02*
X63333600Y-108991500D01*
X65303400Y-114578300D02*
X65576800Y-114851700D01*
X75498400Y-103708200D02*
X78867000Y-103708200D01*
X110386626Y-85736480D02*
X111672320Y-85736480D01*
D68*
X113080800Y-111785400D02*
X110788200Y-111785400D01*
D66*
X131267200Y-97631497D02*
X131305402Y-97669699D01*
D67*
X83058000Y-106248200D02*
X84798400Y-106248200D01*
D66*
X126771400Y-99009699D02*
X124739899Y-99009699D01*
D67*
X62521145Y-108235392D02*
X62464208Y-108235392D01*
D68*
X95745800Y-113402600D02*
X96378644Y-113402600D01*
X128265402Y-99009699D02*
X128265402Y-102009699D01*
X54275747Y-108929947D02*
X54229000Y-108883200D01*
X63088800Y-90177600D02*
X64610000Y-90177600D01*
D67*
X83058000Y-107518200D02*
X84798400Y-107518200D01*
X97536426Y-85736480D02*
X97536426Y-81934726D01*
D68*
X84798400Y-92278200D02*
X95542600Y-92278200D01*
X97536426Y-90284374D02*
X97536426Y-85736480D01*
X95542600Y-92278200D02*
X97536426Y-90284374D01*
D67*
X97536426Y-81934726D02*
X97461300Y-81859600D01*
D65*
X53535300Y-48452900D02*
X53535300Y-35164901D01*
X58488300Y-48452900D02*
X58488300Y-35211901D01*
X63408300Y-48452900D02*
X63408300Y-35291901D01*
X105104000Y-53515900D02*
X105104000Y-56411500D01*
X110133200Y-62511500D02*
X110133200Y-64463300D01*
D69*
X108637300Y-72059200D02*
X110133200Y-70563300D01*
X108637300Y-74239600D02*
X108637300Y-72059200D01*
D65*
X115162400Y-62511500D02*
X115162400Y-64463300D01*
D69*
X116257300Y-74239600D02*
X116257300Y-71658200D01*
X116257300Y-71658200D02*
X115162400Y-70563300D01*
D72*
X114272002Y-104167998D02*
X114541600Y-103898400D01*
D68*
X81185400Y-85648800D02*
X81185400Y-103892200D01*
D72*
X114272002Y-105409900D02*
X115059502Y-106197400D01*
D68*
X81185400Y-103892200D02*
X77508600Y-107569000D01*
D67*
X75498400Y-107518200D02*
X77457800Y-107518200D01*
X77457800Y-107518200D02*
X77508600Y-107569000D01*
D72*
X115059502Y-106197400D02*
X112367102Y-108889800D01*
D68*
X119862468Y-108170199D02*
X127205902Y-108170199D01*
X127205902Y-108170199D02*
X128765402Y-109729699D01*
D72*
X115125402Y-103682598D02*
X115125402Y-103269699D01*
X114909600Y-103898400D02*
X115125402Y-103682598D01*
X112367102Y-108889800D02*
X111805800Y-108889800D01*
X114541600Y-103898400D02*
X114909600Y-103898400D01*
X114272002Y-104167998D02*
X114272002Y-105409900D01*
D68*
X128765402Y-109729699D02*
X128765402Y-110619699D01*
X83638400Y-85100400D02*
X82388400Y-83850400D01*
X79883000Y-84378800D02*
X79888400Y-84384200D01*
D67*
X75498400Y-106248200D02*
X77457800Y-106248200D01*
D68*
X127495402Y-109889699D02*
X126575402Y-108969699D01*
D72*
X115477002Y-102458899D02*
X115849400Y-102831297D01*
D68*
X79888400Y-84384200D02*
X79888400Y-103817600D01*
X127495402Y-110619699D02*
X127495402Y-109889699D01*
X83638400Y-85225400D02*
X83638400Y-85100400D01*
D72*
X115125402Y-102458899D02*
X115477002Y-102458899D01*
D68*
X82388400Y-83850400D02*
X80411400Y-83850400D01*
D72*
X115849400Y-104673400D02*
X115849400Y-107386200D01*
D68*
X126575402Y-108969699D02*
X119005402Y-108969699D01*
X79888400Y-103817600D02*
X77457800Y-106248200D01*
D72*
X115059502Y-104673400D02*
X115849400Y-104673400D01*
D68*
X80411400Y-83850400D02*
X79883000Y-84378800D01*
D72*
X115849400Y-107386200D02*
X114345800Y-108889800D01*
X115849400Y-102831297D02*
X115849400Y-104673400D01*
D65*
X110133200Y-53515900D02*
X110133200Y-56411500D01*
X115162400Y-53515900D02*
X115162400Y-56411500D01*
D67*
X105004026Y-81936874D02*
X105081300Y-81859600D01*
X105004026Y-85838080D02*
X105004026Y-81936874D01*
D68*
X105004026Y-89526278D02*
X100982104Y-93548200D01*
X100982104Y-93548200D02*
X84798400Y-93548200D01*
X105004026Y-85838080D02*
X105004026Y-89526278D01*
D73*
X113049000Y-96627400D02*
X114942400Y-96627400D01*
X111824000Y-95402400D02*
X113049000Y-96627400D01*
X114942400Y-96627400D02*
X116685101Y-94884699D01*
X116685101Y-94884699D02*
X117355402Y-94884699D01*
D66*
X54000400Y-97648400D02*
X48525200Y-97648400D01*
X47656000Y-98383200D02*
X47723200Y-98450400D01*
X47656000Y-83046600D02*
X47656000Y-98383200D01*
X48525200Y-97648400D02*
X47723200Y-98450400D01*
D65*
X68408300Y-48452900D02*
X68408300Y-35291901D01*
X100125600Y-56386100D02*
X100151000Y-56411500D01*
X100125600Y-53515900D02*
X100125600Y-56386100D01*
D67*
X108661626Y-81883926D02*
X108637300Y-81859600D01*
X108661626Y-85736480D02*
X108661626Y-81883926D01*
D68*
X108661626Y-86717206D02*
X108661626Y-85736480D01*
X84953600Y-94663000D02*
X100715832Y-94663000D01*
X84798400Y-94818200D02*
X84953600Y-94663000D01*
X100715832Y-94663000D02*
X108661626Y-86717206D01*
X87357288Y-96088200D02*
X84798400Y-96088200D01*
D67*
X116177826Y-81939074D02*
X116257300Y-81859600D01*
D68*
X100964360Y-95263000D02*
X88182488Y-95263000D01*
X115211192Y-88484608D02*
X107742752Y-88484608D01*
X116177826Y-87517974D02*
X115211192Y-88484608D01*
X116177826Y-85736480D02*
X116177826Y-87517974D01*
X107742752Y-88484608D02*
X100964360Y-95263000D01*
X88182488Y-95263000D02*
X87357288Y-96088200D01*
D67*
X116177826Y-85736480D02*
X116177826Y-81939074D01*
D68*
X84798400Y-99898200D02*
X86092872Y-99898200D01*
X86092872Y-99898200D02*
X88928072Y-97063000D01*
X108453245Y-90319699D02*
X101709944Y-97063000D01*
X126207845Y-90319699D02*
X108453245Y-90319699D01*
D67*
X132032102Y-85761299D02*
X132032102Y-82119042D01*
X132032102Y-82119042D02*
X131769178Y-81856118D01*
D68*
X101709944Y-97063000D02*
X88928072Y-97063000D01*
X130766245Y-85761299D02*
X126207845Y-90319699D01*
X132032102Y-85761299D02*
X130766245Y-85761299D01*
X101461416Y-96463000D02*
X88679544Y-96463000D01*
X127357402Y-88321614D02*
X125994408Y-89684608D01*
D67*
X127357402Y-82203894D02*
X127705178Y-81856118D01*
D68*
X127357402Y-85761299D02*
X127357402Y-88321614D01*
D67*
X127357402Y-85761299D02*
X127357402Y-82203894D01*
D68*
X125994408Y-89684608D02*
X108239808Y-89684608D01*
X86514344Y-98628200D02*
X84798400Y-98628200D01*
X108239808Y-89684608D02*
X101461416Y-96463000D01*
X88679544Y-96463000D02*
X86514344Y-98628200D01*
X120400002Y-87715398D02*
X119030792Y-89084608D01*
X86935816Y-97358200D02*
X84798400Y-97358200D01*
X119030792Y-89084608D02*
X107991280Y-89084608D01*
D67*
X120400002Y-85761299D02*
X120400002Y-82170942D01*
D68*
X88431016Y-95863000D02*
X86935816Y-97358200D01*
X101212888Y-95863000D02*
X88431016Y-95863000D01*
D67*
X120400002Y-82170942D02*
X120085178Y-81856118D01*
D68*
X107991280Y-89084608D02*
X101212888Y-95863000D01*
X120400002Y-85761299D02*
X120400002Y-87715398D01*
X52171600Y-108857800D02*
X52204400Y-108857800D01*
X52204400Y-108857800D02*
X54229000Y-106833200D01*
X133909200Y-114614200D02*
X133934200Y-114639200D01*
X131978400Y-114614200D02*
X133909200Y-114614200D01*
X104931402Y-108330599D02*
X104931402Y-109113699D01*
X101505402Y-110569699D02*
X103355402Y-110569699D01*
X98134203Y-105308400D02*
X97955600Y-105308400D01*
X101808219Y-104259699D02*
X102485402Y-103582516D01*
X103475402Y-110569699D02*
X103355402Y-110569699D01*
X100031402Y-108330599D02*
X100031402Y-107205599D01*
X100031402Y-108330599D02*
X100031402Y-109095699D01*
X102485402Y-103582516D02*
X102485402Y-103092199D01*
X100031402Y-109095699D02*
X101505402Y-110569699D01*
X97955600Y-105308400D02*
X99004301Y-104259699D01*
X99004301Y-104259699D02*
X101808219Y-104259699D01*
X104931402Y-109113699D02*
X103475402Y-110569699D01*
X100031402Y-107205599D02*
X98134203Y-105308400D01*
D67*
X73087200Y-107416500D02*
X73087200Y-105814500D01*
X71461600Y-107416500D02*
X71461600Y-105814500D01*
X69836000Y-107416500D02*
X69836000Y-105814500D01*
X68210400Y-107416500D02*
X68210400Y-105816400D01*
D70*
X124696899Y-92044699D02*
X124955402Y-92303202D01*
X114364000Y-93929200D02*
X114364000Y-95783400D01*
X116248501Y-92044699D02*
X124696899Y-92044699D01*
X124955402Y-92303202D02*
X124955402Y-93119699D01*
X116248501Y-92044699D02*
X114364000Y-93929200D01*
D67*
X61708000Y-107416600D02*
X61708000Y-105814500D01*
X63333600Y-107416500D02*
X63333600Y-105816400D01*
D73*
X109284000Y-95402400D02*
X111306299Y-97424699D01*
X111306299Y-97424699D02*
X117355402Y-97424699D01*
D67*
X64959200Y-107416500D02*
X64959200Y-105816400D01*
X66584800Y-107416500D02*
X66584800Y-105816400D01*
D70*
X101231402Y-108330599D02*
X101231402Y-106998199D01*
X101231402Y-106998199D02*
X99715402Y-105482199D01*
D72*
X102231402Y-108330599D02*
X102231402Y-107355599D01*
X103231402Y-105571199D02*
X103435402Y-105367199D01*
X103231402Y-108330599D02*
X103231402Y-105571199D01*
X102281402Y-107305599D02*
X103213302Y-107305599D01*
X103213302Y-107305599D02*
X103231402Y-107323699D01*
X102231402Y-107355599D02*
X102281402Y-107305599D01*
D70*
X101731402Y-109395699D02*
X101731402Y-108330599D01*
X101745056Y-109409353D02*
X101731402Y-109395699D01*
D72*
X101731402Y-105563199D02*
X101535402Y-105367199D01*
D70*
X102677648Y-109409353D02*
X101745056Y-109409353D01*
D72*
X101731402Y-108330599D02*
X101731402Y-105563199D01*
D70*
X102731402Y-109355599D02*
X102677648Y-109409353D01*
X102731402Y-108330599D02*
X102731402Y-109355599D01*
D72*
X119015402Y-94654700D02*
X118605402Y-94244700D01*
X115429361Y-99442200D02*
X115729360Y-99742199D01*
X119914170Y-99990931D02*
X119914170Y-99566666D01*
X119015402Y-98667899D02*
X119015402Y-94654700D01*
X114330402Y-99954699D02*
X114842901Y-99442200D01*
X114842901Y-99442200D02*
X115429361Y-99442200D01*
X119914170Y-99566666D02*
X119015402Y-98667899D01*
X118605402Y-94244700D02*
X118605402Y-93119699D01*
X119465402Y-98481499D02*
X119465402Y-94654700D01*
X119875402Y-94244700D02*
X119875402Y-93119699D01*
X119465402Y-94654700D02*
X119875402Y-94244700D01*
X120232369Y-99248467D02*
X119465402Y-98481499D01*
X115429361Y-98992198D02*
X115729360Y-98692199D01*
X120656634Y-99248467D02*
X120232369Y-99248467D01*
X114330402Y-98479699D02*
X114842901Y-98992198D01*
X114842901Y-98992198D02*
X115429361Y-98992198D01*
D70*
X117355402Y-101234699D02*
X115986600Y-101234699D01*
X115986600Y-101234699D02*
X115671600Y-100919699D01*
X108710402Y-100919699D02*
X115671600Y-100919699D01*
X108075402Y-101554699D02*
X108710402Y-100919699D01*
X133845402Y-111089825D02*
X133845402Y-110619699D01*
X131978400Y-112614200D02*
X132321027Y-112614200D01*
X132321027Y-112614200D02*
X133845402Y-111089825D01*
X104231402Y-108330599D02*
X104231402Y-106126199D01*
X104231402Y-106126199D02*
X105185402Y-105172199D01*
D69*
X97461300Y-71539600D02*
X98437600Y-70563300D01*
X97461300Y-74239600D02*
X97461300Y-71539600D01*
X98437600Y-70563300D02*
X100151000Y-70563300D01*
D65*
X100151000Y-62511500D02*
X100151000Y-64463300D01*
D69*
X105081300Y-74239600D02*
X105081300Y-70586000D01*
X105081300Y-70586000D02*
X105104000Y-70563300D01*
D65*
X105104000Y-62511500D02*
X105104000Y-64463300D01*
D66*
X106801402Y-113425599D02*
X106801402Y-111785400D01*
X106801402Y-111785400D02*
X106801402Y-109245599D01*
X98161402Y-113425599D02*
X106801402Y-113425599D01*
X98161402Y-109270599D02*
X98161402Y-113450599D01*
X108788200Y-111785400D02*
X106801402Y-111785400D01*
D68*
X57888800Y-84777600D02*
X57888800Y-80238400D01*
X57888800Y-80238400D02*
X55694300Y-78043900D01*
X58538800Y-84777600D02*
X58538800Y-81910160D01*
X60520300Y-79928660D02*
X60520300Y-78043900D01*
X58538800Y-81910160D02*
X60520300Y-79928660D01*
X59188800Y-84777600D02*
X59188800Y-82108688D01*
X64961000Y-79476600D02*
X65346300Y-79091300D01*
X61820888Y-79476600D02*
X64961000Y-79476600D01*
X65346300Y-79091300D02*
X65346300Y-78043900D01*
X59188800Y-82108688D02*
X61820888Y-79476600D01*
X62069416Y-80076600D02*
X69593400Y-80076600D01*
X69593400Y-80076600D02*
X70299300Y-79370700D01*
X59838800Y-84777600D02*
X59838800Y-82307216D01*
X59838800Y-82307216D02*
X62069416Y-80076600D01*
X70299300Y-79370700D02*
X70299300Y-78043900D01*
X62317944Y-80676600D02*
X76486400Y-80676600D01*
X77774800Y-79388200D02*
X77774800Y-78257400D01*
X60488800Y-84777600D02*
X60488800Y-82505744D01*
X60488800Y-82505744D02*
X62317944Y-80676600D01*
X76486400Y-80676600D02*
X77774800Y-79388200D01*
X81576000Y-81276600D02*
X82854800Y-79997800D01*
X61138800Y-84777600D02*
X61138800Y-82704272D01*
X61138800Y-82704272D02*
X62566472Y-81276600D01*
X82854800Y-79997800D02*
X82854800Y-78130400D01*
X62566472Y-81276600D02*
X81576000Y-81276600D01*
X86437000Y-81876600D02*
X62815000Y-81876600D01*
X61786000Y-82905600D02*
X61788800Y-82908400D01*
X61788800Y-82908400D02*
X61788800Y-84777600D01*
X87934800Y-80378800D02*
X86437000Y-81876600D01*
X62815000Y-81876600D02*
X61786000Y-82905600D01*
X87934800Y-78130400D02*
X87934800Y-80378800D01*
D70*
X107915402Y-104084699D02*
X107915402Y-103803022D01*
X110348725Y-101369699D02*
X115476400Y-101369699D01*
X116611400Y-102504699D02*
X117355402Y-102504699D01*
X107915402Y-103739699D02*
X107915402Y-104084699D01*
X115476400Y-101369699D02*
X116611400Y-102504699D01*
X107915402Y-103803022D02*
X110348725Y-101369699D01*
D68*
X92887800Y-80505800D02*
X92887800Y-78130400D01*
X62438800Y-84777600D02*
X62438800Y-83101328D01*
X63063528Y-82476600D02*
X90917000Y-82476600D01*
X90917000Y-82476600D02*
X92887800Y-80505800D01*
X62438800Y-83101328D02*
X63063528Y-82476600D01*
X73087200Y-103989500D02*
X73087200Y-102717600D01*
X73061800Y-92278200D02*
X75498400Y-92278200D01*
X62438800Y-90177600D02*
X62438800Y-91866000D01*
X62438800Y-91866000D02*
X62851000Y-92278200D01*
X62851000Y-92278200D02*
X73061800Y-92278200D01*
X71410800Y-102718000D02*
X71410800Y-103938700D01*
X71410800Y-103938700D02*
X71461600Y-103989500D01*
X75498400Y-93548200D02*
X71436200Y-93548200D01*
X61788800Y-90177600D02*
X61788800Y-93197200D01*
X62139800Y-93548200D02*
X71436200Y-93548200D01*
X61788800Y-93197200D02*
X62139800Y-93548200D01*
X61138800Y-94274400D02*
X61138800Y-90177600D01*
X69824600Y-103978100D02*
X69836000Y-103989500D01*
X69810600Y-94818200D02*
X61682600Y-94818200D01*
X69824600Y-102718000D02*
X69824600Y-103978100D01*
X61682600Y-94818200D02*
X61138800Y-94274400D01*
X75498400Y-94818200D02*
X69810600Y-94818200D01*
X60488800Y-95402400D02*
X61174600Y-96088200D01*
X75498400Y-96088200D02*
X68286600Y-96088200D01*
X61174600Y-96088200D02*
X68286600Y-96088200D01*
X68210400Y-102718000D02*
X68210400Y-103991400D01*
X60488800Y-90177600D02*
X60488800Y-95402400D01*
X57888800Y-90177600D02*
X57888800Y-97374400D01*
X61708000Y-101193600D02*
X61733400Y-101168200D01*
X57888800Y-97374400D02*
X61708000Y-101193600D01*
X61708000Y-103989500D02*
X61708000Y-101193600D01*
X75498400Y-101168200D02*
X61733400Y-101168200D01*
X61261128Y-99898200D02*
X63308200Y-99898200D01*
X58538800Y-97175872D02*
X61261128Y-99898200D01*
X75498400Y-99898200D02*
X63308200Y-99898200D01*
X63333600Y-102718000D02*
X63333600Y-103991400D01*
X58538800Y-90177600D02*
X58538800Y-97175872D01*
D65*
X138480800Y-56424400D02*
X138492200Y-56435800D01*
X138480800Y-53517800D02*
X138480800Y-56424400D01*
X138497702Y-35128200D02*
X138497702Y-43328199D01*
X138497702Y-43328199D02*
X138497702Y-48420898D01*
X138497702Y-48420898D02*
X138480800Y-48437800D01*
X133502400Y-53517800D02*
X133502400Y-56424400D01*
X133502400Y-56424400D02*
X133513800Y-56435800D01*
X133497702Y-43328199D02*
X133497702Y-48433102D01*
X133497702Y-35128200D02*
X133497702Y-43328199D01*
X133497702Y-48433102D02*
X133502400Y-48437800D01*
X128459200Y-53556400D02*
X128497800Y-53517800D01*
X128459200Y-56435800D02*
X128459200Y-53556400D01*
X128497800Y-43328297D02*
X128497702Y-43328199D01*
X128497702Y-35128200D02*
X128497702Y-43328199D01*
X128497800Y-48437800D02*
X128497800Y-43328297D01*
X123520200Y-56485600D02*
X123520200Y-53510800D01*
X123520200Y-53510800D02*
X123497800Y-53488400D01*
X123497800Y-48408400D02*
X123497800Y-43328297D01*
X123497702Y-35128200D02*
X123497702Y-43328199D01*
X123497800Y-43328297D02*
X123497702Y-43328199D01*
D71*
X77774800Y-54444400D02*
X76949800Y-53619400D01*
X77774800Y-57937400D02*
X77774800Y-54444400D01*
D65*
X76949800Y-48539400D02*
X76949800Y-35146401D01*
D71*
X82854800Y-54571400D02*
X81902800Y-53619400D01*
X82854800Y-57810400D02*
X82854800Y-54571400D01*
D65*
X81902800Y-48539400D02*
X81902800Y-35165401D01*
D71*
X87934800Y-54571400D02*
X86982800Y-53619400D01*
X87934800Y-57810400D02*
X87934800Y-54571400D01*
D65*
X86982800Y-48539400D02*
X86982800Y-35179401D01*
D71*
X92887800Y-54571400D02*
X91935800Y-53619400D01*
X92887800Y-57810400D02*
X92887800Y-54571400D01*
D65*
X91935800Y-35132401D02*
X91935800Y-48539400D01*
D68*
X65010000Y-98704400D02*
X75422200Y-98704400D01*
X65010000Y-102718000D02*
X65010000Y-103940600D01*
X60915856Y-98704400D02*
X65010000Y-98704400D01*
X75422200Y-98704400D02*
X75498400Y-98628200D01*
X59188800Y-96977344D02*
X60915856Y-98704400D01*
X65010000Y-103940600D02*
X64959200Y-103991400D01*
X59188800Y-90177600D02*
X59188800Y-96977344D01*
X75498400Y-97358200D02*
X66610200Y-97358200D01*
X59838800Y-90177600D02*
X59838800Y-96778816D01*
X60418184Y-97358200D02*
X66610200Y-97358200D01*
X59838800Y-96778816D02*
X60418184Y-97358200D01*
X66584800Y-102717600D02*
X66584800Y-103991400D01*
D65*
X138492200Y-62535800D02*
X138492200Y-64563800D01*
X133513800Y-62535800D02*
X133513800Y-64563800D01*
X128459200Y-64567800D02*
X128459200Y-62535800D01*
X123520200Y-64615600D02*
X123520200Y-62585600D01*
D69*
X139389178Y-74236118D02*
X139389178Y-71560778D01*
X139389178Y-71560778D02*
X138492200Y-70663800D01*
X131769178Y-74236118D02*
X131769178Y-72408422D01*
X131769178Y-72408422D02*
X133513800Y-70663800D01*
X128459200Y-70667800D02*
X128459200Y-73482096D01*
X128459200Y-73482096D02*
X127705178Y-74236118D01*
X120085178Y-73052716D02*
X122422294Y-70715600D01*
X120085178Y-74236118D02*
X120085178Y-73052716D01*
X122422294Y-70715600D02*
X123520200Y-70715600D01*
D68*
X112725200Y-112445800D02*
X123009301Y-112445800D01*
X110545401Y-114625599D02*
X112725200Y-112445800D01*
X96234199Y-114625599D02*
X110545401Y-114625599D01*
X86126800Y-114416800D02*
X86191000Y-114352600D01*
X85703900Y-112448983D02*
X86276083Y-111876800D01*
X86191000Y-114352600D02*
X95961200Y-114352600D01*
X85703900Y-113993900D02*
X85703900Y-112448983D01*
X86276083Y-111876800D02*
X86766400Y-111876800D01*
X123685402Y-111769699D02*
X123685402Y-110619699D01*
X95961200Y-114352600D02*
X96234199Y-114625599D01*
X86126800Y-114416800D02*
X85703900Y-113993900D01*
X123009301Y-112445800D02*
X123685402Y-111769699D01*
X86652600Y-104978200D02*
X86830400Y-105156000D01*
X84798400Y-104978200D02*
X86652600Y-104978200D01*
D65*
X100140000Y-43338899D02*
X100140000Y-48421500D01*
X100140000Y-35138900D02*
X100140000Y-43338899D01*
X100140000Y-48421500D02*
X100125600Y-48435900D01*
X105140000Y-43338899D02*
X105140000Y-48399900D01*
X105140000Y-48399900D02*
X105104000Y-48435900D01*
X105140000Y-35138900D02*
X105140000Y-43338899D01*
X110140000Y-48429100D02*
X110133200Y-48435900D01*
X110140000Y-35138900D02*
X110140000Y-43338899D01*
X110140000Y-43338899D02*
X110140000Y-48429100D01*
X115140000Y-48413500D02*
X115162400Y-48435900D01*
X115140000Y-35138900D02*
X115140000Y-48413500D01*
D68*
X126456373Y-90919699D02*
X108701773Y-90919699D01*
X84798400Y-101168200D02*
X85671400Y-101168200D01*
X137855302Y-86894699D02*
X130481373Y-86894699D01*
X108701773Y-90919699D02*
X101958472Y-97663000D01*
X101958472Y-97663000D02*
X89176600Y-97663000D01*
X85671400Y-101168200D02*
X89176600Y-97663000D01*
X130481373Y-86894699D02*
X126456373Y-90919699D01*
D67*
X138988702Y-85761299D02*
X138988702Y-82256594D01*
X138988702Y-82256594D02*
X139389178Y-81856118D01*
D68*
X138988702Y-85761299D02*
X137855302Y-86894699D01*
X58343800Y-108857800D02*
X58336400Y-108857800D01*
X58336400Y-108857800D02*
X56311800Y-106833200D01*
D67*
X77541600Y-114173000D02*
X73664100Y-114173000D01*
X73664100Y-114173000D02*
X72992800Y-113501700D01*
D68*
X82564000Y-110926800D02*
X82441600Y-111049200D01*
X84491400Y-110926800D02*
X82564000Y-110926800D01*
M02*
