%TF.GenerationSoftware,KiCad,Pcbnew,7.0.5*%
%TF.CreationDate,2024-05-28T18:46:26+02:00*%
%TF.ProjectId,hamodule,68616d6f-6475-46c6-952e-6b696361645f,20240528.23.8*%
%TF.SameCoordinates,Original*%
%TF.FileFunction,Drillmap*%
%TF.FilePolarity,Positive*%
%FSLAX45Y45*%
G04 Gerber Fmt 4.5, Leading zero omitted, Abs format (unit mm)*
G04 Created by KiCad (PCBNEW 7.0.5) date 2024-05-28 18:46:26*
%MOMM*%
%LPD*%
G01*
G04 APERTURE LIST*
%ADD10C,0.050000*%
%ADD11C,0.200000*%
%ADD12C,0.065000*%
G04 APERTURE END LIST*
D10*
X15097760Y-3218915D02*
X2642920Y-3220720D01*
X2385060Y-11292640D02*
X2388920Y-3474720D01*
X2385060Y-11292640D02*
G75*
G03*
X2639060Y-11546840I254200J0D01*
G01*
X4061460Y-5229860D02*
X4351020Y-5229860D01*
X3780840Y-6070600D02*
G75*
G03*
X3877360Y-6070600I48260J0D01*
G01*
X3877360Y-5781040D02*
G75*
G03*
X3780840Y-5781040I-48260J0D01*
G01*
X13666320Y-8935720D02*
X13662660Y-11292640D01*
X15351565Y-3472915D02*
G75*
G03*
X15097760Y-3218915I-254005J-5D01*
G01*
X4351020Y-5133340D02*
X4061460Y-5133340D01*
X4351020Y-5229860D02*
G75*
G03*
X4351020Y-5133340I0J48260D01*
G01*
X2642920Y-3220720D02*
G75*
G03*
X2388920Y-3474720I0J-254000D01*
G01*
X15097560Y-8679920D02*
G75*
G03*
X15351560Y-8425915I0J254000D01*
G01*
X3780840Y-5781040D02*
X3780840Y-6070600D01*
X13408660Y-11546640D02*
X2639060Y-11546840D01*
X13920320Y-8681720D02*
X15097560Y-8679915D01*
X13920320Y-8681720D02*
G75*
G03*
X13666320Y-8935720I0J-254000D01*
G01*
X15351560Y-3472915D02*
X15351560Y-8425915D01*
X13408660Y-11546640D02*
G75*
G03*
X13662660Y-11292640I0J254000D01*
G01*
X4061460Y-5133340D02*
G75*
G03*
X4061460Y-5229860I0J-48260D01*
G01*
X3877360Y-6070600D02*
X3877360Y-5781040D01*
D11*
D12*
X9926640Y-10945060D02*
X9991640Y-11010060D01*
X9991640Y-10945060D02*
X9926640Y-11010060D01*
X10504640Y-10945060D02*
X10569640Y-11010060D01*
X10569640Y-10945060D02*
X10504640Y-11010060D01*
D11*
X2643337Y-11860824D02*
X2643337Y-11660824D01*
X2643337Y-11660824D02*
X2690956Y-11660824D01*
X2690956Y-11660824D02*
X2719527Y-11670348D01*
X2719527Y-11670348D02*
X2738575Y-11689395D01*
X2738575Y-11689395D02*
X2748099Y-11708443D01*
X2748099Y-11708443D02*
X2757623Y-11746538D01*
X2757623Y-11746538D02*
X2757623Y-11775109D01*
X2757623Y-11775109D02*
X2748099Y-11813205D01*
X2748099Y-11813205D02*
X2738575Y-11832252D01*
X2738575Y-11832252D02*
X2719527Y-11851300D01*
X2719527Y-11851300D02*
X2690956Y-11860824D01*
X2690956Y-11860824D02*
X2643337Y-11860824D01*
X2843337Y-11860824D02*
X2843337Y-11727490D01*
X2843337Y-11765586D02*
X2852861Y-11746538D01*
X2852861Y-11746538D02*
X2862384Y-11737014D01*
X2862384Y-11737014D02*
X2881432Y-11727490D01*
X2881432Y-11727490D02*
X2900480Y-11727490D01*
X2967146Y-11860824D02*
X2967146Y-11727490D01*
X2967146Y-11660824D02*
X2957622Y-11670348D01*
X2957622Y-11670348D02*
X2967146Y-11679871D01*
X2967146Y-11679871D02*
X2976670Y-11670348D01*
X2976670Y-11670348D02*
X2967146Y-11660824D01*
X2967146Y-11660824D02*
X2967146Y-11679871D01*
X3090956Y-11860824D02*
X3071908Y-11851300D01*
X3071908Y-11851300D02*
X3062384Y-11832252D01*
X3062384Y-11832252D02*
X3062384Y-11660824D01*
X3195718Y-11860824D02*
X3176670Y-11851300D01*
X3176670Y-11851300D02*
X3167146Y-11832252D01*
X3167146Y-11832252D02*
X3167146Y-11660824D01*
X3424289Y-11860824D02*
X3424289Y-11660824D01*
X3424289Y-11660824D02*
X3490956Y-11803681D01*
X3490956Y-11803681D02*
X3557622Y-11660824D01*
X3557622Y-11660824D02*
X3557622Y-11860824D01*
X3738575Y-11860824D02*
X3738575Y-11756062D01*
X3738575Y-11756062D02*
X3729051Y-11737014D01*
X3729051Y-11737014D02*
X3710003Y-11727490D01*
X3710003Y-11727490D02*
X3671908Y-11727490D01*
X3671908Y-11727490D02*
X3652861Y-11737014D01*
X3738575Y-11851300D02*
X3719527Y-11860824D01*
X3719527Y-11860824D02*
X3671908Y-11860824D01*
X3671908Y-11860824D02*
X3652861Y-11851300D01*
X3652861Y-11851300D02*
X3643337Y-11832252D01*
X3643337Y-11832252D02*
X3643337Y-11813205D01*
X3643337Y-11813205D02*
X3652861Y-11794157D01*
X3652861Y-11794157D02*
X3671908Y-11784633D01*
X3671908Y-11784633D02*
X3719527Y-11784633D01*
X3719527Y-11784633D02*
X3738575Y-11775109D01*
X3833813Y-11727490D02*
X3833813Y-11927490D01*
X3833813Y-11737014D02*
X3852861Y-11727490D01*
X3852861Y-11727490D02*
X3890956Y-11727490D01*
X3890956Y-11727490D02*
X3910003Y-11737014D01*
X3910003Y-11737014D02*
X3919527Y-11746538D01*
X3919527Y-11746538D02*
X3929051Y-11765586D01*
X3929051Y-11765586D02*
X3929051Y-11822728D01*
X3929051Y-11822728D02*
X3919527Y-11841776D01*
X3919527Y-11841776D02*
X3910003Y-11851300D01*
X3910003Y-11851300D02*
X3890956Y-11860824D01*
X3890956Y-11860824D02*
X3852861Y-11860824D01*
X3852861Y-11860824D02*
X3833813Y-11851300D01*
X4014765Y-11841776D02*
X4024289Y-11851300D01*
X4024289Y-11851300D02*
X4014765Y-11860824D01*
X4014765Y-11860824D02*
X4005242Y-11851300D01*
X4005242Y-11851300D02*
X4014765Y-11841776D01*
X4014765Y-11841776D02*
X4014765Y-11860824D01*
X4014765Y-11737014D02*
X4024289Y-11746538D01*
X4024289Y-11746538D02*
X4014765Y-11756062D01*
X4014765Y-11756062D02*
X4005242Y-11746538D01*
X4005242Y-11746538D02*
X4014765Y-11737014D01*
X4014765Y-11737014D02*
X4014765Y-11756062D01*
D12*
X2317560Y-12156840D02*
X2382560Y-12221840D01*
X2382560Y-12156840D02*
X2317560Y-12221840D01*
D11*
X2681432Y-12080824D02*
X2700480Y-12080824D01*
X2700480Y-12080824D02*
X2719527Y-12090348D01*
X2719527Y-12090348D02*
X2729051Y-12099871D01*
X2729051Y-12099871D02*
X2738575Y-12118919D01*
X2738575Y-12118919D02*
X2748099Y-12157014D01*
X2748099Y-12157014D02*
X2748099Y-12204633D01*
X2748099Y-12204633D02*
X2738575Y-12242728D01*
X2738575Y-12242728D02*
X2729051Y-12261776D01*
X2729051Y-12261776D02*
X2719527Y-12271300D01*
X2719527Y-12271300D02*
X2700480Y-12280824D01*
X2700480Y-12280824D02*
X2681432Y-12280824D01*
X2681432Y-12280824D02*
X2662384Y-12271300D01*
X2662384Y-12271300D02*
X2652861Y-12261776D01*
X2652861Y-12261776D02*
X2643337Y-12242728D01*
X2643337Y-12242728D02*
X2633813Y-12204633D01*
X2633813Y-12204633D02*
X2633813Y-12157014D01*
X2633813Y-12157014D02*
X2643337Y-12118919D01*
X2643337Y-12118919D02*
X2652861Y-12099871D01*
X2652861Y-12099871D02*
X2662384Y-12090348D01*
X2662384Y-12090348D02*
X2681432Y-12080824D01*
X2833813Y-12261776D02*
X2843337Y-12271300D01*
X2843337Y-12271300D02*
X2833813Y-12280824D01*
X2833813Y-12280824D02*
X2824289Y-12271300D01*
X2824289Y-12271300D02*
X2833813Y-12261776D01*
X2833813Y-12261776D02*
X2833813Y-12280824D01*
X3014765Y-12080824D02*
X2976670Y-12080824D01*
X2976670Y-12080824D02*
X2957622Y-12090348D01*
X2957622Y-12090348D02*
X2948099Y-12099871D01*
X2948099Y-12099871D02*
X2929051Y-12128443D01*
X2929051Y-12128443D02*
X2919527Y-12166538D01*
X2919527Y-12166538D02*
X2919527Y-12242728D01*
X2919527Y-12242728D02*
X2929051Y-12261776D01*
X2929051Y-12261776D02*
X2938575Y-12271300D01*
X2938575Y-12271300D02*
X2957622Y-12280824D01*
X2957622Y-12280824D02*
X2995718Y-12280824D01*
X2995718Y-12280824D02*
X3014765Y-12271300D01*
X3014765Y-12271300D02*
X3024289Y-12261776D01*
X3024289Y-12261776D02*
X3033813Y-12242728D01*
X3033813Y-12242728D02*
X3033813Y-12195109D01*
X3033813Y-12195109D02*
X3024289Y-12176062D01*
X3024289Y-12176062D02*
X3014765Y-12166538D01*
X3014765Y-12166538D02*
X2995718Y-12157014D01*
X2995718Y-12157014D02*
X2957622Y-12157014D01*
X2957622Y-12157014D02*
X2938575Y-12166538D01*
X2938575Y-12166538D02*
X2929051Y-12176062D01*
X2929051Y-12176062D02*
X2919527Y-12195109D01*
X3214765Y-12080824D02*
X3119527Y-12080824D01*
X3119527Y-12080824D02*
X3110003Y-12176062D01*
X3110003Y-12176062D02*
X3119527Y-12166538D01*
X3119527Y-12166538D02*
X3138575Y-12157014D01*
X3138575Y-12157014D02*
X3186194Y-12157014D01*
X3186194Y-12157014D02*
X3205242Y-12166538D01*
X3205242Y-12166538D02*
X3214765Y-12176062D01*
X3214765Y-12176062D02*
X3224289Y-12195109D01*
X3224289Y-12195109D02*
X3224289Y-12242728D01*
X3224289Y-12242728D02*
X3214765Y-12261776D01*
X3214765Y-12261776D02*
X3205242Y-12271300D01*
X3205242Y-12271300D02*
X3186194Y-12280824D01*
X3186194Y-12280824D02*
X3138575Y-12280824D01*
X3138575Y-12280824D02*
X3119527Y-12271300D01*
X3119527Y-12271300D02*
X3110003Y-12261776D01*
X3348099Y-12080824D02*
X3367146Y-12080824D01*
X3367146Y-12080824D02*
X3386194Y-12090348D01*
X3386194Y-12090348D02*
X3395718Y-12099871D01*
X3395718Y-12099871D02*
X3405242Y-12118919D01*
X3405242Y-12118919D02*
X3414765Y-12157014D01*
X3414765Y-12157014D02*
X3414765Y-12204633D01*
X3414765Y-12204633D02*
X3405242Y-12242728D01*
X3405242Y-12242728D02*
X3395718Y-12261776D01*
X3395718Y-12261776D02*
X3386194Y-12271300D01*
X3386194Y-12271300D02*
X3367146Y-12280824D01*
X3367146Y-12280824D02*
X3348099Y-12280824D01*
X3348099Y-12280824D02*
X3329051Y-12271300D01*
X3329051Y-12271300D02*
X3319527Y-12261776D01*
X3319527Y-12261776D02*
X3310003Y-12242728D01*
X3310003Y-12242728D02*
X3300480Y-12204633D01*
X3300480Y-12204633D02*
X3300480Y-12157014D01*
X3300480Y-12157014D02*
X3310003Y-12118919D01*
X3310003Y-12118919D02*
X3319527Y-12099871D01*
X3319527Y-12099871D02*
X3329051Y-12090348D01*
X3329051Y-12090348D02*
X3348099Y-12080824D01*
X3500480Y-12280824D02*
X3500480Y-12147490D01*
X3500480Y-12166538D02*
X3510003Y-12157014D01*
X3510003Y-12157014D02*
X3529051Y-12147490D01*
X3529051Y-12147490D02*
X3557623Y-12147490D01*
X3557623Y-12147490D02*
X3576670Y-12157014D01*
X3576670Y-12157014D02*
X3586194Y-12176062D01*
X3586194Y-12176062D02*
X3586194Y-12280824D01*
X3586194Y-12176062D02*
X3595718Y-12157014D01*
X3595718Y-12157014D02*
X3614765Y-12147490D01*
X3614765Y-12147490D02*
X3643337Y-12147490D01*
X3643337Y-12147490D02*
X3662384Y-12157014D01*
X3662384Y-12157014D02*
X3671908Y-12176062D01*
X3671908Y-12176062D02*
X3671908Y-12280824D01*
X3767146Y-12280824D02*
X3767146Y-12147490D01*
X3767146Y-12166538D02*
X3776670Y-12157014D01*
X3776670Y-12157014D02*
X3795718Y-12147490D01*
X3795718Y-12147490D02*
X3824289Y-12147490D01*
X3824289Y-12147490D02*
X3843337Y-12157014D01*
X3843337Y-12157014D02*
X3852861Y-12176062D01*
X3852861Y-12176062D02*
X3852861Y-12280824D01*
X3852861Y-12176062D02*
X3862384Y-12157014D01*
X3862384Y-12157014D02*
X3881432Y-12147490D01*
X3881432Y-12147490D02*
X3910003Y-12147490D01*
X3910003Y-12147490D02*
X3929051Y-12157014D01*
X3929051Y-12157014D02*
X3938575Y-12176062D01*
X3938575Y-12176062D02*
X3938575Y-12280824D01*
X4329051Y-12071300D02*
X4157623Y-12328443D01*
X4586194Y-12080824D02*
X4605242Y-12080824D01*
X4605242Y-12080824D02*
X4624289Y-12090348D01*
X4624289Y-12090348D02*
X4633813Y-12099871D01*
X4633813Y-12099871D02*
X4643337Y-12118919D01*
X4643337Y-12118919D02*
X4652861Y-12157014D01*
X4652861Y-12157014D02*
X4652861Y-12204633D01*
X4652861Y-12204633D02*
X4643337Y-12242728D01*
X4643337Y-12242728D02*
X4633813Y-12261776D01*
X4633813Y-12261776D02*
X4624289Y-12271300D01*
X4624289Y-12271300D02*
X4605242Y-12280824D01*
X4605242Y-12280824D02*
X4586194Y-12280824D01*
X4586194Y-12280824D02*
X4567147Y-12271300D01*
X4567147Y-12271300D02*
X4557623Y-12261776D01*
X4557623Y-12261776D02*
X4548099Y-12242728D01*
X4548099Y-12242728D02*
X4538575Y-12204633D01*
X4538575Y-12204633D02*
X4538575Y-12157014D01*
X4538575Y-12157014D02*
X4548099Y-12118919D01*
X4548099Y-12118919D02*
X4557623Y-12099871D01*
X4557623Y-12099871D02*
X4567147Y-12090348D01*
X4567147Y-12090348D02*
X4586194Y-12080824D01*
X4738575Y-12261776D02*
X4748099Y-12271300D01*
X4748099Y-12271300D02*
X4738575Y-12280824D01*
X4738575Y-12280824D02*
X4729051Y-12271300D01*
X4729051Y-12271300D02*
X4738575Y-12261776D01*
X4738575Y-12261776D02*
X4738575Y-12280824D01*
X4871908Y-12080824D02*
X4890956Y-12080824D01*
X4890956Y-12080824D02*
X4910004Y-12090348D01*
X4910004Y-12090348D02*
X4919528Y-12099871D01*
X4919528Y-12099871D02*
X4929051Y-12118919D01*
X4929051Y-12118919D02*
X4938575Y-12157014D01*
X4938575Y-12157014D02*
X4938575Y-12204633D01*
X4938575Y-12204633D02*
X4929051Y-12242728D01*
X4929051Y-12242728D02*
X4919528Y-12261776D01*
X4919528Y-12261776D02*
X4910004Y-12271300D01*
X4910004Y-12271300D02*
X4890956Y-12280824D01*
X4890956Y-12280824D02*
X4871908Y-12280824D01*
X4871908Y-12280824D02*
X4852861Y-12271300D01*
X4852861Y-12271300D02*
X4843337Y-12261776D01*
X4843337Y-12261776D02*
X4833813Y-12242728D01*
X4833813Y-12242728D02*
X4824289Y-12204633D01*
X4824289Y-12204633D02*
X4824289Y-12157014D01*
X4824289Y-12157014D02*
X4833813Y-12118919D01*
X4833813Y-12118919D02*
X4843337Y-12099871D01*
X4843337Y-12099871D02*
X4852861Y-12090348D01*
X4852861Y-12090348D02*
X4871908Y-12080824D01*
X5014766Y-12099871D02*
X5024289Y-12090348D01*
X5024289Y-12090348D02*
X5043337Y-12080824D01*
X5043337Y-12080824D02*
X5090956Y-12080824D01*
X5090956Y-12080824D02*
X5110004Y-12090348D01*
X5110004Y-12090348D02*
X5119528Y-12099871D01*
X5119528Y-12099871D02*
X5129051Y-12118919D01*
X5129051Y-12118919D02*
X5129051Y-12137967D01*
X5129051Y-12137967D02*
X5119528Y-12166538D01*
X5119528Y-12166538D02*
X5005242Y-12280824D01*
X5005242Y-12280824D02*
X5129051Y-12280824D01*
X5310004Y-12080824D02*
X5214766Y-12080824D01*
X5214766Y-12080824D02*
X5205242Y-12176062D01*
X5205242Y-12176062D02*
X5214766Y-12166538D01*
X5214766Y-12166538D02*
X5233813Y-12157014D01*
X5233813Y-12157014D02*
X5281432Y-12157014D01*
X5281432Y-12157014D02*
X5300480Y-12166538D01*
X5300480Y-12166538D02*
X5310004Y-12176062D01*
X5310004Y-12176062D02*
X5319528Y-12195109D01*
X5319528Y-12195109D02*
X5319528Y-12242728D01*
X5319528Y-12242728D02*
X5310004Y-12261776D01*
X5310004Y-12261776D02*
X5300480Y-12271300D01*
X5300480Y-12271300D02*
X5281432Y-12280824D01*
X5281432Y-12280824D02*
X5233813Y-12280824D01*
X5233813Y-12280824D02*
X5214766Y-12271300D01*
X5214766Y-12271300D02*
X5205242Y-12261776D01*
X5490956Y-12080824D02*
X5452861Y-12080824D01*
X5452861Y-12080824D02*
X5433813Y-12090348D01*
X5433813Y-12090348D02*
X5424289Y-12099871D01*
X5424289Y-12099871D02*
X5405242Y-12128443D01*
X5405242Y-12128443D02*
X5395718Y-12166538D01*
X5395718Y-12166538D02*
X5395718Y-12242728D01*
X5395718Y-12242728D02*
X5405242Y-12261776D01*
X5405242Y-12261776D02*
X5414766Y-12271300D01*
X5414766Y-12271300D02*
X5433813Y-12280824D01*
X5433813Y-12280824D02*
X5471909Y-12280824D01*
X5471909Y-12280824D02*
X5490956Y-12271300D01*
X5490956Y-12271300D02*
X5500480Y-12261776D01*
X5500480Y-12261776D02*
X5510004Y-12242728D01*
X5510004Y-12242728D02*
X5510004Y-12195109D01*
X5510004Y-12195109D02*
X5500480Y-12176062D01*
X5500480Y-12176062D02*
X5490956Y-12166538D01*
X5490956Y-12166538D02*
X5471909Y-12157014D01*
X5471909Y-12157014D02*
X5433813Y-12157014D01*
X5433813Y-12157014D02*
X5414766Y-12166538D01*
X5414766Y-12166538D02*
X5405242Y-12176062D01*
X5405242Y-12176062D02*
X5395718Y-12195109D01*
X5586194Y-12080824D02*
X5586194Y-12118919D01*
X5662385Y-12080824D02*
X5662385Y-12118919D01*
X5957623Y-12357014D02*
X5948099Y-12347490D01*
X5948099Y-12347490D02*
X5929051Y-12318919D01*
X5929051Y-12318919D02*
X5919528Y-12299871D01*
X5919528Y-12299871D02*
X5910004Y-12271300D01*
X5910004Y-12271300D02*
X5900480Y-12223681D01*
X5900480Y-12223681D02*
X5900480Y-12185586D01*
X5900480Y-12185586D02*
X5910004Y-12137967D01*
X5910004Y-12137967D02*
X5919528Y-12109395D01*
X5919528Y-12109395D02*
X5929051Y-12090348D01*
X5929051Y-12090348D02*
X5948099Y-12061776D01*
X5948099Y-12061776D02*
X5957623Y-12052252D01*
X6024289Y-12099871D02*
X6033813Y-12090348D01*
X6033813Y-12090348D02*
X6052861Y-12080824D01*
X6052861Y-12080824D02*
X6100480Y-12080824D01*
X6100480Y-12080824D02*
X6119528Y-12090348D01*
X6119528Y-12090348D02*
X6129051Y-12099871D01*
X6129051Y-12099871D02*
X6138575Y-12118919D01*
X6138575Y-12118919D02*
X6138575Y-12137967D01*
X6138575Y-12137967D02*
X6129051Y-12166538D01*
X6129051Y-12166538D02*
X6014766Y-12280824D01*
X6014766Y-12280824D02*
X6138575Y-12280824D01*
X6376670Y-12280824D02*
X6376670Y-12080824D01*
X6462385Y-12280824D02*
X6462385Y-12176062D01*
X6462385Y-12176062D02*
X6452861Y-12157014D01*
X6452861Y-12157014D02*
X6433813Y-12147490D01*
X6433813Y-12147490D02*
X6405242Y-12147490D01*
X6405242Y-12147490D02*
X6386194Y-12157014D01*
X6386194Y-12157014D02*
X6376670Y-12166538D01*
X6586194Y-12280824D02*
X6567147Y-12271300D01*
X6567147Y-12271300D02*
X6557623Y-12261776D01*
X6557623Y-12261776D02*
X6548099Y-12242728D01*
X6548099Y-12242728D02*
X6548099Y-12185586D01*
X6548099Y-12185586D02*
X6557623Y-12166538D01*
X6557623Y-12166538D02*
X6567147Y-12157014D01*
X6567147Y-12157014D02*
X6586194Y-12147490D01*
X6586194Y-12147490D02*
X6614766Y-12147490D01*
X6614766Y-12147490D02*
X6633813Y-12157014D01*
X6633813Y-12157014D02*
X6643337Y-12166538D01*
X6643337Y-12166538D02*
X6652861Y-12185586D01*
X6652861Y-12185586D02*
X6652861Y-12242728D01*
X6652861Y-12242728D02*
X6643337Y-12261776D01*
X6643337Y-12261776D02*
X6633813Y-12271300D01*
X6633813Y-12271300D02*
X6614766Y-12280824D01*
X6614766Y-12280824D02*
X6586194Y-12280824D01*
X6767147Y-12280824D02*
X6748099Y-12271300D01*
X6748099Y-12271300D02*
X6738575Y-12252252D01*
X6738575Y-12252252D02*
X6738575Y-12080824D01*
X6919528Y-12271300D02*
X6900480Y-12280824D01*
X6900480Y-12280824D02*
X6862385Y-12280824D01*
X6862385Y-12280824D02*
X6843337Y-12271300D01*
X6843337Y-12271300D02*
X6833813Y-12252252D01*
X6833813Y-12252252D02*
X6833813Y-12176062D01*
X6833813Y-12176062D02*
X6843337Y-12157014D01*
X6843337Y-12157014D02*
X6862385Y-12147490D01*
X6862385Y-12147490D02*
X6900480Y-12147490D01*
X6900480Y-12147490D02*
X6919528Y-12157014D01*
X6919528Y-12157014D02*
X6929051Y-12176062D01*
X6929051Y-12176062D02*
X6929051Y-12195109D01*
X6929051Y-12195109D02*
X6833813Y-12214157D01*
X7005242Y-12271300D02*
X7024290Y-12280824D01*
X7024290Y-12280824D02*
X7062385Y-12280824D01*
X7062385Y-12280824D02*
X7081432Y-12271300D01*
X7081432Y-12271300D02*
X7090956Y-12252252D01*
X7090956Y-12252252D02*
X7090956Y-12242728D01*
X7090956Y-12242728D02*
X7081432Y-12223681D01*
X7081432Y-12223681D02*
X7062385Y-12214157D01*
X7062385Y-12214157D02*
X7033813Y-12214157D01*
X7033813Y-12214157D02*
X7014766Y-12204633D01*
X7014766Y-12204633D02*
X7005242Y-12185586D01*
X7005242Y-12185586D02*
X7005242Y-12176062D01*
X7005242Y-12176062D02*
X7014766Y-12157014D01*
X7014766Y-12157014D02*
X7033813Y-12147490D01*
X7033813Y-12147490D02*
X7062385Y-12147490D01*
X7062385Y-12147490D02*
X7081432Y-12157014D01*
X7157623Y-12357014D02*
X7167147Y-12347490D01*
X7167147Y-12347490D02*
X7186194Y-12318919D01*
X7186194Y-12318919D02*
X7195718Y-12299871D01*
X7195718Y-12299871D02*
X7205242Y-12271300D01*
X7205242Y-12271300D02*
X7214766Y-12223681D01*
X7214766Y-12223681D02*
X7214766Y-12185586D01*
X7214766Y-12185586D02*
X7205242Y-12137967D01*
X7205242Y-12137967D02*
X7195718Y-12109395D01*
X7195718Y-12109395D02*
X7186194Y-12090348D01*
X7186194Y-12090348D02*
X7167147Y-12061776D01*
X7167147Y-12061776D02*
X7157623Y-12052252D01*
X7519528Y-12357014D02*
X7510004Y-12347490D01*
X7510004Y-12347490D02*
X7490956Y-12318919D01*
X7490956Y-12318919D02*
X7481432Y-12299871D01*
X7481432Y-12299871D02*
X7471909Y-12271300D01*
X7471909Y-12271300D02*
X7462385Y-12223681D01*
X7462385Y-12223681D02*
X7462385Y-12185586D01*
X7462385Y-12185586D02*
X7471909Y-12137967D01*
X7471909Y-12137967D02*
X7481432Y-12109395D01*
X7481432Y-12109395D02*
X7490956Y-12090348D01*
X7490956Y-12090348D02*
X7510004Y-12061776D01*
X7510004Y-12061776D02*
X7519528Y-12052252D01*
X7595718Y-12147490D02*
X7595718Y-12280824D01*
X7595718Y-12166538D02*
X7605242Y-12157014D01*
X7605242Y-12157014D02*
X7624290Y-12147490D01*
X7624290Y-12147490D02*
X7652861Y-12147490D01*
X7652861Y-12147490D02*
X7671909Y-12157014D01*
X7671909Y-12157014D02*
X7681432Y-12176062D01*
X7681432Y-12176062D02*
X7681432Y-12280824D01*
X7805242Y-12280824D02*
X7786194Y-12271300D01*
X7786194Y-12271300D02*
X7776671Y-12261776D01*
X7776671Y-12261776D02*
X7767147Y-12242728D01*
X7767147Y-12242728D02*
X7767147Y-12185586D01*
X7767147Y-12185586D02*
X7776671Y-12166538D01*
X7776671Y-12166538D02*
X7786194Y-12157014D01*
X7786194Y-12157014D02*
X7805242Y-12147490D01*
X7805242Y-12147490D02*
X7833813Y-12147490D01*
X7833813Y-12147490D02*
X7852861Y-12157014D01*
X7852861Y-12157014D02*
X7862385Y-12166538D01*
X7862385Y-12166538D02*
X7871909Y-12185586D01*
X7871909Y-12185586D02*
X7871909Y-12242728D01*
X7871909Y-12242728D02*
X7862385Y-12261776D01*
X7862385Y-12261776D02*
X7852861Y-12271300D01*
X7852861Y-12271300D02*
X7833813Y-12280824D01*
X7833813Y-12280824D02*
X7805242Y-12280824D01*
X7929052Y-12147490D02*
X8005242Y-12147490D01*
X7957623Y-12080824D02*
X7957623Y-12252252D01*
X7957623Y-12252252D02*
X7967147Y-12271300D01*
X7967147Y-12271300D02*
X7986194Y-12280824D01*
X7986194Y-12280824D02*
X8005242Y-12280824D01*
X8224290Y-12147490D02*
X8224290Y-12347490D01*
X8224290Y-12157014D02*
X8243337Y-12147490D01*
X8243337Y-12147490D02*
X8281433Y-12147490D01*
X8281433Y-12147490D02*
X8300480Y-12157014D01*
X8300480Y-12157014D02*
X8310004Y-12166538D01*
X8310004Y-12166538D02*
X8319528Y-12185586D01*
X8319528Y-12185586D02*
X8319528Y-12242728D01*
X8319528Y-12242728D02*
X8310004Y-12261776D01*
X8310004Y-12261776D02*
X8300480Y-12271300D01*
X8300480Y-12271300D02*
X8281433Y-12280824D01*
X8281433Y-12280824D02*
X8243337Y-12280824D01*
X8243337Y-12280824D02*
X8224290Y-12271300D01*
X8433814Y-12280824D02*
X8414766Y-12271300D01*
X8414766Y-12271300D02*
X8405242Y-12252252D01*
X8405242Y-12252252D02*
X8405242Y-12080824D01*
X8595718Y-12280824D02*
X8595718Y-12176062D01*
X8595718Y-12176062D02*
X8586195Y-12157014D01*
X8586195Y-12157014D02*
X8567147Y-12147490D01*
X8567147Y-12147490D02*
X8529052Y-12147490D01*
X8529052Y-12147490D02*
X8510004Y-12157014D01*
X8595718Y-12271300D02*
X8576671Y-12280824D01*
X8576671Y-12280824D02*
X8529052Y-12280824D01*
X8529052Y-12280824D02*
X8510004Y-12271300D01*
X8510004Y-12271300D02*
X8500480Y-12252252D01*
X8500480Y-12252252D02*
X8500480Y-12233205D01*
X8500480Y-12233205D02*
X8510004Y-12214157D01*
X8510004Y-12214157D02*
X8529052Y-12204633D01*
X8529052Y-12204633D02*
X8576671Y-12204633D01*
X8576671Y-12204633D02*
X8595718Y-12195109D01*
X8662385Y-12147490D02*
X8738575Y-12147490D01*
X8690956Y-12080824D02*
X8690956Y-12252252D01*
X8690956Y-12252252D02*
X8700480Y-12271300D01*
X8700480Y-12271300D02*
X8719528Y-12280824D01*
X8719528Y-12280824D02*
X8738575Y-12280824D01*
X8881433Y-12271300D02*
X8862385Y-12280824D01*
X8862385Y-12280824D02*
X8824290Y-12280824D01*
X8824290Y-12280824D02*
X8805242Y-12271300D01*
X8805242Y-12271300D02*
X8795718Y-12252252D01*
X8795718Y-12252252D02*
X8795718Y-12176062D01*
X8795718Y-12176062D02*
X8805242Y-12157014D01*
X8805242Y-12157014D02*
X8824290Y-12147490D01*
X8824290Y-12147490D02*
X8862385Y-12147490D01*
X8862385Y-12147490D02*
X8881433Y-12157014D01*
X8881433Y-12157014D02*
X8890956Y-12176062D01*
X8890956Y-12176062D02*
X8890956Y-12195109D01*
X8890956Y-12195109D02*
X8795718Y-12214157D01*
X9062385Y-12280824D02*
X9062385Y-12080824D01*
X9062385Y-12271300D02*
X9043337Y-12280824D01*
X9043337Y-12280824D02*
X9005242Y-12280824D01*
X9005242Y-12280824D02*
X8986195Y-12271300D01*
X8986195Y-12271300D02*
X8976671Y-12261776D01*
X8976671Y-12261776D02*
X8967147Y-12242728D01*
X8967147Y-12242728D02*
X8967147Y-12185586D01*
X8967147Y-12185586D02*
X8976671Y-12166538D01*
X8976671Y-12166538D02*
X8986195Y-12157014D01*
X8986195Y-12157014D02*
X9005242Y-12147490D01*
X9005242Y-12147490D02*
X9043337Y-12147490D01*
X9043337Y-12147490D02*
X9062385Y-12157014D01*
X9138576Y-12357014D02*
X9148099Y-12347490D01*
X9148099Y-12347490D02*
X9167147Y-12318919D01*
X9167147Y-12318919D02*
X9176671Y-12299871D01*
X9176671Y-12299871D02*
X9186195Y-12271300D01*
X9186195Y-12271300D02*
X9195718Y-12223681D01*
X9195718Y-12223681D02*
X9195718Y-12185586D01*
X9195718Y-12185586D02*
X9186195Y-12137967D01*
X9186195Y-12137967D02*
X9176671Y-12109395D01*
X9176671Y-12109395D02*
X9167147Y-12090348D01*
X9167147Y-12090348D02*
X9148099Y-12061776D01*
X9148099Y-12061776D02*
X9138576Y-12052252D01*
M02*
