G04 #@! TF.GenerationSoftware,KiCad,Pcbnew,8.0.3-rc1*
G04 #@! TF.CreationDate,2024-05-30T00:56:12+02:00*
G04 #@! TF.ProjectId,hamodule,68616d6f-6475-46c6-952e-6b696361645f,20240528.23.8*
G04 #@! TF.SameCoordinates,Original*
G04 #@! TF.FileFunction,Soldermask,Top*
G04 #@! TF.FilePolarity,Negative*
%FSLAX46Y46*%
G04 Gerber Fmt 4.6, Leading zero omitted, Abs format (unit mm)*
G04 Created by KiCad (PCBNEW 8.0.3-rc1) date 2024-05-30 00:56:12*
%MOMM*%
%LPD*%
G01*
G04 APERTURE LIST*
G04 Aperture macros list*
%AMRoundRect*
0 Rectangle with rounded corners*
0 $1 Rounding radius*
0 $2 $3 $4 $5 $6 $7 $8 $9 X,Y pos of 4 corners*
0 Add a 4 corners polygon primitive as box body*
4,1,4,$2,$3,$4,$5,$6,$7,$8,$9,$2,$3,0*
0 Add four circle primitives for the rounded corners*
1,1,$1+$1,$2,$3*
1,1,$1+$1,$4,$5*
1,1,$1+$1,$6,$7*
1,1,$1+$1,$8,$9*
0 Add four rect primitives between the rounded corners*
20,1,$1+$1,$2,$3,$4,$5,0*
20,1,$1+$1,$4,$5,$6,$7,0*
20,1,$1+$1,$6,$7,$8,$9,0*
20,1,$1+$1,$8,$9,$2,$3,0*%
G04 Aperture macros list end*
%ADD10R,1.700000X1.700000*%
%ADD11O,1.700000X1.700000*%
%ADD12RoundRect,0.249999X-1.425001X0.450001X-1.425001X-0.450001X1.425001X-0.450001X1.425001X0.450001X0*%
%ADD13C,1.800000*%
%ADD14RoundRect,0.250000X0.450000X-0.325000X0.450000X0.325000X-0.450000X0.325000X-0.450000X-0.325000X0*%
%ADD15RoundRect,0.250000X0.450000X-0.350000X0.450000X0.350000X-0.450000X0.350000X-0.450000X-0.350000X0*%
%ADD16RoundRect,0.250000X0.750000X-0.600000X0.750000X0.600000X-0.750000X0.600000X-0.750000X-0.600000X0*%
%ADD17O,2.000000X1.700000*%
%ADD18RoundRect,0.250000X0.337500X0.475000X-0.337500X0.475000X-0.337500X-0.475000X0.337500X-0.475000X0*%
%ADD19RoundRect,0.250000X-0.337500X-0.475000X0.337500X-0.475000X0.337500X0.475000X-0.337500X0.475000X0*%
%ADD20R,2.000000X2.000000*%
%ADD21C,2.000000*%
%ADD22R,1.905000X2.000000*%
%ADD23O,1.905000X2.000000*%
%ADD24RoundRect,0.625000X0.625000X0.625000X-0.625000X0.625000X-0.625000X-0.625000X0.625000X-0.625000X0*%
%ADD25C,5.500000*%
%ADD26R,1.600000X2.400000*%
%ADD27O,1.600000X2.400000*%
%ADD28RoundRect,0.237500X-0.250000X-0.237500X0.250000X-0.237500X0.250000X0.237500X-0.250000X0.237500X0*%
%ADD29RoundRect,0.237500X0.300000X0.237500X-0.300000X0.237500X-0.300000X-0.237500X0.300000X-0.237500X0*%
%ADD30R,1.800000X1.100000*%
%ADD31RoundRect,0.237500X-0.300000X-0.237500X0.300000X-0.237500X0.300000X0.237500X-0.300000X0.237500X0*%
%ADD32RoundRect,0.237500X-0.237500X0.300000X-0.237500X-0.300000X0.237500X-0.300000X0.237500X0.300000X0*%
%ADD33RoundRect,0.225000X0.225000X0.250000X-0.225000X0.250000X-0.225000X-0.250000X0.225000X-0.250000X0*%
%ADD34R,0.400000X1.000000*%
%ADD35RoundRect,0.237500X0.237500X-0.250000X0.237500X0.250000X-0.237500X0.250000X-0.237500X-0.250000X0*%
%ADD36RoundRect,0.218750X0.256250X-0.218750X0.256250X0.218750X-0.256250X0.218750X-0.256250X-0.218750X0*%
%ADD37RoundRect,0.150000X0.512500X0.150000X-0.512500X0.150000X-0.512500X-0.150000X0.512500X-0.150000X0*%
%ADD38RoundRect,0.200000X0.200000X0.275000X-0.200000X0.275000X-0.200000X-0.275000X0.200000X-0.275000X0*%
%ADD39R,1.600000X1.600000*%
%ADD40C,1.600000*%
%ADD41R,0.900000X1.500000*%
%ADD42R,1.500000X0.900000*%
%ADD43R,1.000000X1.000000*%
%ADD44RoundRect,0.237500X0.237500X-0.300000X0.237500X0.300000X-0.237500X0.300000X-0.237500X-0.300000X0*%
%ADD45RoundRect,0.200000X-0.275000X0.200000X-0.275000X-0.200000X0.275000X-0.200000X0.275000X0.200000X0*%
%ADD46RoundRect,0.250000X-0.450000X0.325000X-0.450000X-0.325000X0.450000X-0.325000X0.450000X0.325000X0*%
%ADD47RoundRect,0.250000X-0.475000X0.337500X-0.475000X-0.337500X0.475000X-0.337500X0.475000X0.337500X0*%
%ADD48RoundRect,0.112500X-0.112500X0.187500X-0.112500X-0.187500X0.112500X-0.187500X0.112500X0.187500X0*%
%ADD49C,0.650000*%
%ADD50R,0.600000X1.450000*%
%ADD51R,0.300000X1.450000*%
%ADD52O,1.000000X2.100000*%
%ADD53O,1.000000X1.600000*%
%ADD54RoundRect,0.250000X-0.600000X-0.725000X0.600000X-0.725000X0.600000X0.725000X-0.600000X0.725000X0*%
%ADD55O,1.700000X1.950000*%
%ADD56RoundRect,0.150000X-0.875000X-0.150000X0.875000X-0.150000X0.875000X0.150000X-0.875000X0.150000X0*%
%ADD57RoundRect,0.250000X-0.350000X-0.450000X0.350000X-0.450000X0.350000X0.450000X-0.350000X0.450000X0*%
%ADD58R,0.820000X0.304800*%
%ADD59R,0.820000X0.308800*%
%ADD60RoundRect,0.150000X0.150000X-0.512500X0.150000X0.512500X-0.150000X0.512500X-0.150000X-0.512500X0*%
%ADD61RoundRect,0.225000X-0.225000X-0.250000X0.225000X-0.250000X0.225000X0.250000X-0.225000X0.250000X0*%
%ADD62R,1.500000X1.000000*%
G04 APERTURE END LIST*
D10*
X47752500Y-108737400D03*
D11*
X47752500Y-111277400D03*
D12*
X100151000Y-56411500D03*
X100151000Y-62511500D03*
X105104000Y-56411500D03*
X105104000Y-62511500D03*
D13*
X34502400Y-58463070D03*
X42002400Y-60096400D03*
D12*
X105104000Y-64463300D03*
X105104000Y-70563300D03*
X100151000Y-64463300D03*
X100151000Y-70563300D03*
D14*
X54229000Y-108883200D03*
X54229000Y-106833200D03*
D15*
X52171600Y-108857800D03*
X52171600Y-106857800D03*
D16*
X40839300Y-111899700D03*
D17*
X40839300Y-109399700D03*
D18*
X33520200Y-101269800D03*
X31445200Y-101269800D03*
D19*
X42240200Y-105359200D03*
X44315200Y-105359200D03*
D20*
X27656000Y-68046600D03*
D21*
X27656000Y-88046600D03*
X47656000Y-83046600D03*
X47656000Y-73046600D03*
D22*
X37118700Y-97739200D03*
D23*
X39658700Y-97739200D03*
X42198700Y-97739200D03*
D24*
X68567800Y-43332400D03*
X68567800Y-35132401D03*
X63567800Y-43332400D03*
X63567800Y-35132401D03*
X58567800Y-43332400D03*
X58567800Y-35132401D03*
X53567800Y-43332400D03*
X53567800Y-35132401D03*
X44020000Y-43355999D03*
X44020000Y-35156000D03*
X39020000Y-43355999D03*
X39020000Y-35156000D03*
X115140000Y-43328199D03*
X115140000Y-35128200D03*
X110140000Y-43328199D03*
X110140000Y-35128200D03*
X105140000Y-43328199D03*
X105140000Y-35128200D03*
X100140000Y-43328199D03*
X100140000Y-35128200D03*
D21*
X42037000Y-49225200D03*
X42027000Y-54305200D03*
D25*
X27000000Y-36000000D03*
X150300000Y-36000000D03*
D26*
X139389178Y-74236118D03*
D27*
X136849178Y-74236118D03*
X134309178Y-74236118D03*
X131769178Y-74236118D03*
X131769178Y-81856118D03*
X134309178Y-81856118D03*
X136849178Y-81856118D03*
X139389178Y-81856118D03*
D12*
X115162400Y-64463300D03*
X115162400Y-70563300D03*
X110133200Y-56411500D03*
X110133200Y-62511500D03*
X115162400Y-56411500D03*
X115162400Y-62511500D03*
D26*
X105081300Y-74239600D03*
D27*
X102541300Y-74239600D03*
X100001300Y-74239600D03*
X97461300Y-74239600D03*
X97461300Y-81859600D03*
X100001300Y-81859600D03*
X102541300Y-81859600D03*
X105081300Y-81859600D03*
D26*
X116257300Y-74239600D03*
D27*
X113717300Y-74239600D03*
X111177300Y-74239600D03*
X108637300Y-74239600D03*
X108637300Y-81859600D03*
X111177300Y-81859600D03*
X113717300Y-81859600D03*
X116257300Y-81859600D03*
D12*
X110133200Y-64463300D03*
X110133200Y-70563300D03*
D28*
X130464402Y-89787199D03*
X132289402Y-89787199D03*
D29*
X132226902Y-91311199D03*
X130501902Y-91311199D03*
D16*
X32914500Y-111899700D03*
D17*
X32914500Y-109399700D03*
D30*
X89547000Y-99542600D03*
X95747000Y-99542600D03*
X89547000Y-103242600D03*
X95747000Y-103242600D03*
X89545800Y-109702600D03*
X95745800Y-109702600D03*
X89545800Y-113402600D03*
X95745800Y-113402600D03*
D10*
X125305402Y-113659699D03*
D11*
X127845402Y-113659699D03*
D31*
X133856902Y-91311199D03*
X135581902Y-91311199D03*
D32*
X111655402Y-102307199D03*
X111655402Y-104032199D03*
D33*
X101710402Y-101389699D03*
X100160402Y-101389699D03*
D14*
X56311800Y-108883200D03*
X56311800Y-106833200D03*
D34*
X57888800Y-90177600D03*
X58538800Y-90177600D03*
X59188800Y-90177600D03*
X59838800Y-90177600D03*
X60488800Y-90177600D03*
X61138800Y-90177600D03*
X61788800Y-90177600D03*
X62438800Y-90177600D03*
X63088800Y-90177600D03*
X63088800Y-84777600D03*
X62438800Y-84777600D03*
X61788800Y-84777600D03*
X61138800Y-84777600D03*
X60488800Y-84777600D03*
X59838800Y-84777600D03*
X59188800Y-84777600D03*
X58538800Y-84777600D03*
X57888800Y-84777600D03*
D10*
X120243600Y-89814400D03*
D11*
X122783600Y-89814400D03*
X125323600Y-89814400D03*
X127863600Y-89814400D03*
D35*
X63333600Y-105816400D03*
X63333600Y-103991400D03*
D24*
X138497702Y-43328199D03*
X138497702Y-35128200D03*
X133497702Y-43328199D03*
X133497702Y-35128200D03*
X128497702Y-43328199D03*
X128497702Y-35128200D03*
X123497702Y-43328199D03*
X123497702Y-35128200D03*
X91935800Y-43332400D03*
X91935800Y-35132401D03*
X86935800Y-43332400D03*
X86935800Y-35132401D03*
X81935800Y-43332400D03*
X81935800Y-35132401D03*
X76935800Y-43332400D03*
X76935800Y-35132401D03*
D35*
X61708000Y-105814500D03*
X61708000Y-103989500D03*
D12*
X128459200Y-64567800D03*
X128459200Y-70667800D03*
D31*
X120400002Y-85761299D03*
X122125002Y-85761299D03*
D12*
X128459200Y-56435800D03*
X128459200Y-62535800D03*
D36*
X61708000Y-108991600D03*
X61708000Y-107416600D03*
D31*
X132032102Y-85761299D03*
X133757102Y-85761299D03*
D13*
X81902800Y-53619400D03*
X81902800Y-48539400D03*
D15*
X58343800Y-108857800D03*
X58343800Y-106857800D03*
D28*
X108614626Y-84212480D03*
X110439626Y-84212480D03*
D20*
X77774800Y-78043900D03*
D21*
X77774800Y-75503900D03*
X77774800Y-65343900D03*
X77774800Y-57723900D03*
D10*
X109284000Y-95402400D03*
D11*
X111824000Y-95402400D03*
X114364000Y-95402400D03*
D13*
X105104000Y-53515900D03*
X105104000Y-48435900D03*
D35*
X69836000Y-105814500D03*
X69836000Y-103989500D03*
X68210400Y-105816400D03*
X68210400Y-103991400D03*
D12*
X123520200Y-64615600D03*
X123520200Y-70715600D03*
D28*
X97487526Y-84212480D03*
X99312526Y-84212480D03*
D37*
X86766400Y-112826800D03*
X86766400Y-111876800D03*
X86766400Y-110926800D03*
X84491400Y-110926800D03*
X84491400Y-112826800D03*
D38*
X114330402Y-98479699D03*
X112680402Y-98479699D03*
D39*
X54000400Y-97648400D03*
D40*
X54000400Y-95148400D03*
D28*
X137213702Y-84237299D03*
X139038702Y-84237299D03*
D12*
X123520200Y-56485600D03*
X123520200Y-62585600D03*
D38*
X114330402Y-99954699D03*
X112680402Y-99954699D03*
D41*
X135115402Y-93119699D03*
X133845402Y-93119699D03*
X132575402Y-93119699D03*
X131305402Y-93119699D03*
X130035402Y-93119699D03*
X128765402Y-93119699D03*
X127495402Y-93119699D03*
X126225402Y-93119699D03*
X124955402Y-93119699D03*
X123685402Y-93119699D03*
X122415402Y-93119699D03*
X121145402Y-93119699D03*
X119875402Y-93119699D03*
X118605402Y-93119699D03*
D42*
X117355402Y-94884699D03*
X117355402Y-96154699D03*
X117355402Y-97424699D03*
X117355402Y-98694699D03*
X117355402Y-99964699D03*
X117355402Y-101234699D03*
X117355402Y-102504699D03*
X117355402Y-103774699D03*
X117355402Y-105044699D03*
X117355402Y-106314699D03*
X117355402Y-107584699D03*
X117355402Y-108854699D03*
D41*
X118605402Y-110619699D03*
X119875402Y-110619699D03*
X121145402Y-110619699D03*
X122415402Y-110619699D03*
X123685402Y-110619699D03*
X124955402Y-110619699D03*
X126225402Y-110619699D03*
X127495402Y-110619699D03*
X128765402Y-110619699D03*
X130035402Y-110619699D03*
X131305402Y-110619699D03*
X132575402Y-110619699D03*
X133845402Y-110619699D03*
X135115402Y-110619699D03*
D43*
X131265402Y-99009699D03*
X129765402Y-99009699D03*
X128265402Y-99009699D03*
X131265402Y-100509699D03*
X129765402Y-100509699D03*
X128265402Y-100509699D03*
X131265402Y-102009699D03*
X129765402Y-102009699D03*
X128265402Y-102009699D03*
D12*
X138492200Y-56435800D03*
X138492200Y-62535800D03*
D36*
X69836000Y-108991500D03*
X69836000Y-107416500D03*
D20*
X82854800Y-78043900D03*
D21*
X82854800Y-75503900D03*
X82854800Y-65343900D03*
X82854800Y-57723900D03*
D28*
X84301800Y-114416800D03*
X86126800Y-114416800D03*
D13*
X115162400Y-53515900D03*
X115162400Y-48435900D03*
D10*
X107915402Y-101544699D03*
D11*
X107915402Y-104084699D03*
D13*
X133502400Y-53517800D03*
X133502400Y-48437800D03*
D44*
X75715200Y-112927700D03*
X75715200Y-111202700D03*
D45*
X86893400Y-103315000D03*
X86893400Y-104965000D03*
D10*
X111805800Y-108889800D03*
D11*
X114345800Y-108889800D03*
D28*
X125582402Y-84237299D03*
X127407402Y-84237299D03*
D43*
X129807200Y-84531200D03*
D46*
X133934200Y-112589200D03*
X133934200Y-114639200D03*
D47*
X69621400Y-84302600D03*
X69621400Y-86377600D03*
D48*
X97955600Y-103208400D03*
X97955600Y-105308400D03*
D13*
X128497800Y-53517800D03*
X128497800Y-48437800D03*
X68408300Y-53532900D03*
X68408300Y-48452900D03*
D26*
X127705178Y-74236118D03*
D27*
X125165178Y-74236118D03*
X122625178Y-74236118D03*
X120085178Y-74236118D03*
X120085178Y-81856118D03*
X122625178Y-81856118D03*
X125165178Y-81856118D03*
X127705178Y-81856118D03*
D12*
X133513800Y-56435800D03*
X133513800Y-62535800D03*
D29*
X138988702Y-85761299D03*
X137263702Y-85761299D03*
D18*
X33520200Y-103327200D03*
X31445200Y-103327200D03*
D10*
X72992800Y-113501700D03*
D11*
X70452800Y-113501700D03*
X67912800Y-113501700D03*
D13*
X76949800Y-53619400D03*
X76949800Y-48539400D03*
D49*
X99591402Y-109775599D03*
X105371402Y-109775599D03*
D50*
X99231402Y-108330599D03*
X100031402Y-108330599D03*
D51*
X101231402Y-108330599D03*
X102231402Y-108330599D03*
X102731402Y-108330599D03*
X103731402Y-108330599D03*
D50*
X104931402Y-108330599D03*
X105731402Y-108330599D03*
X105731402Y-108330599D03*
X104931402Y-108330599D03*
D51*
X104231402Y-108330599D03*
X103231402Y-108330599D03*
X101731402Y-108330599D03*
X100731402Y-108330599D03*
D50*
X100031402Y-108330599D03*
X99231402Y-108330599D03*
D52*
X98161402Y-109245599D03*
D53*
X98161402Y-113425599D03*
D52*
X106801402Y-109245599D03*
D53*
X106801402Y-113425599D03*
D28*
X114405826Y-84212480D03*
X116230826Y-84212480D03*
D54*
X73638400Y-85225400D03*
D55*
X76138400Y-85225400D03*
X78638400Y-85225400D03*
X81138400Y-85225400D03*
X83638400Y-85225400D03*
D35*
X64959200Y-105816400D03*
X64959200Y-103991400D03*
D10*
X47723200Y-103530400D03*
D11*
X47723200Y-100990400D03*
X47723200Y-98450400D03*
D31*
X108661626Y-85736480D03*
X110386626Y-85736480D03*
D36*
X73087200Y-108991500D03*
X73087200Y-107416500D03*
D56*
X75498400Y-92278200D03*
X75498400Y-93548200D03*
X75498400Y-94818200D03*
X75498400Y-96088200D03*
X75498400Y-97358200D03*
X75498400Y-98628200D03*
X75498400Y-99898200D03*
X75498400Y-101168200D03*
X75498400Y-102438200D03*
X75498400Y-103708200D03*
X75498400Y-104978200D03*
X75498400Y-106248200D03*
X75498400Y-107518200D03*
X75498400Y-108788200D03*
X84798400Y-108788200D03*
X84798400Y-107518200D03*
X84798400Y-106248200D03*
X84798400Y-104978200D03*
X84798400Y-103708200D03*
X84798400Y-102438200D03*
X84798400Y-101168200D03*
X84798400Y-99898200D03*
X84798400Y-98628200D03*
X84798400Y-97358200D03*
X84798400Y-96088200D03*
X84798400Y-94818200D03*
X84798400Y-93548200D03*
X84798400Y-92278200D03*
D31*
X103278600Y-85736480D03*
X105003600Y-85736480D03*
D19*
X42248000Y-101295200D03*
X44323000Y-101295200D03*
D13*
X138480800Y-53517800D03*
X138480800Y-48437800D03*
X110133200Y-53515900D03*
X110133200Y-48435900D03*
D28*
X120350002Y-84237299D03*
X122175002Y-84237299D03*
D36*
X63333600Y-108991500D03*
X63333600Y-107416500D03*
D32*
X65303400Y-112853300D03*
X65303400Y-114578300D03*
D13*
X86982800Y-53619400D03*
X86982800Y-48539400D03*
D35*
X73087200Y-105814500D03*
X73087200Y-103989500D03*
D31*
X125632402Y-85761299D03*
X127357402Y-85761299D03*
D18*
X74951500Y-90271600D03*
X72876500Y-90271600D03*
D29*
X116177826Y-85736480D03*
X114452826Y-85736480D03*
D47*
X65049400Y-86465500D03*
X65049400Y-88540500D03*
D35*
X105185402Y-105172199D03*
X105185402Y-103347199D03*
X71461600Y-105814500D03*
X71461600Y-103989500D03*
D20*
X55694300Y-78043900D03*
D21*
X55694300Y-75503900D03*
X55694300Y-65343900D03*
X55694300Y-57723900D03*
D20*
X60520300Y-78043900D03*
D21*
X60520300Y-75503900D03*
X60520300Y-65343900D03*
X60520300Y-57723900D03*
D13*
X58488300Y-53532900D03*
X58488300Y-48452900D03*
D20*
X70299300Y-78043900D03*
D21*
X70299300Y-75503900D03*
X70299300Y-65343900D03*
X70299300Y-57723900D03*
D20*
X87934800Y-78043900D03*
D21*
X87934800Y-75503900D03*
X87934800Y-65343900D03*
X87934800Y-57723900D03*
D20*
X92887800Y-78043900D03*
D21*
X92887800Y-75503900D03*
X92887800Y-65343900D03*
X92887800Y-57723900D03*
D57*
X108820200Y-113284000D03*
X110820200Y-113284000D03*
D58*
X115125402Y-103269699D03*
D59*
X115125402Y-102458899D03*
X113405402Y-102458899D03*
D58*
X113405402Y-103269699D03*
D36*
X66584800Y-108991500D03*
X66584800Y-107416500D03*
D60*
X101535402Y-105367199D03*
X102485402Y-105367199D03*
X103435402Y-105367199D03*
X103435402Y-103092199D03*
X102485402Y-103092199D03*
X101535402Y-103092199D03*
D20*
X65346300Y-78043900D03*
D21*
X65346300Y-75503900D03*
X65346300Y-65343900D03*
X65346300Y-57723900D03*
D61*
X103250402Y-101389699D03*
X104800402Y-101389699D03*
D25*
X150300000Y-83388200D03*
D28*
X113234502Y-104673400D03*
X115059502Y-104673400D03*
D18*
X33520200Y-105359200D03*
X31445200Y-105359200D03*
D36*
X64959200Y-108991500D03*
X64959200Y-107416500D03*
D12*
X133513800Y-64563800D03*
X133513800Y-70663800D03*
D39*
X36610700Y-102819200D03*
D40*
X39110700Y-102819200D03*
D13*
X123497800Y-53488400D03*
X123497800Y-48408400D03*
X100125600Y-53515900D03*
X100125600Y-48435900D03*
D36*
X68210400Y-108991500D03*
X68210400Y-107416500D03*
D12*
X138492200Y-64563800D03*
X138492200Y-70663800D03*
D31*
X133876002Y-89787199D03*
X135601002Y-89787199D03*
D19*
X42240200Y-103327200D03*
X44315200Y-103327200D03*
D13*
X91935800Y-53619400D03*
X91935800Y-48539400D03*
D35*
X66584800Y-105816400D03*
X66584800Y-103991400D03*
D62*
X82441600Y-114249200D03*
X82441600Y-111049200D03*
X77541600Y-111049200D03*
X77541600Y-114249200D03*
D28*
X103227926Y-84201000D03*
X105052926Y-84201000D03*
X113234502Y-106197400D03*
X115059502Y-106197400D03*
D13*
X53535300Y-53532900D03*
X53535300Y-48452900D03*
D15*
X131978400Y-114614200D03*
X131978400Y-112614200D03*
D35*
X99715402Y-105152199D03*
X99715402Y-103327199D03*
D25*
X27000000Y-109900000D03*
D31*
X97536426Y-85736480D03*
X99261426Y-85736480D03*
D13*
X63408300Y-53532900D03*
X63408300Y-48452900D03*
D19*
X133498302Y-88019699D03*
X135573302Y-88019699D03*
X76737300Y-90271600D03*
X78812300Y-90271600D03*
D36*
X71461600Y-108991500D03*
X71461600Y-107416500D03*
D28*
X131981302Y-84237299D03*
X133806302Y-84237299D03*
M02*
