G04 #@! TF.GenerationSoftware,KiCad,Pcbnew,8.0.2*
G04 #@! TF.CreationDate,2024-05-29T19:15:58+02:00*
G04 #@! TF.ProjectId,hamodule,68616d6f-6475-46c6-952e-6b696361645f,20240528.23.8*
G04 #@! TF.SameCoordinates,Original*
G04 #@! TF.FileFunction,Profile,NP*
%FSLAX46Y46*%
G04 Gerber Fmt 4.6, Leading zero omitted, Abs format (unit mm)*
G04 Created by KiCad (PCBNEW 8.0.2) date 2024-05-29 19:15:58*
%MOMM*%
%LPD*%
G01*
G04 APERTURE LIST*
G04 #@! TA.AperFunction,Profile*
%ADD10C,0.050000*%
G04 #@! TD*
G04 APERTURE END LIST*
D10*
X150977600Y-32189148D02*
X26429200Y-32207200D01*
X23850600Y-112926401D02*
X23889200Y-34747200D01*
X26390600Y-115468400D02*
G75*
G02*
X23850599Y-112926401I2000J2542000D01*
G01*
X40614600Y-52298600D02*
X43510200Y-52298600D01*
X38773600Y-60706000D02*
G75*
G02*
X37808400Y-60706000I-482600J0D01*
G01*
X37808400Y-57810400D02*
G75*
G02*
X38773600Y-57810400I482600J0D01*
G01*
X136663204Y-89357200D02*
X136626600Y-112926400D01*
X150977600Y-32189148D02*
G75*
G02*
X153515653Y-34729147I-2000J-2540052D01*
G01*
X43510200Y-51333400D02*
X40614600Y-51333400D01*
X43510200Y-51333400D02*
G75*
G02*
X43510200Y-52298600I0J-482600D01*
G01*
X23889200Y-34747200D02*
G75*
G02*
X26429200Y-32207200I2540000J0D01*
G01*
X153515604Y-84259147D02*
G75*
G02*
X150975604Y-86799204I-2540004J-53D01*
G01*
X37808400Y-57810400D02*
X37808400Y-60706000D01*
X134086600Y-115466400D02*
X26390600Y-115468400D01*
X139203204Y-86817200D02*
X150975604Y-86799147D01*
X136663204Y-89357200D02*
G75*
G02*
X139203204Y-86817204I2539996J0D01*
G01*
X153515604Y-34729147D02*
X153515604Y-84259147D01*
X136626600Y-112926400D02*
G75*
G02*
X134086600Y-115466400I-2540000J0D01*
G01*
X40614600Y-52298600D02*
G75*
G02*
X40614600Y-51333400I0J482600D01*
G01*
X38773600Y-60706000D02*
X38773600Y-57810400D01*
M02*
