%TF.GenerationSoftware,KiCad,Pcbnew,7.0.5*%
%TF.CreationDate,2024-05-28T07:47:28+02:00*%
%TF.ProjectId,hamodule,68616d6f-6475-46c6-952e-6b696361645f,20240528.23.8*%
%TF.SameCoordinates,Original*%
%TF.FileFunction,Drillmap*%
%TF.FilePolarity,Positive*%
%FSLAX45Y45*%
G04 Gerber Fmt 4.5, Leading zero omitted, Abs format (unit mm)*
G04 Created by KiCad (PCBNEW 7.0.5) date 2024-05-28 07:47:28*
%MOMM*%
%LPD*%
G01*
G04 APERTURE LIST*
%ADD10C,0.050000*%
%ADD11C,0.200000*%
%ADD12C,0.065000*%
G04 APERTURE END LIST*
D10*
X15097760Y-3218915D02*
X2642920Y-3220720D01*
X2388920Y-11399520D02*
X2388920Y-3474720D01*
X2388920Y-11399520D02*
G75*
G03*
X2642920Y-11653720I254200J0D01*
G01*
X4061460Y-5270500D02*
X4351020Y-5270500D01*
X3780840Y-6182360D02*
G75*
G03*
X3877360Y-6182360I48260J0D01*
G01*
X3877360Y-5892800D02*
G75*
G03*
X3780840Y-5892800I-48260J0D01*
G01*
X13666320Y-8935720D02*
X13666520Y-11399520D01*
X15351565Y-3472915D02*
G75*
G03*
X15097760Y-3218915I-254005J-5D01*
G01*
X4351020Y-5173980D02*
X4061460Y-5173980D01*
X4351020Y-5270500D02*
G75*
G03*
X4351020Y-5173980I0J48260D01*
G01*
X2642920Y-3220720D02*
G75*
G03*
X2388920Y-3474720I0J-254000D01*
G01*
X15097560Y-8679920D02*
G75*
G03*
X15351560Y-8425915I0J254000D01*
G01*
X3780840Y-5892800D02*
X3780840Y-6182360D01*
X13412520Y-11653520D02*
X2642920Y-11653720D01*
X13920320Y-8681720D02*
X15097560Y-8679915D01*
X13920320Y-8681720D02*
G75*
G03*
X13666320Y-8935720I0J-254000D01*
G01*
X15351560Y-3472915D02*
X15351560Y-8425915D01*
X13412520Y-11653520D02*
G75*
G03*
X13666520Y-11399520I0J254000D01*
G01*
X4061460Y-5173980D02*
G75*
G03*
X4061460Y-5270500I0J-48260D01*
G01*
X3877360Y-6182360D02*
X3877360Y-5892800D01*
D11*
D12*
X9926640Y-10945060D02*
X9991640Y-11010060D01*
X9991640Y-10945060D02*
X9926640Y-11010060D01*
X10504640Y-10945060D02*
X10569640Y-11010060D01*
X10569640Y-10945060D02*
X10504640Y-11010060D01*
D11*
X2647197Y-11967704D02*
X2647197Y-11767704D01*
X2647197Y-11767704D02*
X2694816Y-11767704D01*
X2694816Y-11767704D02*
X2723387Y-11777228D01*
X2723387Y-11777228D02*
X2742435Y-11796275D01*
X2742435Y-11796275D02*
X2751959Y-11815323D01*
X2751959Y-11815323D02*
X2761483Y-11853418D01*
X2761483Y-11853418D02*
X2761483Y-11881989D01*
X2761483Y-11881989D02*
X2751959Y-11920085D01*
X2751959Y-11920085D02*
X2742435Y-11939132D01*
X2742435Y-11939132D02*
X2723387Y-11958180D01*
X2723387Y-11958180D02*
X2694816Y-11967704D01*
X2694816Y-11967704D02*
X2647197Y-11967704D01*
X2847197Y-11967704D02*
X2847197Y-11834370D01*
X2847197Y-11872466D02*
X2856721Y-11853418D01*
X2856721Y-11853418D02*
X2866244Y-11843894D01*
X2866244Y-11843894D02*
X2885292Y-11834370D01*
X2885292Y-11834370D02*
X2904340Y-11834370D01*
X2971006Y-11967704D02*
X2971006Y-11834370D01*
X2971006Y-11767704D02*
X2961482Y-11777228D01*
X2961482Y-11777228D02*
X2971006Y-11786751D01*
X2971006Y-11786751D02*
X2980530Y-11777228D01*
X2980530Y-11777228D02*
X2971006Y-11767704D01*
X2971006Y-11767704D02*
X2971006Y-11786751D01*
X3094816Y-11967704D02*
X3075768Y-11958180D01*
X3075768Y-11958180D02*
X3066244Y-11939132D01*
X3066244Y-11939132D02*
X3066244Y-11767704D01*
X3199578Y-11967704D02*
X3180530Y-11958180D01*
X3180530Y-11958180D02*
X3171006Y-11939132D01*
X3171006Y-11939132D02*
X3171006Y-11767704D01*
X3428149Y-11967704D02*
X3428149Y-11767704D01*
X3428149Y-11767704D02*
X3494816Y-11910561D01*
X3494816Y-11910561D02*
X3561482Y-11767704D01*
X3561482Y-11767704D02*
X3561482Y-11967704D01*
X3742435Y-11967704D02*
X3742435Y-11862942D01*
X3742435Y-11862942D02*
X3732911Y-11843894D01*
X3732911Y-11843894D02*
X3713863Y-11834370D01*
X3713863Y-11834370D02*
X3675768Y-11834370D01*
X3675768Y-11834370D02*
X3656721Y-11843894D01*
X3742435Y-11958180D02*
X3723387Y-11967704D01*
X3723387Y-11967704D02*
X3675768Y-11967704D01*
X3675768Y-11967704D02*
X3656721Y-11958180D01*
X3656721Y-11958180D02*
X3647197Y-11939132D01*
X3647197Y-11939132D02*
X3647197Y-11920085D01*
X3647197Y-11920085D02*
X3656721Y-11901037D01*
X3656721Y-11901037D02*
X3675768Y-11891513D01*
X3675768Y-11891513D02*
X3723387Y-11891513D01*
X3723387Y-11891513D02*
X3742435Y-11881989D01*
X3837673Y-11834370D02*
X3837673Y-12034370D01*
X3837673Y-11843894D02*
X3856721Y-11834370D01*
X3856721Y-11834370D02*
X3894816Y-11834370D01*
X3894816Y-11834370D02*
X3913863Y-11843894D01*
X3913863Y-11843894D02*
X3923387Y-11853418D01*
X3923387Y-11853418D02*
X3932911Y-11872466D01*
X3932911Y-11872466D02*
X3932911Y-11929608D01*
X3932911Y-11929608D02*
X3923387Y-11948656D01*
X3923387Y-11948656D02*
X3913863Y-11958180D01*
X3913863Y-11958180D02*
X3894816Y-11967704D01*
X3894816Y-11967704D02*
X3856721Y-11967704D01*
X3856721Y-11967704D02*
X3837673Y-11958180D01*
X4018625Y-11948656D02*
X4028149Y-11958180D01*
X4028149Y-11958180D02*
X4018625Y-11967704D01*
X4018625Y-11967704D02*
X4009102Y-11958180D01*
X4009102Y-11958180D02*
X4018625Y-11948656D01*
X4018625Y-11948656D02*
X4018625Y-11967704D01*
X4018625Y-11843894D02*
X4028149Y-11853418D01*
X4028149Y-11853418D02*
X4018625Y-11862942D01*
X4018625Y-11862942D02*
X4009102Y-11853418D01*
X4009102Y-11853418D02*
X4018625Y-11843894D01*
X4018625Y-11843894D02*
X4018625Y-11862942D01*
D12*
X2321420Y-12263720D02*
X2386420Y-12328720D01*
X2386420Y-12263720D02*
X2321420Y-12328720D01*
D11*
X2685292Y-12187704D02*
X2704340Y-12187704D01*
X2704340Y-12187704D02*
X2723387Y-12197228D01*
X2723387Y-12197228D02*
X2732911Y-12206751D01*
X2732911Y-12206751D02*
X2742435Y-12225799D01*
X2742435Y-12225799D02*
X2751959Y-12263894D01*
X2751959Y-12263894D02*
X2751959Y-12311513D01*
X2751959Y-12311513D02*
X2742435Y-12349608D01*
X2742435Y-12349608D02*
X2732911Y-12368656D01*
X2732911Y-12368656D02*
X2723387Y-12378180D01*
X2723387Y-12378180D02*
X2704340Y-12387704D01*
X2704340Y-12387704D02*
X2685292Y-12387704D01*
X2685292Y-12387704D02*
X2666244Y-12378180D01*
X2666244Y-12378180D02*
X2656721Y-12368656D01*
X2656721Y-12368656D02*
X2647197Y-12349608D01*
X2647197Y-12349608D02*
X2637673Y-12311513D01*
X2637673Y-12311513D02*
X2637673Y-12263894D01*
X2637673Y-12263894D02*
X2647197Y-12225799D01*
X2647197Y-12225799D02*
X2656721Y-12206751D01*
X2656721Y-12206751D02*
X2666244Y-12197228D01*
X2666244Y-12197228D02*
X2685292Y-12187704D01*
X2837673Y-12368656D02*
X2847197Y-12378180D01*
X2847197Y-12378180D02*
X2837673Y-12387704D01*
X2837673Y-12387704D02*
X2828149Y-12378180D01*
X2828149Y-12378180D02*
X2837673Y-12368656D01*
X2837673Y-12368656D02*
X2837673Y-12387704D01*
X3018625Y-12187704D02*
X2980530Y-12187704D01*
X2980530Y-12187704D02*
X2961482Y-12197228D01*
X2961482Y-12197228D02*
X2951959Y-12206751D01*
X2951959Y-12206751D02*
X2932911Y-12235323D01*
X2932911Y-12235323D02*
X2923387Y-12273418D01*
X2923387Y-12273418D02*
X2923387Y-12349608D01*
X2923387Y-12349608D02*
X2932911Y-12368656D01*
X2932911Y-12368656D02*
X2942435Y-12378180D01*
X2942435Y-12378180D02*
X2961482Y-12387704D01*
X2961482Y-12387704D02*
X2999578Y-12387704D01*
X2999578Y-12387704D02*
X3018625Y-12378180D01*
X3018625Y-12378180D02*
X3028149Y-12368656D01*
X3028149Y-12368656D02*
X3037673Y-12349608D01*
X3037673Y-12349608D02*
X3037673Y-12301989D01*
X3037673Y-12301989D02*
X3028149Y-12282942D01*
X3028149Y-12282942D02*
X3018625Y-12273418D01*
X3018625Y-12273418D02*
X2999578Y-12263894D01*
X2999578Y-12263894D02*
X2961482Y-12263894D01*
X2961482Y-12263894D02*
X2942435Y-12273418D01*
X2942435Y-12273418D02*
X2932911Y-12282942D01*
X2932911Y-12282942D02*
X2923387Y-12301989D01*
X3218625Y-12187704D02*
X3123387Y-12187704D01*
X3123387Y-12187704D02*
X3113863Y-12282942D01*
X3113863Y-12282942D02*
X3123387Y-12273418D01*
X3123387Y-12273418D02*
X3142435Y-12263894D01*
X3142435Y-12263894D02*
X3190054Y-12263894D01*
X3190054Y-12263894D02*
X3209102Y-12273418D01*
X3209102Y-12273418D02*
X3218625Y-12282942D01*
X3218625Y-12282942D02*
X3228149Y-12301989D01*
X3228149Y-12301989D02*
X3228149Y-12349608D01*
X3228149Y-12349608D02*
X3218625Y-12368656D01*
X3218625Y-12368656D02*
X3209102Y-12378180D01*
X3209102Y-12378180D02*
X3190054Y-12387704D01*
X3190054Y-12387704D02*
X3142435Y-12387704D01*
X3142435Y-12387704D02*
X3123387Y-12378180D01*
X3123387Y-12378180D02*
X3113863Y-12368656D01*
X3351959Y-12187704D02*
X3371006Y-12187704D01*
X3371006Y-12187704D02*
X3390054Y-12197228D01*
X3390054Y-12197228D02*
X3399578Y-12206751D01*
X3399578Y-12206751D02*
X3409102Y-12225799D01*
X3409102Y-12225799D02*
X3418625Y-12263894D01*
X3418625Y-12263894D02*
X3418625Y-12311513D01*
X3418625Y-12311513D02*
X3409102Y-12349608D01*
X3409102Y-12349608D02*
X3399578Y-12368656D01*
X3399578Y-12368656D02*
X3390054Y-12378180D01*
X3390054Y-12378180D02*
X3371006Y-12387704D01*
X3371006Y-12387704D02*
X3351959Y-12387704D01*
X3351959Y-12387704D02*
X3332911Y-12378180D01*
X3332911Y-12378180D02*
X3323387Y-12368656D01*
X3323387Y-12368656D02*
X3313863Y-12349608D01*
X3313863Y-12349608D02*
X3304340Y-12311513D01*
X3304340Y-12311513D02*
X3304340Y-12263894D01*
X3304340Y-12263894D02*
X3313863Y-12225799D01*
X3313863Y-12225799D02*
X3323387Y-12206751D01*
X3323387Y-12206751D02*
X3332911Y-12197228D01*
X3332911Y-12197228D02*
X3351959Y-12187704D01*
X3504340Y-12387704D02*
X3504340Y-12254370D01*
X3504340Y-12273418D02*
X3513863Y-12263894D01*
X3513863Y-12263894D02*
X3532911Y-12254370D01*
X3532911Y-12254370D02*
X3561483Y-12254370D01*
X3561483Y-12254370D02*
X3580530Y-12263894D01*
X3580530Y-12263894D02*
X3590054Y-12282942D01*
X3590054Y-12282942D02*
X3590054Y-12387704D01*
X3590054Y-12282942D02*
X3599578Y-12263894D01*
X3599578Y-12263894D02*
X3618625Y-12254370D01*
X3618625Y-12254370D02*
X3647197Y-12254370D01*
X3647197Y-12254370D02*
X3666244Y-12263894D01*
X3666244Y-12263894D02*
X3675768Y-12282942D01*
X3675768Y-12282942D02*
X3675768Y-12387704D01*
X3771006Y-12387704D02*
X3771006Y-12254370D01*
X3771006Y-12273418D02*
X3780530Y-12263894D01*
X3780530Y-12263894D02*
X3799578Y-12254370D01*
X3799578Y-12254370D02*
X3828149Y-12254370D01*
X3828149Y-12254370D02*
X3847197Y-12263894D01*
X3847197Y-12263894D02*
X3856721Y-12282942D01*
X3856721Y-12282942D02*
X3856721Y-12387704D01*
X3856721Y-12282942D02*
X3866244Y-12263894D01*
X3866244Y-12263894D02*
X3885292Y-12254370D01*
X3885292Y-12254370D02*
X3913863Y-12254370D01*
X3913863Y-12254370D02*
X3932911Y-12263894D01*
X3932911Y-12263894D02*
X3942435Y-12282942D01*
X3942435Y-12282942D02*
X3942435Y-12387704D01*
X4332911Y-12178180D02*
X4161483Y-12435323D01*
X4590054Y-12187704D02*
X4609102Y-12187704D01*
X4609102Y-12187704D02*
X4628149Y-12197228D01*
X4628149Y-12197228D02*
X4637673Y-12206751D01*
X4637673Y-12206751D02*
X4647197Y-12225799D01*
X4647197Y-12225799D02*
X4656721Y-12263894D01*
X4656721Y-12263894D02*
X4656721Y-12311513D01*
X4656721Y-12311513D02*
X4647197Y-12349608D01*
X4647197Y-12349608D02*
X4637673Y-12368656D01*
X4637673Y-12368656D02*
X4628149Y-12378180D01*
X4628149Y-12378180D02*
X4609102Y-12387704D01*
X4609102Y-12387704D02*
X4590054Y-12387704D01*
X4590054Y-12387704D02*
X4571007Y-12378180D01*
X4571007Y-12378180D02*
X4561483Y-12368656D01*
X4561483Y-12368656D02*
X4551959Y-12349608D01*
X4551959Y-12349608D02*
X4542435Y-12311513D01*
X4542435Y-12311513D02*
X4542435Y-12263894D01*
X4542435Y-12263894D02*
X4551959Y-12225799D01*
X4551959Y-12225799D02*
X4561483Y-12206751D01*
X4561483Y-12206751D02*
X4571007Y-12197228D01*
X4571007Y-12197228D02*
X4590054Y-12187704D01*
X4742435Y-12368656D02*
X4751959Y-12378180D01*
X4751959Y-12378180D02*
X4742435Y-12387704D01*
X4742435Y-12387704D02*
X4732911Y-12378180D01*
X4732911Y-12378180D02*
X4742435Y-12368656D01*
X4742435Y-12368656D02*
X4742435Y-12387704D01*
X4875768Y-12187704D02*
X4894816Y-12187704D01*
X4894816Y-12187704D02*
X4913864Y-12197228D01*
X4913864Y-12197228D02*
X4923388Y-12206751D01*
X4923388Y-12206751D02*
X4932911Y-12225799D01*
X4932911Y-12225799D02*
X4942435Y-12263894D01*
X4942435Y-12263894D02*
X4942435Y-12311513D01*
X4942435Y-12311513D02*
X4932911Y-12349608D01*
X4932911Y-12349608D02*
X4923388Y-12368656D01*
X4923388Y-12368656D02*
X4913864Y-12378180D01*
X4913864Y-12378180D02*
X4894816Y-12387704D01*
X4894816Y-12387704D02*
X4875768Y-12387704D01*
X4875768Y-12387704D02*
X4856721Y-12378180D01*
X4856721Y-12378180D02*
X4847197Y-12368656D01*
X4847197Y-12368656D02*
X4837673Y-12349608D01*
X4837673Y-12349608D02*
X4828149Y-12311513D01*
X4828149Y-12311513D02*
X4828149Y-12263894D01*
X4828149Y-12263894D02*
X4837673Y-12225799D01*
X4837673Y-12225799D02*
X4847197Y-12206751D01*
X4847197Y-12206751D02*
X4856721Y-12197228D01*
X4856721Y-12197228D02*
X4875768Y-12187704D01*
X5018626Y-12206751D02*
X5028149Y-12197228D01*
X5028149Y-12197228D02*
X5047197Y-12187704D01*
X5047197Y-12187704D02*
X5094816Y-12187704D01*
X5094816Y-12187704D02*
X5113864Y-12197228D01*
X5113864Y-12197228D02*
X5123388Y-12206751D01*
X5123388Y-12206751D02*
X5132911Y-12225799D01*
X5132911Y-12225799D02*
X5132911Y-12244847D01*
X5132911Y-12244847D02*
X5123388Y-12273418D01*
X5123388Y-12273418D02*
X5009102Y-12387704D01*
X5009102Y-12387704D02*
X5132911Y-12387704D01*
X5313864Y-12187704D02*
X5218626Y-12187704D01*
X5218626Y-12187704D02*
X5209102Y-12282942D01*
X5209102Y-12282942D02*
X5218626Y-12273418D01*
X5218626Y-12273418D02*
X5237673Y-12263894D01*
X5237673Y-12263894D02*
X5285292Y-12263894D01*
X5285292Y-12263894D02*
X5304340Y-12273418D01*
X5304340Y-12273418D02*
X5313864Y-12282942D01*
X5313864Y-12282942D02*
X5323388Y-12301989D01*
X5323388Y-12301989D02*
X5323388Y-12349608D01*
X5323388Y-12349608D02*
X5313864Y-12368656D01*
X5313864Y-12368656D02*
X5304340Y-12378180D01*
X5304340Y-12378180D02*
X5285292Y-12387704D01*
X5285292Y-12387704D02*
X5237673Y-12387704D01*
X5237673Y-12387704D02*
X5218626Y-12378180D01*
X5218626Y-12378180D02*
X5209102Y-12368656D01*
X5494816Y-12187704D02*
X5456721Y-12187704D01*
X5456721Y-12187704D02*
X5437673Y-12197228D01*
X5437673Y-12197228D02*
X5428149Y-12206751D01*
X5428149Y-12206751D02*
X5409102Y-12235323D01*
X5409102Y-12235323D02*
X5399578Y-12273418D01*
X5399578Y-12273418D02*
X5399578Y-12349608D01*
X5399578Y-12349608D02*
X5409102Y-12368656D01*
X5409102Y-12368656D02*
X5418626Y-12378180D01*
X5418626Y-12378180D02*
X5437673Y-12387704D01*
X5437673Y-12387704D02*
X5475769Y-12387704D01*
X5475769Y-12387704D02*
X5494816Y-12378180D01*
X5494816Y-12378180D02*
X5504340Y-12368656D01*
X5504340Y-12368656D02*
X5513864Y-12349608D01*
X5513864Y-12349608D02*
X5513864Y-12301989D01*
X5513864Y-12301989D02*
X5504340Y-12282942D01*
X5504340Y-12282942D02*
X5494816Y-12273418D01*
X5494816Y-12273418D02*
X5475769Y-12263894D01*
X5475769Y-12263894D02*
X5437673Y-12263894D01*
X5437673Y-12263894D02*
X5418626Y-12273418D01*
X5418626Y-12273418D02*
X5409102Y-12282942D01*
X5409102Y-12282942D02*
X5399578Y-12301989D01*
X5590054Y-12187704D02*
X5590054Y-12225799D01*
X5666245Y-12187704D02*
X5666245Y-12225799D01*
X5961483Y-12463894D02*
X5951959Y-12454370D01*
X5951959Y-12454370D02*
X5932911Y-12425799D01*
X5932911Y-12425799D02*
X5923388Y-12406751D01*
X5923388Y-12406751D02*
X5913864Y-12378180D01*
X5913864Y-12378180D02*
X5904340Y-12330561D01*
X5904340Y-12330561D02*
X5904340Y-12292466D01*
X5904340Y-12292466D02*
X5913864Y-12244847D01*
X5913864Y-12244847D02*
X5923388Y-12216275D01*
X5923388Y-12216275D02*
X5932911Y-12197228D01*
X5932911Y-12197228D02*
X5951959Y-12168656D01*
X5951959Y-12168656D02*
X5961483Y-12159132D01*
X6028149Y-12206751D02*
X6037673Y-12197228D01*
X6037673Y-12197228D02*
X6056721Y-12187704D01*
X6056721Y-12187704D02*
X6104340Y-12187704D01*
X6104340Y-12187704D02*
X6123388Y-12197228D01*
X6123388Y-12197228D02*
X6132911Y-12206751D01*
X6132911Y-12206751D02*
X6142435Y-12225799D01*
X6142435Y-12225799D02*
X6142435Y-12244847D01*
X6142435Y-12244847D02*
X6132911Y-12273418D01*
X6132911Y-12273418D02*
X6018626Y-12387704D01*
X6018626Y-12387704D02*
X6142435Y-12387704D01*
X6380530Y-12387704D02*
X6380530Y-12187704D01*
X6466245Y-12387704D02*
X6466245Y-12282942D01*
X6466245Y-12282942D02*
X6456721Y-12263894D01*
X6456721Y-12263894D02*
X6437673Y-12254370D01*
X6437673Y-12254370D02*
X6409102Y-12254370D01*
X6409102Y-12254370D02*
X6390054Y-12263894D01*
X6390054Y-12263894D02*
X6380530Y-12273418D01*
X6590054Y-12387704D02*
X6571007Y-12378180D01*
X6571007Y-12378180D02*
X6561483Y-12368656D01*
X6561483Y-12368656D02*
X6551959Y-12349608D01*
X6551959Y-12349608D02*
X6551959Y-12292466D01*
X6551959Y-12292466D02*
X6561483Y-12273418D01*
X6561483Y-12273418D02*
X6571007Y-12263894D01*
X6571007Y-12263894D02*
X6590054Y-12254370D01*
X6590054Y-12254370D02*
X6618626Y-12254370D01*
X6618626Y-12254370D02*
X6637673Y-12263894D01*
X6637673Y-12263894D02*
X6647197Y-12273418D01*
X6647197Y-12273418D02*
X6656721Y-12292466D01*
X6656721Y-12292466D02*
X6656721Y-12349608D01*
X6656721Y-12349608D02*
X6647197Y-12368656D01*
X6647197Y-12368656D02*
X6637673Y-12378180D01*
X6637673Y-12378180D02*
X6618626Y-12387704D01*
X6618626Y-12387704D02*
X6590054Y-12387704D01*
X6771007Y-12387704D02*
X6751959Y-12378180D01*
X6751959Y-12378180D02*
X6742435Y-12359132D01*
X6742435Y-12359132D02*
X6742435Y-12187704D01*
X6923388Y-12378180D02*
X6904340Y-12387704D01*
X6904340Y-12387704D02*
X6866245Y-12387704D01*
X6866245Y-12387704D02*
X6847197Y-12378180D01*
X6847197Y-12378180D02*
X6837673Y-12359132D01*
X6837673Y-12359132D02*
X6837673Y-12282942D01*
X6837673Y-12282942D02*
X6847197Y-12263894D01*
X6847197Y-12263894D02*
X6866245Y-12254370D01*
X6866245Y-12254370D02*
X6904340Y-12254370D01*
X6904340Y-12254370D02*
X6923388Y-12263894D01*
X6923388Y-12263894D02*
X6932911Y-12282942D01*
X6932911Y-12282942D02*
X6932911Y-12301989D01*
X6932911Y-12301989D02*
X6837673Y-12321037D01*
X7009102Y-12378180D02*
X7028150Y-12387704D01*
X7028150Y-12387704D02*
X7066245Y-12387704D01*
X7066245Y-12387704D02*
X7085292Y-12378180D01*
X7085292Y-12378180D02*
X7094816Y-12359132D01*
X7094816Y-12359132D02*
X7094816Y-12349608D01*
X7094816Y-12349608D02*
X7085292Y-12330561D01*
X7085292Y-12330561D02*
X7066245Y-12321037D01*
X7066245Y-12321037D02*
X7037673Y-12321037D01*
X7037673Y-12321037D02*
X7018626Y-12311513D01*
X7018626Y-12311513D02*
X7009102Y-12292466D01*
X7009102Y-12292466D02*
X7009102Y-12282942D01*
X7009102Y-12282942D02*
X7018626Y-12263894D01*
X7018626Y-12263894D02*
X7037673Y-12254370D01*
X7037673Y-12254370D02*
X7066245Y-12254370D01*
X7066245Y-12254370D02*
X7085292Y-12263894D01*
X7161483Y-12463894D02*
X7171007Y-12454370D01*
X7171007Y-12454370D02*
X7190054Y-12425799D01*
X7190054Y-12425799D02*
X7199578Y-12406751D01*
X7199578Y-12406751D02*
X7209102Y-12378180D01*
X7209102Y-12378180D02*
X7218626Y-12330561D01*
X7218626Y-12330561D02*
X7218626Y-12292466D01*
X7218626Y-12292466D02*
X7209102Y-12244847D01*
X7209102Y-12244847D02*
X7199578Y-12216275D01*
X7199578Y-12216275D02*
X7190054Y-12197228D01*
X7190054Y-12197228D02*
X7171007Y-12168656D01*
X7171007Y-12168656D02*
X7161483Y-12159132D01*
X7523388Y-12463894D02*
X7513864Y-12454370D01*
X7513864Y-12454370D02*
X7494816Y-12425799D01*
X7494816Y-12425799D02*
X7485292Y-12406751D01*
X7485292Y-12406751D02*
X7475769Y-12378180D01*
X7475769Y-12378180D02*
X7466245Y-12330561D01*
X7466245Y-12330561D02*
X7466245Y-12292466D01*
X7466245Y-12292466D02*
X7475769Y-12244847D01*
X7475769Y-12244847D02*
X7485292Y-12216275D01*
X7485292Y-12216275D02*
X7494816Y-12197228D01*
X7494816Y-12197228D02*
X7513864Y-12168656D01*
X7513864Y-12168656D02*
X7523388Y-12159132D01*
X7599578Y-12254370D02*
X7599578Y-12387704D01*
X7599578Y-12273418D02*
X7609102Y-12263894D01*
X7609102Y-12263894D02*
X7628150Y-12254370D01*
X7628150Y-12254370D02*
X7656721Y-12254370D01*
X7656721Y-12254370D02*
X7675769Y-12263894D01*
X7675769Y-12263894D02*
X7685292Y-12282942D01*
X7685292Y-12282942D02*
X7685292Y-12387704D01*
X7809102Y-12387704D02*
X7790054Y-12378180D01*
X7790054Y-12378180D02*
X7780531Y-12368656D01*
X7780531Y-12368656D02*
X7771007Y-12349608D01*
X7771007Y-12349608D02*
X7771007Y-12292466D01*
X7771007Y-12292466D02*
X7780531Y-12273418D01*
X7780531Y-12273418D02*
X7790054Y-12263894D01*
X7790054Y-12263894D02*
X7809102Y-12254370D01*
X7809102Y-12254370D02*
X7837673Y-12254370D01*
X7837673Y-12254370D02*
X7856721Y-12263894D01*
X7856721Y-12263894D02*
X7866245Y-12273418D01*
X7866245Y-12273418D02*
X7875769Y-12292466D01*
X7875769Y-12292466D02*
X7875769Y-12349608D01*
X7875769Y-12349608D02*
X7866245Y-12368656D01*
X7866245Y-12368656D02*
X7856721Y-12378180D01*
X7856721Y-12378180D02*
X7837673Y-12387704D01*
X7837673Y-12387704D02*
X7809102Y-12387704D01*
X7932912Y-12254370D02*
X8009102Y-12254370D01*
X7961483Y-12187704D02*
X7961483Y-12359132D01*
X7961483Y-12359132D02*
X7971007Y-12378180D01*
X7971007Y-12378180D02*
X7990054Y-12387704D01*
X7990054Y-12387704D02*
X8009102Y-12387704D01*
X8228150Y-12254370D02*
X8228150Y-12454370D01*
X8228150Y-12263894D02*
X8247197Y-12254370D01*
X8247197Y-12254370D02*
X8285293Y-12254370D01*
X8285293Y-12254370D02*
X8304340Y-12263894D01*
X8304340Y-12263894D02*
X8313864Y-12273418D01*
X8313864Y-12273418D02*
X8323388Y-12292466D01*
X8323388Y-12292466D02*
X8323388Y-12349608D01*
X8323388Y-12349608D02*
X8313864Y-12368656D01*
X8313864Y-12368656D02*
X8304340Y-12378180D01*
X8304340Y-12378180D02*
X8285293Y-12387704D01*
X8285293Y-12387704D02*
X8247197Y-12387704D01*
X8247197Y-12387704D02*
X8228150Y-12378180D01*
X8437674Y-12387704D02*
X8418626Y-12378180D01*
X8418626Y-12378180D02*
X8409102Y-12359132D01*
X8409102Y-12359132D02*
X8409102Y-12187704D01*
X8599578Y-12387704D02*
X8599578Y-12282942D01*
X8599578Y-12282942D02*
X8590055Y-12263894D01*
X8590055Y-12263894D02*
X8571007Y-12254370D01*
X8571007Y-12254370D02*
X8532912Y-12254370D01*
X8532912Y-12254370D02*
X8513864Y-12263894D01*
X8599578Y-12378180D02*
X8580531Y-12387704D01*
X8580531Y-12387704D02*
X8532912Y-12387704D01*
X8532912Y-12387704D02*
X8513864Y-12378180D01*
X8513864Y-12378180D02*
X8504340Y-12359132D01*
X8504340Y-12359132D02*
X8504340Y-12340085D01*
X8504340Y-12340085D02*
X8513864Y-12321037D01*
X8513864Y-12321037D02*
X8532912Y-12311513D01*
X8532912Y-12311513D02*
X8580531Y-12311513D01*
X8580531Y-12311513D02*
X8599578Y-12301989D01*
X8666245Y-12254370D02*
X8742435Y-12254370D01*
X8694816Y-12187704D02*
X8694816Y-12359132D01*
X8694816Y-12359132D02*
X8704340Y-12378180D01*
X8704340Y-12378180D02*
X8723388Y-12387704D01*
X8723388Y-12387704D02*
X8742435Y-12387704D01*
X8885293Y-12378180D02*
X8866245Y-12387704D01*
X8866245Y-12387704D02*
X8828150Y-12387704D01*
X8828150Y-12387704D02*
X8809102Y-12378180D01*
X8809102Y-12378180D02*
X8799578Y-12359132D01*
X8799578Y-12359132D02*
X8799578Y-12282942D01*
X8799578Y-12282942D02*
X8809102Y-12263894D01*
X8809102Y-12263894D02*
X8828150Y-12254370D01*
X8828150Y-12254370D02*
X8866245Y-12254370D01*
X8866245Y-12254370D02*
X8885293Y-12263894D01*
X8885293Y-12263894D02*
X8894816Y-12282942D01*
X8894816Y-12282942D02*
X8894816Y-12301989D01*
X8894816Y-12301989D02*
X8799578Y-12321037D01*
X9066245Y-12387704D02*
X9066245Y-12187704D01*
X9066245Y-12378180D02*
X9047197Y-12387704D01*
X9047197Y-12387704D02*
X9009102Y-12387704D01*
X9009102Y-12387704D02*
X8990055Y-12378180D01*
X8990055Y-12378180D02*
X8980531Y-12368656D01*
X8980531Y-12368656D02*
X8971007Y-12349608D01*
X8971007Y-12349608D02*
X8971007Y-12292466D01*
X8971007Y-12292466D02*
X8980531Y-12273418D01*
X8980531Y-12273418D02*
X8990055Y-12263894D01*
X8990055Y-12263894D02*
X9009102Y-12254370D01*
X9009102Y-12254370D02*
X9047197Y-12254370D01*
X9047197Y-12254370D02*
X9066245Y-12263894D01*
X9142436Y-12463894D02*
X9151959Y-12454370D01*
X9151959Y-12454370D02*
X9171007Y-12425799D01*
X9171007Y-12425799D02*
X9180531Y-12406751D01*
X9180531Y-12406751D02*
X9190055Y-12378180D01*
X9190055Y-12378180D02*
X9199578Y-12330561D01*
X9199578Y-12330561D02*
X9199578Y-12292466D01*
X9199578Y-12292466D02*
X9190055Y-12244847D01*
X9190055Y-12244847D02*
X9180531Y-12216275D01*
X9180531Y-12216275D02*
X9171007Y-12197228D01*
X9171007Y-12197228D02*
X9151959Y-12168656D01*
X9151959Y-12168656D02*
X9142436Y-12159132D01*
M02*
