%TF.GenerationSoftware,KiCad,Pcbnew,7.0.5*%
%TF.CreationDate,2024-05-28T07:47:28+02:00*%
%TF.ProjectId,hamodule,68616d6f-6475-46c6-952e-6b696361645f,20240528.23.8*%
%TF.SameCoordinates,Original*%
%TF.FileFunction,Drillmap*%
%TF.FilePolarity,Positive*%
%FSLAX45Y45*%
G04 Gerber Fmt 4.5, Leading zero omitted, Abs format (unit mm)*
G04 Created by KiCad (PCBNEW 7.0.5) date 2024-05-28 07:47:28*
%MOMM*%
%LPD*%
G01*
G04 APERTURE LIST*
%ADD10C,0.050000*%
%ADD11C,0.200000*%
%ADD12C,0.040000*%
%ADD13C,0.060000*%
%ADD14C,0.080000*%
%ADD15C,0.095000*%
%ADD16C,0.100000*%
%ADD17C,0.110000*%
%ADD18C,0.129540*%
%ADD19C,0.320000*%
G04 APERTURE END LIST*
D10*
X15097760Y-3218915D02*
X2642920Y-3220720D01*
X2388920Y-11399520D02*
X2388920Y-3474720D01*
X2388920Y-11399520D02*
G75*
G03*
X2642920Y-11653720I254200J0D01*
G01*
X4061460Y-5270500D02*
X4351020Y-5270500D01*
X3780840Y-6182360D02*
G75*
G03*
X3877360Y-6182360I48260J0D01*
G01*
X3877360Y-5892800D02*
G75*
G03*
X3780840Y-5892800I-48260J0D01*
G01*
X13666320Y-8935720D02*
X13666520Y-11399520D01*
X15351565Y-3472915D02*
G75*
G03*
X15097760Y-3218915I-254005J-5D01*
G01*
X4351020Y-5173980D02*
X4061460Y-5173980D01*
X4351020Y-5270500D02*
G75*
G03*
X4351020Y-5173980I0J48260D01*
G01*
X2642920Y-3220720D02*
G75*
G03*
X2388920Y-3474720I0J-254000D01*
G01*
X15097560Y-8679920D02*
G75*
G03*
X15351560Y-8425915I0J254000D01*
G01*
X3780840Y-5892800D02*
X3780840Y-6182360D01*
X13412520Y-11653520D02*
X2642920Y-11653720D01*
X13920320Y-8681720D02*
X15097560Y-8679915D01*
X13920320Y-8681720D02*
G75*
G03*
X13666320Y-8935720I0J-254000D01*
G01*
X15351560Y-3472915D02*
X15351560Y-8425915D01*
X13412520Y-11653520D02*
G75*
G03*
X13666520Y-11399520I0J254000D01*
G01*
X4061460Y-5173980D02*
G75*
G03*
X4061460Y-5270500I0J-48260D01*
G01*
X3877360Y-6182360D02*
X3877360Y-5892800D01*
D11*
D12*
X2989900Y-10446070D02*
X3029900Y-10486070D01*
X3029900Y-10446070D02*
X2989900Y-10486070D01*
X2989900Y-10649270D02*
X3029900Y-10689270D01*
X3029900Y-10649270D02*
X2989900Y-10689270D01*
X4414840Y-10787700D02*
X4454840Y-10827700D01*
X4454840Y-10787700D02*
X4414840Y-10827700D01*
X4552000Y-10268270D02*
X4592000Y-10308270D01*
X4592000Y-10268270D02*
X4552000Y-10308270D01*
X4552000Y-10649270D02*
X4592000Y-10689270D01*
X4592000Y-10649270D02*
X4552000Y-10689270D01*
X5402900Y-10993490D02*
X5442900Y-11033490D01*
X5442900Y-10993490D02*
X5402900Y-11033490D01*
X5596198Y-10528878D02*
X5636198Y-10568878D01*
X5636198Y-10528878D02*
X5596198Y-10568878D01*
X5608640Y-10993490D02*
X5648640Y-11033490D01*
X5648640Y-10993490D02*
X5608640Y-11033490D01*
X6310820Y-9969820D02*
X6350820Y-10009820D01*
X6350820Y-9969820D02*
X6310820Y-10009820D01*
X6312220Y-10993440D02*
X6352220Y-11033440D01*
X6352220Y-10993440D02*
X6312220Y-11033440D01*
X6313360Y-10251800D02*
X6353360Y-10291800D01*
X6353360Y-10251800D02*
X6313360Y-10291800D01*
X6481000Y-9850440D02*
X6521000Y-9890440D01*
X6521000Y-9850440D02*
X6481000Y-9890440D01*
X6481000Y-10251800D02*
X6521000Y-10291800D01*
X6521000Y-10251800D02*
X6481000Y-10291800D01*
X6637340Y-8839520D02*
X6677340Y-8879520D01*
X6677340Y-8839520D02*
X6637340Y-8879520D01*
X6638480Y-10251760D02*
X6678480Y-10291760D01*
X6678480Y-10251760D02*
X6638480Y-10291760D01*
X6639880Y-10993440D02*
X6679880Y-11033440D01*
X6679880Y-10993440D02*
X6639880Y-11033440D01*
X6641020Y-9715820D02*
X6681020Y-9755820D01*
X6681020Y-9715820D02*
X6641020Y-9755820D01*
X6799900Y-8616000D02*
X6839900Y-8656000D01*
X6839900Y-8616000D02*
X6799900Y-8656000D01*
X6801040Y-10251800D02*
X6841040Y-10291800D01*
X6841040Y-10251800D02*
X6801040Y-10291800D01*
X6801040Y-10993440D02*
X6841040Y-11033440D01*
X6841040Y-10993440D02*
X6801040Y-11033440D01*
X6808660Y-9588820D02*
X6848660Y-9628820D01*
X6848660Y-9588820D02*
X6808660Y-9628820D01*
X6961060Y-9461820D02*
X7001060Y-9501820D01*
X7001060Y-9461820D02*
X6961060Y-9501820D01*
X6962460Y-10251800D02*
X7002460Y-10291800D01*
X7002460Y-10251800D02*
X6962460Y-10291800D01*
X7117400Y-10993490D02*
X7157400Y-11033490D01*
X7157400Y-10993490D02*
X7117400Y-11033490D01*
X7121080Y-10251800D02*
X7161080Y-10291800D01*
X7161080Y-10251800D02*
X7121080Y-10291800D01*
X7123620Y-9334820D02*
X7163620Y-9374820D01*
X7163620Y-9334820D02*
X7123620Y-9374820D01*
X7286180Y-9207820D02*
X7326180Y-9247820D01*
X7326180Y-9207820D02*
X7286180Y-9247820D01*
X7288720Y-10251760D02*
X7328720Y-10291760D01*
X7328720Y-10251760D02*
X7288720Y-10291760D01*
X7427280Y-11100120D02*
X7467280Y-11140120D01*
X7467280Y-11100120D02*
X7427280Y-11140120D01*
X7692290Y-10855550D02*
X7732290Y-10895550D01*
X7732290Y-10855550D02*
X7692290Y-10895550D01*
X7706680Y-10175560D02*
X7746680Y-10215560D01*
X7746680Y-10175560D02*
X7706680Y-10215560D01*
X7725780Y-10604820D02*
X7765780Y-10644820D01*
X7765780Y-10604820D02*
X7725780Y-10644820D01*
X7730860Y-10736900D02*
X7770860Y-10776900D01*
X7770860Y-10736900D02*
X7730860Y-10776900D01*
X7856540Y-9146860D02*
X7896540Y-9186860D01*
X7896540Y-9146860D02*
X7856540Y-9186860D01*
X7866700Y-10350820D02*
X7906700Y-10390820D01*
X7906700Y-10350820D02*
X7866700Y-10390820D01*
X8082600Y-11422700D02*
X8122600Y-11462700D01*
X8122600Y-11422700D02*
X8082600Y-11462700D01*
X8102920Y-10566720D02*
X8142920Y-10606720D01*
X8142920Y-10566720D02*
X8102920Y-10606720D01*
X8660320Y-10729280D02*
X8700320Y-10769280D01*
X8700320Y-10729280D02*
X8660320Y-10769280D01*
X8664260Y-10607360D02*
X8704260Y-10647360D01*
X8704260Y-10607360D02*
X8664260Y-10647360D01*
X8857300Y-10490520D02*
X8897300Y-10530520D01*
X8897300Y-10490520D02*
X8857300Y-10530520D01*
X9032560Y-10838500D02*
X9072560Y-10878500D01*
X9072560Y-10838500D02*
X9032560Y-10878500D01*
X9125320Y-11448100D02*
X9165320Y-11488100D01*
X9165320Y-11448100D02*
X9125320Y-11488100D01*
X9132940Y-10304260D02*
X9172940Y-10344260D01*
X9172940Y-10304260D02*
X9132940Y-10344260D01*
X9366620Y-11448100D02*
X9406620Y-11488100D01*
X9406620Y-11448100D02*
X9366620Y-11488100D01*
X9381860Y-10304260D02*
X9421860Y-10344260D01*
X9421860Y-10304260D02*
X9381860Y-10344260D01*
X9779320Y-10620060D02*
X9819320Y-10660060D01*
X9819320Y-10620060D02*
X9779320Y-10660060D01*
X9849217Y-10679703D02*
X9889217Y-10719703D01*
X9889217Y-10679703D02*
X9849217Y-10719703D01*
X9880540Y-10116970D02*
X9920540Y-10156970D01*
X9920540Y-10116970D02*
X9880540Y-10156970D01*
X9945740Y-10211120D02*
X9985740Y-10251120D01*
X9985740Y-10211120D02*
X9945740Y-10251120D01*
X10028240Y-8400100D02*
X10068240Y-8440100D01*
X10068240Y-8400100D02*
X10028240Y-8440100D01*
X10028240Y-8552500D02*
X10068240Y-8592500D01*
X10068240Y-8552500D02*
X10028240Y-8592500D01*
X10180640Y-8557580D02*
X10220640Y-8597580D01*
X10220640Y-8557580D02*
X10180640Y-8597580D01*
X10185720Y-8405180D02*
X10225720Y-8445180D01*
X10225720Y-8405180D02*
X10185720Y-8445180D01*
X10230140Y-10640610D02*
X10270140Y-10680610D01*
X10270140Y-10640610D02*
X10230140Y-10680610D01*
X10554020Y-10654170D02*
X10594020Y-10694170D01*
X10594020Y-10654170D02*
X10554020Y-10694170D01*
X10580540Y-10116970D02*
X10620540Y-10156970D01*
X10620540Y-10116970D02*
X10580540Y-10156970D01*
X10589580Y-10289860D02*
X10629580Y-10329860D01*
X10629580Y-10289860D02*
X10589580Y-10329860D01*
X10653080Y-10654170D02*
X10693080Y-10694170D01*
X10693080Y-10654170D02*
X10653080Y-10694170D01*
X10757220Y-10655620D02*
X10797220Y-10695620D01*
X10797220Y-10655620D02*
X10757220Y-10695620D01*
X11024451Y-10373680D02*
X11064451Y-10413680D01*
X11064451Y-10373680D02*
X11024451Y-10413680D01*
X11052541Y-10599740D02*
X11092541Y-10639740D01*
X11092541Y-10599740D02*
X11052541Y-10639740D01*
X11138220Y-8552500D02*
X11178220Y-8592500D01*
X11178220Y-8552500D02*
X11138220Y-8592500D01*
X11140760Y-8402640D02*
X11180760Y-8442640D01*
X11180760Y-8402640D02*
X11140760Y-8442640D01*
X11168700Y-10599740D02*
X11208700Y-10639740D01*
X11208700Y-10599740D02*
X11168700Y-10639740D01*
X11168700Y-11327733D02*
X11208700Y-11367733D01*
X11208700Y-11327733D02*
X11168700Y-11367733D01*
X11303320Y-8400100D02*
X11343320Y-8440100D01*
X11343320Y-8400100D02*
X11303320Y-8440100D01*
X11303320Y-8552500D02*
X11343320Y-8592500D01*
X11343320Y-8552500D02*
X11303320Y-8592500D01*
X11552936Y-9849220D02*
X11592936Y-9889220D01*
X11592936Y-9849220D02*
X11552936Y-9889220D01*
X11552936Y-9954220D02*
X11592936Y-9994220D01*
X11592936Y-9954220D02*
X11552936Y-9994220D01*
X11880540Y-10876970D02*
X11920540Y-10916970D01*
X11920540Y-10876970D02*
X11880540Y-10916970D01*
X11966247Y-10797020D02*
X12006247Y-10837020D01*
X12006247Y-10797020D02*
X11966247Y-10837020D01*
X11971417Y-9979093D02*
X12011417Y-10019093D01*
X12011417Y-9979093D02*
X11971417Y-10019093D01*
X12045663Y-9904847D02*
X12085663Y-9944847D01*
X12085663Y-9904847D02*
X12045663Y-9944847D01*
X12118660Y-11346500D02*
X12158660Y-11386500D01*
X12158660Y-11346500D02*
X12118660Y-11386500D01*
X12118660Y-11514140D02*
X12158660Y-11554140D01*
X12158660Y-11514140D02*
X12118660Y-11554140D01*
X12304080Y-9731060D02*
X12344080Y-9771060D01*
X12344080Y-9731060D02*
X12304080Y-9771060D01*
X12320640Y-8557580D02*
X12360640Y-8597580D01*
X12360640Y-8557580D02*
X12320640Y-8597580D01*
X12323180Y-8405180D02*
X12363180Y-8445180D01*
X12363180Y-8405180D02*
X12323180Y-8445180D01*
X12392980Y-9642160D02*
X12432980Y-9682160D01*
X12432980Y-9642160D02*
X12392980Y-9682160D01*
X12422240Y-8405180D02*
X12462240Y-8445180D01*
X12462240Y-8405180D02*
X12422240Y-8445180D01*
X12422240Y-8555040D02*
X12462240Y-8595040D01*
X12462240Y-8555040D02*
X12422240Y-8595040D01*
X12481880Y-9553260D02*
X12521880Y-9593260D01*
X12521880Y-9553260D02*
X12481880Y-9593260D01*
X12657140Y-9880970D02*
X12697140Y-9920970D01*
X12697140Y-9880970D02*
X12657140Y-9920970D01*
X12809540Y-9746300D02*
X12849540Y-9786300D01*
X12849540Y-9746300D02*
X12809540Y-9786300D01*
X12810540Y-10306970D02*
X12850540Y-10346970D01*
X12850540Y-10306970D02*
X12810540Y-10346970D01*
X12893360Y-9108760D02*
X12933360Y-9148760D01*
X12933360Y-9108760D02*
X12893360Y-9148760D01*
X12950540Y-10306970D02*
X12990540Y-10346970D01*
X12990540Y-10306970D02*
X12950540Y-10346970D01*
X12956860Y-9624380D02*
X12996860Y-9664380D01*
X12996860Y-9624380D02*
X12956860Y-9664380D01*
X12956860Y-9746300D02*
X12996860Y-9786300D01*
X12996860Y-9746300D02*
X12956860Y-9786300D01*
X13100540Y-10306970D02*
X13140540Y-10346970D01*
X13140540Y-10306970D02*
X13100540Y-10346970D01*
X13106720Y-9624380D02*
X13146720Y-9664380D01*
X13146720Y-9624380D02*
X13106720Y-9664380D01*
X13110540Y-9746970D02*
X13150540Y-9786970D01*
X13150540Y-9746970D02*
X13110540Y-9786970D01*
X13211603Y-8834259D02*
X13251603Y-8874259D01*
X13251603Y-8834259D02*
X13211603Y-8874259D01*
X13215940Y-8749420D02*
X13255940Y-8789420D01*
X13255940Y-8749420D02*
X13215940Y-8789420D01*
X13366540Y-9033970D02*
X13406540Y-9073970D01*
X13406540Y-9033970D02*
X13366540Y-9073970D01*
X13478880Y-8405180D02*
X13518880Y-8445180D01*
X13518880Y-8405180D02*
X13478880Y-8445180D01*
X13478880Y-8557580D02*
X13518880Y-8597580D01*
X13518880Y-8557580D02*
X13478880Y-8597580D01*
X13491540Y-10884220D02*
X13531540Y-10924220D01*
X13531540Y-10884220D02*
X13491540Y-10924220D01*
X13492800Y-9436420D02*
X13532800Y-9476420D01*
X13532800Y-9436420D02*
X13492800Y-9476420D01*
X13585560Y-8557580D02*
X13625560Y-8597580D01*
X13625560Y-8557580D02*
X13585560Y-8597580D01*
X13588100Y-8405180D02*
X13628100Y-8445180D01*
X13628100Y-8405180D02*
X13588100Y-8445180D01*
D10*
X13005720Y-8453120D02*
G75*
G03*
X13005720Y-8453120I-25000J0D01*
G01*
D13*
X9816140Y-10894560D02*
X9816140Y-10954560D01*
X9786140Y-10924560D02*
X9846140Y-10924560D01*
D11*
X9786140Y-10869560D02*
X9786140Y-10979560D01*
X9786140Y-10979560D02*
G75*
G03*
X9846140Y-10979560I30000J0D01*
G01*
X9846140Y-10979560D02*
X9846140Y-10869560D01*
X9846140Y-10869560D02*
G75*
G03*
X9786140Y-10869560I-30000J0D01*
G01*
D13*
X9816140Y-11312560D02*
X9816140Y-11372560D01*
X9786140Y-11342560D02*
X9846140Y-11342560D01*
D11*
X9786140Y-11312560D02*
X9786140Y-11372560D01*
X9786140Y-11372560D02*
G75*
G03*
X9846140Y-11372560I30000J0D01*
G01*
X9846140Y-11372560D02*
X9846140Y-11312560D01*
X9846140Y-11312560D02*
G75*
G03*
X9786140Y-11312560I-30000J0D01*
G01*
D13*
X10680140Y-10894560D02*
X10680140Y-10954560D01*
X10650140Y-10924560D02*
X10710140Y-10924560D01*
D11*
X10650140Y-10869560D02*
X10650140Y-10979560D01*
X10650140Y-10979560D02*
G75*
G03*
X10710140Y-10979560I30000J0D01*
G01*
X10710140Y-10979560D02*
X10710140Y-10869560D01*
X10710140Y-10869560D02*
G75*
G03*
X10650140Y-10869560I-30000J0D01*
G01*
D13*
X10680140Y-11312560D02*
X10680140Y-11372560D01*
X10650140Y-11342560D02*
X10710140Y-11342560D01*
D11*
X10650140Y-11312560D02*
X10650140Y-11372560D01*
X10650140Y-11372560D02*
G75*
G03*
X10710140Y-11372560I30000J0D01*
G01*
X10710140Y-11372560D02*
X10710140Y-11312560D01*
X10710140Y-11312560D02*
G75*
G03*
X10650140Y-11312560I-30000J0D01*
G01*
D14*
X3480354Y-5986819D02*
X3480354Y-5930250D01*
X3423785Y-5930250D01*
X3423785Y-5986819D01*
X3480354Y-5986819D01*
X3692284Y-10443555D02*
X3692284Y-10386986D01*
X3635715Y-10386986D01*
X3635715Y-10443555D01*
X3692284Y-10443555D01*
X3942284Y-10443555D02*
X3942284Y-10386986D01*
X3885715Y-10386986D01*
X3885715Y-10443555D01*
X3942284Y-10443555D01*
X4230355Y-6150152D02*
X4230355Y-6093583D01*
X4173785Y-6093583D01*
X4173785Y-6150152D01*
X4230355Y-6150152D01*
X5364825Y-9954605D02*
X5364825Y-9898036D01*
X5308256Y-9898036D01*
X5308256Y-9954605D01*
X5364825Y-9954605D01*
X5381815Y-4873575D02*
X5381815Y-4817006D01*
X5325246Y-4817006D01*
X5325246Y-4873575D01*
X5381815Y-4873575D01*
X5381815Y-5381575D02*
X5381815Y-5325006D01*
X5325246Y-5325006D01*
X5325246Y-5381575D01*
X5381815Y-5381575D01*
X5614824Y-9954605D02*
X5614824Y-9898036D01*
X5558256Y-9898036D01*
X5558256Y-9954605D01*
X5614824Y-9954605D01*
X5877114Y-4873575D02*
X5877114Y-4817006D01*
X5820545Y-4817006D01*
X5820545Y-4873575D01*
X5877114Y-4873575D01*
X5877114Y-5381575D02*
X5877114Y-5325006D01*
X5820545Y-5325006D01*
X5820545Y-5381575D01*
X5877114Y-5381575D01*
X6369114Y-4873575D02*
X6369114Y-4817006D01*
X6312545Y-4817006D01*
X6312545Y-4873575D01*
X6369114Y-4873575D01*
X6369114Y-5381575D02*
X6369114Y-5325006D01*
X6312545Y-5325006D01*
X6312545Y-5381575D01*
X6369114Y-5381575D01*
X6869114Y-4873575D02*
X6869114Y-4817006D01*
X6812545Y-4817006D01*
X6812545Y-4873575D01*
X6869114Y-4873575D01*
X6869114Y-5381575D02*
X6869114Y-5325006D01*
X6812545Y-5325006D01*
X6812545Y-5381575D01*
X6869114Y-5381575D01*
X7723264Y-4882225D02*
X7723264Y-4825656D01*
X7666695Y-4825656D01*
X7666695Y-4882225D01*
X7723264Y-4882225D01*
X7723264Y-5390225D02*
X7723264Y-5333656D01*
X7666695Y-5333656D01*
X7666695Y-5390225D01*
X7723264Y-5390225D01*
X8218564Y-4882225D02*
X8218564Y-4825656D01*
X8161995Y-4825656D01*
X8161995Y-4882225D01*
X8218564Y-4882225D01*
X8218564Y-5390225D02*
X8218564Y-5333656D01*
X8161995Y-5333656D01*
X8161995Y-5390225D01*
X8218564Y-5390225D01*
X8726565Y-4882225D02*
X8726565Y-4825656D01*
X8669996Y-4825656D01*
X8669996Y-4882225D01*
X8726565Y-4882225D01*
X8726565Y-5390225D02*
X8726565Y-5333656D01*
X8669996Y-5333656D01*
X8669996Y-5390225D01*
X8726565Y-5390225D01*
X9221865Y-4882225D02*
X9221865Y-4825656D01*
X9165296Y-4825656D01*
X9165296Y-4882225D01*
X9221865Y-4882225D01*
X9221865Y-5390225D02*
X9221865Y-5333656D01*
X9165296Y-5333656D01*
X9165296Y-5390225D01*
X9221865Y-5390225D01*
X9774415Y-7452244D02*
X9774415Y-7395675D01*
X9717846Y-7395675D01*
X9717846Y-7452244D01*
X9774415Y-7452244D01*
X9774415Y-8214244D02*
X9774415Y-8157675D01*
X9717846Y-8157675D01*
X9717846Y-8214244D01*
X9774415Y-8214244D01*
X10028415Y-7452244D02*
X10028415Y-7395675D01*
X9971846Y-7395675D01*
X9971846Y-7452244D01*
X10028415Y-7452244D01*
X10028415Y-8214244D02*
X10028415Y-8157675D01*
X9971846Y-8157675D01*
X9971846Y-8214244D01*
X10028415Y-8214244D01*
X10040845Y-4871875D02*
X10040845Y-4815306D01*
X9984276Y-4815306D01*
X9984276Y-4871875D01*
X10040845Y-4871875D01*
X10040845Y-5379875D02*
X10040845Y-5323306D01*
X9984276Y-5323306D01*
X9984276Y-5379875D01*
X10040845Y-5379875D01*
X10282415Y-7452244D02*
X10282415Y-7395675D01*
X10225846Y-7395675D01*
X10225846Y-7452244D01*
X10282415Y-7452244D01*
X10282415Y-8214244D02*
X10282415Y-8157675D01*
X10225846Y-8157675D01*
X10225846Y-8214244D01*
X10282415Y-8214244D01*
X10536415Y-7452244D02*
X10536415Y-7395675D01*
X10479846Y-7395675D01*
X10479846Y-7452244D01*
X10536415Y-7452244D01*
X10536415Y-8214244D02*
X10536415Y-8157675D01*
X10479846Y-8157675D01*
X10479846Y-8214244D01*
X10536415Y-8214244D01*
X10538685Y-4871875D02*
X10538685Y-4815306D01*
X10482116Y-4815306D01*
X10482116Y-4871875D01*
X10538685Y-4871875D01*
X10538685Y-5379875D02*
X10538685Y-5323306D01*
X10482116Y-5323306D01*
X10482116Y-5379875D01*
X10538685Y-5379875D01*
X10892015Y-7452244D02*
X10892015Y-7395675D01*
X10835446Y-7395675D01*
X10835446Y-7452244D01*
X10892015Y-7452244D01*
X10892015Y-8214244D02*
X10892015Y-8157675D01*
X10835446Y-8157675D01*
X10835446Y-8214244D01*
X10892015Y-8214244D01*
X11041605Y-4871875D02*
X11041605Y-4815306D01*
X10985036Y-4815306D01*
X10985036Y-4871875D01*
X11041605Y-4871875D01*
X11041605Y-5379875D02*
X11041605Y-5323306D01*
X10985036Y-5323306D01*
X10985036Y-5379875D01*
X11041605Y-5379875D01*
X11146015Y-7452244D02*
X11146015Y-7395675D01*
X11089446Y-7395675D01*
X11089446Y-7452244D01*
X11146015Y-7452244D01*
X11146015Y-8214244D02*
X11146015Y-8157675D01*
X11089446Y-8157675D01*
X11089446Y-8214244D01*
X11146015Y-8214244D01*
X11400014Y-7452244D02*
X11400014Y-7395675D01*
X11343445Y-7395675D01*
X11343445Y-7452244D01*
X11400014Y-7452244D01*
X11400014Y-8214244D02*
X11400014Y-8157675D01*
X11343445Y-8157675D01*
X11343445Y-8214244D01*
X11400014Y-8214244D01*
X11544524Y-4871875D02*
X11544524Y-4815306D01*
X11487955Y-4815306D01*
X11487955Y-4871875D01*
X11544524Y-4871875D01*
X11544524Y-5379875D02*
X11544524Y-5323306D01*
X11487955Y-5323306D01*
X11487955Y-5379875D01*
X11544524Y-5379875D01*
X11654014Y-7452244D02*
X11654014Y-7395675D01*
X11597445Y-7395675D01*
X11597445Y-7452244D01*
X11654014Y-7452244D01*
X11654014Y-8214244D02*
X11654014Y-8157675D01*
X11597445Y-8157675D01*
X11597445Y-8214244D01*
X11654014Y-8214244D01*
X12036802Y-7451896D02*
X12036802Y-7395327D01*
X11980233Y-7395327D01*
X11980233Y-7451896D01*
X12036802Y-7451896D01*
X12036802Y-8213896D02*
X12036802Y-8157327D01*
X11980233Y-8157327D01*
X11980233Y-8213896D01*
X12036802Y-8213896D01*
X12290802Y-7451896D02*
X12290802Y-7395327D01*
X12234233Y-7395327D01*
X12234233Y-7451896D01*
X12290802Y-7451896D01*
X12290802Y-8213896D02*
X12290802Y-8157327D01*
X12234233Y-8157327D01*
X12234233Y-8213896D01*
X12290802Y-8213896D01*
X12378064Y-4869125D02*
X12378064Y-4812556D01*
X12321495Y-4812556D01*
X12321495Y-4869125D01*
X12378064Y-4869125D01*
X12378064Y-5377125D02*
X12378064Y-5320556D01*
X12321495Y-5320556D01*
X12321495Y-5377125D01*
X12378064Y-5377125D01*
X12544802Y-7451896D02*
X12544802Y-7395327D01*
X12488233Y-7395327D01*
X12488233Y-7451896D01*
X12544802Y-7451896D01*
X12544802Y-8213896D02*
X12544802Y-8157327D01*
X12488233Y-8157327D01*
X12488233Y-8213896D01*
X12544802Y-8213896D01*
X12798802Y-7451896D02*
X12798802Y-7395327D01*
X12742233Y-7395327D01*
X12742233Y-7451896D01*
X12798802Y-7451896D01*
X12798802Y-8213896D02*
X12798802Y-8157327D01*
X12742233Y-8157327D01*
X12742233Y-8213896D01*
X12798802Y-8213896D01*
X12878064Y-4872065D02*
X12878064Y-4815496D01*
X12821495Y-4815496D01*
X12821495Y-4872065D01*
X12878064Y-4872065D01*
X12878064Y-5380065D02*
X12878064Y-5323496D01*
X12821495Y-5323496D01*
X12821495Y-5380065D01*
X12878064Y-5380065D01*
X13205202Y-7451896D02*
X13205202Y-7395327D01*
X13148633Y-7395327D01*
X13148633Y-7451896D01*
X13205202Y-7451896D01*
X13205202Y-8213896D02*
X13205202Y-8157327D01*
X13148633Y-8157327D01*
X13148633Y-8213896D01*
X13205202Y-8213896D01*
X13378524Y-4872065D02*
X13378524Y-4815496D01*
X13321955Y-4815496D01*
X13321955Y-4872065D01*
X13378524Y-4872065D01*
X13378524Y-5380065D02*
X13378524Y-5323496D01*
X13321955Y-5323496D01*
X13321955Y-5380065D01*
X13378524Y-5380065D01*
X13459202Y-7451896D02*
X13459202Y-7395327D01*
X13402633Y-7395327D01*
X13402633Y-7451896D01*
X13459202Y-7451896D01*
X13459202Y-8213896D02*
X13459202Y-8157327D01*
X13402633Y-8157327D01*
X13402633Y-8213896D01*
X13459202Y-8213896D01*
X13713202Y-7451896D02*
X13713202Y-7395327D01*
X13656633Y-7395327D01*
X13656633Y-7451896D01*
X13713202Y-7451896D01*
X13713202Y-8213896D02*
X13713202Y-8157327D01*
X13656633Y-8157327D01*
X13656633Y-8213896D01*
X13713202Y-8213896D01*
X13876364Y-4872065D02*
X13876364Y-4815496D01*
X13819795Y-4815496D01*
X13819795Y-4872065D01*
X13876364Y-4872065D01*
X13876364Y-5380065D02*
X13876364Y-5323496D01*
X13819795Y-5323496D01*
X13819795Y-5380065D01*
X13876364Y-5380065D01*
X13967202Y-7451896D02*
X13967202Y-7395327D01*
X13910633Y-7395327D01*
X13910633Y-7451896D01*
X13967202Y-7451896D01*
X13967202Y-8213896D02*
X13967202Y-8157327D01*
X13910633Y-8157327D01*
X13910633Y-8213896D01*
X13967202Y-8213896D01*
D15*
X7363840Y-8570040D02*
X7411340Y-8522540D01*
X7363840Y-8475040D01*
X7316340Y-8522540D01*
X7363840Y-8570040D01*
X7613840Y-8570040D02*
X7661340Y-8522540D01*
X7613840Y-8475040D01*
X7566340Y-8522540D01*
X7613840Y-8570040D01*
X7863840Y-8570040D02*
X7911340Y-8522540D01*
X7863840Y-8475040D01*
X7816340Y-8522540D01*
X7863840Y-8570040D01*
X8113840Y-8570040D02*
X8161340Y-8522540D01*
X8113840Y-8475040D01*
X8066340Y-8522540D01*
X8113840Y-8570040D01*
X8363840Y-8570040D02*
X8411340Y-8522540D01*
X8363840Y-8475040D01*
X8316340Y-8522540D01*
X8363840Y-8570040D01*
D16*
X3244380Y-11023320D02*
X3344380Y-11123320D01*
X3344380Y-11023320D02*
X3244380Y-11123320D01*
X3344380Y-11073320D02*
G75*
G03*
X3344380Y-11073320I-50000J0D01*
G01*
X3244380Y-11273320D02*
X3344380Y-11373320D01*
X3344380Y-11273320D02*
X3244380Y-11373320D01*
X3344380Y-11323320D02*
G75*
G03*
X3344380Y-11323320I-50000J0D01*
G01*
X4036860Y-11023320D02*
X4136860Y-11123320D01*
X4136860Y-11023320D02*
X4036860Y-11123320D01*
X4136860Y-11073320D02*
G75*
G03*
X4136860Y-11073320I-50000J0D01*
G01*
X4036860Y-11273320D02*
X4136860Y-11373320D01*
X4136860Y-11273320D02*
X4036860Y-11373320D01*
X4136860Y-11323320D02*
G75*
G03*
X4136860Y-11323320I-50000J0D01*
G01*
X4155640Y-5424240D02*
X4255640Y-5524240D01*
X4255640Y-5424240D02*
X4155640Y-5524240D01*
X4255640Y-5474240D02*
G75*
G03*
X4255640Y-5474240I-50000J0D01*
G01*
X4156640Y-4916240D02*
X4256640Y-5016240D01*
X4256640Y-4916240D02*
X4156640Y-5016240D01*
X4256640Y-4966240D02*
G75*
G03*
X4256640Y-4966240I-50000J0D01*
G01*
X4725250Y-9928390D02*
X4825250Y-10028390D01*
X4825250Y-9928390D02*
X4725250Y-10028390D01*
X4825250Y-9978390D02*
G75*
G03*
X4825250Y-9978390I-50000J0D01*
G01*
X4725250Y-10182390D02*
X4825250Y-10282390D01*
X4825250Y-10182390D02*
X4725250Y-10282390D01*
X4825250Y-10232390D02*
G75*
G03*
X4825250Y-10232390I-50000J0D01*
G01*
X4725250Y-10436390D02*
X4825250Y-10536390D01*
X4825250Y-10436390D02*
X4725250Y-10536390D01*
X4825250Y-10486390D02*
G75*
G03*
X4825250Y-10486390I-50000J0D01*
G01*
X4725250Y-10823740D02*
X4825250Y-10923740D01*
X4825250Y-10823740D02*
X4725250Y-10923740D01*
X4825250Y-10873740D02*
G75*
G03*
X4825250Y-10873740I-50000J0D01*
G01*
X4725250Y-11077740D02*
X4825250Y-11177740D01*
X4825250Y-11077740D02*
X4725250Y-11177740D01*
X4825250Y-11127740D02*
G75*
G03*
X4825250Y-11127740I-50000J0D01*
G01*
X5519430Y-5722390D02*
X5619430Y-5822390D01*
X5619430Y-5722390D02*
X5519430Y-5822390D01*
X5619430Y-5772390D02*
G75*
G03*
X5619430Y-5772390I-50000J0D01*
G01*
X5519430Y-6484390D02*
X5619430Y-6584390D01*
X5619430Y-6484390D02*
X5519430Y-6584390D01*
X5619430Y-6534390D02*
G75*
G03*
X5619430Y-6534390I-50000J0D01*
G01*
X5519430Y-7500390D02*
X5619430Y-7600390D01*
X5619430Y-7500390D02*
X5519430Y-7600390D01*
X5619430Y-7550390D02*
G75*
G03*
X5619430Y-7550390I-50000J0D01*
G01*
X5519430Y-7754390D02*
X5619430Y-7854390D01*
X5619430Y-7754390D02*
X5519430Y-7854390D01*
X5619430Y-7804390D02*
G75*
G03*
X5619430Y-7804390I-50000J0D01*
G01*
X6002030Y-5722390D02*
X6102030Y-5822390D01*
X6102030Y-5722390D02*
X6002030Y-5822390D01*
X6102030Y-5772390D02*
G75*
G03*
X6102030Y-5772390I-50000J0D01*
G01*
X6002030Y-6484390D02*
X6102030Y-6584390D01*
X6102030Y-6484390D02*
X6002030Y-6584390D01*
X6102030Y-6534390D02*
G75*
G03*
X6102030Y-6534390I-50000J0D01*
G01*
X6002030Y-7500390D02*
X6102030Y-7600390D01*
X6102030Y-7500390D02*
X6002030Y-7600390D01*
X6102030Y-7550390D02*
G75*
G03*
X6102030Y-7550390I-50000J0D01*
G01*
X6002030Y-7754390D02*
X6102030Y-7854390D01*
X6102030Y-7754390D02*
X6002030Y-7854390D01*
X6102030Y-7804390D02*
G75*
G03*
X6102030Y-7804390I-50000J0D01*
G01*
X6484630Y-5722390D02*
X6584630Y-5822390D01*
X6584630Y-5722390D02*
X6484630Y-5822390D01*
X6584630Y-5772390D02*
G75*
G03*
X6584630Y-5772390I-50000J0D01*
G01*
X6484630Y-6484390D02*
X6584630Y-6584390D01*
X6584630Y-6484390D02*
X6484630Y-6584390D01*
X6584630Y-6534390D02*
G75*
G03*
X6584630Y-6534390I-50000J0D01*
G01*
X6484630Y-7500390D02*
X6584630Y-7600390D01*
X6584630Y-7500390D02*
X6484630Y-7600390D01*
X6584630Y-7550390D02*
G75*
G03*
X6584630Y-7550390I-50000J0D01*
G01*
X6484630Y-7754390D02*
X6584630Y-7854390D01*
X6584630Y-7754390D02*
X6484630Y-7854390D01*
X6584630Y-7804390D02*
G75*
G03*
X6584630Y-7804390I-50000J0D01*
G01*
X6741280Y-11328220D02*
X6841280Y-11428220D01*
X6841280Y-11328220D02*
X6741280Y-11428220D01*
X6841280Y-11378220D02*
G75*
G03*
X6841280Y-11378220I-50000J0D01*
G01*
X6979930Y-5722390D02*
X7079930Y-5822390D01*
X7079930Y-5722390D02*
X6979930Y-5822390D01*
X7079930Y-5772390D02*
G75*
G03*
X7079930Y-5772390I-50000J0D01*
G01*
X6979930Y-6484390D02*
X7079930Y-6584390D01*
X7079930Y-6484390D02*
X6979930Y-6584390D01*
X7079930Y-6534390D02*
G75*
G03*
X7079930Y-6534390I-50000J0D01*
G01*
X6979930Y-7500390D02*
X7079930Y-7600390D01*
X7079930Y-7500390D02*
X6979930Y-7600390D01*
X7079930Y-7550390D02*
G75*
G03*
X7079930Y-7550390I-50000J0D01*
G01*
X6979930Y-7754390D02*
X7079930Y-7854390D01*
X7079930Y-7754390D02*
X6979930Y-7854390D01*
X7079930Y-7804390D02*
G75*
G03*
X7079930Y-7804390I-50000J0D01*
G01*
X6995280Y-11328220D02*
X7095280Y-11428220D01*
X7095280Y-11328220D02*
X6995280Y-11428220D01*
X7095280Y-11378220D02*
G75*
G03*
X7095280Y-11378220I-50000J0D01*
G01*
X7249280Y-11328220D02*
X7349280Y-11428220D01*
X7349280Y-11328220D02*
X7249280Y-11428220D01*
X7349280Y-11378220D02*
G75*
G03*
X7349280Y-11378220I-50000J0D01*
G01*
X7727480Y-5722390D02*
X7827480Y-5822390D01*
X7827480Y-5722390D02*
X7727480Y-5822390D01*
X7827480Y-5772390D02*
G75*
G03*
X7827480Y-5772390I-50000J0D01*
G01*
X7727480Y-6484390D02*
X7827480Y-6584390D01*
X7827480Y-6484390D02*
X7727480Y-6584390D01*
X7827480Y-6534390D02*
G75*
G03*
X7827480Y-6534390I-50000J0D01*
G01*
X7727480Y-7500390D02*
X7827480Y-7600390D01*
X7827480Y-7500390D02*
X7727480Y-7600390D01*
X7827480Y-7550390D02*
G75*
G03*
X7827480Y-7550390I-50000J0D01*
G01*
X7727480Y-7754390D02*
X7827480Y-7854390D01*
X7827480Y-7754390D02*
X7727480Y-7854390D01*
X7827480Y-7804390D02*
G75*
G03*
X7827480Y-7804390I-50000J0D01*
G01*
X8235480Y-5722390D02*
X8335480Y-5822390D01*
X8335480Y-5722390D02*
X8235480Y-5822390D01*
X8335480Y-5772390D02*
G75*
G03*
X8335480Y-5772390I-50000J0D01*
G01*
X8235480Y-6484390D02*
X8335480Y-6584390D01*
X8335480Y-6484390D02*
X8235480Y-6584390D01*
X8335480Y-6534390D02*
G75*
G03*
X8335480Y-6534390I-50000J0D01*
G01*
X8235480Y-7500390D02*
X8335480Y-7600390D01*
X8335480Y-7500390D02*
X8235480Y-7600390D01*
X8335480Y-7550390D02*
G75*
G03*
X8335480Y-7550390I-50000J0D01*
G01*
X8235480Y-7754390D02*
X8335480Y-7854390D01*
X8335480Y-7754390D02*
X8235480Y-7854390D01*
X8335480Y-7804390D02*
G75*
G03*
X8335480Y-7804390I-50000J0D01*
G01*
X8743480Y-5722390D02*
X8843480Y-5822390D01*
X8843480Y-5722390D02*
X8743480Y-5822390D01*
X8843480Y-5772390D02*
G75*
G03*
X8843480Y-5772390I-50000J0D01*
G01*
X8743480Y-6484390D02*
X8843480Y-6584390D01*
X8843480Y-6484390D02*
X8743480Y-6584390D01*
X8843480Y-6534390D02*
G75*
G03*
X8843480Y-6534390I-50000J0D01*
G01*
X8743480Y-7500390D02*
X8843480Y-7600390D01*
X8843480Y-7500390D02*
X8743480Y-7600390D01*
X8843480Y-7550390D02*
G75*
G03*
X8843480Y-7550390I-50000J0D01*
G01*
X8743480Y-7754390D02*
X8843480Y-7854390D01*
X8843480Y-7754390D02*
X8743480Y-7854390D01*
X8843480Y-7804390D02*
G75*
G03*
X8843480Y-7804390I-50000J0D01*
G01*
X9238780Y-5722390D02*
X9338780Y-5822390D01*
X9338780Y-5722390D02*
X9238780Y-5822390D01*
X9338780Y-5772390D02*
G75*
G03*
X9338780Y-5772390I-50000J0D01*
G01*
X9238780Y-6484390D02*
X9338780Y-6584390D01*
X9338780Y-6484390D02*
X9238780Y-6584390D01*
X9338780Y-6534390D02*
G75*
G03*
X9338780Y-6534390I-50000J0D01*
G01*
X9238780Y-7500390D02*
X9338780Y-7600390D01*
X9338780Y-7500390D02*
X9238780Y-7600390D01*
X9338780Y-7550390D02*
G75*
G03*
X9338780Y-7550390I-50000J0D01*
G01*
X9238780Y-7754390D02*
X9338780Y-7854390D01*
X9338780Y-7754390D02*
X9238780Y-7854390D01*
X9338780Y-7804390D02*
G75*
G03*
X9338780Y-7804390I-50000J0D01*
G01*
X10741540Y-10104470D02*
X10841540Y-10204470D01*
X10841540Y-10104470D02*
X10741540Y-10204470D01*
X10841540Y-10154470D02*
G75*
G03*
X10841540Y-10154470I-50000J0D01*
G01*
X10741540Y-10358470D02*
X10841540Y-10458470D01*
X10841540Y-10358470D02*
X10741540Y-10458470D01*
X10841540Y-10408470D02*
G75*
G03*
X10841540Y-10408470I-50000J0D01*
G01*
X10878400Y-9490240D02*
X10978400Y-9590240D01*
X10978400Y-9490240D02*
X10878400Y-9590240D01*
X10978400Y-9540240D02*
G75*
G03*
X10978400Y-9540240I-50000J0D01*
G01*
X11130580Y-10838980D02*
X11230580Y-10938980D01*
X11230580Y-10838980D02*
X11130580Y-10938980D01*
X11230580Y-10888980D02*
G75*
G03*
X11230580Y-10888980I-50000J0D01*
G01*
X11132400Y-9490240D02*
X11232400Y-9590240D01*
X11232400Y-9490240D02*
X11132400Y-9590240D01*
X11232400Y-9540240D02*
G75*
G03*
X11232400Y-9540240I-50000J0D01*
G01*
X11384580Y-10838980D02*
X11484580Y-10938980D01*
X11484580Y-10838980D02*
X11384580Y-10938980D01*
X11484580Y-10888980D02*
G75*
G03*
X11484580Y-10888980I-50000J0D01*
G01*
X11386400Y-9490240D02*
X11486400Y-9590240D01*
X11486400Y-9490240D02*
X11386400Y-9590240D01*
X11486400Y-9540240D02*
G75*
G03*
X11486400Y-9540240I-50000J0D01*
G01*
X12480540Y-11315970D02*
X12580540Y-11415970D01*
X12580540Y-11315970D02*
X12480540Y-11415970D01*
X12580540Y-11365970D02*
G75*
G03*
X12580540Y-11365970I-50000J0D01*
G01*
X12734540Y-11315970D02*
X12834540Y-11415970D01*
X12834540Y-11315970D02*
X12734540Y-11415970D01*
X12834540Y-11365970D02*
G75*
G03*
X12834540Y-11365970I-50000J0D01*
G01*
D17*
X2710600Y-6882890D02*
X2820600Y-6992890D01*
X2820600Y-6882890D02*
X2710600Y-6992890D01*
X2765600Y-6882890D02*
X2765600Y-6992890D01*
X2710600Y-6937890D02*
X2820600Y-6937890D01*
X2710600Y-8882890D02*
X2820600Y-8992890D01*
X2820600Y-8882890D02*
X2710600Y-8992890D01*
X2765600Y-8882890D02*
X2765600Y-8992890D01*
X2710600Y-8937890D02*
X2820600Y-8937890D01*
X3659800Y-9852270D02*
X3769800Y-9962270D01*
X3769800Y-9852270D02*
X3659800Y-9962270D01*
X3714800Y-9852270D02*
X3714800Y-9962270D01*
X3659800Y-9907270D02*
X3769800Y-9907270D01*
X3913800Y-9852270D02*
X4023800Y-9962270D01*
X4023800Y-9852270D02*
X3913800Y-9962270D01*
X3968800Y-9852270D02*
X3968800Y-9962270D01*
X3913800Y-9907270D02*
X4023800Y-9907270D01*
X4167800Y-9852270D02*
X4277800Y-9962270D01*
X4277800Y-9852270D02*
X4167800Y-9962270D01*
X4222800Y-9852270D02*
X4222800Y-9962270D01*
X4167800Y-9907270D02*
X4277800Y-9907270D01*
X4710600Y-7382890D02*
X4820600Y-7492890D01*
X4820600Y-7382890D02*
X4710600Y-7492890D01*
X4765600Y-7382890D02*
X4765600Y-7492890D01*
X4710600Y-7437890D02*
X4820600Y-7437890D01*
X4710600Y-8382890D02*
X4820600Y-8492890D01*
X4820600Y-8382890D02*
X4710600Y-8492890D01*
X4765600Y-8382890D02*
X4765600Y-8492890D01*
X4710600Y-8437890D02*
X4820600Y-8437890D01*
D18*
X3837230Y-3450830D02*
X3966770Y-3580370D01*
X3966770Y-3450830D02*
X3837230Y-3580370D01*
X3947800Y-3561400D02*
X3947800Y-3469800D01*
X3856200Y-3469800D01*
X3856200Y-3561400D01*
X3947800Y-3561400D01*
X3837230Y-4270830D02*
X3966770Y-4400370D01*
X3966770Y-4270830D02*
X3837230Y-4400370D01*
X3947800Y-4381400D02*
X3947800Y-4289800D01*
X3856200Y-4289800D01*
X3856200Y-4381400D01*
X3947800Y-4381400D01*
X4337230Y-3450830D02*
X4466770Y-3580370D01*
X4466770Y-3450830D02*
X4337230Y-3580370D01*
X4447800Y-3561400D02*
X4447800Y-3469800D01*
X4356200Y-3469800D01*
X4356200Y-3561400D01*
X4447800Y-3561400D01*
X4337230Y-4270830D02*
X4466770Y-4400370D01*
X4466770Y-4270830D02*
X4337230Y-4400370D01*
X4447800Y-4381400D02*
X4447800Y-4289800D01*
X4356200Y-4289800D01*
X4356200Y-4381400D01*
X4447800Y-4381400D01*
X5292010Y-3448470D02*
X5421550Y-3578010D01*
X5421550Y-3448470D02*
X5292010Y-3578010D01*
X5402580Y-3559040D02*
X5402580Y-3467440D01*
X5310980Y-3467440D01*
X5310980Y-3559040D01*
X5402580Y-3559040D01*
X5292010Y-4268470D02*
X5421550Y-4398010D01*
X5421550Y-4268470D02*
X5292010Y-4398010D01*
X5402580Y-4379040D02*
X5402580Y-4287440D01*
X5310980Y-4287440D01*
X5310980Y-4379040D01*
X5402580Y-4379040D01*
X5792010Y-3448470D02*
X5921550Y-3578010D01*
X5921550Y-3448470D02*
X5792010Y-3578010D01*
X5902580Y-3559040D02*
X5902580Y-3467440D01*
X5810980Y-3467440D01*
X5810980Y-3559040D01*
X5902580Y-3559040D01*
X5792010Y-4268470D02*
X5921550Y-4398010D01*
X5921550Y-4268470D02*
X5792010Y-4398010D01*
X5902580Y-4379040D02*
X5902580Y-4287440D01*
X5810980Y-4287440D01*
X5810980Y-4379040D01*
X5902580Y-4379040D01*
X6292010Y-3448470D02*
X6421550Y-3578010D01*
X6421550Y-3448470D02*
X6292010Y-3578010D01*
X6402580Y-3559040D02*
X6402580Y-3467440D01*
X6310980Y-3467440D01*
X6310980Y-3559040D01*
X6402580Y-3559040D01*
X6292010Y-4268470D02*
X6421550Y-4398010D01*
X6421550Y-4268470D02*
X6292010Y-4398010D01*
X6402580Y-4379040D02*
X6402580Y-4287440D01*
X6310980Y-4287440D01*
X6310980Y-4379040D01*
X6402580Y-4379040D01*
X6792010Y-3448470D02*
X6921550Y-3578010D01*
X6921550Y-3448470D02*
X6792010Y-3578010D01*
X6902580Y-3559040D02*
X6902580Y-3467440D01*
X6810980Y-3467440D01*
X6810980Y-3559040D01*
X6902580Y-3559040D01*
X6792010Y-4268470D02*
X6921550Y-4398010D01*
X6921550Y-4268470D02*
X6792010Y-4398010D01*
X6902580Y-4379040D02*
X6902580Y-4287440D01*
X6810980Y-4287440D01*
X6810980Y-4379040D01*
X6902580Y-4379040D01*
X7628810Y-3448470D02*
X7758350Y-3578010D01*
X7758350Y-3448470D02*
X7628810Y-3578010D01*
X7739380Y-3559040D02*
X7739380Y-3467440D01*
X7647780Y-3467440D01*
X7647780Y-3559040D01*
X7739380Y-3559040D01*
X7628810Y-4268470D02*
X7758350Y-4398010D01*
X7758350Y-4268470D02*
X7628810Y-4398010D01*
X7739380Y-4379040D02*
X7739380Y-4287440D01*
X7647780Y-4287440D01*
X7647780Y-4379040D01*
X7739380Y-4379040D01*
X8128810Y-3448470D02*
X8258350Y-3578010D01*
X8258350Y-3448470D02*
X8128810Y-3578010D01*
X8239380Y-3559040D02*
X8239380Y-3467440D01*
X8147780Y-3467440D01*
X8147780Y-3559040D01*
X8239380Y-3559040D01*
X8128810Y-4268470D02*
X8258350Y-4398010D01*
X8258350Y-4268470D02*
X8128810Y-4398010D01*
X8239380Y-4379040D02*
X8239380Y-4287440D01*
X8147780Y-4287440D01*
X8147780Y-4379040D01*
X8239380Y-4379040D01*
X8628810Y-3448470D02*
X8758350Y-3578010D01*
X8758350Y-3448470D02*
X8628810Y-3578010D01*
X8739380Y-3559040D02*
X8739380Y-3467440D01*
X8647780Y-3467440D01*
X8647780Y-3559040D01*
X8739380Y-3559040D01*
X8628810Y-4268470D02*
X8758350Y-4398010D01*
X8758350Y-4268470D02*
X8628810Y-4398010D01*
X8739380Y-4379040D02*
X8739380Y-4287440D01*
X8647780Y-4287440D01*
X8647780Y-4379040D01*
X8739380Y-4379040D01*
X9128810Y-3448470D02*
X9258350Y-3578010D01*
X9258350Y-3448470D02*
X9128810Y-3578010D01*
X9239380Y-3559040D02*
X9239380Y-3467440D01*
X9147780Y-3467440D01*
X9147780Y-3559040D01*
X9239380Y-3559040D01*
X9128810Y-4268470D02*
X9258350Y-4398010D01*
X9258350Y-4268470D02*
X9128810Y-4398010D01*
X9239380Y-4379040D02*
X9239380Y-4287440D01*
X9147780Y-4287440D01*
X9147780Y-4379040D01*
X9239380Y-4379040D01*
X9949230Y-3448050D02*
X10078770Y-3577590D01*
X10078770Y-3448050D02*
X9949230Y-3577590D01*
X10059800Y-3558620D02*
X10059800Y-3467020D01*
X9968200Y-3467020D01*
X9968200Y-3558620D01*
X10059800Y-3558620D01*
X9949230Y-4268050D02*
X10078770Y-4397590D01*
X10078770Y-4268050D02*
X9949230Y-4397590D01*
X10059800Y-4378620D02*
X10059800Y-4287020D01*
X9968200Y-4287020D01*
X9968200Y-4378620D01*
X10059800Y-4378620D01*
X10449230Y-3448050D02*
X10578770Y-3577590D01*
X10578770Y-3448050D02*
X10449230Y-3577590D01*
X10559800Y-3558620D02*
X10559800Y-3467020D01*
X10468200Y-3467020D01*
X10468200Y-3558620D01*
X10559800Y-3558620D01*
X10449230Y-4268050D02*
X10578770Y-4397590D01*
X10578770Y-4268050D02*
X10449230Y-4397590D01*
X10559800Y-4378620D02*
X10559800Y-4287020D01*
X10468200Y-4287020D01*
X10468200Y-4378620D01*
X10559800Y-4378620D01*
X10949230Y-3448050D02*
X11078770Y-3577590D01*
X11078770Y-3448050D02*
X10949230Y-3577590D01*
X11059800Y-3558620D02*
X11059800Y-3467020D01*
X10968200Y-3467020D01*
X10968200Y-3558620D01*
X11059800Y-3558620D01*
X10949230Y-4268050D02*
X11078770Y-4397590D01*
X11078770Y-4268050D02*
X10949230Y-4397590D01*
X11059800Y-4378620D02*
X11059800Y-4287020D01*
X10968200Y-4287020D01*
X10968200Y-4378620D01*
X11059800Y-4378620D01*
X11449230Y-3448050D02*
X11578770Y-3577590D01*
X11578770Y-3448050D02*
X11449230Y-3577590D01*
X11559800Y-3558620D02*
X11559800Y-3467020D01*
X11468200Y-3467020D01*
X11468200Y-3558620D01*
X11559800Y-3558620D01*
X11449230Y-4268050D02*
X11578770Y-4397590D01*
X11578770Y-4268050D02*
X11449230Y-4397590D01*
X11559800Y-4378620D02*
X11559800Y-4287020D01*
X11468200Y-4287020D01*
X11468200Y-4378620D01*
X11559800Y-4378620D01*
X12285000Y-3448050D02*
X12414540Y-3577590D01*
X12414540Y-3448050D02*
X12285000Y-3577590D01*
X12395570Y-3558620D02*
X12395570Y-3467020D01*
X12303970Y-3467020D01*
X12303970Y-3558620D01*
X12395570Y-3558620D01*
X12285000Y-4268050D02*
X12414540Y-4397590D01*
X12414540Y-4268050D02*
X12285000Y-4397590D01*
X12395570Y-4378620D02*
X12395570Y-4287020D01*
X12303970Y-4287020D01*
X12303970Y-4378620D01*
X12395570Y-4378620D01*
X12785000Y-3448050D02*
X12914540Y-3577590D01*
X12914540Y-3448050D02*
X12785000Y-3577590D01*
X12895570Y-3558620D02*
X12895570Y-3467020D01*
X12803970Y-3467020D01*
X12803970Y-3558620D01*
X12895570Y-3558620D01*
X12785000Y-4268050D02*
X12914540Y-4397590D01*
X12914540Y-4268050D02*
X12785000Y-4397590D01*
X12895570Y-4378620D02*
X12895570Y-4287020D01*
X12803970Y-4287020D01*
X12803970Y-4378620D01*
X12895570Y-4378620D01*
X13285000Y-3448050D02*
X13414540Y-3577590D01*
X13414540Y-3448050D02*
X13285000Y-3577590D01*
X13395570Y-3558620D02*
X13395570Y-3467020D01*
X13303970Y-3467020D01*
X13303970Y-3558620D01*
X13395570Y-3558620D01*
X13285000Y-4268050D02*
X13414540Y-4397590D01*
X13414540Y-4268050D02*
X13285000Y-4397590D01*
X13395570Y-4378620D02*
X13395570Y-4287020D01*
X13303970Y-4287020D01*
X13303970Y-4378620D01*
X13395570Y-4378620D01*
X13785000Y-3448050D02*
X13914540Y-3577590D01*
X13914540Y-3448050D02*
X13785000Y-3577590D01*
X13895570Y-3558620D02*
X13895570Y-3467020D01*
X13803970Y-3467020D01*
X13803970Y-3558620D01*
X13895570Y-3558620D01*
X13785000Y-4268050D02*
X13914540Y-4397590D01*
X13914540Y-4268050D02*
X13785000Y-4397590D01*
X13895570Y-4378620D02*
X13895570Y-4287020D01*
X13803970Y-4287020D01*
X13803970Y-4378620D01*
X13895570Y-4378620D01*
D19*
X2540000Y-3440000D02*
X2860000Y-3760000D01*
X2860000Y-3440000D02*
X2540000Y-3760000D01*
X2700000Y-3760000D02*
X2860000Y-3600000D01*
X2700000Y-3440000D01*
X2540000Y-3600000D01*
X2700000Y-3760000D01*
X2540000Y-10830000D02*
X2860000Y-11150000D01*
X2860000Y-10830000D02*
X2540000Y-11150000D01*
X2700000Y-11150000D02*
X2860000Y-10990000D01*
X2700000Y-10830000D01*
X2540000Y-10990000D01*
X2700000Y-11150000D01*
X14870000Y-3440000D02*
X15190000Y-3760000D01*
X15190000Y-3440000D02*
X14870000Y-3760000D01*
X15030000Y-3760000D02*
X15190000Y-3600000D01*
X15030000Y-3440000D01*
X14870000Y-3600000D01*
X15030000Y-3760000D01*
D11*
X2647197Y-11967704D02*
X2647197Y-11767704D01*
X2647197Y-11767704D02*
X2694816Y-11767704D01*
X2694816Y-11767704D02*
X2723387Y-11777228D01*
X2723387Y-11777228D02*
X2742435Y-11796275D01*
X2742435Y-11796275D02*
X2751959Y-11815323D01*
X2751959Y-11815323D02*
X2761483Y-11853418D01*
X2761483Y-11853418D02*
X2761483Y-11881989D01*
X2761483Y-11881989D02*
X2751959Y-11920085D01*
X2751959Y-11920085D02*
X2742435Y-11939132D01*
X2742435Y-11939132D02*
X2723387Y-11958180D01*
X2723387Y-11958180D02*
X2694816Y-11967704D01*
X2694816Y-11967704D02*
X2647197Y-11967704D01*
X2847197Y-11967704D02*
X2847197Y-11834370D01*
X2847197Y-11872466D02*
X2856721Y-11853418D01*
X2856721Y-11853418D02*
X2866244Y-11843894D01*
X2866244Y-11843894D02*
X2885292Y-11834370D01*
X2885292Y-11834370D02*
X2904340Y-11834370D01*
X2971006Y-11967704D02*
X2971006Y-11834370D01*
X2971006Y-11767704D02*
X2961482Y-11777228D01*
X2961482Y-11777228D02*
X2971006Y-11786751D01*
X2971006Y-11786751D02*
X2980530Y-11777228D01*
X2980530Y-11777228D02*
X2971006Y-11767704D01*
X2971006Y-11767704D02*
X2971006Y-11786751D01*
X3094816Y-11967704D02*
X3075768Y-11958180D01*
X3075768Y-11958180D02*
X3066244Y-11939132D01*
X3066244Y-11939132D02*
X3066244Y-11767704D01*
X3199578Y-11967704D02*
X3180530Y-11958180D01*
X3180530Y-11958180D02*
X3171006Y-11939132D01*
X3171006Y-11939132D02*
X3171006Y-11767704D01*
X3428149Y-11967704D02*
X3428149Y-11767704D01*
X3428149Y-11767704D02*
X3494816Y-11910561D01*
X3494816Y-11910561D02*
X3561482Y-11767704D01*
X3561482Y-11767704D02*
X3561482Y-11967704D01*
X3742435Y-11967704D02*
X3742435Y-11862942D01*
X3742435Y-11862942D02*
X3732911Y-11843894D01*
X3732911Y-11843894D02*
X3713863Y-11834370D01*
X3713863Y-11834370D02*
X3675768Y-11834370D01*
X3675768Y-11834370D02*
X3656721Y-11843894D01*
X3742435Y-11958180D02*
X3723387Y-11967704D01*
X3723387Y-11967704D02*
X3675768Y-11967704D01*
X3675768Y-11967704D02*
X3656721Y-11958180D01*
X3656721Y-11958180D02*
X3647197Y-11939132D01*
X3647197Y-11939132D02*
X3647197Y-11920085D01*
X3647197Y-11920085D02*
X3656721Y-11901037D01*
X3656721Y-11901037D02*
X3675768Y-11891513D01*
X3675768Y-11891513D02*
X3723387Y-11891513D01*
X3723387Y-11891513D02*
X3742435Y-11881989D01*
X3837673Y-11834370D02*
X3837673Y-12034370D01*
X3837673Y-11843894D02*
X3856721Y-11834370D01*
X3856721Y-11834370D02*
X3894816Y-11834370D01*
X3894816Y-11834370D02*
X3913863Y-11843894D01*
X3913863Y-11843894D02*
X3923387Y-11853418D01*
X3923387Y-11853418D02*
X3932911Y-11872466D01*
X3932911Y-11872466D02*
X3932911Y-11929608D01*
X3932911Y-11929608D02*
X3923387Y-11948656D01*
X3923387Y-11948656D02*
X3913863Y-11958180D01*
X3913863Y-11958180D02*
X3894816Y-11967704D01*
X3894816Y-11967704D02*
X3856721Y-11967704D01*
X3856721Y-11967704D02*
X3837673Y-11958180D01*
X4018625Y-11948656D02*
X4028149Y-11958180D01*
X4028149Y-11958180D02*
X4018625Y-11967704D01*
X4018625Y-11967704D02*
X4009102Y-11958180D01*
X4009102Y-11958180D02*
X4018625Y-11948656D01*
X4018625Y-11948656D02*
X4018625Y-11967704D01*
X4018625Y-11843894D02*
X4028149Y-11853418D01*
X4028149Y-11853418D02*
X4018625Y-11862942D01*
X4018625Y-11862942D02*
X4009102Y-11853418D01*
X4009102Y-11853418D02*
X4018625Y-11843894D01*
X4018625Y-11843894D02*
X4018625Y-11862942D01*
D12*
X2346420Y-12276220D02*
X2386420Y-12316220D01*
X2386420Y-12276220D02*
X2346420Y-12316220D01*
D11*
X2685292Y-12187704D02*
X2704340Y-12187704D01*
X2704340Y-12187704D02*
X2723387Y-12197228D01*
X2723387Y-12197228D02*
X2732911Y-12206751D01*
X2732911Y-12206751D02*
X2742435Y-12225799D01*
X2742435Y-12225799D02*
X2751959Y-12263894D01*
X2751959Y-12263894D02*
X2751959Y-12311513D01*
X2751959Y-12311513D02*
X2742435Y-12349608D01*
X2742435Y-12349608D02*
X2732911Y-12368656D01*
X2732911Y-12368656D02*
X2723387Y-12378180D01*
X2723387Y-12378180D02*
X2704340Y-12387704D01*
X2704340Y-12387704D02*
X2685292Y-12387704D01*
X2685292Y-12387704D02*
X2666244Y-12378180D01*
X2666244Y-12378180D02*
X2656721Y-12368656D01*
X2656721Y-12368656D02*
X2647197Y-12349608D01*
X2647197Y-12349608D02*
X2637673Y-12311513D01*
X2637673Y-12311513D02*
X2637673Y-12263894D01*
X2637673Y-12263894D02*
X2647197Y-12225799D01*
X2647197Y-12225799D02*
X2656721Y-12206751D01*
X2656721Y-12206751D02*
X2666244Y-12197228D01*
X2666244Y-12197228D02*
X2685292Y-12187704D01*
X2837673Y-12368656D02*
X2847197Y-12378180D01*
X2847197Y-12378180D02*
X2837673Y-12387704D01*
X2837673Y-12387704D02*
X2828149Y-12378180D01*
X2828149Y-12378180D02*
X2837673Y-12368656D01*
X2837673Y-12368656D02*
X2837673Y-12387704D01*
X3018625Y-12254370D02*
X3018625Y-12387704D01*
X2971006Y-12178180D02*
X2923387Y-12321037D01*
X2923387Y-12321037D02*
X3047197Y-12321037D01*
X3161482Y-12187704D02*
X3180530Y-12187704D01*
X3180530Y-12187704D02*
X3199578Y-12197228D01*
X3199578Y-12197228D02*
X3209102Y-12206751D01*
X3209102Y-12206751D02*
X3218625Y-12225799D01*
X3218625Y-12225799D02*
X3228149Y-12263894D01*
X3228149Y-12263894D02*
X3228149Y-12311513D01*
X3228149Y-12311513D02*
X3218625Y-12349608D01*
X3218625Y-12349608D02*
X3209102Y-12368656D01*
X3209102Y-12368656D02*
X3199578Y-12378180D01*
X3199578Y-12378180D02*
X3180530Y-12387704D01*
X3180530Y-12387704D02*
X3161482Y-12387704D01*
X3161482Y-12387704D02*
X3142435Y-12378180D01*
X3142435Y-12378180D02*
X3132911Y-12368656D01*
X3132911Y-12368656D02*
X3123387Y-12349608D01*
X3123387Y-12349608D02*
X3113863Y-12311513D01*
X3113863Y-12311513D02*
X3113863Y-12263894D01*
X3113863Y-12263894D02*
X3123387Y-12225799D01*
X3123387Y-12225799D02*
X3132911Y-12206751D01*
X3132911Y-12206751D02*
X3142435Y-12197228D01*
X3142435Y-12197228D02*
X3161482Y-12187704D01*
X3351959Y-12187704D02*
X3371006Y-12187704D01*
X3371006Y-12187704D02*
X3390054Y-12197228D01*
X3390054Y-12197228D02*
X3399578Y-12206751D01*
X3399578Y-12206751D02*
X3409102Y-12225799D01*
X3409102Y-12225799D02*
X3418625Y-12263894D01*
X3418625Y-12263894D02*
X3418625Y-12311513D01*
X3418625Y-12311513D02*
X3409102Y-12349608D01*
X3409102Y-12349608D02*
X3399578Y-12368656D01*
X3399578Y-12368656D02*
X3390054Y-12378180D01*
X3390054Y-12378180D02*
X3371006Y-12387704D01*
X3371006Y-12387704D02*
X3351959Y-12387704D01*
X3351959Y-12387704D02*
X3332911Y-12378180D01*
X3332911Y-12378180D02*
X3323387Y-12368656D01*
X3323387Y-12368656D02*
X3313863Y-12349608D01*
X3313863Y-12349608D02*
X3304340Y-12311513D01*
X3304340Y-12311513D02*
X3304340Y-12263894D01*
X3304340Y-12263894D02*
X3313863Y-12225799D01*
X3313863Y-12225799D02*
X3323387Y-12206751D01*
X3323387Y-12206751D02*
X3332911Y-12197228D01*
X3332911Y-12197228D02*
X3351959Y-12187704D01*
X3504340Y-12387704D02*
X3504340Y-12254370D01*
X3504340Y-12273418D02*
X3513863Y-12263894D01*
X3513863Y-12263894D02*
X3532911Y-12254370D01*
X3532911Y-12254370D02*
X3561483Y-12254370D01*
X3561483Y-12254370D02*
X3580530Y-12263894D01*
X3580530Y-12263894D02*
X3590054Y-12282942D01*
X3590054Y-12282942D02*
X3590054Y-12387704D01*
X3590054Y-12282942D02*
X3599578Y-12263894D01*
X3599578Y-12263894D02*
X3618625Y-12254370D01*
X3618625Y-12254370D02*
X3647197Y-12254370D01*
X3647197Y-12254370D02*
X3666244Y-12263894D01*
X3666244Y-12263894D02*
X3675768Y-12282942D01*
X3675768Y-12282942D02*
X3675768Y-12387704D01*
X3771006Y-12387704D02*
X3771006Y-12254370D01*
X3771006Y-12273418D02*
X3780530Y-12263894D01*
X3780530Y-12263894D02*
X3799578Y-12254370D01*
X3799578Y-12254370D02*
X3828149Y-12254370D01*
X3828149Y-12254370D02*
X3847197Y-12263894D01*
X3847197Y-12263894D02*
X3856721Y-12282942D01*
X3856721Y-12282942D02*
X3856721Y-12387704D01*
X3856721Y-12282942D02*
X3866244Y-12263894D01*
X3866244Y-12263894D02*
X3885292Y-12254370D01*
X3885292Y-12254370D02*
X3913863Y-12254370D01*
X3913863Y-12254370D02*
X3932911Y-12263894D01*
X3932911Y-12263894D02*
X3942435Y-12282942D01*
X3942435Y-12282942D02*
X3942435Y-12387704D01*
X4332911Y-12178180D02*
X4161483Y-12435323D01*
X4590054Y-12187704D02*
X4609102Y-12187704D01*
X4609102Y-12187704D02*
X4628149Y-12197228D01*
X4628149Y-12197228D02*
X4637673Y-12206751D01*
X4637673Y-12206751D02*
X4647197Y-12225799D01*
X4647197Y-12225799D02*
X4656721Y-12263894D01*
X4656721Y-12263894D02*
X4656721Y-12311513D01*
X4656721Y-12311513D02*
X4647197Y-12349608D01*
X4647197Y-12349608D02*
X4637673Y-12368656D01*
X4637673Y-12368656D02*
X4628149Y-12378180D01*
X4628149Y-12378180D02*
X4609102Y-12387704D01*
X4609102Y-12387704D02*
X4590054Y-12387704D01*
X4590054Y-12387704D02*
X4571007Y-12378180D01*
X4571007Y-12378180D02*
X4561483Y-12368656D01*
X4561483Y-12368656D02*
X4551959Y-12349608D01*
X4551959Y-12349608D02*
X4542435Y-12311513D01*
X4542435Y-12311513D02*
X4542435Y-12263894D01*
X4542435Y-12263894D02*
X4551959Y-12225799D01*
X4551959Y-12225799D02*
X4561483Y-12206751D01*
X4561483Y-12206751D02*
X4571007Y-12197228D01*
X4571007Y-12197228D02*
X4590054Y-12187704D01*
X4742435Y-12368656D02*
X4751959Y-12378180D01*
X4751959Y-12378180D02*
X4742435Y-12387704D01*
X4742435Y-12387704D02*
X4732911Y-12378180D01*
X4732911Y-12378180D02*
X4742435Y-12368656D01*
X4742435Y-12368656D02*
X4742435Y-12387704D01*
X4875768Y-12187704D02*
X4894816Y-12187704D01*
X4894816Y-12187704D02*
X4913864Y-12197228D01*
X4913864Y-12197228D02*
X4923388Y-12206751D01*
X4923388Y-12206751D02*
X4932911Y-12225799D01*
X4932911Y-12225799D02*
X4942435Y-12263894D01*
X4942435Y-12263894D02*
X4942435Y-12311513D01*
X4942435Y-12311513D02*
X4932911Y-12349608D01*
X4932911Y-12349608D02*
X4923388Y-12368656D01*
X4923388Y-12368656D02*
X4913864Y-12378180D01*
X4913864Y-12378180D02*
X4894816Y-12387704D01*
X4894816Y-12387704D02*
X4875768Y-12387704D01*
X4875768Y-12387704D02*
X4856721Y-12378180D01*
X4856721Y-12378180D02*
X4847197Y-12368656D01*
X4847197Y-12368656D02*
X4837673Y-12349608D01*
X4837673Y-12349608D02*
X4828149Y-12311513D01*
X4828149Y-12311513D02*
X4828149Y-12263894D01*
X4828149Y-12263894D02*
X4837673Y-12225799D01*
X4837673Y-12225799D02*
X4847197Y-12206751D01*
X4847197Y-12206751D02*
X4856721Y-12197228D01*
X4856721Y-12197228D02*
X4875768Y-12187704D01*
X5132911Y-12387704D02*
X5018626Y-12387704D01*
X5075768Y-12387704D02*
X5075768Y-12187704D01*
X5075768Y-12187704D02*
X5056721Y-12216275D01*
X5056721Y-12216275D02*
X5037673Y-12235323D01*
X5037673Y-12235323D02*
X5018626Y-12244847D01*
X5313864Y-12187704D02*
X5218626Y-12187704D01*
X5218626Y-12187704D02*
X5209102Y-12282942D01*
X5209102Y-12282942D02*
X5218626Y-12273418D01*
X5218626Y-12273418D02*
X5237673Y-12263894D01*
X5237673Y-12263894D02*
X5285292Y-12263894D01*
X5285292Y-12263894D02*
X5304340Y-12273418D01*
X5304340Y-12273418D02*
X5313864Y-12282942D01*
X5313864Y-12282942D02*
X5323388Y-12301989D01*
X5323388Y-12301989D02*
X5323388Y-12349608D01*
X5323388Y-12349608D02*
X5313864Y-12368656D01*
X5313864Y-12368656D02*
X5304340Y-12378180D01*
X5304340Y-12378180D02*
X5285292Y-12387704D01*
X5285292Y-12387704D02*
X5237673Y-12387704D01*
X5237673Y-12387704D02*
X5218626Y-12378180D01*
X5218626Y-12378180D02*
X5209102Y-12368656D01*
X5390054Y-12187704D02*
X5523388Y-12187704D01*
X5523388Y-12187704D02*
X5437673Y-12387704D01*
X5590054Y-12187704D02*
X5590054Y-12225799D01*
X5666245Y-12187704D02*
X5666245Y-12225799D01*
X5961483Y-12463894D02*
X5951959Y-12454370D01*
X5951959Y-12454370D02*
X5932911Y-12425799D01*
X5932911Y-12425799D02*
X5923388Y-12406751D01*
X5923388Y-12406751D02*
X5913864Y-12378180D01*
X5913864Y-12378180D02*
X5904340Y-12330561D01*
X5904340Y-12330561D02*
X5904340Y-12292466D01*
X5904340Y-12292466D02*
X5913864Y-12244847D01*
X5913864Y-12244847D02*
X5923388Y-12216275D01*
X5923388Y-12216275D02*
X5932911Y-12197228D01*
X5932911Y-12197228D02*
X5951959Y-12168656D01*
X5951959Y-12168656D02*
X5961483Y-12159132D01*
X6142435Y-12387704D02*
X6028149Y-12387704D01*
X6085292Y-12387704D02*
X6085292Y-12187704D01*
X6085292Y-12187704D02*
X6066245Y-12216275D01*
X6066245Y-12216275D02*
X6047197Y-12235323D01*
X6047197Y-12235323D02*
X6028149Y-12244847D01*
X6266245Y-12187704D02*
X6285292Y-12187704D01*
X6285292Y-12187704D02*
X6304340Y-12197228D01*
X6304340Y-12197228D02*
X6313864Y-12206751D01*
X6313864Y-12206751D02*
X6323388Y-12225799D01*
X6323388Y-12225799D02*
X6332911Y-12263894D01*
X6332911Y-12263894D02*
X6332911Y-12311513D01*
X6332911Y-12311513D02*
X6323388Y-12349608D01*
X6323388Y-12349608D02*
X6313864Y-12368656D01*
X6313864Y-12368656D02*
X6304340Y-12378180D01*
X6304340Y-12378180D02*
X6285292Y-12387704D01*
X6285292Y-12387704D02*
X6266245Y-12387704D01*
X6266245Y-12387704D02*
X6247197Y-12378180D01*
X6247197Y-12378180D02*
X6237673Y-12368656D01*
X6237673Y-12368656D02*
X6228149Y-12349608D01*
X6228149Y-12349608D02*
X6218626Y-12311513D01*
X6218626Y-12311513D02*
X6218626Y-12263894D01*
X6218626Y-12263894D02*
X6228149Y-12225799D01*
X6228149Y-12225799D02*
X6237673Y-12206751D01*
X6237673Y-12206751D02*
X6247197Y-12197228D01*
X6247197Y-12197228D02*
X6266245Y-12187704D01*
X6523388Y-12387704D02*
X6409102Y-12387704D01*
X6466245Y-12387704D02*
X6466245Y-12187704D01*
X6466245Y-12187704D02*
X6447197Y-12216275D01*
X6447197Y-12216275D02*
X6428149Y-12235323D01*
X6428149Y-12235323D02*
X6409102Y-12244847D01*
X6761483Y-12387704D02*
X6761483Y-12187704D01*
X6847197Y-12387704D02*
X6847197Y-12282942D01*
X6847197Y-12282942D02*
X6837673Y-12263894D01*
X6837673Y-12263894D02*
X6818626Y-12254370D01*
X6818626Y-12254370D02*
X6790054Y-12254370D01*
X6790054Y-12254370D02*
X6771007Y-12263894D01*
X6771007Y-12263894D02*
X6761483Y-12273418D01*
X6971007Y-12387704D02*
X6951959Y-12378180D01*
X6951959Y-12378180D02*
X6942435Y-12368656D01*
X6942435Y-12368656D02*
X6932911Y-12349608D01*
X6932911Y-12349608D02*
X6932911Y-12292466D01*
X6932911Y-12292466D02*
X6942435Y-12273418D01*
X6942435Y-12273418D02*
X6951959Y-12263894D01*
X6951959Y-12263894D02*
X6971007Y-12254370D01*
X6971007Y-12254370D02*
X6999578Y-12254370D01*
X6999578Y-12254370D02*
X7018626Y-12263894D01*
X7018626Y-12263894D02*
X7028150Y-12273418D01*
X7028150Y-12273418D02*
X7037673Y-12292466D01*
X7037673Y-12292466D02*
X7037673Y-12349608D01*
X7037673Y-12349608D02*
X7028150Y-12368656D01*
X7028150Y-12368656D02*
X7018626Y-12378180D01*
X7018626Y-12378180D02*
X6999578Y-12387704D01*
X6999578Y-12387704D02*
X6971007Y-12387704D01*
X7151959Y-12387704D02*
X7132911Y-12378180D01*
X7132911Y-12378180D02*
X7123388Y-12359132D01*
X7123388Y-12359132D02*
X7123388Y-12187704D01*
X7304340Y-12378180D02*
X7285292Y-12387704D01*
X7285292Y-12387704D02*
X7247197Y-12387704D01*
X7247197Y-12387704D02*
X7228150Y-12378180D01*
X7228150Y-12378180D02*
X7218626Y-12359132D01*
X7218626Y-12359132D02*
X7218626Y-12282942D01*
X7218626Y-12282942D02*
X7228150Y-12263894D01*
X7228150Y-12263894D02*
X7247197Y-12254370D01*
X7247197Y-12254370D02*
X7285292Y-12254370D01*
X7285292Y-12254370D02*
X7304340Y-12263894D01*
X7304340Y-12263894D02*
X7313864Y-12282942D01*
X7313864Y-12282942D02*
X7313864Y-12301989D01*
X7313864Y-12301989D02*
X7218626Y-12321037D01*
X7390054Y-12378180D02*
X7409102Y-12387704D01*
X7409102Y-12387704D02*
X7447197Y-12387704D01*
X7447197Y-12387704D02*
X7466245Y-12378180D01*
X7466245Y-12378180D02*
X7475769Y-12359132D01*
X7475769Y-12359132D02*
X7475769Y-12349608D01*
X7475769Y-12349608D02*
X7466245Y-12330561D01*
X7466245Y-12330561D02*
X7447197Y-12321037D01*
X7447197Y-12321037D02*
X7418626Y-12321037D01*
X7418626Y-12321037D02*
X7399578Y-12311513D01*
X7399578Y-12311513D02*
X7390054Y-12292466D01*
X7390054Y-12292466D02*
X7390054Y-12282942D01*
X7390054Y-12282942D02*
X7399578Y-12263894D01*
X7399578Y-12263894D02*
X7418626Y-12254370D01*
X7418626Y-12254370D02*
X7447197Y-12254370D01*
X7447197Y-12254370D02*
X7466245Y-12263894D01*
X7542435Y-12463894D02*
X7551959Y-12454370D01*
X7551959Y-12454370D02*
X7571007Y-12425799D01*
X7571007Y-12425799D02*
X7580531Y-12406751D01*
X7580531Y-12406751D02*
X7590054Y-12378180D01*
X7590054Y-12378180D02*
X7599578Y-12330561D01*
X7599578Y-12330561D02*
X7599578Y-12292466D01*
X7599578Y-12292466D02*
X7590054Y-12244847D01*
X7590054Y-12244847D02*
X7580531Y-12216275D01*
X7580531Y-12216275D02*
X7571007Y-12197228D01*
X7571007Y-12197228D02*
X7551959Y-12168656D01*
X7551959Y-12168656D02*
X7542435Y-12159132D01*
D10*
X2386420Y-12560220D02*
G75*
G03*
X2386420Y-12560220I-25000J0D01*
G01*
D11*
X2685292Y-12451704D02*
X2704340Y-12451704D01*
X2704340Y-12451704D02*
X2723387Y-12461228D01*
X2723387Y-12461228D02*
X2732911Y-12470751D01*
X2732911Y-12470751D02*
X2742435Y-12489799D01*
X2742435Y-12489799D02*
X2751959Y-12527894D01*
X2751959Y-12527894D02*
X2751959Y-12575513D01*
X2751959Y-12575513D02*
X2742435Y-12613608D01*
X2742435Y-12613608D02*
X2732911Y-12632656D01*
X2732911Y-12632656D02*
X2723387Y-12642180D01*
X2723387Y-12642180D02*
X2704340Y-12651704D01*
X2704340Y-12651704D02*
X2685292Y-12651704D01*
X2685292Y-12651704D02*
X2666244Y-12642180D01*
X2666244Y-12642180D02*
X2656721Y-12632656D01*
X2656721Y-12632656D02*
X2647197Y-12613608D01*
X2647197Y-12613608D02*
X2637673Y-12575513D01*
X2637673Y-12575513D02*
X2637673Y-12527894D01*
X2637673Y-12527894D02*
X2647197Y-12489799D01*
X2647197Y-12489799D02*
X2656721Y-12470751D01*
X2656721Y-12470751D02*
X2666244Y-12461228D01*
X2666244Y-12461228D02*
X2685292Y-12451704D01*
X2837673Y-12632656D02*
X2847197Y-12642180D01*
X2847197Y-12642180D02*
X2837673Y-12651704D01*
X2837673Y-12651704D02*
X2828149Y-12642180D01*
X2828149Y-12642180D02*
X2837673Y-12632656D01*
X2837673Y-12632656D02*
X2837673Y-12651704D01*
X3028149Y-12451704D02*
X2932911Y-12451704D01*
X2932911Y-12451704D02*
X2923387Y-12546942D01*
X2923387Y-12546942D02*
X2932911Y-12537418D01*
X2932911Y-12537418D02*
X2951959Y-12527894D01*
X2951959Y-12527894D02*
X2999578Y-12527894D01*
X2999578Y-12527894D02*
X3018625Y-12537418D01*
X3018625Y-12537418D02*
X3028149Y-12546942D01*
X3028149Y-12546942D02*
X3037673Y-12565989D01*
X3037673Y-12565989D02*
X3037673Y-12613608D01*
X3037673Y-12613608D02*
X3028149Y-12632656D01*
X3028149Y-12632656D02*
X3018625Y-12642180D01*
X3018625Y-12642180D02*
X2999578Y-12651704D01*
X2999578Y-12651704D02*
X2951959Y-12651704D01*
X2951959Y-12651704D02*
X2932911Y-12642180D01*
X2932911Y-12642180D02*
X2923387Y-12632656D01*
X3161482Y-12451704D02*
X3180530Y-12451704D01*
X3180530Y-12451704D02*
X3199578Y-12461228D01*
X3199578Y-12461228D02*
X3209102Y-12470751D01*
X3209102Y-12470751D02*
X3218625Y-12489799D01*
X3218625Y-12489799D02*
X3228149Y-12527894D01*
X3228149Y-12527894D02*
X3228149Y-12575513D01*
X3228149Y-12575513D02*
X3218625Y-12613608D01*
X3218625Y-12613608D02*
X3209102Y-12632656D01*
X3209102Y-12632656D02*
X3199578Y-12642180D01*
X3199578Y-12642180D02*
X3180530Y-12651704D01*
X3180530Y-12651704D02*
X3161482Y-12651704D01*
X3161482Y-12651704D02*
X3142435Y-12642180D01*
X3142435Y-12642180D02*
X3132911Y-12632656D01*
X3132911Y-12632656D02*
X3123387Y-12613608D01*
X3123387Y-12613608D02*
X3113863Y-12575513D01*
X3113863Y-12575513D02*
X3113863Y-12527894D01*
X3113863Y-12527894D02*
X3123387Y-12489799D01*
X3123387Y-12489799D02*
X3132911Y-12470751D01*
X3132911Y-12470751D02*
X3142435Y-12461228D01*
X3142435Y-12461228D02*
X3161482Y-12451704D01*
X3351959Y-12451704D02*
X3371006Y-12451704D01*
X3371006Y-12451704D02*
X3390054Y-12461228D01*
X3390054Y-12461228D02*
X3399578Y-12470751D01*
X3399578Y-12470751D02*
X3409102Y-12489799D01*
X3409102Y-12489799D02*
X3418625Y-12527894D01*
X3418625Y-12527894D02*
X3418625Y-12575513D01*
X3418625Y-12575513D02*
X3409102Y-12613608D01*
X3409102Y-12613608D02*
X3399578Y-12632656D01*
X3399578Y-12632656D02*
X3390054Y-12642180D01*
X3390054Y-12642180D02*
X3371006Y-12651704D01*
X3371006Y-12651704D02*
X3351959Y-12651704D01*
X3351959Y-12651704D02*
X3332911Y-12642180D01*
X3332911Y-12642180D02*
X3323387Y-12632656D01*
X3323387Y-12632656D02*
X3313863Y-12613608D01*
X3313863Y-12613608D02*
X3304340Y-12575513D01*
X3304340Y-12575513D02*
X3304340Y-12527894D01*
X3304340Y-12527894D02*
X3313863Y-12489799D01*
X3313863Y-12489799D02*
X3323387Y-12470751D01*
X3323387Y-12470751D02*
X3332911Y-12461228D01*
X3332911Y-12461228D02*
X3351959Y-12451704D01*
X3504340Y-12651704D02*
X3504340Y-12518370D01*
X3504340Y-12537418D02*
X3513863Y-12527894D01*
X3513863Y-12527894D02*
X3532911Y-12518370D01*
X3532911Y-12518370D02*
X3561483Y-12518370D01*
X3561483Y-12518370D02*
X3580530Y-12527894D01*
X3580530Y-12527894D02*
X3590054Y-12546942D01*
X3590054Y-12546942D02*
X3590054Y-12651704D01*
X3590054Y-12546942D02*
X3599578Y-12527894D01*
X3599578Y-12527894D02*
X3618625Y-12518370D01*
X3618625Y-12518370D02*
X3647197Y-12518370D01*
X3647197Y-12518370D02*
X3666244Y-12527894D01*
X3666244Y-12527894D02*
X3675768Y-12546942D01*
X3675768Y-12546942D02*
X3675768Y-12651704D01*
X3771006Y-12651704D02*
X3771006Y-12518370D01*
X3771006Y-12537418D02*
X3780530Y-12527894D01*
X3780530Y-12527894D02*
X3799578Y-12518370D01*
X3799578Y-12518370D02*
X3828149Y-12518370D01*
X3828149Y-12518370D02*
X3847197Y-12527894D01*
X3847197Y-12527894D02*
X3856721Y-12546942D01*
X3856721Y-12546942D02*
X3856721Y-12651704D01*
X3856721Y-12546942D02*
X3866244Y-12527894D01*
X3866244Y-12527894D02*
X3885292Y-12518370D01*
X3885292Y-12518370D02*
X3913863Y-12518370D01*
X3913863Y-12518370D02*
X3932911Y-12527894D01*
X3932911Y-12527894D02*
X3942435Y-12546942D01*
X3942435Y-12546942D02*
X3942435Y-12651704D01*
X4332911Y-12442180D02*
X4161483Y-12699323D01*
X4590054Y-12451704D02*
X4609102Y-12451704D01*
X4609102Y-12451704D02*
X4628149Y-12461228D01*
X4628149Y-12461228D02*
X4637673Y-12470751D01*
X4637673Y-12470751D02*
X4647197Y-12489799D01*
X4647197Y-12489799D02*
X4656721Y-12527894D01*
X4656721Y-12527894D02*
X4656721Y-12575513D01*
X4656721Y-12575513D02*
X4647197Y-12613608D01*
X4647197Y-12613608D02*
X4637673Y-12632656D01*
X4637673Y-12632656D02*
X4628149Y-12642180D01*
X4628149Y-12642180D02*
X4609102Y-12651704D01*
X4609102Y-12651704D02*
X4590054Y-12651704D01*
X4590054Y-12651704D02*
X4571007Y-12642180D01*
X4571007Y-12642180D02*
X4561483Y-12632656D01*
X4561483Y-12632656D02*
X4551959Y-12613608D01*
X4551959Y-12613608D02*
X4542435Y-12575513D01*
X4542435Y-12575513D02*
X4542435Y-12527894D01*
X4542435Y-12527894D02*
X4551959Y-12489799D01*
X4551959Y-12489799D02*
X4561483Y-12470751D01*
X4561483Y-12470751D02*
X4571007Y-12461228D01*
X4571007Y-12461228D02*
X4590054Y-12451704D01*
X4742435Y-12632656D02*
X4751959Y-12642180D01*
X4751959Y-12642180D02*
X4742435Y-12651704D01*
X4742435Y-12651704D02*
X4732911Y-12642180D01*
X4732911Y-12642180D02*
X4742435Y-12632656D01*
X4742435Y-12632656D02*
X4742435Y-12651704D01*
X4875768Y-12451704D02*
X4894816Y-12451704D01*
X4894816Y-12451704D02*
X4913864Y-12461228D01*
X4913864Y-12461228D02*
X4923388Y-12470751D01*
X4923388Y-12470751D02*
X4932911Y-12489799D01*
X4932911Y-12489799D02*
X4942435Y-12527894D01*
X4942435Y-12527894D02*
X4942435Y-12575513D01*
X4942435Y-12575513D02*
X4932911Y-12613608D01*
X4932911Y-12613608D02*
X4923388Y-12632656D01*
X4923388Y-12632656D02*
X4913864Y-12642180D01*
X4913864Y-12642180D02*
X4894816Y-12651704D01*
X4894816Y-12651704D02*
X4875768Y-12651704D01*
X4875768Y-12651704D02*
X4856721Y-12642180D01*
X4856721Y-12642180D02*
X4847197Y-12632656D01*
X4847197Y-12632656D02*
X4837673Y-12613608D01*
X4837673Y-12613608D02*
X4828149Y-12575513D01*
X4828149Y-12575513D02*
X4828149Y-12527894D01*
X4828149Y-12527894D02*
X4837673Y-12489799D01*
X4837673Y-12489799D02*
X4847197Y-12470751D01*
X4847197Y-12470751D02*
X4856721Y-12461228D01*
X4856721Y-12461228D02*
X4875768Y-12451704D01*
X5132911Y-12651704D02*
X5018626Y-12651704D01*
X5075768Y-12651704D02*
X5075768Y-12451704D01*
X5075768Y-12451704D02*
X5056721Y-12480275D01*
X5056721Y-12480275D02*
X5037673Y-12499323D01*
X5037673Y-12499323D02*
X5018626Y-12508847D01*
X5228149Y-12651704D02*
X5266245Y-12651704D01*
X5266245Y-12651704D02*
X5285292Y-12642180D01*
X5285292Y-12642180D02*
X5294816Y-12632656D01*
X5294816Y-12632656D02*
X5313864Y-12604085D01*
X5313864Y-12604085D02*
X5323388Y-12565989D01*
X5323388Y-12565989D02*
X5323388Y-12489799D01*
X5323388Y-12489799D02*
X5313864Y-12470751D01*
X5313864Y-12470751D02*
X5304340Y-12461228D01*
X5304340Y-12461228D02*
X5285292Y-12451704D01*
X5285292Y-12451704D02*
X5247197Y-12451704D01*
X5247197Y-12451704D02*
X5228149Y-12461228D01*
X5228149Y-12461228D02*
X5218626Y-12470751D01*
X5218626Y-12470751D02*
X5209102Y-12489799D01*
X5209102Y-12489799D02*
X5209102Y-12537418D01*
X5209102Y-12537418D02*
X5218626Y-12556466D01*
X5218626Y-12556466D02*
X5228149Y-12565989D01*
X5228149Y-12565989D02*
X5247197Y-12575513D01*
X5247197Y-12575513D02*
X5285292Y-12575513D01*
X5285292Y-12575513D02*
X5304340Y-12565989D01*
X5304340Y-12565989D02*
X5313864Y-12556466D01*
X5313864Y-12556466D02*
X5323388Y-12537418D01*
X5390054Y-12451704D02*
X5523388Y-12451704D01*
X5523388Y-12451704D02*
X5437673Y-12651704D01*
X5590054Y-12451704D02*
X5590054Y-12489799D01*
X5666245Y-12451704D02*
X5666245Y-12489799D01*
X5961483Y-12727894D02*
X5951959Y-12718370D01*
X5951959Y-12718370D02*
X5932911Y-12689799D01*
X5932911Y-12689799D02*
X5923388Y-12670751D01*
X5923388Y-12670751D02*
X5913864Y-12642180D01*
X5913864Y-12642180D02*
X5904340Y-12594561D01*
X5904340Y-12594561D02*
X5904340Y-12556466D01*
X5904340Y-12556466D02*
X5913864Y-12508847D01*
X5913864Y-12508847D02*
X5923388Y-12480275D01*
X5923388Y-12480275D02*
X5932911Y-12461228D01*
X5932911Y-12461228D02*
X5951959Y-12432656D01*
X5951959Y-12432656D02*
X5961483Y-12423132D01*
X6142435Y-12651704D02*
X6028149Y-12651704D01*
X6085292Y-12651704D02*
X6085292Y-12451704D01*
X6085292Y-12451704D02*
X6066245Y-12480275D01*
X6066245Y-12480275D02*
X6047197Y-12499323D01*
X6047197Y-12499323D02*
X6028149Y-12508847D01*
X6380530Y-12651704D02*
X6380530Y-12451704D01*
X6466245Y-12651704D02*
X6466245Y-12546942D01*
X6466245Y-12546942D02*
X6456721Y-12527894D01*
X6456721Y-12527894D02*
X6437673Y-12518370D01*
X6437673Y-12518370D02*
X6409102Y-12518370D01*
X6409102Y-12518370D02*
X6390054Y-12527894D01*
X6390054Y-12527894D02*
X6380530Y-12537418D01*
X6590054Y-12651704D02*
X6571007Y-12642180D01*
X6571007Y-12642180D02*
X6561483Y-12632656D01*
X6561483Y-12632656D02*
X6551959Y-12613608D01*
X6551959Y-12613608D02*
X6551959Y-12556466D01*
X6551959Y-12556466D02*
X6561483Y-12537418D01*
X6561483Y-12537418D02*
X6571007Y-12527894D01*
X6571007Y-12527894D02*
X6590054Y-12518370D01*
X6590054Y-12518370D02*
X6618626Y-12518370D01*
X6618626Y-12518370D02*
X6637673Y-12527894D01*
X6637673Y-12527894D02*
X6647197Y-12537418D01*
X6647197Y-12537418D02*
X6656721Y-12556466D01*
X6656721Y-12556466D02*
X6656721Y-12613608D01*
X6656721Y-12613608D02*
X6647197Y-12632656D01*
X6647197Y-12632656D02*
X6637673Y-12642180D01*
X6637673Y-12642180D02*
X6618626Y-12651704D01*
X6618626Y-12651704D02*
X6590054Y-12651704D01*
X6771007Y-12651704D02*
X6751959Y-12642180D01*
X6751959Y-12642180D02*
X6742435Y-12623132D01*
X6742435Y-12623132D02*
X6742435Y-12451704D01*
X6923388Y-12642180D02*
X6904340Y-12651704D01*
X6904340Y-12651704D02*
X6866245Y-12651704D01*
X6866245Y-12651704D02*
X6847197Y-12642180D01*
X6847197Y-12642180D02*
X6837673Y-12623132D01*
X6837673Y-12623132D02*
X6837673Y-12546942D01*
X6837673Y-12546942D02*
X6847197Y-12527894D01*
X6847197Y-12527894D02*
X6866245Y-12518370D01*
X6866245Y-12518370D02*
X6904340Y-12518370D01*
X6904340Y-12518370D02*
X6923388Y-12527894D01*
X6923388Y-12527894D02*
X6932911Y-12546942D01*
X6932911Y-12546942D02*
X6932911Y-12565989D01*
X6932911Y-12565989D02*
X6837673Y-12585037D01*
X6999578Y-12727894D02*
X7009102Y-12718370D01*
X7009102Y-12718370D02*
X7028150Y-12689799D01*
X7028150Y-12689799D02*
X7037673Y-12670751D01*
X7037673Y-12670751D02*
X7047197Y-12642180D01*
X7047197Y-12642180D02*
X7056721Y-12594561D01*
X7056721Y-12594561D02*
X7056721Y-12556466D01*
X7056721Y-12556466D02*
X7047197Y-12508847D01*
X7047197Y-12508847D02*
X7037673Y-12480275D01*
X7037673Y-12480275D02*
X7028150Y-12461228D01*
X7028150Y-12461228D02*
X7009102Y-12432656D01*
X7009102Y-12432656D02*
X6999578Y-12423132D01*
D13*
X2356420Y-12794220D02*
X2356420Y-12854220D01*
X2326420Y-12824220D02*
X2386420Y-12824220D01*
D11*
X2685292Y-12715704D02*
X2704340Y-12715704D01*
X2704340Y-12715704D02*
X2723387Y-12725228D01*
X2723387Y-12725228D02*
X2732911Y-12734751D01*
X2732911Y-12734751D02*
X2742435Y-12753799D01*
X2742435Y-12753799D02*
X2751959Y-12791894D01*
X2751959Y-12791894D02*
X2751959Y-12839513D01*
X2751959Y-12839513D02*
X2742435Y-12877608D01*
X2742435Y-12877608D02*
X2732911Y-12896656D01*
X2732911Y-12896656D02*
X2723387Y-12906180D01*
X2723387Y-12906180D02*
X2704340Y-12915704D01*
X2704340Y-12915704D02*
X2685292Y-12915704D01*
X2685292Y-12915704D02*
X2666244Y-12906180D01*
X2666244Y-12906180D02*
X2656721Y-12896656D01*
X2656721Y-12896656D02*
X2647197Y-12877608D01*
X2647197Y-12877608D02*
X2637673Y-12839513D01*
X2637673Y-12839513D02*
X2637673Y-12791894D01*
X2637673Y-12791894D02*
X2647197Y-12753799D01*
X2647197Y-12753799D02*
X2656721Y-12734751D01*
X2656721Y-12734751D02*
X2666244Y-12725228D01*
X2666244Y-12725228D02*
X2685292Y-12715704D01*
X2837673Y-12896656D02*
X2847197Y-12906180D01*
X2847197Y-12906180D02*
X2837673Y-12915704D01*
X2837673Y-12915704D02*
X2828149Y-12906180D01*
X2828149Y-12906180D02*
X2837673Y-12896656D01*
X2837673Y-12896656D02*
X2837673Y-12915704D01*
X3018625Y-12715704D02*
X2980530Y-12715704D01*
X2980530Y-12715704D02*
X2961482Y-12725228D01*
X2961482Y-12725228D02*
X2951959Y-12734751D01*
X2951959Y-12734751D02*
X2932911Y-12763323D01*
X2932911Y-12763323D02*
X2923387Y-12801418D01*
X2923387Y-12801418D02*
X2923387Y-12877608D01*
X2923387Y-12877608D02*
X2932911Y-12896656D01*
X2932911Y-12896656D02*
X2942435Y-12906180D01*
X2942435Y-12906180D02*
X2961482Y-12915704D01*
X2961482Y-12915704D02*
X2999578Y-12915704D01*
X2999578Y-12915704D02*
X3018625Y-12906180D01*
X3018625Y-12906180D02*
X3028149Y-12896656D01*
X3028149Y-12896656D02*
X3037673Y-12877608D01*
X3037673Y-12877608D02*
X3037673Y-12829989D01*
X3037673Y-12829989D02*
X3028149Y-12810942D01*
X3028149Y-12810942D02*
X3018625Y-12801418D01*
X3018625Y-12801418D02*
X2999578Y-12791894D01*
X2999578Y-12791894D02*
X2961482Y-12791894D01*
X2961482Y-12791894D02*
X2942435Y-12801418D01*
X2942435Y-12801418D02*
X2932911Y-12810942D01*
X2932911Y-12810942D02*
X2923387Y-12829989D01*
X3161482Y-12715704D02*
X3180530Y-12715704D01*
X3180530Y-12715704D02*
X3199578Y-12725228D01*
X3199578Y-12725228D02*
X3209102Y-12734751D01*
X3209102Y-12734751D02*
X3218625Y-12753799D01*
X3218625Y-12753799D02*
X3228149Y-12791894D01*
X3228149Y-12791894D02*
X3228149Y-12839513D01*
X3228149Y-12839513D02*
X3218625Y-12877608D01*
X3218625Y-12877608D02*
X3209102Y-12896656D01*
X3209102Y-12896656D02*
X3199578Y-12906180D01*
X3199578Y-12906180D02*
X3180530Y-12915704D01*
X3180530Y-12915704D02*
X3161482Y-12915704D01*
X3161482Y-12915704D02*
X3142435Y-12906180D01*
X3142435Y-12906180D02*
X3132911Y-12896656D01*
X3132911Y-12896656D02*
X3123387Y-12877608D01*
X3123387Y-12877608D02*
X3113863Y-12839513D01*
X3113863Y-12839513D02*
X3113863Y-12791894D01*
X3113863Y-12791894D02*
X3123387Y-12753799D01*
X3123387Y-12753799D02*
X3132911Y-12734751D01*
X3132911Y-12734751D02*
X3142435Y-12725228D01*
X3142435Y-12725228D02*
X3161482Y-12715704D01*
X3351959Y-12715704D02*
X3371006Y-12715704D01*
X3371006Y-12715704D02*
X3390054Y-12725228D01*
X3390054Y-12725228D02*
X3399578Y-12734751D01*
X3399578Y-12734751D02*
X3409102Y-12753799D01*
X3409102Y-12753799D02*
X3418625Y-12791894D01*
X3418625Y-12791894D02*
X3418625Y-12839513D01*
X3418625Y-12839513D02*
X3409102Y-12877608D01*
X3409102Y-12877608D02*
X3399578Y-12896656D01*
X3399578Y-12896656D02*
X3390054Y-12906180D01*
X3390054Y-12906180D02*
X3371006Y-12915704D01*
X3371006Y-12915704D02*
X3351959Y-12915704D01*
X3351959Y-12915704D02*
X3332911Y-12906180D01*
X3332911Y-12906180D02*
X3323387Y-12896656D01*
X3323387Y-12896656D02*
X3313863Y-12877608D01*
X3313863Y-12877608D02*
X3304340Y-12839513D01*
X3304340Y-12839513D02*
X3304340Y-12791894D01*
X3304340Y-12791894D02*
X3313863Y-12753799D01*
X3313863Y-12753799D02*
X3323387Y-12734751D01*
X3323387Y-12734751D02*
X3332911Y-12725228D01*
X3332911Y-12725228D02*
X3351959Y-12715704D01*
X3504340Y-12915704D02*
X3504340Y-12782370D01*
X3504340Y-12801418D02*
X3513863Y-12791894D01*
X3513863Y-12791894D02*
X3532911Y-12782370D01*
X3532911Y-12782370D02*
X3561483Y-12782370D01*
X3561483Y-12782370D02*
X3580530Y-12791894D01*
X3580530Y-12791894D02*
X3590054Y-12810942D01*
X3590054Y-12810942D02*
X3590054Y-12915704D01*
X3590054Y-12810942D02*
X3599578Y-12791894D01*
X3599578Y-12791894D02*
X3618625Y-12782370D01*
X3618625Y-12782370D02*
X3647197Y-12782370D01*
X3647197Y-12782370D02*
X3666244Y-12791894D01*
X3666244Y-12791894D02*
X3675768Y-12810942D01*
X3675768Y-12810942D02*
X3675768Y-12915704D01*
X3771006Y-12915704D02*
X3771006Y-12782370D01*
X3771006Y-12801418D02*
X3780530Y-12791894D01*
X3780530Y-12791894D02*
X3799578Y-12782370D01*
X3799578Y-12782370D02*
X3828149Y-12782370D01*
X3828149Y-12782370D02*
X3847197Y-12791894D01*
X3847197Y-12791894D02*
X3856721Y-12810942D01*
X3856721Y-12810942D02*
X3856721Y-12915704D01*
X3856721Y-12810942D02*
X3866244Y-12791894D01*
X3866244Y-12791894D02*
X3885292Y-12782370D01*
X3885292Y-12782370D02*
X3913863Y-12782370D01*
X3913863Y-12782370D02*
X3932911Y-12791894D01*
X3932911Y-12791894D02*
X3942435Y-12810942D01*
X3942435Y-12810942D02*
X3942435Y-12915704D01*
X4332911Y-12706180D02*
X4161483Y-12963323D01*
X4590054Y-12715704D02*
X4609102Y-12715704D01*
X4609102Y-12715704D02*
X4628149Y-12725228D01*
X4628149Y-12725228D02*
X4637673Y-12734751D01*
X4637673Y-12734751D02*
X4647197Y-12753799D01*
X4647197Y-12753799D02*
X4656721Y-12791894D01*
X4656721Y-12791894D02*
X4656721Y-12839513D01*
X4656721Y-12839513D02*
X4647197Y-12877608D01*
X4647197Y-12877608D02*
X4637673Y-12896656D01*
X4637673Y-12896656D02*
X4628149Y-12906180D01*
X4628149Y-12906180D02*
X4609102Y-12915704D01*
X4609102Y-12915704D02*
X4590054Y-12915704D01*
X4590054Y-12915704D02*
X4571007Y-12906180D01*
X4571007Y-12906180D02*
X4561483Y-12896656D01*
X4561483Y-12896656D02*
X4551959Y-12877608D01*
X4551959Y-12877608D02*
X4542435Y-12839513D01*
X4542435Y-12839513D02*
X4542435Y-12791894D01*
X4542435Y-12791894D02*
X4551959Y-12753799D01*
X4551959Y-12753799D02*
X4561483Y-12734751D01*
X4561483Y-12734751D02*
X4571007Y-12725228D01*
X4571007Y-12725228D02*
X4590054Y-12715704D01*
X4742435Y-12896656D02*
X4751959Y-12906180D01*
X4751959Y-12906180D02*
X4742435Y-12915704D01*
X4742435Y-12915704D02*
X4732911Y-12906180D01*
X4732911Y-12906180D02*
X4742435Y-12896656D01*
X4742435Y-12896656D02*
X4742435Y-12915704D01*
X4875768Y-12715704D02*
X4894816Y-12715704D01*
X4894816Y-12715704D02*
X4913864Y-12725228D01*
X4913864Y-12725228D02*
X4923388Y-12734751D01*
X4923388Y-12734751D02*
X4932911Y-12753799D01*
X4932911Y-12753799D02*
X4942435Y-12791894D01*
X4942435Y-12791894D02*
X4942435Y-12839513D01*
X4942435Y-12839513D02*
X4932911Y-12877608D01*
X4932911Y-12877608D02*
X4923388Y-12896656D01*
X4923388Y-12896656D02*
X4913864Y-12906180D01*
X4913864Y-12906180D02*
X4894816Y-12915704D01*
X4894816Y-12915704D02*
X4875768Y-12915704D01*
X4875768Y-12915704D02*
X4856721Y-12906180D01*
X4856721Y-12906180D02*
X4847197Y-12896656D01*
X4847197Y-12896656D02*
X4837673Y-12877608D01*
X4837673Y-12877608D02*
X4828149Y-12839513D01*
X4828149Y-12839513D02*
X4828149Y-12791894D01*
X4828149Y-12791894D02*
X4837673Y-12753799D01*
X4837673Y-12753799D02*
X4847197Y-12734751D01*
X4847197Y-12734751D02*
X4856721Y-12725228D01*
X4856721Y-12725228D02*
X4875768Y-12715704D01*
X5018626Y-12734751D02*
X5028149Y-12725228D01*
X5028149Y-12725228D02*
X5047197Y-12715704D01*
X5047197Y-12715704D02*
X5094816Y-12715704D01*
X5094816Y-12715704D02*
X5113864Y-12725228D01*
X5113864Y-12725228D02*
X5123388Y-12734751D01*
X5123388Y-12734751D02*
X5132911Y-12753799D01*
X5132911Y-12753799D02*
X5132911Y-12772847D01*
X5132911Y-12772847D02*
X5123388Y-12801418D01*
X5123388Y-12801418D02*
X5009102Y-12915704D01*
X5009102Y-12915704D02*
X5132911Y-12915704D01*
X5199578Y-12715704D02*
X5323388Y-12715704D01*
X5323388Y-12715704D02*
X5256721Y-12791894D01*
X5256721Y-12791894D02*
X5285292Y-12791894D01*
X5285292Y-12791894D02*
X5304340Y-12801418D01*
X5304340Y-12801418D02*
X5313864Y-12810942D01*
X5313864Y-12810942D02*
X5323388Y-12829989D01*
X5323388Y-12829989D02*
X5323388Y-12877608D01*
X5323388Y-12877608D02*
X5313864Y-12896656D01*
X5313864Y-12896656D02*
X5304340Y-12906180D01*
X5304340Y-12906180D02*
X5285292Y-12915704D01*
X5285292Y-12915704D02*
X5228149Y-12915704D01*
X5228149Y-12915704D02*
X5209102Y-12906180D01*
X5209102Y-12906180D02*
X5199578Y-12896656D01*
X5494816Y-12715704D02*
X5456721Y-12715704D01*
X5456721Y-12715704D02*
X5437673Y-12725228D01*
X5437673Y-12725228D02*
X5428149Y-12734751D01*
X5428149Y-12734751D02*
X5409102Y-12763323D01*
X5409102Y-12763323D02*
X5399578Y-12801418D01*
X5399578Y-12801418D02*
X5399578Y-12877608D01*
X5399578Y-12877608D02*
X5409102Y-12896656D01*
X5409102Y-12896656D02*
X5418626Y-12906180D01*
X5418626Y-12906180D02*
X5437673Y-12915704D01*
X5437673Y-12915704D02*
X5475769Y-12915704D01*
X5475769Y-12915704D02*
X5494816Y-12906180D01*
X5494816Y-12906180D02*
X5504340Y-12896656D01*
X5504340Y-12896656D02*
X5513864Y-12877608D01*
X5513864Y-12877608D02*
X5513864Y-12829989D01*
X5513864Y-12829989D02*
X5504340Y-12810942D01*
X5504340Y-12810942D02*
X5494816Y-12801418D01*
X5494816Y-12801418D02*
X5475769Y-12791894D01*
X5475769Y-12791894D02*
X5437673Y-12791894D01*
X5437673Y-12791894D02*
X5418626Y-12801418D01*
X5418626Y-12801418D02*
X5409102Y-12810942D01*
X5409102Y-12810942D02*
X5399578Y-12829989D01*
X5590054Y-12715704D02*
X5590054Y-12753799D01*
X5666245Y-12715704D02*
X5666245Y-12753799D01*
X5961483Y-12991894D02*
X5951959Y-12982370D01*
X5951959Y-12982370D02*
X5932911Y-12953799D01*
X5932911Y-12953799D02*
X5923388Y-12934751D01*
X5923388Y-12934751D02*
X5913864Y-12906180D01*
X5913864Y-12906180D02*
X5904340Y-12858561D01*
X5904340Y-12858561D02*
X5904340Y-12820466D01*
X5904340Y-12820466D02*
X5913864Y-12772847D01*
X5913864Y-12772847D02*
X5923388Y-12744275D01*
X5923388Y-12744275D02*
X5932911Y-12725228D01*
X5932911Y-12725228D02*
X5951959Y-12696656D01*
X5951959Y-12696656D02*
X5961483Y-12687132D01*
X6075768Y-12715704D02*
X6094816Y-12715704D01*
X6094816Y-12715704D02*
X6113864Y-12725228D01*
X6113864Y-12725228D02*
X6123388Y-12734751D01*
X6123388Y-12734751D02*
X6132911Y-12753799D01*
X6132911Y-12753799D02*
X6142435Y-12791894D01*
X6142435Y-12791894D02*
X6142435Y-12839513D01*
X6142435Y-12839513D02*
X6132911Y-12877608D01*
X6132911Y-12877608D02*
X6123388Y-12896656D01*
X6123388Y-12896656D02*
X6113864Y-12906180D01*
X6113864Y-12906180D02*
X6094816Y-12915704D01*
X6094816Y-12915704D02*
X6075768Y-12915704D01*
X6075768Y-12915704D02*
X6056721Y-12906180D01*
X6056721Y-12906180D02*
X6047197Y-12896656D01*
X6047197Y-12896656D02*
X6037673Y-12877608D01*
X6037673Y-12877608D02*
X6028149Y-12839513D01*
X6028149Y-12839513D02*
X6028149Y-12791894D01*
X6028149Y-12791894D02*
X6037673Y-12753799D01*
X6037673Y-12753799D02*
X6047197Y-12734751D01*
X6047197Y-12734751D02*
X6056721Y-12725228D01*
X6056721Y-12725228D02*
X6075768Y-12715704D01*
X6380530Y-12915704D02*
X6380530Y-12715704D01*
X6466245Y-12915704D02*
X6466245Y-12810942D01*
X6466245Y-12810942D02*
X6456721Y-12791894D01*
X6456721Y-12791894D02*
X6437673Y-12782370D01*
X6437673Y-12782370D02*
X6409102Y-12782370D01*
X6409102Y-12782370D02*
X6390054Y-12791894D01*
X6390054Y-12791894D02*
X6380530Y-12801418D01*
X6590054Y-12915704D02*
X6571007Y-12906180D01*
X6571007Y-12906180D02*
X6561483Y-12896656D01*
X6561483Y-12896656D02*
X6551959Y-12877608D01*
X6551959Y-12877608D02*
X6551959Y-12820466D01*
X6551959Y-12820466D02*
X6561483Y-12801418D01*
X6561483Y-12801418D02*
X6571007Y-12791894D01*
X6571007Y-12791894D02*
X6590054Y-12782370D01*
X6590054Y-12782370D02*
X6618626Y-12782370D01*
X6618626Y-12782370D02*
X6637673Y-12791894D01*
X6637673Y-12791894D02*
X6647197Y-12801418D01*
X6647197Y-12801418D02*
X6656721Y-12820466D01*
X6656721Y-12820466D02*
X6656721Y-12877608D01*
X6656721Y-12877608D02*
X6647197Y-12896656D01*
X6647197Y-12896656D02*
X6637673Y-12906180D01*
X6637673Y-12906180D02*
X6618626Y-12915704D01*
X6618626Y-12915704D02*
X6590054Y-12915704D01*
X6771007Y-12915704D02*
X6751959Y-12906180D01*
X6751959Y-12906180D02*
X6742435Y-12887132D01*
X6742435Y-12887132D02*
X6742435Y-12715704D01*
X6923388Y-12906180D02*
X6904340Y-12915704D01*
X6904340Y-12915704D02*
X6866245Y-12915704D01*
X6866245Y-12915704D02*
X6847197Y-12906180D01*
X6847197Y-12906180D02*
X6837673Y-12887132D01*
X6837673Y-12887132D02*
X6837673Y-12810942D01*
X6837673Y-12810942D02*
X6847197Y-12791894D01*
X6847197Y-12791894D02*
X6866245Y-12782370D01*
X6866245Y-12782370D02*
X6904340Y-12782370D01*
X6904340Y-12782370D02*
X6923388Y-12791894D01*
X6923388Y-12791894D02*
X6932911Y-12810942D01*
X6932911Y-12810942D02*
X6932911Y-12829989D01*
X6932911Y-12829989D02*
X6837673Y-12849037D01*
X7009102Y-12906180D02*
X7028150Y-12915704D01*
X7028150Y-12915704D02*
X7066245Y-12915704D01*
X7066245Y-12915704D02*
X7085292Y-12906180D01*
X7085292Y-12906180D02*
X7094816Y-12887132D01*
X7094816Y-12887132D02*
X7094816Y-12877608D01*
X7094816Y-12877608D02*
X7085292Y-12858561D01*
X7085292Y-12858561D02*
X7066245Y-12849037D01*
X7066245Y-12849037D02*
X7037673Y-12849037D01*
X7037673Y-12849037D02*
X7018626Y-12839513D01*
X7018626Y-12839513D02*
X7009102Y-12820466D01*
X7009102Y-12820466D02*
X7009102Y-12810942D01*
X7009102Y-12810942D02*
X7018626Y-12791894D01*
X7018626Y-12791894D02*
X7037673Y-12782370D01*
X7037673Y-12782370D02*
X7066245Y-12782370D01*
X7066245Y-12782370D02*
X7085292Y-12791894D01*
X7332912Y-12839513D02*
X7485293Y-12839513D01*
X7409102Y-12915704D02*
X7409102Y-12763323D01*
X7818626Y-12782370D02*
X7818626Y-12915704D01*
X7771007Y-12706180D02*
X7723388Y-12849037D01*
X7723388Y-12849037D02*
X7847197Y-12849037D01*
X8066245Y-12906180D02*
X8085293Y-12915704D01*
X8085293Y-12915704D02*
X8123388Y-12915704D01*
X8123388Y-12915704D02*
X8142435Y-12906180D01*
X8142435Y-12906180D02*
X8151959Y-12887132D01*
X8151959Y-12887132D02*
X8151959Y-12877608D01*
X8151959Y-12877608D02*
X8142435Y-12858561D01*
X8142435Y-12858561D02*
X8123388Y-12849037D01*
X8123388Y-12849037D02*
X8094816Y-12849037D01*
X8094816Y-12849037D02*
X8075769Y-12839513D01*
X8075769Y-12839513D02*
X8066245Y-12820466D01*
X8066245Y-12820466D02*
X8066245Y-12810942D01*
X8066245Y-12810942D02*
X8075769Y-12791894D01*
X8075769Y-12791894D02*
X8094816Y-12782370D01*
X8094816Y-12782370D02*
X8123388Y-12782370D01*
X8123388Y-12782370D02*
X8142435Y-12791894D01*
X8266245Y-12915704D02*
X8247197Y-12906180D01*
X8247197Y-12906180D02*
X8237674Y-12887132D01*
X8237674Y-12887132D02*
X8237674Y-12715704D01*
X8371007Y-12915704D02*
X8351959Y-12906180D01*
X8351959Y-12906180D02*
X8342435Y-12896656D01*
X8342435Y-12896656D02*
X8332912Y-12877608D01*
X8332912Y-12877608D02*
X8332912Y-12820466D01*
X8332912Y-12820466D02*
X8342435Y-12801418D01*
X8342435Y-12801418D02*
X8351959Y-12791894D01*
X8351959Y-12791894D02*
X8371007Y-12782370D01*
X8371007Y-12782370D02*
X8399578Y-12782370D01*
X8399578Y-12782370D02*
X8418626Y-12791894D01*
X8418626Y-12791894D02*
X8428150Y-12801418D01*
X8428150Y-12801418D02*
X8437674Y-12820466D01*
X8437674Y-12820466D02*
X8437674Y-12877608D01*
X8437674Y-12877608D02*
X8428150Y-12896656D01*
X8428150Y-12896656D02*
X8418626Y-12906180D01*
X8418626Y-12906180D02*
X8399578Y-12915704D01*
X8399578Y-12915704D02*
X8371007Y-12915704D01*
X8494817Y-12782370D02*
X8571007Y-12782370D01*
X8523388Y-12715704D02*
X8523388Y-12887132D01*
X8523388Y-12887132D02*
X8532912Y-12906180D01*
X8532912Y-12906180D02*
X8551959Y-12915704D01*
X8551959Y-12915704D02*
X8571007Y-12915704D01*
X8628150Y-12906180D02*
X8647197Y-12915704D01*
X8647197Y-12915704D02*
X8685293Y-12915704D01*
X8685293Y-12915704D02*
X8704340Y-12906180D01*
X8704340Y-12906180D02*
X8713864Y-12887132D01*
X8713864Y-12887132D02*
X8713864Y-12877608D01*
X8713864Y-12877608D02*
X8704340Y-12858561D01*
X8704340Y-12858561D02*
X8685293Y-12849037D01*
X8685293Y-12849037D02*
X8656721Y-12849037D01*
X8656721Y-12849037D02*
X8637674Y-12839513D01*
X8637674Y-12839513D02*
X8628150Y-12820466D01*
X8628150Y-12820466D02*
X8628150Y-12810942D01*
X8628150Y-12810942D02*
X8637674Y-12791894D01*
X8637674Y-12791894D02*
X8656721Y-12782370D01*
X8656721Y-12782370D02*
X8685293Y-12782370D01*
X8685293Y-12782370D02*
X8704340Y-12791894D01*
X8780531Y-12991894D02*
X8790055Y-12982370D01*
X8790055Y-12982370D02*
X8809102Y-12953799D01*
X8809102Y-12953799D02*
X8818626Y-12934751D01*
X8818626Y-12934751D02*
X8828150Y-12906180D01*
X8828150Y-12906180D02*
X8837674Y-12858561D01*
X8837674Y-12858561D02*
X8837674Y-12820466D01*
X8837674Y-12820466D02*
X8828150Y-12772847D01*
X8828150Y-12772847D02*
X8818626Y-12744275D01*
X8818626Y-12744275D02*
X8809102Y-12725228D01*
X8809102Y-12725228D02*
X8790055Y-12696656D01*
X8790055Y-12696656D02*
X8780531Y-12687132D01*
D14*
X2374705Y-13116504D02*
X2374705Y-13059935D01*
X2318136Y-13059935D01*
X2318136Y-13116504D01*
X2374705Y-13116504D01*
D11*
X2685292Y-12979704D02*
X2704340Y-12979704D01*
X2704340Y-12979704D02*
X2723387Y-12989228D01*
X2723387Y-12989228D02*
X2732911Y-12998751D01*
X2732911Y-12998751D02*
X2742435Y-13017799D01*
X2742435Y-13017799D02*
X2751959Y-13055894D01*
X2751959Y-13055894D02*
X2751959Y-13103513D01*
X2751959Y-13103513D02*
X2742435Y-13141608D01*
X2742435Y-13141608D02*
X2732911Y-13160656D01*
X2732911Y-13160656D02*
X2723387Y-13170180D01*
X2723387Y-13170180D02*
X2704340Y-13179704D01*
X2704340Y-13179704D02*
X2685292Y-13179704D01*
X2685292Y-13179704D02*
X2666244Y-13170180D01*
X2666244Y-13170180D02*
X2656721Y-13160656D01*
X2656721Y-13160656D02*
X2647197Y-13141608D01*
X2647197Y-13141608D02*
X2637673Y-13103513D01*
X2637673Y-13103513D02*
X2637673Y-13055894D01*
X2637673Y-13055894D02*
X2647197Y-13017799D01*
X2647197Y-13017799D02*
X2656721Y-12998751D01*
X2656721Y-12998751D02*
X2666244Y-12989228D01*
X2666244Y-12989228D02*
X2685292Y-12979704D01*
X2837673Y-13160656D02*
X2847197Y-13170180D01*
X2847197Y-13170180D02*
X2837673Y-13179704D01*
X2837673Y-13179704D02*
X2828149Y-13170180D01*
X2828149Y-13170180D02*
X2837673Y-13160656D01*
X2837673Y-13160656D02*
X2837673Y-13179704D01*
X2961482Y-13065418D02*
X2942435Y-13055894D01*
X2942435Y-13055894D02*
X2932911Y-13046370D01*
X2932911Y-13046370D02*
X2923387Y-13027323D01*
X2923387Y-13027323D02*
X2923387Y-13017799D01*
X2923387Y-13017799D02*
X2932911Y-12998751D01*
X2932911Y-12998751D02*
X2942435Y-12989228D01*
X2942435Y-12989228D02*
X2961482Y-12979704D01*
X2961482Y-12979704D02*
X2999578Y-12979704D01*
X2999578Y-12979704D02*
X3018625Y-12989228D01*
X3018625Y-12989228D02*
X3028149Y-12998751D01*
X3028149Y-12998751D02*
X3037673Y-13017799D01*
X3037673Y-13017799D02*
X3037673Y-13027323D01*
X3037673Y-13027323D02*
X3028149Y-13046370D01*
X3028149Y-13046370D02*
X3018625Y-13055894D01*
X3018625Y-13055894D02*
X2999578Y-13065418D01*
X2999578Y-13065418D02*
X2961482Y-13065418D01*
X2961482Y-13065418D02*
X2942435Y-13074942D01*
X2942435Y-13074942D02*
X2932911Y-13084466D01*
X2932911Y-13084466D02*
X2923387Y-13103513D01*
X2923387Y-13103513D02*
X2923387Y-13141608D01*
X2923387Y-13141608D02*
X2932911Y-13160656D01*
X2932911Y-13160656D02*
X2942435Y-13170180D01*
X2942435Y-13170180D02*
X2961482Y-13179704D01*
X2961482Y-13179704D02*
X2999578Y-13179704D01*
X2999578Y-13179704D02*
X3018625Y-13170180D01*
X3018625Y-13170180D02*
X3028149Y-13160656D01*
X3028149Y-13160656D02*
X3037673Y-13141608D01*
X3037673Y-13141608D02*
X3037673Y-13103513D01*
X3037673Y-13103513D02*
X3028149Y-13084466D01*
X3028149Y-13084466D02*
X3018625Y-13074942D01*
X3018625Y-13074942D02*
X2999578Y-13065418D01*
X3161482Y-12979704D02*
X3180530Y-12979704D01*
X3180530Y-12979704D02*
X3199578Y-12989228D01*
X3199578Y-12989228D02*
X3209102Y-12998751D01*
X3209102Y-12998751D02*
X3218625Y-13017799D01*
X3218625Y-13017799D02*
X3228149Y-13055894D01*
X3228149Y-13055894D02*
X3228149Y-13103513D01*
X3228149Y-13103513D02*
X3218625Y-13141608D01*
X3218625Y-13141608D02*
X3209102Y-13160656D01*
X3209102Y-13160656D02*
X3199578Y-13170180D01*
X3199578Y-13170180D02*
X3180530Y-13179704D01*
X3180530Y-13179704D02*
X3161482Y-13179704D01*
X3161482Y-13179704D02*
X3142435Y-13170180D01*
X3142435Y-13170180D02*
X3132911Y-13160656D01*
X3132911Y-13160656D02*
X3123387Y-13141608D01*
X3123387Y-13141608D02*
X3113863Y-13103513D01*
X3113863Y-13103513D02*
X3113863Y-13055894D01*
X3113863Y-13055894D02*
X3123387Y-13017799D01*
X3123387Y-13017799D02*
X3132911Y-12998751D01*
X3132911Y-12998751D02*
X3142435Y-12989228D01*
X3142435Y-12989228D02*
X3161482Y-12979704D01*
X3351959Y-12979704D02*
X3371006Y-12979704D01*
X3371006Y-12979704D02*
X3390054Y-12989228D01*
X3390054Y-12989228D02*
X3399578Y-12998751D01*
X3399578Y-12998751D02*
X3409102Y-13017799D01*
X3409102Y-13017799D02*
X3418625Y-13055894D01*
X3418625Y-13055894D02*
X3418625Y-13103513D01*
X3418625Y-13103513D02*
X3409102Y-13141608D01*
X3409102Y-13141608D02*
X3399578Y-13160656D01*
X3399578Y-13160656D02*
X3390054Y-13170180D01*
X3390054Y-13170180D02*
X3371006Y-13179704D01*
X3371006Y-13179704D02*
X3351959Y-13179704D01*
X3351959Y-13179704D02*
X3332911Y-13170180D01*
X3332911Y-13170180D02*
X3323387Y-13160656D01*
X3323387Y-13160656D02*
X3313863Y-13141608D01*
X3313863Y-13141608D02*
X3304340Y-13103513D01*
X3304340Y-13103513D02*
X3304340Y-13055894D01*
X3304340Y-13055894D02*
X3313863Y-13017799D01*
X3313863Y-13017799D02*
X3323387Y-12998751D01*
X3323387Y-12998751D02*
X3332911Y-12989228D01*
X3332911Y-12989228D02*
X3351959Y-12979704D01*
X3504340Y-13179704D02*
X3504340Y-13046370D01*
X3504340Y-13065418D02*
X3513863Y-13055894D01*
X3513863Y-13055894D02*
X3532911Y-13046370D01*
X3532911Y-13046370D02*
X3561483Y-13046370D01*
X3561483Y-13046370D02*
X3580530Y-13055894D01*
X3580530Y-13055894D02*
X3590054Y-13074942D01*
X3590054Y-13074942D02*
X3590054Y-13179704D01*
X3590054Y-13074942D02*
X3599578Y-13055894D01*
X3599578Y-13055894D02*
X3618625Y-13046370D01*
X3618625Y-13046370D02*
X3647197Y-13046370D01*
X3647197Y-13046370D02*
X3666244Y-13055894D01*
X3666244Y-13055894D02*
X3675768Y-13074942D01*
X3675768Y-13074942D02*
X3675768Y-13179704D01*
X3771006Y-13179704D02*
X3771006Y-13046370D01*
X3771006Y-13065418D02*
X3780530Y-13055894D01*
X3780530Y-13055894D02*
X3799578Y-13046370D01*
X3799578Y-13046370D02*
X3828149Y-13046370D01*
X3828149Y-13046370D02*
X3847197Y-13055894D01*
X3847197Y-13055894D02*
X3856721Y-13074942D01*
X3856721Y-13074942D02*
X3856721Y-13179704D01*
X3856721Y-13074942D02*
X3866244Y-13055894D01*
X3866244Y-13055894D02*
X3885292Y-13046370D01*
X3885292Y-13046370D02*
X3913863Y-13046370D01*
X3913863Y-13046370D02*
X3932911Y-13055894D01*
X3932911Y-13055894D02*
X3942435Y-13074942D01*
X3942435Y-13074942D02*
X3942435Y-13179704D01*
X4332911Y-12970180D02*
X4161483Y-13227323D01*
X4590054Y-12979704D02*
X4609102Y-12979704D01*
X4609102Y-12979704D02*
X4628149Y-12989228D01*
X4628149Y-12989228D02*
X4637673Y-12998751D01*
X4637673Y-12998751D02*
X4647197Y-13017799D01*
X4647197Y-13017799D02*
X4656721Y-13055894D01*
X4656721Y-13055894D02*
X4656721Y-13103513D01*
X4656721Y-13103513D02*
X4647197Y-13141608D01*
X4647197Y-13141608D02*
X4637673Y-13160656D01*
X4637673Y-13160656D02*
X4628149Y-13170180D01*
X4628149Y-13170180D02*
X4609102Y-13179704D01*
X4609102Y-13179704D02*
X4590054Y-13179704D01*
X4590054Y-13179704D02*
X4571007Y-13170180D01*
X4571007Y-13170180D02*
X4561483Y-13160656D01*
X4561483Y-13160656D02*
X4551959Y-13141608D01*
X4551959Y-13141608D02*
X4542435Y-13103513D01*
X4542435Y-13103513D02*
X4542435Y-13055894D01*
X4542435Y-13055894D02*
X4551959Y-13017799D01*
X4551959Y-13017799D02*
X4561483Y-12998751D01*
X4561483Y-12998751D02*
X4571007Y-12989228D01*
X4571007Y-12989228D02*
X4590054Y-12979704D01*
X4742435Y-13160656D02*
X4751959Y-13170180D01*
X4751959Y-13170180D02*
X4742435Y-13179704D01*
X4742435Y-13179704D02*
X4732911Y-13170180D01*
X4732911Y-13170180D02*
X4742435Y-13160656D01*
X4742435Y-13160656D02*
X4742435Y-13179704D01*
X4875768Y-12979704D02*
X4894816Y-12979704D01*
X4894816Y-12979704D02*
X4913864Y-12989228D01*
X4913864Y-12989228D02*
X4923388Y-12998751D01*
X4923388Y-12998751D02*
X4932911Y-13017799D01*
X4932911Y-13017799D02*
X4942435Y-13055894D01*
X4942435Y-13055894D02*
X4942435Y-13103513D01*
X4942435Y-13103513D02*
X4932911Y-13141608D01*
X4932911Y-13141608D02*
X4923388Y-13160656D01*
X4923388Y-13160656D02*
X4913864Y-13170180D01*
X4913864Y-13170180D02*
X4894816Y-13179704D01*
X4894816Y-13179704D02*
X4875768Y-13179704D01*
X4875768Y-13179704D02*
X4856721Y-13170180D01*
X4856721Y-13170180D02*
X4847197Y-13160656D01*
X4847197Y-13160656D02*
X4837673Y-13141608D01*
X4837673Y-13141608D02*
X4828149Y-13103513D01*
X4828149Y-13103513D02*
X4828149Y-13055894D01*
X4828149Y-13055894D02*
X4837673Y-13017799D01*
X4837673Y-13017799D02*
X4847197Y-12998751D01*
X4847197Y-12998751D02*
X4856721Y-12989228D01*
X4856721Y-12989228D02*
X4875768Y-12979704D01*
X5009102Y-12979704D02*
X5132911Y-12979704D01*
X5132911Y-12979704D02*
X5066245Y-13055894D01*
X5066245Y-13055894D02*
X5094816Y-13055894D01*
X5094816Y-13055894D02*
X5113864Y-13065418D01*
X5113864Y-13065418D02*
X5123388Y-13074942D01*
X5123388Y-13074942D02*
X5132911Y-13093989D01*
X5132911Y-13093989D02*
X5132911Y-13141608D01*
X5132911Y-13141608D02*
X5123388Y-13160656D01*
X5123388Y-13160656D02*
X5113864Y-13170180D01*
X5113864Y-13170180D02*
X5094816Y-13179704D01*
X5094816Y-13179704D02*
X5037673Y-13179704D01*
X5037673Y-13179704D02*
X5018626Y-13170180D01*
X5018626Y-13170180D02*
X5009102Y-13160656D01*
X5323388Y-13179704D02*
X5209102Y-13179704D01*
X5266245Y-13179704D02*
X5266245Y-12979704D01*
X5266245Y-12979704D02*
X5247197Y-13008275D01*
X5247197Y-13008275D02*
X5228149Y-13027323D01*
X5228149Y-13027323D02*
X5209102Y-13036847D01*
X5504340Y-12979704D02*
X5409102Y-12979704D01*
X5409102Y-12979704D02*
X5399578Y-13074942D01*
X5399578Y-13074942D02*
X5409102Y-13065418D01*
X5409102Y-13065418D02*
X5428149Y-13055894D01*
X5428149Y-13055894D02*
X5475769Y-13055894D01*
X5475769Y-13055894D02*
X5494816Y-13065418D01*
X5494816Y-13065418D02*
X5504340Y-13074942D01*
X5504340Y-13074942D02*
X5513864Y-13093989D01*
X5513864Y-13093989D02*
X5513864Y-13141608D01*
X5513864Y-13141608D02*
X5504340Y-13160656D01*
X5504340Y-13160656D02*
X5494816Y-13170180D01*
X5494816Y-13170180D02*
X5475769Y-13179704D01*
X5475769Y-13179704D02*
X5428149Y-13179704D01*
X5428149Y-13179704D02*
X5409102Y-13170180D01*
X5409102Y-13170180D02*
X5399578Y-13160656D01*
X5590054Y-12979704D02*
X5590054Y-13017799D01*
X5666245Y-12979704D02*
X5666245Y-13017799D01*
X5961483Y-13255894D02*
X5951959Y-13246370D01*
X5951959Y-13246370D02*
X5932911Y-13217799D01*
X5932911Y-13217799D02*
X5923388Y-13198751D01*
X5923388Y-13198751D02*
X5913864Y-13170180D01*
X5913864Y-13170180D02*
X5904340Y-13122561D01*
X5904340Y-13122561D02*
X5904340Y-13084466D01*
X5904340Y-13084466D02*
X5913864Y-13036847D01*
X5913864Y-13036847D02*
X5923388Y-13008275D01*
X5923388Y-13008275D02*
X5932911Y-12989228D01*
X5932911Y-12989228D02*
X5951959Y-12960656D01*
X5951959Y-12960656D02*
X5961483Y-12951132D01*
X6018626Y-12979704D02*
X6151959Y-12979704D01*
X6151959Y-12979704D02*
X6066245Y-13179704D01*
X6266245Y-12979704D02*
X6285292Y-12979704D01*
X6285292Y-12979704D02*
X6304340Y-12989228D01*
X6304340Y-12989228D02*
X6313864Y-12998751D01*
X6313864Y-12998751D02*
X6323388Y-13017799D01*
X6323388Y-13017799D02*
X6332911Y-13055894D01*
X6332911Y-13055894D02*
X6332911Y-13103513D01*
X6332911Y-13103513D02*
X6323388Y-13141608D01*
X6323388Y-13141608D02*
X6313864Y-13160656D01*
X6313864Y-13160656D02*
X6304340Y-13170180D01*
X6304340Y-13170180D02*
X6285292Y-13179704D01*
X6285292Y-13179704D02*
X6266245Y-13179704D01*
X6266245Y-13179704D02*
X6247197Y-13170180D01*
X6247197Y-13170180D02*
X6237673Y-13160656D01*
X6237673Y-13160656D02*
X6228149Y-13141608D01*
X6228149Y-13141608D02*
X6218626Y-13103513D01*
X6218626Y-13103513D02*
X6218626Y-13055894D01*
X6218626Y-13055894D02*
X6228149Y-13017799D01*
X6228149Y-13017799D02*
X6237673Y-12998751D01*
X6237673Y-12998751D02*
X6247197Y-12989228D01*
X6247197Y-12989228D02*
X6266245Y-12979704D01*
X6571007Y-13179704D02*
X6571007Y-12979704D01*
X6656721Y-13179704D02*
X6656721Y-13074942D01*
X6656721Y-13074942D02*
X6647197Y-13055894D01*
X6647197Y-13055894D02*
X6628150Y-13046370D01*
X6628150Y-13046370D02*
X6599578Y-13046370D01*
X6599578Y-13046370D02*
X6580530Y-13055894D01*
X6580530Y-13055894D02*
X6571007Y-13065418D01*
X6780530Y-13179704D02*
X6761483Y-13170180D01*
X6761483Y-13170180D02*
X6751959Y-13160656D01*
X6751959Y-13160656D02*
X6742435Y-13141608D01*
X6742435Y-13141608D02*
X6742435Y-13084466D01*
X6742435Y-13084466D02*
X6751959Y-13065418D01*
X6751959Y-13065418D02*
X6761483Y-13055894D01*
X6761483Y-13055894D02*
X6780530Y-13046370D01*
X6780530Y-13046370D02*
X6809102Y-13046370D01*
X6809102Y-13046370D02*
X6828150Y-13055894D01*
X6828150Y-13055894D02*
X6837673Y-13065418D01*
X6837673Y-13065418D02*
X6847197Y-13084466D01*
X6847197Y-13084466D02*
X6847197Y-13141608D01*
X6847197Y-13141608D02*
X6837673Y-13160656D01*
X6837673Y-13160656D02*
X6828150Y-13170180D01*
X6828150Y-13170180D02*
X6809102Y-13179704D01*
X6809102Y-13179704D02*
X6780530Y-13179704D01*
X6961483Y-13179704D02*
X6942435Y-13170180D01*
X6942435Y-13170180D02*
X6932911Y-13151132D01*
X6932911Y-13151132D02*
X6932911Y-12979704D01*
X7113864Y-13170180D02*
X7094816Y-13179704D01*
X7094816Y-13179704D02*
X7056721Y-13179704D01*
X7056721Y-13179704D02*
X7037673Y-13170180D01*
X7037673Y-13170180D02*
X7028150Y-13151132D01*
X7028150Y-13151132D02*
X7028150Y-13074942D01*
X7028150Y-13074942D02*
X7037673Y-13055894D01*
X7037673Y-13055894D02*
X7056721Y-13046370D01*
X7056721Y-13046370D02*
X7094816Y-13046370D01*
X7094816Y-13046370D02*
X7113864Y-13055894D01*
X7113864Y-13055894D02*
X7123388Y-13074942D01*
X7123388Y-13074942D02*
X7123388Y-13093989D01*
X7123388Y-13093989D02*
X7028150Y-13113037D01*
X7199578Y-13170180D02*
X7218626Y-13179704D01*
X7218626Y-13179704D02*
X7256721Y-13179704D01*
X7256721Y-13179704D02*
X7275769Y-13170180D01*
X7275769Y-13170180D02*
X7285292Y-13151132D01*
X7285292Y-13151132D02*
X7285292Y-13141608D01*
X7285292Y-13141608D02*
X7275769Y-13122561D01*
X7275769Y-13122561D02*
X7256721Y-13113037D01*
X7256721Y-13113037D02*
X7228150Y-13113037D01*
X7228150Y-13113037D02*
X7209102Y-13103513D01*
X7209102Y-13103513D02*
X7199578Y-13084466D01*
X7199578Y-13084466D02*
X7199578Y-13074942D01*
X7199578Y-13074942D02*
X7209102Y-13055894D01*
X7209102Y-13055894D02*
X7228150Y-13046370D01*
X7228150Y-13046370D02*
X7256721Y-13046370D01*
X7256721Y-13046370D02*
X7275769Y-13055894D01*
X7351959Y-13255894D02*
X7361483Y-13246370D01*
X7361483Y-13246370D02*
X7380531Y-13217799D01*
X7380531Y-13217799D02*
X7390054Y-13198751D01*
X7390054Y-13198751D02*
X7399578Y-13170180D01*
X7399578Y-13170180D02*
X7409102Y-13122561D01*
X7409102Y-13122561D02*
X7409102Y-13084466D01*
X7409102Y-13084466D02*
X7399578Y-13036847D01*
X7399578Y-13036847D02*
X7390054Y-13008275D01*
X7390054Y-13008275D02*
X7380531Y-12989228D01*
X7380531Y-12989228D02*
X7361483Y-12960656D01*
X7361483Y-12960656D02*
X7351959Y-12951132D01*
D15*
X2338920Y-13399720D02*
X2386420Y-13352220D01*
X2338920Y-13304720D01*
X2291420Y-13352220D01*
X2338920Y-13399720D01*
D11*
X2685292Y-13243704D02*
X2704340Y-13243704D01*
X2704340Y-13243704D02*
X2723387Y-13253228D01*
X2723387Y-13253228D02*
X2732911Y-13262751D01*
X2732911Y-13262751D02*
X2742435Y-13281799D01*
X2742435Y-13281799D02*
X2751959Y-13319894D01*
X2751959Y-13319894D02*
X2751959Y-13367513D01*
X2751959Y-13367513D02*
X2742435Y-13405608D01*
X2742435Y-13405608D02*
X2732911Y-13424656D01*
X2732911Y-13424656D02*
X2723387Y-13434180D01*
X2723387Y-13434180D02*
X2704340Y-13443704D01*
X2704340Y-13443704D02*
X2685292Y-13443704D01*
X2685292Y-13443704D02*
X2666244Y-13434180D01*
X2666244Y-13434180D02*
X2656721Y-13424656D01*
X2656721Y-13424656D02*
X2647197Y-13405608D01*
X2647197Y-13405608D02*
X2637673Y-13367513D01*
X2637673Y-13367513D02*
X2637673Y-13319894D01*
X2637673Y-13319894D02*
X2647197Y-13281799D01*
X2647197Y-13281799D02*
X2656721Y-13262751D01*
X2656721Y-13262751D02*
X2666244Y-13253228D01*
X2666244Y-13253228D02*
X2685292Y-13243704D01*
X2837673Y-13424656D02*
X2847197Y-13434180D01*
X2847197Y-13434180D02*
X2837673Y-13443704D01*
X2837673Y-13443704D02*
X2828149Y-13434180D01*
X2828149Y-13434180D02*
X2837673Y-13424656D01*
X2837673Y-13424656D02*
X2837673Y-13443704D01*
X2942435Y-13443704D02*
X2980530Y-13443704D01*
X2980530Y-13443704D02*
X2999578Y-13434180D01*
X2999578Y-13434180D02*
X3009102Y-13424656D01*
X3009102Y-13424656D02*
X3028149Y-13396085D01*
X3028149Y-13396085D02*
X3037673Y-13357989D01*
X3037673Y-13357989D02*
X3037673Y-13281799D01*
X3037673Y-13281799D02*
X3028149Y-13262751D01*
X3028149Y-13262751D02*
X3018625Y-13253228D01*
X3018625Y-13253228D02*
X2999578Y-13243704D01*
X2999578Y-13243704D02*
X2961482Y-13243704D01*
X2961482Y-13243704D02*
X2942435Y-13253228D01*
X2942435Y-13253228D02*
X2932911Y-13262751D01*
X2932911Y-13262751D02*
X2923387Y-13281799D01*
X2923387Y-13281799D02*
X2923387Y-13329418D01*
X2923387Y-13329418D02*
X2932911Y-13348466D01*
X2932911Y-13348466D02*
X2942435Y-13357989D01*
X2942435Y-13357989D02*
X2961482Y-13367513D01*
X2961482Y-13367513D02*
X2999578Y-13367513D01*
X2999578Y-13367513D02*
X3018625Y-13357989D01*
X3018625Y-13357989D02*
X3028149Y-13348466D01*
X3028149Y-13348466D02*
X3037673Y-13329418D01*
X3218625Y-13243704D02*
X3123387Y-13243704D01*
X3123387Y-13243704D02*
X3113863Y-13338942D01*
X3113863Y-13338942D02*
X3123387Y-13329418D01*
X3123387Y-13329418D02*
X3142435Y-13319894D01*
X3142435Y-13319894D02*
X3190054Y-13319894D01*
X3190054Y-13319894D02*
X3209102Y-13329418D01*
X3209102Y-13329418D02*
X3218625Y-13338942D01*
X3218625Y-13338942D02*
X3228149Y-13357989D01*
X3228149Y-13357989D02*
X3228149Y-13405608D01*
X3228149Y-13405608D02*
X3218625Y-13424656D01*
X3218625Y-13424656D02*
X3209102Y-13434180D01*
X3209102Y-13434180D02*
X3190054Y-13443704D01*
X3190054Y-13443704D02*
X3142435Y-13443704D01*
X3142435Y-13443704D02*
X3123387Y-13434180D01*
X3123387Y-13434180D02*
X3113863Y-13424656D01*
X3351959Y-13243704D02*
X3371006Y-13243704D01*
X3371006Y-13243704D02*
X3390054Y-13253228D01*
X3390054Y-13253228D02*
X3399578Y-13262751D01*
X3399578Y-13262751D02*
X3409102Y-13281799D01*
X3409102Y-13281799D02*
X3418625Y-13319894D01*
X3418625Y-13319894D02*
X3418625Y-13367513D01*
X3418625Y-13367513D02*
X3409102Y-13405608D01*
X3409102Y-13405608D02*
X3399578Y-13424656D01*
X3399578Y-13424656D02*
X3390054Y-13434180D01*
X3390054Y-13434180D02*
X3371006Y-13443704D01*
X3371006Y-13443704D02*
X3351959Y-13443704D01*
X3351959Y-13443704D02*
X3332911Y-13434180D01*
X3332911Y-13434180D02*
X3323387Y-13424656D01*
X3323387Y-13424656D02*
X3313863Y-13405608D01*
X3313863Y-13405608D02*
X3304340Y-13367513D01*
X3304340Y-13367513D02*
X3304340Y-13319894D01*
X3304340Y-13319894D02*
X3313863Y-13281799D01*
X3313863Y-13281799D02*
X3323387Y-13262751D01*
X3323387Y-13262751D02*
X3332911Y-13253228D01*
X3332911Y-13253228D02*
X3351959Y-13243704D01*
X3504340Y-13443704D02*
X3504340Y-13310370D01*
X3504340Y-13329418D02*
X3513863Y-13319894D01*
X3513863Y-13319894D02*
X3532911Y-13310370D01*
X3532911Y-13310370D02*
X3561483Y-13310370D01*
X3561483Y-13310370D02*
X3580530Y-13319894D01*
X3580530Y-13319894D02*
X3590054Y-13338942D01*
X3590054Y-13338942D02*
X3590054Y-13443704D01*
X3590054Y-13338942D02*
X3599578Y-13319894D01*
X3599578Y-13319894D02*
X3618625Y-13310370D01*
X3618625Y-13310370D02*
X3647197Y-13310370D01*
X3647197Y-13310370D02*
X3666244Y-13319894D01*
X3666244Y-13319894D02*
X3675768Y-13338942D01*
X3675768Y-13338942D02*
X3675768Y-13443704D01*
X3771006Y-13443704D02*
X3771006Y-13310370D01*
X3771006Y-13329418D02*
X3780530Y-13319894D01*
X3780530Y-13319894D02*
X3799578Y-13310370D01*
X3799578Y-13310370D02*
X3828149Y-13310370D01*
X3828149Y-13310370D02*
X3847197Y-13319894D01*
X3847197Y-13319894D02*
X3856721Y-13338942D01*
X3856721Y-13338942D02*
X3856721Y-13443704D01*
X3856721Y-13338942D02*
X3866244Y-13319894D01*
X3866244Y-13319894D02*
X3885292Y-13310370D01*
X3885292Y-13310370D02*
X3913863Y-13310370D01*
X3913863Y-13310370D02*
X3932911Y-13319894D01*
X3932911Y-13319894D02*
X3942435Y-13338942D01*
X3942435Y-13338942D02*
X3942435Y-13443704D01*
X4332911Y-13234180D02*
X4161483Y-13491323D01*
X4590054Y-13243704D02*
X4609102Y-13243704D01*
X4609102Y-13243704D02*
X4628149Y-13253228D01*
X4628149Y-13253228D02*
X4637673Y-13262751D01*
X4637673Y-13262751D02*
X4647197Y-13281799D01*
X4647197Y-13281799D02*
X4656721Y-13319894D01*
X4656721Y-13319894D02*
X4656721Y-13367513D01*
X4656721Y-13367513D02*
X4647197Y-13405608D01*
X4647197Y-13405608D02*
X4637673Y-13424656D01*
X4637673Y-13424656D02*
X4628149Y-13434180D01*
X4628149Y-13434180D02*
X4609102Y-13443704D01*
X4609102Y-13443704D02*
X4590054Y-13443704D01*
X4590054Y-13443704D02*
X4571007Y-13434180D01*
X4571007Y-13434180D02*
X4561483Y-13424656D01*
X4561483Y-13424656D02*
X4551959Y-13405608D01*
X4551959Y-13405608D02*
X4542435Y-13367513D01*
X4542435Y-13367513D02*
X4542435Y-13319894D01*
X4542435Y-13319894D02*
X4551959Y-13281799D01*
X4551959Y-13281799D02*
X4561483Y-13262751D01*
X4561483Y-13262751D02*
X4571007Y-13253228D01*
X4571007Y-13253228D02*
X4590054Y-13243704D01*
X4742435Y-13424656D02*
X4751959Y-13434180D01*
X4751959Y-13434180D02*
X4742435Y-13443704D01*
X4742435Y-13443704D02*
X4732911Y-13434180D01*
X4732911Y-13434180D02*
X4742435Y-13424656D01*
X4742435Y-13424656D02*
X4742435Y-13443704D01*
X4875768Y-13243704D02*
X4894816Y-13243704D01*
X4894816Y-13243704D02*
X4913864Y-13253228D01*
X4913864Y-13253228D02*
X4923388Y-13262751D01*
X4923388Y-13262751D02*
X4932911Y-13281799D01*
X4932911Y-13281799D02*
X4942435Y-13319894D01*
X4942435Y-13319894D02*
X4942435Y-13367513D01*
X4942435Y-13367513D02*
X4932911Y-13405608D01*
X4932911Y-13405608D02*
X4923388Y-13424656D01*
X4923388Y-13424656D02*
X4913864Y-13434180D01*
X4913864Y-13434180D02*
X4894816Y-13443704D01*
X4894816Y-13443704D02*
X4875768Y-13443704D01*
X4875768Y-13443704D02*
X4856721Y-13434180D01*
X4856721Y-13434180D02*
X4847197Y-13424656D01*
X4847197Y-13424656D02*
X4837673Y-13405608D01*
X4837673Y-13405608D02*
X4828149Y-13367513D01*
X4828149Y-13367513D02*
X4828149Y-13319894D01*
X4828149Y-13319894D02*
X4837673Y-13281799D01*
X4837673Y-13281799D02*
X4847197Y-13262751D01*
X4847197Y-13262751D02*
X4856721Y-13253228D01*
X4856721Y-13253228D02*
X4875768Y-13243704D01*
X5009102Y-13243704D02*
X5132911Y-13243704D01*
X5132911Y-13243704D02*
X5066245Y-13319894D01*
X5066245Y-13319894D02*
X5094816Y-13319894D01*
X5094816Y-13319894D02*
X5113864Y-13329418D01*
X5113864Y-13329418D02*
X5123388Y-13338942D01*
X5123388Y-13338942D02*
X5132911Y-13357989D01*
X5132911Y-13357989D02*
X5132911Y-13405608D01*
X5132911Y-13405608D02*
X5123388Y-13424656D01*
X5123388Y-13424656D02*
X5113864Y-13434180D01*
X5113864Y-13434180D02*
X5094816Y-13443704D01*
X5094816Y-13443704D02*
X5037673Y-13443704D01*
X5037673Y-13443704D02*
X5018626Y-13434180D01*
X5018626Y-13434180D02*
X5009102Y-13424656D01*
X5199578Y-13243704D02*
X5332911Y-13243704D01*
X5332911Y-13243704D02*
X5247197Y-13443704D01*
X5494816Y-13310370D02*
X5494816Y-13443704D01*
X5447197Y-13234180D02*
X5399578Y-13377037D01*
X5399578Y-13377037D02*
X5523388Y-13377037D01*
X5590054Y-13243704D02*
X5590054Y-13281799D01*
X5666245Y-13243704D02*
X5666245Y-13281799D01*
X5961483Y-13519894D02*
X5951959Y-13510370D01*
X5951959Y-13510370D02*
X5932911Y-13481799D01*
X5932911Y-13481799D02*
X5923388Y-13462751D01*
X5923388Y-13462751D02*
X5913864Y-13434180D01*
X5913864Y-13434180D02*
X5904340Y-13386561D01*
X5904340Y-13386561D02*
X5904340Y-13348466D01*
X5904340Y-13348466D02*
X5913864Y-13300847D01*
X5913864Y-13300847D02*
X5923388Y-13272275D01*
X5923388Y-13272275D02*
X5932911Y-13253228D01*
X5932911Y-13253228D02*
X5951959Y-13224656D01*
X5951959Y-13224656D02*
X5961483Y-13215132D01*
X6132911Y-13243704D02*
X6037673Y-13243704D01*
X6037673Y-13243704D02*
X6028149Y-13338942D01*
X6028149Y-13338942D02*
X6037673Y-13329418D01*
X6037673Y-13329418D02*
X6056721Y-13319894D01*
X6056721Y-13319894D02*
X6104340Y-13319894D01*
X6104340Y-13319894D02*
X6123388Y-13329418D01*
X6123388Y-13329418D02*
X6132911Y-13338942D01*
X6132911Y-13338942D02*
X6142435Y-13357989D01*
X6142435Y-13357989D02*
X6142435Y-13405608D01*
X6142435Y-13405608D02*
X6132911Y-13424656D01*
X6132911Y-13424656D02*
X6123388Y-13434180D01*
X6123388Y-13434180D02*
X6104340Y-13443704D01*
X6104340Y-13443704D02*
X6056721Y-13443704D01*
X6056721Y-13443704D02*
X6037673Y-13434180D01*
X6037673Y-13434180D02*
X6028149Y-13424656D01*
X6380530Y-13443704D02*
X6380530Y-13243704D01*
X6466245Y-13443704D02*
X6466245Y-13338942D01*
X6466245Y-13338942D02*
X6456721Y-13319894D01*
X6456721Y-13319894D02*
X6437673Y-13310370D01*
X6437673Y-13310370D02*
X6409102Y-13310370D01*
X6409102Y-13310370D02*
X6390054Y-13319894D01*
X6390054Y-13319894D02*
X6380530Y-13329418D01*
X6590054Y-13443704D02*
X6571007Y-13434180D01*
X6571007Y-13434180D02*
X6561483Y-13424656D01*
X6561483Y-13424656D02*
X6551959Y-13405608D01*
X6551959Y-13405608D02*
X6551959Y-13348466D01*
X6551959Y-13348466D02*
X6561483Y-13329418D01*
X6561483Y-13329418D02*
X6571007Y-13319894D01*
X6571007Y-13319894D02*
X6590054Y-13310370D01*
X6590054Y-13310370D02*
X6618626Y-13310370D01*
X6618626Y-13310370D02*
X6637673Y-13319894D01*
X6637673Y-13319894D02*
X6647197Y-13329418D01*
X6647197Y-13329418D02*
X6656721Y-13348466D01*
X6656721Y-13348466D02*
X6656721Y-13405608D01*
X6656721Y-13405608D02*
X6647197Y-13424656D01*
X6647197Y-13424656D02*
X6637673Y-13434180D01*
X6637673Y-13434180D02*
X6618626Y-13443704D01*
X6618626Y-13443704D02*
X6590054Y-13443704D01*
X6771007Y-13443704D02*
X6751959Y-13434180D01*
X6751959Y-13434180D02*
X6742435Y-13415132D01*
X6742435Y-13415132D02*
X6742435Y-13243704D01*
X6923388Y-13434180D02*
X6904340Y-13443704D01*
X6904340Y-13443704D02*
X6866245Y-13443704D01*
X6866245Y-13443704D02*
X6847197Y-13434180D01*
X6847197Y-13434180D02*
X6837673Y-13415132D01*
X6837673Y-13415132D02*
X6837673Y-13338942D01*
X6837673Y-13338942D02*
X6847197Y-13319894D01*
X6847197Y-13319894D02*
X6866245Y-13310370D01*
X6866245Y-13310370D02*
X6904340Y-13310370D01*
X6904340Y-13310370D02*
X6923388Y-13319894D01*
X6923388Y-13319894D02*
X6932911Y-13338942D01*
X6932911Y-13338942D02*
X6932911Y-13357989D01*
X6932911Y-13357989D02*
X6837673Y-13377037D01*
X7009102Y-13434180D02*
X7028150Y-13443704D01*
X7028150Y-13443704D02*
X7066245Y-13443704D01*
X7066245Y-13443704D02*
X7085292Y-13434180D01*
X7085292Y-13434180D02*
X7094816Y-13415132D01*
X7094816Y-13415132D02*
X7094816Y-13405608D01*
X7094816Y-13405608D02*
X7085292Y-13386561D01*
X7085292Y-13386561D02*
X7066245Y-13377037D01*
X7066245Y-13377037D02*
X7037673Y-13377037D01*
X7037673Y-13377037D02*
X7018626Y-13367513D01*
X7018626Y-13367513D02*
X7009102Y-13348466D01*
X7009102Y-13348466D02*
X7009102Y-13338942D01*
X7009102Y-13338942D02*
X7018626Y-13319894D01*
X7018626Y-13319894D02*
X7037673Y-13310370D01*
X7037673Y-13310370D02*
X7066245Y-13310370D01*
X7066245Y-13310370D02*
X7085292Y-13319894D01*
X7161483Y-13519894D02*
X7171007Y-13510370D01*
X7171007Y-13510370D02*
X7190054Y-13481799D01*
X7190054Y-13481799D02*
X7199578Y-13462751D01*
X7199578Y-13462751D02*
X7209102Y-13434180D01*
X7209102Y-13434180D02*
X7218626Y-13386561D01*
X7218626Y-13386561D02*
X7218626Y-13348466D01*
X7218626Y-13348466D02*
X7209102Y-13300847D01*
X7209102Y-13300847D02*
X7199578Y-13272275D01*
X7199578Y-13272275D02*
X7190054Y-13253228D01*
X7190054Y-13253228D02*
X7171007Y-13224656D01*
X7171007Y-13224656D02*
X7161483Y-13215132D01*
D16*
X2286420Y-13566220D02*
X2386420Y-13666220D01*
X2386420Y-13566220D02*
X2286420Y-13666220D01*
X2386420Y-13616220D02*
G75*
G03*
X2386420Y-13616220I-50000J0D01*
G01*
D11*
X2751959Y-13707704D02*
X2637673Y-13707704D01*
X2694816Y-13707704D02*
X2694816Y-13507704D01*
X2694816Y-13507704D02*
X2675768Y-13536275D01*
X2675768Y-13536275D02*
X2656721Y-13555323D01*
X2656721Y-13555323D02*
X2637673Y-13564847D01*
X2837673Y-13688656D02*
X2847197Y-13698180D01*
X2847197Y-13698180D02*
X2837673Y-13707704D01*
X2837673Y-13707704D02*
X2828149Y-13698180D01*
X2828149Y-13698180D02*
X2837673Y-13688656D01*
X2837673Y-13688656D02*
X2837673Y-13707704D01*
X2971006Y-13507704D02*
X2990054Y-13507704D01*
X2990054Y-13507704D02*
X3009102Y-13517228D01*
X3009102Y-13517228D02*
X3018625Y-13526751D01*
X3018625Y-13526751D02*
X3028149Y-13545799D01*
X3028149Y-13545799D02*
X3037673Y-13583894D01*
X3037673Y-13583894D02*
X3037673Y-13631513D01*
X3037673Y-13631513D02*
X3028149Y-13669608D01*
X3028149Y-13669608D02*
X3018625Y-13688656D01*
X3018625Y-13688656D02*
X3009102Y-13698180D01*
X3009102Y-13698180D02*
X2990054Y-13707704D01*
X2990054Y-13707704D02*
X2971006Y-13707704D01*
X2971006Y-13707704D02*
X2951959Y-13698180D01*
X2951959Y-13698180D02*
X2942435Y-13688656D01*
X2942435Y-13688656D02*
X2932911Y-13669608D01*
X2932911Y-13669608D02*
X2923387Y-13631513D01*
X2923387Y-13631513D02*
X2923387Y-13583894D01*
X2923387Y-13583894D02*
X2932911Y-13545799D01*
X2932911Y-13545799D02*
X2942435Y-13526751D01*
X2942435Y-13526751D02*
X2951959Y-13517228D01*
X2951959Y-13517228D02*
X2971006Y-13507704D01*
X3161482Y-13507704D02*
X3180530Y-13507704D01*
X3180530Y-13507704D02*
X3199578Y-13517228D01*
X3199578Y-13517228D02*
X3209102Y-13526751D01*
X3209102Y-13526751D02*
X3218625Y-13545799D01*
X3218625Y-13545799D02*
X3228149Y-13583894D01*
X3228149Y-13583894D02*
X3228149Y-13631513D01*
X3228149Y-13631513D02*
X3218625Y-13669608D01*
X3218625Y-13669608D02*
X3209102Y-13688656D01*
X3209102Y-13688656D02*
X3199578Y-13698180D01*
X3199578Y-13698180D02*
X3180530Y-13707704D01*
X3180530Y-13707704D02*
X3161482Y-13707704D01*
X3161482Y-13707704D02*
X3142435Y-13698180D01*
X3142435Y-13698180D02*
X3132911Y-13688656D01*
X3132911Y-13688656D02*
X3123387Y-13669608D01*
X3123387Y-13669608D02*
X3113863Y-13631513D01*
X3113863Y-13631513D02*
X3113863Y-13583894D01*
X3113863Y-13583894D02*
X3123387Y-13545799D01*
X3123387Y-13545799D02*
X3132911Y-13526751D01*
X3132911Y-13526751D02*
X3142435Y-13517228D01*
X3142435Y-13517228D02*
X3161482Y-13507704D01*
X3351959Y-13507704D02*
X3371006Y-13507704D01*
X3371006Y-13507704D02*
X3390054Y-13517228D01*
X3390054Y-13517228D02*
X3399578Y-13526751D01*
X3399578Y-13526751D02*
X3409102Y-13545799D01*
X3409102Y-13545799D02*
X3418625Y-13583894D01*
X3418625Y-13583894D02*
X3418625Y-13631513D01*
X3418625Y-13631513D02*
X3409102Y-13669608D01*
X3409102Y-13669608D02*
X3399578Y-13688656D01*
X3399578Y-13688656D02*
X3390054Y-13698180D01*
X3390054Y-13698180D02*
X3371006Y-13707704D01*
X3371006Y-13707704D02*
X3351959Y-13707704D01*
X3351959Y-13707704D02*
X3332911Y-13698180D01*
X3332911Y-13698180D02*
X3323387Y-13688656D01*
X3323387Y-13688656D02*
X3313863Y-13669608D01*
X3313863Y-13669608D02*
X3304340Y-13631513D01*
X3304340Y-13631513D02*
X3304340Y-13583894D01*
X3304340Y-13583894D02*
X3313863Y-13545799D01*
X3313863Y-13545799D02*
X3323387Y-13526751D01*
X3323387Y-13526751D02*
X3332911Y-13517228D01*
X3332911Y-13517228D02*
X3351959Y-13507704D01*
X3504340Y-13707704D02*
X3504340Y-13574370D01*
X3504340Y-13593418D02*
X3513863Y-13583894D01*
X3513863Y-13583894D02*
X3532911Y-13574370D01*
X3532911Y-13574370D02*
X3561483Y-13574370D01*
X3561483Y-13574370D02*
X3580530Y-13583894D01*
X3580530Y-13583894D02*
X3590054Y-13602942D01*
X3590054Y-13602942D02*
X3590054Y-13707704D01*
X3590054Y-13602942D02*
X3599578Y-13583894D01*
X3599578Y-13583894D02*
X3618625Y-13574370D01*
X3618625Y-13574370D02*
X3647197Y-13574370D01*
X3647197Y-13574370D02*
X3666244Y-13583894D01*
X3666244Y-13583894D02*
X3675768Y-13602942D01*
X3675768Y-13602942D02*
X3675768Y-13707704D01*
X3771006Y-13707704D02*
X3771006Y-13574370D01*
X3771006Y-13593418D02*
X3780530Y-13583894D01*
X3780530Y-13583894D02*
X3799578Y-13574370D01*
X3799578Y-13574370D02*
X3828149Y-13574370D01*
X3828149Y-13574370D02*
X3847197Y-13583894D01*
X3847197Y-13583894D02*
X3856721Y-13602942D01*
X3856721Y-13602942D02*
X3856721Y-13707704D01*
X3856721Y-13602942D02*
X3866244Y-13583894D01*
X3866244Y-13583894D02*
X3885292Y-13574370D01*
X3885292Y-13574370D02*
X3913863Y-13574370D01*
X3913863Y-13574370D02*
X3932911Y-13583894D01*
X3932911Y-13583894D02*
X3942435Y-13602942D01*
X3942435Y-13602942D02*
X3942435Y-13707704D01*
X4332911Y-13498180D02*
X4161483Y-13755323D01*
X4590054Y-13507704D02*
X4609102Y-13507704D01*
X4609102Y-13507704D02*
X4628149Y-13517228D01*
X4628149Y-13517228D02*
X4637673Y-13526751D01*
X4637673Y-13526751D02*
X4647197Y-13545799D01*
X4647197Y-13545799D02*
X4656721Y-13583894D01*
X4656721Y-13583894D02*
X4656721Y-13631513D01*
X4656721Y-13631513D02*
X4647197Y-13669608D01*
X4647197Y-13669608D02*
X4637673Y-13688656D01*
X4637673Y-13688656D02*
X4628149Y-13698180D01*
X4628149Y-13698180D02*
X4609102Y-13707704D01*
X4609102Y-13707704D02*
X4590054Y-13707704D01*
X4590054Y-13707704D02*
X4571007Y-13698180D01*
X4571007Y-13698180D02*
X4561483Y-13688656D01*
X4561483Y-13688656D02*
X4551959Y-13669608D01*
X4551959Y-13669608D02*
X4542435Y-13631513D01*
X4542435Y-13631513D02*
X4542435Y-13583894D01*
X4542435Y-13583894D02*
X4551959Y-13545799D01*
X4551959Y-13545799D02*
X4561483Y-13526751D01*
X4561483Y-13526751D02*
X4571007Y-13517228D01*
X4571007Y-13517228D02*
X4590054Y-13507704D01*
X4742435Y-13688656D02*
X4751959Y-13698180D01*
X4751959Y-13698180D02*
X4742435Y-13707704D01*
X4742435Y-13707704D02*
X4732911Y-13698180D01*
X4732911Y-13698180D02*
X4742435Y-13688656D01*
X4742435Y-13688656D02*
X4742435Y-13707704D01*
X4875768Y-13507704D02*
X4894816Y-13507704D01*
X4894816Y-13507704D02*
X4913864Y-13517228D01*
X4913864Y-13517228D02*
X4923388Y-13526751D01*
X4923388Y-13526751D02*
X4932911Y-13545799D01*
X4932911Y-13545799D02*
X4942435Y-13583894D01*
X4942435Y-13583894D02*
X4942435Y-13631513D01*
X4942435Y-13631513D02*
X4932911Y-13669608D01*
X4932911Y-13669608D02*
X4923388Y-13688656D01*
X4923388Y-13688656D02*
X4913864Y-13698180D01*
X4913864Y-13698180D02*
X4894816Y-13707704D01*
X4894816Y-13707704D02*
X4875768Y-13707704D01*
X4875768Y-13707704D02*
X4856721Y-13698180D01*
X4856721Y-13698180D02*
X4847197Y-13688656D01*
X4847197Y-13688656D02*
X4837673Y-13669608D01*
X4837673Y-13669608D02*
X4828149Y-13631513D01*
X4828149Y-13631513D02*
X4828149Y-13583894D01*
X4828149Y-13583894D02*
X4837673Y-13545799D01*
X4837673Y-13545799D02*
X4847197Y-13526751D01*
X4847197Y-13526751D02*
X4856721Y-13517228D01*
X4856721Y-13517228D02*
X4875768Y-13507704D01*
X5009102Y-13507704D02*
X5132911Y-13507704D01*
X5132911Y-13507704D02*
X5066245Y-13583894D01*
X5066245Y-13583894D02*
X5094816Y-13583894D01*
X5094816Y-13583894D02*
X5113864Y-13593418D01*
X5113864Y-13593418D02*
X5123388Y-13602942D01*
X5123388Y-13602942D02*
X5132911Y-13621989D01*
X5132911Y-13621989D02*
X5132911Y-13669608D01*
X5132911Y-13669608D02*
X5123388Y-13688656D01*
X5123388Y-13688656D02*
X5113864Y-13698180D01*
X5113864Y-13698180D02*
X5094816Y-13707704D01*
X5094816Y-13707704D02*
X5037673Y-13707704D01*
X5037673Y-13707704D02*
X5018626Y-13698180D01*
X5018626Y-13698180D02*
X5009102Y-13688656D01*
X5228149Y-13707704D02*
X5266245Y-13707704D01*
X5266245Y-13707704D02*
X5285292Y-13698180D01*
X5285292Y-13698180D02*
X5294816Y-13688656D01*
X5294816Y-13688656D02*
X5313864Y-13660085D01*
X5313864Y-13660085D02*
X5323388Y-13621989D01*
X5323388Y-13621989D02*
X5323388Y-13545799D01*
X5323388Y-13545799D02*
X5313864Y-13526751D01*
X5313864Y-13526751D02*
X5304340Y-13517228D01*
X5304340Y-13517228D02*
X5285292Y-13507704D01*
X5285292Y-13507704D02*
X5247197Y-13507704D01*
X5247197Y-13507704D02*
X5228149Y-13517228D01*
X5228149Y-13517228D02*
X5218626Y-13526751D01*
X5218626Y-13526751D02*
X5209102Y-13545799D01*
X5209102Y-13545799D02*
X5209102Y-13593418D01*
X5209102Y-13593418D02*
X5218626Y-13612466D01*
X5218626Y-13612466D02*
X5228149Y-13621989D01*
X5228149Y-13621989D02*
X5247197Y-13631513D01*
X5247197Y-13631513D02*
X5285292Y-13631513D01*
X5285292Y-13631513D02*
X5304340Y-13621989D01*
X5304340Y-13621989D02*
X5313864Y-13612466D01*
X5313864Y-13612466D02*
X5323388Y-13593418D01*
X5494816Y-13574370D02*
X5494816Y-13707704D01*
X5447197Y-13498180D02*
X5399578Y-13641037D01*
X5399578Y-13641037D02*
X5523388Y-13641037D01*
X5590054Y-13507704D02*
X5590054Y-13545799D01*
X5666245Y-13507704D02*
X5666245Y-13545799D01*
X5961483Y-13783894D02*
X5951959Y-13774370D01*
X5951959Y-13774370D02*
X5932911Y-13745799D01*
X5932911Y-13745799D02*
X5923388Y-13726751D01*
X5923388Y-13726751D02*
X5913864Y-13698180D01*
X5913864Y-13698180D02*
X5904340Y-13650561D01*
X5904340Y-13650561D02*
X5904340Y-13612466D01*
X5904340Y-13612466D02*
X5913864Y-13564847D01*
X5913864Y-13564847D02*
X5923388Y-13536275D01*
X5923388Y-13536275D02*
X5932911Y-13517228D01*
X5932911Y-13517228D02*
X5951959Y-13488656D01*
X5951959Y-13488656D02*
X5961483Y-13479132D01*
X6132911Y-13507704D02*
X6037673Y-13507704D01*
X6037673Y-13507704D02*
X6028149Y-13602942D01*
X6028149Y-13602942D02*
X6037673Y-13593418D01*
X6037673Y-13593418D02*
X6056721Y-13583894D01*
X6056721Y-13583894D02*
X6104340Y-13583894D01*
X6104340Y-13583894D02*
X6123388Y-13593418D01*
X6123388Y-13593418D02*
X6132911Y-13602942D01*
X6132911Y-13602942D02*
X6142435Y-13621989D01*
X6142435Y-13621989D02*
X6142435Y-13669608D01*
X6142435Y-13669608D02*
X6132911Y-13688656D01*
X6132911Y-13688656D02*
X6123388Y-13698180D01*
X6123388Y-13698180D02*
X6104340Y-13707704D01*
X6104340Y-13707704D02*
X6056721Y-13707704D01*
X6056721Y-13707704D02*
X6037673Y-13698180D01*
X6037673Y-13698180D02*
X6028149Y-13688656D01*
X6323388Y-13507704D02*
X6228149Y-13507704D01*
X6228149Y-13507704D02*
X6218626Y-13602942D01*
X6218626Y-13602942D02*
X6228149Y-13593418D01*
X6228149Y-13593418D02*
X6247197Y-13583894D01*
X6247197Y-13583894D02*
X6294816Y-13583894D01*
X6294816Y-13583894D02*
X6313864Y-13593418D01*
X6313864Y-13593418D02*
X6323388Y-13602942D01*
X6323388Y-13602942D02*
X6332911Y-13621989D01*
X6332911Y-13621989D02*
X6332911Y-13669608D01*
X6332911Y-13669608D02*
X6323388Y-13688656D01*
X6323388Y-13688656D02*
X6313864Y-13698180D01*
X6313864Y-13698180D02*
X6294816Y-13707704D01*
X6294816Y-13707704D02*
X6247197Y-13707704D01*
X6247197Y-13707704D02*
X6228149Y-13698180D01*
X6228149Y-13698180D02*
X6218626Y-13688656D01*
X6571007Y-13707704D02*
X6571007Y-13507704D01*
X6656721Y-13707704D02*
X6656721Y-13602942D01*
X6656721Y-13602942D02*
X6647197Y-13583894D01*
X6647197Y-13583894D02*
X6628150Y-13574370D01*
X6628150Y-13574370D02*
X6599578Y-13574370D01*
X6599578Y-13574370D02*
X6580530Y-13583894D01*
X6580530Y-13583894D02*
X6571007Y-13593418D01*
X6780530Y-13707704D02*
X6761483Y-13698180D01*
X6761483Y-13698180D02*
X6751959Y-13688656D01*
X6751959Y-13688656D02*
X6742435Y-13669608D01*
X6742435Y-13669608D02*
X6742435Y-13612466D01*
X6742435Y-13612466D02*
X6751959Y-13593418D01*
X6751959Y-13593418D02*
X6761483Y-13583894D01*
X6761483Y-13583894D02*
X6780530Y-13574370D01*
X6780530Y-13574370D02*
X6809102Y-13574370D01*
X6809102Y-13574370D02*
X6828150Y-13583894D01*
X6828150Y-13583894D02*
X6837673Y-13593418D01*
X6837673Y-13593418D02*
X6847197Y-13612466D01*
X6847197Y-13612466D02*
X6847197Y-13669608D01*
X6847197Y-13669608D02*
X6837673Y-13688656D01*
X6837673Y-13688656D02*
X6828150Y-13698180D01*
X6828150Y-13698180D02*
X6809102Y-13707704D01*
X6809102Y-13707704D02*
X6780530Y-13707704D01*
X6961483Y-13707704D02*
X6942435Y-13698180D01*
X6942435Y-13698180D02*
X6932911Y-13679132D01*
X6932911Y-13679132D02*
X6932911Y-13507704D01*
X7113864Y-13698180D02*
X7094816Y-13707704D01*
X7094816Y-13707704D02*
X7056721Y-13707704D01*
X7056721Y-13707704D02*
X7037673Y-13698180D01*
X7037673Y-13698180D02*
X7028150Y-13679132D01*
X7028150Y-13679132D02*
X7028150Y-13602942D01*
X7028150Y-13602942D02*
X7037673Y-13583894D01*
X7037673Y-13583894D02*
X7056721Y-13574370D01*
X7056721Y-13574370D02*
X7094816Y-13574370D01*
X7094816Y-13574370D02*
X7113864Y-13583894D01*
X7113864Y-13583894D02*
X7123388Y-13602942D01*
X7123388Y-13602942D02*
X7123388Y-13621989D01*
X7123388Y-13621989D02*
X7028150Y-13641037D01*
X7199578Y-13698180D02*
X7218626Y-13707704D01*
X7218626Y-13707704D02*
X7256721Y-13707704D01*
X7256721Y-13707704D02*
X7275769Y-13698180D01*
X7275769Y-13698180D02*
X7285292Y-13679132D01*
X7285292Y-13679132D02*
X7285292Y-13669608D01*
X7285292Y-13669608D02*
X7275769Y-13650561D01*
X7275769Y-13650561D02*
X7256721Y-13641037D01*
X7256721Y-13641037D02*
X7228150Y-13641037D01*
X7228150Y-13641037D02*
X7209102Y-13631513D01*
X7209102Y-13631513D02*
X7199578Y-13612466D01*
X7199578Y-13612466D02*
X7199578Y-13602942D01*
X7199578Y-13602942D02*
X7209102Y-13583894D01*
X7209102Y-13583894D02*
X7228150Y-13574370D01*
X7228150Y-13574370D02*
X7256721Y-13574370D01*
X7256721Y-13574370D02*
X7275769Y-13583894D01*
X7351959Y-13783894D02*
X7361483Y-13774370D01*
X7361483Y-13774370D02*
X7380531Y-13745799D01*
X7380531Y-13745799D02*
X7390054Y-13726751D01*
X7390054Y-13726751D02*
X7399578Y-13698180D01*
X7399578Y-13698180D02*
X7409102Y-13650561D01*
X7409102Y-13650561D02*
X7409102Y-13612466D01*
X7409102Y-13612466D02*
X7399578Y-13564847D01*
X7399578Y-13564847D02*
X7390054Y-13536275D01*
X7390054Y-13536275D02*
X7380531Y-13517228D01*
X7380531Y-13517228D02*
X7361483Y-13488656D01*
X7361483Y-13488656D02*
X7351959Y-13479132D01*
D17*
X2276420Y-13825220D02*
X2386420Y-13935220D01*
X2386420Y-13825220D02*
X2276420Y-13935220D01*
X2331420Y-13825220D02*
X2331420Y-13935220D01*
X2276420Y-13880220D02*
X2386420Y-13880220D01*
D11*
X2751959Y-13971704D02*
X2637673Y-13971704D01*
X2694816Y-13971704D02*
X2694816Y-13771704D01*
X2694816Y-13771704D02*
X2675768Y-13800275D01*
X2675768Y-13800275D02*
X2656721Y-13819323D01*
X2656721Y-13819323D02*
X2637673Y-13828847D01*
X2837673Y-13952656D02*
X2847197Y-13962180D01*
X2847197Y-13962180D02*
X2837673Y-13971704D01*
X2837673Y-13971704D02*
X2828149Y-13962180D01*
X2828149Y-13962180D02*
X2837673Y-13952656D01*
X2837673Y-13952656D02*
X2837673Y-13971704D01*
X3037673Y-13971704D02*
X2923387Y-13971704D01*
X2980530Y-13971704D02*
X2980530Y-13771704D01*
X2980530Y-13771704D02*
X2961482Y-13800275D01*
X2961482Y-13800275D02*
X2942435Y-13819323D01*
X2942435Y-13819323D02*
X2923387Y-13828847D01*
X3161482Y-13771704D02*
X3180530Y-13771704D01*
X3180530Y-13771704D02*
X3199578Y-13781228D01*
X3199578Y-13781228D02*
X3209102Y-13790751D01*
X3209102Y-13790751D02*
X3218625Y-13809799D01*
X3218625Y-13809799D02*
X3228149Y-13847894D01*
X3228149Y-13847894D02*
X3228149Y-13895513D01*
X3228149Y-13895513D02*
X3218625Y-13933608D01*
X3218625Y-13933608D02*
X3209102Y-13952656D01*
X3209102Y-13952656D02*
X3199578Y-13962180D01*
X3199578Y-13962180D02*
X3180530Y-13971704D01*
X3180530Y-13971704D02*
X3161482Y-13971704D01*
X3161482Y-13971704D02*
X3142435Y-13962180D01*
X3142435Y-13962180D02*
X3132911Y-13952656D01*
X3132911Y-13952656D02*
X3123387Y-13933608D01*
X3123387Y-13933608D02*
X3113863Y-13895513D01*
X3113863Y-13895513D02*
X3113863Y-13847894D01*
X3113863Y-13847894D02*
X3123387Y-13809799D01*
X3123387Y-13809799D02*
X3132911Y-13790751D01*
X3132911Y-13790751D02*
X3142435Y-13781228D01*
X3142435Y-13781228D02*
X3161482Y-13771704D01*
X3351959Y-13771704D02*
X3371006Y-13771704D01*
X3371006Y-13771704D02*
X3390054Y-13781228D01*
X3390054Y-13781228D02*
X3399578Y-13790751D01*
X3399578Y-13790751D02*
X3409102Y-13809799D01*
X3409102Y-13809799D02*
X3418625Y-13847894D01*
X3418625Y-13847894D02*
X3418625Y-13895513D01*
X3418625Y-13895513D02*
X3409102Y-13933608D01*
X3409102Y-13933608D02*
X3399578Y-13952656D01*
X3399578Y-13952656D02*
X3390054Y-13962180D01*
X3390054Y-13962180D02*
X3371006Y-13971704D01*
X3371006Y-13971704D02*
X3351959Y-13971704D01*
X3351959Y-13971704D02*
X3332911Y-13962180D01*
X3332911Y-13962180D02*
X3323387Y-13952656D01*
X3323387Y-13952656D02*
X3313863Y-13933608D01*
X3313863Y-13933608D02*
X3304340Y-13895513D01*
X3304340Y-13895513D02*
X3304340Y-13847894D01*
X3304340Y-13847894D02*
X3313863Y-13809799D01*
X3313863Y-13809799D02*
X3323387Y-13790751D01*
X3323387Y-13790751D02*
X3332911Y-13781228D01*
X3332911Y-13781228D02*
X3351959Y-13771704D01*
X3504340Y-13971704D02*
X3504340Y-13838370D01*
X3504340Y-13857418D02*
X3513863Y-13847894D01*
X3513863Y-13847894D02*
X3532911Y-13838370D01*
X3532911Y-13838370D02*
X3561483Y-13838370D01*
X3561483Y-13838370D02*
X3580530Y-13847894D01*
X3580530Y-13847894D02*
X3590054Y-13866942D01*
X3590054Y-13866942D02*
X3590054Y-13971704D01*
X3590054Y-13866942D02*
X3599578Y-13847894D01*
X3599578Y-13847894D02*
X3618625Y-13838370D01*
X3618625Y-13838370D02*
X3647197Y-13838370D01*
X3647197Y-13838370D02*
X3666244Y-13847894D01*
X3666244Y-13847894D02*
X3675768Y-13866942D01*
X3675768Y-13866942D02*
X3675768Y-13971704D01*
X3771006Y-13971704D02*
X3771006Y-13838370D01*
X3771006Y-13857418D02*
X3780530Y-13847894D01*
X3780530Y-13847894D02*
X3799578Y-13838370D01*
X3799578Y-13838370D02*
X3828149Y-13838370D01*
X3828149Y-13838370D02*
X3847197Y-13847894D01*
X3847197Y-13847894D02*
X3856721Y-13866942D01*
X3856721Y-13866942D02*
X3856721Y-13971704D01*
X3856721Y-13866942D02*
X3866244Y-13847894D01*
X3866244Y-13847894D02*
X3885292Y-13838370D01*
X3885292Y-13838370D02*
X3913863Y-13838370D01*
X3913863Y-13838370D02*
X3932911Y-13847894D01*
X3932911Y-13847894D02*
X3942435Y-13866942D01*
X3942435Y-13866942D02*
X3942435Y-13971704D01*
X4332911Y-13762180D02*
X4161483Y-14019323D01*
X4590054Y-13771704D02*
X4609102Y-13771704D01*
X4609102Y-13771704D02*
X4628149Y-13781228D01*
X4628149Y-13781228D02*
X4637673Y-13790751D01*
X4637673Y-13790751D02*
X4647197Y-13809799D01*
X4647197Y-13809799D02*
X4656721Y-13847894D01*
X4656721Y-13847894D02*
X4656721Y-13895513D01*
X4656721Y-13895513D02*
X4647197Y-13933608D01*
X4647197Y-13933608D02*
X4637673Y-13952656D01*
X4637673Y-13952656D02*
X4628149Y-13962180D01*
X4628149Y-13962180D02*
X4609102Y-13971704D01*
X4609102Y-13971704D02*
X4590054Y-13971704D01*
X4590054Y-13971704D02*
X4571007Y-13962180D01*
X4571007Y-13962180D02*
X4561483Y-13952656D01*
X4561483Y-13952656D02*
X4551959Y-13933608D01*
X4551959Y-13933608D02*
X4542435Y-13895513D01*
X4542435Y-13895513D02*
X4542435Y-13847894D01*
X4542435Y-13847894D02*
X4551959Y-13809799D01*
X4551959Y-13809799D02*
X4561483Y-13790751D01*
X4561483Y-13790751D02*
X4571007Y-13781228D01*
X4571007Y-13781228D02*
X4590054Y-13771704D01*
X4742435Y-13952656D02*
X4751959Y-13962180D01*
X4751959Y-13962180D02*
X4742435Y-13971704D01*
X4742435Y-13971704D02*
X4732911Y-13962180D01*
X4732911Y-13962180D02*
X4742435Y-13952656D01*
X4742435Y-13952656D02*
X4742435Y-13971704D01*
X4875768Y-13771704D02*
X4894816Y-13771704D01*
X4894816Y-13771704D02*
X4913864Y-13781228D01*
X4913864Y-13781228D02*
X4923388Y-13790751D01*
X4923388Y-13790751D02*
X4932911Y-13809799D01*
X4932911Y-13809799D02*
X4942435Y-13847894D01*
X4942435Y-13847894D02*
X4942435Y-13895513D01*
X4942435Y-13895513D02*
X4932911Y-13933608D01*
X4932911Y-13933608D02*
X4923388Y-13952656D01*
X4923388Y-13952656D02*
X4913864Y-13962180D01*
X4913864Y-13962180D02*
X4894816Y-13971704D01*
X4894816Y-13971704D02*
X4875768Y-13971704D01*
X4875768Y-13971704D02*
X4856721Y-13962180D01*
X4856721Y-13962180D02*
X4847197Y-13952656D01*
X4847197Y-13952656D02*
X4837673Y-13933608D01*
X4837673Y-13933608D02*
X4828149Y-13895513D01*
X4828149Y-13895513D02*
X4828149Y-13847894D01*
X4828149Y-13847894D02*
X4837673Y-13809799D01*
X4837673Y-13809799D02*
X4847197Y-13790751D01*
X4847197Y-13790751D02*
X4856721Y-13781228D01*
X4856721Y-13781228D02*
X4875768Y-13771704D01*
X5113864Y-13838370D02*
X5113864Y-13971704D01*
X5066245Y-13762180D02*
X5018626Y-13905037D01*
X5018626Y-13905037D02*
X5142435Y-13905037D01*
X5199578Y-13771704D02*
X5323388Y-13771704D01*
X5323388Y-13771704D02*
X5256721Y-13847894D01*
X5256721Y-13847894D02*
X5285292Y-13847894D01*
X5285292Y-13847894D02*
X5304340Y-13857418D01*
X5304340Y-13857418D02*
X5313864Y-13866942D01*
X5313864Y-13866942D02*
X5323388Y-13885989D01*
X5323388Y-13885989D02*
X5323388Y-13933608D01*
X5323388Y-13933608D02*
X5313864Y-13952656D01*
X5313864Y-13952656D02*
X5304340Y-13962180D01*
X5304340Y-13962180D02*
X5285292Y-13971704D01*
X5285292Y-13971704D02*
X5228149Y-13971704D01*
X5228149Y-13971704D02*
X5209102Y-13962180D01*
X5209102Y-13962180D02*
X5199578Y-13952656D01*
X5390054Y-13771704D02*
X5513864Y-13771704D01*
X5513864Y-13771704D02*
X5447197Y-13847894D01*
X5447197Y-13847894D02*
X5475769Y-13847894D01*
X5475769Y-13847894D02*
X5494816Y-13857418D01*
X5494816Y-13857418D02*
X5504340Y-13866942D01*
X5504340Y-13866942D02*
X5513864Y-13885989D01*
X5513864Y-13885989D02*
X5513864Y-13933608D01*
X5513864Y-13933608D02*
X5504340Y-13952656D01*
X5504340Y-13952656D02*
X5494816Y-13962180D01*
X5494816Y-13962180D02*
X5475769Y-13971704D01*
X5475769Y-13971704D02*
X5418626Y-13971704D01*
X5418626Y-13971704D02*
X5399578Y-13962180D01*
X5399578Y-13962180D02*
X5390054Y-13952656D01*
X5590054Y-13771704D02*
X5590054Y-13809799D01*
X5666245Y-13771704D02*
X5666245Y-13809799D01*
X5961483Y-14047894D02*
X5951959Y-14038370D01*
X5951959Y-14038370D02*
X5932911Y-14009799D01*
X5932911Y-14009799D02*
X5923388Y-13990751D01*
X5923388Y-13990751D02*
X5913864Y-13962180D01*
X5913864Y-13962180D02*
X5904340Y-13914561D01*
X5904340Y-13914561D02*
X5904340Y-13876466D01*
X5904340Y-13876466D02*
X5913864Y-13828847D01*
X5913864Y-13828847D02*
X5923388Y-13800275D01*
X5923388Y-13800275D02*
X5932911Y-13781228D01*
X5932911Y-13781228D02*
X5951959Y-13752656D01*
X5951959Y-13752656D02*
X5961483Y-13743132D01*
X6018626Y-13771704D02*
X6151959Y-13771704D01*
X6151959Y-13771704D02*
X6066245Y-13971704D01*
X6380530Y-13971704D02*
X6380530Y-13771704D01*
X6466245Y-13971704D02*
X6466245Y-13866942D01*
X6466245Y-13866942D02*
X6456721Y-13847894D01*
X6456721Y-13847894D02*
X6437673Y-13838370D01*
X6437673Y-13838370D02*
X6409102Y-13838370D01*
X6409102Y-13838370D02*
X6390054Y-13847894D01*
X6390054Y-13847894D02*
X6380530Y-13857418D01*
X6590054Y-13971704D02*
X6571007Y-13962180D01*
X6571007Y-13962180D02*
X6561483Y-13952656D01*
X6561483Y-13952656D02*
X6551959Y-13933608D01*
X6551959Y-13933608D02*
X6551959Y-13876466D01*
X6551959Y-13876466D02*
X6561483Y-13857418D01*
X6561483Y-13857418D02*
X6571007Y-13847894D01*
X6571007Y-13847894D02*
X6590054Y-13838370D01*
X6590054Y-13838370D02*
X6618626Y-13838370D01*
X6618626Y-13838370D02*
X6637673Y-13847894D01*
X6637673Y-13847894D02*
X6647197Y-13857418D01*
X6647197Y-13857418D02*
X6656721Y-13876466D01*
X6656721Y-13876466D02*
X6656721Y-13933608D01*
X6656721Y-13933608D02*
X6647197Y-13952656D01*
X6647197Y-13952656D02*
X6637673Y-13962180D01*
X6637673Y-13962180D02*
X6618626Y-13971704D01*
X6618626Y-13971704D02*
X6590054Y-13971704D01*
X6771007Y-13971704D02*
X6751959Y-13962180D01*
X6751959Y-13962180D02*
X6742435Y-13943132D01*
X6742435Y-13943132D02*
X6742435Y-13771704D01*
X6923388Y-13962180D02*
X6904340Y-13971704D01*
X6904340Y-13971704D02*
X6866245Y-13971704D01*
X6866245Y-13971704D02*
X6847197Y-13962180D01*
X6847197Y-13962180D02*
X6837673Y-13943132D01*
X6837673Y-13943132D02*
X6837673Y-13866942D01*
X6837673Y-13866942D02*
X6847197Y-13847894D01*
X6847197Y-13847894D02*
X6866245Y-13838370D01*
X6866245Y-13838370D02*
X6904340Y-13838370D01*
X6904340Y-13838370D02*
X6923388Y-13847894D01*
X6923388Y-13847894D02*
X6932911Y-13866942D01*
X6932911Y-13866942D02*
X6932911Y-13885989D01*
X6932911Y-13885989D02*
X6837673Y-13905037D01*
X7009102Y-13962180D02*
X7028150Y-13971704D01*
X7028150Y-13971704D02*
X7066245Y-13971704D01*
X7066245Y-13971704D02*
X7085292Y-13962180D01*
X7085292Y-13962180D02*
X7094816Y-13943132D01*
X7094816Y-13943132D02*
X7094816Y-13933608D01*
X7094816Y-13933608D02*
X7085292Y-13914561D01*
X7085292Y-13914561D02*
X7066245Y-13905037D01*
X7066245Y-13905037D02*
X7037673Y-13905037D01*
X7037673Y-13905037D02*
X7018626Y-13895513D01*
X7018626Y-13895513D02*
X7009102Y-13876466D01*
X7009102Y-13876466D02*
X7009102Y-13866942D01*
X7009102Y-13866942D02*
X7018626Y-13847894D01*
X7018626Y-13847894D02*
X7037673Y-13838370D01*
X7037673Y-13838370D02*
X7066245Y-13838370D01*
X7066245Y-13838370D02*
X7085292Y-13847894D01*
X7161483Y-14047894D02*
X7171007Y-14038370D01*
X7171007Y-14038370D02*
X7190054Y-14009799D01*
X7190054Y-14009799D02*
X7199578Y-13990751D01*
X7199578Y-13990751D02*
X7209102Y-13962180D01*
X7209102Y-13962180D02*
X7218626Y-13914561D01*
X7218626Y-13914561D02*
X7218626Y-13876466D01*
X7218626Y-13876466D02*
X7209102Y-13828847D01*
X7209102Y-13828847D02*
X7199578Y-13800275D01*
X7199578Y-13800275D02*
X7190054Y-13781228D01*
X7190054Y-13781228D02*
X7171007Y-13752656D01*
X7171007Y-13752656D02*
X7161483Y-13743132D01*
D18*
X2256880Y-14079450D02*
X2386420Y-14208990D01*
X2386420Y-14079450D02*
X2256880Y-14208990D01*
X2367450Y-14190020D02*
X2367450Y-14098420D01*
X2275850Y-14098420D01*
X2275850Y-14190020D01*
X2367450Y-14190020D01*
D11*
X2751959Y-14235704D02*
X2637673Y-14235704D01*
X2694816Y-14235704D02*
X2694816Y-14035704D01*
X2694816Y-14035704D02*
X2675768Y-14064275D01*
X2675768Y-14064275D02*
X2656721Y-14083323D01*
X2656721Y-14083323D02*
X2637673Y-14092847D01*
X2837673Y-14216656D02*
X2847197Y-14226180D01*
X2847197Y-14226180D02*
X2837673Y-14235704D01*
X2837673Y-14235704D02*
X2828149Y-14226180D01*
X2828149Y-14226180D02*
X2837673Y-14216656D01*
X2837673Y-14216656D02*
X2837673Y-14235704D01*
X2923387Y-14054751D02*
X2932911Y-14045228D01*
X2932911Y-14045228D02*
X2951959Y-14035704D01*
X2951959Y-14035704D02*
X2999578Y-14035704D01*
X2999578Y-14035704D02*
X3018625Y-14045228D01*
X3018625Y-14045228D02*
X3028149Y-14054751D01*
X3028149Y-14054751D02*
X3037673Y-14073799D01*
X3037673Y-14073799D02*
X3037673Y-14092847D01*
X3037673Y-14092847D02*
X3028149Y-14121418D01*
X3028149Y-14121418D02*
X2913863Y-14235704D01*
X2913863Y-14235704D02*
X3037673Y-14235704D01*
X3132911Y-14235704D02*
X3171006Y-14235704D01*
X3171006Y-14235704D02*
X3190054Y-14226180D01*
X3190054Y-14226180D02*
X3199578Y-14216656D01*
X3199578Y-14216656D02*
X3218625Y-14188085D01*
X3218625Y-14188085D02*
X3228149Y-14149989D01*
X3228149Y-14149989D02*
X3228149Y-14073799D01*
X3228149Y-14073799D02*
X3218625Y-14054751D01*
X3218625Y-14054751D02*
X3209102Y-14045228D01*
X3209102Y-14045228D02*
X3190054Y-14035704D01*
X3190054Y-14035704D02*
X3151959Y-14035704D01*
X3151959Y-14035704D02*
X3132911Y-14045228D01*
X3132911Y-14045228D02*
X3123387Y-14054751D01*
X3123387Y-14054751D02*
X3113863Y-14073799D01*
X3113863Y-14073799D02*
X3113863Y-14121418D01*
X3113863Y-14121418D02*
X3123387Y-14140466D01*
X3123387Y-14140466D02*
X3132911Y-14149989D01*
X3132911Y-14149989D02*
X3151959Y-14159513D01*
X3151959Y-14159513D02*
X3190054Y-14159513D01*
X3190054Y-14159513D02*
X3209102Y-14149989D01*
X3209102Y-14149989D02*
X3218625Y-14140466D01*
X3218625Y-14140466D02*
X3228149Y-14121418D01*
X3409102Y-14035704D02*
X3313863Y-14035704D01*
X3313863Y-14035704D02*
X3304340Y-14130942D01*
X3304340Y-14130942D02*
X3313863Y-14121418D01*
X3313863Y-14121418D02*
X3332911Y-14111894D01*
X3332911Y-14111894D02*
X3380530Y-14111894D01*
X3380530Y-14111894D02*
X3399578Y-14121418D01*
X3399578Y-14121418D02*
X3409102Y-14130942D01*
X3409102Y-14130942D02*
X3418625Y-14149989D01*
X3418625Y-14149989D02*
X3418625Y-14197608D01*
X3418625Y-14197608D02*
X3409102Y-14216656D01*
X3409102Y-14216656D02*
X3399578Y-14226180D01*
X3399578Y-14226180D02*
X3380530Y-14235704D01*
X3380530Y-14235704D02*
X3332911Y-14235704D01*
X3332911Y-14235704D02*
X3313863Y-14226180D01*
X3313863Y-14226180D02*
X3304340Y-14216656D01*
X3504340Y-14235704D02*
X3504340Y-14102370D01*
X3504340Y-14121418D02*
X3513863Y-14111894D01*
X3513863Y-14111894D02*
X3532911Y-14102370D01*
X3532911Y-14102370D02*
X3561483Y-14102370D01*
X3561483Y-14102370D02*
X3580530Y-14111894D01*
X3580530Y-14111894D02*
X3590054Y-14130942D01*
X3590054Y-14130942D02*
X3590054Y-14235704D01*
X3590054Y-14130942D02*
X3599578Y-14111894D01*
X3599578Y-14111894D02*
X3618625Y-14102370D01*
X3618625Y-14102370D02*
X3647197Y-14102370D01*
X3647197Y-14102370D02*
X3666244Y-14111894D01*
X3666244Y-14111894D02*
X3675768Y-14130942D01*
X3675768Y-14130942D02*
X3675768Y-14235704D01*
X3771006Y-14235704D02*
X3771006Y-14102370D01*
X3771006Y-14121418D02*
X3780530Y-14111894D01*
X3780530Y-14111894D02*
X3799578Y-14102370D01*
X3799578Y-14102370D02*
X3828149Y-14102370D01*
X3828149Y-14102370D02*
X3847197Y-14111894D01*
X3847197Y-14111894D02*
X3856721Y-14130942D01*
X3856721Y-14130942D02*
X3856721Y-14235704D01*
X3856721Y-14130942D02*
X3866244Y-14111894D01*
X3866244Y-14111894D02*
X3885292Y-14102370D01*
X3885292Y-14102370D02*
X3913863Y-14102370D01*
X3913863Y-14102370D02*
X3932911Y-14111894D01*
X3932911Y-14111894D02*
X3942435Y-14130942D01*
X3942435Y-14130942D02*
X3942435Y-14235704D01*
X4332911Y-14026180D02*
X4161483Y-14283323D01*
X4590054Y-14035704D02*
X4609102Y-14035704D01*
X4609102Y-14035704D02*
X4628149Y-14045228D01*
X4628149Y-14045228D02*
X4637673Y-14054751D01*
X4637673Y-14054751D02*
X4647197Y-14073799D01*
X4647197Y-14073799D02*
X4656721Y-14111894D01*
X4656721Y-14111894D02*
X4656721Y-14159513D01*
X4656721Y-14159513D02*
X4647197Y-14197608D01*
X4647197Y-14197608D02*
X4637673Y-14216656D01*
X4637673Y-14216656D02*
X4628149Y-14226180D01*
X4628149Y-14226180D02*
X4609102Y-14235704D01*
X4609102Y-14235704D02*
X4590054Y-14235704D01*
X4590054Y-14235704D02*
X4571007Y-14226180D01*
X4571007Y-14226180D02*
X4561483Y-14216656D01*
X4561483Y-14216656D02*
X4551959Y-14197608D01*
X4551959Y-14197608D02*
X4542435Y-14159513D01*
X4542435Y-14159513D02*
X4542435Y-14111894D01*
X4542435Y-14111894D02*
X4551959Y-14073799D01*
X4551959Y-14073799D02*
X4561483Y-14054751D01*
X4561483Y-14054751D02*
X4571007Y-14045228D01*
X4571007Y-14045228D02*
X4590054Y-14035704D01*
X4742435Y-14216656D02*
X4751959Y-14226180D01*
X4751959Y-14226180D02*
X4742435Y-14235704D01*
X4742435Y-14235704D02*
X4732911Y-14226180D01*
X4732911Y-14226180D02*
X4742435Y-14216656D01*
X4742435Y-14216656D02*
X4742435Y-14235704D01*
X4875768Y-14035704D02*
X4894816Y-14035704D01*
X4894816Y-14035704D02*
X4913864Y-14045228D01*
X4913864Y-14045228D02*
X4923388Y-14054751D01*
X4923388Y-14054751D02*
X4932911Y-14073799D01*
X4932911Y-14073799D02*
X4942435Y-14111894D01*
X4942435Y-14111894D02*
X4942435Y-14159513D01*
X4942435Y-14159513D02*
X4932911Y-14197608D01*
X4932911Y-14197608D02*
X4923388Y-14216656D01*
X4923388Y-14216656D02*
X4913864Y-14226180D01*
X4913864Y-14226180D02*
X4894816Y-14235704D01*
X4894816Y-14235704D02*
X4875768Y-14235704D01*
X4875768Y-14235704D02*
X4856721Y-14226180D01*
X4856721Y-14226180D02*
X4847197Y-14216656D01*
X4847197Y-14216656D02*
X4837673Y-14197608D01*
X4837673Y-14197608D02*
X4828149Y-14159513D01*
X4828149Y-14159513D02*
X4828149Y-14111894D01*
X4828149Y-14111894D02*
X4837673Y-14073799D01*
X4837673Y-14073799D02*
X4847197Y-14054751D01*
X4847197Y-14054751D02*
X4856721Y-14045228D01*
X4856721Y-14045228D02*
X4875768Y-14035704D01*
X5123388Y-14035704D02*
X5028149Y-14035704D01*
X5028149Y-14035704D02*
X5018626Y-14130942D01*
X5018626Y-14130942D02*
X5028149Y-14121418D01*
X5028149Y-14121418D02*
X5047197Y-14111894D01*
X5047197Y-14111894D02*
X5094816Y-14111894D01*
X5094816Y-14111894D02*
X5113864Y-14121418D01*
X5113864Y-14121418D02*
X5123388Y-14130942D01*
X5123388Y-14130942D02*
X5132911Y-14149989D01*
X5132911Y-14149989D02*
X5132911Y-14197608D01*
X5132911Y-14197608D02*
X5123388Y-14216656D01*
X5123388Y-14216656D02*
X5113864Y-14226180D01*
X5113864Y-14226180D02*
X5094816Y-14235704D01*
X5094816Y-14235704D02*
X5047197Y-14235704D01*
X5047197Y-14235704D02*
X5028149Y-14226180D01*
X5028149Y-14226180D02*
X5018626Y-14216656D01*
X5323388Y-14235704D02*
X5209102Y-14235704D01*
X5266245Y-14235704D02*
X5266245Y-14035704D01*
X5266245Y-14035704D02*
X5247197Y-14064275D01*
X5247197Y-14064275D02*
X5228149Y-14083323D01*
X5228149Y-14083323D02*
X5209102Y-14092847D01*
X5447197Y-14035704D02*
X5466245Y-14035704D01*
X5466245Y-14035704D02*
X5485292Y-14045228D01*
X5485292Y-14045228D02*
X5494816Y-14054751D01*
X5494816Y-14054751D02*
X5504340Y-14073799D01*
X5504340Y-14073799D02*
X5513864Y-14111894D01*
X5513864Y-14111894D02*
X5513864Y-14159513D01*
X5513864Y-14159513D02*
X5504340Y-14197608D01*
X5504340Y-14197608D02*
X5494816Y-14216656D01*
X5494816Y-14216656D02*
X5485292Y-14226180D01*
X5485292Y-14226180D02*
X5466245Y-14235704D01*
X5466245Y-14235704D02*
X5447197Y-14235704D01*
X5447197Y-14235704D02*
X5428149Y-14226180D01*
X5428149Y-14226180D02*
X5418626Y-14216656D01*
X5418626Y-14216656D02*
X5409102Y-14197608D01*
X5409102Y-14197608D02*
X5399578Y-14159513D01*
X5399578Y-14159513D02*
X5399578Y-14111894D01*
X5399578Y-14111894D02*
X5409102Y-14073799D01*
X5409102Y-14073799D02*
X5418626Y-14054751D01*
X5418626Y-14054751D02*
X5428149Y-14045228D01*
X5428149Y-14045228D02*
X5447197Y-14035704D01*
X5590054Y-14035704D02*
X5590054Y-14073799D01*
X5666245Y-14035704D02*
X5666245Y-14073799D01*
X5961483Y-14311894D02*
X5951959Y-14302370D01*
X5951959Y-14302370D02*
X5932911Y-14273799D01*
X5932911Y-14273799D02*
X5923388Y-14254751D01*
X5923388Y-14254751D02*
X5913864Y-14226180D01*
X5913864Y-14226180D02*
X5904340Y-14178561D01*
X5904340Y-14178561D02*
X5904340Y-14140466D01*
X5904340Y-14140466D02*
X5913864Y-14092847D01*
X5913864Y-14092847D02*
X5923388Y-14064275D01*
X5923388Y-14064275D02*
X5932911Y-14045228D01*
X5932911Y-14045228D02*
X5951959Y-14016656D01*
X5951959Y-14016656D02*
X5961483Y-14007132D01*
X6018626Y-14035704D02*
X6142435Y-14035704D01*
X6142435Y-14035704D02*
X6075768Y-14111894D01*
X6075768Y-14111894D02*
X6104340Y-14111894D01*
X6104340Y-14111894D02*
X6123388Y-14121418D01*
X6123388Y-14121418D02*
X6132911Y-14130942D01*
X6132911Y-14130942D02*
X6142435Y-14149989D01*
X6142435Y-14149989D02*
X6142435Y-14197608D01*
X6142435Y-14197608D02*
X6132911Y-14216656D01*
X6132911Y-14216656D02*
X6123388Y-14226180D01*
X6123388Y-14226180D02*
X6104340Y-14235704D01*
X6104340Y-14235704D02*
X6047197Y-14235704D01*
X6047197Y-14235704D02*
X6028149Y-14226180D01*
X6028149Y-14226180D02*
X6018626Y-14216656D01*
X6313864Y-14035704D02*
X6275768Y-14035704D01*
X6275768Y-14035704D02*
X6256721Y-14045228D01*
X6256721Y-14045228D02*
X6247197Y-14054751D01*
X6247197Y-14054751D02*
X6228149Y-14083323D01*
X6228149Y-14083323D02*
X6218626Y-14121418D01*
X6218626Y-14121418D02*
X6218626Y-14197608D01*
X6218626Y-14197608D02*
X6228149Y-14216656D01*
X6228149Y-14216656D02*
X6237673Y-14226180D01*
X6237673Y-14226180D02*
X6256721Y-14235704D01*
X6256721Y-14235704D02*
X6294816Y-14235704D01*
X6294816Y-14235704D02*
X6313864Y-14226180D01*
X6313864Y-14226180D02*
X6323388Y-14216656D01*
X6323388Y-14216656D02*
X6332911Y-14197608D01*
X6332911Y-14197608D02*
X6332911Y-14149989D01*
X6332911Y-14149989D02*
X6323388Y-14130942D01*
X6323388Y-14130942D02*
X6313864Y-14121418D01*
X6313864Y-14121418D02*
X6294816Y-14111894D01*
X6294816Y-14111894D02*
X6256721Y-14111894D01*
X6256721Y-14111894D02*
X6237673Y-14121418D01*
X6237673Y-14121418D02*
X6228149Y-14130942D01*
X6228149Y-14130942D02*
X6218626Y-14149989D01*
X6571007Y-14235704D02*
X6571007Y-14035704D01*
X6656721Y-14235704D02*
X6656721Y-14130942D01*
X6656721Y-14130942D02*
X6647197Y-14111894D01*
X6647197Y-14111894D02*
X6628150Y-14102370D01*
X6628150Y-14102370D02*
X6599578Y-14102370D01*
X6599578Y-14102370D02*
X6580530Y-14111894D01*
X6580530Y-14111894D02*
X6571007Y-14121418D01*
X6780530Y-14235704D02*
X6761483Y-14226180D01*
X6761483Y-14226180D02*
X6751959Y-14216656D01*
X6751959Y-14216656D02*
X6742435Y-14197608D01*
X6742435Y-14197608D02*
X6742435Y-14140466D01*
X6742435Y-14140466D02*
X6751959Y-14121418D01*
X6751959Y-14121418D02*
X6761483Y-14111894D01*
X6761483Y-14111894D02*
X6780530Y-14102370D01*
X6780530Y-14102370D02*
X6809102Y-14102370D01*
X6809102Y-14102370D02*
X6828150Y-14111894D01*
X6828150Y-14111894D02*
X6837673Y-14121418D01*
X6837673Y-14121418D02*
X6847197Y-14140466D01*
X6847197Y-14140466D02*
X6847197Y-14197608D01*
X6847197Y-14197608D02*
X6837673Y-14216656D01*
X6837673Y-14216656D02*
X6828150Y-14226180D01*
X6828150Y-14226180D02*
X6809102Y-14235704D01*
X6809102Y-14235704D02*
X6780530Y-14235704D01*
X6961483Y-14235704D02*
X6942435Y-14226180D01*
X6942435Y-14226180D02*
X6932911Y-14207132D01*
X6932911Y-14207132D02*
X6932911Y-14035704D01*
X7113864Y-14226180D02*
X7094816Y-14235704D01*
X7094816Y-14235704D02*
X7056721Y-14235704D01*
X7056721Y-14235704D02*
X7037673Y-14226180D01*
X7037673Y-14226180D02*
X7028150Y-14207132D01*
X7028150Y-14207132D02*
X7028150Y-14130942D01*
X7028150Y-14130942D02*
X7037673Y-14111894D01*
X7037673Y-14111894D02*
X7056721Y-14102370D01*
X7056721Y-14102370D02*
X7094816Y-14102370D01*
X7094816Y-14102370D02*
X7113864Y-14111894D01*
X7113864Y-14111894D02*
X7123388Y-14130942D01*
X7123388Y-14130942D02*
X7123388Y-14149989D01*
X7123388Y-14149989D02*
X7028150Y-14169037D01*
X7199578Y-14226180D02*
X7218626Y-14235704D01*
X7218626Y-14235704D02*
X7256721Y-14235704D01*
X7256721Y-14235704D02*
X7275769Y-14226180D01*
X7275769Y-14226180D02*
X7285292Y-14207132D01*
X7285292Y-14207132D02*
X7285292Y-14197608D01*
X7285292Y-14197608D02*
X7275769Y-14178561D01*
X7275769Y-14178561D02*
X7256721Y-14169037D01*
X7256721Y-14169037D02*
X7228150Y-14169037D01*
X7228150Y-14169037D02*
X7209102Y-14159513D01*
X7209102Y-14159513D02*
X7199578Y-14140466D01*
X7199578Y-14140466D02*
X7199578Y-14130942D01*
X7199578Y-14130942D02*
X7209102Y-14111894D01*
X7209102Y-14111894D02*
X7228150Y-14102370D01*
X7228150Y-14102370D02*
X7256721Y-14102370D01*
X7256721Y-14102370D02*
X7275769Y-14111894D01*
X7351959Y-14311894D02*
X7361483Y-14302370D01*
X7361483Y-14302370D02*
X7380531Y-14273799D01*
X7380531Y-14273799D02*
X7390054Y-14254751D01*
X7390054Y-14254751D02*
X7399578Y-14226180D01*
X7399578Y-14226180D02*
X7409102Y-14178561D01*
X7409102Y-14178561D02*
X7409102Y-14140466D01*
X7409102Y-14140466D02*
X7399578Y-14092847D01*
X7399578Y-14092847D02*
X7390054Y-14064275D01*
X7390054Y-14064275D02*
X7380531Y-14045228D01*
X7380531Y-14045228D02*
X7361483Y-14016656D01*
X7361483Y-14016656D02*
X7351959Y-14007132D01*
X2186420Y-14308220D02*
X2386420Y-14508220D01*
X2386420Y-14308220D02*
X2186420Y-14508220D01*
X2286420Y-14508220D02*
X2386420Y-14408220D01*
X2286420Y-14308220D01*
X2186420Y-14408220D01*
X2286420Y-14508220D01*
X2628149Y-14299704D02*
X2751959Y-14299704D01*
X2751959Y-14299704D02*
X2685292Y-14375894D01*
X2685292Y-14375894D02*
X2713864Y-14375894D01*
X2713864Y-14375894D02*
X2732911Y-14385418D01*
X2732911Y-14385418D02*
X2742435Y-14394942D01*
X2742435Y-14394942D02*
X2751959Y-14413989D01*
X2751959Y-14413989D02*
X2751959Y-14461608D01*
X2751959Y-14461608D02*
X2742435Y-14480656D01*
X2742435Y-14480656D02*
X2732911Y-14490180D01*
X2732911Y-14490180D02*
X2713864Y-14499704D01*
X2713864Y-14499704D02*
X2656721Y-14499704D01*
X2656721Y-14499704D02*
X2637673Y-14490180D01*
X2637673Y-14490180D02*
X2628149Y-14480656D01*
X2837673Y-14480656D02*
X2847197Y-14490180D01*
X2847197Y-14490180D02*
X2837673Y-14499704D01*
X2837673Y-14499704D02*
X2828149Y-14490180D01*
X2828149Y-14490180D02*
X2837673Y-14480656D01*
X2837673Y-14480656D02*
X2837673Y-14499704D01*
X2923387Y-14318751D02*
X2932911Y-14309228D01*
X2932911Y-14309228D02*
X2951959Y-14299704D01*
X2951959Y-14299704D02*
X2999578Y-14299704D01*
X2999578Y-14299704D02*
X3018625Y-14309228D01*
X3018625Y-14309228D02*
X3028149Y-14318751D01*
X3028149Y-14318751D02*
X3037673Y-14337799D01*
X3037673Y-14337799D02*
X3037673Y-14356847D01*
X3037673Y-14356847D02*
X3028149Y-14385418D01*
X3028149Y-14385418D02*
X2913863Y-14499704D01*
X2913863Y-14499704D02*
X3037673Y-14499704D01*
X3161482Y-14299704D02*
X3180530Y-14299704D01*
X3180530Y-14299704D02*
X3199578Y-14309228D01*
X3199578Y-14309228D02*
X3209102Y-14318751D01*
X3209102Y-14318751D02*
X3218625Y-14337799D01*
X3218625Y-14337799D02*
X3228149Y-14375894D01*
X3228149Y-14375894D02*
X3228149Y-14423513D01*
X3228149Y-14423513D02*
X3218625Y-14461608D01*
X3218625Y-14461608D02*
X3209102Y-14480656D01*
X3209102Y-14480656D02*
X3199578Y-14490180D01*
X3199578Y-14490180D02*
X3180530Y-14499704D01*
X3180530Y-14499704D02*
X3161482Y-14499704D01*
X3161482Y-14499704D02*
X3142435Y-14490180D01*
X3142435Y-14490180D02*
X3132911Y-14480656D01*
X3132911Y-14480656D02*
X3123387Y-14461608D01*
X3123387Y-14461608D02*
X3113863Y-14423513D01*
X3113863Y-14423513D02*
X3113863Y-14375894D01*
X3113863Y-14375894D02*
X3123387Y-14337799D01*
X3123387Y-14337799D02*
X3132911Y-14318751D01*
X3132911Y-14318751D02*
X3142435Y-14309228D01*
X3142435Y-14309228D02*
X3161482Y-14299704D01*
X3351959Y-14299704D02*
X3371006Y-14299704D01*
X3371006Y-14299704D02*
X3390054Y-14309228D01*
X3390054Y-14309228D02*
X3399578Y-14318751D01*
X3399578Y-14318751D02*
X3409102Y-14337799D01*
X3409102Y-14337799D02*
X3418625Y-14375894D01*
X3418625Y-14375894D02*
X3418625Y-14423513D01*
X3418625Y-14423513D02*
X3409102Y-14461608D01*
X3409102Y-14461608D02*
X3399578Y-14480656D01*
X3399578Y-14480656D02*
X3390054Y-14490180D01*
X3390054Y-14490180D02*
X3371006Y-14499704D01*
X3371006Y-14499704D02*
X3351959Y-14499704D01*
X3351959Y-14499704D02*
X3332911Y-14490180D01*
X3332911Y-14490180D02*
X3323387Y-14480656D01*
X3323387Y-14480656D02*
X3313863Y-14461608D01*
X3313863Y-14461608D02*
X3304340Y-14423513D01*
X3304340Y-14423513D02*
X3304340Y-14375894D01*
X3304340Y-14375894D02*
X3313863Y-14337799D01*
X3313863Y-14337799D02*
X3323387Y-14318751D01*
X3323387Y-14318751D02*
X3332911Y-14309228D01*
X3332911Y-14309228D02*
X3351959Y-14299704D01*
X3504340Y-14499704D02*
X3504340Y-14366370D01*
X3504340Y-14385418D02*
X3513863Y-14375894D01*
X3513863Y-14375894D02*
X3532911Y-14366370D01*
X3532911Y-14366370D02*
X3561483Y-14366370D01*
X3561483Y-14366370D02*
X3580530Y-14375894D01*
X3580530Y-14375894D02*
X3590054Y-14394942D01*
X3590054Y-14394942D02*
X3590054Y-14499704D01*
X3590054Y-14394942D02*
X3599578Y-14375894D01*
X3599578Y-14375894D02*
X3618625Y-14366370D01*
X3618625Y-14366370D02*
X3647197Y-14366370D01*
X3647197Y-14366370D02*
X3666244Y-14375894D01*
X3666244Y-14375894D02*
X3675768Y-14394942D01*
X3675768Y-14394942D02*
X3675768Y-14499704D01*
X3771006Y-14499704D02*
X3771006Y-14366370D01*
X3771006Y-14385418D02*
X3780530Y-14375894D01*
X3780530Y-14375894D02*
X3799578Y-14366370D01*
X3799578Y-14366370D02*
X3828149Y-14366370D01*
X3828149Y-14366370D02*
X3847197Y-14375894D01*
X3847197Y-14375894D02*
X3856721Y-14394942D01*
X3856721Y-14394942D02*
X3856721Y-14499704D01*
X3856721Y-14394942D02*
X3866244Y-14375894D01*
X3866244Y-14375894D02*
X3885292Y-14366370D01*
X3885292Y-14366370D02*
X3913863Y-14366370D01*
X3913863Y-14366370D02*
X3932911Y-14375894D01*
X3932911Y-14375894D02*
X3942435Y-14394942D01*
X3942435Y-14394942D02*
X3942435Y-14499704D01*
X4332911Y-14290180D02*
X4161483Y-14547323D01*
X4590054Y-14299704D02*
X4609102Y-14299704D01*
X4609102Y-14299704D02*
X4628149Y-14309228D01*
X4628149Y-14309228D02*
X4637673Y-14318751D01*
X4637673Y-14318751D02*
X4647197Y-14337799D01*
X4647197Y-14337799D02*
X4656721Y-14375894D01*
X4656721Y-14375894D02*
X4656721Y-14423513D01*
X4656721Y-14423513D02*
X4647197Y-14461608D01*
X4647197Y-14461608D02*
X4637673Y-14480656D01*
X4637673Y-14480656D02*
X4628149Y-14490180D01*
X4628149Y-14490180D02*
X4609102Y-14499704D01*
X4609102Y-14499704D02*
X4590054Y-14499704D01*
X4590054Y-14499704D02*
X4571007Y-14490180D01*
X4571007Y-14490180D02*
X4561483Y-14480656D01*
X4561483Y-14480656D02*
X4551959Y-14461608D01*
X4551959Y-14461608D02*
X4542435Y-14423513D01*
X4542435Y-14423513D02*
X4542435Y-14375894D01*
X4542435Y-14375894D02*
X4551959Y-14337799D01*
X4551959Y-14337799D02*
X4561483Y-14318751D01*
X4561483Y-14318751D02*
X4571007Y-14309228D01*
X4571007Y-14309228D02*
X4590054Y-14299704D01*
X4742435Y-14480656D02*
X4751959Y-14490180D01*
X4751959Y-14490180D02*
X4742435Y-14499704D01*
X4742435Y-14499704D02*
X4732911Y-14490180D01*
X4732911Y-14490180D02*
X4742435Y-14480656D01*
X4742435Y-14480656D02*
X4742435Y-14499704D01*
X4942435Y-14499704D02*
X4828149Y-14499704D01*
X4885292Y-14499704D02*
X4885292Y-14299704D01*
X4885292Y-14299704D02*
X4866245Y-14328275D01*
X4866245Y-14328275D02*
X4847197Y-14347323D01*
X4847197Y-14347323D02*
X4828149Y-14356847D01*
X5018626Y-14318751D02*
X5028149Y-14309228D01*
X5028149Y-14309228D02*
X5047197Y-14299704D01*
X5047197Y-14299704D02*
X5094816Y-14299704D01*
X5094816Y-14299704D02*
X5113864Y-14309228D01*
X5113864Y-14309228D02*
X5123388Y-14318751D01*
X5123388Y-14318751D02*
X5132911Y-14337799D01*
X5132911Y-14337799D02*
X5132911Y-14356847D01*
X5132911Y-14356847D02*
X5123388Y-14385418D01*
X5123388Y-14385418D02*
X5009102Y-14499704D01*
X5009102Y-14499704D02*
X5132911Y-14499704D01*
X5304340Y-14299704D02*
X5266245Y-14299704D01*
X5266245Y-14299704D02*
X5247197Y-14309228D01*
X5247197Y-14309228D02*
X5237673Y-14318751D01*
X5237673Y-14318751D02*
X5218626Y-14347323D01*
X5218626Y-14347323D02*
X5209102Y-14385418D01*
X5209102Y-14385418D02*
X5209102Y-14461608D01*
X5209102Y-14461608D02*
X5218626Y-14480656D01*
X5218626Y-14480656D02*
X5228149Y-14490180D01*
X5228149Y-14490180D02*
X5247197Y-14499704D01*
X5247197Y-14499704D02*
X5285292Y-14499704D01*
X5285292Y-14499704D02*
X5304340Y-14490180D01*
X5304340Y-14490180D02*
X5313864Y-14480656D01*
X5313864Y-14480656D02*
X5323388Y-14461608D01*
X5323388Y-14461608D02*
X5323388Y-14413989D01*
X5323388Y-14413989D02*
X5313864Y-14394942D01*
X5313864Y-14394942D02*
X5304340Y-14385418D01*
X5304340Y-14385418D02*
X5285292Y-14375894D01*
X5285292Y-14375894D02*
X5247197Y-14375894D01*
X5247197Y-14375894D02*
X5228149Y-14385418D01*
X5228149Y-14385418D02*
X5218626Y-14394942D01*
X5218626Y-14394942D02*
X5209102Y-14413989D01*
X5447197Y-14299704D02*
X5466245Y-14299704D01*
X5466245Y-14299704D02*
X5485292Y-14309228D01*
X5485292Y-14309228D02*
X5494816Y-14318751D01*
X5494816Y-14318751D02*
X5504340Y-14337799D01*
X5504340Y-14337799D02*
X5513864Y-14375894D01*
X5513864Y-14375894D02*
X5513864Y-14423513D01*
X5513864Y-14423513D02*
X5504340Y-14461608D01*
X5504340Y-14461608D02*
X5494816Y-14480656D01*
X5494816Y-14480656D02*
X5485292Y-14490180D01*
X5485292Y-14490180D02*
X5466245Y-14499704D01*
X5466245Y-14499704D02*
X5447197Y-14499704D01*
X5447197Y-14499704D02*
X5428149Y-14490180D01*
X5428149Y-14490180D02*
X5418626Y-14480656D01*
X5418626Y-14480656D02*
X5409102Y-14461608D01*
X5409102Y-14461608D02*
X5399578Y-14423513D01*
X5399578Y-14423513D02*
X5399578Y-14375894D01*
X5399578Y-14375894D02*
X5409102Y-14337799D01*
X5409102Y-14337799D02*
X5418626Y-14318751D01*
X5418626Y-14318751D02*
X5428149Y-14309228D01*
X5428149Y-14309228D02*
X5447197Y-14299704D01*
X5590054Y-14299704D02*
X5590054Y-14337799D01*
X5666245Y-14299704D02*
X5666245Y-14337799D01*
X5961483Y-14575894D02*
X5951959Y-14566370D01*
X5951959Y-14566370D02*
X5932911Y-14537799D01*
X5932911Y-14537799D02*
X5923388Y-14518751D01*
X5923388Y-14518751D02*
X5913864Y-14490180D01*
X5913864Y-14490180D02*
X5904340Y-14442561D01*
X5904340Y-14442561D02*
X5904340Y-14404466D01*
X5904340Y-14404466D02*
X5913864Y-14356847D01*
X5913864Y-14356847D02*
X5923388Y-14328275D01*
X5923388Y-14328275D02*
X5932911Y-14309228D01*
X5932911Y-14309228D02*
X5951959Y-14280656D01*
X5951959Y-14280656D02*
X5961483Y-14271132D01*
X6018626Y-14299704D02*
X6142435Y-14299704D01*
X6142435Y-14299704D02*
X6075768Y-14375894D01*
X6075768Y-14375894D02*
X6104340Y-14375894D01*
X6104340Y-14375894D02*
X6123388Y-14385418D01*
X6123388Y-14385418D02*
X6132911Y-14394942D01*
X6132911Y-14394942D02*
X6142435Y-14413989D01*
X6142435Y-14413989D02*
X6142435Y-14461608D01*
X6142435Y-14461608D02*
X6132911Y-14480656D01*
X6132911Y-14480656D02*
X6123388Y-14490180D01*
X6123388Y-14490180D02*
X6104340Y-14499704D01*
X6104340Y-14499704D02*
X6047197Y-14499704D01*
X6047197Y-14499704D02*
X6028149Y-14490180D01*
X6028149Y-14490180D02*
X6018626Y-14480656D01*
X6380530Y-14499704D02*
X6380530Y-14299704D01*
X6466245Y-14499704D02*
X6466245Y-14394942D01*
X6466245Y-14394942D02*
X6456721Y-14375894D01*
X6456721Y-14375894D02*
X6437673Y-14366370D01*
X6437673Y-14366370D02*
X6409102Y-14366370D01*
X6409102Y-14366370D02*
X6390054Y-14375894D01*
X6390054Y-14375894D02*
X6380530Y-14385418D01*
X6590054Y-14499704D02*
X6571007Y-14490180D01*
X6571007Y-14490180D02*
X6561483Y-14480656D01*
X6561483Y-14480656D02*
X6551959Y-14461608D01*
X6551959Y-14461608D02*
X6551959Y-14404466D01*
X6551959Y-14404466D02*
X6561483Y-14385418D01*
X6561483Y-14385418D02*
X6571007Y-14375894D01*
X6571007Y-14375894D02*
X6590054Y-14366370D01*
X6590054Y-14366370D02*
X6618626Y-14366370D01*
X6618626Y-14366370D02*
X6637673Y-14375894D01*
X6637673Y-14375894D02*
X6647197Y-14385418D01*
X6647197Y-14385418D02*
X6656721Y-14404466D01*
X6656721Y-14404466D02*
X6656721Y-14461608D01*
X6656721Y-14461608D02*
X6647197Y-14480656D01*
X6647197Y-14480656D02*
X6637673Y-14490180D01*
X6637673Y-14490180D02*
X6618626Y-14499704D01*
X6618626Y-14499704D02*
X6590054Y-14499704D01*
X6771007Y-14499704D02*
X6751959Y-14490180D01*
X6751959Y-14490180D02*
X6742435Y-14471132D01*
X6742435Y-14471132D02*
X6742435Y-14299704D01*
X6923388Y-14490180D02*
X6904340Y-14499704D01*
X6904340Y-14499704D02*
X6866245Y-14499704D01*
X6866245Y-14499704D02*
X6847197Y-14490180D01*
X6847197Y-14490180D02*
X6837673Y-14471132D01*
X6837673Y-14471132D02*
X6837673Y-14394942D01*
X6837673Y-14394942D02*
X6847197Y-14375894D01*
X6847197Y-14375894D02*
X6866245Y-14366370D01*
X6866245Y-14366370D02*
X6904340Y-14366370D01*
X6904340Y-14366370D02*
X6923388Y-14375894D01*
X6923388Y-14375894D02*
X6932911Y-14394942D01*
X6932911Y-14394942D02*
X6932911Y-14413989D01*
X6932911Y-14413989D02*
X6837673Y-14433037D01*
X7009102Y-14490180D02*
X7028150Y-14499704D01*
X7028150Y-14499704D02*
X7066245Y-14499704D01*
X7066245Y-14499704D02*
X7085292Y-14490180D01*
X7085292Y-14490180D02*
X7094816Y-14471132D01*
X7094816Y-14471132D02*
X7094816Y-14461608D01*
X7094816Y-14461608D02*
X7085292Y-14442561D01*
X7085292Y-14442561D02*
X7066245Y-14433037D01*
X7066245Y-14433037D02*
X7037673Y-14433037D01*
X7037673Y-14433037D02*
X7018626Y-14423513D01*
X7018626Y-14423513D02*
X7009102Y-14404466D01*
X7009102Y-14404466D02*
X7009102Y-14394942D01*
X7009102Y-14394942D02*
X7018626Y-14375894D01*
X7018626Y-14375894D02*
X7037673Y-14366370D01*
X7037673Y-14366370D02*
X7066245Y-14366370D01*
X7066245Y-14366370D02*
X7085292Y-14375894D01*
X7161483Y-14575894D02*
X7171007Y-14566370D01*
X7171007Y-14566370D02*
X7190054Y-14537799D01*
X7190054Y-14537799D02*
X7199578Y-14518751D01*
X7199578Y-14518751D02*
X7209102Y-14490180D01*
X7209102Y-14490180D02*
X7218626Y-14442561D01*
X7218626Y-14442561D02*
X7218626Y-14404466D01*
X7218626Y-14404466D02*
X7209102Y-14356847D01*
X7209102Y-14356847D02*
X7199578Y-14328275D01*
X7199578Y-14328275D02*
X7190054Y-14309228D01*
X7190054Y-14309228D02*
X7171007Y-14280656D01*
X7171007Y-14280656D02*
X7161483Y-14271132D01*
M02*
