G04 #@! TF.GenerationSoftware,KiCad,Pcbnew,7.0.5*
G04 #@! TF.CreationDate,2024-05-28T07:47:23+02:00*
G04 #@! TF.ProjectId,hamodule,68616d6f-6475-46c6-952e-6b696361645f,20240528.23.8*
G04 #@! TF.SameCoordinates,Original*
G04 #@! TF.FileFunction,Profile,NP*
%FSLAX46Y46*%
G04 Gerber Fmt 4.6, Leading zero omitted, Abs format (unit mm)*
G04 Created by KiCad (PCBNEW 7.0.5) date 2024-05-28 07:47:23*
%MOMM*%
%LPD*%
G01*
G04 APERTURE LIST*
G04 #@! TA.AperFunction,Profile*
%ADD10C,0.050000*%
G04 #@! TD*
G04 APERTURE END LIST*
D10*
X150977600Y-32189148D02*
X26429200Y-32207200D01*
X23889200Y-113995200D02*
X23889200Y-34747200D01*
X23889201Y-113995200D02*
G75*
G03*
X26429200Y-116537198I2541999J0D01*
G01*
X40614600Y-52705000D02*
X43510200Y-52705000D01*
X37808400Y-61823600D02*
G75*
G03*
X38773600Y-61823600I482600J0D01*
G01*
X38773600Y-58928000D02*
G75*
G03*
X37808400Y-58928000I-482600J0D01*
G01*
X136663204Y-89357200D02*
X136665200Y-113995200D01*
X153515652Y-34729147D02*
G75*
G03*
X150977600Y-32189149I-2540052J-53D01*
G01*
X43510200Y-51739800D02*
X40614600Y-51739800D01*
X43510200Y-52705000D02*
G75*
G03*
X43510200Y-51739800I0J482600D01*
G01*
X26429200Y-32207200D02*
G75*
G03*
X23889200Y-34747200I0J-2540000D01*
G01*
X150975604Y-86799204D02*
G75*
G03*
X153515604Y-84259147I-4J2540004D01*
G01*
X37808400Y-58928000D02*
X37808400Y-61823600D01*
X134125200Y-116535200D02*
X26429200Y-116537200D01*
X139203204Y-86817200D02*
X150975604Y-86799147D01*
X139203204Y-86817204D02*
G75*
G03*
X136663204Y-89357200I-4J-2539996D01*
G01*
X153515604Y-34729147D02*
X153515604Y-84259147D01*
X134125200Y-116535200D02*
G75*
G03*
X136665200Y-113995200I0J2540000D01*
G01*
X40614600Y-51739800D02*
G75*
G03*
X40614600Y-52705000I0J-482600D01*
G01*
X38773600Y-61823600D02*
X38773600Y-58928000D01*
M02*
