M48
; DRILL file {KiCad 7.0.5} date Tue May 28 07:47:26 2024
; FORMAT={-:-/ absolute / metric / decimal}
; #@! TF.CreationDate,2024-05-28T07:47:26+02:00
; #@! TF.GenerationSoftware,Kicad,Pcbnew,7.0.5
; #@! TF.FileFunction,Plated,1,2,PTH
FMAT,2
METRIC
; #@! TA.AperFunction,Plated,PTH,ViaDrill
T1C0.400
; #@! TA.AperFunction,Plated,PTH,ComponentDrill
T2C0.500
; #@! TA.AperFunction,Plated,PTH,ComponentDrill
T3C0.600
; #@! TA.AperFunction,Plated,PTH,ComponentDrill
T4C0.800
; #@! TA.AperFunction,Plated,PTH,ComponentDrill
T5C0.950
; #@! TA.AperFunction,Plated,PTH,ComponentDrill
T6C1.000
; #@! TA.AperFunction,Plated,PTH,ComponentDrill
T7C1.100
; #@! TA.AperFunction,Plated,PTH,ComponentDrill
T8C1.295
; #@! TA.AperFunction,Plated,PTH,ComponentDrill
T9C3.200
%
G90
G05
T1
X30.099Y-104.661
X30.099Y-106.693
X44.348Y-108.077
X45.72Y-102.883
X45.72Y-106.693
X54.229Y-110.135
X56.162Y-105.489
X56.286Y-110.135
X63.308Y-99.898
X63.322Y-110.134
X63.334Y-102.718
X65.01Y-98.704
X65.01Y-102.718
X66.573Y-88.595
X66.585Y-102.718
X66.599Y-110.134
X66.61Y-97.358
X68.199Y-86.36
X68.21Y-102.718
X68.21Y-110.134
X68.287Y-96.088
X69.811Y-94.818
X69.825Y-102.718
X71.374Y-110.135
X71.411Y-102.718
X71.436Y-93.548
X73.062Y-92.278
X73.087Y-102.718
X74.473Y-111.201
X77.123Y-108.755
X77.267Y-101.956
X77.458Y-106.248
X77.509Y-107.569
X78.765Y-91.669
X78.867Y-103.708
X81.026Y-114.427
X81.229Y-105.867
X86.803Y-107.493
X86.843Y-106.274
X88.773Y-105.105
X90.526Y-108.585
X91.453Y-114.681
X91.529Y-103.243
X93.866Y-114.681
X94.019Y-103.243
X97.993Y-106.401
X98.692Y-106.997
X99.005Y-101.37
X99.657Y-102.311
X100.482Y-84.201
X100.482Y-85.725
X102.006Y-85.776
X102.057Y-84.252
X102.501Y-106.606
X105.74Y-106.742
X106.005Y-101.37
X106.096Y-103.099
X106.731Y-106.742
X107.772Y-106.756
X110.445Y-103.937
X110.725Y-106.197
X111.582Y-85.725
X111.608Y-84.226
X111.887Y-106.197
X111.887Y-113.477
X113.233Y-84.201
X113.233Y-85.725
X115.729Y-98.692
X115.729Y-99.742
X119.005Y-108.97
X119.862Y-108.17
X119.914Y-99.991
X120.657Y-99.248
X121.387Y-113.665
X121.387Y-115.341
X123.241Y-97.511
X123.406Y-85.776
X123.432Y-84.252
X124.13Y-96.622
X124.422Y-84.252
X124.422Y-85.75
X125.019Y-95.733
X126.771Y-99.01
X128.295Y-97.663
X128.305Y-103.27
X129.134Y-91.288
X129.705Y-103.27
X129.769Y-96.444
X129.769Y-97.663
X131.205Y-103.27
X131.267Y-96.444
X131.305Y-97.67
X132.316Y-88.543
X132.359Y-87.694
X133.865Y-90.54
X134.989Y-84.252
X134.989Y-85.776
X135.115Y-109.042
X135.128Y-94.564
X136.056Y-85.776
X136.081Y-84.252
T2
X129.807Y-84.531
T4
X34.521Y-59.585
X36.64Y-104.153
X39.14Y-104.153
X42.021Y-61.219
X53.365Y-99.263
X53.535Y-48.453
X53.535Y-53.533
X55.865Y-99.263
X58.488Y-48.453
X58.488Y-53.533
X63.408Y-48.453
X63.408Y-53.533
X68.408Y-48.453
X68.408Y-53.533
X76.95Y-48.539
X76.95Y-53.619
X81.903Y-48.539
X81.903Y-53.619
X86.983Y-48.539
X86.983Y-53.619
X91.936Y-48.539
X91.936Y-53.619
X97.461Y-74.24
X97.461Y-81.86
X100.001Y-74.24
X100.001Y-81.86
X100.126Y-48.436
X100.126Y-53.516
X102.541Y-74.24
X102.541Y-81.86
X105.081Y-74.24
X105.081Y-81.86
X105.104Y-48.436
X105.104Y-53.516
X108.637Y-74.24
X108.637Y-81.86
X110.133Y-48.436
X110.133Y-53.516
X111.177Y-74.24
X111.177Y-81.86
X113.717Y-74.24
X113.717Y-81.86
X115.162Y-48.436
X115.162Y-53.516
X116.257Y-74.24
X116.257Y-81.86
X120.085Y-74.236
X120.085Y-81.856
X122.625Y-74.236
X122.625Y-81.856
X123.498Y-48.408
X123.498Y-53.488
X125.165Y-74.236
X125.165Y-81.856
X127.705Y-74.236
X127.705Y-81.856
X128.498Y-48.438
X128.498Y-53.518
X131.769Y-74.236
X131.769Y-81.856
X133.502Y-48.438
X133.502Y-53.518
X134.309Y-74.236
X134.309Y-81.856
X136.849Y-74.236
X136.849Y-81.856
X138.481Y-48.438
X138.481Y-53.518
X139.389Y-74.236
X139.389Y-81.856
T5
X73.638Y-85.225
X76.138Y-85.225
X78.638Y-85.225
X81.138Y-85.225
X83.638Y-85.225
T6
X32.944Y-110.733
X32.944Y-113.233
X40.869Y-110.733
X40.869Y-113.233
X42.056Y-54.742
X42.066Y-49.662
X47.752Y-99.784
X47.752Y-102.324
X47.752Y-104.864
X47.752Y-108.737
X47.752Y-111.277
X55.694Y-57.724
X55.694Y-65.344
X55.694Y-75.504
X55.694Y-78.044
X60.52Y-57.724
X60.52Y-65.344
X60.52Y-75.504
X60.52Y-78.044
X65.346Y-57.724
X65.346Y-65.344
X65.346Y-75.504
X65.346Y-78.044
X67.913Y-113.782
X70.299Y-57.724
X70.299Y-65.344
X70.299Y-75.504
X70.299Y-78.044
X70.453Y-113.782
X72.993Y-113.782
X77.775Y-57.724
X77.775Y-65.344
X77.775Y-75.504
X77.775Y-78.044
X82.855Y-57.724
X82.855Y-65.344
X82.855Y-75.504
X82.855Y-78.044
X87.935Y-57.724
X87.935Y-65.344
X87.935Y-75.504
X87.935Y-78.044
X92.888Y-57.724
X92.888Y-65.344
X92.888Y-75.504
X92.888Y-78.044
X107.915Y-101.545
X107.915Y-104.085
X109.284Y-95.402
X111.806Y-108.89
X111.824Y-95.402
X114.346Y-108.89
X114.364Y-95.402
X125.305Y-113.66
X127.845Y-113.66
T7
X27.656Y-69.379
X27.656Y-89.379
X37.148Y-99.073
X39.688Y-99.073
X42.228Y-99.073
X47.656Y-74.379
X47.656Y-84.379
T8
X39.02Y-35.156
X39.02Y-43.356
X44.02Y-35.156
X44.02Y-43.356
X53.568Y-35.132
X53.568Y-43.332
X58.568Y-35.132
X58.568Y-43.332
X63.568Y-35.132
X63.568Y-43.332
X68.568Y-35.132
X68.568Y-43.332
X76.936Y-35.132
X76.936Y-43.332
X81.936Y-35.132
X81.936Y-43.332
X86.936Y-35.132
X86.936Y-43.332
X91.936Y-35.132
X91.936Y-43.332
X100.14Y-35.128
X100.14Y-43.328
X105.14Y-35.128
X105.14Y-43.328
X110.14Y-35.128
X110.14Y-43.328
X115.14Y-35.128
X115.14Y-43.328
X123.498Y-35.128
X123.498Y-43.328
X128.498Y-35.128
X128.498Y-43.328
X133.498Y-35.128
X133.498Y-43.328
X138.498Y-35.128
X138.498Y-43.328
T9
X27.0Y-36.0
X27.0Y-109.9
X150.3Y-36.0
T3
G00X98.161Y-108.696
M15
G01X98.161Y-109.796
M16
G05
G00X98.161Y-113.126
M15
G01X98.161Y-113.726
M16
G05
G00X106.801Y-108.696
M15
G01X106.801Y-109.796
M16
G05
G00X106.801Y-113.126
M15
G01X106.801Y-113.726
M16
G05
T0
M30
