G04 Layer: BottomSolderMaskLayer*
G04 EasyEDA v6.4.21, 2021-08-30T13:38:49+01:00*
G04 675468226515401a9f91b2405e789893,c56e7913202049aab2d2ce8198c124d2,10*
G04 Gerber Generator version 0.2*
G04 Scale: 100 percent, Rotated: No, Reflected: No *
G04 Dimensions in millimeters *
G04 leading zeros omitted , absolute positions ,4 integer and 5 decimal *
%FSLAX45Y45*%
%MOMM*%

%ADD42C,1.7000*%
%ADD43C,2.8956*%
%ADD44C,2.1016*%
%ADD45C,1.9016*%

%LPD*%
D42*
G01*
X13507605Y-1045006D03*
G01*
X12857594Y-1045006D03*
G01*
X12857594Y-1494993D03*
G01*
X13507605Y-1494993D03*
G01*
X10901794Y-1482293D03*
G01*
X11551805Y-1482293D03*
G01*
X11551805Y-1032306D03*
G01*
X10901794Y-1032306D03*
D43*
G01*
X3210052Y1652193D03*
G01*
X3810000Y3072206D03*
G01*
X4409998Y2872206D03*
G01*
X3210001Y2872206D03*
G01*
X4409947Y1652193D03*
G01*
X8442452Y1652193D03*
G01*
X9042400Y3072206D03*
G01*
X9642398Y2872206D03*
G01*
X8442401Y2872206D03*
G01*
X9642347Y1652193D03*
D44*
G01*
X1710944Y-1371600D03*
G01*
X1210055Y-1371600D03*
G01*
X4098543Y-1358900D03*
G01*
X3597656Y-1358900D03*
G01*
X7425943Y-1346200D03*
G01*
X6925056Y-1346200D03*
G01*
X5787643Y-1358900D03*
G01*
X5286756Y-1358900D03*
G01*
X9203943Y-1346200D03*
G01*
X8703056Y-1346200D03*
D45*
G01*
X13093700Y3365500D03*
G01*
X13093700Y3111500D03*
G01*
X13093700Y2857500D03*
G01*
X13093700Y2603500D03*
G01*
X13093700Y2349500D03*
G36*
X12998704Y2000504D02*
G01*
X12998704Y2190495D01*
X13188695Y2190495D01*
X13188695Y2000504D01*
G37*
D44*
G01*
X2335098Y3724694D03*
G01*
X535101Y3724694D03*
G01*
X1735099Y364705D03*
G01*
X1135100Y364705D03*
D43*
G01*
X4924552Y1639493D03*
G01*
X5524500Y3059506D03*
G01*
X6124498Y2859506D03*
G01*
X4924501Y2859506D03*
G01*
X6124447Y1639493D03*
G01*
X6702552Y1664893D03*
G01*
X7302500Y3084906D03*
G01*
X7902498Y2884906D03*
G01*
X6702501Y2884906D03*
G01*
X7902447Y1664893D03*
M02*
