M48
; DRILL file {KiCad 8.0.4} date 2024-09-09T03:45:20+0200
; FORMAT={-:-/ absolute / inch / decimal}
; #@! TF.CreationDate,2024-09-09T03:45:20+02:00
; #@! TF.GenerationSoftware,Kicad,Pcbnew,8.0.4
; #@! TF.FileFunction,Plated,1,4,PTH
FMAT,2
INCH
; #@! TA.AperFunction,Plated,PTH,ViaDrill
T1C0.0157
; #@! TA.AperFunction,Plated,PTH,ComponentDrill
T2C0.0197
; #@! TA.AperFunction,Plated,PTH,ComponentDrill
T3C0.0236
; #@! TA.AperFunction,Plated,PTH,ComponentDrill
T4C0.0315
; #@! TA.AperFunction,Plated,PTH,ComponentDrill
T5C0.0374
; #@! TA.AperFunction,Plated,PTH,ComponentDrill
T6C0.0394
; #@! TA.AperFunction,Plated,PTH,ComponentDrill
T7C0.0433
; #@! TA.AperFunction,Plated,PTH,ComponentDrill
T8C0.0510
; #@! TA.AperFunction,Plated,PTH,ComponentDrill
T9C0.1260
%
G90
G05
T1
X0.0265Y0.8236
X0.0305Y0.3747
X0.24Y0.559
X0.2411Y0.6326
X0.242Y0.481
X0.243Y0.398
X0.6702Y0.3964
X0.678Y0.3413
X0.7017Y0.6169
X1.12Y1.3216
X1.12Y1.1139
X1.2372Y0.298
X1.2411Y0.0775
X1.3842Y0.7363
X1.4065Y1.0027
X1.4084Y0.6306
X1.4143Y0.1208
X1.4419Y0.2673
X1.4728Y0.573
X1.4754Y0.6897
X1.5383Y0.6956
X1.5383Y0.6011
X1.5679Y0.2673
X1.5906Y0.035
X1.6003Y0.6011
X1.6004Y0.7114
X1.6269Y1.0027
X1.6643Y0.6011
X1.6643Y0.7429
X1.6978Y0.2673
X1.7273Y0.7743
X1.7278Y0.6011
X1.7923Y0.8058
X1.7923Y0.6011
X1.8002Y1.0145
X1.8002Y0.9712
X1.8563Y0.6011
X1.8572Y0.8373
X1.8946Y0.2704
X1.9124Y0.6011
X1.9364Y0.4059
X1.9439Y0.2704
X1.9773Y1.0539
X1.9793Y0.9417
X2.0029Y0.1759
X2.0069Y0.6051
X2.0092Y0.4787
X2.0738Y0.859
X2.1309Y1.0539
X2.1545Y0.3551
X2.1737Y1.0932
X2.1742Y0.9436
X2.1742Y0.8314
X2.1742Y0.7389
X2.2057Y0.5861
X2.2332Y0.168
X2.2372Y0.5558
X2.25Y0.041
X2.2687Y0.9456
X2.2687Y0.8334
X2.2687Y0.7369
X2.5028Y0.6426
X2.5201Y0.2355
X2.5247Y0.0756
X2.5895Y1.1129
X2.657Y0.08
X2.6635Y0.4436
X2.6702Y0.6562
X2.705Y0.7336
X2.71Y0.1239
X2.7615Y0.4436
X2.762Y1.4574
X2.8061Y1.111
X2.8061Y1.0677
X2.8887Y0.3157
X2.9202Y0.7665
X2.9439Y0.4791
X2.9439Y0.3275
X2.9517Y0.5551
X3.016Y1.231
X3.016Y1.171
X3.076Y1.169
X3.078Y1.229
X3.0955Y0.3489
X3.1529Y0.8153
X3.1978Y0.6799
X3.1978Y0.6034
X3.238Y0.3365
X3.2411Y0.5551
X3.245Y0.483
X3.2805Y0.6799
X3.308Y0.3255
X3.3671Y0.6799
X3.381Y0.1781
X3.4104Y0.5184
X3.4419Y0.6818
X3.453Y1.171
X3.454Y1.23
X3.4576Y0.4043
X3.4655Y0.086
X3.497Y0.1287
X3.518Y1.231
X3.518Y1.171
X3.5954Y0.7114
X3.5954Y0.577
X3.5954Y0.109
X3.6163Y0.6605
X3.6163Y0.6191
X3.686Y0.109
X3.745Y0.5736
X3.7453Y0.2559
X3.7647Y0.3767
X3.779Y0.2873
X3.781Y0.6093
X3.7962Y0.109
X3.808Y0.7822
X3.808Y0.7074
X3.8103Y0.6386
X3.8198Y0.5696
X3.8277Y0.4318
X3.8277Y0.3216
X3.8513Y0.6759
X3.8553Y0.6051
X3.8946Y0.109
X3.9025Y0.3767
X3.9065Y0.7862
X3.9185Y1.169
X3.9195Y1.229
X3.9585Y1.229
X3.9585Y1.17
X3.9616Y0.424
X3.9655Y0.3216
X4.0206Y0.609
X4.0206Y0.4869
X4.0206Y0.3728
X4.0246Y0.7271
X4.0797Y0.4318
X4.0876Y0.7822
X4.1208Y1.0814
X4.1348Y0.2862
X4.1387Y0.3728
X4.1427Y0.7271
X4.1514Y0.9326
X4.1978Y0.7822
X4.1978Y0.4318
X4.2569Y0.7271
X4.2569Y0.3728
X4.2569Y0.2862
X4.2682Y1.0421
X4.312Y1.0657
X4.3159Y0.7862
X4.3159Y0.609
X4.3159Y0.4988
X4.375Y0.7862
X4.375Y0.668
X4.375Y0.5499
X4.375Y0.4318
X4.375Y0.3728
X4.3789Y0.2507
X4.3907Y1.2271
X4.3907Y1.168
X4.4025Y1.0617
X4.4065Y0.983
X4.4065Y0.9436
X4.7765Y1.1582
T2
X3.7175Y1.2192
T4
X0.4184Y2.2443
X0.5014Y0.498
X0.5998Y0.498
X0.7136Y2.18
X1.1677Y2.6384
X1.1677Y2.4384
X1.1978Y0.7475
X1.1978Y0.6491
X1.3627Y2.6384
X1.3627Y2.4384
X1.5564Y2.6384
X1.5564Y2.4384
X1.7532Y2.6384
X1.7532Y2.4384
X2.0895Y2.635
X2.0895Y2.435
X2.2845Y2.635
X2.2845Y2.435
X2.4845Y2.635
X2.4845Y2.435
X2.6795Y2.635
X2.6795Y2.435
X2.8971Y1.6232
X2.8971Y1.3232
X2.9971Y1.6232
X2.9971Y1.3232
X3.002Y2.6391
X3.002Y2.4391
X3.0971Y1.6232
X3.0971Y1.3232
X3.1971Y1.6232
X3.1971Y1.3232
X3.198Y2.6391
X3.198Y2.4391
X3.3371Y1.6232
X3.3371Y1.3232
X3.396Y2.6391
X3.396Y2.4391
X3.4371Y1.6232
X3.4371Y1.3232
X3.5371Y1.6232
X3.5371Y1.3232
X3.594Y2.6391
X3.594Y2.4391
X3.6371Y1.6232
X3.6371Y1.3232
X3.7878Y1.6233
X3.7878Y1.3233
X3.8878Y1.6233
X3.8878Y1.3233
X3.9221Y2.6402
X3.9221Y2.4402
X3.9878Y1.6233
X3.9878Y1.3233
X4.0878Y1.6233
X4.0878Y1.3233
X4.119Y2.639
X4.119Y2.439
X4.2478Y1.6233
X4.2478Y1.3233
X4.316Y2.639
X4.316Y2.439
X4.3478Y1.6233
X4.3478Y1.3233
X4.4478Y1.6233
X4.4478Y1.3233
X4.512Y2.639
X4.512Y2.439
X4.5478Y1.6233
X4.5478Y1.3233
X4.749Y1.4358
X4.749Y1.3373
T5
X1.9591Y1.1907
X2.0576Y1.1907
X2.156Y1.1907
X2.2544Y1.1907
X2.3529Y1.1907
T6
X0.4006Y0.2389
X0.4006Y0.1405
X0.6919Y0.2389
X0.6919Y0.1405
X0.7146Y2.408
X0.715Y2.608
X0.932Y0.2145
X0.932Y0.1145
X0.9383Y0.7629
X0.9383Y0.6629
X0.9383Y0.5629
X1.2527Y2.2734
X1.2527Y1.9734
X1.2527Y1.5734
X1.2527Y1.4734
X1.4427Y2.2734
X1.4427Y1.9734
X1.4427Y1.5734
X1.4427Y1.4734
X1.6327Y2.2734
X1.6327Y1.9734
X1.6327Y1.5734
X1.6327Y1.4734
X1.7337Y0.0774
X1.8277Y2.2734
X1.8277Y1.9734
X1.8277Y1.5734
X1.8277Y1.4734
X1.8337Y0.0774
X1.9337Y0.0774
X2.0831Y2.2734
X2.0831Y1.9734
X2.0831Y1.5734
X2.0831Y1.4734
X2.2831Y2.2734
X2.2831Y1.9734
X2.2831Y1.5734
X2.2831Y1.4734
X2.4831Y2.2734
X2.4831Y1.9734
X2.4831Y1.5734
X2.4831Y1.4734
X2.6092Y1.3054
X2.6092Y1.2054
X2.6781Y2.2734
X2.6781Y1.9734
X2.6781Y1.5734
X2.6781Y1.4734
X2.7628Y1.3058
X2.7628Y1.2058
X3.2576Y0.92
X3.3086Y0.5482
X3.3086Y0.4482
X3.3576Y0.92
X3.4537Y0.7704
X3.4576Y0.92
X3.4618Y0.259
X3.5537Y0.7704
X3.5576Y0.92
X3.5618Y0.259
X3.9933Y0.0712
X4.0933Y0.0712
T7
X0.1488Y1.867
X0.1488Y1.0796
X0.5214Y0.698
X0.6214Y0.698
X0.7214Y0.698
X0.9362Y1.6701
X0.9362Y1.2764
T8
X0.5962Y3.1619
X0.5962Y2.8391
X0.7931Y3.1619
X0.7931Y2.8391
X1.169Y3.1628
X1.169Y2.84
X1.3658Y3.1628
X1.3658Y2.84
X1.5627Y3.1628
X1.5627Y2.84
X1.7595Y3.1628
X1.7595Y2.84
X2.089Y3.1628
X2.089Y2.84
X2.2858Y3.1628
X2.2858Y2.84
X2.4827Y3.1628
X2.4827Y2.84
X2.6795Y3.1628
X2.6795Y2.84
X3.0025Y3.163
X3.0025Y2.8402
X3.1994Y3.163
X3.1994Y2.8402
X3.3962Y3.163
X3.3962Y2.8402
X3.5931Y3.163
X3.5931Y2.8402
X3.9221Y3.163
X3.9221Y2.8402
X4.119Y3.163
X4.119Y2.8402
X4.3158Y3.163
X4.3158Y2.8402
X4.5127Y3.163
X4.5127Y2.8402
T9
X1.1285Y0.4275
X4.9773Y1.263
T3
G00X2.9246Y0.2666
M15
G01X2.9246Y0.2233
M16
G05
G00X2.9246Y0.0922
M15
G01X2.9246Y0.0686
M16
G05
G00X3.2648Y0.2666
M15
G01X3.2648Y0.2233
M16
G05
G00X3.2648Y0.0922
M15
G01X3.2648Y0.0686
M16
G05
M30
