M48
; DRILL file {KiCad 8.0.4} date 2024-08-11T03:49:41+0200
; FORMAT={-:-/ absolute / inch / decimal}
; #@! TF.CreationDate,2024-08-11T03:49:41+02:00
; #@! TF.GenerationSoftware,Kicad,Pcbnew,8.0.4
; #@! TF.FileFunction,Plated,1,2,PTH
FMAT,2
INCH
; #@! TA.AperFunction,Plated,PTH,ViaDrill
T1C0.0157
; #@! TA.AperFunction,Plated,PTH,ComponentDrill
T2C0.0197
; #@! TA.AperFunction,Plated,PTH,ComponentDrill
T3C0.0236
; #@! TA.AperFunction,Plated,PTH,ComponentDrill
T4C0.0315
; #@! TA.AperFunction,Plated,PTH,ComponentDrill
T5C0.0374
; #@! TA.AperFunction,Plated,PTH,ComponentDrill
T6C0.0394
; #@! TA.AperFunction,Plated,PTH,ComponentDrill
T7C0.0433
; #@! TA.AperFunction,Plated,PTH,ComponentDrill
T8C0.0510
; #@! TA.AperFunction,Plated,PTH,ComponentDrill
T9C0.1260
%
G90
G05
T1
X0.24Y0.559
X0.2411Y0.6326
X0.242Y0.481
X0.243Y0.398
X0.7175Y0.6129
X0.7175Y0.3413
X1.0116Y0.3688
X1.1151Y1.109
X1.1191Y1.3177
X1.2647Y0.4063
X1.2647Y0.2673
X1.312Y0.2673
X1.3921Y0.2971
X1.4222Y0.613
X1.4241Y0.5143
X1.4891Y0.663
X1.4901Y0.5143
X1.5201Y0.2971
X1.5521Y0.5143
X1.5521Y0.713
X1.5757Y0.0499
X1.6161Y0.5143
X1.648Y0.2971
X1.6796Y0.5143
X1.7421Y0.5143
X1.7761Y0.2971
X1.8002Y1.0145
X1.8002Y0.9712
X1.8081Y0.5143
X1.8198Y0.7517
X1.8611Y0.267
X1.871Y0.5303
X1.871Y0.3413
X1.875Y0.813
X1.9183Y0.863
X1.9419Y0.3413
X1.9616Y0.913
X1.9773Y1.0539
X1.992Y0.1759
X2.1046Y0.4063
X2.1072Y0.4633
X2.1095Y0.363
X2.1115Y0.311
X2.1309Y1.0539
X2.25Y0.041
X2.33Y0.363
X2.33Y0.313
X2.5097Y0.265
X2.555Y0.3531
X2.5561Y0.3925
X2.657Y0.08
X2.6635Y0.4436
X2.71Y0.0991
X2.7615Y0.4436
X2.8892Y0.3334
X2.938Y0.4791
X2.938Y0.3334
X2.9458Y0.5551
X3.016Y1.231
X3.016Y1.171
X3.076Y1.169
X3.078Y1.229
X3.0955Y0.3489
X3.223Y0.3436
X3.2411Y0.5551
X3.245Y0.483
X3.262Y0.3436
X3.303Y0.343
X3.4082Y0.454
X3.4193Y0.365
X3.453Y1.171
X3.454Y1.23
X3.465Y0.365
X3.47Y0.193
X3.495Y0.085
X3.518Y1.231
X3.518Y1.171
X3.6163Y0.6605
X3.6163Y0.6191
X3.7453Y0.2559
X3.779Y0.2873
X3.781Y0.6093
X3.8103Y0.6386
X3.9185Y1.169
X3.9195Y1.229
X3.9419Y0.7862
X3.9419Y0.7271
X3.9585Y1.229
X3.9585Y1.17
X3.9616Y0.5499
X3.9616Y0.4909
X3.9616Y0.4318
X3.9616Y0.3728
X4.0009Y0.7862
X4.0206Y0.609
X4.0206Y0.5499
X4.0206Y0.4909
X4.0206Y0.4318
X4.0206Y0.3728
X4.0797Y0.4318
X4.0797Y0.3728
X4.135Y0.934
X4.1387Y0.7271
X4.1387Y0.4318
X4.1387Y0.3728
X4.1978Y0.7862
X4.1978Y0.7271
X4.1978Y0.4318
X4.1978Y0.3728
X4.2569Y0.7862
X4.2569Y0.7271
X4.2569Y0.4318
X4.2569Y0.3728
X4.2693Y1.0601
X4.3159Y0.7862
X4.3159Y0.7271
X4.3159Y0.668
X4.3159Y0.609
X4.3159Y0.5499
X4.3159Y0.4909
X4.3159Y0.4318
X4.3159Y0.3728
X4.3303Y1.0421
X4.3303Y0.9814
X4.3745Y1.229
X4.3745Y1.169
X4.375Y0.7862
X4.375Y0.7271
X4.375Y0.668
X4.375Y0.609
X4.375Y0.5499
X4.375Y0.4909
X4.375Y0.4318
X4.375Y0.3728
X4.4143Y1.229
X4.4143Y1.169
T2
X3.7175Y1.2192
T4
X0.4184Y2.2443
X0.5014Y0.498
X0.5998Y0.498
X0.7136Y2.18
X1.1677Y2.6384
X1.1677Y2.4384
X1.1978Y0.7475
X1.1978Y0.6491
X1.3627Y2.6384
X1.3627Y2.4384
X1.5564Y2.6384
X1.5564Y2.4384
X1.7532Y2.6384
X1.7532Y2.4384
X2.0895Y2.635
X2.0895Y2.435
X2.2845Y2.635
X2.2845Y2.435
X2.4845Y2.635
X2.4845Y2.435
X2.6795Y2.635
X2.6795Y2.435
X2.8971Y1.6232
X2.8971Y1.3232
X2.9971Y1.6232
X2.9971Y1.3232
X3.002Y2.6391
X3.002Y2.4391
X3.0971Y1.6232
X3.0971Y1.3232
X3.1971Y1.6232
X3.1971Y1.3232
X3.198Y2.6391
X3.198Y2.4391
X3.3371Y1.6232
X3.3371Y1.3232
X3.396Y2.6391
X3.396Y2.4391
X3.4371Y1.6232
X3.4371Y1.3232
X3.5371Y1.6232
X3.5371Y1.3232
X3.594Y2.6391
X3.594Y2.4391
X3.6371Y1.6232
X3.6371Y1.3232
X3.7878Y1.6233
X3.7878Y1.3233
X3.8878Y1.6233
X3.8878Y1.3233
X3.9221Y2.6402
X3.9221Y2.4402
X3.9878Y1.6233
X3.9878Y1.3233
X4.0878Y1.6233
X4.0878Y1.3233
X4.119Y2.639
X4.119Y2.439
X4.2478Y1.6233
X4.2478Y1.3233
X4.316Y2.639
X4.316Y2.439
X4.3478Y1.6233
X4.3478Y1.3233
X4.4478Y1.6233
X4.4478Y1.3233
X4.512Y2.639
X4.512Y2.439
X4.5478Y1.6233
X4.5478Y1.3233
X4.749Y1.4358
X4.749Y1.3373
T5
X1.9591Y1.1907
X2.0576Y1.1907
X2.156Y1.1907
X2.2544Y1.1907
X2.3529Y1.1907
T6
X0.3558Y0.2389
X0.3558Y0.1405
X0.6678Y0.2389
X0.6678Y0.1405
X0.7146Y2.408
X0.715Y2.608
X0.9389Y0.67
X0.9389Y0.57
X0.9389Y0.47
X0.94Y0.265
X0.94Y0.165
X1.2527Y2.2734
X1.2527Y1.9734
X1.2527Y1.5734
X1.2527Y1.4734
X1.4427Y2.2734
X1.4427Y1.9734
X1.4427Y1.5734
X1.4427Y1.4734
X1.6327Y2.2734
X1.6327Y1.9734
X1.6327Y1.5734
X1.6327Y1.4734
X1.7337Y0.0774
X1.8277Y2.2734
X1.8277Y1.9734
X1.8277Y1.5734
X1.8277Y1.4734
X1.8337Y0.0774
X1.9337Y0.0774
X2.0831Y2.2734
X2.0831Y1.9734
X2.0831Y1.5734
X2.0831Y1.4734
X2.2831Y2.2734
X2.2831Y1.9734
X2.2831Y1.5734
X2.2831Y1.4734
X2.4831Y2.2734
X2.4831Y1.9734
X2.4831Y1.5734
X2.4831Y1.4734
X2.6781Y2.2734
X2.6781Y1.9734
X2.6781Y1.5734
X2.6781Y1.4734
X2.9175Y0.7743
X3.0175Y0.7743
X3.1175Y0.7743
X3.2175Y0.7743
X3.3086Y0.5482
X3.3086Y0.4482
X3.3631Y0.7743
X3.4618Y0.259
X3.4631Y0.7743
X3.5618Y0.259
X3.5631Y0.7743
X3.9933Y0.0712
X4.0933Y0.0712
T7
X0.1488Y1.867
X0.1488Y1.0796
X0.5214Y0.698
X0.6214Y0.698
X0.7214Y0.698
X0.9362Y1.6701
X0.9362Y1.2764
T8
X0.5962Y3.1619
X0.5962Y2.8391
X0.7931Y3.1619
X0.7931Y2.8391
X1.169Y3.1628
X1.169Y2.84
X1.3658Y3.1628
X1.3658Y2.84
X1.5627Y3.1628
X1.5627Y2.84
X1.7595Y3.1628
X1.7595Y2.84
X2.089Y3.1628
X2.089Y2.84
X2.2858Y3.1628
X2.2858Y2.84
X2.4827Y3.1628
X2.4827Y2.84
X2.6795Y3.1628
X2.6795Y2.84
X3.0025Y3.163
X3.0025Y2.8402
X3.1994Y3.163
X3.1994Y2.8402
X3.3962Y3.163
X3.3962Y2.8402
X3.5931Y3.163
X3.5931Y2.8402
X3.9221Y3.163
X3.9221Y2.8402
X4.119Y3.163
X4.119Y2.8402
X4.3158Y3.163
X4.3158Y2.8402
X4.5127Y3.163
X4.5127Y2.8402
T9
X0.123Y3.1287
X0.123Y0.2192
X4.9773Y3.1287
X4.9773Y1.263
T3
G00X2.9246Y0.2666
M15
G01X2.9246Y0.2233
M16
G05
G00X2.9246Y0.0922
M15
G01X2.9246Y0.0686
M16
G05
G00X3.2648Y0.2666
M15
G01X3.2648Y0.2233
M16
G05
G00X3.2648Y0.0922
M15
G01X3.2648Y0.0686
M16
G05
M30
