%TF.GenerationSoftware,KiCad,Pcbnew,8.0.4*%
%TF.CreationDate,2024-08-19T02:50:55+02:00*%
%TF.ProjectId,hamodule,68616d6f-6475-46c6-952e-6b696361645f,20240807.23.8*%
%TF.SameCoordinates,Original*%
%TF.FileFunction,Copper,L2,Bot*%
%TF.FilePolarity,Positive*%
%FSLAX46Y46*%
G04 Gerber Fmt 4.6, Leading zero omitted, Abs format (unit mm)*
G04 Created by KiCad (PCBNEW 8.0.4) date 2024-08-19 02:50:55*
%MOMM*%
%LPD*%
G01*
G04 APERTURE LIST*
G04 Aperture macros list*
%AMRoundRect*
0 Rectangle with rounded corners*
0 $1 Rounding radius*
0 $2 $3 $4 $5 $6 $7 $8 $9 X,Y pos of 4 corners*
0 Add a 4 corners polygon primitive as box body*
4,1,4,$2,$3,$4,$5,$6,$7,$8,$9,$2,$3,0*
0 Add four circle primitives for the rounded corners*
1,1,$1+$1,$2,$3*
1,1,$1+$1,$4,$5*
1,1,$1+$1,$6,$7*
1,1,$1+$1,$8,$9*
0 Add four rect primitives between the rounded corners*
20,1,$1+$1,$2,$3,$4,$5,0*
20,1,$1+$1,$4,$5,$6,$7,0*
20,1,$1+$1,$6,$7,$8,$9,0*
20,1,$1+$1,$8,$9,$2,$3,0*%
G04 Aperture macros list end*
%TA.AperFunction,EtchedComponent*%
%ADD10C,0.000000*%
%TD*%
%TA.AperFunction,ComponentPad*%
%ADD11R,1.700000X1.700000*%
%TD*%
%TA.AperFunction,ComponentPad*%
%ADD12O,1.700000X1.700000*%
%TD*%
%TA.AperFunction,ComponentPad*%
%ADD13C,1.800000*%
%TD*%
%TA.AperFunction,ComponentPad*%
%ADD14RoundRect,0.250000X0.750000X-0.600000X0.750000X0.600000X-0.750000X0.600000X-0.750000X-0.600000X0*%
%TD*%
%TA.AperFunction,ComponentPad*%
%ADD15O,2.000000X1.700000*%
%TD*%
%TA.AperFunction,ComponentPad*%
%ADD16R,2.000000X2.000000*%
%TD*%
%TA.AperFunction,ComponentPad*%
%ADD17C,2.000000*%
%TD*%
%TA.AperFunction,ComponentPad*%
%ADD18R,1.905000X2.000000*%
%TD*%
%TA.AperFunction,ComponentPad*%
%ADD19O,1.905000X2.000000*%
%TD*%
%TA.AperFunction,ComponentPad*%
%ADD20RoundRect,0.625000X0.625000X0.625000X-0.625000X0.625000X-0.625000X-0.625000X0.625000X-0.625000X0*%
%TD*%
%TA.AperFunction,ComponentPad*%
%ADD21C,5.500000*%
%TD*%
%TA.AperFunction,ComponentPad*%
%ADD22R,1.600000X2.400000*%
%TD*%
%TA.AperFunction,ComponentPad*%
%ADD23O,1.600000X2.400000*%
%TD*%
%TA.AperFunction,ComponentPad*%
%ADD24R,1.600000X1.600000*%
%TD*%
%TA.AperFunction,ComponentPad*%
%ADD25C,1.600000*%
%TD*%
%TA.AperFunction,ComponentPad*%
%ADD26R,1.000000X1.000000*%
%TD*%
%TA.AperFunction,ComponentPad*%
%ADD27O,1.000000X2.100000*%
%TD*%
%TA.AperFunction,ComponentPad*%
%ADD28O,1.000000X1.600000*%
%TD*%
%TA.AperFunction,ComponentPad*%
%ADD29RoundRect,0.250000X-0.600000X-0.725000X0.600000X-0.725000X0.600000X0.725000X-0.600000X0.725000X0*%
%TD*%
%TA.AperFunction,ComponentPad*%
%ADD30O,1.700000X1.950000*%
%TD*%
%TA.AperFunction,SMDPad,CuDef*%
%ADD31RoundRect,0.250000X0.412500X0.650000X-0.412500X0.650000X-0.412500X-0.650000X0.412500X-0.650000X0*%
%TD*%
%TA.AperFunction,SMDPad,CuDef*%
%ADD32C,2.000000*%
%TD*%
%TA.AperFunction,ViaPad*%
%ADD33C,0.800000*%
%TD*%
%TA.AperFunction,Conductor*%
%ADD34C,2.000000*%
%TD*%
%TA.AperFunction,Conductor*%
%ADD35C,0.600000*%
%TD*%
%TA.AperFunction,Conductor*%
%ADD36C,1.000000*%
%TD*%
%TA.AperFunction,Conductor*%
%ADD37C,3.000000*%
%TD*%
%TA.AperFunction,Conductor*%
%ADD38C,0.400000*%
%TD*%
%TA.AperFunction,Conductor*%
%ADD39C,1.500000*%
%TD*%
%TA.AperFunction,Conductor*%
%ADD40C,0.200000*%
%TD*%
G04 APERTURE END LIST*
D10*
%TA.AperFunction,EtchedComponent*%
%TO.C,NT1*%
G36*
X77624000Y45468400D02*
G01*
X75624000Y45468400D01*
X75624000Y49468400D01*
X77624000Y49468400D01*
X77624000Y45468400D01*
G37*
%TD.AperFunction*%
%TD*%
D11*
%TO.P,J5,1,Pin_1*%
%TO.N,3.3V+*%
X23876500Y6731000D03*
D12*
%TO.P,J5,2,Pin_2*%
%TO.N,Net-(J4-Pin_2)*%
X23876500Y4191000D03*
%TD*%
D13*
%TO.P,RV1,1*%
%TO.N,220VAC(N)*%
X10626400Y57005330D03*
%TO.P,RV1,2*%
%TO.N,220VAC(L)*%
X18126400Y55372000D03*
%TD*%
D14*
%TO.P,J1,1,Pin_1*%
%TO.N,GND*%
X16963300Y3568700D03*
D15*
%TO.P,J1,2,Pin_2*%
%TO.N,5V+*%
X16963300Y6068700D03*
%TD*%
D16*
%TO.P,PS1,1,VAC_IN(N)*%
%TO.N,220VAC(N)*%
X3780000Y47421800D03*
D17*
%TO.P,PS1,5,VAC_IN(L)*%
%TO.N,220VAC(L)*%
X3780000Y27421800D03*
%TO.P,PS1,7,+VOUT*%
%TO.N,5V+_PS*%
X23780000Y32421800D03*
%TO.P,PS1,9,-VOUT*%
%TO.N,GND*%
X23780000Y42421800D03*
%TD*%
D18*
%TO.P,U1,1,GND*%
%TO.N,GND*%
X13242700Y17729200D03*
D19*
%TO.P,U1,2,VO*%
%TO.N,Net-(J4-Pin_2)*%
X15782700Y17729200D03*
%TO.P,U1,3,VI*%
%TO.N,5V+*%
X18322700Y17729200D03*
%TD*%
D20*
%TO.P,J15,1,1*%
%TO.N,Net-(F13-Pad2)*%
X44691800Y72136000D03*
%TO.P,J15,2,2*%
X44691800Y80335999D03*
%TO.P,J15,3,3*%
%TO.N,Net-(F12-Pad2)*%
X39691800Y72136000D03*
%TO.P,J15,4,4*%
X39691800Y80335999D03*
%TO.P,J15,5,5*%
%TO.N,Net-(F11-Pad2)*%
X34691800Y72136000D03*
%TO.P,J15,6,6*%
X34691800Y80335999D03*
%TO.P,J15,7,7*%
%TO.N,Net-(F10-Pad2)*%
X29691800Y72136000D03*
%TO.P,J15,8,8*%
X29691800Y80335999D03*
%TD*%
%TO.P,J2,1,1*%
%TO.N,Net-(F1-Pad1)*%
X20144000Y72112401D03*
%TO.P,J2,2,2*%
X20144000Y80312400D03*
%TO.P,J2,3,3*%
%TO.N,220VAC(N)*%
X15144000Y72112401D03*
%TO.P,J2,4,4*%
X15144000Y80312400D03*
%TD*%
%TO.P,J7,1,1*%
%TO.N,Net-(F2-Pad2)*%
X91264000Y72140201D03*
%TO.P,J7,2,2*%
X91264000Y80340200D03*
%TO.P,J7,3,3*%
%TO.N,Net-(F3-Pad2)*%
X86264000Y72140201D03*
%TO.P,J7,4,4*%
X86264000Y80340200D03*
%TO.P,J7,5,5*%
%TO.N,Net-(F4-Pad2)*%
X81264000Y72140201D03*
%TO.P,J7,6,6*%
X81264000Y80340200D03*
%TO.P,J7,7,7*%
%TO.N,Net-(F5-Pad2)*%
X76264000Y72140201D03*
%TO.P,J7,8,8*%
X76264000Y80340200D03*
%TD*%
D17*
%TO.P,F1,1*%
%TO.N,Net-(F1-Pad1)*%
X18161000Y66243200D03*
%TO.P,F1,2*%
%TO.N,220VAC(L)*%
X18151000Y61163200D03*
%TD*%
D21*
%TO.P,H2,1,1*%
%TO.N,unconnected-(H2-Pad1)*%
X3124000Y79468400D03*
%TD*%
%TO.P,H1,1,1*%
%TO.N,unconnected-(H1-Pad1)*%
X126424000Y79468400D03*
%TD*%
D22*
%TO.P,U4,1*%
%TO.N,Net-(R23-Pad2)*%
X115513178Y41232282D03*
D23*
%TO.P,U4,2*%
%TO.N,220VAC(N)-LowV*%
X112973178Y41232282D03*
%TO.P,U4,3*%
X110433178Y41232282D03*
%TO.P,U4,4*%
%TO.N,Net-(R24-Pad2)*%
X107893178Y41232282D03*
%TO.P,U4,5*%
%TO.N,Net-(C23-Pad1)*%
X107893178Y33612282D03*
%TO.P,U4,6*%
%TO.N,3.3V+*%
X110433178Y33612282D03*
%TO.P,U4,7*%
X112973178Y33612282D03*
%TO.P,U4,8*%
%TO.N,Net-(C22-Pad1)*%
X115513178Y33612282D03*
%TD*%
D22*
%TO.P,U7,1*%
%TO.N,Net-(R19-Pad2)*%
X81205300Y41228800D03*
D23*
%TO.P,U7,2*%
%TO.N,220VAC(N)-LowV*%
X78665300Y41228800D03*
%TO.P,U7,3*%
X76125300Y41228800D03*
%TO.P,U7,4*%
%TO.N,Net-(R20-Pad2)*%
X73585300Y41228800D03*
%TO.P,U7,5*%
%TO.N,Net-(C29-Pad1)*%
X73585300Y33608800D03*
%TO.P,U7,6*%
%TO.N,3.3V+*%
X76125300Y33608800D03*
%TO.P,U7,7*%
X78665300Y33608800D03*
%TO.P,U7,8*%
%TO.N,Net-(C28-Pad2)*%
X81205300Y33608800D03*
%TD*%
D22*
%TO.P,U6,1*%
%TO.N,Net-(R21-Pad2)*%
X92381300Y41228800D03*
D23*
%TO.P,U6,2*%
%TO.N,220VAC(N)-LowV*%
X89841300Y41228800D03*
%TO.P,U6,3*%
X87301300Y41228800D03*
%TO.P,U6,4*%
%TO.N,Net-(R22-Pad2)*%
X84761300Y41228800D03*
%TO.P,U6,5*%
%TO.N,Net-(C27-Pad1)*%
X84761300Y33608800D03*
%TO.P,U6,6*%
%TO.N,3.3V+*%
X87301300Y33608800D03*
%TO.P,U6,7*%
X89841300Y33608800D03*
%TO.P,U6,8*%
%TO.N,Net-(C26-Pad1)*%
X92381300Y33608800D03*
%TD*%
D14*
%TO.P,J4,1,Pin_1*%
%TO.N,GND*%
X9038500Y3568700D03*
D15*
%TO.P,J4,2,Pin_2*%
%TO.N,Net-(J4-Pin_2)*%
X9038500Y6068700D03*
%TD*%
D11*
%TO.P,J10,1,Pin_1*%
%TO.N,RXD0*%
X101429402Y1808701D03*
D12*
%TO.P,J10,2,Pin_2*%
%TO.N,TXD0*%
X103969402Y1808701D03*
%TD*%
D24*
%TO.P,C19,1*%
%TO.N,Net-(JP1-B)*%
X120624000Y36468400D03*
D25*
%TO.P,C19,2*%
%TO.N,GND*%
X120624000Y33968400D03*
%TD*%
D11*
%TO.P,J14,1,Pin_1*%
%TO.N,GPIO15*%
X90364000Y23368400D03*
D12*
%TO.P,J14,2,Pin_2*%
%TO.N,GPIO7*%
X87824000Y23368400D03*
%TO.P,J14,3,Pin_3*%
%TO.N,GND*%
X85284000Y23368400D03*
%TO.P,J14,4,Pin_4*%
%TO.N,3.3V+*%
X82744000Y23368400D03*
%TD*%
D20*
%TO.P,J6,1,1*%
%TO.N,Net-(F6-Pad2)*%
X114621702Y72140201D03*
%TO.P,J6,2,2*%
X114621702Y80340200D03*
%TO.P,J6,3,3*%
%TO.N,Net-(F7-Pad2)*%
X109621702Y72140201D03*
%TO.P,J6,4,4*%
X109621702Y80340200D03*
%TO.P,J6,5,5*%
%TO.N,Net-(F8-Pad2)*%
X104621702Y72140201D03*
%TO.P,J6,6,6*%
X104621702Y80340200D03*
%TO.P,J6,7,7*%
%TO.N,Net-(F9-Pad2)*%
X99621702Y72140201D03*
%TO.P,J6,8,8*%
X99621702Y80340200D03*
%TD*%
%TO.P,J16,1,1*%
%TO.N,Net-(F17-Pad2)*%
X68059800Y72136000D03*
%TO.P,J16,2,2*%
X68059800Y80335999D03*
%TO.P,J16,3,3*%
%TO.N,Net-(F16-Pad2)*%
X63059800Y72136000D03*
%TO.P,J16,4,4*%
X63059800Y80335999D03*
%TO.P,J16,5,5*%
%TO.N,Net-(F15-Pad2)*%
X58059800Y72136000D03*
%TO.P,J16,6,6*%
X58059800Y80335999D03*
%TO.P,J16,7,7*%
%TO.N,Net-(F14-Pad2)*%
X53059800Y72136000D03*
%TO.P,J16,8,8*%
X53059800Y80335999D03*
%TD*%
D13*
%TO.P,F15,1*%
%TO.N,Net-(F15-Pad1)*%
X58026800Y61849000D03*
%TO.P,F15,2*%
%TO.N,Net-(F15-Pad2)*%
X58026800Y66929000D03*
%TD*%
D16*
%TO.P,K5,1*%
%TO.N,Net-(U11-O5)*%
X52911000Y37424500D03*
D17*
%TO.P,K5,2*%
%TO.N,5V+*%
X52911000Y39964500D03*
%TO.P,K5,3*%
%TO.N,220VAC(L)*%
X52911000Y50124500D03*
%TO.P,K5,4*%
%TO.N,Net-(F14-Pad1)*%
X52911000Y57744500D03*
%TD*%
D11*
%TO.P,J12,1,Pin_1*%
%TO.N,GPIO3*%
X87784000Y19668400D03*
D12*
%TO.P,J12,2,Pin_2*%
%TO.N,GPIO16*%
X90324000Y19668400D03*
%TD*%
D13*
%TO.P,F4,1*%
%TO.N,Net-(F4-Pad1)*%
X81228000Y61952500D03*
%TO.P,F4,2*%
%TO.N,Net-(F4-Pad2)*%
X81228000Y67032500D03*
%TD*%
D24*
%TO.P,C18,1*%
%TO.N,5V+_PS*%
X30424000Y16486020D03*
D25*
%TO.P,C18,2*%
%TO.N,GND*%
X30424000Y18986020D03*
%TD*%
D16*
%TO.P,K6,1*%
%TO.N,Net-(U11-O6)*%
X57991000Y37424500D03*
D17*
%TO.P,K6,2*%
%TO.N,5V+*%
X57991000Y39964500D03*
%TO.P,K6,3*%
%TO.N,220VAC(L)*%
X57991000Y50124500D03*
%TO.P,K6,4*%
%TO.N,Net-(F15-Pad1)*%
X57991000Y57744500D03*
%TD*%
D13*
%TO.P,F2,1*%
%TO.N,Net-(F2-Pad1)*%
X91286400Y61952500D03*
%TO.P,F2,2*%
%TO.N,Net-(F2-Pad2)*%
X91286400Y67032500D03*
%TD*%
D11*
%TO.P,J13,1,Pin_1*%
%TO.N,GPIO12*%
X84039402Y13923701D03*
D12*
%TO.P,J13,2,Pin_2*%
%TO.N,GPIO13*%
X84039402Y11383701D03*
%TD*%
D13*
%TO.P,F7,1*%
%TO.N,Net-(F7-Pad1)*%
X109626400Y61950600D03*
%TO.P,F7,2*%
%TO.N,Net-(F7-Pad2)*%
X109626400Y67030600D03*
%TD*%
D11*
%TO.P,J11,1,Pin_1*%
%TO.N,SDA*%
X87929800Y6578600D03*
D12*
%TO.P,J11,2,Pin_2*%
%TO.N,SCL*%
X90469800Y6578600D03*
%TD*%
D26*
%TO.P,TP1,1,1*%
%TO.N,GND*%
X94424000Y30968400D03*
%TD*%
D13*
%TO.P,F8,1*%
%TO.N,Net-(F8-Pad1)*%
X104621800Y61950600D03*
%TO.P,F8,2*%
%TO.N,Net-(F8-Pad2)*%
X104621800Y67030600D03*
%TD*%
%TO.P,F13,1*%
%TO.N,Net-(F13-Pad1)*%
X44532300Y61935500D03*
%TO.P,F13,2*%
%TO.N,Net-(F13-Pad2)*%
X44532300Y67015500D03*
%TD*%
D22*
%TO.P,U5,1*%
%TO.N,Net-(R25-Pad2)*%
X103829178Y41232282D03*
D23*
%TO.P,U5,2*%
%TO.N,220VAC(N)-LowV*%
X101289178Y41232282D03*
%TO.P,U5,3*%
X98749178Y41232282D03*
%TO.P,U5,4*%
%TO.N,Net-(R26-Pad2)*%
X96209178Y41232282D03*
%TO.P,U5,5*%
%TO.N,Net-(C25-Pad1)*%
X96209178Y33612282D03*
%TO.P,U5,6*%
%TO.N,3.3V+*%
X98749178Y33612282D03*
%TO.P,U5,7*%
X101289178Y33612282D03*
%TO.P,U5,8*%
%TO.N,Net-(C24-Pad2)*%
X103829178Y33612282D03*
%TD*%
D11*
%TO.P,J8,1,Pin_1*%
%TO.N,Net-(D4-DOUT)*%
X49116800Y1966700D03*
D12*
%TO.P,J8,2,Pin_2*%
%TO.N,GND*%
X46576800Y1966700D03*
%TO.P,J8,3,Pin_3*%
%TO.N,5V+*%
X44036800Y1966700D03*
%TD*%
D13*
%TO.P,F14,1*%
%TO.N,Net-(F14-Pad1)*%
X53073800Y61849000D03*
%TO.P,F14,2*%
%TO.N,Net-(F14-Pad2)*%
X53073800Y66929000D03*
%TD*%
D27*
%TO.P,J3,S1,SHIELD*%
%TO.N,Net-(J3-SHIELD)*%
X74285402Y6222801D03*
D28*
X74285402Y2042801D03*
D27*
X82925402Y6222801D03*
D28*
X82925402Y2042801D03*
%TD*%
D29*
%TO.P,J9,1,Pin_1*%
%TO.N,5V+*%
X49762400Y30243000D03*
D30*
%TO.P,J9,2,Pin_2*%
%TO.N,3.3V+*%
X52262400Y30243000D03*
%TO.P,J9,3,Pin_3*%
%TO.N,GND*%
X54762400Y30243000D03*
%TO.P,J9,4,Pin_4*%
%TO.N,SDA*%
X57262400Y30243000D03*
%TO.P,J9,5,Pin_5*%
%TO.N,SCL*%
X59762400Y30243000D03*
%TD*%
D11*
%TO.P,SW1,1,A*%
%TO.N,VBUS*%
X23847200Y11938000D03*
D12*
%TO.P,SW1,2,B*%
%TO.N,5V+*%
X23847200Y14478000D03*
%TO.P,SW1,3,C*%
%TO.N,5V+_PS*%
X23847200Y17018000D03*
%TD*%
D13*
%TO.P,F6,1*%
%TO.N,Net-(F6-Pad1)*%
X114604800Y61950600D03*
%TO.P,F6,2*%
%TO.N,Net-(F6-Pad2)*%
X114604800Y67030600D03*
%TD*%
%TO.P,F3,1*%
%TO.N,Net-(F3-Pad1)*%
X86257200Y61952500D03*
%TO.P,F3,2*%
%TO.N,Net-(F3-Pad2)*%
X86257200Y67032500D03*
%TD*%
%TO.P,F16,1*%
%TO.N,Net-(F16-Pad1)*%
X63106800Y61849000D03*
%TO.P,F16,2*%
%TO.N,Net-(F16-Pad2)*%
X63106800Y66929000D03*
%TD*%
D16*
%TO.P,K1,1*%
%TO.N,Net-(U11-O1)*%
X31818300Y37424500D03*
D17*
%TO.P,K1,2*%
%TO.N,5V+*%
X31818300Y39964500D03*
%TO.P,K1,3*%
%TO.N,220VAC(L)*%
X31818300Y50124500D03*
%TO.P,K1,4*%
%TO.N,Net-(F10-Pad1)*%
X31818300Y57744500D03*
%TD*%
D16*
%TO.P,K2,1*%
%TO.N,Net-(U11-O2)*%
X36644300Y37424500D03*
D17*
%TO.P,K2,2*%
%TO.N,5V+*%
X36644300Y39964500D03*
%TO.P,K2,3*%
%TO.N,220VAC(L)*%
X36644300Y50124500D03*
%TO.P,K2,4*%
%TO.N,Net-(F11-Pad1)*%
X36644300Y57744500D03*
%TD*%
D13*
%TO.P,F11,1*%
%TO.N,Net-(F11-Pad1)*%
X34612300Y61935500D03*
%TO.P,F11,2*%
%TO.N,Net-(F11-Pad2)*%
X34612300Y67015500D03*
%TD*%
D16*
%TO.P,K4,1*%
%TO.N,Net-(U11-O4)*%
X46423300Y37424500D03*
D17*
%TO.P,K4,2*%
%TO.N,5V+*%
X46423300Y39964500D03*
%TO.P,K4,3*%
%TO.N,220VAC(L)*%
X46423300Y50124500D03*
%TO.P,K4,4*%
%TO.N,Net-(F13-Pad1)*%
X46423300Y57744500D03*
%TD*%
D16*
%TO.P,K7,1*%
%TO.N,Net-(U11-O7)*%
X63071000Y37424500D03*
D17*
%TO.P,K7,2*%
%TO.N,5V+*%
X63071000Y39964500D03*
%TO.P,K7,3*%
%TO.N,220VAC(L)*%
X63071000Y50124500D03*
%TO.P,K7,4*%
%TO.N,Net-(F16-Pad1)*%
X63071000Y57744500D03*
%TD*%
D16*
%TO.P,K8,1*%
%TO.N,Net-(U11-O8)*%
X68024000Y37424500D03*
D17*
%TO.P,K8,2*%
%TO.N,5V+*%
X68024000Y39964500D03*
%TO.P,K8,3*%
%TO.N,220VAC(L)*%
X68024000Y50124500D03*
%TO.P,K8,4*%
%TO.N,Net-(F17-Pad1)*%
X68024000Y57744500D03*
%TD*%
D16*
%TO.P,K3,1*%
%TO.N,Net-(U11-O3)*%
X41470300Y37424500D03*
D17*
%TO.P,K3,2*%
%TO.N,5V+*%
X41470300Y39964500D03*
%TO.P,K3,3*%
%TO.N,220VAC(L)*%
X41470300Y50124500D03*
%TO.P,K3,4*%
%TO.N,Net-(F12-Pad1)*%
X41470300Y57744500D03*
%TD*%
D21*
%TO.P,H4,1,1*%
%TO.N,unconnected-(H4-Pad1)*%
X126424000Y32080200D03*
%TD*%
D24*
%TO.P,C12,1*%
%TO.N,Net-(J4-Pin_2)*%
X12734700Y12649200D03*
D25*
%TO.P,C12,2*%
%TO.N,GND*%
X15234700Y12649200D03*
%TD*%
D13*
%TO.P,F9,1*%
%TO.N,Net-(F9-Pad1)*%
X99621800Y61980000D03*
%TO.P,F9,2*%
%TO.N,Net-(F9-Pad2)*%
X99621800Y67060000D03*
%TD*%
%TO.P,F5,1*%
%TO.N,Net-(F5-Pad1)*%
X76249600Y61952500D03*
%TO.P,F5,2*%
%TO.N,Net-(F5-Pad2)*%
X76249600Y67032500D03*
%TD*%
%TO.P,F17,1*%
%TO.N,Net-(F17-Pad1)*%
X68059800Y61849000D03*
%TO.P,F17,2*%
%TO.N,Net-(F17-Pad2)*%
X68059800Y66929000D03*
%TD*%
%TO.P,F10,1*%
%TO.N,Net-(F10-Pad1)*%
X29659300Y61935500D03*
%TO.P,F10,2*%
%TO.N,Net-(F10-Pad2)*%
X29659300Y67015500D03*
%TD*%
D21*
%TO.P,H3,1,1*%
%TO.N,unconnected-(H3-Pad1)*%
X3124000Y5568400D03*
%TD*%
D13*
%TO.P,F12,1*%
%TO.N,Net-(F12-Pad1)*%
X39532300Y61935500D03*
%TO.P,F12,2*%
%TO.N,Net-(F12-Pad2)*%
X39532300Y67015500D03*
%TD*%
D31*
%TO.P,C2,1*%
%TO.N,3.3V+*%
X108449000Y30868400D03*
%TO.P,C2,2*%
%TO.N,GND*%
X105324000Y30868400D03*
%TD*%
D32*
%TO.P,NT1,1,1*%
%TO.N,220VAC(N)*%
X76624000Y49468400D03*
%TO.P,NT1,2,2*%
%TO.N,220VAC(N)-LowV*%
X76624000Y45468400D03*
%TD*%
D31*
%TO.P,C1,1*%
%TO.N,3.3V+*%
X108449000Y28468400D03*
%TO.P,C1,2*%
%TO.N,GND*%
X105324000Y28468400D03*
%TD*%
D33*
%TO.N,GND*%
X63005101Y8087299D03*
X59124000Y8768400D03*
X64224000Y1668400D03*
X111924000Y24968400D03*
%TO.N,3.3V+*%
X110099000Y27068400D03*
X108413402Y26468400D03*
%TO.N,GND*%
X105524000Y26581201D03*
X111824000Y26968400D03*
X111239402Y21068400D03*
%TO.N,3.3V+*%
X86849408Y9271000D03*
X64224000Y9168400D03*
X66424000Y16568400D03*
X53456793Y11068400D03*
X47724000Y11337028D03*
X32124000Y10320200D03*
X88011000Y9271000D03*
%TO.N,IO0*%
X68834000Y2518301D03*
X89936653Y4443400D03*
%TO.N,GND*%
X111124000Y18468400D03*
X18224000Y15568400D03*
X49524000Y7768400D03*
X111124000Y16968400D03*
X111124000Y19968400D03*
X100624000Y12468400D03*
X100624000Y10968400D03*
X105124000Y9468400D03*
X109624000Y15468400D03*
X109624000Y19968400D03*
X102124000Y9468400D03*
X41860021Y7545829D03*
X108124000Y18468400D03*
X38611477Y7545361D03*
X111124000Y9468400D03*
X111124000Y15468400D03*
X109624000Y18468400D03*
X67653400Y11268400D03*
X85024000Y19268400D03*
X74824000Y14098701D03*
X76606400Y31267400D03*
X18224000Y8668400D03*
X74624000Y12168400D03*
X109624000Y10968400D03*
X45724000Y25768400D03*
X32124000Y6790296D03*
X87706200Y29743400D03*
X111112800Y31216600D03*
X111112800Y29692600D03*
X28424000Y33468400D03*
X45112019Y7546568D03*
X73385402Y8468400D03*
X108124000Y10968400D03*
X82324000Y14098701D03*
X111124000Y10968400D03*
X109624000Y12468400D03*
X105124000Y18468400D03*
X86568505Y11531600D03*
X111124000Y13968400D03*
X100624000Y9468400D03*
X106624000Y9468400D03*
X100546400Y31216600D03*
X6172200Y10109200D03*
X6146800Y12217400D03*
X82424000Y12268400D03*
X50596800Y4468400D03*
X78625400Y8862301D03*
X100624000Y13968400D03*
X105462601Y24157201D03*
X112124000Y29692600D03*
X101624000Y19968400D03*
X103624000Y10968400D03*
X109624000Y13968400D03*
X87731600Y31242000D03*
X111124000Y12468400D03*
X45724000Y24668400D03*
X102124000Y10968400D03*
X105124000Y10968400D03*
X25695600Y9368400D03*
X67487800Y2032000D03*
X89357200Y29743400D03*
X100546400Y29718000D03*
X6124000Y16068400D03*
X78181200Y31216600D03*
X6096000Y14198600D03*
X74624000Y8468400D03*
X83896200Y8712200D03*
X106624000Y10968400D03*
X89357200Y31267400D03*
X33324000Y6790296D03*
X100124000Y19968400D03*
X109624000Y9468400D03*
X106624000Y19968400D03*
X40024000Y1268400D03*
X50224000Y26768400D03*
X47271496Y6781896D03*
X99555800Y31216600D03*
X54124000Y26768400D03*
X81864200Y8726701D03*
X109624000Y16968400D03*
X102124000Y13968400D03*
X49824000Y23168400D03*
X108124000Y19968400D03*
X88024000Y2184400D03*
X82854800Y8726701D03*
X102124000Y15468400D03*
X102124000Y12468400D03*
X100124000Y18468400D03*
X28324000Y28168400D03*
X103624000Y9468400D03*
X70142600Y11268400D03*
X35359041Y7546504D03*
X108124000Y9468400D03*
X76606400Y29743400D03*
X112124000Y31216600D03*
X78130400Y29692600D03*
X106624000Y18468400D03*
X57150000Y1041400D03*
X99530400Y29692600D03*
%TO.N,SDA*%
X95986468Y7298201D03*
X53632600Y7899400D03*
%TO.N,SCL*%
X95129402Y6498701D03*
X53581800Y9220200D03*
%TO.N,/ESP-D+*%
X96038170Y15477469D03*
X91853360Y15726201D03*
%TO.N,/ESP-D-*%
X91853360Y16776201D03*
X96780634Y16219933D03*
%TO.N,Net-(U11-I2)*%
X36124000Y14663896D03*
X36171496Y13063896D03*
%TO.N,Net-(U11-I3)*%
X37847896Y13063896D03*
X37847896Y15463896D03*
%TO.N,Net-(U11-I4)*%
X39424000Y16263896D03*
X39422696Y13064296D03*
%TO.N,Net-(U11-I5)*%
X41048296Y13063896D03*
X41024000Y17063896D03*
%TO.N,Net-(U11-I6)*%
X42524000Y18168400D03*
X42662496Y13063896D03*
%TO.N,Net-(U11-I7)*%
X44224000Y19438400D03*
X44248696Y13063896D03*
%TO.N,Net-(U11-I8)*%
X45964000Y20708400D03*
X45925096Y13064296D03*
%TO.N,GND*%
X111924000Y23968400D03*
%TD*%
D34*
%TO.N,3.3V+*%
X59716542Y5348200D02*
X54244542Y10820200D01*
X59716542Y5348200D02*
X72224000Y5348200D01*
X32624000Y10820200D02*
X54244542Y10820200D01*
X32124000Y10320200D02*
X32624000Y10820200D01*
X28534800Y6731000D02*
X32124000Y10320200D01*
X23876500Y6731000D02*
X28534800Y6731000D01*
D35*
X64224000Y4948200D02*
X64124000Y4848200D01*
X64224000Y9168400D02*
X64224000Y4948200D01*
D36*
X64124000Y4848200D02*
X64897000Y4848200D01*
D35*
X64224000Y14368400D02*
X66424000Y16568400D01*
X64224000Y9168400D02*
X64224000Y14368400D01*
D36*
X108454402Y25423802D02*
X110099000Y27068400D01*
X108454402Y24608701D02*
X108454402Y25423802D01*
X108449000Y26503998D02*
X108413402Y26468400D01*
X108449000Y30868400D02*
X108449000Y26503998D01*
X110433178Y32852578D02*
X108449000Y30868400D01*
X110433178Y33612282D02*
X110433178Y32852578D01*
X108413402Y24649701D02*
X108454402Y24608701D01*
X108413402Y26468400D02*
X108413402Y24649701D01*
X109849000Y27068400D02*
X108449000Y28468400D01*
X110099000Y27068400D02*
X109849000Y27068400D01*
X109013402Y27068400D02*
X108413402Y26468400D01*
X110099000Y27068400D02*
X109013402Y27068400D01*
X85669005Y8090597D02*
X86849408Y9271000D01*
X85669005Y7186096D02*
X84250254Y5767345D01*
D35*
X73333000Y4848200D02*
X73508399Y4672801D01*
X84250254Y5484503D02*
X84250254Y5767345D01*
D36*
X108454402Y24608701D02*
X93116701Y9271000D01*
D35*
X83438552Y4672801D02*
X84250254Y5484503D01*
D36*
X93116701Y9271000D02*
X86849408Y9271000D01*
X85669005Y7186096D02*
X85669005Y8090597D01*
X64897000Y4848200D02*
X73333000Y4848200D01*
D35*
X73508399Y4672801D02*
X83438552Y4672801D01*
D34*
%TO.N,220VAC(N)*%
X10626400Y54268200D02*
X12922600Y51972000D01*
D37*
X10626400Y67594801D02*
X10626400Y57005330D01*
D34*
X24016240Y54000400D02*
X72092000Y54000400D01*
D37*
X15144000Y72112401D02*
X10626400Y67594801D01*
D34*
X21987840Y51972000D02*
X24016240Y54000400D01*
D37*
X10626400Y57005330D02*
X10626400Y54268200D01*
X10626400Y54268200D02*
X3780000Y47421800D01*
X15144000Y72112401D02*
X15144000Y80312400D01*
D34*
X72092000Y54000400D02*
X76624000Y49468400D01*
X12922600Y51972000D02*
X21987840Y51972000D01*
D38*
%TO.N,IO0*%
X86123793Y3668400D02*
X83293593Y838200D01*
X89936653Y4443400D02*
X89161653Y3668400D01*
X83293593Y838200D02*
X70514101Y838200D01*
X70514101Y838200D02*
X68834000Y2518301D01*
X89161653Y3668400D02*
X86123793Y3668400D01*
%TO.N,SDA*%
X95090672Y5328600D02*
X95986468Y6224396D01*
X58214199Y3317801D02*
X83922030Y3317801D01*
X53632600Y7899400D02*
X58214199Y3317801D01*
X87929800Y6578600D02*
X89179800Y5328600D01*
X89179800Y5328600D02*
X95090672Y5328600D01*
X83922030Y3317801D02*
X87182829Y6578600D01*
X87182829Y6578600D02*
X87929800Y6578600D01*
X95986468Y6224396D02*
X95986468Y7298201D01*
%TO.N,SCL*%
X89961400Y7828600D02*
X90469800Y7320200D01*
X86588451Y6832750D02*
X86588451Y7737251D01*
X53581800Y9220200D02*
X58853800Y3948200D01*
X90469800Y7320200D02*
X90469800Y6578600D01*
X95049503Y6578600D02*
X95129402Y6498701D01*
X86679800Y7828600D02*
X89961400Y7828600D01*
X86588451Y7737251D02*
X86679800Y7828600D01*
X83703901Y3948200D02*
X86588451Y6832750D01*
X90469800Y6578600D02*
X95049503Y6578600D01*
X58853800Y3948200D02*
X83703901Y3948200D01*
D36*
%TO.N,220VAC(N)-LowV*%
X111798600Y44399200D02*
X112967000Y43230800D01*
X112967000Y43230800D02*
X112967000Y41238460D01*
X110433178Y44367622D02*
X110401600Y44399200D01*
X87301300Y44360100D02*
X87262200Y44399200D01*
X112967000Y41238460D02*
X112973178Y41232282D01*
X87262200Y44399200D02*
X78677000Y44399200D01*
X101232200Y44399200D02*
X110401600Y44399200D01*
X78651600Y44373800D02*
X77718600Y44373800D01*
X101289178Y44342222D02*
X101232200Y44399200D01*
X89954600Y44399200D02*
X98793800Y44399200D01*
D39*
X76202902Y41306402D02*
X76125300Y41228800D01*
D36*
X78677000Y44399200D02*
X78668101Y44390301D01*
X77718600Y44373800D02*
X76624000Y45468400D01*
X98749178Y41232282D02*
X98749178Y44354578D01*
X78665300Y41228800D02*
X78665300Y44387500D01*
X87301300Y41228800D02*
X87301300Y44360100D01*
X78665300Y44387500D02*
X78677000Y44399200D01*
X89841300Y41228800D02*
X89841300Y44285900D01*
X98749178Y44354578D02*
X98793800Y44399200D01*
X89841300Y44285900D02*
X89954600Y44399200D01*
X110401600Y44399200D02*
X111798600Y44399200D01*
D39*
X76125300Y41228800D02*
X76125300Y44969700D01*
D36*
X101289178Y41232282D02*
X101289178Y44342222D01*
X110433178Y41232282D02*
X110433178Y44367622D01*
X87262200Y44399200D02*
X89954600Y44399200D01*
X78677000Y44399200D02*
X78651600Y44373800D01*
X98793800Y44399200D02*
X101232200Y44399200D01*
D39*
X76125300Y44969700D02*
X76624000Y45468400D01*
D40*
%TO.N,/ESP-D+*%
X92153359Y16026200D02*
X95913704Y16026200D01*
X91853360Y15726201D02*
X92153359Y16026200D01*
X95913704Y16026200D02*
X96038170Y15901734D01*
X96038170Y15901734D02*
X96038170Y15477469D01*
%TO.N,/ESP-D-*%
X96100100Y16476202D02*
X96356369Y16219933D01*
X96356369Y16219933D02*
X96780634Y16219933D01*
X91853360Y16776201D02*
X92153359Y16476202D01*
X92153359Y16476202D02*
X96100100Y16476202D01*
D38*
%TO.N,Net-(U11-I2)*%
X36171496Y14616400D02*
X36171496Y13063896D01*
X36124000Y14663896D02*
X36171496Y14616400D01*
%TO.N,Net-(U11-I3)*%
X37847896Y15463896D02*
X37847896Y13063896D01*
%TO.N,Net-(U11-I4)*%
X39424000Y16263896D02*
X39424000Y13065600D01*
X39424000Y13065600D02*
X39422696Y13064296D01*
X39422696Y13064296D02*
X39324000Y13162992D01*
%TO.N,Net-(U11-I5)*%
X41024000Y17063896D02*
X41048296Y17039600D01*
X41048296Y17039600D02*
X41048296Y13063896D01*
%TO.N,Net-(U11-I6)*%
X42524000Y13645392D02*
X42662496Y13506896D01*
X42662496Y13506896D02*
X42662496Y13063896D01*
X42524000Y18168400D02*
X42524000Y13645392D01*
%TO.N,Net-(U11-I7)*%
X44224000Y13917792D02*
X44248696Y13893096D01*
X44248696Y13893096D02*
X44248696Y13063896D01*
X44224000Y19438400D02*
X44224000Y13917792D01*
%TO.N,Net-(U11-I8)*%
X45925096Y20669496D02*
X45925096Y13064296D01*
X45964000Y20708400D02*
X45925096Y20669496D01*
%TD*%
%TA.AperFunction,Conductor*%
%TO.N,GND*%
G36*
X27999524Y44511521D02*
G01*
X28066522Y44491699D01*
X28112169Y44438802D01*
X28121972Y44369624D01*
X28114596Y44344946D01*
X28115553Y44344597D01*
X28047241Y44156916D01*
X28013500Y43965559D01*
X28013500Y43771242D01*
X28047241Y43579885D01*
X28113700Y43397293D01*
X28113703Y43397286D01*
X28210858Y43229008D01*
X28335757Y43080158D01*
X28484607Y42955259D01*
X28484608Y42955258D01*
X28484610Y42955257D01*
X28652890Y42858101D01*
X28835484Y42791642D01*
X29026844Y42757900D01*
X29026846Y42757900D01*
X69321154Y42757900D01*
X69321156Y42757900D01*
X69512516Y42791642D01*
X69663492Y42846594D01*
X69733219Y42851026D01*
X69794275Y42817056D01*
X69827273Y42755469D01*
X69829902Y42730270D01*
X69840033Y36375863D01*
X69840400Y36145800D01*
X119191143Y36288831D01*
X119258237Y36269341D01*
X119304145Y36216670D01*
X119315500Y36164832D01*
X119315500Y35619746D01*
X119322011Y35559198D01*
X119322011Y35559196D01*
X119373111Y35422196D01*
X119460739Y35305139D01*
X119577796Y35217511D01*
X119714799Y35166411D01*
X119742050Y35163482D01*
X119775345Y35159901D01*
X119775360Y35159901D01*
X119775362Y35159900D01*
X119775364Y35159900D01*
X119778669Y35159723D01*
X119778659Y35159545D01*
X119778665Y35159544D01*
X119778653Y35159441D01*
X119778591Y35158272D01*
X119840084Y35140215D01*
X119885839Y35087411D01*
X119891519Y35054433D01*
X120577553Y34368400D01*
X120571339Y34368400D01*
X120469606Y34341141D01*
X120378394Y34288480D01*
X120303920Y34214006D01*
X120251259Y34122794D01*
X120224000Y34021061D01*
X120224000Y34014848D01*
X119544974Y34693874D01*
X119544973Y34693874D01*
X119493868Y34620888D01*
X119493866Y34620884D01*
X119397734Y34414727D01*
X119397730Y34414718D01*
X119338860Y34195011D01*
X119338858Y34195000D01*
X119319034Y33968403D01*
X119319034Y33968398D01*
X119338858Y33741801D01*
X119338860Y33741790D01*
X119397730Y33522083D01*
X119397735Y33522069D01*
X119493863Y33315922D01*
X119544974Y33242928D01*
X120224000Y33921954D01*
X120224000Y33915739D01*
X120251259Y33814006D01*
X120303920Y33722794D01*
X120378394Y33648320D01*
X120469606Y33595659D01*
X120571339Y33568400D01*
X120577553Y33568400D01*
X119898526Y32889375D01*
X119971513Y32838268D01*
X119971521Y32838264D01*
X120177668Y32742136D01*
X120177682Y32742131D01*
X120397389Y32683261D01*
X120397400Y32683259D01*
X120623998Y32663434D01*
X120624002Y32663434D01*
X120850599Y32683259D01*
X120850610Y32683261D01*
X121070317Y32742131D01*
X121070331Y32742136D01*
X121276478Y32838264D01*
X121349471Y32889376D01*
X120670447Y33568400D01*
X120676661Y33568400D01*
X120778394Y33595659D01*
X120869606Y33648320D01*
X120944080Y33722794D01*
X120996741Y33814006D01*
X121024000Y33915739D01*
X121024000Y33921953D01*
X121703024Y33242929D01*
X121737192Y33245918D01*
X121805692Y33232151D01*
X121855876Y33183536D01*
X121872000Y33122390D01*
X121872000Y29005400D01*
X121852315Y28938361D01*
X121799511Y28892606D01*
X121748000Y28881400D01*
X112547400Y28881400D01*
X112535857Y1583016D01*
X112524933Y1532177D01*
X112453438Y1373322D01*
X112446479Y1360063D01*
X112296218Y1111499D01*
X112287712Y1099176D01*
X112108581Y870533D01*
X112098651Y859325D01*
X111893275Y653949D01*
X111882067Y644019D01*
X111653424Y464888D01*
X111641101Y456382D01*
X111392536Y306120D01*
X111379277Y299161D01*
X111114406Y179952D01*
X111100410Y174645D01*
X110956179Y129700D01*
X110823115Y88236D01*
X110808577Y84653D01*
X110522876Y32296D01*
X110508010Y30491D01*
X110419687Y25149D01*
X110412229Y24923D01*
X83751500Y18905D01*
X83684456Y38574D01*
X83638689Y91368D01*
X83628730Y160524D01*
X83657741Y224087D01*
X83682581Y246007D01*
X83745236Y287872D01*
X86164720Y2707356D01*
X100070902Y2707356D01*
X100070902Y910047D01*
X100077413Y849499D01*
X100077413Y849497D01*
X100098449Y793100D01*
X100128513Y712497D01*
X100216141Y595440D01*
X100333198Y507812D01*
X100388308Y487257D01*
X100463227Y459313D01*
X100470201Y456712D01*
X100497452Y453783D01*
X100530747Y450202D01*
X100530764Y450201D01*
X102328040Y450201D01*
X102328056Y450202D01*
X102355094Y453110D01*
X102388603Y456712D01*
X102395577Y459313D01*
X102410523Y464888D01*
X102525606Y507812D01*
X102642663Y595440D01*
X102730291Y712497D01*
X102775540Y833814D01*
X102817411Y889745D01*
X102882876Y914162D01*
X102951148Y899310D01*
X102982947Y874465D01*
X103046162Y805795D01*
X103223826Y667512D01*
X103223827Y667512D01*
X103223829Y667510D01*
X103279758Y637243D01*
X103421828Y560359D01*
X103634767Y487257D01*
X103856833Y450201D01*
X104081971Y450201D01*
X104304037Y487257D01*
X104516976Y560359D01*
X104714978Y667512D01*
X104892642Y805795D01*
X105005686Y928592D01*
X105045117Y971425D01*
X105045118Y971427D01*
X105045124Y971433D01*
X105168262Y1159910D01*
X105258698Y1366085D01*
X105313966Y1584333D01*
X105315568Y1603661D01*
X105332558Y1808696D01*
X105332558Y1808707D01*
X105313967Y2033061D01*
X105313965Y2033073D01*
X105285179Y2146745D01*
X105258698Y2251317D01*
X105168262Y2457492D01*
X105045124Y2645969D01*
X105045121Y2645972D01*
X105045117Y2645978D01*
X104892645Y2811604D01*
X104892640Y2811609D01*
X104745796Y2925903D01*
X104714978Y2949890D01*
X104714977Y2949891D01*
X104714974Y2949893D01*
X104516982Y3057040D01*
X104516979Y3057042D01*
X104516976Y3057043D01*
X104516973Y3057044D01*
X104516971Y3057045D01*
X104304039Y3130145D01*
X104081971Y3167201D01*
X103856833Y3167201D01*
X103634764Y3130145D01*
X103421832Y3057045D01*
X103421821Y3057040D01*
X103223829Y2949893D01*
X103223824Y2949889D01*
X103046163Y2811609D01*
X102982950Y2742941D01*
X102923063Y2706951D01*
X102853225Y2709052D01*
X102795609Y2748577D01*
X102775540Y2783591D01*
X102730291Y2904905D01*
X102716310Y2923581D01*
X102642663Y3021962D01*
X102525606Y3109590D01*
X102502857Y3118075D01*
X102388605Y3160690D01*
X102328056Y3167201D01*
X102328040Y3167201D01*
X100530764Y3167201D01*
X100530747Y3167201D01*
X100470199Y3160690D01*
X100470197Y3160690D01*
X100333197Y3109590D01*
X100216141Y3021962D01*
X100128513Y2904906D01*
X100077413Y2767906D01*
X100077413Y2767904D01*
X100070902Y2707356D01*
X86164720Y2707356D01*
X86380945Y2923581D01*
X86442268Y2957066D01*
X86468626Y2959900D01*
X89231436Y2959900D01*
X89280240Y2969608D01*
X89308353Y2975200D01*
X89368315Y2987127D01*
X89406080Y3002770D01*
X89497254Y3040535D01*
X89613296Y3118072D01*
X90003609Y3508386D01*
X90064930Y3541869D01*
X90065257Y3541940D01*
X90218941Y3574606D01*
X90393405Y3652282D01*
X90547906Y3764534D01*
X90675693Y3906456D01*
X90771180Y4071844D01*
X90830195Y4253472D01*
X90850157Y4443400D01*
X90845980Y4483140D01*
X90858549Y4551868D01*
X90906281Y4602892D01*
X90969301Y4620100D01*
X95160455Y4620100D01*
X95194974Y4626967D01*
X95229494Y4633833D01*
X95297334Y4647327D01*
X95348942Y4668704D01*
X95426273Y4700735D01*
X95542315Y4778272D01*
X96536796Y5772754D01*
X96614333Y5888795D01*
X96652372Y5980631D01*
X96667741Y6017734D01*
X96694968Y6154615D01*
X96694968Y6679740D01*
X96714653Y6746779D01*
X96721693Y6756000D01*
X96721690Y6756002D01*
X96725504Y6761253D01*
X96725508Y6761257D01*
X96820995Y6926645D01*
X96880010Y7108273D01*
X96899972Y7298201D01*
X96880010Y7488129D01*
X96822046Y7666522D01*
X96820997Y7669751D01*
X96820996Y7669754D01*
X96820995Y7669757D01*
X96725508Y7835145D01*
X96597721Y7977067D01*
X96443220Y8089319D01*
X96268756Y8166995D01*
X96268754Y8166996D01*
X96081955Y8206701D01*
X95890981Y8206701D01*
X95704182Y8166996D01*
X95529714Y8089318D01*
X95375213Y7977066D01*
X95247427Y7835144D01*
X95151941Y7669758D01*
X95151939Y7669754D01*
X95091180Y7482758D01*
X95051742Y7425083D01*
X94999031Y7399787D01*
X94847115Y7367496D01*
X94726635Y7313855D01*
X94691477Y7298201D01*
X94690621Y7297820D01*
X94640186Y7287100D01*
X91696756Y7287100D01*
X91629717Y7306785D01*
X91592947Y7343279D01*
X91551184Y7407201D01*
X91545522Y7415868D01*
X91442440Y7527844D01*
X91393043Y7581503D01*
X91393038Y7581508D01*
X91215377Y7719788D01*
X91215372Y7719792D01*
X91017380Y7826939D01*
X91017377Y7826941D01*
X91017374Y7826942D01*
X91017371Y7826943D01*
X91017369Y7826944D01*
X90964795Y7844993D01*
X90917378Y7874593D01*
X90741152Y8050819D01*
X90707667Y8112142D01*
X90712651Y8181834D01*
X90754523Y8237767D01*
X90819987Y8262184D01*
X90828833Y8262500D01*
X93216031Y8262500D01*
X93216032Y8262501D01*
X93410870Y8301256D01*
X93594405Y8377279D01*
X93759582Y8487647D01*
X93900054Y8628119D01*
X93958613Y8686678D01*
X93958626Y8686693D01*
X109237756Y23965820D01*
X109348124Y24130997D01*
X109402437Y24262121D01*
X109424146Y24314532D01*
X109426747Y24327605D01*
X109462901Y24509368D01*
X109462902Y24509371D01*
X109462902Y24954706D01*
X109482587Y25021745D01*
X109499221Y25042387D01*
X110882351Y26425516D01*
X110882351Y26425517D01*
X110882354Y26425519D01*
X110992722Y26590696D01*
X111068744Y26774232D01*
X111073616Y26798721D01*
X111107499Y26969067D01*
X111107500Y26969069D01*
X111107500Y27167730D01*
X111107499Y27167734D01*
X111068746Y27362562D01*
X111068743Y27362571D01*
X111065762Y27369767D01*
X111013616Y27495662D01*
X110992725Y27546098D01*
X110992718Y27546111D01*
X110882354Y27711281D01*
X110882351Y27711285D01*
X110741884Y27851752D01*
X110741880Y27851755D01*
X110576710Y27962119D01*
X110576697Y27962126D01*
X110393170Y28038144D01*
X110393161Y28038147D01*
X110320611Y28052577D01*
X110258700Y28084962D01*
X110257121Y28086513D01*
X109656318Y28687316D01*
X109622833Y28748639D01*
X109619999Y28774997D01*
X109619999Y29168938D01*
X109619998Y29168954D01*
X109617311Y29195260D01*
X109609387Y29272826D01*
X109553615Y29441138D01*
X109475960Y29567035D01*
X109457500Y29632131D01*
X109457500Y29704670D01*
X109475962Y29769767D01*
X109553610Y29895654D01*
X109553609Y29895654D01*
X109553615Y29895662D01*
X109609387Y30063974D01*
X109620000Y30167855D01*
X109619999Y30561806D01*
X109639683Y30628844D01*
X109656313Y30649481D01*
X111066368Y32059536D01*
X111097751Y32082337D01*
X111118981Y32093153D01*
X111285608Y32214214D01*
X111431246Y32359852D01*
X111552307Y32526479D01*
X111592693Y32605742D01*
X111640668Y32656537D01*
X111708489Y32673332D01*
X111774624Y32650795D01*
X111813663Y32605741D01*
X111854051Y32526476D01*
X111975104Y32359859D01*
X111975108Y32359854D01*
X112120749Y32214213D01*
X112120754Y32214209D01*
X112160835Y32185089D01*
X112287375Y32093153D01*
X112353358Y32059533D01*
X112470883Y31999650D01*
X112470885Y31999650D01*
X112470888Y31999648D01*
X112567059Y31968400D01*
X112666769Y31936002D01*
X112735892Y31925054D01*
X112870197Y31903782D01*
X112870198Y31903782D01*
X113076158Y31903782D01*
X113076159Y31903782D01*
X113279586Y31936002D01*
X113475468Y31999648D01*
X113658981Y32093153D01*
X113825608Y32214214D01*
X113971246Y32359852D01*
X114092307Y32526479D01*
X114132693Y32605742D01*
X114180668Y32656537D01*
X114248489Y32673332D01*
X114314624Y32650795D01*
X114353663Y32605741D01*
X114394051Y32526476D01*
X114515104Y32359859D01*
X114515108Y32359854D01*
X114660749Y32214213D01*
X114660754Y32214209D01*
X114700835Y32185089D01*
X114827375Y32093153D01*
X114893358Y32059533D01*
X115010883Y31999650D01*
X115010885Y31999650D01*
X115010888Y31999648D01*
X115107059Y31968400D01*
X115206769Y31936002D01*
X115275892Y31925054D01*
X115410197Y31903782D01*
X115410198Y31903782D01*
X115616158Y31903782D01*
X115616159Y31903782D01*
X115819586Y31936002D01*
X116015468Y31999648D01*
X116198981Y32093153D01*
X116365608Y32214214D01*
X116511246Y32359852D01*
X116632307Y32526479D01*
X116725812Y32709992D01*
X116789458Y32905874D01*
X116821678Y33109301D01*
X116821678Y34115263D01*
X116809047Y34195011D01*
X116789458Y34318691D01*
X116726943Y34511090D01*
X116725812Y34514572D01*
X116725810Y34514575D01*
X116725810Y34514577D01*
X116671641Y34620888D01*
X116632307Y34698085D01*
X116547791Y34814412D01*
X116511251Y34864706D01*
X116511247Y34864711D01*
X116365606Y35010352D01*
X116365601Y35010356D01*
X116198984Y35131409D01*
X116198983Y35131410D01*
X116198981Y35131411D01*
X116103069Y35180281D01*
X116015472Y35224915D01*
X115819586Y35288563D01*
X115638143Y35317300D01*
X115616159Y35320782D01*
X115410197Y35320782D01*
X115388213Y35317300D01*
X115206769Y35288563D01*
X115010883Y35224915D01*
X114827371Y35131409D01*
X114660754Y35010356D01*
X114660749Y35010352D01*
X114515108Y34864711D01*
X114515104Y34864706D01*
X114394049Y34698087D01*
X114353662Y34618823D01*
X114305688Y34568028D01*
X114237867Y34551233D01*
X114171732Y34573771D01*
X114132694Y34618823D01*
X114092306Y34698087D01*
X113971251Y34864706D01*
X113971247Y34864711D01*
X113825606Y35010352D01*
X113825601Y35010356D01*
X113658984Y35131409D01*
X113658983Y35131410D01*
X113658981Y35131411D01*
X113563069Y35180281D01*
X113475472Y35224915D01*
X113279586Y35288563D01*
X113098143Y35317300D01*
X113076159Y35320782D01*
X112870197Y35320782D01*
X112848213Y35317300D01*
X112666769Y35288563D01*
X112470883Y35224915D01*
X112287371Y35131409D01*
X112120754Y35010356D01*
X112120749Y35010352D01*
X111975108Y34864711D01*
X111975104Y34864706D01*
X111854049Y34698087D01*
X111813662Y34618823D01*
X111765688Y34568028D01*
X111697867Y34551233D01*
X111631732Y34573771D01*
X111592694Y34618823D01*
X111552306Y34698087D01*
X111431251Y34864706D01*
X111431247Y34864711D01*
X111285606Y35010352D01*
X111285601Y35010356D01*
X111118984Y35131409D01*
X111118983Y35131410D01*
X111118981Y35131411D01*
X111023069Y35180281D01*
X110935472Y35224915D01*
X110739586Y35288563D01*
X110558143Y35317300D01*
X110536159Y35320782D01*
X110330197Y35320782D01*
X110308213Y35317300D01*
X110126769Y35288563D01*
X109930883Y35224915D01*
X109747371Y35131409D01*
X109580754Y35010356D01*
X109580749Y35010352D01*
X109435108Y34864711D01*
X109435104Y34864706D01*
X109314049Y34698087D01*
X109273662Y34618823D01*
X109225688Y34568028D01*
X109157867Y34551233D01*
X109091732Y34573771D01*
X109052694Y34618823D01*
X109012306Y34698087D01*
X108891251Y34864706D01*
X108891247Y34864711D01*
X108745606Y35010352D01*
X108745601Y35010356D01*
X108578984Y35131409D01*
X108578983Y35131410D01*
X108578981Y35131411D01*
X108483069Y35180281D01*
X108395472Y35224915D01*
X108199586Y35288563D01*
X108018143Y35317300D01*
X107996159Y35320782D01*
X107790197Y35320782D01*
X107768213Y35317300D01*
X107586769Y35288563D01*
X107390883Y35224915D01*
X107207371Y35131409D01*
X107040754Y35010356D01*
X107040749Y35010352D01*
X106895108Y34864711D01*
X106895104Y34864706D01*
X106774051Y34698089D01*
X106680545Y34514577D01*
X106616897Y34318691D01*
X106584678Y34115263D01*
X106584678Y33109302D01*
X106616897Y32905874D01*
X106680545Y32709988D01*
X106774051Y32526476D01*
X106895104Y32359859D01*
X106895108Y32359854D01*
X107040749Y32214213D01*
X107040754Y32214209D01*
X107207373Y32093154D01*
X107310025Y32040849D01*
X107360820Y31992875D01*
X107377615Y31925054D01*
X107359269Y31865271D01*
X107344385Y31841140D01*
X107344383Y31841136D01*
X107288613Y31672830D01*
X107288613Y31672829D01*
X107278000Y31568953D01*
X107278000Y30167863D01*
X107278001Y30167847D01*
X107288613Y30063973D01*
X107344384Y29895665D01*
X107344389Y29895654D01*
X107422038Y29769767D01*
X107440500Y29704670D01*
X107440500Y29632131D01*
X107422039Y29567034D01*
X107344386Y29441141D01*
X107344384Y29441136D01*
X107288613Y29272828D01*
X107278000Y29168953D01*
X107278000Y27767863D01*
X107278001Y27767847D01*
X107288613Y27663973D01*
X107344384Y27495665D01*
X107344389Y27495654D01*
X107422038Y27369767D01*
X107440500Y27304670D01*
X107440500Y26758904D01*
X107438117Y26734713D01*
X107404902Y26567733D01*
X107404902Y25036798D01*
X107385217Y24969759D01*
X107368583Y24949117D01*
X92735286Y10315819D01*
X92673963Y10282334D01*
X92647605Y10279500D01*
X86750074Y10279500D01*
X86555246Y10240747D01*
X86555246Y10240746D01*
X86555243Y10240745D01*
X86555239Y10240744D01*
X86501483Y10218478D01*
X86371708Y10164725D01*
X86371707Y10164724D01*
X86206527Y10054354D01*
X86206523Y10054351D01*
X85320574Y9168400D01*
X85026124Y8873950D01*
X84979074Y8826900D01*
X84885650Y8733477D01*
X84775287Y8568308D01*
X84775282Y8568299D01*
X84699261Y8384767D01*
X84699259Y8384759D01*
X84660505Y8189931D01*
X84660505Y7655193D01*
X84640820Y7588154D01*
X84624186Y7567512D01*
X84093295Y7036622D01*
X84031972Y7003137D01*
X83962280Y7008121D01*
X83906347Y7049993D01*
X83891055Y7076847D01*
X83831537Y7220536D01*
X83819124Y7250503D01*
X83819119Y7250512D01*
X83708755Y7415682D01*
X83708752Y7415686D01*
X83568286Y7556152D01*
X83568282Y7556155D01*
X83403112Y7666519D01*
X83403103Y7666524D01*
X83219571Y7742545D01*
X83219563Y7742547D01*
X83024735Y7781301D01*
X83024731Y7781301D01*
X82826073Y7781301D01*
X82826068Y7781301D01*
X82631240Y7742547D01*
X82631232Y7742545D01*
X82447700Y7666524D01*
X82447691Y7666519D01*
X82282521Y7556155D01*
X82282517Y7556152D01*
X82142051Y7415686D01*
X82142048Y7415682D01*
X82031684Y7250512D01*
X82031679Y7250503D01*
X81955658Y7066971D01*
X81955656Y7066963D01*
X81916902Y6872135D01*
X81916902Y6328754D01*
X81897217Y6261715D01*
X81844413Y6215960D01*
X81775255Y6206016D01*
X81730905Y6221365D01*
X81717540Y6229081D01*
X81717537Y6229082D01*
X81571168Y6268301D01*
X81419636Y6268301D01*
X81273265Y6229082D01*
X81142037Y6153316D01*
X81142034Y6153314D01*
X81034889Y6046169D01*
X81034887Y6046166D01*
X80959121Y5914938D01*
X80919902Y5768567D01*
X80919902Y5608908D01*
X80917354Y5608908D01*
X80908552Y5552455D01*
X80862174Y5500198D01*
X80796377Y5481301D01*
X76414427Y5481301D01*
X76347388Y5500986D01*
X76301633Y5553790D01*
X76293374Y5608908D01*
X76290902Y5608908D01*
X76290902Y5768565D01*
X76290902Y5768567D01*
X76251683Y5914936D01*
X76175917Y6046166D01*
X76068767Y6153316D01*
X75979430Y6204895D01*
X75937538Y6229082D01*
X75864352Y6248692D01*
X75791168Y6268301D01*
X75639636Y6268301D01*
X75493267Y6229082D01*
X75493266Y6229082D01*
X75493264Y6229081D01*
X75493263Y6229081D01*
X75479899Y6221365D01*
X75411999Y6204895D01*
X75345972Y6227748D01*
X75302783Y6282671D01*
X75293902Y6328754D01*
X75293902Y6872131D01*
X75293901Y6872135D01*
X75282552Y6929189D01*
X75255146Y7066970D01*
X75191537Y7220536D01*
X75179124Y7250503D01*
X75179119Y7250512D01*
X75068755Y7415682D01*
X75068752Y7415686D01*
X74928286Y7556152D01*
X74928282Y7556155D01*
X74763112Y7666519D01*
X74763103Y7666524D01*
X74579571Y7742545D01*
X74579563Y7742547D01*
X74384735Y7781301D01*
X74384731Y7781301D01*
X74186073Y7781301D01*
X74186068Y7781301D01*
X73991240Y7742547D01*
X73991232Y7742545D01*
X73807700Y7666524D01*
X73807691Y7666519D01*
X73642521Y7556155D01*
X73642517Y7556152D01*
X73502051Y7415686D01*
X73502048Y7415682D01*
X73391684Y7250512D01*
X73391679Y7250503D01*
X73315658Y7066971D01*
X73315656Y7066963D01*
X73276902Y6872135D01*
X73276902Y6691195D01*
X73257217Y6624156D01*
X73204413Y6578401D01*
X73135255Y6568457D01*
X73080017Y6590877D01*
X73014630Y6638383D01*
X73014629Y6638384D01*
X73014627Y6638385D01*
X72933463Y6679740D01*
X72803067Y6746181D01*
X72577241Y6819557D01*
X72342727Y6856700D01*
X72342722Y6856700D01*
X65156500Y6856700D01*
X65089461Y6876385D01*
X65043706Y6929189D01*
X65032500Y6980700D01*
X65032500Y8718539D01*
X65049114Y8780541D01*
X65053823Y8788697D01*
X65058527Y8796844D01*
X65117542Y8978472D01*
X65137504Y9168400D01*
X65117542Y9358328D01*
X65058527Y9539956D01*
X65049112Y9556264D01*
X65032500Y9618262D01*
X65032500Y11383707D01*
X82676246Y11383707D01*
X82676246Y11383696D01*
X82694836Y11159342D01*
X82694838Y11159330D01*
X82750105Y10941087D01*
X82840542Y10734909D01*
X82963678Y10546436D01*
X82963686Y10546425D01*
X83116158Y10380799D01*
X83116162Y10380795D01*
X83293826Y10242512D01*
X83293827Y10242512D01*
X83293829Y10242510D01*
X83420537Y10173940D01*
X83491828Y10135359D01*
X83704767Y10062257D01*
X83926833Y10025201D01*
X84151971Y10025201D01*
X84374037Y10062257D01*
X84586976Y10135359D01*
X84784978Y10242512D01*
X84962642Y10380795D01*
X85115124Y10546433D01*
X85238262Y10734910D01*
X85328698Y10941085D01*
X85383966Y11159333D01*
X85399288Y11344234D01*
X85402558Y11383696D01*
X85402558Y11383707D01*
X85383967Y11608061D01*
X85383965Y11608073D01*
X85334385Y11803860D01*
X85328698Y11826317D01*
X85238262Y12032492D01*
X85115124Y12220969D01*
X85115121Y12220972D01*
X85115117Y12220978D01*
X84969912Y12378710D01*
X84938989Y12441364D01*
X84946849Y12510790D01*
X84990996Y12564946D01*
X85017807Y12578874D01*
X85097986Y12608781D01*
X85135606Y12622812D01*
X85252663Y12710440D01*
X85340291Y12827497D01*
X85391391Y12964500D01*
X85394993Y12998009D01*
X85397901Y13025047D01*
X85397902Y13025064D01*
X85397902Y14822339D01*
X85397901Y14822356D01*
X85394132Y14857407D01*
X85391391Y14882902D01*
X85391060Y14883789D01*
X85368924Y14943137D01*
X85340291Y15019905D01*
X85252663Y15136962D01*
X85135606Y15224590D01*
X85107345Y15235131D01*
X84998605Y15275690D01*
X84938056Y15282201D01*
X84938040Y15282201D01*
X83140764Y15282201D01*
X83140747Y15282201D01*
X83080199Y15275690D01*
X83080197Y15275690D01*
X82943197Y15224590D01*
X82826141Y15136962D01*
X82738513Y15019906D01*
X82687413Y14882906D01*
X82687413Y14882904D01*
X82680902Y14822356D01*
X82680902Y13025047D01*
X82687413Y12964499D01*
X82687413Y12964497D01*
X82738513Y12827497D01*
X82826141Y12710440D01*
X82943198Y12622812D01*
X82995139Y12603439D01*
X83060997Y12578874D01*
X83116930Y12537002D01*
X83141346Y12471538D01*
X83126494Y12403265D01*
X83108892Y12378710D01*
X82963681Y12220971D01*
X82963678Y12220967D01*
X82840542Y12032494D01*
X82750105Y11826316D01*
X82694838Y11608073D01*
X82694836Y11608061D01*
X82676246Y11383707D01*
X65032500Y11383707D01*
X65032500Y13982147D01*
X65052185Y14049186D01*
X65068814Y14069823D01*
X66676176Y15677186D01*
X66713414Y15702779D01*
X66880752Y15777282D01*
X67035253Y15889534D01*
X67163040Y16031456D01*
X67258527Y16196844D01*
X67317542Y16378472D01*
X67337504Y16568400D01*
X67317542Y16758328D01*
X67311735Y16776201D01*
X90939856Y16776201D01*
X90959818Y16586273D01*
X90959819Y16586270D01*
X91018830Y16404652D01*
X91018833Y16404645D01*
X91071628Y16313201D01*
X91088101Y16245300D01*
X91071628Y16189201D01*
X91018833Y16097758D01*
X91018830Y16097751D01*
X90987342Y16000840D01*
X90959818Y15916129D01*
X90939856Y15726201D01*
X90959818Y15536273D01*
X90959819Y15536270D01*
X91018830Y15354652D01*
X91018833Y15354645D01*
X91114320Y15189257D01*
X91242107Y15047335D01*
X91396608Y14935083D01*
X91571072Y14857407D01*
X91757873Y14817701D01*
X91948847Y14817701D01*
X92135648Y14857407D01*
X92310112Y14935083D01*
X92464613Y15047335D01*
X92592400Y15189257D01*
X92687887Y15354645D01*
X92687887Y15354646D01*
X92688496Y15355700D01*
X92739063Y15403916D01*
X92795883Y15417700D01*
X95019298Y15417700D01*
X95086337Y15398015D01*
X95132092Y15345211D01*
X95142617Y15306666D01*
X95144628Y15287541D01*
X95144629Y15287538D01*
X95203640Y15105920D01*
X95203643Y15105913D01*
X95299130Y14940525D01*
X95426917Y14798603D01*
X95581418Y14686351D01*
X95755882Y14608675D01*
X95942683Y14568969D01*
X96133657Y14568969D01*
X96320458Y14608675D01*
X96494922Y14686351D01*
X96649423Y14798603D01*
X96777210Y14940525D01*
X96872697Y15105913D01*
X96922052Y15257814D01*
X96961489Y15315487D01*
X97014200Y15340784D01*
X97062922Y15351139D01*
X97237386Y15428815D01*
X97391887Y15541067D01*
X97519674Y15682989D01*
X97615161Y15848377D01*
X97674176Y16030005D01*
X97694138Y16219933D01*
X97674176Y16409861D01*
X97615161Y16591489D01*
X97519674Y16756877D01*
X97391887Y16898799D01*
X97237386Y17011051D01*
X97062922Y17088727D01*
X97062920Y17088728D01*
X96876121Y17128433D01*
X96685147Y17128433D01*
X96498347Y17088728D01*
X96498342Y17088726D01*
X96413288Y17050858D01*
X96344038Y17041574D01*
X96330762Y17044363D01*
X96257592Y17063968D01*
X96218901Y17074335D01*
X96180211Y17084702D01*
X96180210Y17084702D01*
X92795883Y17084702D01*
X92728844Y17104387D01*
X92688496Y17146702D01*
X92687886Y17147758D01*
X92592400Y17313145D01*
X92464613Y17455067D01*
X92310112Y17567319D01*
X92135648Y17644995D01*
X92135646Y17644996D01*
X91948847Y17684701D01*
X91757873Y17684701D01*
X91571074Y17644996D01*
X91396606Y17567318D01*
X91242105Y17455066D01*
X91114319Y17313144D01*
X91018833Y17147758D01*
X91018830Y17147751D01*
X90973067Y17006906D01*
X90959818Y16966129D01*
X90939856Y16776201D01*
X67311735Y16776201D01*
X67258527Y16939956D01*
X67163040Y17105344D01*
X67035253Y17247266D01*
X66880752Y17359518D01*
X66706288Y17437194D01*
X66706286Y17437195D01*
X66519487Y17476900D01*
X66328513Y17476900D01*
X66141714Y17437195D01*
X65967246Y17359517D01*
X65812745Y17247265D01*
X65684959Y17105343D01*
X65589473Y16939957D01*
X65589468Y16939947D01*
X65568496Y16875402D01*
X65538247Y16826041D01*
X63595996Y14883790D01*
X63507516Y14751369D01*
X63507512Y14751361D01*
X63500190Y14733682D01*
X63500189Y14733678D01*
X63446570Y14604232D01*
X63446568Y14604224D01*
X63415500Y14448035D01*
X63415500Y9618262D01*
X63398888Y9556264D01*
X63389474Y9539959D01*
X63389470Y9539950D01*
X63330459Y9358332D01*
X63330458Y9358328D01*
X63310496Y9168400D01*
X63330458Y8978472D01*
X63330459Y8978469D01*
X63389472Y8796846D01*
X63398886Y8780541D01*
X63415500Y8718539D01*
X63415500Y6980700D01*
X63395815Y6913661D01*
X63343011Y6867906D01*
X63291500Y6856700D01*
X60392745Y6856700D01*
X60325706Y6876385D01*
X60305064Y6893019D01*
X55399502Y11798581D01*
X55399482Y11798603D01*
X55227267Y11970817D01*
X55227266Y11970818D01*
X55227264Y11970820D01*
X55035169Y12110385D01*
X54823605Y12218182D01*
X54597783Y12291556D01*
X54597781Y12291557D01*
X54597779Y12291557D01*
X54434036Y12317492D01*
X54363264Y12328701D01*
X54125820Y12328701D01*
X54120709Y12328701D01*
X54120685Y12328700D01*
X46763170Y12328700D01*
X46696131Y12348385D01*
X46650376Y12401189D01*
X46640432Y12470347D01*
X46661210Y12521538D01*
X46660887Y12521724D01*
X46662232Y12524055D01*
X46662857Y12525593D01*
X46664126Y12527342D01*
X46664136Y12527352D01*
X46759623Y12692740D01*
X46818638Y12874368D01*
X46838600Y13064296D01*
X46818638Y13254224D01*
X46759623Y13435852D01*
X46688081Y13559766D01*
X46664138Y13601237D01*
X46660317Y13606496D01*
X46661729Y13607523D01*
X46635214Y13662793D01*
X46633596Y13682758D01*
X46633596Y20046732D01*
X46653281Y20113771D01*
X46665440Y20129698D01*
X46703040Y20171456D01*
X46798527Y20336844D01*
X46857542Y20518472D01*
X46862648Y20567055D01*
X86425500Y20567055D01*
X86425500Y18769746D01*
X86432011Y18709198D01*
X86432011Y18709196D01*
X86471349Y18603730D01*
X86483111Y18572196D01*
X86570739Y18455139D01*
X86687796Y18367511D01*
X86824799Y18316411D01*
X86852050Y18313482D01*
X86885345Y18309901D01*
X86885362Y18309900D01*
X88682638Y18309900D01*
X88682654Y18309901D01*
X88709692Y18312809D01*
X88743201Y18316411D01*
X88880204Y18367511D01*
X88997261Y18455139D01*
X89084889Y18572196D01*
X89130138Y18693513D01*
X89172009Y18749444D01*
X89237474Y18773861D01*
X89305746Y18759009D01*
X89337545Y18734164D01*
X89400760Y18665494D01*
X89578424Y18527211D01*
X89578425Y18527211D01*
X89578427Y18527209D01*
X89705135Y18458639D01*
X89776426Y18420058D01*
X89989365Y18346956D01*
X90211431Y18309900D01*
X90436569Y18309900D01*
X90658635Y18346956D01*
X90871574Y18420058D01*
X91069576Y18527211D01*
X91247240Y18665494D01*
X91399722Y18831132D01*
X91522860Y19019609D01*
X91613296Y19225784D01*
X91668564Y19444032D01*
X91668565Y19444041D01*
X91687156Y19668395D01*
X91687156Y19668406D01*
X91668565Y19892760D01*
X91668563Y19892772D01*
X91613296Y20111015D01*
X91612087Y20113771D01*
X91522860Y20317191D01*
X91510015Y20336851D01*
X91399723Y20505666D01*
X91399715Y20505677D01*
X91247243Y20671303D01*
X91247238Y20671308D01*
X91069577Y20809588D01*
X91069572Y20809592D01*
X90871580Y20916739D01*
X90871577Y20916741D01*
X90871574Y20916742D01*
X90871571Y20916743D01*
X90871569Y20916744D01*
X90658637Y20989844D01*
X90436569Y21026900D01*
X90211431Y21026900D01*
X89989362Y20989844D01*
X89776430Y20916744D01*
X89776419Y20916739D01*
X89578427Y20809592D01*
X89578422Y20809588D01*
X89400761Y20671308D01*
X89337548Y20602640D01*
X89277661Y20566650D01*
X89207823Y20568751D01*
X89150207Y20608276D01*
X89130138Y20643290D01*
X89084889Y20764604D01*
X89051214Y20809588D01*
X88997261Y20881661D01*
X88880204Y20969289D01*
X88743203Y21020389D01*
X88682654Y21026900D01*
X88682638Y21026900D01*
X86885362Y21026900D01*
X86885345Y21026900D01*
X86824797Y21020389D01*
X86824795Y21020389D01*
X86687795Y20969289D01*
X86570739Y20881661D01*
X86483111Y20764605D01*
X86432011Y20627605D01*
X86432011Y20627603D01*
X86425500Y20567055D01*
X46862648Y20567055D01*
X46877504Y20708400D01*
X46857542Y20898328D01*
X46798527Y21079956D01*
X46703040Y21245344D01*
X46575253Y21387266D01*
X46420752Y21499518D01*
X46246288Y21577194D01*
X46246286Y21577195D01*
X46059487Y21616900D01*
X45868513Y21616900D01*
X45681714Y21577195D01*
X45507246Y21499517D01*
X45352745Y21387265D01*
X45224959Y21245343D01*
X45129473Y21079957D01*
X45129470Y21079950D01*
X45076441Y20916742D01*
X45070458Y20898328D01*
X45050496Y20708400D01*
X45070458Y20518472D01*
X45070459Y20518469D01*
X45129470Y20336851D01*
X45129473Y20336844D01*
X45191438Y20229517D01*
X45199983Y20214718D01*
X45216596Y20152718D01*
X45216596Y19998947D01*
X45196911Y19931908D01*
X45144107Y19886153D01*
X45074949Y19876209D01*
X45011393Y19905234D01*
X44985209Y19936947D01*
X44975661Y19953484D01*
X44963040Y19975344D01*
X44840882Y20111015D01*
X44835254Y20117265D01*
X44786458Y20152718D01*
X44680752Y20229518D01*
X44506288Y20307194D01*
X44506286Y20307195D01*
X44319487Y20346900D01*
X44128513Y20346900D01*
X43941714Y20307195D01*
X43767246Y20229517D01*
X43612745Y20117265D01*
X43484959Y19975343D01*
X43389473Y19809957D01*
X43389470Y19809950D01*
X43330459Y19628332D01*
X43330458Y19628328D01*
X43310496Y19438400D01*
X43330458Y19248472D01*
X43330459Y19248469D01*
X43389470Y19066851D01*
X43389473Y19066844D01*
X43484959Y18901457D01*
X43488778Y18896201D01*
X43487363Y18895173D01*
X43513880Y18839920D01*
X43515500Y18819939D01*
X43515500Y18730845D01*
X43495815Y18663806D01*
X43443011Y18618051D01*
X43373853Y18608107D01*
X43310297Y18637132D01*
X43284113Y18668845D01*
X43277749Y18679867D01*
X43263040Y18705344D01*
X43135253Y18847266D01*
X42980752Y18959518D01*
X42806288Y19037194D01*
X42806286Y19037195D01*
X42619487Y19076900D01*
X42428513Y19076900D01*
X42241714Y19037195D01*
X42241712Y19037194D01*
X42093698Y18971294D01*
X42067246Y18959517D01*
X41912745Y18847265D01*
X41784959Y18705343D01*
X41689473Y18539957D01*
X41689470Y18539950D01*
X41630459Y18358332D01*
X41630458Y18358328D01*
X41610496Y18168400D01*
X41628970Y17992624D01*
X41616402Y17923896D01*
X41568670Y17872872D01*
X41500929Y17855754D01*
X41455215Y17866384D01*
X41379738Y17899988D01*
X41306288Y17932690D01*
X41306286Y17932691D01*
X41119487Y17972396D01*
X40928513Y17972396D01*
X40741714Y17932691D01*
X40741712Y17932690D01*
X40567819Y17855268D01*
X40567246Y17855013D01*
X40412745Y17742761D01*
X40284959Y17600839D01*
X40189473Y17435453D01*
X40189470Y17435446D01*
X40130459Y17253828D01*
X40130458Y17253824D01*
X40122615Y17179200D01*
X40115779Y17114165D01*
X40089194Y17049550D01*
X40031896Y17009566D01*
X39962077Y17006906D01*
X39919573Y17026809D01*
X39880752Y17055014D01*
X39706288Y17132690D01*
X39706286Y17132691D01*
X39519487Y17172396D01*
X39328513Y17172396D01*
X39141714Y17132691D01*
X39115166Y17120871D01*
X38987198Y17063896D01*
X38967246Y17055013D01*
X38812745Y16942761D01*
X38684959Y16800839D01*
X38589473Y16635453D01*
X38589470Y16635446D01*
X38530459Y16453828D01*
X38530458Y16453824D01*
X38517475Y16330295D01*
X38490890Y16265681D01*
X38433593Y16225696D01*
X38363774Y16223036D01*
X38321270Y16242938D01*
X38304651Y16255012D01*
X38304650Y16255013D01*
X38304648Y16255014D01*
X38130184Y16332690D01*
X38130182Y16332691D01*
X37943383Y16372396D01*
X37752409Y16372396D01*
X37565610Y16332691D01*
X37521835Y16313201D01*
X37394873Y16256674D01*
X37391142Y16255013D01*
X37236641Y16142761D01*
X37108855Y16000839D01*
X37013369Y15835453D01*
X37013366Y15835446D01*
X36960930Y15674063D01*
X36954354Y15653824D01*
X36934392Y15463896D01*
X36934392Y15463893D01*
X36935528Y15453082D01*
X36922957Y15384352D01*
X36875223Y15333330D01*
X36807482Y15316214D01*
X36741241Y15338439D01*
X36739321Y15339806D01*
X36735254Y15342761D01*
X36735253Y15342762D01*
X36580752Y15455014D01*
X36406288Y15532690D01*
X36406286Y15532691D01*
X36219487Y15572396D01*
X36028513Y15572396D01*
X35841714Y15532691D01*
X35841712Y15532690D01*
X35687198Y15463896D01*
X35667246Y15455013D01*
X35512745Y15342761D01*
X35384959Y15200839D01*
X35289473Y15035453D01*
X35289470Y15035446D01*
X35239906Y14882902D01*
X35230458Y14853824D01*
X35210496Y14663896D01*
X35230458Y14473968D01*
X35230459Y14473965D01*
X35289470Y14292347D01*
X35289473Y14292340D01*
X35384959Y14126953D01*
X35431145Y14075659D01*
X35461376Y14012667D01*
X35462996Y13992686D01*
X35462996Y13682358D01*
X35443311Y13615319D01*
X35436271Y13606099D01*
X35436275Y13606096D01*
X35432453Y13600837D01*
X35336969Y13435453D01*
X35336966Y13435446D01*
X35287378Y13282828D01*
X35277954Y13253824D01*
X35257992Y13063896D01*
X35277954Y12873968D01*
X35277955Y12873965D01*
X35336966Y12692347D01*
X35336969Y12692340D01*
X35432455Y12526952D01*
X35433446Y12525589D01*
X35433775Y12524667D01*
X35435705Y12521324D01*
X35435093Y12520972D01*
X35456929Y12459784D01*
X35441106Y12391729D01*
X35391002Y12343033D01*
X35333131Y12328700D01*
X32747857Y12328700D01*
X32747833Y12328701D01*
X32742722Y12328701D01*
X32505278Y12328701D01*
X32450912Y12320091D01*
X32270762Y12291557D01*
X32270761Y12291557D01*
X32044934Y12218181D01*
X31833372Y12110385D01*
X31641275Y11970818D01*
X31473377Y11802919D01*
X31141278Y11470819D01*
X27946278Y8275819D01*
X27884955Y8242334D01*
X27858597Y8239500D01*
X23757773Y8239500D01*
X23523258Y8202357D01*
X23297432Y8128981D01*
X23246474Y8103015D01*
X23190179Y8089500D01*
X22977845Y8089500D01*
X22917297Y8082989D01*
X22917295Y8082989D01*
X22780295Y8031889D01*
X22663239Y7944261D01*
X22575611Y7827205D01*
X22524511Y7690205D01*
X22524511Y7690203D01*
X22518000Y7629655D01*
X22518000Y7417322D01*
X22504485Y7361028D01*
X22478520Y7310071D01*
X22405143Y7084242D01*
X22368000Y6849728D01*
X22368000Y6612273D01*
X22405143Y6377759D01*
X22436040Y6282671D01*
X22478518Y6151937D01*
X22478519Y6151936D01*
X22504485Y6100974D01*
X22518000Y6044680D01*
X22518000Y5832346D01*
X22524511Y5771798D01*
X22524511Y5771796D01*
X22575611Y5634796D01*
X22663239Y5517739D01*
X22780296Y5430111D01*
X22832237Y5410738D01*
X22898095Y5386173D01*
X22954028Y5344301D01*
X22978444Y5278837D01*
X22963592Y5210564D01*
X22945990Y5186009D01*
X22800779Y5028270D01*
X22800776Y5028266D01*
X22677640Y4839793D01*
X22587203Y4633615D01*
X22531936Y4415372D01*
X22531934Y4415360D01*
X22513344Y4191006D01*
X22513344Y4190995D01*
X22531934Y3966641D01*
X22531936Y3966629D01*
X22587203Y3748386D01*
X22677640Y3542208D01*
X22800776Y3353735D01*
X22800784Y3353724D01*
X22928452Y3215042D01*
X22953260Y3188094D01*
X23130924Y3049811D01*
X23130925Y3049811D01*
X23130927Y3049809D01*
X23214086Y3004806D01*
X23328926Y2942658D01*
X23541865Y2869556D01*
X23763931Y2832500D01*
X23989069Y2832500D01*
X24211135Y2869556D01*
X24424074Y2942658D01*
X24622076Y3049811D01*
X24799740Y3188094D01*
X24919962Y3318689D01*
X24952215Y3353724D01*
X24952216Y3353726D01*
X24952222Y3353732D01*
X25075360Y3542209D01*
X25165796Y3748384D01*
X25221064Y3966632D01*
X25229522Y4068700D01*
X25239656Y4190995D01*
X25239656Y4191006D01*
X25221065Y4415360D01*
X25221063Y4415372D01*
X25173576Y4602892D01*
X25165796Y4633616D01*
X25075360Y4839791D01*
X25057655Y4866890D01*
X24950647Y5030678D01*
X24930459Y5097568D01*
X24949638Y5164753D01*
X25002097Y5210904D01*
X25054455Y5222500D01*
X28410943Y5222500D01*
X28410967Y5222499D01*
X28416078Y5222499D01*
X28653521Y5222499D01*
X28653522Y5222499D01*
X28888041Y5259644D01*
X29113863Y5333018D01*
X29325427Y5440815D01*
X29366513Y5470666D01*
X29517522Y5580380D01*
X29685420Y5748278D01*
X29685421Y5748280D01*
X29692481Y5755340D01*
X29692486Y5755347D01*
X33212522Y9275381D01*
X33273845Y9308866D01*
X33300203Y9311700D01*
X52547029Y9311700D01*
X52614068Y9292015D01*
X52659823Y9239211D01*
X52670349Y9200665D01*
X52688258Y9030272D01*
X52688259Y9030269D01*
X52747270Y8848651D01*
X52747273Y8848644D01*
X52842760Y8683256D01*
X52884497Y8636902D01*
X52904611Y8614563D01*
X52934841Y8551571D01*
X52926215Y8482236D01*
X52904615Y8448623D01*
X52893561Y8436346D01*
X52893557Y8436341D01*
X52798073Y8270957D01*
X52798070Y8270950D01*
X52743505Y8103015D01*
X52739058Y8089328D01*
X52719096Y7899400D01*
X52739058Y7709472D01*
X52739059Y7709469D01*
X52798070Y7527851D01*
X52798073Y7527844D01*
X52893560Y7362456D01*
X53021347Y7220534D01*
X53175848Y7108282D01*
X53350312Y7030606D01*
X53503746Y6997993D01*
X53565227Y6964801D01*
X53565645Y6964384D01*
X57762549Y2767480D01*
X57762552Y2767478D01*
X57762556Y2767474D01*
X57799272Y2742941D01*
X57878593Y2689938D01*
X57878598Y2689936D01*
X57932003Y2667816D01*
X57932005Y2667815D01*
X57932006Y2667815D01*
X58007537Y2636528D01*
X58125203Y2613123D01*
X58144413Y2609302D01*
X58144417Y2609301D01*
X58144418Y2609301D01*
X67799281Y2609301D01*
X67866320Y2589616D01*
X67912075Y2536812D01*
X67922602Y2498263D01*
X67940458Y2328373D01*
X67940459Y2328370D01*
X67999470Y2146752D01*
X67999473Y2146745D01*
X68094960Y1981357D01*
X68222747Y1839435D01*
X68377248Y1727183D01*
X68551712Y1649507D01*
X68705146Y1616894D01*
X68766627Y1583702D01*
X68767045Y1583285D01*
X70062455Y287875D01*
X70062459Y287872D01*
X70129738Y242917D01*
X70174543Y189305D01*
X70183250Y119980D01*
X70153095Y56952D01*
X70093652Y20233D01*
X70060875Y15815D01*
X50466081Y11392D01*
X50466055Y11392D01*
X2518401Y10502D01*
X2510819Y10734D01*
X2217118Y28722D01*
X2202261Y30537D01*
X1916511Y83109D01*
X1901983Y86700D01*
X1624638Y173317D01*
X1610647Y178633D01*
X1345773Y298026D01*
X1332524Y304988D01*
X1083944Y455435D01*
X1071632Y463943D01*
X843006Y643227D01*
X831807Y653156D01*
X626433Y858692D01*
X616513Y869898D01*
X465129Y1063258D01*
X437399Y1098677D01*
X428903Y1110994D01*
X415403Y1133339D01*
X311135Y1305927D01*
X278660Y1359680D01*
X271708Y1372934D01*
X177090Y1583285D01*
X152520Y1637908D01*
X147216Y1651900D01*
X141361Y1670700D01*
X60815Y1929317D01*
X57237Y1943843D01*
X53049Y1966706D01*
X42673644Y1966706D01*
X42673644Y1966695D01*
X42692234Y1742341D01*
X42692236Y1742329D01*
X42747503Y1524086D01*
X42837940Y1317908D01*
X42961076Y1129435D01*
X42961084Y1129424D01*
X43106535Y971425D01*
X43113560Y963794D01*
X43291224Y825511D01*
X43291225Y825511D01*
X43291227Y825509D01*
X43351114Y793100D01*
X43489226Y718358D01*
X43702165Y645256D01*
X43924231Y608200D01*
X44149369Y608200D01*
X44371435Y645256D01*
X44584374Y718358D01*
X44782376Y825511D01*
X44960040Y963794D01*
X45065095Y1077913D01*
X45112515Y1129424D01*
X45112515Y1129425D01*
X45112522Y1129432D01*
X45206549Y1273353D01*
X45259694Y1318706D01*
X45328925Y1328130D01*
X45392261Y1298628D01*
X45411930Y1276652D01*
X45538690Y1095622D01*
X45705717Y928595D01*
X45899221Y793100D01*
X46113307Y693271D01*
X46113316Y693267D01*
X46326800Y636066D01*
X46326800Y1533688D01*
X46383807Y1500775D01*
X46510974Y1466700D01*
X46642626Y1466700D01*
X46769793Y1500775D01*
X46826800Y1533688D01*
X46826800Y636067D01*
X47040283Y693267D01*
X47040292Y693271D01*
X47254378Y793100D01*
X47447878Y928592D01*
X47563714Y1044428D01*
X47625037Y1077913D01*
X47694729Y1072929D01*
X47750663Y1031058D01*
X47767577Y1000081D01*
X47815910Y870497D01*
X47824747Y858692D01*
X47903539Y753439D01*
X48020596Y665811D01*
X48157599Y614711D01*
X48184850Y611782D01*
X48218145Y608201D01*
X48218162Y608200D01*
X50015438Y608200D01*
X50015454Y608201D01*
X50042492Y611109D01*
X50076001Y614711D01*
X50213004Y665811D01*
X50330061Y753439D01*
X50417689Y870496D01*
X50468789Y1007499D01*
X50474784Y1063258D01*
X50475299Y1068046D01*
X50475300Y1068063D01*
X50475300Y2865338D01*
X50475299Y2865355D01*
X50471046Y2904906D01*
X50468789Y2925901D01*
X50466022Y2933319D01*
X50439359Y3004806D01*
X50417689Y3062904D01*
X50330061Y3179961D01*
X50213004Y3267589D01*
X50076003Y3318689D01*
X50015454Y3325200D01*
X50015438Y3325200D01*
X48218162Y3325200D01*
X48218145Y3325200D01*
X48157597Y3318689D01*
X48157595Y3318689D01*
X48020595Y3267589D01*
X47903539Y3179961D01*
X47815911Y3062905D01*
X47767577Y2933319D01*
X47725705Y2877386D01*
X47660241Y2852970D01*
X47591968Y2867822D01*
X47563715Y2888973D01*
X47447882Y3004806D01*
X47254378Y3140301D01*
X47040292Y3240130D01*
X47040286Y3240133D01*
X46826800Y3297336D01*
X46826800Y2399712D01*
X46769793Y2432625D01*
X46642626Y2466700D01*
X46510974Y2466700D01*
X46383807Y2432625D01*
X46326800Y2399712D01*
X46326800Y3297336D01*
X46326799Y3297336D01*
X46113313Y3240133D01*
X46113307Y3240130D01*
X45899222Y3140301D01*
X45899220Y3140300D01*
X45705726Y3004814D01*
X45705720Y3004809D01*
X45538691Y2837780D01*
X45538690Y2837778D01*
X45411931Y2656748D01*
X45357354Y2613123D01*
X45287855Y2605931D01*
X45225501Y2637453D01*
X45206552Y2660044D01*
X45112522Y2803968D01*
X45112515Y2803975D01*
X45112515Y2803977D01*
X44960043Y2969603D01*
X44960038Y2969608D01*
X44782377Y3107888D01*
X44782372Y3107892D01*
X44584380Y3215039D01*
X44584377Y3215041D01*
X44584374Y3215042D01*
X44584371Y3215043D01*
X44584369Y3215044D01*
X44371437Y3288144D01*
X44149369Y3325200D01*
X43924231Y3325200D01*
X43702162Y3288144D01*
X43489230Y3215044D01*
X43489219Y3215039D01*
X43291227Y3107892D01*
X43291222Y3107888D01*
X43113561Y2969608D01*
X43113556Y2969603D01*
X42961084Y2803977D01*
X42961078Y2803968D01*
X42837940Y2615493D01*
X42747503Y2409315D01*
X42692236Y2191072D01*
X42692234Y2191060D01*
X42673644Y1966706D01*
X53049Y1966706D01*
X4888Y2229648D01*
X3086Y2244499D01*
X1320Y2273707D01*
X226Y2291813D01*
X0Y2299295D01*
X0Y4005739D01*
X19685Y4072778D01*
X72489Y4118533D01*
X141647Y4128477D01*
X205203Y4099452D01*
X233552Y4063826D01*
X327830Y3886000D01*
X327835Y3885993D01*
X526120Y3593544D01*
X754053Y3325200D01*
X754869Y3324240D01*
X1011393Y3081247D01*
X1011400Y3081242D01*
X1011402Y3081240D01*
X1035523Y3062904D01*
X1292686Y2867414D01*
X1292694Y2867409D01*
X1292706Y2867401D01*
X1490195Y2748577D01*
X1595449Y2685248D01*
X1751344Y2613123D01*
X1916128Y2536885D01*
X1916130Y2536885D01*
X1916133Y2536883D01*
X2250979Y2424061D01*
X2596059Y2348103D01*
X2947329Y2309900D01*
X2947335Y2309900D01*
X3300665Y2309900D01*
X3300671Y2309900D01*
X3651941Y2348103D01*
X3997021Y2424061D01*
X4331867Y2536883D01*
X4652551Y2685248D01*
X4869880Y2816010D01*
X4955293Y2867401D01*
X4955297Y2867404D01*
X4955314Y2867414D01*
X5236607Y3081247D01*
X5493131Y3324240D01*
X5721879Y3593543D01*
X5920170Y3886000D01*
X6085678Y4198182D01*
X6216463Y4526428D01*
X6223527Y4551868D01*
X6247176Y4637046D01*
X6310992Y4866890D01*
X6368156Y5215577D01*
X6384539Y5517740D01*
X6387286Y5568398D01*
X6387286Y5568403D01*
X6368156Y5921221D01*
X6361506Y5961785D01*
X6326451Y6175616D01*
X7530000Y6175616D01*
X7530000Y5961785D01*
X7563451Y5750583D01*
X7629526Y5547220D01*
X7629527Y5547217D01*
X7711584Y5386173D01*
X7726606Y5356691D01*
X7852294Y5183696D01*
X7852296Y5183694D01*
X7990570Y5045420D01*
X8024055Y4984097D01*
X8019071Y4914405D01*
X7977199Y4858472D01*
X7967986Y4852201D01*
X7820159Y4761020D01*
X7820155Y4761017D01*
X7696184Y4637046D01*
X7604143Y4487825D01*
X7604141Y4487820D01*
X7548994Y4321398D01*
X7548993Y4321391D01*
X7538500Y4218687D01*
X7538500Y3818700D01*
X8605488Y3818700D01*
X8572575Y3761693D01*
X8538500Y3634526D01*
X8538500Y3502874D01*
X8572575Y3375707D01*
X8605488Y3318700D01*
X7538501Y3318700D01*
X7538501Y2918714D01*
X7548994Y2816003D01*
X7604141Y2649581D01*
X7604143Y2649576D01*
X7696184Y2500355D01*
X7820154Y2376385D01*
X7969375Y2284344D01*
X7969380Y2284342D01*
X8135802Y2229195D01*
X8135809Y2229194D01*
X8238519Y2218701D01*
X8788499Y2218701D01*
X8788500Y2218702D01*
X8788500Y3135688D01*
X8845507Y3102775D01*
X8972674Y3068700D01*
X9104326Y3068700D01*
X9231493Y3102775D01*
X9288500Y3135688D01*
X9288500Y2218701D01*
X9838472Y2218701D01*
X9838486Y2218702D01*
X9941197Y2229195D01*
X10107619Y2284342D01*
X10107624Y2284344D01*
X10256845Y2376385D01*
X10380815Y2500355D01*
X10472856Y2649576D01*
X10472858Y2649581D01*
X10528005Y2816003D01*
X10528006Y2816010D01*
X10538499Y2918714D01*
X10538500Y2918727D01*
X10538500Y3318700D01*
X9471512Y3318700D01*
X9504425Y3375707D01*
X9538500Y3502874D01*
X9538500Y3634526D01*
X9504425Y3761693D01*
X9471512Y3818700D01*
X10538499Y3818700D01*
X10538499Y4218672D01*
X10538498Y4218687D01*
X10528005Y4321398D01*
X10472858Y4487820D01*
X10472856Y4487825D01*
X10380815Y4637046D01*
X10256844Y4761017D01*
X10256840Y4761020D01*
X10109013Y4852201D01*
X10062288Y4904149D01*
X10051067Y4973111D01*
X10078910Y5037193D01*
X10086407Y5045398D01*
X10224706Y5183696D01*
X10350394Y5356691D01*
X10447472Y5547217D01*
X10513549Y5750584D01*
X10547000Y5961784D01*
X10547000Y6175616D01*
X15454800Y6175616D01*
X15454800Y5961785D01*
X15488251Y5750583D01*
X15554326Y5547220D01*
X15554327Y5547217D01*
X15636384Y5386173D01*
X15651406Y5356691D01*
X15777094Y5183696D01*
X15777096Y5183694D01*
X15915370Y5045420D01*
X15948855Y4984097D01*
X15943871Y4914405D01*
X15901999Y4858472D01*
X15892786Y4852201D01*
X15744959Y4761020D01*
X15744955Y4761017D01*
X15620984Y4637046D01*
X15528943Y4487825D01*
X15528941Y4487820D01*
X15473794Y4321398D01*
X15473793Y4321391D01*
X15463300Y4218687D01*
X15463300Y3818700D01*
X16530288Y3818700D01*
X16497375Y3761693D01*
X16463300Y3634526D01*
X16463300Y3502874D01*
X16497375Y3375707D01*
X16530288Y3318700D01*
X15463301Y3318700D01*
X15463301Y2918714D01*
X15473794Y2816003D01*
X15528941Y2649581D01*
X15528943Y2649576D01*
X15620984Y2500355D01*
X15744954Y2376385D01*
X15894175Y2284344D01*
X15894180Y2284342D01*
X16060602Y2229195D01*
X16060609Y2229194D01*
X16163319Y2218701D01*
X16713299Y2218701D01*
X16713300Y2218702D01*
X16713300Y3135688D01*
X16770307Y3102775D01*
X16897474Y3068700D01*
X17029126Y3068700D01*
X17156293Y3102775D01*
X17213300Y3135688D01*
X17213300Y2218701D01*
X17763272Y2218701D01*
X17763286Y2218702D01*
X17865997Y2229195D01*
X18032419Y2284342D01*
X18032424Y2284344D01*
X18181645Y2376385D01*
X18305615Y2500355D01*
X18397656Y2649576D01*
X18397658Y2649581D01*
X18452805Y2816003D01*
X18452806Y2816010D01*
X18463299Y2918714D01*
X18463300Y2918727D01*
X18463300Y3318700D01*
X17396312Y3318700D01*
X17429225Y3375707D01*
X17463300Y3502874D01*
X17463300Y3634526D01*
X17429225Y3761693D01*
X17396312Y3818700D01*
X18463299Y3818700D01*
X18463299Y4218672D01*
X18463298Y4218687D01*
X18452805Y4321398D01*
X18397658Y4487820D01*
X18397656Y4487825D01*
X18305615Y4637046D01*
X18181644Y4761017D01*
X18181640Y4761020D01*
X18033813Y4852201D01*
X17987088Y4904149D01*
X17975867Y4973111D01*
X18003710Y5037193D01*
X18011207Y5045398D01*
X18149506Y5183696D01*
X18275194Y5356691D01*
X18372272Y5547217D01*
X18438349Y5750584D01*
X18471800Y5961784D01*
X18471800Y6175616D01*
X18438349Y6386816D01*
X18372272Y6590183D01*
X18372272Y6590184D01*
X18285105Y6761257D01*
X18275194Y6780709D01*
X18149506Y6953704D01*
X17998304Y7104906D01*
X17825309Y7230594D01*
X17634783Y7327673D01*
X17634780Y7327674D01*
X17431417Y7393749D01*
X17291763Y7415868D01*
X17220216Y7427200D01*
X16706384Y7427200D01*
X16644017Y7417322D01*
X16495182Y7393749D01*
X16291819Y7327674D01*
X16291816Y7327673D01*
X16101290Y7230594D01*
X15928293Y7104904D01*
X15777096Y6953707D01*
X15651406Y6780710D01*
X15554327Y6590184D01*
X15554326Y6590181D01*
X15488251Y6386818D01*
X15454800Y6175616D01*
X10547000Y6175616D01*
X10513549Y6386816D01*
X10447472Y6590183D01*
X10447472Y6590184D01*
X10360305Y6761257D01*
X10350394Y6780709D01*
X10224706Y6953704D01*
X10073504Y7104906D01*
X9900509Y7230594D01*
X9709983Y7327673D01*
X9709980Y7327674D01*
X9506617Y7393749D01*
X9366963Y7415868D01*
X9295416Y7427200D01*
X8781584Y7427200D01*
X8719217Y7417322D01*
X8570382Y7393749D01*
X8367019Y7327674D01*
X8367016Y7327673D01*
X8176490Y7230594D01*
X8003493Y7104904D01*
X7852296Y6953707D01*
X7726606Y6780710D01*
X7629527Y6590184D01*
X7629526Y6590181D01*
X7563451Y6386818D01*
X7530000Y6175616D01*
X6326451Y6175616D01*
X6310992Y6269910D01*
X6260970Y6450072D01*
X6216465Y6610367D01*
X6216464Y6610369D01*
X6215705Y6612273D01*
X6133116Y6819557D01*
X6085682Y6938609D01*
X6085673Y6938627D01*
X6072018Y6964384D01*
X5920170Y7250800D01*
X5721879Y7543257D01*
X5614434Y7669751D01*
X5493138Y7812552D01*
X5493133Y7812558D01*
X5477946Y7826944D01*
X5236607Y8055553D01*
X5236600Y8055559D01*
X5236597Y8055561D01*
X5090006Y8166996D01*
X4955314Y8269386D01*
X4955308Y8269390D01*
X4955293Y8269400D01*
X4652555Y8451550D01*
X4652549Y8451553D01*
X4331871Y8599916D01*
X3997023Y8712739D01*
X3651939Y8788698D01*
X3300672Y8826900D01*
X3300671Y8826900D01*
X2947329Y8826900D01*
X2947327Y8826900D01*
X2596060Y8788698D01*
X2250976Y8712739D01*
X1916128Y8599916D01*
X1595450Y8451553D01*
X1595444Y8451550D01*
X1292706Y8269400D01*
X1292690Y8269389D01*
X1011402Y8055561D01*
X1011393Y8055553D01*
X754866Y7812558D01*
X754861Y7812552D01*
X526120Y7543257D01*
X327830Y7250801D01*
X233555Y7072979D01*
X184762Y7022970D01*
X116677Y7007278D01*
X50917Y7030888D01*
X8360Y7086302D01*
X0Y7131062D01*
X0Y13497855D01*
X11426200Y13497855D01*
X11426200Y11800546D01*
X11432711Y11739998D01*
X11432711Y11739996D01*
X11481917Y11608073D01*
X11483811Y11602996D01*
X11571439Y11485939D01*
X11688496Y11398311D01*
X11825499Y11347211D01*
X11852750Y11344282D01*
X11886045Y11340701D01*
X11886062Y11340700D01*
X13583338Y11340700D01*
X13583354Y11340701D01*
X13610392Y11343609D01*
X13643901Y11347211D01*
X13780904Y11398311D01*
X13897961Y11485939D01*
X13985589Y11602996D01*
X14036689Y11739999D01*
X14040291Y11773508D01*
X14043199Y11800546D01*
X14043377Y11803869D01*
X14043555Y11803860D01*
X14043556Y11803865D01*
X14043659Y11803854D01*
X14044828Y11803792D01*
X14062885Y11865285D01*
X14115689Y11911040D01*
X14148667Y11916721D01*
X14834700Y12602754D01*
X14834700Y12596539D01*
X14861959Y12494806D01*
X14914620Y12403594D01*
X14989094Y12329120D01*
X15080306Y12276459D01*
X15182039Y12249200D01*
X15188253Y12249200D01*
X14509226Y11570175D01*
X14582213Y11519068D01*
X14582221Y11519064D01*
X14788368Y11422936D01*
X14788382Y11422931D01*
X15008089Y11364061D01*
X15008100Y11364059D01*
X15234698Y11344234D01*
X15234702Y11344234D01*
X15461299Y11364059D01*
X15461310Y11364061D01*
X15681017Y11422931D01*
X15681031Y11422936D01*
X15887178Y11519064D01*
X15960171Y11570176D01*
X15281147Y12249200D01*
X15287361Y12249200D01*
X15389094Y12276459D01*
X15480306Y12329120D01*
X15554780Y12403594D01*
X15607441Y12494806D01*
X15634700Y12596539D01*
X15634700Y12602753D01*
X16313724Y11923729D01*
X16364836Y11996722D01*
X16460964Y12202869D01*
X16460969Y12202883D01*
X16519839Y12422590D01*
X16519841Y12422601D01*
X16539666Y12649198D01*
X16539666Y12649203D01*
X16519841Y12875800D01*
X16519839Y12875811D01*
X16460969Y13095518D01*
X16460964Y13095532D01*
X16364836Y13301679D01*
X16364832Y13301687D01*
X16313725Y13374674D01*
X15634700Y12695649D01*
X15634700Y12701861D01*
X15607441Y12803594D01*
X15554780Y12894806D01*
X15480306Y12969280D01*
X15389094Y13021941D01*
X15287361Y13049200D01*
X15281148Y13049200D01*
X15960172Y13728226D01*
X15887178Y13779337D01*
X15681031Y13875465D01*
X15681017Y13875470D01*
X15461310Y13934340D01*
X15461299Y13934342D01*
X15234702Y13954166D01*
X15234698Y13954166D01*
X15008100Y13934342D01*
X15008089Y13934340D01*
X14788382Y13875470D01*
X14788373Y13875466D01*
X14582216Y13779334D01*
X14582212Y13779332D01*
X14509226Y13728227D01*
X14509226Y13728226D01*
X15188253Y13049200D01*
X15182039Y13049200D01*
X15080306Y13021941D01*
X14989094Y12969280D01*
X14914620Y12894806D01*
X14861959Y12803594D01*
X14834700Y12701861D01*
X14834700Y12695648D01*
X14147610Y13382737D01*
X14109505Y13390396D01*
X14059323Y13439012D01*
X14044665Y13494600D01*
X14043659Y13494547D01*
X14043556Y13494535D01*
X14043555Y13494541D01*
X14043377Y13494531D01*
X14043199Y13497855D01*
X14039857Y13528930D01*
X14036689Y13558401D01*
X14036107Y13559961D01*
X14002066Y13651228D01*
X13985589Y13695404D01*
X13897961Y13812461D01*
X13780904Y13900089D01*
X13742734Y13914326D01*
X13643903Y13951189D01*
X13583354Y13957700D01*
X13583338Y13957700D01*
X11886062Y13957700D01*
X11886045Y13957700D01*
X11825497Y13951189D01*
X11825495Y13951189D01*
X11688495Y13900089D01*
X11571439Y13812461D01*
X11483811Y13695405D01*
X11432711Y13558405D01*
X11432711Y13558403D01*
X11426200Y13497855D01*
X0Y13497855D01*
X0Y18777045D01*
X11790200Y18777045D01*
X11790200Y17979200D01*
X12751952Y17979200D01*
X12730182Y17941492D01*
X12692700Y17801609D01*
X12692700Y17656791D01*
X12730182Y17516908D01*
X12751952Y17479200D01*
X11790200Y17479200D01*
X11790200Y16681356D01*
X11796601Y16621828D01*
X11796603Y16621821D01*
X11846845Y16487114D01*
X11846849Y16487107D01*
X11933009Y16372013D01*
X11933012Y16372010D01*
X12048106Y16285850D01*
X12048113Y16285846D01*
X12182820Y16235604D01*
X12182827Y16235602D01*
X12242355Y16229201D01*
X12242372Y16229200D01*
X12992700Y16229200D01*
X12992700Y17238453D01*
X13030408Y17216682D01*
X13170291Y17179200D01*
X13315109Y17179200D01*
X13454992Y17216682D01*
X13492700Y17238453D01*
X13492700Y16229200D01*
X14243028Y16229200D01*
X14243044Y16229201D01*
X14302572Y16235602D01*
X14302579Y16235604D01*
X14437286Y16285846D01*
X14437293Y16285850D01*
X14552387Y16372010D01*
X14552390Y16372013D01*
X14638550Y16487107D01*
X14638555Y16487115D01*
X14646068Y16507260D01*
X14687937Y16563195D01*
X14753401Y16587615D01*
X14821674Y16572765D01*
X14835136Y16564249D01*
X14913575Y16507260D01*
X15016969Y16432140D01*
X15122305Y16378469D01*
X15221866Y16327740D01*
X15221868Y16327740D01*
X15221871Y16327738D01*
X15339104Y16289647D01*
X15440581Y16256674D01*
X15667712Y16220700D01*
X15667717Y16220700D01*
X15897688Y16220700D01*
X16124818Y16256674D01*
X16147045Y16263896D01*
X16343529Y16327738D01*
X16548431Y16432140D01*
X16734478Y16567311D01*
X16897089Y16729922D01*
X16952383Y16806028D01*
X17007712Y16848692D01*
X17077325Y16854671D01*
X17139120Y16822065D01*
X17153014Y16806031D01*
X17208311Y16729922D01*
X17370922Y16567311D01*
X17556969Y16432140D01*
X17653778Y16382814D01*
X17761866Y16327740D01*
X17761868Y16327740D01*
X17761871Y16327738D01*
X17879104Y16289647D01*
X17980581Y16256674D01*
X18207712Y16220700D01*
X18207717Y16220700D01*
X18437688Y16220700D01*
X18664818Y16256674D01*
X18687045Y16263896D01*
X18883529Y16327738D01*
X19088431Y16432140D01*
X19274478Y16567311D01*
X19437089Y16729922D01*
X19572260Y16915969D01*
X19624250Y17018006D01*
X22484044Y17018006D01*
X22484044Y17017995D01*
X22502634Y16793641D01*
X22502636Y16793629D01*
X22557903Y16575386D01*
X22648340Y16369208D01*
X22771476Y16180735D01*
X22771484Y16180724D01*
X22923956Y16015098D01*
X22923961Y16015093D01*
X22983181Y15969000D01*
X23101624Y15876811D01*
X23101629Y15876809D01*
X23101631Y15876807D01*
X23138130Y15857054D01*
X23187720Y15807835D01*
X23202828Y15739618D01*
X23178657Y15674063D01*
X23138130Y15638946D01*
X23101631Y15619194D01*
X23101622Y15619188D01*
X22923961Y15480908D01*
X22923956Y15480903D01*
X22771484Y15315277D01*
X22771476Y15315266D01*
X22648340Y15126793D01*
X22557903Y14920615D01*
X22502636Y14702372D01*
X22502634Y14702360D01*
X22484044Y14478006D01*
X22484044Y14477995D01*
X22502634Y14253641D01*
X22502636Y14253629D01*
X22557903Y14035386D01*
X22648340Y13829208D01*
X22771476Y13640735D01*
X22771484Y13640724D01*
X22916689Y13482992D01*
X22947612Y13420338D01*
X22939752Y13350912D01*
X22895605Y13296756D01*
X22868796Y13282828D01*
X22750994Y13238889D01*
X22633939Y13151261D01*
X22546311Y13034205D01*
X22495211Y12897205D01*
X22495211Y12897203D01*
X22488700Y12836655D01*
X22488700Y11039346D01*
X22495211Y10978798D01*
X22495211Y10978796D01*
X22546311Y10841796D01*
X22633939Y10724739D01*
X22750996Y10637111D01*
X22887999Y10586011D01*
X22915250Y10583082D01*
X22948545Y10579501D01*
X22948562Y10579500D01*
X24745838Y10579500D01*
X24745854Y10579501D01*
X24772892Y10582409D01*
X24806401Y10586011D01*
X24943404Y10637111D01*
X25060461Y10724739D01*
X25148089Y10841796D01*
X25199189Y10978799D01*
X25202791Y11012308D01*
X25205699Y11039346D01*
X25205700Y11039363D01*
X25205700Y12836638D01*
X25205699Y12836655D01*
X25201490Y12875800D01*
X25199189Y12897201D01*
X25148089Y13034204D01*
X25060461Y13151261D01*
X24943404Y13238889D01*
X24825604Y13282828D01*
X24769671Y13324700D01*
X24745255Y13390165D01*
X24760108Y13458438D01*
X24777704Y13482986D01*
X24922922Y13640732D01*
X25046060Y13829209D01*
X25136496Y14035384D01*
X25191764Y14253632D01*
X25192812Y14266279D01*
X25210356Y14477995D01*
X25210356Y14478006D01*
X25191765Y14702360D01*
X25191763Y14702372D01*
X25145822Y14883789D01*
X25136496Y14920616D01*
X25046060Y15126791D01*
X25012916Y15177521D01*
X24960460Y15257812D01*
X24922922Y15315268D01*
X24922919Y15315271D01*
X24922915Y15315277D01*
X24770443Y15480903D01*
X24770438Y15480908D01*
X24592777Y15619188D01*
X24592778Y15619188D01*
X24592776Y15619189D01*
X24556270Y15638945D01*
X24506679Y15688164D01*
X24491571Y15756381D01*
X24515741Y15821936D01*
X24556270Y15857055D01*
X24556284Y15857064D01*
X24592776Y15876811D01*
X24770440Y16015094D01*
X24922922Y16180732D01*
X25046060Y16369209D01*
X25136496Y16575384D01*
X25191764Y16793632D01*
X25192361Y16800839D01*
X25210356Y17017995D01*
X25210356Y17018006D01*
X25191765Y17242360D01*
X25191763Y17242372D01*
X25168389Y17334675D01*
X29115500Y17334675D01*
X29115500Y15637366D01*
X29122011Y15576818D01*
X29122011Y15576816D01*
X29167442Y15455014D01*
X29173111Y15439816D01*
X29260739Y15322759D01*
X29377796Y15235131D01*
X29514799Y15184031D01*
X29542050Y15181102D01*
X29575345Y15177521D01*
X29575362Y15177520D01*
X31272638Y15177520D01*
X31272654Y15177521D01*
X31299692Y15180429D01*
X31333201Y15184031D01*
X31470204Y15235131D01*
X31587261Y15322759D01*
X31674889Y15439816D01*
X31725989Y15576819D01*
X31730544Y15619189D01*
X31732499Y15637366D01*
X31732500Y15637383D01*
X31732500Y17334658D01*
X31732499Y17334675D01*
X31729157Y17365750D01*
X31725989Y17395221D01*
X31710983Y17435452D01*
X31694666Y17479200D01*
X31674889Y17532224D01*
X31587261Y17649281D01*
X31470204Y17736909D01*
X31333203Y17788009D01*
X31272654Y17794520D01*
X31269331Y17794697D01*
X31269340Y17794876D01*
X31269335Y17794876D01*
X31269346Y17794980D01*
X31269408Y17796149D01*
X31207915Y17814205D01*
X31162160Y17867009D01*
X31156479Y17899988D01*
X30470447Y18586020D01*
X30476661Y18586020D01*
X30578394Y18613279D01*
X30669606Y18665940D01*
X30744080Y18740414D01*
X30796741Y18831626D01*
X30824000Y18933359D01*
X30824000Y18939573D01*
X31503024Y18260549D01*
X31554136Y18333542D01*
X31650264Y18539689D01*
X31650269Y18539703D01*
X31709139Y18759410D01*
X31709141Y18759421D01*
X31728966Y18986018D01*
X31728966Y18986023D01*
X31709141Y19212620D01*
X31709139Y19212631D01*
X31650269Y19432338D01*
X31650264Y19432352D01*
X31554136Y19638499D01*
X31554132Y19638507D01*
X31503025Y19711494D01*
X30824000Y19032469D01*
X30824000Y19038681D01*
X30796741Y19140414D01*
X30744080Y19231626D01*
X30669606Y19306100D01*
X30578394Y19358761D01*
X30476661Y19386020D01*
X30470448Y19386020D01*
X31149472Y20065046D01*
X31076478Y20116157D01*
X30870331Y20212285D01*
X30870317Y20212290D01*
X30650610Y20271160D01*
X30650599Y20271162D01*
X30424002Y20290986D01*
X30423998Y20290986D01*
X30197400Y20271162D01*
X30197389Y20271160D01*
X29977682Y20212290D01*
X29977673Y20212286D01*
X29771516Y20116154D01*
X29771512Y20116152D01*
X29698526Y20065047D01*
X29698526Y20065046D01*
X30377553Y19386020D01*
X30371339Y19386020D01*
X30269606Y19358761D01*
X30178394Y19306100D01*
X30103920Y19231626D01*
X30051259Y19140414D01*
X30024000Y19038681D01*
X30024000Y19032468D01*
X29344974Y19711494D01*
X29344973Y19711494D01*
X29293868Y19638508D01*
X29293866Y19638504D01*
X29197734Y19432347D01*
X29197730Y19432338D01*
X29138860Y19212631D01*
X29138858Y19212620D01*
X29119034Y18986023D01*
X29119034Y18986018D01*
X29138858Y18759421D01*
X29138860Y18759410D01*
X29197730Y18539703D01*
X29197735Y18539689D01*
X29293863Y18333542D01*
X29344974Y18260548D01*
X30024000Y18939574D01*
X30024000Y18933359D01*
X30051259Y18831626D01*
X30103920Y18740414D01*
X30178394Y18665940D01*
X30269606Y18613279D01*
X30371339Y18586020D01*
X30377553Y18586020D01*
X29690464Y17898933D01*
X29682805Y17860825D01*
X29634189Y17810643D01*
X29578600Y17795985D01*
X29578653Y17794980D01*
X29578665Y17794876D01*
X29578659Y17794876D01*
X29578669Y17794697D01*
X29575345Y17794520D01*
X29514797Y17788009D01*
X29514795Y17788009D01*
X29377795Y17736909D01*
X29260739Y17649281D01*
X29173111Y17532225D01*
X29122011Y17395225D01*
X29122011Y17395223D01*
X29115500Y17334675D01*
X25168389Y17334675D01*
X25162098Y17359517D01*
X25136496Y17460616D01*
X25046060Y17666791D01*
X25013798Y17716171D01*
X24966864Y17788009D01*
X24922922Y17855268D01*
X24922919Y17855271D01*
X24922915Y17855277D01*
X24770443Y18020903D01*
X24770438Y18020908D01*
X24592777Y18159188D01*
X24592772Y18159192D01*
X24394780Y18266339D01*
X24394777Y18266341D01*
X24394774Y18266342D01*
X24394771Y18266343D01*
X24394769Y18266344D01*
X24181837Y18339444D01*
X23959769Y18376500D01*
X23734631Y18376500D01*
X23512562Y18339444D01*
X23299630Y18266344D01*
X23299619Y18266339D01*
X23101627Y18159192D01*
X23101622Y18159188D01*
X22923961Y18020908D01*
X22923956Y18020903D01*
X22771484Y17855277D01*
X22771476Y17855266D01*
X22648340Y17666793D01*
X22557903Y17460615D01*
X22502636Y17242372D01*
X22502634Y17242360D01*
X22484044Y17018006D01*
X19624250Y17018006D01*
X19676662Y17120871D01*
X19747726Y17339582D01*
X19750883Y17359517D01*
X19783700Y17566712D01*
X19783700Y17891689D01*
X19747726Y18118819D01*
X19699792Y18266342D01*
X19676662Y18337529D01*
X19676660Y18337532D01*
X19676660Y18337534D01*
X19580015Y18527211D01*
X19572260Y18542431D01*
X19437089Y18728478D01*
X19274478Y18891089D01*
X19088431Y19026260D01*
X19064053Y19038681D01*
X18883533Y19130661D01*
X18664818Y19201727D01*
X18437688Y19237700D01*
X18437683Y19237700D01*
X18207717Y19237700D01*
X18207712Y19237700D01*
X17980581Y19201727D01*
X17761866Y19130661D01*
X17556968Y19026260D01*
X17370919Y18891087D01*
X17208312Y18728480D01*
X17153018Y18652374D01*
X17097687Y18609709D01*
X17028074Y18603730D01*
X16966279Y18636336D01*
X16952382Y18652374D01*
X16922494Y18693511D01*
X16897089Y18728478D01*
X16734478Y18891089D01*
X16548431Y19026260D01*
X16524053Y19038681D01*
X16343533Y19130661D01*
X16124818Y19201727D01*
X15897688Y19237700D01*
X15897683Y19237700D01*
X15667717Y19237700D01*
X15667712Y19237700D01*
X15440581Y19201727D01*
X15221866Y19130661D01*
X15016964Y19026258D01*
X14835136Y18894152D01*
X14769330Y18870672D01*
X14701276Y18886498D01*
X14652581Y18936604D01*
X14646068Y18951139D01*
X14638553Y18971289D01*
X14638550Y18971294D01*
X14552390Y19086388D01*
X14552387Y19086391D01*
X14437293Y19172551D01*
X14437286Y19172555D01*
X14302579Y19222797D01*
X14302572Y19222799D01*
X14243044Y19229200D01*
X13492700Y19229200D01*
X13492700Y18219948D01*
X13454992Y18241718D01*
X13315109Y18279200D01*
X13170291Y18279200D01*
X13030408Y18241718D01*
X12992700Y18219948D01*
X12992700Y19229200D01*
X12242355Y19229200D01*
X12182827Y19222799D01*
X12182820Y19222797D01*
X12048113Y19172555D01*
X12048106Y19172551D01*
X11933012Y19086391D01*
X11933009Y19086388D01*
X11846849Y18971294D01*
X11846845Y18971287D01*
X11796603Y18836580D01*
X11796601Y18836573D01*
X11790200Y18777045D01*
X0Y18777045D01*
X0Y21415374D01*
X19685Y21482413D01*
X72489Y21528168D01*
X123824Y21539374D01*
X20824000Y21568400D01*
X20822322Y23368406D01*
X81380844Y23368406D01*
X81380844Y23368395D01*
X81399434Y23144041D01*
X81399436Y23144029D01*
X81454703Y22925786D01*
X81545140Y22719608D01*
X81668276Y22531135D01*
X81668284Y22531124D01*
X81794967Y22393512D01*
X81820760Y22365494D01*
X81998424Y22227211D01*
X81998425Y22227211D01*
X81998427Y22227209D01*
X82058314Y22194800D01*
X82196426Y22120058D01*
X82409365Y22046956D01*
X82631431Y22009900D01*
X82856569Y22009900D01*
X83078635Y22046956D01*
X83291574Y22120058D01*
X83489576Y22227211D01*
X83667240Y22365494D01*
X83788594Y22497318D01*
X83819715Y22531124D01*
X83819715Y22531125D01*
X83819722Y22531132D01*
X83913749Y22675053D01*
X83966894Y22720406D01*
X84036125Y22729830D01*
X84099461Y22700328D01*
X84119130Y22678352D01*
X84245890Y22497322D01*
X84412917Y22330295D01*
X84606421Y22194800D01*
X84820507Y22094971D01*
X84820516Y22094967D01*
X85034000Y22037766D01*
X85034000Y22935388D01*
X85091007Y22902475D01*
X85218174Y22868400D01*
X85349826Y22868400D01*
X85476993Y22902475D01*
X85534000Y22935388D01*
X85534000Y22037767D01*
X85747483Y22094967D01*
X85747492Y22094971D01*
X85961578Y22194800D01*
X86155082Y22330295D01*
X86322105Y22497318D01*
X86448868Y22678352D01*
X86503445Y22721977D01*
X86572944Y22729169D01*
X86635298Y22697647D01*
X86654251Y22675050D01*
X86748276Y22531135D01*
X86748284Y22531124D01*
X86874967Y22393512D01*
X86900760Y22365494D01*
X87078424Y22227211D01*
X87078425Y22227211D01*
X87078427Y22227209D01*
X87138314Y22194800D01*
X87276426Y22120058D01*
X87489365Y22046956D01*
X87711431Y22009900D01*
X87936569Y22009900D01*
X88158635Y22046956D01*
X88371574Y22120058D01*
X88569576Y22227211D01*
X88747240Y22365494D01*
X88810452Y22434161D01*
X88870337Y22470150D01*
X88940175Y22468051D01*
X88997791Y22428527D01*
X89017861Y22393512D01*
X89063111Y22272196D01*
X89150739Y22155139D01*
X89267796Y22067511D01*
X89404799Y22016411D01*
X89432050Y22013482D01*
X89465345Y22009901D01*
X89465362Y22009900D01*
X91262638Y22009900D01*
X91262654Y22009901D01*
X91289692Y22012809D01*
X91323201Y22016411D01*
X91460204Y22067511D01*
X91577261Y22155139D01*
X91664889Y22272196D01*
X91715989Y22409199D01*
X91719591Y22442708D01*
X91722499Y22469746D01*
X91722500Y22469763D01*
X91722500Y24267038D01*
X91722499Y24267055D01*
X91717393Y24314540D01*
X91715989Y24327601D01*
X91664889Y24464604D01*
X91577261Y24581661D01*
X91460204Y24669289D01*
X91323203Y24720389D01*
X91262654Y24726900D01*
X91262638Y24726900D01*
X89465362Y24726900D01*
X89465345Y24726900D01*
X89404797Y24720389D01*
X89404795Y24720389D01*
X89267795Y24669289D01*
X89150739Y24581661D01*
X89063111Y24464605D01*
X89017861Y24343289D01*
X88975989Y24287356D01*
X88910524Y24262940D01*
X88842252Y24277793D01*
X88810454Y24302638D01*
X88747240Y24371306D01*
X88569576Y24509589D01*
X88569575Y24509590D01*
X88569572Y24509592D01*
X88371580Y24616739D01*
X88371577Y24616741D01*
X88371574Y24616742D01*
X88371571Y24616743D01*
X88371569Y24616744D01*
X88158637Y24689844D01*
X87936569Y24726900D01*
X87711431Y24726900D01*
X87489362Y24689844D01*
X87276430Y24616744D01*
X87276419Y24616739D01*
X87078427Y24509592D01*
X87078422Y24509588D01*
X86900761Y24371308D01*
X86900756Y24371303D01*
X86748284Y24205677D01*
X86748276Y24205666D01*
X86654251Y24061750D01*
X86601105Y24016393D01*
X86531873Y24006970D01*
X86468538Y24036472D01*
X86448868Y24058449D01*
X86322113Y24239474D01*
X86322108Y24239480D01*
X86155082Y24406506D01*
X85961578Y24542001D01*
X85747492Y24641830D01*
X85747486Y24641833D01*
X85534000Y24699036D01*
X85534000Y23801412D01*
X85476993Y23834325D01*
X85349826Y23868400D01*
X85218174Y23868400D01*
X85091007Y23834325D01*
X85034000Y23801412D01*
X85034000Y24699036D01*
X85033999Y24699036D01*
X84820513Y24641833D01*
X84820507Y24641830D01*
X84606422Y24542001D01*
X84606420Y24542000D01*
X84412926Y24406514D01*
X84412920Y24406509D01*
X84245891Y24239480D01*
X84245890Y24239478D01*
X84119131Y24058448D01*
X84064554Y24014823D01*
X83995055Y24007631D01*
X83932701Y24039153D01*
X83913752Y24061744D01*
X83819722Y24205668D01*
X83819715Y24205675D01*
X83819715Y24205677D01*
X83667243Y24371303D01*
X83667238Y24371308D01*
X83489577Y24509588D01*
X83489572Y24509592D01*
X83291580Y24616739D01*
X83291577Y24616741D01*
X83291574Y24616742D01*
X83291571Y24616743D01*
X83291569Y24616744D01*
X83078637Y24689844D01*
X82856569Y24726900D01*
X82631431Y24726900D01*
X82409362Y24689844D01*
X82196430Y24616744D01*
X82196419Y24616739D01*
X81998427Y24509592D01*
X81998422Y24509588D01*
X81820761Y24371308D01*
X81820756Y24371303D01*
X81668284Y24205677D01*
X81668276Y24205666D01*
X81545140Y24017193D01*
X81454703Y23811015D01*
X81399436Y23592772D01*
X81399434Y23592760D01*
X81380844Y23368406D01*
X20822322Y23368406D01*
X20818221Y27768414D01*
X104161501Y27768414D01*
X104171994Y27665703D01*
X104227141Y27499281D01*
X104227143Y27499276D01*
X104319184Y27350055D01*
X104443154Y27226085D01*
X104592375Y27134044D01*
X104592380Y27134042D01*
X104758802Y27078895D01*
X104758809Y27078894D01*
X104861519Y27068401D01*
X105073999Y27068401D01*
X105574000Y27068401D01*
X105786472Y27068401D01*
X105786486Y27068402D01*
X105889197Y27078895D01*
X106055619Y27134042D01*
X106055624Y27134044D01*
X106204845Y27226085D01*
X106328815Y27350055D01*
X106420856Y27499276D01*
X106420858Y27499281D01*
X106476005Y27665703D01*
X106476006Y27665710D01*
X106486499Y27768414D01*
X106486500Y27768427D01*
X106486500Y28218400D01*
X105574000Y28218400D01*
X105574000Y27068401D01*
X105073999Y27068401D01*
X105074000Y27068402D01*
X105074000Y28218400D01*
X104161501Y28218400D01*
X104161501Y27768414D01*
X20818221Y27768414D01*
X20813883Y32421800D01*
X22266835Y32421800D01*
X22285465Y32185086D01*
X22340895Y31954205D01*
X22340895Y31954203D01*
X22431757Y31734841D01*
X22431759Y31734838D01*
X22555820Y31532390D01*
X22555821Y31532387D01*
X22608076Y31471204D01*
X22710031Y31351831D01*
X22825746Y31253001D01*
X22890586Y31197622D01*
X22890589Y31197621D01*
X23093037Y31073560D01*
X23093040Y31073558D01*
X23312403Y30982696D01*
X23312404Y30982696D01*
X23312406Y30982695D01*
X23543289Y30927265D01*
X23780000Y30908635D01*
X24016711Y30927265D01*
X24247594Y30982695D01*
X24247596Y30982696D01*
X24247597Y30982696D01*
X24334164Y31018553D01*
X48403900Y31018553D01*
X48403900Y29467463D01*
X48403901Y29467447D01*
X48414513Y29363573D01*
X48470284Y29195265D01*
X48470286Y29195260D01*
X48486518Y29168944D01*
X48563370Y29044348D01*
X48688748Y28918970D01*
X48839662Y28825885D01*
X49007974Y28770113D01*
X49111855Y28759500D01*
X50412944Y28759501D01*
X50516826Y28770113D01*
X50685138Y28825885D01*
X50836052Y28918970D01*
X50961430Y29044348D01*
X51052079Y29191313D01*
X51104024Y29238034D01*
X51172987Y29249257D01*
X51237069Y29221413D01*
X51245296Y29213894D01*
X51377396Y29081794D01*
X51550391Y28956106D01*
X51643838Y28908493D01*
X51740916Y28859028D01*
X51740919Y28859027D01*
X51842600Y28825990D01*
X51944284Y28792951D01*
X52155484Y28759500D01*
X52155485Y28759500D01*
X52369315Y28759500D01*
X52369316Y28759500D01*
X52580516Y28792951D01*
X52783883Y28859028D01*
X52974409Y28956106D01*
X53147404Y29081794D01*
X53298606Y29232996D01*
X53417335Y29396414D01*
X53472665Y29439079D01*
X53542278Y29445058D01*
X53604073Y29412452D01*
X53617971Y29396413D01*
X53732672Y29238541D01*
X53732676Y29238536D01*
X53882935Y29088277D01*
X53882940Y29088273D01*
X54054842Y28963380D01*
X54244182Y28866905D01*
X54446271Y28801243D01*
X54512400Y28790769D01*
X54512400Y29838855D01*
X54579057Y29800370D01*
X54699865Y29768000D01*
X54824935Y29768000D01*
X54945743Y29800370D01*
X55012400Y29838855D01*
X55012400Y28790770D01*
X55078526Y28801243D01*
X55078529Y28801243D01*
X55280617Y28866905D01*
X55469957Y28963380D01*
X55641859Y29088273D01*
X55641864Y29088277D01*
X55792123Y29238536D01*
X55792127Y29238541D01*
X55906828Y29396413D01*
X55962157Y29439079D01*
X56031771Y29445058D01*
X56093566Y29412453D01*
X56107464Y29396414D01*
X56226194Y29232996D01*
X56377396Y29081794D01*
X56550391Y28956106D01*
X56643838Y28908493D01*
X56740916Y28859028D01*
X56740919Y28859027D01*
X56842600Y28825990D01*
X56944284Y28792951D01*
X57155484Y28759500D01*
X57155485Y28759500D01*
X57369315Y28759500D01*
X57369316Y28759500D01*
X57580516Y28792951D01*
X57783883Y28859028D01*
X57974409Y28956106D01*
X58147404Y29081794D01*
X58298606Y29232996D01*
X58393476Y29363573D01*
X58412082Y29389182D01*
X58467412Y29431848D01*
X58537025Y29437827D01*
X58598820Y29405221D01*
X58612718Y29389182D01*
X58697254Y29272828D01*
X58726194Y29232996D01*
X58877396Y29081794D01*
X59050391Y28956106D01*
X59143838Y28908493D01*
X59240916Y28859028D01*
X59240919Y28859027D01*
X59342600Y28825990D01*
X59444284Y28792951D01*
X59655484Y28759500D01*
X59655485Y28759500D01*
X59869315Y28759500D01*
X59869316Y28759500D01*
X60080516Y28792951D01*
X60283883Y28859028D01*
X60474409Y28956106D01*
X60647404Y29081794D01*
X60733997Y29168387D01*
X104161500Y29168387D01*
X104161500Y28718400D01*
X105074000Y28718400D01*
X105574000Y28718400D01*
X106486499Y28718400D01*
X106486499Y29168372D01*
X106486498Y29168387D01*
X106476005Y29271098D01*
X106420858Y29437520D01*
X106420856Y29437525D01*
X106328816Y29586744D01*
X106325068Y29591484D01*
X106298924Y29656277D01*
X106311960Y29724920D01*
X106325068Y29745316D01*
X106328816Y29750057D01*
X106420856Y29899276D01*
X106420858Y29899281D01*
X106476005Y30065703D01*
X106476006Y30065710D01*
X106486499Y30168414D01*
X106486500Y30168427D01*
X106486500Y30618400D01*
X105574000Y30618400D01*
X105574000Y28718400D01*
X105074000Y28718400D01*
X105074000Y30618400D01*
X104161501Y30618400D01*
X104161501Y30168414D01*
X104171994Y30065703D01*
X104227141Y29899281D01*
X104227143Y29899276D01*
X104319185Y29750054D01*
X104322935Y29745311D01*
X104349076Y29680515D01*
X104336035Y29611873D01*
X104322935Y29591489D01*
X104319185Y29586747D01*
X104227143Y29437525D01*
X104227141Y29437520D01*
X104171994Y29271098D01*
X104171993Y29271091D01*
X104161500Y29168387D01*
X60733997Y29168387D01*
X60798606Y29232996D01*
X60924294Y29405991D01*
X61021372Y29596517D01*
X61087449Y29799884D01*
X61120900Y30011084D01*
X61120900Y30420556D01*
X93424000Y30420556D01*
X93430401Y30361028D01*
X93430403Y30361021D01*
X93480645Y30226314D01*
X93480649Y30226307D01*
X93566809Y30111213D01*
X93566812Y30111210D01*
X93681906Y30025050D01*
X93681913Y30025046D01*
X93816620Y29974804D01*
X93816627Y29974802D01*
X93876155Y29968401D01*
X93876172Y29968400D01*
X94174000Y29968400D01*
X94674000Y29968400D01*
X94971828Y29968400D01*
X94971844Y29968401D01*
X95031372Y29974802D01*
X95031379Y29974804D01*
X95166086Y30025046D01*
X95166093Y30025050D01*
X95281187Y30111210D01*
X95281190Y30111213D01*
X95367350Y30226307D01*
X95367354Y30226314D01*
X95417596Y30361021D01*
X95417598Y30361028D01*
X95423999Y30420556D01*
X95424000Y30420573D01*
X95424000Y30718400D01*
X94674000Y30718400D01*
X94674000Y29968400D01*
X94174000Y29968400D01*
X94174000Y30718400D01*
X93424000Y30718400D01*
X93424000Y30420556D01*
X61120900Y30420556D01*
X61120900Y30474916D01*
X61087449Y30686116D01*
X61021372Y30889483D01*
X61021372Y30889484D01*
X60955824Y31018128D01*
X94174000Y31018128D01*
X94174000Y30918672D01*
X94212060Y30826786D01*
X94282386Y30756460D01*
X94374272Y30718400D01*
X94473728Y30718400D01*
X94565614Y30756460D01*
X94635940Y30826786D01*
X94674000Y30918672D01*
X94674000Y31018128D01*
X94635940Y31110014D01*
X94565614Y31180340D01*
X94473728Y31218400D01*
X94674000Y31218400D01*
X95424000Y31218400D01*
X95424000Y31516228D01*
X95423999Y31516245D01*
X95417598Y31575773D01*
X95417596Y31575780D01*
X95367354Y31710487D01*
X95367350Y31710494D01*
X95281190Y31825588D01*
X95281187Y31825591D01*
X95166093Y31911751D01*
X95166086Y31911755D01*
X95031379Y31961997D01*
X95031372Y31961999D01*
X94971844Y31968400D01*
X94674000Y31968400D01*
X94674000Y31218400D01*
X94473728Y31218400D01*
X94374272Y31218400D01*
X94282386Y31180340D01*
X94212060Y31110014D01*
X94174000Y31018128D01*
X60955824Y31018128D01*
X60924294Y31080009D01*
X60798606Y31253004D01*
X60647404Y31404206D01*
X60493195Y31516245D01*
X93424000Y31516245D01*
X93424000Y31218400D01*
X94174000Y31218400D01*
X94174000Y31968400D01*
X93876155Y31968400D01*
X93816627Y31961999D01*
X93816620Y31961997D01*
X93681913Y31911755D01*
X93681906Y31911751D01*
X93566812Y31825591D01*
X93566809Y31825588D01*
X93480649Y31710494D01*
X93480645Y31710487D01*
X93430403Y31575780D01*
X93430401Y31575773D01*
X93424000Y31516245D01*
X60493195Y31516245D01*
X60474409Y31529894D01*
X60401526Y31567030D01*
X60283883Y31626973D01*
X60283880Y31626974D01*
X60080517Y31693049D01*
X59936323Y31715887D01*
X59869316Y31726500D01*
X59655484Y31726500D01*
X59588477Y31715887D01*
X59444282Y31693049D01*
X59240919Y31626974D01*
X59240916Y31626973D01*
X59050390Y31529894D01*
X58877393Y31404204D01*
X58726196Y31253007D01*
X58726196Y31253006D01*
X58726194Y31253004D01*
X58719366Y31243606D01*
X58612718Y31096818D01*
X58557388Y31054153D01*
X58487774Y31048174D01*
X58425979Y31080780D01*
X58412082Y31096818D01*
X58351399Y31180340D01*
X58298606Y31253004D01*
X58147404Y31404206D01*
X57974409Y31529894D01*
X57901526Y31567030D01*
X57783883Y31626973D01*
X57783880Y31626974D01*
X57580517Y31693049D01*
X57436323Y31715887D01*
X57369316Y31726500D01*
X57155484Y31726500D01*
X57088477Y31715887D01*
X56944282Y31693049D01*
X56740919Y31626974D01*
X56740916Y31626973D01*
X56550390Y31529894D01*
X56377393Y31404204D01*
X56226196Y31253007D01*
X56226196Y31253006D01*
X56226194Y31253004D01*
X56219366Y31243606D01*
X56107464Y31089587D01*
X56052134Y31046922D01*
X55982520Y31040943D01*
X55920725Y31073549D01*
X55906828Y31089588D01*
X55792127Y31247460D01*
X55792123Y31247465D01*
X55641864Y31397724D01*
X55641859Y31397728D01*
X55469957Y31522621D01*
X55280615Y31619097D01*
X55078524Y31684759D01*
X55012400Y31695232D01*
X55012400Y30647146D01*
X54945743Y30685630D01*
X54824935Y30718000D01*
X54699865Y30718000D01*
X54579057Y30685630D01*
X54512400Y30647146D01*
X54512400Y31695232D01*
X54512399Y31695232D01*
X54446275Y31684759D01*
X54244184Y31619097D01*
X54054842Y31522621D01*
X53882940Y31397728D01*
X53882935Y31397724D01*
X53732676Y31247465D01*
X53617971Y31089587D01*
X53562641Y31046922D01*
X53493027Y31040943D01*
X53431232Y31073549D01*
X53417335Y31089588D01*
X53298608Y31253001D01*
X53298603Y31253007D01*
X53147406Y31404204D01*
X53147404Y31404206D01*
X52974409Y31529894D01*
X52901526Y31567030D01*
X52783883Y31626973D01*
X52783880Y31626974D01*
X52580517Y31693049D01*
X52436323Y31715887D01*
X52369316Y31726500D01*
X52155484Y31726500D01*
X52088477Y31715887D01*
X51944282Y31693049D01*
X51740919Y31626974D01*
X51740916Y31626973D01*
X51550390Y31529894D01*
X51377397Y31404207D01*
X51245296Y31272106D01*
X51183973Y31238622D01*
X51114281Y31243606D01*
X51058348Y31285478D01*
X51052084Y31294680D01*
X50961430Y31441652D01*
X50836052Y31567030D01*
X50685138Y31660115D01*
X50585748Y31693049D01*
X50516827Y31715887D01*
X50412945Y31726500D01*
X49111862Y31726500D01*
X49111846Y31726499D01*
X49007972Y31715887D01*
X48839664Y31660116D01*
X48839659Y31660114D01*
X48688746Y31567029D01*
X48563371Y31441654D01*
X48470286Y31290741D01*
X48470284Y31290736D01*
X48414513Y31122428D01*
X48403900Y31018553D01*
X24334164Y31018553D01*
X24466959Y31073558D01*
X24466960Y31073559D01*
X24466963Y31073560D01*
X24669416Y31197624D01*
X24849969Y31351831D01*
X25004176Y31532384D01*
X25128240Y31734837D01*
X25140081Y31763422D01*
X25219104Y31954203D01*
X25219104Y31954204D01*
X25219105Y31954206D01*
X25274535Y32185089D01*
X25293165Y32421800D01*
X25274535Y32658511D01*
X25219105Y32889394D01*
X25219104Y32889397D01*
X25219104Y32889398D01*
X25128242Y33108760D01*
X25128240Y33108763D01*
X25004179Y33311211D01*
X25004178Y33311214D01*
X24969340Y33352003D01*
X24849969Y33491769D01*
X24728330Y33595659D01*
X24669413Y33645979D01*
X24669410Y33645980D01*
X24466962Y33770041D01*
X24466959Y33770043D01*
X24247596Y33860905D01*
X24016714Y33916335D01*
X23780000Y33934965D01*
X23543285Y33916335D01*
X23312404Y33860905D01*
X23312402Y33860905D01*
X23093040Y33770043D01*
X23093037Y33770041D01*
X22890589Y33645980D01*
X22890586Y33645979D01*
X22710031Y33491769D01*
X22555821Y33311214D01*
X22555820Y33311211D01*
X22431759Y33108763D01*
X22431757Y33108760D01*
X22340895Y32889398D01*
X22340895Y32889396D01*
X22285465Y32658515D01*
X22266835Y32421800D01*
X20813883Y32421800D01*
X20812308Y34111781D01*
X72276800Y34111781D01*
X72276800Y33105820D01*
X72309019Y32902392D01*
X72372667Y32706506D01*
X72425785Y32602259D01*
X72464398Y32526476D01*
X72466173Y32522994D01*
X72587226Y32356377D01*
X72587230Y32356372D01*
X72732871Y32210731D01*
X72732876Y32210727D01*
X72870531Y32110716D01*
X72899497Y32089671D01*
X72995315Y32040849D01*
X73083005Y31996168D01*
X73083007Y31996168D01*
X73083010Y31996166D01*
X73168465Y31968400D01*
X73278891Y31932520D01*
X73380605Y31916410D01*
X73482319Y31900300D01*
X73482320Y31900300D01*
X73688280Y31900300D01*
X73688281Y31900300D01*
X73891708Y31932520D01*
X74087590Y31996166D01*
X74271103Y32089671D01*
X74437730Y32210732D01*
X74583368Y32356370D01*
X74704429Y32522997D01*
X74744815Y32602260D01*
X74792790Y32653055D01*
X74860611Y32669850D01*
X74926746Y32647313D01*
X74965784Y32602260D01*
X75004398Y32526476D01*
X75006173Y32522994D01*
X75127226Y32356377D01*
X75127230Y32356372D01*
X75272871Y32210731D01*
X75272876Y32210727D01*
X75410531Y32110716D01*
X75439497Y32089671D01*
X75535315Y32040849D01*
X75623005Y31996168D01*
X75623007Y31996168D01*
X75623010Y31996166D01*
X75708465Y31968400D01*
X75818891Y31932520D01*
X75920605Y31916410D01*
X76022319Y31900300D01*
X76022320Y31900300D01*
X76228280Y31900300D01*
X76228281Y31900300D01*
X76431708Y31932520D01*
X76627590Y31996166D01*
X76811103Y32089671D01*
X76977730Y32210732D01*
X77123368Y32356370D01*
X77244429Y32522997D01*
X77284815Y32602260D01*
X77332790Y32653055D01*
X77400611Y32669850D01*
X77466746Y32647313D01*
X77505784Y32602260D01*
X77544398Y32526476D01*
X77546173Y32522994D01*
X77667226Y32356377D01*
X77667230Y32356372D01*
X77812871Y32210731D01*
X77812876Y32210727D01*
X77950531Y32110716D01*
X77979497Y32089671D01*
X78075315Y32040849D01*
X78163005Y31996168D01*
X78163007Y31996168D01*
X78163010Y31996166D01*
X78248465Y31968400D01*
X78358891Y31932520D01*
X78460605Y31916410D01*
X78562319Y31900300D01*
X78562320Y31900300D01*
X78768280Y31900300D01*
X78768281Y31900300D01*
X78971708Y31932520D01*
X79167590Y31996166D01*
X79351103Y32089671D01*
X79517730Y32210732D01*
X79663368Y32356370D01*
X79784429Y32522997D01*
X79824815Y32602260D01*
X79872790Y32653055D01*
X79940611Y32669850D01*
X80006746Y32647313D01*
X80045784Y32602260D01*
X80084398Y32526476D01*
X80086173Y32522994D01*
X80207226Y32356377D01*
X80207230Y32356372D01*
X80352871Y32210731D01*
X80352876Y32210727D01*
X80490531Y32110716D01*
X80519497Y32089671D01*
X80615315Y32040849D01*
X80703005Y31996168D01*
X80703007Y31996168D01*
X80703010Y31996166D01*
X80788465Y31968400D01*
X80898891Y31932520D01*
X81000605Y31916410D01*
X81102319Y31900300D01*
X81102320Y31900300D01*
X81308280Y31900300D01*
X81308281Y31900300D01*
X81511708Y31932520D01*
X81707590Y31996166D01*
X81891103Y32089671D01*
X82057730Y32210732D01*
X82203368Y32356370D01*
X82324429Y32522997D01*
X82417934Y32706510D01*
X82481580Y32902392D01*
X82513800Y33105819D01*
X82513800Y34111781D01*
X83452800Y34111781D01*
X83452800Y33105820D01*
X83485019Y32902392D01*
X83548667Y32706506D01*
X83601785Y32602259D01*
X83640398Y32526476D01*
X83642173Y32522994D01*
X83763226Y32356377D01*
X83763230Y32356372D01*
X83908871Y32210731D01*
X83908876Y32210727D01*
X84046531Y32110716D01*
X84075497Y32089671D01*
X84171315Y32040849D01*
X84259005Y31996168D01*
X84259007Y31996168D01*
X84259010Y31996166D01*
X84344465Y31968400D01*
X84454891Y31932520D01*
X84556605Y31916410D01*
X84658319Y31900300D01*
X84658320Y31900300D01*
X84864280Y31900300D01*
X84864281Y31900300D01*
X85067708Y31932520D01*
X85263590Y31996166D01*
X85447103Y32089671D01*
X85613730Y32210732D01*
X85759368Y32356370D01*
X85880429Y32522997D01*
X85920815Y32602260D01*
X85968790Y32653055D01*
X86036611Y32669850D01*
X86102746Y32647313D01*
X86141784Y32602260D01*
X86180398Y32526476D01*
X86182173Y32522994D01*
X86303226Y32356377D01*
X86303230Y32356372D01*
X86448871Y32210731D01*
X86448876Y32210727D01*
X86586531Y32110716D01*
X86615497Y32089671D01*
X86711315Y32040849D01*
X86799005Y31996168D01*
X86799007Y31996168D01*
X86799010Y31996166D01*
X86884465Y31968400D01*
X86994891Y31932520D01*
X87096605Y31916410D01*
X87198319Y31900300D01*
X87198320Y31900300D01*
X87404280Y31900300D01*
X87404281Y31900300D01*
X87607708Y31932520D01*
X87803590Y31996166D01*
X87987103Y32089671D01*
X88153730Y32210732D01*
X88299368Y32356370D01*
X88420429Y32522997D01*
X88460815Y32602260D01*
X88508790Y32653055D01*
X88576611Y32669850D01*
X88642746Y32647313D01*
X88681784Y32602260D01*
X88720398Y32526476D01*
X88722173Y32522994D01*
X88843226Y32356377D01*
X88843230Y32356372D01*
X88988871Y32210731D01*
X88988876Y32210727D01*
X89126531Y32110716D01*
X89155497Y32089671D01*
X89251315Y32040849D01*
X89339005Y31996168D01*
X89339007Y31996168D01*
X89339010Y31996166D01*
X89424465Y31968400D01*
X89534891Y31932520D01*
X89636605Y31916410D01*
X89738319Y31900300D01*
X89738320Y31900300D01*
X89944280Y31900300D01*
X89944281Y31900300D01*
X90147708Y31932520D01*
X90343590Y31996166D01*
X90527103Y32089671D01*
X90693730Y32210732D01*
X90839368Y32356370D01*
X90960429Y32522997D01*
X91000815Y32602260D01*
X91048790Y32653055D01*
X91116611Y32669850D01*
X91182746Y32647313D01*
X91221784Y32602260D01*
X91260398Y32526476D01*
X91262173Y32522994D01*
X91383226Y32356377D01*
X91383230Y32356372D01*
X91528871Y32210731D01*
X91528876Y32210727D01*
X91666531Y32110716D01*
X91695497Y32089671D01*
X91791315Y32040849D01*
X91879005Y31996168D01*
X91879007Y31996168D01*
X91879010Y31996166D01*
X91964465Y31968400D01*
X92074891Y31932520D01*
X92176605Y31916410D01*
X92278319Y31900300D01*
X92278320Y31900300D01*
X92484280Y31900300D01*
X92484281Y31900300D01*
X92687708Y31932520D01*
X92883590Y31996166D01*
X93067103Y32089671D01*
X93233730Y32210732D01*
X93379368Y32356370D01*
X93500429Y32522997D01*
X93593934Y32706510D01*
X93657580Y32902392D01*
X93689800Y33105819D01*
X93689800Y34111781D01*
X93689249Y34115263D01*
X94900678Y34115263D01*
X94900678Y33109302D01*
X94932897Y32905874D01*
X94996545Y32709988D01*
X95090051Y32526476D01*
X95211104Y32359859D01*
X95211108Y32359854D01*
X95356749Y32214213D01*
X95356754Y32214209D01*
X95396835Y32185089D01*
X95523375Y32093153D01*
X95589358Y32059533D01*
X95706883Y31999650D01*
X95706885Y31999650D01*
X95706888Y31999648D01*
X95803059Y31968400D01*
X95902769Y31936002D01*
X95971892Y31925054D01*
X96106197Y31903782D01*
X96106198Y31903782D01*
X96312158Y31903782D01*
X96312159Y31903782D01*
X96515586Y31936002D01*
X96711468Y31999648D01*
X96894981Y32093153D01*
X97061608Y32214214D01*
X97207246Y32359852D01*
X97328307Y32526479D01*
X97368693Y32605742D01*
X97416668Y32656537D01*
X97484489Y32673332D01*
X97550624Y32650795D01*
X97589663Y32605741D01*
X97630051Y32526476D01*
X97751104Y32359859D01*
X97751108Y32359854D01*
X97896749Y32214213D01*
X97896754Y32214209D01*
X97936835Y32185089D01*
X98063375Y32093153D01*
X98129358Y32059533D01*
X98246883Y31999650D01*
X98246885Y31999650D01*
X98246888Y31999648D01*
X98343059Y31968400D01*
X98442769Y31936002D01*
X98511892Y31925054D01*
X98646197Y31903782D01*
X98646198Y31903782D01*
X98852158Y31903782D01*
X98852159Y31903782D01*
X99055586Y31936002D01*
X99251468Y31999648D01*
X99434981Y32093153D01*
X99601608Y32214214D01*
X99747246Y32359852D01*
X99868307Y32526479D01*
X99908693Y32605742D01*
X99956668Y32656537D01*
X100024489Y32673332D01*
X100090624Y32650795D01*
X100129663Y32605741D01*
X100170051Y32526476D01*
X100291104Y32359859D01*
X100291108Y32359854D01*
X100436749Y32214213D01*
X100436754Y32214209D01*
X100476835Y32185089D01*
X100603375Y32093153D01*
X100669358Y32059533D01*
X100786883Y31999650D01*
X100786885Y31999650D01*
X100786888Y31999648D01*
X100883059Y31968400D01*
X100982769Y31936002D01*
X101051892Y31925054D01*
X101186197Y31903782D01*
X101186198Y31903782D01*
X101392158Y31903782D01*
X101392159Y31903782D01*
X101595586Y31936002D01*
X101791468Y31999648D01*
X101974981Y32093153D01*
X102141608Y32214214D01*
X102287246Y32359852D01*
X102408307Y32526479D01*
X102448693Y32605742D01*
X102496668Y32656537D01*
X102564489Y32673332D01*
X102630624Y32650795D01*
X102669663Y32605741D01*
X102710051Y32526476D01*
X102831104Y32359859D01*
X102831108Y32359854D01*
X102976749Y32214213D01*
X102976754Y32214209D01*
X103016835Y32185089D01*
X103143375Y32093153D01*
X103209358Y32059533D01*
X103326883Y31999650D01*
X103326885Y31999650D01*
X103326888Y31999648D01*
X103423059Y31968400D01*
X103522769Y31936002D01*
X103591892Y31925054D01*
X103726197Y31903782D01*
X103726198Y31903782D01*
X103932158Y31903782D01*
X103932159Y31903782D01*
X104065484Y31924899D01*
X104134777Y31915945D01*
X104188229Y31870948D01*
X104208869Y31804197D01*
X104202588Y31763422D01*
X104171994Y31671098D01*
X104171993Y31671091D01*
X104161500Y31568387D01*
X104161500Y31118400D01*
X105074000Y31118400D01*
X105574000Y31118400D01*
X106486499Y31118400D01*
X106486499Y31568372D01*
X106486498Y31568387D01*
X106476005Y31671098D01*
X106420858Y31837520D01*
X106420856Y31837525D01*
X106328815Y31986746D01*
X106204845Y32110716D01*
X106055624Y32202757D01*
X106055619Y32202759D01*
X105889197Y32257906D01*
X105889190Y32257907D01*
X105786486Y32268400D01*
X105574000Y32268400D01*
X105574000Y31118400D01*
X105074000Y31118400D01*
X105074000Y32268400D01*
X105004165Y32268400D01*
X104937126Y32288085D01*
X104891371Y32340889D01*
X104881427Y32410047D01*
X104903845Y32465284D01*
X104948307Y32526479D01*
X105041812Y32709992D01*
X105105458Y32905874D01*
X105137678Y33109301D01*
X105137678Y34115263D01*
X105125047Y34195011D01*
X105105458Y34318691D01*
X105042943Y34511090D01*
X105041812Y34514572D01*
X105041810Y34514575D01*
X105041810Y34514577D01*
X104987641Y34620888D01*
X104948307Y34698085D01*
X104863791Y34814412D01*
X104827251Y34864706D01*
X104827247Y34864711D01*
X104681606Y35010352D01*
X104681601Y35010356D01*
X104514984Y35131409D01*
X104514983Y35131410D01*
X104514981Y35131411D01*
X104419069Y35180281D01*
X104331472Y35224915D01*
X104135586Y35288563D01*
X103954143Y35317300D01*
X103932159Y35320782D01*
X103726197Y35320782D01*
X103704213Y35317300D01*
X103522769Y35288563D01*
X103326883Y35224915D01*
X103143371Y35131409D01*
X102976754Y35010356D01*
X102976749Y35010352D01*
X102831108Y34864711D01*
X102831104Y34864706D01*
X102710049Y34698087D01*
X102669662Y34618823D01*
X102621688Y34568028D01*
X102553867Y34551233D01*
X102487732Y34573771D01*
X102448694Y34618823D01*
X102408306Y34698087D01*
X102287251Y34864706D01*
X102287247Y34864711D01*
X102141606Y35010352D01*
X102141601Y35010356D01*
X101974984Y35131409D01*
X101974983Y35131410D01*
X101974981Y35131411D01*
X101879069Y35180281D01*
X101791472Y35224915D01*
X101595586Y35288563D01*
X101414143Y35317300D01*
X101392159Y35320782D01*
X101186197Y35320782D01*
X101164213Y35317300D01*
X100982769Y35288563D01*
X100786883Y35224915D01*
X100603371Y35131409D01*
X100436754Y35010356D01*
X100436749Y35010352D01*
X100291108Y34864711D01*
X100291104Y34864706D01*
X100170049Y34698087D01*
X100129662Y34618823D01*
X100081688Y34568028D01*
X100013867Y34551233D01*
X99947732Y34573771D01*
X99908694Y34618823D01*
X99868306Y34698087D01*
X99747251Y34864706D01*
X99747247Y34864711D01*
X99601606Y35010352D01*
X99601601Y35010356D01*
X99434984Y35131409D01*
X99434983Y35131410D01*
X99434981Y35131411D01*
X99339069Y35180281D01*
X99251472Y35224915D01*
X99055586Y35288563D01*
X98874143Y35317300D01*
X98852159Y35320782D01*
X98646197Y35320782D01*
X98624213Y35317300D01*
X98442769Y35288563D01*
X98246883Y35224915D01*
X98063371Y35131409D01*
X97896754Y35010356D01*
X97896749Y35010352D01*
X97751108Y34864711D01*
X97751104Y34864706D01*
X97630049Y34698087D01*
X97589662Y34618823D01*
X97541688Y34568028D01*
X97473867Y34551233D01*
X97407732Y34573771D01*
X97368694Y34618823D01*
X97328306Y34698087D01*
X97207251Y34864706D01*
X97207247Y34864711D01*
X97061606Y35010352D01*
X97061601Y35010356D01*
X96894984Y35131409D01*
X96894983Y35131410D01*
X96894981Y35131411D01*
X96799069Y35180281D01*
X96711472Y35224915D01*
X96515586Y35288563D01*
X96334143Y35317300D01*
X96312159Y35320782D01*
X96106197Y35320782D01*
X96084213Y35317300D01*
X95902769Y35288563D01*
X95706883Y35224915D01*
X95523371Y35131409D01*
X95356754Y35010356D01*
X95356749Y35010352D01*
X95211108Y34864711D01*
X95211104Y34864706D01*
X95090051Y34698089D01*
X94996545Y34514577D01*
X94932897Y34318691D01*
X94900678Y34115263D01*
X93689249Y34115263D01*
X93657580Y34315209D01*
X93593932Y34511095D01*
X93537991Y34620884D01*
X93500429Y34694603D01*
X93462090Y34747373D01*
X93379373Y34861224D01*
X93379369Y34861229D01*
X93233728Y35006870D01*
X93233723Y35006874D01*
X93067106Y35127927D01*
X93067105Y35127928D01*
X93067103Y35127929D01*
X92991578Y35166411D01*
X92883594Y35221433D01*
X92687708Y35285081D01*
X92512094Y35312895D01*
X92484281Y35317300D01*
X92278319Y35317300D01*
X92253850Y35313425D01*
X92074891Y35285081D01*
X91879005Y35221433D01*
X91695493Y35127927D01*
X91528876Y35006874D01*
X91528871Y35006870D01*
X91383230Y34861229D01*
X91383226Y34861224D01*
X91262171Y34694605D01*
X91221784Y34615341D01*
X91173810Y34564546D01*
X91105989Y34547751D01*
X91039854Y34570289D01*
X91000816Y34615341D01*
X90960428Y34694605D01*
X90839373Y34861224D01*
X90839369Y34861229D01*
X90693728Y35006870D01*
X90693723Y35006874D01*
X90527106Y35127927D01*
X90527105Y35127928D01*
X90527103Y35127929D01*
X90451578Y35166411D01*
X90343594Y35221433D01*
X90147708Y35285081D01*
X89972094Y35312895D01*
X89944281Y35317300D01*
X89738319Y35317300D01*
X89713850Y35313425D01*
X89534891Y35285081D01*
X89339005Y35221433D01*
X89155493Y35127927D01*
X88988876Y35006874D01*
X88988871Y35006870D01*
X88843230Y34861229D01*
X88843226Y34861224D01*
X88722171Y34694605D01*
X88681784Y34615341D01*
X88633810Y34564546D01*
X88565989Y34547751D01*
X88499854Y34570289D01*
X88460816Y34615341D01*
X88420428Y34694605D01*
X88299373Y34861224D01*
X88299369Y34861229D01*
X88153728Y35006870D01*
X88153723Y35006874D01*
X87987106Y35127927D01*
X87987105Y35127928D01*
X87987103Y35127929D01*
X87911578Y35166411D01*
X87803594Y35221433D01*
X87607708Y35285081D01*
X87432094Y35312895D01*
X87404281Y35317300D01*
X87198319Y35317300D01*
X87173850Y35313425D01*
X86994891Y35285081D01*
X86799005Y35221433D01*
X86615493Y35127927D01*
X86448876Y35006874D01*
X86448871Y35006870D01*
X86303230Y34861229D01*
X86303226Y34861224D01*
X86182171Y34694605D01*
X86141784Y34615341D01*
X86093810Y34564546D01*
X86025989Y34547751D01*
X85959854Y34570289D01*
X85920816Y34615341D01*
X85880428Y34694605D01*
X85759373Y34861224D01*
X85759369Y34861229D01*
X85613728Y35006870D01*
X85613723Y35006874D01*
X85447106Y35127927D01*
X85447105Y35127928D01*
X85447103Y35127929D01*
X85371578Y35166411D01*
X85263594Y35221433D01*
X85067708Y35285081D01*
X84892094Y35312895D01*
X84864281Y35317300D01*
X84658319Y35317300D01*
X84633850Y35313425D01*
X84454891Y35285081D01*
X84259005Y35221433D01*
X84075493Y35127927D01*
X83908876Y35006874D01*
X83908871Y35006870D01*
X83763230Y34861229D01*
X83763226Y34861224D01*
X83642173Y34694607D01*
X83548667Y34511095D01*
X83485019Y34315209D01*
X83452800Y34111781D01*
X82513800Y34111781D01*
X82481580Y34315209D01*
X82417932Y34511095D01*
X82361991Y34620884D01*
X82324429Y34694603D01*
X82286090Y34747373D01*
X82203373Y34861224D01*
X82203369Y34861229D01*
X82057728Y35006870D01*
X82057723Y35006874D01*
X81891106Y35127927D01*
X81891105Y35127928D01*
X81891103Y35127929D01*
X81815578Y35166411D01*
X81707594Y35221433D01*
X81511708Y35285081D01*
X81336094Y35312895D01*
X81308281Y35317300D01*
X81102319Y35317300D01*
X81077850Y35313425D01*
X80898891Y35285081D01*
X80703005Y35221433D01*
X80519493Y35127927D01*
X80352876Y35006874D01*
X80352871Y35006870D01*
X80207230Y34861229D01*
X80207226Y34861224D01*
X80086171Y34694605D01*
X80045784Y34615341D01*
X79997810Y34564546D01*
X79929989Y34547751D01*
X79863854Y34570289D01*
X79824816Y34615341D01*
X79784428Y34694605D01*
X79663373Y34861224D01*
X79663369Y34861229D01*
X79517728Y35006870D01*
X79517723Y35006874D01*
X79351106Y35127927D01*
X79351105Y35127928D01*
X79351103Y35127929D01*
X79275578Y35166411D01*
X79167594Y35221433D01*
X78971708Y35285081D01*
X78796094Y35312895D01*
X78768281Y35317300D01*
X78562319Y35317300D01*
X78537850Y35313425D01*
X78358891Y35285081D01*
X78163005Y35221433D01*
X77979493Y35127927D01*
X77812876Y35006874D01*
X77812871Y35006870D01*
X77667230Y34861229D01*
X77667226Y34861224D01*
X77546171Y34694605D01*
X77505784Y34615341D01*
X77457810Y34564546D01*
X77389989Y34547751D01*
X77323854Y34570289D01*
X77284816Y34615341D01*
X77244428Y34694605D01*
X77123373Y34861224D01*
X77123369Y34861229D01*
X76977728Y35006870D01*
X76977723Y35006874D01*
X76811106Y35127927D01*
X76811105Y35127928D01*
X76811103Y35127929D01*
X76735578Y35166411D01*
X76627594Y35221433D01*
X76431708Y35285081D01*
X76256094Y35312895D01*
X76228281Y35317300D01*
X76022319Y35317300D01*
X75997850Y35313425D01*
X75818891Y35285081D01*
X75623005Y35221433D01*
X75439493Y35127927D01*
X75272876Y35006874D01*
X75272871Y35006870D01*
X75127230Y34861229D01*
X75127226Y34861224D01*
X75006171Y34694605D01*
X74965784Y34615341D01*
X74917810Y34564546D01*
X74849989Y34547751D01*
X74783854Y34570289D01*
X74744816Y34615341D01*
X74704428Y34694605D01*
X74583373Y34861224D01*
X74583369Y34861229D01*
X74437728Y35006870D01*
X74437723Y35006874D01*
X74271106Y35127927D01*
X74271105Y35127928D01*
X74271103Y35127929D01*
X74195578Y35166411D01*
X74087594Y35221433D01*
X73891708Y35285081D01*
X73716094Y35312895D01*
X73688281Y35317300D01*
X73482319Y35317300D01*
X73457850Y35313425D01*
X73278891Y35285081D01*
X73083005Y35221433D01*
X72899493Y35127927D01*
X72732876Y35006874D01*
X72732871Y35006870D01*
X72587230Y34861229D01*
X72587226Y34861224D01*
X72466173Y34694607D01*
X72372667Y34511095D01*
X72309019Y34315209D01*
X72276800Y34111781D01*
X20812308Y34111781D01*
X20806852Y39964500D01*
X30305135Y39964500D01*
X30323765Y39727786D01*
X30379195Y39496905D01*
X30379195Y39496903D01*
X30470057Y39277541D01*
X30470059Y39277538D01*
X30594120Y39075090D01*
X30594126Y39075081D01*
X30604223Y39063259D01*
X30632794Y38999498D01*
X30622357Y38930412D01*
X30578948Y38881035D01*
X30579196Y38880704D01*
X30577623Y38879528D01*
X30576226Y38877937D01*
X30572826Y38875936D01*
X30455039Y38787761D01*
X30367411Y38670705D01*
X30316311Y38533705D01*
X30316311Y38533703D01*
X30309800Y38473155D01*
X30309800Y36375846D01*
X30316311Y36315298D01*
X30316311Y36315296D01*
X30353098Y36216670D01*
X30367411Y36178296D01*
X30455039Y36061239D01*
X30572096Y35973611D01*
X30709099Y35922511D01*
X30736350Y35919582D01*
X30769645Y35916001D01*
X30769662Y35916000D01*
X32866938Y35916000D01*
X32866954Y35916001D01*
X32893992Y35918909D01*
X32927501Y35922511D01*
X33064504Y35973611D01*
X33181561Y36061239D01*
X33269189Y36178296D01*
X33320289Y36315299D01*
X33323891Y36348808D01*
X33326799Y36375846D01*
X33326800Y36375863D01*
X33326800Y38473138D01*
X33326799Y38473155D01*
X33323457Y38504230D01*
X33320289Y38533701D01*
X33269189Y38670704D01*
X33181561Y38787761D01*
X33064504Y38875389D01*
X33064503Y38875390D01*
X33057404Y38880704D01*
X33058699Y38882436D01*
X33017833Y38923302D01*
X33002982Y38991575D01*
X33027399Y39057039D01*
X33032376Y39063259D01*
X33042476Y39075084D01*
X33166540Y39277537D01*
X33194716Y39345559D01*
X33257404Y39496903D01*
X33257404Y39496904D01*
X33257405Y39496906D01*
X33312835Y39727789D01*
X33331465Y39964500D01*
X35131135Y39964500D01*
X35149765Y39727786D01*
X35205195Y39496905D01*
X35205195Y39496903D01*
X35296057Y39277541D01*
X35296059Y39277538D01*
X35420120Y39075090D01*
X35420126Y39075081D01*
X35430223Y39063259D01*
X35458794Y38999498D01*
X35448357Y38930412D01*
X35404948Y38881035D01*
X35405196Y38880704D01*
X35403623Y38879528D01*
X35402226Y38877937D01*
X35398826Y38875936D01*
X35281039Y38787761D01*
X35193411Y38670705D01*
X35142311Y38533705D01*
X35142311Y38533703D01*
X35135800Y38473155D01*
X35135800Y36375846D01*
X35142311Y36315298D01*
X35142311Y36315296D01*
X35179098Y36216670D01*
X35193411Y36178296D01*
X35281039Y36061239D01*
X35398096Y35973611D01*
X35535099Y35922511D01*
X35562350Y35919582D01*
X35595645Y35916001D01*
X35595662Y35916000D01*
X37692938Y35916000D01*
X37692954Y35916001D01*
X37719992Y35918909D01*
X37753501Y35922511D01*
X37890504Y35973611D01*
X38007561Y36061239D01*
X38095189Y36178296D01*
X38146289Y36315299D01*
X38149891Y36348808D01*
X38152799Y36375846D01*
X38152800Y36375863D01*
X38152800Y38473138D01*
X38152799Y38473155D01*
X38149457Y38504230D01*
X38146289Y38533701D01*
X38095189Y38670704D01*
X38007561Y38787761D01*
X37890504Y38875389D01*
X37890503Y38875390D01*
X37883404Y38880704D01*
X37884699Y38882436D01*
X37843833Y38923302D01*
X37828982Y38991575D01*
X37853399Y39057039D01*
X37858376Y39063259D01*
X37868476Y39075084D01*
X37992540Y39277537D01*
X38020716Y39345559D01*
X38083404Y39496903D01*
X38083404Y39496904D01*
X38083405Y39496906D01*
X38138835Y39727789D01*
X38157465Y39964500D01*
X39957135Y39964500D01*
X39975765Y39727786D01*
X40031195Y39496905D01*
X40031195Y39496903D01*
X40122057Y39277541D01*
X40122059Y39277538D01*
X40246120Y39075090D01*
X40246126Y39075081D01*
X40256223Y39063259D01*
X40284794Y38999498D01*
X40274357Y38930412D01*
X40230948Y38881035D01*
X40231196Y38880704D01*
X40229623Y38879528D01*
X40228226Y38877937D01*
X40224826Y38875936D01*
X40107039Y38787761D01*
X40019411Y38670705D01*
X39968311Y38533705D01*
X39968311Y38533703D01*
X39961800Y38473155D01*
X39961800Y36375846D01*
X39968311Y36315298D01*
X39968311Y36315296D01*
X40005098Y36216670D01*
X40019411Y36178296D01*
X40107039Y36061239D01*
X40224096Y35973611D01*
X40361099Y35922511D01*
X40388350Y35919582D01*
X40421645Y35916001D01*
X40421662Y35916000D01*
X42518938Y35916000D01*
X42518954Y35916001D01*
X42545992Y35918909D01*
X42579501Y35922511D01*
X42716504Y35973611D01*
X42833561Y36061239D01*
X42921189Y36178296D01*
X42972289Y36315299D01*
X42975891Y36348808D01*
X42978799Y36375846D01*
X42978800Y36375863D01*
X42978800Y38473138D01*
X42978799Y38473155D01*
X42975457Y38504230D01*
X42972289Y38533701D01*
X42921189Y38670704D01*
X42833561Y38787761D01*
X42716504Y38875389D01*
X42716503Y38875390D01*
X42709404Y38880704D01*
X42710699Y38882436D01*
X42669833Y38923302D01*
X42654982Y38991575D01*
X42679399Y39057039D01*
X42684376Y39063259D01*
X42694476Y39075084D01*
X42818540Y39277537D01*
X42846716Y39345559D01*
X42909404Y39496903D01*
X42909404Y39496904D01*
X42909405Y39496906D01*
X42964835Y39727789D01*
X42983465Y39964500D01*
X44910135Y39964500D01*
X44928765Y39727786D01*
X44984195Y39496905D01*
X44984195Y39496903D01*
X45075057Y39277541D01*
X45075059Y39277538D01*
X45199120Y39075090D01*
X45199126Y39075081D01*
X45209223Y39063259D01*
X45237794Y38999498D01*
X45227357Y38930412D01*
X45183948Y38881035D01*
X45184196Y38880704D01*
X45182623Y38879528D01*
X45181226Y38877937D01*
X45177826Y38875936D01*
X45060039Y38787761D01*
X44972411Y38670705D01*
X44921311Y38533705D01*
X44921311Y38533703D01*
X44914800Y38473155D01*
X44914800Y36375846D01*
X44921311Y36315298D01*
X44921311Y36315296D01*
X44958098Y36216670D01*
X44972411Y36178296D01*
X45060039Y36061239D01*
X45177096Y35973611D01*
X45314099Y35922511D01*
X45341350Y35919582D01*
X45374645Y35916001D01*
X45374662Y35916000D01*
X47471938Y35916000D01*
X47471954Y35916001D01*
X47498992Y35918909D01*
X47532501Y35922511D01*
X47669504Y35973611D01*
X47786561Y36061239D01*
X47874189Y36178296D01*
X47925289Y36315299D01*
X47928891Y36348808D01*
X47931799Y36375846D01*
X47931800Y36375863D01*
X47931800Y38473138D01*
X47931799Y38473155D01*
X47928457Y38504230D01*
X47925289Y38533701D01*
X47874189Y38670704D01*
X47786561Y38787761D01*
X47669504Y38875389D01*
X47669503Y38875390D01*
X47662404Y38880704D01*
X47663699Y38882436D01*
X47622833Y38923302D01*
X47607982Y38991575D01*
X47632399Y39057039D01*
X47637376Y39063259D01*
X47647476Y39075084D01*
X47771540Y39277537D01*
X47799716Y39345559D01*
X47862404Y39496903D01*
X47862404Y39496904D01*
X47862405Y39496906D01*
X47917835Y39727789D01*
X47936465Y39964500D01*
X51397835Y39964500D01*
X51416465Y39727786D01*
X51471895Y39496905D01*
X51471895Y39496903D01*
X51562757Y39277541D01*
X51562759Y39277538D01*
X51686820Y39075090D01*
X51686826Y39075081D01*
X51696923Y39063259D01*
X51725494Y38999498D01*
X51715057Y38930412D01*
X51671648Y38881035D01*
X51671896Y38880704D01*
X51670323Y38879528D01*
X51668926Y38877937D01*
X51665526Y38875936D01*
X51547739Y38787761D01*
X51460111Y38670705D01*
X51409011Y38533705D01*
X51409011Y38533703D01*
X51402500Y38473155D01*
X51402500Y36375846D01*
X51409011Y36315298D01*
X51409011Y36315296D01*
X51445798Y36216670D01*
X51460111Y36178296D01*
X51547739Y36061239D01*
X51664796Y35973611D01*
X51801799Y35922511D01*
X51829050Y35919582D01*
X51862345Y35916001D01*
X51862362Y35916000D01*
X53959638Y35916000D01*
X53959654Y35916001D01*
X53986692Y35918909D01*
X54020201Y35922511D01*
X54157204Y35973611D01*
X54274261Y36061239D01*
X54361889Y36178296D01*
X54412989Y36315299D01*
X54416591Y36348808D01*
X54419499Y36375846D01*
X54419500Y36375863D01*
X54419500Y38473138D01*
X54419499Y38473155D01*
X54416157Y38504230D01*
X54412989Y38533701D01*
X54361889Y38670704D01*
X54274261Y38787761D01*
X54157204Y38875389D01*
X54157203Y38875390D01*
X54150104Y38880704D01*
X54151399Y38882436D01*
X54110533Y38923302D01*
X54095682Y38991575D01*
X54120099Y39057039D01*
X54125076Y39063259D01*
X54135176Y39075084D01*
X54259240Y39277537D01*
X54287416Y39345559D01*
X54350104Y39496903D01*
X54350104Y39496904D01*
X54350105Y39496906D01*
X54405535Y39727789D01*
X54424165Y39964500D01*
X56477835Y39964500D01*
X56496465Y39727786D01*
X56551895Y39496905D01*
X56551895Y39496903D01*
X56642757Y39277541D01*
X56642759Y39277538D01*
X56766820Y39075090D01*
X56766826Y39075081D01*
X56776923Y39063259D01*
X56805494Y38999498D01*
X56795057Y38930412D01*
X56751648Y38881035D01*
X56751896Y38880704D01*
X56750323Y38879528D01*
X56748926Y38877937D01*
X56745526Y38875936D01*
X56627739Y38787761D01*
X56540111Y38670705D01*
X56489011Y38533705D01*
X56489011Y38533703D01*
X56482500Y38473155D01*
X56482500Y36375846D01*
X56489011Y36315298D01*
X56489011Y36315296D01*
X56525798Y36216670D01*
X56540111Y36178296D01*
X56627739Y36061239D01*
X56744796Y35973611D01*
X56881799Y35922511D01*
X56909050Y35919582D01*
X56942345Y35916001D01*
X56942362Y35916000D01*
X59039638Y35916000D01*
X59039654Y35916001D01*
X59066692Y35918909D01*
X59100201Y35922511D01*
X59237204Y35973611D01*
X59354261Y36061239D01*
X59441889Y36178296D01*
X59492989Y36315299D01*
X59496591Y36348808D01*
X59499499Y36375846D01*
X59499500Y36375863D01*
X59499500Y38473138D01*
X59499499Y38473155D01*
X59496157Y38504230D01*
X59492989Y38533701D01*
X59441889Y38670704D01*
X59354261Y38787761D01*
X59237204Y38875389D01*
X59237203Y38875390D01*
X59230104Y38880704D01*
X59231399Y38882436D01*
X59190533Y38923302D01*
X59175682Y38991575D01*
X59200099Y39057039D01*
X59205076Y39063259D01*
X59215176Y39075084D01*
X59339240Y39277537D01*
X59367416Y39345559D01*
X59430104Y39496903D01*
X59430104Y39496904D01*
X59430105Y39496906D01*
X59485535Y39727789D01*
X59504165Y39964500D01*
X61557835Y39964500D01*
X61576465Y39727786D01*
X61631895Y39496905D01*
X61631895Y39496903D01*
X61722757Y39277541D01*
X61722759Y39277538D01*
X61846820Y39075090D01*
X61846826Y39075081D01*
X61856923Y39063259D01*
X61885494Y38999498D01*
X61875057Y38930412D01*
X61831648Y38881035D01*
X61831896Y38880704D01*
X61830323Y38879528D01*
X61828926Y38877937D01*
X61825526Y38875936D01*
X61707739Y38787761D01*
X61620111Y38670705D01*
X61569011Y38533705D01*
X61569011Y38533703D01*
X61562500Y38473155D01*
X61562500Y36375846D01*
X61569011Y36315298D01*
X61569011Y36315296D01*
X61605798Y36216670D01*
X61620111Y36178296D01*
X61707739Y36061239D01*
X61824796Y35973611D01*
X61961799Y35922511D01*
X61989050Y35919582D01*
X62022345Y35916001D01*
X62022362Y35916000D01*
X64119638Y35916000D01*
X64119654Y35916001D01*
X64146692Y35918909D01*
X64180201Y35922511D01*
X64317204Y35973611D01*
X64434261Y36061239D01*
X64521889Y36178296D01*
X64572989Y36315299D01*
X64576591Y36348808D01*
X64579499Y36375846D01*
X64579500Y36375863D01*
X64579500Y38473138D01*
X64579499Y38473155D01*
X64576157Y38504230D01*
X64572989Y38533701D01*
X64521889Y38670704D01*
X64434261Y38787761D01*
X64317204Y38875389D01*
X64317203Y38875390D01*
X64310104Y38880704D01*
X64311399Y38882436D01*
X64270533Y38923302D01*
X64255682Y38991575D01*
X64280099Y39057039D01*
X64285076Y39063259D01*
X64295176Y39075084D01*
X64419240Y39277537D01*
X64447416Y39345559D01*
X64510104Y39496903D01*
X64510104Y39496904D01*
X64510105Y39496906D01*
X64565535Y39727789D01*
X64584165Y39964500D01*
X66510835Y39964500D01*
X66529465Y39727786D01*
X66584895Y39496905D01*
X66584895Y39496903D01*
X66675757Y39277541D01*
X66675759Y39277538D01*
X66799820Y39075090D01*
X66799826Y39075081D01*
X66809923Y39063259D01*
X66838494Y38999498D01*
X66828057Y38930412D01*
X66784648Y38881035D01*
X66784896Y38880704D01*
X66783323Y38879528D01*
X66781926Y38877937D01*
X66778526Y38875936D01*
X66660739Y38787761D01*
X66573111Y38670705D01*
X66522011Y38533705D01*
X66522011Y38533703D01*
X66515500Y38473155D01*
X66515500Y36375846D01*
X66522011Y36315298D01*
X66522011Y36315296D01*
X66558798Y36216670D01*
X66573111Y36178296D01*
X66660739Y36061239D01*
X66777796Y35973611D01*
X66914799Y35922511D01*
X66942050Y35919582D01*
X66975345Y35916001D01*
X66975362Y35916000D01*
X69072638Y35916000D01*
X69072654Y35916001D01*
X69099692Y35918909D01*
X69133201Y35922511D01*
X69270204Y35973611D01*
X69387261Y36061239D01*
X69474889Y36178296D01*
X69525989Y36315299D01*
X69529591Y36348808D01*
X69532499Y36375846D01*
X69532500Y36375863D01*
X69532500Y38473138D01*
X69532499Y38473155D01*
X69529157Y38504230D01*
X69525989Y38533701D01*
X69474889Y38670704D01*
X69387261Y38787761D01*
X69270204Y38875389D01*
X69270203Y38875390D01*
X69263104Y38880704D01*
X69264399Y38882436D01*
X69223533Y38923302D01*
X69208682Y38991575D01*
X69233099Y39057039D01*
X69238076Y39063259D01*
X69248176Y39075084D01*
X69372240Y39277537D01*
X69400416Y39345559D01*
X69463104Y39496903D01*
X69463104Y39496904D01*
X69463105Y39496906D01*
X69518535Y39727789D01*
X69537165Y39964500D01*
X69518535Y40201211D01*
X69463105Y40432094D01*
X69463104Y40432097D01*
X69463104Y40432098D01*
X69372242Y40651460D01*
X69372240Y40651463D01*
X69248179Y40853911D01*
X69248178Y40853914D01*
X69213340Y40894703D01*
X69093969Y41034469D01*
X68974596Y41136424D01*
X68913413Y41188679D01*
X68913410Y41188680D01*
X68710962Y41312741D01*
X68710959Y41312743D01*
X68491596Y41403605D01*
X68260714Y41459035D01*
X68024000Y41477665D01*
X67787285Y41459035D01*
X67556404Y41403605D01*
X67556402Y41403605D01*
X67337040Y41312743D01*
X67337037Y41312741D01*
X67134589Y41188680D01*
X67134586Y41188679D01*
X66954031Y41034469D01*
X66799821Y40853914D01*
X66799820Y40853911D01*
X66675759Y40651463D01*
X66675757Y40651460D01*
X66584895Y40432098D01*
X66584895Y40432096D01*
X66529465Y40201215D01*
X66510835Y39964500D01*
X64584165Y39964500D01*
X64565535Y40201211D01*
X64510105Y40432094D01*
X64510104Y40432097D01*
X64510104Y40432098D01*
X64419242Y40651460D01*
X64419240Y40651463D01*
X64295179Y40853911D01*
X64295178Y40853914D01*
X64260340Y40894703D01*
X64140969Y41034469D01*
X64021596Y41136424D01*
X63960413Y41188679D01*
X63960410Y41188680D01*
X63757962Y41312741D01*
X63757959Y41312743D01*
X63538596Y41403605D01*
X63307714Y41459035D01*
X63071000Y41477665D01*
X62834285Y41459035D01*
X62603404Y41403605D01*
X62603402Y41403605D01*
X62384040Y41312743D01*
X62384037Y41312741D01*
X62181589Y41188680D01*
X62181586Y41188679D01*
X62001031Y41034469D01*
X61846821Y40853914D01*
X61846820Y40853911D01*
X61722759Y40651463D01*
X61722757Y40651460D01*
X61631895Y40432098D01*
X61631895Y40432096D01*
X61576465Y40201215D01*
X61557835Y39964500D01*
X59504165Y39964500D01*
X59485535Y40201211D01*
X59430105Y40432094D01*
X59430104Y40432097D01*
X59430104Y40432098D01*
X59339242Y40651460D01*
X59339240Y40651463D01*
X59215179Y40853911D01*
X59215178Y40853914D01*
X59180340Y40894703D01*
X59060969Y41034469D01*
X58941596Y41136424D01*
X58880413Y41188679D01*
X58880410Y41188680D01*
X58677962Y41312741D01*
X58677959Y41312743D01*
X58458596Y41403605D01*
X58227714Y41459035D01*
X57991000Y41477665D01*
X57754285Y41459035D01*
X57523404Y41403605D01*
X57523402Y41403605D01*
X57304040Y41312743D01*
X57304037Y41312741D01*
X57101589Y41188680D01*
X57101586Y41188679D01*
X56921031Y41034469D01*
X56766821Y40853914D01*
X56766820Y40853911D01*
X56642759Y40651463D01*
X56642757Y40651460D01*
X56551895Y40432098D01*
X56551895Y40432096D01*
X56496465Y40201215D01*
X56477835Y39964500D01*
X54424165Y39964500D01*
X54405535Y40201211D01*
X54350105Y40432094D01*
X54350104Y40432097D01*
X54350104Y40432098D01*
X54259242Y40651460D01*
X54259240Y40651463D01*
X54135179Y40853911D01*
X54135178Y40853914D01*
X54100340Y40894703D01*
X53980969Y41034469D01*
X53861596Y41136424D01*
X53800413Y41188679D01*
X53800410Y41188680D01*
X53597962Y41312741D01*
X53597959Y41312743D01*
X53378596Y41403605D01*
X53147714Y41459035D01*
X52911000Y41477665D01*
X52674285Y41459035D01*
X52443404Y41403605D01*
X52443402Y41403605D01*
X52224040Y41312743D01*
X52224037Y41312741D01*
X52021589Y41188680D01*
X52021586Y41188679D01*
X51841031Y41034469D01*
X51686821Y40853914D01*
X51686820Y40853911D01*
X51562759Y40651463D01*
X51562757Y40651460D01*
X51471895Y40432098D01*
X51471895Y40432096D01*
X51416465Y40201215D01*
X51397835Y39964500D01*
X47936465Y39964500D01*
X47917835Y40201211D01*
X47862405Y40432094D01*
X47862404Y40432097D01*
X47862404Y40432098D01*
X47771542Y40651460D01*
X47771540Y40651463D01*
X47647479Y40853911D01*
X47647478Y40853914D01*
X47612640Y40894703D01*
X47493269Y41034469D01*
X47373896Y41136424D01*
X47312713Y41188679D01*
X47312710Y41188680D01*
X47110262Y41312741D01*
X47110259Y41312743D01*
X46890896Y41403605D01*
X46660014Y41459035D01*
X46423300Y41477665D01*
X46186585Y41459035D01*
X45955704Y41403605D01*
X45955702Y41403605D01*
X45736340Y41312743D01*
X45736337Y41312741D01*
X45533889Y41188680D01*
X45533886Y41188679D01*
X45353331Y41034469D01*
X45199121Y40853914D01*
X45199120Y40853911D01*
X45075059Y40651463D01*
X45075057Y40651460D01*
X44984195Y40432098D01*
X44984195Y40432096D01*
X44928765Y40201215D01*
X44910135Y39964500D01*
X42983465Y39964500D01*
X42964835Y40201211D01*
X42909405Y40432094D01*
X42909404Y40432097D01*
X42909404Y40432098D01*
X42818542Y40651460D01*
X42818540Y40651463D01*
X42694479Y40853911D01*
X42694478Y40853914D01*
X42659640Y40894703D01*
X42540269Y41034469D01*
X42420896Y41136424D01*
X42359713Y41188679D01*
X42359710Y41188680D01*
X42157262Y41312741D01*
X42157259Y41312743D01*
X41937896Y41403605D01*
X41707014Y41459035D01*
X41470300Y41477665D01*
X41233585Y41459035D01*
X41002704Y41403605D01*
X41002702Y41403605D01*
X40783340Y41312743D01*
X40783337Y41312741D01*
X40580889Y41188680D01*
X40580886Y41188679D01*
X40400331Y41034469D01*
X40246121Y40853914D01*
X40246120Y40853911D01*
X40122059Y40651463D01*
X40122057Y40651460D01*
X40031195Y40432098D01*
X40031195Y40432096D01*
X39975765Y40201215D01*
X39957135Y39964500D01*
X38157465Y39964500D01*
X38138835Y40201211D01*
X38083405Y40432094D01*
X38083404Y40432097D01*
X38083404Y40432098D01*
X37992542Y40651460D01*
X37992540Y40651463D01*
X37868479Y40853911D01*
X37868478Y40853914D01*
X37833640Y40894703D01*
X37714269Y41034469D01*
X37594896Y41136424D01*
X37533713Y41188679D01*
X37533710Y41188680D01*
X37331262Y41312741D01*
X37331259Y41312743D01*
X37111896Y41403605D01*
X36881014Y41459035D01*
X36644300Y41477665D01*
X36407585Y41459035D01*
X36176704Y41403605D01*
X36176702Y41403605D01*
X35957340Y41312743D01*
X35957337Y41312741D01*
X35754889Y41188680D01*
X35754886Y41188679D01*
X35574331Y41034469D01*
X35420121Y40853914D01*
X35420120Y40853911D01*
X35296059Y40651463D01*
X35296057Y40651460D01*
X35205195Y40432098D01*
X35205195Y40432096D01*
X35149765Y40201215D01*
X35131135Y39964500D01*
X33331465Y39964500D01*
X33312835Y40201211D01*
X33257405Y40432094D01*
X33257404Y40432097D01*
X33257404Y40432098D01*
X33166542Y40651460D01*
X33166540Y40651463D01*
X33042479Y40853911D01*
X33042478Y40853914D01*
X33007640Y40894703D01*
X32888269Y41034469D01*
X32768896Y41136424D01*
X32707713Y41188679D01*
X32707710Y41188680D01*
X32505262Y41312741D01*
X32505259Y41312743D01*
X32285896Y41403605D01*
X32055014Y41459035D01*
X31818300Y41477665D01*
X31581585Y41459035D01*
X31350704Y41403605D01*
X31350702Y41403605D01*
X31131340Y41312743D01*
X31131337Y41312741D01*
X30928889Y41188680D01*
X30928886Y41188679D01*
X30748331Y41034469D01*
X30594121Y40853914D01*
X30594120Y40853911D01*
X30470059Y40651463D01*
X30470057Y40651460D01*
X30379195Y40432098D01*
X30379195Y40432096D01*
X30323765Y40201215D01*
X30305135Y39964500D01*
X20806852Y39964500D01*
X20804561Y42421806D01*
X22274859Y42421806D01*
X22274859Y42421795D01*
X22295385Y42174071D01*
X22295387Y42174062D01*
X22356412Y41933083D01*
X22456266Y41705436D01*
X22556564Y41551918D01*
X23256212Y42251566D01*
X23267482Y42209508D01*
X23339890Y42084092D01*
X23442292Y41981690D01*
X23567708Y41909282D01*
X23609765Y41898013D01*
X22909942Y41198191D01*
X22956768Y41161745D01*
X22956770Y41161744D01*
X23175385Y41043436D01*
X23175396Y41043431D01*
X23410506Y40962717D01*
X23655707Y40921800D01*
X23904293Y40921800D01*
X24149493Y40962717D01*
X24384603Y41043431D01*
X24384614Y41043436D01*
X24603228Y41161743D01*
X24603231Y41161745D01*
X24650056Y41198191D01*
X23950234Y41898013D01*
X23992292Y41909282D01*
X24117708Y41981690D01*
X24220110Y42084092D01*
X24292518Y42209508D01*
X24303787Y42251565D01*
X25003434Y41551918D01*
X25103731Y41705431D01*
X25203587Y41933083D01*
X25264612Y42174062D01*
X25264614Y42174071D01*
X25285141Y42421795D01*
X25285141Y42421806D01*
X25264614Y42669530D01*
X25264612Y42669539D01*
X25203587Y42910518D01*
X25103731Y43138170D01*
X25003434Y43291684D01*
X24303787Y42592036D01*
X24292518Y42634092D01*
X24220110Y42759508D01*
X24117708Y42861910D01*
X23992292Y42934318D01*
X23950235Y42945588D01*
X24650057Y43645410D01*
X24650056Y43645411D01*
X24603229Y43681857D01*
X24384614Y43800165D01*
X24384603Y43800170D01*
X24149493Y43880884D01*
X23904293Y43921800D01*
X23655707Y43921800D01*
X23410506Y43880884D01*
X23175396Y43800170D01*
X23175390Y43800168D01*
X22956761Y43681851D01*
X22909942Y43645412D01*
X22909942Y43645410D01*
X23609765Y42945588D01*
X23567708Y42934318D01*
X23442292Y42861910D01*
X23339890Y42759508D01*
X23267482Y42634092D01*
X23256212Y42592036D01*
X22556564Y43291684D01*
X22456267Y43138168D01*
X22356412Y42910518D01*
X22295387Y42669539D01*
X22295385Y42669530D01*
X22274859Y42421806D01*
X20804561Y42421806D01*
X20802715Y44401835D01*
X20822337Y44468889D01*
X20875098Y44514693D01*
X20926964Y44525947D01*
X27999524Y44511521D01*
G37*
%TD.AperFunction*%
%TA.AperFunction,Conductor*%
G36*
X121807426Y35229686D02*
G01*
X121856832Y35180281D01*
X121872000Y35120853D01*
X121872000Y34814412D01*
X121852315Y34747373D01*
X121799511Y34701618D01*
X121737194Y34690884D01*
X121703025Y34693874D01*
X121024000Y34014849D01*
X121024000Y34021061D01*
X120996741Y34122794D01*
X120944080Y34214006D01*
X120869606Y34288480D01*
X120778394Y34341141D01*
X120676661Y34368400D01*
X120670448Y34368400D01*
X121357534Y35055488D01*
X121365192Y35093592D01*
X121413807Y35143775D01*
X121469399Y35158436D01*
X121469346Y35159441D01*
X121469335Y35159544D01*
X121469340Y35159545D01*
X121469331Y35159723D01*
X121472635Y35159900D01*
X121472638Y35159900D01*
X121472640Y35159901D01*
X121472654Y35159901D01*
X121499692Y35162809D01*
X121533201Y35166411D01*
X121670204Y35217511D01*
X121670204Y35217512D01*
X121670206Y35217512D01*
X121670207Y35217513D01*
X121673689Y35220119D01*
X121677766Y35221640D01*
X121677992Y35221763D01*
X121678009Y35221731D01*
X121739153Y35244537D01*
X121807426Y35229686D01*
G37*
%TD.AperFunction*%
%TD*%
M02*
