M48
; DRILL file {KiCad (6.0.10)} date Wed Feb  8 02:41:50 2023
; FORMAT={-:-/ absolute / metric / decimal}
; #@! TF.CreationDate,2023-02-08T02:41:50+01:00
; #@! TF.GenerationSoftware,Kicad,Pcbnew,(6.0.10)
; #@! TF.FileFunction,Plated,1,2,PTH
FMAT,2
METRIC
; #@! TA.AperFunction,Plated,PTH,ViaDrill
T1C0.400
; #@! TA.AperFunction,Plated,PTH,ComponentDrill
T2C0.500
; #@! TA.AperFunction,Plated,PTH,ComponentDrill
T3C0.600
; #@! TA.AperFunction,Plated,PTH,ComponentDrill
T4C0.800
; #@! TA.AperFunction,Plated,PTH,ComponentDrill
T5C1.000
; #@! TA.AperFunction,Plated,PTH,ComponentDrill
T6C1.100
; #@! TA.AperFunction,Plated,PTH,ComponentDrill
T7C1.295
; #@! TA.AperFunction,Plated,PTH,ComponentDrill
T8C3.200
%
G90
G05
T1
X38.608Y-104.267
X38.608Y-106.299
X54.229Y-102.489
X54.229Y-104.267
X54.229Y-106.299
X61.976Y-105.664
X62.6Y-106.44
X63.2Y-102.1
X63.343Y-91.089
X63.343Y-93.502
X63.488Y-81.026
X63.5Y-100.8
X66.996Y-106.036
X67.945Y-97.028
X70.104Y-106.172
X70.49Y-101.84
X70.5Y-100.8
X71.12Y-106.172
X72.263Y-90.805
X72.269Y-93.465
X73.736Y-113.741
X74.168Y-106.172
X75.0Y-102.8
X75.883Y-90.932
X75.969Y-93.396
X76.2Y-105.156
X76.264Y-83.312
X77.534Y-83.82
X78.613Y-77.724
X78.804Y-84.455
X80.074Y-84.582
X80.224Y-98.123
X80.224Y-99.172
X81.424Y-84.883
X81.8Y-91.2
X83.5Y-108.4
X84.357Y-107.6
X84.409Y-99.421
X85.1Y-112.0
X85.1Y-113.1
X85.1Y-114.3
X85.151Y-98.679
X86.907Y-83.896
X86.907Y-85.42
X87.249Y-97.536
X88.011Y-96.774
X88.329Y-83.947
X88.431Y-85.42
X89.36Y-94.17
X90.3Y-100.6
X90.85Y-94.2
X91.1Y-99.8
X92.8Y-102.7
X93.79Y-89.662
X94.2Y-102.7
X95.7Y-102.7
X95.8Y-97.1
X96.457Y-88.011
X97.663Y-88.392
X97.981Y-85.344
X98.286Y-83.845
X98.36Y-89.97
X99.149Y-83.845
X99.56Y-85.39
X100.064Y-88.392
X100.087Y-89.916
T2
X93.218Y-85.217
T4
X41.704Y-59.011
X45.149Y-103.759
X47.649Y-103.759
X49.204Y-60.645
X59.817Y-47.879
X59.817Y-52.959
X64.77Y-47.879
X64.77Y-52.959
X69.69Y-47.879
X69.69Y-52.959
X74.69Y-47.879
X74.69Y-52.959
X83.795Y-47.816
X83.795Y-52.895
X83.834Y-73.923
X83.834Y-81.543
X86.374Y-73.923
X86.374Y-81.543
X88.773Y-47.816
X88.773Y-52.895
X88.914Y-73.923
X88.914Y-81.543
X91.454Y-73.923
X91.454Y-81.543
X93.803Y-47.816
X93.803Y-52.895
X95.01Y-73.923
X95.01Y-81.543
X97.55Y-73.923
X97.55Y-81.543
X98.832Y-47.816
X98.832Y-52.895
X100.09Y-73.923
X100.09Y-81.543
X102.63Y-73.923
X102.63Y-81.543
T5
X39.835Y-110.219
X42.335Y-110.219
X48.832Y-110.219
X49.239Y-54.168
X49.249Y-49.088
X51.332Y-110.219
X56.261Y-99.39
X56.261Y-101.93
X56.261Y-104.47
X56.261Y-108.344
X56.261Y-110.884
X61.976Y-57.15
X61.976Y-64.77
X61.976Y-74.93
X61.976Y-77.47
X62.167Y-85.979
X64.707Y-85.979
X66.802Y-57.15
X66.802Y-64.77
X66.802Y-74.93
X66.802Y-77.47
X67.247Y-85.979
X69.787Y-85.979
X71.628Y-57.15
X71.628Y-64.77
X71.628Y-74.93
X71.628Y-77.47
X72.41Y-100.975
X72.41Y-103.515
X76.325Y-109.2
X76.581Y-57.15
X76.581Y-64.77
X76.581Y-74.93
X76.581Y-77.47
X78.865Y-109.2
X79.0Y-90.12
X79.0Y-92.66
X79.0Y-95.2
X84.783Y-88.342
X87.323Y-88.342
X89.8Y-113.09
X89.863Y-88.342
X92.34Y-113.09
X92.403Y-88.342
T6
X34.839Y-68.805
X34.839Y-88.805
X45.657Y-98.679
X48.197Y-98.679
X50.737Y-98.679
X54.839Y-73.805
X54.839Y-83.805
T7
X46.203Y-34.582
X46.203Y-42.782
X51.203Y-34.582
X51.203Y-42.782
X59.849Y-34.559
X59.849Y-42.758
X64.849Y-34.559
X64.849Y-42.758
X69.849Y-34.559
X69.849Y-42.758
X74.849Y-34.559
X74.849Y-42.758
X83.809Y-34.518
X83.809Y-42.718
X88.809Y-34.518
X88.809Y-42.718
X93.809Y-34.518
X93.809Y-42.718
X98.809Y-34.518
X98.809Y-42.718
T8
X37.974Y-49.212
X37.974Y-99.212
X104.267Y-49.212
T3
G00X62.656Y-108.126
M15
G01X62.656Y-109.226
M16
G05
G00X62.656Y-112.556
M15
G01X62.656Y-113.156
M16
G05
G00X71.296Y-108.126
M15
G01X71.296Y-109.226
M16
G05
G00X71.296Y-112.556
M15
G01X71.296Y-113.156
M16
G05
T0
M30
