%TF.GenerationSoftware,KiCad,Pcbnew,5.1.10-88a1d61d58~90~ubuntu20.04.1*%
%TF.CreationDate,2021-09-06T00:00:23+02:00*%
%TF.ProjectId,hamodule,68616d6f-6475-46c6-952e-6b696361645f,rev?*%
%TF.SameCoordinates,Original*%
%TF.FileFunction,Soldermask,Top*%
%TF.FilePolarity,Negative*%
%FSLAX46Y46*%
G04 Gerber Fmt 4.6, Leading zero omitted, Abs format (unit mm)*
G04 Created by KiCad (PCBNEW 5.1.10-88a1d61d58~90~ubuntu20.04.1) date 2021-09-06 00:00:23*
%MOMM*%
%LPD*%
G01*
G04 APERTURE LIST*
%ADD10C,5.600000*%
%ADD11C,2.200000*%
%ADD12C,1.660000*%
%ADD13O,1.500000X1.500000*%
%ADD14C,1.500000*%
%ADD15C,1.700000*%
%ADD16C,2.100000*%
%ADD17C,1.600000*%
%ADD18C,2.400000*%
%ADD19O,2.900000X2.900000*%
G04 APERTURE END LIST*
D10*
%TO.C,H9*%
X182626000Y-80010000D03*
%TD*%
%TO.C,H8*%
X146050000Y-80010000D03*
%TD*%
D11*
%TO.C,J4*%
X154940000Y-25590000D03*
X154940000Y-34290000D03*
X160020000Y-25590000D03*
X160020000Y-34290000D03*
X165100000Y-25590000D03*
X165100000Y-34290000D03*
X170180000Y-25590000D03*
X170180000Y-34290000D03*
%TD*%
%TO.C,J2*%
X35560000Y-25590000D03*
X35560000Y-34290000D03*
X40640000Y-25590000D03*
X40640000Y-34290000D03*
X45720000Y-25590000D03*
X45720000Y-34290000D03*
X50800000Y-25590000D03*
X50800000Y-34290000D03*
%TD*%
%TO.C,J1*%
X72390000Y-25590000D03*
X72390000Y-34290000D03*
X77470000Y-25590000D03*
X77470000Y-34290000D03*
X82550000Y-25590000D03*
X82550000Y-34290000D03*
X87630000Y-25590000D03*
X87630000Y-34290000D03*
%TD*%
D12*
%TO.C,U1*%
X113030000Y-29920000D03*
X113030000Y-32460000D03*
X113030000Y-35000000D03*
X113030000Y-37540000D03*
X113030000Y-40080000D03*
X113030000Y-42620000D03*
X113030000Y-45160000D03*
X113030000Y-47700000D03*
X113030000Y-50240000D03*
X113030000Y-52780000D03*
X113030000Y-55320000D03*
X113030000Y-57860000D03*
X113030000Y-60400000D03*
X113030000Y-62940000D03*
X113030000Y-65480000D03*
X113030000Y-68020000D03*
X113030000Y-70560000D03*
X113030000Y-73100000D03*
X113030000Y-75640000D03*
X138430000Y-32460000D03*
X138430000Y-35000000D03*
X138430000Y-37540000D03*
X138430000Y-40080000D03*
X138430000Y-42620000D03*
X138430000Y-45160000D03*
X138430000Y-47700000D03*
X138430000Y-50240000D03*
X138430000Y-52780000D03*
X138430000Y-55320000D03*
X138430000Y-57860000D03*
X138430000Y-60400000D03*
X138430000Y-62940000D03*
X138430000Y-65480000D03*
X138430000Y-68020000D03*
X138430000Y-70560000D03*
X138430000Y-29920000D03*
X138430000Y-73100000D03*
G36*
G01*
X139260000Y-74860000D02*
X139260000Y-76420000D01*
G75*
G02*
X139210000Y-76470000I-50000J0D01*
G01*
X137650000Y-76470000D01*
G75*
G02*
X137600000Y-76420000I0J50000D01*
G01*
X137600000Y-74860000D01*
G75*
G02*
X137650000Y-74810000I50000J0D01*
G01*
X139210000Y-74810000D01*
G75*
G02*
X139260000Y-74860000I0J-50000D01*
G01*
G37*
%TD*%
D13*
%TO.C,R20*%
X184404000Y-41402000D03*
D14*
X176784000Y-41402000D03*
%TD*%
D13*
%TO.C,R19*%
X173228000Y-41402000D03*
D14*
X165608000Y-41402000D03*
%TD*%
D13*
%TO.C,R18*%
X162306000Y-41402000D03*
D14*
X154686000Y-41402000D03*
%TD*%
D13*
%TO.C,R17*%
X176784000Y-44958000D03*
D14*
X184404000Y-44958000D03*
%TD*%
D13*
%TO.C,R12*%
X165862000Y-44958000D03*
D14*
X173482000Y-44958000D03*
%TD*%
D13*
%TO.C,R11*%
X154686000Y-45212000D03*
D14*
X162306000Y-45212000D03*
%TD*%
D13*
%TO.C,R10*%
X184658000Y-66040000D03*
D14*
X177038000Y-66040000D03*
%TD*%
D13*
%TO.C,R9*%
X173736000Y-66040000D03*
D14*
X166116000Y-66040000D03*
%TD*%
D13*
%TO.C,R8*%
X162814000Y-66040000D03*
D14*
X155194000Y-66040000D03*
%TD*%
D13*
%TO.C,R7*%
X151892000Y-66040000D03*
D14*
X144272000Y-66040000D03*
%TD*%
D15*
%TO.C,22uF4*%
X179618000Y-50800000D03*
G36*
G01*
X182968000Y-50000000D02*
X182968000Y-51600000D01*
G75*
G02*
X182918000Y-51650000I-50000J0D01*
G01*
X181318000Y-51650000D01*
G75*
G02*
X181268000Y-51600000I0J50000D01*
G01*
X181268000Y-50000000D01*
G75*
G02*
X181318000Y-49950000I50000J0D01*
G01*
X182918000Y-49950000D01*
G75*
G02*
X182968000Y-50000000I0J-50000D01*
G01*
G37*
%TD*%
%TO.C,22uF3*%
X168442000Y-50292000D03*
G36*
G01*
X171792000Y-49492000D02*
X171792000Y-51092000D01*
G75*
G02*
X171742000Y-51142000I-50000J0D01*
G01*
X170142000Y-51142000D01*
G75*
G02*
X170092000Y-51092000I0J50000D01*
G01*
X170092000Y-49492000D01*
G75*
G02*
X170142000Y-49442000I50000J0D01*
G01*
X171742000Y-49442000D01*
G75*
G02*
X171792000Y-49492000I0J-50000D01*
G01*
G37*
%TD*%
%TO.C,22uF2*%
X157266000Y-50292000D03*
G36*
G01*
X160616000Y-49492000D02*
X160616000Y-51092000D01*
G75*
G02*
X160566000Y-51142000I-50000J0D01*
G01*
X158966000Y-51142000D01*
G75*
G02*
X158916000Y-51092000I0J50000D01*
G01*
X158916000Y-49492000D01*
G75*
G02*
X158966000Y-49442000I50000J0D01*
G01*
X160566000Y-49442000D01*
G75*
G02*
X160616000Y-49492000I0J-50000D01*
G01*
G37*
%TD*%
%TO.C,22uF1*%
X146344000Y-50292000D03*
G36*
G01*
X149694000Y-49492000D02*
X149694000Y-51092000D01*
G75*
G02*
X149644000Y-51142000I-50000J0D01*
G01*
X148044000Y-51142000D01*
G75*
G02*
X147994000Y-51092000I0J50000D01*
G01*
X147994000Y-49492000D01*
G75*
G02*
X148044000Y-49442000I50000J0D01*
G01*
X149644000Y-49442000D01*
G75*
G02*
X149694000Y-49492000I0J-50000D01*
G01*
G37*
%TD*%
D10*
%TO.C,H1*%
X146558000Y-20574000D03*
%TD*%
D16*
%TO.C,PS1*%
X47100000Y-62670000D03*
X25510000Y-62670000D03*
X36940000Y-62670000D03*
X45810000Y-41910000D03*
G36*
G01*
X40860000Y-42910000D02*
X40860000Y-40910000D01*
G75*
G02*
X40910000Y-40860000I50000J0D01*
G01*
X42910000Y-40860000D01*
G75*
G02*
X42960000Y-40910000I0J-50000D01*
G01*
X42960000Y-42910000D01*
G75*
G02*
X42910000Y-42960000I-50000J0D01*
G01*
X40910000Y-42960000D01*
G75*
G02*
X40860000Y-42910000I0J50000D01*
G01*
G37*
%TD*%
D13*
%TO.C,R6*%
X143510000Y-45212000D03*
D14*
X151130000Y-45212000D03*
%TD*%
D10*
%TO.C,H7*%
X45720000Y-77470000D03*
%TD*%
%TO.C,H6*%
X182626000Y-20320000D03*
%TD*%
%TO.C,H5*%
X26670000Y-77470000D03*
%TD*%
%TO.C,H4*%
X59436000Y-31242000D03*
%TD*%
%TO.C,H3*%
X100076000Y-20320000D03*
%TD*%
%TO.C,H2*%
X26670000Y-21590000D03*
%TD*%
%TO.C,Q1*%
G36*
G01*
X57670000Y-71590000D02*
X59170000Y-71590000D01*
G75*
G02*
X59220000Y-71640000I0J-50000D01*
G01*
X59220000Y-73140000D01*
G75*
G02*
X59170000Y-73190000I-50000J0D01*
G01*
X57670000Y-73190000D01*
G75*
G02*
X57620000Y-73140000I0J50000D01*
G01*
X57620000Y-71640000D01*
G75*
G02*
X57670000Y-71590000I50000J0D01*
G01*
G37*
D17*
X53340000Y-72390000D03*
X55880000Y-74930000D03*
%TD*%
%TO.C,Q2*%
G36*
G01*
X72910000Y-71590000D02*
X74410000Y-71590000D01*
G75*
G02*
X74460000Y-71640000I0J-50000D01*
G01*
X74460000Y-73140000D01*
G75*
G02*
X74410000Y-73190000I-50000J0D01*
G01*
X72910000Y-73190000D01*
G75*
G02*
X72860000Y-73140000I0J50000D01*
G01*
X72860000Y-71640000D01*
G75*
G02*
X72910000Y-71590000I50000J0D01*
G01*
G37*
X68580000Y-72390000D03*
X71120000Y-74930000D03*
%TD*%
%TO.C,Q4*%
G36*
G01*
X103390000Y-71590000D02*
X104890000Y-71590000D01*
G75*
G02*
X104940000Y-71640000I0J-50000D01*
G01*
X104940000Y-73140000D01*
G75*
G02*
X104890000Y-73190000I-50000J0D01*
G01*
X103390000Y-73190000D01*
G75*
G02*
X103340000Y-73140000I0J50000D01*
G01*
X103340000Y-71640000D01*
G75*
G02*
X103390000Y-71590000I50000J0D01*
G01*
G37*
X99060000Y-72390000D03*
X101600000Y-74930000D03*
%TD*%
%TO.C,Q3*%
G36*
G01*
X88150000Y-71590000D02*
X89650000Y-71590000D01*
G75*
G02*
X89700000Y-71640000I0J-50000D01*
G01*
X89700000Y-73140000D01*
G75*
G02*
X89650000Y-73190000I-50000J0D01*
G01*
X88150000Y-73190000D01*
G75*
G02*
X88100000Y-73140000I0J50000D01*
G01*
X88100000Y-71640000D01*
G75*
G02*
X88150000Y-71590000I50000J0D01*
G01*
G37*
X83820000Y-72390000D03*
X86360000Y-74930000D03*
%TD*%
D13*
%TO.C,R5*%
X151130000Y-41402000D03*
D14*
X143510000Y-41402000D03*
%TD*%
D18*
%TO.C,K2*%
X67310000Y-59690000D03*
X67310000Y-44450000D03*
X74930000Y-41910000D03*
X74930000Y-49530000D03*
G36*
G01*
X73780000Y-58490000D02*
X76080000Y-58490000D01*
G75*
G02*
X76130000Y-58540000I0J-50000D01*
G01*
X76130000Y-60840000D01*
G75*
G02*
X76080000Y-60890000I-50000J0D01*
G01*
X73780000Y-60890000D01*
G75*
G02*
X73730000Y-60840000I0J50000D01*
G01*
X73730000Y-58540000D01*
G75*
G02*
X73780000Y-58490000I50000J0D01*
G01*
G37*
%TD*%
D13*
%TO.C,R16*%
X107950000Y-68580000D03*
D14*
X107950000Y-76200000D03*
%TD*%
D13*
%TO.C,R15*%
X92710000Y-68580000D03*
D14*
X92710000Y-76200000D03*
%TD*%
D13*
%TO.C,R14*%
X77470000Y-68580000D03*
D14*
X77470000Y-76200000D03*
%TD*%
D13*
%TO.C,R13*%
X62230000Y-68580000D03*
D14*
X62230000Y-76200000D03*
%TD*%
D13*
%TO.C,R4*%
X105410000Y-78740000D03*
D14*
X97790000Y-78740000D03*
%TD*%
D13*
%TO.C,R3*%
X90170000Y-78740000D03*
D14*
X82550000Y-78740000D03*
%TD*%
D13*
%TO.C,R2*%
X74930000Y-78740000D03*
D14*
X67310000Y-78740000D03*
%TD*%
D13*
%TO.C,R1*%
X59690000Y-78740000D03*
D14*
X52070000Y-78740000D03*
%TD*%
D18*
%TO.C,K4*%
X97790000Y-59690000D03*
X97790000Y-44450000D03*
X105410000Y-41910000D03*
X105410000Y-49530000D03*
G36*
G01*
X104260000Y-58490000D02*
X106560000Y-58490000D01*
G75*
G02*
X106610000Y-58540000I0J-50000D01*
G01*
X106610000Y-60840000D01*
G75*
G02*
X106560000Y-60890000I-50000J0D01*
G01*
X104260000Y-60890000D01*
G75*
G02*
X104210000Y-60840000I0J50000D01*
G01*
X104210000Y-58540000D01*
G75*
G02*
X104260000Y-58490000I50000J0D01*
G01*
G37*
%TD*%
%TO.C,K3*%
X82550000Y-59690000D03*
X82550000Y-44450000D03*
X90170000Y-41910000D03*
X90170000Y-49530000D03*
G36*
G01*
X89020000Y-58490000D02*
X91320000Y-58490000D01*
G75*
G02*
X91370000Y-58540000I0J-50000D01*
G01*
X91370000Y-60840000D01*
G75*
G02*
X91320000Y-60890000I-50000J0D01*
G01*
X89020000Y-60890000D01*
G75*
G02*
X88970000Y-60840000I0J50000D01*
G01*
X88970000Y-58540000D01*
G75*
G02*
X89020000Y-58490000I50000J0D01*
G01*
G37*
%TD*%
%TO.C,K1*%
X53340000Y-59690000D03*
X53340000Y-44450000D03*
X60960000Y-41910000D03*
X60960000Y-49530000D03*
G36*
G01*
X59810000Y-58490000D02*
X62110000Y-58490000D01*
G75*
G02*
X62160000Y-58540000I0J-50000D01*
G01*
X62160000Y-60840000D01*
G75*
G02*
X62110000Y-60890000I-50000J0D01*
G01*
X59810000Y-60890000D01*
G75*
G02*
X59760000Y-60840000I0J50000D01*
G01*
X59760000Y-58540000D01*
G75*
G02*
X59810000Y-58490000I50000J0D01*
G01*
G37*
%TD*%
D19*
%TO.C,D4*%
X107950000Y-64770000D03*
G36*
G01*
X96340000Y-66170000D02*
X96340000Y-63370000D01*
G75*
G02*
X96390000Y-63320000I50000J0D01*
G01*
X99190000Y-63320000D01*
G75*
G02*
X99240000Y-63370000I0J-50000D01*
G01*
X99240000Y-66170000D01*
G75*
G02*
X99190000Y-66220000I-50000J0D01*
G01*
X96390000Y-66220000D01*
G75*
G02*
X96340000Y-66170000I0J50000D01*
G01*
G37*
%TD*%
%TO.C,D3*%
X92710000Y-64770000D03*
G36*
G01*
X81100000Y-66170000D02*
X81100000Y-63370000D01*
G75*
G02*
X81150000Y-63320000I50000J0D01*
G01*
X83950000Y-63320000D01*
G75*
G02*
X84000000Y-63370000I0J-50000D01*
G01*
X84000000Y-66170000D01*
G75*
G02*
X83950000Y-66220000I-50000J0D01*
G01*
X81150000Y-66220000D01*
G75*
G02*
X81100000Y-66170000I0J50000D01*
G01*
G37*
%TD*%
%TO.C,D2*%
X77470000Y-64770000D03*
G36*
G01*
X65860000Y-66170000D02*
X65860000Y-63370000D01*
G75*
G02*
X65910000Y-63320000I50000J0D01*
G01*
X68710000Y-63320000D01*
G75*
G02*
X68760000Y-63370000I0J-50000D01*
G01*
X68760000Y-66170000D01*
G75*
G02*
X68710000Y-66220000I-50000J0D01*
G01*
X65910000Y-66220000D01*
G75*
G02*
X65860000Y-66170000I0J50000D01*
G01*
G37*
%TD*%
%TO.C,D1*%
X62230000Y-64770000D03*
G36*
G01*
X50620000Y-66170000D02*
X50620000Y-63370000D01*
G75*
G02*
X50670000Y-63320000I50000J0D01*
G01*
X53470000Y-63320000D01*
G75*
G02*
X53520000Y-63370000I0J-50000D01*
G01*
X53520000Y-66170000D01*
G75*
G02*
X53470000Y-66220000I-50000J0D01*
G01*
X50670000Y-66220000D01*
G75*
G02*
X50620000Y-66170000I0J50000D01*
G01*
G37*
%TD*%
M02*
