G04 #@! TF.GenerationSoftware,KiCad,Pcbnew,(6.0.10)*
G04 #@! TF.CreationDate,2023-02-08T02:38:02+01:00*
G04 #@! TF.ProjectId,hamodule,68616d6f-6475-46c6-952e-6b696361645f,V.20230201.22*
G04 #@! TF.SameCoordinates,Original*
G04 #@! TF.FileFunction,Copper,L2,Bot*
G04 #@! TF.FilePolarity,Positive*
%FSLAX46Y46*%
G04 Gerber Fmt 4.6, Leading zero omitted, Abs format (unit mm)*
G04 Created by KiCad (PCBNEW (6.0.10)) date 2023-02-08 02:38:02*
%MOMM*%
%LPD*%
G01*
G04 APERTURE LIST*
G04 Aperture macros list*
%AMRoundRect*
0 Rectangle with rounded corners*
0 $1 Rounding radius*
0 $2 $3 $4 $5 $6 $7 $8 $9 X,Y pos of 4 corners*
0 Add a 4 corners polygon primitive as box body*
4,1,4,$2,$3,$4,$5,$6,$7,$8,$9,$2,$3,0*
0 Add four circle primitives for the rounded corners*
1,1,$1+$1,$2,$3*
1,1,$1+$1,$4,$5*
1,1,$1+$1,$6,$7*
1,1,$1+$1,$8,$9*
0 Add four rect primitives between the rounded corners*
20,1,$1+$1,$2,$3,$4,$5,0*
20,1,$1+$1,$4,$5,$6,$7,0*
20,1,$1+$1,$6,$7,$8,$9,0*
20,1,$1+$1,$8,$9,$2,$3,0*%
G04 Aperture macros list end*
G04 #@! TA.AperFunction,ComponentPad*
%ADD10R,1.700000X1.700000*%
G04 #@! TD*
G04 #@! TA.AperFunction,ComponentPad*
%ADD11O,1.700000X1.700000*%
G04 #@! TD*
G04 #@! TA.AperFunction,ComponentPad*
%ADD12C,1.800000*%
G04 #@! TD*
G04 #@! TA.AperFunction,ComponentPad*
%ADD13RoundRect,0.250000X-0.600000X-0.750000X0.600000X-0.750000X0.600000X0.750000X-0.600000X0.750000X0*%
G04 #@! TD*
G04 #@! TA.AperFunction,ComponentPad*
%ADD14O,1.700000X2.000000*%
G04 #@! TD*
G04 #@! TA.AperFunction,ComponentPad*
%ADD15R,1.650000X1.650000*%
G04 #@! TD*
G04 #@! TA.AperFunction,ComponentPad*
%ADD16C,1.650000*%
G04 #@! TD*
G04 #@! TA.AperFunction,ComponentPad*
%ADD17R,1.905000X2.000000*%
G04 #@! TD*
G04 #@! TA.AperFunction,ComponentPad*
%ADD18O,1.905000X2.000000*%
G04 #@! TD*
G04 #@! TA.AperFunction,ComponentPad*
%ADD19RoundRect,0.625000X0.625000X0.625000X-0.625000X0.625000X-0.625000X-0.625000X0.625000X-0.625000X0*%
G04 #@! TD*
G04 #@! TA.AperFunction,ComponentPad*
%ADD20C,2.000000*%
G04 #@! TD*
G04 #@! TA.AperFunction,ComponentPad*
%ADD21C,5.500000*%
G04 #@! TD*
G04 #@! TA.AperFunction,ComponentPad*
%ADD22R,1.600000X2.400000*%
G04 #@! TD*
G04 #@! TA.AperFunction,ComponentPad*
%ADD23O,1.600000X2.400000*%
G04 #@! TD*
G04 #@! TA.AperFunction,ComponentPad*
%ADD24R,1.000000X1.000000*%
G04 #@! TD*
G04 #@! TA.AperFunction,ComponentPad*
%ADD25O,1.000000X2.100000*%
G04 #@! TD*
G04 #@! TA.AperFunction,ComponentPad*
%ADD26O,1.000000X1.600000*%
G04 #@! TD*
G04 #@! TA.AperFunction,ComponentPad*
%ADD27R,2.000000X2.000000*%
G04 #@! TD*
G04 #@! TA.AperFunction,ComponentPad*
%ADD28R,1.600000X1.600000*%
G04 #@! TD*
G04 #@! TA.AperFunction,ComponentPad*
%ADD29C,1.600000*%
G04 #@! TD*
G04 #@! TA.AperFunction,SMDPad,CuDef*
%ADD30RoundRect,0.250000X-0.412500X-0.650000X0.412500X-0.650000X0.412500X0.650000X-0.412500X0.650000X0*%
G04 #@! TD*
G04 #@! TA.AperFunction,SMDPad,CuDef*
%ADD31C,2.000000*%
G04 #@! TD*
G04 #@! TA.AperFunction,ViaPad*
%ADD32C,0.800000*%
G04 #@! TD*
G04 #@! TA.AperFunction,Conductor*
%ADD33C,1.000000*%
G04 #@! TD*
G04 #@! TA.AperFunction,Conductor*
%ADD34C,1.500000*%
G04 #@! TD*
G04 #@! TA.AperFunction,Conductor*
%ADD35C,0.400000*%
G04 #@! TD*
G04 #@! TA.AperFunction,Conductor*
%ADD36C,3.000000*%
G04 #@! TD*
G04 #@! TA.AperFunction,Conductor*
%ADD37C,2.000000*%
G04 #@! TD*
G04 #@! TA.AperFunction,Conductor*
%ADD38C,0.200000*%
G04 #@! TD*
G04 APERTURE END LIST*
G36*
X85074500Y-66008000D02*
G01*
X83074500Y-66008000D01*
X83074500Y-62008000D01*
X85074500Y-62008000D01*
X85074500Y-66008000D01*
G37*
D10*
X56261500Y-108343700D03*
D11*
X56261500Y-110883700D03*
D12*
X41703800Y-59011450D03*
X49203800Y-60644780D03*
D13*
X48832000Y-110219000D03*
D14*
X51332000Y-110219000D03*
D15*
X34839100Y-68805000D03*
D16*
X34839100Y-88805000D03*
X54839100Y-83805000D03*
X54839100Y-73805000D03*
D17*
X45657000Y-98679000D03*
D18*
X48197000Y-98679000D03*
X50737000Y-98679000D03*
D19*
X74849500Y-42758500D03*
X74849500Y-34558501D03*
X69849500Y-42758500D03*
X69849500Y-34558501D03*
X64849500Y-42758500D03*
X64849500Y-34558501D03*
X59849500Y-42758500D03*
X59849500Y-34558501D03*
X51203100Y-42782099D03*
X51203100Y-34582100D03*
X46203100Y-42782099D03*
X46203100Y-34582100D03*
X98809500Y-42718499D03*
X98809500Y-34518500D03*
X93809500Y-42718499D03*
X93809500Y-34518500D03*
X88809500Y-42718499D03*
X88809500Y-34518500D03*
X83809500Y-42718499D03*
X83809500Y-34518500D03*
D20*
X49249500Y-49088500D03*
X49239500Y-54168500D03*
D21*
X104267500Y-49212500D03*
X37973500Y-49212500D03*
D22*
X91454274Y-73923320D03*
D23*
X88914274Y-73923320D03*
X86374274Y-73923320D03*
X83834274Y-73923320D03*
X83834274Y-81543320D03*
X86374274Y-81543320D03*
X88914274Y-81543320D03*
X91454274Y-81543320D03*
D22*
X102630274Y-73923320D03*
D23*
X100090274Y-73923320D03*
X97550274Y-73923320D03*
X95010274Y-73923320D03*
X95010274Y-81543320D03*
X97550274Y-81543320D03*
X100090274Y-81543320D03*
X102630274Y-81543320D03*
D13*
X39835000Y-110219000D03*
D14*
X42335000Y-110219000D03*
D10*
X84783000Y-88341600D03*
D11*
X87323000Y-88341600D03*
X89863000Y-88341600D03*
X92403000Y-88341600D03*
D10*
X89800000Y-113090000D03*
D11*
X92340000Y-113090000D03*
D10*
X79000000Y-95200000D03*
D11*
X79000000Y-92660000D03*
X79000000Y-90120000D03*
D12*
X88773500Y-52895500D03*
X88773500Y-47815500D03*
X98831900Y-52895500D03*
X98831900Y-47815500D03*
D10*
X72410000Y-100975000D03*
D11*
X72410000Y-103515000D03*
D10*
X76325000Y-109200000D03*
D11*
X78865000Y-109200000D03*
D24*
X93218000Y-85217000D03*
D12*
X74690000Y-52959000D03*
X74690000Y-47879000D03*
D25*
X71296000Y-108675900D03*
D26*
X62656000Y-112855900D03*
D25*
X62656000Y-108675900D03*
D26*
X71296000Y-112855900D03*
D10*
X56261500Y-104470200D03*
D11*
X56261500Y-101930200D03*
X56261500Y-99390200D03*
D12*
X93802700Y-52895500D03*
X93802700Y-47815500D03*
D27*
X61976000Y-77470000D03*
D20*
X61976000Y-74930000D03*
X61976000Y-64770000D03*
X61976000Y-57150000D03*
D27*
X66802000Y-77470000D03*
D20*
X66802000Y-74930000D03*
X66802000Y-64770000D03*
X66802000Y-57150000D03*
D12*
X64770000Y-52959000D03*
X64770000Y-47879000D03*
D27*
X76581000Y-77470000D03*
D20*
X76581000Y-74930000D03*
X76581000Y-64770000D03*
X76581000Y-57150000D03*
D27*
X71628000Y-77470000D03*
D20*
X71628000Y-74930000D03*
X71628000Y-64770000D03*
X71628000Y-57150000D03*
D28*
X45149000Y-103759000D03*
D29*
X47649000Y-103759000D03*
D12*
X83795100Y-52895500D03*
X83795100Y-47815500D03*
X59817000Y-52959000D03*
X59817000Y-47879000D03*
D10*
X69787000Y-85979000D03*
D11*
X67247000Y-85979000D03*
X64707000Y-85979000D03*
X62167000Y-85979000D03*
D21*
X37973500Y-99212500D03*
D12*
X69690000Y-52959000D03*
X69690000Y-47879000D03*
D30*
X96825000Y-90290000D03*
X99950000Y-90290000D03*
D31*
X84074500Y-62008000D03*
X84074500Y-66008000D03*
D32*
X74168000Y-106172000D03*
X96457000Y-88011000D03*
X98360000Y-89970000D03*
X97663000Y-88392000D03*
X76200000Y-105156000D03*
X76264000Y-83312000D03*
X77534000Y-83820000D03*
X78804000Y-84455000D03*
X80074000Y-84582000D03*
X90850000Y-94200000D03*
X75883000Y-90932000D03*
X75969500Y-93395800D03*
X95700000Y-102700000D03*
X91100000Y-99800000D03*
X100063800Y-88392000D03*
X88329000Y-83947000D03*
X54229000Y-104267000D03*
X86906600Y-83896200D03*
X99149400Y-83845400D03*
X63343400Y-93501600D03*
X72269500Y-93465500D03*
X72263000Y-90805000D03*
X100087000Y-89916000D03*
X63500000Y-100800000D03*
X98285800Y-83845400D03*
X93790000Y-89662000D03*
X63200000Y-102100000D03*
X61976000Y-105664000D03*
X70500000Y-100800000D03*
X94200000Y-102700000D03*
X75000000Y-102800000D03*
X54229000Y-102489000D03*
X38608000Y-106299000D03*
X88430600Y-85420200D03*
X38608000Y-104267000D03*
X70490000Y-101840000D03*
X66995998Y-106036400D03*
X95800000Y-97100000D03*
X63487800Y-81026000D03*
X85100000Y-112000000D03*
X85100000Y-113100000D03*
X99560000Y-85390000D03*
X97981000Y-85344000D03*
X90300000Y-100600000D03*
X54229000Y-106299000D03*
X81423511Y-84883489D03*
X62600000Y-106440000D03*
X88011000Y-96774000D03*
X86906600Y-85420200D03*
X63343400Y-91088600D03*
X85100000Y-114300000D03*
X70104000Y-106172000D03*
X71120000Y-106172000D03*
X78613000Y-77724000D03*
X87249000Y-97536000D03*
X92800000Y-102700000D03*
X67945000Y-97028000D03*
X84357066Y-107600500D03*
X83500000Y-108400000D03*
X81800000Y-91200000D03*
X89360000Y-94170000D03*
X84408768Y-99421232D03*
X80223958Y-99172500D03*
X80223958Y-98122500D03*
X85151232Y-98678768D03*
X73736200Y-113741200D03*
D33*
X86374274Y-81543320D02*
X88933633Y-81543320D01*
X97145000Y-89970000D02*
X96825000Y-90290000D01*
D34*
X71692510Y-110880000D02*
X73361255Y-109211255D01*
D33*
X97663000Y-88392000D02*
X97663000Y-89273000D01*
X96435000Y-91525000D02*
X96805000Y-91525000D01*
X96435000Y-91525000D02*
X96435000Y-89205000D01*
D34*
X73361255Y-106738745D02*
X74900000Y-105200000D01*
D33*
X88933633Y-81543320D02*
X90956313Y-83566000D01*
X98360000Y-89970000D02*
X97145000Y-89970000D01*
D34*
X62259490Y-110880000D02*
X71692510Y-110880000D01*
D33*
X95527594Y-83566000D02*
X95527594Y-87081594D01*
X97663000Y-89273000D02*
X98360000Y-89970000D01*
X97282000Y-88011000D02*
X97663000Y-88392000D01*
D34*
X74900000Y-105200000D02*
X82760000Y-105200000D01*
D33*
X96825000Y-90290000D02*
X96825000Y-91135000D01*
X96435000Y-88033000D02*
X96457000Y-88011000D01*
X100090274Y-81543320D02*
X97550274Y-81543320D01*
X97663000Y-88392000D02*
X97248000Y-88392000D01*
D34*
X82760000Y-105200000D02*
X84130000Y-103830000D01*
D33*
X95527594Y-83566000D02*
X97550274Y-81543320D01*
X96825000Y-91135000D02*
X96435000Y-91525000D01*
D34*
X56261500Y-108343700D02*
X59723190Y-108343700D01*
D33*
X96825000Y-89230000D02*
X97663000Y-88392000D01*
D34*
X73361255Y-109211255D02*
X73361255Y-106738745D01*
D33*
X96435000Y-89205000D02*
X96435000Y-88033000D01*
X96457000Y-88011000D02*
X97282000Y-88011000D01*
X90956313Y-83566000D02*
X95527594Y-83566000D01*
X97248000Y-88392000D02*
X96435000Y-89205000D01*
D34*
X59723190Y-108343700D02*
X62259490Y-110880000D01*
D33*
X96825000Y-90290000D02*
X96825000Y-89230000D01*
X95527594Y-87081594D02*
X96457000Y-88011000D01*
D34*
X84130000Y-103830000D02*
X96435000Y-91525000D01*
D33*
X96805000Y-91525000D02*
X98360000Y-89970000D01*
D35*
X62167000Y-85827000D02*
X64615551Y-83378449D01*
X64615551Y-83378449D02*
X76197551Y-83378449D01*
X76197551Y-83378449D02*
X76264000Y-83312000D01*
X66422489Y-84111511D02*
X64707000Y-85827000D01*
X77534000Y-83820000D02*
X77242489Y-84111511D01*
X77242489Y-84111511D02*
X66422489Y-84111511D01*
X78804000Y-84455000D02*
X78547969Y-84711031D01*
X68362969Y-84711031D02*
X67247000Y-85827000D01*
X78547969Y-84711031D02*
X68362969Y-84711031D01*
X71785551Y-85310551D02*
X70455449Y-85310551D01*
X79345449Y-85310551D02*
X71785551Y-85310551D01*
X80074000Y-84582000D02*
X79345449Y-85310551D01*
X70455449Y-85310551D02*
X69787000Y-85979000D01*
D36*
X46203100Y-34582100D02*
X46203100Y-38823900D01*
X41703800Y-59011450D02*
X41703800Y-61940300D01*
X43815000Y-56900250D02*
X41703800Y-59011450D01*
X43815000Y-45170199D02*
X43815000Y-56900250D01*
X38614050Y-65030050D02*
X34839100Y-68805000D01*
D37*
X53086000Y-65151000D02*
X44914500Y-65151000D01*
D36*
X46203100Y-42782099D02*
X43815000Y-45170199D01*
X41703800Y-61940300D02*
X38614050Y-65030050D01*
D37*
X59398454Y-60649511D02*
X82557511Y-60649511D01*
D36*
X46203100Y-38823900D02*
X46203100Y-42782099D01*
D37*
X59398454Y-60649511D02*
X57587489Y-60649511D01*
X44914500Y-65151000D02*
X41703800Y-61940300D01*
X82557511Y-60649511D02*
X84074500Y-62166500D01*
X57587489Y-60649511D02*
X53086000Y-65151000D01*
D35*
X75969500Y-93395800D02*
X75969500Y-91781500D01*
X75883000Y-90932000D02*
X76351000Y-91400000D01*
X87050000Y-90400000D02*
X90850000Y-94200000D01*
X80030000Y-91370000D02*
X81000000Y-90400000D01*
X81000000Y-90400000D02*
X87050000Y-90400000D01*
X76321000Y-91370000D02*
X80030000Y-91370000D01*
X75969500Y-91781500D02*
X76351000Y-91400000D01*
X75883000Y-90932000D02*
X76321000Y-91370000D01*
D33*
X55413611Y-73230489D02*
X54839100Y-73805000D01*
X100087000Y-91073000D02*
X95800000Y-95360000D01*
X81423511Y-80534511D02*
X81423511Y-81898489D01*
X77284962Y-73230489D02*
X55413611Y-73230489D01*
X100087000Y-89916000D02*
X100087000Y-88415200D01*
X78613000Y-77724000D02*
X81423511Y-80534511D01*
X81423511Y-81898489D02*
X81423511Y-84883489D01*
X78613000Y-77724000D02*
X78613000Y-74558527D01*
X100087000Y-89916000D02*
X100087000Y-91073000D01*
X78613000Y-74558527D02*
X77284962Y-73230489D01*
X100087000Y-88415200D02*
X100063800Y-88392000D01*
X95800000Y-95360000D02*
X95800000Y-97100000D01*
D35*
X76325000Y-109200000D02*
X77924500Y-107600500D01*
X77924500Y-107600500D02*
X84357066Y-107600500D01*
X79600000Y-108400000D02*
X78865000Y-109135000D01*
X83500000Y-108400000D02*
X79600000Y-108400000D01*
X78865000Y-109135000D02*
X78865000Y-109200000D01*
D34*
X84074500Y-66008000D02*
X86265500Y-68199000D01*
X86265500Y-68199000D02*
X88710000Y-68199000D01*
X97550274Y-68276274D02*
X97473000Y-68199000D01*
X86374274Y-68307774D02*
X86265500Y-68199000D01*
X97550274Y-73923320D02*
X97550274Y-68276274D01*
X88914274Y-73923320D02*
X88914274Y-68403274D01*
X98616000Y-68199000D02*
X100090274Y-69673274D01*
X86374274Y-73923320D02*
X86374274Y-68307774D01*
X88914274Y-68403274D02*
X88710000Y-68199000D01*
X88710000Y-68199000D02*
X97473000Y-68199000D01*
X100090274Y-69673274D02*
X100090274Y-73923320D01*
X97473000Y-68199000D02*
X98616000Y-68199000D01*
D35*
X86390000Y-91200000D02*
X81800000Y-91200000D01*
X89360000Y-94170000D02*
X86390000Y-91200000D01*
D38*
X80523957Y-98872501D02*
X84284302Y-98872501D01*
X84284302Y-98872501D02*
X84408768Y-98996967D01*
X80223958Y-99172500D02*
X80523957Y-98872501D01*
X84408768Y-98996967D02*
X84408768Y-99421232D01*
X80523957Y-98422499D02*
X84470698Y-98422499D01*
X80223958Y-98122500D02*
X80523957Y-98422499D01*
X84470698Y-98422499D02*
X84726967Y-98678768D01*
X84726967Y-98678768D02*
X85151232Y-98678768D01*
D33*
X73685400Y-113741200D02*
X73736200Y-113741200D01*
X71296000Y-112855900D02*
X72800100Y-112855900D01*
X72800100Y-112855900D02*
X73685400Y-113741200D01*
G04 #@! TA.AperFunction,Conductor*
G36*
X56646109Y-72156502D02*
G01*
X56692602Y-72210158D01*
X56703988Y-72262699D01*
X56692119Y-79751538D01*
X60837206Y-79760137D01*
X78537656Y-79796857D01*
X78605735Y-79817001D01*
X78652117Y-79870753D01*
X78663395Y-79922580D01*
X78670802Y-83288774D01*
X78671161Y-83452129D01*
X78651309Y-83520293D01*
X78597755Y-83566904D01*
X78571358Y-83575653D01*
X78531265Y-83584175D01*
X78460474Y-83578773D01*
X78403841Y-83535956D01*
X78385235Y-83499865D01*
X78370568Y-83454725D01*
X78370567Y-83454724D01*
X78368527Y-83448444D01*
X78273040Y-83283056D01*
X78145253Y-83141134D01*
X78028338Y-83056190D01*
X77996094Y-83032763D01*
X77996093Y-83032762D01*
X77990752Y-83028882D01*
X77984724Y-83026198D01*
X77984722Y-83026197D01*
X77822319Y-82953891D01*
X77822318Y-82953891D01*
X77816288Y-82951206D01*
X77717416Y-82930190D01*
X77635944Y-82912872D01*
X77635939Y-82912872D01*
X77629487Y-82911500D01*
X77438513Y-82911500D01*
X77432061Y-82912872D01*
X77432056Y-82912872D01*
X77302343Y-82940444D01*
X77251712Y-82951206D01*
X77245679Y-82953892D01*
X77245676Y-82953893D01*
X77238438Y-82957116D01*
X77168071Y-82966551D01*
X77103774Y-82936445D01*
X77078069Y-82905010D01*
X77045595Y-82848763D01*
X77003040Y-82775056D01*
X76997368Y-82768756D01*
X76879675Y-82638045D01*
X76879674Y-82638044D01*
X76875253Y-82633134D01*
X76720752Y-82520882D01*
X76714724Y-82518198D01*
X76714722Y-82518197D01*
X76552319Y-82445891D01*
X76552318Y-82445891D01*
X76546288Y-82443206D01*
X76452888Y-82423353D01*
X76365944Y-82404872D01*
X76365939Y-82404872D01*
X76359487Y-82403500D01*
X76168513Y-82403500D01*
X76162061Y-82404872D01*
X76162056Y-82404872D01*
X76075112Y-82423353D01*
X75981712Y-82443206D01*
X75975682Y-82445891D01*
X75975681Y-82445891D01*
X75813278Y-82518197D01*
X75813276Y-82518198D01*
X75807248Y-82520882D01*
X75801907Y-82524762D01*
X75801906Y-82524763D01*
X75698257Y-82600069D01*
X75652747Y-82633134D01*
X75648665Y-82637668D01*
X75584824Y-82668303D01*
X75564524Y-82669949D01*
X64644463Y-82669949D01*
X64635893Y-82669657D01*
X64585775Y-82666240D01*
X64585771Y-82666240D01*
X64578199Y-82665724D01*
X64570722Y-82667029D01*
X64570721Y-82667029D01*
X64544243Y-82671650D01*
X64515248Y-82676711D01*
X64508730Y-82677672D01*
X64445309Y-82685347D01*
X64438208Y-82688030D01*
X64435599Y-82688671D01*
X64419289Y-82693134D01*
X64416753Y-82693899D01*
X64409267Y-82695206D01*
X64402310Y-82698260D01*
X64350756Y-82720891D01*
X64344652Y-82723382D01*
X64284895Y-82745962D01*
X64278632Y-82750266D01*
X64276266Y-82751503D01*
X64261454Y-82759748D01*
X64259200Y-82761081D01*
X64252246Y-82764134D01*
X64201549Y-82803036D01*
X64196219Y-82806908D01*
X64149831Y-82838788D01*
X64149826Y-82838793D01*
X64143570Y-82843092D01*
X64138519Y-82848762D01*
X64138517Y-82848763D01*
X64102116Y-82889619D01*
X64097135Y-82894895D01*
X62405209Y-84586821D01*
X62342897Y-84620847D01*
X62304260Y-84623167D01*
X62300364Y-84622799D01*
X62295284Y-84621894D01*
X62229174Y-84621086D01*
X62077081Y-84619228D01*
X62077079Y-84619228D01*
X62071911Y-84619165D01*
X61851091Y-84652955D01*
X61638756Y-84722357D01*
X61440607Y-84825507D01*
X61436474Y-84828610D01*
X61436471Y-84828612D01*
X61270061Y-84953556D01*
X61261965Y-84959635D01*
X61107629Y-85121138D01*
X61104715Y-85125410D01*
X61104714Y-85125411D01*
X61019556Y-85250249D01*
X60981743Y-85305680D01*
X60934715Y-85406993D01*
X60895953Y-85490500D01*
X60887688Y-85508305D01*
X60827989Y-85723570D01*
X60804251Y-85945695D01*
X60804548Y-85950848D01*
X60804548Y-85950851D01*
X60813494Y-86106000D01*
X60817110Y-86168715D01*
X60818247Y-86173761D01*
X60818248Y-86173767D01*
X60842304Y-86280508D01*
X60866222Y-86386639D01*
X60912079Y-86499571D01*
X60933107Y-86551357D01*
X60950266Y-86593616D01*
X60987685Y-86654678D01*
X61064291Y-86779688D01*
X61066987Y-86784088D01*
X61213250Y-86952938D01*
X61385126Y-87095632D01*
X61578000Y-87208338D01*
X61786692Y-87288030D01*
X61791760Y-87289061D01*
X61791763Y-87289062D01*
X61855233Y-87301975D01*
X62005597Y-87332567D01*
X62010772Y-87332757D01*
X62010774Y-87332757D01*
X62223673Y-87340564D01*
X62223677Y-87340564D01*
X62228837Y-87340753D01*
X62233957Y-87340097D01*
X62233959Y-87340097D01*
X62445288Y-87313025D01*
X62445289Y-87313025D01*
X62450416Y-87312368D01*
X62469055Y-87306776D01*
X62659429Y-87249661D01*
X62659434Y-87249659D01*
X62664384Y-87248174D01*
X62864994Y-87149896D01*
X63046860Y-87020173D01*
X63058998Y-87008078D01*
X63142086Y-86925279D01*
X63205096Y-86862489D01*
X63264594Y-86779689D01*
X63335453Y-86681077D01*
X63336776Y-86682028D01*
X63383645Y-86638857D01*
X63453580Y-86626625D01*
X63519026Y-86654144D01*
X63546875Y-86685994D01*
X63606987Y-86784088D01*
X63753250Y-86952938D01*
X63925126Y-87095632D01*
X64118000Y-87208338D01*
X64326692Y-87288030D01*
X64331760Y-87289061D01*
X64331763Y-87289062D01*
X64395233Y-87301975D01*
X64545597Y-87332567D01*
X64550772Y-87332757D01*
X64550774Y-87332757D01*
X64763673Y-87340564D01*
X64763677Y-87340564D01*
X64768837Y-87340753D01*
X64773957Y-87340097D01*
X64773959Y-87340097D01*
X64985288Y-87313025D01*
X64985289Y-87313025D01*
X64990416Y-87312368D01*
X65009055Y-87306776D01*
X65199429Y-87249661D01*
X65199434Y-87249659D01*
X65204384Y-87248174D01*
X65404994Y-87149896D01*
X65586860Y-87020173D01*
X65598998Y-87008078D01*
X65682086Y-86925279D01*
X65745096Y-86862489D01*
X65804594Y-86779689D01*
X65875453Y-86681077D01*
X65876776Y-86682028D01*
X65923645Y-86638857D01*
X65993580Y-86626625D01*
X66059026Y-86654144D01*
X66086875Y-86685994D01*
X66146987Y-86784088D01*
X66293250Y-86952938D01*
X66465126Y-87095632D01*
X66658000Y-87208338D01*
X66866692Y-87288030D01*
X66871760Y-87289061D01*
X66871763Y-87289062D01*
X66935233Y-87301975D01*
X67085597Y-87332567D01*
X67090772Y-87332757D01*
X67090774Y-87332757D01*
X67303673Y-87340564D01*
X67303677Y-87340564D01*
X67308837Y-87340753D01*
X67313957Y-87340097D01*
X67313959Y-87340097D01*
X67525288Y-87313025D01*
X67525289Y-87313025D01*
X67530416Y-87312368D01*
X67549055Y-87306776D01*
X67739429Y-87249661D01*
X67739434Y-87249659D01*
X67744384Y-87248174D01*
X67944994Y-87149896D01*
X68126860Y-87020173D01*
X68235091Y-86912319D01*
X68297462Y-86878404D01*
X68368268Y-86883592D01*
X68425030Y-86926238D01*
X68442012Y-86957341D01*
X68467525Y-87025395D01*
X68486385Y-87075705D01*
X68573739Y-87192261D01*
X68690295Y-87279615D01*
X68826684Y-87330745D01*
X68888866Y-87337500D01*
X70685134Y-87337500D01*
X70747316Y-87330745D01*
X70883705Y-87279615D01*
X71000261Y-87192261D01*
X71087615Y-87075705D01*
X71138745Y-86939316D01*
X71145500Y-86877134D01*
X71145500Y-86145051D01*
X71165502Y-86076930D01*
X71219158Y-86030437D01*
X71271500Y-86019051D01*
X78562478Y-86019051D01*
X78630599Y-86039053D01*
X78676970Y-86092569D01*
X78677000Y-86106000D01*
X82614000Y-86106000D01*
X82614000Y-85761669D01*
X92210001Y-85761669D01*
X92210371Y-85768490D01*
X92215895Y-85819352D01*
X92219521Y-85834604D01*
X92264676Y-85955054D01*
X92273214Y-85970649D01*
X92349715Y-86072724D01*
X92362276Y-86085285D01*
X92464351Y-86161786D01*
X92479946Y-86170324D01*
X92600394Y-86215478D01*
X92615649Y-86219105D01*
X92666514Y-86224631D01*
X92673328Y-86225000D01*
X92945885Y-86225000D01*
X92961124Y-86220525D01*
X92962329Y-86219135D01*
X92964000Y-86211452D01*
X92964000Y-86206884D01*
X93472000Y-86206884D01*
X93476475Y-86222123D01*
X93477865Y-86223328D01*
X93485548Y-86224999D01*
X93762669Y-86224999D01*
X93769490Y-86224629D01*
X93820352Y-86219105D01*
X93835604Y-86215479D01*
X93956054Y-86170324D01*
X93971649Y-86161786D01*
X94073724Y-86085285D01*
X94086285Y-86072724D01*
X94162786Y-85970649D01*
X94171324Y-85955054D01*
X94216478Y-85834606D01*
X94220105Y-85819351D01*
X94225631Y-85768486D01*
X94226000Y-85761672D01*
X94226000Y-85489115D01*
X94221525Y-85473876D01*
X94220135Y-85472671D01*
X94212452Y-85471000D01*
X93490115Y-85471000D01*
X93474876Y-85475475D01*
X93473671Y-85476865D01*
X93472000Y-85484548D01*
X93472000Y-86206884D01*
X92964000Y-86206884D01*
X92964000Y-85489115D01*
X92959525Y-85473876D01*
X92958135Y-85472671D01*
X92950452Y-85471000D01*
X92228116Y-85471000D01*
X92212877Y-85475475D01*
X92211672Y-85476865D01*
X92210001Y-85484548D01*
X92210001Y-85761669D01*
X82614000Y-85761669D01*
X82614000Y-83056190D01*
X82634002Y-82988069D01*
X82687658Y-82941576D01*
X82739988Y-82930190D01*
X82922605Y-82930172D01*
X82994888Y-82952959D01*
X83111735Y-83034776D01*
X83177525Y-83080843D01*
X83182507Y-83083166D01*
X83182512Y-83083169D01*
X83295173Y-83135703D01*
X83385031Y-83177604D01*
X83390339Y-83179026D01*
X83390341Y-83179027D01*
X83600872Y-83235439D01*
X83600874Y-83235439D01*
X83606187Y-83236863D01*
X83834274Y-83256818D01*
X84062361Y-83236863D01*
X84067674Y-83235439D01*
X84067676Y-83235439D01*
X84278207Y-83179027D01*
X84278209Y-83179026D01*
X84283517Y-83177604D01*
X84373375Y-83135703D01*
X84486036Y-83083169D01*
X84486041Y-83083166D01*
X84491023Y-83080843D01*
X84673917Y-82952779D01*
X84746174Y-82929992D01*
X84992220Y-82929968D01*
X85462248Y-82929922D01*
X85534531Y-82952709D01*
X85651735Y-83034776D01*
X85717525Y-83080843D01*
X85722507Y-83083166D01*
X85722512Y-83083169D01*
X85835173Y-83135703D01*
X85925031Y-83177604D01*
X85930339Y-83179026D01*
X85930341Y-83179027D01*
X86140872Y-83235439D01*
X86140874Y-83235439D01*
X86146187Y-83236863D01*
X86374274Y-83256818D01*
X86602361Y-83236863D01*
X86607674Y-83235439D01*
X86607676Y-83235439D01*
X86818207Y-83179027D01*
X86818209Y-83179026D01*
X86823517Y-83177604D01*
X86913375Y-83135703D01*
X87026036Y-83083169D01*
X87026041Y-83083166D01*
X87031023Y-83080843D01*
X87214275Y-82952529D01*
X87286532Y-82929742D01*
X87559428Y-82929715D01*
X88001891Y-82929672D01*
X88074174Y-82952459D01*
X88111453Y-82978562D01*
X88257525Y-83080843D01*
X88262507Y-83083166D01*
X88262512Y-83083169D01*
X88375173Y-83135703D01*
X88465031Y-83177604D01*
X88470339Y-83179026D01*
X88470341Y-83179027D01*
X88680872Y-83235439D01*
X88680874Y-83235439D01*
X88686187Y-83236863D01*
X88914274Y-83256818D01*
X88919749Y-83256339D01*
X89137698Y-83237271D01*
X89207303Y-83251260D01*
X89237775Y-83273697D01*
X90199462Y-84235384D01*
X90208564Y-84245527D01*
X90232281Y-84275025D01*
X90270759Y-84307312D01*
X90274375Y-84310467D01*
X90276201Y-84312123D01*
X90278387Y-84314309D01*
X90280767Y-84316264D01*
X90280777Y-84316273D01*
X90311581Y-84341576D01*
X90312596Y-84342418D01*
X90383787Y-84402154D01*
X90388461Y-84404723D01*
X90392574Y-84408102D01*
X90398011Y-84411017D01*
X90398012Y-84411018D01*
X90474360Y-84451955D01*
X90475520Y-84452584D01*
X90515449Y-84474535D01*
X90557100Y-84497433D01*
X90562182Y-84499045D01*
X90566876Y-84501562D01*
X90655844Y-84528762D01*
X90656872Y-84529082D01*
X90745619Y-84557235D01*
X90750915Y-84557829D01*
X90756011Y-84559387D01*
X90848535Y-84568785D01*
X90849655Y-84568905D01*
X90882977Y-84572642D01*
X90896043Y-84574108D01*
X90896047Y-84574108D01*
X90899540Y-84574500D01*
X90903067Y-84574500D01*
X90904070Y-84574556D01*
X90909754Y-84575003D01*
X90935170Y-84577585D01*
X90946649Y-84578751D01*
X90946651Y-84578751D01*
X90952775Y-84579373D01*
X90998414Y-84575059D01*
X91010270Y-84574500D01*
X92084000Y-84574500D01*
X92152121Y-84594502D01*
X92198614Y-84648158D01*
X92210000Y-84700500D01*
X92210000Y-84944885D01*
X92214475Y-84960124D01*
X92215865Y-84961329D01*
X92223548Y-84963000D01*
X94207884Y-84963000D01*
X94223123Y-84958525D01*
X94224328Y-84957135D01*
X94225999Y-84949452D01*
X94225999Y-84700500D01*
X94246001Y-84632379D01*
X94299657Y-84585886D01*
X94351999Y-84574500D01*
X94393094Y-84574500D01*
X94461215Y-84594502D01*
X94507708Y-84648158D01*
X94519094Y-84700500D01*
X94519094Y-87019751D01*
X94518357Y-87033358D01*
X94515349Y-87061053D01*
X94514270Y-87070982D01*
X94515108Y-87080559D01*
X94518644Y-87120982D01*
X94518973Y-87125808D01*
X94519094Y-87128280D01*
X94519094Y-87131363D01*
X94519395Y-87134431D01*
X94523284Y-87174100D01*
X94523406Y-87175413D01*
X94524880Y-87192261D01*
X94531507Y-87268007D01*
X94532994Y-87273126D01*
X94533514Y-87278427D01*
X94560385Y-87367428D01*
X94560720Y-87368561D01*
X94582483Y-87443466D01*
X94586685Y-87457930D01*
X94589138Y-87462662D01*
X94590678Y-87467763D01*
X94593572Y-87473206D01*
X94634325Y-87549854D01*
X94634937Y-87551020D01*
X94662198Y-87603610D01*
X94677702Y-87633520D01*
X94681025Y-87637683D01*
X94683528Y-87642390D01*
X94742349Y-87714512D01*
X94743040Y-87715368D01*
X94774332Y-87754567D01*
X94776836Y-87757071D01*
X94777478Y-87757789D01*
X94781179Y-87762122D01*
X94808529Y-87795656D01*
X94843861Y-87824885D01*
X94852631Y-87832866D01*
X95133708Y-88113942D01*
X95389595Y-88369829D01*
X95423620Y-88432142D01*
X95426500Y-88458925D01*
X95426500Y-89147096D01*
X95425855Y-89159829D01*
X95421626Y-89201462D01*
X95425244Y-89239734D01*
X95425941Y-89247109D01*
X95426500Y-89258967D01*
X95426500Y-90701523D01*
X95406498Y-90769644D01*
X95389595Y-90790618D01*
X91970907Y-94209305D01*
X91908595Y-94243331D01*
X91837779Y-94238266D01*
X91780944Y-94195719D01*
X91756502Y-94133380D01*
X91744232Y-94016635D01*
X91744232Y-94016633D01*
X91743542Y-94010072D01*
X91684527Y-93828444D01*
X91589040Y-93663056D01*
X91525067Y-93592006D01*
X91465675Y-93526045D01*
X91465674Y-93526044D01*
X91461253Y-93521134D01*
X91306752Y-93408882D01*
X91300724Y-93406198D01*
X91300722Y-93406197D01*
X91138319Y-93333891D01*
X91138318Y-93333891D01*
X91132288Y-93331206D01*
X91032105Y-93309911D01*
X90979432Y-93298715D01*
X90916534Y-93264563D01*
X87571450Y-89919480D01*
X87565596Y-89913214D01*
X87537234Y-89880702D01*
X87507526Y-89816220D01*
X87517396Y-89745913D01*
X87563709Y-89692103D01*
X87604600Y-89675201D01*
X87606416Y-89674968D01*
X87611357Y-89673486D01*
X87611360Y-89673485D01*
X87815429Y-89612261D01*
X87815434Y-89612259D01*
X87820384Y-89610774D01*
X88020994Y-89512496D01*
X88202860Y-89382773D01*
X88247700Y-89338090D01*
X88288906Y-89297027D01*
X88361096Y-89225089D01*
X88491453Y-89043677D01*
X88492776Y-89044628D01*
X88539645Y-89001457D01*
X88609580Y-88989225D01*
X88675026Y-89016744D01*
X88702875Y-89048594D01*
X88762987Y-89146688D01*
X88909250Y-89315538D01*
X89046996Y-89429897D01*
X89067212Y-89446680D01*
X89081126Y-89458232D01*
X89274000Y-89570938D01*
X89482692Y-89650630D01*
X89487760Y-89651661D01*
X89487763Y-89651662D01*
X89585261Y-89671498D01*
X89701597Y-89695167D01*
X89706772Y-89695357D01*
X89706774Y-89695357D01*
X89919673Y-89703164D01*
X89919677Y-89703164D01*
X89924837Y-89703353D01*
X89929957Y-89702697D01*
X89929959Y-89702697D01*
X90141288Y-89675625D01*
X90141289Y-89675625D01*
X90146416Y-89674968D01*
X90157982Y-89671498D01*
X90355429Y-89612261D01*
X90355434Y-89612259D01*
X90360384Y-89610774D01*
X90560994Y-89512496D01*
X90742860Y-89382773D01*
X90787700Y-89338090D01*
X90828906Y-89297027D01*
X90901096Y-89225089D01*
X91031453Y-89043677D01*
X91032776Y-89044628D01*
X91079645Y-89001457D01*
X91149580Y-88989225D01*
X91215026Y-89016744D01*
X91242875Y-89048594D01*
X91302987Y-89146688D01*
X91449250Y-89315538D01*
X91586996Y-89429897D01*
X91607212Y-89446680D01*
X91621126Y-89458232D01*
X91814000Y-89570938D01*
X92022692Y-89650630D01*
X92027760Y-89651661D01*
X92027763Y-89651662D01*
X92125261Y-89671498D01*
X92241597Y-89695167D01*
X92246772Y-89695357D01*
X92246774Y-89695357D01*
X92459673Y-89703164D01*
X92459677Y-89703164D01*
X92464837Y-89703353D01*
X92469957Y-89702697D01*
X92469959Y-89702697D01*
X92681288Y-89675625D01*
X92681289Y-89675625D01*
X92686416Y-89674968D01*
X92697982Y-89671498D01*
X92895429Y-89612261D01*
X92895434Y-89612259D01*
X92900384Y-89610774D01*
X93100994Y-89512496D01*
X93282860Y-89382773D01*
X93327700Y-89338090D01*
X93368906Y-89297027D01*
X93441096Y-89225089D01*
X93571453Y-89043677D01*
X93592320Y-89001457D01*
X93668136Y-88848053D01*
X93668137Y-88848051D01*
X93670430Y-88843411D01*
X93735370Y-88629669D01*
X93764529Y-88408190D01*
X93764752Y-88399075D01*
X93766074Y-88344965D01*
X93766074Y-88344961D01*
X93766156Y-88341600D01*
X93747852Y-88118961D01*
X93693431Y-87902302D01*
X93604354Y-87697440D01*
X93509631Y-87551020D01*
X93485822Y-87514217D01*
X93485820Y-87514214D01*
X93483014Y-87509877D01*
X93332670Y-87344651D01*
X93328619Y-87341452D01*
X93328615Y-87341448D01*
X93161414Y-87209400D01*
X93161410Y-87209398D01*
X93157359Y-87206198D01*
X93119106Y-87185081D01*
X93099213Y-87174100D01*
X92961789Y-87098238D01*
X92956920Y-87096514D01*
X92956916Y-87096512D01*
X92756087Y-87025395D01*
X92756083Y-87025394D01*
X92751212Y-87023669D01*
X92746119Y-87022762D01*
X92746116Y-87022761D01*
X92536373Y-86985400D01*
X92536367Y-86985399D01*
X92531284Y-86984494D01*
X92457452Y-86983592D01*
X92313081Y-86981828D01*
X92313079Y-86981828D01*
X92307911Y-86981765D01*
X92087091Y-87015555D01*
X91874756Y-87084957D01*
X91849236Y-87098242D01*
X91706156Y-87172725D01*
X91676607Y-87188107D01*
X91672474Y-87191210D01*
X91672471Y-87191212D01*
X91502100Y-87319130D01*
X91497965Y-87322235D01*
X91480896Y-87340097D01*
X91353694Y-87473206D01*
X91343629Y-87483738D01*
X91236201Y-87641221D01*
X91181293Y-87686221D01*
X91110768Y-87694392D01*
X91047021Y-87663138D01*
X91026324Y-87638654D01*
X90945822Y-87514217D01*
X90945820Y-87514214D01*
X90943014Y-87509877D01*
X90792670Y-87344651D01*
X90788619Y-87341452D01*
X90788615Y-87341448D01*
X90621414Y-87209400D01*
X90621410Y-87209398D01*
X90617359Y-87206198D01*
X90579106Y-87185081D01*
X90559213Y-87174100D01*
X90421789Y-87098238D01*
X90416920Y-87096514D01*
X90416916Y-87096512D01*
X90216087Y-87025395D01*
X90216083Y-87025394D01*
X90211212Y-87023669D01*
X90206119Y-87022762D01*
X90206116Y-87022761D01*
X89996373Y-86985400D01*
X89996367Y-86985399D01*
X89991284Y-86984494D01*
X89917452Y-86983592D01*
X89773081Y-86981828D01*
X89773079Y-86981828D01*
X89767911Y-86981765D01*
X89547091Y-87015555D01*
X89334756Y-87084957D01*
X89309236Y-87098242D01*
X89166156Y-87172725D01*
X89136607Y-87188107D01*
X89132474Y-87191210D01*
X89132471Y-87191212D01*
X88962100Y-87319130D01*
X88957965Y-87322235D01*
X88940896Y-87340097D01*
X88813694Y-87473206D01*
X88803629Y-87483738D01*
X88696201Y-87641221D01*
X88641293Y-87686221D01*
X88570768Y-87694392D01*
X88507021Y-87663138D01*
X88486324Y-87638654D01*
X88405822Y-87514217D01*
X88405820Y-87514214D01*
X88403014Y-87509877D01*
X88252670Y-87344651D01*
X88248619Y-87341452D01*
X88248615Y-87341448D01*
X88081414Y-87209400D01*
X88081410Y-87209398D01*
X88077359Y-87206198D01*
X88039106Y-87185081D01*
X88019213Y-87174100D01*
X87881789Y-87098238D01*
X87876920Y-87096514D01*
X87876916Y-87096512D01*
X87676087Y-87025395D01*
X87676083Y-87025394D01*
X87671212Y-87023669D01*
X87666119Y-87022762D01*
X87666116Y-87022761D01*
X87456373Y-86985400D01*
X87456367Y-86985399D01*
X87451284Y-86984494D01*
X87377452Y-86983592D01*
X87233081Y-86981828D01*
X87233079Y-86981828D01*
X87227911Y-86981765D01*
X87007091Y-87015555D01*
X86794756Y-87084957D01*
X86769236Y-87098242D01*
X86626156Y-87172725D01*
X86596607Y-87188107D01*
X86592474Y-87191210D01*
X86592471Y-87191212D01*
X86422100Y-87319130D01*
X86417965Y-87322235D01*
X86356755Y-87386288D01*
X86337283Y-87406664D01*
X86275759Y-87442094D01*
X86204846Y-87438637D01*
X86147060Y-87397391D01*
X86128207Y-87363843D01*
X86086767Y-87253303D01*
X86083615Y-87244895D01*
X85996261Y-87128339D01*
X85879705Y-87040985D01*
X85743316Y-86989855D01*
X85681134Y-86983100D01*
X83884866Y-86983100D01*
X83822684Y-86989855D01*
X83686295Y-87040985D01*
X83569739Y-87128339D01*
X83482385Y-87244895D01*
X83431255Y-87381284D01*
X83424500Y-87443466D01*
X83424500Y-89239734D01*
X83431255Y-89301916D01*
X83482385Y-89438305D01*
X83521081Y-89489937D01*
X83545928Y-89556441D01*
X83530875Y-89625823D01*
X83480701Y-89676054D01*
X83420254Y-89691500D01*
X81028912Y-89691500D01*
X81020342Y-89691208D01*
X80970224Y-89687791D01*
X80970220Y-89687791D01*
X80962648Y-89687275D01*
X80955171Y-89688580D01*
X80955170Y-89688580D01*
X80934984Y-89692103D01*
X80899697Y-89698262D01*
X80893179Y-89699223D01*
X80829758Y-89706898D01*
X80822657Y-89709581D01*
X80820048Y-89710222D01*
X80803738Y-89714685D01*
X80801202Y-89715450D01*
X80793716Y-89716757D01*
X80786759Y-89719811D01*
X80735205Y-89742442D01*
X80729101Y-89744933D01*
X80669344Y-89767513D01*
X80663081Y-89771817D01*
X80660715Y-89773054D01*
X80645903Y-89781299D01*
X80643649Y-89782632D01*
X80636695Y-89785685D01*
X80585998Y-89824587D01*
X80580668Y-89828459D01*
X80534280Y-89860339D01*
X80534275Y-89860344D01*
X80528019Y-89864643D01*
X80525344Y-89867645D01*
X80462399Y-89897045D01*
X80392041Y-89887544D01*
X80337989Y-89841512D01*
X80321196Y-89803182D01*
X80305939Y-89742442D01*
X80290431Y-89680702D01*
X80201354Y-89475840D01*
X80138789Y-89379129D01*
X80082822Y-89292617D01*
X80082820Y-89292614D01*
X80080014Y-89288277D01*
X79929670Y-89123051D01*
X79925619Y-89119852D01*
X79925615Y-89119848D01*
X79758414Y-88987800D01*
X79758410Y-88987798D01*
X79754359Y-88984598D01*
X79558789Y-88876638D01*
X79553920Y-88874914D01*
X79553916Y-88874912D01*
X79353087Y-88803795D01*
X79353083Y-88803794D01*
X79348212Y-88802069D01*
X79343119Y-88801162D01*
X79343116Y-88801161D01*
X79133373Y-88763800D01*
X79133367Y-88763799D01*
X79128284Y-88762894D01*
X79054452Y-88761992D01*
X78910081Y-88760228D01*
X78910079Y-88760228D01*
X78904911Y-88760165D01*
X78684091Y-88793955D01*
X78471756Y-88863357D01*
X78273607Y-88966507D01*
X78269474Y-88969610D01*
X78269471Y-88969612D01*
X78116472Y-89084487D01*
X78094965Y-89100635D01*
X78091393Y-89104373D01*
X77958793Y-89243131D01*
X77940629Y-89262138D01*
X77937715Y-89266410D01*
X77937714Y-89266411D01*
X77900488Y-89320982D01*
X77814743Y-89446680D01*
X77781756Y-89517745D01*
X77735293Y-89617842D01*
X77720688Y-89649305D01*
X77660989Y-89864570D01*
X77637251Y-90086695D01*
X77637548Y-90091848D01*
X77637548Y-90091851D01*
X77642271Y-90173768D01*
X77650110Y-90309715D01*
X77651247Y-90314761D01*
X77651248Y-90314767D01*
X77694751Y-90507799D01*
X77690215Y-90578650D01*
X77648093Y-90635802D01*
X77581760Y-90661108D01*
X77571834Y-90661500D01*
X76841906Y-90661500D01*
X76773785Y-90641498D01*
X76727292Y-90587842D01*
X76722076Y-90574444D01*
X76717527Y-90560444D01*
X76622040Y-90395056D01*
X76602157Y-90372973D01*
X76498675Y-90258045D01*
X76498674Y-90258044D01*
X76494253Y-90253134D01*
X76339752Y-90140882D01*
X76333724Y-90138198D01*
X76333722Y-90138197D01*
X76171319Y-90065891D01*
X76171318Y-90065891D01*
X76165288Y-90063206D01*
X76062422Y-90041341D01*
X75984944Y-90024872D01*
X75984939Y-90024872D01*
X75978487Y-90023500D01*
X75787513Y-90023500D01*
X75781061Y-90024872D01*
X75781056Y-90024872D01*
X75703578Y-90041341D01*
X75600712Y-90063206D01*
X75594682Y-90065891D01*
X75594681Y-90065891D01*
X75432278Y-90138197D01*
X75432276Y-90138198D01*
X75426248Y-90140882D01*
X75271747Y-90253134D01*
X75267326Y-90258044D01*
X75267325Y-90258045D01*
X75163844Y-90372973D01*
X75143960Y-90395056D01*
X75048473Y-90560444D01*
X74989458Y-90742072D01*
X74969496Y-90932000D01*
X74970186Y-90938565D01*
X74985255Y-91081934D01*
X74989458Y-91121928D01*
X75048473Y-91303556D01*
X75143960Y-91468944D01*
X75148378Y-91473851D01*
X75148379Y-91473852D01*
X75237448Y-91572773D01*
X75268166Y-91636780D01*
X75267702Y-91680044D01*
X75257204Y-91736686D01*
X75257641Y-91744266D01*
X75257641Y-91744267D01*
X75260791Y-91798892D01*
X75261000Y-91806146D01*
X75261000Y-92777056D01*
X75240998Y-92845177D01*
X75236936Y-92851117D01*
X75234879Y-92853948D01*
X75230460Y-92858856D01*
X75227159Y-92864574D01*
X75227158Y-92864575D01*
X75176093Y-92953023D01*
X75134973Y-93024244D01*
X75075958Y-93205872D01*
X75055996Y-93395800D01*
X75056686Y-93402365D01*
X75071519Y-93543489D01*
X75075958Y-93585728D01*
X75134973Y-93767356D01*
X75138276Y-93773078D01*
X75138277Y-93773079D01*
X75160932Y-93812318D01*
X75230460Y-93932744D01*
X75234878Y-93937651D01*
X75234879Y-93937652D01*
X75300086Y-94010072D01*
X75358247Y-94074666D01*
X75512748Y-94186918D01*
X75518776Y-94189602D01*
X75518778Y-94189603D01*
X75681181Y-94261909D01*
X75687212Y-94264594D01*
X75780613Y-94284447D01*
X75867556Y-94302928D01*
X75867561Y-94302928D01*
X75874013Y-94304300D01*
X76064987Y-94304300D01*
X76071439Y-94302928D01*
X76071444Y-94302928D01*
X76158387Y-94284447D01*
X76251788Y-94264594D01*
X76257819Y-94261909D01*
X76420222Y-94189603D01*
X76420224Y-94189602D01*
X76426252Y-94186918D01*
X76580753Y-94074666D01*
X76638914Y-94010072D01*
X76704121Y-93937652D01*
X76704122Y-93937651D01*
X76708540Y-93932744D01*
X76778068Y-93812318D01*
X76800723Y-93773079D01*
X76800724Y-93773078D01*
X76804027Y-93767356D01*
X76863042Y-93585728D01*
X76867482Y-93543489D01*
X76882314Y-93402365D01*
X76883004Y-93395800D01*
X76863042Y-93205872D01*
X76804027Y-93024244D01*
X76762908Y-92953023D01*
X76711842Y-92864575D01*
X76711841Y-92864574D01*
X76708540Y-92858856D01*
X76704121Y-92853948D01*
X76702064Y-92851117D01*
X76678205Y-92784249D01*
X76678000Y-92777056D01*
X76678000Y-92204500D01*
X76698002Y-92136379D01*
X76751658Y-92089886D01*
X76804000Y-92078500D01*
X77585719Y-92078500D01*
X77653840Y-92098502D01*
X77700333Y-92152158D01*
X77710437Y-92222432D01*
X77707137Y-92238166D01*
X77660989Y-92404570D01*
X77637251Y-92626695D01*
X77637548Y-92631848D01*
X77637548Y-92631851D01*
X77646335Y-92784249D01*
X77650110Y-92849715D01*
X77651247Y-92854761D01*
X77651248Y-92854767D01*
X77671119Y-92942939D01*
X77699222Y-93067639D01*
X77783266Y-93274616D01*
X77899987Y-93465088D01*
X78046250Y-93633938D01*
X78050230Y-93637242D01*
X78054981Y-93641187D01*
X78094616Y-93700090D01*
X78096113Y-93771071D01*
X78058997Y-93831593D01*
X78018724Y-93856112D01*
X77903295Y-93899385D01*
X77786739Y-93986739D01*
X77699385Y-94103295D01*
X77648255Y-94239684D01*
X77641500Y-94301866D01*
X77641500Y-96098134D01*
X77648255Y-96160316D01*
X77699385Y-96296705D01*
X77786739Y-96413261D01*
X77903295Y-96500615D01*
X78039684Y-96551745D01*
X78101866Y-96558500D01*
X79898134Y-96558500D01*
X79960316Y-96551745D01*
X80096705Y-96500615D01*
X80213261Y-96413261D01*
X80300615Y-96296705D01*
X80351745Y-96160316D01*
X80358500Y-96098134D01*
X80358500Y-94301866D01*
X80351745Y-94239684D01*
X80300615Y-94103295D01*
X80213261Y-93986739D01*
X80096705Y-93899385D01*
X80084132Y-93894672D01*
X79978203Y-93854960D01*
X79921439Y-93812318D01*
X79896739Y-93745756D01*
X79911947Y-93676408D01*
X79933493Y-93647727D01*
X80034435Y-93547137D01*
X80038096Y-93543489D01*
X80097594Y-93460689D01*
X80165435Y-93366277D01*
X80168453Y-93362077D01*
X80182384Y-93333891D01*
X80265136Y-93166453D01*
X80265137Y-93166451D01*
X80267430Y-93161811D01*
X80332370Y-92948069D01*
X80361529Y-92726590D01*
X80363156Y-92660000D01*
X80344852Y-92437361D01*
X80290431Y-92220702D01*
X80271607Y-92177409D01*
X80262788Y-92106963D01*
X80293455Y-92042931D01*
X80342621Y-92009302D01*
X80353546Y-92005174D01*
X80353549Y-92005173D01*
X80360656Y-92002487D01*
X80366919Y-91998183D01*
X80369285Y-91996946D01*
X80384097Y-91988701D01*
X80386351Y-91987368D01*
X80393305Y-91984315D01*
X80444002Y-91945413D01*
X80449332Y-91941541D01*
X80495720Y-91909661D01*
X80495725Y-91909656D01*
X80501981Y-91905357D01*
X80543436Y-91858829D01*
X80548416Y-91853554D01*
X80799927Y-91602043D01*
X80862239Y-91568017D01*
X80933054Y-91573082D01*
X80989890Y-91615629D01*
X80998139Y-91628134D01*
X81060960Y-91736944D01*
X81065378Y-91741851D01*
X81065379Y-91741852D01*
X81184325Y-91873955D01*
X81188747Y-91878866D01*
X81225209Y-91905357D01*
X81333885Y-91984315D01*
X81343248Y-91991118D01*
X81349276Y-91993802D01*
X81349278Y-91993803D01*
X81511681Y-92066109D01*
X81517712Y-92068794D01*
X81611112Y-92088647D01*
X81698056Y-92107128D01*
X81698061Y-92107128D01*
X81704513Y-92108500D01*
X81895487Y-92108500D01*
X81901939Y-92107128D01*
X81901944Y-92107128D01*
X81988888Y-92088647D01*
X82082288Y-92068794D01*
X82088319Y-92066109D01*
X82250722Y-91993803D01*
X82250724Y-91993802D01*
X82256752Y-91991118D01*
X82266116Y-91984315D01*
X82337344Y-91932564D01*
X82404211Y-91908706D01*
X82411405Y-91908500D01*
X86044340Y-91908500D01*
X86112461Y-91928502D01*
X86133435Y-91945405D01*
X88425335Y-94237306D01*
X88459361Y-94299618D01*
X88461550Y-94313230D01*
X88466458Y-94359928D01*
X88525473Y-94541556D01*
X88620960Y-94706944D01*
X88748747Y-94848866D01*
X88903248Y-94961118D01*
X88909276Y-94963802D01*
X88909278Y-94963803D01*
X88970629Y-94991118D01*
X89077712Y-95038794D01*
X89171113Y-95058647D01*
X89258056Y-95077128D01*
X89258061Y-95077128D01*
X89264513Y-95078500D01*
X89455487Y-95078500D01*
X89461939Y-95077128D01*
X89461944Y-95077128D01*
X89548887Y-95058647D01*
X89642288Y-95038794D01*
X89749371Y-94991118D01*
X89810722Y-94963803D01*
X89810724Y-94963802D01*
X89816752Y-94961118D01*
X89971253Y-94848866D01*
X89997858Y-94819318D01*
X90058304Y-94782078D01*
X90129287Y-94783430D01*
X90185130Y-94819318D01*
X90238747Y-94878866D01*
X90393248Y-94991118D01*
X90399276Y-94993802D01*
X90399278Y-94993803D01*
X90503412Y-95040166D01*
X90567712Y-95068794D01*
X90661113Y-95088647D01*
X90748056Y-95107128D01*
X90748061Y-95107128D01*
X90754513Y-95108500D01*
X90767522Y-95108500D01*
X90835643Y-95128502D01*
X90882136Y-95182158D01*
X90892240Y-95252432D01*
X90862746Y-95317012D01*
X90856617Y-95323595D01*
X82275617Y-103904595D01*
X82213305Y-103938621D01*
X82186522Y-103941500D01*
X74991395Y-103941500D01*
X74974948Y-103940422D01*
X74958483Y-103938254D01*
X74958479Y-103938254D01*
X74952913Y-103937521D01*
X74871512Y-103941360D01*
X74865576Y-103941500D01*
X74843001Y-103941500D01*
X74823981Y-103943197D01*
X74817011Y-103943819D01*
X74811749Y-103944178D01*
X74795568Y-103944941D01*
X74728512Y-103948104D01*
X74723053Y-103949354D01*
X74723048Y-103949355D01*
X74711030Y-103952108D01*
X74694101Y-103954789D01*
X74676238Y-103956383D01*
X74670822Y-103957865D01*
X74670820Y-103957865D01*
X74595867Y-103978370D01*
X74590749Y-103979656D01*
X74515000Y-103997005D01*
X74514998Y-103997006D01*
X74509530Y-103998258D01*
X74499030Y-104002737D01*
X74493033Y-104005294D01*
X74476858Y-104010927D01*
X74464961Y-104014182D01*
X74464957Y-104014183D01*
X74459549Y-104015663D01*
X74454483Y-104018079D01*
X74454484Y-104018079D01*
X74384333Y-104051539D01*
X74379524Y-104053710D01*
X74302891Y-104086397D01*
X74287890Y-104096251D01*
X74272975Y-104104654D01*
X74256782Y-104112378D01*
X74252231Y-104115648D01*
X74252228Y-104115650D01*
X74189119Y-104160999D01*
X74184768Y-104163989D01*
X74118990Y-104207196D01*
X74118982Y-104207202D01*
X74115126Y-104209735D01*
X74094338Y-104228257D01*
X74084061Y-104236490D01*
X74074346Y-104243471D01*
X74070444Y-104247498D01*
X73999938Y-104320254D01*
X73998549Y-104321664D01*
X72535992Y-105784220D01*
X72523602Y-105795087D01*
X72505963Y-105808622D01*
X72502193Y-105812765D01*
X72502191Y-105812767D01*
X72451118Y-105868897D01*
X72447019Y-105873193D01*
X72431057Y-105889155D01*
X72429265Y-105891299D01*
X72429257Y-105891307D01*
X72414323Y-105909168D01*
X72410855Y-105913143D01*
X72358543Y-105970633D01*
X72358536Y-105970642D01*
X72354770Y-105974781D01*
X72351793Y-105979527D01*
X72351792Y-105979528D01*
X72345242Y-105989970D01*
X72335166Y-106003838D01*
X72327259Y-106013294D01*
X72327252Y-106013304D01*
X72323661Y-106017599D01*
X72288213Y-106079746D01*
X72282373Y-106089985D01*
X72279663Y-106094513D01*
X72240761Y-106156529D01*
X72235391Y-106165089D01*
X72233298Y-106170294D01*
X72233297Y-106170297D01*
X72228703Y-106181724D01*
X72221243Y-106197156D01*
X72215135Y-106207864D01*
X72215131Y-106207873D01*
X72212356Y-106212738D01*
X72210487Y-106218015D01*
X72210485Y-106218020D01*
X72184540Y-106291287D01*
X72182675Y-106296223D01*
X72162131Y-106347328D01*
X72151599Y-106373528D01*
X72150463Y-106379015D01*
X72150462Y-106379017D01*
X72147961Y-106391094D01*
X72143356Y-106407589D01*
X72137366Y-106424504D01*
X72131191Y-106462214D01*
X72123898Y-106506746D01*
X72122938Y-106511925D01*
X72106042Y-106593512D01*
X72105776Y-106598124D01*
X72105776Y-106598125D01*
X72104440Y-106621293D01*
X72102993Y-106634398D01*
X72101969Y-106640655D01*
X72101061Y-106646202D01*
X72101149Y-106651815D01*
X72101149Y-106651817D01*
X72102739Y-106753009D01*
X72102755Y-106754988D01*
X72102755Y-107216618D01*
X72082753Y-107284739D01*
X72029097Y-107331232D01*
X71958823Y-107341336D01*
X71896439Y-107313702D01*
X71867426Y-107289700D01*
X71867424Y-107289698D01*
X71862675Y-107285770D01*
X71688701Y-107191702D01*
X71499768Y-107133218D01*
X71493643Y-107132574D01*
X71493642Y-107132574D01*
X71309204Y-107113189D01*
X71309202Y-107113189D01*
X71303075Y-107112545D01*
X71223235Y-107119811D01*
X71112251Y-107129911D01*
X71112248Y-107129912D01*
X71106112Y-107130470D01*
X71100206Y-107132208D01*
X71100202Y-107132209D01*
X70995076Y-107163149D01*
X70916381Y-107186310D01*
X70910923Y-107189163D01*
X70910919Y-107189165D01*
X70850381Y-107220814D01*
X70741110Y-107277940D01*
X70586975Y-107401868D01*
X70459846Y-107553374D01*
X70456879Y-107558772D01*
X70456875Y-107558777D01*
X70433938Y-107600500D01*
X70364567Y-107726687D01*
X70362706Y-107732554D01*
X70362705Y-107732556D01*
X70339853Y-107804595D01*
X70304765Y-107915206D01*
X70287500Y-108069127D01*
X70287500Y-108288762D01*
X70267498Y-108356883D01*
X70213842Y-108403376D01*
X70143568Y-108413480D01*
X70134014Y-108411728D01*
X69964494Y-108373836D01*
X69964495Y-108373836D01*
X69959457Y-108372710D01*
X69953912Y-108372400D01*
X69820756Y-108372400D01*
X69685963Y-108387043D01*
X69567810Y-108426806D01*
X69520796Y-108442628D01*
X69520794Y-108442629D01*
X69514325Y-108444806D01*
X69359095Y-108538077D01*
X69354138Y-108542765D01*
X69354135Y-108542767D01*
X69303650Y-108590509D01*
X69227515Y-108662507D01*
X69223683Y-108668145D01*
X69223680Y-108668149D01*
X69149515Y-108777279D01*
X69125723Y-108812288D01*
X69058470Y-108980434D01*
X69057356Y-108987162D01*
X69057355Y-108987166D01*
X69032013Y-109140243D01*
X69028892Y-109159098D01*
X69029249Y-109165915D01*
X69029249Y-109165919D01*
X69036722Y-109308500D01*
X69038370Y-109339947D01*
X69040181Y-109346520D01*
X69040181Y-109346523D01*
X69072000Y-109462040D01*
X69070806Y-109533027D01*
X69031423Y-109592099D01*
X68966356Y-109620501D01*
X68950524Y-109621500D01*
X65003583Y-109621500D01*
X64935462Y-109601498D01*
X64888969Y-109547842D01*
X64878865Y-109477568D01*
X64886593Y-109448709D01*
X64887041Y-109447591D01*
X64893530Y-109431366D01*
X64894644Y-109424638D01*
X64894645Y-109424634D01*
X64921993Y-109259439D01*
X64921993Y-109259436D01*
X64923108Y-109252702D01*
X64922717Y-109245231D01*
X64914201Y-109082749D01*
X64913630Y-109071853D01*
X64894456Y-109002240D01*
X64867352Y-108903841D01*
X64865539Y-108897259D01*
X64781078Y-108737064D01*
X64776673Y-108731851D01*
X64776670Y-108731847D01*
X64668594Y-108603957D01*
X64668590Y-108603953D01*
X64664187Y-108598743D01*
X64658762Y-108594595D01*
X64525743Y-108492894D01*
X64525739Y-108492891D01*
X64520322Y-108488750D01*
X64362478Y-108415146D01*
X64362369Y-108415095D01*
X64362366Y-108415094D01*
X64356192Y-108412215D01*
X64349544Y-108410729D01*
X64349541Y-108410728D01*
X64184494Y-108373836D01*
X64184495Y-108373836D01*
X64179457Y-108372710D01*
X64173912Y-108372400D01*
X64040756Y-108372400D01*
X63905963Y-108387043D01*
X63830688Y-108412376D01*
X63759747Y-108415146D01*
X63698568Y-108379123D01*
X63666577Y-108315742D01*
X63664500Y-108292957D01*
X63664500Y-108076131D01*
X63663814Y-108069127D01*
X63650681Y-107935201D01*
X63650080Y-107929067D01*
X63641119Y-107899385D01*
X63622773Y-107838621D01*
X63592916Y-107739731D01*
X63500066Y-107565104D01*
X63402573Y-107445566D01*
X63378960Y-107416613D01*
X63378957Y-107416610D01*
X63375065Y-107411838D01*
X63365946Y-107404294D01*
X63227425Y-107289699D01*
X63227421Y-107289697D01*
X63222675Y-107285770D01*
X63048701Y-107191702D01*
X62859768Y-107133218D01*
X62853643Y-107132574D01*
X62853642Y-107132574D01*
X62669204Y-107113189D01*
X62669202Y-107113189D01*
X62663075Y-107112545D01*
X62583235Y-107119811D01*
X62472251Y-107129911D01*
X62472248Y-107129912D01*
X62466112Y-107130470D01*
X62460206Y-107132208D01*
X62460202Y-107132209D01*
X62355076Y-107163149D01*
X62276381Y-107186310D01*
X62270923Y-107189163D01*
X62270919Y-107189165D01*
X62210381Y-107220814D01*
X62101110Y-107277940D01*
X61946975Y-107401868D01*
X61819846Y-107553374D01*
X61816879Y-107558772D01*
X61816875Y-107558777D01*
X61793938Y-107600500D01*
X61724567Y-107726687D01*
X61722706Y-107732554D01*
X61722705Y-107732556D01*
X61699853Y-107804595D01*
X61664765Y-107915206D01*
X61647500Y-108069127D01*
X61647500Y-108184032D01*
X61627498Y-108252153D01*
X61573842Y-108298646D01*
X61503568Y-108308750D01*
X61438988Y-108279256D01*
X61432405Y-108273127D01*
X60677715Y-107518437D01*
X60666847Y-107506046D01*
X60656723Y-107492852D01*
X60653313Y-107488408D01*
X60593016Y-107433542D01*
X60588721Y-107429443D01*
X60572780Y-107413502D01*
X60564516Y-107406592D01*
X60552767Y-107396768D01*
X60548792Y-107393300D01*
X60491302Y-107340988D01*
X60491293Y-107340981D01*
X60487154Y-107337215D01*
X60471963Y-107327686D01*
X60458097Y-107317611D01*
X60448641Y-107309704D01*
X60448631Y-107309697D01*
X60444336Y-107306106D01*
X60371942Y-107264813D01*
X60367422Y-107262108D01*
X60356734Y-107255403D01*
X60305281Y-107223127D01*
X60301594Y-107220814D01*
X60301591Y-107220812D01*
X60296846Y-107217836D01*
X60291641Y-107215743D01*
X60291638Y-107215742D01*
X60280211Y-107211148D01*
X60264779Y-107203688D01*
X60254071Y-107197580D01*
X60254062Y-107197576D01*
X60249197Y-107194801D01*
X60243920Y-107192932D01*
X60243915Y-107192930D01*
X60170648Y-107166985D01*
X60165712Y-107165120D01*
X60093606Y-107136134D01*
X60088407Y-107134044D01*
X60082920Y-107132908D01*
X60082918Y-107132907D01*
X60071150Y-107130470D01*
X60070840Y-107130406D01*
X60054346Y-107125801D01*
X60037431Y-107119811D01*
X59955180Y-107106341D01*
X59950010Y-107105383D01*
X59868423Y-107088487D01*
X59863811Y-107088221D01*
X59863810Y-107088221D01*
X59840642Y-107086885D01*
X59827537Y-107085438D01*
X59821280Y-107084414D01*
X59821276Y-107084414D01*
X59815733Y-107083506D01*
X59810120Y-107083594D01*
X59810118Y-107083594D01*
X59708926Y-107085184D01*
X59706947Y-107085200D01*
X57456374Y-107085200D01*
X57388253Y-107065198D01*
X57380827Y-107060039D01*
X57358205Y-107043085D01*
X57221816Y-106991955D01*
X57159634Y-106985200D01*
X55363366Y-106985200D01*
X55301184Y-106991955D01*
X55164795Y-107043085D01*
X55048239Y-107130439D01*
X54960885Y-107246995D01*
X54909755Y-107383384D01*
X54903000Y-107445566D01*
X54903000Y-109241834D01*
X54909755Y-109304016D01*
X54960885Y-109440405D01*
X55048239Y-109556961D01*
X55164795Y-109644315D01*
X55173204Y-109647467D01*
X55173205Y-109647468D01*
X55281951Y-109688235D01*
X55338716Y-109730876D01*
X55363416Y-109797438D01*
X55348209Y-109866787D01*
X55328816Y-109893268D01*
X55255049Y-109970461D01*
X55202129Y-110025838D01*
X55199215Y-110030110D01*
X55199214Y-110030111D01*
X55176888Y-110062840D01*
X55076243Y-110210380D01*
X55060558Y-110244171D01*
X55003129Y-110367892D01*
X54982188Y-110413005D01*
X54922489Y-110628270D01*
X54898751Y-110850395D01*
X54899048Y-110855548D01*
X54899048Y-110855551D01*
X54904511Y-110950290D01*
X54911610Y-111073415D01*
X54912747Y-111078461D01*
X54912748Y-111078467D01*
X54932619Y-111166639D01*
X54960722Y-111291339D01*
X55044766Y-111498316D01*
X55047465Y-111502720D01*
X55153652Y-111676002D01*
X55161487Y-111688788D01*
X55307750Y-111857638D01*
X55479626Y-112000332D01*
X55672500Y-112113038D01*
X55677325Y-112114880D01*
X55677326Y-112114881D01*
X55716091Y-112129684D01*
X55881192Y-112192730D01*
X55886260Y-112193761D01*
X55886263Y-112193762D01*
X55976683Y-112212158D01*
X56100097Y-112237267D01*
X56105272Y-112237457D01*
X56105274Y-112237457D01*
X56318173Y-112245264D01*
X56318177Y-112245264D01*
X56323337Y-112245453D01*
X56328457Y-112244797D01*
X56328459Y-112244797D01*
X56539788Y-112217725D01*
X56539789Y-112217725D01*
X56544916Y-112217068D01*
X56617529Y-112195283D01*
X56753929Y-112154361D01*
X56753934Y-112154359D01*
X56758884Y-112152874D01*
X56959494Y-112054596D01*
X57141360Y-111924873D01*
X57145793Y-111920456D01*
X57272423Y-111794267D01*
X57299596Y-111767189D01*
X57328718Y-111726662D01*
X57426935Y-111589977D01*
X57429953Y-111585777D01*
X57437288Y-111570937D01*
X57526636Y-111390153D01*
X57526637Y-111390151D01*
X57528930Y-111385511D01*
X57593870Y-111171769D01*
X57623029Y-110950290D01*
X57623259Y-110940886D01*
X57624574Y-110887065D01*
X57624574Y-110887061D01*
X57624656Y-110883700D01*
X57606352Y-110661061D01*
X57551931Y-110444402D01*
X57462854Y-110239540D01*
X57373572Y-110101531D01*
X57344322Y-110056317D01*
X57344320Y-110056314D01*
X57341514Y-110051977D01*
X57338032Y-110048150D01*
X57194298Y-109890188D01*
X57163246Y-109826342D01*
X57171641Y-109755843D01*
X57216817Y-109701075D01*
X57243261Y-109687406D01*
X57349797Y-109647467D01*
X57358205Y-109644315D01*
X57380811Y-109627373D01*
X57447315Y-109602526D01*
X57456374Y-109602200D01*
X59149713Y-109602200D01*
X59217834Y-109622202D01*
X59238808Y-109639105D01*
X61304962Y-111705259D01*
X61315830Y-111717651D01*
X61325952Y-111730843D01*
X61325959Y-111730851D01*
X61329367Y-111735292D01*
X61389316Y-111789841D01*
X61389675Y-111790168D01*
X61393970Y-111794267D01*
X61409901Y-111810198D01*
X61429917Y-111826934D01*
X61433866Y-111830379D01*
X61491369Y-111882703D01*
X61491373Y-111882706D01*
X61495526Y-111886485D01*
X61500281Y-111889468D01*
X61500284Y-111889470D01*
X61510714Y-111896012D01*
X61524587Y-111906091D01*
X61534035Y-111913992D01*
X61534042Y-111913997D01*
X61538344Y-111917594D01*
X61598842Y-111952101D01*
X61610730Y-111958882D01*
X61615258Y-111961593D01*
X61676497Y-112000008D01*
X61723575Y-112053151D01*
X61734447Y-112123310D01*
X61725970Y-112154135D01*
X61724567Y-112156687D01*
X61664765Y-112345206D01*
X61647500Y-112499127D01*
X61647500Y-113205669D01*
X61647800Y-113208725D01*
X61647800Y-113208732D01*
X61650856Y-113239894D01*
X61661920Y-113352733D01*
X61663702Y-113358634D01*
X61663702Y-113358636D01*
X61669569Y-113378069D01*
X61719084Y-113542069D01*
X61811934Y-113716696D01*
X61869630Y-113787438D01*
X61933040Y-113865187D01*
X61933043Y-113865190D01*
X61936935Y-113869962D01*
X61941682Y-113873889D01*
X61941684Y-113873891D01*
X62084575Y-113992101D01*
X62084579Y-113992103D01*
X62089325Y-113996030D01*
X62263299Y-114090098D01*
X62452232Y-114148582D01*
X62458357Y-114149226D01*
X62458358Y-114149226D01*
X62642796Y-114168611D01*
X62642798Y-114168611D01*
X62648925Y-114169255D01*
X62731424Y-114161747D01*
X62839749Y-114151889D01*
X62839752Y-114151888D01*
X62845888Y-114151330D01*
X62851794Y-114149592D01*
X62851798Y-114149591D01*
X62956924Y-114118651D01*
X63035619Y-114095490D01*
X63041077Y-114092637D01*
X63041081Y-114092635D01*
X63158756Y-114031115D01*
X63210890Y-114003860D01*
X63365025Y-113879932D01*
X63492154Y-113728426D01*
X63495121Y-113723028D01*
X63495125Y-113723023D01*
X63584467Y-113560508D01*
X63587433Y-113555113D01*
X63589846Y-113547508D01*
X63645373Y-113372464D01*
X63645373Y-113372463D01*
X63647235Y-113366594D01*
X63664500Y-113212673D01*
X63664500Y-112506131D01*
X63663814Y-112499127D01*
X63650681Y-112365201D01*
X63650080Y-112359067D01*
X63648299Y-112353168D01*
X63648298Y-112353163D01*
X63632524Y-112300918D01*
X63631983Y-112229923D01*
X63669911Y-112169906D01*
X63734265Y-112139923D01*
X63753146Y-112138500D01*
X70198179Y-112138500D01*
X70266300Y-112158502D01*
X70312793Y-112212158D01*
X70322897Y-112282432D01*
X70318282Y-112302597D01*
X70304765Y-112345206D01*
X70287500Y-112499127D01*
X70287500Y-112796027D01*
X70286810Y-112809197D01*
X70282645Y-112848825D01*
X70284332Y-112867361D01*
X70286981Y-112896470D01*
X70287500Y-112907890D01*
X70287500Y-113205669D01*
X70287800Y-113208725D01*
X70287800Y-113208732D01*
X70290856Y-113239894D01*
X70301920Y-113352733D01*
X70303702Y-113358634D01*
X70303702Y-113358636D01*
X70309569Y-113378069D01*
X70359084Y-113542069D01*
X70451934Y-113716696D01*
X70509630Y-113787438D01*
X70573040Y-113865187D01*
X70573043Y-113865190D01*
X70576935Y-113869962D01*
X70581682Y-113873889D01*
X70581684Y-113873891D01*
X70724575Y-113992101D01*
X70724579Y-113992103D01*
X70729325Y-113996030D01*
X70903299Y-114090098D01*
X71092232Y-114148582D01*
X71098357Y-114149226D01*
X71098358Y-114149226D01*
X71282796Y-114168611D01*
X71282798Y-114168611D01*
X71288925Y-114169255D01*
X71371424Y-114161747D01*
X71479749Y-114151889D01*
X71479752Y-114151888D01*
X71485888Y-114151330D01*
X71491794Y-114149592D01*
X71491798Y-114149591D01*
X71596924Y-114118651D01*
X71675619Y-114095490D01*
X71681077Y-114092637D01*
X71681081Y-114092635D01*
X71798756Y-114031115D01*
X71850890Y-114003860D01*
X71989764Y-113892202D01*
X72055384Y-113865107D01*
X72068714Y-113864400D01*
X72330174Y-113864400D01*
X72398295Y-113884402D01*
X72419269Y-113901304D01*
X72928549Y-114410583D01*
X72937651Y-114420727D01*
X72952320Y-114438971D01*
X72961368Y-114450225D01*
X72999856Y-114482520D01*
X73003475Y-114485678D01*
X73005290Y-114487324D01*
X73007475Y-114489509D01*
X73009855Y-114491464D01*
X73009865Y-114491473D01*
X73040636Y-114516749D01*
X73041651Y-114517591D01*
X73112874Y-114577354D01*
X73117548Y-114579923D01*
X73121661Y-114583302D01*
X73127098Y-114586217D01*
X73127099Y-114586218D01*
X73203447Y-114627155D01*
X73204577Y-114627768D01*
X73286187Y-114672633D01*
X73291269Y-114674245D01*
X73295963Y-114676762D01*
X73384931Y-114703962D01*
X73385959Y-114704282D01*
X73474706Y-114732435D01*
X73480002Y-114733029D01*
X73485098Y-114734587D01*
X73577659Y-114743990D01*
X73578776Y-114744109D01*
X73612150Y-114747852D01*
X73617178Y-114748416D01*
X73682645Y-114775888D01*
X73708151Y-114812988D01*
X73718141Y-114791111D01*
X73777864Y-114752724D01*
X73801074Y-114748219D01*
X73820657Y-114746299D01*
X73933033Y-114735280D01*
X73938934Y-114733498D01*
X73938936Y-114733498D01*
X74036236Y-114704121D01*
X74122369Y-114678116D01*
X74296996Y-114585266D01*
X74383262Y-114514909D01*
X74445487Y-114464160D01*
X74445490Y-114464157D01*
X74450262Y-114460265D01*
X74457460Y-114451564D01*
X74572401Y-114312625D01*
X74572403Y-114312621D01*
X74576330Y-114307875D01*
X74670398Y-114133901D01*
X74715520Y-113988134D01*
X88441500Y-113988134D01*
X88448255Y-114050316D01*
X88499385Y-114186705D01*
X88586739Y-114303261D01*
X88703295Y-114390615D01*
X88839684Y-114441745D01*
X88901866Y-114448500D01*
X90698134Y-114448500D01*
X90760316Y-114441745D01*
X90896705Y-114390615D01*
X91013261Y-114303261D01*
X91100615Y-114186705D01*
X91113877Y-114151330D01*
X91144598Y-114069382D01*
X91187240Y-114012618D01*
X91253802Y-113987918D01*
X91323150Y-114003126D01*
X91357817Y-114031114D01*
X91386250Y-114063938D01*
X91558126Y-114206632D01*
X91751000Y-114319338D01*
X91959692Y-114399030D01*
X91964760Y-114400061D01*
X91964763Y-114400062D01*
X92072017Y-114421883D01*
X92178597Y-114443567D01*
X92183772Y-114443757D01*
X92183774Y-114443757D01*
X92396673Y-114451564D01*
X92396677Y-114451564D01*
X92401837Y-114451753D01*
X92406957Y-114451097D01*
X92406959Y-114451097D01*
X92618288Y-114424025D01*
X92618289Y-114424025D01*
X92623416Y-114423368D01*
X92632219Y-114420727D01*
X92832429Y-114360661D01*
X92832434Y-114360659D01*
X92837384Y-114359174D01*
X93037994Y-114260896D01*
X93219860Y-114131173D01*
X93259251Y-114091920D01*
X93363616Y-113987918D01*
X93378096Y-113973489D01*
X93508453Y-113792077D01*
X93532058Y-113744317D01*
X93605136Y-113596453D01*
X93605137Y-113596451D01*
X93607430Y-113591811D01*
X93672370Y-113378069D01*
X93701529Y-113156590D01*
X93703156Y-113090000D01*
X93684852Y-112867361D01*
X93630431Y-112650702D01*
X93541354Y-112445840D01*
X93481399Y-112353163D01*
X93422822Y-112262617D01*
X93422820Y-112262614D01*
X93420014Y-112258277D01*
X93269670Y-112093051D01*
X93265619Y-112089852D01*
X93265615Y-112089848D01*
X93098414Y-111957800D01*
X93098410Y-111957798D01*
X93094359Y-111954598D01*
X92898789Y-111846638D01*
X92893920Y-111844914D01*
X92893916Y-111844912D01*
X92693087Y-111773795D01*
X92693083Y-111773794D01*
X92688212Y-111772069D01*
X92683119Y-111771162D01*
X92683116Y-111771161D01*
X92473373Y-111733800D01*
X92473367Y-111733799D01*
X92468284Y-111732894D01*
X92394452Y-111731992D01*
X92250081Y-111730228D01*
X92250079Y-111730228D01*
X92244911Y-111730165D01*
X92024091Y-111763955D01*
X91811756Y-111833357D01*
X91773924Y-111853051D01*
X91630197Y-111927871D01*
X91613607Y-111936507D01*
X91609474Y-111939610D01*
X91609471Y-111939612D01*
X91453294Y-112056873D01*
X91434965Y-112070635D01*
X91354955Y-112154361D01*
X91354283Y-112155064D01*
X91292759Y-112190494D01*
X91221846Y-112187037D01*
X91164060Y-112145791D01*
X91145207Y-112112243D01*
X91105327Y-112005864D01*
X91100615Y-111993295D01*
X91013261Y-111876739D01*
X90896705Y-111789385D01*
X90760316Y-111738255D01*
X90698134Y-111731500D01*
X88901866Y-111731500D01*
X88839684Y-111738255D01*
X88703295Y-111789385D01*
X88586739Y-111876739D01*
X88499385Y-111993295D01*
X88448255Y-112129684D01*
X88441500Y-112191866D01*
X88441500Y-113988134D01*
X74715520Y-113988134D01*
X74728882Y-113944968D01*
X74735248Y-113884402D01*
X74748911Y-113754404D01*
X74748911Y-113754402D01*
X74749555Y-113748275D01*
X74742047Y-113665776D01*
X74732189Y-113557451D01*
X74732188Y-113557448D01*
X74731630Y-113551312D01*
X74727174Y-113536169D01*
X74698951Y-113440276D01*
X74675790Y-113361581D01*
X74671165Y-113352733D01*
X74595882Y-113208732D01*
X74584160Y-113186310D01*
X74460232Y-113032175D01*
X74308726Y-112905046D01*
X74303323Y-112902076D01*
X74303319Y-112902073D01*
X74250604Y-112873093D01*
X74222209Y-112851774D01*
X73556951Y-112186517D01*
X73547849Y-112176373D01*
X73527997Y-112151682D01*
X73524132Y-112146875D01*
X73485678Y-112114608D01*
X73482031Y-112111428D01*
X73480219Y-112109785D01*
X73478025Y-112107591D01*
X73444751Y-112080258D01*
X73443953Y-112079596D01*
X73372626Y-112019746D01*
X73367956Y-112017178D01*
X73363839Y-112013797D01*
X73282014Y-111969923D01*
X73280855Y-111969294D01*
X73204719Y-111927438D01*
X73204711Y-111927435D01*
X73199313Y-111924467D01*
X73194231Y-111922855D01*
X73189537Y-111920338D01*
X73100569Y-111893138D01*
X73099541Y-111892818D01*
X73010794Y-111864665D01*
X73005498Y-111864071D01*
X73000402Y-111862513D01*
X72907843Y-111853110D01*
X72906707Y-111852989D01*
X72872360Y-111849137D01*
X72860370Y-111847792D01*
X72860366Y-111847792D01*
X72856873Y-111847400D01*
X72853346Y-111847400D01*
X72852361Y-111847345D01*
X72846681Y-111846898D01*
X72803638Y-111842526D01*
X72803636Y-111842526D01*
X72803845Y-111840473D01*
X72744824Y-111822911D01*
X72698525Y-111769088D01*
X72688675Y-111698778D01*
X72718401Y-111634304D01*
X72724232Y-111628065D01*
X74186514Y-110165783D01*
X74198906Y-110154915D01*
X74212098Y-110144793D01*
X74212106Y-110144786D01*
X74216547Y-110141378D01*
X74255896Y-110098134D01*
X74966500Y-110098134D01*
X74973255Y-110160316D01*
X75024385Y-110296705D01*
X75111739Y-110413261D01*
X75228295Y-110500615D01*
X75364684Y-110551745D01*
X75426866Y-110558500D01*
X77223134Y-110558500D01*
X77285316Y-110551745D01*
X77421705Y-110500615D01*
X77538261Y-110413261D01*
X77625615Y-110296705D01*
X77659581Y-110206101D01*
X77669598Y-110179382D01*
X77712240Y-110122618D01*
X77778802Y-110097918D01*
X77848150Y-110113126D01*
X77882817Y-110141114D01*
X77911250Y-110173938D01*
X78083126Y-110316632D01*
X78276000Y-110429338D01*
X78280825Y-110431180D01*
X78280826Y-110431181D01*
X78328589Y-110449420D01*
X78484692Y-110509030D01*
X78489760Y-110510061D01*
X78489763Y-110510062D01*
X78597017Y-110531883D01*
X78703597Y-110553567D01*
X78708772Y-110553757D01*
X78708774Y-110553757D01*
X78921673Y-110561564D01*
X78921677Y-110561564D01*
X78926837Y-110561753D01*
X78931957Y-110561097D01*
X78931959Y-110561097D01*
X79143288Y-110534025D01*
X79143289Y-110534025D01*
X79148416Y-110533368D01*
X79153366Y-110531883D01*
X79357429Y-110470661D01*
X79357434Y-110470659D01*
X79362384Y-110469174D01*
X79562994Y-110370896D01*
X79744860Y-110241173D01*
X79771050Y-110215075D01*
X79888616Y-110097918D01*
X79903096Y-110083489D01*
X79907921Y-110076775D01*
X80030435Y-109906277D01*
X80033453Y-109902077D01*
X80050895Y-109866787D01*
X80130136Y-109706453D01*
X80130137Y-109706451D01*
X80132430Y-109701811D01*
X80197370Y-109488069D01*
X80226529Y-109266590D01*
X80227388Y-109231422D01*
X80249047Y-109163811D01*
X80303822Y-109118642D01*
X80353350Y-109108500D01*
X82888595Y-109108500D01*
X82956716Y-109128502D01*
X82962656Y-109132564D01*
X82999177Y-109159098D01*
X83043248Y-109191118D01*
X83049276Y-109193802D01*
X83049278Y-109193803D01*
X83196700Y-109259439D01*
X83217712Y-109268794D01*
X83311113Y-109288647D01*
X83398056Y-109307128D01*
X83398061Y-109307128D01*
X83404513Y-109308500D01*
X83595487Y-109308500D01*
X83601939Y-109307128D01*
X83601944Y-109307128D01*
X83688887Y-109288647D01*
X83782288Y-109268794D01*
X83803300Y-109259439D01*
X83950722Y-109193803D01*
X83950724Y-109193802D01*
X83956752Y-109191118D01*
X84111253Y-109078866D01*
X84135694Y-109051722D01*
X84234621Y-108941852D01*
X84234622Y-108941851D01*
X84239040Y-108936944D01*
X84334527Y-108771556D01*
X84393542Y-108589928D01*
X84395331Y-108590509D01*
X84424735Y-108536035D01*
X84488063Y-108501452D01*
X84639354Y-108469294D01*
X84686454Y-108448324D01*
X84807788Y-108394303D01*
X84807790Y-108394302D01*
X84813818Y-108391618D01*
X84821130Y-108386306D01*
X84918252Y-108315742D01*
X84968319Y-108279366D01*
X85096106Y-108137444D01*
X85183116Y-107986739D01*
X85188289Y-107977779D01*
X85188290Y-107977778D01*
X85191593Y-107972056D01*
X85250608Y-107790428D01*
X85255937Y-107739731D01*
X85269880Y-107607065D01*
X85270570Y-107600500D01*
X85252814Y-107431562D01*
X85251298Y-107417135D01*
X85251298Y-107417133D01*
X85250608Y-107410572D01*
X85191593Y-107228944D01*
X85181319Y-107211148D01*
X85128061Y-107118904D01*
X85096106Y-107063556D01*
X85082524Y-107048471D01*
X84972741Y-106926545D01*
X84972740Y-106926544D01*
X84968319Y-106921634D01*
X84813818Y-106809382D01*
X84807790Y-106806698D01*
X84807788Y-106806697D01*
X84645385Y-106734391D01*
X84645384Y-106734391D01*
X84639354Y-106731706D01*
X84545954Y-106711853D01*
X84459010Y-106693372D01*
X84459005Y-106693372D01*
X84452553Y-106692000D01*
X84261579Y-106692000D01*
X84255127Y-106693372D01*
X84255122Y-106693372D01*
X84168178Y-106711853D01*
X84074778Y-106731706D01*
X84068748Y-106734391D01*
X84068747Y-106734391D01*
X83906344Y-106806697D01*
X83906342Y-106806698D01*
X83900314Y-106809382D01*
X83894973Y-106813262D01*
X83894972Y-106813263D01*
X83819722Y-106867936D01*
X83752855Y-106891794D01*
X83745661Y-106892000D01*
X77953427Y-106892000D01*
X77944858Y-106891708D01*
X77894725Y-106888290D01*
X77894721Y-106888290D01*
X77887148Y-106887774D01*
X77824181Y-106898764D01*
X77817669Y-106899724D01*
X77754258Y-106907398D01*
X77747157Y-106910081D01*
X77744548Y-106910722D01*
X77728228Y-106915187D01*
X77725695Y-106915952D01*
X77718217Y-106917257D01*
X77659690Y-106942948D01*
X77653608Y-106945430D01*
X77633253Y-106953122D01*
X77600949Y-106965328D01*
X77600947Y-106965329D01*
X77593844Y-106968013D01*
X77587585Y-106972314D01*
X77585220Y-106973551D01*
X77570448Y-106981773D01*
X77568156Y-106983128D01*
X77561195Y-106986184D01*
X77555168Y-106990809D01*
X77555164Y-106990811D01*
X77510487Y-107025093D01*
X77505162Y-107028962D01*
X77452519Y-107065143D01*
X77447467Y-107070813D01*
X77447466Y-107070814D01*
X77411073Y-107111661D01*
X77406092Y-107116937D01*
X76718434Y-107804595D01*
X76656122Y-107838621D01*
X76629339Y-107841500D01*
X75426866Y-107841500D01*
X75364684Y-107848255D01*
X75228295Y-107899385D01*
X75111739Y-107986739D01*
X75024385Y-108103295D01*
X74973255Y-108239684D01*
X74966500Y-108301866D01*
X74966500Y-110098134D01*
X74255896Y-110098134D01*
X74271423Y-110081070D01*
X74275522Y-110076775D01*
X74291453Y-110060844D01*
X74308189Y-110040828D01*
X74311634Y-110036879D01*
X74363958Y-109979376D01*
X74363961Y-109979372D01*
X74367740Y-109975219D01*
X74377268Y-109960030D01*
X74387346Y-109946158D01*
X74395247Y-109936710D01*
X74395252Y-109936703D01*
X74398849Y-109932401D01*
X74440142Y-109860007D01*
X74442847Y-109855487D01*
X74484141Y-109789659D01*
X74484143Y-109789656D01*
X74487119Y-109784911D01*
X74493807Y-109768276D01*
X74501267Y-109752844D01*
X74507375Y-109742136D01*
X74507379Y-109742127D01*
X74510154Y-109737262D01*
X74512023Y-109731985D01*
X74512025Y-109731980D01*
X74537970Y-109658713D01*
X74539835Y-109653777D01*
X74568821Y-109581671D01*
X74570911Y-109576472D01*
X74574549Y-109558905D01*
X74579154Y-109542411D01*
X74585144Y-109525496D01*
X74592113Y-109482939D01*
X74598610Y-109443264D01*
X74599572Y-109438074D01*
X74615532Y-109361009D01*
X74615533Y-109361005D01*
X74616468Y-109356488D01*
X74616734Y-109351877D01*
X74618070Y-109328707D01*
X74619517Y-109315602D01*
X74620541Y-109309345D01*
X74620541Y-109309338D01*
X74621449Y-109303797D01*
X74621339Y-109296755D01*
X74619771Y-109196991D01*
X74619755Y-109195012D01*
X74619755Y-107312223D01*
X74639757Y-107244102D01*
X74656660Y-107223127D01*
X75384384Y-106495404D01*
X75446696Y-106461379D01*
X75473479Y-106458500D01*
X82668604Y-106458500D01*
X82685051Y-106459578D01*
X82701516Y-106461746D01*
X82701520Y-106461746D01*
X82707086Y-106462479D01*
X82788489Y-106458640D01*
X82794424Y-106458500D01*
X82816999Y-106458500D01*
X82842989Y-106456181D01*
X82848248Y-106455822D01*
X82931488Y-106451896D01*
X82936947Y-106450646D01*
X82936952Y-106450645D01*
X82948970Y-106447892D01*
X82965899Y-106445211D01*
X82983762Y-106443617D01*
X82989178Y-106442135D01*
X82989180Y-106442135D01*
X83064133Y-106421630D01*
X83069251Y-106420344D01*
X83145000Y-106402995D01*
X83145002Y-106402994D01*
X83150470Y-106401742D01*
X83160970Y-106397263D01*
X83166967Y-106394706D01*
X83183142Y-106389073D01*
X83195039Y-106385818D01*
X83195043Y-106385817D01*
X83200451Y-106384337D01*
X83275667Y-106348461D01*
X83280476Y-106346290D01*
X83351949Y-106315804D01*
X83351950Y-106315804D01*
X83357109Y-106313603D01*
X83372110Y-106303749D01*
X83387025Y-106295346D01*
X83403218Y-106287622D01*
X83407769Y-106284352D01*
X83407772Y-106284350D01*
X83470881Y-106239001D01*
X83475232Y-106236011D01*
X83541010Y-106192804D01*
X83541018Y-106192798D01*
X83544874Y-106190265D01*
X83565662Y-106171743D01*
X83575939Y-106163510D01*
X83585654Y-106156529D01*
X83660062Y-106079746D01*
X83661451Y-106078336D01*
X85060199Y-104679589D01*
X85060204Y-104679583D01*
X97365198Y-92374589D01*
X97370724Y-92367980D01*
X97387747Y-92351163D01*
X97437918Y-92310245D01*
X97438774Y-92309554D01*
X97477973Y-92278262D01*
X97480477Y-92275758D01*
X97481195Y-92275116D01*
X97485528Y-92271415D01*
X97519062Y-92244065D01*
X97523937Y-92238173D01*
X97548287Y-92208738D01*
X97556277Y-92199958D01*
X98613756Y-91142479D01*
X98676067Y-91108454D01*
X98746882Y-91113518D01*
X98803718Y-91156065D01*
X98822374Y-91191698D01*
X98844088Y-91256784D01*
X98850261Y-91269962D01*
X98935563Y-91407807D01*
X98944599Y-91419208D01*
X99059329Y-91533739D01*
X99070740Y-91542751D01*
X99208743Y-91627816D01*
X99221924Y-91633963D01*
X99376210Y-91685138D01*
X99389586Y-91688005D01*
X99483938Y-91697672D01*
X99490354Y-91698000D01*
X99677885Y-91698000D01*
X99693124Y-91693525D01*
X99694329Y-91692135D01*
X99696000Y-91684452D01*
X99696000Y-88900116D01*
X99691525Y-88884877D01*
X99690135Y-88883672D01*
X99682452Y-88882001D01*
X99490405Y-88882001D01*
X99483886Y-88882338D01*
X99388294Y-88892257D01*
X99374900Y-88895149D01*
X99220716Y-88946588D01*
X99207538Y-88952761D01*
X99069693Y-89038063D01*
X99058286Y-89047104D01*
X99049991Y-89055413D01*
X98987708Y-89089492D01*
X98916888Y-89084487D01*
X98871725Y-89055490D01*
X98708405Y-88892171D01*
X98674380Y-88829859D01*
X98671500Y-88803075D01*
X98671500Y-88453840D01*
X98672237Y-88440232D01*
X98675686Y-88408482D01*
X98676324Y-88402611D01*
X98676169Y-88400842D01*
X98676355Y-88399075D01*
X98676194Y-88397308D01*
X98676374Y-88395538D01*
X98671633Y-88345385D01*
X98671500Y-88343526D01*
X98671500Y-88342231D01*
X98667309Y-88299489D01*
X98667187Y-88298174D01*
X98659600Y-88211453D01*
X98659087Y-88205587D01*
X98658591Y-88203879D01*
X98658430Y-88202112D01*
X98657928Y-88200407D01*
X98657761Y-88198638D01*
X98657253Y-88196935D01*
X98657080Y-88195167D01*
X98630218Y-88106194D01*
X98629862Y-88104994D01*
X98605551Y-88021316D01*
X98603909Y-88015663D01*
X98603092Y-88014087D01*
X98602590Y-88012381D01*
X98601766Y-88010805D01*
X98601259Y-88009104D01*
X98600429Y-88007529D01*
X98599916Y-88005831D01*
X98556316Y-87923831D01*
X98555702Y-87922663D01*
X98515597Y-87845293D01*
X98512892Y-87840074D01*
X98511784Y-87838686D01*
X98510960Y-87837110D01*
X98509846Y-87835725D01*
X98509018Y-87834154D01*
X98507901Y-87832775D01*
X98507066Y-87831204D01*
X98448245Y-87759082D01*
X98447554Y-87758226D01*
X98428935Y-87734903D01*
X98418457Y-87721776D01*
X98418453Y-87721771D01*
X98416262Y-87719027D01*
X98415339Y-87718104D01*
X98414138Y-87716688D01*
X98390743Y-87687590D01*
X98390741Y-87687588D01*
X98387032Y-87682975D01*
X98385669Y-87681832D01*
X98384553Y-87680453D01*
X98383190Y-87679317D01*
X98382065Y-87677938D01*
X98346737Y-87648712D01*
X98337958Y-87640723D01*
X98038848Y-87341613D01*
X98029758Y-87331483D01*
X98006032Y-87301975D01*
X97979385Y-87279615D01*
X97967579Y-87269709D01*
X97963931Y-87266528D01*
X97962119Y-87264885D01*
X97959925Y-87262691D01*
X97926651Y-87235358D01*
X97925853Y-87234696D01*
X97854526Y-87174846D01*
X97849856Y-87172278D01*
X97845739Y-87168897D01*
X97770098Y-87128339D01*
X97763914Y-87125023D01*
X97762755Y-87124394D01*
X97686619Y-87082538D01*
X97686611Y-87082535D01*
X97681213Y-87079567D01*
X97676131Y-87077955D01*
X97671437Y-87075438D01*
X97582469Y-87048238D01*
X97581441Y-87047918D01*
X97492694Y-87019765D01*
X97487398Y-87019171D01*
X97482302Y-87017613D01*
X97389743Y-87008210D01*
X97388607Y-87008089D01*
X97354992Y-87004319D01*
X97342270Y-87002892D01*
X97342266Y-87002892D01*
X97338773Y-87002500D01*
X97335246Y-87002500D01*
X97334261Y-87002445D01*
X97328581Y-87001998D01*
X97299175Y-86999011D01*
X97291663Y-86998248D01*
X97291661Y-86998248D01*
X97285538Y-86997626D01*
X97243259Y-87001623D01*
X97239891Y-87001941D01*
X97228033Y-87002500D01*
X96926924Y-87002500D01*
X96858803Y-86982498D01*
X96837829Y-86965595D01*
X96572999Y-86700765D01*
X96538973Y-86638453D01*
X96536094Y-86611670D01*
X96536094Y-84035925D01*
X96556096Y-83967804D01*
X96572999Y-83946830D01*
X97244575Y-83275254D01*
X97306887Y-83241228D01*
X97344649Y-83238828D01*
X97550274Y-83256818D01*
X97778361Y-83236863D01*
X97783674Y-83235439D01*
X97783676Y-83235439D01*
X97994207Y-83179027D01*
X97994209Y-83179026D01*
X97999517Y-83177604D01*
X98089375Y-83135703D01*
X98202036Y-83083169D01*
X98202041Y-83083166D01*
X98207023Y-83080843D01*
X98352244Y-82979158D01*
X98391845Y-82951429D01*
X98464104Y-82928642D01*
X99176320Y-82928572D01*
X99248603Y-82951359D01*
X99367735Y-83034776D01*
X99433525Y-83080843D01*
X99438507Y-83083166D01*
X99438512Y-83083169D01*
X99551173Y-83135703D01*
X99641031Y-83177604D01*
X99646339Y-83179026D01*
X99646341Y-83179027D01*
X99856872Y-83235439D01*
X99856874Y-83235439D01*
X99862187Y-83236863D01*
X100090274Y-83256818D01*
X100318361Y-83236863D01*
X100323674Y-83235439D01*
X100323676Y-83235439D01*
X100534207Y-83179027D01*
X100534209Y-83179026D01*
X100539517Y-83177604D01*
X100629375Y-83135703D01*
X100742036Y-83083169D01*
X100742041Y-83083166D01*
X100747023Y-83080843D01*
X100879031Y-82988410D01*
X100946304Y-82965722D01*
X101015164Y-82983007D01*
X101063749Y-83034776D01*
X101077300Y-83091124D01*
X101090894Y-86525796D01*
X101071162Y-86593996D01*
X101028609Y-86634731D01*
X101026066Y-86635917D01*
X101021570Y-86639065D01*
X101021565Y-86639068D01*
X100866676Y-86747523D01*
X100866673Y-86747525D01*
X100862165Y-86750682D01*
X100720682Y-86892165D01*
X100717525Y-86896673D01*
X100717523Y-86896676D01*
X100675816Y-86956240D01*
X100605917Y-87056066D01*
X100603594Y-87061048D01*
X100603591Y-87061053D01*
X100534416Y-87209400D01*
X100521357Y-87237406D01*
X100519935Y-87242714D01*
X100519934Y-87242716D01*
X100487478Y-87363843D01*
X100469571Y-87430675D01*
X100459042Y-87551020D01*
X100454810Y-87599394D01*
X100453790Y-87607791D01*
X100451309Y-87623724D01*
X100452473Y-87632626D01*
X100452473Y-87632628D01*
X100455436Y-87655283D01*
X100456500Y-87671621D01*
X100456500Y-88756000D01*
X100436498Y-88824121D01*
X100382842Y-88870614D01*
X100330500Y-88882000D01*
X100222115Y-88882000D01*
X100206876Y-88886475D01*
X100205671Y-88887865D01*
X100204000Y-88895548D01*
X100204000Y-91679884D01*
X100208475Y-91695123D01*
X100209865Y-91696328D01*
X100217548Y-91697999D01*
X100330500Y-91697999D01*
X100398621Y-91718001D01*
X100445114Y-91771657D01*
X100456500Y-91823999D01*
X100456500Y-114872004D01*
X100436498Y-114940125D01*
X100382842Y-114986618D01*
X100330509Y-114998004D01*
X73813378Y-114999618D01*
X73745256Y-114979620D01*
X73707008Y-114935484D01*
X73688564Y-114966245D01*
X73624932Y-114997731D01*
X73603144Y-114999631D01*
X67535820Y-115000000D01*
X33451118Y-115000000D01*
X33431635Y-114998485D01*
X33417044Y-114996201D01*
X33417042Y-114996201D01*
X33408180Y-114994814D01*
X33392176Y-114996894D01*
X33391890Y-114996931D01*
X33367317Y-114997706D01*
X33144857Y-114982957D01*
X33128526Y-114980795D01*
X32884001Y-114931981D01*
X32868092Y-114927707D01*
X32632019Y-114847408D01*
X32616813Y-114841100D01*
X32393226Y-114730683D01*
X32378966Y-114722440D01*
X32171703Y-114583804D01*
X32158638Y-114573770D01*
X32158210Y-114573394D01*
X31971224Y-114409270D01*
X31959598Y-114397634D01*
X31795250Y-114210094D01*
X31785227Y-114197024D01*
X31783135Y-114193891D01*
X31646751Y-113989647D01*
X31638521Y-113975383D01*
X31620512Y-113938842D01*
X31533409Y-113762113D01*
X31528288Y-113751722D01*
X31521987Y-113736502D01*
X31441872Y-113500365D01*
X31437611Y-113484452D01*
X31388990Y-113239894D01*
X31386840Y-113223561D01*
X31372736Y-113008258D01*
X31373767Y-112985102D01*
X31373809Y-112981651D01*
X31375191Y-112972776D01*
X31371064Y-112941214D01*
X31370000Y-112924879D01*
X31370000Y-111016095D01*
X38477001Y-111016095D01*
X38477338Y-111022614D01*
X38487257Y-111118206D01*
X38490149Y-111131600D01*
X38541588Y-111285784D01*
X38547761Y-111298962D01*
X38633063Y-111436807D01*
X38642099Y-111448208D01*
X38756829Y-111562739D01*
X38768240Y-111571751D01*
X38906243Y-111656816D01*
X38919424Y-111662963D01*
X39073710Y-111714138D01*
X39087086Y-111717005D01*
X39181438Y-111726672D01*
X39187854Y-111727000D01*
X39562885Y-111727000D01*
X39578124Y-111722525D01*
X39579329Y-111721135D01*
X39581000Y-111713452D01*
X39581000Y-111708884D01*
X40089000Y-111708884D01*
X40093475Y-111724123D01*
X40094865Y-111725328D01*
X40102548Y-111726999D01*
X40482095Y-111726999D01*
X40488614Y-111726662D01*
X40584206Y-111716743D01*
X40597600Y-111713851D01*
X40751784Y-111662412D01*
X40764962Y-111656239D01*
X40902807Y-111570937D01*
X40914208Y-111561901D01*
X41028739Y-111447171D01*
X41037753Y-111435757D01*
X41123723Y-111296287D01*
X41176495Y-111248793D01*
X41246566Y-111237369D01*
X41311690Y-111265643D01*
X41322149Y-111275426D01*
X41431576Y-111390135D01*
X41616542Y-111527754D01*
X41621293Y-111530170D01*
X41621297Y-111530172D01*
X41683704Y-111561901D01*
X41822051Y-111632240D01*
X41827145Y-111633822D01*
X41827148Y-111633823D01*
X41989997Y-111684389D01*
X42042227Y-111700607D01*
X42047516Y-111701308D01*
X42265489Y-111730198D01*
X42265494Y-111730198D01*
X42270774Y-111730898D01*
X42276103Y-111730698D01*
X42276105Y-111730698D01*
X42385966Y-111726574D01*
X42501158Y-111722249D01*
X42506468Y-111721135D01*
X42660634Y-111688788D01*
X42726791Y-111674907D01*
X42731750Y-111672949D01*
X42731752Y-111672948D01*
X42936256Y-111592185D01*
X42936258Y-111592184D01*
X42941221Y-111590224D01*
X42948550Y-111585777D01*
X43133757Y-111473390D01*
X43133756Y-111473390D01*
X43138317Y-111470623D01*
X43178497Y-111435757D01*
X43308412Y-111323023D01*
X43308414Y-111323021D01*
X43312445Y-111319523D01*
X43379807Y-111237369D01*
X43455240Y-111145373D01*
X43455244Y-111145367D01*
X43458624Y-111141245D01*
X43464115Y-111131600D01*
X43529864Y-111016095D01*
X47474001Y-111016095D01*
X47474338Y-111022614D01*
X47484257Y-111118206D01*
X47487149Y-111131600D01*
X47538588Y-111285784D01*
X47544761Y-111298962D01*
X47630063Y-111436807D01*
X47639099Y-111448208D01*
X47753829Y-111562739D01*
X47765240Y-111571751D01*
X47903243Y-111656816D01*
X47916424Y-111662963D01*
X48070710Y-111714138D01*
X48084086Y-111717005D01*
X48178438Y-111726672D01*
X48184854Y-111727000D01*
X48559885Y-111727000D01*
X48575124Y-111722525D01*
X48576329Y-111721135D01*
X48578000Y-111713452D01*
X48578000Y-111708884D01*
X49086000Y-111708884D01*
X49090475Y-111724123D01*
X49091865Y-111725328D01*
X49099548Y-111726999D01*
X49479095Y-111726999D01*
X49485614Y-111726662D01*
X49581206Y-111716743D01*
X49594600Y-111713851D01*
X49748784Y-111662412D01*
X49761962Y-111656239D01*
X49899807Y-111570937D01*
X49911208Y-111561901D01*
X50025739Y-111447171D01*
X50034753Y-111435757D01*
X50120723Y-111296287D01*
X50173495Y-111248793D01*
X50243566Y-111237369D01*
X50308690Y-111265643D01*
X50319149Y-111275426D01*
X50428576Y-111390135D01*
X50613542Y-111527754D01*
X50618293Y-111530170D01*
X50618297Y-111530172D01*
X50680704Y-111561901D01*
X50819051Y-111632240D01*
X50824145Y-111633822D01*
X50824148Y-111633823D01*
X50986997Y-111684389D01*
X51039227Y-111700607D01*
X51044516Y-111701308D01*
X51262489Y-111730198D01*
X51262494Y-111730198D01*
X51267774Y-111730898D01*
X51273103Y-111730698D01*
X51273105Y-111730698D01*
X51382966Y-111726574D01*
X51498158Y-111722249D01*
X51503468Y-111721135D01*
X51657634Y-111688788D01*
X51723791Y-111674907D01*
X51728750Y-111672949D01*
X51728752Y-111672948D01*
X51933256Y-111592185D01*
X51933258Y-111592184D01*
X51938221Y-111590224D01*
X51945550Y-111585777D01*
X52130757Y-111473390D01*
X52130756Y-111473390D01*
X52135317Y-111470623D01*
X52175497Y-111435757D01*
X52305412Y-111323023D01*
X52305414Y-111323021D01*
X52309445Y-111319523D01*
X52376807Y-111237369D01*
X52452240Y-111145373D01*
X52452244Y-111145367D01*
X52455624Y-111141245D01*
X52461115Y-111131600D01*
X52567032Y-110945529D01*
X52569675Y-110940886D01*
X52648337Y-110724175D01*
X52659750Y-110661061D01*
X52688623Y-110501392D01*
X52688624Y-110501385D01*
X52689361Y-110497308D01*
X52690500Y-110473156D01*
X52690500Y-110011110D01*
X52681605Y-109906277D01*
X52676371Y-109844591D01*
X52676370Y-109844587D01*
X52675920Y-109839280D01*
X52674582Y-109834125D01*
X52674581Y-109834119D01*
X52619343Y-109621297D01*
X52619342Y-109621293D01*
X52618001Y-109616128D01*
X52602480Y-109581671D01*
X52537625Y-109437699D01*
X52523312Y-109405925D01*
X52394559Y-109214681D01*
X52376713Y-109195973D01*
X52268702Y-109082749D01*
X52235424Y-109047865D01*
X52050458Y-108910246D01*
X52045707Y-108907830D01*
X52045703Y-108907828D01*
X51923731Y-108845815D01*
X51844949Y-108805760D01*
X51839855Y-108804178D01*
X51839852Y-108804177D01*
X51629871Y-108738976D01*
X51624773Y-108737393D01*
X51619484Y-108736692D01*
X51401511Y-108707802D01*
X51401506Y-108707802D01*
X51396226Y-108707102D01*
X51390897Y-108707302D01*
X51390895Y-108707302D01*
X51292368Y-108711001D01*
X51165842Y-108715751D01*
X51160623Y-108716846D01*
X51140849Y-108720995D01*
X50940209Y-108763093D01*
X50935250Y-108765051D01*
X50935248Y-108765052D01*
X50730744Y-108845815D01*
X50730742Y-108845816D01*
X50725779Y-108847776D01*
X50721220Y-108850543D01*
X50721217Y-108850544D01*
X50622832Y-108910246D01*
X50528683Y-108967377D01*
X50524653Y-108970874D01*
X50366053Y-109108500D01*
X50354555Y-109118477D01*
X50351168Y-109122608D01*
X50324994Y-109154529D01*
X50266334Y-109194524D01*
X50195364Y-109196455D01*
X50134616Y-109159710D01*
X50120416Y-109140941D01*
X50033937Y-109001193D01*
X50024901Y-108989792D01*
X49910171Y-108875261D01*
X49898760Y-108866249D01*
X49760757Y-108781184D01*
X49747576Y-108775037D01*
X49593290Y-108723862D01*
X49579914Y-108720995D01*
X49485562Y-108711328D01*
X49479145Y-108711000D01*
X49104115Y-108711000D01*
X49088876Y-108715475D01*
X49087671Y-108716865D01*
X49086000Y-108724548D01*
X49086000Y-111708884D01*
X48578000Y-111708884D01*
X48578000Y-110491115D01*
X48573525Y-110475876D01*
X48572135Y-110474671D01*
X48564452Y-110473000D01*
X47492116Y-110473000D01*
X47476877Y-110477475D01*
X47475672Y-110478865D01*
X47474001Y-110486548D01*
X47474001Y-111016095D01*
X43529864Y-111016095D01*
X43570032Y-110945529D01*
X43572675Y-110940886D01*
X43651337Y-110724175D01*
X43662750Y-110661061D01*
X43691623Y-110501392D01*
X43691624Y-110501385D01*
X43692361Y-110497308D01*
X43693500Y-110473156D01*
X43693500Y-110011110D01*
X43688051Y-109946885D01*
X47474000Y-109946885D01*
X47478475Y-109962124D01*
X47479865Y-109963329D01*
X47487548Y-109965000D01*
X48559885Y-109965000D01*
X48575124Y-109960525D01*
X48576329Y-109959135D01*
X48578000Y-109951452D01*
X48578000Y-108729116D01*
X48573525Y-108713877D01*
X48572135Y-108712672D01*
X48564452Y-108711001D01*
X48184905Y-108711001D01*
X48178386Y-108711338D01*
X48082794Y-108721257D01*
X48069400Y-108724149D01*
X47915216Y-108775588D01*
X47902038Y-108781761D01*
X47764193Y-108867063D01*
X47752792Y-108876099D01*
X47638261Y-108990829D01*
X47629249Y-109002240D01*
X47544184Y-109140243D01*
X47538037Y-109153424D01*
X47486862Y-109307710D01*
X47483995Y-109321086D01*
X47474328Y-109415438D01*
X47474000Y-109421855D01*
X47474000Y-109946885D01*
X43688051Y-109946885D01*
X43684605Y-109906277D01*
X43679371Y-109844591D01*
X43679370Y-109844587D01*
X43678920Y-109839280D01*
X43677582Y-109834125D01*
X43677581Y-109834119D01*
X43622343Y-109621297D01*
X43622342Y-109621293D01*
X43621001Y-109616128D01*
X43605480Y-109581671D01*
X43540625Y-109437699D01*
X43526312Y-109405925D01*
X43397559Y-109214681D01*
X43379713Y-109195973D01*
X43271702Y-109082749D01*
X43238424Y-109047865D01*
X43053458Y-108910246D01*
X43048707Y-108907830D01*
X43048703Y-108907828D01*
X42926731Y-108845815D01*
X42847949Y-108805760D01*
X42842855Y-108804178D01*
X42842852Y-108804177D01*
X42632871Y-108738976D01*
X42627773Y-108737393D01*
X42622484Y-108736692D01*
X42404511Y-108707802D01*
X42404506Y-108707802D01*
X42399226Y-108707102D01*
X42393897Y-108707302D01*
X42393895Y-108707302D01*
X42295368Y-108711001D01*
X42168842Y-108715751D01*
X42163623Y-108716846D01*
X42143849Y-108720995D01*
X41943209Y-108763093D01*
X41938250Y-108765051D01*
X41938248Y-108765052D01*
X41733744Y-108845815D01*
X41733742Y-108845816D01*
X41728779Y-108847776D01*
X41724220Y-108850543D01*
X41724217Y-108850544D01*
X41625832Y-108910246D01*
X41531683Y-108967377D01*
X41527653Y-108970874D01*
X41369053Y-109108500D01*
X41357555Y-109118477D01*
X41354168Y-109122608D01*
X41327994Y-109154529D01*
X41269334Y-109194524D01*
X41198364Y-109196455D01*
X41137616Y-109159710D01*
X41123416Y-109140941D01*
X41036937Y-109001193D01*
X41027901Y-108989792D01*
X40913171Y-108875261D01*
X40901760Y-108866249D01*
X40763757Y-108781184D01*
X40750576Y-108775037D01*
X40596290Y-108723862D01*
X40582914Y-108720995D01*
X40488562Y-108711328D01*
X40482145Y-108711000D01*
X40107115Y-108711000D01*
X40091876Y-108715475D01*
X40090671Y-108716865D01*
X40089000Y-108724548D01*
X40089000Y-111708884D01*
X39581000Y-111708884D01*
X39581000Y-110491115D01*
X39576525Y-110475876D01*
X39575135Y-110474671D01*
X39567452Y-110473000D01*
X38495116Y-110473000D01*
X38479877Y-110477475D01*
X38478672Y-110478865D01*
X38477001Y-110486548D01*
X38477001Y-111016095D01*
X31370000Y-111016095D01*
X31370000Y-109946885D01*
X38477000Y-109946885D01*
X38481475Y-109962124D01*
X38482865Y-109963329D01*
X38490548Y-109965000D01*
X39562885Y-109965000D01*
X39578124Y-109960525D01*
X39579329Y-109959135D01*
X39581000Y-109951452D01*
X39581000Y-108729116D01*
X39576525Y-108713877D01*
X39575135Y-108712672D01*
X39567452Y-108711001D01*
X39187905Y-108711001D01*
X39181386Y-108711338D01*
X39085794Y-108721257D01*
X39072400Y-108724149D01*
X38918216Y-108775588D01*
X38905038Y-108781761D01*
X38767193Y-108867063D01*
X38755792Y-108876099D01*
X38641261Y-108990829D01*
X38632249Y-109002240D01*
X38547184Y-109140243D01*
X38541037Y-109153424D01*
X38489862Y-109307710D01*
X38486995Y-109321086D01*
X38477328Y-109415438D01*
X38477000Y-109421855D01*
X38477000Y-109946885D01*
X31370000Y-109946885D01*
X31370000Y-104607134D01*
X43840500Y-104607134D01*
X43847255Y-104669316D01*
X43898385Y-104805705D01*
X43985739Y-104922261D01*
X44102295Y-105009615D01*
X44238684Y-105060745D01*
X44300866Y-105067500D01*
X45997134Y-105067500D01*
X46059316Y-105060745D01*
X46195705Y-105009615D01*
X46312261Y-104922261D01*
X46370119Y-104845062D01*
X46927493Y-104845062D01*
X46936789Y-104857077D01*
X46987994Y-104892931D01*
X46997489Y-104898414D01*
X47194947Y-104990490D01*
X47205239Y-104994236D01*
X47415688Y-105050625D01*
X47426481Y-105052528D01*
X47643525Y-105071517D01*
X47654475Y-105071517D01*
X47871519Y-105052528D01*
X47882312Y-105050625D01*
X48092761Y-104994236D01*
X48103053Y-104990490D01*
X48300511Y-104898414D01*
X48310006Y-104892931D01*
X48362048Y-104856491D01*
X48370424Y-104846012D01*
X48363356Y-104832566D01*
X47661812Y-104131022D01*
X47647868Y-104123408D01*
X47646035Y-104123539D01*
X47639420Y-104127790D01*
X46933923Y-104833287D01*
X46927493Y-104845062D01*
X46370119Y-104845062D01*
X46399615Y-104805705D01*
X46450745Y-104669316D01*
X46457500Y-104607134D01*
X46457500Y-104603815D01*
X46481153Y-104536890D01*
X46527156Y-104501196D01*
X46526141Y-104499266D01*
X46537000Y-104493558D01*
X46537245Y-104493368D01*
X46537403Y-104493347D01*
X46575434Y-104473356D01*
X47276978Y-103771812D01*
X47283356Y-103760132D01*
X48013408Y-103760132D01*
X48013539Y-103761965D01*
X48017790Y-103768580D01*
X48723287Y-104474077D01*
X48735062Y-104480507D01*
X48747077Y-104471211D01*
X48782931Y-104420006D01*
X48788414Y-104410511D01*
X48880490Y-104213053D01*
X48884236Y-104202761D01*
X48940625Y-103992312D01*
X48942528Y-103981519D01*
X48961517Y-103764475D01*
X48961517Y-103753525D01*
X48942528Y-103536481D01*
X48940625Y-103525688D01*
X48884236Y-103315239D01*
X48880490Y-103304947D01*
X48788414Y-103107489D01*
X48782931Y-103097994D01*
X48746491Y-103045952D01*
X48736012Y-103037576D01*
X48722566Y-103044644D01*
X48021022Y-103746188D01*
X48013408Y-103760132D01*
X47283356Y-103760132D01*
X47284592Y-103757868D01*
X47284461Y-103756035D01*
X47280210Y-103749420D01*
X46574713Y-103043923D01*
X46532971Y-103021129D01*
X46522971Y-103018953D01*
X46472773Y-102968747D01*
X46457549Y-102915186D01*
X46457500Y-102914281D01*
X46457500Y-102910866D01*
X46450745Y-102848684D01*
X46399615Y-102712295D01*
X46369407Y-102671988D01*
X46927576Y-102671988D01*
X46934644Y-102685434D01*
X47636188Y-103386978D01*
X47650132Y-103394592D01*
X47651965Y-103394461D01*
X47658580Y-103390210D01*
X48364077Y-102684713D01*
X48370507Y-102672938D01*
X48361211Y-102660923D01*
X48310006Y-102625069D01*
X48300511Y-102619586D01*
X48103053Y-102527510D01*
X48092761Y-102523764D01*
X47882312Y-102467375D01*
X47871519Y-102465472D01*
X47654475Y-102446483D01*
X47643525Y-102446483D01*
X47426481Y-102465472D01*
X47415688Y-102467375D01*
X47205239Y-102523764D01*
X47194947Y-102527510D01*
X46997489Y-102619586D01*
X46987994Y-102625069D01*
X46935952Y-102661509D01*
X46927576Y-102671988D01*
X46369407Y-102671988D01*
X46312261Y-102595739D01*
X46195705Y-102508385D01*
X46059316Y-102457255D01*
X45997134Y-102450500D01*
X44300866Y-102450500D01*
X44238684Y-102457255D01*
X44102295Y-102508385D01*
X43985739Y-102595739D01*
X43898385Y-102712295D01*
X43847255Y-102848684D01*
X43840500Y-102910866D01*
X43840500Y-104607134D01*
X31370000Y-104607134D01*
X31370000Y-99201109D01*
X34710234Y-99201109D01*
X34728091Y-99553606D01*
X34728628Y-99556961D01*
X34728629Y-99556967D01*
X34747237Y-99673139D01*
X34783912Y-99902113D01*
X34877046Y-100242553D01*
X35006403Y-100570943D01*
X35007986Y-100573958D01*
X35168884Y-100880426D01*
X35168889Y-100880434D01*
X35170468Y-100883442D01*
X35172362Y-100886260D01*
X35172367Y-100886269D01*
X35300272Y-101076611D01*
X35367324Y-101176395D01*
X35594667Y-101446373D01*
X35597127Y-101448724D01*
X35597130Y-101448727D01*
X35847375Y-101687866D01*
X35847382Y-101687872D01*
X35849838Y-101690219D01*
X36129851Y-101905081D01*
X36132769Y-101906855D01*
X36428517Y-102086673D01*
X36428522Y-102086676D01*
X36431432Y-102088445D01*
X36434520Y-102089891D01*
X36434519Y-102089891D01*
X36747968Y-102236722D01*
X36747978Y-102236726D01*
X36751052Y-102238166D01*
X36754270Y-102239268D01*
X36754273Y-102239269D01*
X37081741Y-102351387D01*
X37081745Y-102351388D01*
X37084972Y-102352493D01*
X37088302Y-102353243D01*
X37088311Y-102353246D01*
X37331664Y-102408087D01*
X37429286Y-102430087D01*
X37432671Y-102430473D01*
X37432679Y-102430474D01*
X37776583Y-102469657D01*
X37776591Y-102469657D01*
X37779966Y-102470042D01*
X37783370Y-102470060D01*
X37783373Y-102470060D01*
X37975127Y-102471064D01*
X38132911Y-102471890D01*
X38136297Y-102471540D01*
X38136299Y-102471540D01*
X38480598Y-102435961D01*
X38480607Y-102435960D01*
X38483990Y-102435610D01*
X38487323Y-102434896D01*
X38487326Y-102434895D01*
X38657192Y-102398479D01*
X38829098Y-102361625D01*
X39164197Y-102250801D01*
X39485367Y-102104436D01*
X39770198Y-101935316D01*
X39785907Y-101925989D01*
X39785912Y-101925986D01*
X39788852Y-101924240D01*
X39814370Y-101905081D01*
X39825273Y-101896895D01*
X54898751Y-101896895D01*
X54899048Y-101902048D01*
X54899048Y-101902051D01*
X54910799Y-102105854D01*
X54911610Y-102119915D01*
X54912747Y-102124961D01*
X54912748Y-102124967D01*
X54928225Y-102193642D01*
X54960722Y-102337839D01*
X55009369Y-102457642D01*
X55035294Y-102521488D01*
X55044766Y-102544816D01*
X55090585Y-102619586D01*
X55130937Y-102685434D01*
X55161487Y-102735288D01*
X55307750Y-102904138D01*
X55313595Y-102908991D01*
X55316481Y-102911387D01*
X55356116Y-102970290D01*
X55357613Y-103041271D01*
X55320497Y-103101793D01*
X55280224Y-103126312D01*
X55164795Y-103169585D01*
X55048239Y-103256939D01*
X54960885Y-103373495D01*
X54909755Y-103509884D01*
X54903000Y-103572066D01*
X54903000Y-105368334D01*
X54909755Y-105430516D01*
X54960885Y-105566905D01*
X55048239Y-105683461D01*
X55164795Y-105770815D01*
X55301184Y-105821945D01*
X55363366Y-105828700D01*
X57159634Y-105828700D01*
X57221816Y-105821945D01*
X57358205Y-105770815D01*
X57474761Y-105683461D01*
X57562115Y-105566905D01*
X57613245Y-105430516D01*
X57620000Y-105368334D01*
X57620000Y-103572066D01*
X57613245Y-103509884D01*
X57602677Y-103481695D01*
X71047251Y-103481695D01*
X71047548Y-103486848D01*
X71047548Y-103486851D01*
X71053011Y-103581590D01*
X71060110Y-103704715D01*
X71061247Y-103709761D01*
X71061248Y-103709767D01*
X71074503Y-103768580D01*
X71109222Y-103922639D01*
X71162023Y-104052672D01*
X71185287Y-104109965D01*
X71193266Y-104129616D01*
X71309987Y-104320088D01*
X71456250Y-104488938D01*
X71628126Y-104631632D01*
X71821000Y-104744338D01*
X72029692Y-104824030D01*
X72034760Y-104825061D01*
X72034763Y-104825062D01*
X72133067Y-104845062D01*
X72248597Y-104868567D01*
X72253772Y-104868757D01*
X72253774Y-104868757D01*
X72466673Y-104876564D01*
X72466677Y-104876564D01*
X72471837Y-104876753D01*
X72476957Y-104876097D01*
X72476959Y-104876097D01*
X72688288Y-104849025D01*
X72688289Y-104849025D01*
X72693416Y-104848368D01*
X72701269Y-104846012D01*
X72902429Y-104785661D01*
X72902434Y-104785659D01*
X72907384Y-104784174D01*
X73107994Y-104685896D01*
X73289860Y-104556173D01*
X73345030Y-104501196D01*
X73444435Y-104402137D01*
X73448096Y-104398489D01*
X73507594Y-104315689D01*
X73575435Y-104221277D01*
X73578453Y-104217077D01*
X73583337Y-104207196D01*
X73675136Y-104021453D01*
X73675137Y-104021451D01*
X73677430Y-104016811D01*
X73742370Y-103803069D01*
X73771529Y-103581590D01*
X73773156Y-103515000D01*
X73754852Y-103292361D01*
X73700431Y-103075702D01*
X73611354Y-102870840D01*
X73526186Y-102739190D01*
X73492822Y-102687617D01*
X73492820Y-102687614D01*
X73490014Y-102683277D01*
X73486532Y-102679450D01*
X73342798Y-102521488D01*
X73311746Y-102457642D01*
X73320141Y-102387143D01*
X73365317Y-102332375D01*
X73391761Y-102318706D01*
X73498297Y-102278767D01*
X73506705Y-102275615D01*
X73623261Y-102188261D01*
X73710615Y-102071705D01*
X73761745Y-101935316D01*
X73768500Y-101873134D01*
X73768500Y-100076866D01*
X73761745Y-100014684D01*
X73710615Y-99878295D01*
X73623261Y-99761739D01*
X73506705Y-99674385D01*
X73370316Y-99623255D01*
X73308134Y-99616500D01*
X71511866Y-99616500D01*
X71449684Y-99623255D01*
X71313295Y-99674385D01*
X71196739Y-99761739D01*
X71109385Y-99878295D01*
X71058255Y-100014684D01*
X71051500Y-100076866D01*
X71051500Y-101873134D01*
X71058255Y-101935316D01*
X71109385Y-102071705D01*
X71196739Y-102188261D01*
X71313295Y-102275615D01*
X71321704Y-102278767D01*
X71321705Y-102278768D01*
X71430451Y-102319535D01*
X71487216Y-102362176D01*
X71511916Y-102428738D01*
X71496709Y-102498087D01*
X71477316Y-102524568D01*
X71453758Y-102549220D01*
X71386515Y-102619586D01*
X71350629Y-102657138D01*
X71347715Y-102661410D01*
X71347714Y-102661411D01*
X71331327Y-102685434D01*
X71224743Y-102841680D01*
X71130688Y-103044305D01*
X71070989Y-103259570D01*
X71047251Y-103481695D01*
X57602677Y-103481695D01*
X57562115Y-103373495D01*
X57474761Y-103256939D01*
X57358205Y-103169585D01*
X57345632Y-103164872D01*
X57239703Y-103125160D01*
X57182939Y-103082518D01*
X57158239Y-103015956D01*
X57173447Y-102946608D01*
X57194993Y-102917927D01*
X57264478Y-102848684D01*
X57299596Y-102813689D01*
X57359094Y-102730889D01*
X57426935Y-102636477D01*
X57429953Y-102632277D01*
X57433516Y-102625069D01*
X57526636Y-102436653D01*
X57526637Y-102436651D01*
X57528930Y-102432011D01*
X57593870Y-102218269D01*
X57623029Y-101996790D01*
X57624656Y-101930200D01*
X57606352Y-101707561D01*
X57551931Y-101490902D01*
X57462854Y-101286040D01*
X57393611Y-101179007D01*
X57344322Y-101102817D01*
X57344320Y-101102814D01*
X57341514Y-101098477D01*
X57191170Y-100933251D01*
X57187119Y-100930052D01*
X57187115Y-100930048D01*
X57019914Y-100798000D01*
X57019910Y-100797998D01*
X57015859Y-100794798D01*
X56974553Y-100771996D01*
X56924584Y-100721564D01*
X56909812Y-100652121D01*
X56934928Y-100585716D01*
X56962280Y-100559109D01*
X57006103Y-100527850D01*
X57141360Y-100431373D01*
X57299596Y-100273689D01*
X57319692Y-100245723D01*
X57426935Y-100096477D01*
X57429953Y-100092277D01*
X57435527Y-100081000D01*
X57526636Y-99896653D01*
X57526637Y-99896651D01*
X57528930Y-99892011D01*
X57593870Y-99678269D01*
X57623029Y-99456790D01*
X57624656Y-99390200D01*
X57606758Y-99172500D01*
X79310454Y-99172500D01*
X79311144Y-99179065D01*
X79317242Y-99237080D01*
X79330416Y-99362428D01*
X79389431Y-99544056D01*
X79392734Y-99549778D01*
X79392735Y-99549779D01*
X79412597Y-99584180D01*
X79484918Y-99709444D01*
X79489336Y-99714351D01*
X79489337Y-99714352D01*
X79589759Y-99825882D01*
X79612705Y-99851366D01*
X79668648Y-99892011D01*
X79759716Y-99958176D01*
X79767206Y-99963618D01*
X79773234Y-99966302D01*
X79773236Y-99966303D01*
X79926913Y-100034724D01*
X79941670Y-100041294D01*
X80035070Y-100061147D01*
X80122014Y-100079628D01*
X80122019Y-100079628D01*
X80128471Y-100081000D01*
X80319445Y-100081000D01*
X80325897Y-100079628D01*
X80325902Y-100079628D01*
X80412845Y-100061147D01*
X80506246Y-100041294D01*
X80521003Y-100034724D01*
X80674680Y-99966303D01*
X80674682Y-99966302D01*
X80680710Y-99963618D01*
X80688201Y-99958176D01*
X80779268Y-99892011D01*
X80835211Y-99851366D01*
X80858157Y-99825882D01*
X80958579Y-99714352D01*
X80958580Y-99714351D01*
X80962998Y-99709444D01*
X81058485Y-99544056D01*
X81061295Y-99545678D01*
X81097721Y-99502172D01*
X81167628Y-99481001D01*
X83388095Y-99481001D01*
X83456216Y-99501003D01*
X83502709Y-99554659D01*
X83513405Y-99593832D01*
X83515226Y-99611160D01*
X83574241Y-99792788D01*
X83577544Y-99798510D01*
X83577545Y-99798511D01*
X83579920Y-99802625D01*
X83669728Y-99958176D01*
X83674146Y-99963083D01*
X83674147Y-99963084D01*
X83780319Y-100081000D01*
X83797515Y-100100098D01*
X83867560Y-100150989D01*
X83922478Y-100190889D01*
X83952016Y-100212350D01*
X83958044Y-100215034D01*
X83958046Y-100215035D01*
X84097980Y-100277337D01*
X84126480Y-100290026D01*
X84219880Y-100309879D01*
X84306824Y-100328360D01*
X84306829Y-100328360D01*
X84313281Y-100329732D01*
X84504255Y-100329732D01*
X84510707Y-100328360D01*
X84510712Y-100328360D01*
X84597655Y-100309879D01*
X84691056Y-100290026D01*
X84719556Y-100277337D01*
X84859490Y-100215035D01*
X84859492Y-100215034D01*
X84865520Y-100212350D01*
X84895059Y-100190889D01*
X84949976Y-100150989D01*
X85020021Y-100100098D01*
X85037217Y-100081000D01*
X85143389Y-99963084D01*
X85143390Y-99963083D01*
X85147808Y-99958176D01*
X85237616Y-99802625D01*
X85239991Y-99798511D01*
X85239992Y-99798510D01*
X85243295Y-99792788D01*
X85292293Y-99641989D01*
X85332367Y-99583383D01*
X85385929Y-99557679D01*
X85427054Y-99548937D01*
X85427059Y-99548935D01*
X85433520Y-99547562D01*
X85455511Y-99537771D01*
X85601954Y-99472571D01*
X85601956Y-99472570D01*
X85607984Y-99469886D01*
X85627876Y-99455434D01*
X85722278Y-99386846D01*
X85762485Y-99357634D01*
X85890272Y-99215712D01*
X85985759Y-99050324D01*
X86044774Y-98868696D01*
X86051235Y-98807229D01*
X86064046Y-98685333D01*
X86064736Y-98678768D01*
X86053367Y-98570598D01*
X86045464Y-98495403D01*
X86045464Y-98495401D01*
X86044774Y-98488840D01*
X85985759Y-98307212D01*
X85890272Y-98141824D01*
X85884981Y-98135947D01*
X85766907Y-98004813D01*
X85766906Y-98004812D01*
X85762485Y-97999902D01*
X85607984Y-97887650D01*
X85601956Y-97884966D01*
X85601954Y-97884965D01*
X85439551Y-97812659D01*
X85439550Y-97812659D01*
X85433520Y-97809974D01*
X85340120Y-97790121D01*
X85253176Y-97771640D01*
X85253171Y-97771640D01*
X85246719Y-97770268D01*
X85055745Y-97770268D01*
X85049293Y-97771640D01*
X85049288Y-97771640D01*
X84962345Y-97790121D01*
X84868944Y-97809974D01*
X84862914Y-97812659D01*
X84862913Y-97812659D01*
X84859899Y-97814001D01*
X84809249Y-97836552D01*
X84780113Y-97849524D01*
X84709746Y-97858958D01*
X84680646Y-97850826D01*
X84671100Y-97846872D01*
X84629549Y-97829661D01*
X84621362Y-97828583D01*
X84621361Y-97828583D01*
X84610156Y-97827108D01*
X84578960Y-97823001D01*
X84510583Y-97813999D01*
X84510580Y-97813999D01*
X84510572Y-97813998D01*
X84478887Y-97809827D01*
X84470698Y-97808749D01*
X84439005Y-97812921D01*
X84422562Y-97813999D01*
X81167628Y-97813999D01*
X81099507Y-97793997D01*
X81061401Y-97749260D01*
X81058485Y-97750944D01*
X81032060Y-97705175D01*
X80962998Y-97585556D01*
X80941243Y-97561394D01*
X80839633Y-97448545D01*
X80839632Y-97448544D01*
X80835211Y-97443634D01*
X80680710Y-97331382D01*
X80674682Y-97328698D01*
X80674680Y-97328697D01*
X80512277Y-97256391D01*
X80512276Y-97256391D01*
X80506246Y-97253706D01*
X80396878Y-97230459D01*
X80325902Y-97215372D01*
X80325897Y-97215372D01*
X80319445Y-97214000D01*
X80128471Y-97214000D01*
X80122019Y-97215372D01*
X80122014Y-97215372D01*
X80051038Y-97230459D01*
X79941670Y-97253706D01*
X79935640Y-97256391D01*
X79935639Y-97256391D01*
X79773236Y-97328697D01*
X79773234Y-97328698D01*
X79767206Y-97331382D01*
X79612705Y-97443634D01*
X79608284Y-97448544D01*
X79608283Y-97448545D01*
X79506674Y-97561394D01*
X79484918Y-97585556D01*
X79426644Y-97686490D01*
X79394963Y-97741363D01*
X79389431Y-97750944D01*
X79330416Y-97932572D01*
X79329726Y-97939133D01*
X79329726Y-97939135D01*
X79323339Y-97999902D01*
X79310454Y-98122500D01*
X79330416Y-98312428D01*
X79389431Y-98494056D01*
X79392734Y-98499778D01*
X79392735Y-98499779D01*
X79441649Y-98584500D01*
X79458387Y-98653495D01*
X79441649Y-98710500D01*
X79389431Y-98800944D01*
X79330416Y-98982572D01*
X79329726Y-98989133D01*
X79329726Y-98989135D01*
X79313880Y-99139907D01*
X79310454Y-99172500D01*
X57606758Y-99172500D01*
X57606352Y-99167561D01*
X57551931Y-98950902D01*
X57462854Y-98746040D01*
X57358349Y-98584500D01*
X57344322Y-98562817D01*
X57344320Y-98562814D01*
X57341514Y-98558477D01*
X57191170Y-98393251D01*
X57187119Y-98390052D01*
X57187115Y-98390048D01*
X57019914Y-98258000D01*
X57019910Y-98257998D01*
X57015859Y-98254798D01*
X56820289Y-98146838D01*
X56815420Y-98145114D01*
X56815416Y-98145112D01*
X56614587Y-98073995D01*
X56614583Y-98073994D01*
X56609712Y-98072269D01*
X56604619Y-98071362D01*
X56604616Y-98071361D01*
X56394873Y-98034000D01*
X56394867Y-98033999D01*
X56389784Y-98033094D01*
X56315952Y-98032192D01*
X56171581Y-98030428D01*
X56171579Y-98030428D01*
X56166411Y-98030365D01*
X55945591Y-98064155D01*
X55733256Y-98133557D01*
X55535107Y-98236707D01*
X55530974Y-98239810D01*
X55530971Y-98239812D01*
X55360600Y-98367730D01*
X55356465Y-98370835D01*
X55202129Y-98532338D01*
X55199215Y-98536610D01*
X55199214Y-98536611D01*
X55123571Y-98647500D01*
X55076243Y-98716880D01*
X55037222Y-98800944D01*
X55002859Y-98874974D01*
X54982188Y-98919505D01*
X54922489Y-99134770D01*
X54898751Y-99356895D01*
X54899048Y-99362048D01*
X54899048Y-99362051D01*
X54904511Y-99456790D01*
X54911610Y-99579915D01*
X54912747Y-99584961D01*
X54912748Y-99584967D01*
X54932190Y-99671233D01*
X54960722Y-99797839D01*
X55004433Y-99905487D01*
X55027821Y-99963084D01*
X55044766Y-100004816D01*
X55088123Y-100075569D01*
X55157595Y-100188936D01*
X55161487Y-100195288D01*
X55307750Y-100364138D01*
X55479626Y-100506832D01*
X55550095Y-100548011D01*
X55552945Y-100549676D01*
X55601669Y-100601314D01*
X55614740Y-100671097D01*
X55588009Y-100736869D01*
X55547555Y-100770227D01*
X55535107Y-100776707D01*
X55530974Y-100779810D01*
X55530971Y-100779812D01*
X55360600Y-100907730D01*
X55356465Y-100910835D01*
X55202129Y-101072338D01*
X55076243Y-101256880D01*
X55060503Y-101290790D01*
X54988284Y-101446373D01*
X54982188Y-101459505D01*
X54922489Y-101674770D01*
X54898751Y-101896895D01*
X39825273Y-101896895D01*
X40068367Y-101714374D01*
X40071100Y-101712322D01*
X40328810Y-101471161D01*
X40558968Y-101203578D01*
X40758880Y-100912703D01*
X40760492Y-100909709D01*
X40760497Y-100909701D01*
X40924587Y-100604952D01*
X40926209Y-100601940D01*
X41058998Y-100274922D01*
X41067316Y-100245723D01*
X41114442Y-100080283D01*
X41155691Y-99935476D01*
X41174424Y-99825882D01*
X41191896Y-99723669D01*
X44196501Y-99723669D01*
X44196871Y-99730490D01*
X44202395Y-99781352D01*
X44206021Y-99796604D01*
X44251176Y-99917054D01*
X44259714Y-99932649D01*
X44336215Y-100034724D01*
X44348776Y-100047285D01*
X44450851Y-100123786D01*
X44466446Y-100132324D01*
X44586894Y-100177478D01*
X44602149Y-100181105D01*
X44653014Y-100186631D01*
X44659828Y-100187000D01*
X45384885Y-100187000D01*
X45400124Y-100182525D01*
X45401329Y-100181135D01*
X45403000Y-100173452D01*
X45403000Y-100168884D01*
X45911000Y-100168884D01*
X45915475Y-100184123D01*
X45916865Y-100185328D01*
X45924548Y-100186999D01*
X46654169Y-100186999D01*
X46660990Y-100186629D01*
X46711852Y-100181105D01*
X46727104Y-100177479D01*
X46847554Y-100132324D01*
X46863149Y-100123786D01*
X46965224Y-100047285D01*
X46977785Y-100034724D01*
X47054286Y-99932649D01*
X47062824Y-99917055D01*
X47067160Y-99905487D01*
X47109801Y-99848721D01*
X47176362Y-99824020D01*
X47245711Y-99839226D01*
X47263235Y-99850832D01*
X47381670Y-99944367D01*
X47381675Y-99944370D01*
X47385724Y-99947568D01*
X47390240Y-99950061D01*
X47390243Y-99950063D01*
X47591526Y-100061177D01*
X47591530Y-100061179D01*
X47596050Y-100063674D01*
X47600919Y-100065398D01*
X47600923Y-100065400D01*
X47817640Y-100142144D01*
X47817644Y-100142145D01*
X47822515Y-100143870D01*
X47827608Y-100144777D01*
X47827611Y-100144778D01*
X48053948Y-100185095D01*
X48053954Y-100185096D01*
X48059037Y-100186001D01*
X48140804Y-100187000D01*
X48294093Y-100188873D01*
X48294095Y-100188873D01*
X48299263Y-100188936D01*
X48536744Y-100152596D01*
X48685483Y-100103981D01*
X48760183Y-100079566D01*
X48760189Y-100079563D01*
X48765101Y-100077958D01*
X48769687Y-100075571D01*
X48769691Y-100075569D01*
X48973607Y-99969416D01*
X48978200Y-99967025D01*
X49105948Y-99871109D01*
X49166185Y-99825882D01*
X49166188Y-99825880D01*
X49170320Y-99822777D01*
X49240409Y-99749433D01*
X49332730Y-99652825D01*
X49332731Y-99652824D01*
X49336301Y-99649088D01*
X49361535Y-99612097D01*
X49416444Y-99567096D01*
X49486968Y-99558925D01*
X49550716Y-99590179D01*
X49571411Y-99614660D01*
X49575498Y-99620977D01*
X49737186Y-99798670D01*
X49800562Y-99848721D01*
X49921670Y-99944367D01*
X49921675Y-99944370D01*
X49925724Y-99947568D01*
X49930240Y-99950061D01*
X49930243Y-99950063D01*
X50131526Y-100061177D01*
X50131530Y-100061179D01*
X50136050Y-100063674D01*
X50140919Y-100065398D01*
X50140923Y-100065400D01*
X50357640Y-100142144D01*
X50357644Y-100142145D01*
X50362515Y-100143870D01*
X50367608Y-100144777D01*
X50367611Y-100144778D01*
X50593948Y-100185095D01*
X50593954Y-100185096D01*
X50599037Y-100186001D01*
X50680804Y-100187000D01*
X50834093Y-100188873D01*
X50834095Y-100188873D01*
X50839263Y-100188936D01*
X51076744Y-100152596D01*
X51225483Y-100103981D01*
X51300183Y-100079566D01*
X51300189Y-100079563D01*
X51305101Y-100077958D01*
X51309687Y-100075571D01*
X51309691Y-100075569D01*
X51513607Y-99969416D01*
X51518200Y-99967025D01*
X51645948Y-99871109D01*
X51706185Y-99825882D01*
X51706188Y-99825880D01*
X51710320Y-99822777D01*
X51876301Y-99649088D01*
X52005215Y-99460108D01*
X52008774Y-99454891D01*
X52008775Y-99454890D01*
X52011686Y-99450622D01*
X52026243Y-99419263D01*
X52110658Y-99237405D01*
X52110659Y-99237401D01*
X52112837Y-99232710D01*
X52177040Y-99001202D01*
X52182393Y-98951115D01*
X52197644Y-98808407D01*
X52197644Y-98808399D01*
X52198000Y-98805072D01*
X52198000Y-98570598D01*
X52197361Y-98562817D01*
X52185662Y-98420525D01*
X52183322Y-98392063D01*
X52124794Y-98159056D01*
X52028997Y-97938737D01*
X51907508Y-97750944D01*
X51901310Y-97741363D01*
X51901308Y-97741360D01*
X51898502Y-97737023D01*
X51736814Y-97559330D01*
X51596536Y-97448545D01*
X51552330Y-97413633D01*
X51552325Y-97413630D01*
X51548276Y-97410432D01*
X51543760Y-97407939D01*
X51543757Y-97407937D01*
X51342474Y-97296823D01*
X51342470Y-97296821D01*
X51337950Y-97294326D01*
X51333081Y-97292602D01*
X51333077Y-97292600D01*
X51116360Y-97215856D01*
X51116356Y-97215855D01*
X51111485Y-97214130D01*
X51106392Y-97213223D01*
X51106389Y-97213222D01*
X50880052Y-97172905D01*
X50880046Y-97172904D01*
X50874963Y-97171999D01*
X50787600Y-97170932D01*
X50639907Y-97169127D01*
X50639905Y-97169127D01*
X50634737Y-97169064D01*
X50397256Y-97205404D01*
X50309111Y-97234214D01*
X50173817Y-97278434D01*
X50173811Y-97278437D01*
X50168899Y-97280042D01*
X50164313Y-97282429D01*
X50164309Y-97282431D01*
X50075434Y-97328697D01*
X49955800Y-97390975D01*
X49951657Y-97394085D01*
X49951658Y-97394085D01*
X49768262Y-97531783D01*
X49763680Y-97535223D01*
X49597699Y-97708912D01*
X49572465Y-97745903D01*
X49517556Y-97790904D01*
X49447032Y-97799075D01*
X49383284Y-97767821D01*
X49362589Y-97743340D01*
X49361311Y-97741365D01*
X49358502Y-97737023D01*
X49196814Y-97559330D01*
X49056536Y-97448545D01*
X49012330Y-97413633D01*
X49012325Y-97413630D01*
X49008276Y-97410432D01*
X49003760Y-97407939D01*
X49003757Y-97407937D01*
X48802474Y-97296823D01*
X48802470Y-97296821D01*
X48797950Y-97294326D01*
X48793081Y-97292602D01*
X48793077Y-97292600D01*
X48576360Y-97215856D01*
X48576356Y-97215855D01*
X48571485Y-97214130D01*
X48566392Y-97213223D01*
X48566389Y-97213222D01*
X48340052Y-97172905D01*
X48340046Y-97172904D01*
X48334963Y-97171999D01*
X48247600Y-97170932D01*
X48099907Y-97169127D01*
X48099905Y-97169127D01*
X48094737Y-97169064D01*
X47857256Y-97205404D01*
X47769111Y-97234214D01*
X47633817Y-97278434D01*
X47633811Y-97278437D01*
X47628899Y-97280042D01*
X47624313Y-97282429D01*
X47624309Y-97282431D01*
X47535434Y-97328697D01*
X47415800Y-97390975D01*
X47260300Y-97507728D01*
X47193818Y-97532633D01*
X47124422Y-97517641D01*
X47074148Y-97467511D01*
X47066667Y-97451197D01*
X47062824Y-97440946D01*
X47054286Y-97425351D01*
X46977785Y-97323276D01*
X46965224Y-97310715D01*
X46863149Y-97234214D01*
X46847554Y-97225676D01*
X46727106Y-97180522D01*
X46711851Y-97176895D01*
X46660986Y-97171369D01*
X46654172Y-97171000D01*
X45929115Y-97171000D01*
X45913876Y-97175475D01*
X45912671Y-97176865D01*
X45911000Y-97184548D01*
X45911000Y-100168884D01*
X45403000Y-100168884D01*
X45403000Y-98951115D01*
X45398525Y-98935876D01*
X45397135Y-98934671D01*
X45389452Y-98933000D01*
X44214616Y-98933000D01*
X44199377Y-98937475D01*
X44198172Y-98938865D01*
X44196501Y-98946548D01*
X44196501Y-99723669D01*
X41191896Y-99723669D01*
X41214587Y-99590920D01*
X41214587Y-99590918D01*
X41215159Y-99587573D01*
X41215416Y-99583383D01*
X41236596Y-99237080D01*
X41236706Y-99235282D01*
X41236744Y-99224497D01*
X41236780Y-99214319D01*
X41236780Y-99214306D01*
X41236786Y-99212500D01*
X41217699Y-98860067D01*
X41160661Y-98511757D01*
X41131577Y-98406885D01*
X44196500Y-98406885D01*
X44200975Y-98422124D01*
X44202365Y-98423329D01*
X44210048Y-98425000D01*
X45384885Y-98425000D01*
X45400124Y-98420525D01*
X45401329Y-98419135D01*
X45403000Y-98411452D01*
X45403000Y-97189116D01*
X45398525Y-97173877D01*
X45397135Y-97172672D01*
X45389452Y-97171001D01*
X44659831Y-97171001D01*
X44653010Y-97171371D01*
X44602148Y-97176895D01*
X44586896Y-97180521D01*
X44466446Y-97225676D01*
X44450851Y-97234214D01*
X44348776Y-97310715D01*
X44336215Y-97323276D01*
X44259714Y-97425351D01*
X44251176Y-97440946D01*
X44206022Y-97561394D01*
X44202395Y-97576649D01*
X44196869Y-97627514D01*
X44196500Y-97634328D01*
X44196500Y-98406885D01*
X41131577Y-98406885D01*
X41066339Y-98171645D01*
X41063349Y-98164130D01*
X40954869Y-97891531D01*
X40935838Y-97843708D01*
X40802181Y-97591274D01*
X40772277Y-97534795D01*
X40772275Y-97534792D01*
X40770682Y-97531783D01*
X40764079Y-97522030D01*
X40574711Y-97242334D01*
X40574704Y-97242325D01*
X40572805Y-97239520D01*
X40570609Y-97236930D01*
X40570604Y-97236924D01*
X40482215Y-97132701D01*
X40344521Y-96970337D01*
X40088501Y-96727383D01*
X40085794Y-96725321D01*
X40085786Y-96725314D01*
X39866810Y-96558500D01*
X39807739Y-96513500D01*
X39505520Y-96331189D01*
X39502430Y-96329755D01*
X39502425Y-96329752D01*
X39345449Y-96256887D01*
X39185379Y-96182585D01*
X39182154Y-96181493D01*
X39182148Y-96181491D01*
X38854298Y-96070520D01*
X38854293Y-96070518D01*
X38851062Y-96069425D01*
X38837332Y-96066381D01*
X38768230Y-96051062D01*
X38506479Y-95993033D01*
X38381853Y-95979274D01*
X38159043Y-95954675D01*
X38159038Y-95954675D01*
X38155662Y-95954302D01*
X38152263Y-95954296D01*
X38152262Y-95954296D01*
X37985789Y-95954006D01*
X37802713Y-95953686D01*
X37671706Y-95967687D01*
X37455146Y-95990830D01*
X37455140Y-95990831D01*
X37451762Y-95991192D01*
X37106914Y-96066381D01*
X36772204Y-96178373D01*
X36451547Y-96325859D01*
X36148694Y-96507113D01*
X35867187Y-96720015D01*
X35610320Y-96962074D01*
X35608108Y-96964664D01*
X35608107Y-96964665D01*
X35426846Y-97176895D01*
X35381098Y-97230459D01*
X35379170Y-97233286D01*
X35379168Y-97233288D01*
X35376688Y-97236924D01*
X35182202Y-97522030D01*
X35153038Y-97576649D01*
X35017942Y-97829661D01*
X35015958Y-97833376D01*
X35014683Y-97836548D01*
X35014681Y-97836552D01*
X34889665Y-98147542D01*
X34884313Y-98160855D01*
X34883394Y-98164123D01*
X34883392Y-98164130D01*
X34790275Y-98495403D01*
X34788804Y-98500636D01*
X34788243Y-98503989D01*
X34788242Y-98503993D01*
X34752617Y-98716880D01*
X34730551Y-98848745D01*
X34710234Y-99201109D01*
X31370000Y-99201109D01*
X31370000Y-95404036D01*
X31390002Y-95335915D01*
X31443658Y-95289422D01*
X31496050Y-95278036D01*
X52537008Y-95286358D01*
X52537009Y-95286358D01*
X52555123Y-95286365D01*
X52554863Y-95128502D01*
X52548126Y-91049593D01*
X52572010Y-90975573D01*
X52607332Y-90926706D01*
X52607334Y-90926703D01*
X52610507Y-90922313D01*
X52696900Y-90745316D01*
X52746462Y-90574434D01*
X52750255Y-90561356D01*
X52750255Y-90561354D01*
X52751763Y-90556156D01*
X52754098Y-90535112D01*
X52763217Y-90452905D01*
X52768803Y-90402546D01*
X52770333Y-90392487D01*
X52773187Y-90377749D01*
X52774112Y-90372973D01*
X52774574Y-90360428D01*
X52770371Y-90324872D01*
X52769500Y-90310081D01*
X52769500Y-83805000D01*
X53500506Y-83805000D01*
X53520842Y-84037444D01*
X53522266Y-84042757D01*
X53522266Y-84042759D01*
X53543996Y-84123854D01*
X53581233Y-84262826D01*
X53583555Y-84267806D01*
X53583556Y-84267808D01*
X53677518Y-84469310D01*
X53677521Y-84469315D01*
X53679844Y-84474297D01*
X53683000Y-84478804D01*
X53683001Y-84478806D01*
X53806067Y-84654562D01*
X53813678Y-84665432D01*
X53978668Y-84830422D01*
X53983176Y-84833579D01*
X53983179Y-84833581D01*
X54163902Y-84960124D01*
X54169803Y-84964256D01*
X54174785Y-84966579D01*
X54174790Y-84966582D01*
X54376292Y-85060544D01*
X54381274Y-85062867D01*
X54386582Y-85064289D01*
X54386584Y-85064290D01*
X54601341Y-85121834D01*
X54601343Y-85121834D01*
X54606656Y-85123258D01*
X54839100Y-85143594D01*
X55071544Y-85123258D01*
X55076857Y-85121834D01*
X55076859Y-85121834D01*
X55291616Y-85064290D01*
X55291618Y-85064289D01*
X55296926Y-85062867D01*
X55301908Y-85060544D01*
X55503410Y-84966582D01*
X55503415Y-84966579D01*
X55508397Y-84964256D01*
X55514298Y-84960124D01*
X55695021Y-84833581D01*
X55695024Y-84833579D01*
X55699532Y-84830422D01*
X55864522Y-84665432D01*
X55872134Y-84654562D01*
X55995199Y-84478806D01*
X55995200Y-84478804D01*
X55998356Y-84474297D01*
X56000679Y-84469315D01*
X56000682Y-84469310D01*
X56094644Y-84267808D01*
X56094645Y-84267806D01*
X56096967Y-84262826D01*
X56134205Y-84123854D01*
X56155934Y-84042759D01*
X56155934Y-84042757D01*
X56157358Y-84037444D01*
X56177694Y-83805000D01*
X56157358Y-83572556D01*
X56143354Y-83520293D01*
X56098390Y-83352484D01*
X56098389Y-83352482D01*
X56096967Y-83347174D01*
X56067068Y-83283056D01*
X56000682Y-83140690D01*
X56000679Y-83140685D01*
X55998356Y-83135703D01*
X55995199Y-83131194D01*
X55867681Y-82949079D01*
X55867679Y-82949076D01*
X55864522Y-82944568D01*
X55699532Y-82779578D01*
X55695024Y-82776421D01*
X55695021Y-82776419D01*
X55512906Y-82648901D01*
X55512904Y-82648900D01*
X55508397Y-82645744D01*
X55503415Y-82643421D01*
X55503410Y-82643418D01*
X55301908Y-82549456D01*
X55301906Y-82549455D01*
X55296926Y-82547133D01*
X55291618Y-82545711D01*
X55291616Y-82545710D01*
X55076859Y-82488166D01*
X55076857Y-82488166D01*
X55071544Y-82486742D01*
X54839100Y-82466406D01*
X54606656Y-82486742D01*
X54601343Y-82488166D01*
X54601341Y-82488166D01*
X54386584Y-82545710D01*
X54386582Y-82545711D01*
X54381274Y-82547133D01*
X54376294Y-82549455D01*
X54376292Y-82549456D01*
X54174790Y-82643418D01*
X54174785Y-82643421D01*
X54169803Y-82645744D01*
X54165296Y-82648900D01*
X54165294Y-82648901D01*
X53983179Y-82776419D01*
X53983176Y-82776421D01*
X53978668Y-82779578D01*
X53813678Y-82944568D01*
X53810521Y-82949076D01*
X53810519Y-82949079D01*
X53683001Y-83131194D01*
X53679844Y-83135703D01*
X53677521Y-83140685D01*
X53677518Y-83140690D01*
X53611132Y-83283056D01*
X53581233Y-83347174D01*
X53579811Y-83352482D01*
X53579810Y-83352484D01*
X53534846Y-83520293D01*
X53520842Y-83572556D01*
X53500506Y-83805000D01*
X52769500Y-83805000D01*
X52769500Y-74909013D01*
X54099642Y-74909013D01*
X54108938Y-74921028D01*
X54165546Y-74960665D01*
X54175041Y-74966148D01*
X54376464Y-75060072D01*
X54386756Y-75063818D01*
X54601428Y-75121339D01*
X54612223Y-75123242D01*
X54833625Y-75142613D01*
X54844575Y-75142613D01*
X55065977Y-75123242D01*
X55076772Y-75121339D01*
X55291444Y-75063818D01*
X55301736Y-75060072D01*
X55503159Y-74966148D01*
X55512654Y-74960665D01*
X55570100Y-74920441D01*
X55578475Y-74909964D01*
X55571407Y-74896517D01*
X54851912Y-74177022D01*
X54837968Y-74169408D01*
X54836135Y-74169539D01*
X54829520Y-74173790D01*
X54106072Y-74897238D01*
X54099642Y-74909013D01*
X52769500Y-74909013D01*
X52769500Y-73810475D01*
X53501487Y-73810475D01*
X53520858Y-74031877D01*
X53522761Y-74042672D01*
X53580282Y-74257344D01*
X53584028Y-74267636D01*
X53677952Y-74469059D01*
X53683435Y-74478554D01*
X53723659Y-74536000D01*
X53734136Y-74544375D01*
X53747583Y-74537307D01*
X54467078Y-73817812D01*
X54473456Y-73806132D01*
X55203508Y-73806132D01*
X55203639Y-73807965D01*
X55207890Y-73814580D01*
X55931338Y-74538028D01*
X55943113Y-74544458D01*
X55955128Y-74535162D01*
X55994765Y-74478554D01*
X56000248Y-74469059D01*
X56094172Y-74267636D01*
X56097918Y-74257344D01*
X56155439Y-74042672D01*
X56157342Y-74031877D01*
X56176713Y-73810475D01*
X56176713Y-73799525D01*
X56157342Y-73578123D01*
X56155439Y-73567328D01*
X56097918Y-73352656D01*
X56094172Y-73342364D01*
X56000248Y-73140941D01*
X55994765Y-73131446D01*
X55954541Y-73074000D01*
X55944064Y-73065625D01*
X55930617Y-73072693D01*
X55211122Y-73792188D01*
X55203508Y-73806132D01*
X54473456Y-73806132D01*
X54474692Y-73803868D01*
X54474561Y-73802035D01*
X54470310Y-73795420D01*
X53746862Y-73071972D01*
X53735087Y-73065542D01*
X53723072Y-73074838D01*
X53683435Y-73131446D01*
X53677952Y-73140941D01*
X53584028Y-73342364D01*
X53580282Y-73352656D01*
X53522761Y-73567328D01*
X53520858Y-73578123D01*
X53501487Y-73799525D01*
X53501487Y-73810475D01*
X52769500Y-73810475D01*
X52769500Y-72700036D01*
X54099725Y-72700036D01*
X54106793Y-72713483D01*
X54826288Y-73432978D01*
X54840232Y-73440592D01*
X54842065Y-73440461D01*
X54848680Y-73436210D01*
X55572128Y-72712762D01*
X55578558Y-72700987D01*
X55569262Y-72688972D01*
X55512654Y-72649335D01*
X55503159Y-72643852D01*
X55301736Y-72549928D01*
X55291444Y-72546182D01*
X55076772Y-72488661D01*
X55065977Y-72486758D01*
X54844575Y-72467387D01*
X54833625Y-72467387D01*
X54612223Y-72486758D01*
X54601428Y-72488661D01*
X54386756Y-72546182D01*
X54376464Y-72549928D01*
X54175041Y-72643852D01*
X54165546Y-72649335D01*
X54108100Y-72689559D01*
X54099725Y-72700036D01*
X52769500Y-72700036D01*
X52769500Y-72262500D01*
X52789502Y-72194379D01*
X52843158Y-72147886D01*
X52895500Y-72136500D01*
X56577988Y-72136500D01*
X56646109Y-72156502D01*
G37*
G04 #@! TD.AperFunction*
M02*
