G04 #@! TF.GenerationSoftware,KiCad,Pcbnew,(7.0.0)*
G04 #@! TF.CreationDate,2023-05-29T14:24:33+02:00*
G04 #@! TF.ProjectId,hamodule,68616d6f-6475-46c6-952e-6b696361645f,V.20230529.22*
G04 #@! TF.SameCoordinates,Original*
G04 #@! TF.FileFunction,Paste,Top*
G04 #@! TF.FilePolarity,Positive*
%FSLAX46Y46*%
G04 Gerber Fmt 4.6, Leading zero omitted, Abs format (unit mm)*
G04 Created by KiCad (PCBNEW (7.0.0)) date 2023-05-29 14:24:33*
%MOMM*%
%LPD*%
G01*
G04 APERTURE LIST*
G04 Aperture macros list*
%AMRoundRect*
0 Rectangle with rounded corners*
0 $1 Rounding radius*
0 $2 $3 $4 $5 $6 $7 $8 $9 X,Y pos of 4 corners*
0 Add a 4 corners polygon primitive as box body*
4,1,4,$2,$3,$4,$5,$6,$7,$8,$9,$2,$3,0*
0 Add four circle primitives for the rounded corners*
1,1,$1+$1,$2,$3*
1,1,$1+$1,$4,$5*
1,1,$1+$1,$6,$7*
1,1,$1+$1,$8,$9*
0 Add four rect primitives between the rounded corners*
20,1,$1+$1,$2,$3,$4,$5,0*
20,1,$1+$1,$4,$5,$6,$7,0*
20,1,$1+$1,$6,$7,$8,$9,0*
20,1,$1+$1,$8,$9,$2,$3,0*%
G04 Aperture macros list end*
%ADD10RoundRect,0.249999X-1.425001X0.450001X-1.425001X-0.450001X1.425001X-0.450001X1.425001X0.450001X0*%
%ADD11RoundRect,0.250000X-0.450000X0.325000X-0.450000X-0.325000X0.450000X-0.325000X0.450000X0.325000X0*%
%ADD12RoundRect,0.250000X-0.450000X0.350000X-0.450000X-0.350000X0.450000X-0.350000X0.450000X0.350000X0*%
%ADD13RoundRect,0.237500X0.300000X0.237500X-0.300000X0.237500X-0.300000X-0.237500X0.300000X-0.237500X0*%
%ADD14RoundRect,0.250000X-0.337500X-0.475000X0.337500X-0.475000X0.337500X0.475000X-0.337500X0.475000X0*%
%ADD15RoundRect,0.237500X-0.237500X0.300000X-0.237500X-0.300000X0.237500X-0.300000X0.237500X0.300000X0*%
%ADD16RoundRect,0.237500X-0.250000X-0.237500X0.250000X-0.237500X0.250000X0.237500X-0.250000X0.237500X0*%
%ADD17R,1.800000X1.100000*%
%ADD18RoundRect,0.237500X-0.300000X-0.237500X0.300000X-0.237500X0.300000X0.237500X-0.300000X0.237500X0*%
%ADD19RoundRect,0.225000X0.225000X0.250000X-0.225000X0.250000X-0.225000X-0.250000X0.225000X-0.250000X0*%
%ADD20R,0.400000X1.000000*%
%ADD21RoundRect,0.237500X0.237500X-0.250000X0.237500X0.250000X-0.237500X0.250000X-0.237500X-0.250000X0*%
%ADD22RoundRect,0.218750X0.256250X-0.218750X0.256250X0.218750X-0.256250X0.218750X-0.256250X-0.218750X0*%
%ADD23RoundRect,0.200000X0.200000X0.275000X-0.200000X0.275000X-0.200000X-0.275000X0.200000X-0.275000X0*%
%ADD24R,0.900000X1.500000*%
%ADD25R,1.500000X0.900000*%
%ADD26R,1.000000X1.000000*%
%ADD27RoundRect,0.112500X-0.112500X0.187500X-0.112500X-0.187500X0.112500X-0.187500X0.112500X0.187500X0*%
%ADD28RoundRect,0.250000X0.337500X0.475000X-0.337500X0.475000X-0.337500X-0.475000X0.337500X-0.475000X0*%
%ADD29R,0.600000X1.450000*%
%ADD30R,0.300000X1.450000*%
%ADD31RoundRect,0.150000X-0.875000X-0.150000X0.875000X-0.150000X0.875000X0.150000X-0.875000X0.150000X0*%
%ADD32RoundRect,0.249999X-0.450001X-1.425001X0.450001X-1.425001X0.450001X1.425001X-0.450001X1.425001X0*%
%ADD33R,0.820000X0.304800*%
%ADD34R,0.820000X0.308800*%
%ADD35RoundRect,0.150000X0.150000X-0.512500X0.150000X0.512500X-0.150000X0.512500X-0.150000X-0.512500X0*%
%ADD36RoundRect,0.225000X-0.225000X-0.250000X0.225000X-0.250000X0.225000X0.250000X-0.225000X0.250000X0*%
%ADD37RoundRect,0.250000X0.450000X-0.350000X0.450000X0.350000X-0.450000X0.350000X-0.450000X-0.350000X0*%
G04 APERTURE END LIST*
D10*
X100151000Y-56411500D03*
X100151000Y-62511500D03*
X105104000Y-56411500D03*
X105104000Y-62511500D03*
X105104000Y-64463300D03*
X105104000Y-70563300D03*
X100151000Y-64463300D03*
X100151000Y-70563300D03*
D11*
X54089300Y-98729800D03*
X54089300Y-100779800D03*
D12*
X52006500Y-98747800D03*
X52006500Y-100747800D03*
D13*
X33628500Y-102882700D03*
X31903500Y-102882700D03*
D14*
X42269500Y-106692700D03*
X44344500Y-106692700D03*
D15*
X64859400Y-86437300D03*
X64859400Y-88162300D03*
D10*
X115162400Y-64463300D03*
X115162400Y-70563300D03*
X110133200Y-56411500D03*
X110133200Y-62511500D03*
X115162400Y-56411500D03*
X115162400Y-62511500D03*
X110133200Y-64463300D03*
X110133200Y-70563300D03*
D16*
X130464402Y-89787199D03*
X132289402Y-89787199D03*
D13*
X132226902Y-91311199D03*
X130501902Y-91311199D03*
D17*
X89546999Y-99542599D03*
X95746999Y-99542599D03*
X89546999Y-103242599D03*
X95746999Y-103242599D03*
X89545799Y-110980999D03*
X95745799Y-110980999D03*
X89545799Y-114680999D03*
X95745799Y-114680999D03*
D18*
X133856902Y-91311199D03*
X135581902Y-91311199D03*
D15*
X111655402Y-102307199D03*
X111655402Y-104032199D03*
D19*
X101710402Y-101389699D03*
X100160402Y-101389699D03*
D20*
X57888799Y-90177599D03*
X58538799Y-90177599D03*
X59188799Y-90177599D03*
X59838799Y-90177599D03*
X60488799Y-90177599D03*
X61138799Y-90177599D03*
X61788799Y-90177599D03*
X62438799Y-90177599D03*
X63088799Y-90177599D03*
X63088799Y-84777599D03*
X62438799Y-84777599D03*
X61788799Y-84777599D03*
X61138799Y-84777599D03*
X60488799Y-84777599D03*
X59838799Y-84777599D03*
X59188799Y-84777599D03*
X58538799Y-84777599D03*
X57888799Y-84777599D03*
D21*
X63333600Y-105816400D03*
X63333600Y-103991400D03*
D18*
X77472200Y-90474800D03*
X79197200Y-90474800D03*
D21*
X61708000Y-105814500D03*
X61708000Y-103989500D03*
D10*
X128459200Y-64567800D03*
X128459200Y-70667800D03*
D18*
X120400002Y-85761299D03*
X122125002Y-85761299D03*
D10*
X128459200Y-56435800D03*
X128459200Y-62535800D03*
D22*
X61708000Y-108991600D03*
X61708000Y-107416600D03*
D18*
X132032102Y-85761299D03*
X133757102Y-85761299D03*
D16*
X108614626Y-84212480D03*
X110439626Y-84212480D03*
D21*
X69836000Y-105814500D03*
X69836000Y-103989500D03*
X68210400Y-105816400D03*
X68210400Y-103991400D03*
D10*
X123520200Y-64615600D03*
X123520200Y-70715600D03*
D16*
X97487526Y-84212480D03*
X99312526Y-84212480D03*
D23*
X114330402Y-98479699D03*
X112680402Y-98479699D03*
D16*
X137213702Y-84237299D03*
X139038702Y-84237299D03*
D10*
X123520200Y-56485600D03*
X123520200Y-62585600D03*
D23*
X114330402Y-99954699D03*
X112680402Y-99954699D03*
D24*
X135115401Y-93119698D03*
X133845401Y-93119698D03*
X132575401Y-93119698D03*
X131305401Y-93119698D03*
X130035401Y-93119698D03*
X128765401Y-93119698D03*
X127495401Y-93119698D03*
X126225401Y-93119698D03*
X124955401Y-93119698D03*
X123685401Y-93119698D03*
X122415401Y-93119698D03*
X121145401Y-93119698D03*
X119875401Y-93119698D03*
X118605401Y-93119698D03*
D25*
X117355401Y-94884698D03*
X117355401Y-96154698D03*
X117355401Y-97424698D03*
X117355401Y-98694698D03*
X117355401Y-99964698D03*
X117355401Y-101234698D03*
X117355401Y-102504698D03*
X117355401Y-103774698D03*
X117355401Y-105044698D03*
X117355401Y-106314698D03*
X117355401Y-107584698D03*
X117355401Y-108854698D03*
D24*
X118605401Y-110619698D03*
X119875401Y-110619698D03*
X121145401Y-110619698D03*
X122415401Y-110619698D03*
X123685401Y-110619698D03*
X124955401Y-110619698D03*
X126225401Y-110619698D03*
X127495401Y-110619698D03*
X128765401Y-110619698D03*
X130035401Y-110619698D03*
X131305401Y-110619698D03*
X132575401Y-110619698D03*
X133845401Y-110619698D03*
X135115401Y-110619698D03*
D26*
X131265401Y-99009698D03*
X129765401Y-99009698D03*
X128265401Y-99009698D03*
X131265401Y-100509698D03*
X129765401Y-100509698D03*
X128265401Y-100509698D03*
X131265401Y-102009698D03*
X129765401Y-102009698D03*
X128265401Y-102009698D03*
D10*
X138492200Y-56435800D03*
X138492200Y-62535800D03*
D22*
X69836000Y-108991500D03*
X69836000Y-107416500D03*
D23*
X88480400Y-105156000D03*
X86830400Y-105156000D03*
D16*
X125582402Y-84237299D03*
X127407402Y-84237299D03*
D11*
X133895402Y-112704699D03*
X133895402Y-114754699D03*
D27*
X97955600Y-103208400D03*
X97955600Y-105308400D03*
D10*
X133513800Y-56435800D03*
X133513800Y-62535800D03*
D13*
X138988702Y-85761299D03*
X137263702Y-85761299D03*
D28*
X33549500Y-104660700D03*
X31474500Y-104660700D03*
D29*
X99231401Y-108330598D03*
X100031401Y-108330598D03*
D30*
X101231401Y-108330598D03*
X102231401Y-108330598D03*
X102731401Y-108330598D03*
X103731401Y-108330598D03*
D29*
X104931401Y-108330598D03*
X105731401Y-108330598D03*
X105731401Y-108330598D03*
X104931401Y-108330598D03*
D30*
X104231401Y-108330598D03*
X103231401Y-108330598D03*
X101731401Y-108330598D03*
X100731401Y-108330598D03*
D29*
X100031401Y-108330598D03*
X99231401Y-108330598D03*
D16*
X114405826Y-84212480D03*
X116230826Y-84212480D03*
D21*
X64959200Y-105816400D03*
X64959200Y-103991400D03*
D18*
X108661626Y-85736480D03*
X110386626Y-85736480D03*
D22*
X73087200Y-108991500D03*
X73087200Y-107416500D03*
D31*
X75498400Y-92278200D03*
X75498400Y-93548200D03*
X75498400Y-94818200D03*
X75498400Y-96088200D03*
X75498400Y-97358200D03*
X75498400Y-98628200D03*
X75498400Y-99898200D03*
X75498400Y-101168200D03*
X75498400Y-102438200D03*
X75498400Y-103708200D03*
X75498400Y-104978200D03*
X75498400Y-106248200D03*
X75498400Y-107518200D03*
X75498400Y-108788200D03*
X84798400Y-108788200D03*
X84798400Y-107518200D03*
X84798400Y-106248200D03*
X84798400Y-104978200D03*
X84798400Y-103708200D03*
X84798400Y-102438200D03*
X84798400Y-101168200D03*
X84798400Y-99898200D03*
X84798400Y-98628200D03*
X84798400Y-97358200D03*
X84798400Y-96088200D03*
X84798400Y-94818200D03*
X84798400Y-93548200D03*
X84798400Y-92278200D03*
D18*
X103279026Y-85838080D03*
X105004026Y-85838080D03*
X42190500Y-102882700D03*
X43915500Y-102882700D03*
D16*
X120350002Y-84237299D03*
X122175002Y-84237299D03*
D22*
X63333600Y-108991500D03*
X63333600Y-107416500D03*
D21*
X73087200Y-105814500D03*
X73087200Y-103989500D03*
D18*
X125632402Y-85761299D03*
X127357402Y-85761299D03*
D13*
X116177826Y-85736480D03*
X114452826Y-85736480D03*
D21*
X105185402Y-105172199D03*
X105185402Y-103347199D03*
X71461600Y-105814500D03*
X71461600Y-103989500D03*
D32*
X112672400Y-114350800D03*
X118772400Y-114350800D03*
D33*
X115125401Y-103269698D03*
D34*
X115125401Y-102458898D03*
X113405401Y-102458898D03*
D33*
X113405401Y-103269698D03*
D22*
X66584800Y-108991500D03*
X66584800Y-107416500D03*
D35*
X101535402Y-105367199D03*
X102485402Y-105367199D03*
X103435402Y-105367199D03*
X103435402Y-103092199D03*
X102485402Y-103092199D03*
X101535402Y-103092199D03*
D36*
X103250402Y-101389699D03*
X104800402Y-101389699D03*
D16*
X113234502Y-105612299D03*
X115059502Y-105612299D03*
D28*
X33549500Y-106692700D03*
X31474500Y-106692700D03*
D22*
X64959200Y-108991500D03*
X64959200Y-107416500D03*
D10*
X133513800Y-64563800D03*
X133513800Y-70663800D03*
D22*
X68210400Y-108991500D03*
X68210400Y-107416500D03*
D10*
X138492200Y-64563800D03*
X138492200Y-70663800D03*
D18*
X133876002Y-89787199D03*
X135601002Y-89787199D03*
D14*
X42269500Y-104660700D03*
X44344500Y-104660700D03*
D21*
X66584800Y-105816400D03*
X66584800Y-103991400D03*
D16*
X103227926Y-84263280D03*
X105052926Y-84263280D03*
X113234502Y-107136299D03*
X115059502Y-107136299D03*
D37*
X131895402Y-114729699D03*
X131895402Y-112729699D03*
D21*
X99715402Y-105152199D03*
X99715402Y-103327199D03*
D18*
X97536426Y-85736480D03*
X99261426Y-85736480D03*
D14*
X133498302Y-88019699D03*
X135573302Y-88019699D03*
D22*
X71461600Y-108991500D03*
X71461600Y-107416500D03*
D16*
X131981302Y-84237299D03*
X133806302Y-84237299D03*
M02*
