G04 #@! TF.GenerationSoftware,KiCad,Pcbnew,(7.0.0)*
G04 #@! TF.CreationDate,2023-05-29T14:24:33+02:00*
G04 #@! TF.ProjectId,hamodule,68616d6f-6475-46c6-952e-6b696361645f,V.20230529.22*
G04 #@! TF.SameCoordinates,Original*
G04 #@! TF.FileFunction,Copper,L1,Top*
G04 #@! TF.FilePolarity,Positive*
%FSLAX46Y46*%
G04 Gerber Fmt 4.6, Leading zero omitted, Abs format (unit mm)*
G04 Created by KiCad (PCBNEW (7.0.0)) date 2023-05-29 14:24:33*
%MOMM*%
%LPD*%
G01*
G04 APERTURE LIST*
G04 Aperture macros list*
%AMRoundRect*
0 Rectangle with rounded corners*
0 $1 Rounding radius*
0 $2 $3 $4 $5 $6 $7 $8 $9 X,Y pos of 4 corners*
0 Add a 4 corners polygon primitive as box body*
4,1,4,$2,$3,$4,$5,$6,$7,$8,$9,$2,$3,0*
0 Add four circle primitives for the rounded corners*
1,1,$1+$1,$2,$3*
1,1,$1+$1,$4,$5*
1,1,$1+$1,$6,$7*
1,1,$1+$1,$8,$9*
0 Add four rect primitives between the rounded corners*
20,1,$1+$1,$2,$3,$4,$5,0*
20,1,$1+$1,$4,$5,$6,$7,0*
20,1,$1+$1,$6,$7,$8,$9,0*
20,1,$1+$1,$8,$9,$2,$3,0*%
G04 Aperture macros list end*
G04 #@! TA.AperFunction,ComponentPad*
%ADD10R,1.700000X1.700000*%
G04 #@! TD*
G04 #@! TA.AperFunction,ComponentPad*
%ADD11O,1.700000X1.700000*%
G04 #@! TD*
G04 #@! TA.AperFunction,SMDPad,CuDef*
%ADD12RoundRect,0.249999X-1.425001X0.450001X-1.425001X-0.450001X1.425001X-0.450001X1.425001X0.450001X0*%
G04 #@! TD*
G04 #@! TA.AperFunction,ComponentPad*
%ADD13C,1.800000*%
G04 #@! TD*
G04 #@! TA.AperFunction,SMDPad,CuDef*
%ADD14RoundRect,0.250000X-0.450000X0.325000X-0.450000X-0.325000X0.450000X-0.325000X0.450000X0.325000X0*%
G04 #@! TD*
G04 #@! TA.AperFunction,SMDPad,CuDef*
%ADD15RoundRect,0.250000X-0.450000X0.350000X-0.450000X-0.350000X0.450000X-0.350000X0.450000X0.350000X0*%
G04 #@! TD*
G04 #@! TA.AperFunction,ComponentPad*
%ADD16RoundRect,0.250000X-0.600000X-0.750000X0.600000X-0.750000X0.600000X0.750000X-0.600000X0.750000X0*%
G04 #@! TD*
G04 #@! TA.AperFunction,ComponentPad*
%ADD17O,1.700000X2.000000*%
G04 #@! TD*
G04 #@! TA.AperFunction,SMDPad,CuDef*
%ADD18RoundRect,0.237500X0.300000X0.237500X-0.300000X0.237500X-0.300000X-0.237500X0.300000X-0.237500X0*%
G04 #@! TD*
G04 #@! TA.AperFunction,SMDPad,CuDef*
%ADD19RoundRect,0.250000X-0.337500X-0.475000X0.337500X-0.475000X0.337500X0.475000X-0.337500X0.475000X0*%
G04 #@! TD*
G04 #@! TA.AperFunction,SMDPad,CuDef*
%ADD20RoundRect,0.237500X-0.237500X0.300000X-0.237500X-0.300000X0.237500X-0.300000X0.237500X0.300000X0*%
G04 #@! TD*
G04 #@! TA.AperFunction,ComponentPad*
%ADD21R,2.000000X2.000000*%
G04 #@! TD*
G04 #@! TA.AperFunction,ComponentPad*
%ADD22C,2.000000*%
G04 #@! TD*
G04 #@! TA.AperFunction,ComponentPad*
%ADD23R,1.905000X2.000000*%
G04 #@! TD*
G04 #@! TA.AperFunction,ComponentPad*
%ADD24O,1.905000X2.000000*%
G04 #@! TD*
G04 #@! TA.AperFunction,ComponentPad*
%ADD25RoundRect,0.625000X0.625000X0.625000X-0.625000X0.625000X-0.625000X-0.625000X0.625000X-0.625000X0*%
G04 #@! TD*
G04 #@! TA.AperFunction,ComponentPad*
%ADD26C,5.500000*%
G04 #@! TD*
G04 #@! TA.AperFunction,ComponentPad*
%ADD27R,1.600000X2.400000*%
G04 #@! TD*
G04 #@! TA.AperFunction,ComponentPad*
%ADD28O,1.600000X2.400000*%
G04 #@! TD*
G04 #@! TA.AperFunction,SMDPad,CuDef*
%ADD29RoundRect,0.237500X-0.250000X-0.237500X0.250000X-0.237500X0.250000X0.237500X-0.250000X0.237500X0*%
G04 #@! TD*
G04 #@! TA.AperFunction,SMDPad,CuDef*
%ADD30R,1.800000X1.100000*%
G04 #@! TD*
G04 #@! TA.AperFunction,SMDPad,CuDef*
%ADD31RoundRect,0.237500X-0.300000X-0.237500X0.300000X-0.237500X0.300000X0.237500X-0.300000X0.237500X0*%
G04 #@! TD*
G04 #@! TA.AperFunction,SMDPad,CuDef*
%ADD32RoundRect,0.225000X0.225000X0.250000X-0.225000X0.250000X-0.225000X-0.250000X0.225000X-0.250000X0*%
G04 #@! TD*
G04 #@! TA.AperFunction,SMDPad,CuDef*
%ADD33R,0.400000X1.000000*%
G04 #@! TD*
G04 #@! TA.AperFunction,SMDPad,CuDef*
%ADD34RoundRect,0.237500X0.237500X-0.250000X0.237500X0.250000X-0.237500X0.250000X-0.237500X-0.250000X0*%
G04 #@! TD*
G04 #@! TA.AperFunction,SMDPad,CuDef*
%ADD35RoundRect,0.218750X0.256250X-0.218750X0.256250X0.218750X-0.256250X0.218750X-0.256250X-0.218750X0*%
G04 #@! TD*
G04 #@! TA.AperFunction,SMDPad,CuDef*
%ADD36RoundRect,0.200000X0.200000X0.275000X-0.200000X0.275000X-0.200000X-0.275000X0.200000X-0.275000X0*%
G04 #@! TD*
G04 #@! TA.AperFunction,SMDPad,CuDef*
%ADD37R,0.900000X1.500000*%
G04 #@! TD*
G04 #@! TA.AperFunction,SMDPad,CuDef*
%ADD38R,1.500000X0.900000*%
G04 #@! TD*
G04 #@! TA.AperFunction,SMDPad,CuDef*
%ADD39R,1.000000X1.000000*%
G04 #@! TD*
G04 #@! TA.AperFunction,ComponentPad*
%ADD40R,1.000000X1.000000*%
G04 #@! TD*
G04 #@! TA.AperFunction,SMDPad,CuDef*
%ADD41RoundRect,0.112500X-0.112500X0.187500X-0.112500X-0.187500X0.112500X-0.187500X0.112500X0.187500X0*%
G04 #@! TD*
G04 #@! TA.AperFunction,SMDPad,CuDef*
%ADD42RoundRect,0.250000X0.337500X0.475000X-0.337500X0.475000X-0.337500X-0.475000X0.337500X-0.475000X0*%
G04 #@! TD*
G04 #@! TA.AperFunction,SMDPad,CuDef*
%ADD43R,0.600000X1.450000*%
G04 #@! TD*
G04 #@! TA.AperFunction,SMDPad,CuDef*
%ADD44R,0.300000X1.450000*%
G04 #@! TD*
G04 #@! TA.AperFunction,ComponentPad*
%ADD45O,1.000000X2.100000*%
G04 #@! TD*
G04 #@! TA.AperFunction,ComponentPad*
%ADD46O,1.000000X1.600000*%
G04 #@! TD*
G04 #@! TA.AperFunction,SMDPad,CuDef*
%ADD47RoundRect,0.150000X-0.875000X-0.150000X0.875000X-0.150000X0.875000X0.150000X-0.875000X0.150000X0*%
G04 #@! TD*
G04 #@! TA.AperFunction,SMDPad,CuDef*
%ADD48RoundRect,0.249999X-0.450001X-1.425001X0.450001X-1.425001X0.450001X1.425001X-0.450001X1.425001X0*%
G04 #@! TD*
G04 #@! TA.AperFunction,SMDPad,CuDef*
%ADD49R,0.820000X0.304800*%
G04 #@! TD*
G04 #@! TA.AperFunction,SMDPad,CuDef*
%ADD50R,0.820000X0.308800*%
G04 #@! TD*
G04 #@! TA.AperFunction,SMDPad,CuDef*
%ADD51RoundRect,0.150000X0.150000X-0.512500X0.150000X0.512500X-0.150000X0.512500X-0.150000X-0.512500X0*%
G04 #@! TD*
G04 #@! TA.AperFunction,SMDPad,CuDef*
%ADD52RoundRect,0.225000X-0.225000X-0.250000X0.225000X-0.250000X0.225000X0.250000X-0.225000X0.250000X0*%
G04 #@! TD*
G04 #@! TA.AperFunction,ComponentPad*
%ADD53R,1.600000X1.600000*%
G04 #@! TD*
G04 #@! TA.AperFunction,ComponentPad*
%ADD54C,1.600000*%
G04 #@! TD*
G04 #@! TA.AperFunction,SMDPad,CuDef*
%ADD55RoundRect,0.250000X0.450000X-0.350000X0.450000X0.350000X-0.450000X0.350000X-0.450000X-0.350000X0*%
G04 #@! TD*
G04 #@! TA.AperFunction,ViaPad*
%ADD56C,0.800000*%
G04 #@! TD*
G04 #@! TA.AperFunction,Conductor*
%ADD57C,3.000000*%
G04 #@! TD*
G04 #@! TA.AperFunction,Conductor*
%ADD58C,0.400000*%
G04 #@! TD*
G04 #@! TA.AperFunction,Conductor*
%ADD59C,1.000000*%
G04 #@! TD*
G04 #@! TA.AperFunction,Conductor*
%ADD60C,1.500000*%
G04 #@! TD*
G04 #@! TA.AperFunction,Conductor*
%ADD61C,0.600000*%
G04 #@! TD*
G04 #@! TA.AperFunction,Conductor*
%ADD62C,0.250000*%
G04 #@! TD*
G04 #@! TA.AperFunction,Conductor*
%ADD63C,2.000000*%
G04 #@! TD*
G04 #@! TA.AperFunction,Conductor*
%ADD64C,0.200000*%
G04 #@! TD*
G04 #@! TA.AperFunction,Conductor*
%ADD65C,0.350000*%
G04 #@! TD*
G04 APERTURE END LIST*
D10*
X47752499Y-108737399D03*
D11*
X47752499Y-111277399D03*
D12*
X100151000Y-56411500D03*
X100151000Y-62511500D03*
X105104000Y-56411500D03*
X105104000Y-62511500D03*
D13*
X34520700Y-59585350D03*
X42020700Y-61218680D03*
D12*
X105104000Y-64463300D03*
X105104000Y-70563300D03*
X100151000Y-64463300D03*
X100151000Y-70563300D03*
D14*
X54089300Y-98729800D03*
X54089300Y-100779800D03*
D15*
X52006500Y-98747800D03*
X52006500Y-100747800D03*
D16*
X40323000Y-110612700D03*
D17*
X42822999Y-110612699D03*
D18*
X33628500Y-102882700D03*
X31903500Y-102882700D03*
D19*
X42269500Y-106692700D03*
X44344500Y-106692700D03*
D20*
X64859400Y-86437300D03*
X64859400Y-88162300D03*
D21*
X27655999Y-69378899D03*
D22*
X27656000Y-89378900D03*
X47656000Y-84378900D03*
X47656000Y-74378900D03*
D23*
X37147999Y-99072699D03*
D24*
X39687999Y-99072699D03*
X42227999Y-99072699D03*
D25*
X68567800Y-43332400D03*
X68567800Y-35132401D03*
X63567800Y-43332400D03*
X63567800Y-35132401D03*
X58567800Y-43332400D03*
X58567800Y-35132401D03*
X53567800Y-43332400D03*
X53567800Y-35132401D03*
X44020000Y-43355999D03*
X44020000Y-35156000D03*
X39020000Y-43355999D03*
X39020000Y-35156000D03*
X115140000Y-43328199D03*
X115140000Y-35128200D03*
X110140000Y-43328199D03*
X110140000Y-35128200D03*
X105140000Y-43328199D03*
X105140000Y-35128200D03*
X100140000Y-43328199D03*
X100140000Y-35128200D03*
D22*
X42066400Y-49662400D03*
X42056400Y-54742400D03*
D26*
X30683200Y-49657000D03*
X147777200Y-49733200D03*
D27*
X139389177Y-74236117D03*
D28*
X136849177Y-74236117D03*
X134309177Y-74236117D03*
X131769177Y-74236117D03*
X131769177Y-81856117D03*
X134309177Y-81856117D03*
X136849177Y-81856117D03*
X139389177Y-81856117D03*
D12*
X115162400Y-64463300D03*
X115162400Y-70563300D03*
X110133200Y-56411500D03*
X110133200Y-62511500D03*
X115162400Y-56411500D03*
X115162400Y-62511500D03*
D27*
X105081299Y-74239599D03*
D28*
X102541299Y-74239599D03*
X100001299Y-74239599D03*
X97461299Y-74239599D03*
X97461299Y-81859599D03*
X100001299Y-81859599D03*
X102541299Y-81859599D03*
X105081299Y-81859599D03*
D27*
X116257299Y-74239599D03*
D28*
X113717299Y-74239599D03*
X111177299Y-74239599D03*
X108637299Y-74239599D03*
X108637299Y-81859599D03*
X111177299Y-81859599D03*
X113717299Y-81859599D03*
X116257299Y-81859599D03*
D12*
X110133200Y-64463300D03*
X110133200Y-70563300D03*
D29*
X130464402Y-89787199D03*
X132289402Y-89787199D03*
D18*
X132226902Y-91311199D03*
X130501902Y-91311199D03*
D16*
X31326000Y-110612700D03*
D17*
X33825999Y-110612699D03*
D30*
X89546999Y-99542599D03*
X95746999Y-99542599D03*
X89546999Y-103242599D03*
X95746999Y-103242599D03*
X89545799Y-110980999D03*
X95745799Y-110980999D03*
X89545799Y-114680999D03*
X95745799Y-114680999D03*
D10*
X125305401Y-113659698D03*
D11*
X127845401Y-113659698D03*
D31*
X133856902Y-91311199D03*
X135581902Y-91311199D03*
D20*
X111655402Y-102307199D03*
X111655402Y-104032199D03*
D32*
X101710402Y-101389699D03*
X100160402Y-101389699D03*
D33*
X57888799Y-90177599D03*
X58538799Y-90177599D03*
X59188799Y-90177599D03*
X59838799Y-90177599D03*
X60488799Y-90177599D03*
X61138799Y-90177599D03*
X61788799Y-90177599D03*
X62438799Y-90177599D03*
X63088799Y-90177599D03*
X63088799Y-84777599D03*
X62438799Y-84777599D03*
X61788799Y-84777599D03*
X61138799Y-84777599D03*
X60488799Y-84777599D03*
X59838799Y-84777599D03*
X59188799Y-84777599D03*
X58538799Y-84777599D03*
X57888799Y-84777599D03*
D34*
X63333600Y-105816400D03*
X63333600Y-103991400D03*
D31*
X77472200Y-90474800D03*
X79197200Y-90474800D03*
D25*
X138497702Y-43328199D03*
X138497702Y-35128200D03*
X133497702Y-43328199D03*
X133497702Y-35128200D03*
X128497702Y-43328199D03*
X128497702Y-35128200D03*
X123497702Y-43328199D03*
X123497702Y-35128200D03*
X91935800Y-43332400D03*
X91935800Y-35132401D03*
X86935800Y-43332400D03*
X86935800Y-35132401D03*
X81935800Y-43332400D03*
X81935800Y-35132401D03*
X76935800Y-43332400D03*
X76935800Y-35132401D03*
D34*
X61708000Y-105814500D03*
X61708000Y-103989500D03*
D12*
X128459200Y-64567800D03*
X128459200Y-70667800D03*
D31*
X120400002Y-85761299D03*
X122125002Y-85761299D03*
D12*
X128459200Y-56435800D03*
X128459200Y-62535800D03*
D35*
X61708000Y-108991600D03*
X61708000Y-107416600D03*
D31*
X132032102Y-85761299D03*
X133757102Y-85761299D03*
D13*
X81902800Y-53619400D03*
X81902800Y-48539400D03*
D29*
X108614626Y-84212480D03*
X110439626Y-84212480D03*
D21*
X77774799Y-78043899D03*
D22*
X77774800Y-75503900D03*
X77774800Y-65343900D03*
X77774800Y-57723900D03*
D10*
X109334799Y-93878399D03*
D11*
X111874799Y-93878399D03*
X114414799Y-93878399D03*
D13*
X105104000Y-53515900D03*
X105104000Y-48435900D03*
D34*
X69836000Y-105814500D03*
X69836000Y-103989500D03*
X68210400Y-105816400D03*
X68210400Y-103991400D03*
D12*
X123520200Y-64615600D03*
X123520200Y-70715600D03*
D29*
X97487526Y-84212480D03*
X99312526Y-84212480D03*
D36*
X114330402Y-98479699D03*
X112680402Y-98479699D03*
D29*
X137213702Y-84237299D03*
X139038702Y-84237299D03*
D12*
X123520200Y-56485600D03*
X123520200Y-62585600D03*
D36*
X114330402Y-99954699D03*
X112680402Y-99954699D03*
D37*
X135115401Y-93119698D03*
X133845401Y-93119698D03*
X132575401Y-93119698D03*
X131305401Y-93119698D03*
X130035401Y-93119698D03*
X128765401Y-93119698D03*
X127495401Y-93119698D03*
X126225401Y-93119698D03*
X124955401Y-93119698D03*
X123685401Y-93119698D03*
X122415401Y-93119698D03*
X121145401Y-93119698D03*
X119875401Y-93119698D03*
X118605401Y-93119698D03*
D38*
X117355401Y-94884698D03*
X117355401Y-96154698D03*
X117355401Y-97424698D03*
X117355401Y-98694698D03*
X117355401Y-99964698D03*
X117355401Y-101234698D03*
X117355401Y-102504698D03*
X117355401Y-103774698D03*
X117355401Y-105044698D03*
X117355401Y-106314698D03*
X117355401Y-107584698D03*
X117355401Y-108854698D03*
D37*
X118605401Y-110619698D03*
X119875401Y-110619698D03*
X121145401Y-110619698D03*
X122415401Y-110619698D03*
X123685401Y-110619698D03*
X124955401Y-110619698D03*
X126225401Y-110619698D03*
X127495401Y-110619698D03*
X128765401Y-110619698D03*
X130035401Y-110619698D03*
X131305401Y-110619698D03*
X132575401Y-110619698D03*
X133845401Y-110619698D03*
X135115401Y-110619698D03*
D39*
X131265401Y-99009698D03*
X129765401Y-99009698D03*
X128265401Y-99009698D03*
X131265401Y-100509698D03*
X129765401Y-100509698D03*
X128265401Y-100509698D03*
X131265401Y-102009698D03*
X129765401Y-102009698D03*
X128265401Y-102009698D03*
D12*
X138492200Y-56435800D03*
X138492200Y-62535800D03*
D35*
X69836000Y-108991500D03*
X69836000Y-107416500D03*
D21*
X82854799Y-78043899D03*
D22*
X82854800Y-75503900D03*
X82854800Y-65343900D03*
X82854800Y-57723900D03*
D13*
X115162400Y-53515900D03*
X115162400Y-48435900D03*
D10*
X107915401Y-101544698D03*
D11*
X107915401Y-104084698D03*
D13*
X133502400Y-53517800D03*
X133502400Y-48437800D03*
D36*
X88480400Y-105156000D03*
X86830400Y-105156000D03*
D10*
X111830401Y-109769698D03*
D11*
X114370401Y-109769698D03*
D29*
X125582402Y-84237299D03*
X127407402Y-84237299D03*
D40*
X129807199Y-84531199D03*
D14*
X133895402Y-112704699D03*
X133895402Y-114754699D03*
D41*
X97955600Y-103208400D03*
X97955600Y-105308400D03*
D13*
X128497800Y-53517800D03*
X128497800Y-48437800D03*
X68408300Y-53532900D03*
X68408300Y-48452900D03*
D27*
X127705177Y-74236117D03*
D28*
X125165177Y-74236117D03*
X122625177Y-74236117D03*
X120085177Y-74236117D03*
X120085177Y-81856117D03*
X122625177Y-81856117D03*
X125165177Y-81856117D03*
X127705177Y-81856117D03*
D12*
X133513800Y-56435800D03*
X133513800Y-62535800D03*
D18*
X138988702Y-85761299D03*
X137263702Y-85761299D03*
D42*
X33549500Y-104660700D03*
X31474500Y-104660700D03*
D13*
X76949800Y-53619400D03*
X76949800Y-48539400D03*
D43*
X99231401Y-108330598D03*
X100031401Y-108330598D03*
D44*
X101231401Y-108330598D03*
X102231401Y-108330598D03*
X102731401Y-108330598D03*
X103731401Y-108330598D03*
D43*
X104931401Y-108330598D03*
X105731401Y-108330598D03*
X105731401Y-108330598D03*
X104931401Y-108330598D03*
D44*
X104231401Y-108330598D03*
X103231401Y-108330598D03*
X101731401Y-108330598D03*
X100731401Y-108330598D03*
D43*
X100031401Y-108330598D03*
X99231401Y-108330598D03*
D45*
X98161401Y-109245598D03*
D46*
X98161401Y-113425598D03*
D45*
X106801401Y-109245598D03*
D46*
X106801401Y-113425598D03*
D29*
X114405826Y-84212480D03*
X116230826Y-84212480D03*
D34*
X64959200Y-105816400D03*
X64959200Y-103991400D03*
D10*
X47752499Y-104863899D03*
D11*
X47752499Y-102323899D03*
X47752499Y-99783899D03*
D31*
X108661626Y-85736480D03*
X110386626Y-85736480D03*
D35*
X73087200Y-108991500D03*
X73087200Y-107416500D03*
D47*
X75498400Y-92278200D03*
X75498400Y-93548200D03*
X75498400Y-94818200D03*
X75498400Y-96088200D03*
X75498400Y-97358200D03*
X75498400Y-98628200D03*
X75498400Y-99898200D03*
X75498400Y-101168200D03*
X75498400Y-102438200D03*
X75498400Y-103708200D03*
X75498400Y-104978200D03*
X75498400Y-106248200D03*
X75498400Y-107518200D03*
X75498400Y-108788200D03*
X84798400Y-108788200D03*
X84798400Y-107518200D03*
X84798400Y-106248200D03*
X84798400Y-104978200D03*
X84798400Y-103708200D03*
X84798400Y-102438200D03*
X84798400Y-101168200D03*
X84798400Y-99898200D03*
X84798400Y-98628200D03*
X84798400Y-97358200D03*
X84798400Y-96088200D03*
X84798400Y-94818200D03*
X84798400Y-93548200D03*
X84798400Y-92278200D03*
D31*
X103279026Y-85838080D03*
X105004026Y-85838080D03*
X42190500Y-102882700D03*
X43915500Y-102882700D03*
D13*
X138480800Y-53517800D03*
X138480800Y-48437800D03*
X110133200Y-53515900D03*
X110133200Y-48435900D03*
D29*
X120350002Y-84237299D03*
X122175002Y-84237299D03*
D35*
X63333600Y-108991500D03*
X63333600Y-107416500D03*
D13*
X86982800Y-53619400D03*
X86982800Y-48539400D03*
D34*
X73087200Y-105814500D03*
X73087200Y-103989500D03*
D31*
X125632402Y-85761299D03*
X127357402Y-85761299D03*
D18*
X116177826Y-85736480D03*
X114452826Y-85736480D03*
D34*
X105185402Y-105172199D03*
X105185402Y-103347199D03*
X71461600Y-105814500D03*
X71461600Y-103989500D03*
D21*
X55694299Y-78043899D03*
D22*
X55694300Y-75503900D03*
X55694300Y-65343900D03*
X55694300Y-57723900D03*
D21*
X60520299Y-78043899D03*
D22*
X60520300Y-75503900D03*
X60520300Y-65343900D03*
X60520300Y-57723900D03*
D13*
X58488300Y-53532900D03*
X58488300Y-48452900D03*
D21*
X70299299Y-78043899D03*
D22*
X70299300Y-75503900D03*
X70299300Y-65343900D03*
X70299300Y-57723900D03*
D21*
X87934799Y-78043899D03*
D22*
X87934800Y-75503900D03*
X87934800Y-65343900D03*
X87934800Y-57723900D03*
D21*
X92887799Y-78043899D03*
D22*
X92887800Y-75503900D03*
X92887800Y-65343900D03*
X92887800Y-57723900D03*
D48*
X112672400Y-114350800D03*
X118772400Y-114350800D03*
D49*
X115125401Y-103269698D03*
D50*
X115125401Y-102458898D03*
X113405401Y-102458898D03*
D49*
X113405401Y-103269698D03*
D35*
X66584800Y-108991500D03*
X66584800Y-107416500D03*
D51*
X101535402Y-105367199D03*
X102485402Y-105367199D03*
X103435402Y-105367199D03*
X103435402Y-103092199D03*
X102485402Y-103092199D03*
X101535402Y-103092199D03*
D21*
X65346299Y-78043899D03*
D22*
X65346300Y-75503900D03*
X65346300Y-65343900D03*
X65346300Y-57723900D03*
D52*
X103250402Y-101389699D03*
X104800402Y-101389699D03*
D29*
X113234502Y-105612299D03*
X115059502Y-105612299D03*
D42*
X33549500Y-106692700D03*
X31474500Y-106692700D03*
D35*
X64959200Y-108991500D03*
X64959200Y-107416500D03*
D12*
X133513800Y-64563800D03*
X133513800Y-70663800D03*
D53*
X36639999Y-104152699D03*
D54*
X39140000Y-104152700D03*
D13*
X123497800Y-53488400D03*
X123497800Y-48408400D03*
X100125600Y-53515900D03*
X100125600Y-48435900D03*
D35*
X68210400Y-108991500D03*
X68210400Y-107416500D03*
D12*
X138492200Y-64563800D03*
X138492200Y-70663800D03*
D31*
X133876002Y-89787199D03*
X135601002Y-89787199D03*
D19*
X42269500Y-104660700D03*
X44344500Y-104660700D03*
D13*
X91935800Y-53619400D03*
X91935800Y-48539400D03*
D34*
X66584800Y-105816400D03*
X66584800Y-103991400D03*
D29*
X103227926Y-84263280D03*
X105052926Y-84263280D03*
X113234502Y-107136299D03*
X115059502Y-107136299D03*
D13*
X53535300Y-53532900D03*
X53535300Y-48452900D03*
D55*
X131895402Y-114729699D03*
X131895402Y-112729699D03*
D34*
X99715402Y-105152199D03*
X99715402Y-103327199D03*
D26*
X29464500Y-99606200D03*
D31*
X97536426Y-85736480D03*
X99261426Y-85736480D03*
D13*
X63408300Y-53532900D03*
X63408300Y-48452900D03*
D19*
X133498302Y-88019699D03*
X135573302Y-88019699D03*
D35*
X71461600Y-108991500D03*
X71461600Y-107416500D03*
D29*
X131981302Y-84237299D03*
X133806302Y-84237299D03*
D56*
X77457800Y-89154000D03*
X131164950Y-88569150D03*
X132080000Y-88011000D03*
X133865402Y-90539699D03*
X95554800Y-89131699D03*
X111705402Y-105725699D03*
X135115402Y-109042200D03*
X131205402Y-103269699D03*
X45720000Y-104660700D03*
X68210400Y-110134400D03*
X93866200Y-114681000D03*
X91529400Y-103242600D03*
X99005402Y-101369699D03*
X100482400Y-84201000D03*
X99657400Y-102311200D03*
X80441800Y-90779600D03*
X111582200Y-85725000D03*
X134988800Y-84251800D03*
X134988800Y-85775800D03*
X53353200Y-88163400D03*
X73050400Y-110083600D03*
X97648202Y-106476099D03*
X106005402Y-101369699D03*
X129705402Y-103269699D03*
X110505402Y-103369699D03*
X45720000Y-102882700D03*
X86803200Y-107492800D03*
X124422400Y-84251800D03*
X30099000Y-106692700D03*
X30099000Y-104660700D03*
X105995402Y-102409699D03*
X102501400Y-106606099D03*
X129133600Y-91287600D03*
X131305402Y-97669699D03*
X136055600Y-85775800D03*
X77330800Y-103708200D03*
X111607600Y-84226400D03*
X54102000Y-97485200D03*
X120605402Y-113669699D03*
X113233200Y-85725000D03*
X124422400Y-85750400D03*
X102057200Y-84251800D03*
X91453200Y-114681000D03*
X135128000Y-94564200D03*
X45720000Y-106692700D03*
X98272202Y-107252099D03*
X113233200Y-84201000D03*
X123431800Y-84251800D03*
X105609402Y-106741699D03*
X106625402Y-106741699D03*
X128305402Y-103269699D03*
X94018600Y-103242600D03*
X61645800Y-110109000D03*
X100482400Y-85725000D03*
X136081000Y-84251800D03*
X102006400Y-85775800D03*
X123406400Y-85775800D03*
X119862468Y-108170199D03*
X77508600Y-107569000D03*
X119005402Y-108969699D03*
X77457800Y-106248200D03*
X119914170Y-99990931D03*
X115729360Y-99742199D03*
X115729360Y-98692199D03*
X120656634Y-99248467D03*
X109241602Y-114310899D03*
X73061800Y-92278200D03*
X73087200Y-102717600D03*
X71436200Y-93548200D03*
X71410800Y-102717600D03*
X69785200Y-102819200D03*
X69810600Y-94818200D03*
X68286600Y-96088200D03*
X68210400Y-102768400D03*
X63333600Y-102870000D03*
X63308200Y-99898200D03*
X65010000Y-98704400D03*
X65010000Y-102870000D03*
X66610200Y-97358200D03*
X66584800Y-102768400D03*
D57*
X77774800Y-65557400D02*
X92760800Y-65557400D01*
X27656000Y-89378900D02*
X27656000Y-80149600D01*
X42248200Y-65557400D02*
X77774800Y-65557400D01*
X92760800Y-65557400D02*
X92887800Y-65430400D01*
X42056400Y-54742400D02*
X42056400Y-61182980D01*
X42020700Y-65784900D02*
X42248200Y-65557400D01*
X42020700Y-61218680D02*
X42020700Y-65784900D01*
X42056400Y-61182980D02*
X42020700Y-61218680D01*
X42020700Y-65784900D02*
X27656000Y-80149600D01*
D58*
X64859400Y-86437300D02*
X64327100Y-86437300D01*
D59*
X42269500Y-104660700D02*
X42269500Y-110059200D01*
X49302500Y-100773900D02*
X49302500Y-89036100D01*
X42269500Y-101634200D02*
X47062800Y-101634200D01*
X42269500Y-104660700D02*
X42269500Y-101634200D01*
X47062800Y-101634200D02*
X47752500Y-102323900D01*
X42269500Y-110059200D02*
X42823000Y-110612700D01*
D58*
X63088800Y-85199000D02*
X63088800Y-84777600D01*
X51903500Y-86437300D02*
X51902400Y-86436200D01*
D60*
X55694300Y-75503900D02*
X92801300Y-75503900D01*
D59*
X49302500Y-89036100D02*
X51902400Y-86436200D01*
X47752500Y-102323900D02*
X49302500Y-100773900D01*
D58*
X64327100Y-86437300D02*
X63088800Y-85199000D01*
D59*
X51902400Y-86436200D02*
X51902400Y-77881587D01*
X42269500Y-99114200D02*
X42228000Y-99072700D01*
X55694300Y-75503900D02*
X54280087Y-75503900D01*
X42269500Y-101634200D02*
X42269500Y-99114200D01*
X52006500Y-100747800D02*
X49328600Y-100747800D01*
D60*
X92801300Y-75503900D02*
X92887800Y-75590400D01*
D59*
X54280087Y-75503900D02*
X51902400Y-77881587D01*
X49328600Y-100747800D02*
X49302500Y-100773900D01*
D58*
X64859400Y-86437300D02*
X51903500Y-86437300D01*
D61*
X111705402Y-105725699D02*
X113121102Y-105725699D01*
X109545005Y-103057302D02*
X110295109Y-102307199D01*
X132289402Y-89787199D02*
X133876002Y-89787199D01*
D59*
X125165178Y-81856118D02*
X127065178Y-79956118D01*
X120586759Y-79817699D02*
X122625178Y-81856118D01*
X95554800Y-81244780D02*
X95554800Y-89131699D01*
X133876002Y-88397399D02*
X133498302Y-88019699D01*
X122625178Y-81856118D02*
X125165178Y-81856118D01*
X104396902Y-79766899D02*
X109065919Y-79766899D01*
D62*
X83312001Y-104343200D02*
X87667600Y-104343200D01*
D61*
X133498302Y-88019699D02*
X132088699Y-88019699D01*
X111588609Y-105725699D02*
X111705402Y-105725699D01*
X113234502Y-105612299D02*
X113234502Y-106198799D01*
X132289402Y-89787199D02*
X132289402Y-89693602D01*
D59*
X111177300Y-81859600D02*
X113717300Y-81859600D01*
D61*
X77457800Y-89154000D02*
X77457800Y-101549200D01*
X110295109Y-102307199D02*
X111655402Y-102307199D01*
D62*
X113201902Y-102458899D02*
X111926902Y-102458899D01*
X81407001Y-102438200D02*
X83312001Y-104343200D01*
D59*
X133876002Y-89787199D02*
X133876002Y-93089099D01*
D61*
X109545005Y-103682095D02*
X111588609Y-105725699D01*
X77444600Y-101562400D02*
X77444600Y-102438200D01*
D59*
X133876002Y-89787199D02*
X133876002Y-88397399D01*
X127065178Y-79956118D02*
X132409178Y-79956118D01*
X96839980Y-79959600D02*
X95554800Y-81244780D01*
X100001300Y-81859600D02*
X98101300Y-79959600D01*
D61*
X75498400Y-102438200D02*
X77444600Y-102438200D01*
D62*
X77444600Y-102438200D02*
X81407001Y-102438200D01*
D61*
X77457800Y-101549200D02*
X77444600Y-101562400D01*
D59*
X114760102Y-79817699D02*
X120586759Y-79817699D01*
X113717300Y-80860501D02*
X114760102Y-79817699D01*
D61*
X132088699Y-88019699D02*
X132080000Y-88011000D01*
D59*
X109065919Y-79766899D02*
X111158620Y-81859600D01*
D61*
X113121102Y-105725699D02*
X113234502Y-105612299D01*
D59*
X102541300Y-81859600D02*
X102541300Y-81622501D01*
X102541300Y-81622501D02*
X104396902Y-79766899D01*
X98101300Y-79959600D02*
X96839980Y-79959600D01*
D61*
X132289402Y-89693602D02*
X131164950Y-88569150D01*
X109545005Y-103057302D02*
X109545005Y-103682095D01*
D59*
X132409178Y-79956118D02*
X134309178Y-81856118D01*
X111158620Y-81859600D02*
X111177300Y-81859600D01*
X133876002Y-93089099D02*
X133845402Y-93119699D01*
X113717300Y-81859600D02*
X113717300Y-80860501D01*
X134309178Y-81856118D02*
X136849178Y-81856118D01*
X100001300Y-81859600D02*
X102541300Y-81859600D01*
D61*
X113234502Y-106198799D02*
X113234502Y-107136299D01*
D62*
X87667600Y-104343200D02*
X88480400Y-105156000D01*
D57*
X44020000Y-47708800D02*
X42066400Y-49662400D01*
X44020000Y-43355999D02*
X44020000Y-47708800D01*
X44020000Y-35156000D02*
X44020000Y-43355999D01*
D63*
X53535300Y-55564900D02*
X55694300Y-57723900D01*
X53535300Y-53532900D02*
X53535300Y-55564900D01*
X60520300Y-55564900D02*
X60520300Y-57723900D01*
X58488300Y-53532900D02*
X60520300Y-55564900D01*
X65346300Y-57723900D02*
X65346300Y-55470900D01*
X65346300Y-55470900D02*
X63408300Y-53532900D01*
X70299300Y-55423900D02*
X68408300Y-53532900D01*
X70299300Y-57723900D02*
X70299300Y-55423900D01*
D60*
X33549500Y-104660700D02*
X33549500Y-102961700D01*
X33549500Y-104660700D02*
X33549500Y-110336200D01*
X34057500Y-104152700D02*
X33549500Y-104660700D01*
X36005000Y-112788700D02*
X46241200Y-112788700D01*
X36640000Y-104152700D02*
X34057500Y-104152700D01*
X39688000Y-100723700D02*
X39688000Y-99072700D01*
X46241200Y-112788700D02*
X47752500Y-111277400D01*
X33826000Y-110612700D02*
X33829000Y-110612700D01*
X33829000Y-110612700D02*
X36005000Y-112788700D01*
X36640000Y-103771700D02*
X39688000Y-100723700D01*
X36640000Y-104152700D02*
X36640000Y-103771700D01*
X33549500Y-110336200D02*
X33826000Y-110612700D01*
X33549500Y-102961700D02*
X33628500Y-102882700D01*
D58*
X89547000Y-99542600D02*
X95747000Y-99542600D01*
X95747000Y-99542600D02*
X100927400Y-99542600D01*
X100927400Y-99542600D02*
X108950301Y-91519699D01*
X132025902Y-91311199D02*
X130501902Y-89787199D01*
X130108902Y-89431699D02*
X130464402Y-89787199D01*
X132575402Y-93119699D02*
X132575402Y-91659699D01*
X108950301Y-91519699D02*
X126704901Y-91519699D01*
X132575402Y-91659699D02*
X132226902Y-91311199D01*
X126704901Y-91519699D02*
X128792901Y-89431699D01*
X128792901Y-89431699D02*
X130108902Y-89431699D01*
D64*
X104294298Y-99442200D02*
X103250402Y-100486096D01*
X111077903Y-99998261D02*
X111077903Y-99742200D01*
X112167903Y-99442200D02*
X111977903Y-99442200D01*
X111677903Y-99742200D02*
X111677903Y-99998261D01*
X109117113Y-99442200D02*
X104294298Y-99442200D01*
X112680402Y-99954699D02*
X112167903Y-99442200D01*
X110777903Y-99442200D02*
X109117113Y-99442200D01*
X103250402Y-100486096D02*
X103250402Y-101389699D01*
X103435402Y-103092199D02*
X103435402Y-101574699D01*
X103435402Y-101574699D02*
X103250402Y-101389699D01*
X111977903Y-99442203D02*
G75*
G03*
X111677903Y-99742200I-3J-299997D01*
G01*
X111377903Y-100298303D02*
G75*
G03*
X111677903Y-99998261I-3J300003D01*
G01*
X111077900Y-99742200D02*
G75*
G03*
X110777903Y-99442200I-300000J0D01*
G01*
X111077939Y-99998261D02*
G75*
G03*
X111377903Y-100298261I299961J-39D01*
G01*
X104107903Y-98992198D02*
X112167903Y-98992198D01*
X101535402Y-101564699D02*
X101710402Y-101389699D01*
X101535402Y-103092199D02*
X101535402Y-101564699D01*
X112167903Y-98992198D02*
X112680402Y-98479699D01*
X101710402Y-101389699D02*
X104107903Y-98992198D01*
D58*
X97193600Y-111795956D02*
X97193600Y-114155589D01*
X95745800Y-110981000D02*
X96378644Y-110981000D01*
X97788610Y-114750599D02*
X107485925Y-114750599D01*
X117846101Y-111379000D02*
X118605402Y-110619699D01*
X89545800Y-110981000D02*
X95745800Y-110981000D01*
X96378644Y-110981000D02*
X97193600Y-111795956D01*
X107485925Y-114750599D02*
X110857523Y-111379000D01*
X110857523Y-111379000D02*
X117846101Y-111379000D01*
X97193600Y-114155589D02*
X97788610Y-114750599D01*
X125305402Y-113659699D02*
X126735402Y-112229699D01*
X130035402Y-111899699D02*
X130035402Y-110619699D01*
X126735402Y-112229699D02*
X129705402Y-112229699D01*
X129705402Y-112229699D02*
X130035402Y-111899699D01*
X131305402Y-110619699D02*
X131305402Y-111600460D01*
X129246163Y-113659699D02*
X127845402Y-113659699D01*
X131305402Y-111600460D02*
X129246163Y-113659699D01*
D59*
X84579282Y-111234400D02*
X59253800Y-111234400D01*
X86175482Y-109638200D02*
X84579282Y-111234400D01*
X92000200Y-109638200D02*
X86175482Y-109638200D01*
X59253800Y-111234400D02*
X52883300Y-104863900D01*
X97955600Y-103208400D02*
X97955600Y-103682800D01*
X52883300Y-104863900D02*
X47752500Y-104863900D01*
X97955600Y-103682800D02*
X92000200Y-109638200D01*
D61*
X54089300Y-98729800D02*
X54089300Y-97497900D01*
D59*
X43915500Y-102882700D02*
X45720000Y-102882700D01*
D62*
X99715402Y-102369202D02*
X99657400Y-102311200D01*
D59*
X132022501Y-97669699D02*
X131305402Y-97669699D01*
D58*
X105985402Y-101389699D02*
X106005402Y-101369699D01*
D59*
X135115402Y-109042200D02*
X135115402Y-107179699D01*
D61*
X84798400Y-106248200D02*
X84798400Y-108788200D01*
D58*
X131265402Y-102009699D02*
X131265402Y-99009699D01*
X100160402Y-101389699D02*
X99025402Y-101389699D01*
D61*
X129157199Y-91311199D02*
X129133600Y-91287600D01*
X136095501Y-84237299D02*
X136081000Y-84251800D01*
D58*
X104800402Y-101389699D02*
X105985402Y-101389699D01*
D59*
X129765402Y-103209699D02*
X129705402Y-103269699D01*
D58*
X64859400Y-88162300D02*
X64858300Y-88163400D01*
D61*
X102019600Y-85775800D02*
X103216746Y-85775800D01*
D58*
X129765402Y-99009699D02*
X129765402Y-102009699D01*
D61*
X73087200Y-108991500D02*
X73087200Y-110046800D01*
D59*
X135115402Y-107179699D02*
X131205402Y-103269699D01*
X135592402Y-91300699D02*
X135581902Y-91311199D01*
D61*
X110439626Y-84212480D02*
X111683080Y-84212480D01*
X102057200Y-84251800D02*
X103216446Y-84251800D01*
X111112702Y-103369699D02*
X111661902Y-103918899D01*
D59*
X135581902Y-92653199D02*
X135115402Y-93119699D01*
X128265402Y-102009699D02*
X128265402Y-103229699D01*
D61*
X68210400Y-108991500D02*
X68210400Y-110134400D01*
D59*
X128265402Y-103229699D02*
X128305402Y-103269699D01*
X135592402Y-88246699D02*
X135592402Y-91300699D01*
D58*
X102485402Y-105367199D02*
X102485402Y-106590101D01*
D61*
X105731402Y-106863699D02*
X105609402Y-106741699D01*
D59*
X131265402Y-103209699D02*
X131205402Y-103269699D01*
X120605402Y-113669699D02*
X118955402Y-113669699D01*
D62*
X99715402Y-103327199D02*
X99715402Y-102369202D01*
D59*
X135115402Y-94551602D02*
X135128000Y-94564200D01*
D58*
X64858300Y-88163400D02*
X53353200Y-88163400D01*
D61*
X105609402Y-106741699D02*
X106625402Y-106741699D01*
X136070101Y-85761299D02*
X136055600Y-85775800D01*
D62*
X111661902Y-103918899D02*
X112311102Y-103269699D01*
D58*
X98272202Y-107252099D02*
X98272202Y-107100099D01*
X99231402Y-108135699D02*
X98105402Y-107009699D01*
X63088800Y-90177600D02*
X63088800Y-89932900D01*
D61*
X124433299Y-85761299D02*
X124422400Y-85750400D01*
X137213702Y-84237299D02*
X136095501Y-84237299D01*
D58*
X89547000Y-103242600D02*
X91529400Y-103242600D01*
D61*
X105731402Y-108330599D02*
X105731402Y-106863699D01*
X73087100Y-108991600D02*
X73087200Y-108991500D01*
D59*
X135581902Y-91311199D02*
X135581902Y-92653199D01*
D61*
X122125002Y-85761299D02*
X123391899Y-85761299D01*
D62*
X133895402Y-112704699D02*
X135115402Y-111484699D01*
D59*
X129765402Y-102009699D02*
X129765402Y-103209699D01*
X131265402Y-99009699D02*
X131265402Y-97709699D01*
D58*
X131265402Y-99009699D02*
X128265402Y-99009699D01*
X91453200Y-114681000D02*
X93866200Y-114681000D01*
D61*
X99261426Y-85736480D02*
X100509520Y-85736480D01*
D59*
X44344500Y-104660700D02*
X45720000Y-104660700D01*
D62*
X135115402Y-111484699D02*
X135115402Y-110619699D01*
D58*
X128265402Y-102009699D02*
X131265402Y-102009699D01*
X63088800Y-89932900D02*
X64859400Y-88162300D01*
D61*
X124436901Y-84237299D02*
X124422400Y-84251800D01*
X134974299Y-84237299D02*
X134988800Y-84251800D01*
D59*
X131265402Y-102009699D02*
X131265402Y-103209699D01*
D61*
X123391899Y-85761299D02*
X123406400Y-85775800D01*
X110505402Y-103369699D02*
X111112702Y-103369699D01*
D58*
X95747000Y-103242600D02*
X94018600Y-103242600D01*
D59*
X44344500Y-106692700D02*
X45720000Y-106692700D01*
D61*
X61708000Y-110046800D02*
X61645800Y-110109000D01*
X86777800Y-107518200D02*
X86803200Y-107492800D01*
D59*
X31326000Y-103460200D02*
X31903500Y-102882700D01*
D58*
X129765402Y-100509699D02*
X131265402Y-100509699D01*
D62*
X80137000Y-90474800D02*
X80441800Y-90779600D01*
D61*
X73087200Y-110046800D02*
X73050400Y-110083600D01*
D62*
X105185402Y-103347199D02*
X105185402Y-103219699D01*
D58*
X99025402Y-101389699D02*
X99005402Y-101369699D01*
D61*
X125632402Y-85761299D02*
X124433299Y-85761299D01*
D62*
X79197200Y-90474800D02*
X80137000Y-90474800D01*
D59*
X135115402Y-110619699D02*
X135115402Y-109042200D01*
D58*
X99231402Y-108330599D02*
X99231402Y-108135699D01*
X95745800Y-114681000D02*
X93866200Y-114681000D01*
D59*
X135128000Y-94564200D02*
X132022501Y-97669699D01*
D62*
X105185402Y-103219699D02*
X105995402Y-102409699D01*
D59*
X131265402Y-97709699D02*
X131305402Y-97669699D01*
D61*
X61708000Y-108991600D02*
X73087100Y-108991600D01*
X133806302Y-84237299D02*
X134974299Y-84237299D01*
D59*
X135115402Y-93119699D02*
X135115402Y-94551602D01*
D61*
X134974299Y-85761299D02*
X134988800Y-85775800D01*
X122175002Y-84237299D02*
X123417299Y-84237299D01*
D58*
X102485402Y-106590101D02*
X102501400Y-106606099D01*
D61*
X75498400Y-103708200D02*
X77330800Y-103708200D01*
D59*
X31326000Y-110612700D02*
X31326000Y-103460200D01*
D61*
X99312526Y-84212480D02*
X100507080Y-84212480D01*
X133757102Y-85761299D02*
X134974299Y-85761299D01*
X114405826Y-84212480D02*
X113193880Y-84212480D01*
X54089300Y-97497900D02*
X54102000Y-97485200D01*
X123417299Y-84237299D02*
X123431800Y-84251800D01*
X113182400Y-85750400D02*
X114438906Y-85750400D01*
D59*
X31474500Y-106692700D02*
X30099000Y-106692700D01*
D62*
X112311102Y-103269699D02*
X113201902Y-103269699D01*
D61*
X130501902Y-91311199D02*
X129157199Y-91311199D01*
D58*
X98272202Y-107100099D02*
X97648202Y-106476099D01*
D59*
X118955402Y-113669699D02*
X118855402Y-113769699D01*
D61*
X61708000Y-108991600D02*
X61708000Y-110046800D01*
X84798400Y-107518200D02*
X86777800Y-107518200D01*
D58*
X91529400Y-103242600D02*
X94018600Y-103242600D01*
D61*
X137263702Y-85761299D02*
X136070101Y-85761299D01*
X125582402Y-84237299D02*
X124436901Y-84237299D01*
X110386626Y-85736480D02*
X111672320Y-85736480D01*
D58*
X128265402Y-99009699D02*
X128265402Y-102009699D01*
X89545800Y-114681000D02*
X91453200Y-114681000D01*
D59*
X31474500Y-104660700D02*
X30099000Y-104660700D01*
D61*
X97536426Y-85736480D02*
X97536426Y-81934726D01*
D58*
X84798400Y-92278200D02*
X95542600Y-92278200D01*
X97536426Y-90284374D02*
X97536426Y-85736480D01*
X95542600Y-92278200D02*
X97536426Y-90284374D01*
D61*
X97536426Y-81934726D02*
X97461300Y-81859600D01*
D57*
X53535300Y-48452900D02*
X53535300Y-35164901D01*
X58488300Y-48452900D02*
X58488300Y-35211901D01*
X63408300Y-48452900D02*
X63408300Y-35291901D01*
X105104000Y-53515900D02*
X105104000Y-56411500D01*
X110133200Y-62511500D02*
X110133200Y-64463300D01*
D60*
X108637300Y-72059200D02*
X110133200Y-70563300D01*
X108637300Y-74239600D02*
X108637300Y-72059200D01*
D57*
X115162400Y-62511500D02*
X115162400Y-64463300D01*
D60*
X116257300Y-74239600D02*
X116257300Y-71658200D01*
X116257300Y-71658200D02*
X115162400Y-70563300D01*
D61*
X75498400Y-107518200D02*
X77457800Y-107518200D01*
X77457800Y-107518200D02*
X77508600Y-107569000D01*
D62*
X114247482Y-105142003D02*
X114247482Y-106324279D01*
D58*
X119862468Y-108170199D02*
X127205902Y-108170199D01*
X127205902Y-108170199D02*
X128765402Y-109729699D01*
D62*
X114247482Y-106324279D02*
X115059502Y-107136299D01*
X115527302Y-103269699D02*
X115125402Y-103269699D01*
X115665402Y-103724083D02*
X115665402Y-103407799D01*
X114247482Y-105142003D02*
X115665402Y-103724083D01*
D58*
X111830402Y-109769699D02*
X112426102Y-109769699D01*
X112426102Y-109769699D02*
X115059502Y-107136299D01*
X128765402Y-109729699D02*
X128765402Y-110619699D01*
D62*
X115665402Y-103407799D02*
X115527302Y-103269699D01*
D61*
X75498400Y-106248200D02*
X77457800Y-106248200D01*
D62*
X115059502Y-105612299D02*
X115186502Y-105612299D01*
D58*
X127495402Y-109889699D02*
X126575402Y-108969699D01*
X115947002Y-106499799D02*
X115059502Y-105612299D01*
D62*
X115059502Y-105113699D02*
X116114922Y-104058279D01*
X115158502Y-105584299D02*
X115186502Y-105612299D01*
D58*
X127495402Y-110619699D02*
X127495402Y-109889699D01*
D62*
X115616502Y-102458899D02*
X115125402Y-102458899D01*
D58*
X114370402Y-109769699D02*
X115947002Y-108193099D01*
D62*
X116114922Y-102957319D02*
X115616502Y-102458899D01*
X115059502Y-105612299D02*
X115059502Y-105113699D01*
X116114922Y-104058279D02*
X116114922Y-102957319D01*
D58*
X126575402Y-108969699D02*
X119005402Y-108969699D01*
D65*
X115059502Y-105612299D02*
X115921522Y-106474319D01*
D58*
X115947002Y-108193099D02*
X115947002Y-106499799D01*
D57*
X110133200Y-53515900D02*
X110133200Y-56411500D01*
X115162400Y-53515900D02*
X115162400Y-56411500D01*
D61*
X105004026Y-81936874D02*
X105081300Y-81859600D01*
X105004026Y-85838080D02*
X105004026Y-81936874D01*
D58*
X105004026Y-89526278D02*
X100982104Y-93548200D01*
X100982104Y-93548200D02*
X84798400Y-93548200D01*
X105004026Y-85838080D02*
X105004026Y-89526278D01*
D62*
X113049800Y-95053400D02*
X117186701Y-95053400D01*
X117186701Y-95053400D02*
X117355402Y-94884699D01*
X111874800Y-93878400D02*
X113049800Y-95053400D01*
D59*
X47656000Y-84378900D02*
X47656000Y-99687400D01*
X47656000Y-99687400D02*
X47752500Y-99783900D01*
D57*
X68408300Y-48452900D02*
X68408300Y-35291901D01*
X100125600Y-56386100D02*
X100151000Y-56411500D01*
X100125600Y-53515900D02*
X100125600Y-56386100D01*
D61*
X108661626Y-81883926D02*
X108637300Y-81859600D01*
X108661626Y-85736480D02*
X108661626Y-81883926D01*
D58*
X108661626Y-86717206D02*
X108661626Y-85736480D01*
X84953600Y-94663000D02*
X100715832Y-94663000D01*
X84798400Y-94818200D02*
X84953600Y-94663000D01*
X100715832Y-94663000D02*
X108661626Y-86717206D01*
X87357288Y-96088200D02*
X84798400Y-96088200D01*
D61*
X116177826Y-81939074D02*
X116257300Y-81859600D01*
D58*
X100964360Y-95263000D02*
X88182488Y-95263000D01*
X115211192Y-88484608D02*
X107742752Y-88484608D01*
X116177826Y-87517974D02*
X115211192Y-88484608D01*
X116177826Y-85736480D02*
X116177826Y-87517974D01*
X107742752Y-88484608D02*
X100964360Y-95263000D01*
X88182488Y-95263000D02*
X87357288Y-96088200D01*
D61*
X116177826Y-85736480D02*
X116177826Y-81939074D01*
D58*
X87647000Y-98344072D02*
X87647000Y-99513400D01*
X88928072Y-97063000D02*
X87647000Y-98344072D01*
X108453245Y-90319699D02*
X101709944Y-97063000D01*
X126207845Y-90319699D02*
X108453245Y-90319699D01*
D61*
X132032102Y-85761299D02*
X132032102Y-82119042D01*
X132032102Y-82119042D02*
X131769178Y-81856118D01*
D58*
X101709944Y-97063000D02*
X88928072Y-97063000D01*
X87647000Y-99513400D02*
X87262200Y-99898200D01*
X130766245Y-85761299D02*
X126207845Y-90319699D01*
X87262200Y-99898200D02*
X84798400Y-99898200D01*
X132032102Y-85761299D02*
X130766245Y-85761299D01*
X101461416Y-96463000D02*
X88679544Y-96463000D01*
X127357402Y-88321614D02*
X125994408Y-89684608D01*
D61*
X127357402Y-82203894D02*
X127705178Y-81856118D01*
D58*
X127357402Y-85761299D02*
X127357402Y-88321614D01*
D61*
X127357402Y-85761299D02*
X127357402Y-82203894D01*
D58*
X125994408Y-89684608D02*
X108239808Y-89684608D01*
X86514344Y-98628200D02*
X84798400Y-98628200D01*
X108239808Y-89684608D02*
X101461416Y-96463000D01*
X88679544Y-96463000D02*
X86514344Y-98628200D01*
X120400002Y-87715398D02*
X119030792Y-89084608D01*
X86935816Y-97358200D02*
X84798400Y-97358200D01*
X119030792Y-89084608D02*
X107991280Y-89084608D01*
D61*
X120400002Y-85761299D02*
X120400002Y-82170942D01*
D58*
X88431016Y-95863000D02*
X86935816Y-97358200D01*
X101212888Y-95863000D02*
X88431016Y-95863000D01*
D61*
X120400002Y-82170942D02*
X120085178Y-81856118D01*
D58*
X107991280Y-89084608D02*
X101212888Y-95863000D01*
X120400002Y-85761299D02*
X120400002Y-87715398D01*
X52057300Y-98747800D02*
X54089300Y-100779800D01*
D62*
X133870402Y-114729699D02*
X133895402Y-114754699D01*
X131895402Y-114729699D02*
X133870402Y-114729699D01*
D58*
X104931402Y-108330599D02*
X104931402Y-109113699D01*
X101505402Y-110569699D02*
X103355402Y-110569699D01*
X100031402Y-107384202D02*
X100031402Y-108330599D01*
X101808219Y-104259699D02*
X102485402Y-103582516D01*
X103475402Y-110569699D02*
X103355402Y-110569699D01*
X97955600Y-105308400D02*
X100031402Y-107384202D01*
X100031402Y-108330599D02*
X100031402Y-109095699D01*
X102485402Y-103582516D02*
X102485402Y-103092199D01*
X100031402Y-109095699D02*
X101505402Y-110569699D01*
X97955600Y-105308400D02*
X99004301Y-104259699D01*
X99004301Y-104259699D02*
X101808219Y-104259699D01*
X104931402Y-109113699D02*
X103475402Y-110569699D01*
D61*
X73087200Y-107416500D02*
X73087200Y-105814500D01*
X71461600Y-107416500D02*
X71461600Y-105814500D01*
X69836000Y-107416500D02*
X69836000Y-105814500D01*
X68210400Y-107416500D02*
X68210400Y-105816400D01*
D62*
X124696899Y-92044699D02*
X124955402Y-92303202D01*
X114414800Y-93878400D02*
X116248501Y-92044699D01*
X116248501Y-92044699D02*
X124696899Y-92044699D01*
X124955402Y-92303202D02*
X124955402Y-93119699D01*
D61*
X61708000Y-107416600D02*
X61708000Y-105814500D01*
X63333600Y-107416500D02*
X63333600Y-105816400D01*
D62*
X109334800Y-93878400D02*
X112881099Y-97424699D01*
X112881099Y-97424699D02*
X117355402Y-97424699D01*
D61*
X64959200Y-107416500D02*
X64959200Y-105816400D01*
X66584800Y-107416500D02*
X66584800Y-105816400D01*
D62*
X101231402Y-108330599D02*
X101231402Y-106998199D01*
X101231402Y-106998199D02*
X99715402Y-105482199D01*
D64*
X102231402Y-108330599D02*
X102231402Y-107355599D01*
X103231402Y-105571199D02*
X103435402Y-105367199D01*
X103231402Y-108330599D02*
X103231402Y-105571199D01*
X102281402Y-107305599D02*
X103213302Y-107305599D01*
X103213302Y-107305599D02*
X103231402Y-107323699D01*
X102231402Y-107355599D02*
X102281402Y-107305599D01*
D62*
X101731402Y-109395699D02*
X101731402Y-108330599D01*
X101745056Y-109409353D02*
X101731402Y-109395699D01*
D64*
X101731402Y-105563199D02*
X101535402Y-105367199D01*
D62*
X102677648Y-109409353D02*
X101745056Y-109409353D01*
D64*
X101731402Y-108330599D02*
X101731402Y-105563199D01*
D62*
X102731402Y-109355599D02*
X102677648Y-109409353D01*
X102731402Y-108330599D02*
X102731402Y-109355599D01*
D64*
X119015402Y-94654700D02*
X118605402Y-94244700D01*
X115429361Y-99442200D02*
X115729360Y-99742199D01*
X119914170Y-99990931D02*
X119914170Y-99566666D01*
X119015402Y-98667899D02*
X119015402Y-94654700D01*
X114330402Y-99954699D02*
X114842901Y-99442200D01*
X114842901Y-99442200D02*
X115429361Y-99442200D01*
X119914170Y-99566666D02*
X119015402Y-98667899D01*
X118605402Y-94244700D02*
X118605402Y-93119699D01*
X119465402Y-98481499D02*
X119465402Y-94654700D01*
X119875402Y-94244700D02*
X119875402Y-93119699D01*
X119465402Y-94654700D02*
X119875402Y-94244700D01*
X120232369Y-99248467D02*
X119465402Y-98481499D01*
X115429361Y-98992198D02*
X115729360Y-98692199D01*
X120656634Y-99248467D02*
X120232369Y-99248467D01*
X114330402Y-98479699D02*
X114842901Y-98992198D01*
X114842901Y-98992198D02*
X115429361Y-98992198D01*
D62*
X115520402Y-101234699D02*
X115205402Y-100919699D01*
X115205402Y-100919699D02*
X108710402Y-100919699D01*
X117355402Y-101234699D02*
X115520402Y-101234699D01*
X108710402Y-100919699D02*
X108075402Y-101554699D01*
X133845402Y-111199699D02*
X133845402Y-110619699D01*
X132930402Y-111694699D02*
X133350402Y-111694699D01*
X131895402Y-112729699D02*
X132930402Y-111694699D01*
X133350402Y-111694699D02*
X133845402Y-111199699D01*
X105195402Y-106130394D02*
X105195402Y-105152199D01*
X104231402Y-107094394D02*
X105195402Y-106130394D01*
X104231402Y-108330599D02*
X104231402Y-107094394D01*
D60*
X97461300Y-71539600D02*
X98437600Y-70563300D01*
X97461300Y-74239600D02*
X97461300Y-71539600D01*
X98437600Y-70563300D02*
X100151000Y-70563300D01*
D57*
X100151000Y-62511500D02*
X100151000Y-64463300D01*
D60*
X105081300Y-74239600D02*
X105081300Y-70586000D01*
X105081300Y-70586000D02*
X105104000Y-70563300D01*
D57*
X105104000Y-62511500D02*
X105104000Y-64463300D01*
D59*
X109241602Y-114267713D02*
X109739616Y-113769699D01*
D62*
X109597488Y-113769699D02*
X109123545Y-114243642D01*
D59*
X106801402Y-113425599D02*
X106801402Y-109245599D01*
X98161402Y-113425599D02*
X106801402Y-113425599D01*
X98161402Y-109270599D02*
X98161402Y-113450599D01*
X112755402Y-113769699D02*
X109739616Y-113769699D01*
X109241602Y-114310899D02*
X109241602Y-114267713D01*
D58*
X57888800Y-84777600D02*
X57888800Y-80238400D01*
X57888800Y-80238400D02*
X55694300Y-78043900D01*
X58538800Y-84777600D02*
X58538800Y-81910160D01*
X60520300Y-79928660D02*
X60520300Y-78043900D01*
X58538800Y-81910160D02*
X60520300Y-79928660D01*
X59188800Y-84777600D02*
X59188800Y-82108688D01*
X64961000Y-79476600D02*
X65346300Y-79091300D01*
X61820888Y-79476600D02*
X64961000Y-79476600D01*
X65346300Y-79091300D02*
X65346300Y-78043900D01*
X59188800Y-82108688D02*
X61820888Y-79476600D01*
X62069416Y-80076600D02*
X69593400Y-80076600D01*
X69593400Y-80076600D02*
X70299300Y-79370700D01*
X59838800Y-84777600D02*
X59838800Y-82307216D01*
X59838800Y-82307216D02*
X62069416Y-80076600D01*
X70299300Y-79370700D02*
X70299300Y-78043900D01*
X62317944Y-80676600D02*
X76486400Y-80676600D01*
X77774800Y-79388200D02*
X77774800Y-78257400D01*
X60488800Y-84777600D02*
X60488800Y-82505744D01*
X60488800Y-82505744D02*
X62317944Y-80676600D01*
X76486400Y-80676600D02*
X77774800Y-79388200D01*
X81576000Y-81276600D02*
X82854800Y-79997800D01*
X61138800Y-84777600D02*
X61138800Y-82704272D01*
X61138800Y-82704272D02*
X62566472Y-81276600D01*
X82854800Y-79997800D02*
X82854800Y-78130400D01*
X62566472Y-81276600D02*
X81576000Y-81276600D01*
X86437000Y-81876600D02*
X62815000Y-81876600D01*
X61786000Y-82905600D02*
X61788800Y-82908400D01*
X61788800Y-82908400D02*
X61788800Y-84777600D01*
X87934800Y-80378800D02*
X86437000Y-81876600D01*
X62815000Y-81876600D02*
X61786000Y-82905600D01*
X87934800Y-78130400D02*
X87934800Y-80378800D01*
D62*
X116390402Y-102504699D02*
X115715402Y-101829699D01*
X115479006Y-101829699D02*
X115019006Y-101369699D01*
X107915402Y-104084699D02*
X107915402Y-103803022D01*
X107915402Y-103739699D02*
X107915402Y-104084699D01*
X110348725Y-101369699D02*
X115019006Y-101369699D01*
X107915402Y-103803022D02*
X110348725Y-101369699D01*
X115715402Y-101829699D02*
X115479006Y-101829699D01*
X117355402Y-102504699D02*
X116390402Y-102504699D01*
D58*
X92887800Y-80505800D02*
X92887800Y-78130400D01*
X62438800Y-84777600D02*
X62438800Y-83101328D01*
X63063528Y-82476600D02*
X90917000Y-82476600D01*
X90917000Y-82476600D02*
X92887800Y-80505800D01*
X62438800Y-83101328D02*
X63063528Y-82476600D01*
X73087200Y-103989500D02*
X73087200Y-102717600D01*
X73061800Y-92278200D02*
X75498400Y-92278200D01*
X62438800Y-90177600D02*
X62438800Y-91866000D01*
X62438800Y-91866000D02*
X62851000Y-92278200D01*
X62851000Y-92278200D02*
X73061800Y-92278200D01*
X71461600Y-102768400D02*
X71410800Y-102717600D01*
X71461600Y-103989500D02*
X71461600Y-102768400D01*
X75498400Y-93548200D02*
X71436200Y-93548200D01*
X61788800Y-90177600D02*
X61788800Y-93197200D01*
X62139800Y-93548200D02*
X71436200Y-93548200D01*
X61788800Y-93197200D02*
X62139800Y-93548200D01*
X61138800Y-94274400D02*
X61138800Y-90177600D01*
X69810600Y-94818200D02*
X61682600Y-94818200D01*
X69836000Y-103989500D02*
X69836000Y-102870000D01*
X61682600Y-94818200D02*
X61138800Y-94274400D01*
X69836000Y-102870000D02*
X69785200Y-102819200D01*
X75498400Y-94818200D02*
X69810600Y-94818200D01*
X60488800Y-95402400D02*
X61174600Y-96088200D01*
X75498400Y-96088200D02*
X68286600Y-96088200D01*
X61174600Y-96088200D02*
X68286600Y-96088200D01*
X60488800Y-90177600D02*
X60488800Y-95402400D01*
X68210400Y-103991400D02*
X68210400Y-102768400D01*
X57888800Y-90177600D02*
X57888800Y-97374400D01*
X61708000Y-101193600D02*
X61733400Y-101168200D01*
X57888800Y-97374400D02*
X61708000Y-101193600D01*
X61708000Y-103989500D02*
X61708000Y-101193600D01*
X75498400Y-101168200D02*
X61733400Y-101168200D01*
X61261128Y-99898200D02*
X63308200Y-99898200D01*
X58538800Y-97175872D02*
X61261128Y-99898200D01*
X75498400Y-99898200D02*
X63308200Y-99898200D01*
X63333600Y-103991400D02*
X63333600Y-102870000D01*
X58538800Y-90177600D02*
X58538800Y-97175872D01*
D57*
X138480800Y-56424400D02*
X138492200Y-56435800D01*
X138480800Y-53517800D02*
X138480800Y-56424400D01*
X138497702Y-35128200D02*
X138497702Y-43328199D01*
X138497702Y-43328199D02*
X138497702Y-48420898D01*
X138497702Y-48420898D02*
X138480800Y-48437800D01*
X133502400Y-53517800D02*
X133502400Y-56424400D01*
X133502400Y-56424400D02*
X133513800Y-56435800D01*
X133497702Y-43328199D02*
X133497702Y-48433102D01*
X133497702Y-35128200D02*
X133497702Y-43328199D01*
X133497702Y-48433102D02*
X133502400Y-48437800D01*
X128459200Y-53556400D02*
X128497800Y-53517800D01*
X128459200Y-56435800D02*
X128459200Y-53556400D01*
X128497800Y-43328297D02*
X128497702Y-43328199D01*
X128497702Y-35128200D02*
X128497702Y-43328199D01*
X128497800Y-48437800D02*
X128497800Y-43328297D01*
X123520200Y-56485600D02*
X123520200Y-53510800D01*
X123520200Y-53510800D02*
X123497800Y-53488400D01*
X123497800Y-48408400D02*
X123497800Y-43328297D01*
X123497702Y-35128200D02*
X123497702Y-43328199D01*
X123497800Y-43328297D02*
X123497702Y-43328199D01*
D63*
X77774800Y-54444400D02*
X76949800Y-53619400D01*
X77774800Y-57937400D02*
X77774800Y-54444400D01*
D57*
X76949800Y-48539400D02*
X76949800Y-35146401D01*
D63*
X82854800Y-54571400D02*
X81902800Y-53619400D01*
X82854800Y-57810400D02*
X82854800Y-54571400D01*
D57*
X81902800Y-48539400D02*
X81902800Y-35165401D01*
D63*
X87934800Y-54571400D02*
X86982800Y-53619400D01*
X87934800Y-57810400D02*
X87934800Y-54571400D01*
D57*
X86982800Y-48539400D02*
X86982800Y-35179401D01*
D63*
X92887800Y-54571400D02*
X91935800Y-53619400D01*
X92887800Y-57810400D02*
X92887800Y-54571400D01*
D57*
X91935800Y-35132401D02*
X91935800Y-48539400D01*
D58*
X64959200Y-102920800D02*
X65010000Y-102870000D01*
X65010000Y-98704400D02*
X75422200Y-98704400D01*
X60915856Y-98704400D02*
X65010000Y-98704400D01*
X75422200Y-98704400D02*
X75498400Y-98628200D01*
X59188800Y-96977344D02*
X60915856Y-98704400D01*
X64959200Y-103991400D02*
X64959200Y-102920800D01*
X59188800Y-90177600D02*
X59188800Y-96977344D01*
X75498400Y-97358200D02*
X66610200Y-97358200D01*
X59838800Y-90177600D02*
X59838800Y-96778816D01*
X60418184Y-97358200D02*
X66610200Y-97358200D01*
X59838800Y-96778816D02*
X60418184Y-97358200D01*
X66584800Y-103991400D02*
X66584800Y-102768400D01*
D57*
X138492200Y-62535800D02*
X138492200Y-64563800D01*
X133513800Y-62535800D02*
X133513800Y-64563800D01*
X128459200Y-64567800D02*
X128459200Y-62535800D01*
X123520200Y-64615600D02*
X123520200Y-62585600D01*
D60*
X139389178Y-74236118D02*
X139389178Y-71560778D01*
X139389178Y-71560778D02*
X138492200Y-70663800D01*
X131769178Y-74236118D02*
X131769178Y-72408422D01*
X131769178Y-72408422D02*
X133513800Y-70663800D01*
X128459200Y-70667800D02*
X128459200Y-73482096D01*
X128459200Y-73482096D02*
X127705178Y-74236118D01*
X120085178Y-73052716D02*
X122422294Y-70715600D01*
X120085178Y-74236118D02*
X120085178Y-73052716D01*
X122422294Y-70715600D02*
X123520200Y-70715600D01*
D58*
X86652600Y-104978200D02*
X86830400Y-105156000D01*
X84798400Y-104978200D02*
X86652600Y-104978200D01*
D57*
X100140000Y-43338899D02*
X100140000Y-48421500D01*
X100140000Y-35138900D02*
X100140000Y-43338899D01*
X100140000Y-48421500D02*
X100125600Y-48435900D01*
X105140000Y-43338899D02*
X105140000Y-48399900D01*
X105140000Y-48399900D02*
X105104000Y-48435900D01*
X105140000Y-35138900D02*
X105140000Y-43338899D01*
X110140000Y-48429100D02*
X110133200Y-48435900D01*
X110140000Y-35138900D02*
X110140000Y-43338899D01*
X110140000Y-43338899D02*
X110140000Y-48429100D01*
X115140000Y-48413500D02*
X115162400Y-48435900D01*
X115140000Y-35138900D02*
X115140000Y-48413500D01*
D58*
X137855302Y-86894699D02*
X130481373Y-86894699D01*
X88247000Y-98592600D02*
X88247000Y-100412000D01*
X138988702Y-85761299D02*
X137855302Y-86894699D01*
X101958472Y-97663000D02*
X89176600Y-97663000D01*
X87490800Y-101168200D02*
X84798400Y-101168200D01*
X126456373Y-90919699D02*
X108701773Y-90919699D01*
X88247000Y-100412000D02*
X87490800Y-101168200D01*
D61*
X138988702Y-85761299D02*
X138988702Y-82256594D01*
D58*
X130481373Y-86894699D02*
X126456373Y-90919699D01*
X108701773Y-90919699D02*
X101958472Y-97663000D01*
D61*
X138988702Y-82256594D02*
X139389178Y-81856118D01*
D58*
X89176600Y-97663000D02*
X88247000Y-98592600D01*
M02*
