G04 #@! TF.GenerationSoftware,KiCad,Pcbnew,(6.0.10)*
G04 #@! TF.CreationDate,2023-02-08T02:38:02+01:00*
G04 #@! TF.ProjectId,hamodule,68616d6f-6475-46c6-952e-6b696361645f,V.20230201.22*
G04 #@! TF.SameCoordinates,Original*
G04 #@! TF.FileFunction,Copper,L1,Top*
G04 #@! TF.FilePolarity,Positive*
%FSLAX46Y46*%
G04 Gerber Fmt 4.6, Leading zero omitted, Abs format (unit mm)*
G04 Created by KiCad (PCBNEW (6.0.10)) date 2023-02-08 02:38:02*
%MOMM*%
%LPD*%
G01*
G04 APERTURE LIST*
G04 Aperture macros list*
%AMRoundRect*
0 Rectangle with rounded corners*
0 $1 Rounding radius*
0 $2 $3 $4 $5 $6 $7 $8 $9 X,Y pos of 4 corners*
0 Add a 4 corners polygon primitive as box body*
4,1,4,$2,$3,$4,$5,$6,$7,$8,$9,$2,$3,0*
0 Add four circle primitives for the rounded corners*
1,1,$1+$1,$2,$3*
1,1,$1+$1,$4,$5*
1,1,$1+$1,$6,$7*
1,1,$1+$1,$8,$9*
0 Add four rect primitives between the rounded corners*
20,1,$1+$1,$2,$3,$4,$5,0*
20,1,$1+$1,$4,$5,$6,$7,0*
20,1,$1+$1,$6,$7,$8,$9,0*
20,1,$1+$1,$8,$9,$2,$3,0*%
G04 Aperture macros list end*
G04 #@! TA.AperFunction,ComponentPad*
%ADD10R,1.700000X1.700000*%
G04 #@! TD*
G04 #@! TA.AperFunction,ComponentPad*
%ADD11O,1.700000X1.700000*%
G04 #@! TD*
G04 #@! TA.AperFunction,SMDPad,CuDef*
%ADD12RoundRect,0.249999X-1.425001X0.450001X-1.425001X-0.450001X1.425001X-0.450001X1.425001X0.450001X0*%
G04 #@! TD*
G04 #@! TA.AperFunction,ComponentPad*
%ADD13C,1.800000*%
G04 #@! TD*
G04 #@! TA.AperFunction,SMDPad,CuDef*
%ADD14RoundRect,0.250000X-0.450000X0.325000X-0.450000X-0.325000X0.450000X-0.325000X0.450000X0.325000X0*%
G04 #@! TD*
G04 #@! TA.AperFunction,SMDPad,CuDef*
%ADD15RoundRect,0.250000X-0.450000X0.350000X-0.450000X-0.350000X0.450000X-0.350000X0.450000X0.350000X0*%
G04 #@! TD*
G04 #@! TA.AperFunction,ComponentPad*
%ADD16RoundRect,0.250000X-0.600000X-0.750000X0.600000X-0.750000X0.600000X0.750000X-0.600000X0.750000X0*%
G04 #@! TD*
G04 #@! TA.AperFunction,ComponentPad*
%ADD17O,1.700000X2.000000*%
G04 #@! TD*
G04 #@! TA.AperFunction,SMDPad,CuDef*
%ADD18RoundRect,0.237500X0.300000X0.237500X-0.300000X0.237500X-0.300000X-0.237500X0.300000X-0.237500X0*%
G04 #@! TD*
G04 #@! TA.AperFunction,SMDPad,CuDef*
%ADD19RoundRect,0.250000X-0.337500X-0.475000X0.337500X-0.475000X0.337500X0.475000X-0.337500X0.475000X0*%
G04 #@! TD*
G04 #@! TA.AperFunction,ComponentPad*
%ADD20R,1.650000X1.650000*%
G04 #@! TD*
G04 #@! TA.AperFunction,ComponentPad*
%ADD21C,1.650000*%
G04 #@! TD*
G04 #@! TA.AperFunction,ComponentPad*
%ADD22R,1.905000X2.000000*%
G04 #@! TD*
G04 #@! TA.AperFunction,ComponentPad*
%ADD23O,1.905000X2.000000*%
G04 #@! TD*
G04 #@! TA.AperFunction,ComponentPad*
%ADD24RoundRect,0.625000X0.625000X0.625000X-0.625000X0.625000X-0.625000X-0.625000X0.625000X-0.625000X0*%
G04 #@! TD*
G04 #@! TA.AperFunction,ComponentPad*
%ADD25C,2.000000*%
G04 #@! TD*
G04 #@! TA.AperFunction,ComponentPad*
%ADD26C,5.500000*%
G04 #@! TD*
G04 #@! TA.AperFunction,SMDPad,CuDef*
%ADD27RoundRect,0.150000X0.150000X-0.825000X0.150000X0.825000X-0.150000X0.825000X-0.150000X-0.825000X0*%
G04 #@! TD*
G04 #@! TA.AperFunction,ComponentPad*
%ADD28R,1.600000X2.400000*%
G04 #@! TD*
G04 #@! TA.AperFunction,ComponentPad*
%ADD29O,1.600000X2.400000*%
G04 #@! TD*
G04 #@! TA.AperFunction,SMDPad,CuDef*
%ADD30RoundRect,0.237500X-0.250000X-0.237500X0.250000X-0.237500X0.250000X0.237500X-0.250000X0.237500X0*%
G04 #@! TD*
G04 #@! TA.AperFunction,SMDPad,CuDef*
%ADD31R,1.100000X1.800000*%
G04 #@! TD*
G04 #@! TA.AperFunction,SMDPad,CuDef*
%ADD32RoundRect,0.237500X-0.300000X-0.237500X0.300000X-0.237500X0.300000X0.237500X-0.300000X0.237500X0*%
G04 #@! TD*
G04 #@! TA.AperFunction,SMDPad,CuDef*
%ADD33RoundRect,0.237500X-0.237500X0.300000X-0.237500X-0.300000X0.237500X-0.300000X0.237500X0.300000X0*%
G04 #@! TD*
G04 #@! TA.AperFunction,SMDPad,CuDef*
%ADD34RoundRect,0.225000X0.225000X0.250000X-0.225000X0.250000X-0.225000X-0.250000X0.225000X-0.250000X0*%
G04 #@! TD*
G04 #@! TA.AperFunction,SMDPad,CuDef*
%ADD35RoundRect,0.237500X0.237500X-0.250000X0.237500X0.250000X-0.237500X0.250000X-0.237500X-0.250000X0*%
G04 #@! TD*
G04 #@! TA.AperFunction,SMDPad,CuDef*
%ADD36RoundRect,0.200000X0.200000X0.275000X-0.200000X0.275000X-0.200000X-0.275000X0.200000X-0.275000X0*%
G04 #@! TD*
G04 #@! TA.AperFunction,SMDPad,CuDef*
%ADD37R,0.900000X1.500000*%
G04 #@! TD*
G04 #@! TA.AperFunction,SMDPad,CuDef*
%ADD38R,1.500000X0.900000*%
G04 #@! TD*
G04 #@! TA.AperFunction,SMDPad,CuDef*
%ADD39R,1.000000X1.000000*%
G04 #@! TD*
G04 #@! TA.AperFunction,SMDPad,CuDef*
%ADD40RoundRect,0.218750X0.256250X-0.218750X0.256250X0.218750X-0.256250X0.218750X-0.256250X-0.218750X0*%
G04 #@! TD*
G04 #@! TA.AperFunction,ComponentPad*
%ADD41R,1.000000X1.000000*%
G04 #@! TD*
G04 #@! TA.AperFunction,SMDPad,CuDef*
%ADD42R,0.600000X0.450000*%
G04 #@! TD*
G04 #@! TA.AperFunction,SMDPad,CuDef*
%ADD43RoundRect,0.250000X0.337500X0.475000X-0.337500X0.475000X-0.337500X-0.475000X0.337500X-0.475000X0*%
G04 #@! TD*
G04 #@! TA.AperFunction,SMDPad,CuDef*
%ADD44R,0.600000X1.450000*%
G04 #@! TD*
G04 #@! TA.AperFunction,SMDPad,CuDef*
%ADD45R,0.300000X1.450000*%
G04 #@! TD*
G04 #@! TA.AperFunction,ComponentPad*
%ADD46O,1.000000X2.100000*%
G04 #@! TD*
G04 #@! TA.AperFunction,ComponentPad*
%ADD47O,1.000000X1.600000*%
G04 #@! TD*
G04 #@! TA.AperFunction,ComponentPad*
%ADD48R,2.000000X2.000000*%
G04 #@! TD*
G04 #@! TA.AperFunction,SMDPad,CuDef*
%ADD49RoundRect,0.249999X-0.450001X-1.425001X0.450001X-1.425001X0.450001X1.425001X-0.450001X1.425001X0*%
G04 #@! TD*
G04 #@! TA.AperFunction,SMDPad,CuDef*
%ADD50R,0.820000X0.304800*%
G04 #@! TD*
G04 #@! TA.AperFunction,SMDPad,CuDef*
%ADD51R,0.820000X0.308800*%
G04 #@! TD*
G04 #@! TA.AperFunction,SMDPad,CuDef*
%ADD52RoundRect,0.150000X0.150000X-0.512500X0.150000X0.512500X-0.150000X0.512500X-0.150000X-0.512500X0*%
G04 #@! TD*
G04 #@! TA.AperFunction,SMDPad,CuDef*
%ADD53RoundRect,0.225000X-0.225000X-0.250000X0.225000X-0.250000X0.225000X0.250000X-0.225000X0.250000X0*%
G04 #@! TD*
G04 #@! TA.AperFunction,ComponentPad*
%ADD54R,1.600000X1.600000*%
G04 #@! TD*
G04 #@! TA.AperFunction,ComponentPad*
%ADD55C,1.600000*%
G04 #@! TD*
G04 #@! TA.AperFunction,SMDPad,CuDef*
%ADD56RoundRect,0.250000X0.450000X-0.350000X0.450000X0.350000X-0.450000X0.350000X-0.450000X-0.350000X0*%
G04 #@! TD*
G04 #@! TA.AperFunction,ViaPad*
%ADD57C,0.800000*%
G04 #@! TD*
G04 #@! TA.AperFunction,Conductor*
%ADD58C,3.000000*%
G04 #@! TD*
G04 #@! TA.AperFunction,Conductor*
%ADD59C,2.000000*%
G04 #@! TD*
G04 #@! TA.AperFunction,Conductor*
%ADD60C,1.500000*%
G04 #@! TD*
G04 #@! TA.AperFunction,Conductor*
%ADD61C,1.000000*%
G04 #@! TD*
G04 #@! TA.AperFunction,Conductor*
%ADD62C,0.600000*%
G04 #@! TD*
G04 #@! TA.AperFunction,Conductor*
%ADD63C,0.250000*%
G04 #@! TD*
G04 #@! TA.AperFunction,Conductor*
%ADD64C,0.200000*%
G04 #@! TD*
G04 #@! TA.AperFunction,Conductor*
%ADD65C,0.400000*%
G04 #@! TD*
G04 #@! TA.AperFunction,Conductor*
%ADD66C,0.350000*%
G04 #@! TD*
G04 APERTURE END LIST*
D10*
X56261500Y-108343700D03*
D11*
X56261500Y-110883700D03*
D12*
X83820500Y-55791100D03*
X83820500Y-61891100D03*
X88773500Y-55791100D03*
X88773500Y-61891100D03*
D13*
X41703800Y-59011450D03*
X49203800Y-60644780D03*
D12*
X88773500Y-63842900D03*
X88773500Y-69942900D03*
X83820500Y-63842900D03*
X83820500Y-69942900D03*
D14*
X61659000Y-81008000D03*
X61659000Y-83058000D03*
D15*
X59576200Y-81026000D03*
X59576200Y-83026000D03*
D16*
X48832000Y-110219000D03*
D17*
X51332000Y-110219000D03*
D18*
X42137500Y-102489000D03*
X40412500Y-102489000D03*
D19*
X50778500Y-106299000D03*
X52853500Y-106299000D03*
D18*
X81126500Y-78994000D03*
X79401500Y-78994000D03*
D20*
X34839100Y-68805000D03*
D21*
X34839100Y-88805000D03*
X54839100Y-83805000D03*
X54839100Y-73805000D03*
D22*
X45657000Y-98679000D03*
D23*
X48197000Y-98679000D03*
X50737000Y-98679000D03*
D24*
X74849500Y-42758500D03*
X74849500Y-34558501D03*
X69849500Y-42758500D03*
X69849500Y-34558501D03*
X64849500Y-42758500D03*
X64849500Y-34558501D03*
X59849500Y-42758500D03*
X59849500Y-34558501D03*
X51203100Y-42782099D03*
X51203100Y-34582100D03*
X46203100Y-42782099D03*
X46203100Y-34582100D03*
X98809500Y-42718499D03*
X98809500Y-34518500D03*
X93809500Y-42718499D03*
X93809500Y-34518500D03*
X88809500Y-42718499D03*
X88809500Y-34518500D03*
X83809500Y-42718499D03*
X83809500Y-34518500D03*
D25*
X49249500Y-49088500D03*
X49239500Y-54168500D03*
D26*
X104267500Y-49212500D03*
X37973500Y-49212500D03*
D27*
X72454000Y-86484000D03*
X73724000Y-86484000D03*
X74994000Y-86484000D03*
X76264000Y-86484000D03*
X77534000Y-86484000D03*
X78804000Y-86484000D03*
X80074000Y-86484000D03*
X81344000Y-86484000D03*
X81344000Y-81534000D03*
X80074000Y-81534000D03*
X78804000Y-81534000D03*
X77534000Y-81534000D03*
X76264000Y-81534000D03*
X74994000Y-81534000D03*
X73724000Y-81534000D03*
X72454000Y-81534000D03*
D12*
X98831900Y-63842900D03*
X98831900Y-69942900D03*
X93802700Y-55791100D03*
X93802700Y-61891100D03*
X98831900Y-55791100D03*
X98831900Y-61891100D03*
D28*
X91454274Y-73923320D03*
D29*
X88914274Y-73923320D03*
X86374274Y-73923320D03*
X83834274Y-73923320D03*
X83834274Y-81543320D03*
X86374274Y-81543320D03*
X88914274Y-81543320D03*
X91454274Y-81543320D03*
D28*
X102630274Y-73923320D03*
D29*
X100090274Y-73923320D03*
X97550274Y-73923320D03*
X95010274Y-73923320D03*
X95010274Y-81543320D03*
X97550274Y-81543320D03*
X100090274Y-81543320D03*
X102630274Y-81543320D03*
D12*
X93802700Y-63842900D03*
X93802700Y-69942900D03*
D30*
X94959000Y-89217500D03*
X96784000Y-89217500D03*
D18*
X96721500Y-90741500D03*
X94996500Y-90741500D03*
D16*
X39835000Y-110219000D03*
D17*
X42335000Y-110219000D03*
D31*
X75955000Y-89102000D03*
X75955000Y-95302000D03*
X72255000Y-95302000D03*
X72255000Y-89102000D03*
X59643400Y-89102000D03*
X59643400Y-95302000D03*
X63343400Y-95302000D03*
X63343400Y-89102000D03*
D10*
X84783000Y-88341600D03*
D11*
X87323000Y-88341600D03*
X89863000Y-88341600D03*
X92403000Y-88341600D03*
D10*
X89800000Y-113090000D03*
D11*
X92340000Y-113090000D03*
D32*
X98351500Y-90741500D03*
X100076500Y-90741500D03*
D33*
X76150000Y-101737500D03*
X76150000Y-103462500D03*
D34*
X66205000Y-100820000D03*
X64655000Y-100820000D03*
D30*
X94987600Y-83896200D03*
X96812600Y-83896200D03*
D10*
X79000000Y-95200000D03*
D11*
X79000000Y-92660000D03*
X79000000Y-90120000D03*
D13*
X88773500Y-52895500D03*
X88773500Y-47815500D03*
D35*
X68707000Y-92552800D03*
X68707000Y-90727800D03*
X70358000Y-92528500D03*
X70358000Y-90703500D03*
D30*
X83860500Y-83896200D03*
X85685500Y-83896200D03*
D36*
X78825000Y-97910000D03*
X77175000Y-97910000D03*
X78825000Y-99385000D03*
X77175000Y-99385000D03*
D37*
X99610000Y-92550000D03*
X98340000Y-92550000D03*
X97070000Y-92550000D03*
X95800000Y-92550000D03*
X94530000Y-92550000D03*
X93260000Y-92550000D03*
X91990000Y-92550000D03*
X90720000Y-92550000D03*
X89450000Y-92550000D03*
X88180000Y-92550000D03*
X86910000Y-92550000D03*
X85640000Y-92550000D03*
X84370000Y-92550000D03*
X83100000Y-92550000D03*
D38*
X81850000Y-94315000D03*
X81850000Y-95585000D03*
X81850000Y-96855000D03*
X81850000Y-98125000D03*
X81850000Y-99395000D03*
X81850000Y-100665000D03*
X81850000Y-101935000D03*
X81850000Y-103205000D03*
X81850000Y-104475000D03*
X81850000Y-105745000D03*
X81850000Y-107015000D03*
X81850000Y-108285000D03*
D37*
X83100000Y-110050000D03*
X84370000Y-110050000D03*
X85640000Y-110050000D03*
X86910000Y-110050000D03*
X88180000Y-110050000D03*
X89450000Y-110050000D03*
X90720000Y-110050000D03*
X91990000Y-110050000D03*
X93260000Y-110050000D03*
X94530000Y-110050000D03*
X95800000Y-110050000D03*
X97070000Y-110050000D03*
X98340000Y-110050000D03*
X99610000Y-110050000D03*
D39*
X92760000Y-98440000D03*
X95760000Y-99940000D03*
X95760000Y-98440000D03*
X92760000Y-99940000D03*
X95760000Y-101440000D03*
X94260000Y-101440000D03*
X92760000Y-101440000D03*
X94260000Y-99940000D03*
X94260000Y-98440000D03*
D40*
X68707000Y-95783500D03*
X68707000Y-94208500D03*
D13*
X98831900Y-52895500D03*
X98831900Y-47815500D03*
D10*
X72410000Y-100975000D03*
D11*
X72410000Y-103515000D03*
D10*
X76325000Y-109200000D03*
D11*
X78865000Y-109200000D03*
D41*
X93218000Y-85217000D03*
D14*
X98390000Y-112135000D03*
X98390000Y-114185000D03*
D42*
X60000000Y-104500000D03*
X62100000Y-104500000D03*
D13*
X74690000Y-52959000D03*
X74690000Y-47879000D03*
D43*
X42058500Y-104267000D03*
X39983500Y-104267000D03*
D44*
X63726000Y-107760900D03*
X64526000Y-107760900D03*
D45*
X65726000Y-107760900D03*
X66726000Y-107760900D03*
X67226000Y-107760900D03*
X68226000Y-107760900D03*
D44*
X69426000Y-107760900D03*
X70226000Y-107760900D03*
X70226000Y-107760900D03*
X69426000Y-107760900D03*
D45*
X68726000Y-107760900D03*
X67726000Y-107760900D03*
X66226000Y-107760900D03*
X65226000Y-107760900D03*
D44*
X64526000Y-107760900D03*
X63726000Y-107760900D03*
D46*
X71296000Y-108675900D03*
D47*
X62656000Y-112855900D03*
D46*
X62656000Y-108675900D03*
D47*
X71296000Y-112855900D03*
D30*
X100778800Y-83896200D03*
X102603800Y-83896200D03*
D10*
X56261500Y-104470200D03*
D11*
X56261500Y-101930200D03*
X56261500Y-99390200D03*
D32*
X95034600Y-85420200D03*
X96759600Y-85420200D03*
D40*
X65379600Y-95783500D03*
X65379600Y-94208500D03*
D32*
X89652000Y-85521800D03*
X91377000Y-85521800D03*
X50699500Y-102489000D03*
X52424500Y-102489000D03*
D13*
X93802700Y-52895500D03*
X93802700Y-47815500D03*
D35*
X65379600Y-92528400D03*
X65379600Y-90703400D03*
D18*
X102550800Y-85420200D03*
X100825800Y-85420200D03*
D35*
X69680000Y-104602500D03*
X69680000Y-102777500D03*
X67005200Y-92530300D03*
X67005200Y-90705300D03*
D48*
X61976000Y-77470000D03*
D25*
X61976000Y-74930000D03*
X61976000Y-64770000D03*
X61976000Y-57150000D03*
D48*
X66802000Y-77470000D03*
D25*
X66802000Y-74930000D03*
X66802000Y-64770000D03*
X66802000Y-57150000D03*
D13*
X64770000Y-52959000D03*
X64770000Y-47879000D03*
D48*
X76581000Y-77470000D03*
D25*
X76581000Y-74930000D03*
X76581000Y-64770000D03*
X76581000Y-57150000D03*
D49*
X77250000Y-113200000D03*
X83350000Y-113200000D03*
D50*
X79620000Y-102700000D03*
D51*
X79620000Y-101889200D03*
X77900000Y-101889200D03*
D50*
X77900000Y-102700000D03*
D52*
X66030000Y-104797500D03*
X66980000Y-104797500D03*
X67930000Y-104797500D03*
X67930000Y-102522500D03*
X66980000Y-102522500D03*
X66030000Y-102522500D03*
D48*
X71628000Y-77470000D03*
D25*
X71628000Y-74930000D03*
X71628000Y-64770000D03*
X71628000Y-57150000D03*
D53*
X67745000Y-100820000D03*
X69295000Y-100820000D03*
D30*
X77729100Y-105042600D03*
X79554100Y-105042600D03*
D43*
X42058500Y-106299000D03*
X39983500Y-106299000D03*
D54*
X45149000Y-103759000D03*
D55*
X47649000Y-103759000D03*
D13*
X83795100Y-52895500D03*
X83795100Y-47815500D03*
D40*
X70358000Y-95783500D03*
X70358000Y-94208500D03*
D32*
X98362000Y-89217500D03*
X100087000Y-89217500D03*
D19*
X50778500Y-104267000D03*
X52853500Y-104267000D03*
D30*
X89600900Y-83947000D03*
X91425900Y-83947000D03*
X77729100Y-106566600D03*
X79554100Y-106566600D03*
D13*
X59817000Y-52959000D03*
X59817000Y-47879000D03*
D56*
X96390000Y-114160000D03*
X96390000Y-112160000D03*
D35*
X64210000Y-104582500D03*
X64210000Y-102757500D03*
D10*
X69787000Y-85979000D03*
D11*
X67247000Y-85979000D03*
X64707000Y-85979000D03*
X62167000Y-85979000D03*
D26*
X37973500Y-99212500D03*
D32*
X83909400Y-85420200D03*
X85634400Y-85420200D03*
D13*
X69690000Y-52959000D03*
X69690000Y-47879000D03*
D19*
X97945000Y-87450000D03*
X100020000Y-87450000D03*
D40*
X67005200Y-95783500D03*
X67005200Y-94208500D03*
D57*
X74168000Y-106172000D03*
X96457000Y-88011000D03*
X98360000Y-89970000D03*
X97663000Y-88392000D03*
X76200000Y-105156000D03*
X76264000Y-83312000D03*
X77534000Y-83820000D03*
X78804000Y-84455000D03*
X80074000Y-84582000D03*
X90850000Y-94200000D03*
X75883000Y-90932000D03*
X75969500Y-93395800D03*
X95700000Y-102700000D03*
X91100000Y-99800000D03*
X100063800Y-88392000D03*
X88329000Y-83947000D03*
X54229000Y-104267000D03*
X86906600Y-83896200D03*
X99149400Y-83845400D03*
X63343400Y-93501600D03*
X72269500Y-93465500D03*
X72263000Y-90805000D03*
X100087000Y-89916000D03*
X63500000Y-100800000D03*
X98285800Y-83845400D03*
X93790000Y-89662000D03*
X63200000Y-102100000D03*
X61976000Y-105664000D03*
X70500000Y-100800000D03*
X94200000Y-102700000D03*
X75000000Y-102800000D03*
X54229000Y-102489000D03*
X38608000Y-106299000D03*
X88430600Y-85420200D03*
X38608000Y-104267000D03*
X70490000Y-101840000D03*
X66995998Y-106036400D03*
X95800000Y-97100000D03*
X63487800Y-81026000D03*
X85100000Y-112000000D03*
X85100000Y-113100000D03*
X99560000Y-85390000D03*
X97981000Y-85344000D03*
X90300000Y-100600000D03*
X54229000Y-106299000D03*
X81423511Y-84883489D03*
X62600000Y-106440000D03*
X88011000Y-96774000D03*
X86906600Y-85420200D03*
X63343400Y-91088600D03*
X85100000Y-114300000D03*
X70104000Y-106172000D03*
X71120000Y-106172000D03*
X78613000Y-77724000D03*
X87249000Y-97536000D03*
X92800000Y-102700000D03*
X67945000Y-97028000D03*
X84357066Y-107600500D03*
X83500000Y-108400000D03*
X81800000Y-91200000D03*
X89360000Y-94170000D03*
X84408768Y-99421232D03*
X80223958Y-99172500D03*
X80223958Y-98122500D03*
X85151232Y-98678768D03*
X73736200Y-113741200D03*
D58*
X34839100Y-88805000D02*
X34839100Y-79575700D01*
X49203800Y-65211000D02*
X49203800Y-63363800D01*
D59*
X49644800Y-64770000D02*
X76581000Y-64770000D01*
D58*
X49203800Y-63363800D02*
X49239500Y-63328100D01*
X49239500Y-63328100D02*
X49239500Y-54168500D01*
X34839100Y-79575700D02*
X49203800Y-65211000D01*
D60*
X49203800Y-65211000D02*
X49644800Y-64770000D01*
D61*
X50778500Y-104267000D02*
X50778500Y-109665500D01*
D60*
X59754000Y-75057000D02*
X61976000Y-75057000D01*
D61*
X57881000Y-83026000D02*
X57595000Y-83312000D01*
D60*
X57595000Y-77216000D02*
X59754000Y-75057000D01*
D61*
X50778500Y-101240500D02*
X55571800Y-101240500D01*
X50778500Y-104267000D02*
X50778500Y-101240500D01*
X81344000Y-79211500D02*
X81126500Y-78994000D01*
X55571800Y-101240500D02*
X56261500Y-101930200D01*
D60*
X58061011Y-97062211D02*
X57595000Y-96596200D01*
D61*
X81344000Y-81534000D02*
X81344000Y-79211500D01*
D60*
X61976000Y-75057000D02*
X76581000Y-75057000D01*
D61*
X50778500Y-109665500D02*
X51332000Y-110219000D01*
X81126500Y-78994000D02*
X81126500Y-78541122D01*
D60*
X58061011Y-100135583D02*
X58061011Y-97062211D01*
X57349797Y-100846797D02*
X58061011Y-100135583D01*
D61*
X81126500Y-78541122D02*
X77515378Y-74930000D01*
D60*
X56261500Y-101930200D02*
X57344903Y-100846797D01*
D61*
X50778500Y-98720500D02*
X50737000Y-98679000D01*
D60*
X57595000Y-83312000D02*
X57595000Y-77216000D01*
D61*
X50778500Y-101240500D02*
X50778500Y-98720500D01*
X59576200Y-83026000D02*
X57881000Y-83026000D01*
D60*
X57595000Y-96596200D02*
X57595000Y-83312000D01*
X57344903Y-100846797D02*
X57349797Y-100846797D01*
D61*
X77515378Y-74930000D02*
X76581000Y-74930000D01*
X98362000Y-87677000D02*
X98362000Y-89748000D01*
D62*
X76200000Y-105156000D02*
X77615700Y-105156000D01*
X74168000Y-106172000D02*
X74039603Y-106043603D01*
D61*
X96457000Y-88011000D02*
X98028000Y-88011000D01*
X96784000Y-89217500D02*
X98362000Y-89217500D01*
D63*
X76421500Y-101889200D02*
X76156500Y-101624200D01*
D62*
X77729100Y-105042600D02*
X77729100Y-105629100D01*
D61*
X98362000Y-89748000D02*
X98362000Y-92528000D01*
D62*
X74039603Y-102487603D02*
X74903007Y-101624200D01*
D63*
X77696500Y-101889200D02*
X76421500Y-101889200D01*
D61*
X98028000Y-88011000D02*
X98362000Y-87677000D01*
D62*
X77615700Y-105156000D02*
X77729100Y-105042600D01*
D61*
X97663000Y-88376000D02*
X98362000Y-87677000D01*
D62*
X76200000Y-105156000D02*
X74168000Y-105156000D01*
X74039603Y-106043603D02*
X74039603Y-102487603D01*
D61*
X98362000Y-92528000D02*
X98340000Y-92550000D01*
X97663000Y-88392000D02*
X97663000Y-88376000D01*
D62*
X76156500Y-101624200D02*
X74903007Y-101624200D01*
X77729100Y-105629100D02*
X77729100Y-106566600D01*
D58*
X51203100Y-47134900D02*
X49249500Y-49088500D01*
X51203100Y-42782099D02*
X51203100Y-47134900D01*
X51203100Y-34582100D02*
X51203100Y-42782099D01*
D59*
X59817000Y-52959000D02*
X59817000Y-54991000D01*
X59817000Y-54991000D02*
X61976000Y-57150000D01*
X64770000Y-54737000D02*
X64770000Y-52959000D01*
X66802000Y-57150000D02*
X66802000Y-56769000D01*
X66802000Y-56769000D02*
X64770000Y-54737000D01*
X69690000Y-54707932D02*
X69690000Y-52959000D01*
X71628000Y-56645932D02*
X69690000Y-54707932D01*
X71628000Y-57150000D02*
X71628000Y-56645932D01*
X76581000Y-56769000D02*
X74690000Y-54878000D01*
X76581000Y-57150000D02*
X76581000Y-56769000D01*
X74690000Y-54878000D02*
X74690000Y-52959000D01*
X83809500Y-34518500D02*
X83809500Y-42718499D01*
X83809500Y-47801100D02*
X83795100Y-47815500D01*
X83809500Y-42718499D02*
X83809500Y-47801100D01*
X88809500Y-42718499D02*
X88809500Y-34518500D01*
X88773500Y-42754499D02*
X88809500Y-42718499D01*
X88773500Y-47815500D02*
X88773500Y-42754499D01*
X93809500Y-47808700D02*
X93802700Y-47815500D01*
X93809500Y-34518500D02*
X93809500Y-42718499D01*
X93809500Y-42718499D02*
X93809500Y-47808700D01*
X98809500Y-42718499D02*
X98809500Y-47793100D01*
X98809500Y-47793100D02*
X98831900Y-47815500D01*
X98809500Y-42718499D02*
X98809500Y-34518500D01*
D64*
X66726000Y-107760900D02*
X66726000Y-106785900D01*
X67726000Y-105001500D02*
X67930000Y-104797500D01*
X67726000Y-107760900D02*
X67726000Y-105001500D01*
X66776000Y-106735900D02*
X67707900Y-106735900D01*
X67707900Y-106735900D02*
X67726000Y-106754000D01*
X66726000Y-106785900D02*
X66776000Y-106735900D01*
D65*
X86964983Y-89591111D02*
X86032511Y-89591111D01*
D62*
X83834274Y-87392874D02*
X84783000Y-88341600D01*
D65*
X90030800Y-90678000D02*
X88051872Y-90678000D01*
X90716600Y-91363800D02*
X90030800Y-90678000D01*
X88051872Y-90678000D02*
X86964983Y-89591111D01*
D62*
X83834274Y-81543320D02*
X83834274Y-87392874D01*
D65*
X86032511Y-89591111D02*
X84783000Y-88341600D01*
X90716600Y-92753400D02*
X90716600Y-91363800D01*
D62*
X91377000Y-85521800D02*
X90208600Y-86690200D01*
X91454274Y-85444526D02*
X91377000Y-85521800D01*
X91454274Y-81543320D02*
X91454274Y-85444526D01*
X88974400Y-86690200D02*
X87323000Y-88341600D01*
X90208600Y-86690200D02*
X88974400Y-86690200D01*
D65*
X90523480Y-90078480D02*
X91948500Y-91503500D01*
X90523480Y-90078480D02*
X89059880Y-90078480D01*
X87323000Y-88341600D02*
X89059880Y-90078480D01*
X91948500Y-92791500D02*
X91948500Y-91503500D01*
X93240800Y-91719400D02*
X93256600Y-91719400D01*
D62*
X89863000Y-88341600D02*
X91362000Y-86842600D01*
D65*
X93256600Y-91719400D02*
X93256600Y-92753400D01*
D62*
X91362000Y-86842600D02*
X93612200Y-86842600D01*
X95034600Y-81567646D02*
X95010274Y-81543320D01*
X95034600Y-85420200D02*
X95034600Y-81567646D01*
D65*
X89863000Y-88341600D02*
X93240800Y-91719400D01*
D62*
X93612200Y-86842600D02*
X95034600Y-85420200D01*
D66*
X95139394Y-86270000D02*
X93067794Y-88341600D01*
D65*
X93254361Y-90438422D02*
X94530000Y-91714061D01*
X92901000Y-90438422D02*
X92901000Y-90424000D01*
D66*
X101700800Y-86270200D02*
X95999800Y-86270200D01*
D65*
X92901000Y-90424000D02*
X92403000Y-89926000D01*
D66*
X95999800Y-86270200D02*
X95999600Y-86270000D01*
X102550800Y-85420200D02*
X101700800Y-86270200D01*
D65*
X92403000Y-89926000D02*
X92403000Y-88341600D01*
X92901000Y-90438422D02*
X93254361Y-90438422D01*
D66*
X95999600Y-86270000D02*
X95139394Y-86270000D01*
D62*
X102550800Y-81622794D02*
X102630274Y-81543320D01*
D65*
X94530000Y-91714061D02*
X94530000Y-92550000D01*
D66*
X93067794Y-88341600D02*
X92403000Y-88341600D01*
D62*
X102550800Y-85369400D02*
X102550800Y-81622794D01*
D65*
X65379600Y-88747600D02*
X65379600Y-90703400D01*
X77153000Y-93147000D02*
X77153000Y-88050978D01*
X76264000Y-87161978D02*
X76264000Y-86484000D01*
X80047000Y-93947000D02*
X77953000Y-93947000D01*
X81120000Y-95585000D02*
X80600000Y-95065000D01*
X77153000Y-88050978D02*
X76264000Y-87161978D01*
X62167000Y-85979000D02*
X63691000Y-87503000D01*
X76264000Y-83312000D02*
X76264000Y-86484000D01*
X80600000Y-95065000D02*
X80600000Y-94500000D01*
X81850000Y-95585000D02*
X81120000Y-95585000D01*
X77953000Y-93947000D02*
X77153000Y-93147000D01*
X63691000Y-87503000D02*
X64135000Y-87503000D01*
X64135000Y-87503000D02*
X65379600Y-88747600D01*
X80600000Y-94500000D02*
X80047000Y-93947000D01*
X64707000Y-85979000D02*
X64707000Y-86805000D01*
X81388655Y-90400000D02*
X78944329Y-87955673D01*
X85598500Y-92791500D02*
X85598500Y-91812478D01*
X67005200Y-89103200D02*
X67005200Y-90705300D01*
X64707000Y-86805000D02*
X67005200Y-89103200D01*
X85178011Y-91391989D02*
X83291989Y-91391989D01*
X82300000Y-90400000D02*
X81388655Y-90400000D01*
X77534000Y-83820000D02*
X77534000Y-86484000D01*
X78944329Y-87955673D02*
X78522856Y-87955673D01*
X85598500Y-91812478D02*
X85178011Y-91391989D01*
X77534000Y-86966817D02*
X77534000Y-86484000D01*
X83291989Y-91391989D02*
X82300000Y-90400000D01*
X78522856Y-87955673D02*
X77534000Y-86966817D01*
X82600000Y-89800000D02*
X83592469Y-90792469D01*
X78804000Y-86484000D02*
X78804000Y-86966817D01*
X86868500Y-91812478D02*
X86868500Y-92791500D01*
X67247000Y-85979000D02*
X67247000Y-87567000D01*
X85848491Y-90792469D02*
X86868500Y-91812478D01*
X67247000Y-87567000D02*
X68707000Y-89027000D01*
X68707000Y-89027000D02*
X68707000Y-90727800D01*
X83592469Y-90792469D02*
X85848491Y-90792469D01*
X78804000Y-86966817D02*
X81637183Y-89800000D01*
X78804000Y-84455000D02*
X78804000Y-86484000D01*
X81637183Y-89800000D02*
X82600000Y-89800000D01*
X80074000Y-84582000D02*
X80074000Y-86484000D01*
X82892500Y-89192500D02*
X83892949Y-90192949D01*
X86518971Y-90192949D02*
X88138500Y-91812478D01*
X81878211Y-89192500D02*
X82892500Y-89192500D01*
X80074000Y-87388289D02*
X81878211Y-89192500D01*
X83892949Y-90192949D02*
X86518971Y-90192949D01*
X80074000Y-86484000D02*
X80074000Y-87388289D01*
X70358000Y-90703500D02*
X70358000Y-88264000D01*
X70358000Y-88264000D02*
X69787000Y-87693000D01*
X69787000Y-85979000D02*
X69787000Y-87693000D01*
X88138500Y-91812478D02*
X88138500Y-92791500D01*
X96721500Y-91133000D02*
X97028500Y-91440000D01*
D62*
X97028500Y-92791500D02*
X97028500Y-93749500D01*
D61*
X75969500Y-95105000D02*
X75969500Y-93228300D01*
D65*
X96520500Y-90741500D02*
X94996500Y-89217500D01*
D62*
X96486989Y-94291011D02*
X90941011Y-94291011D01*
X90941011Y-94291011D02*
X90850000Y-94200000D01*
D65*
X96721500Y-90741500D02*
X96721500Y-91133000D01*
X97028500Y-91440000D02*
X97028500Y-92791500D01*
D62*
X97028500Y-93749500D02*
X96486989Y-94291011D01*
D61*
X75969500Y-93228300D02*
X75969500Y-90383500D01*
X75969500Y-88905000D02*
X75969500Y-90383500D01*
D64*
X68788896Y-98872501D02*
X67745000Y-99916397D01*
X75572501Y-99428562D02*
X75572501Y-99172501D01*
X76662501Y-98872501D02*
X76472501Y-98872501D01*
X76172501Y-99172501D02*
X76172501Y-99428562D01*
X73611711Y-98872501D02*
X68788896Y-98872501D01*
X77175000Y-99385000D02*
X76662501Y-98872501D01*
X75272501Y-98872501D02*
X73611711Y-98872501D01*
X67745000Y-99916397D02*
X67745000Y-100820000D01*
X67930000Y-102522500D02*
X67930000Y-101005000D01*
X67930000Y-101005000D02*
X67745000Y-100820000D01*
X76172501Y-99172501D02*
G75*
G02*
X76472501Y-98872501I299999J1D01*
G01*
X75872501Y-99728601D02*
G75*
G03*
X76172501Y-99428562I-1J300001D01*
G01*
X75272501Y-98872499D02*
G75*
G02*
X75572501Y-99172501I-1J-300001D01*
G01*
X75572538Y-99428562D02*
G75*
G03*
X75872501Y-99728562I299962J-38D01*
G01*
X68602501Y-98422499D02*
X76662501Y-98422499D01*
X66030000Y-100995000D02*
X66205000Y-100820000D01*
X66030000Y-102522500D02*
X66030000Y-100995000D01*
X76662501Y-98422499D02*
X77175000Y-97910000D01*
X66205000Y-100820000D02*
X68602501Y-98422499D01*
D62*
X82125000Y-111025000D02*
X74995000Y-111025000D01*
X83100000Y-110050000D02*
X82125000Y-111025000D01*
D61*
X59643400Y-89102000D02*
X59643400Y-95302000D01*
D62*
X61076000Y-98234600D02*
X59643400Y-96802000D01*
X71860000Y-114160000D02*
X62245886Y-114160000D01*
X61076000Y-103316200D02*
X61076000Y-112990114D01*
X74995000Y-111025000D02*
X71860000Y-114160000D01*
X61076000Y-103316200D02*
X61076000Y-98234600D01*
X59643400Y-96802000D02*
X59643400Y-95302000D01*
X61076000Y-112990114D02*
X62245886Y-114160000D01*
D65*
X89800000Y-113090000D02*
X91230000Y-111660000D01*
X94530000Y-111330000D02*
X94530000Y-110050000D01*
X91230000Y-111660000D02*
X94200000Y-111660000D01*
X94200000Y-111660000D02*
X94530000Y-111330000D01*
X95800000Y-110050000D02*
X95800000Y-111030761D01*
X93740761Y-113090000D02*
X92340000Y-113090000D01*
X95800000Y-111030761D02*
X93740761Y-113090000D01*
D62*
X56291300Y-104500000D02*
X56261500Y-104470200D01*
X60000000Y-104500000D02*
X56291300Y-104500000D01*
D61*
X52424500Y-102489000D02*
X54229000Y-102489000D01*
X91240000Y-99940000D02*
X91100000Y-99800000D01*
D65*
X70480000Y-100820000D02*
X70500000Y-100800000D01*
X81344000Y-86484000D02*
X81344000Y-84963000D01*
D62*
X97904800Y-85420200D02*
X97981000Y-85344000D01*
D65*
X95760000Y-101440000D02*
X95760000Y-98440000D01*
D62*
X93790000Y-89662000D02*
X94869500Y-90741500D01*
D65*
X64655000Y-100820000D02*
X63520000Y-100820000D01*
X69295000Y-100820000D02*
X70480000Y-100820000D01*
D61*
X94260000Y-102640000D02*
X94200000Y-102700000D01*
D62*
X96863400Y-83845400D02*
X96812600Y-83896200D01*
D65*
X94260000Y-98440000D02*
X94260000Y-101440000D01*
D62*
X85685500Y-83896200D02*
X89550100Y-83896200D01*
D61*
X84550000Y-112000000D02*
X83350000Y-113200000D01*
X100087000Y-90731000D02*
X100076500Y-90741500D01*
D62*
X75607300Y-102800000D02*
X76156500Y-103349200D01*
D61*
X100076500Y-92083500D02*
X99610000Y-92550000D01*
X88074000Y-96774000D02*
X91100000Y-99800000D01*
X65379600Y-95758000D02*
X67945000Y-95758000D01*
X92760000Y-101440000D02*
X92760000Y-102660000D01*
D65*
X63857500Y-102757500D02*
X63200000Y-102100000D01*
D61*
X63343400Y-89102000D02*
X63343400Y-91088600D01*
X92760000Y-102660000D02*
X92800000Y-102700000D01*
D62*
X88532200Y-85521800D02*
X88430600Y-85420200D01*
D65*
X64210000Y-102757500D02*
X63857500Y-102757500D01*
D61*
X100087000Y-87677000D02*
X100087000Y-90731000D01*
D65*
X66980000Y-104797500D02*
X66980000Y-106020402D01*
D62*
X70226000Y-106294000D02*
X70104000Y-106172000D01*
D61*
X95760000Y-102640000D02*
X95700000Y-102700000D01*
X85100000Y-113100000D02*
X83450000Y-113100000D01*
X79401500Y-78512500D02*
X78613000Y-77724000D01*
X88011000Y-96774000D02*
X88074000Y-96774000D01*
D62*
X70104000Y-106172000D02*
X71120000Y-106172000D01*
D61*
X85100000Y-114300000D02*
X84450000Y-114300000D01*
D63*
X76156500Y-103349200D02*
X76805700Y-102700000D01*
D65*
X62600000Y-106440000D02*
X62600000Y-106288000D01*
X63726000Y-107566000D02*
X62600000Y-106440000D01*
D62*
X99590200Y-85420200D02*
X99560000Y-85390000D01*
X70226000Y-107760900D02*
X70226000Y-106294000D01*
D61*
X100076500Y-90741500D02*
X100076500Y-92083500D01*
X72269500Y-95287500D02*
X72255000Y-95302000D01*
D63*
X98390000Y-112135000D02*
X99610000Y-110915000D01*
D61*
X94260000Y-101440000D02*
X94260000Y-102640000D01*
X72269500Y-92246300D02*
X72269500Y-93465500D01*
X92760000Y-99940000D02*
X91240000Y-99940000D01*
D62*
X89550100Y-83896200D02*
X89600900Y-83947000D01*
D61*
X95760000Y-98440000D02*
X95760000Y-97140000D01*
D60*
X61659000Y-81008000D02*
X63469800Y-81008000D01*
D61*
X99610000Y-92550000D02*
X99610000Y-100010000D01*
D65*
X95760000Y-98440000D02*
X92760000Y-98440000D01*
D60*
X63469800Y-81008000D02*
X63487800Y-81026000D01*
D61*
X52853500Y-104267000D02*
X54229000Y-104267000D01*
X87249000Y-97549000D02*
X90300000Y-100600000D01*
X63799400Y-95758000D02*
X63343400Y-95302000D01*
D63*
X99610000Y-110915000D02*
X99610000Y-110050000D01*
D65*
X92760000Y-101440000D02*
X95760000Y-101440000D01*
D61*
X95760000Y-101440000D02*
X95760000Y-102640000D01*
D62*
X75000000Y-102800000D02*
X75607300Y-102800000D01*
D61*
X72269500Y-91230500D02*
X72269500Y-92246300D01*
X71799000Y-95758000D02*
X72255000Y-95302000D01*
X52853500Y-106299000D02*
X54229000Y-106299000D01*
X99540000Y-99940000D02*
X99610000Y-100010000D01*
D62*
X85634400Y-85420200D02*
X86906600Y-85420200D01*
D61*
X72269500Y-90976300D02*
X72269500Y-91230500D01*
X67945000Y-95758000D02*
X67945000Y-97028000D01*
X39835000Y-103066500D02*
X40412500Y-102489000D01*
D65*
X94260000Y-99940000D02*
X95760000Y-99940000D01*
D63*
X69680000Y-102777500D02*
X69680000Y-102650000D01*
D65*
X63520000Y-100820000D02*
X63500000Y-100800000D01*
D61*
X79401500Y-78994000D02*
X79401500Y-78512500D01*
X99610000Y-100010000D02*
X99610000Y-110050000D01*
D65*
X63726000Y-107760900D02*
X63726000Y-107566000D01*
D61*
X67945000Y-95758000D02*
X71799000Y-95758000D01*
X84450000Y-114300000D02*
X83350000Y-113200000D01*
D63*
X69680000Y-102650000D02*
X70490000Y-101840000D01*
D61*
X95760000Y-97140000D02*
X95800000Y-97100000D01*
X72269500Y-93465500D02*
X72269500Y-93605500D01*
X63343400Y-93501600D02*
X63343400Y-95302000D01*
D65*
X66980000Y-106020402D02*
X66995998Y-106036400D01*
D61*
X63343400Y-91088600D02*
X63343400Y-93501600D01*
X39835000Y-110219000D02*
X39835000Y-103066500D01*
D62*
X100825800Y-85420200D02*
X99590200Y-85420200D01*
D65*
X81344000Y-84963000D02*
X81423511Y-84883489D01*
D62*
X100778800Y-83845400D02*
X96863400Y-83845400D01*
D61*
X95760000Y-99940000D02*
X99540000Y-99940000D01*
X39983500Y-106299000D02*
X38608000Y-106299000D01*
D63*
X76805700Y-102700000D02*
X77696500Y-102700000D01*
D65*
X62600000Y-106288000D02*
X61976000Y-105664000D01*
D62*
X89652000Y-85521800D02*
X88532200Y-85521800D01*
D61*
X83450000Y-113100000D02*
X83350000Y-113200000D01*
X65379600Y-95758000D02*
X63799400Y-95758000D01*
X72269500Y-93605500D02*
X72269500Y-95287500D01*
D62*
X94869500Y-90741500D02*
X94996500Y-90741500D01*
D61*
X85100000Y-112000000D02*
X84550000Y-112000000D01*
X87249000Y-97536000D02*
X87249000Y-97549000D01*
X87249000Y-97536000D02*
X88011000Y-96774000D01*
X91100000Y-99800000D02*
X90300000Y-100600000D01*
D62*
X96759600Y-85420200D02*
X97904800Y-85420200D01*
D65*
X92760000Y-98440000D02*
X92760000Y-101440000D01*
D61*
X72269500Y-88905000D02*
X72269500Y-90976300D01*
X39983500Y-104267000D02*
X38608000Y-104267000D01*
D65*
X59576200Y-81026000D02*
X59627000Y-81026000D01*
X59627000Y-81026000D02*
X61659000Y-83058000D01*
D59*
X59849500Y-42758500D02*
X59849500Y-47846500D01*
X59849500Y-47846500D02*
X59817000Y-47879000D01*
X59849500Y-34558501D02*
X59849500Y-42758500D01*
X64849500Y-34558501D02*
X64849500Y-42758500D01*
X64849500Y-42758500D02*
X64849500Y-47799500D01*
X64849500Y-47799500D02*
X64770000Y-47879000D01*
X69849500Y-47719500D02*
X69690000Y-47879000D01*
X69849500Y-34558501D02*
X69849500Y-42758500D01*
X69849500Y-42758500D02*
X69849500Y-47719500D01*
X88773500Y-52895500D02*
X88773500Y-55791100D01*
X93802700Y-61891100D02*
X93802700Y-63842900D01*
D61*
X95010274Y-71150474D02*
X93802700Y-69942900D01*
X95010274Y-73923320D02*
X95010274Y-71150474D01*
D59*
X98831900Y-61891100D02*
X98831900Y-63842900D01*
D61*
X102630274Y-73094151D02*
X99479023Y-69942900D01*
X102630274Y-73923320D02*
X102630274Y-73094151D01*
X99479023Y-69942900D02*
X98831900Y-69942900D01*
D63*
X78742080Y-104572304D02*
X78742080Y-105754580D01*
D65*
X84357066Y-107600500D02*
X91700500Y-107600500D01*
X91700500Y-107600500D02*
X93260000Y-109160000D01*
D63*
X78742080Y-105754580D02*
X79554100Y-106566600D01*
X80021900Y-102700000D02*
X79620000Y-102700000D01*
X80160000Y-103154384D02*
X80160000Y-102838100D01*
X78742080Y-104572304D02*
X80160000Y-103154384D01*
D65*
X76325000Y-109200000D02*
X76920700Y-109200000D01*
X76920700Y-109200000D02*
X79554100Y-106566600D01*
X93260000Y-109160000D02*
X93260000Y-110050000D01*
D63*
X80160000Y-102838100D02*
X80021900Y-102700000D01*
X79554100Y-105042600D02*
X79681100Y-105042600D01*
D65*
X91990000Y-109320000D02*
X91070000Y-108400000D01*
X80441600Y-105930100D02*
X79554100Y-105042600D01*
D63*
X79554100Y-104544000D02*
X80609520Y-103488580D01*
X79653100Y-105014600D02*
X79681100Y-105042600D01*
D65*
X91990000Y-110050000D02*
X91990000Y-109320000D01*
D63*
X80111100Y-101889200D02*
X79620000Y-101889200D01*
D65*
X78865000Y-109200000D02*
X80441600Y-107623400D01*
D63*
X80609520Y-102387620D02*
X80111100Y-101889200D01*
X79554100Y-105042600D02*
X79554100Y-104544000D01*
X80609520Y-103488580D02*
X80609520Y-102387620D01*
D65*
X91070000Y-108400000D02*
X83500000Y-108400000D01*
D66*
X79554100Y-105042600D02*
X80416120Y-105904620D01*
D65*
X80441600Y-107623400D02*
X80441600Y-105930100D01*
D59*
X93802700Y-52895500D02*
X93802700Y-55791100D01*
X98831900Y-52895500D02*
X98831900Y-55791100D01*
D63*
X98365000Y-114160000D02*
X98390000Y-114185000D01*
X96390000Y-114160000D02*
X98365000Y-114160000D01*
D65*
X80195000Y-92660000D02*
X79000000Y-92660000D01*
X81850000Y-94315000D02*
X80195000Y-92660000D01*
D60*
X54839100Y-97967800D02*
X56261500Y-99390200D01*
X54839100Y-83805000D02*
X54839100Y-97967800D01*
D59*
X74849500Y-42758500D02*
X74849500Y-47719500D01*
X74849500Y-47719500D02*
X74690000Y-47879000D01*
X74849500Y-34558501D02*
X74849500Y-42758500D01*
X83795100Y-55765700D02*
X83820500Y-55791100D01*
X83795100Y-52895500D02*
X83795100Y-55765700D01*
D60*
X42058500Y-104267000D02*
X42058500Y-102568000D01*
X42058500Y-104267000D02*
X42058500Y-109942500D01*
X42566500Y-103759000D02*
X42058500Y-104267000D01*
X44514000Y-112395000D02*
X54750200Y-112395000D01*
X45149000Y-103759000D02*
X42566500Y-103759000D01*
X48197000Y-100330000D02*
X48197000Y-98679000D01*
X54750200Y-112395000D02*
X56261500Y-110883700D01*
X42335000Y-110219000D02*
X42338000Y-110219000D01*
X42338000Y-110219000D02*
X44514000Y-112395000D01*
X45149000Y-103378000D02*
X48197000Y-100330000D01*
X45149000Y-103759000D02*
X45149000Y-103378000D01*
X42058500Y-109942500D02*
X42335000Y-110219000D01*
X42058500Y-102568000D02*
X42137500Y-102489000D01*
D65*
X81800000Y-91200000D02*
X80080000Y-91200000D01*
X89450000Y-92550000D02*
X89450000Y-94080000D01*
X80080000Y-91200000D02*
X79000000Y-90120000D01*
X89450000Y-94080000D02*
X89360000Y-94170000D01*
X81850000Y-96855000D02*
X80655000Y-96855000D01*
X80655000Y-96855000D02*
X79000000Y-95200000D01*
D63*
X66226000Y-108826000D02*
X66226000Y-107760900D01*
X66239654Y-108839654D02*
X66226000Y-108826000D01*
D64*
X66226000Y-104993500D02*
X66030000Y-104797500D01*
D63*
X67172246Y-108839654D02*
X66239654Y-108839654D01*
D64*
X66226000Y-107760900D02*
X66226000Y-104993500D01*
D63*
X67226000Y-108785900D02*
X67172246Y-108839654D01*
X67226000Y-107760900D02*
X67226000Y-108785900D01*
D65*
X69426000Y-107760900D02*
X69426000Y-108544000D01*
X66980000Y-103012817D02*
X66980000Y-102522500D01*
X66000000Y-110000000D02*
X67850000Y-110000000D01*
X67970000Y-110000000D02*
X67850000Y-110000000D01*
X63713439Y-103690000D02*
X66302817Y-103690000D01*
X62100000Y-104500000D02*
X63150000Y-104500000D01*
X63233508Y-104169931D02*
X63713439Y-103690000D01*
X63233508Y-104583508D02*
X63233508Y-104169931D01*
X64526000Y-107760900D02*
X64526000Y-108526000D01*
X66302817Y-103690000D02*
X66980000Y-103012817D01*
X64526000Y-108526000D02*
X66000000Y-110000000D01*
X63408508Y-105641492D02*
X63233508Y-105466492D01*
X63150000Y-104500000D02*
X63233508Y-104583508D01*
X63408508Y-105641492D02*
X64526000Y-106758984D01*
X69426000Y-108544000D02*
X67970000Y-110000000D01*
X64526000Y-106758984D02*
X64526000Y-107760900D01*
X63233508Y-105466492D02*
X63233508Y-104583508D01*
D63*
X65726000Y-107760900D02*
X65726000Y-106428500D01*
X65726000Y-106428500D02*
X64210000Y-104912500D01*
X69690000Y-105560695D02*
X69690000Y-104582500D01*
X68726000Y-106524695D02*
X69690000Y-105560695D01*
X68726000Y-107760900D02*
X68726000Y-106524695D01*
D64*
X83510000Y-94085001D02*
X83100000Y-93675001D01*
X79923959Y-98872501D02*
X80223958Y-99172500D01*
X84408768Y-99421232D02*
X84408768Y-98996967D01*
X83510000Y-98098200D02*
X83510000Y-94085001D01*
X78825000Y-99385000D02*
X79337499Y-98872501D01*
X79337499Y-98872501D02*
X79923959Y-98872501D01*
X84408768Y-98996967D02*
X83510000Y-98098200D01*
X83100000Y-93675001D02*
X83100000Y-92550000D01*
X83960000Y-97911800D02*
X83960000Y-94085001D01*
X84370000Y-93675001D02*
X84370000Y-92550000D01*
X83960000Y-94085001D02*
X84370000Y-93675001D01*
X84726967Y-98678768D02*
X83960000Y-97911800D01*
X79923959Y-98422499D02*
X80223958Y-98122500D01*
X85151232Y-98678768D02*
X84726967Y-98678768D01*
X78825000Y-97910000D02*
X79337499Y-98422499D01*
X79337499Y-98422499D02*
X79923959Y-98422499D01*
D63*
X80015000Y-100665000D02*
X79700000Y-100350000D01*
X79700000Y-100350000D02*
X73205000Y-100350000D01*
X81850000Y-100665000D02*
X80015000Y-100665000D01*
X73205000Y-100350000D02*
X72570000Y-100985000D01*
X98340000Y-110630000D02*
X98340000Y-110050000D01*
X97425000Y-111125000D02*
X97845000Y-111125000D01*
X96390000Y-112160000D02*
X97425000Y-111125000D01*
X97845000Y-111125000D02*
X98340000Y-110630000D01*
D65*
X65379600Y-92528400D02*
X65379600Y-94208500D01*
D61*
X83820500Y-73909546D02*
X83834274Y-73923320D01*
X83820500Y-69942900D02*
X83820500Y-73909546D01*
D59*
X83820500Y-61891100D02*
X83820500Y-63842900D01*
D61*
X91454274Y-72623674D02*
X88773500Y-69942900D01*
X91454274Y-73923320D02*
X91454274Y-72623674D01*
D59*
X88773500Y-61891100D02*
X88773500Y-63842900D01*
D65*
X68869480Y-79537480D02*
X75410480Y-79537480D01*
X76019618Y-79537480D02*
X75410480Y-79537480D01*
X77534000Y-81534000D02*
X77534000Y-81051862D01*
X66802000Y-77470000D02*
X68869480Y-79537480D01*
X77534000Y-81051862D02*
X76019618Y-79537480D01*
X71628000Y-77470000D02*
X73095960Y-78937960D01*
X78804000Y-81534000D02*
X78804000Y-80813150D01*
X76928810Y-78937960D02*
X73095960Y-78937960D01*
X78804000Y-80813150D02*
X76928810Y-78937960D01*
X79439000Y-80051150D02*
X80074000Y-80686150D01*
X76581000Y-77470000D02*
X76581000Y-77742300D01*
X80074000Y-80686150D02*
X80074000Y-81407000D01*
X78889850Y-80051150D02*
X79439000Y-80051150D01*
X76581000Y-77742300D02*
X78889850Y-80051150D01*
X64643000Y-80137000D02*
X61976000Y-77470000D01*
X75349138Y-80137000D02*
X64643000Y-80137000D01*
X76264000Y-81051862D02*
X75349138Y-80137000D01*
X76264000Y-81534000D02*
X76264000Y-81051862D01*
X67005200Y-92530300D02*
X67005200Y-94208500D01*
X68707000Y-92552800D02*
X68707000Y-94208500D01*
X70358000Y-92528500D02*
X70358000Y-94208500D01*
D61*
X62656000Y-108675900D02*
X62656000Y-112855900D01*
X73736200Y-113698014D02*
X74234214Y-113200000D01*
D63*
X74092086Y-113200000D02*
X73618143Y-113673943D01*
D61*
X71296000Y-112855900D02*
X71296000Y-108675900D01*
X62656000Y-112855900D02*
X71296000Y-112855900D01*
X77250000Y-113200000D02*
X74234214Y-113200000D01*
X73736200Y-113741200D02*
X73736200Y-113698014D01*
D63*
X77250000Y-113200000D02*
X74092086Y-113200000D01*
X79513604Y-100800000D02*
X74780000Y-100800000D01*
X80885000Y-101935000D02*
X80210000Y-101260000D01*
X79973604Y-101260000D02*
X79513604Y-100800000D01*
X74780000Y-100800000D02*
X72410000Y-103170000D01*
X72410000Y-103170000D02*
X72410000Y-103515000D01*
X80210000Y-101260000D02*
X79973604Y-101260000D01*
X81850000Y-101935000D02*
X80885000Y-101935000D01*
M02*
