%TF.GenerationSoftware,KiCad,Pcbnew,8.0.4*%
%TF.CreationDate,2024-08-24T15:41:42+02:00*%
%TF.ProjectId,hamodule,68616d6f-6475-46c6-952e-6b696361645f,20240821.23.8*%
%TF.SameCoordinates,Original*%
%TF.FileFunction,Profile,NP*%
%FSLAX46Y46*%
G04 Gerber Fmt 4.6, Leading zero omitted, Abs format (unit mm)*
G04 Created by KiCad (PCBNEW 8.0.4) date 2024-08-24 15:41:42*
%MOMM*%
%LPD*%
G01*
G04 APERTURE LIST*
%TA.AperFunction,Profile*%
%ADD10C,0.050000*%
%TD*%
G04 APERTURE END LIST*
D10*
X324000Y8868400D02*
G75*
G02*
X24000Y9168400I0J300000D01*
G01*
X6824000Y-31600D02*
G75*
G02*
X6424000Y368400I0J400000D01*
G01*
X3124000Y8868400D02*
X324000Y8868400D01*
X6422168Y5458461D02*
X6424000Y368400D01*
X3124000Y8868400D02*
G75*
G02*
X6422168Y5458461I0J-3300000D01*
G01*
X129424000Y76268400D02*
G75*
G02*
X129624000Y76068400I0J-200000D01*
G01*
X123024000Y83268400D02*
G75*
G02*
X123224000Y83068400I0J-200000D01*
G01*
X123223162Y79536503D02*
X123224000Y83068400D01*
X126324000Y76268400D02*
X129424000Y76268400D01*
X126324000Y76268400D02*
G75*
G02*
X123223162Y79536503I100000J3200000D01*
G01*
X6225612Y79468400D02*
G75*
G02*
X3224000Y76368400I-3101612J0D01*
G01*
X424000Y76385924D02*
X3224000Y76368400D01*
X6224000Y83068400D02*
G75*
G02*
X6465421Y83309821I241421J0D01*
G01*
X6225612Y79468400D02*
X6224000Y83068400D01*
X24001Y75968400D02*
G75*
G02*
X424000Y76385924I399999J17157D01*
G01*
X123024000Y83268400D02*
X6465421Y83309821D01*
X24000Y9168400D02*
X24000Y75968400D01*
X16738600Y63169800D02*
X19634200Y63169800D01*
X14897600Y54762400D02*
G75*
G02*
X13932400Y54762400I-482600J0D01*
G01*
X13932400Y57658000D02*
G75*
G02*
X14897600Y57658000I482600J0D01*
G01*
X29124000Y42768400D02*
G75*
G02*
X29124000Y44968400I0J1100000D01*
G01*
X116124000Y36468400D02*
X73424000Y36468400D01*
X73424000Y36468400D02*
G75*
G02*
X73424000Y38068400I0J800000D01*
G01*
X112787204Y26111200D02*
X112750600Y2542000D01*
X73424000Y38068400D02*
X116124000Y38068400D01*
X19634200Y64135000D02*
X16738600Y64135000D01*
X19634200Y64135000D02*
G75*
G02*
X19634200Y63169800I0J-482600D01*
G01*
X129639604Y31209253D02*
G75*
G02*
X127099604Y28669196I-2540004J-53D01*
G01*
X13932400Y57658000D02*
X13932400Y54762400D01*
X29124000Y44968400D02*
X69224000Y44968400D01*
X110210600Y2000D02*
X6824000Y-31600D01*
X69224000Y42768400D02*
X29124000Y42768400D01*
X116124000Y38068400D02*
G75*
G02*
X116124000Y36468400I0J-800000D01*
G01*
X69224000Y44968400D02*
G75*
G02*
X69224000Y42768400I0J-1100000D01*
G01*
X115327204Y28651200D02*
X127099604Y28669253D01*
X112787204Y26111200D02*
G75*
G02*
X115327204Y28651196I2539996J0D01*
G01*
X129624000Y76068400D02*
X129639604Y31209253D01*
X112750600Y2542000D02*
G75*
G02*
X110210600Y2000I-2540000J0D01*
G01*
X16738600Y63169800D02*
G75*
G02*
X16738600Y64135000I0J482600D01*
G01*
X14897600Y54762400D02*
X14897600Y57658000D01*
M02*
