G04 #@! TF.GenerationSoftware,KiCad,Pcbnew,(5.1.6)-1*
G04 #@! TF.CreationDate,2021-09-20T00:00:24+02:00*
G04 #@! TF.ProjectId,hamodule,68616d6f-6475-46c6-952e-6b696361645f,rev?*
G04 #@! TF.SameCoordinates,Original*
G04 #@! TF.FileFunction,Soldermask,Top*
G04 #@! TF.FilePolarity,Negative*
%FSLAX46Y46*%
G04 Gerber Fmt 4.6, Leading zero omitted, Abs format (unit mm)*
G04 Created by KiCad (PCBNEW (5.1.6)-1) date 2021-09-20 00:00:24*
%MOMM*%
%LPD*%
G01*
G04 APERTURE LIST*
%ADD10C,1.660000*%
%ADD11R,1.660000X1.660000*%
%ADD12O,2.050000X1.800000*%
%ADD13O,1.900000X1.900000*%
%ADD14R,1.900000X1.900000*%
%ADD15C,1.900000*%
%ADD16C,2.200000*%
%ADD17C,5.600000*%
%ADD18C,2.400000*%
%ADD19R,2.400000X2.400000*%
%ADD20O,2.500000X2.500000*%
%ADD21C,2.500000*%
%ADD22C,2.100000*%
%ADD23R,2.100000X2.100000*%
%ADD24R,2.500000X1.700000*%
%ADD25O,2.500000X1.700000*%
%ADD26O,1.700000X2.500000*%
%ADD27R,1.700000X2.500000*%
%ADD28O,2.005000X2.100000*%
%ADD29R,2.005000X2.100000*%
%ADD30O,1.700000X1.700000*%
%ADD31C,1.700000*%
%ADD32O,2.100000X1.800000*%
%ADD33C,1.750000*%
%ADD34R,1.750000X1.750000*%
G04 APERTURE END LIST*
D10*
X206595000Y-67020000D03*
X206595000Y-64480000D03*
X206595000Y-61940000D03*
X206595000Y-59400000D03*
X206595000Y-56860000D03*
X206595000Y-54320000D03*
X206595000Y-51780000D03*
X206595000Y-49240000D03*
X206595000Y-46700000D03*
X206595000Y-44160000D03*
X206595000Y-41620000D03*
X206595000Y-39080000D03*
X206595000Y-36540000D03*
X206595000Y-34000000D03*
X206595000Y-31460000D03*
X206595000Y-28920000D03*
X206595000Y-26380000D03*
X206595000Y-23840000D03*
X206595000Y-21300000D03*
X181195000Y-64480000D03*
X181195000Y-61940000D03*
X181195000Y-59400000D03*
X181195000Y-56860000D03*
X181195000Y-54320000D03*
X181195000Y-51780000D03*
X181195000Y-49240000D03*
X181195000Y-46700000D03*
X181195000Y-44160000D03*
X181195000Y-41620000D03*
X181195000Y-39080000D03*
X181195000Y-36540000D03*
X181195000Y-34000000D03*
X181195000Y-31460000D03*
X181195000Y-28920000D03*
X181195000Y-26380000D03*
X181195000Y-67020000D03*
X181195000Y-23840000D03*
D11*
X181195000Y-21300000D03*
D12*
X173990000Y-55746000D03*
X173990000Y-58246000D03*
X173990000Y-60746000D03*
X173990000Y-63246000D03*
G36*
G01*
X174750294Y-66646000D02*
X173229706Y-66646000D01*
G75*
G02*
X172965000Y-66381294I0J264706D01*
G01*
X172965000Y-65110706D01*
G75*
G02*
X173229706Y-64846000I264706J0D01*
G01*
X174750294Y-64846000D01*
G75*
G02*
X175015000Y-65110706I0J-264706D01*
G01*
X175015000Y-66381294D01*
G75*
G02*
X174750294Y-66646000I-264706J0D01*
G01*
G37*
X214122000Y-17178000D03*
X214122000Y-19678000D03*
X214122000Y-22178000D03*
X214122000Y-24678000D03*
G36*
G01*
X214882294Y-28078000D02*
X213361706Y-28078000D01*
G75*
G02*
X213097000Y-27813294I0J264706D01*
G01*
X213097000Y-26542706D01*
G75*
G02*
X213361706Y-26278000I264706J0D01*
G01*
X214882294Y-26278000D01*
G75*
G02*
X215147000Y-26542706I0J-264706D01*
G01*
X215147000Y-27813294D01*
G75*
G02*
X214882294Y-28078000I-264706J0D01*
G01*
G37*
X173990000Y-17686000D03*
X173990000Y-20186000D03*
X173990000Y-22686000D03*
X173990000Y-25186000D03*
G36*
G01*
X174750294Y-28586000D02*
X173229706Y-28586000D01*
G75*
G02*
X172965000Y-28321294I0J264706D01*
G01*
X172965000Y-27050706D01*
G75*
G02*
X173229706Y-26786000I264706J0D01*
G01*
X174750294Y-26786000D01*
G75*
G02*
X175015000Y-27050706I0J-264706D01*
G01*
X175015000Y-28321294D01*
G75*
G02*
X174750294Y-28586000I-264706J0D01*
G01*
G37*
D13*
X88750000Y-60250000D03*
D14*
X81130000Y-60250000D03*
D13*
X88750000Y-63500000D03*
D14*
X81130000Y-63500000D03*
D13*
X88750000Y-66750000D03*
D14*
X81130000Y-66750000D03*
D13*
X88750000Y-70000000D03*
D14*
X81130000Y-70000000D03*
D15*
X36710000Y-45448330D03*
X29210000Y-43815000D03*
D16*
X29210000Y-19240000D03*
X29210000Y-27940000D03*
X34290000Y-19240000D03*
X34290000Y-27940000D03*
X39370000Y-19240000D03*
X39370000Y-27940000D03*
X44450000Y-19240000D03*
X44450000Y-27940000D03*
D17*
X52070000Y-21590000D03*
D18*
X76708000Y-52070000D03*
X76708000Y-36830000D03*
X84328000Y-34290000D03*
X84328000Y-41910000D03*
D19*
X84328000Y-52070000D03*
D20*
X132080000Y-42545000D03*
D21*
X132080000Y-22225000D03*
D20*
X125730000Y-42545000D03*
D21*
X125730000Y-22225000D03*
D22*
X113110000Y-53340000D03*
D23*
X118110000Y-53340000D03*
D22*
X124540000Y-53340000D03*
D23*
X129540000Y-53340000D03*
D24*
X69850000Y-76200000D03*
D25*
X62230000Y-58420000D03*
X69850000Y-73660000D03*
X62230000Y-60960000D03*
X69850000Y-71120000D03*
X62230000Y-63500000D03*
X69850000Y-68580000D03*
X62230000Y-66040000D03*
X69850000Y-66040000D03*
X62230000Y-68580000D03*
X69850000Y-63500000D03*
X62230000Y-71120000D03*
X69850000Y-60960000D03*
X62230000Y-73660000D03*
X69850000Y-58420000D03*
X62230000Y-76200000D03*
D12*
X95250000Y-68460000D03*
X95250000Y-65960000D03*
X95250000Y-63460000D03*
G36*
G01*
X94489706Y-60060000D02*
X96010294Y-60060000D01*
G75*
G02*
X96275000Y-60324706I0J-264706D01*
G01*
X96275000Y-61595294D01*
G75*
G02*
X96010294Y-61860000I-264706J0D01*
G01*
X94489706Y-61860000D01*
G75*
G02*
X94225000Y-61595294I0J264706D01*
G01*
X94225000Y-60324706D01*
G75*
G02*
X94489706Y-60060000I264706J0D01*
G01*
G37*
X101600000Y-73740000D03*
X101600000Y-76240000D03*
X101600000Y-78740000D03*
X101600000Y-81240000D03*
G36*
G01*
X102360294Y-84640000D02*
X100839706Y-84640000D01*
G75*
G02*
X100575000Y-84375294I0J264706D01*
G01*
X100575000Y-83104706D01*
G75*
G02*
X100839706Y-82840000I264706J0D01*
G01*
X102360294Y-82840000D01*
G75*
G02*
X102625000Y-83104706I0J-264706D01*
G01*
X102625000Y-84375294D01*
G75*
G02*
X102360294Y-84640000I-264706J0D01*
G01*
G37*
D26*
X119380000Y-68580000D03*
X111760000Y-60960000D03*
X116840000Y-68580000D03*
X114300000Y-60960000D03*
X114300000Y-68580000D03*
X116840000Y-60960000D03*
X111760000Y-68580000D03*
D27*
X119380000Y-60960000D03*
D26*
X142494000Y-68580000D03*
X134874000Y-60960000D03*
X139954000Y-68580000D03*
X137414000Y-60960000D03*
X137414000Y-68580000D03*
X139954000Y-60960000D03*
X134874000Y-68580000D03*
D27*
X142494000Y-60960000D03*
D26*
X131064000Y-68580000D03*
X123444000Y-60960000D03*
X128524000Y-68580000D03*
X125984000Y-60960000D03*
X125984000Y-68580000D03*
X128524000Y-60960000D03*
X123444000Y-68580000D03*
D27*
X131064000Y-60960000D03*
D26*
X107950000Y-68580000D03*
X100330000Y-60960000D03*
X105410000Y-68580000D03*
X102870000Y-60960000D03*
X102870000Y-68580000D03*
X105410000Y-60960000D03*
X100330000Y-68580000D03*
D27*
X107950000Y-60960000D03*
D28*
X81915000Y-78105000D03*
X84455000Y-78105000D03*
D29*
X86995000Y-78105000D03*
D30*
X158623000Y-84836000D03*
D31*
X151003000Y-84836000D03*
D30*
X158623000Y-79756000D03*
D31*
X151003000Y-79756000D03*
D30*
X158623000Y-74676000D03*
D31*
X151003000Y-74676000D03*
D30*
X107950000Y-85090000D03*
D31*
X115570000Y-85090000D03*
D30*
X107950000Y-81280000D03*
D31*
X115570000Y-81280000D03*
D30*
X107950000Y-77470000D03*
D31*
X115570000Y-77470000D03*
D30*
X107950000Y-73660000D03*
D31*
X115570000Y-73660000D03*
D30*
X158623000Y-69596000D03*
D31*
X151003000Y-69596000D03*
D12*
X76200000Y-70960000D03*
X76200000Y-68460000D03*
X76200000Y-65960000D03*
X76200000Y-63460000D03*
G36*
G01*
X75439706Y-60060000D02*
X76960294Y-60060000D01*
G75*
G02*
X77225000Y-60324706I0J-264706D01*
G01*
X77225000Y-61595294D01*
G75*
G02*
X76960294Y-61860000I-264706J0D01*
G01*
X75439706Y-61860000D01*
G75*
G02*
X75175000Y-61595294I0J264706D01*
G01*
X75175000Y-60324706D01*
G75*
G02*
X75439706Y-60060000I264706J0D01*
G01*
G37*
D15*
X148463000Y-84836000D03*
D14*
X145923000Y-84836000D03*
D15*
X148463000Y-79756000D03*
D14*
X145923000Y-79756000D03*
D15*
X148463000Y-74676000D03*
D14*
X145923000Y-74676000D03*
D15*
X148463000Y-69596000D03*
D14*
X145923000Y-69596000D03*
D22*
X135716000Y-53340000D03*
D23*
X140716000Y-53340000D03*
D22*
X101600000Y-53340000D03*
D23*
X106600000Y-53340000D03*
D12*
X130810000Y-75050000D03*
X130810000Y-77550000D03*
X130810000Y-80050000D03*
G36*
G01*
X131570294Y-83450000D02*
X130049706Y-83450000D01*
G75*
G02*
X129785000Y-83185294I0J264706D01*
G01*
X129785000Y-81914706D01*
G75*
G02*
X130049706Y-81650000I264706J0D01*
G01*
X131570294Y-81650000D01*
G75*
G02*
X131835000Y-81914706I0J-264706D01*
G01*
X131835000Y-83185294D01*
G75*
G02*
X131570294Y-83450000I-264706J0D01*
G01*
G37*
D32*
X54610000Y-73660000D03*
G36*
G01*
X55395294Y-77060000D02*
X53824706Y-77060000D01*
G75*
G02*
X53560000Y-76795294I0J264706D01*
G01*
X53560000Y-75524706D01*
G75*
G02*
X53824706Y-75260000I264706J0D01*
G01*
X55395294Y-75260000D01*
G75*
G02*
X55660000Y-75524706I0J-264706D01*
G01*
X55660000Y-76795294D01*
G75*
G02*
X55395294Y-77060000I-264706J0D01*
G01*
G37*
D20*
X163322000Y-53848000D03*
D21*
X163322000Y-33528000D03*
D20*
X113665000Y-42545000D03*
D21*
X113665000Y-22225000D03*
D20*
X157734000Y-33528000D03*
D21*
X157734000Y-53848000D03*
D20*
X119634000Y-22225000D03*
D21*
X119634000Y-42545000D03*
D20*
X146558000Y-53848000D03*
D21*
X146558000Y-33528000D03*
D20*
X152146000Y-53848000D03*
D21*
X152146000Y-33528000D03*
D33*
X46830000Y-59770000D03*
X46830000Y-69770000D03*
X26830000Y-74770000D03*
D34*
X26830000Y-54770000D03*
D17*
X154800000Y-61100000D03*
X54800000Y-82900000D03*
X55900000Y-63100000D03*
X103632000Y-21336000D03*
X138684000Y-17272000D03*
D22*
X41275000Y-38735000D03*
X41275000Y-33655000D03*
D18*
X52705000Y-52070000D03*
X52705000Y-36830000D03*
X60325000Y-34290000D03*
X60325000Y-41910000D03*
D19*
X60325000Y-52070000D03*
D18*
X64770000Y-52070000D03*
X64770000Y-36830000D03*
X72390000Y-34290000D03*
X72390000Y-41910000D03*
D19*
X72390000Y-52070000D03*
D18*
X88265000Y-52070000D03*
X88265000Y-36830000D03*
X95885000Y-34290000D03*
X95885000Y-41910000D03*
D19*
X95885000Y-52070000D03*
D16*
X146812000Y-19240000D03*
X146812000Y-27940000D03*
X151892000Y-19240000D03*
X151892000Y-27940000D03*
X156972000Y-19240000D03*
X156972000Y-27940000D03*
X162052000Y-19240000D03*
X162052000Y-27940000D03*
X77470000Y-19240000D03*
X77470000Y-27940000D03*
X82550000Y-19240000D03*
X82550000Y-27940000D03*
X87630000Y-19240000D03*
X87630000Y-27940000D03*
X92710000Y-19240000D03*
X92710000Y-27940000D03*
M02*
