G04 #@! TF.GenerationSoftware,KiCad,Pcbnew,(5.1.6)-1*
G04 #@! TF.CreationDate,2021-09-20T23:30:47+02:00*
G04 #@! TF.ProjectId,hamodule,68616d6f-6475-46c6-952e-6b696361645f,rev?*
G04 #@! TF.SameCoordinates,Original*
G04 #@! TF.FileFunction,Soldermask,Bot*
G04 #@! TF.FilePolarity,Negative*
%FSLAX46Y46*%
G04 Gerber Fmt 4.6, Leading zero omitted, Abs format (unit mm)*
G04 Created by KiCad (PCBNEW (5.1.6)-1) date 2021-09-20 23:30:47*
%MOMM*%
%LPD*%
G01*
G04 APERTURE LIST*
%ADD10C,5.600000*%
%ADD11C,1.700000*%
%ADD12R,1.700000X1.700000*%
%ADD13O,1.900000X1.900000*%
%ADD14R,1.900000X1.900000*%
%ADD15C,1.900000*%
%ADD16C,2.200000*%
%ADD17R,2.400000X2.400000*%
%ADD18C,2.400000*%
%ADD19O,2.500000X2.500000*%
%ADD20C,2.500000*%
%ADD21C,2.100000*%
%ADD22R,2.100000X2.100000*%
%ADD23R,2.500000X1.700000*%
%ADD24O,2.500000X1.700000*%
%ADD25O,2.050000X1.800000*%
%ADD26R,1.700000X2.500000*%
%ADD27O,1.700000X2.500000*%
%ADD28O,2.100000X2.005000*%
%ADD29R,2.100000X2.005000*%
%ADD30O,1.700000X1.700000*%
%ADD31O,2.100000X1.800000*%
%ADD32R,1.750000X1.750000*%
%ADD33C,1.750000*%
G04 APERTURE END LIST*
D10*
X109976920Y-47078900D03*
D11*
X60960000Y-82510000D03*
D12*
X60960000Y-80010000D03*
D11*
X55880000Y-69850000D03*
D12*
X55880000Y-72350000D03*
D13*
X87376000Y-83820000D03*
D14*
X79756000Y-83820000D03*
D13*
X87376000Y-80264000D03*
D14*
X79756000Y-80264000D03*
D13*
X87376000Y-76708000D03*
D14*
X79756000Y-76708000D03*
D13*
X87376000Y-73152000D03*
D14*
X79756000Y-73152000D03*
D13*
X82514000Y-59770000D03*
D14*
X74894000Y-59770000D03*
D13*
X82514000Y-63020000D03*
D14*
X74894000Y-63020000D03*
D13*
X82514000Y-66270000D03*
D14*
X74894000Y-66270000D03*
D13*
X82514000Y-69520000D03*
D14*
X74894000Y-69520000D03*
D15*
X36510000Y-38730000D03*
X29010000Y-37096670D03*
D16*
X44450000Y-27940000D03*
X44450000Y-19240000D03*
X39370000Y-27940000D03*
X39370000Y-19240000D03*
X34290000Y-27940000D03*
X34290000Y-19240000D03*
X29210000Y-27940000D03*
X29210000Y-19240000D03*
D10*
X52070000Y-21590000D03*
D17*
X84328000Y-52070000D03*
D18*
X84328000Y-41910000D03*
X84328000Y-34290000D03*
X76708000Y-36830000D03*
X76708000Y-52070000D03*
D19*
X132080000Y-42545000D03*
D20*
X132080000Y-22225000D03*
D19*
X125730000Y-42545000D03*
D20*
X125730000Y-22225000D03*
D21*
X113110000Y-53340000D03*
D22*
X118110000Y-53340000D03*
D21*
X124540000Y-53340000D03*
D22*
X129540000Y-53340000D03*
D23*
X69850000Y-76200000D03*
D24*
X62230000Y-58420000D03*
X69850000Y-73660000D03*
X62230000Y-60960000D03*
X69850000Y-71120000D03*
X62230000Y-63500000D03*
X69850000Y-68580000D03*
X62230000Y-66040000D03*
X69850000Y-66040000D03*
X62230000Y-68580000D03*
X69850000Y-63500000D03*
X62230000Y-71120000D03*
X69850000Y-60960000D03*
X62230000Y-73660000D03*
X69850000Y-58420000D03*
X62230000Y-76200000D03*
D25*
X94996000Y-65412000D03*
X94996000Y-62912000D03*
X94996000Y-60412000D03*
G36*
G01*
X94235706Y-57012000D02*
X95756294Y-57012000D01*
G75*
G02*
X96021000Y-57276706I0J-264706D01*
G01*
X96021000Y-58547294D01*
G75*
G02*
X95756294Y-58812000I-264706J0D01*
G01*
X94235706Y-58812000D01*
G75*
G02*
X93971000Y-58547294I0J264706D01*
G01*
X93971000Y-57276706D01*
G75*
G02*
X94235706Y-57012000I264706J0D01*
G01*
G37*
X110236000Y-73740000D03*
X110236000Y-76240000D03*
X110236000Y-78740000D03*
X110236000Y-81240000D03*
G36*
G01*
X110996294Y-84640000D02*
X109475706Y-84640000D01*
G75*
G02*
X109211000Y-84375294I0J264706D01*
G01*
X109211000Y-83104706D01*
G75*
G02*
X109475706Y-82840000I264706J0D01*
G01*
X110996294Y-82840000D01*
G75*
G02*
X111261000Y-83104706I0J-264706D01*
G01*
X111261000Y-84375294D01*
G75*
G02*
X110996294Y-84640000I-264706J0D01*
G01*
G37*
D26*
X119380000Y-60960000D03*
D27*
X111760000Y-68580000D03*
X116840000Y-60960000D03*
X114300000Y-68580000D03*
X114300000Y-60960000D03*
X116840000Y-68580000D03*
X111760000Y-60960000D03*
X119380000Y-68580000D03*
D26*
X142494000Y-60960000D03*
D27*
X134874000Y-68580000D03*
X139954000Y-60960000D03*
X137414000Y-68580000D03*
X137414000Y-60960000D03*
X139954000Y-68580000D03*
X134874000Y-60960000D03*
X142494000Y-68580000D03*
D26*
X131064000Y-60960000D03*
D27*
X123444000Y-68580000D03*
X128524000Y-60960000D03*
X125984000Y-68580000D03*
X125984000Y-60960000D03*
X128524000Y-68580000D03*
X123444000Y-60960000D03*
X131064000Y-68580000D03*
D26*
X107950000Y-60960000D03*
D27*
X100330000Y-68580000D03*
X105410000Y-60960000D03*
X102870000Y-68580000D03*
X102870000Y-60960000D03*
X105410000Y-68580000D03*
X100330000Y-60960000D03*
X107950000Y-68580000D03*
D28*
X55880000Y-77470000D03*
X55880000Y-80010000D03*
D29*
X55880000Y-82550000D03*
D30*
X158623000Y-84836000D03*
D11*
X151003000Y-84836000D03*
D30*
X158623000Y-79756000D03*
D11*
X151003000Y-79756000D03*
D30*
X158623000Y-74676000D03*
D11*
X151003000Y-74676000D03*
D30*
X116586000Y-85090000D03*
D11*
X124206000Y-85090000D03*
D30*
X116586000Y-81280000D03*
D11*
X124206000Y-81280000D03*
D30*
X116586000Y-77470000D03*
D11*
X124206000Y-77470000D03*
D30*
X116586000Y-73660000D03*
D11*
X124206000Y-73660000D03*
D30*
X158623000Y-69596000D03*
D11*
X151003000Y-69596000D03*
D25*
X96520000Y-83660000D03*
X96520000Y-81160000D03*
X96520000Y-78660000D03*
X96520000Y-76160000D03*
G36*
G01*
X95759706Y-72760000D02*
X97280294Y-72760000D01*
G75*
G02*
X97545000Y-73024706I0J-264706D01*
G01*
X97545000Y-74295294D01*
G75*
G02*
X97280294Y-74560000I-264706J0D01*
G01*
X95759706Y-74560000D01*
G75*
G02*
X95495000Y-74295294I0J264706D01*
G01*
X95495000Y-73024706D01*
G75*
G02*
X95759706Y-72760000I264706J0D01*
G01*
G37*
D15*
X148463000Y-84836000D03*
D14*
X145923000Y-84836000D03*
D15*
X148463000Y-79756000D03*
D14*
X145923000Y-79756000D03*
D15*
X148463000Y-74676000D03*
D14*
X145923000Y-74676000D03*
D15*
X148463000Y-69596000D03*
D14*
X145923000Y-69596000D03*
D21*
X135716000Y-53340000D03*
D22*
X140716000Y-53340000D03*
D21*
X101600000Y-53340000D03*
D22*
X106600000Y-53340000D03*
D25*
X130810000Y-75050000D03*
X130810000Y-77550000D03*
X130810000Y-80050000D03*
G36*
G01*
X131570294Y-83450000D02*
X130049706Y-83450000D01*
G75*
G02*
X129785000Y-83185294I0J264706D01*
G01*
X129785000Y-81914706D01*
G75*
G02*
X130049706Y-81650000I264706J0D01*
G01*
X131570294Y-81650000D01*
G75*
G02*
X131835000Y-81914706I0J-264706D01*
G01*
X131835000Y-83185294D01*
G75*
G02*
X131570294Y-83450000I-264706J0D01*
G01*
G37*
D31*
X54610000Y-60960000D03*
G36*
G01*
X55395294Y-64360000D02*
X53824706Y-64360000D01*
G75*
G02*
X53560000Y-64095294I0J264706D01*
G01*
X53560000Y-62824706D01*
G75*
G02*
X53824706Y-62560000I264706J0D01*
G01*
X55395294Y-62560000D01*
G75*
G02*
X55660000Y-62824706I0J-264706D01*
G01*
X55660000Y-64095294D01*
G75*
G02*
X55395294Y-64360000I-264706J0D01*
G01*
G37*
D19*
X163322000Y-53848000D03*
D20*
X163322000Y-33528000D03*
D19*
X113665000Y-42545000D03*
D20*
X113665000Y-22225000D03*
D19*
X157734000Y-33528000D03*
D20*
X157734000Y-53848000D03*
D19*
X119634000Y-22225000D03*
D20*
X119634000Y-42545000D03*
D19*
X146558000Y-53848000D03*
D20*
X146558000Y-33528000D03*
D19*
X152146000Y-53848000D03*
D20*
X152146000Y-33528000D03*
D32*
X26670000Y-47625000D03*
D33*
X26670000Y-67625000D03*
X46670000Y-62625000D03*
X46670000Y-52625000D03*
D10*
X149720300Y-62489080D03*
X27305000Y-78740000D03*
X102870000Y-77470000D03*
X103632000Y-21336000D03*
X138684000Y-17272000D03*
D21*
X44450000Y-38735000D03*
X44450000Y-33655000D03*
D17*
X60325000Y-52070000D03*
D18*
X60325000Y-41910000D03*
X60325000Y-34290000D03*
X52705000Y-36830000D03*
X52705000Y-52070000D03*
D17*
X72390000Y-52070000D03*
D18*
X72390000Y-41910000D03*
X72390000Y-34290000D03*
X64770000Y-36830000D03*
X64770000Y-52070000D03*
D17*
X95885000Y-52070000D03*
D18*
X95885000Y-41910000D03*
X95885000Y-34290000D03*
X88265000Y-36830000D03*
X88265000Y-52070000D03*
D16*
X146812000Y-19240000D03*
X146812000Y-27940000D03*
X151892000Y-19240000D03*
X151892000Y-27940000D03*
X156972000Y-19240000D03*
X156972000Y-27940000D03*
X162052000Y-19240000D03*
X162052000Y-27940000D03*
X77470000Y-19240000D03*
X77470000Y-27940000D03*
X82550000Y-19240000D03*
X82550000Y-27940000D03*
X87630000Y-19240000D03*
X87630000Y-27940000D03*
X92710000Y-19240000D03*
X92710000Y-27940000D03*
M02*
