G04 #@! TF.GenerationSoftware,KiCad,Pcbnew,(5.1.6)-1*
G04 #@! TF.CreationDate,2021-09-20T00:00:24+02:00*
G04 #@! TF.ProjectId,hamodule,68616d6f-6475-46c6-952e-6b696361645f,rev?*
G04 #@! TF.SameCoordinates,Original*
G04 #@! TF.FileFunction,Legend,Top*
G04 #@! TF.FilePolarity,Positive*
%FSLAX46Y46*%
G04 Gerber Fmt 4.6, Leading zero omitted, Abs format (unit mm)*
G04 Created by KiCad (PCBNEW (5.1.6)-1) date 2021-09-20 00:00:24*
%MOMM*%
%LPD*%
G01*
G04 APERTURE LIST*
%ADD10C,0.150000*%
%ADD11C,0.127000*%
%ADD12C,0.120000*%
%ADD13C,0.100000*%
%ADD14C,0.400000*%
%ADD15C,0.254000*%
G04 APERTURE END LIST*
D10*
X80695238Y-82752380D02*
X80219047Y-82752380D01*
X80219047Y-81752380D01*
X81028571Y-82752380D02*
X81028571Y-81752380D01*
X81266666Y-81752380D01*
X81409523Y-81800000D01*
X81504761Y-81895238D01*
X81552380Y-81990476D01*
X81600000Y-82180952D01*
X81600000Y-82323809D01*
X81552380Y-82514285D01*
X81504761Y-82609523D01*
X81409523Y-82704761D01*
X81266666Y-82752380D01*
X81028571Y-82752380D01*
X82552380Y-82752380D02*
X81980952Y-82752380D01*
X82266666Y-82752380D02*
X82266666Y-81752380D01*
X82171428Y-81895238D01*
X82076190Y-81990476D01*
X81980952Y-82038095D01*
X83504761Y-82752380D02*
X82933333Y-82752380D01*
X83219047Y-82752380D02*
X83219047Y-81752380D01*
X83123809Y-81895238D01*
X83028571Y-81990476D01*
X82933333Y-82038095D01*
X84457142Y-82752380D02*
X83885714Y-82752380D01*
X84171428Y-82752380D02*
X84171428Y-81752380D01*
X84076190Y-81895238D01*
X83980952Y-81990476D01*
X83885714Y-82038095D01*
X84790476Y-81752380D02*
X85457142Y-81752380D01*
X85028571Y-82752380D01*
X85790476Y-82466666D02*
X86266666Y-82466666D01*
X85695238Y-82752380D02*
X86028571Y-81752380D01*
X86361904Y-82752380D01*
X86552380Y-81752380D02*
X86885714Y-82752380D01*
X87219047Y-81752380D01*
X87457142Y-81752380D02*
X88076190Y-81752380D01*
X87742857Y-82133333D01*
X87885714Y-82133333D01*
X87980952Y-82180952D01*
X88028571Y-82228571D01*
X88076190Y-82323809D01*
X88076190Y-82561904D01*
X88028571Y-82657142D01*
X87980952Y-82704761D01*
X87885714Y-82752380D01*
X87600000Y-82752380D01*
X87504761Y-82704761D01*
X87457142Y-82657142D01*
X88409523Y-81752380D02*
X89028571Y-81752380D01*
X88695238Y-82133333D01*
X88838095Y-82133333D01*
X88933333Y-82180952D01*
X88980952Y-82228571D01*
X89028571Y-82323809D01*
X89028571Y-82561904D01*
X88980952Y-82657142D01*
X88933333Y-82704761D01*
X88838095Y-82752380D01*
X88552380Y-82752380D01*
X88457142Y-82704761D01*
X88409523Y-82657142D01*
X62952380Y-78252380D02*
X62952380Y-79061904D01*
X63000000Y-79157142D01*
X63047619Y-79204761D01*
X63142857Y-79252380D01*
X63333333Y-79252380D01*
X63428571Y-79204761D01*
X63476190Y-79157142D01*
X63523809Y-79061904D01*
X63523809Y-78252380D01*
X64476190Y-79252380D02*
X64000000Y-79252380D01*
X64000000Y-78252380D01*
X64809523Y-79252380D02*
X64809523Y-78252380D01*
X65380952Y-79252380D01*
X65380952Y-78252380D01*
X65809523Y-78347619D02*
X65857142Y-78300000D01*
X65952380Y-78252380D01*
X66190476Y-78252380D01*
X66285714Y-78300000D01*
X66333333Y-78347619D01*
X66380952Y-78442857D01*
X66380952Y-78538095D01*
X66333333Y-78680952D01*
X65761904Y-79252380D01*
X66380952Y-79252380D01*
X67000000Y-78252380D02*
X67095238Y-78252380D01*
X67190476Y-78300000D01*
X67238095Y-78347619D01*
X67285714Y-78442857D01*
X67333333Y-78633333D01*
X67333333Y-78871428D01*
X67285714Y-79061904D01*
X67238095Y-79157142D01*
X67190476Y-79204761D01*
X67095238Y-79252380D01*
X67000000Y-79252380D01*
X66904761Y-79204761D01*
X66857142Y-79157142D01*
X66809523Y-79061904D01*
X66761904Y-78871428D01*
X66761904Y-78633333D01*
X66809523Y-78442857D01*
X66857142Y-78347619D01*
X66904761Y-78300000D01*
X67000000Y-78252380D01*
X67952380Y-78252380D02*
X68047619Y-78252380D01*
X68142857Y-78300000D01*
X68190476Y-78347619D01*
X68238095Y-78442857D01*
X68285714Y-78633333D01*
X68285714Y-78871428D01*
X68238095Y-79061904D01*
X68190476Y-79157142D01*
X68142857Y-79204761D01*
X68047619Y-79252380D01*
X67952380Y-79252380D01*
X67857142Y-79204761D01*
X67809523Y-79157142D01*
X67761904Y-79061904D01*
X67714285Y-78871428D01*
X67714285Y-78633333D01*
X67761904Y-78442857D01*
X67809523Y-78347619D01*
X67857142Y-78300000D01*
X67952380Y-78252380D01*
X68619047Y-78252380D02*
X69238095Y-78252380D01*
X68904761Y-78633333D01*
X69047619Y-78633333D01*
X69142857Y-78680952D01*
X69190476Y-78728571D01*
X69238095Y-78823809D01*
X69238095Y-79061904D01*
X69190476Y-79157142D01*
X69142857Y-79204761D01*
X69047619Y-79252380D01*
X68761904Y-79252380D01*
X68666666Y-79204761D01*
X68619047Y-79157142D01*
X69619047Y-78966666D02*
X70095238Y-78966666D01*
X69523809Y-79252380D02*
X69857142Y-78252380D01*
X70190476Y-79252380D01*
X142552380Y-47800000D02*
X142552380Y-47180952D01*
X142933333Y-47514285D01*
X142933333Y-47371428D01*
X142980952Y-47276190D01*
X143028571Y-47228571D01*
X143123809Y-47180952D01*
X143361904Y-47180952D01*
X143457142Y-47228571D01*
X143504761Y-47276190D01*
X143552380Y-47371428D01*
X143552380Y-47657142D01*
X143504761Y-47752380D01*
X143457142Y-47800000D01*
X143552380Y-46704761D02*
X143552380Y-46514285D01*
X143504761Y-46419047D01*
X143457142Y-46371428D01*
X143314285Y-46276190D01*
X143123809Y-46228571D01*
X142742857Y-46228571D01*
X142647619Y-46276190D01*
X142600000Y-46323809D01*
X142552380Y-46419047D01*
X142552380Y-46609523D01*
X142600000Y-46704761D01*
X142647619Y-46752380D01*
X142742857Y-46800000D01*
X142980952Y-46800000D01*
X143076190Y-46752380D01*
X143123809Y-46704761D01*
X143171428Y-46609523D01*
X143171428Y-46419047D01*
X143123809Y-46323809D01*
X143076190Y-46276190D01*
X142980952Y-46228571D01*
X143552380Y-45800000D02*
X142552380Y-45800000D01*
X143171428Y-45704761D02*
X143552380Y-45419047D01*
X142885714Y-45419047D02*
X143266666Y-45800000D01*
X143552380Y-45038095D02*
X143552380Y-44800000D01*
X143361904Y-44800000D01*
X143314285Y-44895238D01*
X143219047Y-44990476D01*
X143076190Y-45038095D01*
X142838095Y-45038095D01*
X142695238Y-44990476D01*
X142600000Y-44895238D01*
X142552380Y-44752380D01*
X142552380Y-44561904D01*
X142600000Y-44419047D01*
X142695238Y-44323809D01*
X142838095Y-44276190D01*
X143076190Y-44276190D01*
X143219047Y-44323809D01*
X143314285Y-44419047D01*
X143361904Y-44514285D01*
X143552380Y-44514285D01*
X143552380Y-44276190D01*
X142552380Y-38609523D02*
X142552380Y-37990476D01*
X142933333Y-38323809D01*
X142933333Y-38180952D01*
X142980952Y-38085714D01*
X143028571Y-38038095D01*
X143123809Y-37990476D01*
X143361904Y-37990476D01*
X143457142Y-38038095D01*
X143504761Y-38085714D01*
X143552380Y-38180952D01*
X143552380Y-38466666D01*
X143504761Y-38561904D01*
X143457142Y-38609523D01*
X142552380Y-37657142D02*
X143552380Y-37419047D01*
X142838095Y-37228571D01*
X143552380Y-37038095D01*
X142552380Y-36800000D01*
X109352380Y-38700000D02*
X109352380Y-38080952D01*
X109733333Y-38414285D01*
X109733333Y-38271428D01*
X109780952Y-38176190D01*
X109828571Y-38128571D01*
X109923809Y-38080952D01*
X110161904Y-38080952D01*
X110257142Y-38128571D01*
X110304761Y-38176190D01*
X110352380Y-38271428D01*
X110352380Y-38557142D01*
X110304761Y-38652380D01*
X110257142Y-38700000D01*
X110352380Y-37604761D02*
X110352380Y-37414285D01*
X110304761Y-37319047D01*
X110257142Y-37271428D01*
X110114285Y-37176190D01*
X109923809Y-37128571D01*
X109542857Y-37128571D01*
X109447619Y-37176190D01*
X109400000Y-37223809D01*
X109352380Y-37319047D01*
X109352380Y-37509523D01*
X109400000Y-37604761D01*
X109447619Y-37652380D01*
X109542857Y-37700000D01*
X109780952Y-37700000D01*
X109876190Y-37652380D01*
X109923809Y-37604761D01*
X109971428Y-37509523D01*
X109971428Y-37319047D01*
X109923809Y-37223809D01*
X109876190Y-37176190D01*
X109780952Y-37128571D01*
X110352380Y-36700000D02*
X109352380Y-36700000D01*
X109971428Y-36604761D02*
X110352380Y-36319047D01*
X109685714Y-36319047D02*
X110066666Y-36700000D01*
X110352380Y-35938095D02*
X110352380Y-35700000D01*
X110161904Y-35700000D01*
X110114285Y-35795238D01*
X110019047Y-35890476D01*
X109876190Y-35938095D01*
X109638095Y-35938095D01*
X109495238Y-35890476D01*
X109400000Y-35795238D01*
X109352380Y-35652380D01*
X109352380Y-35461904D01*
X109400000Y-35319047D01*
X109495238Y-35223809D01*
X109638095Y-35176190D01*
X109876190Y-35176190D01*
X110019047Y-35223809D01*
X110114285Y-35319047D01*
X110161904Y-35414285D01*
X110352380Y-35414285D01*
X110352380Y-35176190D01*
X109352380Y-29509523D02*
X109352380Y-28890476D01*
X109733333Y-29223809D01*
X109733333Y-29080952D01*
X109780952Y-28985714D01*
X109828571Y-28938095D01*
X109923809Y-28890476D01*
X110161904Y-28890476D01*
X110257142Y-28938095D01*
X110304761Y-28985714D01*
X110352380Y-29080952D01*
X110352380Y-29366666D01*
X110304761Y-29461904D01*
X110257142Y-29509523D01*
X109352380Y-28557142D02*
X110352380Y-28319047D01*
X109638095Y-28128571D01*
X110352380Y-27938095D01*
X109352380Y-27700000D01*
X134704761Y-65452380D02*
X134704761Y-64452380D01*
X134704761Y-64928571D02*
X135276190Y-64928571D01*
X135276190Y-65452380D02*
X135276190Y-64452380D01*
X136323809Y-65357142D02*
X136276190Y-65404761D01*
X136133333Y-65452380D01*
X136038095Y-65452380D01*
X135895238Y-65404761D01*
X135800000Y-65309523D01*
X135752380Y-65214285D01*
X135704761Y-65023809D01*
X135704761Y-64880952D01*
X135752380Y-64690476D01*
X135800000Y-64595238D01*
X135895238Y-64500000D01*
X136038095Y-64452380D01*
X136133333Y-64452380D01*
X136276190Y-64500000D01*
X136323809Y-64547619D01*
X136752380Y-65452380D02*
X136752380Y-64452380D01*
X137133333Y-64452380D01*
X137228571Y-64500000D01*
X137276190Y-64547619D01*
X137323809Y-64642857D01*
X137323809Y-64785714D01*
X137276190Y-64880952D01*
X137228571Y-64928571D01*
X137133333Y-64976190D01*
X136752380Y-64976190D01*
X138228571Y-65452380D02*
X137752380Y-65452380D01*
X137752380Y-64452380D01*
X138466666Y-64452380D02*
X139085714Y-64452380D01*
X138752380Y-64833333D01*
X138895238Y-64833333D01*
X138990476Y-64880952D01*
X139038095Y-64928571D01*
X139085714Y-65023809D01*
X139085714Y-65261904D01*
X139038095Y-65357142D01*
X138990476Y-65404761D01*
X138895238Y-65452380D01*
X138609523Y-65452380D01*
X138514285Y-65404761D01*
X138466666Y-65357142D01*
X139419047Y-64452380D02*
X140085714Y-64452380D01*
X139657142Y-65452380D01*
X140657142Y-64452380D02*
X140752380Y-64452380D01*
X140847619Y-64500000D01*
X140895238Y-64547619D01*
X140942857Y-64642857D01*
X140990476Y-64833333D01*
X140990476Y-65071428D01*
X140942857Y-65261904D01*
X140895238Y-65357142D01*
X140847619Y-65404761D01*
X140752380Y-65452380D01*
X140657142Y-65452380D01*
X140561904Y-65404761D01*
X140514285Y-65357142D01*
X140466666Y-65261904D01*
X140419047Y-65071428D01*
X140419047Y-64833333D01*
X140466666Y-64642857D01*
X140514285Y-64547619D01*
X140561904Y-64500000D01*
X140657142Y-64452380D01*
X141609523Y-64452380D02*
X141704761Y-64452380D01*
X141800000Y-64500000D01*
X141847619Y-64547619D01*
X141895238Y-64642857D01*
X141942857Y-64833333D01*
X141942857Y-65071428D01*
X141895238Y-65261904D01*
X141847619Y-65357142D01*
X141800000Y-65404761D01*
X141704761Y-65452380D01*
X141609523Y-65452380D01*
X141514285Y-65404761D01*
X141466666Y-65357142D01*
X141419047Y-65261904D01*
X141371428Y-65071428D01*
X141371428Y-64833333D01*
X141419047Y-64642857D01*
X141466666Y-64547619D01*
X141514285Y-64500000D01*
X141609523Y-64452380D01*
X123304761Y-65352380D02*
X123304761Y-64352380D01*
X123304761Y-64828571D02*
X123876190Y-64828571D01*
X123876190Y-65352380D02*
X123876190Y-64352380D01*
X124923809Y-65257142D02*
X124876190Y-65304761D01*
X124733333Y-65352380D01*
X124638095Y-65352380D01*
X124495238Y-65304761D01*
X124400000Y-65209523D01*
X124352380Y-65114285D01*
X124304761Y-64923809D01*
X124304761Y-64780952D01*
X124352380Y-64590476D01*
X124400000Y-64495238D01*
X124495238Y-64400000D01*
X124638095Y-64352380D01*
X124733333Y-64352380D01*
X124876190Y-64400000D01*
X124923809Y-64447619D01*
X125352380Y-65352380D02*
X125352380Y-64352380D01*
X125733333Y-64352380D01*
X125828571Y-64400000D01*
X125876190Y-64447619D01*
X125923809Y-64542857D01*
X125923809Y-64685714D01*
X125876190Y-64780952D01*
X125828571Y-64828571D01*
X125733333Y-64876190D01*
X125352380Y-64876190D01*
X126828571Y-65352380D02*
X126352380Y-65352380D01*
X126352380Y-64352380D01*
X127066666Y-64352380D02*
X127685714Y-64352380D01*
X127352380Y-64733333D01*
X127495238Y-64733333D01*
X127590476Y-64780952D01*
X127638095Y-64828571D01*
X127685714Y-64923809D01*
X127685714Y-65161904D01*
X127638095Y-65257142D01*
X127590476Y-65304761D01*
X127495238Y-65352380D01*
X127209523Y-65352380D01*
X127114285Y-65304761D01*
X127066666Y-65257142D01*
X128019047Y-64352380D02*
X128685714Y-64352380D01*
X128257142Y-65352380D01*
X129257142Y-64352380D02*
X129352380Y-64352380D01*
X129447619Y-64400000D01*
X129495238Y-64447619D01*
X129542857Y-64542857D01*
X129590476Y-64733333D01*
X129590476Y-64971428D01*
X129542857Y-65161904D01*
X129495238Y-65257142D01*
X129447619Y-65304761D01*
X129352380Y-65352380D01*
X129257142Y-65352380D01*
X129161904Y-65304761D01*
X129114285Y-65257142D01*
X129066666Y-65161904D01*
X129019047Y-64971428D01*
X129019047Y-64733333D01*
X129066666Y-64542857D01*
X129114285Y-64447619D01*
X129161904Y-64400000D01*
X129257142Y-64352380D01*
X130209523Y-64352380D02*
X130304761Y-64352380D01*
X130400000Y-64400000D01*
X130447619Y-64447619D01*
X130495238Y-64542857D01*
X130542857Y-64733333D01*
X130542857Y-64971428D01*
X130495238Y-65161904D01*
X130447619Y-65257142D01*
X130400000Y-65304761D01*
X130304761Y-65352380D01*
X130209523Y-65352380D01*
X130114285Y-65304761D01*
X130066666Y-65257142D01*
X130019047Y-65161904D01*
X129971428Y-64971428D01*
X129971428Y-64733333D01*
X130019047Y-64542857D01*
X130066666Y-64447619D01*
X130114285Y-64400000D01*
X130209523Y-64352380D01*
X111704761Y-65352380D02*
X111704761Y-64352380D01*
X111704761Y-64828571D02*
X112276190Y-64828571D01*
X112276190Y-65352380D02*
X112276190Y-64352380D01*
X113323809Y-65257142D02*
X113276190Y-65304761D01*
X113133333Y-65352380D01*
X113038095Y-65352380D01*
X112895238Y-65304761D01*
X112800000Y-65209523D01*
X112752380Y-65114285D01*
X112704761Y-64923809D01*
X112704761Y-64780952D01*
X112752380Y-64590476D01*
X112800000Y-64495238D01*
X112895238Y-64400000D01*
X113038095Y-64352380D01*
X113133333Y-64352380D01*
X113276190Y-64400000D01*
X113323809Y-64447619D01*
X113752380Y-65352380D02*
X113752380Y-64352380D01*
X114133333Y-64352380D01*
X114228571Y-64400000D01*
X114276190Y-64447619D01*
X114323809Y-64542857D01*
X114323809Y-64685714D01*
X114276190Y-64780952D01*
X114228571Y-64828571D01*
X114133333Y-64876190D01*
X113752380Y-64876190D01*
X115228571Y-65352380D02*
X114752380Y-65352380D01*
X114752380Y-64352380D01*
X115466666Y-64352380D02*
X116085714Y-64352380D01*
X115752380Y-64733333D01*
X115895238Y-64733333D01*
X115990476Y-64780952D01*
X116038095Y-64828571D01*
X116085714Y-64923809D01*
X116085714Y-65161904D01*
X116038095Y-65257142D01*
X115990476Y-65304761D01*
X115895238Y-65352380D01*
X115609523Y-65352380D01*
X115514285Y-65304761D01*
X115466666Y-65257142D01*
X116419047Y-64352380D02*
X117085714Y-64352380D01*
X116657142Y-65352380D01*
X117657142Y-64352380D02*
X117752380Y-64352380D01*
X117847619Y-64400000D01*
X117895238Y-64447619D01*
X117942857Y-64542857D01*
X117990476Y-64733333D01*
X117990476Y-64971428D01*
X117942857Y-65161904D01*
X117895238Y-65257142D01*
X117847619Y-65304761D01*
X117752380Y-65352380D01*
X117657142Y-65352380D01*
X117561904Y-65304761D01*
X117514285Y-65257142D01*
X117466666Y-65161904D01*
X117419047Y-64971428D01*
X117419047Y-64733333D01*
X117466666Y-64542857D01*
X117514285Y-64447619D01*
X117561904Y-64400000D01*
X117657142Y-64352380D01*
X118609523Y-64352380D02*
X118704761Y-64352380D01*
X118800000Y-64400000D01*
X118847619Y-64447619D01*
X118895238Y-64542857D01*
X118942857Y-64733333D01*
X118942857Y-64971428D01*
X118895238Y-65161904D01*
X118847619Y-65257142D01*
X118800000Y-65304761D01*
X118704761Y-65352380D01*
X118609523Y-65352380D01*
X118514285Y-65304761D01*
X118466666Y-65257142D01*
X118419047Y-65161904D01*
X118371428Y-64971428D01*
X118371428Y-64733333D01*
X118419047Y-64542857D01*
X118466666Y-64447619D01*
X118514285Y-64400000D01*
X118609523Y-64352380D01*
X100404761Y-65352380D02*
X100404761Y-64352380D01*
X100404761Y-64828571D02*
X100976190Y-64828571D01*
X100976190Y-65352380D02*
X100976190Y-64352380D01*
X102023809Y-65257142D02*
X101976190Y-65304761D01*
X101833333Y-65352380D01*
X101738095Y-65352380D01*
X101595238Y-65304761D01*
X101500000Y-65209523D01*
X101452380Y-65114285D01*
X101404761Y-64923809D01*
X101404761Y-64780952D01*
X101452380Y-64590476D01*
X101500000Y-64495238D01*
X101595238Y-64400000D01*
X101738095Y-64352380D01*
X101833333Y-64352380D01*
X101976190Y-64400000D01*
X102023809Y-64447619D01*
X102452380Y-65352380D02*
X102452380Y-64352380D01*
X102833333Y-64352380D01*
X102928571Y-64400000D01*
X102976190Y-64447619D01*
X103023809Y-64542857D01*
X103023809Y-64685714D01*
X102976190Y-64780952D01*
X102928571Y-64828571D01*
X102833333Y-64876190D01*
X102452380Y-64876190D01*
X103928571Y-65352380D02*
X103452380Y-65352380D01*
X103452380Y-64352380D01*
X104166666Y-64352380D02*
X104785714Y-64352380D01*
X104452380Y-64733333D01*
X104595238Y-64733333D01*
X104690476Y-64780952D01*
X104738095Y-64828571D01*
X104785714Y-64923809D01*
X104785714Y-65161904D01*
X104738095Y-65257142D01*
X104690476Y-65304761D01*
X104595238Y-65352380D01*
X104309523Y-65352380D01*
X104214285Y-65304761D01*
X104166666Y-65257142D01*
X105119047Y-64352380D02*
X105785714Y-64352380D01*
X105357142Y-65352380D01*
X106357142Y-64352380D02*
X106452380Y-64352380D01*
X106547619Y-64400000D01*
X106595238Y-64447619D01*
X106642857Y-64542857D01*
X106690476Y-64733333D01*
X106690476Y-64971428D01*
X106642857Y-65161904D01*
X106595238Y-65257142D01*
X106547619Y-65304761D01*
X106452380Y-65352380D01*
X106357142Y-65352380D01*
X106261904Y-65304761D01*
X106214285Y-65257142D01*
X106166666Y-65161904D01*
X106119047Y-64971428D01*
X106119047Y-64733333D01*
X106166666Y-64542857D01*
X106214285Y-64447619D01*
X106261904Y-64400000D01*
X106357142Y-64352380D01*
X107309523Y-64352380D02*
X107404761Y-64352380D01*
X107500000Y-64400000D01*
X107547619Y-64447619D01*
X107595238Y-64542857D01*
X107642857Y-64733333D01*
X107642857Y-64971428D01*
X107595238Y-65161904D01*
X107547619Y-65257142D01*
X107500000Y-65304761D01*
X107404761Y-65352380D01*
X107309523Y-65352380D01*
X107214285Y-65304761D01*
X107166666Y-65257142D01*
X107119047Y-65161904D01*
X107071428Y-64971428D01*
X107071428Y-64733333D01*
X107119047Y-64542857D01*
X107166666Y-64447619D01*
X107214285Y-64400000D01*
X107309523Y-64352380D01*
X48711785Y-13527380D02*
X48235595Y-13527380D01*
X48235595Y-12527380D01*
X48187976Y-14272619D02*
X48235595Y-14225000D01*
X48330833Y-14177380D01*
X48568928Y-14177380D01*
X48664166Y-14225000D01*
X48711785Y-14272619D01*
X48759404Y-14367857D01*
X48759404Y-14463095D01*
X48711785Y-14605952D01*
X48140357Y-15177380D01*
X48759404Y-15177380D01*
X49140357Y-14272619D02*
X49187976Y-14225000D01*
X49283214Y-14177380D01*
X49521309Y-14177380D01*
X49616547Y-14225000D01*
X49664166Y-14272619D01*
X49711785Y-14367857D01*
X49711785Y-14463095D01*
X49664166Y-14605952D01*
X49092738Y-15177380D01*
X49711785Y-15177380D01*
X50330833Y-14177380D02*
X50426071Y-14177380D01*
X50521309Y-14225000D01*
X50568928Y-14272619D01*
X50616547Y-14367857D01*
X50664166Y-14558333D01*
X50664166Y-14796428D01*
X50616547Y-14986904D01*
X50568928Y-15082142D01*
X50521309Y-15129761D01*
X50426071Y-15177380D01*
X50330833Y-15177380D01*
X50235595Y-15129761D01*
X50187976Y-15082142D01*
X50140357Y-14986904D01*
X50092738Y-14796428D01*
X50092738Y-14558333D01*
X50140357Y-14367857D01*
X50187976Y-14272619D01*
X50235595Y-14225000D01*
X50330833Y-14177380D01*
X50949880Y-14177380D02*
X51283214Y-15177380D01*
X51616547Y-14177380D01*
X25192976Y-13927380D02*
X25192976Y-12927380D01*
X25764404Y-13927380D01*
X25764404Y-12927380D01*
X22478690Y-14672619D02*
X22526309Y-14625000D01*
X22621547Y-14577380D01*
X22859642Y-14577380D01*
X22954880Y-14625000D01*
X23002500Y-14672619D01*
X23050119Y-14767857D01*
X23050119Y-14863095D01*
X23002500Y-15005952D01*
X22431071Y-15577380D01*
X23050119Y-15577380D01*
X23431071Y-14672619D02*
X23478690Y-14625000D01*
X23573928Y-14577380D01*
X23812023Y-14577380D01*
X23907261Y-14625000D01*
X23954880Y-14672619D01*
X24002500Y-14767857D01*
X24002500Y-14863095D01*
X23954880Y-15005952D01*
X23383452Y-15577380D01*
X24002500Y-15577380D01*
X24621547Y-14577380D02*
X24716785Y-14577380D01*
X24812023Y-14625000D01*
X24859642Y-14672619D01*
X24907261Y-14767857D01*
X24954880Y-14958333D01*
X24954880Y-15196428D01*
X24907261Y-15386904D01*
X24859642Y-15482142D01*
X24812023Y-15529761D01*
X24716785Y-15577380D01*
X24621547Y-15577380D01*
X24526309Y-15529761D01*
X24478690Y-15482142D01*
X24431071Y-15386904D01*
X24383452Y-15196428D01*
X24383452Y-14958333D01*
X24431071Y-14767857D01*
X24478690Y-14672619D01*
X24526309Y-14625000D01*
X24621547Y-14577380D01*
X25240595Y-14577380D02*
X25573928Y-15577380D01*
X25907261Y-14577380D01*
X127706380Y-82264285D02*
X127706380Y-82835714D01*
X127706380Y-82550000D02*
X126706380Y-82550000D01*
X126849238Y-82645238D01*
X126944476Y-82740476D01*
X126992095Y-82835714D01*
X127039714Y-74739523D02*
X127706380Y-74739523D01*
X126658761Y-74977619D02*
X127373047Y-75215714D01*
X127373047Y-74596666D01*
X126706380Y-77803333D02*
X126706380Y-77184285D01*
X127087333Y-77517619D01*
X127087333Y-77374761D01*
X127134952Y-77279523D01*
X127182571Y-77231904D01*
X127277809Y-77184285D01*
X127515904Y-77184285D01*
X127611142Y-77231904D01*
X127658761Y-77279523D01*
X127706380Y-77374761D01*
X127706380Y-77660476D01*
X127658761Y-77755714D01*
X127611142Y-77803333D01*
X126801619Y-80295714D02*
X126754000Y-80248095D01*
X126706380Y-80152857D01*
X126706380Y-79914761D01*
X126754000Y-79819523D01*
X126801619Y-79771904D01*
X126896857Y-79724285D01*
X126992095Y-79724285D01*
X127134952Y-79771904D01*
X127706380Y-80343333D01*
X127706380Y-79724285D01*
X135818571Y-85406666D02*
X135818571Y-85073333D01*
X136342380Y-84930476D02*
X136342380Y-85406666D01*
X135342380Y-85406666D01*
X135342380Y-84930476D01*
X136294761Y-84549523D02*
X136342380Y-84406666D01*
X136342380Y-84168571D01*
X136294761Y-84073333D01*
X136247142Y-84025714D01*
X136151904Y-83978095D01*
X136056666Y-83978095D01*
X135961428Y-84025714D01*
X135913809Y-84073333D01*
X135866190Y-84168571D01*
X135818571Y-84359047D01*
X135770952Y-84454285D01*
X135723333Y-84501904D01*
X135628095Y-84549523D01*
X135532857Y-84549523D01*
X135437619Y-84501904D01*
X135390000Y-84454285D01*
X135342380Y-84359047D01*
X135342380Y-84120952D01*
X135390000Y-83978095D01*
X136342380Y-83549523D02*
X135342380Y-83549523D01*
X135342380Y-83168571D01*
X135390000Y-83073333D01*
X135437619Y-83025714D01*
X135532857Y-82978095D01*
X135675714Y-82978095D01*
X135770952Y-83025714D01*
X135818571Y-83073333D01*
X135866190Y-83168571D01*
X135866190Y-83549523D01*
X136294761Y-81835238D02*
X136342380Y-81692380D01*
X136342380Y-81454285D01*
X136294761Y-81359047D01*
X136247142Y-81311428D01*
X136151904Y-81263809D01*
X136056666Y-81263809D01*
X135961428Y-81311428D01*
X135913809Y-81359047D01*
X135866190Y-81454285D01*
X135818571Y-81644761D01*
X135770952Y-81740000D01*
X135723333Y-81787619D01*
X135628095Y-81835238D01*
X135532857Y-81835238D01*
X135437619Y-81787619D01*
X135390000Y-81740000D01*
X135342380Y-81644761D01*
X135342380Y-81406666D01*
X135390000Y-81263809D01*
X136294761Y-80454285D02*
X136342380Y-80549523D01*
X136342380Y-80740000D01*
X136294761Y-80835238D01*
X136199523Y-80882857D01*
X135818571Y-80882857D01*
X135723333Y-80835238D01*
X135675714Y-80740000D01*
X135675714Y-80549523D01*
X135723333Y-80454285D01*
X135818571Y-80406666D01*
X135913809Y-80406666D01*
X136009047Y-80882857D01*
X135675714Y-79978095D02*
X136342380Y-79978095D01*
X135770952Y-79978095D02*
X135723333Y-79930476D01*
X135675714Y-79835238D01*
X135675714Y-79692380D01*
X135723333Y-79597142D01*
X135818571Y-79549523D01*
X136342380Y-79549523D01*
X136294761Y-79120952D02*
X136342380Y-79025714D01*
X136342380Y-78835238D01*
X136294761Y-78740000D01*
X136199523Y-78692380D01*
X136151904Y-78692380D01*
X136056666Y-78740000D01*
X136009047Y-78835238D01*
X136009047Y-78978095D01*
X135961428Y-79073333D01*
X135866190Y-79120952D01*
X135818571Y-79120952D01*
X135723333Y-79073333D01*
X135675714Y-78978095D01*
X135675714Y-78835238D01*
X135723333Y-78740000D01*
X136342380Y-78263809D02*
X135675714Y-78263809D01*
X135342380Y-78263809D02*
X135390000Y-78311428D01*
X135437619Y-78263809D01*
X135390000Y-78216190D01*
X135342380Y-78263809D01*
X135437619Y-78263809D01*
X135675714Y-77787619D02*
X136342380Y-77787619D01*
X135770952Y-77787619D02*
X135723333Y-77740000D01*
X135675714Y-77644761D01*
X135675714Y-77501904D01*
X135723333Y-77406666D01*
X135818571Y-77359047D01*
X136342380Y-77359047D01*
X135675714Y-76454285D02*
X136485238Y-76454285D01*
X136580476Y-76501904D01*
X136628095Y-76549523D01*
X136675714Y-76644761D01*
X136675714Y-76787619D01*
X136628095Y-76882857D01*
X136294761Y-76454285D02*
X136342380Y-76549523D01*
X136342380Y-76740000D01*
X136294761Y-76835238D01*
X136247142Y-76882857D01*
X136151904Y-76930476D01*
X135866190Y-76930476D01*
X135770952Y-76882857D01*
X135723333Y-76835238D01*
X135675714Y-76740000D01*
X135675714Y-76549523D01*
X135723333Y-76454285D01*
X135437619Y-75263809D02*
X135390000Y-75216190D01*
X135342380Y-75120952D01*
X135342380Y-74882857D01*
X135390000Y-74787619D01*
X135437619Y-74740000D01*
X135532857Y-74692380D01*
X135628095Y-74692380D01*
X135770952Y-74740000D01*
X136342380Y-75311428D01*
X136342380Y-74692380D01*
X135437619Y-74311428D02*
X135390000Y-74263809D01*
X135342380Y-74168571D01*
X135342380Y-73930476D01*
X135390000Y-73835238D01*
X135437619Y-73787619D01*
X135532857Y-73740000D01*
X135628095Y-73740000D01*
X135770952Y-73787619D01*
X136342380Y-74359047D01*
X136342380Y-73740000D01*
X135342380Y-73120952D02*
X135342380Y-73025714D01*
X135390000Y-72930476D01*
X135437619Y-72882857D01*
X135532857Y-72835238D01*
X135723333Y-72787619D01*
X135961428Y-72787619D01*
X136151904Y-72835238D01*
X136247142Y-72882857D01*
X136294761Y-72930476D01*
X136342380Y-73025714D01*
X136342380Y-73120952D01*
X136294761Y-73216190D01*
X136247142Y-73263809D01*
X136151904Y-73311428D01*
X135961428Y-73359047D01*
X135723333Y-73359047D01*
X135532857Y-73311428D01*
X135437619Y-73263809D01*
X135390000Y-73216190D01*
X135342380Y-73120952D01*
X135675714Y-72454285D02*
X136342380Y-72216190D01*
X135675714Y-71978095D01*
X153521904Y-85232380D02*
X152950476Y-85232380D01*
X153236190Y-85232380D02*
X153236190Y-84232380D01*
X153140952Y-84375238D01*
X153045714Y-84470476D01*
X152950476Y-84518095D01*
X154140952Y-84232380D02*
X154236190Y-84232380D01*
X154331428Y-84280000D01*
X154379047Y-84327619D01*
X154426666Y-84422857D01*
X154474285Y-84613333D01*
X154474285Y-84851428D01*
X154426666Y-85041904D01*
X154379047Y-85137142D01*
X154331428Y-85184761D01*
X154236190Y-85232380D01*
X154140952Y-85232380D01*
X154045714Y-85184761D01*
X153998095Y-85137142D01*
X153950476Y-85041904D01*
X153902857Y-84851428D01*
X153902857Y-84613333D01*
X153950476Y-84422857D01*
X153998095Y-84327619D01*
X154045714Y-84280000D01*
X154140952Y-84232380D01*
X155093333Y-84232380D02*
X155188571Y-84232380D01*
X155283809Y-84280000D01*
X155331428Y-84327619D01*
X155379047Y-84422857D01*
X155426666Y-84613333D01*
X155426666Y-84851428D01*
X155379047Y-85041904D01*
X155331428Y-85137142D01*
X155283809Y-85184761D01*
X155188571Y-85232380D01*
X155093333Y-85232380D01*
X154998095Y-85184761D01*
X154950476Y-85137142D01*
X154902857Y-85041904D01*
X154855238Y-84851428D01*
X154855238Y-84613333D01*
X154902857Y-84422857D01*
X154950476Y-84327619D01*
X154998095Y-84280000D01*
X155093333Y-84232380D01*
X155807619Y-85232380D02*
X156045714Y-85232380D01*
X156045714Y-85041904D01*
X155950476Y-84994285D01*
X155855238Y-84899047D01*
X155807619Y-84756190D01*
X155807619Y-84518095D01*
X155855238Y-84375238D01*
X155950476Y-84280000D01*
X156093333Y-84232380D01*
X156283809Y-84232380D01*
X156426666Y-84280000D01*
X156521904Y-84375238D01*
X156569523Y-84518095D01*
X156569523Y-84756190D01*
X156521904Y-84899047D01*
X156426666Y-84994285D01*
X156331428Y-85041904D01*
X156331428Y-85232380D01*
X156569523Y-85232380D01*
X153521904Y-80232380D02*
X152950476Y-80232380D01*
X153236190Y-80232380D02*
X153236190Y-79232380D01*
X153140952Y-79375238D01*
X153045714Y-79470476D01*
X152950476Y-79518095D01*
X154140952Y-79232380D02*
X154236190Y-79232380D01*
X154331428Y-79280000D01*
X154379047Y-79327619D01*
X154426666Y-79422857D01*
X154474285Y-79613333D01*
X154474285Y-79851428D01*
X154426666Y-80041904D01*
X154379047Y-80137142D01*
X154331428Y-80184761D01*
X154236190Y-80232380D01*
X154140952Y-80232380D01*
X154045714Y-80184761D01*
X153998095Y-80137142D01*
X153950476Y-80041904D01*
X153902857Y-79851428D01*
X153902857Y-79613333D01*
X153950476Y-79422857D01*
X153998095Y-79327619D01*
X154045714Y-79280000D01*
X154140952Y-79232380D01*
X155093333Y-79232380D02*
X155188571Y-79232380D01*
X155283809Y-79280000D01*
X155331428Y-79327619D01*
X155379047Y-79422857D01*
X155426666Y-79613333D01*
X155426666Y-79851428D01*
X155379047Y-80041904D01*
X155331428Y-80137142D01*
X155283809Y-80184761D01*
X155188571Y-80232380D01*
X155093333Y-80232380D01*
X154998095Y-80184761D01*
X154950476Y-80137142D01*
X154902857Y-80041904D01*
X154855238Y-79851428D01*
X154855238Y-79613333D01*
X154902857Y-79422857D01*
X154950476Y-79327619D01*
X154998095Y-79280000D01*
X155093333Y-79232380D01*
X155807619Y-80232380D02*
X156045714Y-80232380D01*
X156045714Y-80041904D01*
X155950476Y-79994285D01*
X155855238Y-79899047D01*
X155807619Y-79756190D01*
X155807619Y-79518095D01*
X155855238Y-79375238D01*
X155950476Y-79280000D01*
X156093333Y-79232380D01*
X156283809Y-79232380D01*
X156426666Y-79280000D01*
X156521904Y-79375238D01*
X156569523Y-79518095D01*
X156569523Y-79756190D01*
X156521904Y-79899047D01*
X156426666Y-79994285D01*
X156331428Y-80041904D01*
X156331428Y-80232380D01*
X156569523Y-80232380D01*
X153771904Y-75232380D02*
X153200476Y-75232380D01*
X153486190Y-75232380D02*
X153486190Y-74232380D01*
X153390952Y-74375238D01*
X153295714Y-74470476D01*
X153200476Y-74518095D01*
X154390952Y-74232380D02*
X154486190Y-74232380D01*
X154581428Y-74280000D01*
X154629047Y-74327619D01*
X154676666Y-74422857D01*
X154724285Y-74613333D01*
X154724285Y-74851428D01*
X154676666Y-75041904D01*
X154629047Y-75137142D01*
X154581428Y-75184761D01*
X154486190Y-75232380D01*
X154390952Y-75232380D01*
X154295714Y-75184761D01*
X154248095Y-75137142D01*
X154200476Y-75041904D01*
X154152857Y-74851428D01*
X154152857Y-74613333D01*
X154200476Y-74422857D01*
X154248095Y-74327619D01*
X154295714Y-74280000D01*
X154390952Y-74232380D01*
X155343333Y-74232380D02*
X155438571Y-74232380D01*
X155533809Y-74280000D01*
X155581428Y-74327619D01*
X155629047Y-74422857D01*
X155676666Y-74613333D01*
X155676666Y-74851428D01*
X155629047Y-75041904D01*
X155581428Y-75137142D01*
X155533809Y-75184761D01*
X155438571Y-75232380D01*
X155343333Y-75232380D01*
X155248095Y-75184761D01*
X155200476Y-75137142D01*
X155152857Y-75041904D01*
X155105238Y-74851428D01*
X155105238Y-74613333D01*
X155152857Y-74422857D01*
X155200476Y-74327619D01*
X155248095Y-74280000D01*
X155343333Y-74232380D01*
X156057619Y-75232380D02*
X156295714Y-75232380D01*
X156295714Y-75041904D01*
X156200476Y-74994285D01*
X156105238Y-74899047D01*
X156057619Y-74756190D01*
X156057619Y-74518095D01*
X156105238Y-74375238D01*
X156200476Y-74280000D01*
X156343333Y-74232380D01*
X156533809Y-74232380D01*
X156676666Y-74280000D01*
X156771904Y-74375238D01*
X156819523Y-74518095D01*
X156819523Y-74756190D01*
X156771904Y-74899047D01*
X156676666Y-74994285D01*
X156581428Y-75041904D01*
X156581428Y-75232380D01*
X156819523Y-75232380D01*
X153521904Y-69982380D02*
X152950476Y-69982380D01*
X153236190Y-69982380D02*
X153236190Y-68982380D01*
X153140952Y-69125238D01*
X153045714Y-69220476D01*
X152950476Y-69268095D01*
X154140952Y-68982380D02*
X154236190Y-68982380D01*
X154331428Y-69030000D01*
X154379047Y-69077619D01*
X154426666Y-69172857D01*
X154474285Y-69363333D01*
X154474285Y-69601428D01*
X154426666Y-69791904D01*
X154379047Y-69887142D01*
X154331428Y-69934761D01*
X154236190Y-69982380D01*
X154140952Y-69982380D01*
X154045714Y-69934761D01*
X153998095Y-69887142D01*
X153950476Y-69791904D01*
X153902857Y-69601428D01*
X153902857Y-69363333D01*
X153950476Y-69172857D01*
X153998095Y-69077619D01*
X154045714Y-69030000D01*
X154140952Y-68982380D01*
X155093333Y-68982380D02*
X155188571Y-68982380D01*
X155283809Y-69030000D01*
X155331428Y-69077619D01*
X155379047Y-69172857D01*
X155426666Y-69363333D01*
X155426666Y-69601428D01*
X155379047Y-69791904D01*
X155331428Y-69887142D01*
X155283809Y-69934761D01*
X155188571Y-69982380D01*
X155093333Y-69982380D01*
X154998095Y-69934761D01*
X154950476Y-69887142D01*
X154902857Y-69791904D01*
X154855238Y-69601428D01*
X154855238Y-69363333D01*
X154902857Y-69172857D01*
X154950476Y-69077619D01*
X154998095Y-69030000D01*
X155093333Y-68982380D01*
X155807619Y-69982380D02*
X156045714Y-69982380D01*
X156045714Y-69791904D01*
X155950476Y-69744285D01*
X155855238Y-69649047D01*
X155807619Y-69506190D01*
X155807619Y-69268095D01*
X155855238Y-69125238D01*
X155950476Y-69030000D01*
X156093333Y-68982380D01*
X156283809Y-68982380D01*
X156426666Y-69030000D01*
X156521904Y-69125238D01*
X156569523Y-69268095D01*
X156569523Y-69506190D01*
X156521904Y-69649047D01*
X156426666Y-69744285D01*
X156331428Y-69791904D01*
X156331428Y-69982380D01*
X156569523Y-69982380D01*
X58500000Y-77761904D02*
X58452380Y-77857142D01*
X58452380Y-78000000D01*
X58500000Y-78142857D01*
X58595238Y-78238095D01*
X58690476Y-78285714D01*
X58880952Y-78333333D01*
X59023809Y-78333333D01*
X59214285Y-78285714D01*
X59309523Y-78238095D01*
X59404761Y-78142857D01*
X59452380Y-78000000D01*
X59452380Y-77904761D01*
X59404761Y-77761904D01*
X59357142Y-77714285D01*
X59023809Y-77714285D01*
X59023809Y-77904761D01*
X59452380Y-77285714D02*
X58452380Y-77285714D01*
X59452380Y-76714285D01*
X58452380Y-76714285D01*
X59452380Y-76238095D02*
X58452380Y-76238095D01*
X58452380Y-76000000D01*
X58500000Y-75857142D01*
X58595238Y-75761904D01*
X58690476Y-75714285D01*
X58880952Y-75666666D01*
X59023809Y-75666666D01*
X59214285Y-75714285D01*
X59309523Y-75761904D01*
X59404761Y-75857142D01*
X59452380Y-76000000D01*
X59452380Y-76238095D01*
X58452380Y-73440476D02*
X58452380Y-73916666D01*
X58928571Y-73964285D01*
X58880952Y-73916666D01*
X58833333Y-73821428D01*
X58833333Y-73583333D01*
X58880952Y-73488095D01*
X58928571Y-73440476D01*
X59023809Y-73392857D01*
X59261904Y-73392857D01*
X59357142Y-73440476D01*
X59404761Y-73488095D01*
X59452380Y-73583333D01*
X59452380Y-73821428D01*
X59404761Y-73916666D01*
X59357142Y-73964285D01*
X58452380Y-73107142D02*
X59452380Y-72773809D01*
X58452380Y-72440476D01*
X71496380Y-72498571D02*
X71496380Y-71879523D01*
X71877333Y-72212857D01*
X71877333Y-72070000D01*
X71924952Y-71974761D01*
X71972571Y-71927142D01*
X72067809Y-71879523D01*
X72305904Y-71879523D01*
X72401142Y-71927142D01*
X72448761Y-71974761D01*
X72496380Y-72070000D01*
X72496380Y-72355714D01*
X72448761Y-72450952D01*
X72401142Y-72498571D01*
X72401142Y-71450952D02*
X72448761Y-71403333D01*
X72496380Y-71450952D01*
X72448761Y-71498571D01*
X72401142Y-71450952D01*
X72496380Y-71450952D01*
X71496380Y-71070000D02*
X71496380Y-70450952D01*
X71877333Y-70784285D01*
X71877333Y-70641428D01*
X71924952Y-70546190D01*
X71972571Y-70498571D01*
X72067809Y-70450952D01*
X72305904Y-70450952D01*
X72401142Y-70498571D01*
X72448761Y-70546190D01*
X72496380Y-70641428D01*
X72496380Y-70927142D01*
X72448761Y-71022380D01*
X72401142Y-71070000D01*
X71829714Y-70117619D02*
X72496380Y-69879523D01*
X71829714Y-69641428D01*
X92147824Y-31579714D02*
X92064491Y-32246380D01*
X91957348Y-31198761D02*
X91629967Y-31913047D01*
X92249014Y-31913047D01*
X80665681Y-31246380D02*
X81284729Y-31246380D01*
X80903776Y-31627333D01*
X81046633Y-31627333D01*
X81135919Y-31674952D01*
X81177586Y-31722571D01*
X81213300Y-31817809D01*
X81183538Y-32055904D01*
X81124014Y-32151142D01*
X81070443Y-32198761D01*
X80969252Y-32246380D01*
X80683538Y-32246380D01*
X80594252Y-32198761D01*
X80552586Y-32151142D01*
X68201395Y-31341619D02*
X68254967Y-31294000D01*
X68356157Y-31246380D01*
X68594252Y-31246380D01*
X68683538Y-31294000D01*
X68725205Y-31341619D01*
X68760919Y-31436857D01*
X68749014Y-31532095D01*
X68683538Y-31674952D01*
X68040681Y-32246380D01*
X68659729Y-32246380D01*
X57509714Y-32246380D02*
X56938285Y-32246380D01*
X57224000Y-32246380D02*
X57224000Y-31246380D01*
X57128761Y-31389238D01*
X57033523Y-31484476D01*
X56938285Y-31532095D01*
X72496380Y-60740285D02*
X72496380Y-61311714D01*
X72496380Y-61026000D02*
X71496380Y-61026000D01*
X71639238Y-61121238D01*
X71734476Y-61216476D01*
X71782095Y-61311714D01*
X71591619Y-63811714D02*
X71544000Y-63764095D01*
X71496380Y-63668857D01*
X71496380Y-63430761D01*
X71544000Y-63335523D01*
X71591619Y-63287904D01*
X71686857Y-63240285D01*
X71782095Y-63240285D01*
X71924952Y-63287904D01*
X72496380Y-63859333D01*
X72496380Y-63240285D01*
X71496380Y-66359333D02*
X71496380Y-65740285D01*
X71877333Y-66073619D01*
X71877333Y-65930761D01*
X71924952Y-65835523D01*
X71972571Y-65787904D01*
X72067809Y-65740285D01*
X72305904Y-65740285D01*
X72401142Y-65787904D01*
X72448761Y-65835523D01*
X72496380Y-65930761D01*
X72496380Y-66216476D01*
X72448761Y-66311714D01*
X72401142Y-66359333D01*
X71829714Y-68335523D02*
X72496380Y-68335523D01*
X71448761Y-68573619D02*
X72163047Y-68811714D01*
X72163047Y-68192666D01*
X91496380Y-60740285D02*
X91496380Y-61311714D01*
X91496380Y-61026000D02*
X90496380Y-61026000D01*
X90639238Y-61121238D01*
X90734476Y-61216476D01*
X90782095Y-61311714D01*
X90591619Y-63811714D02*
X90544000Y-63764095D01*
X90496380Y-63668857D01*
X90496380Y-63430761D01*
X90544000Y-63335523D01*
X90591619Y-63287904D01*
X90686857Y-63240285D01*
X90782095Y-63240285D01*
X90924952Y-63287904D01*
X91496380Y-63859333D01*
X91496380Y-63240285D01*
X90496380Y-66359333D02*
X90496380Y-65740285D01*
X90877333Y-66073619D01*
X90877333Y-65930761D01*
X90924952Y-65835523D01*
X90972571Y-65787904D01*
X91067809Y-65740285D01*
X91305904Y-65740285D01*
X91401142Y-65787904D01*
X91448761Y-65835523D01*
X91496380Y-65930761D01*
X91496380Y-66216476D01*
X91448761Y-66311714D01*
X91401142Y-66359333D01*
X90829714Y-68335523D02*
X91496380Y-68335523D01*
X90448761Y-68573619D02*
X91163047Y-68811714D01*
X91163047Y-68192666D01*
X91154761Y-71928571D02*
X91488095Y-71928571D01*
X91630952Y-72452380D02*
X91154761Y-72452380D01*
X91154761Y-71452380D01*
X91630952Y-71452380D01*
X92011904Y-72404761D02*
X92154761Y-72452380D01*
X92392857Y-72452380D01*
X92488095Y-72404761D01*
X92535714Y-72357142D01*
X92583333Y-72261904D01*
X92583333Y-72166666D01*
X92535714Y-72071428D01*
X92488095Y-72023809D01*
X92392857Y-71976190D01*
X92202380Y-71928571D01*
X92107142Y-71880952D01*
X92059523Y-71833333D01*
X92011904Y-71738095D01*
X92011904Y-71642857D01*
X92059523Y-71547619D01*
X92107142Y-71500000D01*
X92202380Y-71452380D01*
X92440476Y-71452380D01*
X92583333Y-71500000D01*
X93011904Y-72452380D02*
X93011904Y-71452380D01*
X93392857Y-71452380D01*
X93488095Y-71500000D01*
X93535714Y-71547619D01*
X93583333Y-71642857D01*
X93583333Y-71785714D01*
X93535714Y-71880952D01*
X93488095Y-71928571D01*
X93392857Y-71976190D01*
X93011904Y-71976190D01*
X93773809Y-72547619D02*
X94535714Y-72547619D01*
X95345238Y-72452380D02*
X95011904Y-71976190D01*
X94773809Y-72452380D02*
X94773809Y-71452380D01*
X95154761Y-71452380D01*
X95250000Y-71500000D01*
X95297619Y-71547619D01*
X95345238Y-71642857D01*
X95345238Y-71785714D01*
X95297619Y-71880952D01*
X95250000Y-71928571D01*
X95154761Y-71976190D01*
X94773809Y-71976190D01*
X96154761Y-72404761D02*
X96059523Y-72452380D01*
X95869047Y-72452380D01*
X95773809Y-72404761D01*
X95726190Y-72309523D01*
X95726190Y-71928571D01*
X95773809Y-71833333D01*
X95869047Y-71785714D01*
X96059523Y-71785714D01*
X96154761Y-71833333D01*
X96202380Y-71928571D01*
X96202380Y-72023809D01*
X95726190Y-72119047D01*
X96773809Y-72452380D02*
X96678571Y-72404761D01*
X96630952Y-72309523D01*
X96630952Y-71452380D01*
X97583333Y-72452380D02*
X97583333Y-71928571D01*
X97535714Y-71833333D01*
X97440476Y-71785714D01*
X97250000Y-71785714D01*
X97154761Y-71833333D01*
X97583333Y-72404761D02*
X97488095Y-72452380D01*
X97250000Y-72452380D01*
X97154761Y-72404761D01*
X97107142Y-72309523D01*
X97107142Y-72214285D01*
X97154761Y-72119047D01*
X97250000Y-72071428D01*
X97488095Y-72071428D01*
X97583333Y-72023809D01*
X97964285Y-71785714D02*
X98202380Y-72452380D01*
X98440476Y-71785714D02*
X98202380Y-72452380D01*
X98107142Y-72690476D01*
X98059523Y-72738095D01*
X97964285Y-72785714D01*
X73390476Y-74033571D02*
X73723809Y-74033571D01*
X73866666Y-74557380D02*
X73390476Y-74557380D01*
X73390476Y-73557380D01*
X73866666Y-73557380D01*
X74200000Y-74557380D02*
X74723809Y-73890714D01*
X74200000Y-73890714D02*
X74723809Y-74557380D01*
X74961904Y-73890714D02*
X75342857Y-73890714D01*
X75104761Y-73557380D02*
X75104761Y-74414523D01*
X75152380Y-74509761D01*
X75247619Y-74557380D01*
X75342857Y-74557380D01*
X76057142Y-74509761D02*
X75961904Y-74557380D01*
X75771428Y-74557380D01*
X75676190Y-74509761D01*
X75628571Y-74414523D01*
X75628571Y-74033571D01*
X75676190Y-73938333D01*
X75771428Y-73890714D01*
X75961904Y-73890714D01*
X76057142Y-73938333D01*
X76104761Y-74033571D01*
X76104761Y-74128809D01*
X75628571Y-74224047D01*
X76533333Y-74557380D02*
X76533333Y-73890714D01*
X76533333Y-74081190D02*
X76580952Y-73985952D01*
X76628571Y-73938333D01*
X76723809Y-73890714D01*
X76819047Y-73890714D01*
X77152380Y-73890714D02*
X77152380Y-74557380D01*
X77152380Y-73985952D02*
X77200000Y-73938333D01*
X77295238Y-73890714D01*
X77438095Y-73890714D01*
X77533333Y-73938333D01*
X77580952Y-74033571D01*
X77580952Y-74557380D01*
X78485714Y-74557380D02*
X78485714Y-74033571D01*
X78438095Y-73938333D01*
X78342857Y-73890714D01*
X78152380Y-73890714D01*
X78057142Y-73938333D01*
X78485714Y-74509761D02*
X78390476Y-74557380D01*
X78152380Y-74557380D01*
X78057142Y-74509761D01*
X78009523Y-74414523D01*
X78009523Y-74319285D01*
X78057142Y-74224047D01*
X78152380Y-74176428D01*
X78390476Y-74176428D01*
X78485714Y-74128809D01*
X79104761Y-74557380D02*
X79009523Y-74509761D01*
X78961904Y-74414523D01*
X78961904Y-73557380D01*
X73938095Y-75683571D02*
X74080952Y-75731190D01*
X74128571Y-75778809D01*
X74176190Y-75874047D01*
X74176190Y-76016904D01*
X74128571Y-76112142D01*
X74080952Y-76159761D01*
X73985714Y-76207380D01*
X73604761Y-76207380D01*
X73604761Y-75207380D01*
X73938095Y-75207380D01*
X74033333Y-75255000D01*
X74080952Y-75302619D01*
X74128571Y-75397857D01*
X74128571Y-75493095D01*
X74080952Y-75588333D01*
X74033333Y-75635952D01*
X73938095Y-75683571D01*
X73604761Y-75683571D01*
X75033333Y-75540714D02*
X75033333Y-76207380D01*
X74604761Y-75540714D02*
X74604761Y-76064523D01*
X74652380Y-76159761D01*
X74747619Y-76207380D01*
X74890476Y-76207380D01*
X74985714Y-76159761D01*
X75033333Y-76112142D01*
X75366666Y-75540714D02*
X75747619Y-75540714D01*
X75509523Y-75207380D02*
X75509523Y-76064523D01*
X75557142Y-76159761D01*
X75652380Y-76207380D01*
X75747619Y-76207380D01*
X75938095Y-75540714D02*
X76319047Y-75540714D01*
X76080952Y-75207380D02*
X76080952Y-76064523D01*
X76128571Y-76159761D01*
X76223809Y-76207380D01*
X76319047Y-76207380D01*
X76795238Y-76207380D02*
X76700000Y-76159761D01*
X76652380Y-76112142D01*
X76604761Y-76016904D01*
X76604761Y-75731190D01*
X76652380Y-75635952D01*
X76700000Y-75588333D01*
X76795238Y-75540714D01*
X76938095Y-75540714D01*
X77033333Y-75588333D01*
X77080952Y-75635952D01*
X77128571Y-75731190D01*
X77128571Y-76016904D01*
X77080952Y-76112142D01*
X77033333Y-76159761D01*
X76938095Y-76207380D01*
X76795238Y-76207380D01*
X77557142Y-75540714D02*
X77557142Y-76207380D01*
X77557142Y-75635952D02*
X77604761Y-75588333D01*
X77700000Y-75540714D01*
X77842857Y-75540714D01*
X77938095Y-75588333D01*
X77985714Y-75683571D01*
X77985714Y-76207380D01*
X78414285Y-76159761D02*
X78509523Y-76207380D01*
X78700000Y-76207380D01*
X78795238Y-76159761D01*
X78842857Y-76064523D01*
X78842857Y-76016904D01*
X78795238Y-75921666D01*
X78700000Y-75874047D01*
X78557142Y-75874047D01*
X78461904Y-75826428D01*
X78414285Y-75731190D01*
X78414285Y-75683571D01*
X78461904Y-75588333D01*
X78557142Y-75540714D01*
X78700000Y-75540714D01*
X78795238Y-75588333D01*
X96448571Y-83620952D02*
X96448571Y-83287619D01*
X96972380Y-83144761D02*
X96972380Y-83620952D01*
X95972380Y-83620952D01*
X95972380Y-83144761D01*
X96972380Y-82811428D02*
X96305714Y-82287619D01*
X96305714Y-82811428D02*
X96972380Y-82287619D01*
X96305714Y-82049523D02*
X96305714Y-81668571D01*
X95972380Y-81906666D02*
X96829523Y-81906666D01*
X96924761Y-81859047D01*
X96972380Y-81763809D01*
X96972380Y-81668571D01*
X96924761Y-80954285D02*
X96972380Y-81049523D01*
X96972380Y-81240000D01*
X96924761Y-81335238D01*
X96829523Y-81382857D01*
X96448571Y-81382857D01*
X96353333Y-81335238D01*
X96305714Y-81240000D01*
X96305714Y-81049523D01*
X96353333Y-80954285D01*
X96448571Y-80906666D01*
X96543809Y-80906666D01*
X96639047Y-81382857D01*
X96972380Y-80478095D02*
X96305714Y-80478095D01*
X96496190Y-80478095D02*
X96400952Y-80430476D01*
X96353333Y-80382857D01*
X96305714Y-80287619D01*
X96305714Y-80192380D01*
X96305714Y-79859047D02*
X96972380Y-79859047D01*
X96400952Y-79859047D02*
X96353333Y-79811428D01*
X96305714Y-79716190D01*
X96305714Y-79573333D01*
X96353333Y-79478095D01*
X96448571Y-79430476D01*
X96972380Y-79430476D01*
X96972380Y-78525714D02*
X96448571Y-78525714D01*
X96353333Y-78573333D01*
X96305714Y-78668571D01*
X96305714Y-78859047D01*
X96353333Y-78954285D01*
X96924761Y-78525714D02*
X96972380Y-78620952D01*
X96972380Y-78859047D01*
X96924761Y-78954285D01*
X96829523Y-79001904D01*
X96734285Y-79001904D01*
X96639047Y-78954285D01*
X96591428Y-78859047D01*
X96591428Y-78620952D01*
X96543809Y-78525714D01*
X96972380Y-77906666D02*
X96924761Y-78001904D01*
X96829523Y-78049523D01*
X95972380Y-78049523D01*
X96972380Y-76287619D02*
X96972380Y-76763809D01*
X95972380Y-76763809D01*
X96924761Y-75573333D02*
X96972380Y-75668571D01*
X96972380Y-75859047D01*
X96924761Y-75954285D01*
X96829523Y-76001904D01*
X96448571Y-76001904D01*
X96353333Y-75954285D01*
X96305714Y-75859047D01*
X96305714Y-75668571D01*
X96353333Y-75573333D01*
X96448571Y-75525714D01*
X96543809Y-75525714D01*
X96639047Y-76001904D01*
X96972380Y-74668571D02*
X95972380Y-74668571D01*
X96924761Y-74668571D02*
X96972380Y-74763809D01*
X96972380Y-74954285D01*
X96924761Y-75049523D01*
X96877142Y-75097142D01*
X96781904Y-75144761D01*
X96496190Y-75144761D01*
X96400952Y-75097142D01*
X96353333Y-75049523D01*
X96305714Y-74954285D01*
X96305714Y-74763809D01*
X96353333Y-74668571D01*
X96924761Y-74240000D02*
X96972380Y-74144761D01*
X96972380Y-73954285D01*
X96924761Y-73859047D01*
X96829523Y-73811428D01*
X96781904Y-73811428D01*
X96686666Y-73859047D01*
X96639047Y-73954285D01*
X96639047Y-74097142D01*
X96591428Y-74192380D01*
X96496190Y-74240000D01*
X96448571Y-74240000D01*
X96353333Y-74192380D01*
X96305714Y-74097142D01*
X96305714Y-73954285D01*
X96353333Y-73859047D01*
X162242476Y-30773714D02*
X162242476Y-31440380D01*
X162004380Y-30392761D02*
X161766285Y-31107047D01*
X162385333Y-31107047D01*
X156638666Y-30440380D02*
X157257714Y-30440380D01*
X156924380Y-30821333D01*
X157067238Y-30821333D01*
X157162476Y-30868952D01*
X157210095Y-30916571D01*
X157257714Y-31011809D01*
X157257714Y-31249904D01*
X157210095Y-31345142D01*
X157162476Y-31392761D01*
X157067238Y-31440380D01*
X156781523Y-31440380D01*
X156686285Y-31392761D01*
X156638666Y-31345142D01*
X151873395Y-30535619D02*
X151926967Y-30488000D01*
X152028157Y-30440380D01*
X152266252Y-30440380D01*
X152355538Y-30488000D01*
X152397205Y-30535619D01*
X152432919Y-30630857D01*
X152421014Y-30726095D01*
X152355538Y-30868952D01*
X151712681Y-31440380D01*
X152331729Y-31440380D01*
X146997729Y-31440380D02*
X146426300Y-31440380D01*
X146712014Y-31440380D02*
X146837014Y-30440380D01*
X146723919Y-30583238D01*
X146616776Y-30678476D01*
X146515586Y-30726095D01*
X144565714Y-71183523D02*
X145232380Y-71183523D01*
X144184761Y-71421619D02*
X144899047Y-71659714D01*
X144899047Y-71040666D01*
X143470380Y-75009333D02*
X143470380Y-74390285D01*
X143851333Y-74723619D01*
X143851333Y-74580761D01*
X143898952Y-74485523D01*
X143946571Y-74437904D01*
X144041809Y-74390285D01*
X144279904Y-74390285D01*
X144375142Y-74437904D01*
X144422761Y-74485523D01*
X144470380Y-74580761D01*
X144470380Y-74866476D01*
X144422761Y-74961714D01*
X144375142Y-75009333D01*
X143565619Y-80028604D02*
X143518000Y-79975032D01*
X143470380Y-79873842D01*
X143470380Y-79635747D01*
X143518000Y-79546461D01*
X143565619Y-79504794D01*
X143660857Y-79469080D01*
X143756095Y-79480985D01*
X143898952Y-79546461D01*
X144470380Y-80189318D01*
X144470380Y-79570270D01*
X144470380Y-84650270D02*
X144470380Y-85221699D01*
X144470380Y-84935985D02*
X143470380Y-84810985D01*
X143613238Y-84924080D01*
X143708476Y-85031223D01*
X143756095Y-85132413D01*
X97829714Y-73469523D02*
X98496380Y-73469523D01*
X97448761Y-73707619D02*
X98163047Y-73945714D01*
X98163047Y-73326666D01*
X97496380Y-76533333D02*
X97496380Y-75914285D01*
X97877333Y-76247619D01*
X97877333Y-76104761D01*
X97924952Y-76009523D01*
X97972571Y-75961904D01*
X98067809Y-75914285D01*
X98305904Y-75914285D01*
X98401142Y-75961904D01*
X98448761Y-76009523D01*
X98496380Y-76104761D01*
X98496380Y-76390476D01*
X98448761Y-76485714D01*
X98401142Y-76533333D01*
X97591619Y-79025714D02*
X97544000Y-78978095D01*
X97496380Y-78882857D01*
X97496380Y-78644761D01*
X97544000Y-78549523D01*
X97591619Y-78501904D01*
X97686857Y-78454285D01*
X97782095Y-78454285D01*
X97924952Y-78501904D01*
X98496380Y-79073333D01*
X98496380Y-78454285D01*
X98496380Y-80740285D02*
X98496380Y-81311714D01*
X98496380Y-81026000D02*
X97496380Y-81026000D01*
X97639238Y-81121238D01*
X97734476Y-81216476D01*
X97782095Y-81311714D01*
X110521904Y-85542380D02*
X109950476Y-85542380D01*
X110236190Y-85542380D02*
X110236190Y-84542380D01*
X110140952Y-84685238D01*
X110045714Y-84780476D01*
X109950476Y-84828095D01*
X111140952Y-84542380D02*
X111236190Y-84542380D01*
X111331428Y-84590000D01*
X111379047Y-84637619D01*
X111426666Y-84732857D01*
X111474285Y-84923333D01*
X111474285Y-85161428D01*
X111426666Y-85351904D01*
X111379047Y-85447142D01*
X111331428Y-85494761D01*
X111236190Y-85542380D01*
X111140952Y-85542380D01*
X111045714Y-85494761D01*
X110998095Y-85447142D01*
X110950476Y-85351904D01*
X110902857Y-85161428D01*
X110902857Y-84923333D01*
X110950476Y-84732857D01*
X110998095Y-84637619D01*
X111045714Y-84590000D01*
X111140952Y-84542380D01*
X112093333Y-84542380D02*
X112188571Y-84542380D01*
X112283809Y-84590000D01*
X112331428Y-84637619D01*
X112379047Y-84732857D01*
X112426666Y-84923333D01*
X112426666Y-85161428D01*
X112379047Y-85351904D01*
X112331428Y-85447142D01*
X112283809Y-85494761D01*
X112188571Y-85542380D01*
X112093333Y-85542380D01*
X111998095Y-85494761D01*
X111950476Y-85447142D01*
X111902857Y-85351904D01*
X111855238Y-85161428D01*
X111855238Y-84923333D01*
X111902857Y-84732857D01*
X111950476Y-84637619D01*
X111998095Y-84590000D01*
X112093333Y-84542380D01*
X112807619Y-85542380D02*
X113045714Y-85542380D01*
X113045714Y-85351904D01*
X112950476Y-85304285D01*
X112855238Y-85209047D01*
X112807619Y-85066190D01*
X112807619Y-84828095D01*
X112855238Y-84685238D01*
X112950476Y-84590000D01*
X113093333Y-84542380D01*
X113283809Y-84542380D01*
X113426666Y-84590000D01*
X113521904Y-84685238D01*
X113569523Y-84828095D01*
X113569523Y-85066190D01*
X113521904Y-85209047D01*
X113426666Y-85304285D01*
X113331428Y-85351904D01*
X113331428Y-85542380D01*
X113569523Y-85542380D01*
X110521904Y-81732380D02*
X109950476Y-81732380D01*
X110236190Y-81732380D02*
X110236190Y-80732380D01*
X110140952Y-80875238D01*
X110045714Y-80970476D01*
X109950476Y-81018095D01*
X111140952Y-80732380D02*
X111236190Y-80732380D01*
X111331428Y-80780000D01*
X111379047Y-80827619D01*
X111426666Y-80922857D01*
X111474285Y-81113333D01*
X111474285Y-81351428D01*
X111426666Y-81541904D01*
X111379047Y-81637142D01*
X111331428Y-81684761D01*
X111236190Y-81732380D01*
X111140952Y-81732380D01*
X111045714Y-81684761D01*
X110998095Y-81637142D01*
X110950476Y-81541904D01*
X110902857Y-81351428D01*
X110902857Y-81113333D01*
X110950476Y-80922857D01*
X110998095Y-80827619D01*
X111045714Y-80780000D01*
X111140952Y-80732380D01*
X112093333Y-80732380D02*
X112188571Y-80732380D01*
X112283809Y-80780000D01*
X112331428Y-80827619D01*
X112379047Y-80922857D01*
X112426666Y-81113333D01*
X112426666Y-81351428D01*
X112379047Y-81541904D01*
X112331428Y-81637142D01*
X112283809Y-81684761D01*
X112188571Y-81732380D01*
X112093333Y-81732380D01*
X111998095Y-81684761D01*
X111950476Y-81637142D01*
X111902857Y-81541904D01*
X111855238Y-81351428D01*
X111855238Y-81113333D01*
X111902857Y-80922857D01*
X111950476Y-80827619D01*
X111998095Y-80780000D01*
X112093333Y-80732380D01*
X112807619Y-81732380D02*
X113045714Y-81732380D01*
X113045714Y-81541904D01*
X112950476Y-81494285D01*
X112855238Y-81399047D01*
X112807619Y-81256190D01*
X112807619Y-81018095D01*
X112855238Y-80875238D01*
X112950476Y-80780000D01*
X113093333Y-80732380D01*
X113283809Y-80732380D01*
X113426666Y-80780000D01*
X113521904Y-80875238D01*
X113569523Y-81018095D01*
X113569523Y-81256190D01*
X113521904Y-81399047D01*
X113426666Y-81494285D01*
X113331428Y-81541904D01*
X113331428Y-81732380D01*
X113569523Y-81732380D01*
X110521904Y-74112380D02*
X109950476Y-74112380D01*
X110236190Y-74112380D02*
X110236190Y-73112380D01*
X110140952Y-73255238D01*
X110045714Y-73350476D01*
X109950476Y-73398095D01*
X111140952Y-73112380D02*
X111236190Y-73112380D01*
X111331428Y-73160000D01*
X111379047Y-73207619D01*
X111426666Y-73302857D01*
X111474285Y-73493333D01*
X111474285Y-73731428D01*
X111426666Y-73921904D01*
X111379047Y-74017142D01*
X111331428Y-74064761D01*
X111236190Y-74112380D01*
X111140952Y-74112380D01*
X111045714Y-74064761D01*
X110998095Y-74017142D01*
X110950476Y-73921904D01*
X110902857Y-73731428D01*
X110902857Y-73493333D01*
X110950476Y-73302857D01*
X110998095Y-73207619D01*
X111045714Y-73160000D01*
X111140952Y-73112380D01*
X112093333Y-73112380D02*
X112188571Y-73112380D01*
X112283809Y-73160000D01*
X112331428Y-73207619D01*
X112379047Y-73302857D01*
X112426666Y-73493333D01*
X112426666Y-73731428D01*
X112379047Y-73921904D01*
X112331428Y-74017142D01*
X112283809Y-74064761D01*
X112188571Y-74112380D01*
X112093333Y-74112380D01*
X111998095Y-74064761D01*
X111950476Y-74017142D01*
X111902857Y-73921904D01*
X111855238Y-73731428D01*
X111855238Y-73493333D01*
X111902857Y-73302857D01*
X111950476Y-73207619D01*
X111998095Y-73160000D01*
X112093333Y-73112380D01*
X112807619Y-74112380D02*
X113045714Y-74112380D01*
X113045714Y-73921904D01*
X112950476Y-73874285D01*
X112855238Y-73779047D01*
X112807619Y-73636190D01*
X112807619Y-73398095D01*
X112855238Y-73255238D01*
X112950476Y-73160000D01*
X113093333Y-73112380D01*
X113283809Y-73112380D01*
X113426666Y-73160000D01*
X113521904Y-73255238D01*
X113569523Y-73398095D01*
X113569523Y-73636190D01*
X113521904Y-73779047D01*
X113426666Y-73874285D01*
X113331428Y-73921904D01*
X113331428Y-74112380D01*
X113569523Y-74112380D01*
X110521904Y-77922380D02*
X109950476Y-77922380D01*
X110236190Y-77922380D02*
X110236190Y-76922380D01*
X110140952Y-77065238D01*
X110045714Y-77160476D01*
X109950476Y-77208095D01*
X111140952Y-76922380D02*
X111236190Y-76922380D01*
X111331428Y-76970000D01*
X111379047Y-77017619D01*
X111426666Y-77112857D01*
X111474285Y-77303333D01*
X111474285Y-77541428D01*
X111426666Y-77731904D01*
X111379047Y-77827142D01*
X111331428Y-77874761D01*
X111236190Y-77922380D01*
X111140952Y-77922380D01*
X111045714Y-77874761D01*
X110998095Y-77827142D01*
X110950476Y-77731904D01*
X110902857Y-77541428D01*
X110902857Y-77303333D01*
X110950476Y-77112857D01*
X110998095Y-77017619D01*
X111045714Y-76970000D01*
X111140952Y-76922380D01*
X112093333Y-76922380D02*
X112188571Y-76922380D01*
X112283809Y-76970000D01*
X112331428Y-77017619D01*
X112379047Y-77112857D01*
X112426666Y-77303333D01*
X112426666Y-77541428D01*
X112379047Y-77731904D01*
X112331428Y-77827142D01*
X112283809Y-77874761D01*
X112188571Y-77922380D01*
X112093333Y-77922380D01*
X111998095Y-77874761D01*
X111950476Y-77827142D01*
X111902857Y-77731904D01*
X111855238Y-77541428D01*
X111855238Y-77303333D01*
X111902857Y-77112857D01*
X111950476Y-77017619D01*
X111998095Y-76970000D01*
X112093333Y-76922380D01*
X112807619Y-77922380D02*
X113045714Y-77922380D01*
X113045714Y-77731904D01*
X112950476Y-77684285D01*
X112855238Y-77589047D01*
X112807619Y-77446190D01*
X112807619Y-77208095D01*
X112855238Y-77065238D01*
X112950476Y-76970000D01*
X113093333Y-76922380D01*
X113283809Y-76922380D01*
X113426666Y-76970000D01*
X113521904Y-77065238D01*
X113569523Y-77208095D01*
X113569523Y-77446190D01*
X113521904Y-77589047D01*
X113426666Y-77684285D01*
X113331428Y-77731904D01*
X113331428Y-77922380D01*
X113569523Y-77922380D01*
X97496380Y-85248571D02*
X97496380Y-84629523D01*
X97877333Y-84962857D01*
X97877333Y-84820000D01*
X97924952Y-84724761D01*
X97972571Y-84677142D01*
X98067809Y-84629523D01*
X98305904Y-84629523D01*
X98401142Y-84677142D01*
X98448761Y-84724761D01*
X98496380Y-84820000D01*
X98496380Y-85105714D01*
X98448761Y-85200952D01*
X98401142Y-85248571D01*
X98401142Y-84200952D02*
X98448761Y-84153333D01*
X98496380Y-84200952D01*
X98448761Y-84248571D01*
X98401142Y-84200952D01*
X98496380Y-84200952D01*
X97496380Y-83820000D02*
X97496380Y-83200952D01*
X97877333Y-83534285D01*
X97877333Y-83391428D01*
X97924952Y-83296190D01*
X97972571Y-83248571D01*
X98067809Y-83200952D01*
X98305904Y-83200952D01*
X98401142Y-83248571D01*
X98448761Y-83296190D01*
X98496380Y-83391428D01*
X98496380Y-83677142D01*
X98448761Y-83772380D01*
X98401142Y-83820000D01*
X97829714Y-82867619D02*
X98496380Y-82629523D01*
X97829714Y-82391428D01*
X42989714Y-31694380D02*
X42513523Y-31694380D01*
X42513523Y-30694380D01*
X43608761Y-32075333D02*
X43561142Y-32027714D01*
X43465904Y-31884857D01*
X43418285Y-31789619D01*
X43370666Y-31646761D01*
X43323047Y-31408666D01*
X43323047Y-31218190D01*
X43370666Y-30980095D01*
X43418285Y-30837238D01*
X43465904Y-30742000D01*
X43561142Y-30599142D01*
X43608761Y-30551523D01*
X43846857Y-30694380D02*
X44180190Y-31694380D01*
X44513523Y-30694380D01*
X44799238Y-31408666D02*
X45275428Y-31408666D01*
X44704000Y-31694380D02*
X45037333Y-30694380D01*
X45370666Y-31694380D01*
X46275428Y-31599142D02*
X46227809Y-31646761D01*
X46084952Y-31694380D01*
X45989714Y-31694380D01*
X45846857Y-31646761D01*
X45751619Y-31551523D01*
X45704000Y-31456285D01*
X45656380Y-31265809D01*
X45656380Y-31122952D01*
X45704000Y-30932476D01*
X45751619Y-30837238D01*
X45846857Y-30742000D01*
X45989714Y-30694380D01*
X46084952Y-30694380D01*
X46227809Y-30742000D01*
X46275428Y-30789619D01*
X46608761Y-32075333D02*
X46656380Y-32027714D01*
X46751619Y-31884857D01*
X46799238Y-31789619D01*
X46846857Y-31646761D01*
X46894476Y-31408666D01*
X46894476Y-31218190D01*
X46846857Y-30980095D01*
X46799238Y-30837238D01*
X46751619Y-30742000D01*
X46656380Y-30599142D01*
X46608761Y-30551523D01*
X26900476Y-31694380D02*
X26900476Y-30694380D01*
X27471904Y-31694380D01*
X27471904Y-30694380D01*
X28233809Y-32075333D02*
X28186190Y-32027714D01*
X28090952Y-31884857D01*
X28043333Y-31789619D01*
X27995714Y-31646761D01*
X27948095Y-31408666D01*
X27948095Y-31218190D01*
X27995714Y-30980095D01*
X28043333Y-30837238D01*
X28090952Y-30742000D01*
X28186190Y-30599142D01*
X28233809Y-30551523D01*
X28471904Y-30694380D02*
X28805238Y-31694380D01*
X29138571Y-30694380D01*
X29424285Y-31408666D02*
X29900476Y-31408666D01*
X29329047Y-31694380D02*
X29662380Y-30694380D01*
X29995714Y-31694380D01*
X30900476Y-31599142D02*
X30852857Y-31646761D01*
X30710000Y-31694380D01*
X30614761Y-31694380D01*
X30471904Y-31646761D01*
X30376666Y-31551523D01*
X30329047Y-31456285D01*
X30281428Y-31265809D01*
X30281428Y-31122952D01*
X30329047Y-30932476D01*
X30376666Y-30837238D01*
X30471904Y-30742000D01*
X30614761Y-30694380D01*
X30710000Y-30694380D01*
X30852857Y-30742000D01*
X30900476Y-30789619D01*
X31233809Y-32075333D02*
X31281428Y-32027714D01*
X31376666Y-31884857D01*
X31424285Y-31789619D01*
X31471904Y-31646761D01*
X31519523Y-31408666D01*
X31519523Y-31218190D01*
X31471904Y-30980095D01*
X31424285Y-30837238D01*
X31376666Y-30742000D01*
X31281428Y-30599142D01*
X31233809Y-30551523D01*
X122634761Y-16347761D02*
X122634761Y-14347761D01*
X122634761Y-15300142D02*
X123777619Y-15300142D01*
X123777619Y-16347761D02*
X123777619Y-14347761D01*
X124730000Y-16347761D02*
X124730000Y-14347761D01*
X126730000Y-14443000D02*
X126539523Y-14347761D01*
X126253809Y-14347761D01*
X125968095Y-14443000D01*
X125777619Y-14633476D01*
X125682380Y-14823952D01*
X125587142Y-15204904D01*
X125587142Y-15490619D01*
X125682380Y-15871571D01*
X125777619Y-16062047D01*
X125968095Y-16252523D01*
X126253809Y-16347761D01*
X126444285Y-16347761D01*
X126730000Y-16252523D01*
X126825238Y-16157285D01*
X126825238Y-15490619D01*
X126444285Y-15490619D01*
X127682380Y-16347761D02*
X127682380Y-14347761D01*
X127682380Y-15300142D02*
X128825238Y-15300142D01*
X128825238Y-16347761D02*
X128825238Y-14347761D01*
X119682380Y-17497761D02*
X120349047Y-19497761D01*
X121015714Y-17497761D01*
X122063333Y-17497761D02*
X122444285Y-17497761D01*
X122634761Y-17593000D01*
X122825238Y-17783476D01*
X122920476Y-18164428D01*
X122920476Y-18831095D01*
X122825238Y-19212047D01*
X122634761Y-19402523D01*
X122444285Y-19497761D01*
X122063333Y-19497761D01*
X121872857Y-19402523D01*
X121682380Y-19212047D01*
X121587142Y-18831095D01*
X121587142Y-18164428D01*
X121682380Y-17783476D01*
X121872857Y-17593000D01*
X122063333Y-17497761D01*
X124730000Y-19497761D02*
X123777619Y-19497761D01*
X123777619Y-17497761D01*
X125110952Y-17497761D02*
X126253809Y-17497761D01*
X125682380Y-19497761D02*
X125682380Y-17497761D01*
X126825238Y-18926333D02*
X127777619Y-18926333D01*
X126634761Y-19497761D02*
X127301428Y-17497761D01*
X127968095Y-19497761D01*
X129682380Y-17593000D02*
X129491904Y-17497761D01*
X129206190Y-17497761D01*
X128920476Y-17593000D01*
X128730000Y-17783476D01*
X128634761Y-17973952D01*
X128539523Y-18354904D01*
X128539523Y-18640619D01*
X128634761Y-19021571D01*
X128730000Y-19212047D01*
X128920476Y-19402523D01*
X129206190Y-19497761D01*
X129396666Y-19497761D01*
X129682380Y-19402523D01*
X129777619Y-19307285D01*
X129777619Y-18640619D01*
X129396666Y-18640619D01*
X130634761Y-18450142D02*
X131301428Y-18450142D01*
X131587142Y-19497761D02*
X130634761Y-19497761D01*
X130634761Y-17497761D01*
X131587142Y-17497761D01*
X24146571Y-84796380D02*
X24479904Y-85796380D01*
X24813238Y-84796380D01*
X25146571Y-85701142D02*
X25194190Y-85748761D01*
X25146571Y-85796380D01*
X25098952Y-85748761D01*
X25146571Y-85701142D01*
X25146571Y-85796380D01*
X25575142Y-84891619D02*
X25622761Y-84844000D01*
X25718000Y-84796380D01*
X25956095Y-84796380D01*
X26051333Y-84844000D01*
X26098952Y-84891619D01*
X26146571Y-84986857D01*
X26146571Y-85082095D01*
X26098952Y-85224952D01*
X25527523Y-85796380D01*
X26146571Y-85796380D01*
X26765619Y-84796380D02*
X26860857Y-84796380D01*
X26956095Y-84844000D01*
X27003714Y-84891619D01*
X27051333Y-84986857D01*
X27098952Y-85177333D01*
X27098952Y-85415428D01*
X27051333Y-85605904D01*
X27003714Y-85701142D01*
X26956095Y-85748761D01*
X26860857Y-85796380D01*
X26765619Y-85796380D01*
X26670380Y-85748761D01*
X26622761Y-85701142D01*
X26575142Y-85605904D01*
X26527523Y-85415428D01*
X26527523Y-85177333D01*
X26575142Y-84986857D01*
X26622761Y-84891619D01*
X26670380Y-84844000D01*
X26765619Y-84796380D01*
X27479904Y-84891619D02*
X27527523Y-84844000D01*
X27622761Y-84796380D01*
X27860857Y-84796380D01*
X27956095Y-84844000D01*
X28003714Y-84891619D01*
X28051333Y-84986857D01*
X28051333Y-85082095D01*
X28003714Y-85224952D01*
X27432285Y-85796380D01*
X28051333Y-85796380D01*
X29003714Y-85796380D02*
X28432285Y-85796380D01*
X28718000Y-85796380D02*
X28718000Y-84796380D01*
X28622761Y-84939238D01*
X28527523Y-85034476D01*
X28432285Y-85082095D01*
X29622761Y-84796380D02*
X29718000Y-84796380D01*
X29813238Y-84844000D01*
X29860857Y-84891619D01*
X29908476Y-84986857D01*
X29956095Y-85177333D01*
X29956095Y-85415428D01*
X29908476Y-85605904D01*
X29860857Y-85701142D01*
X29813238Y-85748761D01*
X29718000Y-85796380D01*
X29622761Y-85796380D01*
X29527523Y-85748761D01*
X29479904Y-85701142D01*
X29432285Y-85605904D01*
X29384666Y-85415428D01*
X29384666Y-85177333D01*
X29432285Y-84986857D01*
X29479904Y-84891619D01*
X29527523Y-84844000D01*
X29622761Y-84796380D01*
X30432285Y-85796380D02*
X30622761Y-85796380D01*
X30718000Y-85748761D01*
X30765619Y-85701142D01*
X30860857Y-85558285D01*
X30908476Y-85367809D01*
X30908476Y-84986857D01*
X30860857Y-84891619D01*
X30813238Y-84844000D01*
X30718000Y-84796380D01*
X30527523Y-84796380D01*
X30432285Y-84844000D01*
X30384666Y-84891619D01*
X30337047Y-84986857D01*
X30337047Y-85224952D01*
X30384666Y-85320190D01*
X30432285Y-85367809D01*
X30527523Y-85415428D01*
X30718000Y-85415428D01*
X30813238Y-85367809D01*
X30860857Y-85320190D01*
X30908476Y-85224952D01*
X31860857Y-85796380D02*
X31289428Y-85796380D01*
X31575142Y-85796380D02*
X31575142Y-84796380D01*
X31479904Y-84939238D01*
X31384666Y-85034476D01*
X31289428Y-85082095D01*
X32337047Y-85796380D02*
X32527523Y-85796380D01*
X32622761Y-85748761D01*
X32670380Y-85701142D01*
X32765619Y-85558285D01*
X32813238Y-85367809D01*
X32813238Y-84986857D01*
X32765619Y-84891619D01*
X32718000Y-84844000D01*
X32622761Y-84796380D01*
X32432285Y-84796380D01*
X32337047Y-84844000D01*
X32289428Y-84891619D01*
X32241809Y-84986857D01*
X32241809Y-85224952D01*
X32289428Y-85320190D01*
X32337047Y-85367809D01*
X32432285Y-85415428D01*
X32622761Y-85415428D01*
X32718000Y-85367809D01*
X32765619Y-85320190D01*
X32813238Y-85224952D01*
X33241809Y-85701142D02*
X33289428Y-85748761D01*
X33241809Y-85796380D01*
X33194190Y-85748761D01*
X33241809Y-85701142D01*
X33241809Y-85796380D01*
X33908476Y-84796380D02*
X34003714Y-84796380D01*
X34098952Y-84844000D01*
X34146571Y-84891619D01*
X34194190Y-84986857D01*
X34241809Y-85177333D01*
X34241809Y-85415428D01*
X34194190Y-85605904D01*
X34146571Y-85701142D01*
X34098952Y-85748761D01*
X34003714Y-85796380D01*
X33908476Y-85796380D01*
X33813238Y-85748761D01*
X33765619Y-85701142D01*
X33718000Y-85605904D01*
X33670380Y-85415428D01*
X33670380Y-85177333D01*
X33718000Y-84986857D01*
X33765619Y-84891619D01*
X33813238Y-84844000D01*
X33908476Y-84796380D01*
X35194190Y-85796380D02*
X34622761Y-85796380D01*
X34908476Y-85796380D02*
X34908476Y-84796380D01*
X34813238Y-84939238D01*
X34718000Y-85034476D01*
X34622761Y-85082095D01*
D11*
X207845000Y-68310000D02*
X179945000Y-68310000D01*
X207845000Y-13910000D02*
X207845000Y-68310000D01*
X179945000Y-13910000D02*
X207845000Y-13910000D01*
X179945000Y-68310000D02*
X179945000Y-13910000D01*
D12*
X171530000Y-68306000D02*
X177500000Y-68306000D01*
X177500000Y-68306000D02*
X177500000Y-53186000D01*
X177500000Y-53186000D02*
X171530000Y-53186000D01*
X171530000Y-53186000D02*
X171530000Y-68306000D01*
X171540000Y-64996000D02*
X172290000Y-64996000D01*
X172290000Y-64996000D02*
X172290000Y-56496000D01*
X172290000Y-56496000D02*
X171540000Y-56496000D01*
X171540000Y-56496000D02*
X171540000Y-64996000D01*
X171540000Y-68296000D02*
X172290000Y-68296000D01*
X172290000Y-68296000D02*
X172290000Y-66496000D01*
X172290000Y-66496000D02*
X171540000Y-66496000D01*
X171540000Y-66496000D02*
X171540000Y-68296000D01*
X171540000Y-54996000D02*
X172290000Y-54996000D01*
X172290000Y-54996000D02*
X172290000Y-53196000D01*
X172290000Y-53196000D02*
X171540000Y-53196000D01*
X171540000Y-53196000D02*
X171540000Y-54996000D01*
X173790000Y-68296000D02*
X173790000Y-67546000D01*
X173790000Y-67546000D02*
X176740000Y-67546000D01*
X176740000Y-67546000D02*
X176740000Y-60746000D01*
X173790000Y-53196000D02*
X173790000Y-53946000D01*
X173790000Y-53946000D02*
X176740000Y-53946000D01*
X176740000Y-53946000D02*
X176740000Y-60746000D01*
X171240000Y-67346000D02*
X171240000Y-68596000D01*
X171240000Y-68596000D02*
X172490000Y-68596000D01*
X211662000Y-29738000D02*
X217632000Y-29738000D01*
X217632000Y-29738000D02*
X217632000Y-14618000D01*
X217632000Y-14618000D02*
X211662000Y-14618000D01*
X211662000Y-14618000D02*
X211662000Y-29738000D01*
X211672000Y-26428000D02*
X212422000Y-26428000D01*
X212422000Y-26428000D02*
X212422000Y-17928000D01*
X212422000Y-17928000D02*
X211672000Y-17928000D01*
X211672000Y-17928000D02*
X211672000Y-26428000D01*
X211672000Y-29728000D02*
X212422000Y-29728000D01*
X212422000Y-29728000D02*
X212422000Y-27928000D01*
X212422000Y-27928000D02*
X211672000Y-27928000D01*
X211672000Y-27928000D02*
X211672000Y-29728000D01*
X211672000Y-16428000D02*
X212422000Y-16428000D01*
X212422000Y-16428000D02*
X212422000Y-14628000D01*
X212422000Y-14628000D02*
X211672000Y-14628000D01*
X211672000Y-14628000D02*
X211672000Y-16428000D01*
X213922000Y-29728000D02*
X213922000Y-28978000D01*
X213922000Y-28978000D02*
X216872000Y-28978000D01*
X216872000Y-28978000D02*
X216872000Y-22178000D01*
X213922000Y-14628000D02*
X213922000Y-15378000D01*
X213922000Y-15378000D02*
X216872000Y-15378000D01*
X216872000Y-15378000D02*
X216872000Y-22178000D01*
X211372000Y-28778000D02*
X211372000Y-30028000D01*
X211372000Y-30028000D02*
X212622000Y-30028000D01*
X171530000Y-30246000D02*
X177500000Y-30246000D01*
X177500000Y-30246000D02*
X177500000Y-15126000D01*
X177500000Y-15126000D02*
X171530000Y-15126000D01*
X171530000Y-15126000D02*
X171530000Y-30246000D01*
X171540000Y-26936000D02*
X172290000Y-26936000D01*
X172290000Y-26936000D02*
X172290000Y-18436000D01*
X172290000Y-18436000D02*
X171540000Y-18436000D01*
X171540000Y-18436000D02*
X171540000Y-26936000D01*
X171540000Y-30236000D02*
X172290000Y-30236000D01*
X172290000Y-30236000D02*
X172290000Y-28436000D01*
X172290000Y-28436000D02*
X171540000Y-28436000D01*
X171540000Y-28436000D02*
X171540000Y-30236000D01*
X171540000Y-16936000D02*
X172290000Y-16936000D01*
X172290000Y-16936000D02*
X172290000Y-15136000D01*
X172290000Y-15136000D02*
X171540000Y-15136000D01*
X171540000Y-15136000D02*
X171540000Y-16936000D01*
X173790000Y-30236000D02*
X173790000Y-29486000D01*
X173790000Y-29486000D02*
X176740000Y-29486000D01*
X176740000Y-29486000D02*
X176740000Y-22686000D01*
X173790000Y-15136000D02*
X173790000Y-15886000D01*
X173790000Y-15886000D02*
X176740000Y-15886000D01*
X176740000Y-15886000D02*
X176740000Y-22686000D01*
X171240000Y-29286000D02*
X171240000Y-30536000D01*
X171240000Y-30536000D02*
X172490000Y-30536000D01*
X83000000Y-58780000D02*
X83000000Y-61720000D01*
X83240000Y-58780000D02*
X83240000Y-61720000D01*
X83120000Y-58780000D02*
X83120000Y-61720000D01*
X87660000Y-61720000D02*
X87660000Y-61390000D01*
X82220000Y-61720000D02*
X87660000Y-61720000D01*
X82220000Y-61390000D02*
X82220000Y-61720000D01*
X87660000Y-58780000D02*
X87660000Y-59110000D01*
X82220000Y-58780000D02*
X87660000Y-58780000D01*
X82220000Y-59110000D02*
X82220000Y-58780000D01*
X83000000Y-62030000D02*
X83000000Y-64970000D01*
X83240000Y-62030000D02*
X83240000Y-64970000D01*
X83120000Y-62030000D02*
X83120000Y-64970000D01*
X87660000Y-64970000D02*
X87660000Y-64640000D01*
X82220000Y-64970000D02*
X87660000Y-64970000D01*
X82220000Y-64640000D02*
X82220000Y-64970000D01*
X87660000Y-62030000D02*
X87660000Y-62360000D01*
X82220000Y-62030000D02*
X87660000Y-62030000D01*
X82220000Y-62360000D02*
X82220000Y-62030000D01*
X83000000Y-65280000D02*
X83000000Y-68220000D01*
X83240000Y-65280000D02*
X83240000Y-68220000D01*
X83120000Y-65280000D02*
X83120000Y-68220000D01*
X87660000Y-68220000D02*
X87660000Y-67890000D01*
X82220000Y-68220000D02*
X87660000Y-68220000D01*
X82220000Y-67890000D02*
X82220000Y-68220000D01*
X87660000Y-65280000D02*
X87660000Y-65610000D01*
X82220000Y-65280000D02*
X87660000Y-65280000D01*
X82220000Y-65610000D02*
X82220000Y-65280000D01*
X83000000Y-68530000D02*
X83000000Y-71470000D01*
X83240000Y-68530000D02*
X83240000Y-71470000D01*
X83120000Y-68530000D02*
X83120000Y-71470000D01*
X87660000Y-71470000D02*
X87660000Y-71140000D01*
X82220000Y-71470000D02*
X87660000Y-71470000D01*
X82220000Y-71140000D02*
X82220000Y-71470000D01*
X87660000Y-68530000D02*
X87660000Y-68860000D01*
X82220000Y-68530000D02*
X87660000Y-68530000D01*
X82220000Y-68860000D02*
X82220000Y-68530000D01*
D10*
X26960000Y-42531670D02*
X26960000Y-46731670D01*
X38960000Y-42531670D02*
X38960000Y-46731670D01*
X26960000Y-42531670D02*
X38960000Y-42531670D01*
X26960000Y-46731670D02*
X38960000Y-46731670D01*
D13*
X47390000Y-30390000D02*
X26270000Y-30390000D01*
X26270000Y-30390000D02*
X26270000Y-12190000D01*
X26270000Y-12190000D02*
X47390000Y-12190000D01*
X47390000Y-12190000D02*
X47390000Y-30390000D01*
D12*
X80645000Y-38735000D02*
G75*
G03*
X80645000Y-38735000I-127000J0D01*
G01*
X75018000Y-53750000D02*
X75018000Y-32610000D01*
X86018000Y-53750000D02*
X75018000Y-53750000D01*
X86018000Y-32610000D02*
X75018000Y-32610000D01*
X86018000Y-53750000D02*
X86018000Y-32610000D01*
X82038000Y-49020000D02*
X82038000Y-49530000D01*
X79498000Y-49020000D02*
X82038000Y-49020000D01*
X79498000Y-49530000D02*
X79498000Y-49020000D01*
X79498000Y-50040000D02*
X79498000Y-49530000D01*
X82038000Y-50040000D02*
X79498000Y-50040000D01*
X82038000Y-49530000D02*
X82038000Y-50040000D01*
X84328000Y-50800000D02*
X84328000Y-49530000D01*
X84328000Y-49530000D02*
X82038000Y-49530000D01*
X79498000Y-49530000D02*
X76708000Y-49530000D01*
X76708000Y-49530000D02*
X76708000Y-50800000D01*
X81278000Y-50040000D02*
X80268000Y-49020000D01*
X80518000Y-41910000D02*
X80518000Y-38735000D01*
X83058000Y-41910000D02*
X80518000Y-41910000D01*
X77978000Y-36830000D02*
X79248000Y-36830000D01*
X80518000Y-38735000D02*
X77978000Y-34925000D01*
X83058000Y-34290000D02*
X80518000Y-34290000D01*
X132080000Y-41105000D02*
X132080000Y-40255000D01*
X132080000Y-23665000D02*
X132080000Y-24515000D01*
X134700000Y-40255000D02*
X134700000Y-24515000D01*
X129460000Y-40255000D02*
X134700000Y-40255000D01*
X129460000Y-24515000D02*
X129460000Y-40255000D01*
X134700000Y-24515000D02*
X129460000Y-24515000D01*
X125730000Y-41105000D02*
X125730000Y-40255000D01*
X125730000Y-23665000D02*
X125730000Y-24515000D01*
X128350000Y-40255000D02*
X128350000Y-24515000D01*
X123110000Y-40255000D02*
X128350000Y-40255000D01*
X123110000Y-24515000D02*
X123110000Y-40255000D01*
X128350000Y-24515000D02*
X123110000Y-24515000D01*
X120589646Y-56715000D02*
X120589646Y-55715000D01*
X121089646Y-56215000D02*
X120089646Y-56215000D01*
X110529000Y-53939000D02*
X110529000Y-52741000D01*
X110569000Y-54202000D02*
X110569000Y-52478000D01*
X110609000Y-54402000D02*
X110609000Y-52278000D01*
X110649000Y-54570000D02*
X110649000Y-52110000D01*
X110689000Y-54718000D02*
X110689000Y-51962000D01*
X110729000Y-54850000D02*
X110729000Y-51830000D01*
X110769000Y-54970000D02*
X110769000Y-51710000D01*
X110809000Y-55082000D02*
X110809000Y-51598000D01*
X110849000Y-55186000D02*
X110849000Y-51494000D01*
X110889000Y-55284000D02*
X110889000Y-51396000D01*
X110929000Y-55377000D02*
X110929000Y-51303000D01*
X110969000Y-55465000D02*
X110969000Y-51215000D01*
X111009000Y-55549000D02*
X111009000Y-51131000D01*
X111049000Y-55629000D02*
X111049000Y-51051000D01*
X111089000Y-55705000D02*
X111089000Y-50975000D01*
X111129000Y-55779000D02*
X111129000Y-50901000D01*
X111169000Y-55850000D02*
X111169000Y-50830000D01*
X111209000Y-55919000D02*
X111209000Y-50761000D01*
X111249000Y-55985000D02*
X111249000Y-50695000D01*
X111289000Y-56049000D02*
X111289000Y-50631000D01*
X111329000Y-56110000D02*
X111329000Y-50570000D01*
X111369000Y-56170000D02*
X111369000Y-50510000D01*
X111409000Y-56229000D02*
X111409000Y-50451000D01*
X111449000Y-56285000D02*
X111449000Y-50395000D01*
X111489000Y-56340000D02*
X111489000Y-50340000D01*
X111529000Y-56394000D02*
X111529000Y-50286000D01*
X111569000Y-56446000D02*
X111569000Y-50234000D01*
X111609000Y-56496000D02*
X111609000Y-50184000D01*
X111649000Y-56546000D02*
X111649000Y-50134000D01*
X111689000Y-56594000D02*
X111689000Y-50086000D01*
X111729000Y-56641000D02*
X111729000Y-50039000D01*
X111769000Y-56687000D02*
X111769000Y-49993000D01*
X111809000Y-56732000D02*
X111809000Y-49948000D01*
X111849000Y-56776000D02*
X111849000Y-49904000D01*
X111889000Y-52099000D02*
X111889000Y-49862000D01*
X111889000Y-56818000D02*
X111889000Y-54581000D01*
X111929000Y-52099000D02*
X111929000Y-49820000D01*
X111929000Y-56860000D02*
X111929000Y-54581000D01*
X111969000Y-52099000D02*
X111969000Y-49779000D01*
X111969000Y-56901000D02*
X111969000Y-54581000D01*
X112009000Y-52099000D02*
X112009000Y-49739000D01*
X112009000Y-56941000D02*
X112009000Y-54581000D01*
X112049000Y-52099000D02*
X112049000Y-49700000D01*
X112049000Y-56980000D02*
X112049000Y-54581000D01*
X112089000Y-52099000D02*
X112089000Y-49661000D01*
X112089000Y-57019000D02*
X112089000Y-54581000D01*
X112129000Y-52099000D02*
X112129000Y-49624000D01*
X112129000Y-57056000D02*
X112129000Y-54581000D01*
X112169000Y-52099000D02*
X112169000Y-49587000D01*
X112169000Y-57093000D02*
X112169000Y-54581000D01*
X112209000Y-52099000D02*
X112209000Y-49551000D01*
X112209000Y-57129000D02*
X112209000Y-54581000D01*
X112249000Y-52099000D02*
X112249000Y-49516000D01*
X112249000Y-57164000D02*
X112249000Y-54581000D01*
X112289000Y-52099000D02*
X112289000Y-49482000D01*
X112289000Y-57198000D02*
X112289000Y-54581000D01*
X112329000Y-52099000D02*
X112329000Y-49448000D01*
X112329000Y-57232000D02*
X112329000Y-54581000D01*
X112369000Y-52099000D02*
X112369000Y-49415000D01*
X112369000Y-57265000D02*
X112369000Y-54581000D01*
X112409000Y-52099000D02*
X112409000Y-49383000D01*
X112409000Y-57297000D02*
X112409000Y-54581000D01*
X112449000Y-52099000D02*
X112449000Y-49351000D01*
X112449000Y-57329000D02*
X112449000Y-54581000D01*
X112489000Y-52099000D02*
X112489000Y-49320000D01*
X112489000Y-57360000D02*
X112489000Y-54581000D01*
X112529000Y-52099000D02*
X112529000Y-49290000D01*
X112529000Y-57390000D02*
X112529000Y-54581000D01*
X112569000Y-52099000D02*
X112569000Y-49260000D01*
X112569000Y-57420000D02*
X112569000Y-54581000D01*
X112609000Y-52099000D02*
X112609000Y-49230000D01*
X112609000Y-57450000D02*
X112609000Y-54581000D01*
X112649000Y-52099000D02*
X112649000Y-49202000D01*
X112649000Y-57478000D02*
X112649000Y-54581000D01*
X112689000Y-52099000D02*
X112689000Y-49174000D01*
X112689000Y-57506000D02*
X112689000Y-54581000D01*
X112729000Y-52099000D02*
X112729000Y-49146000D01*
X112729000Y-57534000D02*
X112729000Y-54581000D01*
X112769000Y-52099000D02*
X112769000Y-49119000D01*
X112769000Y-57561000D02*
X112769000Y-54581000D01*
X112809000Y-52099000D02*
X112809000Y-49093000D01*
X112809000Y-57587000D02*
X112809000Y-54581000D01*
X112849000Y-52099000D02*
X112849000Y-49067000D01*
X112849000Y-57613000D02*
X112849000Y-54581000D01*
X112889000Y-52099000D02*
X112889000Y-49042000D01*
X112889000Y-57638000D02*
X112889000Y-54581000D01*
X112929000Y-52099000D02*
X112929000Y-49017000D01*
X112929000Y-57663000D02*
X112929000Y-54581000D01*
X112969000Y-52099000D02*
X112969000Y-48993000D01*
X112969000Y-57687000D02*
X112969000Y-54581000D01*
X113009000Y-52099000D02*
X113009000Y-48969000D01*
X113009000Y-57711000D02*
X113009000Y-54581000D01*
X113049000Y-52099000D02*
X113049000Y-48945000D01*
X113049000Y-57735000D02*
X113049000Y-54581000D01*
X113089000Y-52099000D02*
X113089000Y-48923000D01*
X113089000Y-57757000D02*
X113089000Y-54581000D01*
X113129000Y-52099000D02*
X113129000Y-48900000D01*
X113129000Y-57780000D02*
X113129000Y-54581000D01*
X113169000Y-52099000D02*
X113169000Y-48878000D01*
X113169000Y-57802000D02*
X113169000Y-54581000D01*
X113209000Y-52099000D02*
X113209000Y-48857000D01*
X113209000Y-57823000D02*
X113209000Y-54581000D01*
X113249000Y-52099000D02*
X113249000Y-48836000D01*
X113249000Y-57844000D02*
X113249000Y-54581000D01*
X113289000Y-52099000D02*
X113289000Y-48815000D01*
X113289000Y-57865000D02*
X113289000Y-54581000D01*
X113329000Y-52099000D02*
X113329000Y-48795000D01*
X113329000Y-57885000D02*
X113329000Y-54581000D01*
X113369000Y-52099000D02*
X113369000Y-48776000D01*
X113369000Y-57904000D02*
X113369000Y-54581000D01*
X113409000Y-52099000D02*
X113409000Y-48756000D01*
X113409000Y-57924000D02*
X113409000Y-54581000D01*
X113449000Y-52099000D02*
X113449000Y-48737000D01*
X113449000Y-57943000D02*
X113449000Y-54581000D01*
X113489000Y-52099000D02*
X113489000Y-48719000D01*
X113489000Y-57961000D02*
X113489000Y-54581000D01*
X113529000Y-52099000D02*
X113529000Y-48701000D01*
X113529000Y-57979000D02*
X113529000Y-54581000D01*
X113569000Y-52099000D02*
X113569000Y-48683000D01*
X113569000Y-57997000D02*
X113569000Y-54581000D01*
X113609000Y-52099000D02*
X113609000Y-48666000D01*
X113609000Y-58014000D02*
X113609000Y-54581000D01*
X113649000Y-52099000D02*
X113649000Y-48650000D01*
X113649000Y-58030000D02*
X113649000Y-54581000D01*
X113689000Y-52099000D02*
X113689000Y-48633000D01*
X113689000Y-58047000D02*
X113689000Y-54581000D01*
X113729000Y-52099000D02*
X113729000Y-48617000D01*
X113729000Y-58063000D02*
X113729000Y-54581000D01*
X113769000Y-52099000D02*
X113769000Y-48602000D01*
X113769000Y-58078000D02*
X113769000Y-54581000D01*
X113809000Y-52099000D02*
X113809000Y-48586000D01*
X113809000Y-58094000D02*
X113809000Y-54581000D01*
X113849000Y-52099000D02*
X113849000Y-48572000D01*
X113849000Y-58108000D02*
X113849000Y-54581000D01*
X113889000Y-52099000D02*
X113889000Y-48557000D01*
X113889000Y-58123000D02*
X113889000Y-54581000D01*
X113929000Y-52099000D02*
X113929000Y-48543000D01*
X113929000Y-58137000D02*
X113929000Y-54581000D01*
X113969000Y-52099000D02*
X113969000Y-48529000D01*
X113969000Y-58151000D02*
X113969000Y-54581000D01*
X114009000Y-52099000D02*
X114009000Y-48516000D01*
X114009000Y-58164000D02*
X114009000Y-54581000D01*
X114049000Y-52099000D02*
X114049000Y-48503000D01*
X114049000Y-58177000D02*
X114049000Y-54581000D01*
X114089000Y-52099000D02*
X114089000Y-48490000D01*
X114089000Y-58190000D02*
X114089000Y-54581000D01*
X114129000Y-52099000D02*
X114129000Y-48478000D01*
X114129000Y-58202000D02*
X114129000Y-54581000D01*
X114169000Y-52099000D02*
X114169000Y-48466000D01*
X114169000Y-58214000D02*
X114169000Y-54581000D01*
X114209000Y-52099000D02*
X114209000Y-48455000D01*
X114209000Y-58225000D02*
X114209000Y-54581000D01*
X114249000Y-52099000D02*
X114249000Y-48443000D01*
X114249000Y-58237000D02*
X114249000Y-54581000D01*
X114289000Y-52099000D02*
X114289000Y-48433000D01*
X114289000Y-58247000D02*
X114289000Y-54581000D01*
X114329000Y-52099000D02*
X114329000Y-48422000D01*
X114329000Y-58258000D02*
X114329000Y-54581000D01*
X114369000Y-58268000D02*
X114369000Y-48412000D01*
X114409000Y-58278000D02*
X114409000Y-48402000D01*
X114449000Y-58287000D02*
X114449000Y-48393000D01*
X114489000Y-58296000D02*
X114489000Y-48384000D01*
X114529000Y-58305000D02*
X114529000Y-48375000D01*
X114569000Y-58314000D02*
X114569000Y-48366000D01*
X114609000Y-58322000D02*
X114609000Y-48358000D01*
X114649000Y-58330000D02*
X114649000Y-48350000D01*
X114689000Y-58337000D02*
X114689000Y-48343000D01*
X114729000Y-58344000D02*
X114729000Y-48336000D01*
X114769000Y-58351000D02*
X114769000Y-48329000D01*
X114809000Y-58358000D02*
X114809000Y-48322000D01*
X114849000Y-58364000D02*
X114849000Y-48316000D01*
X114889000Y-58370000D02*
X114889000Y-48310000D01*
X114930000Y-58375000D02*
X114930000Y-48305000D01*
X114970000Y-58380000D02*
X114970000Y-48300000D01*
X115010000Y-58385000D02*
X115010000Y-48295000D01*
X115050000Y-58390000D02*
X115050000Y-48290000D01*
X115090000Y-58394000D02*
X115090000Y-48286000D01*
X115130000Y-58398000D02*
X115130000Y-48282000D01*
X115170000Y-58402000D02*
X115170000Y-48278000D01*
X115210000Y-58405000D02*
X115210000Y-48275000D01*
X115250000Y-58408000D02*
X115250000Y-48272000D01*
X115290000Y-58410000D02*
X115290000Y-48270000D01*
X115330000Y-58413000D02*
X115330000Y-48267000D01*
X115370000Y-58415000D02*
X115370000Y-48265000D01*
X115410000Y-58417000D02*
X115410000Y-48263000D01*
X115450000Y-58418000D02*
X115450000Y-48262000D01*
X115490000Y-58419000D02*
X115490000Y-48261000D01*
X115530000Y-58420000D02*
X115530000Y-48260000D01*
X115570000Y-58420000D02*
X115570000Y-48260000D01*
X115610000Y-58420000D02*
X115610000Y-48260000D01*
X120730000Y-53340000D02*
G75*
G03*
X120730000Y-53340000I-5120000J0D01*
G01*
X132019646Y-56715000D02*
X132019646Y-55715000D01*
X132519646Y-56215000D02*
X131519646Y-56215000D01*
X121959000Y-53939000D02*
X121959000Y-52741000D01*
X121999000Y-54202000D02*
X121999000Y-52478000D01*
X122039000Y-54402000D02*
X122039000Y-52278000D01*
X122079000Y-54570000D02*
X122079000Y-52110000D01*
X122119000Y-54718000D02*
X122119000Y-51962000D01*
X122159000Y-54850000D02*
X122159000Y-51830000D01*
X122199000Y-54970000D02*
X122199000Y-51710000D01*
X122239000Y-55082000D02*
X122239000Y-51598000D01*
X122279000Y-55186000D02*
X122279000Y-51494000D01*
X122319000Y-55284000D02*
X122319000Y-51396000D01*
X122359000Y-55377000D02*
X122359000Y-51303000D01*
X122399000Y-55465000D02*
X122399000Y-51215000D01*
X122439000Y-55549000D02*
X122439000Y-51131000D01*
X122479000Y-55629000D02*
X122479000Y-51051000D01*
X122519000Y-55705000D02*
X122519000Y-50975000D01*
X122559000Y-55779000D02*
X122559000Y-50901000D01*
X122599000Y-55850000D02*
X122599000Y-50830000D01*
X122639000Y-55919000D02*
X122639000Y-50761000D01*
X122679000Y-55985000D02*
X122679000Y-50695000D01*
X122719000Y-56049000D02*
X122719000Y-50631000D01*
X122759000Y-56110000D02*
X122759000Y-50570000D01*
X122799000Y-56170000D02*
X122799000Y-50510000D01*
X122839000Y-56229000D02*
X122839000Y-50451000D01*
X122879000Y-56285000D02*
X122879000Y-50395000D01*
X122919000Y-56340000D02*
X122919000Y-50340000D01*
X122959000Y-56394000D02*
X122959000Y-50286000D01*
X122999000Y-56446000D02*
X122999000Y-50234000D01*
X123039000Y-56496000D02*
X123039000Y-50184000D01*
X123079000Y-56546000D02*
X123079000Y-50134000D01*
X123119000Y-56594000D02*
X123119000Y-50086000D01*
X123159000Y-56641000D02*
X123159000Y-50039000D01*
X123199000Y-56687000D02*
X123199000Y-49993000D01*
X123239000Y-56732000D02*
X123239000Y-49948000D01*
X123279000Y-56776000D02*
X123279000Y-49904000D01*
X123319000Y-52099000D02*
X123319000Y-49862000D01*
X123319000Y-56818000D02*
X123319000Y-54581000D01*
X123359000Y-52099000D02*
X123359000Y-49820000D01*
X123359000Y-56860000D02*
X123359000Y-54581000D01*
X123399000Y-52099000D02*
X123399000Y-49779000D01*
X123399000Y-56901000D02*
X123399000Y-54581000D01*
X123439000Y-52099000D02*
X123439000Y-49739000D01*
X123439000Y-56941000D02*
X123439000Y-54581000D01*
X123479000Y-52099000D02*
X123479000Y-49700000D01*
X123479000Y-56980000D02*
X123479000Y-54581000D01*
X123519000Y-52099000D02*
X123519000Y-49661000D01*
X123519000Y-57019000D02*
X123519000Y-54581000D01*
X123559000Y-52099000D02*
X123559000Y-49624000D01*
X123559000Y-57056000D02*
X123559000Y-54581000D01*
X123599000Y-52099000D02*
X123599000Y-49587000D01*
X123599000Y-57093000D02*
X123599000Y-54581000D01*
X123639000Y-52099000D02*
X123639000Y-49551000D01*
X123639000Y-57129000D02*
X123639000Y-54581000D01*
X123679000Y-52099000D02*
X123679000Y-49516000D01*
X123679000Y-57164000D02*
X123679000Y-54581000D01*
X123719000Y-52099000D02*
X123719000Y-49482000D01*
X123719000Y-57198000D02*
X123719000Y-54581000D01*
X123759000Y-52099000D02*
X123759000Y-49448000D01*
X123759000Y-57232000D02*
X123759000Y-54581000D01*
X123799000Y-52099000D02*
X123799000Y-49415000D01*
X123799000Y-57265000D02*
X123799000Y-54581000D01*
X123839000Y-52099000D02*
X123839000Y-49383000D01*
X123839000Y-57297000D02*
X123839000Y-54581000D01*
X123879000Y-52099000D02*
X123879000Y-49351000D01*
X123879000Y-57329000D02*
X123879000Y-54581000D01*
X123919000Y-52099000D02*
X123919000Y-49320000D01*
X123919000Y-57360000D02*
X123919000Y-54581000D01*
X123959000Y-52099000D02*
X123959000Y-49290000D01*
X123959000Y-57390000D02*
X123959000Y-54581000D01*
X123999000Y-52099000D02*
X123999000Y-49260000D01*
X123999000Y-57420000D02*
X123999000Y-54581000D01*
X124039000Y-52099000D02*
X124039000Y-49230000D01*
X124039000Y-57450000D02*
X124039000Y-54581000D01*
X124079000Y-52099000D02*
X124079000Y-49202000D01*
X124079000Y-57478000D02*
X124079000Y-54581000D01*
X124119000Y-52099000D02*
X124119000Y-49174000D01*
X124119000Y-57506000D02*
X124119000Y-54581000D01*
X124159000Y-52099000D02*
X124159000Y-49146000D01*
X124159000Y-57534000D02*
X124159000Y-54581000D01*
X124199000Y-52099000D02*
X124199000Y-49119000D01*
X124199000Y-57561000D02*
X124199000Y-54581000D01*
X124239000Y-52099000D02*
X124239000Y-49093000D01*
X124239000Y-57587000D02*
X124239000Y-54581000D01*
X124279000Y-52099000D02*
X124279000Y-49067000D01*
X124279000Y-57613000D02*
X124279000Y-54581000D01*
X124319000Y-52099000D02*
X124319000Y-49042000D01*
X124319000Y-57638000D02*
X124319000Y-54581000D01*
X124359000Y-52099000D02*
X124359000Y-49017000D01*
X124359000Y-57663000D02*
X124359000Y-54581000D01*
X124399000Y-52099000D02*
X124399000Y-48993000D01*
X124399000Y-57687000D02*
X124399000Y-54581000D01*
X124439000Y-52099000D02*
X124439000Y-48969000D01*
X124439000Y-57711000D02*
X124439000Y-54581000D01*
X124479000Y-52099000D02*
X124479000Y-48945000D01*
X124479000Y-57735000D02*
X124479000Y-54581000D01*
X124519000Y-52099000D02*
X124519000Y-48923000D01*
X124519000Y-57757000D02*
X124519000Y-54581000D01*
X124559000Y-52099000D02*
X124559000Y-48900000D01*
X124559000Y-57780000D02*
X124559000Y-54581000D01*
X124599000Y-52099000D02*
X124599000Y-48878000D01*
X124599000Y-57802000D02*
X124599000Y-54581000D01*
X124639000Y-52099000D02*
X124639000Y-48857000D01*
X124639000Y-57823000D02*
X124639000Y-54581000D01*
X124679000Y-52099000D02*
X124679000Y-48836000D01*
X124679000Y-57844000D02*
X124679000Y-54581000D01*
X124719000Y-52099000D02*
X124719000Y-48815000D01*
X124719000Y-57865000D02*
X124719000Y-54581000D01*
X124759000Y-52099000D02*
X124759000Y-48795000D01*
X124759000Y-57885000D02*
X124759000Y-54581000D01*
X124799000Y-52099000D02*
X124799000Y-48776000D01*
X124799000Y-57904000D02*
X124799000Y-54581000D01*
X124839000Y-52099000D02*
X124839000Y-48756000D01*
X124839000Y-57924000D02*
X124839000Y-54581000D01*
X124879000Y-52099000D02*
X124879000Y-48737000D01*
X124879000Y-57943000D02*
X124879000Y-54581000D01*
X124919000Y-52099000D02*
X124919000Y-48719000D01*
X124919000Y-57961000D02*
X124919000Y-54581000D01*
X124959000Y-52099000D02*
X124959000Y-48701000D01*
X124959000Y-57979000D02*
X124959000Y-54581000D01*
X124999000Y-52099000D02*
X124999000Y-48683000D01*
X124999000Y-57997000D02*
X124999000Y-54581000D01*
X125039000Y-52099000D02*
X125039000Y-48666000D01*
X125039000Y-58014000D02*
X125039000Y-54581000D01*
X125079000Y-52099000D02*
X125079000Y-48650000D01*
X125079000Y-58030000D02*
X125079000Y-54581000D01*
X125119000Y-52099000D02*
X125119000Y-48633000D01*
X125119000Y-58047000D02*
X125119000Y-54581000D01*
X125159000Y-52099000D02*
X125159000Y-48617000D01*
X125159000Y-58063000D02*
X125159000Y-54581000D01*
X125199000Y-52099000D02*
X125199000Y-48602000D01*
X125199000Y-58078000D02*
X125199000Y-54581000D01*
X125239000Y-52099000D02*
X125239000Y-48586000D01*
X125239000Y-58094000D02*
X125239000Y-54581000D01*
X125279000Y-52099000D02*
X125279000Y-48572000D01*
X125279000Y-58108000D02*
X125279000Y-54581000D01*
X125319000Y-52099000D02*
X125319000Y-48557000D01*
X125319000Y-58123000D02*
X125319000Y-54581000D01*
X125359000Y-52099000D02*
X125359000Y-48543000D01*
X125359000Y-58137000D02*
X125359000Y-54581000D01*
X125399000Y-52099000D02*
X125399000Y-48529000D01*
X125399000Y-58151000D02*
X125399000Y-54581000D01*
X125439000Y-52099000D02*
X125439000Y-48516000D01*
X125439000Y-58164000D02*
X125439000Y-54581000D01*
X125479000Y-52099000D02*
X125479000Y-48503000D01*
X125479000Y-58177000D02*
X125479000Y-54581000D01*
X125519000Y-52099000D02*
X125519000Y-48490000D01*
X125519000Y-58190000D02*
X125519000Y-54581000D01*
X125559000Y-52099000D02*
X125559000Y-48478000D01*
X125559000Y-58202000D02*
X125559000Y-54581000D01*
X125599000Y-52099000D02*
X125599000Y-48466000D01*
X125599000Y-58214000D02*
X125599000Y-54581000D01*
X125639000Y-52099000D02*
X125639000Y-48455000D01*
X125639000Y-58225000D02*
X125639000Y-54581000D01*
X125679000Y-52099000D02*
X125679000Y-48443000D01*
X125679000Y-58237000D02*
X125679000Y-54581000D01*
X125719000Y-52099000D02*
X125719000Y-48433000D01*
X125719000Y-58247000D02*
X125719000Y-54581000D01*
X125759000Y-52099000D02*
X125759000Y-48422000D01*
X125759000Y-58258000D02*
X125759000Y-54581000D01*
X125799000Y-58268000D02*
X125799000Y-48412000D01*
X125839000Y-58278000D02*
X125839000Y-48402000D01*
X125879000Y-58287000D02*
X125879000Y-48393000D01*
X125919000Y-58296000D02*
X125919000Y-48384000D01*
X125959000Y-58305000D02*
X125959000Y-48375000D01*
X125999000Y-58314000D02*
X125999000Y-48366000D01*
X126039000Y-58322000D02*
X126039000Y-48358000D01*
X126079000Y-58330000D02*
X126079000Y-48350000D01*
X126119000Y-58337000D02*
X126119000Y-48343000D01*
X126159000Y-58344000D02*
X126159000Y-48336000D01*
X126199000Y-58351000D02*
X126199000Y-48329000D01*
X126239000Y-58358000D02*
X126239000Y-48322000D01*
X126279000Y-58364000D02*
X126279000Y-48316000D01*
X126319000Y-58370000D02*
X126319000Y-48310000D01*
X126360000Y-58375000D02*
X126360000Y-48305000D01*
X126400000Y-58380000D02*
X126400000Y-48300000D01*
X126440000Y-58385000D02*
X126440000Y-48295000D01*
X126480000Y-58390000D02*
X126480000Y-48290000D01*
X126520000Y-58394000D02*
X126520000Y-48286000D01*
X126560000Y-58398000D02*
X126560000Y-48282000D01*
X126600000Y-58402000D02*
X126600000Y-48278000D01*
X126640000Y-58405000D02*
X126640000Y-48275000D01*
X126680000Y-58408000D02*
X126680000Y-48272000D01*
X126720000Y-58410000D02*
X126720000Y-48270000D01*
X126760000Y-58413000D02*
X126760000Y-48267000D01*
X126800000Y-58415000D02*
X126800000Y-48265000D01*
X126840000Y-58417000D02*
X126840000Y-48263000D01*
X126880000Y-58418000D02*
X126880000Y-48262000D01*
X126920000Y-58419000D02*
X126920000Y-48261000D01*
X126960000Y-58420000D02*
X126960000Y-48260000D01*
X127000000Y-58420000D02*
X127000000Y-48260000D01*
X127040000Y-58420000D02*
X127040000Y-48260000D01*
X132160000Y-53340000D02*
G75*
G03*
X132160000Y-53340000I-5120000J0D01*
G01*
X63790000Y-77530000D02*
X65040000Y-77530000D01*
X63790000Y-57090000D02*
X63790000Y-77530000D01*
X68290000Y-57090000D02*
X63790000Y-57090000D01*
X68290000Y-77530000D02*
X68290000Y-57090000D01*
X67040000Y-77530000D02*
X68290000Y-77530000D01*
X65040000Y-77530000D02*
G75*
G02*
X67040000Y-77530000I1000000J0D01*
G01*
X97710000Y-58400000D02*
X91740000Y-58400000D01*
X91740000Y-58400000D02*
X91740000Y-71020000D01*
X91740000Y-71020000D02*
X97710000Y-71020000D01*
X97710000Y-71020000D02*
X97710000Y-58400000D01*
X97700000Y-61710000D02*
X96950000Y-61710000D01*
X96950000Y-61710000D02*
X96950000Y-67710000D01*
X96950000Y-67710000D02*
X97700000Y-67710000D01*
X97700000Y-67710000D02*
X97700000Y-61710000D01*
X97700000Y-58410000D02*
X96950000Y-58410000D01*
X96950000Y-58410000D02*
X96950000Y-60210000D01*
X96950000Y-60210000D02*
X97700000Y-60210000D01*
X97700000Y-60210000D02*
X97700000Y-58410000D01*
X97700000Y-69210000D02*
X96950000Y-69210000D01*
X96950000Y-69210000D02*
X96950000Y-71010000D01*
X96950000Y-71010000D02*
X97700000Y-71010000D01*
X97700000Y-71010000D02*
X97700000Y-69210000D01*
X95450000Y-58410000D02*
X95450000Y-59160000D01*
X95450000Y-59160000D02*
X92500000Y-59160000D01*
X92500000Y-59160000D02*
X92500000Y-64710000D01*
X95450000Y-71010000D02*
X95450000Y-70260000D01*
X95450000Y-70260000D02*
X92500000Y-70260000D01*
X92500000Y-70260000D02*
X92500000Y-64710000D01*
X98000000Y-59360000D02*
X98000000Y-58110000D01*
X98000000Y-58110000D02*
X96750000Y-58110000D01*
X98850000Y-86590000D02*
X100100000Y-86590000D01*
X98850000Y-85340000D02*
X98850000Y-86590000D01*
X104350000Y-71940000D02*
X104350000Y-78740000D01*
X101400000Y-71940000D02*
X104350000Y-71940000D01*
X101400000Y-71190000D02*
X101400000Y-71940000D01*
X104350000Y-85540000D02*
X104350000Y-78740000D01*
X101400000Y-85540000D02*
X104350000Y-85540000D01*
X101400000Y-86290000D02*
X101400000Y-85540000D01*
X99150000Y-71190000D02*
X99150000Y-72990000D01*
X99900000Y-71190000D02*
X99150000Y-71190000D01*
X99900000Y-72990000D02*
X99900000Y-71190000D01*
X99150000Y-72990000D02*
X99900000Y-72990000D01*
X99150000Y-84490000D02*
X99150000Y-86290000D01*
X99900000Y-84490000D02*
X99150000Y-84490000D01*
X99900000Y-86290000D02*
X99900000Y-84490000D01*
X99150000Y-86290000D02*
X99900000Y-86290000D01*
X99150000Y-74490000D02*
X99150000Y-82990000D01*
X99900000Y-74490000D02*
X99150000Y-74490000D01*
X99900000Y-82990000D02*
X99900000Y-74490000D01*
X99150000Y-82990000D02*
X99900000Y-82990000D01*
X99140000Y-71180000D02*
X99140000Y-86300000D01*
X105110000Y-71180000D02*
X99140000Y-71180000D01*
X105110000Y-86300000D02*
X105110000Y-71180000D01*
X99140000Y-86300000D02*
X105110000Y-86300000D01*
X120770000Y-70020000D02*
X120770000Y-59520000D01*
X110370000Y-70020000D02*
X120770000Y-70020000D01*
X110370000Y-59520000D02*
X110370000Y-70020000D01*
X120770000Y-59520000D02*
X110370000Y-59520000D01*
X120710000Y-67020000D02*
X120710000Y-65770000D01*
X110430000Y-67020000D02*
X120710000Y-67020000D01*
X110430000Y-62520000D02*
X110430000Y-67020000D01*
X120710000Y-62520000D02*
X110430000Y-62520000D01*
X120710000Y-63770000D02*
X120710000Y-62520000D01*
X120710000Y-65770000D02*
G75*
G02*
X120710000Y-63770000I0J1000000D01*
G01*
X143884000Y-70020000D02*
X143884000Y-59520000D01*
X133484000Y-70020000D02*
X143884000Y-70020000D01*
X133484000Y-59520000D02*
X133484000Y-70020000D01*
X143884000Y-59520000D02*
X133484000Y-59520000D01*
X143824000Y-67020000D02*
X143824000Y-65770000D01*
X133544000Y-67020000D02*
X143824000Y-67020000D01*
X133544000Y-62520000D02*
X133544000Y-67020000D01*
X143824000Y-62520000D02*
X133544000Y-62520000D01*
X143824000Y-63770000D02*
X143824000Y-62520000D01*
X143824000Y-65770000D02*
G75*
G02*
X143824000Y-63770000I0J1000000D01*
G01*
X132454000Y-70020000D02*
X132454000Y-59520000D01*
X122054000Y-70020000D02*
X132454000Y-70020000D01*
X122054000Y-59520000D02*
X122054000Y-70020000D01*
X132454000Y-59520000D02*
X122054000Y-59520000D01*
X132394000Y-67020000D02*
X132394000Y-65770000D01*
X122114000Y-67020000D02*
X132394000Y-67020000D01*
X122114000Y-62520000D02*
X122114000Y-67020000D01*
X132394000Y-62520000D02*
X122114000Y-62520000D01*
X132394000Y-63770000D02*
X132394000Y-62520000D01*
X132394000Y-65770000D02*
G75*
G02*
X132394000Y-63770000I0J1000000D01*
G01*
X109340000Y-70020000D02*
X109340000Y-59520000D01*
X98940000Y-70020000D02*
X109340000Y-70020000D01*
X98940000Y-59520000D02*
X98940000Y-70020000D01*
X109340000Y-59520000D02*
X98940000Y-59520000D01*
X109280000Y-67020000D02*
X109280000Y-65770000D01*
X99000000Y-67020000D02*
X109280000Y-67020000D01*
X99000000Y-62520000D02*
X99000000Y-67020000D01*
X109280000Y-62520000D02*
X99000000Y-62520000D01*
X109280000Y-63770000D02*
X109280000Y-62520000D01*
X109280000Y-65770000D02*
G75*
G02*
X109280000Y-63770000I0J1000000D01*
G01*
X82604000Y-81375000D02*
X82604000Y-79865000D01*
X86305000Y-81375000D02*
X86305000Y-79865000D01*
X89575000Y-79865000D02*
X79335000Y-79865000D01*
X79335000Y-81375000D02*
X79335000Y-76734000D01*
X89575000Y-81375000D02*
X89575000Y-76734000D01*
X89575000Y-76734000D02*
X79335000Y-76734000D01*
X89575000Y-81375000D02*
X79335000Y-81375000D01*
X158083000Y-86206000D02*
X158083000Y-85876000D01*
X151543000Y-86206000D02*
X158083000Y-86206000D01*
X151543000Y-85876000D02*
X151543000Y-86206000D01*
X158083000Y-83466000D02*
X158083000Y-83796000D01*
X151543000Y-83466000D02*
X158083000Y-83466000D01*
X151543000Y-83796000D02*
X151543000Y-83466000D01*
X158083000Y-81126000D02*
X158083000Y-80796000D01*
X151543000Y-81126000D02*
X158083000Y-81126000D01*
X151543000Y-80796000D02*
X151543000Y-81126000D01*
X158083000Y-78386000D02*
X158083000Y-78716000D01*
X151543000Y-78386000D02*
X158083000Y-78386000D01*
X151543000Y-78716000D02*
X151543000Y-78386000D01*
X158083000Y-76046000D02*
X158083000Y-75716000D01*
X151543000Y-76046000D02*
X158083000Y-76046000D01*
X151543000Y-75716000D02*
X151543000Y-76046000D01*
X158083000Y-73306000D02*
X158083000Y-73636000D01*
X151543000Y-73306000D02*
X158083000Y-73306000D01*
X151543000Y-73636000D02*
X151543000Y-73306000D01*
X108490000Y-83720000D02*
X108490000Y-84050000D01*
X115030000Y-83720000D02*
X108490000Y-83720000D01*
X115030000Y-84050000D02*
X115030000Y-83720000D01*
X108490000Y-86460000D02*
X108490000Y-86130000D01*
X115030000Y-86460000D02*
X108490000Y-86460000D01*
X115030000Y-86130000D02*
X115030000Y-86460000D01*
X108490000Y-79910000D02*
X108490000Y-80240000D01*
X115030000Y-79910000D02*
X108490000Y-79910000D01*
X115030000Y-80240000D02*
X115030000Y-79910000D01*
X108490000Y-82650000D02*
X108490000Y-82320000D01*
X115030000Y-82650000D02*
X108490000Y-82650000D01*
X115030000Y-82320000D02*
X115030000Y-82650000D01*
X108490000Y-76100000D02*
X108490000Y-76430000D01*
X115030000Y-76100000D02*
X108490000Y-76100000D01*
X115030000Y-76430000D02*
X115030000Y-76100000D01*
X108490000Y-78840000D02*
X108490000Y-78510000D01*
X115030000Y-78840000D02*
X108490000Y-78840000D01*
X115030000Y-78510000D02*
X115030000Y-78840000D01*
X108490000Y-72290000D02*
X108490000Y-72620000D01*
X115030000Y-72290000D02*
X108490000Y-72290000D01*
X115030000Y-72620000D02*
X115030000Y-72290000D01*
X108490000Y-75030000D02*
X108490000Y-74700000D01*
X115030000Y-75030000D02*
X108490000Y-75030000D01*
X115030000Y-74700000D02*
X115030000Y-75030000D01*
X158083000Y-70966000D02*
X158083000Y-70636000D01*
X151543000Y-70966000D02*
X158083000Y-70966000D01*
X151543000Y-70636000D02*
X151543000Y-70966000D01*
X158083000Y-68226000D02*
X158083000Y-68556000D01*
X151543000Y-68226000D02*
X158083000Y-68226000D01*
X151543000Y-68556000D02*
X151543000Y-68226000D01*
X78950000Y-58110000D02*
X77700000Y-58110000D01*
X78950000Y-59360000D02*
X78950000Y-58110000D01*
X73450000Y-72760000D02*
X73450000Y-65960000D01*
X76400000Y-72760000D02*
X73450000Y-72760000D01*
X76400000Y-73510000D02*
X76400000Y-72760000D01*
X73450000Y-59160000D02*
X73450000Y-65960000D01*
X76400000Y-59160000D02*
X73450000Y-59160000D01*
X76400000Y-58410000D02*
X76400000Y-59160000D01*
X78650000Y-73510000D02*
X78650000Y-71710000D01*
X77900000Y-73510000D02*
X78650000Y-73510000D01*
X77900000Y-71710000D02*
X77900000Y-73510000D01*
X78650000Y-71710000D02*
X77900000Y-71710000D01*
X78650000Y-60210000D02*
X78650000Y-58410000D01*
X77900000Y-60210000D02*
X78650000Y-60210000D01*
X77900000Y-58410000D02*
X77900000Y-60210000D01*
X78650000Y-58410000D02*
X77900000Y-58410000D01*
X78650000Y-70210000D02*
X78650000Y-61710000D01*
X77900000Y-70210000D02*
X78650000Y-70210000D01*
X77900000Y-61710000D02*
X77900000Y-70210000D01*
X78650000Y-61710000D02*
X77900000Y-61710000D01*
X78660000Y-73520000D02*
X78660000Y-58400000D01*
X72690000Y-73520000D02*
X78660000Y-73520000D01*
X72690000Y-58400000D02*
X72690000Y-73520000D01*
X78660000Y-58400000D02*
X72690000Y-58400000D01*
X145633000Y-85916000D02*
X145633000Y-86072000D01*
X145633000Y-83600000D02*
X145633000Y-83756000D01*
X148234130Y-85915837D02*
G75*
G02*
X146152039Y-85916000I-1041130J1079837D01*
G01*
X148234130Y-83756163D02*
G75*
G03*
X146152039Y-83756000I-1041130J-1079837D01*
G01*
X148865335Y-85914608D02*
G75*
G02*
X145633000Y-86071516I-1672335J1078608D01*
G01*
X148865335Y-83757392D02*
G75*
G03*
X145633000Y-83600484I-1672335J-1078608D01*
G01*
X145633000Y-80836000D02*
X145633000Y-80992000D01*
X145633000Y-78520000D02*
X145633000Y-78676000D01*
X148234130Y-80835837D02*
G75*
G02*
X146152039Y-80836000I-1041130J1079837D01*
G01*
X148234130Y-78676163D02*
G75*
G03*
X146152039Y-78676000I-1041130J-1079837D01*
G01*
X148865335Y-80834608D02*
G75*
G02*
X145633000Y-80991516I-1672335J1078608D01*
G01*
X148865335Y-78677392D02*
G75*
G03*
X145633000Y-78520484I-1672335J-1078608D01*
G01*
X145633000Y-75756000D02*
X145633000Y-75912000D01*
X145633000Y-73440000D02*
X145633000Y-73596000D01*
X148234130Y-75755837D02*
G75*
G02*
X146152039Y-75756000I-1041130J1079837D01*
G01*
X148234130Y-73596163D02*
G75*
G03*
X146152039Y-73596000I-1041130J-1079837D01*
G01*
X148865335Y-75754608D02*
G75*
G02*
X145633000Y-75911516I-1672335J1078608D01*
G01*
X148865335Y-73597392D02*
G75*
G03*
X145633000Y-73440484I-1672335J-1078608D01*
G01*
X145633000Y-70676000D02*
X145633000Y-70832000D01*
X145633000Y-68360000D02*
X145633000Y-68516000D01*
X148234130Y-70675837D02*
G75*
G02*
X146152039Y-70676000I-1041130J1079837D01*
G01*
X148234130Y-68516163D02*
G75*
G03*
X146152039Y-68516000I-1041130J-1079837D01*
G01*
X148865335Y-70674608D02*
G75*
G02*
X145633000Y-70831516I-1672335J1078608D01*
G01*
X148865335Y-68517392D02*
G75*
G03*
X145633000Y-68360484I-1672335J-1078608D01*
G01*
X143195646Y-56715000D02*
X143195646Y-55715000D01*
X143695646Y-56215000D02*
X142695646Y-56215000D01*
X133135000Y-53939000D02*
X133135000Y-52741000D01*
X133175000Y-54202000D02*
X133175000Y-52478000D01*
X133215000Y-54402000D02*
X133215000Y-52278000D01*
X133255000Y-54570000D02*
X133255000Y-52110000D01*
X133295000Y-54718000D02*
X133295000Y-51962000D01*
X133335000Y-54850000D02*
X133335000Y-51830000D01*
X133375000Y-54970000D02*
X133375000Y-51710000D01*
X133415000Y-55082000D02*
X133415000Y-51598000D01*
X133455000Y-55186000D02*
X133455000Y-51494000D01*
X133495000Y-55284000D02*
X133495000Y-51396000D01*
X133535000Y-55377000D02*
X133535000Y-51303000D01*
X133575000Y-55465000D02*
X133575000Y-51215000D01*
X133615000Y-55549000D02*
X133615000Y-51131000D01*
X133655000Y-55629000D02*
X133655000Y-51051000D01*
X133695000Y-55705000D02*
X133695000Y-50975000D01*
X133735000Y-55779000D02*
X133735000Y-50901000D01*
X133775000Y-55850000D02*
X133775000Y-50830000D01*
X133815000Y-55919000D02*
X133815000Y-50761000D01*
X133855000Y-55985000D02*
X133855000Y-50695000D01*
X133895000Y-56049000D02*
X133895000Y-50631000D01*
X133935000Y-56110000D02*
X133935000Y-50570000D01*
X133975000Y-56170000D02*
X133975000Y-50510000D01*
X134015000Y-56229000D02*
X134015000Y-50451000D01*
X134055000Y-56285000D02*
X134055000Y-50395000D01*
X134095000Y-56340000D02*
X134095000Y-50340000D01*
X134135000Y-56394000D02*
X134135000Y-50286000D01*
X134175000Y-56446000D02*
X134175000Y-50234000D01*
X134215000Y-56496000D02*
X134215000Y-50184000D01*
X134255000Y-56546000D02*
X134255000Y-50134000D01*
X134295000Y-56594000D02*
X134295000Y-50086000D01*
X134335000Y-56641000D02*
X134335000Y-50039000D01*
X134375000Y-56687000D02*
X134375000Y-49993000D01*
X134415000Y-56732000D02*
X134415000Y-49948000D01*
X134455000Y-56776000D02*
X134455000Y-49904000D01*
X134495000Y-52099000D02*
X134495000Y-49862000D01*
X134495000Y-56818000D02*
X134495000Y-54581000D01*
X134535000Y-52099000D02*
X134535000Y-49820000D01*
X134535000Y-56860000D02*
X134535000Y-54581000D01*
X134575000Y-52099000D02*
X134575000Y-49779000D01*
X134575000Y-56901000D02*
X134575000Y-54581000D01*
X134615000Y-52099000D02*
X134615000Y-49739000D01*
X134615000Y-56941000D02*
X134615000Y-54581000D01*
X134655000Y-52099000D02*
X134655000Y-49700000D01*
X134655000Y-56980000D02*
X134655000Y-54581000D01*
X134695000Y-52099000D02*
X134695000Y-49661000D01*
X134695000Y-57019000D02*
X134695000Y-54581000D01*
X134735000Y-52099000D02*
X134735000Y-49624000D01*
X134735000Y-57056000D02*
X134735000Y-54581000D01*
X134775000Y-52099000D02*
X134775000Y-49587000D01*
X134775000Y-57093000D02*
X134775000Y-54581000D01*
X134815000Y-52099000D02*
X134815000Y-49551000D01*
X134815000Y-57129000D02*
X134815000Y-54581000D01*
X134855000Y-52099000D02*
X134855000Y-49516000D01*
X134855000Y-57164000D02*
X134855000Y-54581000D01*
X134895000Y-52099000D02*
X134895000Y-49482000D01*
X134895000Y-57198000D02*
X134895000Y-54581000D01*
X134935000Y-52099000D02*
X134935000Y-49448000D01*
X134935000Y-57232000D02*
X134935000Y-54581000D01*
X134975000Y-52099000D02*
X134975000Y-49415000D01*
X134975000Y-57265000D02*
X134975000Y-54581000D01*
X135015000Y-52099000D02*
X135015000Y-49383000D01*
X135015000Y-57297000D02*
X135015000Y-54581000D01*
X135055000Y-52099000D02*
X135055000Y-49351000D01*
X135055000Y-57329000D02*
X135055000Y-54581000D01*
X135095000Y-52099000D02*
X135095000Y-49320000D01*
X135095000Y-57360000D02*
X135095000Y-54581000D01*
X135135000Y-52099000D02*
X135135000Y-49290000D01*
X135135000Y-57390000D02*
X135135000Y-54581000D01*
X135175000Y-52099000D02*
X135175000Y-49260000D01*
X135175000Y-57420000D02*
X135175000Y-54581000D01*
X135215000Y-52099000D02*
X135215000Y-49230000D01*
X135215000Y-57450000D02*
X135215000Y-54581000D01*
X135255000Y-52099000D02*
X135255000Y-49202000D01*
X135255000Y-57478000D02*
X135255000Y-54581000D01*
X135295000Y-52099000D02*
X135295000Y-49174000D01*
X135295000Y-57506000D02*
X135295000Y-54581000D01*
X135335000Y-52099000D02*
X135335000Y-49146000D01*
X135335000Y-57534000D02*
X135335000Y-54581000D01*
X135375000Y-52099000D02*
X135375000Y-49119000D01*
X135375000Y-57561000D02*
X135375000Y-54581000D01*
X135415000Y-52099000D02*
X135415000Y-49093000D01*
X135415000Y-57587000D02*
X135415000Y-54581000D01*
X135455000Y-52099000D02*
X135455000Y-49067000D01*
X135455000Y-57613000D02*
X135455000Y-54581000D01*
X135495000Y-52099000D02*
X135495000Y-49042000D01*
X135495000Y-57638000D02*
X135495000Y-54581000D01*
X135535000Y-52099000D02*
X135535000Y-49017000D01*
X135535000Y-57663000D02*
X135535000Y-54581000D01*
X135575000Y-52099000D02*
X135575000Y-48993000D01*
X135575000Y-57687000D02*
X135575000Y-54581000D01*
X135615000Y-52099000D02*
X135615000Y-48969000D01*
X135615000Y-57711000D02*
X135615000Y-54581000D01*
X135655000Y-52099000D02*
X135655000Y-48945000D01*
X135655000Y-57735000D02*
X135655000Y-54581000D01*
X135695000Y-52099000D02*
X135695000Y-48923000D01*
X135695000Y-57757000D02*
X135695000Y-54581000D01*
X135735000Y-52099000D02*
X135735000Y-48900000D01*
X135735000Y-57780000D02*
X135735000Y-54581000D01*
X135775000Y-52099000D02*
X135775000Y-48878000D01*
X135775000Y-57802000D02*
X135775000Y-54581000D01*
X135815000Y-52099000D02*
X135815000Y-48857000D01*
X135815000Y-57823000D02*
X135815000Y-54581000D01*
X135855000Y-52099000D02*
X135855000Y-48836000D01*
X135855000Y-57844000D02*
X135855000Y-54581000D01*
X135895000Y-52099000D02*
X135895000Y-48815000D01*
X135895000Y-57865000D02*
X135895000Y-54581000D01*
X135935000Y-52099000D02*
X135935000Y-48795000D01*
X135935000Y-57885000D02*
X135935000Y-54581000D01*
X135975000Y-52099000D02*
X135975000Y-48776000D01*
X135975000Y-57904000D02*
X135975000Y-54581000D01*
X136015000Y-52099000D02*
X136015000Y-48756000D01*
X136015000Y-57924000D02*
X136015000Y-54581000D01*
X136055000Y-52099000D02*
X136055000Y-48737000D01*
X136055000Y-57943000D02*
X136055000Y-54581000D01*
X136095000Y-52099000D02*
X136095000Y-48719000D01*
X136095000Y-57961000D02*
X136095000Y-54581000D01*
X136135000Y-52099000D02*
X136135000Y-48701000D01*
X136135000Y-57979000D02*
X136135000Y-54581000D01*
X136175000Y-52099000D02*
X136175000Y-48683000D01*
X136175000Y-57997000D02*
X136175000Y-54581000D01*
X136215000Y-52099000D02*
X136215000Y-48666000D01*
X136215000Y-58014000D02*
X136215000Y-54581000D01*
X136255000Y-52099000D02*
X136255000Y-48650000D01*
X136255000Y-58030000D02*
X136255000Y-54581000D01*
X136295000Y-52099000D02*
X136295000Y-48633000D01*
X136295000Y-58047000D02*
X136295000Y-54581000D01*
X136335000Y-52099000D02*
X136335000Y-48617000D01*
X136335000Y-58063000D02*
X136335000Y-54581000D01*
X136375000Y-52099000D02*
X136375000Y-48602000D01*
X136375000Y-58078000D02*
X136375000Y-54581000D01*
X136415000Y-52099000D02*
X136415000Y-48586000D01*
X136415000Y-58094000D02*
X136415000Y-54581000D01*
X136455000Y-52099000D02*
X136455000Y-48572000D01*
X136455000Y-58108000D02*
X136455000Y-54581000D01*
X136495000Y-52099000D02*
X136495000Y-48557000D01*
X136495000Y-58123000D02*
X136495000Y-54581000D01*
X136535000Y-52099000D02*
X136535000Y-48543000D01*
X136535000Y-58137000D02*
X136535000Y-54581000D01*
X136575000Y-52099000D02*
X136575000Y-48529000D01*
X136575000Y-58151000D02*
X136575000Y-54581000D01*
X136615000Y-52099000D02*
X136615000Y-48516000D01*
X136615000Y-58164000D02*
X136615000Y-54581000D01*
X136655000Y-52099000D02*
X136655000Y-48503000D01*
X136655000Y-58177000D02*
X136655000Y-54581000D01*
X136695000Y-52099000D02*
X136695000Y-48490000D01*
X136695000Y-58190000D02*
X136695000Y-54581000D01*
X136735000Y-52099000D02*
X136735000Y-48478000D01*
X136735000Y-58202000D02*
X136735000Y-54581000D01*
X136775000Y-52099000D02*
X136775000Y-48466000D01*
X136775000Y-58214000D02*
X136775000Y-54581000D01*
X136815000Y-52099000D02*
X136815000Y-48455000D01*
X136815000Y-58225000D02*
X136815000Y-54581000D01*
X136855000Y-52099000D02*
X136855000Y-48443000D01*
X136855000Y-58237000D02*
X136855000Y-54581000D01*
X136895000Y-52099000D02*
X136895000Y-48433000D01*
X136895000Y-58247000D02*
X136895000Y-54581000D01*
X136935000Y-52099000D02*
X136935000Y-48422000D01*
X136935000Y-58258000D02*
X136935000Y-54581000D01*
X136975000Y-58268000D02*
X136975000Y-48412000D01*
X137015000Y-58278000D02*
X137015000Y-48402000D01*
X137055000Y-58287000D02*
X137055000Y-48393000D01*
X137095000Y-58296000D02*
X137095000Y-48384000D01*
X137135000Y-58305000D02*
X137135000Y-48375000D01*
X137175000Y-58314000D02*
X137175000Y-48366000D01*
X137215000Y-58322000D02*
X137215000Y-48358000D01*
X137255000Y-58330000D02*
X137255000Y-48350000D01*
X137295000Y-58337000D02*
X137295000Y-48343000D01*
X137335000Y-58344000D02*
X137335000Y-48336000D01*
X137375000Y-58351000D02*
X137375000Y-48329000D01*
X137415000Y-58358000D02*
X137415000Y-48322000D01*
X137455000Y-58364000D02*
X137455000Y-48316000D01*
X137495000Y-58370000D02*
X137495000Y-48310000D01*
X137536000Y-58375000D02*
X137536000Y-48305000D01*
X137576000Y-58380000D02*
X137576000Y-48300000D01*
X137616000Y-58385000D02*
X137616000Y-48295000D01*
X137656000Y-58390000D02*
X137656000Y-48290000D01*
X137696000Y-58394000D02*
X137696000Y-48286000D01*
X137736000Y-58398000D02*
X137736000Y-48282000D01*
X137776000Y-58402000D02*
X137776000Y-48278000D01*
X137816000Y-58405000D02*
X137816000Y-48275000D01*
X137856000Y-58408000D02*
X137856000Y-48272000D01*
X137896000Y-58410000D02*
X137896000Y-48270000D01*
X137936000Y-58413000D02*
X137936000Y-48267000D01*
X137976000Y-58415000D02*
X137976000Y-48265000D01*
X138016000Y-58417000D02*
X138016000Y-48263000D01*
X138056000Y-58418000D02*
X138056000Y-48262000D01*
X138096000Y-58419000D02*
X138096000Y-48261000D01*
X138136000Y-58420000D02*
X138136000Y-48260000D01*
X138176000Y-58420000D02*
X138176000Y-48260000D01*
X138216000Y-58420000D02*
X138216000Y-48260000D01*
X143336000Y-53340000D02*
G75*
G03*
X143336000Y-53340000I-5120000J0D01*
G01*
X109079646Y-56715000D02*
X109079646Y-55715000D01*
X109579646Y-56215000D02*
X108579646Y-56215000D01*
X99019000Y-53939000D02*
X99019000Y-52741000D01*
X99059000Y-54202000D02*
X99059000Y-52478000D01*
X99099000Y-54402000D02*
X99099000Y-52278000D01*
X99139000Y-54570000D02*
X99139000Y-52110000D01*
X99179000Y-54718000D02*
X99179000Y-51962000D01*
X99219000Y-54850000D02*
X99219000Y-51830000D01*
X99259000Y-54970000D02*
X99259000Y-51710000D01*
X99299000Y-55082000D02*
X99299000Y-51598000D01*
X99339000Y-55186000D02*
X99339000Y-51494000D01*
X99379000Y-55284000D02*
X99379000Y-51396000D01*
X99419000Y-55377000D02*
X99419000Y-51303000D01*
X99459000Y-55465000D02*
X99459000Y-51215000D01*
X99499000Y-55549000D02*
X99499000Y-51131000D01*
X99539000Y-55629000D02*
X99539000Y-51051000D01*
X99579000Y-55705000D02*
X99579000Y-50975000D01*
X99619000Y-55779000D02*
X99619000Y-50901000D01*
X99659000Y-55850000D02*
X99659000Y-50830000D01*
X99699000Y-55919000D02*
X99699000Y-50761000D01*
X99739000Y-55985000D02*
X99739000Y-50695000D01*
X99779000Y-56049000D02*
X99779000Y-50631000D01*
X99819000Y-56110000D02*
X99819000Y-50570000D01*
X99859000Y-56170000D02*
X99859000Y-50510000D01*
X99899000Y-56229000D02*
X99899000Y-50451000D01*
X99939000Y-56285000D02*
X99939000Y-50395000D01*
X99979000Y-56340000D02*
X99979000Y-50340000D01*
X100019000Y-56394000D02*
X100019000Y-50286000D01*
X100059000Y-56446000D02*
X100059000Y-50234000D01*
X100099000Y-56496000D02*
X100099000Y-50184000D01*
X100139000Y-56546000D02*
X100139000Y-50134000D01*
X100179000Y-56594000D02*
X100179000Y-50086000D01*
X100219000Y-56641000D02*
X100219000Y-50039000D01*
X100259000Y-56687000D02*
X100259000Y-49993000D01*
X100299000Y-56732000D02*
X100299000Y-49948000D01*
X100339000Y-56776000D02*
X100339000Y-49904000D01*
X100379000Y-52099000D02*
X100379000Y-49862000D01*
X100379000Y-56818000D02*
X100379000Y-54581000D01*
X100419000Y-52099000D02*
X100419000Y-49820000D01*
X100419000Y-56860000D02*
X100419000Y-54581000D01*
X100459000Y-52099000D02*
X100459000Y-49779000D01*
X100459000Y-56901000D02*
X100459000Y-54581000D01*
X100499000Y-52099000D02*
X100499000Y-49739000D01*
X100499000Y-56941000D02*
X100499000Y-54581000D01*
X100539000Y-52099000D02*
X100539000Y-49700000D01*
X100539000Y-56980000D02*
X100539000Y-54581000D01*
X100579000Y-52099000D02*
X100579000Y-49661000D01*
X100579000Y-57019000D02*
X100579000Y-54581000D01*
X100619000Y-52099000D02*
X100619000Y-49624000D01*
X100619000Y-57056000D02*
X100619000Y-54581000D01*
X100659000Y-52099000D02*
X100659000Y-49587000D01*
X100659000Y-57093000D02*
X100659000Y-54581000D01*
X100699000Y-52099000D02*
X100699000Y-49551000D01*
X100699000Y-57129000D02*
X100699000Y-54581000D01*
X100739000Y-52099000D02*
X100739000Y-49516000D01*
X100739000Y-57164000D02*
X100739000Y-54581000D01*
X100779000Y-52099000D02*
X100779000Y-49482000D01*
X100779000Y-57198000D02*
X100779000Y-54581000D01*
X100819000Y-52099000D02*
X100819000Y-49448000D01*
X100819000Y-57232000D02*
X100819000Y-54581000D01*
X100859000Y-52099000D02*
X100859000Y-49415000D01*
X100859000Y-57265000D02*
X100859000Y-54581000D01*
X100899000Y-52099000D02*
X100899000Y-49383000D01*
X100899000Y-57297000D02*
X100899000Y-54581000D01*
X100939000Y-52099000D02*
X100939000Y-49351000D01*
X100939000Y-57329000D02*
X100939000Y-54581000D01*
X100979000Y-52099000D02*
X100979000Y-49320000D01*
X100979000Y-57360000D02*
X100979000Y-54581000D01*
X101019000Y-52099000D02*
X101019000Y-49290000D01*
X101019000Y-57390000D02*
X101019000Y-54581000D01*
X101059000Y-52099000D02*
X101059000Y-49260000D01*
X101059000Y-57420000D02*
X101059000Y-54581000D01*
X101099000Y-52099000D02*
X101099000Y-49230000D01*
X101099000Y-57450000D02*
X101099000Y-54581000D01*
X101139000Y-52099000D02*
X101139000Y-49202000D01*
X101139000Y-57478000D02*
X101139000Y-54581000D01*
X101179000Y-52099000D02*
X101179000Y-49174000D01*
X101179000Y-57506000D02*
X101179000Y-54581000D01*
X101219000Y-52099000D02*
X101219000Y-49146000D01*
X101219000Y-57534000D02*
X101219000Y-54581000D01*
X101259000Y-52099000D02*
X101259000Y-49119000D01*
X101259000Y-57561000D02*
X101259000Y-54581000D01*
X101299000Y-52099000D02*
X101299000Y-49093000D01*
X101299000Y-57587000D02*
X101299000Y-54581000D01*
X101339000Y-52099000D02*
X101339000Y-49067000D01*
X101339000Y-57613000D02*
X101339000Y-54581000D01*
X101379000Y-52099000D02*
X101379000Y-49042000D01*
X101379000Y-57638000D02*
X101379000Y-54581000D01*
X101419000Y-52099000D02*
X101419000Y-49017000D01*
X101419000Y-57663000D02*
X101419000Y-54581000D01*
X101459000Y-52099000D02*
X101459000Y-48993000D01*
X101459000Y-57687000D02*
X101459000Y-54581000D01*
X101499000Y-52099000D02*
X101499000Y-48969000D01*
X101499000Y-57711000D02*
X101499000Y-54581000D01*
X101539000Y-52099000D02*
X101539000Y-48945000D01*
X101539000Y-57735000D02*
X101539000Y-54581000D01*
X101579000Y-52099000D02*
X101579000Y-48923000D01*
X101579000Y-57757000D02*
X101579000Y-54581000D01*
X101619000Y-52099000D02*
X101619000Y-48900000D01*
X101619000Y-57780000D02*
X101619000Y-54581000D01*
X101659000Y-52099000D02*
X101659000Y-48878000D01*
X101659000Y-57802000D02*
X101659000Y-54581000D01*
X101699000Y-52099000D02*
X101699000Y-48857000D01*
X101699000Y-57823000D02*
X101699000Y-54581000D01*
X101739000Y-52099000D02*
X101739000Y-48836000D01*
X101739000Y-57844000D02*
X101739000Y-54581000D01*
X101779000Y-52099000D02*
X101779000Y-48815000D01*
X101779000Y-57865000D02*
X101779000Y-54581000D01*
X101819000Y-52099000D02*
X101819000Y-48795000D01*
X101819000Y-57885000D02*
X101819000Y-54581000D01*
X101859000Y-52099000D02*
X101859000Y-48776000D01*
X101859000Y-57904000D02*
X101859000Y-54581000D01*
X101899000Y-52099000D02*
X101899000Y-48756000D01*
X101899000Y-57924000D02*
X101899000Y-54581000D01*
X101939000Y-52099000D02*
X101939000Y-48737000D01*
X101939000Y-57943000D02*
X101939000Y-54581000D01*
X101979000Y-52099000D02*
X101979000Y-48719000D01*
X101979000Y-57961000D02*
X101979000Y-54581000D01*
X102019000Y-52099000D02*
X102019000Y-48701000D01*
X102019000Y-57979000D02*
X102019000Y-54581000D01*
X102059000Y-52099000D02*
X102059000Y-48683000D01*
X102059000Y-57997000D02*
X102059000Y-54581000D01*
X102099000Y-52099000D02*
X102099000Y-48666000D01*
X102099000Y-58014000D02*
X102099000Y-54581000D01*
X102139000Y-52099000D02*
X102139000Y-48650000D01*
X102139000Y-58030000D02*
X102139000Y-54581000D01*
X102179000Y-52099000D02*
X102179000Y-48633000D01*
X102179000Y-58047000D02*
X102179000Y-54581000D01*
X102219000Y-52099000D02*
X102219000Y-48617000D01*
X102219000Y-58063000D02*
X102219000Y-54581000D01*
X102259000Y-52099000D02*
X102259000Y-48602000D01*
X102259000Y-58078000D02*
X102259000Y-54581000D01*
X102299000Y-52099000D02*
X102299000Y-48586000D01*
X102299000Y-58094000D02*
X102299000Y-54581000D01*
X102339000Y-52099000D02*
X102339000Y-48572000D01*
X102339000Y-58108000D02*
X102339000Y-54581000D01*
X102379000Y-52099000D02*
X102379000Y-48557000D01*
X102379000Y-58123000D02*
X102379000Y-54581000D01*
X102419000Y-52099000D02*
X102419000Y-48543000D01*
X102419000Y-58137000D02*
X102419000Y-54581000D01*
X102459000Y-52099000D02*
X102459000Y-48529000D01*
X102459000Y-58151000D02*
X102459000Y-54581000D01*
X102499000Y-52099000D02*
X102499000Y-48516000D01*
X102499000Y-58164000D02*
X102499000Y-54581000D01*
X102539000Y-52099000D02*
X102539000Y-48503000D01*
X102539000Y-58177000D02*
X102539000Y-54581000D01*
X102579000Y-52099000D02*
X102579000Y-48490000D01*
X102579000Y-58190000D02*
X102579000Y-54581000D01*
X102619000Y-52099000D02*
X102619000Y-48478000D01*
X102619000Y-58202000D02*
X102619000Y-54581000D01*
X102659000Y-52099000D02*
X102659000Y-48466000D01*
X102659000Y-58214000D02*
X102659000Y-54581000D01*
X102699000Y-52099000D02*
X102699000Y-48455000D01*
X102699000Y-58225000D02*
X102699000Y-54581000D01*
X102739000Y-52099000D02*
X102739000Y-48443000D01*
X102739000Y-58237000D02*
X102739000Y-54581000D01*
X102779000Y-52099000D02*
X102779000Y-48433000D01*
X102779000Y-58247000D02*
X102779000Y-54581000D01*
X102819000Y-52099000D02*
X102819000Y-48422000D01*
X102819000Y-58258000D02*
X102819000Y-54581000D01*
X102859000Y-58268000D02*
X102859000Y-48412000D01*
X102899000Y-58278000D02*
X102899000Y-48402000D01*
X102939000Y-58287000D02*
X102939000Y-48393000D01*
X102979000Y-58296000D02*
X102979000Y-48384000D01*
X103019000Y-58305000D02*
X103019000Y-48375000D01*
X103059000Y-58314000D02*
X103059000Y-48366000D01*
X103099000Y-58322000D02*
X103099000Y-48358000D01*
X103139000Y-58330000D02*
X103139000Y-48350000D01*
X103179000Y-58337000D02*
X103179000Y-48343000D01*
X103219000Y-58344000D02*
X103219000Y-48336000D01*
X103259000Y-58351000D02*
X103259000Y-48329000D01*
X103299000Y-58358000D02*
X103299000Y-48322000D01*
X103339000Y-58364000D02*
X103339000Y-48316000D01*
X103379000Y-58370000D02*
X103379000Y-48310000D01*
X103420000Y-58375000D02*
X103420000Y-48305000D01*
X103460000Y-58380000D02*
X103460000Y-48300000D01*
X103500000Y-58385000D02*
X103500000Y-48295000D01*
X103540000Y-58390000D02*
X103540000Y-48290000D01*
X103580000Y-58394000D02*
X103580000Y-48286000D01*
X103620000Y-58398000D02*
X103620000Y-48282000D01*
X103660000Y-58402000D02*
X103660000Y-48278000D01*
X103700000Y-58405000D02*
X103700000Y-48275000D01*
X103740000Y-58408000D02*
X103740000Y-48272000D01*
X103780000Y-58410000D02*
X103780000Y-48270000D01*
X103820000Y-58413000D02*
X103820000Y-48267000D01*
X103860000Y-58415000D02*
X103860000Y-48265000D01*
X103900000Y-58417000D02*
X103900000Y-48263000D01*
X103940000Y-58418000D02*
X103940000Y-48262000D01*
X103980000Y-58419000D02*
X103980000Y-48261000D01*
X104020000Y-58420000D02*
X104020000Y-48260000D01*
X104060000Y-58420000D02*
X104060000Y-48260000D01*
X104100000Y-58420000D02*
X104100000Y-48260000D01*
X109220000Y-53340000D02*
G75*
G03*
X109220000Y-53340000I-5120000J0D01*
G01*
X128060000Y-85400000D02*
X129310000Y-85400000D01*
X128060000Y-84150000D02*
X128060000Y-85400000D01*
X133560000Y-73250000D02*
X133560000Y-78800000D01*
X130610000Y-73250000D02*
X133560000Y-73250000D01*
X130610000Y-72500000D02*
X130610000Y-73250000D01*
X133560000Y-84350000D02*
X133560000Y-78800000D01*
X130610000Y-84350000D02*
X133560000Y-84350000D01*
X130610000Y-85100000D02*
X130610000Y-84350000D01*
X128360000Y-72500000D02*
X128360000Y-74300000D01*
X129110000Y-72500000D02*
X128360000Y-72500000D01*
X129110000Y-74300000D02*
X129110000Y-72500000D01*
X128360000Y-74300000D02*
X129110000Y-74300000D01*
X128360000Y-83300000D02*
X128360000Y-85100000D01*
X129110000Y-83300000D02*
X128360000Y-83300000D01*
X129110000Y-85100000D02*
X129110000Y-83300000D01*
X128360000Y-85100000D02*
X129110000Y-85100000D01*
X128360000Y-75800000D02*
X128360000Y-81800000D01*
X129110000Y-75800000D02*
X128360000Y-75800000D01*
X129110000Y-81800000D02*
X129110000Y-75800000D01*
X128360000Y-81800000D02*
X129110000Y-81800000D01*
X128350000Y-72490000D02*
X128350000Y-85110000D01*
X134320000Y-72490000D02*
X128350000Y-72490000D01*
X134320000Y-85110000D02*
X134320000Y-72490000D01*
X128350000Y-85110000D02*
X134320000Y-85110000D01*
X51860000Y-79010000D02*
X53110000Y-79010000D01*
X51860000Y-77760000D02*
X51860000Y-79010000D01*
X57360000Y-71860000D02*
X57360000Y-74910000D01*
X54410000Y-71860000D02*
X57360000Y-71860000D01*
X54410000Y-71110000D02*
X54410000Y-71860000D01*
X57360000Y-77960000D02*
X57360000Y-74910000D01*
X54410000Y-77960000D02*
X57360000Y-77960000D01*
X54410000Y-78710000D02*
X54410000Y-77960000D01*
X52160000Y-71110000D02*
X52160000Y-72910000D01*
X52910000Y-71110000D02*
X52160000Y-71110000D01*
X52910000Y-72910000D02*
X52910000Y-71110000D01*
X52160000Y-72910000D02*
X52910000Y-72910000D01*
X52160000Y-76910000D02*
X52160000Y-78710000D01*
X52910000Y-76910000D02*
X52160000Y-76910000D01*
X52910000Y-78710000D02*
X52910000Y-76910000D01*
X52160000Y-78710000D02*
X52910000Y-78710000D01*
X52160000Y-74410000D02*
X52160000Y-75410000D01*
X52910000Y-74410000D02*
X52160000Y-74410000D01*
X52910000Y-75410000D02*
X52910000Y-74410000D01*
X52160000Y-75410000D02*
X52910000Y-75410000D01*
X52150000Y-71100000D02*
X52150000Y-78720000D01*
X58120000Y-71100000D02*
X52150000Y-71100000D01*
X58120000Y-78720000D02*
X58120000Y-71100000D01*
X52150000Y-78720000D02*
X58120000Y-78720000D01*
X163322000Y-52408000D02*
X163322000Y-51558000D01*
X163322000Y-34968000D02*
X163322000Y-35818000D01*
X165942000Y-51558000D02*
X165942000Y-35818000D01*
X160702000Y-51558000D02*
X165942000Y-51558000D01*
X160702000Y-35818000D02*
X160702000Y-51558000D01*
X165942000Y-35818000D02*
X160702000Y-35818000D01*
X113665000Y-41105000D02*
X113665000Y-40255000D01*
X113665000Y-23665000D02*
X113665000Y-24515000D01*
X116285000Y-40255000D02*
X116285000Y-24515000D01*
X111045000Y-40255000D02*
X116285000Y-40255000D01*
X111045000Y-24515000D02*
X111045000Y-40255000D01*
X116285000Y-24515000D02*
X111045000Y-24515000D01*
X157734000Y-34968000D02*
X157734000Y-35818000D01*
X157734000Y-52408000D02*
X157734000Y-51558000D01*
X155114000Y-35818000D02*
X155114000Y-51558000D01*
X160354000Y-35818000D02*
X155114000Y-35818000D01*
X160354000Y-51558000D02*
X160354000Y-35818000D01*
X155114000Y-51558000D02*
X160354000Y-51558000D01*
X119634000Y-23665000D02*
X119634000Y-24515000D01*
X119634000Y-41105000D02*
X119634000Y-40255000D01*
X117014000Y-24515000D02*
X117014000Y-40255000D01*
X122254000Y-24515000D02*
X117014000Y-24515000D01*
X122254000Y-40255000D02*
X122254000Y-24515000D01*
X117014000Y-40255000D02*
X122254000Y-40255000D01*
X146558000Y-52408000D02*
X146558000Y-51558000D01*
X146558000Y-34968000D02*
X146558000Y-35818000D01*
X149178000Y-51558000D02*
X149178000Y-35818000D01*
X143938000Y-51558000D02*
X149178000Y-51558000D01*
X143938000Y-35818000D02*
X143938000Y-51558000D01*
X149178000Y-35818000D02*
X143938000Y-35818000D01*
X152146000Y-52408000D02*
X152146000Y-51558000D01*
X152146000Y-34968000D02*
X152146000Y-35818000D01*
X154766000Y-51558000D02*
X154766000Y-35818000D01*
X149526000Y-51558000D02*
X154766000Y-51558000D01*
X149526000Y-35818000D02*
X149526000Y-51558000D01*
X154766000Y-35818000D02*
X149526000Y-35818000D01*
D11*
X23480000Y-80620000D02*
X23480000Y-48920000D01*
X23480000Y-48920000D02*
X50180000Y-48920000D01*
X50180000Y-48920000D02*
X50180000Y-80620000D01*
X50180000Y-80620000D02*
X23480000Y-80620000D01*
D14*
X22380000Y-54770000D02*
G75*
G03*
X22380000Y-54770000I-200000J0D01*
G01*
D12*
X45635000Y-36195000D02*
G75*
G03*
X45635000Y-36195000I-4360000J0D01*
G01*
X56642000Y-38735000D02*
G75*
G03*
X56642000Y-38735000I-127000J0D01*
G01*
X51015000Y-53750000D02*
X51015000Y-32610000D01*
X62015000Y-53750000D02*
X51015000Y-53750000D01*
X62015000Y-32610000D02*
X51015000Y-32610000D01*
X62015000Y-53750000D02*
X62015000Y-32610000D01*
X58035000Y-49020000D02*
X58035000Y-49530000D01*
X55495000Y-49020000D02*
X58035000Y-49020000D01*
X55495000Y-49530000D02*
X55495000Y-49020000D01*
X55495000Y-50040000D02*
X55495000Y-49530000D01*
X58035000Y-50040000D02*
X55495000Y-50040000D01*
X58035000Y-49530000D02*
X58035000Y-50040000D01*
X60325000Y-50800000D02*
X60325000Y-49530000D01*
X60325000Y-49530000D02*
X58035000Y-49530000D01*
X55495000Y-49530000D02*
X52705000Y-49530000D01*
X52705000Y-49530000D02*
X52705000Y-50800000D01*
X57275000Y-50040000D02*
X56265000Y-49020000D01*
X56515000Y-41910000D02*
X56515000Y-38735000D01*
X59055000Y-41910000D02*
X56515000Y-41910000D01*
X53975000Y-36830000D02*
X55245000Y-36830000D01*
X56515000Y-38735000D02*
X53975000Y-34925000D01*
X59055000Y-34290000D02*
X56515000Y-34290000D01*
X68707000Y-38735000D02*
G75*
G03*
X68707000Y-38735000I-127000J0D01*
G01*
X63080000Y-53750000D02*
X63080000Y-32610000D01*
X74080000Y-53750000D02*
X63080000Y-53750000D01*
X74080000Y-32610000D02*
X63080000Y-32610000D01*
X74080000Y-53750000D02*
X74080000Y-32610000D01*
X70100000Y-49020000D02*
X70100000Y-49530000D01*
X67560000Y-49020000D02*
X70100000Y-49020000D01*
X67560000Y-49530000D02*
X67560000Y-49020000D01*
X67560000Y-50040000D02*
X67560000Y-49530000D01*
X70100000Y-50040000D02*
X67560000Y-50040000D01*
X70100000Y-49530000D02*
X70100000Y-50040000D01*
X72390000Y-50800000D02*
X72390000Y-49530000D01*
X72390000Y-49530000D02*
X70100000Y-49530000D01*
X67560000Y-49530000D02*
X64770000Y-49530000D01*
X64770000Y-49530000D02*
X64770000Y-50800000D01*
X69340000Y-50040000D02*
X68330000Y-49020000D01*
X68580000Y-41910000D02*
X68580000Y-38735000D01*
X71120000Y-41910000D02*
X68580000Y-41910000D01*
X66040000Y-36830000D02*
X67310000Y-36830000D01*
X68580000Y-38735000D02*
X66040000Y-34925000D01*
X71120000Y-34290000D02*
X68580000Y-34290000D01*
X92202000Y-38735000D02*
G75*
G03*
X92202000Y-38735000I-127000J0D01*
G01*
X86575000Y-53750000D02*
X86575000Y-32610000D01*
X97575000Y-53750000D02*
X86575000Y-53750000D01*
X97575000Y-32610000D02*
X86575000Y-32610000D01*
X97575000Y-53750000D02*
X97575000Y-32610000D01*
X93595000Y-49020000D02*
X93595000Y-49530000D01*
X91055000Y-49020000D02*
X93595000Y-49020000D01*
X91055000Y-49530000D02*
X91055000Y-49020000D01*
X91055000Y-50040000D02*
X91055000Y-49530000D01*
X93595000Y-50040000D02*
X91055000Y-50040000D01*
X93595000Y-49530000D02*
X93595000Y-50040000D01*
X95885000Y-50800000D02*
X95885000Y-49530000D01*
X95885000Y-49530000D02*
X93595000Y-49530000D01*
X91055000Y-49530000D02*
X88265000Y-49530000D01*
X88265000Y-49530000D02*
X88265000Y-50800000D01*
X92835000Y-50040000D02*
X91825000Y-49020000D01*
X92075000Y-41910000D02*
X92075000Y-38735000D01*
X94615000Y-41910000D02*
X92075000Y-41910000D01*
X89535000Y-36830000D02*
X90805000Y-36830000D01*
X92075000Y-38735000D02*
X89535000Y-34925000D01*
X94615000Y-34290000D02*
X92075000Y-34290000D01*
D13*
X164992000Y-30390000D02*
X143872000Y-30390000D01*
X143872000Y-30390000D02*
X143872000Y-12190000D01*
X143872000Y-12190000D02*
X164992000Y-12190000D01*
X164992000Y-12190000D02*
X164992000Y-30390000D01*
X95650000Y-30390000D02*
X74530000Y-30390000D01*
X74530000Y-30390000D02*
X74530000Y-12190000D01*
X74530000Y-12190000D02*
X95650000Y-12190000D01*
X95650000Y-12190000D02*
X95650000Y-30390000D01*
D10*
X182303626Y-12066124D02*
X182303626Y-12875960D01*
X182351263Y-12971235D01*
X182398901Y-13018873D01*
X182494175Y-13066510D01*
X182684725Y-13066510D01*
X182780000Y-13018873D01*
X182827637Y-12971235D01*
X182875275Y-12875960D01*
X182875275Y-12066124D01*
X183256374Y-12066124D02*
X183923298Y-12066124D01*
X183494561Y-13066510D01*
X169892380Y-61555523D02*
X170606666Y-61555523D01*
X170749523Y-61603142D01*
X170844761Y-61698380D01*
X170892380Y-61841238D01*
X170892380Y-61936476D01*
X170892380Y-60555523D02*
X170892380Y-61126952D01*
X170892380Y-60841238D02*
X169892380Y-60841238D01*
X170035238Y-60936476D01*
X170130476Y-61031714D01*
X170178095Y-61126952D01*
X170892380Y-59603142D02*
X170892380Y-60174571D01*
X170892380Y-59888857D02*
X169892380Y-59888857D01*
X170035238Y-59984095D01*
X170130476Y-60079333D01*
X170178095Y-60174571D01*
X210024380Y-22987523D02*
X210738666Y-22987523D01*
X210881523Y-23035142D01*
X210976761Y-23130380D01*
X211024380Y-23273238D01*
X211024380Y-23368476D01*
X211024380Y-21987523D02*
X211024380Y-22558952D01*
X211024380Y-22273238D02*
X210024380Y-22273238D01*
X210167238Y-22368476D01*
X210262476Y-22463714D01*
X210310095Y-22558952D01*
X210024380Y-21368476D02*
X210024380Y-21273238D01*
X210072000Y-21178000D01*
X210119619Y-21130380D01*
X210214857Y-21082761D01*
X210405333Y-21035142D01*
X210643428Y-21035142D01*
X210833904Y-21082761D01*
X210929142Y-21130380D01*
X210976761Y-21178000D01*
X211024380Y-21273238D01*
X211024380Y-21368476D01*
X210976761Y-21463714D01*
X210929142Y-21511333D01*
X210833904Y-21558952D01*
X210643428Y-21606571D01*
X210405333Y-21606571D01*
X210214857Y-21558952D01*
X210119619Y-21511333D01*
X210072000Y-21463714D01*
X210024380Y-21368476D01*
X169892380Y-23019333D02*
X170606666Y-23019333D01*
X170749523Y-23066952D01*
X170844761Y-23162190D01*
X170892380Y-23305047D01*
X170892380Y-23400285D01*
X170892380Y-22495523D02*
X170892380Y-22305047D01*
X170844761Y-22209809D01*
X170797142Y-22162190D01*
X170654285Y-22066952D01*
X170463809Y-22019333D01*
X170082857Y-22019333D01*
X169987619Y-22066952D01*
X169940000Y-22114571D01*
X169892380Y-22209809D01*
X169892380Y-22400285D01*
X169940000Y-22495523D01*
X169987619Y-22543142D01*
X170082857Y-22590761D01*
X170320952Y-22590761D01*
X170416190Y-22543142D01*
X170463809Y-22495523D01*
X170511428Y-22400285D01*
X170511428Y-22209809D01*
X170463809Y-22114571D01*
X170416190Y-22066952D01*
X170320952Y-22019333D01*
X84761904Y-60702380D02*
X84761904Y-59702380D01*
X85000000Y-59702380D01*
X85142857Y-59750000D01*
X85238095Y-59845238D01*
X85285714Y-59940476D01*
X85333333Y-60130952D01*
X85333333Y-60273809D01*
X85285714Y-60464285D01*
X85238095Y-60559523D01*
X85142857Y-60654761D01*
X85000000Y-60702380D01*
X84761904Y-60702380D01*
X86190476Y-60035714D02*
X86190476Y-60702380D01*
X85952380Y-59654761D02*
X85714285Y-60369047D01*
X86333333Y-60369047D01*
X83488095Y-60702380D02*
X83488095Y-59702380D01*
X84059523Y-60702380D02*
X83630952Y-60130952D01*
X84059523Y-59702380D02*
X83488095Y-60273809D01*
X84761904Y-63952380D02*
X84761904Y-62952380D01*
X85000000Y-62952380D01*
X85142857Y-63000000D01*
X85238095Y-63095238D01*
X85285714Y-63190476D01*
X85333333Y-63380952D01*
X85333333Y-63523809D01*
X85285714Y-63714285D01*
X85238095Y-63809523D01*
X85142857Y-63904761D01*
X85000000Y-63952380D01*
X84761904Y-63952380D01*
X85666666Y-62952380D02*
X86285714Y-62952380D01*
X85952380Y-63333333D01*
X86095238Y-63333333D01*
X86190476Y-63380952D01*
X86238095Y-63428571D01*
X86285714Y-63523809D01*
X86285714Y-63761904D01*
X86238095Y-63857142D01*
X86190476Y-63904761D01*
X86095238Y-63952380D01*
X85809523Y-63952380D01*
X85714285Y-63904761D01*
X85666666Y-63857142D01*
X83488095Y-63952380D02*
X83488095Y-62952380D01*
X84059523Y-63952380D02*
X83630952Y-63380952D01*
X84059523Y-62952380D02*
X83488095Y-63523809D01*
X84761904Y-67202380D02*
X84761904Y-66202380D01*
X85000000Y-66202380D01*
X85142857Y-66250000D01*
X85238095Y-66345238D01*
X85285714Y-66440476D01*
X85333333Y-66630952D01*
X85333333Y-66773809D01*
X85285714Y-66964285D01*
X85238095Y-67059523D01*
X85142857Y-67154761D01*
X85000000Y-67202380D01*
X84761904Y-67202380D01*
X85714285Y-66297619D02*
X85761904Y-66250000D01*
X85857142Y-66202380D01*
X86095238Y-66202380D01*
X86190476Y-66250000D01*
X86238095Y-66297619D01*
X86285714Y-66392857D01*
X86285714Y-66488095D01*
X86238095Y-66630952D01*
X85666666Y-67202380D01*
X86285714Y-67202380D01*
X83488095Y-67202380D02*
X83488095Y-66202380D01*
X84059523Y-67202380D02*
X83630952Y-66630952D01*
X84059523Y-66202380D02*
X83488095Y-66773809D01*
X84761904Y-70452380D02*
X84761904Y-69452380D01*
X85000000Y-69452380D01*
X85142857Y-69500000D01*
X85238095Y-69595238D01*
X85285714Y-69690476D01*
X85333333Y-69880952D01*
X85333333Y-70023809D01*
X85285714Y-70214285D01*
X85238095Y-70309523D01*
X85142857Y-70404761D01*
X85000000Y-70452380D01*
X84761904Y-70452380D01*
X86285714Y-70452380D02*
X85714285Y-70452380D01*
X86000000Y-70452380D02*
X86000000Y-69452380D01*
X85904761Y-69595238D01*
X85809523Y-69690476D01*
X85714285Y-69738095D01*
X83488095Y-70452380D02*
X83488095Y-69452380D01*
X84059523Y-70452380D02*
X83630952Y-69880952D01*
X84059523Y-69452380D02*
X83488095Y-70023809D01*
X32364761Y-48184050D02*
X32031428Y-47707860D01*
X31793333Y-48184050D02*
X31793333Y-47184050D01*
X32174285Y-47184050D01*
X32269523Y-47231670D01*
X32317142Y-47279289D01*
X32364761Y-47374527D01*
X32364761Y-47517384D01*
X32317142Y-47612622D01*
X32269523Y-47660241D01*
X32174285Y-47707860D01*
X31793333Y-47707860D01*
X32650476Y-47184050D02*
X32983809Y-48184050D01*
X33317142Y-47184050D01*
X34174285Y-48184050D02*
X33602857Y-48184050D01*
X33888571Y-48184050D02*
X33888571Y-47184050D01*
X33793333Y-47326908D01*
X33698095Y-47422146D01*
X33602857Y-47469765D01*
D15*
X23706666Y-20894523D02*
X23706666Y-21801666D01*
X23646190Y-21983095D01*
X23525238Y-22104047D01*
X23343809Y-22164523D01*
X23222857Y-22164523D01*
X24190476Y-20894523D02*
X24976666Y-20894523D01*
X24553333Y-21378333D01*
X24734761Y-21378333D01*
X24855714Y-21438809D01*
X24916190Y-21499285D01*
X24976666Y-21620238D01*
X24976666Y-21922619D01*
X24916190Y-22043571D01*
X24855714Y-22104047D01*
X24734761Y-22164523D01*
X24371904Y-22164523D01*
X24250952Y-22104047D01*
X24190476Y-22043571D01*
D10*
X51308095Y-18292380D02*
X51308095Y-17292380D01*
X51308095Y-17768571D02*
X51879523Y-17768571D01*
X51879523Y-18292380D02*
X51879523Y-17292380D01*
X52260476Y-17292380D02*
X52879523Y-17292380D01*
X52546190Y-17673333D01*
X52689047Y-17673333D01*
X52784285Y-17720952D01*
X52831904Y-17768571D01*
X52879523Y-17863809D01*
X52879523Y-18101904D01*
X52831904Y-18197142D01*
X52784285Y-18244761D01*
X52689047Y-18292380D01*
X52403333Y-18292380D01*
X52308095Y-18244761D01*
X52260476Y-18197142D01*
X83589904Y-55062380D02*
X83589904Y-54062380D01*
X84161333Y-55062380D02*
X83732761Y-54490952D01*
X84161333Y-54062380D02*
X83589904Y-54633809D01*
X84494666Y-54062380D02*
X85113714Y-54062380D01*
X84780380Y-54443333D01*
X84923238Y-54443333D01*
X85018476Y-54490952D01*
X85066095Y-54538571D01*
X85113714Y-54633809D01*
X85113714Y-54871904D01*
X85066095Y-54967142D01*
X85018476Y-55014761D01*
X84923238Y-55062380D01*
X84637523Y-55062380D01*
X84542285Y-55014761D01*
X84494666Y-54967142D01*
X132453142Y-40076380D02*
X132119809Y-39600190D01*
X131881714Y-40076380D02*
X131881714Y-39076380D01*
X132262666Y-39076380D01*
X132357904Y-39124000D01*
X132405523Y-39171619D01*
X132453142Y-39266857D01*
X132453142Y-39409714D01*
X132405523Y-39504952D01*
X132357904Y-39552571D01*
X132262666Y-39600190D01*
X131881714Y-39600190D01*
X133405523Y-40076380D02*
X132834095Y-40076380D01*
X133119809Y-40076380D02*
X133119809Y-39076380D01*
X133024571Y-39219238D01*
X132929333Y-39314476D01*
X132834095Y-39362095D01*
X134262666Y-39076380D02*
X134072190Y-39076380D01*
X133976952Y-39124000D01*
X133929333Y-39171619D01*
X133834095Y-39314476D01*
X133786476Y-39504952D01*
X133786476Y-39885904D01*
X133834095Y-39981142D01*
X133881714Y-40028761D01*
X133976952Y-40076380D01*
X134167428Y-40076380D01*
X134262666Y-40028761D01*
X134310285Y-39981142D01*
X134357904Y-39885904D01*
X134357904Y-39647809D01*
X134310285Y-39552571D01*
X134262666Y-39504952D01*
X134167428Y-39457333D01*
X133976952Y-39457333D01*
X133881714Y-39504952D01*
X133834095Y-39552571D01*
X133786476Y-39647809D01*
X126357142Y-40076380D02*
X126023809Y-39600190D01*
X125785714Y-40076380D02*
X125785714Y-39076380D01*
X126166666Y-39076380D01*
X126261904Y-39124000D01*
X126309523Y-39171619D01*
X126357142Y-39266857D01*
X126357142Y-39409714D01*
X126309523Y-39504952D01*
X126261904Y-39552571D01*
X126166666Y-39600190D01*
X125785714Y-39600190D01*
X127309523Y-40076380D02*
X126738095Y-40076380D01*
X127023809Y-40076380D02*
X127023809Y-39076380D01*
X126928571Y-39219238D01*
X126833333Y-39314476D01*
X126738095Y-39362095D01*
X128166666Y-39409714D02*
X128166666Y-40076380D01*
X127928571Y-39028761D02*
X127690476Y-39743047D01*
X128309523Y-39743047D01*
X113196952Y-46791619D02*
X113244571Y-46744000D01*
X113339809Y-46696380D01*
X113577904Y-46696380D01*
X113673142Y-46744000D01*
X113720761Y-46791619D01*
X113768380Y-46886857D01*
X113768380Y-46982095D01*
X113720761Y-47124952D01*
X113149333Y-47696380D01*
X113768380Y-47696380D01*
X114149333Y-46791619D02*
X114196952Y-46744000D01*
X114292190Y-46696380D01*
X114530285Y-46696380D01*
X114625523Y-46744000D01*
X114673142Y-46791619D01*
X114720761Y-46886857D01*
X114720761Y-46982095D01*
X114673142Y-47124952D01*
X114101714Y-47696380D01*
X114720761Y-47696380D01*
X115577904Y-47029714D02*
X115577904Y-47696380D01*
X115149333Y-47029714D02*
X115149333Y-47553523D01*
X115196952Y-47648761D01*
X115292190Y-47696380D01*
X115435047Y-47696380D01*
X115530285Y-47648761D01*
X115577904Y-47601142D01*
X116387428Y-47172571D02*
X116054095Y-47172571D01*
X116054095Y-47696380D02*
X116054095Y-46696380D01*
X116530285Y-46696380D01*
X116863619Y-46791619D02*
X116911238Y-46744000D01*
X117006476Y-46696380D01*
X117244571Y-46696380D01*
X117339809Y-46744000D01*
X117387428Y-46791619D01*
X117435047Y-46886857D01*
X117435047Y-46982095D01*
X117387428Y-47124952D01*
X116816000Y-47696380D01*
X117435047Y-47696380D01*
X124880952Y-46791619D02*
X124928571Y-46744000D01*
X125023809Y-46696380D01*
X125261904Y-46696380D01*
X125357142Y-46744000D01*
X125404761Y-46791619D01*
X125452380Y-46886857D01*
X125452380Y-46982095D01*
X125404761Y-47124952D01*
X124833333Y-47696380D01*
X125452380Y-47696380D01*
X125833333Y-46791619D02*
X125880952Y-46744000D01*
X125976190Y-46696380D01*
X126214285Y-46696380D01*
X126309523Y-46744000D01*
X126357142Y-46791619D01*
X126404761Y-46886857D01*
X126404761Y-46982095D01*
X126357142Y-47124952D01*
X125785714Y-47696380D01*
X126404761Y-47696380D01*
X127261904Y-47029714D02*
X127261904Y-47696380D01*
X126833333Y-47029714D02*
X126833333Y-47553523D01*
X126880952Y-47648761D01*
X126976190Y-47696380D01*
X127119047Y-47696380D01*
X127214285Y-47648761D01*
X127261904Y-47601142D01*
X128071428Y-47172571D02*
X127738095Y-47172571D01*
X127738095Y-47696380D02*
X127738095Y-46696380D01*
X128214285Y-46696380D01*
X128500000Y-46696380D02*
X129119047Y-46696380D01*
X128785714Y-47077333D01*
X128928571Y-47077333D01*
X129023809Y-47124952D01*
X129071428Y-47172571D01*
X129119047Y-47267809D01*
X129119047Y-47505904D01*
X129071428Y-47601142D01*
X129023809Y-47648761D01*
X128928571Y-47696380D01*
X128642857Y-47696380D01*
X128547619Y-47648761D01*
X128500000Y-47601142D01*
X65278095Y-55752380D02*
X65278095Y-56561904D01*
X65325714Y-56657142D01*
X65373333Y-56704761D01*
X65468571Y-56752380D01*
X65659047Y-56752380D01*
X65754285Y-56704761D01*
X65801904Y-56657142D01*
X65849523Y-56561904D01*
X65849523Y-55752380D01*
X66849523Y-56752380D02*
X66278095Y-56752380D01*
X66563809Y-56752380D02*
X66563809Y-55752380D01*
X66468571Y-55895238D01*
X66373333Y-55990476D01*
X66278095Y-56038095D01*
X96186666Y-56602380D02*
X96186666Y-57316666D01*
X96139047Y-57459523D01*
X96043809Y-57554761D01*
X95900952Y-57602380D01*
X95805714Y-57602380D01*
X96615238Y-56697619D02*
X96662857Y-56650000D01*
X96758095Y-56602380D01*
X96996190Y-56602380D01*
X97091428Y-56650000D01*
X97139047Y-56697619D01*
X97186666Y-56792857D01*
X97186666Y-56888095D01*
X97139047Y-57030952D01*
X96567619Y-57602380D01*
X97186666Y-57602380D01*
X105370380Y-78819333D02*
X106084666Y-78819333D01*
X106227523Y-78866952D01*
X106322761Y-78962190D01*
X106370380Y-79105047D01*
X106370380Y-79200285D01*
X105370380Y-78438380D02*
X105370380Y-77771714D01*
X106370380Y-78200285D01*
X119126095Y-70064380D02*
X119126095Y-70873904D01*
X119173714Y-70969142D01*
X119221333Y-71016761D01*
X119316571Y-71064380D01*
X119507047Y-71064380D01*
X119602285Y-71016761D01*
X119649904Y-70969142D01*
X119697523Y-70873904D01*
X119697523Y-70064380D01*
X120602285Y-70397714D02*
X120602285Y-71064380D01*
X120364190Y-70016761D02*
X120126095Y-70731047D01*
X120745142Y-70731047D01*
X141986095Y-70064380D02*
X141986095Y-70873904D01*
X142033714Y-70969142D01*
X142081333Y-71016761D01*
X142176571Y-71064380D01*
X142367047Y-71064380D01*
X142462285Y-71016761D01*
X142509904Y-70969142D01*
X142557523Y-70873904D01*
X142557523Y-70064380D01*
X143462285Y-70064380D02*
X143271809Y-70064380D01*
X143176571Y-70112000D01*
X143128952Y-70159619D01*
X143033714Y-70302476D01*
X142986095Y-70492952D01*
X142986095Y-70873904D01*
X143033714Y-70969142D01*
X143081333Y-71016761D01*
X143176571Y-71064380D01*
X143367047Y-71064380D01*
X143462285Y-71016761D01*
X143509904Y-70969142D01*
X143557523Y-70873904D01*
X143557523Y-70635809D01*
X143509904Y-70540571D01*
X143462285Y-70492952D01*
X143367047Y-70445333D01*
X143176571Y-70445333D01*
X143081333Y-70492952D01*
X143033714Y-70540571D01*
X142986095Y-70635809D01*
X130810095Y-70064380D02*
X130810095Y-70873904D01*
X130857714Y-70969142D01*
X130905333Y-71016761D01*
X131000571Y-71064380D01*
X131191047Y-71064380D01*
X131286285Y-71016761D01*
X131333904Y-70969142D01*
X131381523Y-70873904D01*
X131381523Y-70064380D01*
X132333904Y-70064380D02*
X131857714Y-70064380D01*
X131810095Y-70540571D01*
X131857714Y-70492952D01*
X131952952Y-70445333D01*
X132191047Y-70445333D01*
X132286285Y-70492952D01*
X132333904Y-70540571D01*
X132381523Y-70635809D01*
X132381523Y-70873904D01*
X132333904Y-70969142D01*
X132286285Y-71016761D01*
X132191047Y-71064380D01*
X131952952Y-71064380D01*
X131857714Y-71016761D01*
X131810095Y-70969142D01*
X107950095Y-70064380D02*
X107950095Y-70873904D01*
X107997714Y-70969142D01*
X108045333Y-71016761D01*
X108140571Y-71064380D01*
X108331047Y-71064380D01*
X108426285Y-71016761D01*
X108473904Y-70969142D01*
X108521523Y-70873904D01*
X108521523Y-70064380D01*
X108902476Y-70064380D02*
X109521523Y-70064380D01*
X109188190Y-70445333D01*
X109331047Y-70445333D01*
X109426285Y-70492952D01*
X109473904Y-70540571D01*
X109521523Y-70635809D01*
X109521523Y-70873904D01*
X109473904Y-70969142D01*
X109426285Y-71016761D01*
X109331047Y-71064380D01*
X109045333Y-71064380D01*
X108950095Y-71016761D01*
X108902476Y-70969142D01*
X87838095Y-75252380D02*
X87838095Y-76061904D01*
X87885714Y-76157142D01*
X87933333Y-76204761D01*
X88028571Y-76252380D01*
X88219047Y-76252380D01*
X88314285Y-76204761D01*
X88361904Y-76157142D01*
X88409523Y-76061904D01*
X88409523Y-75252380D01*
X88838095Y-75347619D02*
X88885714Y-75300000D01*
X88980952Y-75252380D01*
X89219047Y-75252380D01*
X89314285Y-75300000D01*
X89361904Y-75347619D01*
X89409523Y-75442857D01*
X89409523Y-75538095D01*
X89361904Y-75680952D01*
X88790476Y-76252380D01*
X89409523Y-76252380D01*
X154646333Y-82918380D02*
X154313000Y-82442190D01*
X154074904Y-82918380D02*
X154074904Y-81918380D01*
X154455857Y-81918380D01*
X154551095Y-81966000D01*
X154598714Y-82013619D01*
X154646333Y-82108857D01*
X154646333Y-82251714D01*
X154598714Y-82346952D01*
X154551095Y-82394571D01*
X154455857Y-82442190D01*
X154074904Y-82442190D01*
X155551095Y-81918380D02*
X155074904Y-81918380D01*
X155027285Y-82394571D01*
X155074904Y-82346952D01*
X155170142Y-82299333D01*
X155408238Y-82299333D01*
X155503476Y-82346952D01*
X155551095Y-82394571D01*
X155598714Y-82489809D01*
X155598714Y-82727904D01*
X155551095Y-82823142D01*
X155503476Y-82870761D01*
X155408238Y-82918380D01*
X155170142Y-82918380D01*
X155074904Y-82870761D01*
X155027285Y-82823142D01*
X154646333Y-77838380D02*
X154313000Y-77362190D01*
X154074904Y-77838380D02*
X154074904Y-76838380D01*
X154455857Y-76838380D01*
X154551095Y-76886000D01*
X154598714Y-76933619D01*
X154646333Y-77028857D01*
X154646333Y-77171714D01*
X154598714Y-77266952D01*
X154551095Y-77314571D01*
X154455857Y-77362190D01*
X154074904Y-77362190D01*
X155503476Y-76838380D02*
X155313000Y-76838380D01*
X155217761Y-76886000D01*
X155170142Y-76933619D01*
X155074904Y-77076476D01*
X155027285Y-77266952D01*
X155027285Y-77647904D01*
X155074904Y-77743142D01*
X155122523Y-77790761D01*
X155217761Y-77838380D01*
X155408238Y-77838380D01*
X155503476Y-77790761D01*
X155551095Y-77743142D01*
X155598714Y-77647904D01*
X155598714Y-77409809D01*
X155551095Y-77314571D01*
X155503476Y-77266952D01*
X155408238Y-77219333D01*
X155217761Y-77219333D01*
X155122523Y-77266952D01*
X155074904Y-77314571D01*
X155027285Y-77409809D01*
X154646333Y-72758380D02*
X154313000Y-72282190D01*
X154074904Y-72758380D02*
X154074904Y-71758380D01*
X154455857Y-71758380D01*
X154551095Y-71806000D01*
X154598714Y-71853619D01*
X154646333Y-71948857D01*
X154646333Y-72091714D01*
X154598714Y-72186952D01*
X154551095Y-72234571D01*
X154455857Y-72282190D01*
X154074904Y-72282190D01*
X154979666Y-71758380D02*
X155646333Y-71758380D01*
X155217761Y-72758380D01*
X117943333Y-85542380D02*
X117610000Y-85066190D01*
X117371904Y-85542380D02*
X117371904Y-84542380D01*
X117752857Y-84542380D01*
X117848095Y-84590000D01*
X117895714Y-84637619D01*
X117943333Y-84732857D01*
X117943333Y-84875714D01*
X117895714Y-84970952D01*
X117848095Y-85018571D01*
X117752857Y-85066190D01*
X117371904Y-85066190D01*
X118800476Y-84875714D02*
X118800476Y-85542380D01*
X118562380Y-84494761D02*
X118324285Y-85209047D01*
X118943333Y-85209047D01*
X117943333Y-81732380D02*
X117610000Y-81256190D01*
X117371904Y-81732380D02*
X117371904Y-80732380D01*
X117752857Y-80732380D01*
X117848095Y-80780000D01*
X117895714Y-80827619D01*
X117943333Y-80922857D01*
X117943333Y-81065714D01*
X117895714Y-81160952D01*
X117848095Y-81208571D01*
X117752857Y-81256190D01*
X117371904Y-81256190D01*
X118276666Y-80732380D02*
X118895714Y-80732380D01*
X118562380Y-81113333D01*
X118705238Y-81113333D01*
X118800476Y-81160952D01*
X118848095Y-81208571D01*
X118895714Y-81303809D01*
X118895714Y-81541904D01*
X118848095Y-81637142D01*
X118800476Y-81684761D01*
X118705238Y-81732380D01*
X118419523Y-81732380D01*
X118324285Y-81684761D01*
X118276666Y-81637142D01*
X117943333Y-77922380D02*
X117610000Y-77446190D01*
X117371904Y-77922380D02*
X117371904Y-76922380D01*
X117752857Y-76922380D01*
X117848095Y-76970000D01*
X117895714Y-77017619D01*
X117943333Y-77112857D01*
X117943333Y-77255714D01*
X117895714Y-77350952D01*
X117848095Y-77398571D01*
X117752857Y-77446190D01*
X117371904Y-77446190D01*
X118324285Y-77017619D02*
X118371904Y-76970000D01*
X118467142Y-76922380D01*
X118705238Y-76922380D01*
X118800476Y-76970000D01*
X118848095Y-77017619D01*
X118895714Y-77112857D01*
X118895714Y-77208095D01*
X118848095Y-77350952D01*
X118276666Y-77922380D01*
X118895714Y-77922380D01*
X117943333Y-74112380D02*
X117610000Y-73636190D01*
X117371904Y-74112380D02*
X117371904Y-73112380D01*
X117752857Y-73112380D01*
X117848095Y-73160000D01*
X117895714Y-73207619D01*
X117943333Y-73302857D01*
X117943333Y-73445714D01*
X117895714Y-73540952D01*
X117848095Y-73588571D01*
X117752857Y-73636190D01*
X117371904Y-73636190D01*
X118895714Y-74112380D02*
X118324285Y-74112380D01*
X118610000Y-74112380D02*
X118610000Y-73112380D01*
X118514761Y-73255238D01*
X118419523Y-73350476D01*
X118324285Y-73398095D01*
X154646333Y-67678380D02*
X154313000Y-67202190D01*
X154074904Y-67678380D02*
X154074904Y-66678380D01*
X154455857Y-66678380D01*
X154551095Y-66726000D01*
X154598714Y-66773619D01*
X154646333Y-66868857D01*
X154646333Y-67011714D01*
X154598714Y-67106952D01*
X154551095Y-67154571D01*
X154455857Y-67202190D01*
X154074904Y-67202190D01*
X155217761Y-67106952D02*
X155122523Y-67059333D01*
X155074904Y-67011714D01*
X155027285Y-66916476D01*
X155027285Y-66868857D01*
X155074904Y-66773619D01*
X155122523Y-66726000D01*
X155217761Y-66678380D01*
X155408238Y-66678380D01*
X155503476Y-66726000D01*
X155551095Y-66773619D01*
X155598714Y-66868857D01*
X155598714Y-66916476D01*
X155551095Y-67011714D01*
X155503476Y-67059333D01*
X155408238Y-67106952D01*
X155217761Y-67106952D01*
X155122523Y-67154571D01*
X155074904Y-67202190D01*
X155027285Y-67297428D01*
X155027285Y-67487904D01*
X155074904Y-67583142D01*
X155122523Y-67630761D01*
X155217761Y-67678380D01*
X155408238Y-67678380D01*
X155503476Y-67630761D01*
X155551095Y-67583142D01*
X155598714Y-67487904D01*
X155598714Y-67297428D01*
X155551095Y-67202190D01*
X155503476Y-67154571D01*
X155408238Y-67106952D01*
X75612666Y-56602380D02*
X75612666Y-57316666D01*
X75565047Y-57459523D01*
X75469809Y-57554761D01*
X75326952Y-57602380D01*
X75231714Y-57602380D01*
X76517428Y-56935714D02*
X76517428Y-57602380D01*
X76279333Y-56554761D02*
X76041238Y-57269047D01*
X76660285Y-57269047D01*
X146581904Y-87066380D02*
X146581904Y-86066380D01*
X146820000Y-86066380D01*
X146962857Y-86114000D01*
X147058095Y-86209238D01*
X147105714Y-86304476D01*
X147153333Y-86494952D01*
X147153333Y-86637809D01*
X147105714Y-86828285D01*
X147058095Y-86923523D01*
X146962857Y-87018761D01*
X146820000Y-87066380D01*
X146581904Y-87066380D01*
X148058095Y-86066380D02*
X147581904Y-86066380D01*
X147534285Y-86542571D01*
X147581904Y-86494952D01*
X147677142Y-86447333D01*
X147915238Y-86447333D01*
X148010476Y-86494952D01*
X148058095Y-86542571D01*
X148105714Y-86637809D01*
X148105714Y-86875904D01*
X148058095Y-86971142D01*
X148010476Y-87018761D01*
X147915238Y-87066380D01*
X147677142Y-87066380D01*
X147581904Y-87018761D01*
X147534285Y-86971142D01*
X146581904Y-81986380D02*
X146581904Y-80986380D01*
X146820000Y-80986380D01*
X146962857Y-81034000D01*
X147058095Y-81129238D01*
X147105714Y-81224476D01*
X147153333Y-81414952D01*
X147153333Y-81557809D01*
X147105714Y-81748285D01*
X147058095Y-81843523D01*
X146962857Y-81938761D01*
X146820000Y-81986380D01*
X146581904Y-81986380D01*
X148010476Y-80986380D02*
X147820000Y-80986380D01*
X147724761Y-81034000D01*
X147677142Y-81081619D01*
X147581904Y-81224476D01*
X147534285Y-81414952D01*
X147534285Y-81795904D01*
X147581904Y-81891142D01*
X147629523Y-81938761D01*
X147724761Y-81986380D01*
X147915238Y-81986380D01*
X148010476Y-81938761D01*
X148058095Y-81891142D01*
X148105714Y-81795904D01*
X148105714Y-81557809D01*
X148058095Y-81462571D01*
X148010476Y-81414952D01*
X147915238Y-81367333D01*
X147724761Y-81367333D01*
X147629523Y-81414952D01*
X147581904Y-81462571D01*
X147534285Y-81557809D01*
X146581904Y-76906380D02*
X146581904Y-75906380D01*
X146820000Y-75906380D01*
X146962857Y-75954000D01*
X147058095Y-76049238D01*
X147105714Y-76144476D01*
X147153333Y-76334952D01*
X147153333Y-76477809D01*
X147105714Y-76668285D01*
X147058095Y-76763523D01*
X146962857Y-76858761D01*
X146820000Y-76906380D01*
X146581904Y-76906380D01*
X147486666Y-75906380D02*
X148153333Y-75906380D01*
X147724761Y-76906380D01*
X146581904Y-71826380D02*
X146581904Y-70826380D01*
X146820000Y-70826380D01*
X146962857Y-70874000D01*
X147058095Y-70969238D01*
X147105714Y-71064476D01*
X147153333Y-71254952D01*
X147153333Y-71397809D01*
X147105714Y-71588285D01*
X147058095Y-71683523D01*
X146962857Y-71778761D01*
X146820000Y-71826380D01*
X146581904Y-71826380D01*
X147724761Y-71254952D02*
X147629523Y-71207333D01*
X147581904Y-71159714D01*
X147534285Y-71064476D01*
X147534285Y-71016857D01*
X147581904Y-70921619D01*
X147629523Y-70874000D01*
X147724761Y-70826380D01*
X147915238Y-70826380D01*
X148010476Y-70874000D01*
X148058095Y-70921619D01*
X148105714Y-71016857D01*
X148105714Y-71064476D01*
X148058095Y-71159714D01*
X148010476Y-71207333D01*
X147915238Y-71254952D01*
X147724761Y-71254952D01*
X147629523Y-71302571D01*
X147581904Y-71350190D01*
X147534285Y-71445428D01*
X147534285Y-71635904D01*
X147581904Y-71731142D01*
X147629523Y-71778761D01*
X147724761Y-71826380D01*
X147915238Y-71826380D01*
X148010476Y-71778761D01*
X148058095Y-71731142D01*
X148105714Y-71635904D01*
X148105714Y-71445428D01*
X148058095Y-71350190D01*
X148010476Y-71302571D01*
X147915238Y-71254952D01*
X136096952Y-46537619D02*
X136144571Y-46490000D01*
X136239809Y-46442380D01*
X136477904Y-46442380D01*
X136573142Y-46490000D01*
X136620761Y-46537619D01*
X136668380Y-46632857D01*
X136668380Y-46728095D01*
X136620761Y-46870952D01*
X136049333Y-47442380D01*
X136668380Y-47442380D01*
X137049333Y-46537619D02*
X137096952Y-46490000D01*
X137192190Y-46442380D01*
X137430285Y-46442380D01*
X137525523Y-46490000D01*
X137573142Y-46537619D01*
X137620761Y-46632857D01*
X137620761Y-46728095D01*
X137573142Y-46870952D01*
X137001714Y-47442380D01*
X137620761Y-47442380D01*
X138477904Y-46775714D02*
X138477904Y-47442380D01*
X138049333Y-46775714D02*
X138049333Y-47299523D01*
X138096952Y-47394761D01*
X138192190Y-47442380D01*
X138335047Y-47442380D01*
X138430285Y-47394761D01*
X138477904Y-47347142D01*
X139287428Y-46918571D02*
X138954095Y-46918571D01*
X138954095Y-47442380D02*
X138954095Y-46442380D01*
X139430285Y-46442380D01*
X140239809Y-46775714D02*
X140239809Y-47442380D01*
X140001714Y-46394761D02*
X139763619Y-47109047D01*
X140382666Y-47109047D01*
X102020952Y-46791619D02*
X102068571Y-46744000D01*
X102163809Y-46696380D01*
X102401904Y-46696380D01*
X102497142Y-46744000D01*
X102544761Y-46791619D01*
X102592380Y-46886857D01*
X102592380Y-46982095D01*
X102544761Y-47124952D01*
X101973333Y-47696380D01*
X102592380Y-47696380D01*
X102973333Y-46791619D02*
X103020952Y-46744000D01*
X103116190Y-46696380D01*
X103354285Y-46696380D01*
X103449523Y-46744000D01*
X103497142Y-46791619D01*
X103544761Y-46886857D01*
X103544761Y-46982095D01*
X103497142Y-47124952D01*
X102925714Y-47696380D01*
X103544761Y-47696380D01*
X104401904Y-47029714D02*
X104401904Y-47696380D01*
X103973333Y-47029714D02*
X103973333Y-47553523D01*
X104020952Y-47648761D01*
X104116190Y-47696380D01*
X104259047Y-47696380D01*
X104354285Y-47648761D01*
X104401904Y-47601142D01*
X105211428Y-47172571D02*
X104878095Y-47172571D01*
X104878095Y-47696380D02*
X104878095Y-46696380D01*
X105354285Y-46696380D01*
X106259047Y-47696380D02*
X105687619Y-47696380D01*
X105973333Y-47696380D02*
X105973333Y-46696380D01*
X105878095Y-46839238D01*
X105782857Y-46934476D01*
X105687619Y-46982095D01*
X130476666Y-85812380D02*
X130476666Y-86526666D01*
X130429047Y-86669523D01*
X130333809Y-86764761D01*
X130190952Y-86812380D01*
X130095714Y-86812380D01*
X131381428Y-85812380D02*
X131190952Y-85812380D01*
X131095714Y-85860000D01*
X131048095Y-85907619D01*
X130952857Y-86050476D01*
X130905238Y-86240952D01*
X130905238Y-86621904D01*
X130952857Y-86717142D01*
X131000476Y-86764761D01*
X131095714Y-86812380D01*
X131286190Y-86812380D01*
X131381428Y-86764761D01*
X131429047Y-86717142D01*
X131476666Y-86621904D01*
X131476666Y-86383809D01*
X131429047Y-86288571D01*
X131381428Y-86240952D01*
X131286190Y-86193333D01*
X131095714Y-86193333D01*
X131000476Y-86240952D01*
X130952857Y-86288571D01*
X130905238Y-86383809D01*
X50512380Y-75243333D02*
X51226666Y-75243333D01*
X51369523Y-75290952D01*
X51464761Y-75386190D01*
X51512380Y-75529047D01*
X51512380Y-75624285D01*
X50512380Y-74290952D02*
X50512380Y-74767142D01*
X50988571Y-74814761D01*
X50940952Y-74767142D01*
X50893333Y-74671904D01*
X50893333Y-74433809D01*
X50940952Y-74338571D01*
X50988571Y-74290952D01*
X51083809Y-74243333D01*
X51321904Y-74243333D01*
X51417142Y-74290952D01*
X51464761Y-74338571D01*
X51512380Y-74433809D01*
X51512380Y-74671904D01*
X51464761Y-74767142D01*
X51417142Y-74814761D01*
X164933333Y-51252380D02*
X164600000Y-50776190D01*
X164361904Y-51252380D02*
X164361904Y-50252380D01*
X164742857Y-50252380D01*
X164838095Y-50300000D01*
X164885714Y-50347619D01*
X164933333Y-50442857D01*
X164933333Y-50585714D01*
X164885714Y-50680952D01*
X164838095Y-50728571D01*
X164742857Y-50776190D01*
X164361904Y-50776190D01*
X165409523Y-51252380D02*
X165600000Y-51252380D01*
X165695238Y-51204761D01*
X165742857Y-51157142D01*
X165838095Y-51014285D01*
X165885714Y-50823809D01*
X165885714Y-50442857D01*
X165838095Y-50347619D01*
X165790476Y-50300000D01*
X165695238Y-50252380D01*
X165504761Y-50252380D01*
X165409523Y-50300000D01*
X165361904Y-50347619D01*
X165314285Y-50442857D01*
X165314285Y-50680952D01*
X165361904Y-50776190D01*
X165409523Y-50823809D01*
X165504761Y-50871428D01*
X165695238Y-50871428D01*
X165790476Y-50823809D01*
X165838095Y-50776190D01*
X165885714Y-50680952D01*
X114165142Y-40076380D02*
X113831809Y-39600190D01*
X113593714Y-40076380D02*
X113593714Y-39076380D01*
X113974666Y-39076380D01*
X114069904Y-39124000D01*
X114117523Y-39171619D01*
X114165142Y-39266857D01*
X114165142Y-39409714D01*
X114117523Y-39504952D01*
X114069904Y-39552571D01*
X113974666Y-39600190D01*
X113593714Y-39600190D01*
X115117523Y-40076380D02*
X114546095Y-40076380D01*
X114831809Y-40076380D02*
X114831809Y-39076380D01*
X114736571Y-39219238D01*
X114641333Y-39314476D01*
X114546095Y-39362095D01*
X115736571Y-39076380D02*
X115831809Y-39076380D01*
X115927047Y-39124000D01*
X115974666Y-39171619D01*
X116022285Y-39266857D01*
X116069904Y-39457333D01*
X116069904Y-39695428D01*
X116022285Y-39885904D01*
X115974666Y-39981142D01*
X115927047Y-40028761D01*
X115831809Y-40076380D01*
X115736571Y-40076380D01*
X115641333Y-40028761D01*
X115593714Y-39981142D01*
X115546095Y-39885904D01*
X115498476Y-39695428D01*
X115498476Y-39457333D01*
X115546095Y-39266857D01*
X115593714Y-39171619D01*
X115641333Y-39124000D01*
X115736571Y-39076380D01*
X158361142Y-51252380D02*
X158027809Y-50776190D01*
X157789714Y-51252380D02*
X157789714Y-50252380D01*
X158170666Y-50252380D01*
X158265904Y-50300000D01*
X158313523Y-50347619D01*
X158361142Y-50442857D01*
X158361142Y-50585714D01*
X158313523Y-50680952D01*
X158265904Y-50728571D01*
X158170666Y-50776190D01*
X157789714Y-50776190D01*
X159313523Y-51252380D02*
X158742095Y-51252380D01*
X159027809Y-51252380D02*
X159027809Y-50252380D01*
X158932571Y-50395238D01*
X158837333Y-50490476D01*
X158742095Y-50538095D01*
X160265904Y-51252380D02*
X159694476Y-51252380D01*
X159980190Y-51252380D02*
X159980190Y-50252380D01*
X159884952Y-50395238D01*
X159789714Y-50490476D01*
X159694476Y-50538095D01*
X120261142Y-40076380D02*
X119927809Y-39600190D01*
X119689714Y-40076380D02*
X119689714Y-39076380D01*
X120070666Y-39076380D01*
X120165904Y-39124000D01*
X120213523Y-39171619D01*
X120261142Y-39266857D01*
X120261142Y-39409714D01*
X120213523Y-39504952D01*
X120165904Y-39552571D01*
X120070666Y-39600190D01*
X119689714Y-39600190D01*
X121213523Y-40076380D02*
X120642095Y-40076380D01*
X120927809Y-40076380D02*
X120927809Y-39076380D01*
X120832571Y-39219238D01*
X120737333Y-39314476D01*
X120642095Y-39362095D01*
X121594476Y-39171619D02*
X121642095Y-39124000D01*
X121737333Y-39076380D01*
X121975428Y-39076380D01*
X122070666Y-39124000D01*
X122118285Y-39171619D01*
X122165904Y-39266857D01*
X122165904Y-39362095D01*
X122118285Y-39504952D01*
X121546857Y-40076380D01*
X122165904Y-40076380D01*
X146677142Y-51252380D02*
X146343809Y-50776190D01*
X146105714Y-51252380D02*
X146105714Y-50252380D01*
X146486666Y-50252380D01*
X146581904Y-50300000D01*
X146629523Y-50347619D01*
X146677142Y-50442857D01*
X146677142Y-50585714D01*
X146629523Y-50680952D01*
X146581904Y-50728571D01*
X146486666Y-50776190D01*
X146105714Y-50776190D01*
X147629523Y-51252380D02*
X147058095Y-51252380D01*
X147343809Y-51252380D02*
X147343809Y-50252380D01*
X147248571Y-50395238D01*
X147153333Y-50490476D01*
X147058095Y-50538095D01*
X148534285Y-50252380D02*
X148058095Y-50252380D01*
X148010476Y-50728571D01*
X148058095Y-50680952D01*
X148153333Y-50633333D01*
X148391428Y-50633333D01*
X148486666Y-50680952D01*
X148534285Y-50728571D01*
X148581904Y-50823809D01*
X148581904Y-51061904D01*
X148534285Y-51157142D01*
X148486666Y-51204761D01*
X148391428Y-51252380D01*
X148153333Y-51252380D01*
X148058095Y-51204761D01*
X148010476Y-51157142D01*
X152773142Y-51252380D02*
X152439809Y-50776190D01*
X152201714Y-51252380D02*
X152201714Y-50252380D01*
X152582666Y-50252380D01*
X152677904Y-50300000D01*
X152725523Y-50347619D01*
X152773142Y-50442857D01*
X152773142Y-50585714D01*
X152725523Y-50680952D01*
X152677904Y-50728571D01*
X152582666Y-50776190D01*
X152201714Y-50776190D01*
X153725523Y-51252380D02*
X153154095Y-51252380D01*
X153439809Y-51252380D02*
X153439809Y-50252380D01*
X153344571Y-50395238D01*
X153249333Y-50490476D01*
X153154095Y-50538095D01*
X154058857Y-50252380D02*
X154677904Y-50252380D01*
X154344571Y-50633333D01*
X154487428Y-50633333D01*
X154582666Y-50680952D01*
X154630285Y-50728571D01*
X154677904Y-50823809D01*
X154677904Y-51061904D01*
X154630285Y-51157142D01*
X154582666Y-51204761D01*
X154487428Y-51252380D01*
X154201714Y-51252380D01*
X154106476Y-51204761D01*
X154058857Y-51157142D01*
X34600000Y-82421333D02*
X34133333Y-81754666D01*
X33800000Y-82421333D02*
X33800000Y-81021333D01*
X34333333Y-81021333D01*
X34466666Y-81088000D01*
X34533333Y-81154666D01*
X34600000Y-81288000D01*
X34600000Y-81488000D01*
X34533333Y-81621333D01*
X34466666Y-81688000D01*
X34333333Y-81754666D01*
X33800000Y-81754666D01*
X35133333Y-82021333D02*
X35800000Y-82021333D01*
X35000000Y-82421333D02*
X35466666Y-81021333D01*
X35933333Y-82421333D01*
X36666666Y-81021333D02*
X36800000Y-81021333D01*
X36933333Y-81088000D01*
X37000000Y-81154666D01*
X37066666Y-81288000D01*
X37133333Y-81554666D01*
X37133333Y-81888000D01*
X37066666Y-82154666D01*
X37000000Y-82288000D01*
X36933333Y-82354666D01*
X36800000Y-82421333D01*
X36666666Y-82421333D01*
X36533333Y-82354666D01*
X36466666Y-82288000D01*
X36400000Y-82154666D01*
X36333333Y-81888000D01*
X36333333Y-81554666D01*
X36400000Y-81288000D01*
X36466666Y-81154666D01*
X36533333Y-81088000D01*
X36666666Y-81021333D01*
X38400000Y-81021333D02*
X37733333Y-81021333D01*
X37666666Y-81688000D01*
X37733333Y-81621333D01*
X37866666Y-81554666D01*
X38200000Y-81554666D01*
X38333333Y-81621333D01*
X38400000Y-81688000D01*
X38466666Y-81821333D01*
X38466666Y-82154666D01*
X38400000Y-82288000D01*
X38333333Y-82354666D01*
X38200000Y-82421333D01*
X37866666Y-82421333D01*
X37733333Y-82354666D01*
X37666666Y-82288000D01*
X39066666Y-81888000D02*
X40133333Y-81888000D01*
X41066666Y-81021333D02*
X41200000Y-81021333D01*
X41333333Y-81088000D01*
X41400000Y-81154666D01*
X41466666Y-81288000D01*
X41533333Y-81554666D01*
X41533333Y-81888000D01*
X41466666Y-82154666D01*
X41400000Y-82288000D01*
X41333333Y-82354666D01*
X41200000Y-82421333D01*
X41066666Y-82421333D01*
X40933333Y-82354666D01*
X40866666Y-82288000D01*
X40800000Y-82154666D01*
X40733333Y-81888000D01*
X40733333Y-81554666D01*
X40800000Y-81288000D01*
X40866666Y-81154666D01*
X40933333Y-81088000D01*
X41066666Y-81021333D01*
X42800000Y-81021333D02*
X42133333Y-81021333D01*
X42066666Y-81688000D01*
X42133333Y-81621333D01*
X42266666Y-81554666D01*
X42600000Y-81554666D01*
X42733333Y-81621333D01*
X42800000Y-81688000D01*
X42866666Y-81821333D01*
X42866666Y-82154666D01*
X42800000Y-82288000D01*
X42733333Y-82354666D01*
X42600000Y-82421333D01*
X42266666Y-82421333D01*
X42133333Y-82354666D01*
X42066666Y-82288000D01*
X43466666Y-81888000D02*
X44533333Y-81888000D01*
X45133333Y-82354666D02*
X45333333Y-82421333D01*
X45666666Y-82421333D01*
X45800000Y-82354666D01*
X45866666Y-82288000D01*
X45933333Y-82154666D01*
X45933333Y-82021333D01*
X45866666Y-81888000D01*
X45800000Y-81821333D01*
X45666666Y-81754666D01*
X45400000Y-81688000D01*
X45266666Y-81621333D01*
X45200000Y-81554666D01*
X45133333Y-81421333D01*
X45133333Y-81288000D01*
X45200000Y-81154666D01*
X45266666Y-81088000D01*
X45400000Y-81021333D01*
X45733333Y-81021333D01*
X45933333Y-81088000D01*
X46533333Y-82421333D02*
X46533333Y-81021333D01*
X47333333Y-82421333D02*
X46733333Y-81621333D01*
X47333333Y-81021333D02*
X46533333Y-81821333D01*
X48666666Y-82421333D02*
X47866666Y-82421333D01*
X48266666Y-82421333D02*
X48266666Y-81021333D01*
X48133333Y-81221333D01*
X48000000Y-81354666D01*
X47866666Y-81421333D01*
X154038095Y-57802380D02*
X154038095Y-56802380D01*
X154038095Y-57278571D02*
X154609523Y-57278571D01*
X154609523Y-57802380D02*
X154609523Y-56802380D01*
X155514285Y-56802380D02*
X155323809Y-56802380D01*
X155228571Y-56850000D01*
X155180952Y-56897619D01*
X155085714Y-57040476D01*
X155038095Y-57230952D01*
X155038095Y-57611904D01*
X155085714Y-57707142D01*
X155133333Y-57754761D01*
X155228571Y-57802380D01*
X155419047Y-57802380D01*
X155514285Y-57754761D01*
X155561904Y-57707142D01*
X155609523Y-57611904D01*
X155609523Y-57373809D01*
X155561904Y-57278571D01*
X155514285Y-57230952D01*
X155419047Y-57183333D01*
X155228571Y-57183333D01*
X155133333Y-57230952D01*
X155085714Y-57278571D01*
X155038095Y-57373809D01*
X54038095Y-87162380D02*
X54038095Y-86162380D01*
X54038095Y-86638571D02*
X54609523Y-86638571D01*
X54609523Y-87162380D02*
X54609523Y-86162380D01*
X55038095Y-86257619D02*
X55085714Y-86210000D01*
X55180952Y-86162380D01*
X55419047Y-86162380D01*
X55514285Y-86210000D01*
X55561904Y-86257619D01*
X55609523Y-86352857D01*
X55609523Y-86448095D01*
X55561904Y-86590952D01*
X54990476Y-87162380D01*
X55609523Y-87162380D01*
X55138095Y-59802380D02*
X55138095Y-58802380D01*
X55138095Y-59278571D02*
X55709523Y-59278571D01*
X55709523Y-59802380D02*
X55709523Y-58802380D01*
X56661904Y-58802380D02*
X56185714Y-58802380D01*
X56138095Y-59278571D01*
X56185714Y-59230952D01*
X56280952Y-59183333D01*
X56519047Y-59183333D01*
X56614285Y-59230952D01*
X56661904Y-59278571D01*
X56709523Y-59373809D01*
X56709523Y-59611904D01*
X56661904Y-59707142D01*
X56614285Y-59754761D01*
X56519047Y-59802380D01*
X56280952Y-59802380D01*
X56185714Y-59754761D01*
X56138095Y-59707142D01*
X102870095Y-18038380D02*
X102870095Y-17038380D01*
X102870095Y-17514571D02*
X103441523Y-17514571D01*
X103441523Y-18038380D02*
X103441523Y-17038380D01*
X104441523Y-18038380D02*
X103870095Y-18038380D01*
X104155809Y-18038380D02*
X104155809Y-17038380D01*
X104060571Y-17181238D01*
X103965333Y-17276476D01*
X103870095Y-17324095D01*
X137922095Y-13974380D02*
X137922095Y-12974380D01*
X137922095Y-13450571D02*
X138493523Y-13450571D01*
X138493523Y-13974380D02*
X138493523Y-12974380D01*
X139398285Y-13307714D02*
X139398285Y-13974380D01*
X139160190Y-12926761D02*
X138922095Y-13641047D01*
X139541142Y-13641047D01*
X46203571Y-36528333D02*
X46203571Y-36861666D01*
X46727380Y-36861666D02*
X45727380Y-36861666D01*
X45727380Y-36385476D01*
X46727380Y-35480714D02*
X46727380Y-36052142D01*
X46727380Y-35766428D02*
X45727380Y-35766428D01*
X45870238Y-35861666D01*
X45965476Y-35956904D01*
X46013095Y-36052142D01*
X59586904Y-55062380D02*
X59586904Y-54062380D01*
X60158333Y-55062380D02*
X59729761Y-54490952D01*
X60158333Y-54062380D02*
X59586904Y-54633809D01*
X61110714Y-55062380D02*
X60539285Y-55062380D01*
X60825000Y-55062380D02*
X60825000Y-54062380D01*
X60729761Y-54205238D01*
X60634523Y-54300476D01*
X60539285Y-54348095D01*
X71651904Y-55062380D02*
X71651904Y-54062380D01*
X72223333Y-55062380D02*
X71794761Y-54490952D01*
X72223333Y-54062380D02*
X71651904Y-54633809D01*
X72604285Y-54157619D02*
X72651904Y-54110000D01*
X72747142Y-54062380D01*
X72985238Y-54062380D01*
X73080476Y-54110000D01*
X73128095Y-54157619D01*
X73175714Y-54252857D01*
X73175714Y-54348095D01*
X73128095Y-54490952D01*
X72556666Y-55062380D01*
X73175714Y-55062380D01*
X95146904Y-55062380D02*
X95146904Y-54062380D01*
X95718333Y-55062380D02*
X95289761Y-54490952D01*
X95718333Y-54062380D02*
X95146904Y-54633809D01*
X96575476Y-54395714D02*
X96575476Y-55062380D01*
X96337380Y-54014761D02*
X96099285Y-54729047D01*
X96718333Y-54729047D01*
D15*
X141308666Y-13274523D02*
X141308666Y-14181666D01*
X141248190Y-14363095D01*
X141127238Y-14484047D01*
X140945809Y-14544523D01*
X140824857Y-14544523D01*
X142094857Y-13818809D02*
X141973904Y-13758333D01*
X141913428Y-13697857D01*
X141852952Y-13576904D01*
X141852952Y-13516428D01*
X141913428Y-13395476D01*
X141973904Y-13335000D01*
X142094857Y-13274523D01*
X142336761Y-13274523D01*
X142457714Y-13335000D01*
X142518190Y-13395476D01*
X142578666Y-13516428D01*
X142578666Y-13576904D01*
X142518190Y-13697857D01*
X142457714Y-13758333D01*
X142336761Y-13818809D01*
X142094857Y-13818809D01*
X141973904Y-13879285D01*
X141913428Y-13939761D01*
X141852952Y-14060714D01*
X141852952Y-14302619D01*
X141913428Y-14423571D01*
X141973904Y-14484047D01*
X142094857Y-14544523D01*
X142336761Y-14544523D01*
X142457714Y-14484047D01*
X142518190Y-14423571D01*
X142578666Y-14302619D01*
X142578666Y-14060714D01*
X142518190Y-13939761D01*
X142457714Y-13879285D01*
X142336761Y-13818809D01*
X71966666Y-13274523D02*
X71966666Y-14181666D01*
X71906190Y-14363095D01*
X71785238Y-14484047D01*
X71603809Y-14544523D01*
X71482857Y-14544523D01*
X73236666Y-14544523D02*
X72510952Y-14544523D01*
X72873809Y-14544523D02*
X72873809Y-13274523D01*
X72752857Y-13455952D01*
X72631904Y-13576904D01*
X72510952Y-13637380D01*
M02*
