G04 #@! TF.GenerationSoftware,KiCad,Pcbnew,(5.1.6)-1*
G04 #@! TF.CreationDate,2021-09-20T00:00:24+02:00*
G04 #@! TF.ProjectId,hamodule,68616d6f-6475-46c6-952e-6b696361645f,rev?*
G04 #@! TF.SameCoordinates,Original*
G04 #@! TF.FileFunction,Copper,L1,Top*
G04 #@! TF.FilePolarity,Positive*
%FSLAX46Y46*%
G04 Gerber Fmt 4.6, Leading zero omitted, Abs format (unit mm)*
G04 Created by KiCad (PCBNEW (5.1.6)-1) date 2021-09-20 00:00:24*
%MOMM*%
%LPD*%
G01*
G04 APERTURE LIST*
G04 #@! TA.AperFunction,ComponentPad*
%ADD10C,1.560000*%
G04 #@! TD*
G04 #@! TA.AperFunction,ComponentPad*
%ADD11R,1.560000X1.560000*%
G04 #@! TD*
G04 #@! TA.AperFunction,ComponentPad*
%ADD12O,1.950000X1.700000*%
G04 #@! TD*
G04 #@! TA.AperFunction,ComponentPad*
%ADD13O,1.800000X1.800000*%
G04 #@! TD*
G04 #@! TA.AperFunction,ComponentPad*
%ADD14R,1.800000X1.800000*%
G04 #@! TD*
G04 #@! TA.AperFunction,ComponentPad*
%ADD15C,1.800000*%
G04 #@! TD*
G04 #@! TA.AperFunction,ComponentPad*
%ADD16C,2.100000*%
G04 #@! TD*
G04 #@! TA.AperFunction,ComponentPad*
%ADD17C,5.500000*%
G04 #@! TD*
G04 #@! TA.AperFunction,ComponentPad*
%ADD18C,2.300000*%
G04 #@! TD*
G04 #@! TA.AperFunction,ComponentPad*
%ADD19R,2.300000X2.300000*%
G04 #@! TD*
G04 #@! TA.AperFunction,ComponentPad*
%ADD20O,2.400000X2.400000*%
G04 #@! TD*
G04 #@! TA.AperFunction,ComponentPad*
%ADD21C,2.400000*%
G04 #@! TD*
G04 #@! TA.AperFunction,ComponentPad*
%ADD22C,2.000000*%
G04 #@! TD*
G04 #@! TA.AperFunction,ComponentPad*
%ADD23R,2.000000X2.000000*%
G04 #@! TD*
G04 #@! TA.AperFunction,ComponentPad*
%ADD24R,2.400000X1.600000*%
G04 #@! TD*
G04 #@! TA.AperFunction,ComponentPad*
%ADD25O,2.400000X1.600000*%
G04 #@! TD*
G04 #@! TA.AperFunction,ComponentPad*
%ADD26O,1.600000X2.400000*%
G04 #@! TD*
G04 #@! TA.AperFunction,ComponentPad*
%ADD27R,1.600000X2.400000*%
G04 #@! TD*
G04 #@! TA.AperFunction,ComponentPad*
%ADD28O,1.905000X2.000000*%
G04 #@! TD*
G04 #@! TA.AperFunction,ComponentPad*
%ADD29R,1.905000X2.000000*%
G04 #@! TD*
G04 #@! TA.AperFunction,ComponentPad*
%ADD30O,1.600000X1.600000*%
G04 #@! TD*
G04 #@! TA.AperFunction,ComponentPad*
%ADD31C,1.600000*%
G04 #@! TD*
G04 #@! TA.AperFunction,ComponentPad*
%ADD32O,2.000000X1.700000*%
G04 #@! TD*
G04 #@! TA.AperFunction,ComponentPad*
%ADD33C,1.650000*%
G04 #@! TD*
G04 #@! TA.AperFunction,ComponentPad*
%ADD34R,1.650000X1.650000*%
G04 #@! TD*
G04 #@! TA.AperFunction,Conductor*
%ADD35C,3.000000*%
G04 #@! TD*
G04 #@! TA.AperFunction,Conductor*
%ADD36C,1.000000*%
G04 #@! TD*
G04 APERTURE END LIST*
D10*
X206595000Y-67020000D03*
X206595000Y-64480000D03*
X206595000Y-61940000D03*
X206595000Y-59400000D03*
X206595000Y-56860000D03*
X206595000Y-54320000D03*
X206595000Y-51780000D03*
X206595000Y-49240000D03*
X206595000Y-46700000D03*
X206595000Y-44160000D03*
X206595000Y-41620000D03*
X206595000Y-39080000D03*
X206595000Y-36540000D03*
X206595000Y-34000000D03*
X206595000Y-31460000D03*
X206595000Y-28920000D03*
X206595000Y-26380000D03*
X206595000Y-23840000D03*
X206595000Y-21300000D03*
X181195000Y-64480000D03*
X181195000Y-61940000D03*
X181195000Y-59400000D03*
X181195000Y-56860000D03*
X181195000Y-54320000D03*
X181195000Y-51780000D03*
X181195000Y-49240000D03*
X181195000Y-46700000D03*
X181195000Y-44160000D03*
X181195000Y-41620000D03*
X181195000Y-39080000D03*
X181195000Y-36540000D03*
X181195000Y-34000000D03*
X181195000Y-31460000D03*
X181195000Y-28920000D03*
X181195000Y-26380000D03*
X181195000Y-67020000D03*
X181195000Y-23840000D03*
D11*
X181195000Y-21300000D03*
D12*
X173990000Y-55746000D03*
X173990000Y-58246000D03*
X173990000Y-60746000D03*
X173990000Y-63246000D03*
G04 #@! TA.AperFunction,ComponentPad*
G36*
G01*
X174715000Y-66596000D02*
X173265000Y-66596000D01*
G75*
G02*
X173015000Y-66346000I0J250000D01*
G01*
X173015000Y-65146000D01*
G75*
G02*
X173265000Y-64896000I250000J0D01*
G01*
X174715000Y-64896000D01*
G75*
G02*
X174965000Y-65146000I0J-250000D01*
G01*
X174965000Y-66346000D01*
G75*
G02*
X174715000Y-66596000I-250000J0D01*
G01*
G37*
G04 #@! TD.AperFunction*
X214122000Y-17178000D03*
X214122000Y-19678000D03*
X214122000Y-22178000D03*
X214122000Y-24678000D03*
G04 #@! TA.AperFunction,ComponentPad*
G36*
G01*
X214847000Y-28028000D02*
X213397000Y-28028000D01*
G75*
G02*
X213147000Y-27778000I0J250000D01*
G01*
X213147000Y-26578000D01*
G75*
G02*
X213397000Y-26328000I250000J0D01*
G01*
X214847000Y-26328000D01*
G75*
G02*
X215097000Y-26578000I0J-250000D01*
G01*
X215097000Y-27778000D01*
G75*
G02*
X214847000Y-28028000I-250000J0D01*
G01*
G37*
G04 #@! TD.AperFunction*
X173990000Y-17686000D03*
X173990000Y-20186000D03*
X173990000Y-22686000D03*
X173990000Y-25186000D03*
G04 #@! TA.AperFunction,ComponentPad*
G36*
G01*
X174715000Y-28536000D02*
X173265000Y-28536000D01*
G75*
G02*
X173015000Y-28286000I0J250000D01*
G01*
X173015000Y-27086000D01*
G75*
G02*
X173265000Y-26836000I250000J0D01*
G01*
X174715000Y-26836000D01*
G75*
G02*
X174965000Y-27086000I0J-250000D01*
G01*
X174965000Y-28286000D01*
G75*
G02*
X174715000Y-28536000I-250000J0D01*
G01*
G37*
G04 #@! TD.AperFunction*
D13*
X88750000Y-60250000D03*
D14*
X81130000Y-60250000D03*
D13*
X88750000Y-63500000D03*
D14*
X81130000Y-63500000D03*
D13*
X88750000Y-66750000D03*
D14*
X81130000Y-66750000D03*
D13*
X88750000Y-70000000D03*
D14*
X81130000Y-70000000D03*
D15*
X36710000Y-45448330D03*
X29210000Y-43815000D03*
D16*
X29210000Y-19240000D03*
X29210000Y-27940000D03*
X34290000Y-19240000D03*
X34290000Y-27940000D03*
X39370000Y-19240000D03*
X39370000Y-27940000D03*
X44450000Y-19240000D03*
X44450000Y-27940000D03*
D17*
X52070000Y-21590000D03*
D18*
X76708000Y-52070000D03*
X76708000Y-36830000D03*
X84328000Y-34290000D03*
X84328000Y-41910000D03*
D19*
X84328000Y-52070000D03*
D20*
X132080000Y-42545000D03*
D21*
X132080000Y-22225000D03*
D20*
X125730000Y-42545000D03*
D21*
X125730000Y-22225000D03*
D22*
X113110000Y-53340000D03*
D23*
X118110000Y-53340000D03*
D22*
X124540000Y-53340000D03*
D23*
X129540000Y-53340000D03*
D24*
X69850000Y-76200000D03*
D25*
X62230000Y-58420000D03*
X69850000Y-73660000D03*
X62230000Y-60960000D03*
X69850000Y-71120000D03*
X62230000Y-63500000D03*
X69850000Y-68580000D03*
X62230000Y-66040000D03*
X69850000Y-66040000D03*
X62230000Y-68580000D03*
X69850000Y-63500000D03*
X62230000Y-71120000D03*
X69850000Y-60960000D03*
X62230000Y-73660000D03*
X69850000Y-58420000D03*
X62230000Y-76200000D03*
D12*
X95250000Y-68460000D03*
X95250000Y-65960000D03*
X95250000Y-63460000D03*
G04 #@! TA.AperFunction,ComponentPad*
G36*
G01*
X94525000Y-60110000D02*
X95975000Y-60110000D01*
G75*
G02*
X96225000Y-60360000I0J-250000D01*
G01*
X96225000Y-61560000D01*
G75*
G02*
X95975000Y-61810000I-250000J0D01*
G01*
X94525000Y-61810000D01*
G75*
G02*
X94275000Y-61560000I0J250000D01*
G01*
X94275000Y-60360000D01*
G75*
G02*
X94525000Y-60110000I250000J0D01*
G01*
G37*
G04 #@! TD.AperFunction*
X101600000Y-73740000D03*
X101600000Y-76240000D03*
X101600000Y-78740000D03*
X101600000Y-81240000D03*
G04 #@! TA.AperFunction,ComponentPad*
G36*
G01*
X102325000Y-84590000D02*
X100875000Y-84590000D01*
G75*
G02*
X100625000Y-84340000I0J250000D01*
G01*
X100625000Y-83140000D01*
G75*
G02*
X100875000Y-82890000I250000J0D01*
G01*
X102325000Y-82890000D01*
G75*
G02*
X102575000Y-83140000I0J-250000D01*
G01*
X102575000Y-84340000D01*
G75*
G02*
X102325000Y-84590000I-250000J0D01*
G01*
G37*
G04 #@! TD.AperFunction*
D26*
X119380000Y-68580000D03*
X111760000Y-60960000D03*
X116840000Y-68580000D03*
X114300000Y-60960000D03*
X114300000Y-68580000D03*
X116840000Y-60960000D03*
X111760000Y-68580000D03*
D27*
X119380000Y-60960000D03*
D26*
X142494000Y-68580000D03*
X134874000Y-60960000D03*
X139954000Y-68580000D03*
X137414000Y-60960000D03*
X137414000Y-68580000D03*
X139954000Y-60960000D03*
X134874000Y-68580000D03*
D27*
X142494000Y-60960000D03*
D26*
X131064000Y-68580000D03*
X123444000Y-60960000D03*
X128524000Y-68580000D03*
X125984000Y-60960000D03*
X125984000Y-68580000D03*
X128524000Y-60960000D03*
X123444000Y-68580000D03*
D27*
X131064000Y-60960000D03*
D26*
X107950000Y-68580000D03*
X100330000Y-60960000D03*
X105410000Y-68580000D03*
X102870000Y-60960000D03*
X102870000Y-68580000D03*
X105410000Y-60960000D03*
X100330000Y-68580000D03*
D27*
X107950000Y-60960000D03*
D28*
X81915000Y-78105000D03*
X84455000Y-78105000D03*
D29*
X86995000Y-78105000D03*
D30*
X158623000Y-84836000D03*
D31*
X151003000Y-84836000D03*
D30*
X158623000Y-79756000D03*
D31*
X151003000Y-79756000D03*
D30*
X158623000Y-74676000D03*
D31*
X151003000Y-74676000D03*
D30*
X107950000Y-85090000D03*
D31*
X115570000Y-85090000D03*
D30*
X107950000Y-81280000D03*
D31*
X115570000Y-81280000D03*
D30*
X107950000Y-77470000D03*
D31*
X115570000Y-77470000D03*
D30*
X107950000Y-73660000D03*
D31*
X115570000Y-73660000D03*
D30*
X158623000Y-69596000D03*
D31*
X151003000Y-69596000D03*
D12*
X76200000Y-70960000D03*
X76200000Y-68460000D03*
X76200000Y-65960000D03*
X76200000Y-63460000D03*
G04 #@! TA.AperFunction,ComponentPad*
G36*
G01*
X75475000Y-60110000D02*
X76925000Y-60110000D01*
G75*
G02*
X77175000Y-60360000I0J-250000D01*
G01*
X77175000Y-61560000D01*
G75*
G02*
X76925000Y-61810000I-250000J0D01*
G01*
X75475000Y-61810000D01*
G75*
G02*
X75225000Y-61560000I0J250000D01*
G01*
X75225000Y-60360000D01*
G75*
G02*
X75475000Y-60110000I250000J0D01*
G01*
G37*
G04 #@! TD.AperFunction*
D15*
X148463000Y-84836000D03*
D14*
X145923000Y-84836000D03*
D15*
X148463000Y-79756000D03*
D14*
X145923000Y-79756000D03*
D15*
X148463000Y-74676000D03*
D14*
X145923000Y-74676000D03*
D15*
X148463000Y-69596000D03*
D14*
X145923000Y-69596000D03*
D22*
X135716000Y-53340000D03*
D23*
X140716000Y-53340000D03*
D22*
X101600000Y-53340000D03*
D23*
X106600000Y-53340000D03*
D12*
X130810000Y-75050000D03*
X130810000Y-77550000D03*
X130810000Y-80050000D03*
G04 #@! TA.AperFunction,ComponentPad*
G36*
G01*
X131535000Y-83400000D02*
X130085000Y-83400000D01*
G75*
G02*
X129835000Y-83150000I0J250000D01*
G01*
X129835000Y-81950000D01*
G75*
G02*
X130085000Y-81700000I250000J0D01*
G01*
X131535000Y-81700000D01*
G75*
G02*
X131785000Y-81950000I0J-250000D01*
G01*
X131785000Y-83150000D01*
G75*
G02*
X131535000Y-83400000I-250000J0D01*
G01*
G37*
G04 #@! TD.AperFunction*
D32*
X54610000Y-73660000D03*
G04 #@! TA.AperFunction,ComponentPad*
G36*
G01*
X55360000Y-77010000D02*
X53860000Y-77010000D01*
G75*
G02*
X53610000Y-76760000I0J250000D01*
G01*
X53610000Y-75560000D01*
G75*
G02*
X53860000Y-75310000I250000J0D01*
G01*
X55360000Y-75310000D01*
G75*
G02*
X55610000Y-75560000I0J-250000D01*
G01*
X55610000Y-76760000D01*
G75*
G02*
X55360000Y-77010000I-250000J0D01*
G01*
G37*
G04 #@! TD.AperFunction*
D20*
X163322000Y-53848000D03*
D21*
X163322000Y-33528000D03*
D20*
X113665000Y-42545000D03*
D21*
X113665000Y-22225000D03*
D20*
X157734000Y-33528000D03*
D21*
X157734000Y-53848000D03*
D20*
X119634000Y-22225000D03*
D21*
X119634000Y-42545000D03*
D20*
X146558000Y-53848000D03*
D21*
X146558000Y-33528000D03*
D20*
X152146000Y-53848000D03*
D21*
X152146000Y-33528000D03*
D33*
X46830000Y-59770000D03*
X46830000Y-69770000D03*
X26830000Y-74770000D03*
D34*
X26830000Y-54770000D03*
D17*
X154800000Y-61100000D03*
X54800000Y-82900000D03*
X55900000Y-63100000D03*
X103632000Y-21336000D03*
X138684000Y-17272000D03*
D22*
X41275000Y-38735000D03*
X41275000Y-33655000D03*
D18*
X52705000Y-52070000D03*
X52705000Y-36830000D03*
X60325000Y-34290000D03*
X60325000Y-41910000D03*
D19*
X60325000Y-52070000D03*
D18*
X64770000Y-52070000D03*
X64770000Y-36830000D03*
X72390000Y-34290000D03*
X72390000Y-41910000D03*
D19*
X72390000Y-52070000D03*
D18*
X88265000Y-52070000D03*
X88265000Y-36830000D03*
X95885000Y-34290000D03*
X95885000Y-41910000D03*
D19*
X95885000Y-52070000D03*
D16*
X146812000Y-19240000D03*
X146812000Y-27940000D03*
X151892000Y-19240000D03*
X151892000Y-27940000D03*
X156972000Y-19240000D03*
X156972000Y-27940000D03*
X162052000Y-19240000D03*
X162052000Y-27940000D03*
X77470000Y-19240000D03*
X77470000Y-27940000D03*
X82550000Y-19240000D03*
X82550000Y-27940000D03*
X87630000Y-19240000D03*
X87630000Y-27940000D03*
X92710000Y-19240000D03*
X92710000Y-27940000D03*
D35*
X41275000Y-38735000D02*
X44450000Y-41910000D01*
X44450000Y-41910000D02*
X95250000Y-41910000D01*
X36710000Y-64890000D02*
X26830000Y-74770000D01*
X36710000Y-45448330D02*
X36710000Y-64890000D01*
X36710000Y-45448330D02*
X36710000Y-43300000D01*
X38100000Y-41910000D02*
X41275000Y-38735000D01*
X38100000Y-41910000D02*
X44450000Y-41910000D01*
X36710000Y-43300000D02*
X38100000Y-41910000D01*
D36*
X85779999Y-50219999D02*
X78050001Y-50219999D01*
X87630000Y-52070000D02*
X85779999Y-50219999D01*
X74349999Y-50219999D02*
X66620001Y-50219999D01*
X76200000Y-52070000D02*
X74349999Y-50219999D01*
X55190001Y-50219999D02*
X53340000Y-52070000D01*
X62919999Y-50219999D02*
X55190001Y-50219999D01*
X53340000Y-52070000D02*
X50800000Y-52070000D01*
X45304999Y-68244999D02*
X46830000Y-69770000D01*
X45304999Y-57565001D02*
X45304999Y-68244999D01*
X50800000Y-52070000D02*
X45304999Y-57565001D01*
X76200000Y-50800000D02*
X76780001Y-50219999D01*
X76780001Y-50219999D02*
X78050001Y-50219999D01*
X76200000Y-52070000D02*
X76200000Y-50800000D01*
X74349999Y-50219999D02*
X75619999Y-50219999D01*
X76200000Y-50800000D02*
X75619999Y-50219999D01*
X75619999Y-50219999D02*
X76780001Y-50219999D01*
X76200000Y-52070000D02*
X77470000Y-50800000D01*
X78050001Y-50219999D02*
X77470000Y-50800000D01*
X64770000Y-50800000D02*
X64189999Y-50219999D01*
X62919999Y-50219999D02*
X64189999Y-50219999D01*
X64770000Y-50800000D02*
X65350001Y-50219999D01*
X64189999Y-50219999D02*
X65350001Y-50219999D01*
X64770000Y-52070000D02*
X64770000Y-50800000D01*
X65350001Y-50219999D02*
X66620001Y-50219999D01*
X52070000Y-50800000D02*
X53340000Y-52070000D01*
X52070000Y-50800000D02*
X52650001Y-50219999D01*
X52070000Y-52070000D02*
X51435000Y-51435000D01*
X50800000Y-52070000D02*
X51435000Y-51435000D01*
X53340000Y-52070000D02*
X52070000Y-52070000D01*
X51435000Y-51435000D02*
X52070000Y-50800000D01*
X53340000Y-50909998D02*
X52650001Y-50219999D01*
X53340000Y-52070000D02*
X53340000Y-50909998D01*
X53340000Y-50800000D02*
X53920001Y-50219999D01*
X53340000Y-52070000D02*
X53340000Y-50800000D01*
X52650001Y-50219999D02*
X53920001Y-50219999D01*
X53920001Y-50219999D02*
X55190001Y-50219999D01*
X50720000Y-69770000D02*
X54610000Y-73660000D01*
X46830000Y-69770000D02*
X50720000Y-69770000D01*
X62919999Y-50219999D02*
X64770000Y-52070000D01*
X54555001Y-50219999D02*
X62919999Y-50219999D01*
X52705000Y-52070000D02*
X54555001Y-50219999D01*
X62230000Y-54610000D02*
X62230000Y-58420000D01*
X64770000Y-52070000D02*
X62230000Y-54610000D01*
X74857999Y-50219999D02*
X76708000Y-52070000D01*
X66620001Y-50219999D02*
X74857999Y-50219999D01*
X64770000Y-52070000D02*
X66620001Y-50219999D01*
X86414999Y-50219999D02*
X88265000Y-52070000D01*
X78558001Y-50219999D02*
X86414999Y-50219999D01*
X76708000Y-52070000D02*
X78558001Y-50219999D01*
X54803520Y-73660000D02*
X54610000Y-73660000D01*
X59248520Y-78105000D02*
X54803520Y-73660000D01*
X81915000Y-78105000D02*
X59248520Y-78105000D01*
X158623000Y-79756000D02*
X158623000Y-69596000D01*
X158623000Y-79756000D02*
X158623000Y-84836000D01*
X97870000Y-80010000D02*
X101600000Y-83740000D01*
X132964010Y-66679990D02*
X131064000Y-68580000D01*
X140593990Y-66679990D02*
X132964010Y-66679990D01*
X142494000Y-68580000D02*
X140593990Y-66679990D01*
X109850010Y-66679990D02*
X107950000Y-68580000D01*
X117461324Y-66679990D02*
X109850010Y-66679990D01*
X119361334Y-68580000D02*
X117461324Y-66679990D01*
X119380000Y-68580000D02*
X119361334Y-68580000D01*
X157022999Y-67995999D02*
X158623000Y-69596000D01*
X143078001Y-67995999D02*
X157022999Y-67995999D01*
X142494000Y-68580000D02*
X143078001Y-67995999D01*
X129163990Y-66679990D02*
X121280010Y-66679990D01*
X121280010Y-66679990D02*
X119380000Y-68580000D01*
X131064000Y-68580000D02*
X129163990Y-66679990D01*
X97870000Y-68518666D02*
X97870000Y-80010000D01*
X99708676Y-66679990D02*
X97870000Y-68518666D01*
X106049990Y-66679990D02*
X99708676Y-66679990D01*
X107950000Y-68580000D02*
X106049990Y-66679990D01*
X84455000Y-78777502D02*
X84455000Y-78105000D01*
X85687498Y-80010000D02*
X84455000Y-78777502D01*
X97870000Y-80010000D02*
X85687498Y-80010000D01*
X77310000Y-70960000D02*
X76200000Y-70960000D01*
X84455000Y-78105000D02*
X77310000Y-70960000D01*
D35*
X163322000Y-32512000D02*
X162052000Y-31242000D01*
X162052000Y-31242000D02*
X162052000Y-19240000D01*
X156972000Y-31750000D02*
X157734000Y-32512000D01*
X156972000Y-19240000D02*
X156972000Y-31750000D01*
X146812000Y-32258000D02*
X146558000Y-32512000D01*
X146812000Y-19240000D02*
X146812000Y-32258000D01*
X152146000Y-19494000D02*
X151892000Y-19240000D01*
X152146000Y-32512000D02*
X152146000Y-19494000D01*
X92710000Y-27940000D02*
X92710000Y-19240000D01*
X92710000Y-31115000D02*
X95885000Y-34290000D01*
X92710000Y-27940000D02*
X92710000Y-31115000D01*
X87630000Y-27940000D02*
X87630000Y-19240000D01*
X87630000Y-30988000D02*
X84328000Y-34290000D01*
X87630000Y-27940000D02*
X87630000Y-30988000D01*
X82550000Y-27940000D02*
X82550000Y-19240000D01*
X73300001Y-33379999D02*
X72390000Y-34290000D01*
X78594925Y-33379999D02*
X73300001Y-33379999D01*
X82550000Y-29424924D02*
X78594925Y-33379999D01*
X82550000Y-27940000D02*
X82550000Y-29424924D01*
X77470000Y-27940000D02*
X77470000Y-19240000D01*
X66675000Y-27940000D02*
X60325000Y-34290000D01*
X77470000Y-27940000D02*
X66675000Y-27940000D01*
D36*
X102870000Y-54610000D02*
X101600000Y-53340000D01*
X102870000Y-60960000D02*
X102870000Y-54610000D01*
X114300000Y-54530000D02*
X113110000Y-53340000D01*
X114300000Y-60960000D02*
X114300000Y-54530000D01*
X125984000Y-54784000D02*
X124540000Y-53340000D01*
X125984000Y-60960000D02*
X125984000Y-54784000D01*
X137414000Y-55038000D02*
X135716000Y-53340000D01*
X137414000Y-60960000D02*
X137414000Y-55038000D01*
X60329990Y-59059990D02*
X62230000Y-60960000D01*
X60329990Y-52700010D02*
X60329990Y-59059990D01*
X60960000Y-52070000D02*
X60329990Y-52700010D01*
X67815889Y-54519971D02*
X65549972Y-56785890D01*
X72090030Y-54519970D02*
X67815889Y-54519971D01*
X72390000Y-52070000D02*
X72390000Y-54220000D01*
X72390000Y-54220000D02*
X72090030Y-54519970D01*
X65549972Y-60180028D02*
X62230000Y-63500000D01*
X65549972Y-56785890D02*
X65549972Y-60180028D01*
X66749982Y-57282948D02*
X66749982Y-61520018D01*
X66749982Y-61520018D02*
X62230000Y-66040000D01*
X80678020Y-55719980D02*
X68312949Y-55719981D01*
X68312949Y-55719981D02*
X66749982Y-57282948D01*
X84328000Y-52070000D02*
X80678020Y-55719980D01*
X95250000Y-54220000D02*
X92520010Y-56949990D01*
X95250000Y-52070000D02*
X95250000Y-54220000D01*
X70871324Y-56919990D02*
X68810010Y-56919990D01*
X92520010Y-56949990D02*
X70901324Y-56949990D01*
X70901324Y-56949990D02*
X70871324Y-56919990D01*
X67949990Y-57780010D02*
X67949990Y-65400010D01*
X68810010Y-56919990D02*
X67949990Y-57780010D01*
X64770000Y-68580000D02*
X62230000Y-68580000D01*
X67949990Y-65400010D02*
X64770000Y-68580000D01*
D35*
X44450000Y-19240000D02*
X44450000Y-27940000D01*
X44450000Y-30480000D02*
X41275000Y-33655000D01*
X44450000Y-27940000D02*
X44450000Y-30480000D01*
D36*
X116960000Y-75050000D02*
X115570000Y-73660000D01*
X130810000Y-75050000D02*
X116960000Y-75050000D01*
X140469000Y-75050000D02*
X145923000Y-69596000D01*
X130810000Y-75050000D02*
X140469000Y-75050000D01*
X130944000Y-75050000D02*
X130810000Y-75050000D01*
X137414000Y-68580000D02*
X130944000Y-75050000D01*
X130730000Y-77470000D02*
X130810000Y-77550000D01*
X115570000Y-77470000D02*
X130730000Y-77470000D01*
X143049000Y-77550000D02*
X145923000Y-74676000D01*
X130810000Y-77550000D02*
X143049000Y-77550000D01*
X125984000Y-68580000D02*
X123865465Y-70698535D01*
X123865465Y-70698535D02*
X114513535Y-70698535D01*
X114069999Y-71142071D02*
X114069999Y-75969999D01*
X114069999Y-75969999D02*
X115570000Y-77470000D01*
X114513535Y-70698535D02*
X114069999Y-71142071D01*
X145883000Y-79796000D02*
X145923000Y-79756000D01*
X116800000Y-80050000D02*
X130810000Y-80050000D01*
X115570000Y-81280000D02*
X116800000Y-80050000D01*
X145629000Y-80050000D02*
X145923000Y-79756000D01*
X130810000Y-80050000D02*
X145629000Y-80050000D01*
X112869989Y-78579989D02*
X115570000Y-81280000D01*
X112869989Y-70010011D02*
X112869989Y-78579989D01*
X114300000Y-68580000D02*
X112869989Y-70010011D01*
X128270000Y-85090000D02*
X130810000Y-82550000D01*
X115570000Y-85090000D02*
X128270000Y-85090000D01*
X143637000Y-82550000D02*
X145923000Y-84836000D01*
X130810000Y-82550000D02*
X143637000Y-82550000D01*
X102870000Y-68580000D02*
X105410000Y-71120000D01*
X111669979Y-81189979D02*
X115570000Y-85090000D01*
X111669979Y-71664979D02*
X111669979Y-81189979D01*
X111125000Y-71120000D02*
X111669979Y-71664979D01*
X105410000Y-71120000D02*
X111125000Y-71120000D01*
X76120000Y-68580000D02*
X76200000Y-68500000D01*
X69850000Y-68580000D02*
X76120000Y-68580000D01*
X76280000Y-68580000D02*
X76200000Y-68500000D01*
X79590000Y-68460000D02*
X81130000Y-70000000D01*
X76200000Y-68460000D02*
X79590000Y-68460000D01*
X80340000Y-65960000D02*
X81130000Y-66750000D01*
X76200000Y-65960000D02*
X80340000Y-65960000D01*
X76120000Y-66040000D02*
X76200000Y-65960000D01*
X69850000Y-66040000D02*
X76120000Y-66040000D01*
X81090000Y-63460000D02*
X81130000Y-63500000D01*
X76200000Y-63460000D02*
X81090000Y-63460000D01*
X76160000Y-63500000D02*
X76200000Y-63460000D01*
X69850000Y-63500000D02*
X76160000Y-63500000D01*
X76160000Y-60960000D02*
X76200000Y-61000000D01*
X69850000Y-60960000D02*
X76160000Y-60960000D01*
X80420000Y-60960000D02*
X81130000Y-60250000D01*
X76200000Y-60960000D02*
X80420000Y-60960000D01*
X107870000Y-73740000D02*
X107950000Y-73660000D01*
X101600000Y-73740000D02*
X107870000Y-73740000D01*
X106720000Y-76240000D02*
X107950000Y-77470000D01*
X101600000Y-76240000D02*
X106720000Y-76240000D01*
X105410000Y-78740000D02*
X107950000Y-81280000D01*
X101600000Y-78740000D02*
X105410000Y-78740000D01*
X104100000Y-81240000D02*
X107950000Y-85090000D01*
X101600000Y-81240000D02*
X104100000Y-81240000D01*
X99299999Y-59929999D02*
X100330000Y-60960000D01*
X99299999Y-52235999D02*
X99299999Y-59929999D01*
X105896028Y-45639970D02*
X99299999Y-52235999D01*
X155113970Y-45639970D02*
X105896028Y-45639970D01*
X163322000Y-53848000D02*
X155113970Y-45639970D01*
X148463000Y-84836000D02*
X151003000Y-84836000D01*
X148463000Y-79756000D02*
X151003000Y-79756000D01*
X148463000Y-74676000D02*
X151003000Y-74676000D01*
X148463000Y-69596000D02*
X151003000Y-69596000D01*
X133415999Y-59501999D02*
X134874000Y-60960000D01*
X133415999Y-52235999D02*
X133415999Y-59501999D01*
X134611999Y-51039999D02*
X133415999Y-52235999D01*
X143749999Y-51039999D02*
X134611999Y-51039999D01*
X146558000Y-53848000D02*
X143749999Y-51039999D01*
X110809999Y-60009999D02*
X111760000Y-60960000D01*
X115606018Y-47439980D02*
X110809999Y-52235999D01*
X110809999Y-52235999D02*
X110809999Y-60009999D01*
X151325980Y-47439980D02*
X115606018Y-47439980D01*
X157734000Y-53848000D02*
X151325980Y-47439980D01*
X122239999Y-59755999D02*
X123444000Y-60960000D01*
X125236008Y-49239990D02*
X122239999Y-52235999D01*
X147537990Y-49239990D02*
X125236008Y-49239990D01*
X122239999Y-52235999D02*
X122239999Y-59755999D01*
X152146000Y-53848000D02*
X147537990Y-49239990D01*
X90290000Y-68460000D02*
X88750000Y-70000000D01*
X95250000Y-68460000D02*
X90290000Y-68460000D01*
X95170000Y-66040000D02*
X95250000Y-65960000D01*
X89540000Y-65960000D02*
X88750000Y-66750000D01*
X95250000Y-65960000D02*
X89540000Y-65960000D01*
X95210000Y-63500000D02*
X95250000Y-63460000D01*
X88750000Y-63500000D02*
X95210000Y-63500000D01*
X94540000Y-60250000D02*
X95250000Y-60960000D01*
X88750000Y-60250000D02*
X94540000Y-60250000D01*
M02*
