M48
; DRILL file {KiCad (6.0.4)} date Thu Mar 31 22:23:52 2022
; FORMAT={-:-/ absolute / metric / decimal}
; #@! TF.CreationDate,2022-03-31T22:23:52+02:00
; #@! TF.GenerationSoftware,Kicad,Pcbnew,(6.0.4)
; #@! TF.FileFunction,Plated,1,2,PTH
FMAT,2
METRIC
; #@! TA.AperFunction,Plated,PTH,ViaDrill
T1C0.300
; #@! TA.AperFunction,Plated,PTH,ViaDrill
T2C0.400
; #@! TA.AperFunction,Plated,PTH,ComponentDrill
T3C0.600
; #@! TA.AperFunction,Plated,PTH,ComponentDrill
T4C0.800
; #@! TA.AperFunction,Plated,PTH,ComponentDrill
T5C0.900
; #@! TA.AperFunction,Plated,PTH,ComponentDrill
T6C0.950
; #@! TA.AperFunction,Plated,PTH,ComponentDrill
T7C1.000
; #@! TA.AperFunction,Plated,PTH,ComponentDrill
T8C1.100
; #@! TA.AperFunction,Plated,PTH,ComponentDrill
T9C1.295
; #@! TA.AperFunction,Plated,PTH,ComponentDrill
T10C3.200
%
G90
G05
T1
X160.503Y-145.225
X161.607Y-145.225
T2
X153.826Y-148.833
X153.856Y-123.153
X154.965Y-123.165
X155.106Y-150.004
X156.066Y-136.005
X156.324Y-142.862
X157.084Y-136.014
X157.356Y-142.844
X157.612Y-140.709
X157.975Y-110.833
X158.966Y-110.833
X158.966Y-132.034
X158.983Y-146.301
X159.786Y-139.104
X159.796Y-137.999
X159.805Y-136.882
X160.296Y-129.123
X160.922Y-136.856
X160.922Y-137.974
X160.927Y-139.104
X161.536Y-131.663
X162.091Y-137.949
X162.106Y-139.174
X162.116Y-136.856
X163.543Y-146.301
X163.639Y-110.833
X164.021Y-141.901
X165.773Y-142.811
X166.738Y-143.116
X167.703Y-134.048
X168.338Y-110.833
X168.719Y-134.048
X168.736Y-137.013
X169.177Y-145.301
X169.436Y-114.123
X169.608Y-132.823
X169.659Y-144.412
X170.193Y-143.497
X170.406Y-114.103
X171.196Y-146.812
X171.789Y-134.938
X171.789Y-135.953
X171.913Y-125.487
X171.916Y-126.444
X172.212Y-146.812
X173.228Y-146.812
X176.568Y-123.253
X182.181Y-134.861
X182.181Y-135.826
X182.181Y-136.741
X182.181Y-137.706
X182.181Y-138.62
X183.172Y-134.887
X183.172Y-135.852
X183.172Y-136.766
X183.172Y-137.731
X183.172Y-138.646
X184.213Y-122.999
X184.468Y-139.713
X184.518Y-132.27
X184.518Y-140.653
X184.594Y-133.312
X185.407Y-139.713
X185.483Y-132.27
X185.483Y-140.653
X185.56Y-133.312
X186.373Y-139.713
X186.398Y-132.27
X186.398Y-140.653
X186.525Y-133.312
X187.338Y-139.713
X187.363Y-132.27
X187.363Y-140.653
X187.49Y-133.312
X188.201Y-126.403
X188.278Y-132.27
X188.278Y-139.713
X188.278Y-140.653
X188.404Y-133.312
X189.573Y-134.887
X189.573Y-135.852
X189.573Y-136.766
X189.573Y-137.731
X189.573Y-138.646
X190.564Y-134.861
X190.564Y-135.826
X190.564Y-136.741
X190.564Y-137.706
X190.564Y-138.62
X190.837Y-130.523
X191.732Y-124.422
X192.672Y-124.432
X193.078Y-122.085
X193.846Y-147.643
X193.856Y-144.344
X193.865Y-130.645
X193.865Y-131.686
X194.602Y-120.104
T4
X128.386Y-94.623
X135.886Y-96.257
X136.334Y-144.576
X136.334Y-147.076
X175.552Y-109.639
X175.552Y-117.259
X178.092Y-109.639
X178.092Y-117.259
X180.632Y-109.639
X180.632Y-117.259
X183.172Y-109.639
X183.172Y-117.259
X186.728Y-109.639
X186.728Y-117.259
X189.268Y-109.639
X189.268Y-117.259
X191.808Y-109.639
X191.808Y-117.259
X194.348Y-109.639
X194.348Y-117.259
T5
X152.123Y-98.991
X152.123Y-101.531
X157.52Y-98.971
X157.52Y-101.511
X163.068Y-98.971
X163.068Y-101.511
X168.465Y-98.971
X168.465Y-101.511
X178.092Y-84.01
X178.092Y-89.09
X183.07Y-84.01
X183.07Y-89.09
X188.1Y-84.01
X188.1Y-89.09
X193.129Y-84.01
X193.129Y-89.09
T6
X160.026Y-118.314
X162.526Y-118.314
X165.026Y-118.314
X167.526Y-118.314
T7
X143.009Y-138.603
X143.009Y-145.58
X143.536Y-90.364
X143.536Y-100.493
X143.546Y-85.283
X143.546Y-95.413
X145.509Y-138.603
X145.509Y-145.58
X150.558Y-144.539
X150.558Y-147.079
X153.733Y-138.168
X153.733Y-140.708
X155.081Y-117.425
X155.081Y-119.965
X170.701Y-141.719
X173.241Y-141.719
X178.956Y-125.082
X181.496Y-125.082
X184.036Y-125.082
X184.442Y-149.161
X186.576Y-125.082
X186.982Y-149.161
T8
X129.136Y-109.444
X129.136Y-129.444
X129.222Y-140.525
X129.222Y-143.065
X129.222Y-145.606
X149.136Y-114.444
X149.136Y-124.444
X152.123Y-83.751
X152.123Y-91.371
X157.52Y-83.731
X157.52Y-91.351
X163.068Y-83.731
X163.068Y-91.351
X168.465Y-83.731
X168.465Y-91.351
T9
X140.5Y-70.777
X140.5Y-78.977
X145.5Y-70.777
X145.5Y-78.977
X154.147Y-70.754
X154.147Y-78.953
X159.147Y-70.754
X159.147Y-78.953
X164.147Y-70.754
X164.147Y-78.953
X169.147Y-70.754
X169.147Y-78.953
X178.106Y-70.713
X178.106Y-78.913
X183.106Y-70.713
X183.106Y-78.913
X188.106Y-70.713
X188.106Y-78.913
X193.106Y-70.713
X193.106Y-78.913
T10
X132.256Y-76.504
X132.27Y-85.407
X198.564Y-85.407
T3
X156.953Y-144.321G85X156.953Y-145.421
G05
X156.953Y-148.751G85X156.953Y-149.351
G05
X165.593Y-144.321G85X165.593Y-145.421
G05
X165.593Y-148.751G85X165.593Y-149.351
G05
T0
M30
