%FSLAX45Y45*%
G04 Gerber Fmt 4.5, Leading zero omitted, Abs format (unit mm)*
G04 Created by KiCad (PCBNEW (6.0.5)) date 2022-09-21 20:33:48*
%MOMM*%
%LPD*%
G01*
G04 APERTURE LIST*
%TA.AperFunction,Profile*%
%ADD10C,0.050000*%
%TD*%
%TA.AperFunction,Profile*%
%ADD11C,0.100000*%
%TD*%
%ADD12C,0.200000*%
%ADD13C,0.030000*%
%ADD14C,0.040000*%
%ADD15C,0.060000*%
%ADD16C,0.080000*%
%ADD17C,0.100000*%
%ADD18C,0.110000*%
%ADD19C,0.129540*%
%ADD20C,0.320000*%
G04 APERTURE END LIST*
D10*
X10668050Y-11550650D02*
G75*
G03*
X10922050Y-11296650I0J254000D01*
G01*
X10922050Y-11296650D02*
X10922050Y-3371850D01*
X6753950Y-11550850D02*
X3340150Y-11550850D01*
X10402450Y-5607050D02*
G75*
G03*
X10402450Y-5607050I-90000J0D01*
G01*
D11*
X7753950Y-7162800D02*
X5281980Y-7162800D01*
D10*
X10668050Y-3117850D02*
X3340150Y-3117850D01*
D11*
X5154980Y-6781800D02*
X7753950Y-6781800D01*
D10*
X3086150Y-11296650D02*
X3086150Y-3371850D01*
X7753950Y-7162800D02*
G75*
G03*
X7753950Y-6781800I0J190500D01*
G01*
X3086150Y-11296650D02*
G75*
G03*
X3340150Y-11550850I254200J0D01*
G01*
X10668050Y-11550650D02*
X6753950Y-11550850D01*
X10922050Y-3371850D02*
G75*
G03*
X10668050Y-3117850I-254000J0D01*
G01*
X9179905Y-5746455D02*
X9179905Y-5203485D01*
X9580340Y-3280410D02*
X9580340Y-3631250D01*
X8058030Y-6287770D02*
G75*
G03*
X8058030Y-6287770I-90000J0D01*
G01*
X6690475Y-4137930D02*
X6690475Y-4910675D01*
X6181820Y-3280410D02*
X6181820Y-3631250D01*
X8055888Y-7560500D02*
G75*
G03*
X8210300Y-7714912I154412J0D01*
G01*
X8582120Y-3641410D02*
G75*
G03*
X8681770Y-3641410I49825J0D01*
G01*
X8577335Y-5203485D02*
X8577335Y-5746455D01*
X8681770Y-3290570D02*
G75*
G03*
X8582120Y-3290570I-49825J0D01*
G01*
X4815300Y-4105910D02*
X4815300Y-4456750D01*
X8676985Y-5746455D02*
X8676985Y-5203485D01*
X8577335Y-6580500D02*
G75*
G03*
X8676985Y-6580500I49825J0D01*
G01*
X6687280Y-3631250D02*
G75*
G03*
X6786930Y-3631250I49825J0D01*
G01*
X9580635Y-4881490D02*
G75*
G03*
X9680285Y-4881490I49825J0D01*
G01*
X6790125Y-4137930D02*
G75*
G03*
X6690475Y-4137930I-49825J0D01*
G01*
X5154980Y-6781800D02*
G75*
G03*
X5099100Y-6837680I0J-55880D01*
G01*
X10402450Y-6531610D02*
G75*
G03*
X10402450Y-6531610I-90000J0D01*
G01*
X9682825Y-5746455D02*
X9682825Y-5203485D01*
X9080255Y-5746455D02*
G75*
G03*
X9179905Y-5746455I49825J0D01*
G01*
X6786930Y-3280410D02*
G75*
G03*
X6687280Y-3280410I-49825J0D01*
G01*
X9580340Y-3631250D02*
G75*
G03*
X9679990Y-3631250I49825J0D01*
G01*
X5141538Y-5113938D02*
X4698363Y-5113938D01*
X8676985Y-5203485D02*
G75*
G03*
X8577335Y-5203485I-49825J0D01*
G01*
X9580635Y-4108745D02*
X9580635Y-4881490D01*
X9680285Y-4881490D02*
X9680285Y-4108745D01*
X7187660Y-3290570D02*
X7187660Y-3641410D01*
D11*
X8210300Y-7580292D02*
X10400187Y-7580292D01*
D10*
X8190508Y-7160500D02*
G75*
G03*
X8055888Y-7160500I-67310J-3D01*
G01*
X9077715Y-6080500D02*
X9077715Y-6580500D01*
X5281980Y-7162800D02*
G75*
G03*
X5226100Y-7218680I-10J-55870D01*
G01*
X9682825Y-5203485D02*
G75*
G03*
X9583175Y-5203485I-49825J0D01*
G01*
X5099100Y-6837680D02*
X5099100Y-9034780D01*
X7290125Y-4140500D02*
G75*
G03*
X7190475Y-4140500I-49825J0D01*
G01*
X8580950Y-4107570D02*
X8580950Y-4880315D01*
X6180475Y-4910675D02*
G75*
G03*
X6280125Y-4910675I49825J0D01*
G01*
X7190475Y-4140500D02*
X7190475Y-4913245D01*
X4817950Y-3615690D02*
G75*
G03*
X4917600Y-3615690I49825J0D01*
G01*
X6181820Y-3631250D02*
G75*
G03*
X6281470Y-3631250I49825J0D01*
G01*
X9179610Y-3626170D02*
X9179610Y-3275330D01*
X9682825Y-6580500D02*
X9682825Y-6080500D01*
X8577335Y-6080500D02*
X8577335Y-6580500D01*
X9680285Y-4108745D02*
G75*
G03*
X9580635Y-4108745I-49825J0D01*
G01*
X8582120Y-3290570D02*
X8582120Y-3641410D01*
X9583175Y-6080500D02*
X9583175Y-6580500D01*
X4499660Y-6178375D02*
G75*
G03*
X4599310Y-6178375I49825J0D01*
G01*
D11*
X10400187Y-7714912D02*
X8210300Y-7714912D01*
D10*
X9179905Y-4878950D02*
X9179905Y-4106205D01*
X8580950Y-4880315D02*
G75*
G03*
X8680600Y-4880315I49825J0D01*
G01*
X4917600Y-3264850D02*
G75*
G03*
X4817950Y-3264850I-49825J0D01*
G01*
X6690475Y-4910675D02*
G75*
G03*
X6790125Y-4910675I49825J0D01*
G01*
X4917600Y-3615690D02*
X4917600Y-3264850D01*
X5141538Y-5213583D02*
G75*
G03*
X5141538Y-5113938I3J49823D01*
G01*
X4914950Y-4456750D02*
X4914950Y-4105910D01*
X8680600Y-4880315D02*
X8680600Y-4107570D01*
X4914950Y-4105910D02*
G75*
G03*
X4815300Y-4105910I-49825J0D01*
G01*
X4815300Y-4456750D02*
G75*
G03*
X4914950Y-4456750I49825J0D01*
G01*
X7287310Y-3641410D02*
X7287310Y-3290570D01*
X6687280Y-3280410D02*
X6687280Y-3631250D01*
X9080255Y-5203485D02*
X9080255Y-5746455D01*
X7287310Y-3290570D02*
G75*
G03*
X7187660Y-3290570I-49825J0D01*
G01*
X8577335Y-5746455D02*
G75*
G03*
X8676985Y-5746455I49825J0D01*
G01*
X3340150Y-3117850D02*
G75*
G03*
X3086150Y-3371850I0J-254000D01*
G01*
X4698363Y-5113933D02*
G75*
G03*
X4698363Y-5213588I-3J-49828D01*
G01*
X4499660Y-5810425D02*
X4499660Y-6178375D01*
X9080255Y-4106205D02*
X9080255Y-4878950D01*
X6786930Y-3631250D02*
X6786930Y-3280410D01*
X6280125Y-4137930D02*
G75*
G03*
X6180475Y-4137930I-49825J0D01*
G01*
X9179905Y-5203485D02*
G75*
G03*
X9080255Y-5203485I-49825J0D01*
G01*
X9079960Y-3626170D02*
G75*
G03*
X9179610Y-3626170I49825J0D01*
G01*
X9179610Y-3275330D02*
G75*
G03*
X9079960Y-3275330I-49825J0D01*
G01*
X5099100Y-9034780D02*
G75*
G03*
X5226100Y-9034780I63500J1561D01*
G01*
X9682825Y-6080500D02*
G75*
G03*
X9583175Y-6080500I-49825J0D01*
G01*
X9583175Y-5746455D02*
G75*
G03*
X9682825Y-5746455I49825J0D01*
G01*
X9080255Y-4878950D02*
G75*
G03*
X9179905Y-4878950I49825J0D01*
G01*
X8190508Y-7560500D02*
G75*
G03*
X8210300Y-7580292I19792J0D01*
G01*
X9077715Y-6580500D02*
G75*
G03*
X9177365Y-6580500I49825J0D01*
G01*
X9679990Y-3631250D02*
X9679990Y-3280410D01*
X9179905Y-4106205D02*
G75*
G03*
X9080255Y-4106205I-49825J0D01*
G01*
X6281470Y-3280410D02*
G75*
G03*
X6181820Y-3280410I-49825J0D01*
G01*
X6281470Y-3631250D02*
X6281470Y-3280410D01*
X4817950Y-3264850D02*
X4817950Y-3615690D01*
X7190475Y-4913245D02*
G75*
G03*
X7290125Y-4913245I49825J0D01*
G01*
X9583175Y-5203485D02*
X9583175Y-5746455D01*
X8676985Y-6580500D02*
X8676985Y-6080500D01*
X8055888Y-7560500D02*
X8055888Y-7160500D01*
X4599310Y-5810425D02*
G75*
G03*
X4499660Y-5810425I-49825J0D01*
G01*
X6280125Y-4910675D02*
X6280125Y-4137930D01*
X10400187Y-7714908D02*
G75*
G03*
X10400187Y-7580292I3J67308D01*
G01*
X8190508Y-7160500D02*
X8190508Y-7560500D01*
X8676985Y-6080500D02*
G75*
G03*
X8577335Y-6080500I-49825J0D01*
G01*
X9177365Y-6080500D02*
G75*
G03*
X9077715Y-6080500I-49825J0D01*
G01*
X9679990Y-3280410D02*
G75*
G03*
X9580340Y-3280410I-49825J0D01*
G01*
X7187660Y-3641410D02*
G75*
G03*
X7287310Y-3641410I49825J0D01*
G01*
X4599310Y-6178375D02*
X4599310Y-5810425D01*
X9079960Y-3275330D02*
X9079960Y-3626170D01*
X9177365Y-6580500D02*
X9177365Y-6080500D01*
X8681770Y-3641410D02*
X8681770Y-3290570D01*
X6790125Y-4910675D02*
X6790125Y-4137930D01*
X5226100Y-9034780D02*
X5226100Y-7218680D01*
X4698363Y-5213588D02*
X5141538Y-5213588D01*
X6180475Y-4137930D02*
X6180475Y-4910675D01*
X8680600Y-4107570D02*
G75*
G03*
X8580950Y-4107570I-49825J0D01*
G01*
X7290125Y-4913245D02*
X7290125Y-4140500D01*
X9583175Y-6580500D02*
G75*
G03*
X9682825Y-6580500I49825J0D01*
G01*
D12*
D13*
X6605600Y-10887950D02*
X6635600Y-10917950D01*
X6635600Y-10887950D02*
X6605600Y-10917950D01*
X6716050Y-10887950D02*
X6746050Y-10917950D01*
X6746050Y-10887950D02*
X6716050Y-10917950D01*
D14*
X3880800Y-10426700D02*
G75*
G03*
X3880800Y-10426700I-20000J0D01*
G01*
X3880800Y-10629900D02*
G75*
G03*
X3880800Y-10629900I-20000J0D01*
G01*
X5442900Y-10248900D02*
G75*
G03*
X5442900Y-10248900I-20000J0D01*
G01*
X5442900Y-10426700D02*
G75*
G03*
X5442900Y-10426700I-20000J0D01*
G01*
X5442900Y-10629900D02*
G75*
G03*
X5442900Y-10629900I-20000J0D01*
G01*
X5972950Y-11263850D02*
G75*
G03*
X5972950Y-11263850I-20000J0D01*
G01*
X5975300Y-9111200D02*
G75*
G03*
X5975300Y-9111200I-20000J0D01*
G01*
X5975300Y-9301700D02*
G75*
G03*
X5975300Y-9301700I-20000J0D01*
G01*
X6100950Y-11380850D02*
G75*
G03*
X6100950Y-11380850I-20000J0D01*
G01*
X6196950Y-9981050D02*
G75*
G03*
X6196950Y-9981050I-20000J0D01*
G01*
X6222730Y-10666730D02*
G75*
G03*
X6222730Y-10666730I-20000J0D01*
G01*
X6298698Y-9981890D02*
G75*
G03*
X6298698Y-9981890I-20000J0D01*
G01*
X6298882Y-9809492D02*
G75*
G03*
X6298882Y-9809492I-20000J0D01*
G01*
X6325950Y-10664850D02*
G75*
G03*
X6325950Y-10664850I-20000J0D01*
G01*
X6351510Y-10451390D02*
G75*
G03*
X6351510Y-10451390I-20000J0D01*
G01*
X6368780Y-8102600D02*
G75*
G03*
X6368780Y-8102600I-20000J0D01*
G01*
X6488600Y-11010578D02*
G75*
G03*
X6488600Y-11010578I-20000J0D01*
G01*
X6568950Y-10290890D02*
G75*
G03*
X6568950Y-10290890I-20000J0D01*
G01*
X6569950Y-10180450D02*
G75*
G03*
X6569950Y-10180450I-20000J0D01*
G01*
X6570790Y-10068690D02*
G75*
G03*
X6570790Y-10068690I-20000J0D01*
G01*
X6682550Y-10066150D02*
G75*
G03*
X6682550Y-10066150I-20000J0D01*
G01*
X6682550Y-10177910D02*
G75*
G03*
X6682550Y-10177910I-20000J0D01*
G01*
X6682950Y-10290890D02*
G75*
G03*
X6682950Y-10290890I-20000J0D01*
G01*
X6709384Y-9821989D02*
G75*
G03*
X6709384Y-9821989I-20000J0D01*
G01*
X6799390Y-10175370D02*
G75*
G03*
X6799390Y-10175370I-20000J0D01*
G01*
X6800950Y-10297890D02*
G75*
G03*
X6800950Y-10297890I-20000J0D01*
G01*
X6801930Y-10066150D02*
G75*
G03*
X6801930Y-10066150I-20000J0D01*
G01*
X6950300Y-11010500D02*
G75*
G03*
X6950300Y-11010500I-20000J0D01*
G01*
X6992410Y-10570590D02*
G75*
G03*
X6992410Y-10570590I-20000J0D01*
G01*
X7128812Y-9681908D02*
G75*
G03*
X7128812Y-9681908I-20000J0D01*
G01*
X7167610Y-10661650D02*
G75*
G03*
X7167610Y-10661650I-20000J0D01*
G01*
X7264130Y-10692130D02*
G75*
G03*
X7264130Y-10692130I-20000J0D01*
G01*
X7400300Y-9990500D02*
G75*
G03*
X7400300Y-9990500I-20000J0D01*
G01*
X7486380Y-9801860D02*
G75*
G03*
X7486380Y-9801860I-20000J0D01*
G01*
X7507970Y-10910570D02*
G75*
G03*
X7507970Y-10910570I-20000J0D01*
G01*
X7556230Y-10821670D02*
G75*
G03*
X7556230Y-10821670I-20000J0D01*
G01*
X7608300Y-9093200D02*
G75*
G03*
X7608300Y-9093200I-20000J0D01*
G01*
X7609570Y-10730230D02*
G75*
G03*
X7609570Y-10730230I-20000J0D01*
G01*
X7616950Y-9339580D02*
G75*
G03*
X7616950Y-9339580I-20000J0D01*
G01*
X7646400Y-8331200D02*
G75*
G03*
X7646400Y-8331200I-20000J0D01*
G01*
X7709900Y-11061700D02*
G75*
G03*
X7709900Y-11061700I-20000J0D01*
G01*
X7740300Y-10010500D02*
G75*
G03*
X7740300Y-10010500I-20000J0D01*
G01*
X7773400Y-8382000D02*
G75*
G03*
X7773400Y-8382000I-20000J0D01*
G01*
X7811500Y-11061700D02*
G75*
G03*
X7811500Y-11061700I-20000J0D01*
G01*
X7900400Y-8445500D02*
G75*
G03*
X7900400Y-8445500I-20000J0D01*
G01*
X7913100Y-11061700D02*
G75*
G03*
X7913100Y-11061700I-20000J0D01*
G01*
X7989300Y-7785100D02*
G75*
G03*
X7989300Y-7785100I-20000J0D01*
G01*
X8027400Y-8458200D02*
G75*
G03*
X8027400Y-8458200I-20000J0D01*
G01*
X8162351Y-8488349D02*
G75*
G03*
X8162351Y-8488349I-20000J0D01*
G01*
X8710660Y-8389620D02*
G75*
G03*
X8710660Y-8389620I-20000J0D01*
G01*
X8710660Y-8542020D02*
G75*
G03*
X8710660Y-8542020I-20000J0D01*
G01*
X8808450Y-9866630D02*
G75*
G03*
X8808450Y-9866630I-20000J0D01*
G01*
X8808450Y-10054590D02*
G75*
G03*
X8808450Y-10054590I-20000J0D01*
G01*
X8808450Y-10242550D02*
G75*
G03*
X8808450Y-10242550I-20000J0D01*
G01*
X8852900Y-8394700D02*
G75*
G03*
X8852900Y-8394700I-20000J0D01*
G01*
X8863060Y-8542020D02*
G75*
G03*
X8863060Y-8542020I-20000J0D01*
G01*
X8907510Y-9965690D02*
G75*
G03*
X8907510Y-9965690I-20000J0D01*
G01*
X8907510Y-10153650D02*
G75*
G03*
X8907510Y-10153650I-20000J0D01*
G01*
X9042130Y-10445750D02*
G75*
G03*
X9042130Y-10445750I-20000J0D01*
G01*
X9050300Y-9607550D02*
G75*
G03*
X9050300Y-9607550I-20000J0D01*
G01*
X9131030Y-10351770D02*
G75*
G03*
X9131030Y-10351770I-20000J0D01*
G01*
X9146270Y-9711690D02*
G75*
G03*
X9146270Y-9711690I-20000J0D01*
G01*
X9230090Y-10445750D02*
G75*
G03*
X9230090Y-10445750I-20000J0D01*
G01*
X9240300Y-9607550D02*
G75*
G03*
X9240300Y-9607550I-20000J0D01*
G01*
X9324070Y-10351770D02*
G75*
G03*
X9324070Y-10351770I-20000J0D01*
G01*
X9339310Y-9711690D02*
G75*
G03*
X9339310Y-9711690I-20000J0D01*
G01*
X9399000Y-8966200D02*
G75*
G03*
X9399000Y-8966200I-20000J0D01*
G01*
X9418050Y-10445750D02*
G75*
G03*
X9418050Y-10445750I-20000J0D01*
G01*
X9430300Y-9607550D02*
G75*
G03*
X9430300Y-9607550I-20000J0D01*
G01*
X9550300Y-9963150D02*
G75*
G03*
X9550300Y-9963150I-20000J0D01*
G01*
X9550300Y-10150500D02*
G75*
G03*
X9550300Y-10150500I-20000J0D01*
G01*
X9640300Y-9870500D02*
G75*
G03*
X9640300Y-9870500I-20000J0D01*
G01*
X9640300Y-10057130D02*
G75*
G03*
X9640300Y-10057130I-20000J0D01*
G01*
X9640300Y-10250500D02*
G75*
G03*
X9640300Y-10250500I-20000J0D01*
G01*
X9665700Y-8839200D02*
G75*
G03*
X9665700Y-8839200I-20000J0D01*
G01*
X9673950Y-9432850D02*
G75*
G03*
X9673950Y-9432850I-20000J0D01*
G01*
X9763490Y-8839200D02*
G75*
G03*
X9763490Y-8839200I-20000J0D01*
G01*
X9818100Y-8534400D02*
G75*
G03*
X9818100Y-8534400I-20000J0D01*
G01*
X9848580Y-8384540D02*
G75*
G03*
X9848580Y-8384540I-20000J0D01*
G01*
X9857470Y-8839200D02*
G75*
G03*
X9857470Y-8839200I-20000J0D01*
G01*
X9934940Y-8384540D02*
G75*
G03*
X9934940Y-8384540I-20000J0D01*
G01*
X9975950Y-10814850D02*
G75*
G03*
X9975950Y-10814850I-20000J0D01*
G01*
X9976850Y-9444990D02*
G75*
G03*
X9976850Y-9444990I-20000J0D01*
G01*
X9983200Y-8534400D02*
G75*
G03*
X9983200Y-8534400I-20000J0D01*
G01*
X10026380Y-8839200D02*
G75*
G03*
X10026380Y-8839200I-20000J0D01*
G01*
X10028700Y-8991600D02*
G75*
G03*
X10028700Y-8991600I-20000J0D01*
G01*
D15*
X6265600Y-10837590D02*
X6265600Y-10897590D01*
X6235600Y-10867590D02*
X6295600Y-10867590D01*
D12*
X6245600Y-10812590D02*
X6245600Y-10922590D01*
X6285600Y-10812590D02*
X6285600Y-10922590D01*
X6245600Y-10922590D02*
G75*
G03*
X6285600Y-10922590I20000J0D01*
G01*
X6285600Y-10812590D02*
G75*
G03*
X6245600Y-10812590I-20000J0D01*
G01*
D15*
X6265600Y-11255590D02*
X6265600Y-11315590D01*
X6235600Y-11285590D02*
X6295600Y-11285590D01*
D12*
X6245600Y-11255590D02*
X6245600Y-11315590D01*
X6285600Y-11255590D02*
X6285600Y-11315590D01*
X6245600Y-11315590D02*
G75*
G03*
X6285600Y-11315590I20000J0D01*
G01*
X6285600Y-11255590D02*
G75*
G03*
X6245600Y-11255590I-20000J0D01*
G01*
D15*
X7129600Y-10837590D02*
X7129600Y-10897590D01*
X7099600Y-10867590D02*
X7159600Y-10867590D01*
D12*
X7109600Y-10812590D02*
X7109600Y-10922590D01*
X7149600Y-10812590D02*
X7149600Y-10922590D01*
X7109600Y-10922590D02*
G75*
G03*
X7149600Y-10922590I20000J0D01*
G01*
X7149600Y-10812590D02*
G75*
G03*
X7109600Y-10812590I-20000J0D01*
G01*
D15*
X7129600Y-11255590D02*
X7129600Y-11315590D01*
X7099600Y-11285590D02*
X7159600Y-11285590D01*
D12*
X7109600Y-11255590D02*
X7109600Y-11315590D01*
X7149600Y-11255590D02*
X7149600Y-11315590D01*
X7109600Y-11315590D02*
G75*
G03*
X7149600Y-11315590I20000J0D01*
G01*
X7149600Y-11255590D02*
G75*
G03*
X7109600Y-11255590I-20000J0D01*
G01*
D16*
X4198665Y-5929429D02*
X4198665Y-5872860D01*
X4142095Y-5872860D01*
X4142095Y-5929429D01*
X4198665Y-5929429D01*
X4543185Y-10404185D02*
X4543185Y-10347616D01*
X4486616Y-10347616D01*
X4486616Y-10404185D01*
X4543185Y-10404185D01*
X4793185Y-10404185D02*
X4793185Y-10347616D01*
X4736616Y-10347616D01*
X4736616Y-10404185D01*
X4793185Y-10404185D01*
X4948665Y-6092762D02*
X4948665Y-6036193D01*
X4892096Y-6036193D01*
X4892096Y-6092762D01*
X4948665Y-6092762D01*
X6008584Y-4818785D02*
X6008584Y-4762216D01*
X5952015Y-4762216D01*
X5952015Y-4818785D01*
X6008584Y-4818785D01*
X6008584Y-5326785D02*
X6008584Y-5270216D01*
X5952015Y-5270216D01*
X5952015Y-5326785D01*
X6008584Y-5326785D01*
X6498584Y-4814785D02*
X6498584Y-4758216D01*
X6442015Y-4758216D01*
X6442015Y-4814785D01*
X6498584Y-4814785D01*
X6498584Y-5322785D02*
X6498584Y-5266216D01*
X6442015Y-5266216D01*
X6442015Y-5322785D01*
X6498584Y-5322785D01*
X7008584Y-4814785D02*
X7008584Y-4758216D01*
X6952015Y-4758216D01*
X6952015Y-4814785D01*
X7008584Y-4814785D01*
X7008584Y-5322785D02*
X7008584Y-5266216D01*
X6952015Y-5266216D01*
X6952015Y-5322785D01*
X7008584Y-5322785D01*
X7518584Y-4814785D02*
X7518584Y-4758216D01*
X7462015Y-4758216D01*
X7462015Y-4814785D01*
X7518584Y-4814785D01*
X7518584Y-5322785D02*
X7518584Y-5266216D01*
X7462015Y-5266216D01*
X7462015Y-5322785D01*
X7518584Y-5322785D01*
X8407795Y-4809835D02*
X8407795Y-4753266D01*
X8351225Y-4753266D01*
X8351225Y-4809835D01*
X8407795Y-4809835D01*
X8407795Y-5317835D02*
X8407795Y-5261266D01*
X8351225Y-5261266D01*
X8351225Y-5317835D01*
X8407795Y-5317835D01*
X8411712Y-7420616D02*
X8411712Y-7364047D01*
X8355143Y-7364047D01*
X8355143Y-7420616D01*
X8411712Y-7420616D01*
X8411712Y-8182616D02*
X8411712Y-8126047D01*
X8355143Y-8126047D01*
X8355143Y-8182616D01*
X8411712Y-8182616D01*
X8665712Y-7420616D02*
X8665712Y-7364047D01*
X8609143Y-7364047D01*
X8609143Y-7420616D01*
X8665712Y-7420616D01*
X8665712Y-8182616D02*
X8665712Y-8126047D01*
X8609143Y-8126047D01*
X8609143Y-8182616D01*
X8665712Y-8182616D01*
X8905635Y-4809835D02*
X8905635Y-4753266D01*
X8849066Y-4753266D01*
X8849066Y-4809835D01*
X8905635Y-4809835D01*
X8905635Y-5317835D02*
X8905635Y-5261266D01*
X8849066Y-5261266D01*
X8849066Y-5317835D01*
X8905635Y-5317835D01*
X8919712Y-7420616D02*
X8919712Y-7364047D01*
X8863143Y-7364047D01*
X8863143Y-7420616D01*
X8919712Y-7420616D01*
X8919712Y-8182616D02*
X8919712Y-8126047D01*
X8863143Y-8126047D01*
X8863143Y-8182616D01*
X8919712Y-8182616D01*
X9173712Y-7420616D02*
X9173712Y-7364047D01*
X9117143Y-7364047D01*
X9117143Y-7420616D01*
X9173712Y-7420616D01*
X9173712Y-8182616D02*
X9173712Y-8126047D01*
X9117143Y-8126047D01*
X9117143Y-8182616D01*
X9173712Y-8182616D01*
X9408555Y-4809835D02*
X9408555Y-4753266D01*
X9351986Y-4753266D01*
X9351986Y-4809835D01*
X9408555Y-4809835D01*
X9408555Y-5317835D02*
X9408555Y-5261266D01*
X9351986Y-5261266D01*
X9351986Y-5317835D01*
X9408555Y-5317835D01*
X9529312Y-7420616D02*
X9529312Y-7364047D01*
X9472743Y-7364047D01*
X9472743Y-7420616D01*
X9529312Y-7420616D01*
X9529312Y-8182616D02*
X9529312Y-8126047D01*
X9472743Y-8126047D01*
X9472743Y-8182616D01*
X9529312Y-8182616D01*
X9783312Y-7420616D02*
X9783312Y-7364047D01*
X9726743Y-7364047D01*
X9726743Y-7420616D01*
X9783312Y-7420616D01*
X9783312Y-8182616D02*
X9783312Y-8126047D01*
X9726743Y-8126047D01*
X9726743Y-8182616D01*
X9783312Y-8182616D01*
X9911475Y-4809835D02*
X9911475Y-4753266D01*
X9854906Y-4753266D01*
X9854906Y-4809835D01*
X9911475Y-4809835D01*
X9911475Y-5317835D02*
X9911475Y-5261266D01*
X9854906Y-5261266D01*
X9854906Y-5317835D01*
X9911475Y-5317835D01*
X10037312Y-7420616D02*
X10037312Y-7364047D01*
X9980743Y-7364047D01*
X9980743Y-7420616D01*
X10037312Y-7420616D01*
X10037312Y-8182616D02*
X10037312Y-8126047D01*
X9980743Y-8126047D01*
X9980743Y-8182616D01*
X10037312Y-8182616D01*
X10291312Y-7420616D02*
X10291312Y-7364047D01*
X10234743Y-7364047D01*
X10234743Y-7420616D01*
X10291312Y-7420616D01*
X10291312Y-8182616D02*
X10291312Y-8126047D01*
X10234743Y-8126047D01*
X10234743Y-8182616D01*
X10291312Y-8182616D01*
D17*
X3983500Y-11071900D02*
X4033500Y-11021900D01*
X3983500Y-10971900D01*
X3933500Y-11021900D01*
X3983500Y-11071900D01*
X4233500Y-11071900D02*
X4283500Y-11021900D01*
X4233500Y-10971900D01*
X4183500Y-11021900D01*
X4233500Y-11071900D01*
X4883200Y-11071900D02*
X4933200Y-11021900D01*
X4883200Y-10971900D01*
X4833200Y-11021900D01*
X4883200Y-11071900D01*
X4923950Y-5466850D02*
X4973950Y-5416850D01*
X4923950Y-5366850D01*
X4873950Y-5416850D01*
X4923950Y-5466850D01*
X4924950Y-4958850D02*
X4974950Y-4908850D01*
X4924950Y-4858850D01*
X4874950Y-4908850D01*
X4924950Y-4958850D01*
X5133200Y-11071900D02*
X5183200Y-11021900D01*
X5133200Y-10971900D01*
X5083200Y-11021900D01*
X5133200Y-11071900D01*
X5626150Y-9989020D02*
X5676150Y-9939020D01*
X5626150Y-9889020D01*
X5576150Y-9939020D01*
X5626150Y-9989020D01*
X5626150Y-10243020D02*
X5676150Y-10193020D01*
X5626150Y-10143020D01*
X5576150Y-10193020D01*
X5626150Y-10243020D01*
X5626150Y-10497020D02*
X5676150Y-10447020D01*
X5626150Y-10397020D01*
X5576150Y-10447020D01*
X5626150Y-10497020D01*
X5626150Y-10884370D02*
X5676150Y-10834370D01*
X5626150Y-10784370D01*
X5576150Y-10834370D01*
X5626150Y-10884370D01*
X5626150Y-11138370D02*
X5676150Y-11088370D01*
X5626150Y-11038370D01*
X5576150Y-11088370D01*
X5626150Y-11138370D01*
X6197600Y-5765000D02*
X6247600Y-5715000D01*
X6197600Y-5665000D01*
X6147600Y-5715000D01*
X6197600Y-5765000D01*
X6197600Y-6527000D02*
X6247600Y-6477000D01*
X6197600Y-6427000D01*
X6147600Y-6477000D01*
X6197600Y-6527000D01*
X6197600Y-7543000D02*
X6247600Y-7493000D01*
X6197600Y-7443000D01*
X6147600Y-7493000D01*
X6197600Y-7543000D01*
X6197600Y-7797000D02*
X6247600Y-7747000D01*
X6197600Y-7697000D01*
X6147600Y-7747000D01*
X6197600Y-7797000D01*
X6216700Y-8647900D02*
X6266700Y-8597900D01*
X6216700Y-8547900D01*
X6166700Y-8597900D01*
X6216700Y-8647900D01*
X6470700Y-8647900D02*
X6520700Y-8597900D01*
X6470700Y-8547900D01*
X6420700Y-8597900D01*
X6470700Y-8647900D01*
X6680200Y-5765000D02*
X6730200Y-5715000D01*
X6680200Y-5665000D01*
X6630200Y-5715000D01*
X6680200Y-5765000D01*
X6680200Y-6527000D02*
X6730200Y-6477000D01*
X6680200Y-6427000D01*
X6630200Y-6477000D01*
X6680200Y-6527000D01*
X6680200Y-7543000D02*
X6730200Y-7493000D01*
X6680200Y-7443000D01*
X6630200Y-7493000D01*
X6680200Y-7543000D01*
X6680200Y-7797000D02*
X6730200Y-7747000D01*
X6680200Y-7697000D01*
X6630200Y-7747000D01*
X6680200Y-7797000D01*
X6724700Y-8647900D02*
X6774700Y-8597900D01*
X6724700Y-8547900D01*
X6674700Y-8597900D01*
X6724700Y-8647900D01*
X6978700Y-8647900D02*
X7028700Y-8597900D01*
X6978700Y-8547900D01*
X6928700Y-8597900D01*
X6978700Y-8647900D01*
X7162800Y-5765000D02*
X7212800Y-5715000D01*
X7162800Y-5665000D01*
X7112800Y-5715000D01*
X7162800Y-5765000D01*
X7162800Y-6527000D02*
X7212800Y-6477000D01*
X7162800Y-6427000D01*
X7112800Y-6477000D01*
X7162800Y-6527000D01*
X7162800Y-7543000D02*
X7212800Y-7493000D01*
X7162800Y-7443000D01*
X7112800Y-7493000D01*
X7162800Y-7543000D01*
X7162800Y-7797000D02*
X7212800Y-7747000D01*
X7162800Y-7697000D01*
X7112800Y-7747000D01*
X7162800Y-7797000D01*
X7640370Y-10602430D02*
X7690370Y-10552430D01*
X7640370Y-10502430D01*
X7590370Y-10552430D01*
X7640370Y-10602430D01*
X7658100Y-5765000D02*
X7708100Y-5715000D01*
X7658100Y-5665000D01*
X7608100Y-5715000D01*
X7658100Y-5765000D01*
X7658100Y-6527000D02*
X7708100Y-6477000D01*
X7658100Y-6427000D01*
X7608100Y-6477000D01*
X7658100Y-6527000D01*
X7658100Y-7543000D02*
X7708100Y-7493000D01*
X7658100Y-7443000D01*
X7608100Y-7493000D01*
X7658100Y-7543000D01*
X7658100Y-7797000D02*
X7708100Y-7747000D01*
X7658100Y-7697000D01*
X7608100Y-7747000D01*
X7658100Y-7797000D01*
X7888020Y-9242260D02*
X7938020Y-9192260D01*
X7888020Y-9142260D01*
X7838020Y-9192260D01*
X7888020Y-9242260D01*
X7888020Y-9496260D02*
X7938020Y-9446260D01*
X7888020Y-9396260D01*
X7838020Y-9446260D01*
X7888020Y-9496260D01*
X7894370Y-10602430D02*
X7944370Y-10552430D01*
X7894370Y-10502430D01*
X7844370Y-10552430D01*
X7894370Y-10602430D01*
X8478300Y-8884160D02*
X8528300Y-8834160D01*
X8478300Y-8784160D01*
X8428300Y-8834160D01*
X8478300Y-8884160D01*
X8732300Y-8884160D02*
X8782300Y-8834160D01*
X8732300Y-8784160D01*
X8682300Y-8834160D01*
X8732300Y-8884160D01*
X8986300Y-8884160D02*
X9036300Y-8834160D01*
X8986300Y-8784160D01*
X8936300Y-8834160D01*
X8986300Y-8884160D01*
X9014510Y-11346650D02*
X9064510Y-11296650D01*
X9014510Y-11246650D01*
X8964510Y-11296650D01*
X9014510Y-11346650D01*
X9240300Y-8884160D02*
X9290300Y-8834160D01*
X9240300Y-8784160D01*
X9190300Y-8834160D01*
X9240300Y-8884160D01*
X9268510Y-11346650D02*
X9318510Y-11296650D01*
X9268510Y-11246650D01*
X9218510Y-11296650D01*
X9268510Y-11346650D01*
D18*
X3428910Y-6825500D02*
X3538910Y-6935500D01*
X3538910Y-6825500D02*
X3428910Y-6935500D01*
X3538910Y-6880500D02*
G75*
G03*
X3538910Y-6880500I-55000J0D01*
G01*
X3428910Y-8825500D02*
X3538910Y-8935500D01*
X3538910Y-8825500D02*
X3428910Y-8935500D01*
X3538910Y-8880500D02*
G75*
G03*
X3538910Y-8880500I-55000J0D01*
G01*
X4510700Y-9812900D02*
X4620700Y-9922900D01*
X4620700Y-9812900D02*
X4510700Y-9922900D01*
X4620700Y-9867900D02*
G75*
G03*
X4620700Y-9867900I-55000J0D01*
G01*
X4764700Y-9812900D02*
X4874700Y-9922900D01*
X4874700Y-9812900D02*
X4764700Y-9922900D01*
X4874700Y-9867900D02*
G75*
G03*
X4874700Y-9867900I-55000J0D01*
G01*
X5018700Y-9812900D02*
X5128700Y-9922900D01*
X5128700Y-9812900D02*
X5018700Y-9922900D01*
X5128700Y-9867900D02*
G75*
G03*
X5128700Y-9867900I-55000J0D01*
G01*
X5428910Y-7325500D02*
X5538910Y-7435500D01*
X5538910Y-7325500D02*
X5428910Y-7435500D01*
X5538910Y-7380500D02*
G75*
G03*
X5538910Y-7380500I-55000J0D01*
G01*
X5428910Y-8325500D02*
X5538910Y-8435500D01*
X5538910Y-8325500D02*
X5428910Y-8435500D01*
X5538910Y-8380500D02*
G75*
G03*
X5538910Y-8380500I-55000J0D01*
G01*
D19*
X4555540Y-3393440D02*
X4685080Y-3522980D01*
X4685080Y-3393440D02*
X4555540Y-3522980D01*
X4620310Y-3393440D02*
X4620310Y-3522980D01*
X4555540Y-3458210D02*
X4685080Y-3458210D01*
X4555540Y-4213440D02*
X4685080Y-4342980D01*
X4685080Y-4213440D02*
X4555540Y-4342980D01*
X4620310Y-4213440D02*
X4620310Y-4342980D01*
X4555540Y-4278210D02*
X4685080Y-4278210D01*
X5055540Y-3393440D02*
X5185080Y-3522980D01*
X5185080Y-3393440D02*
X5055540Y-3522980D01*
X5120310Y-3393440D02*
X5120310Y-3522980D01*
X5055540Y-3458210D02*
X5185080Y-3458210D01*
X5055540Y-4213440D02*
X5185080Y-4342980D01*
X5185080Y-4213440D02*
X5055540Y-4342980D01*
X5120310Y-4213440D02*
X5120310Y-4342980D01*
X5055540Y-4278210D02*
X5185080Y-4278210D01*
X5920180Y-3391080D02*
X6049720Y-3520620D01*
X6049720Y-3391080D02*
X5920180Y-3520620D01*
X5984950Y-3391080D02*
X5984950Y-3520620D01*
X5920180Y-3455850D02*
X6049720Y-3455850D01*
X5920180Y-4211080D02*
X6049720Y-4340620D01*
X6049720Y-4211080D02*
X5920180Y-4340620D01*
X5984950Y-4211080D02*
X5984950Y-4340620D01*
X5920180Y-4275850D02*
X6049720Y-4275850D01*
X6420180Y-3391080D02*
X6549720Y-3520620D01*
X6549720Y-3391080D02*
X6420180Y-3520620D01*
X6484950Y-3391080D02*
X6484950Y-3520620D01*
X6420180Y-3455850D02*
X6549720Y-3455850D01*
X6420180Y-4211080D02*
X6549720Y-4340620D01*
X6549720Y-4211080D02*
X6420180Y-4340620D01*
X6484950Y-4211080D02*
X6484950Y-4340620D01*
X6420180Y-4275850D02*
X6549720Y-4275850D01*
X6920180Y-3391080D02*
X7049720Y-3520620D01*
X7049720Y-3391080D02*
X6920180Y-3520620D01*
X6984950Y-3391080D02*
X6984950Y-3520620D01*
X6920180Y-3455850D02*
X7049720Y-3455850D01*
X6920180Y-4211080D02*
X7049720Y-4340620D01*
X7049720Y-4211080D02*
X6920180Y-4340620D01*
X6984950Y-4211080D02*
X6984950Y-4340620D01*
X6920180Y-4275850D02*
X7049720Y-4275850D01*
X7420180Y-3391080D02*
X7549720Y-3520620D01*
X7549720Y-3391080D02*
X7420180Y-3520620D01*
X7484950Y-3391080D02*
X7484950Y-3520620D01*
X7420180Y-3455850D02*
X7549720Y-3455850D01*
X7420180Y-4211080D02*
X7549720Y-4340620D01*
X7549720Y-4211080D02*
X7420180Y-4340620D01*
X7484950Y-4211080D02*
X7484950Y-4340620D01*
X7420180Y-4275850D02*
X7549720Y-4275850D01*
X8316180Y-3387080D02*
X8445720Y-3516620D01*
X8445720Y-3387080D02*
X8316180Y-3516620D01*
X8380950Y-3387080D02*
X8380950Y-3516620D01*
X8316180Y-3451850D02*
X8445720Y-3451850D01*
X8316180Y-4207080D02*
X8445720Y-4336620D01*
X8445720Y-4207080D02*
X8316180Y-4336620D01*
X8380950Y-4207080D02*
X8380950Y-4336620D01*
X8316180Y-4271850D02*
X8445720Y-4271850D01*
X8816180Y-3387080D02*
X8945720Y-3516620D01*
X8945720Y-3387080D02*
X8816180Y-3516620D01*
X8880950Y-3387080D02*
X8880950Y-3516620D01*
X8816180Y-3451850D02*
X8945720Y-3451850D01*
X8816180Y-4207080D02*
X8945720Y-4336620D01*
X8945720Y-4207080D02*
X8816180Y-4336620D01*
X8880950Y-4207080D02*
X8880950Y-4336620D01*
X8816180Y-4271850D02*
X8945720Y-4271850D01*
X9316180Y-3387080D02*
X9445720Y-3516620D01*
X9445720Y-3387080D02*
X9316180Y-3516620D01*
X9380950Y-3387080D02*
X9380950Y-3516620D01*
X9316180Y-3451850D02*
X9445720Y-3451850D01*
X9316180Y-4207080D02*
X9445720Y-4336620D01*
X9445720Y-4207080D02*
X9316180Y-4336620D01*
X9380950Y-4207080D02*
X9380950Y-4336620D01*
X9316180Y-4271850D02*
X9445720Y-4271850D01*
X9816180Y-3387080D02*
X9945720Y-3516620D01*
X9945720Y-3387080D02*
X9816180Y-3516620D01*
X9880950Y-3387080D02*
X9880950Y-3516620D01*
X9816180Y-3451850D02*
X9945720Y-3451850D01*
X9816180Y-4207080D02*
X9945720Y-4336620D01*
X9945720Y-4207080D02*
X9816180Y-4336620D01*
X9880950Y-4207080D02*
X9880950Y-4336620D01*
X9816180Y-4271850D02*
X9945720Y-4271850D01*
D20*
X3637350Y-4761250D02*
X3957350Y-5081250D01*
X3957350Y-4761250D02*
X3637350Y-5081250D01*
X3910488Y-5034388D02*
X3910488Y-4808112D01*
X3684212Y-4808112D01*
X3684212Y-5034388D01*
X3910488Y-5034388D01*
X3637350Y-9761250D02*
X3957350Y-10081250D01*
X3957350Y-9761250D02*
X3637350Y-10081250D01*
X3910488Y-10034388D02*
X3910488Y-9808112D01*
X3684212Y-9808112D01*
X3684212Y-10034388D01*
X3910488Y-10034388D01*
X10266750Y-4761250D02*
X10586750Y-5081250D01*
X10586750Y-4761250D02*
X10266750Y-5081250D01*
X10539888Y-5034388D02*
X10539888Y-4808112D01*
X10313612Y-4808112D01*
X10313612Y-5034388D01*
X10539888Y-5034388D01*
D12*
X3341269Y-11863826D02*
X3341269Y-11663826D01*
X3388888Y-11663826D01*
X3417459Y-11673350D01*
X3436507Y-11692398D01*
X3446031Y-11711445D01*
X3455555Y-11749540D01*
X3455555Y-11778112D01*
X3446031Y-11816207D01*
X3436507Y-11835255D01*
X3417459Y-11854302D01*
X3388888Y-11863826D01*
X3341269Y-11863826D01*
X3541269Y-11863826D02*
X3541269Y-11730493D01*
X3541269Y-11768588D02*
X3550793Y-11749540D01*
X3560317Y-11740017D01*
X3579364Y-11730493D01*
X3598412Y-11730493D01*
X3665078Y-11863826D02*
X3665078Y-11730493D01*
X3665078Y-11663826D02*
X3655555Y-11673350D01*
X3665078Y-11682874D01*
X3674602Y-11673350D01*
X3665078Y-11663826D01*
X3665078Y-11682874D01*
X3788888Y-11863826D02*
X3769840Y-11854302D01*
X3760317Y-11835255D01*
X3760317Y-11663826D01*
X3893650Y-11863826D02*
X3874602Y-11854302D01*
X3865078Y-11835255D01*
X3865078Y-11663826D01*
X4122221Y-11863826D02*
X4122221Y-11663826D01*
X4188888Y-11806683D01*
X4255555Y-11663826D01*
X4255555Y-11863826D01*
X4436507Y-11863826D02*
X4436507Y-11759064D01*
X4426983Y-11740017D01*
X4407936Y-11730493D01*
X4369840Y-11730493D01*
X4350793Y-11740017D01*
X4436507Y-11854302D02*
X4417460Y-11863826D01*
X4369840Y-11863826D01*
X4350793Y-11854302D01*
X4341269Y-11835255D01*
X4341269Y-11816207D01*
X4350793Y-11797159D01*
X4369840Y-11787636D01*
X4417460Y-11787636D01*
X4436507Y-11778112D01*
X4531745Y-11730493D02*
X4531745Y-11930493D01*
X4531745Y-11740017D02*
X4550793Y-11730493D01*
X4588888Y-11730493D01*
X4607936Y-11740017D01*
X4617460Y-11749540D01*
X4626983Y-11768588D01*
X4626983Y-11825731D01*
X4617460Y-11844778D01*
X4607936Y-11854302D01*
X4588888Y-11863826D01*
X4550793Y-11863826D01*
X4531745Y-11854302D01*
X4712698Y-11844778D02*
X4722221Y-11854302D01*
X4712698Y-11863826D01*
X4703174Y-11854302D01*
X4712698Y-11844778D01*
X4712698Y-11863826D01*
X4712698Y-11740017D02*
X4722221Y-11749540D01*
X4712698Y-11759064D01*
X4703174Y-11749540D01*
X4712698Y-11740017D01*
X4712698Y-11759064D01*
D13*
X3053650Y-12178350D02*
X3083650Y-12208350D01*
X3083650Y-12178350D02*
X3053650Y-12208350D01*
D12*
X3379364Y-12083826D02*
X3398412Y-12083826D01*
X3417459Y-12093350D01*
X3426983Y-12102874D01*
X3436507Y-12121921D01*
X3446031Y-12160017D01*
X3446031Y-12207636D01*
X3436507Y-12245731D01*
X3426983Y-12264778D01*
X3417459Y-12274302D01*
X3398412Y-12283826D01*
X3379364Y-12283826D01*
X3360317Y-12274302D01*
X3350793Y-12264778D01*
X3341269Y-12245731D01*
X3331745Y-12207636D01*
X3331745Y-12160017D01*
X3341269Y-12121921D01*
X3350793Y-12102874D01*
X3360317Y-12093350D01*
X3379364Y-12083826D01*
X3531745Y-12264778D02*
X3541269Y-12274302D01*
X3531745Y-12283826D01*
X3522221Y-12274302D01*
X3531745Y-12264778D01*
X3531745Y-12283826D01*
X3607936Y-12083826D02*
X3731745Y-12083826D01*
X3665078Y-12160017D01*
X3693650Y-12160017D01*
X3712698Y-12169540D01*
X3722221Y-12179064D01*
X3731745Y-12198112D01*
X3731745Y-12245731D01*
X3722221Y-12264778D01*
X3712698Y-12274302D01*
X3693650Y-12283826D01*
X3636507Y-12283826D01*
X3617459Y-12274302D01*
X3607936Y-12264778D01*
X3855555Y-12083826D02*
X3874602Y-12083826D01*
X3893650Y-12093350D01*
X3903174Y-12102874D01*
X3912698Y-12121921D01*
X3922221Y-12160017D01*
X3922221Y-12207636D01*
X3912698Y-12245731D01*
X3903174Y-12264778D01*
X3893650Y-12274302D01*
X3874602Y-12283826D01*
X3855555Y-12283826D01*
X3836507Y-12274302D01*
X3826983Y-12264778D01*
X3817459Y-12245731D01*
X3807936Y-12207636D01*
X3807936Y-12160017D01*
X3817459Y-12121921D01*
X3826983Y-12102874D01*
X3836507Y-12093350D01*
X3855555Y-12083826D01*
X4046031Y-12083826D02*
X4065078Y-12083826D01*
X4084126Y-12093350D01*
X4093650Y-12102874D01*
X4103174Y-12121921D01*
X4112698Y-12160017D01*
X4112698Y-12207636D01*
X4103174Y-12245731D01*
X4093650Y-12264778D01*
X4084126Y-12274302D01*
X4065078Y-12283826D01*
X4046031Y-12283826D01*
X4026983Y-12274302D01*
X4017459Y-12264778D01*
X4007936Y-12245731D01*
X3998412Y-12207636D01*
X3998412Y-12160017D01*
X4007936Y-12121921D01*
X4017459Y-12102874D01*
X4026983Y-12093350D01*
X4046031Y-12083826D01*
X4198412Y-12283826D02*
X4198412Y-12150493D01*
X4198412Y-12169540D02*
X4207936Y-12160017D01*
X4226983Y-12150493D01*
X4255555Y-12150493D01*
X4274602Y-12160017D01*
X4284126Y-12179064D01*
X4284126Y-12283826D01*
X4284126Y-12179064D02*
X4293650Y-12160017D01*
X4312698Y-12150493D01*
X4341269Y-12150493D01*
X4360317Y-12160017D01*
X4369840Y-12179064D01*
X4369840Y-12283826D01*
X4465079Y-12283826D02*
X4465079Y-12150493D01*
X4465079Y-12169540D02*
X4474602Y-12160017D01*
X4493650Y-12150493D01*
X4522221Y-12150493D01*
X4541269Y-12160017D01*
X4550793Y-12179064D01*
X4550793Y-12283826D01*
X4550793Y-12179064D02*
X4560317Y-12160017D01*
X4579364Y-12150493D01*
X4607936Y-12150493D01*
X4626983Y-12160017D01*
X4636507Y-12179064D01*
X4636507Y-12283826D01*
X5026983Y-12074302D02*
X4855555Y-12331445D01*
X5284126Y-12083826D02*
X5303174Y-12083826D01*
X5322221Y-12093350D01*
X5331745Y-12102874D01*
X5341269Y-12121921D01*
X5350793Y-12160017D01*
X5350793Y-12207636D01*
X5341269Y-12245731D01*
X5331745Y-12264778D01*
X5322221Y-12274302D01*
X5303174Y-12283826D01*
X5284126Y-12283826D01*
X5265079Y-12274302D01*
X5255555Y-12264778D01*
X5246031Y-12245731D01*
X5236507Y-12207636D01*
X5236507Y-12160017D01*
X5246031Y-12121921D01*
X5255555Y-12102874D01*
X5265079Y-12093350D01*
X5284126Y-12083826D01*
X5436507Y-12264778D02*
X5446031Y-12274302D01*
X5436507Y-12283826D01*
X5426983Y-12274302D01*
X5436507Y-12264778D01*
X5436507Y-12283826D01*
X5569840Y-12083826D02*
X5588888Y-12083826D01*
X5607936Y-12093350D01*
X5617459Y-12102874D01*
X5626983Y-12121921D01*
X5636507Y-12160017D01*
X5636507Y-12207636D01*
X5626983Y-12245731D01*
X5617459Y-12264778D01*
X5607936Y-12274302D01*
X5588888Y-12283826D01*
X5569840Y-12283826D01*
X5550793Y-12274302D01*
X5541269Y-12264778D01*
X5531745Y-12245731D01*
X5522221Y-12207636D01*
X5522221Y-12160017D01*
X5531745Y-12121921D01*
X5541269Y-12102874D01*
X5550793Y-12093350D01*
X5569840Y-12083826D01*
X5826983Y-12283826D02*
X5712698Y-12283826D01*
X5769840Y-12283826D02*
X5769840Y-12083826D01*
X5750793Y-12112398D01*
X5731745Y-12131445D01*
X5712698Y-12140969D01*
X6017459Y-12283826D02*
X5903174Y-12283826D01*
X5960317Y-12283826D02*
X5960317Y-12083826D01*
X5941269Y-12112398D01*
X5922221Y-12131445D01*
X5903174Y-12140969D01*
X6131745Y-12169540D02*
X6112698Y-12160017D01*
X6103174Y-12150493D01*
X6093650Y-12131445D01*
X6093650Y-12121921D01*
X6103174Y-12102874D01*
X6112698Y-12093350D01*
X6131745Y-12083826D01*
X6169840Y-12083826D01*
X6188888Y-12093350D01*
X6198412Y-12102874D01*
X6207936Y-12121921D01*
X6207936Y-12131445D01*
X6198412Y-12150493D01*
X6188888Y-12160017D01*
X6169840Y-12169540D01*
X6131745Y-12169540D01*
X6112698Y-12179064D01*
X6103174Y-12188588D01*
X6093650Y-12207636D01*
X6093650Y-12245731D01*
X6103174Y-12264778D01*
X6112698Y-12274302D01*
X6131745Y-12283826D01*
X6169840Y-12283826D01*
X6188888Y-12274302D01*
X6198412Y-12264778D01*
X6207936Y-12245731D01*
X6207936Y-12207636D01*
X6198412Y-12188588D01*
X6188888Y-12179064D01*
X6169840Y-12169540D01*
X6284126Y-12083826D02*
X6284126Y-12121921D01*
X6360317Y-12083826D02*
X6360317Y-12121921D01*
X6655555Y-12360017D02*
X6646031Y-12350493D01*
X6626983Y-12321921D01*
X6617459Y-12302874D01*
X6607936Y-12274302D01*
X6598412Y-12226683D01*
X6598412Y-12188588D01*
X6607936Y-12140969D01*
X6617459Y-12112398D01*
X6626983Y-12093350D01*
X6646031Y-12064778D01*
X6655555Y-12055255D01*
X6722221Y-12102874D02*
X6731745Y-12093350D01*
X6750793Y-12083826D01*
X6798412Y-12083826D01*
X6817459Y-12093350D01*
X6826983Y-12102874D01*
X6836507Y-12121921D01*
X6836507Y-12140969D01*
X6826983Y-12169540D01*
X6712698Y-12283826D01*
X6836507Y-12283826D01*
X7074602Y-12283826D02*
X7074602Y-12083826D01*
X7160317Y-12283826D02*
X7160317Y-12179064D01*
X7150793Y-12160017D01*
X7131745Y-12150493D01*
X7103174Y-12150493D01*
X7084126Y-12160017D01*
X7074602Y-12169540D01*
X7284126Y-12283826D02*
X7265078Y-12274302D01*
X7255555Y-12264778D01*
X7246031Y-12245731D01*
X7246031Y-12188588D01*
X7255555Y-12169540D01*
X7265078Y-12160017D01*
X7284126Y-12150493D01*
X7312698Y-12150493D01*
X7331745Y-12160017D01*
X7341269Y-12169540D01*
X7350793Y-12188588D01*
X7350793Y-12245731D01*
X7341269Y-12264778D01*
X7331745Y-12274302D01*
X7312698Y-12283826D01*
X7284126Y-12283826D01*
X7465078Y-12283826D02*
X7446031Y-12274302D01*
X7436507Y-12255255D01*
X7436507Y-12083826D01*
X7617459Y-12274302D02*
X7598412Y-12283826D01*
X7560317Y-12283826D01*
X7541269Y-12274302D01*
X7531745Y-12255255D01*
X7531745Y-12179064D01*
X7541269Y-12160017D01*
X7560317Y-12150493D01*
X7598412Y-12150493D01*
X7617459Y-12160017D01*
X7626983Y-12179064D01*
X7626983Y-12198112D01*
X7531745Y-12217159D01*
X7703174Y-12274302D02*
X7722221Y-12283826D01*
X7760317Y-12283826D01*
X7779364Y-12274302D01*
X7788888Y-12255255D01*
X7788888Y-12245731D01*
X7779364Y-12226683D01*
X7760317Y-12217159D01*
X7731745Y-12217159D01*
X7712698Y-12207636D01*
X7703174Y-12188588D01*
X7703174Y-12179064D01*
X7712698Y-12160017D01*
X7731745Y-12150493D01*
X7760317Y-12150493D01*
X7779364Y-12160017D01*
X7855555Y-12360017D02*
X7865078Y-12350493D01*
X7884126Y-12321921D01*
X7893650Y-12302874D01*
X7903174Y-12274302D01*
X7912698Y-12226683D01*
X7912698Y-12188588D01*
X7903174Y-12140969D01*
X7893650Y-12112398D01*
X7884126Y-12093350D01*
X7865078Y-12064778D01*
X7855555Y-12055255D01*
D14*
X3083650Y-12457350D02*
G75*
G03*
X3083650Y-12457350I-20000J0D01*
G01*
D12*
X3379364Y-12347826D02*
X3398412Y-12347826D01*
X3417459Y-12357350D01*
X3426983Y-12366874D01*
X3436507Y-12385921D01*
X3446031Y-12424017D01*
X3446031Y-12471636D01*
X3436507Y-12509731D01*
X3426983Y-12528778D01*
X3417459Y-12538302D01*
X3398412Y-12547826D01*
X3379364Y-12547826D01*
X3360317Y-12538302D01*
X3350793Y-12528778D01*
X3341269Y-12509731D01*
X3331745Y-12471636D01*
X3331745Y-12424017D01*
X3341269Y-12385921D01*
X3350793Y-12366874D01*
X3360317Y-12357350D01*
X3379364Y-12347826D01*
X3531745Y-12528778D02*
X3541269Y-12538302D01*
X3531745Y-12547826D01*
X3522221Y-12538302D01*
X3531745Y-12528778D01*
X3531745Y-12547826D01*
X3712698Y-12414493D02*
X3712698Y-12547826D01*
X3665078Y-12338302D02*
X3617459Y-12481159D01*
X3741269Y-12481159D01*
X3855555Y-12347826D02*
X3874602Y-12347826D01*
X3893650Y-12357350D01*
X3903174Y-12366874D01*
X3912698Y-12385921D01*
X3922221Y-12424017D01*
X3922221Y-12471636D01*
X3912698Y-12509731D01*
X3903174Y-12528778D01*
X3893650Y-12538302D01*
X3874602Y-12547826D01*
X3855555Y-12547826D01*
X3836507Y-12538302D01*
X3826983Y-12528778D01*
X3817459Y-12509731D01*
X3807936Y-12471636D01*
X3807936Y-12424017D01*
X3817459Y-12385921D01*
X3826983Y-12366874D01*
X3836507Y-12357350D01*
X3855555Y-12347826D01*
X4046031Y-12347826D02*
X4065078Y-12347826D01*
X4084126Y-12357350D01*
X4093650Y-12366874D01*
X4103174Y-12385921D01*
X4112698Y-12424017D01*
X4112698Y-12471636D01*
X4103174Y-12509731D01*
X4093650Y-12528778D01*
X4084126Y-12538302D01*
X4065078Y-12547826D01*
X4046031Y-12547826D01*
X4026983Y-12538302D01*
X4017459Y-12528778D01*
X4007936Y-12509731D01*
X3998412Y-12471636D01*
X3998412Y-12424017D01*
X4007936Y-12385921D01*
X4017459Y-12366874D01*
X4026983Y-12357350D01*
X4046031Y-12347826D01*
X4198412Y-12547826D02*
X4198412Y-12414493D01*
X4198412Y-12433540D02*
X4207936Y-12424017D01*
X4226983Y-12414493D01*
X4255555Y-12414493D01*
X4274602Y-12424017D01*
X4284126Y-12443064D01*
X4284126Y-12547826D01*
X4284126Y-12443064D02*
X4293650Y-12424017D01*
X4312698Y-12414493D01*
X4341269Y-12414493D01*
X4360317Y-12424017D01*
X4369840Y-12443064D01*
X4369840Y-12547826D01*
X4465079Y-12547826D02*
X4465079Y-12414493D01*
X4465079Y-12433540D02*
X4474602Y-12424017D01*
X4493650Y-12414493D01*
X4522221Y-12414493D01*
X4541269Y-12424017D01*
X4550793Y-12443064D01*
X4550793Y-12547826D01*
X4550793Y-12443064D02*
X4560317Y-12424017D01*
X4579364Y-12414493D01*
X4607936Y-12414493D01*
X4626983Y-12424017D01*
X4636507Y-12443064D01*
X4636507Y-12547826D01*
X5026983Y-12338302D02*
X4855555Y-12595445D01*
X5284126Y-12347826D02*
X5303174Y-12347826D01*
X5322221Y-12357350D01*
X5331745Y-12366874D01*
X5341269Y-12385921D01*
X5350793Y-12424017D01*
X5350793Y-12471636D01*
X5341269Y-12509731D01*
X5331745Y-12528778D01*
X5322221Y-12538302D01*
X5303174Y-12547826D01*
X5284126Y-12547826D01*
X5265079Y-12538302D01*
X5255555Y-12528778D01*
X5246031Y-12509731D01*
X5236507Y-12471636D01*
X5236507Y-12424017D01*
X5246031Y-12385921D01*
X5255555Y-12366874D01*
X5265079Y-12357350D01*
X5284126Y-12347826D01*
X5436507Y-12528778D02*
X5446031Y-12538302D01*
X5436507Y-12547826D01*
X5426983Y-12538302D01*
X5436507Y-12528778D01*
X5436507Y-12547826D01*
X5569840Y-12347826D02*
X5588888Y-12347826D01*
X5607936Y-12357350D01*
X5617459Y-12366874D01*
X5626983Y-12385921D01*
X5636507Y-12424017D01*
X5636507Y-12471636D01*
X5626983Y-12509731D01*
X5617459Y-12528778D01*
X5607936Y-12538302D01*
X5588888Y-12547826D01*
X5569840Y-12547826D01*
X5550793Y-12538302D01*
X5541269Y-12528778D01*
X5531745Y-12509731D01*
X5522221Y-12471636D01*
X5522221Y-12424017D01*
X5531745Y-12385921D01*
X5541269Y-12366874D01*
X5550793Y-12357350D01*
X5569840Y-12347826D01*
X5826983Y-12547826D02*
X5712698Y-12547826D01*
X5769840Y-12547826D02*
X5769840Y-12347826D01*
X5750793Y-12376398D01*
X5731745Y-12395445D01*
X5712698Y-12404969D01*
X6007936Y-12347826D02*
X5912698Y-12347826D01*
X5903174Y-12443064D01*
X5912698Y-12433540D01*
X5931745Y-12424017D01*
X5979364Y-12424017D01*
X5998412Y-12433540D01*
X6007936Y-12443064D01*
X6017459Y-12462112D01*
X6017459Y-12509731D01*
X6007936Y-12528778D01*
X5998412Y-12538302D01*
X5979364Y-12547826D01*
X5931745Y-12547826D01*
X5912698Y-12538302D01*
X5903174Y-12528778D01*
X6084126Y-12347826D02*
X6217459Y-12347826D01*
X6131745Y-12547826D01*
X6284126Y-12347826D02*
X6284126Y-12385921D01*
X6360317Y-12347826D02*
X6360317Y-12385921D01*
X6655555Y-12624017D02*
X6646031Y-12614493D01*
X6626983Y-12585921D01*
X6617459Y-12566874D01*
X6607936Y-12538302D01*
X6598412Y-12490683D01*
X6598412Y-12452588D01*
X6607936Y-12404969D01*
X6617459Y-12376398D01*
X6626983Y-12357350D01*
X6646031Y-12328778D01*
X6655555Y-12319255D01*
X6760317Y-12433540D02*
X6741269Y-12424017D01*
X6731745Y-12414493D01*
X6722221Y-12395445D01*
X6722221Y-12385921D01*
X6731745Y-12366874D01*
X6741269Y-12357350D01*
X6760317Y-12347826D01*
X6798412Y-12347826D01*
X6817459Y-12357350D01*
X6826983Y-12366874D01*
X6836507Y-12385921D01*
X6836507Y-12395445D01*
X6826983Y-12414493D01*
X6817459Y-12424017D01*
X6798412Y-12433540D01*
X6760317Y-12433540D01*
X6741269Y-12443064D01*
X6731745Y-12452588D01*
X6722221Y-12471636D01*
X6722221Y-12509731D01*
X6731745Y-12528778D01*
X6741269Y-12538302D01*
X6760317Y-12547826D01*
X6798412Y-12547826D01*
X6817459Y-12538302D01*
X6826983Y-12528778D01*
X6836507Y-12509731D01*
X6836507Y-12471636D01*
X6826983Y-12452588D01*
X6817459Y-12443064D01*
X6798412Y-12433540D01*
X7007936Y-12347826D02*
X6969840Y-12347826D01*
X6950793Y-12357350D01*
X6941269Y-12366874D01*
X6922221Y-12395445D01*
X6912698Y-12433540D01*
X6912698Y-12509731D01*
X6922221Y-12528778D01*
X6931745Y-12538302D01*
X6950793Y-12547826D01*
X6988888Y-12547826D01*
X7007936Y-12538302D01*
X7017459Y-12528778D01*
X7026983Y-12509731D01*
X7026983Y-12462112D01*
X7017459Y-12443064D01*
X7007936Y-12433540D01*
X6988888Y-12424017D01*
X6950793Y-12424017D01*
X6931745Y-12433540D01*
X6922221Y-12443064D01*
X6912698Y-12462112D01*
X7265078Y-12547826D02*
X7265078Y-12347826D01*
X7350793Y-12547826D02*
X7350793Y-12443064D01*
X7341269Y-12424017D01*
X7322221Y-12414493D01*
X7293650Y-12414493D01*
X7274602Y-12424017D01*
X7265078Y-12433540D01*
X7474602Y-12547826D02*
X7455555Y-12538302D01*
X7446031Y-12528778D01*
X7436507Y-12509731D01*
X7436507Y-12452588D01*
X7446031Y-12433540D01*
X7455555Y-12424017D01*
X7474602Y-12414493D01*
X7503174Y-12414493D01*
X7522221Y-12424017D01*
X7531745Y-12433540D01*
X7541269Y-12452588D01*
X7541269Y-12509731D01*
X7531745Y-12528778D01*
X7522221Y-12538302D01*
X7503174Y-12547826D01*
X7474602Y-12547826D01*
X7655555Y-12547826D02*
X7636507Y-12538302D01*
X7626983Y-12519255D01*
X7626983Y-12347826D01*
X7807936Y-12538302D02*
X7788888Y-12547826D01*
X7750793Y-12547826D01*
X7731745Y-12538302D01*
X7722221Y-12519255D01*
X7722221Y-12443064D01*
X7731745Y-12424017D01*
X7750793Y-12414493D01*
X7788888Y-12414493D01*
X7807936Y-12424017D01*
X7817459Y-12443064D01*
X7817459Y-12462112D01*
X7722221Y-12481159D01*
X7893650Y-12538302D02*
X7912698Y-12547826D01*
X7950793Y-12547826D01*
X7969840Y-12538302D01*
X7979364Y-12519255D01*
X7979364Y-12509731D01*
X7969840Y-12490683D01*
X7950793Y-12481159D01*
X7922221Y-12481159D01*
X7903174Y-12471636D01*
X7893650Y-12452588D01*
X7893650Y-12443064D01*
X7903174Y-12424017D01*
X7922221Y-12414493D01*
X7950793Y-12414493D01*
X7969840Y-12424017D01*
X8046031Y-12624017D02*
X8055555Y-12614493D01*
X8074602Y-12585921D01*
X8084126Y-12566874D01*
X8093650Y-12538302D01*
X8103174Y-12490683D01*
X8103174Y-12452588D01*
X8093650Y-12404969D01*
X8084126Y-12376398D01*
X8074602Y-12357350D01*
X8055555Y-12328778D01*
X8046031Y-12319255D01*
D15*
X3053650Y-12691350D02*
X3053650Y-12751350D01*
X3023650Y-12721350D02*
X3083650Y-12721350D01*
D12*
X3379364Y-12611826D02*
X3398412Y-12611826D01*
X3417459Y-12621350D01*
X3426983Y-12630874D01*
X3436507Y-12649921D01*
X3446031Y-12688017D01*
X3446031Y-12735636D01*
X3436507Y-12773731D01*
X3426983Y-12792778D01*
X3417459Y-12802302D01*
X3398412Y-12811826D01*
X3379364Y-12811826D01*
X3360317Y-12802302D01*
X3350793Y-12792778D01*
X3341269Y-12773731D01*
X3331745Y-12735636D01*
X3331745Y-12688017D01*
X3341269Y-12649921D01*
X3350793Y-12630874D01*
X3360317Y-12621350D01*
X3379364Y-12611826D01*
X3531745Y-12792778D02*
X3541269Y-12802302D01*
X3531745Y-12811826D01*
X3522221Y-12802302D01*
X3531745Y-12792778D01*
X3531745Y-12811826D01*
X3712698Y-12611826D02*
X3674602Y-12611826D01*
X3655555Y-12621350D01*
X3646031Y-12630874D01*
X3626983Y-12659445D01*
X3617459Y-12697540D01*
X3617459Y-12773731D01*
X3626983Y-12792778D01*
X3636507Y-12802302D01*
X3655555Y-12811826D01*
X3693650Y-12811826D01*
X3712698Y-12802302D01*
X3722221Y-12792778D01*
X3731745Y-12773731D01*
X3731745Y-12726112D01*
X3722221Y-12707064D01*
X3712698Y-12697540D01*
X3693650Y-12688017D01*
X3655555Y-12688017D01*
X3636507Y-12697540D01*
X3626983Y-12707064D01*
X3617459Y-12726112D01*
X3855555Y-12611826D02*
X3874602Y-12611826D01*
X3893650Y-12621350D01*
X3903174Y-12630874D01*
X3912698Y-12649921D01*
X3922221Y-12688017D01*
X3922221Y-12735636D01*
X3912698Y-12773731D01*
X3903174Y-12792778D01*
X3893650Y-12802302D01*
X3874602Y-12811826D01*
X3855555Y-12811826D01*
X3836507Y-12802302D01*
X3826983Y-12792778D01*
X3817459Y-12773731D01*
X3807936Y-12735636D01*
X3807936Y-12688017D01*
X3817459Y-12649921D01*
X3826983Y-12630874D01*
X3836507Y-12621350D01*
X3855555Y-12611826D01*
X4046031Y-12611826D02*
X4065078Y-12611826D01*
X4084126Y-12621350D01*
X4093650Y-12630874D01*
X4103174Y-12649921D01*
X4112698Y-12688017D01*
X4112698Y-12735636D01*
X4103174Y-12773731D01*
X4093650Y-12792778D01*
X4084126Y-12802302D01*
X4065078Y-12811826D01*
X4046031Y-12811826D01*
X4026983Y-12802302D01*
X4017459Y-12792778D01*
X4007936Y-12773731D01*
X3998412Y-12735636D01*
X3998412Y-12688017D01*
X4007936Y-12649921D01*
X4017459Y-12630874D01*
X4026983Y-12621350D01*
X4046031Y-12611826D01*
X4198412Y-12811826D02*
X4198412Y-12678493D01*
X4198412Y-12697540D02*
X4207936Y-12688017D01*
X4226983Y-12678493D01*
X4255555Y-12678493D01*
X4274602Y-12688017D01*
X4284126Y-12707064D01*
X4284126Y-12811826D01*
X4284126Y-12707064D02*
X4293650Y-12688017D01*
X4312698Y-12678493D01*
X4341269Y-12678493D01*
X4360317Y-12688017D01*
X4369840Y-12707064D01*
X4369840Y-12811826D01*
X4465079Y-12811826D02*
X4465079Y-12678493D01*
X4465079Y-12697540D02*
X4474602Y-12688017D01*
X4493650Y-12678493D01*
X4522221Y-12678493D01*
X4541269Y-12688017D01*
X4550793Y-12707064D01*
X4550793Y-12811826D01*
X4550793Y-12707064D02*
X4560317Y-12688017D01*
X4579364Y-12678493D01*
X4607936Y-12678493D01*
X4626983Y-12688017D01*
X4636507Y-12707064D01*
X4636507Y-12811826D01*
X5026983Y-12602302D02*
X4855555Y-12859445D01*
X5284126Y-12611826D02*
X5303174Y-12611826D01*
X5322221Y-12621350D01*
X5331745Y-12630874D01*
X5341269Y-12649921D01*
X5350793Y-12688017D01*
X5350793Y-12735636D01*
X5341269Y-12773731D01*
X5331745Y-12792778D01*
X5322221Y-12802302D01*
X5303174Y-12811826D01*
X5284126Y-12811826D01*
X5265079Y-12802302D01*
X5255555Y-12792778D01*
X5246031Y-12773731D01*
X5236507Y-12735636D01*
X5236507Y-12688017D01*
X5246031Y-12649921D01*
X5255555Y-12630874D01*
X5265079Y-12621350D01*
X5284126Y-12611826D01*
X5436507Y-12792778D02*
X5446031Y-12802302D01*
X5436507Y-12811826D01*
X5426983Y-12802302D01*
X5436507Y-12792778D01*
X5436507Y-12811826D01*
X5569840Y-12611826D02*
X5588888Y-12611826D01*
X5607936Y-12621350D01*
X5617459Y-12630874D01*
X5626983Y-12649921D01*
X5636507Y-12688017D01*
X5636507Y-12735636D01*
X5626983Y-12773731D01*
X5617459Y-12792778D01*
X5607936Y-12802302D01*
X5588888Y-12811826D01*
X5569840Y-12811826D01*
X5550793Y-12802302D01*
X5541269Y-12792778D01*
X5531745Y-12773731D01*
X5522221Y-12735636D01*
X5522221Y-12688017D01*
X5531745Y-12649921D01*
X5541269Y-12630874D01*
X5550793Y-12621350D01*
X5569840Y-12611826D01*
X5712698Y-12630874D02*
X5722221Y-12621350D01*
X5741269Y-12611826D01*
X5788888Y-12611826D01*
X5807936Y-12621350D01*
X5817459Y-12630874D01*
X5826983Y-12649921D01*
X5826983Y-12668969D01*
X5817459Y-12697540D01*
X5703174Y-12811826D01*
X5826983Y-12811826D01*
X5893650Y-12611826D02*
X6017459Y-12611826D01*
X5950793Y-12688017D01*
X5979364Y-12688017D01*
X5998412Y-12697540D01*
X6007936Y-12707064D01*
X6017459Y-12726112D01*
X6017459Y-12773731D01*
X6007936Y-12792778D01*
X5998412Y-12802302D01*
X5979364Y-12811826D01*
X5922221Y-12811826D01*
X5903174Y-12802302D01*
X5893650Y-12792778D01*
X6188888Y-12611826D02*
X6150793Y-12611826D01*
X6131745Y-12621350D01*
X6122221Y-12630874D01*
X6103174Y-12659445D01*
X6093650Y-12697540D01*
X6093650Y-12773731D01*
X6103174Y-12792778D01*
X6112698Y-12802302D01*
X6131745Y-12811826D01*
X6169840Y-12811826D01*
X6188888Y-12802302D01*
X6198412Y-12792778D01*
X6207936Y-12773731D01*
X6207936Y-12726112D01*
X6198412Y-12707064D01*
X6188888Y-12697540D01*
X6169840Y-12688017D01*
X6131745Y-12688017D01*
X6112698Y-12697540D01*
X6103174Y-12707064D01*
X6093650Y-12726112D01*
X6284126Y-12611826D02*
X6284126Y-12649921D01*
X6360317Y-12611826D02*
X6360317Y-12649921D01*
X6655555Y-12888017D02*
X6646031Y-12878493D01*
X6626983Y-12849921D01*
X6617459Y-12830874D01*
X6607936Y-12802302D01*
X6598412Y-12754683D01*
X6598412Y-12716588D01*
X6607936Y-12668969D01*
X6617459Y-12640398D01*
X6626983Y-12621350D01*
X6646031Y-12592778D01*
X6655555Y-12583255D01*
X6769840Y-12611826D02*
X6788888Y-12611826D01*
X6807936Y-12621350D01*
X6817459Y-12630874D01*
X6826983Y-12649921D01*
X6836507Y-12688017D01*
X6836507Y-12735636D01*
X6826983Y-12773731D01*
X6817459Y-12792778D01*
X6807936Y-12802302D01*
X6788888Y-12811826D01*
X6769840Y-12811826D01*
X6750793Y-12802302D01*
X6741269Y-12792778D01*
X6731745Y-12773731D01*
X6722221Y-12735636D01*
X6722221Y-12688017D01*
X6731745Y-12649921D01*
X6741269Y-12630874D01*
X6750793Y-12621350D01*
X6769840Y-12611826D01*
X7074602Y-12811826D02*
X7074602Y-12611826D01*
X7160317Y-12811826D02*
X7160317Y-12707064D01*
X7150793Y-12688017D01*
X7131745Y-12678493D01*
X7103174Y-12678493D01*
X7084126Y-12688017D01*
X7074602Y-12697540D01*
X7284126Y-12811826D02*
X7265078Y-12802302D01*
X7255555Y-12792778D01*
X7246031Y-12773731D01*
X7246031Y-12716588D01*
X7255555Y-12697540D01*
X7265078Y-12688017D01*
X7284126Y-12678493D01*
X7312698Y-12678493D01*
X7331745Y-12688017D01*
X7341269Y-12697540D01*
X7350793Y-12716588D01*
X7350793Y-12773731D01*
X7341269Y-12792778D01*
X7331745Y-12802302D01*
X7312698Y-12811826D01*
X7284126Y-12811826D01*
X7465078Y-12811826D02*
X7446031Y-12802302D01*
X7436507Y-12783255D01*
X7436507Y-12611826D01*
X7617459Y-12802302D02*
X7598412Y-12811826D01*
X7560317Y-12811826D01*
X7541269Y-12802302D01*
X7531745Y-12783255D01*
X7531745Y-12707064D01*
X7541269Y-12688017D01*
X7560317Y-12678493D01*
X7598412Y-12678493D01*
X7617459Y-12688017D01*
X7626983Y-12707064D01*
X7626983Y-12726112D01*
X7531745Y-12745159D01*
X7703174Y-12802302D02*
X7722221Y-12811826D01*
X7760317Y-12811826D01*
X7779364Y-12802302D01*
X7788888Y-12783255D01*
X7788888Y-12773731D01*
X7779364Y-12754683D01*
X7760317Y-12745159D01*
X7731745Y-12745159D01*
X7712698Y-12735636D01*
X7703174Y-12716588D01*
X7703174Y-12707064D01*
X7712698Y-12688017D01*
X7731745Y-12678493D01*
X7760317Y-12678493D01*
X7779364Y-12688017D01*
X8026983Y-12735636D02*
X8179364Y-12735636D01*
X8103174Y-12811826D02*
X8103174Y-12659445D01*
X8512698Y-12678493D02*
X8512698Y-12811826D01*
X8465079Y-12602302D02*
X8417460Y-12745159D01*
X8541269Y-12745159D01*
X8760317Y-12802302D02*
X8779364Y-12811826D01*
X8817460Y-12811826D01*
X8836507Y-12802302D01*
X8846031Y-12783255D01*
X8846031Y-12773731D01*
X8836507Y-12754683D01*
X8817460Y-12745159D01*
X8788888Y-12745159D01*
X8769840Y-12735636D01*
X8760317Y-12716588D01*
X8760317Y-12707064D01*
X8769840Y-12688017D01*
X8788888Y-12678493D01*
X8817460Y-12678493D01*
X8836507Y-12688017D01*
X8960317Y-12811826D02*
X8941269Y-12802302D01*
X8931745Y-12783255D01*
X8931745Y-12611826D01*
X9065079Y-12811826D02*
X9046031Y-12802302D01*
X9036507Y-12792778D01*
X9026983Y-12773731D01*
X9026983Y-12716588D01*
X9036507Y-12697540D01*
X9046031Y-12688017D01*
X9065079Y-12678493D01*
X9093650Y-12678493D01*
X9112698Y-12688017D01*
X9122221Y-12697540D01*
X9131745Y-12716588D01*
X9131745Y-12773731D01*
X9122221Y-12792778D01*
X9112698Y-12802302D01*
X9093650Y-12811826D01*
X9065079Y-12811826D01*
X9188888Y-12678493D02*
X9265079Y-12678493D01*
X9217460Y-12611826D02*
X9217460Y-12783255D01*
X9226983Y-12802302D01*
X9246031Y-12811826D01*
X9265079Y-12811826D01*
X9322221Y-12802302D02*
X9341269Y-12811826D01*
X9379364Y-12811826D01*
X9398412Y-12802302D01*
X9407936Y-12783255D01*
X9407936Y-12773731D01*
X9398412Y-12754683D01*
X9379364Y-12745159D01*
X9350793Y-12745159D01*
X9331745Y-12735636D01*
X9322221Y-12716588D01*
X9322221Y-12707064D01*
X9331745Y-12688017D01*
X9350793Y-12678493D01*
X9379364Y-12678493D01*
X9398412Y-12688017D01*
X9474602Y-12888017D02*
X9484126Y-12878493D01*
X9503174Y-12849921D01*
X9512698Y-12830874D01*
X9522221Y-12802302D01*
X9531745Y-12754683D01*
X9531745Y-12716588D01*
X9522221Y-12668969D01*
X9512698Y-12640398D01*
X9503174Y-12621350D01*
X9484126Y-12592778D01*
X9474602Y-12583255D01*
D16*
X3071934Y-13013634D02*
X3071934Y-12957065D01*
X3015365Y-12957065D01*
X3015365Y-13013634D01*
X3071934Y-13013634D01*
D12*
X3379364Y-12875826D02*
X3398412Y-12875826D01*
X3417459Y-12885350D01*
X3426983Y-12894874D01*
X3436507Y-12913921D01*
X3446031Y-12952017D01*
X3446031Y-12999636D01*
X3436507Y-13037731D01*
X3426983Y-13056778D01*
X3417459Y-13066302D01*
X3398412Y-13075826D01*
X3379364Y-13075826D01*
X3360317Y-13066302D01*
X3350793Y-13056778D01*
X3341269Y-13037731D01*
X3331745Y-12999636D01*
X3331745Y-12952017D01*
X3341269Y-12913921D01*
X3350793Y-12894874D01*
X3360317Y-12885350D01*
X3379364Y-12875826D01*
X3531745Y-13056778D02*
X3541269Y-13066302D01*
X3531745Y-13075826D01*
X3522221Y-13066302D01*
X3531745Y-13056778D01*
X3531745Y-13075826D01*
X3655555Y-12961540D02*
X3636507Y-12952017D01*
X3626983Y-12942493D01*
X3617459Y-12923445D01*
X3617459Y-12913921D01*
X3626983Y-12894874D01*
X3636507Y-12885350D01*
X3655555Y-12875826D01*
X3693650Y-12875826D01*
X3712698Y-12885350D01*
X3722221Y-12894874D01*
X3731745Y-12913921D01*
X3731745Y-12923445D01*
X3722221Y-12942493D01*
X3712698Y-12952017D01*
X3693650Y-12961540D01*
X3655555Y-12961540D01*
X3636507Y-12971064D01*
X3626983Y-12980588D01*
X3617459Y-12999636D01*
X3617459Y-13037731D01*
X3626983Y-13056778D01*
X3636507Y-13066302D01*
X3655555Y-13075826D01*
X3693650Y-13075826D01*
X3712698Y-13066302D01*
X3722221Y-13056778D01*
X3731745Y-13037731D01*
X3731745Y-12999636D01*
X3722221Y-12980588D01*
X3712698Y-12971064D01*
X3693650Y-12961540D01*
X3855555Y-12875826D02*
X3874602Y-12875826D01*
X3893650Y-12885350D01*
X3903174Y-12894874D01*
X3912698Y-12913921D01*
X3922221Y-12952017D01*
X3922221Y-12999636D01*
X3912698Y-13037731D01*
X3903174Y-13056778D01*
X3893650Y-13066302D01*
X3874602Y-13075826D01*
X3855555Y-13075826D01*
X3836507Y-13066302D01*
X3826983Y-13056778D01*
X3817459Y-13037731D01*
X3807936Y-12999636D01*
X3807936Y-12952017D01*
X3817459Y-12913921D01*
X3826983Y-12894874D01*
X3836507Y-12885350D01*
X3855555Y-12875826D01*
X4046031Y-12875826D02*
X4065078Y-12875826D01*
X4084126Y-12885350D01*
X4093650Y-12894874D01*
X4103174Y-12913921D01*
X4112698Y-12952017D01*
X4112698Y-12999636D01*
X4103174Y-13037731D01*
X4093650Y-13056778D01*
X4084126Y-13066302D01*
X4065078Y-13075826D01*
X4046031Y-13075826D01*
X4026983Y-13066302D01*
X4017459Y-13056778D01*
X4007936Y-13037731D01*
X3998412Y-12999636D01*
X3998412Y-12952017D01*
X4007936Y-12913921D01*
X4017459Y-12894874D01*
X4026983Y-12885350D01*
X4046031Y-12875826D01*
X4198412Y-13075826D02*
X4198412Y-12942493D01*
X4198412Y-12961540D02*
X4207936Y-12952017D01*
X4226983Y-12942493D01*
X4255555Y-12942493D01*
X4274602Y-12952017D01*
X4284126Y-12971064D01*
X4284126Y-13075826D01*
X4284126Y-12971064D02*
X4293650Y-12952017D01*
X4312698Y-12942493D01*
X4341269Y-12942493D01*
X4360317Y-12952017D01*
X4369840Y-12971064D01*
X4369840Y-13075826D01*
X4465079Y-13075826D02*
X4465079Y-12942493D01*
X4465079Y-12961540D02*
X4474602Y-12952017D01*
X4493650Y-12942493D01*
X4522221Y-12942493D01*
X4541269Y-12952017D01*
X4550793Y-12971064D01*
X4550793Y-13075826D01*
X4550793Y-12971064D02*
X4560317Y-12952017D01*
X4579364Y-12942493D01*
X4607936Y-12942493D01*
X4626983Y-12952017D01*
X4636507Y-12971064D01*
X4636507Y-13075826D01*
X5026983Y-12866302D02*
X4855555Y-13123445D01*
X5284126Y-12875826D02*
X5303174Y-12875826D01*
X5322221Y-12885350D01*
X5331745Y-12894874D01*
X5341269Y-12913921D01*
X5350793Y-12952017D01*
X5350793Y-12999636D01*
X5341269Y-13037731D01*
X5331745Y-13056778D01*
X5322221Y-13066302D01*
X5303174Y-13075826D01*
X5284126Y-13075826D01*
X5265079Y-13066302D01*
X5255555Y-13056778D01*
X5246031Y-13037731D01*
X5236507Y-12999636D01*
X5236507Y-12952017D01*
X5246031Y-12913921D01*
X5255555Y-12894874D01*
X5265079Y-12885350D01*
X5284126Y-12875826D01*
X5436507Y-13056778D02*
X5446031Y-13066302D01*
X5436507Y-13075826D01*
X5426983Y-13066302D01*
X5436507Y-13056778D01*
X5436507Y-13075826D01*
X5569840Y-12875826D02*
X5588888Y-12875826D01*
X5607936Y-12885350D01*
X5617459Y-12894874D01*
X5626983Y-12913921D01*
X5636507Y-12952017D01*
X5636507Y-12999636D01*
X5626983Y-13037731D01*
X5617459Y-13056778D01*
X5607936Y-13066302D01*
X5588888Y-13075826D01*
X5569840Y-13075826D01*
X5550793Y-13066302D01*
X5541269Y-13056778D01*
X5531745Y-13037731D01*
X5522221Y-12999636D01*
X5522221Y-12952017D01*
X5531745Y-12913921D01*
X5541269Y-12894874D01*
X5550793Y-12885350D01*
X5569840Y-12875826D01*
X5703174Y-12875826D02*
X5826983Y-12875826D01*
X5760317Y-12952017D01*
X5788888Y-12952017D01*
X5807936Y-12961540D01*
X5817459Y-12971064D01*
X5826983Y-12990112D01*
X5826983Y-13037731D01*
X5817459Y-13056778D01*
X5807936Y-13066302D01*
X5788888Y-13075826D01*
X5731745Y-13075826D01*
X5712698Y-13066302D01*
X5703174Y-13056778D01*
X6017459Y-13075826D02*
X5903174Y-13075826D01*
X5960317Y-13075826D02*
X5960317Y-12875826D01*
X5941269Y-12904398D01*
X5922221Y-12923445D01*
X5903174Y-12932969D01*
X6198412Y-12875826D02*
X6103174Y-12875826D01*
X6093650Y-12971064D01*
X6103174Y-12961540D01*
X6122221Y-12952017D01*
X6169840Y-12952017D01*
X6188888Y-12961540D01*
X6198412Y-12971064D01*
X6207936Y-12990112D01*
X6207936Y-13037731D01*
X6198412Y-13056778D01*
X6188888Y-13066302D01*
X6169840Y-13075826D01*
X6122221Y-13075826D01*
X6103174Y-13066302D01*
X6093650Y-13056778D01*
X6284126Y-12875826D02*
X6284126Y-12913921D01*
X6360317Y-12875826D02*
X6360317Y-12913921D01*
X6655555Y-13152017D02*
X6646031Y-13142493D01*
X6626983Y-13113921D01*
X6617459Y-13094874D01*
X6607936Y-13066302D01*
X6598412Y-13018683D01*
X6598412Y-12980588D01*
X6607936Y-12932969D01*
X6617459Y-12904398D01*
X6626983Y-12885350D01*
X6646031Y-12856778D01*
X6655555Y-12847255D01*
X6712698Y-12875826D02*
X6836507Y-12875826D01*
X6769840Y-12952017D01*
X6798412Y-12952017D01*
X6817459Y-12961540D01*
X6826983Y-12971064D01*
X6836507Y-12990112D01*
X6836507Y-13037731D01*
X6826983Y-13056778D01*
X6817459Y-13066302D01*
X6798412Y-13075826D01*
X6741269Y-13075826D01*
X6722221Y-13066302D01*
X6712698Y-13056778D01*
X7007936Y-12875826D02*
X6969840Y-12875826D01*
X6950793Y-12885350D01*
X6941269Y-12894874D01*
X6922221Y-12923445D01*
X6912698Y-12961540D01*
X6912698Y-13037731D01*
X6922221Y-13056778D01*
X6931745Y-13066302D01*
X6950793Y-13075826D01*
X6988888Y-13075826D01*
X7007936Y-13066302D01*
X7017459Y-13056778D01*
X7026983Y-13037731D01*
X7026983Y-12990112D01*
X7017459Y-12971064D01*
X7007936Y-12961540D01*
X6988888Y-12952017D01*
X6950793Y-12952017D01*
X6931745Y-12961540D01*
X6922221Y-12971064D01*
X6912698Y-12990112D01*
X7265078Y-13075826D02*
X7265078Y-12875826D01*
X7350793Y-13075826D02*
X7350793Y-12971064D01*
X7341269Y-12952017D01*
X7322221Y-12942493D01*
X7293650Y-12942493D01*
X7274602Y-12952017D01*
X7265078Y-12961540D01*
X7474602Y-13075826D02*
X7455555Y-13066302D01*
X7446031Y-13056778D01*
X7436507Y-13037731D01*
X7436507Y-12980588D01*
X7446031Y-12961540D01*
X7455555Y-12952017D01*
X7474602Y-12942493D01*
X7503174Y-12942493D01*
X7522221Y-12952017D01*
X7531745Y-12961540D01*
X7541269Y-12980588D01*
X7541269Y-13037731D01*
X7531745Y-13056778D01*
X7522221Y-13066302D01*
X7503174Y-13075826D01*
X7474602Y-13075826D01*
X7655555Y-13075826D02*
X7636507Y-13066302D01*
X7626983Y-13047255D01*
X7626983Y-12875826D01*
X7807936Y-13066302D02*
X7788888Y-13075826D01*
X7750793Y-13075826D01*
X7731745Y-13066302D01*
X7722221Y-13047255D01*
X7722221Y-12971064D01*
X7731745Y-12952017D01*
X7750793Y-12942493D01*
X7788888Y-12942493D01*
X7807936Y-12952017D01*
X7817459Y-12971064D01*
X7817459Y-12990112D01*
X7722221Y-13009159D01*
X7893650Y-13066302D02*
X7912698Y-13075826D01*
X7950793Y-13075826D01*
X7969840Y-13066302D01*
X7979364Y-13047255D01*
X7979364Y-13037731D01*
X7969840Y-13018683D01*
X7950793Y-13009159D01*
X7922221Y-13009159D01*
X7903174Y-12999636D01*
X7893650Y-12980588D01*
X7893650Y-12971064D01*
X7903174Y-12952017D01*
X7922221Y-12942493D01*
X7950793Y-12942493D01*
X7969840Y-12952017D01*
X8046031Y-13152017D02*
X8055555Y-13142493D01*
X8074602Y-13113921D01*
X8084126Y-13094874D01*
X8093650Y-13066302D01*
X8103174Y-13018683D01*
X8103174Y-12980588D01*
X8093650Y-12932969D01*
X8084126Y-12904398D01*
X8074602Y-12885350D01*
X8055555Y-12856778D01*
X8046031Y-12847255D01*
D17*
X3033650Y-13299350D02*
X3083650Y-13249350D01*
X3033650Y-13199350D01*
X2983650Y-13249350D01*
X3033650Y-13299350D01*
D12*
X3446031Y-13339826D02*
X3331745Y-13339826D01*
X3388888Y-13339826D02*
X3388888Y-13139826D01*
X3369840Y-13168398D01*
X3350793Y-13187445D01*
X3331745Y-13196969D01*
X3531745Y-13320778D02*
X3541269Y-13330302D01*
X3531745Y-13339826D01*
X3522221Y-13330302D01*
X3531745Y-13320778D01*
X3531745Y-13339826D01*
X3665078Y-13139826D02*
X3684126Y-13139826D01*
X3703174Y-13149350D01*
X3712698Y-13158874D01*
X3722221Y-13177921D01*
X3731745Y-13216017D01*
X3731745Y-13263636D01*
X3722221Y-13301731D01*
X3712698Y-13320778D01*
X3703174Y-13330302D01*
X3684126Y-13339826D01*
X3665078Y-13339826D01*
X3646031Y-13330302D01*
X3636507Y-13320778D01*
X3626983Y-13301731D01*
X3617459Y-13263636D01*
X3617459Y-13216017D01*
X3626983Y-13177921D01*
X3636507Y-13158874D01*
X3646031Y-13149350D01*
X3665078Y-13139826D01*
X3855555Y-13139826D02*
X3874602Y-13139826D01*
X3893650Y-13149350D01*
X3903174Y-13158874D01*
X3912698Y-13177921D01*
X3922221Y-13216017D01*
X3922221Y-13263636D01*
X3912698Y-13301731D01*
X3903174Y-13320778D01*
X3893650Y-13330302D01*
X3874602Y-13339826D01*
X3855555Y-13339826D01*
X3836507Y-13330302D01*
X3826983Y-13320778D01*
X3817459Y-13301731D01*
X3807936Y-13263636D01*
X3807936Y-13216017D01*
X3817459Y-13177921D01*
X3826983Y-13158874D01*
X3836507Y-13149350D01*
X3855555Y-13139826D01*
X4046031Y-13139826D02*
X4065078Y-13139826D01*
X4084126Y-13149350D01*
X4093650Y-13158874D01*
X4103174Y-13177921D01*
X4112698Y-13216017D01*
X4112698Y-13263636D01*
X4103174Y-13301731D01*
X4093650Y-13320778D01*
X4084126Y-13330302D01*
X4065078Y-13339826D01*
X4046031Y-13339826D01*
X4026983Y-13330302D01*
X4017459Y-13320778D01*
X4007936Y-13301731D01*
X3998412Y-13263636D01*
X3998412Y-13216017D01*
X4007936Y-13177921D01*
X4017459Y-13158874D01*
X4026983Y-13149350D01*
X4046031Y-13139826D01*
X4198412Y-13339826D02*
X4198412Y-13206493D01*
X4198412Y-13225540D02*
X4207936Y-13216017D01*
X4226983Y-13206493D01*
X4255555Y-13206493D01*
X4274602Y-13216017D01*
X4284126Y-13235064D01*
X4284126Y-13339826D01*
X4284126Y-13235064D02*
X4293650Y-13216017D01*
X4312698Y-13206493D01*
X4341269Y-13206493D01*
X4360317Y-13216017D01*
X4369840Y-13235064D01*
X4369840Y-13339826D01*
X4465079Y-13339826D02*
X4465079Y-13206493D01*
X4465079Y-13225540D02*
X4474602Y-13216017D01*
X4493650Y-13206493D01*
X4522221Y-13206493D01*
X4541269Y-13216017D01*
X4550793Y-13235064D01*
X4550793Y-13339826D01*
X4550793Y-13235064D02*
X4560317Y-13216017D01*
X4579364Y-13206493D01*
X4607936Y-13206493D01*
X4626983Y-13216017D01*
X4636507Y-13235064D01*
X4636507Y-13339826D01*
X5026983Y-13130302D02*
X4855555Y-13387445D01*
X5284126Y-13139826D02*
X5303174Y-13139826D01*
X5322221Y-13149350D01*
X5331745Y-13158874D01*
X5341269Y-13177921D01*
X5350793Y-13216017D01*
X5350793Y-13263636D01*
X5341269Y-13301731D01*
X5331745Y-13320778D01*
X5322221Y-13330302D01*
X5303174Y-13339826D01*
X5284126Y-13339826D01*
X5265079Y-13330302D01*
X5255555Y-13320778D01*
X5246031Y-13301731D01*
X5236507Y-13263636D01*
X5236507Y-13216017D01*
X5246031Y-13177921D01*
X5255555Y-13158874D01*
X5265079Y-13149350D01*
X5284126Y-13139826D01*
X5436507Y-13320778D02*
X5446031Y-13330302D01*
X5436507Y-13339826D01*
X5426983Y-13330302D01*
X5436507Y-13320778D01*
X5436507Y-13339826D01*
X5569840Y-13139826D02*
X5588888Y-13139826D01*
X5607936Y-13149350D01*
X5617459Y-13158874D01*
X5626983Y-13177921D01*
X5636507Y-13216017D01*
X5636507Y-13263636D01*
X5626983Y-13301731D01*
X5617459Y-13320778D01*
X5607936Y-13330302D01*
X5588888Y-13339826D01*
X5569840Y-13339826D01*
X5550793Y-13330302D01*
X5541269Y-13320778D01*
X5531745Y-13301731D01*
X5522221Y-13263636D01*
X5522221Y-13216017D01*
X5531745Y-13177921D01*
X5541269Y-13158874D01*
X5550793Y-13149350D01*
X5569840Y-13139826D01*
X5703174Y-13139826D02*
X5826983Y-13139826D01*
X5760317Y-13216017D01*
X5788888Y-13216017D01*
X5807936Y-13225540D01*
X5817459Y-13235064D01*
X5826983Y-13254112D01*
X5826983Y-13301731D01*
X5817459Y-13320778D01*
X5807936Y-13330302D01*
X5788888Y-13339826D01*
X5731745Y-13339826D01*
X5712698Y-13330302D01*
X5703174Y-13320778D01*
X5922221Y-13339826D02*
X5960317Y-13339826D01*
X5979364Y-13330302D01*
X5988888Y-13320778D01*
X6007936Y-13292207D01*
X6017459Y-13254112D01*
X6017459Y-13177921D01*
X6007936Y-13158874D01*
X5998412Y-13149350D01*
X5979364Y-13139826D01*
X5941269Y-13139826D01*
X5922221Y-13149350D01*
X5912698Y-13158874D01*
X5903174Y-13177921D01*
X5903174Y-13225540D01*
X5912698Y-13244588D01*
X5922221Y-13254112D01*
X5941269Y-13263636D01*
X5979364Y-13263636D01*
X5998412Y-13254112D01*
X6007936Y-13244588D01*
X6017459Y-13225540D01*
X6188888Y-13206493D02*
X6188888Y-13339826D01*
X6141269Y-13130302D02*
X6093650Y-13273159D01*
X6217459Y-13273159D01*
X6284126Y-13139826D02*
X6284126Y-13177921D01*
X6360317Y-13139826D02*
X6360317Y-13177921D01*
X6655555Y-13416017D02*
X6646031Y-13406493D01*
X6626983Y-13377921D01*
X6617459Y-13358874D01*
X6607936Y-13330302D01*
X6598412Y-13282683D01*
X6598412Y-13244588D01*
X6607936Y-13196969D01*
X6617459Y-13168398D01*
X6626983Y-13149350D01*
X6646031Y-13120778D01*
X6655555Y-13111255D01*
X6817459Y-13206493D02*
X6817459Y-13339826D01*
X6769840Y-13130302D02*
X6722221Y-13273159D01*
X6846031Y-13273159D01*
X7026983Y-13339826D02*
X6912698Y-13339826D01*
X6969840Y-13339826D02*
X6969840Y-13139826D01*
X6950793Y-13168398D01*
X6931745Y-13187445D01*
X6912698Y-13196969D01*
X7265078Y-13339826D02*
X7265078Y-13139826D01*
X7350793Y-13339826D02*
X7350793Y-13235064D01*
X7341269Y-13216017D01*
X7322221Y-13206493D01*
X7293650Y-13206493D01*
X7274602Y-13216017D01*
X7265078Y-13225540D01*
X7474602Y-13339826D02*
X7455555Y-13330302D01*
X7446031Y-13320778D01*
X7436507Y-13301731D01*
X7436507Y-13244588D01*
X7446031Y-13225540D01*
X7455555Y-13216017D01*
X7474602Y-13206493D01*
X7503174Y-13206493D01*
X7522221Y-13216017D01*
X7531745Y-13225540D01*
X7541269Y-13244588D01*
X7541269Y-13301731D01*
X7531745Y-13320778D01*
X7522221Y-13330302D01*
X7503174Y-13339826D01*
X7474602Y-13339826D01*
X7655555Y-13339826D02*
X7636507Y-13330302D01*
X7626983Y-13311255D01*
X7626983Y-13139826D01*
X7807936Y-13330302D02*
X7788888Y-13339826D01*
X7750793Y-13339826D01*
X7731745Y-13330302D01*
X7722221Y-13311255D01*
X7722221Y-13235064D01*
X7731745Y-13216017D01*
X7750793Y-13206493D01*
X7788888Y-13206493D01*
X7807936Y-13216017D01*
X7817459Y-13235064D01*
X7817459Y-13254112D01*
X7722221Y-13273159D01*
X7893650Y-13330302D02*
X7912698Y-13339826D01*
X7950793Y-13339826D01*
X7969840Y-13330302D01*
X7979364Y-13311255D01*
X7979364Y-13301731D01*
X7969840Y-13282683D01*
X7950793Y-13273159D01*
X7922221Y-13273159D01*
X7903174Y-13263636D01*
X7893650Y-13244588D01*
X7893650Y-13235064D01*
X7903174Y-13216017D01*
X7922221Y-13206493D01*
X7950793Y-13206493D01*
X7969840Y-13216017D01*
X8046031Y-13416017D02*
X8055555Y-13406493D01*
X8074602Y-13377921D01*
X8084126Y-13358874D01*
X8093650Y-13330302D01*
X8103174Y-13282683D01*
X8103174Y-13244588D01*
X8093650Y-13196969D01*
X8084126Y-13168398D01*
X8074602Y-13149350D01*
X8055555Y-13120778D01*
X8046031Y-13111255D01*
D18*
X2973650Y-13458350D02*
X3083650Y-13568350D01*
X3083650Y-13458350D02*
X2973650Y-13568350D01*
X3083650Y-13513350D02*
G75*
G03*
X3083650Y-13513350I-55000J0D01*
G01*
D12*
X3446031Y-13603826D02*
X3331745Y-13603826D01*
X3388888Y-13603826D02*
X3388888Y-13403826D01*
X3369840Y-13432398D01*
X3350793Y-13451445D01*
X3331745Y-13460969D01*
X3531745Y-13584778D02*
X3541269Y-13594302D01*
X3531745Y-13603826D01*
X3522221Y-13594302D01*
X3531745Y-13584778D01*
X3531745Y-13603826D01*
X3731745Y-13603826D02*
X3617459Y-13603826D01*
X3674602Y-13603826D02*
X3674602Y-13403826D01*
X3655555Y-13432398D01*
X3636507Y-13451445D01*
X3617459Y-13460969D01*
X3855555Y-13403826D02*
X3874602Y-13403826D01*
X3893650Y-13413350D01*
X3903174Y-13422874D01*
X3912698Y-13441921D01*
X3922221Y-13480017D01*
X3922221Y-13527636D01*
X3912698Y-13565731D01*
X3903174Y-13584778D01*
X3893650Y-13594302D01*
X3874602Y-13603826D01*
X3855555Y-13603826D01*
X3836507Y-13594302D01*
X3826983Y-13584778D01*
X3817459Y-13565731D01*
X3807936Y-13527636D01*
X3807936Y-13480017D01*
X3817459Y-13441921D01*
X3826983Y-13422874D01*
X3836507Y-13413350D01*
X3855555Y-13403826D01*
X4046031Y-13403826D02*
X4065078Y-13403826D01*
X4084126Y-13413350D01*
X4093650Y-13422874D01*
X4103174Y-13441921D01*
X4112698Y-13480017D01*
X4112698Y-13527636D01*
X4103174Y-13565731D01*
X4093650Y-13584778D01*
X4084126Y-13594302D01*
X4065078Y-13603826D01*
X4046031Y-13603826D01*
X4026983Y-13594302D01*
X4017459Y-13584778D01*
X4007936Y-13565731D01*
X3998412Y-13527636D01*
X3998412Y-13480017D01*
X4007936Y-13441921D01*
X4017459Y-13422874D01*
X4026983Y-13413350D01*
X4046031Y-13403826D01*
X4198412Y-13603826D02*
X4198412Y-13470493D01*
X4198412Y-13489540D02*
X4207936Y-13480017D01*
X4226983Y-13470493D01*
X4255555Y-13470493D01*
X4274602Y-13480017D01*
X4284126Y-13499064D01*
X4284126Y-13603826D01*
X4284126Y-13499064D02*
X4293650Y-13480017D01*
X4312698Y-13470493D01*
X4341269Y-13470493D01*
X4360317Y-13480017D01*
X4369840Y-13499064D01*
X4369840Y-13603826D01*
X4465079Y-13603826D02*
X4465079Y-13470493D01*
X4465079Y-13489540D02*
X4474602Y-13480017D01*
X4493650Y-13470493D01*
X4522221Y-13470493D01*
X4541269Y-13480017D01*
X4550793Y-13499064D01*
X4550793Y-13603826D01*
X4550793Y-13499064D02*
X4560317Y-13480017D01*
X4579364Y-13470493D01*
X4607936Y-13470493D01*
X4626983Y-13480017D01*
X4636507Y-13499064D01*
X4636507Y-13603826D01*
X5026983Y-13394302D02*
X4855555Y-13651445D01*
X5284126Y-13403826D02*
X5303174Y-13403826D01*
X5322221Y-13413350D01*
X5331745Y-13422874D01*
X5341269Y-13441921D01*
X5350793Y-13480017D01*
X5350793Y-13527636D01*
X5341269Y-13565731D01*
X5331745Y-13584778D01*
X5322221Y-13594302D01*
X5303174Y-13603826D01*
X5284126Y-13603826D01*
X5265079Y-13594302D01*
X5255555Y-13584778D01*
X5246031Y-13565731D01*
X5236507Y-13527636D01*
X5236507Y-13480017D01*
X5246031Y-13441921D01*
X5255555Y-13422874D01*
X5265079Y-13413350D01*
X5284126Y-13403826D01*
X5436507Y-13584778D02*
X5446031Y-13594302D01*
X5436507Y-13603826D01*
X5426983Y-13594302D01*
X5436507Y-13584778D01*
X5436507Y-13603826D01*
X5569840Y-13403826D02*
X5588888Y-13403826D01*
X5607936Y-13413350D01*
X5617459Y-13422874D01*
X5626983Y-13441921D01*
X5636507Y-13480017D01*
X5636507Y-13527636D01*
X5626983Y-13565731D01*
X5617459Y-13584778D01*
X5607936Y-13594302D01*
X5588888Y-13603826D01*
X5569840Y-13603826D01*
X5550793Y-13594302D01*
X5541269Y-13584778D01*
X5531745Y-13565731D01*
X5522221Y-13527636D01*
X5522221Y-13480017D01*
X5531745Y-13441921D01*
X5541269Y-13422874D01*
X5550793Y-13413350D01*
X5569840Y-13403826D01*
X5807936Y-13470493D02*
X5807936Y-13603826D01*
X5760317Y-13394302D02*
X5712698Y-13537159D01*
X5836507Y-13537159D01*
X5893650Y-13403826D02*
X6017459Y-13403826D01*
X5950793Y-13480017D01*
X5979364Y-13480017D01*
X5998412Y-13489540D01*
X6007936Y-13499064D01*
X6017459Y-13518112D01*
X6017459Y-13565731D01*
X6007936Y-13584778D01*
X5998412Y-13594302D01*
X5979364Y-13603826D01*
X5922221Y-13603826D01*
X5903174Y-13594302D01*
X5893650Y-13584778D01*
X6084126Y-13403826D02*
X6207936Y-13403826D01*
X6141269Y-13480017D01*
X6169840Y-13480017D01*
X6188888Y-13489540D01*
X6198412Y-13499064D01*
X6207936Y-13518112D01*
X6207936Y-13565731D01*
X6198412Y-13584778D01*
X6188888Y-13594302D01*
X6169840Y-13603826D01*
X6112698Y-13603826D01*
X6093650Y-13594302D01*
X6084126Y-13584778D01*
X6284126Y-13403826D02*
X6284126Y-13441921D01*
X6360317Y-13403826D02*
X6360317Y-13441921D01*
X6655555Y-13680017D02*
X6646031Y-13670493D01*
X6626983Y-13641921D01*
X6617459Y-13622874D01*
X6607936Y-13594302D01*
X6598412Y-13546683D01*
X6598412Y-13508588D01*
X6607936Y-13460969D01*
X6617459Y-13432398D01*
X6626983Y-13413350D01*
X6646031Y-13384778D01*
X6655555Y-13375255D01*
X6712698Y-13403826D02*
X6846031Y-13403826D01*
X6760317Y-13603826D01*
X7074602Y-13603826D02*
X7074602Y-13403826D01*
X7160317Y-13603826D02*
X7160317Y-13499064D01*
X7150793Y-13480017D01*
X7131745Y-13470493D01*
X7103174Y-13470493D01*
X7084126Y-13480017D01*
X7074602Y-13489540D01*
X7284126Y-13603826D02*
X7265078Y-13594302D01*
X7255555Y-13584778D01*
X7246031Y-13565731D01*
X7246031Y-13508588D01*
X7255555Y-13489540D01*
X7265078Y-13480017D01*
X7284126Y-13470493D01*
X7312698Y-13470493D01*
X7331745Y-13480017D01*
X7341269Y-13489540D01*
X7350793Y-13508588D01*
X7350793Y-13565731D01*
X7341269Y-13584778D01*
X7331745Y-13594302D01*
X7312698Y-13603826D01*
X7284126Y-13603826D01*
X7465078Y-13603826D02*
X7446031Y-13594302D01*
X7436507Y-13575255D01*
X7436507Y-13403826D01*
X7617459Y-13594302D02*
X7598412Y-13603826D01*
X7560317Y-13603826D01*
X7541269Y-13594302D01*
X7531745Y-13575255D01*
X7531745Y-13499064D01*
X7541269Y-13480017D01*
X7560317Y-13470493D01*
X7598412Y-13470493D01*
X7617459Y-13480017D01*
X7626983Y-13499064D01*
X7626983Y-13518112D01*
X7531745Y-13537159D01*
X7703174Y-13594302D02*
X7722221Y-13603826D01*
X7760317Y-13603826D01*
X7779364Y-13594302D01*
X7788888Y-13575255D01*
X7788888Y-13565731D01*
X7779364Y-13546683D01*
X7760317Y-13537159D01*
X7731745Y-13537159D01*
X7712698Y-13527636D01*
X7703174Y-13508588D01*
X7703174Y-13499064D01*
X7712698Y-13480017D01*
X7731745Y-13470493D01*
X7760317Y-13470493D01*
X7779364Y-13480017D01*
X7855555Y-13680017D02*
X7865078Y-13670493D01*
X7884126Y-13641921D01*
X7893650Y-13622874D01*
X7903174Y-13594302D01*
X7912698Y-13546683D01*
X7912698Y-13508588D01*
X7903174Y-13460969D01*
X7893650Y-13432398D01*
X7884126Y-13413350D01*
X7865078Y-13384778D01*
X7855555Y-13375255D01*
D19*
X2954110Y-13712580D02*
X3083650Y-13842120D01*
X3083650Y-13712580D02*
X2954110Y-13842120D01*
X3018880Y-13712580D02*
X3018880Y-13842120D01*
X2954110Y-13777350D02*
X3083650Y-13777350D01*
D12*
X3446031Y-13867826D02*
X3331745Y-13867826D01*
X3388888Y-13867826D02*
X3388888Y-13667826D01*
X3369840Y-13696398D01*
X3350793Y-13715445D01*
X3331745Y-13724969D01*
X3531745Y-13848778D02*
X3541269Y-13858302D01*
X3531745Y-13867826D01*
X3522221Y-13858302D01*
X3531745Y-13848778D01*
X3531745Y-13867826D01*
X3617459Y-13686874D02*
X3626983Y-13677350D01*
X3646031Y-13667826D01*
X3693650Y-13667826D01*
X3712698Y-13677350D01*
X3722221Y-13686874D01*
X3731745Y-13705921D01*
X3731745Y-13724969D01*
X3722221Y-13753540D01*
X3607936Y-13867826D01*
X3731745Y-13867826D01*
X3826983Y-13867826D02*
X3865078Y-13867826D01*
X3884126Y-13858302D01*
X3893650Y-13848778D01*
X3912698Y-13820207D01*
X3922221Y-13782112D01*
X3922221Y-13705921D01*
X3912698Y-13686874D01*
X3903174Y-13677350D01*
X3884126Y-13667826D01*
X3846031Y-13667826D01*
X3826983Y-13677350D01*
X3817459Y-13686874D01*
X3807936Y-13705921D01*
X3807936Y-13753540D01*
X3817459Y-13772588D01*
X3826983Y-13782112D01*
X3846031Y-13791636D01*
X3884126Y-13791636D01*
X3903174Y-13782112D01*
X3912698Y-13772588D01*
X3922221Y-13753540D01*
X4103174Y-13667826D02*
X4007936Y-13667826D01*
X3998412Y-13763064D01*
X4007936Y-13753540D01*
X4026983Y-13744017D01*
X4074602Y-13744017D01*
X4093650Y-13753540D01*
X4103174Y-13763064D01*
X4112698Y-13782112D01*
X4112698Y-13829731D01*
X4103174Y-13848778D01*
X4093650Y-13858302D01*
X4074602Y-13867826D01*
X4026983Y-13867826D01*
X4007936Y-13858302D01*
X3998412Y-13848778D01*
X4198412Y-13867826D02*
X4198412Y-13734493D01*
X4198412Y-13753540D02*
X4207936Y-13744017D01*
X4226983Y-13734493D01*
X4255555Y-13734493D01*
X4274602Y-13744017D01*
X4284126Y-13763064D01*
X4284126Y-13867826D01*
X4284126Y-13763064D02*
X4293650Y-13744017D01*
X4312698Y-13734493D01*
X4341269Y-13734493D01*
X4360317Y-13744017D01*
X4369840Y-13763064D01*
X4369840Y-13867826D01*
X4465079Y-13867826D02*
X4465079Y-13734493D01*
X4465079Y-13753540D02*
X4474602Y-13744017D01*
X4493650Y-13734493D01*
X4522221Y-13734493D01*
X4541269Y-13744017D01*
X4550793Y-13763064D01*
X4550793Y-13867826D01*
X4550793Y-13763064D02*
X4560317Y-13744017D01*
X4579364Y-13734493D01*
X4607936Y-13734493D01*
X4626983Y-13744017D01*
X4636507Y-13763064D01*
X4636507Y-13867826D01*
X5026983Y-13658302D02*
X4855555Y-13915445D01*
X5284126Y-13667826D02*
X5303174Y-13667826D01*
X5322221Y-13677350D01*
X5331745Y-13686874D01*
X5341269Y-13705921D01*
X5350793Y-13744017D01*
X5350793Y-13791636D01*
X5341269Y-13829731D01*
X5331745Y-13848778D01*
X5322221Y-13858302D01*
X5303174Y-13867826D01*
X5284126Y-13867826D01*
X5265079Y-13858302D01*
X5255555Y-13848778D01*
X5246031Y-13829731D01*
X5236507Y-13791636D01*
X5236507Y-13744017D01*
X5246031Y-13705921D01*
X5255555Y-13686874D01*
X5265079Y-13677350D01*
X5284126Y-13667826D01*
X5436507Y-13848778D02*
X5446031Y-13858302D01*
X5436507Y-13867826D01*
X5426983Y-13858302D01*
X5436507Y-13848778D01*
X5436507Y-13867826D01*
X5569840Y-13667826D02*
X5588888Y-13667826D01*
X5607936Y-13677350D01*
X5617459Y-13686874D01*
X5626983Y-13705921D01*
X5636507Y-13744017D01*
X5636507Y-13791636D01*
X5626983Y-13829731D01*
X5617459Y-13848778D01*
X5607936Y-13858302D01*
X5588888Y-13867826D01*
X5569840Y-13867826D01*
X5550793Y-13858302D01*
X5541269Y-13848778D01*
X5531745Y-13829731D01*
X5522221Y-13791636D01*
X5522221Y-13744017D01*
X5531745Y-13705921D01*
X5541269Y-13686874D01*
X5550793Y-13677350D01*
X5569840Y-13667826D01*
X5817459Y-13667826D02*
X5722221Y-13667826D01*
X5712698Y-13763064D01*
X5722221Y-13753540D01*
X5741269Y-13744017D01*
X5788888Y-13744017D01*
X5807936Y-13753540D01*
X5817459Y-13763064D01*
X5826983Y-13782112D01*
X5826983Y-13829731D01*
X5817459Y-13848778D01*
X5807936Y-13858302D01*
X5788888Y-13867826D01*
X5741269Y-13867826D01*
X5722221Y-13858302D01*
X5712698Y-13848778D01*
X6017459Y-13867826D02*
X5903174Y-13867826D01*
X5960317Y-13867826D02*
X5960317Y-13667826D01*
X5941269Y-13696398D01*
X5922221Y-13715445D01*
X5903174Y-13724969D01*
X6141269Y-13667826D02*
X6160317Y-13667826D01*
X6179364Y-13677350D01*
X6188888Y-13686874D01*
X6198412Y-13705921D01*
X6207936Y-13744017D01*
X6207936Y-13791636D01*
X6198412Y-13829731D01*
X6188888Y-13848778D01*
X6179364Y-13858302D01*
X6160317Y-13867826D01*
X6141269Y-13867826D01*
X6122221Y-13858302D01*
X6112698Y-13848778D01*
X6103174Y-13829731D01*
X6093650Y-13791636D01*
X6093650Y-13744017D01*
X6103174Y-13705921D01*
X6112698Y-13686874D01*
X6122221Y-13677350D01*
X6141269Y-13667826D01*
X6284126Y-13667826D02*
X6284126Y-13705921D01*
X6360317Y-13667826D02*
X6360317Y-13705921D01*
X6655555Y-13944017D02*
X6646031Y-13934493D01*
X6626983Y-13905921D01*
X6617459Y-13886874D01*
X6607936Y-13858302D01*
X6598412Y-13810683D01*
X6598412Y-13772588D01*
X6607936Y-13724969D01*
X6617459Y-13696398D01*
X6626983Y-13677350D01*
X6646031Y-13648778D01*
X6655555Y-13639255D01*
X6722221Y-13686874D02*
X6731745Y-13677350D01*
X6750793Y-13667826D01*
X6798412Y-13667826D01*
X6817459Y-13677350D01*
X6826983Y-13686874D01*
X6836507Y-13705921D01*
X6836507Y-13724969D01*
X6826983Y-13753540D01*
X6712698Y-13867826D01*
X6836507Y-13867826D01*
X6960317Y-13667826D02*
X6979364Y-13667826D01*
X6998412Y-13677350D01*
X7007936Y-13686874D01*
X7017459Y-13705921D01*
X7026983Y-13744017D01*
X7026983Y-13791636D01*
X7017459Y-13829731D01*
X7007936Y-13848778D01*
X6998412Y-13858302D01*
X6979364Y-13867826D01*
X6960317Y-13867826D01*
X6941269Y-13858302D01*
X6931745Y-13848778D01*
X6922221Y-13829731D01*
X6912698Y-13791636D01*
X6912698Y-13744017D01*
X6922221Y-13705921D01*
X6931745Y-13686874D01*
X6941269Y-13677350D01*
X6960317Y-13667826D01*
X7265078Y-13867826D02*
X7265078Y-13667826D01*
X7350793Y-13867826D02*
X7350793Y-13763064D01*
X7341269Y-13744017D01*
X7322221Y-13734493D01*
X7293650Y-13734493D01*
X7274602Y-13744017D01*
X7265078Y-13753540D01*
X7474602Y-13867826D02*
X7455555Y-13858302D01*
X7446031Y-13848778D01*
X7436507Y-13829731D01*
X7436507Y-13772588D01*
X7446031Y-13753540D01*
X7455555Y-13744017D01*
X7474602Y-13734493D01*
X7503174Y-13734493D01*
X7522221Y-13744017D01*
X7531745Y-13753540D01*
X7541269Y-13772588D01*
X7541269Y-13829731D01*
X7531745Y-13848778D01*
X7522221Y-13858302D01*
X7503174Y-13867826D01*
X7474602Y-13867826D01*
X7655555Y-13867826D02*
X7636507Y-13858302D01*
X7626983Y-13839255D01*
X7626983Y-13667826D01*
X7807936Y-13858302D02*
X7788888Y-13867826D01*
X7750793Y-13867826D01*
X7731745Y-13858302D01*
X7722221Y-13839255D01*
X7722221Y-13763064D01*
X7731745Y-13744017D01*
X7750793Y-13734493D01*
X7788888Y-13734493D01*
X7807936Y-13744017D01*
X7817459Y-13763064D01*
X7817459Y-13782112D01*
X7722221Y-13801159D01*
X7893650Y-13858302D02*
X7912698Y-13867826D01*
X7950793Y-13867826D01*
X7969840Y-13858302D01*
X7979364Y-13839255D01*
X7979364Y-13829731D01*
X7969840Y-13810683D01*
X7950793Y-13801159D01*
X7922221Y-13801159D01*
X7903174Y-13791636D01*
X7893650Y-13772588D01*
X7893650Y-13763064D01*
X7903174Y-13744017D01*
X7922221Y-13734493D01*
X7950793Y-13734493D01*
X7969840Y-13744017D01*
X8046031Y-13944017D02*
X8055555Y-13934493D01*
X8074602Y-13905921D01*
X8084126Y-13886874D01*
X8093650Y-13858302D01*
X8103174Y-13810683D01*
X8103174Y-13772588D01*
X8093650Y-13724969D01*
X8084126Y-13696398D01*
X8074602Y-13677350D01*
X8055555Y-13648778D01*
X8046031Y-13639255D01*
X2883650Y-13941350D02*
X3083650Y-14141350D01*
X3083650Y-13941350D02*
X2883650Y-14141350D01*
X3054361Y-14112061D02*
X3054361Y-13970639D01*
X2912939Y-13970639D01*
X2912939Y-14112061D01*
X3054361Y-14112061D01*
X3322221Y-13931826D02*
X3446031Y-13931826D01*
X3379364Y-14008017D01*
X3407936Y-14008017D01*
X3426983Y-14017540D01*
X3436507Y-14027064D01*
X3446031Y-14046112D01*
X3446031Y-14093731D01*
X3436507Y-14112778D01*
X3426983Y-14122302D01*
X3407936Y-14131826D01*
X3350793Y-14131826D01*
X3331745Y-14122302D01*
X3322221Y-14112778D01*
X3531745Y-14112778D02*
X3541269Y-14122302D01*
X3531745Y-14131826D01*
X3522221Y-14122302D01*
X3531745Y-14112778D01*
X3531745Y-14131826D01*
X3617459Y-13950874D02*
X3626983Y-13941350D01*
X3646031Y-13931826D01*
X3693650Y-13931826D01*
X3712698Y-13941350D01*
X3722221Y-13950874D01*
X3731745Y-13969921D01*
X3731745Y-13988969D01*
X3722221Y-14017540D01*
X3607936Y-14131826D01*
X3731745Y-14131826D01*
X3855555Y-13931826D02*
X3874602Y-13931826D01*
X3893650Y-13941350D01*
X3903174Y-13950874D01*
X3912698Y-13969921D01*
X3922221Y-14008017D01*
X3922221Y-14055636D01*
X3912698Y-14093731D01*
X3903174Y-14112778D01*
X3893650Y-14122302D01*
X3874602Y-14131826D01*
X3855555Y-14131826D01*
X3836507Y-14122302D01*
X3826983Y-14112778D01*
X3817459Y-14093731D01*
X3807936Y-14055636D01*
X3807936Y-14008017D01*
X3817459Y-13969921D01*
X3826983Y-13950874D01*
X3836507Y-13941350D01*
X3855555Y-13931826D01*
X4046031Y-13931826D02*
X4065078Y-13931826D01*
X4084126Y-13941350D01*
X4093650Y-13950874D01*
X4103174Y-13969921D01*
X4112698Y-14008017D01*
X4112698Y-14055636D01*
X4103174Y-14093731D01*
X4093650Y-14112778D01*
X4084126Y-14122302D01*
X4065078Y-14131826D01*
X4046031Y-14131826D01*
X4026983Y-14122302D01*
X4017459Y-14112778D01*
X4007936Y-14093731D01*
X3998412Y-14055636D01*
X3998412Y-14008017D01*
X4007936Y-13969921D01*
X4017459Y-13950874D01*
X4026983Y-13941350D01*
X4046031Y-13931826D01*
X4198412Y-14131826D02*
X4198412Y-13998493D01*
X4198412Y-14017540D02*
X4207936Y-14008017D01*
X4226983Y-13998493D01*
X4255555Y-13998493D01*
X4274602Y-14008017D01*
X4284126Y-14027064D01*
X4284126Y-14131826D01*
X4284126Y-14027064D02*
X4293650Y-14008017D01*
X4312698Y-13998493D01*
X4341269Y-13998493D01*
X4360317Y-14008017D01*
X4369840Y-14027064D01*
X4369840Y-14131826D01*
X4465079Y-14131826D02*
X4465079Y-13998493D01*
X4465079Y-14017540D02*
X4474602Y-14008017D01*
X4493650Y-13998493D01*
X4522221Y-13998493D01*
X4541269Y-14008017D01*
X4550793Y-14027064D01*
X4550793Y-14131826D01*
X4550793Y-14027064D02*
X4560317Y-14008017D01*
X4579364Y-13998493D01*
X4607936Y-13998493D01*
X4626983Y-14008017D01*
X4636507Y-14027064D01*
X4636507Y-14131826D01*
X5026983Y-13922302D02*
X4855555Y-14179445D01*
X5284126Y-13931826D02*
X5303174Y-13931826D01*
X5322221Y-13941350D01*
X5331745Y-13950874D01*
X5341269Y-13969921D01*
X5350793Y-14008017D01*
X5350793Y-14055636D01*
X5341269Y-14093731D01*
X5331745Y-14112778D01*
X5322221Y-14122302D01*
X5303174Y-14131826D01*
X5284126Y-14131826D01*
X5265079Y-14122302D01*
X5255555Y-14112778D01*
X5246031Y-14093731D01*
X5236507Y-14055636D01*
X5236507Y-14008017D01*
X5246031Y-13969921D01*
X5255555Y-13950874D01*
X5265079Y-13941350D01*
X5284126Y-13931826D01*
X5436507Y-14112778D02*
X5446031Y-14122302D01*
X5436507Y-14131826D01*
X5426983Y-14122302D01*
X5436507Y-14112778D01*
X5436507Y-14131826D01*
X5636507Y-14131826D02*
X5522221Y-14131826D01*
X5579364Y-14131826D02*
X5579364Y-13931826D01*
X5560317Y-13960398D01*
X5541269Y-13979445D01*
X5522221Y-13988969D01*
X5712698Y-13950874D02*
X5722221Y-13941350D01*
X5741269Y-13931826D01*
X5788888Y-13931826D01*
X5807936Y-13941350D01*
X5817459Y-13950874D01*
X5826983Y-13969921D01*
X5826983Y-13988969D01*
X5817459Y-14017540D01*
X5703174Y-14131826D01*
X5826983Y-14131826D01*
X5998412Y-13931826D02*
X5960317Y-13931826D01*
X5941269Y-13941350D01*
X5931745Y-13950874D01*
X5912698Y-13979445D01*
X5903174Y-14017540D01*
X5903174Y-14093731D01*
X5912698Y-14112778D01*
X5922221Y-14122302D01*
X5941269Y-14131826D01*
X5979364Y-14131826D01*
X5998412Y-14122302D01*
X6007936Y-14112778D01*
X6017459Y-14093731D01*
X6017459Y-14046112D01*
X6007936Y-14027064D01*
X5998412Y-14017540D01*
X5979364Y-14008017D01*
X5941269Y-14008017D01*
X5922221Y-14017540D01*
X5912698Y-14027064D01*
X5903174Y-14046112D01*
X6141269Y-13931826D02*
X6160317Y-13931826D01*
X6179364Y-13941350D01*
X6188888Y-13950874D01*
X6198412Y-13969921D01*
X6207936Y-14008017D01*
X6207936Y-14055636D01*
X6198412Y-14093731D01*
X6188888Y-14112778D01*
X6179364Y-14122302D01*
X6160317Y-14131826D01*
X6141269Y-14131826D01*
X6122221Y-14122302D01*
X6112698Y-14112778D01*
X6103174Y-14093731D01*
X6093650Y-14055636D01*
X6093650Y-14008017D01*
X6103174Y-13969921D01*
X6112698Y-13950874D01*
X6122221Y-13941350D01*
X6141269Y-13931826D01*
X6284126Y-13931826D02*
X6284126Y-13969921D01*
X6360317Y-13931826D02*
X6360317Y-13969921D01*
X6655555Y-14208017D02*
X6646031Y-14198493D01*
X6626983Y-14169921D01*
X6617459Y-14150874D01*
X6607936Y-14122302D01*
X6598412Y-14074683D01*
X6598412Y-14036588D01*
X6607936Y-13988969D01*
X6617459Y-13960398D01*
X6626983Y-13941350D01*
X6646031Y-13912778D01*
X6655555Y-13903255D01*
X6712698Y-13931826D02*
X6836507Y-13931826D01*
X6769840Y-14008017D01*
X6798412Y-14008017D01*
X6817459Y-14017540D01*
X6826983Y-14027064D01*
X6836507Y-14046112D01*
X6836507Y-14093731D01*
X6826983Y-14112778D01*
X6817459Y-14122302D01*
X6798412Y-14131826D01*
X6741269Y-14131826D01*
X6722221Y-14122302D01*
X6712698Y-14112778D01*
X7074602Y-14131826D02*
X7074602Y-13931826D01*
X7160317Y-14131826D02*
X7160317Y-14027064D01*
X7150793Y-14008017D01*
X7131745Y-13998493D01*
X7103174Y-13998493D01*
X7084126Y-14008017D01*
X7074602Y-14017540D01*
X7284126Y-14131826D02*
X7265078Y-14122302D01*
X7255555Y-14112778D01*
X7246031Y-14093731D01*
X7246031Y-14036588D01*
X7255555Y-14017540D01*
X7265078Y-14008017D01*
X7284126Y-13998493D01*
X7312698Y-13998493D01*
X7331745Y-14008017D01*
X7341269Y-14017540D01*
X7350793Y-14036588D01*
X7350793Y-14093731D01*
X7341269Y-14112778D01*
X7331745Y-14122302D01*
X7312698Y-14131826D01*
X7284126Y-14131826D01*
X7465078Y-14131826D02*
X7446031Y-14122302D01*
X7436507Y-14103255D01*
X7436507Y-13931826D01*
X7617459Y-14122302D02*
X7598412Y-14131826D01*
X7560317Y-14131826D01*
X7541269Y-14122302D01*
X7531745Y-14103255D01*
X7531745Y-14027064D01*
X7541269Y-14008017D01*
X7560317Y-13998493D01*
X7598412Y-13998493D01*
X7617459Y-14008017D01*
X7626983Y-14027064D01*
X7626983Y-14046112D01*
X7531745Y-14065159D01*
X7703174Y-14122302D02*
X7722221Y-14131826D01*
X7760317Y-14131826D01*
X7779364Y-14122302D01*
X7788888Y-14103255D01*
X7788888Y-14093731D01*
X7779364Y-14074683D01*
X7760317Y-14065159D01*
X7731745Y-14065159D01*
X7712698Y-14055636D01*
X7703174Y-14036588D01*
X7703174Y-14027064D01*
X7712698Y-14008017D01*
X7731745Y-13998493D01*
X7760317Y-13998493D01*
X7779364Y-14008017D01*
X7855555Y-14208017D02*
X7865078Y-14198493D01*
X7884126Y-14169921D01*
X7893650Y-14150874D01*
X7903174Y-14122302D01*
X7912698Y-14074683D01*
X7912698Y-14036588D01*
X7903174Y-13988969D01*
X7893650Y-13960398D01*
X7884126Y-13941350D01*
X7865078Y-13912778D01*
X7855555Y-13903255D01*
M02*
