G04 #@! TF.GenerationSoftware,KiCad,Pcbnew,(6.0.5)*
G04 #@! TF.CreationDate,2022-08-23T18:05:12+02:00*
G04 #@! TF.ProjectId,hamodule,68616d6f-6475-46c6-952e-6b696361645f,rev?*
G04 #@! TF.SameCoordinates,Original*
G04 #@! TF.FileFunction,Soldermask,Top*
G04 #@! TF.FilePolarity,Negative*
%FSLAX46Y46*%
G04 Gerber Fmt 4.6, Leading zero omitted, Abs format (unit mm)*
G04 Created by KiCad (PCBNEW (6.0.5)) date 2022-08-23 18:05:12*
%MOMM*%
%LPD*%
G01*
G04 APERTURE LIST*
G04 Aperture macros list*
%AMRoundRect*
0 Rectangle with rounded corners*
0 $1 Rounding radius*
0 $2 $3 $4 $5 $6 $7 $8 $9 X,Y pos of 4 corners*
0 Add a 4 corners polygon primitive as box body*
4,1,4,$2,$3,$4,$5,$6,$7,$8,$9,$2,$3,0*
0 Add four circle primitives for the rounded corners*
1,1,$1+$1,$2,$3*
1,1,$1+$1,$4,$5*
1,1,$1+$1,$6,$7*
1,1,$1+$1,$8,$9*
0 Add four rect primitives between the rounded corners*
20,1,$1+$1,$2,$3,$4,$5,0*
20,1,$1+$1,$4,$5,$6,$7,0*
20,1,$1+$1,$6,$7,$8,$9,0*
20,1,$1+$1,$8,$9,$2,$3,0*%
G04 Aperture macros list end*
%ADD10RoundRect,0.050000X-0.850000X-0.850000X0.850000X-0.850000X0.850000X0.850000X-0.850000X0.850000X0*%
%ADD11O,1.800000X1.800000*%
%ADD12RoundRect,0.299999X-1.425001X0.450001X-1.425001X-0.450001X1.425001X-0.450001X1.425001X0.450001X0*%
%ADD13C,1.900000*%
%ADD14RoundRect,0.300000X-0.450000X0.325000X-0.450000X-0.325000X0.450000X-0.325000X0.450000X0.325000X0*%
%ADD15RoundRect,0.300000X-0.450000X0.350000X-0.450000X-0.350000X0.450000X-0.350000X0.450000X0.350000X0*%
%ADD16RoundRect,0.300000X-0.600000X-0.750000X0.600000X-0.750000X0.600000X0.750000X-0.600000X0.750000X0*%
%ADD17O,1.800000X2.100000*%
%ADD18RoundRect,0.287500X0.300000X0.237500X-0.300000X0.237500X-0.300000X-0.237500X0.300000X-0.237500X0*%
%ADD19RoundRect,0.287500X-0.300000X-0.237500X0.300000X-0.237500X0.300000X0.237500X-0.300000X0.237500X0*%
%ADD20RoundRect,0.050000X-0.825000X-0.825000X0.825000X-0.825000X0.825000X0.825000X-0.825000X0.825000X0*%
%ADD21C,1.750000*%
%ADD22RoundRect,0.050000X-0.952500X-1.000000X0.952500X-1.000000X0.952500X1.000000X-0.952500X1.000000X0*%
%ADD23O,2.005000X2.100000*%
%ADD24RoundRect,0.675000X0.625000X0.625000X-0.625000X0.625000X-0.625000X-0.625000X0.625000X-0.625000X0*%
%ADD25C,2.100000*%
%ADD26C,5.600000*%
%ADD27RoundRect,0.200000X0.150000X-0.825000X0.150000X0.825000X-0.150000X0.825000X-0.150000X-0.825000X0*%
%ADD28RoundRect,0.050000X-0.800000X1.200000X-0.800000X-1.200000X0.800000X-1.200000X0.800000X1.200000X0*%
%ADD29O,1.700000X2.500000*%
%ADD30RoundRect,0.287500X-0.250000X-0.237500X0.250000X-0.237500X0.250000X0.237500X-0.250000X0.237500X0*%
%ADD31RoundRect,0.200000X-0.150000X0.587500X-0.150000X-0.587500X0.150000X-0.587500X0.150000X0.587500X0*%
%ADD32RoundRect,0.287500X0.250000X0.237500X-0.250000X0.237500X-0.250000X-0.237500X0.250000X-0.237500X0*%
%ADD33RoundRect,0.050000X-0.300000X-0.350000X0.300000X-0.350000X0.300000X0.350000X-0.300000X0.350000X0*%
%ADD34RoundRect,0.050000X0.550000X-0.900000X0.550000X0.900000X-0.550000X0.900000X-0.550000X-0.900000X0*%
%ADD35RoundRect,0.050000X-0.550000X0.900000X-0.550000X-0.900000X0.550000X-0.900000X0.550000X0.900000X0*%
%ADD36RoundRect,0.287500X-0.237500X0.300000X-0.237500X-0.300000X0.237500X-0.300000X0.237500X0.300000X0*%
%ADD37RoundRect,0.287500X-0.237500X0.250000X-0.237500X-0.250000X0.237500X-0.250000X0.237500X0.250000X0*%
%ADD38RoundRect,0.050000X-0.225000X0.300000X-0.225000X-0.300000X0.225000X-0.300000X0.225000X0.300000X0*%
%ADD39RoundRect,0.050000X0.300000X0.350000X-0.300000X0.350000X-0.300000X-0.350000X0.300000X-0.350000X0*%
%ADD40RoundRect,0.050000X-0.450000X1.000000X-0.450000X-1.000000X0.450000X-1.000000X0.450000X1.000000X0*%
%ADD41RoundRect,0.050000X-1.000000X-0.450000X1.000000X-0.450000X1.000000X0.450000X-1.000000X0.450000X0*%
%ADD42RoundRect,0.050000X-2.500000X2.500000X-2.500000X-2.500000X2.500000X-2.500000X2.500000X2.500000X0*%
%ADD43RoundRect,0.050000X0.850000X-0.850000X0.850000X0.850000X-0.850000X0.850000X-0.850000X-0.850000X0*%
%ADD44RoundRect,0.300000X0.400000X0.625000X-0.400000X0.625000X-0.400000X-0.625000X0.400000X-0.625000X0*%
%ADD45RoundRect,0.300000X0.350000X0.450000X-0.350000X0.450000X-0.350000X-0.450000X0.350000X-0.450000X0*%
%ADD46RoundRect,0.112500X0.062500X-0.337500X0.062500X0.337500X-0.062500X0.337500X-0.062500X-0.337500X0*%
%ADD47RoundRect,0.112500X0.337500X-0.062500X0.337500X0.062500X-0.337500X0.062500X-0.337500X-0.062500X0*%
%ADD48RoundRect,0.050000X1.675000X-1.675000X1.675000X1.675000X-1.675000X1.675000X-1.675000X-1.675000X0*%
%ADD49RoundRect,0.050000X0.850000X0.850000X-0.850000X0.850000X-0.850000X-0.850000X0.850000X-0.850000X0*%
%ADD50C,0.750000*%
%ADD51RoundRect,0.050000X-0.300000X-0.725000X0.300000X-0.725000X0.300000X0.725000X-0.300000X0.725000X0*%
%ADD52RoundRect,0.050000X-0.150000X-0.725000X0.150000X-0.725000X0.150000X0.725000X-0.150000X0.725000X0*%
%ADD53O,1.100000X2.200000*%
%ADD54O,1.100000X1.700000*%
%ADD55RoundRect,0.050000X1.000000X-1.000000X1.000000X1.000000X-1.000000X1.000000X-1.000000X-1.000000X0*%
%ADD56RoundRect,0.299999X-0.450001X-1.425001X0.450001X-1.425001X0.450001X1.425001X-0.450001X1.425001X0*%
%ADD57RoundRect,0.050000X0.410000X0.152400X-0.410000X0.152400X-0.410000X-0.152400X0.410000X-0.152400X0*%
%ADD58RoundRect,0.050000X0.410000X0.154400X-0.410000X0.154400X-0.410000X-0.154400X0.410000X-0.154400X0*%
%ADD59RoundRect,0.050000X-0.800000X-0.800000X0.800000X-0.800000X0.800000X0.800000X-0.800000X0.800000X0*%
%ADD60C,1.700000*%
%ADD61RoundRect,0.300000X0.450000X-0.350000X0.450000X0.350000X-0.450000X0.350000X-0.450000X-0.350000X0*%
%ADD62RoundRect,0.050000X-0.850000X0.850000X-0.850000X-0.850000X0.850000X-0.850000X0.850000X0.850000X0*%
G04 APERTURE END LIST*
D10*
X150558500Y-144538700D03*
D11*
X150558500Y-147078700D03*
D12*
X178117500Y-91986100D03*
X178117500Y-98086100D03*
X183070500Y-91986100D03*
X183070500Y-98086100D03*
D13*
X136000800Y-95206450D03*
X143500800Y-96839780D03*
D12*
X183070500Y-100037900D03*
X183070500Y-106137900D03*
X178117500Y-100037900D03*
X178117500Y-106137900D03*
D14*
X155956000Y-117203000D03*
X155956000Y-119253000D03*
D15*
X153873200Y-117221000D03*
X153873200Y-119221000D03*
D16*
X143129000Y-146414000D03*
D17*
X145629000Y-146414000D03*
D18*
X136371500Y-139700000D03*
X134646500Y-139700000D03*
D19*
X145060500Y-142748000D03*
X146785500Y-142748000D03*
D18*
X175641000Y-115189000D03*
X173916000Y-115189000D03*
D20*
X129136100Y-105000000D03*
D21*
X129136100Y-125000000D03*
X149136100Y-120000000D03*
X149136100Y-110000000D03*
D22*
X139954000Y-134874000D03*
D23*
X142494000Y-134874000D03*
X145034000Y-134874000D03*
D24*
X169146500Y-78953500D03*
X169146500Y-70753501D03*
X164146500Y-78953500D03*
X164146500Y-70753501D03*
X159146500Y-78953500D03*
X159146500Y-70753501D03*
X154146500Y-78953500D03*
X154146500Y-70753501D03*
X145500100Y-78977099D03*
X145500100Y-70777100D03*
X140500100Y-78977099D03*
X140500100Y-70777100D03*
X193106500Y-78913499D03*
X193106500Y-70713500D03*
X188106500Y-78913499D03*
X188106500Y-70713500D03*
X183106500Y-78913499D03*
X183106500Y-70713500D03*
X178106500Y-78913499D03*
X178106500Y-70713500D03*
D25*
X143546500Y-85283500D03*
X143536500Y-90363500D03*
D26*
X198564500Y-85407500D03*
X132270500Y-85407500D03*
D27*
X166751000Y-122679000D03*
X168021000Y-122679000D03*
X169291000Y-122679000D03*
X170561000Y-122679000D03*
X171831000Y-122679000D03*
X173101000Y-122679000D03*
X174371000Y-122679000D03*
X175641000Y-122679000D03*
X175641000Y-117729000D03*
X174371000Y-117729000D03*
X173101000Y-117729000D03*
X171831000Y-117729000D03*
X170561000Y-117729000D03*
X169291000Y-117729000D03*
X168021000Y-117729000D03*
X166751000Y-117729000D03*
D12*
X193128900Y-100037900D03*
X193128900Y-106137900D03*
X188099700Y-91986100D03*
X188099700Y-98086100D03*
X193128900Y-91986100D03*
X193128900Y-98086100D03*
D28*
X185751274Y-110118320D03*
D29*
X183211274Y-110118320D03*
X180671274Y-110118320D03*
X178131274Y-110118320D03*
X178131274Y-117738320D03*
X180671274Y-117738320D03*
X183211274Y-117738320D03*
X185751274Y-117738320D03*
D28*
X196927274Y-110118320D03*
D29*
X194387274Y-110118320D03*
X191847274Y-110118320D03*
X189307274Y-110118320D03*
X189307274Y-117738320D03*
X191847274Y-117738320D03*
X194387274Y-117738320D03*
X196927274Y-117738320D03*
D12*
X188099700Y-100037900D03*
X188099700Y-106137900D03*
D30*
X189256000Y-125412500D03*
X191081000Y-125412500D03*
D19*
X192659000Y-123872000D03*
X194384000Y-123872000D03*
D18*
X191018500Y-126936500D03*
X189293500Y-126936500D03*
D31*
X164746500Y-129298500D03*
X162846500Y-129298500D03*
X163796500Y-131173500D03*
D30*
X161071500Y-127513500D03*
X162896500Y-127513500D03*
D32*
X162896500Y-125983500D03*
X161071500Y-125983500D03*
D33*
X157983000Y-141900900D03*
X156583000Y-141900900D03*
D16*
X134132000Y-146414000D03*
D17*
X136632000Y-146414000D03*
D34*
X166552000Y-131497000D03*
X166552000Y-125297000D03*
X170252000Y-125297000D03*
X170252000Y-131497000D03*
D35*
X157550000Y-131497000D03*
X157550000Y-125297000D03*
X153850000Y-125297000D03*
X153850000Y-131497000D03*
D36*
X164974900Y-140078300D03*
X164974900Y-141803300D03*
D30*
X165065500Y-135410900D03*
X166890500Y-135410900D03*
D32*
X166890500Y-138458900D03*
X165065500Y-138458900D03*
D30*
X165065500Y-136934900D03*
X166890500Y-136934900D03*
D36*
X166574900Y-140084800D03*
X166574900Y-141809800D03*
D37*
X156406500Y-138553000D03*
X156406500Y-140378000D03*
D38*
X154876500Y-143514100D03*
X154876500Y-145614100D03*
D33*
X160583000Y-141900900D03*
X159183000Y-141900900D03*
D39*
X161893000Y-141900900D03*
X163293000Y-141900900D03*
D40*
X193865500Y-128986500D03*
X192595500Y-128986500D03*
X191325500Y-128986500D03*
X190055500Y-128986500D03*
X188785500Y-128986500D03*
X187515500Y-128986500D03*
X186245500Y-128986500D03*
X184975500Y-128986500D03*
X183705500Y-128986500D03*
X182435500Y-128986500D03*
X181165500Y-128986500D03*
X179895500Y-128986500D03*
X178625500Y-128986500D03*
X177355500Y-128986500D03*
D41*
X176355500Y-131771500D03*
X176355500Y-133041500D03*
X176355500Y-134311500D03*
X176355500Y-135581500D03*
X176355500Y-136851500D03*
X176355500Y-138121500D03*
X176355500Y-139391500D03*
X176355500Y-140661500D03*
X176355500Y-141931500D03*
X176355500Y-143201500D03*
D40*
X177355500Y-145986500D03*
X178625500Y-145986500D03*
X179895500Y-145986500D03*
X181165500Y-145986500D03*
X182435500Y-145986500D03*
X183705500Y-145986500D03*
X184975500Y-145986500D03*
X186245500Y-145986500D03*
X187515500Y-145986500D03*
X188785500Y-145986500D03*
X190055500Y-145986500D03*
X191325500Y-145986500D03*
X192595500Y-145986500D03*
X193865500Y-145986500D03*
D42*
X186365500Y-136486500D03*
D31*
X161286500Y-129308500D03*
X159386500Y-129308500D03*
X160336500Y-131183500D03*
D43*
X179080000Y-124536600D03*
D11*
X181620000Y-124536600D03*
X184160000Y-124536600D03*
X186700000Y-124536600D03*
D43*
X184442100Y-149161500D03*
D11*
X186982100Y-149161500D03*
D44*
X162779000Y-133575500D03*
X159679000Y-133575500D03*
D45*
X181578000Y-150304500D03*
X179578000Y-150304500D03*
X181578000Y-148272500D03*
X179578000Y-148272500D03*
D46*
X159483000Y-140390900D03*
X159983000Y-140390900D03*
X160483000Y-140390900D03*
X160983000Y-140390900D03*
X161483000Y-140390900D03*
X161983000Y-140390900D03*
X162483000Y-140390900D03*
D47*
X163433000Y-139440900D03*
X163433000Y-138940900D03*
X163433000Y-138440900D03*
X163433000Y-137940900D03*
X163433000Y-137440900D03*
X163433000Y-136940900D03*
X163433000Y-136440900D03*
D46*
X162483000Y-135490900D03*
X161983000Y-135490900D03*
X161483000Y-135490900D03*
X160983000Y-135490900D03*
X160483000Y-135490900D03*
X159983000Y-135490900D03*
X159483000Y-135490900D03*
D47*
X158533000Y-136440900D03*
X158533000Y-136940900D03*
X158533000Y-137440900D03*
X158533000Y-137940900D03*
X158533000Y-138440900D03*
X158533000Y-138940900D03*
X158533000Y-139440900D03*
D48*
X160983000Y-137940900D03*
D19*
X192648500Y-126936500D03*
X194373500Y-126936500D03*
D49*
X150558500Y-140665200D03*
D11*
X150558500Y-138125200D03*
X150558500Y-135585200D03*
D36*
X170296500Y-134186100D03*
X170296500Y-135911100D03*
D30*
X168096500Y-146513500D03*
X169921500Y-146513500D03*
X189284600Y-120091200D03*
X191109600Y-120091200D03*
D49*
X173177200Y-130657600D03*
D11*
X173177200Y-128117600D03*
D13*
X183070500Y-89090500D03*
X183070500Y-84010500D03*
D30*
X178157500Y-120091200D03*
X179982500Y-120091200D03*
D13*
X193128900Y-89090500D03*
X193128900Y-84010500D03*
D43*
X170700700Y-141719300D03*
D11*
X173240700Y-141719300D03*
D14*
X193484500Y-148217500D03*
X193484500Y-150267500D03*
D13*
X154100000Y-89180000D03*
X154100000Y-84100000D03*
D18*
X136371500Y-141224000D03*
X134646500Y-141224000D03*
D50*
X164163000Y-145400900D03*
X158383000Y-145400900D03*
D51*
X158023000Y-143955900D03*
X158823000Y-143955900D03*
D52*
X160023000Y-143955900D03*
X161023000Y-143955900D03*
X161523000Y-143955900D03*
X162523000Y-143955900D03*
D51*
X163723000Y-143955900D03*
X164523000Y-143955900D03*
X164523000Y-143955900D03*
X163723000Y-143955900D03*
D52*
X163023000Y-143955900D03*
X162023000Y-143955900D03*
X160523000Y-143955900D03*
X159523000Y-143955900D03*
D51*
X158823000Y-143955900D03*
X158023000Y-143955900D03*
D53*
X165593000Y-144870900D03*
D54*
X156953000Y-149050900D03*
D53*
X156953000Y-144870900D03*
D54*
X165593000Y-149050900D03*
D30*
X195075800Y-120091200D03*
X196900800Y-120091200D03*
D19*
X189331600Y-121615200D03*
X191056600Y-121615200D03*
X183949000Y-121716800D03*
X185674000Y-121716800D03*
X145060500Y-139700000D03*
X146785500Y-139700000D03*
D13*
X188099700Y-89090500D03*
X188099700Y-84010500D03*
D18*
X196847800Y-121615200D03*
X195122800Y-121615200D03*
D55*
X156273000Y-113665000D03*
D25*
X156273000Y-111125000D03*
X156273000Y-100965000D03*
X156273000Y-93345000D03*
D55*
X161099000Y-113665000D03*
D25*
X161099000Y-111125000D03*
X161099000Y-100965000D03*
X161099000Y-93345000D03*
D13*
X164100000Y-89140000D03*
X164100000Y-84060000D03*
D55*
X170878000Y-113665000D03*
D25*
X170878000Y-111125000D03*
X170878000Y-100965000D03*
X170878000Y-93345000D03*
D56*
X168326500Y-149243500D03*
X174426500Y-149243500D03*
D57*
X173760000Y-135261900D03*
D58*
X173760000Y-134451100D03*
X172040000Y-134451100D03*
D57*
X172040000Y-135261900D03*
D55*
X165925000Y-113665000D03*
D25*
X165925000Y-111125000D03*
X165925000Y-100965000D03*
X165925000Y-93345000D03*
D30*
X171869100Y-137604500D03*
X173694100Y-137604500D03*
D18*
X136371500Y-142748000D03*
X134646500Y-142748000D03*
D59*
X139446000Y-139954000D03*
D60*
X141946000Y-139954000D03*
D13*
X178092100Y-89090500D03*
X178092100Y-84010500D03*
D19*
X192659000Y-125412500D03*
X194384000Y-125412500D03*
X145060500Y-141224000D03*
X146785500Y-141224000D03*
D30*
X183897900Y-120142000D03*
X185722900Y-120142000D03*
X171869100Y-139128500D03*
X173694100Y-139128500D03*
D13*
X169200000Y-89140000D03*
X169200000Y-84060000D03*
D61*
X191407500Y-150242500D03*
X191407500Y-148242500D03*
D37*
X155086500Y-147013500D03*
X155086500Y-148838500D03*
D62*
X164084000Y-122174000D03*
D11*
X161544000Y-122174000D03*
X159004000Y-122174000D03*
X156464000Y-122174000D03*
D26*
X132270500Y-135407500D03*
D19*
X178206400Y-121615200D03*
X179931400Y-121615200D03*
D13*
X159000000Y-89140000D03*
X159000000Y-84060000D03*
M02*
