G04 #@! TF.GenerationSoftware,KiCad,Pcbnew,(6.0.5)*
G04 #@! TF.CreationDate,2022-09-18T19:29:40+02:00*
G04 #@! TF.ProjectId,hamodule,68616d6f-6475-46c6-952e-6b696361645f,rev?*
G04 #@! TF.SameCoordinates,Original*
G04 #@! TF.FileFunction,AssemblyDrawing,Bot*
%FSLAX46Y46*%
G04 Gerber Fmt 4.6, Leading zero omitted, Abs format (unit mm)*
G04 Created by KiCad (PCBNEW (6.0.5)) date 2022-09-18 19:29:40*
%MOMM*%
%LPD*%
G01*
G04 APERTURE LIST*
%ADD10C,0.150000*%
G04 APERTURE END LIST*
D10*
X180823880Y-97298238D02*
X179823880Y-97298238D01*
X180823880Y-97869666D01*
X179823880Y-97869666D01*
X180776261Y-98726809D02*
X180823880Y-98631571D01*
X180823880Y-98441095D01*
X180776261Y-98345857D01*
X180681023Y-98298238D01*
X180300071Y-98298238D01*
X180204833Y-98345857D01*
X180157214Y-98441095D01*
X180157214Y-98631571D01*
X180204833Y-98726809D01*
X180300071Y-98774428D01*
X180395309Y-98774428D01*
X180490547Y-98298238D01*
X180157214Y-99060142D02*
X180157214Y-99441095D01*
X179823880Y-99203000D02*
X180681023Y-99203000D01*
X180776261Y-99250619D01*
X180823880Y-99345857D01*
X180823880Y-99441095D01*
X179823880Y-99631571D02*
X179823880Y-100203000D01*
X180823880Y-99917285D02*
X179823880Y-99917285D01*
X180823880Y-100536333D02*
X180157214Y-100536333D01*
X179823880Y-100536333D02*
X179871500Y-100488714D01*
X179919119Y-100536333D01*
X179871500Y-100583952D01*
X179823880Y-100536333D01*
X179919119Y-100536333D01*
X180776261Y-101393476D02*
X180823880Y-101298238D01*
X180823880Y-101107761D01*
X180776261Y-101012523D01*
X180681023Y-100964904D01*
X180300071Y-100964904D01*
X180204833Y-101012523D01*
X180157214Y-101107761D01*
X180157214Y-101298238D01*
X180204833Y-101393476D01*
X180300071Y-101441095D01*
X180395309Y-101441095D01*
X180490547Y-100964904D01*
X180919119Y-101631571D02*
X180919119Y-102393476D01*
X179919119Y-102583952D02*
X179871500Y-102631571D01*
X179823880Y-102726809D01*
X179823880Y-102964904D01*
X179871500Y-103060142D01*
X179919119Y-103107761D01*
X180014357Y-103155380D01*
X180109595Y-103155380D01*
X180252452Y-103107761D01*
X180823880Y-102536333D01*
X180823880Y-103155380D01*
M02*
