G04 #@! TF.GenerationSoftware,KiCad,Pcbnew,(6.0.5)*
G04 #@! TF.CreationDate,2022-09-18T19:28:19+02:00*
G04 #@! TF.ProjectId,hamodule,68616d6f-6475-46c6-952e-6b696361645f,rev?*
G04 #@! TF.SameCoordinates,Original*
G04 #@! TF.FileFunction,Copper,L1,Top*
G04 #@! TF.FilePolarity,Positive*
%FSLAX46Y46*%
G04 Gerber Fmt 4.6, Leading zero omitted, Abs format (unit mm)*
G04 Created by KiCad (PCBNEW (6.0.5)) date 2022-09-18 19:28:19*
%MOMM*%
%LPD*%
G01*
G04 APERTURE LIST*
G04 Aperture macros list*
%AMRoundRect*
0 Rectangle with rounded corners*
0 $1 Rounding radius*
0 $2 $3 $4 $5 $6 $7 $8 $9 X,Y pos of 4 corners*
0 Add a 4 corners polygon primitive as box body*
4,1,4,$2,$3,$4,$5,$6,$7,$8,$9,$2,$3,0*
0 Add four circle primitives for the rounded corners*
1,1,$1+$1,$2,$3*
1,1,$1+$1,$4,$5*
1,1,$1+$1,$6,$7*
1,1,$1+$1,$8,$9*
0 Add four rect primitives between the rounded corners*
20,1,$1+$1,$2,$3,$4,$5,0*
20,1,$1+$1,$4,$5,$6,$7,0*
20,1,$1+$1,$6,$7,$8,$9,0*
20,1,$1+$1,$8,$9,$2,$3,0*%
G04 Aperture macros list end*
G04 #@! TA.AperFunction,ComponentPad*
%ADD10R,1.700000X1.700000*%
G04 #@! TD*
G04 #@! TA.AperFunction,ComponentPad*
%ADD11O,1.700000X1.700000*%
G04 #@! TD*
G04 #@! TA.AperFunction,SMDPad,CuDef*
%ADD12RoundRect,0.249999X-1.425001X0.450001X-1.425001X-0.450001X1.425001X-0.450001X1.425001X0.450001X0*%
G04 #@! TD*
G04 #@! TA.AperFunction,ComponentPad*
%ADD13C,1.800000*%
G04 #@! TD*
G04 #@! TA.AperFunction,SMDPad,CuDef*
%ADD14RoundRect,0.250000X-0.450000X0.325000X-0.450000X-0.325000X0.450000X-0.325000X0.450000X0.325000X0*%
G04 #@! TD*
G04 #@! TA.AperFunction,SMDPad,CuDef*
%ADD15RoundRect,0.250000X-0.450000X0.350000X-0.450000X-0.350000X0.450000X-0.350000X0.450000X0.350000X0*%
G04 #@! TD*
G04 #@! TA.AperFunction,ComponentPad*
%ADD16RoundRect,0.250000X-0.600000X-0.750000X0.600000X-0.750000X0.600000X0.750000X-0.600000X0.750000X0*%
G04 #@! TD*
G04 #@! TA.AperFunction,ComponentPad*
%ADD17O,1.700000X2.000000*%
G04 #@! TD*
G04 #@! TA.AperFunction,SMDPad,CuDef*
%ADD18RoundRect,0.237500X0.300000X0.237500X-0.300000X0.237500X-0.300000X-0.237500X0.300000X-0.237500X0*%
G04 #@! TD*
G04 #@! TA.AperFunction,SMDPad,CuDef*
%ADD19RoundRect,0.237500X-0.300000X-0.237500X0.300000X-0.237500X0.300000X0.237500X-0.300000X0.237500X0*%
G04 #@! TD*
G04 #@! TA.AperFunction,ComponentPad*
%ADD20R,1.650000X1.650000*%
G04 #@! TD*
G04 #@! TA.AperFunction,ComponentPad*
%ADD21C,1.650000*%
G04 #@! TD*
G04 #@! TA.AperFunction,ComponentPad*
%ADD22R,1.905000X2.000000*%
G04 #@! TD*
G04 #@! TA.AperFunction,ComponentPad*
%ADD23O,1.905000X2.000000*%
G04 #@! TD*
G04 #@! TA.AperFunction,ComponentPad*
%ADD24RoundRect,0.625000X0.625000X0.625000X-0.625000X0.625000X-0.625000X-0.625000X0.625000X-0.625000X0*%
G04 #@! TD*
G04 #@! TA.AperFunction,ComponentPad*
%ADD25C,2.000000*%
G04 #@! TD*
G04 #@! TA.AperFunction,ComponentPad*
%ADD26C,5.500000*%
G04 #@! TD*
G04 #@! TA.AperFunction,SMDPad,CuDef*
%ADD27RoundRect,0.150000X0.150000X-0.825000X0.150000X0.825000X-0.150000X0.825000X-0.150000X-0.825000X0*%
G04 #@! TD*
G04 #@! TA.AperFunction,ComponentPad*
%ADD28R,1.600000X2.400000*%
G04 #@! TD*
G04 #@! TA.AperFunction,ComponentPad*
%ADD29O,1.600000X2.400000*%
G04 #@! TD*
G04 #@! TA.AperFunction,SMDPad,CuDef*
%ADD30RoundRect,0.237500X-0.250000X-0.237500X0.250000X-0.237500X0.250000X0.237500X-0.250000X0.237500X0*%
G04 #@! TD*
G04 #@! TA.AperFunction,SMDPad,CuDef*
%ADD31RoundRect,0.150000X-0.150000X0.587500X-0.150000X-0.587500X0.150000X-0.587500X0.150000X0.587500X0*%
G04 #@! TD*
G04 #@! TA.AperFunction,SMDPad,CuDef*
%ADD32RoundRect,0.237500X0.250000X0.237500X-0.250000X0.237500X-0.250000X-0.237500X0.250000X-0.237500X0*%
G04 #@! TD*
G04 #@! TA.AperFunction,SMDPad,CuDef*
%ADD33R,0.600000X0.700000*%
G04 #@! TD*
G04 #@! TA.AperFunction,SMDPad,CuDef*
%ADD34R,1.100000X1.800000*%
G04 #@! TD*
G04 #@! TA.AperFunction,SMDPad,CuDef*
%ADD35RoundRect,0.237500X-0.237500X0.300000X-0.237500X-0.300000X0.237500X-0.300000X0.237500X0.300000X0*%
G04 #@! TD*
G04 #@! TA.AperFunction,SMDPad,CuDef*
%ADD36RoundRect,0.237500X-0.237500X0.250000X-0.237500X-0.250000X0.237500X-0.250000X0.237500X0.250000X0*%
G04 #@! TD*
G04 #@! TA.AperFunction,SMDPad,CuDef*
%ADD37R,0.450000X0.600000*%
G04 #@! TD*
G04 #@! TA.AperFunction,SMDPad,CuDef*
%ADD38R,0.900000X2.000000*%
G04 #@! TD*
G04 #@! TA.AperFunction,SMDPad,CuDef*
%ADD39R,2.000000X0.900000*%
G04 #@! TD*
G04 #@! TA.AperFunction,SMDPad,CuDef*
%ADD40R,5.000000X5.000000*%
G04 #@! TD*
G04 #@! TA.AperFunction,SMDPad,CuDef*
%ADD41RoundRect,0.250000X0.400000X0.625000X-0.400000X0.625000X-0.400000X-0.625000X0.400000X-0.625000X0*%
G04 #@! TD*
G04 #@! TA.AperFunction,SMDPad,CuDef*
%ADD42RoundRect,0.250000X0.350000X0.450000X-0.350000X0.450000X-0.350000X-0.450000X0.350000X-0.450000X0*%
G04 #@! TD*
G04 #@! TA.AperFunction,SMDPad,CuDef*
%ADD43RoundRect,0.062500X0.062500X-0.337500X0.062500X0.337500X-0.062500X0.337500X-0.062500X-0.337500X0*%
G04 #@! TD*
G04 #@! TA.AperFunction,SMDPad,CuDef*
%ADD44RoundRect,0.062500X0.337500X-0.062500X0.337500X0.062500X-0.337500X0.062500X-0.337500X-0.062500X0*%
G04 #@! TD*
G04 #@! TA.AperFunction,SMDPad,CuDef*
%ADD45R,3.350000X3.350000*%
G04 #@! TD*
G04 #@! TA.AperFunction,SMDPad,CuDef*
%ADD46R,0.600000X1.450000*%
G04 #@! TD*
G04 #@! TA.AperFunction,SMDPad,CuDef*
%ADD47R,0.300000X1.450000*%
G04 #@! TD*
G04 #@! TA.AperFunction,ComponentPad*
%ADD48O,1.000000X2.100000*%
G04 #@! TD*
G04 #@! TA.AperFunction,ComponentPad*
%ADD49O,1.000000X1.600000*%
G04 #@! TD*
G04 #@! TA.AperFunction,ComponentPad*
%ADD50R,2.000000X2.000000*%
G04 #@! TD*
G04 #@! TA.AperFunction,SMDPad,CuDef*
%ADD51RoundRect,0.249999X-0.450001X-1.425001X0.450001X-1.425001X0.450001X1.425001X-0.450001X1.425001X0*%
G04 #@! TD*
G04 #@! TA.AperFunction,SMDPad,CuDef*
%ADD52R,0.820000X0.304800*%
G04 #@! TD*
G04 #@! TA.AperFunction,SMDPad,CuDef*
%ADD53R,0.820000X0.308800*%
G04 #@! TD*
G04 #@! TA.AperFunction,ComponentPad*
%ADD54R,1.600000X1.600000*%
G04 #@! TD*
G04 #@! TA.AperFunction,ComponentPad*
%ADD55C,1.600000*%
G04 #@! TD*
G04 #@! TA.AperFunction,SMDPad,CuDef*
%ADD56RoundRect,0.250000X0.450000X-0.350000X0.450000X0.350000X-0.450000X0.350000X-0.450000X-0.350000X0*%
G04 #@! TD*
G04 #@! TA.AperFunction,ViaPad*
%ADD57C,0.800000*%
G04 #@! TD*
G04 #@! TA.AperFunction,ViaPad*
%ADD58C,0.500000*%
G04 #@! TD*
G04 #@! TA.AperFunction,Conductor*
%ADD59C,1.000000*%
G04 #@! TD*
G04 #@! TA.AperFunction,Conductor*
%ADD60C,0.400000*%
G04 #@! TD*
G04 #@! TA.AperFunction,Conductor*
%ADD61C,3.000000*%
G04 #@! TD*
G04 #@! TA.AperFunction,Conductor*
%ADD62C,2.000000*%
G04 #@! TD*
G04 #@! TA.AperFunction,Conductor*
%ADD63C,1.500000*%
G04 #@! TD*
G04 #@! TA.AperFunction,Conductor*
%ADD64C,0.600000*%
G04 #@! TD*
G04 #@! TA.AperFunction,Conductor*
%ADD65C,0.250000*%
G04 #@! TD*
G04 #@! TA.AperFunction,Conductor*
%ADD66C,0.350000*%
G04 #@! TD*
G04 #@! TA.AperFunction,Conductor*
%ADD67C,0.200000*%
G04 #@! TD*
G04 APERTURE END LIST*
D10*
X150558500Y-144538700D03*
D11*
X150558500Y-147078700D03*
D12*
X178117500Y-91986100D03*
X178117500Y-98086100D03*
X183070500Y-91986100D03*
X183070500Y-98086100D03*
D13*
X136000800Y-95206450D03*
X143500800Y-96839780D03*
D12*
X183070500Y-100037900D03*
X183070500Y-106137900D03*
X178117500Y-100037900D03*
X178117500Y-106137900D03*
D14*
X155956000Y-117203000D03*
X155956000Y-119253000D03*
D15*
X153873200Y-117221000D03*
X153873200Y-119221000D03*
D16*
X143129000Y-146414000D03*
D17*
X145629000Y-146414000D03*
D18*
X136371500Y-139700000D03*
X134646500Y-139700000D03*
D19*
X145060500Y-142748000D03*
X146785500Y-142748000D03*
D18*
X175641000Y-115189000D03*
X173916000Y-115189000D03*
D20*
X129136100Y-105000000D03*
D21*
X129136100Y-125000000D03*
X149136100Y-120000000D03*
X149136100Y-110000000D03*
D22*
X139954000Y-134874000D03*
D23*
X142494000Y-134874000D03*
X145034000Y-134874000D03*
D24*
X169146500Y-78953500D03*
X169146500Y-70753501D03*
X164146500Y-78953500D03*
X164146500Y-70753501D03*
X159146500Y-78953500D03*
X159146500Y-70753501D03*
X154146500Y-78953500D03*
X154146500Y-70753501D03*
X145500100Y-78977099D03*
X145500100Y-70777100D03*
X140500100Y-78977099D03*
X140500100Y-70777100D03*
X193106500Y-78913499D03*
X193106500Y-70713500D03*
X188106500Y-78913499D03*
X188106500Y-70713500D03*
X183106500Y-78913499D03*
X183106500Y-70713500D03*
X178106500Y-78913499D03*
X178106500Y-70713500D03*
D25*
X143546500Y-85283500D03*
X143536500Y-90363500D03*
D26*
X198564500Y-85407500D03*
X132270500Y-85407500D03*
D27*
X166751000Y-122679000D03*
X168021000Y-122679000D03*
X169291000Y-122679000D03*
X170561000Y-122679000D03*
X171831000Y-122679000D03*
X173101000Y-122679000D03*
X174371000Y-122679000D03*
X175641000Y-122679000D03*
X175641000Y-117729000D03*
X174371000Y-117729000D03*
X173101000Y-117729000D03*
X171831000Y-117729000D03*
X170561000Y-117729000D03*
X169291000Y-117729000D03*
X168021000Y-117729000D03*
X166751000Y-117729000D03*
D12*
X193128900Y-100037900D03*
X193128900Y-106137900D03*
X188099700Y-91986100D03*
X188099700Y-98086100D03*
X193128900Y-91986100D03*
X193128900Y-98086100D03*
D28*
X185751274Y-110118320D03*
D29*
X183211274Y-110118320D03*
X180671274Y-110118320D03*
X178131274Y-110118320D03*
X178131274Y-117738320D03*
X180671274Y-117738320D03*
X183211274Y-117738320D03*
X185751274Y-117738320D03*
D28*
X196927274Y-110118320D03*
D29*
X194387274Y-110118320D03*
X191847274Y-110118320D03*
X189307274Y-110118320D03*
X189307274Y-117738320D03*
X191847274Y-117738320D03*
X194387274Y-117738320D03*
X196927274Y-117738320D03*
D12*
X188099700Y-100037900D03*
X188099700Y-106137900D03*
D30*
X189256000Y-125412500D03*
X191081000Y-125412500D03*
D19*
X192659000Y-123872000D03*
X194384000Y-123872000D03*
D18*
X191018500Y-126936500D03*
X189293500Y-126936500D03*
D31*
X164746500Y-129298500D03*
X162846500Y-129298500D03*
X163796500Y-131173500D03*
D30*
X161071500Y-127513500D03*
X162896500Y-127513500D03*
D32*
X162896500Y-125983500D03*
X161071500Y-125983500D03*
D33*
X157983000Y-141900900D03*
X156583000Y-141900900D03*
D16*
X134132000Y-146414000D03*
D17*
X136632000Y-146414000D03*
D34*
X166552000Y-131497000D03*
X166552000Y-125297000D03*
X170252000Y-125297000D03*
X170252000Y-131497000D03*
X157550000Y-131497000D03*
X157550000Y-125297000D03*
X153850000Y-125297000D03*
X153850000Y-131497000D03*
D35*
X164974900Y-140078300D03*
X164974900Y-141803300D03*
D30*
X165065500Y-135410900D03*
X166890500Y-135410900D03*
D32*
X166890500Y-138458900D03*
X165065500Y-138458900D03*
D30*
X165065500Y-136934900D03*
X166890500Y-136934900D03*
D35*
X166574900Y-140084800D03*
X166574900Y-141809800D03*
D36*
X156406500Y-138553000D03*
X156406500Y-140378000D03*
D37*
X154876500Y-143514100D03*
X154876500Y-145614100D03*
D33*
X160583000Y-141900900D03*
X159183000Y-141900900D03*
X161893000Y-141900900D03*
X163293000Y-141900900D03*
D38*
X193865500Y-128986500D03*
X192595500Y-128986500D03*
X191325500Y-128986500D03*
X190055500Y-128986500D03*
X188785500Y-128986500D03*
X187515500Y-128986500D03*
X186245500Y-128986500D03*
X184975500Y-128986500D03*
X183705500Y-128986500D03*
X182435500Y-128986500D03*
X181165500Y-128986500D03*
X179895500Y-128986500D03*
X178625500Y-128986500D03*
X177355500Y-128986500D03*
D39*
X176355500Y-131771500D03*
X176355500Y-133041500D03*
X176355500Y-134311500D03*
X176355500Y-135581500D03*
X176355500Y-136851500D03*
X176355500Y-138121500D03*
X176355500Y-139391500D03*
X176355500Y-140661500D03*
X176355500Y-141931500D03*
X176355500Y-143201500D03*
D38*
X177355500Y-145986500D03*
X178625500Y-145986500D03*
X179895500Y-145986500D03*
X181165500Y-145986500D03*
X182435500Y-145986500D03*
X183705500Y-145986500D03*
X184975500Y-145986500D03*
X186245500Y-145986500D03*
X187515500Y-145986500D03*
X188785500Y-145986500D03*
X190055500Y-145986500D03*
X191325500Y-145986500D03*
X192595500Y-145986500D03*
X193865500Y-145986500D03*
D40*
X186365500Y-136486500D03*
D31*
X161286500Y-129308500D03*
X159386500Y-129308500D03*
X160336500Y-131183500D03*
D10*
X179080000Y-124536600D03*
D11*
X181620000Y-124536600D03*
X184160000Y-124536600D03*
X186700000Y-124536600D03*
D10*
X184442100Y-149161500D03*
D11*
X186982100Y-149161500D03*
D41*
X162779000Y-133575500D03*
X159679000Y-133575500D03*
D42*
X181578000Y-150304500D03*
X179578000Y-150304500D03*
X181578000Y-148272500D03*
X179578000Y-148272500D03*
D43*
X159483000Y-140390900D03*
X159983000Y-140390900D03*
X160483000Y-140390900D03*
X160983000Y-140390900D03*
X161483000Y-140390900D03*
X161983000Y-140390900D03*
X162483000Y-140390900D03*
D44*
X163433000Y-139440900D03*
X163433000Y-138940900D03*
X163433000Y-138440900D03*
X163433000Y-137940900D03*
X163433000Y-137440900D03*
X163433000Y-136940900D03*
X163433000Y-136440900D03*
D43*
X162483000Y-135490900D03*
X161983000Y-135490900D03*
X161483000Y-135490900D03*
X160983000Y-135490900D03*
X160483000Y-135490900D03*
X159983000Y-135490900D03*
X159483000Y-135490900D03*
D44*
X158533000Y-136440900D03*
X158533000Y-136940900D03*
X158533000Y-137440900D03*
X158533000Y-137940900D03*
X158533000Y-138440900D03*
X158533000Y-138940900D03*
X158533000Y-139440900D03*
D45*
X160983000Y-137940900D03*
D19*
X192648500Y-126936500D03*
X194373500Y-126936500D03*
D10*
X150558500Y-140665200D03*
D11*
X150558500Y-138125200D03*
X150558500Y-135585200D03*
D35*
X170296500Y-134186100D03*
X170296500Y-135911100D03*
D30*
X168096500Y-146513500D03*
X169921500Y-146513500D03*
X189284600Y-120091200D03*
X191109600Y-120091200D03*
D10*
X173177200Y-130657600D03*
D11*
X173177200Y-128117600D03*
D13*
X183070500Y-89090500D03*
X183070500Y-84010500D03*
D30*
X178157500Y-120091200D03*
X179982500Y-120091200D03*
D13*
X193128900Y-89090500D03*
X193128900Y-84010500D03*
D10*
X170700700Y-141719300D03*
D11*
X173240700Y-141719300D03*
D14*
X194310000Y-148217500D03*
X194310000Y-150267500D03*
D13*
X154100000Y-89180000D03*
X154100000Y-84100000D03*
D18*
X136371500Y-141224000D03*
X134646500Y-141224000D03*
D46*
X158023000Y-143955900D03*
X158823000Y-143955900D03*
D47*
X160023000Y-143955900D03*
X161023000Y-143955900D03*
X161523000Y-143955900D03*
X162523000Y-143955900D03*
D46*
X163723000Y-143955900D03*
X164523000Y-143955900D03*
X164523000Y-143955900D03*
X163723000Y-143955900D03*
D47*
X163023000Y-143955900D03*
X162023000Y-143955900D03*
X160523000Y-143955900D03*
X159523000Y-143955900D03*
D46*
X158823000Y-143955900D03*
X158023000Y-143955900D03*
D48*
X165593000Y-144870900D03*
D49*
X156953000Y-149050900D03*
D48*
X156953000Y-144870900D03*
D49*
X165593000Y-149050900D03*
D30*
X195075800Y-120091200D03*
X196900800Y-120091200D03*
D19*
X189331600Y-121615200D03*
X191056600Y-121615200D03*
X183949000Y-121716800D03*
X185674000Y-121716800D03*
X145060500Y-139700000D03*
X146785500Y-139700000D03*
D13*
X188099700Y-89090500D03*
X188099700Y-84010500D03*
D18*
X196847800Y-121615200D03*
X195122800Y-121615200D03*
D50*
X156273000Y-113665000D03*
D25*
X156273000Y-111125000D03*
X156273000Y-100965000D03*
X156273000Y-93345000D03*
D50*
X161099000Y-113665000D03*
D25*
X161099000Y-111125000D03*
X161099000Y-100965000D03*
X161099000Y-93345000D03*
D13*
X164100000Y-89140000D03*
X164100000Y-84060000D03*
D50*
X170878000Y-113665000D03*
D25*
X170878000Y-111125000D03*
X170878000Y-100965000D03*
X170878000Y-93345000D03*
D51*
X168326500Y-149243500D03*
X174426500Y-149243500D03*
D52*
X173760000Y-135261900D03*
D53*
X173760000Y-134451100D03*
X172040000Y-134451100D03*
D52*
X172040000Y-135261900D03*
D50*
X165925000Y-113665000D03*
D25*
X165925000Y-111125000D03*
X165925000Y-100965000D03*
X165925000Y-93345000D03*
D30*
X171869100Y-137604500D03*
X173694100Y-137604500D03*
D18*
X136371500Y-142748000D03*
X134646500Y-142748000D03*
D54*
X139446000Y-139954000D03*
D55*
X141946000Y-139954000D03*
D13*
X178092100Y-89090500D03*
X178092100Y-84010500D03*
D19*
X192659000Y-125412500D03*
X194384000Y-125412500D03*
X145060500Y-141224000D03*
X146785500Y-141224000D03*
D30*
X183897900Y-120142000D03*
X185722900Y-120142000D03*
X171869100Y-139128500D03*
X173694100Y-139128500D03*
D13*
X169200000Y-89140000D03*
X169200000Y-84060000D03*
D56*
X192278000Y-148242500D03*
X192278000Y-150242500D03*
D36*
X155086500Y-147013500D03*
X155086500Y-148838500D03*
D10*
X164084000Y-122174000D03*
D11*
X161544000Y-122174000D03*
X159004000Y-122174000D03*
X156464000Y-122174000D03*
D26*
X132270500Y-135407500D03*
D19*
X178206400Y-121615200D03*
X179931400Y-121615200D03*
D13*
X159000000Y-89140000D03*
X159000000Y-84060000D03*
D57*
X175720511Y-121078489D03*
X190754000Y-124587000D03*
X191731900Y-124587000D03*
X192671700Y-124587000D03*
X165385120Y-133014080D03*
X170561000Y-119507000D03*
X171831000Y-120015000D03*
X173101000Y-120650000D03*
X174371000Y-120777000D03*
X190836500Y-130523500D03*
X168960800Y-134213600D03*
D58*
X160503000Y-145224500D03*
X161607500Y-145224500D03*
D57*
X161190841Y-134414889D03*
X170192700Y-143497300D03*
X157085817Y-134289917D03*
X158983000Y-146300784D03*
X163600000Y-146300000D03*
X183172100Y-135851900D03*
X185407300Y-139712700D03*
X187337700Y-139712700D03*
X185559700Y-133311900D03*
X194360800Y-124587000D03*
X182626000Y-120142000D03*
X190500000Y-136766300D03*
X162116300Y-136856500D03*
X160926500Y-139103900D03*
X148082000Y-141224000D03*
X148082000Y-139700000D03*
X188400000Y-132270500D03*
X157356500Y-142843500D03*
X186500000Y-132270500D03*
X181203600Y-120091200D03*
X193446400Y-120040400D03*
X182181500Y-136740900D03*
X193929000Y-121539000D03*
X159786500Y-139103900D03*
X194384000Y-126111000D03*
X192582800Y-120040400D03*
X188087000Y-125857000D03*
X155106500Y-150003500D03*
X162106500Y-139173900D03*
X193856500Y-144343500D03*
X184518300Y-140652500D03*
X171500000Y-136300000D03*
X133096000Y-142748000D03*
X172212000Y-146812000D03*
X153850000Y-127307000D03*
X182727600Y-121615200D03*
X133096000Y-139700000D03*
X193865500Y-130644900D03*
X157784800Y-117221000D03*
X166738300Y-143116300D03*
X159796500Y-137999500D03*
X160922500Y-137974100D03*
X160922500Y-136856500D03*
X173228000Y-146812000D03*
X189600000Y-135826500D03*
X189600000Y-137700000D03*
X187490100Y-133311900D03*
X188277500Y-140652500D03*
X157612099Y-140708899D03*
X192278000Y-121539000D03*
X133096000Y-141224000D03*
X148082000Y-142748000D03*
X181203600Y-121615200D03*
X171196000Y-146812000D03*
X184600000Y-132270500D03*
X153850000Y-129212000D03*
X168100000Y-136100000D03*
X156324300Y-142862300D03*
X170180000Y-127127000D03*
X182181500Y-138620500D03*
X153826500Y-148833500D03*
X159804900Y-136881900D03*
X182181500Y-134861300D03*
X165773100Y-142811500D03*
X164021100Y-141900900D03*
X183172100Y-137731500D03*
X190500000Y-134900000D03*
X190500000Y-138700000D03*
X173990000Y-114046000D03*
X186397900Y-140652500D03*
X170266500Y-129590800D03*
X162090900Y-137948700D03*
X157083980Y-136013900D03*
X169176700Y-145300700D03*
X169659300Y-144411700D03*
X156066500Y-136005500D03*
D59*
X193865500Y-147773000D02*
X194310000Y-148217500D01*
X193865500Y-145986500D02*
X193865500Y-147773000D01*
D60*
X194285000Y-150242500D02*
X194310000Y-150267500D01*
X192278000Y-150242500D02*
X194285000Y-150242500D01*
X192595500Y-147925000D02*
X192278000Y-148242500D01*
X192595500Y-145986500D02*
X192595500Y-147925000D01*
X175641000Y-121158000D02*
X175720511Y-121078489D01*
X175641000Y-122679000D02*
X175641000Y-121158000D01*
D61*
X129136100Y-125000000D02*
X129136100Y-115770700D01*
X143500800Y-101406000D02*
X143500800Y-99558800D01*
D62*
X143941800Y-100965000D02*
X170878000Y-100965000D01*
D61*
X143500800Y-99558800D02*
X143536500Y-99523100D01*
X143536500Y-99523100D02*
X143536500Y-90363500D01*
X129136100Y-115770700D02*
X143500800Y-101406000D01*
D63*
X143500800Y-101406000D02*
X143941800Y-100965000D01*
D59*
X172944008Y-111252000D02*
X175641000Y-113948992D01*
D63*
X150558500Y-138125200D02*
X145110200Y-138125200D01*
X154051000Y-111252000D02*
X156273000Y-111252000D01*
X145034000Y-138049000D02*
X145034000Y-145819000D01*
D59*
X152178000Y-119221000D02*
X151892000Y-119507000D01*
D63*
X151892000Y-113411000D02*
X154051000Y-111252000D01*
X145034000Y-145819000D02*
X145629000Y-146414000D01*
D59*
X175641000Y-113948992D02*
X175641000Y-114427000D01*
D63*
X145110200Y-138125200D02*
X145034000Y-138049000D01*
X152358011Y-133257211D02*
X151892000Y-132791200D01*
X156273000Y-111252000D02*
X170878000Y-111252000D01*
D59*
X170878000Y-111252000D02*
X172944008Y-111252000D01*
D63*
X152358011Y-136330583D02*
X152358011Y-133257211D01*
D59*
X175641000Y-114427000D02*
X175641000Y-117602000D01*
D63*
X151646797Y-137041797D02*
X152358011Y-136330583D01*
X150558500Y-138125200D02*
X151641903Y-137041797D01*
X151892000Y-119507000D02*
X151892000Y-113411000D01*
D59*
X153873200Y-119221000D02*
X152178000Y-119221000D01*
D63*
X151892000Y-132791200D02*
X151892000Y-119507000D01*
X145034000Y-134874000D02*
X145034000Y-138049000D01*
X151641903Y-137041797D02*
X151646797Y-137041797D01*
D64*
X169193111Y-136387514D02*
X170371997Y-137566400D01*
X166890500Y-135410900D02*
X166890500Y-134519460D01*
D65*
X166574900Y-140084800D02*
X166003480Y-139513380D01*
D59*
X191081000Y-124914000D02*
X190754000Y-124587000D01*
D64*
X166890500Y-134519460D02*
X165385120Y-133014080D01*
D59*
X191770000Y-125349000D02*
X191144500Y-125349000D01*
X192659000Y-125349000D02*
X191770000Y-125349000D01*
D64*
X169193111Y-135200489D02*
X169193111Y-136387514D01*
D65*
X170561500Y-134451100D02*
X170296500Y-134186100D01*
D66*
X165927520Y-136336380D02*
X166853000Y-135410900D01*
D65*
X166003480Y-136260420D02*
X166853000Y-135410900D01*
X166003480Y-139513380D02*
X166003480Y-136260420D01*
D64*
X169193111Y-135200489D02*
X169282111Y-135200489D01*
D66*
X165747200Y-140084800D02*
X165927520Y-139904480D01*
D65*
X171836500Y-134451100D02*
X170561500Y-134451100D01*
D59*
X191081000Y-125412500D02*
X191081000Y-124914000D01*
X192595500Y-128986500D02*
X192595500Y-123888500D01*
X164662300Y-140390900D02*
X162307520Y-140390900D01*
D64*
X167100911Y-135200489D02*
X169193111Y-135200489D01*
D59*
X191770000Y-124625100D02*
X191731900Y-124587000D01*
D64*
X166890500Y-135410900D02*
X167100911Y-135200489D01*
D59*
X166574900Y-140084800D02*
X165747200Y-140084800D01*
D66*
X165927520Y-139904480D02*
X165927520Y-136336380D01*
D64*
X169282111Y-135200489D02*
X170296500Y-134186100D01*
D59*
X191144500Y-125349000D02*
X191081000Y-125412500D01*
X165747200Y-140084800D02*
X164981400Y-140084800D01*
D64*
X171869100Y-137604500D02*
X171869100Y-139128500D01*
X171831000Y-137566400D02*
X171869100Y-137604500D01*
D59*
X192595500Y-123888500D02*
X192659000Y-123825000D01*
X164974900Y-140078300D02*
X164662300Y-140390900D01*
X191770000Y-125349000D02*
X191770000Y-124625100D01*
D64*
X170371997Y-137566400D02*
X171831000Y-137566400D01*
D59*
X164981400Y-140084800D02*
X164974900Y-140078300D01*
D62*
X193106500Y-78913499D02*
X193106500Y-83988100D01*
X193106500Y-83988100D02*
X193128900Y-84010500D01*
X193106500Y-78913499D02*
X193106500Y-70713500D01*
X188106500Y-84003700D02*
X188099700Y-84010500D01*
X188106500Y-70713500D02*
X188106500Y-78913499D01*
X188106500Y-78913499D02*
X188106500Y-84003700D01*
X183106500Y-78913499D02*
X183106500Y-70713500D01*
X183070500Y-78949499D02*
X183106500Y-78913499D01*
X183070500Y-84010500D02*
X183070500Y-78949499D01*
X178106500Y-70713500D02*
X178106500Y-78913499D01*
X178106500Y-83996100D02*
X178092100Y-84010500D01*
X178106500Y-78913499D02*
X178106500Y-83996100D01*
X170878000Y-90818000D02*
X169200000Y-89140000D01*
X170878000Y-93345000D02*
X170878000Y-90818000D01*
X165925000Y-93345000D02*
X165925000Y-90965000D01*
X165925000Y-90965000D02*
X164100000Y-89140000D01*
X161099000Y-93345000D02*
X161099000Y-91239000D01*
X161099000Y-91239000D02*
X159000000Y-89140000D01*
X156273000Y-91353000D02*
X154100000Y-89180000D01*
X156273000Y-93345000D02*
X156273000Y-91353000D01*
D60*
X158940000Y-116332000D02*
X156273000Y-113665000D01*
X169646138Y-116332000D02*
X158940000Y-116332000D01*
X170561000Y-117246862D02*
X169646138Y-116332000D01*
X170561000Y-117729000D02*
X170561000Y-117246862D01*
X163166480Y-115732480D02*
X169707480Y-115732480D01*
X170316618Y-115732480D02*
X169707480Y-115732480D01*
X171831000Y-117729000D02*
X171831000Y-117246862D01*
X161099000Y-113665000D02*
X163166480Y-115732480D01*
X171831000Y-117246862D02*
X170316618Y-115732480D01*
X165925000Y-113665000D02*
X167392960Y-115132960D01*
X173101000Y-117729000D02*
X173101000Y-117008150D01*
X171225810Y-115132960D02*
X167392960Y-115132960D01*
X173101000Y-117008150D02*
X171225810Y-115132960D01*
X173736000Y-116246150D02*
X174371000Y-116881150D01*
X170878000Y-113665000D02*
X170878000Y-113937300D01*
X174371000Y-116881150D02*
X174371000Y-117602000D01*
X173186850Y-116246150D02*
X173736000Y-116246150D01*
X170878000Y-113937300D02*
X173186850Y-116246150D01*
X181261983Y-125786111D02*
X180329511Y-125786111D01*
D64*
X178131274Y-123587874D02*
X179080000Y-124536600D01*
D60*
X184327800Y-126873000D02*
X182348872Y-126873000D01*
X185013600Y-127558800D02*
X184327800Y-126873000D01*
X182348872Y-126873000D02*
X181261983Y-125786111D01*
X184975500Y-128986500D02*
X185013600Y-128948400D01*
D64*
X178131274Y-117738320D02*
X178131274Y-123587874D01*
D60*
X180329511Y-125786111D02*
X179080000Y-124536600D01*
X185013600Y-128948400D02*
X185013600Y-127558800D01*
D64*
X185674000Y-121716800D02*
X184505600Y-122885200D01*
X185751274Y-121639526D02*
X185674000Y-121716800D01*
X185751274Y-117738320D02*
X185751274Y-121639526D01*
X183271400Y-122885200D02*
X181620000Y-124536600D01*
X184505600Y-122885200D02*
X183271400Y-122885200D01*
D60*
X184820480Y-126273480D02*
X186245500Y-127698500D01*
X184820480Y-126273480D02*
X183356880Y-126273480D01*
X181620000Y-124536600D02*
X183356880Y-126273480D01*
X186245500Y-128986500D02*
X186245500Y-127698500D01*
X187537800Y-127914400D02*
X187553600Y-127914400D01*
D64*
X184160000Y-124536600D02*
X185659000Y-123037600D01*
D60*
X187553600Y-127914400D02*
X187553600Y-128948400D01*
D64*
X185659000Y-123037600D02*
X187909200Y-123037600D01*
X189331600Y-117762646D02*
X189307274Y-117738320D01*
X189331600Y-121615200D02*
X189331600Y-117762646D01*
D60*
X184160000Y-124536600D02*
X187537800Y-127914400D01*
X187553600Y-128948400D02*
X187515500Y-128986500D01*
D64*
X187909200Y-123037600D02*
X189331600Y-121615200D01*
X189487772Y-122589720D02*
X195822480Y-122589720D01*
X195822480Y-122589720D02*
X196847800Y-121564400D01*
X186700000Y-124536600D02*
X187540892Y-124536600D01*
D60*
X187198000Y-126633422D02*
X187198000Y-126619000D01*
X187198000Y-126619000D02*
X186700000Y-126121000D01*
X186700000Y-126121000D02*
X186700000Y-124536600D01*
D64*
X187540892Y-124536600D02*
X189487772Y-122589720D01*
D60*
X188785500Y-128986500D02*
X188785500Y-128220922D01*
X188785500Y-128220922D02*
X187198000Y-126633422D01*
D64*
X196847800Y-117817794D02*
X196927274Y-117738320D01*
X196847800Y-121564400D02*
X196847800Y-117817794D01*
D60*
X170561000Y-123356978D02*
X170561000Y-122679000D01*
X172919500Y-133041500D02*
X171450000Y-131572000D01*
X170561000Y-119507000D02*
X170561000Y-122679000D01*
X171450000Y-131572000D02*
X171450000Y-124587000D01*
X176355500Y-133041500D02*
X172919500Y-133041500D01*
X171450000Y-124587000D02*
X171450000Y-124245978D01*
X171450000Y-124245978D02*
X170561000Y-123356978D01*
X171831000Y-123779128D02*
X171831000Y-122552000D01*
X179895500Y-128986500D02*
X179895500Y-128007478D01*
X172049520Y-123997648D02*
X171831000Y-123779128D01*
X172049520Y-125186520D02*
X172049520Y-123997648D01*
X171831000Y-120015000D02*
X171831000Y-122679000D01*
X179895500Y-128007478D02*
X179475011Y-127586989D01*
X179475011Y-127586989D02*
X174449989Y-127586989D01*
X174449989Y-127586989D02*
X172049520Y-125186520D01*
X174698319Y-126987469D02*
X180145491Y-126987469D01*
X180145491Y-126987469D02*
X181165500Y-128007478D01*
X173101000Y-122552000D02*
X173101000Y-125390150D01*
X181165500Y-128007478D02*
X181165500Y-128986500D01*
X173101000Y-125390150D02*
X174698319Y-126987469D01*
X173101000Y-120650000D02*
X173101000Y-122679000D01*
X174946649Y-126387949D02*
X180815971Y-126387949D01*
X174371000Y-120777000D02*
X174371000Y-122552000D01*
X174371000Y-122552000D02*
X174371000Y-125812300D01*
X180815971Y-126387949D02*
X182435500Y-128007478D01*
X182435500Y-128007478D02*
X182435500Y-128986500D01*
X174371000Y-125812300D02*
X174946649Y-126387949D01*
D61*
X145500100Y-83329900D02*
X143546500Y-85283500D01*
X145500100Y-78977099D02*
X145500100Y-83329900D01*
X145500100Y-70777100D02*
X145500100Y-78977099D01*
D64*
X168422964Y-134213600D02*
X166566500Y-132357136D01*
X166566500Y-131300000D02*
X163923000Y-131300000D01*
D60*
X191018500Y-127328000D02*
X191325500Y-127635000D01*
D64*
X191325500Y-128986500D02*
X191325500Y-129944500D01*
X163923000Y-131300000D02*
X163796500Y-131173500D01*
D59*
X166566500Y-125100000D02*
X166566500Y-131300000D01*
D60*
X190817500Y-126936500D02*
X189293500Y-125412500D01*
D64*
X166566500Y-132357136D02*
X166566500Y-131300000D01*
D60*
X191018500Y-126936500D02*
X191018500Y-127328000D01*
X191325500Y-127635000D02*
X191325500Y-128986500D01*
D64*
X191325500Y-129944500D02*
X190783989Y-130486011D01*
X168960800Y-134213600D02*
X168422964Y-134213600D01*
D67*
X160583000Y-141850900D02*
X161013000Y-141420900D01*
X162140900Y-144998800D02*
X162023000Y-144880900D01*
X161013000Y-141420900D02*
X161013000Y-140513392D01*
X162140900Y-146559100D02*
X162140900Y-144998800D01*
X160583000Y-141900900D02*
X160583000Y-142425901D01*
X161023000Y-143955900D02*
X161023000Y-146623000D01*
X161023000Y-146623000D02*
X161200000Y-146800000D01*
X161200000Y-146800000D02*
X161900000Y-146800000D01*
D65*
X161023000Y-143955900D02*
X161063000Y-143995900D01*
D67*
X161013000Y-142855901D02*
X161013000Y-144023500D01*
X162023000Y-144880900D02*
X162023000Y-143955900D01*
X161900000Y-146800000D02*
X162140900Y-146559100D01*
X160583000Y-141900900D02*
X160583000Y-141850900D01*
X160583000Y-142425901D02*
X161013000Y-142855901D01*
X161893000Y-141850900D02*
X161463000Y-141420900D01*
D65*
X161607500Y-145224500D02*
X161523000Y-145140000D01*
D67*
X161893000Y-141900900D02*
X161893000Y-141850900D01*
D65*
X160503000Y-145224500D02*
X160503000Y-143975900D01*
D67*
X161893000Y-142425901D02*
X161463000Y-142855901D01*
D65*
X161523000Y-145140000D02*
X161523000Y-143955900D01*
D67*
X161893000Y-141900900D02*
X161893000Y-142425901D01*
X161463000Y-142855901D02*
X161463000Y-144023500D01*
X161463000Y-141420900D02*
X161463000Y-140513392D01*
D65*
X160503000Y-143975900D02*
X160523000Y-143955900D01*
D66*
X162896500Y-129248500D02*
X162846500Y-129298500D01*
X162896500Y-127513500D02*
X162896500Y-129248500D01*
X162846500Y-133508000D02*
X162779000Y-133575500D01*
X162846500Y-129298500D02*
X162846500Y-133508000D01*
D59*
X157556500Y-124833500D02*
X157556500Y-131033500D01*
D60*
X161190841Y-134414889D02*
X161190841Y-132037841D01*
X170243500Y-143471900D02*
X173336398Y-143471900D01*
X157085817Y-134289917D02*
X157550000Y-133825734D01*
X175850998Y-145986500D02*
X177355500Y-145986500D01*
X173336398Y-143471900D02*
X175850998Y-145986500D01*
X157550000Y-133825734D02*
X157550000Y-131300000D01*
X161190841Y-132037841D02*
X160336500Y-131183500D01*
X159466500Y-129228500D02*
X159386500Y-129308500D01*
X159466500Y-127333500D02*
X159466500Y-129228500D01*
X159466500Y-126683500D02*
X160166500Y-125983500D01*
X159386500Y-129308500D02*
X159386500Y-131924441D01*
X159386500Y-131924441D02*
X158597600Y-132713341D01*
X155266989Y-135654011D02*
X155266989Y-137450989D01*
X157378400Y-135128000D02*
X155793000Y-135128000D01*
X160166500Y-125983500D02*
X161071500Y-125983500D01*
X158597600Y-132713341D02*
X158597600Y-133908800D01*
X159466500Y-127333500D02*
X159466500Y-126683500D01*
X155266989Y-137450989D02*
X156406500Y-138590500D01*
X155793000Y-135128000D02*
X155266989Y-135654011D01*
X158597600Y-133908800D02*
X157378400Y-135128000D01*
D64*
X188785500Y-145986500D02*
X188785500Y-147165522D01*
X188211922Y-147739100D02*
X185864500Y-147739100D01*
X185864500Y-147739100D02*
X184442100Y-149161500D01*
X184442100Y-149161500D02*
X183553100Y-148272500D01*
X183553100Y-148272500D02*
X181578000Y-148272500D01*
X188785500Y-147165522D02*
X188211922Y-147739100D01*
X185632589Y-150511011D02*
X186982100Y-149161500D01*
X186982100Y-149161500D02*
X188912500Y-149161500D01*
X181578000Y-150304500D02*
X181784511Y-150511011D01*
X181784511Y-150511011D02*
X185632589Y-150511011D01*
X188912500Y-149161500D02*
X190055500Y-148018500D01*
X190055500Y-148018500D02*
X190055500Y-145986500D01*
D66*
X167612820Y-139181220D02*
X166890500Y-138458900D01*
X167612820Y-144637838D02*
X167612820Y-139181220D01*
D60*
X159157521Y-145080082D02*
X159157521Y-146126263D01*
X158823000Y-144745561D02*
X159157521Y-145080082D01*
D64*
X158983000Y-146300784D02*
X158730284Y-146553500D01*
D66*
X159132521Y-146271631D02*
X159103368Y-146300784D01*
X163483008Y-145067321D02*
X163413479Y-145136850D01*
X158823000Y-142740900D02*
X157983000Y-141900900D01*
X163600000Y-146300000D02*
X165950658Y-146300000D01*
X163600000Y-146300000D02*
X163413479Y-146113479D01*
D64*
X156356100Y-146551700D02*
X155418500Y-145614100D01*
D66*
X165950658Y-146300000D02*
X167612820Y-144637838D01*
X163723000Y-143955900D02*
X163723000Y-144780916D01*
D60*
X159157521Y-146126263D02*
X158983000Y-146300784D01*
D66*
X163413479Y-146113479D02*
X163413479Y-145136850D01*
X163723000Y-144780916D02*
X163483008Y-145020908D01*
D64*
X156356100Y-146553500D02*
X156356100Y-146551700D01*
D66*
X163483008Y-145020908D02*
X163483008Y-145067321D01*
D64*
X155418500Y-145614100D02*
X154876500Y-145614100D01*
X158730284Y-146553500D02*
X156356100Y-146553500D01*
D60*
X158823000Y-143955900D02*
X158823000Y-144745561D01*
D66*
X158823000Y-143955900D02*
X158823000Y-142740900D01*
D59*
X171196000Y-146812000D02*
X172128489Y-146812000D01*
X182181500Y-135826500D02*
X183146700Y-135826500D01*
X155086500Y-148838500D02*
X155086500Y-149983500D01*
X193865500Y-130644900D02*
X193865500Y-131686300D01*
X166738300Y-141973200D02*
X166574900Y-141809800D01*
D64*
X194005200Y-121615200D02*
X193929000Y-121539000D01*
X192201800Y-121615200D02*
X192278000Y-121539000D01*
X188087000Y-125857000D02*
X189166500Y-126936500D01*
D59*
X194384000Y-125412500D02*
X194384000Y-124229200D01*
X186397900Y-140652500D02*
X186397900Y-139738100D01*
X185483500Y-140652500D02*
X185483500Y-139788900D01*
X193856500Y-136743500D02*
X193856500Y-131695300D01*
X189598300Y-136740900D02*
X189572900Y-136766300D01*
X182181500Y-134861300D02*
X182181500Y-138620500D01*
X173228000Y-146812000D02*
X173228000Y-148045000D01*
X188277500Y-140652500D02*
X188277500Y-139712700D01*
X193865500Y-145986500D02*
X193865500Y-144352500D01*
X193865500Y-144407478D02*
X193865500Y-144970500D01*
D64*
X157612099Y-140871801D02*
X156583000Y-141900900D01*
D59*
X184231500Y-138620500D02*
X186365500Y-136486500D01*
X193856500Y-144343500D02*
X193856500Y-140743500D01*
D65*
X160483000Y-139547400D02*
X160926500Y-139103900D01*
D59*
X194373500Y-126072900D02*
X194384000Y-126062400D01*
X189572900Y-137731500D02*
X187610500Y-137731500D01*
D64*
X157612099Y-140708899D02*
X158440021Y-140708899D01*
D59*
X187363100Y-132270500D02*
X187363100Y-133184900D01*
D64*
X191160400Y-120040400D02*
X191109600Y-120091200D01*
D59*
X187337700Y-137458700D02*
X186365500Y-136486500D01*
D63*
X134646500Y-139700000D02*
X134646500Y-145899500D01*
D60*
X166890500Y-136934900D02*
X167265100Y-136934900D01*
D59*
X190500000Y-134900000D02*
X190500000Y-134926500D01*
X190500000Y-138700000D02*
X188579000Y-138700000D01*
D64*
X179982500Y-120091200D02*
X183847100Y-120091200D01*
D59*
X134646500Y-139700000D02*
X133096000Y-139700000D01*
X164981400Y-141809800D02*
X164974900Y-141803300D01*
D60*
X167265100Y-136934900D02*
X168100000Y-136100000D01*
D59*
X185483500Y-132270500D02*
X185483500Y-133235700D01*
X183172100Y-137731500D02*
X185120500Y-137731500D01*
D64*
X182829200Y-121716800D02*
X182727600Y-121615200D01*
X159183000Y-141451878D02*
X159183000Y-141900900D01*
D59*
X187610500Y-137731500D02*
X186365500Y-136486500D01*
X164021100Y-141900900D02*
X164877300Y-141900900D01*
X184518300Y-138333700D02*
X186365500Y-136486500D01*
X194384000Y-125412500D02*
X194384000Y-126062400D01*
D65*
X160483000Y-140879389D02*
X159461489Y-141900900D01*
D59*
X190563500Y-136740900D02*
X193853900Y-136740900D01*
X188400000Y-132270500D02*
X188400000Y-132402000D01*
X166738300Y-143116300D02*
X166738300Y-141973200D01*
D60*
X171111100Y-135911100D02*
X171500000Y-136300000D01*
D59*
X189600000Y-135826500D02*
X189600000Y-137700000D01*
X188400000Y-132402000D02*
X187490100Y-133311900D01*
D65*
X170296500Y-135911100D02*
X170945700Y-135261900D01*
D63*
X134646500Y-145899500D02*
X134132000Y-146414000D01*
D59*
X153850000Y-127307000D02*
X153850000Y-129212000D01*
X155086500Y-148838500D02*
X153831500Y-148838500D01*
X185483500Y-133235700D02*
X185559700Y-133311900D01*
X163293000Y-141900900D02*
X164021100Y-141900900D01*
X183146700Y-136740900D02*
X183172100Y-136766300D01*
X184600000Y-132270500D02*
X184600000Y-134721000D01*
D64*
X158023000Y-143955900D02*
X158023000Y-143510000D01*
D60*
X170296500Y-135911100D02*
X171111100Y-135911100D01*
D59*
X170266500Y-131300000D02*
X170266500Y-129423300D01*
X183172100Y-134886700D02*
X184765700Y-134886700D01*
D64*
X176355500Y-131771500D02*
X179091700Y-131771500D01*
D65*
X159461489Y-141900900D02*
X159183000Y-141900900D01*
D64*
X183847100Y-120091200D02*
X183897900Y-120142000D01*
D59*
X183146700Y-134861300D02*
X183172100Y-134886700D01*
D64*
X156324300Y-142862300D02*
X156583000Y-142603600D01*
D59*
X186397900Y-139738100D02*
X186372500Y-139712700D01*
X171196000Y-146812000D02*
X170220000Y-146812000D01*
X182181500Y-138620500D02*
X184231500Y-138620500D01*
X193865500Y-128986500D02*
X193865500Y-130644900D01*
D63*
X155956000Y-117203000D02*
X157766800Y-117203000D01*
D59*
X186372500Y-139712700D02*
X186372500Y-136493500D01*
D60*
X173916000Y-114120000D02*
X173916000Y-115189000D01*
D63*
X157766800Y-117203000D02*
X157784800Y-117221000D01*
D59*
X182181500Y-137706100D02*
X183146700Y-137706100D01*
D64*
X157356500Y-142843500D02*
X156343100Y-142843500D01*
D59*
X190563500Y-136740900D02*
X189598300Y-136740900D01*
X182181500Y-134861300D02*
X183146700Y-134861300D01*
D60*
X173990000Y-114046000D02*
X173916000Y-114120000D01*
D59*
X193865500Y-144352500D02*
X193856500Y-144343500D01*
X170220000Y-146812000D02*
X169921500Y-146513500D01*
X185730900Y-135851900D02*
X186365500Y-136486500D01*
X184518300Y-140652500D02*
X188277500Y-140652500D01*
X188579000Y-138700000D02*
X186365500Y-136486500D01*
X183146700Y-135826500D02*
X183172100Y-135851900D01*
D64*
X164523000Y-142402800D02*
X164523000Y-143955900D01*
D59*
X193865500Y-127444500D02*
X194373500Y-126936500D01*
X184600000Y-134721000D02*
X186365500Y-136486500D01*
X155086500Y-149983500D02*
X155106500Y-150003500D01*
X153831500Y-148838500D02*
X153826500Y-148833500D01*
X146785500Y-139700000D02*
X148082000Y-139700000D01*
X187337700Y-139712700D02*
X187337700Y-137458700D01*
X183146700Y-137706100D02*
X183172100Y-137731500D01*
X189572900Y-136766300D02*
X186645300Y-136766300D01*
X185559700Y-135680700D02*
X186365500Y-136486500D01*
X134646500Y-141224000D02*
X133096000Y-141224000D01*
X184600000Y-132270500D02*
X188400000Y-132270500D01*
D64*
X179931400Y-121615200D02*
X181203600Y-121615200D01*
D59*
X187363100Y-139738100D02*
X187337700Y-139712700D01*
X186397900Y-132270500D02*
X186397900Y-133184900D01*
D64*
X157612099Y-140708899D02*
X157612099Y-140871801D01*
D59*
X146785500Y-142748000D02*
X148082000Y-142748000D01*
X186372500Y-136493500D02*
X186365500Y-136486500D01*
X164877300Y-141900900D02*
X164974900Y-141803300D01*
X187490100Y-133311900D02*
X187490100Y-135361900D01*
X186645300Y-136766300D02*
X186365500Y-136486500D01*
X134646500Y-142748000D02*
X133096000Y-142748000D01*
X193856500Y-140743500D02*
X193856500Y-136743500D01*
D65*
X160483000Y-140390900D02*
X160483000Y-140879389D01*
D59*
X153850000Y-125297000D02*
X153850000Y-127307000D01*
X189600000Y-137700000D02*
X189600000Y-137800000D01*
X187025500Y-135826500D02*
X186365500Y-136486500D01*
X189600000Y-137800000D02*
X190500000Y-138700000D01*
X187952000Y-134900000D02*
X186365500Y-136486500D01*
X194373500Y-126936500D02*
X194373500Y-126072900D01*
X185120500Y-137731500D02*
X186365500Y-136486500D01*
X153850000Y-131497000D02*
X153850000Y-129212000D01*
X193856500Y-131695300D02*
X193865500Y-131686300D01*
X185407300Y-139712700D02*
X185407300Y-137444700D01*
D64*
X156583000Y-141900900D02*
X156583000Y-142070000D01*
D59*
X182181500Y-136740900D02*
X183146700Y-136740900D01*
X186397900Y-133184900D02*
X186524900Y-133311900D01*
X186524900Y-133311900D02*
X186524900Y-136327100D01*
X190500000Y-134900000D02*
X190500000Y-138700000D01*
X165773100Y-141871700D02*
X165711200Y-141809800D01*
X188400000Y-134452000D02*
X186365500Y-136486500D01*
X184765700Y-134886700D02*
X186365500Y-136486500D01*
X186524900Y-136327100D02*
X186365500Y-136486500D01*
X185407300Y-137444700D02*
X186365500Y-136486500D01*
X190500000Y-134926500D02*
X189600000Y-135826500D01*
D64*
X195075800Y-120040400D02*
X191160400Y-120040400D01*
D59*
X194384000Y-124229200D02*
X194360800Y-124206000D01*
D64*
X158440021Y-140708899D02*
X159183000Y-141451878D01*
D59*
X187363100Y-133184900D02*
X187490100Y-133311900D01*
D64*
X158023000Y-143510000D02*
X157356500Y-142843500D01*
D59*
X189598300Y-137706100D02*
X189572900Y-137731500D01*
D65*
X170945700Y-135261900D02*
X171836500Y-135261900D01*
D59*
X186085700Y-136766300D02*
X186365500Y-136486500D01*
X165711200Y-141809800D02*
X164981400Y-141809800D01*
X166574900Y-141809800D02*
X165711200Y-141809800D01*
X185483500Y-139788900D02*
X185407300Y-139712700D01*
D64*
X183949000Y-121716800D02*
X182829200Y-121716800D01*
D59*
X184518300Y-140652500D02*
X184518300Y-138333700D01*
X188277500Y-138398500D02*
X186365500Y-136486500D01*
D64*
X195122800Y-121615200D02*
X194005200Y-121615200D01*
D59*
X173228000Y-148045000D02*
X174426500Y-149243500D01*
X185559700Y-133311900D02*
X185559700Y-135680700D01*
X187363100Y-140652500D02*
X187363100Y-139738100D01*
X146785500Y-141224000D02*
X148082000Y-141224000D01*
X193853900Y-136740900D02*
X193856500Y-136743500D01*
X188400000Y-132270500D02*
X188400000Y-134452000D01*
X189600000Y-135826500D02*
X187025500Y-135826500D01*
D64*
X189166500Y-126936500D02*
X189293500Y-126936500D01*
D59*
X188277500Y-139712700D02*
X188277500Y-138398500D01*
D64*
X164021100Y-141900900D02*
X164523000Y-142402800D01*
D59*
X170266500Y-129423300D02*
X170266500Y-126578500D01*
D64*
X156583000Y-142603600D02*
X156583000Y-142070000D01*
D65*
X160483000Y-140390900D02*
X160483000Y-139547400D01*
D59*
X183172100Y-136766300D02*
X186085700Y-136766300D01*
X187490100Y-135361900D02*
X186365500Y-136486500D01*
D64*
X156343100Y-142843500D02*
X156324300Y-142862300D01*
X191056600Y-121615200D02*
X192201800Y-121615200D01*
D59*
X183172100Y-135851900D02*
X185730900Y-135851900D01*
X193865500Y-128986500D02*
X193865500Y-127444500D01*
X172212000Y-146812000D02*
X173228000Y-146812000D01*
X190500000Y-134900000D02*
X187952000Y-134900000D01*
X170266500Y-125100000D02*
X170266500Y-126578500D01*
X165773100Y-142811500D02*
X165773100Y-141871700D01*
D64*
X179091700Y-131771500D02*
X182181500Y-134861300D01*
X156583000Y-142070000D02*
X157356500Y-142843500D01*
D66*
X164185100Y-125983500D02*
X162896500Y-125983500D01*
X164746500Y-126544900D02*
X164185100Y-125983500D01*
X164746500Y-129298500D02*
X164746500Y-126544900D01*
X161286500Y-127728500D02*
X161071500Y-127513500D01*
X161286500Y-129308500D02*
X161286500Y-127728500D01*
D65*
X158520400Y-137453500D02*
X158098272Y-137453500D01*
X158533000Y-137440900D02*
X158520400Y-137453500D01*
X157808491Y-135446009D02*
X157808491Y-137163719D01*
X159679000Y-133575500D02*
X157808491Y-135446009D01*
X157808491Y-137163719D02*
X158098272Y-137453500D01*
X158533000Y-139440900D02*
X157855500Y-139440900D01*
X156406500Y-140340500D02*
X156955900Y-140340500D01*
X156955900Y-140340500D02*
X157855500Y-139440900D01*
D59*
X185751274Y-108818674D02*
X183070500Y-106137900D01*
X185751274Y-110118320D02*
X185751274Y-108818674D01*
D62*
X164146500Y-78953500D02*
X164146500Y-84013500D01*
X164146500Y-70753501D02*
X164146500Y-78953500D01*
X164146500Y-84013500D02*
X164100000Y-84060000D01*
X159146500Y-70753501D02*
X159146500Y-78953500D01*
X159146500Y-83913500D02*
X159000000Y-84060000D01*
X159146500Y-78953500D02*
X159146500Y-83913500D01*
X154146500Y-78953500D02*
X154146500Y-84053500D01*
X154146500Y-84053500D02*
X154100000Y-84100000D01*
X154146500Y-70753501D02*
X154146500Y-78953500D01*
X183070500Y-89090500D02*
X183070500Y-91986100D01*
X188099700Y-98086100D02*
X188099700Y-100037900D01*
D59*
X189307274Y-107345474D02*
X188099700Y-106137900D01*
X189307274Y-110118320D02*
X189307274Y-107345474D01*
D60*
X178281060Y-150304500D02*
X173277260Y-145300700D01*
X173277260Y-145300700D02*
X169176700Y-145300700D01*
D65*
X158533000Y-137940900D02*
X157949954Y-137940900D01*
X157949954Y-137940900D02*
X157083980Y-137074926D01*
D60*
X179578000Y-150304500D02*
X178281060Y-150304500D01*
D65*
X157083980Y-137074926D02*
X157083980Y-136013900D01*
D66*
X173694100Y-139128500D02*
X171103300Y-141719300D01*
D65*
X175268271Y-144661989D02*
X187156189Y-144661989D01*
X173500093Y-142893811D02*
X171875211Y-142893811D01*
X174531080Y-143924798D02*
X173500093Y-142893811D01*
X172882080Y-137134204D02*
X172882080Y-138316480D01*
D66*
X171103300Y-141719300D02*
X170700700Y-141719300D01*
D65*
X172882080Y-138316480D02*
X173694100Y-139128500D01*
X187156189Y-144661989D02*
X187515500Y-145021300D01*
X174161900Y-135261900D02*
X173760000Y-135261900D01*
X174300000Y-135716284D02*
X174300000Y-135400000D01*
X172882080Y-137134204D02*
X174300000Y-135716284D01*
X187515500Y-145021300D02*
X187515500Y-145986500D01*
X171875211Y-142893811D02*
X170700700Y-141719300D01*
X174531080Y-143924798D02*
X175268271Y-144661989D01*
X174300000Y-135400000D02*
X174161900Y-135261900D01*
X173694100Y-137604500D02*
X173821100Y-137604500D01*
X173240700Y-141719300D02*
X173240700Y-141998700D01*
X191325500Y-145986500D02*
X191325500Y-145157478D01*
X174506120Y-140453880D02*
X173240700Y-141719300D01*
X173694100Y-137105900D02*
X174749520Y-136050480D01*
X173793100Y-137576500D02*
X173821100Y-137604500D01*
D66*
X174556120Y-138466520D02*
X174556120Y-140403880D01*
D65*
X174506120Y-138416520D02*
X174506120Y-140453880D01*
X174749520Y-136050480D02*
X174749520Y-134949520D01*
X174251100Y-134451100D02*
X173760000Y-134451100D01*
X174749520Y-134949520D02*
X174251100Y-134451100D01*
X173694100Y-137604500D02*
X173694100Y-137105900D01*
X173694100Y-137604500D02*
X174506120Y-138416520D01*
D66*
X174556120Y-140403880D02*
X173240700Y-141719300D01*
X173694100Y-137604500D02*
X174556120Y-138466520D01*
D65*
X173240700Y-141998700D02*
X175218011Y-143976011D01*
X190144033Y-143976011D02*
X175218011Y-143976011D01*
X191325500Y-145157478D02*
X190144033Y-143976011D01*
D62*
X188099700Y-89090500D02*
X188099700Y-91986100D01*
X193128900Y-89090500D02*
X193128900Y-91986100D01*
X193128900Y-98086100D02*
X193128900Y-100037900D01*
D59*
X196927274Y-109289151D02*
X193776023Y-106137900D01*
X196927274Y-110118320D02*
X196927274Y-109289151D01*
X193776023Y-106137900D02*
X193128900Y-106137900D01*
D60*
X153873200Y-117221000D02*
X153924000Y-117221000D01*
X153924000Y-117221000D02*
X155956000Y-119253000D01*
D62*
X183070500Y-98086100D02*
X183070500Y-100037900D01*
D59*
X150558500Y-140665200D02*
X152027600Y-140665200D01*
X152027600Y-140665200D02*
X154876500Y-143514100D01*
D65*
X164279984Y-139440900D02*
X165065500Y-138655384D01*
X163433000Y-139440900D02*
X164279984Y-139440900D01*
D64*
X165065500Y-136934900D02*
X165065500Y-138458900D01*
D65*
X165065500Y-138655384D02*
X165065500Y-138458900D01*
X163959500Y-138940900D02*
X164253480Y-138646920D01*
X164253480Y-138646920D02*
X164253480Y-136260420D01*
X163433000Y-138940900D02*
X163959500Y-138940900D01*
X164253480Y-136260420D02*
X165103000Y-135410900D01*
D60*
X177105500Y-148272500D02*
X173244700Y-144411700D01*
X173244700Y-144411700D02*
X169659300Y-144411700D01*
D65*
X157651900Y-138440900D02*
X158533000Y-138440900D01*
X156066500Y-136855500D02*
X157651900Y-138440900D01*
X156066500Y-136005500D02*
X156066500Y-136855500D01*
D60*
X179578000Y-148272500D02*
X177105500Y-148272500D01*
D62*
X178117500Y-98086100D02*
X178117500Y-100037900D01*
D59*
X178117500Y-110104546D02*
X178131274Y-110118320D01*
X178117500Y-106137900D02*
X178117500Y-110104546D01*
D64*
X183705500Y-128986500D02*
X183705500Y-130586500D01*
X183705500Y-130586500D02*
X183634400Y-130657600D01*
X183634400Y-130657600D02*
X173177200Y-130657600D01*
X177355500Y-128986500D02*
X174046100Y-128986500D01*
X174046100Y-128986500D02*
X173177200Y-128117600D01*
D63*
X149136100Y-134162800D02*
X150558500Y-135585200D01*
X149136100Y-120000000D02*
X149136100Y-134162800D01*
D62*
X169146500Y-78953500D02*
X169146500Y-84006500D01*
X169146500Y-84006500D02*
X169200000Y-84060000D01*
X169146500Y-70753501D02*
X169146500Y-78953500D01*
X178092100Y-91960700D02*
X178117500Y-91986100D01*
X178092100Y-89090500D02*
X178092100Y-91960700D01*
D65*
X160023000Y-144811911D02*
X159808500Y-145026411D01*
X160023000Y-143955900D02*
X160023000Y-144811911D01*
X159566500Y-147223500D02*
X155296500Y-147223500D01*
X155296500Y-147223500D02*
X155086500Y-147013500D01*
X159808500Y-146981500D02*
X159566500Y-147223500D01*
X159808500Y-145026411D02*
X159808500Y-146981500D01*
X163023000Y-144820901D02*
X162818489Y-145025412D01*
X163023000Y-143955900D02*
X163023000Y-144820901D01*
X163100120Y-147068020D02*
X167541980Y-147068020D01*
X162818489Y-145025412D02*
X162818489Y-146786389D01*
X167541980Y-147068020D02*
X168096500Y-146513500D01*
X162818489Y-146786389D02*
X163100120Y-147068020D01*
D59*
X165785600Y-149243500D02*
X165593000Y-149050900D01*
X156953000Y-149050900D02*
X165593000Y-149050900D01*
X168326500Y-149243500D02*
X165785600Y-149243500D01*
D63*
X138811000Y-148590000D02*
X149047200Y-148590000D01*
X142494000Y-136525000D02*
X142494000Y-134874000D01*
X139446000Y-139954000D02*
X136625500Y-139954000D01*
X149047200Y-148590000D02*
X150558500Y-147078700D01*
X136371500Y-146153500D02*
X136632000Y-146414000D01*
X136632000Y-146414000D02*
X136635000Y-146414000D01*
X136635000Y-146414000D02*
X138811000Y-148590000D01*
X139446000Y-139573000D02*
X142494000Y-136525000D01*
X139446000Y-139954000D02*
X139446000Y-139573000D01*
X136625500Y-139954000D02*
X136371500Y-139700000D01*
X136371500Y-139700000D02*
X136371500Y-146153500D01*
M02*
