M48
; DRILL file {KiCad (6.0.5)} date Sun Sep 18 19:43:30 2022
; FORMAT={-:-/ absolute / metric / decimal}
; #@! TF.CreationDate,2022-09-18T19:43:30+02:00
; #@! TF.GenerationSoftware,Kicad,Pcbnew,(6.0.5)
; #@! TF.FileFunction,Plated,1,2,PTH
FMAT,2
METRIC
; #@! TA.AperFunction,Plated,PTH,ViaDrill
T1C0.300
; #@! TA.AperFunction,Plated,PTH,ViaDrill
T2C0.400
; #@! TA.AperFunction,Plated,PTH,ComponentDrill
T3C0.600
; #@! TA.AperFunction,Plated,PTH,ComponentDrill
T4C0.800
; #@! TA.AperFunction,Plated,PTH,ComponentDrill
T5C1.000
; #@! TA.AperFunction,Plated,PTH,ComponentDrill
T6C1.100
; #@! TA.AperFunction,Plated,PTH,ComponentDrill
T7C1.295
; #@! TA.AperFunction,Plated,PTH,ComponentDrill
T8C3.200
%
G90
G05
T1
X160.503Y-145.225
X161.607Y-145.225
T2
X133.096Y-139.7
X133.096Y-141.224
X133.096Y-142.748
X148.082Y-139.7
X148.082Y-141.224
X148.082Y-142.748
X153.826Y-148.833
X153.85Y-127.307
X153.85Y-129.212
X155.106Y-150.004
X156.066Y-136.005
X156.324Y-142.862
X157.084Y-136.014
X157.086Y-134.29
X157.356Y-142.844
X157.612Y-140.709
X157.785Y-117.221
X158.983Y-146.301
X159.786Y-139.104
X159.796Y-137.999
X159.805Y-136.882
X160.922Y-136.856
X160.922Y-137.974
X160.927Y-139.104
X161.191Y-134.415
X162.091Y-137.949
X162.106Y-139.174
X162.116Y-136.856
X163.6Y-146.3
X164.021Y-141.901
X165.385Y-133.014
X165.773Y-142.811
X166.738Y-143.116
X168.1Y-136.1
X168.961Y-134.214
X169.177Y-145.301
X169.659Y-144.412
X170.18Y-127.127
X170.193Y-143.497
X170.266Y-129.591
X170.561Y-119.507
X171.196Y-146.812
X171.5Y-136.3
X171.831Y-120.015
X172.212Y-146.812
X173.101Y-120.65
X173.228Y-146.812
X173.99Y-114.046
X174.371Y-120.777
X175.721Y-121.078
X181.204Y-120.091
X181.204Y-121.615
X182.181Y-134.861
X182.181Y-136.741
X182.181Y-138.62
X182.626Y-120.142
X182.728Y-121.615
X183.172Y-135.852
X183.172Y-137.731
X184.518Y-140.653
X184.6Y-132.27
X185.407Y-139.713
X185.56Y-133.312
X186.398Y-140.653
X186.5Y-132.27
X187.338Y-139.713
X187.49Y-133.312
X188.087Y-125.857
X188.278Y-140.653
X188.4Y-132.27
X189.6Y-135.826
X189.6Y-137.7
X190.5Y-134.9
X190.5Y-136.766
X190.5Y-138.7
X190.754Y-124.587
X190.837Y-130.523
X191.732Y-124.587
X192.278Y-121.539
X192.583Y-120.04
X192.672Y-124.587
X193.446Y-120.04
X193.856Y-144.344
X193.865Y-130.645
X193.929Y-121.539
X194.361Y-124.587
X194.384Y-126.111
T4
X136.001Y-95.206
X139.446Y-139.954
X141.946Y-139.954
X143.501Y-96.84
X154.1Y-84.1
X154.1Y-89.18
X159.0Y-84.06
X159.0Y-89.14
X164.1Y-84.06
X164.1Y-89.14
X169.2Y-84.06
X169.2Y-89.14
X178.092Y-84.01
X178.092Y-89.09
X178.131Y-110.118
X178.131Y-117.738
X180.671Y-110.118
X180.671Y-117.738
X183.07Y-84.01
X183.07Y-89.09
X183.211Y-110.118
X183.211Y-117.738
X185.751Y-110.118
X185.751Y-117.738
X188.1Y-84.01
X188.1Y-89.09
X189.307Y-110.118
X189.307Y-117.738
X191.847Y-110.118
X191.847Y-117.738
X193.129Y-84.01
X193.129Y-89.09
X194.387Y-110.118
X194.387Y-117.738
X196.927Y-110.118
X196.927Y-117.738
T5
X134.132Y-146.414
X136.632Y-146.414
X143.129Y-146.414
X143.536Y-90.364
X143.546Y-85.283
X145.629Y-146.414
X150.558Y-135.585
X150.558Y-138.125
X150.558Y-140.665
X150.558Y-144.539
X150.558Y-147.079
X156.273Y-93.345
X156.273Y-100.965
X156.273Y-111.125
X156.273Y-113.665
X156.464Y-122.174
X159.004Y-122.174
X161.099Y-93.345
X161.099Y-100.965
X161.099Y-111.125
X161.099Y-113.665
X161.544Y-122.174
X164.084Y-122.174
X165.925Y-93.345
X165.925Y-100.965
X165.925Y-111.125
X165.925Y-113.665
X170.701Y-141.719
X170.878Y-93.345
X170.878Y-100.965
X170.878Y-111.125
X170.878Y-113.665
X173.177Y-128.118
X173.177Y-130.658
X173.241Y-141.719
X179.08Y-124.537
X181.62Y-124.537
X184.16Y-124.537
X184.442Y-149.161
X186.7Y-124.537
X186.982Y-149.161
T6
X129.136Y-105.0
X129.136Y-125.0
X139.954Y-134.874
X142.494Y-134.874
X145.034Y-134.874
X149.136Y-110.0
X149.136Y-120.0
T7
X140.5Y-70.777
X140.5Y-78.977
X145.5Y-70.777
X145.5Y-78.977
X154.147Y-70.754
X154.147Y-78.953
X159.147Y-70.754
X159.147Y-78.953
X164.147Y-70.754
X164.147Y-78.953
X169.147Y-70.754
X169.147Y-78.953
X178.106Y-70.713
X178.106Y-78.913
X183.106Y-70.713
X183.106Y-78.913
X188.106Y-70.713
X188.106Y-78.913
X193.106Y-70.713
X193.106Y-78.913
T8
X132.27Y-85.407
X132.27Y-135.407
X198.564Y-85.407
T3
G00X156.953Y-144.321
M15
G01X156.953Y-145.421
M16
G05
G00X156.953Y-148.751
M15
G01X156.953Y-149.351
M16
G05
G00X165.593Y-144.321
M15
G01X165.593Y-145.421
M16
G05
G00X165.593Y-148.751
M15
G01X165.593Y-149.351
M16
G05
T0
M30
