G04 #@! TF.GenerationSoftware,KiCad,Pcbnew,(6.0.5)*
G04 #@! TF.CreationDate,2022-09-18T19:28:19+02:00*
G04 #@! TF.ProjectId,hamodule,68616d6f-6475-46c6-952e-6b696361645f,rev?*
G04 #@! TF.SameCoordinates,Original*
G04 #@! TF.FileFunction,Copper,L2,Bot*
G04 #@! TF.FilePolarity,Positive*
%FSLAX46Y46*%
G04 Gerber Fmt 4.6, Leading zero omitted, Abs format (unit mm)*
G04 Created by KiCad (PCBNEW (6.0.5)) date 2022-09-18 19:28:19*
%MOMM*%
%LPD*%
G01*
G04 APERTURE LIST*
G04 Aperture macros list*
%AMRoundRect*
0 Rectangle with rounded corners*
0 $1 Rounding radius*
0 $2 $3 $4 $5 $6 $7 $8 $9 X,Y pos of 4 corners*
0 Add a 4 corners polygon primitive as box body*
4,1,4,$2,$3,$4,$5,$6,$7,$8,$9,$2,$3,0*
0 Add four circle primitives for the rounded corners*
1,1,$1+$1,$2,$3*
1,1,$1+$1,$4,$5*
1,1,$1+$1,$6,$7*
1,1,$1+$1,$8,$9*
0 Add four rect primitives between the rounded corners*
20,1,$1+$1,$2,$3,$4,$5,0*
20,1,$1+$1,$4,$5,$6,$7,0*
20,1,$1+$1,$6,$7,$8,$9,0*
20,1,$1+$1,$8,$9,$2,$3,0*%
G04 Aperture macros list end*
G04 #@! TA.AperFunction,ComponentPad*
%ADD10R,1.700000X1.700000*%
G04 #@! TD*
G04 #@! TA.AperFunction,ComponentPad*
%ADD11O,1.700000X1.700000*%
G04 #@! TD*
G04 #@! TA.AperFunction,ComponentPad*
%ADD12C,1.800000*%
G04 #@! TD*
G04 #@! TA.AperFunction,ComponentPad*
%ADD13RoundRect,0.250000X-0.600000X-0.750000X0.600000X-0.750000X0.600000X0.750000X-0.600000X0.750000X0*%
G04 #@! TD*
G04 #@! TA.AperFunction,ComponentPad*
%ADD14O,1.700000X2.000000*%
G04 #@! TD*
G04 #@! TA.AperFunction,ComponentPad*
%ADD15R,1.650000X1.650000*%
G04 #@! TD*
G04 #@! TA.AperFunction,ComponentPad*
%ADD16C,1.650000*%
G04 #@! TD*
G04 #@! TA.AperFunction,ComponentPad*
%ADD17R,1.905000X2.000000*%
G04 #@! TD*
G04 #@! TA.AperFunction,ComponentPad*
%ADD18O,1.905000X2.000000*%
G04 #@! TD*
G04 #@! TA.AperFunction,ComponentPad*
%ADD19RoundRect,0.625000X0.625000X0.625000X-0.625000X0.625000X-0.625000X-0.625000X0.625000X-0.625000X0*%
G04 #@! TD*
G04 #@! TA.AperFunction,ComponentPad*
%ADD20C,2.000000*%
G04 #@! TD*
G04 #@! TA.AperFunction,ComponentPad*
%ADD21C,5.500000*%
G04 #@! TD*
G04 #@! TA.AperFunction,ComponentPad*
%ADD22R,1.600000X2.400000*%
G04 #@! TD*
G04 #@! TA.AperFunction,ComponentPad*
%ADD23O,1.600000X2.400000*%
G04 #@! TD*
G04 #@! TA.AperFunction,ComponentPad*
%ADD24O,1.000000X2.100000*%
G04 #@! TD*
G04 #@! TA.AperFunction,ComponentPad*
%ADD25O,1.000000X1.600000*%
G04 #@! TD*
G04 #@! TA.AperFunction,ComponentPad*
%ADD26R,2.000000X2.000000*%
G04 #@! TD*
G04 #@! TA.AperFunction,ComponentPad*
%ADD27R,1.600000X1.600000*%
G04 #@! TD*
G04 #@! TA.AperFunction,ComponentPad*
%ADD28C,1.600000*%
G04 #@! TD*
G04 #@! TA.AperFunction,SMDPad,CuDef*
%ADD29C,2.000000*%
G04 #@! TD*
G04 #@! TA.AperFunction,ViaPad*
%ADD30C,0.800000*%
G04 #@! TD*
G04 #@! TA.AperFunction,ViaPad*
%ADD31C,0.500000*%
G04 #@! TD*
G04 #@! TA.AperFunction,Conductor*
%ADD32C,3.000000*%
G04 #@! TD*
G04 #@! TA.AperFunction,Conductor*
%ADD33C,1.500000*%
G04 #@! TD*
G04 #@! TA.AperFunction,Conductor*
%ADD34C,1.000000*%
G04 #@! TD*
G04 #@! TA.AperFunction,Conductor*
%ADD35C,0.600000*%
G04 #@! TD*
G04 #@! TA.AperFunction,Conductor*
%ADD36C,0.400000*%
G04 #@! TD*
G04 #@! TA.AperFunction,Conductor*
%ADD37C,2.000000*%
G04 #@! TD*
G04 #@! TA.AperFunction,Conductor*
%ADD38C,0.250000*%
G04 #@! TD*
G04 APERTURE END LIST*
G36*
X179371500Y-102203000D02*
G01*
X177371500Y-102203000D01*
X177371500Y-98203000D01*
X179371500Y-98203000D01*
X179371500Y-102203000D01*
G37*
D10*
X150558500Y-144538700D03*
D11*
X150558500Y-147078700D03*
D12*
X136000800Y-95206450D03*
X143500800Y-96839780D03*
D13*
X143129000Y-146414000D03*
D14*
X145629000Y-146414000D03*
D15*
X129136100Y-105000000D03*
D16*
X129136100Y-125000000D03*
X149136100Y-120000000D03*
X149136100Y-110000000D03*
D17*
X139954000Y-134874000D03*
D18*
X142494000Y-134874000D03*
X145034000Y-134874000D03*
D19*
X169146500Y-78953500D03*
X169146500Y-70753501D03*
X164146500Y-78953500D03*
X164146500Y-70753501D03*
X159146500Y-78953500D03*
X159146500Y-70753501D03*
X154146500Y-78953500D03*
X154146500Y-70753501D03*
X145500100Y-78977099D03*
X145500100Y-70777100D03*
X140500100Y-78977099D03*
X140500100Y-70777100D03*
X193106500Y-78913499D03*
X193106500Y-70713500D03*
X188106500Y-78913499D03*
X188106500Y-70713500D03*
X183106500Y-78913499D03*
X183106500Y-70713500D03*
X178106500Y-78913499D03*
X178106500Y-70713500D03*
D20*
X143546500Y-85283500D03*
X143536500Y-90363500D03*
D21*
X198564500Y-85407500D03*
X132270500Y-85407500D03*
D22*
X185751274Y-110118320D03*
D23*
X183211274Y-110118320D03*
X180671274Y-110118320D03*
X178131274Y-110118320D03*
X178131274Y-117738320D03*
X180671274Y-117738320D03*
X183211274Y-117738320D03*
X185751274Y-117738320D03*
D22*
X196927274Y-110118320D03*
D23*
X194387274Y-110118320D03*
X191847274Y-110118320D03*
X189307274Y-110118320D03*
X189307274Y-117738320D03*
X191847274Y-117738320D03*
X194387274Y-117738320D03*
X196927274Y-117738320D03*
D13*
X134132000Y-146414000D03*
D14*
X136632000Y-146414000D03*
D10*
X179080000Y-124536600D03*
D11*
X181620000Y-124536600D03*
X184160000Y-124536600D03*
X186700000Y-124536600D03*
D10*
X184442100Y-149161500D03*
D11*
X186982100Y-149161500D03*
D10*
X150558500Y-140665200D03*
D11*
X150558500Y-138125200D03*
X150558500Y-135585200D03*
D10*
X173177200Y-130657600D03*
D11*
X173177200Y-128117600D03*
D12*
X183070500Y-89090500D03*
X183070500Y-84010500D03*
X193128900Y-89090500D03*
X193128900Y-84010500D03*
D10*
X170700700Y-141719300D03*
D11*
X173240700Y-141719300D03*
D12*
X154100000Y-89180000D03*
X154100000Y-84100000D03*
D24*
X165593000Y-144870900D03*
D25*
X156953000Y-149050900D03*
D24*
X156953000Y-144870900D03*
D25*
X165593000Y-149050900D03*
D12*
X188099700Y-89090500D03*
X188099700Y-84010500D03*
D26*
X156273000Y-113665000D03*
D20*
X156273000Y-111125000D03*
X156273000Y-100965000D03*
X156273000Y-93345000D03*
D26*
X161099000Y-113665000D03*
D20*
X161099000Y-111125000D03*
X161099000Y-100965000D03*
X161099000Y-93345000D03*
D12*
X164100000Y-89140000D03*
X164100000Y-84060000D03*
D26*
X170878000Y-113665000D03*
D20*
X170878000Y-111125000D03*
X170878000Y-100965000D03*
X170878000Y-93345000D03*
D26*
X165925000Y-113665000D03*
D20*
X165925000Y-111125000D03*
X165925000Y-100965000D03*
X165925000Y-93345000D03*
D27*
X139446000Y-139954000D03*
D28*
X141946000Y-139954000D03*
D12*
X178092100Y-89090500D03*
X178092100Y-84010500D03*
X169200000Y-89140000D03*
X169200000Y-84060000D03*
D10*
X164084000Y-122174000D03*
D11*
X161544000Y-122174000D03*
X159004000Y-122174000D03*
X156464000Y-122174000D03*
D21*
X132270500Y-135407500D03*
D12*
X159000000Y-89140000D03*
X159000000Y-84060000D03*
D29*
X178371500Y-98203000D03*
X178371500Y-102203000D03*
D30*
X175720511Y-121078489D03*
X190754000Y-124587000D03*
X191731900Y-124587000D03*
X192671700Y-124587000D03*
X165385120Y-133014080D03*
X170561000Y-119507000D03*
X171831000Y-120015000D03*
X173101000Y-120650000D03*
X174371000Y-120777000D03*
X190836500Y-130523500D03*
X168960800Y-134213600D03*
D31*
X160503000Y-145224500D03*
X161607500Y-145224500D03*
D30*
X161190841Y-134414889D03*
X170192700Y-143497300D03*
X157085817Y-134289917D03*
X158983000Y-146300784D03*
X163600000Y-146300000D03*
X183172100Y-135851900D03*
X185407300Y-139712700D03*
X187337700Y-139712700D03*
X185559700Y-133311900D03*
X194360800Y-124587000D03*
X182626000Y-120142000D03*
X190500000Y-136766300D03*
X162116300Y-136856500D03*
X160926500Y-139103900D03*
X148082000Y-141224000D03*
X148082000Y-139700000D03*
X188400000Y-132270500D03*
X157356500Y-142843500D03*
X186500000Y-132270500D03*
X181203600Y-120091200D03*
X193446400Y-120040400D03*
X182181500Y-136740900D03*
X193929000Y-121539000D03*
X159786500Y-139103900D03*
X194384000Y-126111000D03*
X192582800Y-120040400D03*
X188087000Y-125857000D03*
X155106500Y-150003500D03*
X162106500Y-139173900D03*
X193856500Y-144343500D03*
X184518300Y-140652500D03*
X171500000Y-136300000D03*
X133096000Y-142748000D03*
X172212000Y-146812000D03*
X153850000Y-127307000D03*
X182727600Y-121615200D03*
X133096000Y-139700000D03*
X193865500Y-130644900D03*
X157784800Y-117221000D03*
X166738300Y-143116300D03*
X159796500Y-137999500D03*
X160922500Y-137974100D03*
X160922500Y-136856500D03*
X173228000Y-146812000D03*
X189600000Y-135826500D03*
X189600000Y-137700000D03*
X187490100Y-133311900D03*
X188277500Y-140652500D03*
X157612099Y-140708899D03*
X192278000Y-121539000D03*
X133096000Y-141224000D03*
X148082000Y-142748000D03*
X181203600Y-121615200D03*
X171196000Y-146812000D03*
X184600000Y-132270500D03*
X153850000Y-129212000D03*
X168100000Y-136100000D03*
X156324300Y-142862300D03*
X170180000Y-127127000D03*
X182181500Y-138620500D03*
X153826500Y-148833500D03*
X159804900Y-136881900D03*
X182181500Y-134861300D03*
X165773100Y-142811500D03*
X164021100Y-141900900D03*
X183172100Y-137731500D03*
X190500000Y-134900000D03*
X190500000Y-138700000D03*
X173990000Y-114046000D03*
X186397900Y-140652500D03*
X170266500Y-129590800D03*
X162090900Y-137948700D03*
X157083980Y-136013900D03*
X169176700Y-145300700D03*
X169659300Y-144411700D03*
X156066500Y-136005500D03*
D32*
X138020011Y-81457188D02*
X140500100Y-78977099D01*
X138020011Y-87789027D02*
X138020011Y-81457188D01*
X136000800Y-89808238D02*
X138020011Y-87789027D01*
X136000800Y-95206450D02*
X136000800Y-89808238D01*
D33*
X175720511Y-121078489D02*
X175720511Y-116538511D01*
X180671274Y-104502774D02*
X180562500Y-104394000D01*
X180671274Y-110118320D02*
X180671274Y-104502774D01*
X183211274Y-104598274D02*
X183007000Y-104394000D01*
X183007000Y-104394000D02*
X191770000Y-104394000D01*
X183211274Y-110118320D02*
X183211274Y-104598274D01*
X180562500Y-104394000D02*
X183007000Y-104394000D01*
X191847274Y-110118320D02*
X191847274Y-104471274D01*
X191847274Y-104471274D02*
X191770000Y-104394000D01*
X191770000Y-104394000D02*
X192913000Y-104394000D01*
X194387274Y-105868274D02*
X194387274Y-110118320D01*
X192913000Y-104394000D02*
X194387274Y-105868274D01*
X178371500Y-102203000D02*
X180562500Y-104394000D01*
D34*
X180671274Y-117738320D02*
X183230633Y-117738320D01*
X192669538Y-124434582D02*
X192671700Y-124432420D01*
D33*
X150558500Y-144538700D02*
X154308395Y-140788805D01*
D34*
X190728582Y-124434582D02*
X190728582Y-126085582D01*
D33*
X191731900Y-125372220D02*
X191731900Y-124587000D01*
X189516609Y-127587511D02*
X191731900Y-125372220D01*
D34*
X183230633Y-117738320D02*
X185253313Y-119761000D01*
X190728582Y-126085582D02*
X190873560Y-126230560D01*
D35*
X193675000Y-122809000D02*
X194818000Y-122809000D01*
X194818000Y-122809000D02*
X195580000Y-122047000D01*
D33*
X156603147Y-132864089D02*
X179371379Y-132864089D01*
D34*
X194387274Y-117738320D02*
X191847274Y-117738320D01*
D35*
X192671700Y-124587000D02*
X192671700Y-123812300D01*
X195580000Y-122047000D02*
X195580000Y-118931046D01*
D34*
X189824594Y-119761000D02*
X191847274Y-117738320D01*
D33*
X179371379Y-132864089D02*
X184647957Y-127587511D01*
D34*
X192671700Y-124587000D02*
X192517120Y-124587000D01*
D33*
X184647957Y-127587511D02*
X189516609Y-127587511D01*
X154308395Y-135158841D02*
X156603147Y-132864089D01*
X154308395Y-140788805D02*
X154308395Y-135158841D01*
D35*
X192671700Y-123812300D02*
X193675000Y-122809000D01*
D34*
X185253313Y-119761000D02*
X189824594Y-119761000D01*
X192517120Y-124587000D02*
X191731900Y-125372220D01*
D35*
X195580000Y-118931046D02*
X194387274Y-117738320D01*
D36*
X156464000Y-122022000D02*
X158912551Y-119573449D01*
X158912551Y-119573449D02*
X170494551Y-119573449D01*
X170494551Y-119573449D02*
X170561000Y-119507000D01*
X160719489Y-120306511D02*
X159004000Y-122022000D01*
X171831000Y-120015000D02*
X171539489Y-120306511D01*
X171539489Y-120306511D02*
X160719489Y-120306511D01*
X173101000Y-120650000D02*
X172844969Y-120906031D01*
X162659969Y-120906031D02*
X161544000Y-122022000D01*
X172844969Y-120906031D02*
X162659969Y-120906031D01*
X166082551Y-121505551D02*
X164752449Y-121505551D01*
X173642449Y-121505551D02*
X166082551Y-121505551D01*
X174371000Y-120777000D02*
X173642449Y-121505551D01*
X164752449Y-121505551D02*
X164084000Y-122174000D01*
D32*
X140500100Y-70777100D02*
X140500100Y-75018900D01*
X136000800Y-95206450D02*
X136000800Y-98135300D01*
D37*
X147210639Y-75018900D02*
X150396980Y-78205241D01*
X140500100Y-75018900D02*
X147210639Y-75018900D01*
X153695454Y-96844511D02*
X176854511Y-96844511D01*
D32*
X140500100Y-75018900D02*
X140500100Y-78977099D01*
D37*
X176854511Y-96844511D02*
X178371500Y-98361500D01*
D32*
X136000800Y-98135300D02*
X129136100Y-105000000D01*
D37*
X150396980Y-78205241D02*
X150396980Y-93546037D01*
X150396980Y-93546037D02*
X153695454Y-96844511D01*
D35*
X183479056Y-130523500D02*
X179788956Y-134213600D01*
X179788956Y-134213600D02*
X168960800Y-134213600D01*
X190836500Y-130523500D02*
X183479056Y-130523500D01*
D38*
X160503000Y-145224500D02*
X161607500Y-145224500D01*
D36*
X164567900Y-134694900D02*
X164391400Y-134518400D01*
X161188400Y-134417330D02*
X161190841Y-134414889D01*
X164391400Y-134518400D02*
X161188400Y-134518400D01*
X169583100Y-143497300D02*
X170192700Y-143497300D01*
X169125900Y-143040100D02*
X169583100Y-143497300D01*
X169125900Y-139252900D02*
X169125900Y-143040100D01*
X164567900Y-134694900D02*
X169125900Y-139252900D01*
X161188400Y-134518400D02*
X158292800Y-134518400D01*
X157314300Y-134518400D02*
X157085817Y-134289917D01*
X158292800Y-134518400D02*
X157314300Y-134518400D01*
X161188400Y-134518400D02*
X161188400Y-134417330D01*
X159300000Y-147800000D02*
X163200000Y-147800000D01*
X163200000Y-147800000D02*
X163543000Y-147457000D01*
X158983000Y-147483000D02*
X159300000Y-147800000D01*
X163543000Y-147457000D02*
X163543000Y-146300900D01*
X158983000Y-146300784D02*
X158983000Y-147483000D01*
D33*
X174094919Y-111584893D02*
X171603026Y-109093000D01*
X175720511Y-116538511D02*
X174094919Y-114912919D01*
X171603026Y-109093000D02*
X150043100Y-109093000D01*
X174094919Y-114912919D02*
X174094919Y-111584893D01*
X150043100Y-109093000D02*
X149136100Y-110000000D01*
D36*
X163774375Y-135818625D02*
X167926860Y-139971110D01*
X157083980Y-136013900D02*
X157279255Y-135818625D01*
X167926860Y-139971110D02*
X167926860Y-144050860D01*
X167926860Y-144050860D02*
X169176700Y-145300700D01*
X157279255Y-135818625D02*
X163774375Y-135818625D01*
X169598850Y-144360900D02*
X169710100Y-144360900D01*
X156066500Y-136005500D02*
X156066500Y-135900700D01*
X156752811Y-135214389D02*
X164017989Y-135214389D01*
X164017989Y-135214389D02*
X168526380Y-139722780D01*
X168526380Y-143288430D02*
X169649650Y-144411700D01*
X169649650Y-144411700D02*
X169659300Y-144411700D01*
X168526380Y-139722780D02*
X168526380Y-143288430D01*
X156066500Y-135900700D02*
X156752811Y-135214389D01*
D34*
X156953000Y-144870900D02*
X156953000Y-149050900D01*
X165593000Y-149050900D02*
X165593000Y-144870900D01*
G04 #@! TA.AperFunction,Conductor*
G36*
X150943109Y-108351502D02*
G01*
X150989602Y-108405158D01*
X151000988Y-108457699D01*
X150989119Y-115946538D01*
X155134205Y-115955137D01*
X172834656Y-115991857D01*
X172902735Y-116012001D01*
X172949117Y-116065753D01*
X172960395Y-116117580D01*
X172967802Y-119483774D01*
X172968161Y-119647129D01*
X172948309Y-119715293D01*
X172894755Y-119761904D01*
X172868358Y-119770653D01*
X172828265Y-119779175D01*
X172757474Y-119773773D01*
X172700841Y-119730956D01*
X172682235Y-119694865D01*
X172667568Y-119649725D01*
X172667567Y-119649724D01*
X172665527Y-119643444D01*
X172570040Y-119478056D01*
X172533784Y-119437789D01*
X172446675Y-119341045D01*
X172446674Y-119341044D01*
X172442253Y-119336134D01*
X172287752Y-119223882D01*
X172281724Y-119221198D01*
X172281722Y-119221197D01*
X172119319Y-119148891D01*
X172119318Y-119148891D01*
X172113288Y-119146206D01*
X172006630Y-119123535D01*
X171932944Y-119107872D01*
X171932939Y-119107872D01*
X171926487Y-119106500D01*
X171735513Y-119106500D01*
X171729061Y-119107872D01*
X171729056Y-119107872D01*
X171612737Y-119132597D01*
X171548712Y-119146206D01*
X171542679Y-119148892D01*
X171542676Y-119148893D01*
X171535438Y-119152116D01*
X171465071Y-119161551D01*
X171400774Y-119131445D01*
X171375069Y-119100010D01*
X171342595Y-119043763D01*
X171300040Y-118970056D01*
X171294368Y-118963756D01*
X171176675Y-118833045D01*
X171176674Y-118833044D01*
X171172253Y-118828134D01*
X171017752Y-118715882D01*
X171011724Y-118713198D01*
X171011722Y-118713197D01*
X170849319Y-118640891D01*
X170849318Y-118640891D01*
X170843288Y-118638206D01*
X170749888Y-118618353D01*
X170662944Y-118599872D01*
X170662939Y-118599872D01*
X170656487Y-118598500D01*
X170465513Y-118598500D01*
X170459061Y-118599872D01*
X170459056Y-118599872D01*
X170372112Y-118618353D01*
X170278712Y-118638206D01*
X170272682Y-118640891D01*
X170272681Y-118640891D01*
X170110278Y-118713197D01*
X170110276Y-118713198D01*
X170104248Y-118715882D01*
X170098907Y-118719762D01*
X170098906Y-118719763D01*
X169995257Y-118795069D01*
X169949747Y-118828134D01*
X169945665Y-118832668D01*
X169881824Y-118863303D01*
X169861524Y-118864949D01*
X158941463Y-118864949D01*
X158932893Y-118864657D01*
X158882775Y-118861240D01*
X158882771Y-118861240D01*
X158875199Y-118860724D01*
X158867722Y-118862029D01*
X158867721Y-118862029D01*
X158841243Y-118866650D01*
X158812248Y-118871711D01*
X158805730Y-118872672D01*
X158742309Y-118880347D01*
X158735208Y-118883030D01*
X158732599Y-118883671D01*
X158716289Y-118888134D01*
X158713753Y-118888899D01*
X158706267Y-118890206D01*
X158699310Y-118893260D01*
X158647756Y-118915891D01*
X158641652Y-118918382D01*
X158581895Y-118940962D01*
X158575632Y-118945266D01*
X158573266Y-118946503D01*
X158558454Y-118954748D01*
X158556200Y-118956081D01*
X158549246Y-118959134D01*
X158498549Y-118998036D01*
X158493219Y-119001908D01*
X158446831Y-119033788D01*
X158446826Y-119033793D01*
X158440570Y-119038092D01*
X158435519Y-119043762D01*
X158435517Y-119043763D01*
X158399116Y-119084619D01*
X158394135Y-119089895D01*
X156702209Y-120781821D01*
X156639897Y-120815847D01*
X156601260Y-120818167D01*
X156597364Y-120817799D01*
X156592284Y-120816894D01*
X156526174Y-120816086D01*
X156374081Y-120814228D01*
X156374079Y-120814228D01*
X156368911Y-120814165D01*
X156148091Y-120847955D01*
X155935756Y-120917357D01*
X155737607Y-121020507D01*
X155733474Y-121023610D01*
X155733471Y-121023612D01*
X155726853Y-121028581D01*
X155558965Y-121154635D01*
X155404629Y-121316138D01*
X155401715Y-121320410D01*
X155401714Y-121320411D01*
X155316556Y-121445249D01*
X155278743Y-121500680D01*
X155231716Y-121601992D01*
X155192953Y-121685500D01*
X155184688Y-121703305D01*
X155124989Y-121918570D01*
X155101251Y-122140695D01*
X155101548Y-122145848D01*
X155101548Y-122145851D01*
X155110246Y-122296696D01*
X155114110Y-122363715D01*
X155115247Y-122368761D01*
X155115248Y-122368767D01*
X155130613Y-122436945D01*
X155163222Y-122581639D01*
X155247266Y-122788616D01*
X155284685Y-122849678D01*
X155361291Y-122974688D01*
X155363987Y-122979088D01*
X155510250Y-123147938D01*
X155682126Y-123290632D01*
X155875000Y-123403338D01*
X155879825Y-123405180D01*
X155879826Y-123405181D01*
X155910573Y-123416922D01*
X156083692Y-123483030D01*
X156088760Y-123484061D01*
X156088763Y-123484062D01*
X156156519Y-123497847D01*
X156302597Y-123527567D01*
X156307772Y-123527757D01*
X156307774Y-123527757D01*
X156520673Y-123535564D01*
X156520677Y-123535564D01*
X156525837Y-123535753D01*
X156530957Y-123535097D01*
X156530959Y-123535097D01*
X156742288Y-123508025D01*
X156742289Y-123508025D01*
X156747416Y-123507368D01*
X156752366Y-123505883D01*
X156956429Y-123444661D01*
X156956434Y-123444659D01*
X156961384Y-123443174D01*
X157161994Y-123344896D01*
X157343860Y-123215173D01*
X157371501Y-123187629D01*
X157444478Y-123114906D01*
X157502096Y-123057489D01*
X157561594Y-122974689D01*
X157632453Y-122876077D01*
X157633776Y-122877028D01*
X157680645Y-122833857D01*
X157750580Y-122821625D01*
X157816026Y-122849144D01*
X157843875Y-122880994D01*
X157903987Y-122979088D01*
X158050250Y-123147938D01*
X158222126Y-123290632D01*
X158415000Y-123403338D01*
X158419825Y-123405180D01*
X158419826Y-123405181D01*
X158450573Y-123416922D01*
X158623692Y-123483030D01*
X158628760Y-123484061D01*
X158628763Y-123484062D01*
X158696519Y-123497847D01*
X158842597Y-123527567D01*
X158847772Y-123527757D01*
X158847774Y-123527757D01*
X159060673Y-123535564D01*
X159060677Y-123535564D01*
X159065837Y-123535753D01*
X159070957Y-123535097D01*
X159070959Y-123535097D01*
X159282288Y-123508025D01*
X159282289Y-123508025D01*
X159287416Y-123507368D01*
X159292366Y-123505883D01*
X159496429Y-123444661D01*
X159496434Y-123444659D01*
X159501384Y-123443174D01*
X159701994Y-123344896D01*
X159883860Y-123215173D01*
X159911501Y-123187629D01*
X159984478Y-123114906D01*
X160042096Y-123057489D01*
X160101594Y-122974689D01*
X160172453Y-122876077D01*
X160173776Y-122877028D01*
X160220645Y-122833857D01*
X160290580Y-122821625D01*
X160356026Y-122849144D01*
X160383875Y-122880994D01*
X160443987Y-122979088D01*
X160590250Y-123147938D01*
X160762126Y-123290632D01*
X160955000Y-123403338D01*
X160959825Y-123405180D01*
X160959826Y-123405181D01*
X160990573Y-123416922D01*
X161163692Y-123483030D01*
X161168760Y-123484061D01*
X161168763Y-123484062D01*
X161236519Y-123497847D01*
X161382597Y-123527567D01*
X161387772Y-123527757D01*
X161387774Y-123527757D01*
X161600673Y-123535564D01*
X161600677Y-123535564D01*
X161605837Y-123535753D01*
X161610957Y-123535097D01*
X161610959Y-123535097D01*
X161822288Y-123508025D01*
X161822289Y-123508025D01*
X161827416Y-123507368D01*
X161832366Y-123505883D01*
X162036429Y-123444661D01*
X162036434Y-123444659D01*
X162041384Y-123443174D01*
X162241994Y-123344896D01*
X162423860Y-123215173D01*
X162532091Y-123107319D01*
X162594462Y-123073404D01*
X162665268Y-123078592D01*
X162722030Y-123121238D01*
X162739012Y-123152341D01*
X162764525Y-123220395D01*
X162783385Y-123270705D01*
X162870739Y-123387261D01*
X162987295Y-123474615D01*
X163123684Y-123525745D01*
X163185866Y-123532500D01*
X164982134Y-123532500D01*
X165044316Y-123525745D01*
X165180705Y-123474615D01*
X165297261Y-123387261D01*
X165384615Y-123270705D01*
X165435745Y-123134316D01*
X165442500Y-123072134D01*
X165442500Y-122340051D01*
X165462502Y-122271930D01*
X165516158Y-122225437D01*
X165568500Y-122214051D01*
X172859478Y-122214051D01*
X172927599Y-122234053D01*
X172973970Y-122287569D01*
X172974000Y-122301000D01*
X176911000Y-122301000D01*
X176911000Y-119251107D01*
X176931002Y-119182986D01*
X176984658Y-119136493D01*
X177036904Y-119125107D01*
X177175696Y-119125001D01*
X177219232Y-119124968D01*
X177291596Y-119147754D01*
X177474525Y-119275843D01*
X177479507Y-119278166D01*
X177479512Y-119278169D01*
X177592173Y-119330703D01*
X177682031Y-119372604D01*
X177687339Y-119374026D01*
X177687341Y-119374027D01*
X177897872Y-119430439D01*
X177897874Y-119430439D01*
X177903187Y-119431863D01*
X178131274Y-119451818D01*
X178359361Y-119431863D01*
X178364674Y-119430439D01*
X178364676Y-119430439D01*
X178575207Y-119374027D01*
X178575209Y-119374026D01*
X178580517Y-119372604D01*
X178670375Y-119330703D01*
X178783036Y-119278169D01*
X178783041Y-119278166D01*
X178788023Y-119275843D01*
X178972929Y-119146370D01*
X179045104Y-119123583D01*
X179107773Y-119123535D01*
X179756482Y-119123043D01*
X179828847Y-119145830D01*
X180014525Y-119275843D01*
X180019507Y-119278166D01*
X180019512Y-119278169D01*
X180132173Y-119330703D01*
X180222031Y-119372604D01*
X180227339Y-119374026D01*
X180227341Y-119374027D01*
X180437872Y-119430439D01*
X180437874Y-119430439D01*
X180443187Y-119431863D01*
X180671274Y-119451818D01*
X180899361Y-119431863D01*
X180904674Y-119430439D01*
X180904676Y-119430439D01*
X181115207Y-119374027D01*
X181115209Y-119374026D01*
X181120517Y-119372604D01*
X181210375Y-119330703D01*
X181323036Y-119278169D01*
X181323041Y-119278166D01*
X181328023Y-119275843D01*
X181515574Y-119144518D01*
X181517077Y-119146665D01*
X181572144Y-119122648D01*
X181587842Y-119121654D01*
X182293878Y-119121119D01*
X182362013Y-119141069D01*
X182366882Y-119144650D01*
X182366974Y-119144518D01*
X182554525Y-119275843D01*
X182559507Y-119278166D01*
X182559512Y-119278169D01*
X182672173Y-119330703D01*
X182762031Y-119372604D01*
X182767339Y-119374026D01*
X182767341Y-119374027D01*
X182977872Y-119430439D01*
X182977874Y-119430439D01*
X182983187Y-119431863D01*
X183211274Y-119451818D01*
X183216749Y-119451339D01*
X183434698Y-119432271D01*
X183504303Y-119446260D01*
X183534775Y-119468697D01*
X184496462Y-120430384D01*
X184505564Y-120440527D01*
X184529281Y-120470025D01*
X184567759Y-120502312D01*
X184571375Y-120505467D01*
X184573201Y-120507123D01*
X184575387Y-120509309D01*
X184577767Y-120511264D01*
X184577777Y-120511273D01*
X184608581Y-120536576D01*
X184609596Y-120537418D01*
X184680787Y-120597154D01*
X184685461Y-120599723D01*
X184689574Y-120603102D01*
X184695011Y-120606017D01*
X184695012Y-120606018D01*
X184771360Y-120646955D01*
X184772490Y-120647568D01*
X184784680Y-120654269D01*
X184812449Y-120669535D01*
X184854100Y-120692433D01*
X184859182Y-120694045D01*
X184863876Y-120696562D01*
X184952844Y-120723762D01*
X184953872Y-120724082D01*
X185042619Y-120752235D01*
X185047915Y-120752829D01*
X185053011Y-120754387D01*
X185145535Y-120763785D01*
X185146655Y-120763905D01*
X185179977Y-120767642D01*
X185193043Y-120769108D01*
X185193047Y-120769108D01*
X185196540Y-120769500D01*
X185200067Y-120769500D01*
X185201070Y-120769556D01*
X185206754Y-120770003D01*
X185232170Y-120772585D01*
X185243649Y-120773751D01*
X185243651Y-120773751D01*
X185249775Y-120774373D01*
X185295414Y-120770059D01*
X185307270Y-120769500D01*
X189762751Y-120769500D01*
X189776358Y-120770237D01*
X189807856Y-120773659D01*
X189807861Y-120773659D01*
X189813982Y-120774324D01*
X189840232Y-120772027D01*
X189863982Y-120769950D01*
X189868808Y-120769621D01*
X189871280Y-120769500D01*
X189874363Y-120769500D01*
X189886332Y-120768326D01*
X189917100Y-120765310D01*
X189918413Y-120765188D01*
X189962678Y-120761315D01*
X190011007Y-120757087D01*
X190016126Y-120755600D01*
X190021427Y-120755080D01*
X190110428Y-120728209D01*
X190111561Y-120727874D01*
X190195008Y-120703630D01*
X190195012Y-120703628D01*
X190200930Y-120701909D01*
X190205662Y-120699456D01*
X190210763Y-120697916D01*
X190217767Y-120694192D01*
X190292854Y-120654269D01*
X190294020Y-120653657D01*
X190371047Y-120613729D01*
X190376520Y-120610892D01*
X190380683Y-120607569D01*
X190385390Y-120605066D01*
X190391732Y-120599894D01*
X190407453Y-120587072D01*
X190457512Y-120546245D01*
X190458368Y-120545554D01*
X190497567Y-120514262D01*
X190500071Y-120511758D01*
X190500789Y-120511116D01*
X190505122Y-120507415D01*
X190538656Y-120480065D01*
X190567882Y-120444737D01*
X190575871Y-120435958D01*
X191541575Y-119470254D01*
X191603887Y-119436228D01*
X191641649Y-119433828D01*
X191847274Y-119451818D01*
X192075361Y-119431863D01*
X192080674Y-119430439D01*
X192080676Y-119430439D01*
X192291207Y-119374027D01*
X192291209Y-119374026D01*
X192296517Y-119372604D01*
X192386375Y-119330703D01*
X192499036Y-119278169D01*
X192499041Y-119278166D01*
X192504023Y-119275843D01*
X192691574Y-119144518D01*
X192693745Y-119142347D01*
X192758092Y-119114182D01*
X192773944Y-119113168D01*
X193459783Y-119112647D01*
X193527918Y-119132597D01*
X193539783Y-119141327D01*
X193542974Y-119144518D01*
X193547476Y-119147670D01*
X193547478Y-119147672D01*
X193596462Y-119181971D01*
X193730525Y-119275843D01*
X193735507Y-119278166D01*
X193735512Y-119278169D01*
X193848173Y-119330703D01*
X193938031Y-119372604D01*
X193943339Y-119374026D01*
X193943341Y-119374027D01*
X194153872Y-119430439D01*
X194153874Y-119430439D01*
X194159187Y-119431863D01*
X194387274Y-119451818D01*
X194615361Y-119431863D01*
X194620673Y-119430440D01*
X194623620Y-119429920D01*
X194694179Y-119437789D01*
X194749283Y-119482556D01*
X194771500Y-119554006D01*
X194771500Y-121659918D01*
X194751498Y-121728039D01*
X194734595Y-121749013D01*
X194520013Y-121963595D01*
X194457701Y-121997621D01*
X194430918Y-122000500D01*
X193684164Y-122000500D01*
X193682845Y-122000493D01*
X193592779Y-121999550D01*
X193585893Y-122001039D01*
X193585891Y-122001039D01*
X193567313Y-122005056D01*
X193550414Y-122008710D01*
X193537835Y-122010770D01*
X193501741Y-122014818D01*
X193501738Y-122014819D01*
X193494745Y-122015603D01*
X193463068Y-122026634D01*
X193448258Y-122030796D01*
X193422378Y-122036391D01*
X193422374Y-122036392D01*
X193415489Y-122037881D01*
X193409105Y-122040858D01*
X193409099Y-122040860D01*
X193376193Y-122056204D01*
X193364384Y-122060999D01*
X193323448Y-122075255D01*
X193317476Y-122078987D01*
X193317469Y-122078990D01*
X193295005Y-122093027D01*
X193281488Y-122100366D01*
X193257481Y-122111561D01*
X193257477Y-122111563D01*
X193251098Y-122114538D01*
X193234504Y-122127410D01*
X193216844Y-122141108D01*
X193206395Y-122148397D01*
X193169624Y-122171374D01*
X193164625Y-122176339D01*
X193164623Y-122176340D01*
X193140815Y-122199983D01*
X193140192Y-122200566D01*
X193139530Y-122201079D01*
X193113680Y-122226929D01*
X193070484Y-122269825D01*
X193040918Y-122299185D01*
X193040258Y-122300225D01*
X193039157Y-122301452D01*
X192106495Y-123234113D01*
X192105558Y-123235040D01*
X192041193Y-123298071D01*
X192040670Y-123297537D01*
X191986586Y-123334618D01*
X191927809Y-123336971D01*
X191927495Y-123339098D01*
X191921951Y-123338279D01*
X191916489Y-123336968D01*
X191832425Y-123332121D01*
X191697817Y-123324360D01*
X191697814Y-123324360D01*
X191692210Y-123324037D01*
X191469185Y-123351025D01*
X191254465Y-123417082D01*
X191153433Y-123469229D01*
X191149453Y-123471283D01*
X191079746Y-123484752D01*
X191054406Y-123479682D01*
X190932350Y-123441900D01*
X190926225Y-123441256D01*
X190926224Y-123441256D01*
X190741786Y-123421871D01*
X190741784Y-123421871D01*
X190735657Y-123421227D01*
X190653158Y-123428735D01*
X190544833Y-123438593D01*
X190544830Y-123438594D01*
X190538694Y-123439152D01*
X190532788Y-123440890D01*
X190532784Y-123440891D01*
X190429521Y-123471283D01*
X190348963Y-123494992D01*
X190343505Y-123497845D01*
X190343501Y-123497847D01*
X190271356Y-123535564D01*
X190173692Y-123586622D01*
X190019557Y-123710550D01*
X189892428Y-123862056D01*
X189889461Y-123867454D01*
X189889457Y-123867459D01*
X189810677Y-124010762D01*
X189797149Y-124035369D01*
X189795288Y-124041236D01*
X189795287Y-124041238D01*
X189775911Y-124102320D01*
X189737347Y-124223888D01*
X189720082Y-124377809D01*
X189720082Y-125552060D01*
X189700080Y-125620181D01*
X189683177Y-125641155D01*
X189032226Y-126292106D01*
X188969914Y-126326132D01*
X188943131Y-126329011D01*
X184739352Y-126329011D01*
X184722905Y-126327933D01*
X184706440Y-126325765D01*
X184706436Y-126325765D01*
X184700870Y-126325032D01*
X184619469Y-126328871D01*
X184613533Y-126329011D01*
X184590958Y-126329011D01*
X184571938Y-126330708D01*
X184564968Y-126331330D01*
X184559706Y-126331689D01*
X184543525Y-126332452D01*
X184476469Y-126335615D01*
X184471010Y-126336865D01*
X184471005Y-126336866D01*
X184458987Y-126339619D01*
X184442058Y-126342300D01*
X184424195Y-126343894D01*
X184418779Y-126345376D01*
X184418777Y-126345376D01*
X184343824Y-126365881D01*
X184338706Y-126367167D01*
X184262957Y-126384516D01*
X184262955Y-126384517D01*
X184257487Y-126385769D01*
X184246987Y-126390248D01*
X184240990Y-126392805D01*
X184224815Y-126398438D01*
X184212918Y-126401693D01*
X184212914Y-126401694D01*
X184207506Y-126403174D01*
X184202440Y-126405590D01*
X184202441Y-126405590D01*
X184132290Y-126439050D01*
X184127481Y-126441221D01*
X184050848Y-126473908D01*
X184035847Y-126483762D01*
X184020932Y-126492165D01*
X184004739Y-126499889D01*
X184000191Y-126503157D01*
X184000186Y-126503160D01*
X183937071Y-126548513D01*
X183932734Y-126551493D01*
X183863082Y-126597246D01*
X183842301Y-126615762D01*
X183832005Y-126624011D01*
X183822303Y-126630982D01*
X183800116Y-126653877D01*
X183747925Y-126707734D01*
X183746536Y-126709144D01*
X178886996Y-131568684D01*
X178824684Y-131602710D01*
X178797901Y-131605589D01*
X174661700Y-131605589D01*
X174593579Y-131585587D01*
X174547086Y-131531931D01*
X174535700Y-131479589D01*
X174535700Y-129759466D01*
X174528945Y-129697284D01*
X174477815Y-129560895D01*
X174390461Y-129444339D01*
X174273905Y-129356985D01*
X174261332Y-129352272D01*
X174155403Y-129312560D01*
X174098639Y-129269918D01*
X174073939Y-129203356D01*
X174089147Y-129134008D01*
X174110693Y-129105327D01*
X174211635Y-129004737D01*
X174215296Y-129001089D01*
X174274794Y-128918289D01*
X174342635Y-128823877D01*
X174345653Y-128819677D01*
X174360690Y-128789253D01*
X174442336Y-128624053D01*
X174442337Y-128624051D01*
X174444630Y-128619411D01*
X174491064Y-128466578D01*
X174508065Y-128410623D01*
X174508065Y-128410621D01*
X174509570Y-128405669D01*
X174538729Y-128184190D01*
X174540356Y-128117600D01*
X174522052Y-127894961D01*
X174467631Y-127678302D01*
X174378554Y-127473440D01*
X174339106Y-127412462D01*
X174260022Y-127290217D01*
X174260020Y-127290214D01*
X174257214Y-127285877D01*
X174106870Y-127120651D01*
X174102819Y-127117452D01*
X174102815Y-127117448D01*
X173935614Y-126985400D01*
X173935610Y-126985398D01*
X173931559Y-126982198D01*
X173735989Y-126874238D01*
X173731120Y-126872514D01*
X173731116Y-126872512D01*
X173530287Y-126801395D01*
X173530283Y-126801394D01*
X173525412Y-126799669D01*
X173520319Y-126798762D01*
X173520316Y-126798761D01*
X173310573Y-126761400D01*
X173310567Y-126761399D01*
X173305484Y-126760494D01*
X173231652Y-126759592D01*
X173087281Y-126757828D01*
X173087279Y-126757828D01*
X173082111Y-126757765D01*
X172861291Y-126791555D01*
X172648956Y-126860957D01*
X172450807Y-126964107D01*
X172446674Y-126967210D01*
X172446671Y-126967212D01*
X172276300Y-127095130D01*
X172272165Y-127098235D01*
X172117829Y-127259738D01*
X171991943Y-127444280D01*
X171897888Y-127646905D01*
X171838189Y-127862170D01*
X171814451Y-128084295D01*
X171814748Y-128089448D01*
X171814748Y-128089451D01*
X171820211Y-128184190D01*
X171827310Y-128307315D01*
X171828447Y-128312361D01*
X171828448Y-128312367D01*
X171848319Y-128400539D01*
X171876422Y-128525239D01*
X171935959Y-128671861D01*
X171948731Y-128703315D01*
X171960466Y-128732216D01*
X172007177Y-128808442D01*
X172032189Y-128849257D01*
X172077187Y-128922688D01*
X172223450Y-129091538D01*
X172227430Y-129094842D01*
X172232181Y-129098787D01*
X172271816Y-129157690D01*
X172273313Y-129228671D01*
X172236197Y-129289193D01*
X172195924Y-129313712D01*
X172080495Y-129356985D01*
X171963939Y-129444339D01*
X171876585Y-129560895D01*
X171825455Y-129697284D01*
X171818700Y-129759466D01*
X171818700Y-131479589D01*
X171798698Y-131547710D01*
X171745042Y-131594203D01*
X171692700Y-131605589D01*
X156694542Y-131605589D01*
X156678095Y-131604511D01*
X156661630Y-131602343D01*
X156661626Y-131602343D01*
X156656060Y-131601610D01*
X156574658Y-131605449D01*
X156568722Y-131605589D01*
X156546148Y-131605589D01*
X156522033Y-131607741D01*
X156520160Y-131607908D01*
X156514897Y-131608267D01*
X156499080Y-131609013D01*
X156431658Y-131612193D01*
X156426195Y-131613444D01*
X156426189Y-131613445D01*
X156414179Y-131616196D01*
X156397247Y-131618878D01*
X156379385Y-131620472D01*
X156373974Y-131621952D01*
X156373970Y-131621953D01*
X156327304Y-131634720D01*
X156298995Y-131642465D01*
X156293897Y-131643745D01*
X156212677Y-131662347D01*
X156207516Y-131664548D01*
X156207517Y-131664548D01*
X156196180Y-131669383D01*
X156180005Y-131675016D01*
X156168108Y-131678271D01*
X156168104Y-131678272D01*
X156162696Y-131679752D01*
X156157630Y-131682168D01*
X156157631Y-131682168D01*
X156087480Y-131715628D01*
X156082671Y-131717799D01*
X156006038Y-131750486D01*
X155991037Y-131760340D01*
X155976122Y-131768743D01*
X155959929Y-131776467D01*
X155955381Y-131779735D01*
X155955376Y-131779738D01*
X155892261Y-131825091D01*
X155887924Y-131828071D01*
X155818272Y-131873824D01*
X155797491Y-131892340D01*
X155787195Y-131900589D01*
X155777493Y-131907560D01*
X155773588Y-131911590D01*
X155703115Y-131984312D01*
X155701726Y-131985722D01*
X153483132Y-134204316D01*
X153470742Y-134215183D01*
X153453103Y-134228718D01*
X153416454Y-134268995D01*
X153398237Y-134289015D01*
X153394138Y-134293310D01*
X153378197Y-134309251D01*
X153376402Y-134311398D01*
X153376400Y-134311400D01*
X153361463Y-134329264D01*
X153357995Y-134333239D01*
X153305683Y-134390729D01*
X153305676Y-134390738D01*
X153301910Y-134394877D01*
X153298933Y-134399623D01*
X153298932Y-134399624D01*
X153292382Y-134410066D01*
X153282306Y-134423934D01*
X153274399Y-134433390D01*
X153274392Y-134433400D01*
X153270801Y-134437695D01*
X153229513Y-134510081D01*
X153226803Y-134514609D01*
X153186492Y-134578871D01*
X153182531Y-134585185D01*
X153180438Y-134590390D01*
X153180437Y-134590393D01*
X153175843Y-134601820D01*
X153168383Y-134617252D01*
X153162275Y-134627960D01*
X153162271Y-134627969D01*
X153159496Y-134632834D01*
X153157627Y-134638111D01*
X153157625Y-134638116D01*
X153131680Y-134711383D01*
X153129815Y-134716319D01*
X153116413Y-134749657D01*
X153098739Y-134793624D01*
X153097603Y-134799111D01*
X153097602Y-134799113D01*
X153095101Y-134811190D01*
X153090496Y-134827685D01*
X153084506Y-134844600D01*
X153071793Y-134922234D01*
X153071038Y-134926842D01*
X153070078Y-134932021D01*
X153068210Y-134941040D01*
X153055295Y-135003407D01*
X153053182Y-135013608D01*
X153052916Y-135018220D01*
X153052916Y-135018221D01*
X153051580Y-135041389D01*
X153050133Y-135054494D01*
X153049109Y-135060751D01*
X153048201Y-135066298D01*
X153048289Y-135071911D01*
X153048289Y-135071913D01*
X153049879Y-135173105D01*
X153049895Y-135175084D01*
X153049895Y-140215327D01*
X153029893Y-140283448D01*
X153012990Y-140304422D01*
X152132095Y-141185317D01*
X152069783Y-141219343D01*
X151998968Y-141214278D01*
X151942132Y-141171731D01*
X151917321Y-141105211D01*
X151917000Y-141096222D01*
X151917000Y-139767066D01*
X151910245Y-139704884D01*
X151859115Y-139568495D01*
X151771761Y-139451939D01*
X151655205Y-139364585D01*
X151642632Y-139359872D01*
X151536703Y-139320160D01*
X151479939Y-139277518D01*
X151455239Y-139210956D01*
X151470447Y-139141608D01*
X151491993Y-139112927D01*
X151532082Y-139072978D01*
X151596596Y-139008689D01*
X151656094Y-138925889D01*
X151723935Y-138831477D01*
X151726953Y-138827277D01*
X151730516Y-138820069D01*
X151823636Y-138631653D01*
X151823637Y-138631651D01*
X151825930Y-138627011D01*
X151890870Y-138413269D01*
X151920029Y-138191790D01*
X151921656Y-138125200D01*
X151903352Y-137902561D01*
X151848931Y-137685902D01*
X151759854Y-137481040D01*
X151690611Y-137374007D01*
X151641322Y-137297817D01*
X151641320Y-137297814D01*
X151638514Y-137293477D01*
X151488170Y-137128251D01*
X151484119Y-137125052D01*
X151484115Y-137125048D01*
X151316914Y-136993000D01*
X151316910Y-136992998D01*
X151312859Y-136989798D01*
X151271553Y-136966996D01*
X151221584Y-136916564D01*
X151206812Y-136847121D01*
X151231928Y-136780716D01*
X151259280Y-136754109D01*
X151303103Y-136722850D01*
X151438360Y-136626373D01*
X151496120Y-136568815D01*
X151537955Y-136527125D01*
X151596596Y-136468689D01*
X151616692Y-136440723D01*
X151723935Y-136291477D01*
X151726953Y-136287277D01*
X151740237Y-136260400D01*
X151823636Y-136091653D01*
X151823637Y-136091651D01*
X151825930Y-136087011D01*
X151890870Y-135873269D01*
X151920029Y-135651790D01*
X151921656Y-135585200D01*
X151903352Y-135362561D01*
X151848931Y-135145902D01*
X151759854Y-134941040D01*
X151701751Y-134851226D01*
X151641322Y-134757817D01*
X151641320Y-134757814D01*
X151638514Y-134753477D01*
X151488170Y-134588251D01*
X151484119Y-134585052D01*
X151484115Y-134585048D01*
X151316914Y-134453000D01*
X151316910Y-134452998D01*
X151312859Y-134449798D01*
X151290935Y-134437695D01*
X151240413Y-134409806D01*
X151117289Y-134341838D01*
X151112420Y-134340114D01*
X151112416Y-134340112D01*
X150911587Y-134268995D01*
X150911583Y-134268994D01*
X150906712Y-134267269D01*
X150901619Y-134266362D01*
X150901616Y-134266361D01*
X150691873Y-134229000D01*
X150691867Y-134228999D01*
X150686784Y-134228094D01*
X150612952Y-134227192D01*
X150468581Y-134225428D01*
X150468579Y-134225428D01*
X150463411Y-134225365D01*
X150242591Y-134259155D01*
X150030256Y-134328557D01*
X149832107Y-134431707D01*
X149827974Y-134434810D01*
X149827971Y-134434812D01*
X149657600Y-134562730D01*
X149653465Y-134565835D01*
X149611460Y-134609791D01*
X149504199Y-134722033D01*
X149499129Y-134727338D01*
X149496215Y-134731610D01*
X149496214Y-134731611D01*
X149415360Y-134850139D01*
X149373243Y-134911880D01*
X149338741Y-134986209D01*
X149293457Y-135083766D01*
X149279188Y-135114505D01*
X149219489Y-135329770D01*
X149195751Y-135551895D01*
X149196048Y-135557048D01*
X149196048Y-135557051D01*
X149201511Y-135651790D01*
X149208610Y-135774915D01*
X149209747Y-135779961D01*
X149209748Y-135779967D01*
X149229619Y-135868139D01*
X149257722Y-135992839D01*
X149341766Y-136199816D01*
X149344465Y-136204220D01*
X149454595Y-136383936D01*
X149458487Y-136390288D01*
X149604750Y-136559138D01*
X149776626Y-136701832D01*
X149847095Y-136743011D01*
X149849945Y-136744676D01*
X149898669Y-136796314D01*
X149911740Y-136866097D01*
X149885009Y-136931869D01*
X149844555Y-136965227D01*
X149832107Y-136971707D01*
X149827974Y-136974810D01*
X149827971Y-136974812D01*
X149657600Y-137102730D01*
X149653465Y-137105835D01*
X149499129Y-137267338D01*
X149373243Y-137451880D01*
X149357503Y-137485790D01*
X149285284Y-137641373D01*
X149279188Y-137654505D01*
X149219489Y-137869770D01*
X149195751Y-138091895D01*
X149196048Y-138097048D01*
X149196048Y-138097051D01*
X149207799Y-138300854D01*
X149208610Y-138314915D01*
X149209747Y-138319961D01*
X149209748Y-138319967D01*
X149229619Y-138408139D01*
X149257722Y-138532839D01*
X149341766Y-138739816D01*
X149387585Y-138814586D01*
X149453558Y-138922244D01*
X149458487Y-138930288D01*
X149604750Y-139099138D01*
X149610595Y-139103991D01*
X149613481Y-139106387D01*
X149653116Y-139165290D01*
X149654613Y-139236271D01*
X149617497Y-139296793D01*
X149577224Y-139321312D01*
X149461795Y-139364585D01*
X149345239Y-139451939D01*
X149257885Y-139568495D01*
X149206755Y-139704884D01*
X149200000Y-139767066D01*
X149200000Y-141563334D01*
X149206755Y-141625516D01*
X149257885Y-141761905D01*
X149345239Y-141878461D01*
X149461795Y-141965815D01*
X149598184Y-142016945D01*
X149660366Y-142023700D01*
X150989522Y-142023700D01*
X151057643Y-142043702D01*
X151104136Y-142097358D01*
X151114240Y-142167632D01*
X151084746Y-142232212D01*
X151078617Y-142238795D01*
X150174117Y-143143295D01*
X150111805Y-143177321D01*
X150085022Y-143180200D01*
X149660366Y-143180200D01*
X149598184Y-143186955D01*
X149461795Y-143238085D01*
X149345239Y-143325439D01*
X149257885Y-143441995D01*
X149206755Y-143578384D01*
X149200000Y-143640566D01*
X149200000Y-145436834D01*
X149206755Y-145499016D01*
X149257885Y-145635405D01*
X149345239Y-145751961D01*
X149461795Y-145839315D01*
X149470204Y-145842467D01*
X149470205Y-145842468D01*
X149578951Y-145883235D01*
X149635716Y-145925876D01*
X149660416Y-145992438D01*
X149645209Y-146061787D01*
X149625816Y-146088268D01*
X149619858Y-146094503D01*
X149510251Y-146209200D01*
X149499129Y-146220838D01*
X149496215Y-146225110D01*
X149496214Y-146225111D01*
X149440650Y-146306565D01*
X149373243Y-146405380D01*
X149279188Y-146608005D01*
X149219489Y-146823270D01*
X149195751Y-147045395D01*
X149196048Y-147050548D01*
X149196048Y-147050551D01*
X149201511Y-147145290D01*
X149208610Y-147268415D01*
X149209747Y-147273461D01*
X149209748Y-147273467D01*
X149229619Y-147361639D01*
X149257722Y-147486339D01*
X149297093Y-147583299D01*
X149329437Y-147662952D01*
X149341766Y-147693316D01*
X149375151Y-147747795D01*
X149450652Y-147871002D01*
X149458487Y-147883788D01*
X149604750Y-148052638D01*
X149776626Y-148195332D01*
X149969500Y-148308038D01*
X149974325Y-148309880D01*
X149974326Y-148309881D01*
X150026429Y-148329777D01*
X150178192Y-148387730D01*
X150183260Y-148388761D01*
X150183263Y-148388762D01*
X150266964Y-148405791D01*
X150397097Y-148432267D01*
X150402272Y-148432457D01*
X150402274Y-148432457D01*
X150615173Y-148440264D01*
X150615177Y-148440264D01*
X150620337Y-148440453D01*
X150625457Y-148439797D01*
X150625459Y-148439797D01*
X150836788Y-148412725D01*
X150836789Y-148412725D01*
X150841916Y-148412068D01*
X150847219Y-148410477D01*
X151050929Y-148349361D01*
X151050934Y-148349359D01*
X151055884Y-148347874D01*
X151256494Y-148249596D01*
X151438360Y-148119873D01*
X151596596Y-147962189D01*
X151601776Y-147954981D01*
X151723935Y-147784977D01*
X151726953Y-147780777D01*
X151734288Y-147765937D01*
X151823636Y-147585153D01*
X151823637Y-147585151D01*
X151825930Y-147580511D01*
X151868736Y-147439620D01*
X151889365Y-147371723D01*
X151889365Y-147371721D01*
X151890870Y-147366769D01*
X151920029Y-147145290D01*
X151920259Y-147135886D01*
X151921574Y-147082065D01*
X151921574Y-147082061D01*
X151921656Y-147078700D01*
X151903352Y-146856061D01*
X151848931Y-146639402D01*
X151759854Y-146434540D01*
X151720406Y-146373562D01*
X151641322Y-146251317D01*
X151641320Y-146251314D01*
X151638514Y-146246977D01*
X151635032Y-146243150D01*
X151491298Y-146085188D01*
X151460246Y-146021342D01*
X151468641Y-145950843D01*
X151513817Y-145896075D01*
X151540261Y-145882406D01*
X151646797Y-145842467D01*
X151655205Y-145839315D01*
X151771761Y-145751961D01*
X151859115Y-145635405D01*
X151910245Y-145499016D01*
X151917000Y-145436834D01*
X151917000Y-145012177D01*
X151937002Y-144944056D01*
X151953905Y-144923082D01*
X155133658Y-141743330D01*
X155146049Y-141732462D01*
X155159243Y-141722338D01*
X155163687Y-141718928D01*
X155218553Y-141658631D01*
X155222652Y-141654336D01*
X155238593Y-141638395D01*
X155255337Y-141618369D01*
X155258796Y-141614404D01*
X155311103Y-141556920D01*
X155311104Y-141556919D01*
X155314880Y-141552769D01*
X155324411Y-141537575D01*
X155334480Y-141523715D01*
X155345988Y-141509952D01*
X155387264Y-141437587D01*
X155389974Y-141433058D01*
X155431280Y-141367210D01*
X155434259Y-141362461D01*
X155440948Y-141345822D01*
X155448407Y-141330392D01*
X155454514Y-141319686D01*
X155454518Y-141319677D01*
X155457293Y-141314812D01*
X155485107Y-141236267D01*
X155486968Y-141231342D01*
X155497713Y-141204615D01*
X155518051Y-141154022D01*
X155521691Y-141136444D01*
X155526297Y-141119951D01*
X155532283Y-141103046D01*
X155533861Y-141093414D01*
X155545747Y-141020828D01*
X155546709Y-141015638D01*
X155548314Y-141007891D01*
X155563608Y-140934038D01*
X155565211Y-140906242D01*
X155566658Y-140893136D01*
X155567681Y-140886891D01*
X155567682Y-140886884D01*
X155568588Y-140881348D01*
X155568321Y-140864316D01*
X155566911Y-140774575D01*
X155566895Y-140772596D01*
X155566895Y-136971562D01*
X155586897Y-136903441D01*
X155640553Y-136856948D01*
X155710827Y-136846844D01*
X155744143Y-136856455D01*
X155778177Y-136871608D01*
X155778185Y-136871611D01*
X155784212Y-136874294D01*
X155877613Y-136894147D01*
X155964556Y-136912628D01*
X155964561Y-136912628D01*
X155971013Y-136914000D01*
X156161987Y-136914000D01*
X156168439Y-136912628D01*
X156168444Y-136912628D01*
X156255387Y-136894147D01*
X156348788Y-136874294D01*
X156354815Y-136871611D01*
X156354823Y-136871608D01*
X156515873Y-136799904D01*
X156586240Y-136790470D01*
X156626847Y-136804741D01*
X156627228Y-136805018D01*
X156633254Y-136807701D01*
X156785907Y-136875666D01*
X156801692Y-136882694D01*
X156895093Y-136902547D01*
X156982036Y-136921028D01*
X156982041Y-136921028D01*
X156988493Y-136922400D01*
X157179467Y-136922400D01*
X157185919Y-136921028D01*
X157185924Y-136921028D01*
X157272867Y-136902547D01*
X157366268Y-136882694D01*
X157372299Y-136880009D01*
X157534702Y-136807703D01*
X157534704Y-136807702D01*
X157540732Y-136805018D01*
X157551851Y-136796940D01*
X157679162Y-136704442D01*
X157695233Y-136692766D01*
X157752314Y-136629371D01*
X157806839Y-136568815D01*
X157867285Y-136531575D01*
X157900475Y-136527125D01*
X163428715Y-136527125D01*
X163496836Y-136547127D01*
X163517810Y-136564030D01*
X167181455Y-140227675D01*
X167215481Y-140289987D01*
X167218360Y-140316770D01*
X167218360Y-144021948D01*
X167218068Y-144030518D01*
X167214135Y-144088212D01*
X167215440Y-144095689D01*
X167215440Y-144095690D01*
X167225121Y-144151159D01*
X167226083Y-144157681D01*
X167233758Y-144221102D01*
X167236441Y-144228203D01*
X167237082Y-144230812D01*
X167241545Y-144247122D01*
X167242310Y-144249658D01*
X167243617Y-144257144D01*
X167257346Y-144288418D01*
X167269302Y-144315655D01*
X167271793Y-144321759D01*
X167294373Y-144381516D01*
X167298677Y-144387779D01*
X167299914Y-144390145D01*
X167308159Y-144404957D01*
X167309492Y-144407211D01*
X167312545Y-144414165D01*
X167349293Y-144462054D01*
X167351439Y-144464851D01*
X167355319Y-144470192D01*
X167387199Y-144516580D01*
X167387204Y-144516585D01*
X167391503Y-144522841D01*
X167397173Y-144527892D01*
X167397174Y-144527894D01*
X167438030Y-144564295D01*
X167443306Y-144569276D01*
X168242035Y-145368005D01*
X168276061Y-145430317D01*
X168278250Y-145443928D01*
X168283158Y-145490628D01*
X168285198Y-145496905D01*
X168285198Y-145496907D01*
X168310053Y-145573402D01*
X168342173Y-145672256D01*
X168345476Y-145677978D01*
X168345477Y-145677979D01*
X168369737Y-145719998D01*
X168437660Y-145837644D01*
X168442078Y-145842551D01*
X168442079Y-145842552D01*
X168532791Y-145943298D01*
X168565447Y-145979566D01*
X168633651Y-146029119D01*
X168710823Y-146085188D01*
X168719948Y-146091818D01*
X168725976Y-146094502D01*
X168725978Y-146094503D01*
X168888381Y-146166809D01*
X168894412Y-146169494D01*
X168987812Y-146189347D01*
X169074756Y-146207828D01*
X169074761Y-146207828D01*
X169081213Y-146209200D01*
X169272187Y-146209200D01*
X169278639Y-146207828D01*
X169278644Y-146207828D01*
X169365588Y-146189347D01*
X169458988Y-146169494D01*
X169465019Y-146166809D01*
X169627422Y-146094503D01*
X169627424Y-146094502D01*
X169633452Y-146091818D01*
X169642578Y-146085188D01*
X169719749Y-146029119D01*
X169787953Y-145979566D01*
X169820609Y-145943298D01*
X169911321Y-145842552D01*
X169911322Y-145842551D01*
X169915740Y-145837644D01*
X169983663Y-145719998D01*
X170007923Y-145677979D01*
X170007924Y-145677978D01*
X170011227Y-145672256D01*
X170070242Y-145490628D01*
X170075309Y-145442424D01*
X170089514Y-145307265D01*
X170090204Y-145300700D01*
X170089514Y-145294135D01*
X170089514Y-145287530D01*
X170092279Y-145287530D01*
X170102868Y-145229695D01*
X170141333Y-145184450D01*
X170153743Y-145175434D01*
X170253676Y-145102828D01*
X170265209Y-145094449D01*
X170265211Y-145094447D01*
X170270553Y-145090566D01*
X170345537Y-145007288D01*
X170393921Y-144953552D01*
X170393922Y-144953551D01*
X170398340Y-144948644D01*
X170493827Y-144783256D01*
X170552842Y-144601628D01*
X170554901Y-144582043D01*
X170572114Y-144418265D01*
X170572804Y-144411700D01*
X170572114Y-144405135D01*
X170572114Y-144404676D01*
X170592116Y-144336555D01*
X170638871Y-144296435D01*
X170637700Y-144294406D01*
X170643420Y-144291103D01*
X170649452Y-144288418D01*
X170669004Y-144274213D01*
X170717947Y-144238653D01*
X170803953Y-144176166D01*
X170823554Y-144154397D01*
X170927321Y-144039152D01*
X170927322Y-144039151D01*
X170931740Y-144034244D01*
X171027227Y-143868856D01*
X171086242Y-143687228D01*
X171091504Y-143637169D01*
X171105514Y-143503865D01*
X171106204Y-143497300D01*
X171088896Y-143332619D01*
X171086932Y-143313935D01*
X171086932Y-143313933D01*
X171086242Y-143307372D01*
X171065240Y-143242735D01*
X171063212Y-143171769D01*
X171099874Y-143110971D01*
X171163586Y-143079646D01*
X171185073Y-143077800D01*
X171598834Y-143077800D01*
X171661016Y-143071045D01*
X171797405Y-143019915D01*
X171913961Y-142932561D01*
X172001315Y-142816005D01*
X172023499Y-142756829D01*
X172045298Y-142698682D01*
X172087940Y-142641918D01*
X172154502Y-142617218D01*
X172223850Y-142632426D01*
X172258517Y-142660414D01*
X172286950Y-142693238D01*
X172458826Y-142835932D01*
X172651700Y-142948638D01*
X172860392Y-143028330D01*
X172865460Y-143029361D01*
X172865463Y-143029362D01*
X172972717Y-143051183D01*
X173079297Y-143072867D01*
X173084472Y-143073057D01*
X173084474Y-143073057D01*
X173297373Y-143080864D01*
X173297377Y-143080864D01*
X173302537Y-143081053D01*
X173307657Y-143080397D01*
X173307659Y-143080397D01*
X173518988Y-143053325D01*
X173518989Y-143053325D01*
X173524116Y-143052668D01*
X173529066Y-143051183D01*
X173733129Y-142989961D01*
X173733134Y-142989959D01*
X173738084Y-142988474D01*
X173938694Y-142890196D01*
X174120560Y-142760473D01*
X174278796Y-142602789D01*
X174409153Y-142421377D01*
X174508130Y-142221111D01*
X174568220Y-142023331D01*
X174571565Y-142012323D01*
X174571565Y-142012321D01*
X174573070Y-142007369D01*
X174602229Y-141785890D01*
X174602311Y-141782540D01*
X174603774Y-141722665D01*
X174603774Y-141722661D01*
X174603856Y-141719300D01*
X174585552Y-141496661D01*
X174531131Y-141280002D01*
X174442054Y-141075140D01*
X174328525Y-140899651D01*
X174323522Y-140891917D01*
X174323520Y-140891914D01*
X174320714Y-140887577D01*
X174170370Y-140722351D01*
X174166319Y-140719152D01*
X174166315Y-140719148D01*
X173999114Y-140587100D01*
X173999110Y-140587098D01*
X173995059Y-140583898D01*
X173799489Y-140475938D01*
X173794620Y-140474214D01*
X173794616Y-140474212D01*
X173593787Y-140403095D01*
X173593783Y-140403094D01*
X173588912Y-140401369D01*
X173583819Y-140400462D01*
X173583816Y-140400461D01*
X173374073Y-140363100D01*
X173374067Y-140363099D01*
X173368984Y-140362194D01*
X173295152Y-140361292D01*
X173150781Y-140359528D01*
X173150779Y-140359528D01*
X173145611Y-140359465D01*
X172924791Y-140393255D01*
X172712456Y-140462657D01*
X172514307Y-140565807D01*
X172510174Y-140568910D01*
X172510171Y-140568912D01*
X172339800Y-140696830D01*
X172335665Y-140699935D01*
X172264338Y-140774575D01*
X172254983Y-140784364D01*
X172193459Y-140819794D01*
X172122546Y-140816337D01*
X172064760Y-140775091D01*
X172045907Y-140741543D01*
X172004467Y-140631003D01*
X172001315Y-140622595D01*
X171913961Y-140506039D01*
X171797405Y-140418685D01*
X171661016Y-140367555D01*
X171598834Y-140360800D01*
X169960400Y-140360800D01*
X169892279Y-140340798D01*
X169845786Y-140287142D01*
X169834400Y-140234800D01*
X169834400Y-139281811D01*
X169834692Y-139273242D01*
X169838109Y-139223123D01*
X169838109Y-139223119D01*
X169838625Y-139215547D01*
X169827636Y-139152585D01*
X169826677Y-139146082D01*
X169821811Y-139105866D01*
X169819002Y-139082658D01*
X169816316Y-139075549D01*
X169815684Y-139072978D01*
X169811224Y-139056672D01*
X169810449Y-139054104D01*
X169809142Y-139046616D01*
X169783461Y-138988112D01*
X169780969Y-138982005D01*
X169761073Y-138929352D01*
X169761073Y-138929351D01*
X169758387Y-138922244D01*
X169754084Y-138915983D01*
X169752847Y-138913617D01*
X169744620Y-138898837D01*
X169743269Y-138896552D01*
X169740215Y-138889595D01*
X169735595Y-138883575D01*
X169735592Y-138883569D01*
X169701321Y-138838909D01*
X169697441Y-138833568D01*
X169665561Y-138787180D01*
X169665556Y-138787175D01*
X169661257Y-138780919D01*
X169614729Y-138739464D01*
X169609454Y-138734484D01*
X165212654Y-134337684D01*
X165178628Y-134275372D01*
X165183693Y-134204557D01*
X165226240Y-134147721D01*
X165292760Y-134122910D01*
X165301749Y-134122589D01*
X167924279Y-134122589D01*
X167992400Y-134142591D01*
X168038893Y-134196247D01*
X168049589Y-134235418D01*
X168066349Y-134394877D01*
X168067258Y-134403528D01*
X168126273Y-134585156D01*
X168129576Y-134590878D01*
X168129577Y-134590879D01*
X168163486Y-134649610D01*
X168221760Y-134750544D01*
X168226178Y-134755451D01*
X168226179Y-134755452D01*
X168286661Y-134822624D01*
X168349547Y-134892466D01*
X168444704Y-134961602D01*
X168478573Y-134986209D01*
X168504048Y-135004718D01*
X168510076Y-135007402D01*
X168510078Y-135007403D01*
X168654971Y-135071913D01*
X168678512Y-135082394D01*
X168771912Y-135102247D01*
X168858856Y-135120728D01*
X168858861Y-135120728D01*
X168865313Y-135122100D01*
X169056287Y-135122100D01*
X169062739Y-135120728D01*
X169062744Y-135120728D01*
X169149688Y-135102247D01*
X169243088Y-135082394D01*
X169279241Y-135066298D01*
X169354045Y-135032993D01*
X169405294Y-135022100D01*
X179779742Y-135022100D01*
X179781062Y-135022107D01*
X179871177Y-135023051D01*
X179913553Y-135013889D01*
X179926119Y-135011831D01*
X179969211Y-135006997D01*
X179975862Y-135004681D01*
X179975866Y-135004680D01*
X180000886Y-134995967D01*
X180015698Y-134991804D01*
X180041575Y-134986209D01*
X180048466Y-134984719D01*
X180087769Y-134966392D01*
X180099545Y-134961610D01*
X180140508Y-134947345D01*
X180146483Y-134943611D01*
X180146486Y-134943610D01*
X180168951Y-134929573D01*
X180182468Y-134922234D01*
X180206470Y-134911041D01*
X180206471Y-134911040D01*
X180212858Y-134908062D01*
X180247109Y-134881494D01*
X180257568Y-134874198D01*
X180288360Y-134854958D01*
X180288363Y-134854956D01*
X180294332Y-134851226D01*
X180323135Y-134822624D01*
X180323760Y-134822039D01*
X180324426Y-134821522D01*
X180350416Y-134795532D01*
X180423038Y-134723415D01*
X180423696Y-134722378D01*
X180424799Y-134721149D01*
X183777043Y-131368905D01*
X183839355Y-131334879D01*
X183866138Y-131332000D01*
X190392006Y-131332000D01*
X190443255Y-131342893D01*
X190554212Y-131392294D01*
X190647612Y-131412147D01*
X190734556Y-131430628D01*
X190734561Y-131430628D01*
X190741013Y-131432000D01*
X190931987Y-131432000D01*
X190938439Y-131430628D01*
X190938444Y-131430628D01*
X191025388Y-131412147D01*
X191118788Y-131392294D01*
X191171321Y-131368905D01*
X191287222Y-131317303D01*
X191287224Y-131317302D01*
X191293252Y-131314618D01*
X191447753Y-131202366D01*
X191575540Y-131060444D01*
X191671027Y-130895056D01*
X191730042Y-130713428D01*
X191750004Y-130523500D01*
X191730042Y-130333572D01*
X191671027Y-130151944D01*
X191575540Y-129986556D01*
X191447753Y-129844634D01*
X191293252Y-129732382D01*
X191287224Y-129729698D01*
X191287222Y-129729697D01*
X191124819Y-129657391D01*
X191124818Y-129657391D01*
X191118788Y-129654706D01*
X191025387Y-129634853D01*
X190938444Y-129616372D01*
X190938439Y-129616372D01*
X190931987Y-129615000D01*
X190741013Y-129615000D01*
X190734561Y-129616372D01*
X190734556Y-129616372D01*
X190647613Y-129634853D01*
X190554212Y-129654706D01*
X190548182Y-129657391D01*
X190548181Y-129657391D01*
X190443255Y-129704107D01*
X190392006Y-129715000D01*
X184604446Y-129715000D01*
X184536325Y-129694998D01*
X184489832Y-129641342D01*
X184479728Y-129571068D01*
X184509222Y-129506488D01*
X184515351Y-129499905D01*
X185132340Y-128882916D01*
X185194652Y-128848890D01*
X185221435Y-128846011D01*
X189425213Y-128846011D01*
X189441660Y-128847089D01*
X189458125Y-128849257D01*
X189458129Y-128849257D01*
X189463695Y-128849990D01*
X189545098Y-128846151D01*
X189551033Y-128846011D01*
X189573608Y-128846011D01*
X189599598Y-128843692D01*
X189604857Y-128843333D01*
X189688097Y-128839407D01*
X189693556Y-128838157D01*
X189693561Y-128838156D01*
X189705579Y-128835403D01*
X189722508Y-128832722D01*
X189740371Y-128831128D01*
X189745787Y-128829646D01*
X189745789Y-128829646D01*
X189820742Y-128809141D01*
X189825860Y-128807855D01*
X189901609Y-128790506D01*
X189901611Y-128790505D01*
X189907079Y-128789253D01*
X189917579Y-128784774D01*
X189923576Y-128782217D01*
X189939751Y-128776584D01*
X189951648Y-128773329D01*
X189951652Y-128773328D01*
X189957060Y-128771848D01*
X190032276Y-128735972D01*
X190037085Y-128733801D01*
X190108558Y-128703315D01*
X190108559Y-128703315D01*
X190113718Y-128701114D01*
X190128719Y-128691260D01*
X190143634Y-128682857D01*
X190159827Y-128675133D01*
X190164378Y-128671863D01*
X190164381Y-128671861D01*
X190227490Y-128626512D01*
X190231841Y-128623522D01*
X190297619Y-128580315D01*
X190297627Y-128580309D01*
X190301483Y-128577776D01*
X190322271Y-128559254D01*
X190332548Y-128551021D01*
X190342263Y-128544040D01*
X190416671Y-128467257D01*
X190418060Y-128465847D01*
X192557163Y-126326745D01*
X192569554Y-126315877D01*
X192582748Y-126305753D01*
X192587192Y-126302343D01*
X192642058Y-126242046D01*
X192646157Y-126237751D01*
X192662099Y-126221809D01*
X192663896Y-126219660D01*
X192678833Y-126201796D01*
X192682301Y-126197821D01*
X192734612Y-126140332D01*
X192734619Y-126140323D01*
X192738385Y-126136184D01*
X192747914Y-126120993D01*
X192757989Y-126107127D01*
X192765896Y-126097671D01*
X192765903Y-126097661D01*
X192769494Y-126093366D01*
X192810787Y-126020972D01*
X192813492Y-126016452D01*
X192854786Y-125950624D01*
X192854788Y-125950621D01*
X192857764Y-125945876D01*
X192864452Y-125929241D01*
X192871912Y-125913809D01*
X192878020Y-125903101D01*
X192878024Y-125903092D01*
X192880799Y-125898227D01*
X192882668Y-125892950D01*
X192882670Y-125892945D01*
X192908615Y-125819678D01*
X192910480Y-125814742D01*
X192933196Y-125758234D01*
X192941556Y-125737437D01*
X192945194Y-125719870D01*
X192949799Y-125703376D01*
X192955789Y-125686461D01*
X192960803Y-125655842D01*
X192965783Y-125625432D01*
X192996531Y-125561439D01*
X193046877Y-125529507D01*
X193046274Y-125528045D01*
X193051972Y-125525696D01*
X193057869Y-125523916D01*
X193232496Y-125431066D01*
X193347479Y-125337288D01*
X193380987Y-125309960D01*
X193380990Y-125309957D01*
X193385762Y-125306065D01*
X193438036Y-125242877D01*
X193507901Y-125158425D01*
X193507903Y-125158421D01*
X193511830Y-125153675D01*
X193605898Y-124979701D01*
X193664382Y-124790768D01*
X193665026Y-124784642D01*
X193684411Y-124600204D01*
X193684411Y-124600202D01*
X193685055Y-124594075D01*
X193678574Y-124522862D01*
X193678700Y-124498709D01*
X193684452Y-124442085D01*
X193684452Y-124442080D01*
X193685074Y-124435957D01*
X193666462Y-124239058D01*
X193624048Y-124096781D01*
X193623756Y-124025785D01*
X193655702Y-123971690D01*
X193972987Y-123654405D01*
X194035299Y-123620379D01*
X194062082Y-123617500D01*
X194755500Y-123617500D01*
X194823621Y-123637502D01*
X194870114Y-123691158D01*
X194881500Y-123743500D01*
X194881500Y-151067317D01*
X194861498Y-151135438D01*
X194807842Y-151181931D01*
X194755506Y-151193317D01*
X161839100Y-151195000D01*
X127748118Y-151195000D01*
X127728635Y-151193485D01*
X127714044Y-151191201D01*
X127714042Y-151191201D01*
X127705180Y-151189814D01*
X127689176Y-151191894D01*
X127688890Y-151191931D01*
X127664317Y-151192706D01*
X127441857Y-151177957D01*
X127425526Y-151175795D01*
X127181001Y-151126981D01*
X127165092Y-151122707D01*
X126929019Y-151042408D01*
X126913813Y-151036100D01*
X126690226Y-150925683D01*
X126675966Y-150917440D01*
X126468703Y-150778804D01*
X126455638Y-150768770D01*
X126268224Y-150604270D01*
X126256598Y-150592634D01*
X126092250Y-150405094D01*
X126082227Y-150392024D01*
X126043931Y-150334673D01*
X125943751Y-150184647D01*
X125935521Y-150170383D01*
X125911585Y-150121816D01*
X125825288Y-149946722D01*
X125818987Y-149931502D01*
X125738872Y-149695365D01*
X125734611Y-149679453D01*
X125711179Y-149561594D01*
X125685987Y-149434882D01*
X125683839Y-149418555D01*
X125683356Y-149411173D01*
X125682668Y-149400669D01*
X155944500Y-149400669D01*
X155944800Y-149403725D01*
X155944800Y-149403732D01*
X155950537Y-149462240D01*
X155958920Y-149547733D01*
X156016084Y-149737069D01*
X156108934Y-149911696D01*
X156137501Y-149946722D01*
X156230040Y-150060187D01*
X156230043Y-150060190D01*
X156233935Y-150064962D01*
X156238682Y-150068889D01*
X156238684Y-150068891D01*
X156381575Y-150187101D01*
X156381579Y-150187103D01*
X156386325Y-150191030D01*
X156560299Y-150285098D01*
X156749232Y-150343582D01*
X156755357Y-150344226D01*
X156755358Y-150344226D01*
X156939796Y-150363611D01*
X156939798Y-150363611D01*
X156945925Y-150364255D01*
X157028424Y-150356747D01*
X157136749Y-150346889D01*
X157136752Y-150346888D01*
X157142888Y-150346330D01*
X157148794Y-150344592D01*
X157148798Y-150344591D01*
X157253924Y-150313651D01*
X157332619Y-150290490D01*
X157338077Y-150287637D01*
X157338081Y-150287635D01*
X157428853Y-150240180D01*
X157507890Y-150198860D01*
X157662025Y-150074932D01*
X157789154Y-149923426D01*
X157792121Y-149918028D01*
X157792125Y-149918023D01*
X157881467Y-149755508D01*
X157884433Y-149750113D01*
X157886846Y-149742508D01*
X157942373Y-149567464D01*
X157942373Y-149567463D01*
X157944235Y-149561594D01*
X157961500Y-149407673D01*
X157961500Y-146818731D01*
X157981502Y-146750610D01*
X158035158Y-146704117D01*
X158105432Y-146694013D01*
X158170012Y-146723507D01*
X158196619Y-146755731D01*
X158238579Y-146828407D01*
X158243960Y-146837728D01*
X158248379Y-146842636D01*
X158250436Y-146845467D01*
X158274295Y-146912335D01*
X158274500Y-146919528D01*
X158274500Y-147454088D01*
X158274208Y-147462658D01*
X158271030Y-147509281D01*
X158270275Y-147520352D01*
X158271580Y-147527829D01*
X158271580Y-147527830D01*
X158281261Y-147583299D01*
X158282223Y-147589821D01*
X158289898Y-147653242D01*
X158292581Y-147660343D01*
X158293222Y-147662952D01*
X158297685Y-147679262D01*
X158298450Y-147681798D01*
X158299757Y-147689284D01*
X158319705Y-147734725D01*
X158325442Y-147747795D01*
X158327935Y-147753904D01*
X158347356Y-147805300D01*
X158350513Y-147813656D01*
X158354817Y-147819919D01*
X158356054Y-147822285D01*
X158364299Y-147837097D01*
X158365632Y-147839351D01*
X158368685Y-147846305D01*
X158407055Y-147896308D01*
X158407579Y-147896991D01*
X158411459Y-147902332D01*
X158443339Y-147948720D01*
X158443344Y-147948725D01*
X158447643Y-147954981D01*
X158453313Y-147960032D01*
X158453314Y-147960034D01*
X158494170Y-147996435D01*
X158499446Y-148001416D01*
X158778550Y-148280520D01*
X158784404Y-148286785D01*
X158822439Y-148330385D01*
X158849440Y-148349361D01*
X158874697Y-148367112D01*
X158879993Y-148371045D01*
X158930282Y-148410477D01*
X158937204Y-148413602D01*
X158939452Y-148414964D01*
X158954185Y-148423368D01*
X158956524Y-148424622D01*
X158962739Y-148428990D01*
X158969815Y-148431749D01*
X158969819Y-148431751D01*
X159022269Y-148452200D01*
X159028334Y-148454749D01*
X159086573Y-148481045D01*
X159094038Y-148482429D01*
X159096582Y-148483226D01*
X159112848Y-148487859D01*
X159115428Y-148488521D01*
X159122509Y-148491282D01*
X159130042Y-148492274D01*
X159130043Y-148492274D01*
X159143261Y-148494014D01*
X159185857Y-148499622D01*
X159192355Y-148500650D01*
X159255187Y-148512296D01*
X159262767Y-148511859D01*
X159262768Y-148511859D01*
X159317398Y-148508709D01*
X159324651Y-148508500D01*
X163171088Y-148508500D01*
X163179658Y-148508792D01*
X163229776Y-148512209D01*
X163229780Y-148512209D01*
X163237352Y-148512725D01*
X163244829Y-148511420D01*
X163244830Y-148511420D01*
X163271308Y-148506799D01*
X163300303Y-148501738D01*
X163306821Y-148500777D01*
X163370242Y-148493102D01*
X163377343Y-148490419D01*
X163379952Y-148489778D01*
X163396262Y-148485315D01*
X163398798Y-148484550D01*
X163406284Y-148483243D01*
X163464800Y-148457556D01*
X163470904Y-148455065D01*
X163475319Y-148453397D01*
X163498563Y-148444614D01*
X163523548Y-148435173D01*
X163523549Y-148435172D01*
X163530656Y-148432487D01*
X163536919Y-148428183D01*
X163539285Y-148426946D01*
X163554097Y-148418701D01*
X163556351Y-148417368D01*
X163563305Y-148414315D01*
X163614002Y-148375413D01*
X163619332Y-148371541D01*
X163665720Y-148339661D01*
X163665725Y-148339656D01*
X163671981Y-148335357D01*
X163713435Y-148288830D01*
X163718416Y-148283554D01*
X164023535Y-147978436D01*
X164029800Y-147972583D01*
X164067664Y-147939552D01*
X164067665Y-147939551D01*
X164073385Y-147934561D01*
X164110136Y-147882271D01*
X164114028Y-147877029D01*
X164153476Y-147826718D01*
X164156600Y-147819799D01*
X164157988Y-147817507D01*
X164166367Y-147802816D01*
X164167621Y-147800476D01*
X164171990Y-147794261D01*
X164175514Y-147785224D01*
X164195202Y-147734725D01*
X164197759Y-147728642D01*
X164201857Y-147719568D01*
X164224045Y-147670427D01*
X164225430Y-147662954D01*
X164226234Y-147660388D01*
X164230855Y-147644165D01*
X164231520Y-147641573D01*
X164234282Y-147634491D01*
X164240780Y-147585135D01*
X164242622Y-147571139D01*
X164243654Y-147564623D01*
X164253911Y-147509281D01*
X164255295Y-147501814D01*
X164254083Y-147480784D01*
X164251709Y-147439620D01*
X164251500Y-147432367D01*
X164251500Y-146982533D01*
X164271502Y-146914412D01*
X164283858Y-146898230D01*
X164339040Y-146836944D01*
X164342339Y-146831231D01*
X164342342Y-146831226D01*
X164349381Y-146819033D01*
X164400764Y-146770040D01*
X164470477Y-146756604D01*
X164536388Y-146782991D01*
X164577570Y-146840823D01*
X164584500Y-146882033D01*
X164584500Y-149400669D01*
X164584800Y-149403725D01*
X164584800Y-149403732D01*
X164590537Y-149462240D01*
X164598920Y-149547733D01*
X164656084Y-149737069D01*
X164748934Y-149911696D01*
X164777501Y-149946722D01*
X164870040Y-150060187D01*
X164870043Y-150060190D01*
X164873935Y-150064962D01*
X164878682Y-150068889D01*
X164878684Y-150068891D01*
X165021575Y-150187101D01*
X165021579Y-150187103D01*
X165026325Y-150191030D01*
X165200299Y-150285098D01*
X165389232Y-150343582D01*
X165395357Y-150344226D01*
X165395358Y-150344226D01*
X165579796Y-150363611D01*
X165579798Y-150363611D01*
X165585925Y-150364255D01*
X165668424Y-150356747D01*
X165776749Y-150346889D01*
X165776752Y-150346888D01*
X165782888Y-150346330D01*
X165788794Y-150344592D01*
X165788798Y-150344591D01*
X165893924Y-150313651D01*
X165972619Y-150290490D01*
X165978077Y-150287637D01*
X165978081Y-150287635D01*
X166068853Y-150240180D01*
X166147890Y-150198860D01*
X166302025Y-150074932D01*
X166314862Y-150059634D01*
X183083600Y-150059634D01*
X183090355Y-150121816D01*
X183141485Y-150258205D01*
X183228839Y-150374761D01*
X183345395Y-150462115D01*
X183481784Y-150513245D01*
X183543966Y-150520000D01*
X185340234Y-150520000D01*
X185402416Y-150513245D01*
X185538805Y-150462115D01*
X185655361Y-150374761D01*
X185742715Y-150258205D01*
X185764899Y-150199029D01*
X185786698Y-150140882D01*
X185829340Y-150084118D01*
X185895902Y-150059418D01*
X185965250Y-150074626D01*
X185999917Y-150102614D01*
X186028350Y-150135438D01*
X186200226Y-150278132D01*
X186393100Y-150390838D01*
X186601792Y-150470530D01*
X186606860Y-150471561D01*
X186606863Y-150471562D01*
X186714117Y-150493383D01*
X186820697Y-150515067D01*
X186825872Y-150515257D01*
X186825874Y-150515257D01*
X187038773Y-150523064D01*
X187038777Y-150523064D01*
X187043937Y-150523253D01*
X187049057Y-150522597D01*
X187049059Y-150522597D01*
X187260388Y-150495525D01*
X187260389Y-150495525D01*
X187265516Y-150494868D01*
X187270466Y-150493383D01*
X187474529Y-150432161D01*
X187474534Y-150432159D01*
X187479484Y-150430674D01*
X187680094Y-150332396D01*
X187861960Y-150202673D01*
X187865787Y-150198860D01*
X188005716Y-150059418D01*
X188020196Y-150044989D01*
X188150553Y-149863577D01*
X188249530Y-149663311D01*
X188314470Y-149449569D01*
X188343629Y-149228090D01*
X188344714Y-149183699D01*
X188345174Y-149164865D01*
X188345174Y-149164861D01*
X188345256Y-149161500D01*
X188326952Y-148938861D01*
X188272531Y-148722202D01*
X188183454Y-148517340D01*
X188126298Y-148428990D01*
X188064922Y-148334117D01*
X188064920Y-148334114D01*
X188062114Y-148329777D01*
X187911770Y-148164551D01*
X187907719Y-148161352D01*
X187907715Y-148161348D01*
X187740514Y-148029300D01*
X187740510Y-148029298D01*
X187736459Y-148026098D01*
X187691748Y-148001416D01*
X187650119Y-147978436D01*
X187540889Y-147918138D01*
X187536020Y-147916414D01*
X187536016Y-147916412D01*
X187335187Y-147845295D01*
X187335183Y-147845294D01*
X187330312Y-147843569D01*
X187325219Y-147842662D01*
X187325216Y-147842661D01*
X187115473Y-147805300D01*
X187115467Y-147805299D01*
X187110384Y-147804394D01*
X187036552Y-147803492D01*
X186892181Y-147801728D01*
X186892179Y-147801728D01*
X186887011Y-147801665D01*
X186666191Y-147835455D01*
X186453856Y-147904857D01*
X186426451Y-147919123D01*
X186277937Y-147996435D01*
X186255707Y-148008007D01*
X186251574Y-148011110D01*
X186251571Y-148011112D01*
X186106715Y-148119873D01*
X186077065Y-148142135D01*
X186020637Y-148201184D01*
X185996383Y-148226564D01*
X185934859Y-148261994D01*
X185863946Y-148258537D01*
X185806160Y-148217291D01*
X185787307Y-148183743D01*
X185745867Y-148073203D01*
X185742715Y-148064795D01*
X185655361Y-147948239D01*
X185538805Y-147860885D01*
X185402416Y-147809755D01*
X185340234Y-147803000D01*
X183543966Y-147803000D01*
X183481784Y-147809755D01*
X183345395Y-147860885D01*
X183228839Y-147948239D01*
X183141485Y-148064795D01*
X183090355Y-148201184D01*
X183083600Y-148263366D01*
X183083600Y-150059634D01*
X166314862Y-150059634D01*
X166429154Y-149923426D01*
X166432121Y-149918028D01*
X166432125Y-149918023D01*
X166521467Y-149755508D01*
X166524433Y-149750113D01*
X166526846Y-149742508D01*
X166582373Y-149567464D01*
X166582373Y-149567463D01*
X166584235Y-149561594D01*
X166601500Y-149407673D01*
X166601500Y-144271131D01*
X166600814Y-144264127D01*
X166587681Y-144130201D01*
X166587080Y-144124067D01*
X166578513Y-144095690D01*
X166531697Y-143940631D01*
X166529916Y-143934731D01*
X166437066Y-143760104D01*
X166339573Y-143640566D01*
X166315960Y-143611613D01*
X166315957Y-143611610D01*
X166312065Y-143606838D01*
X166305724Y-143601592D01*
X166164425Y-143484699D01*
X166164421Y-143484697D01*
X166159675Y-143480770D01*
X165985701Y-143386702D01*
X165796768Y-143328218D01*
X165790643Y-143327574D01*
X165790642Y-143327574D01*
X165606204Y-143308189D01*
X165606202Y-143308189D01*
X165600075Y-143307545D01*
X165529861Y-143313935D01*
X165409251Y-143324911D01*
X165409248Y-143324912D01*
X165403112Y-143325470D01*
X165397206Y-143327208D01*
X165397202Y-143327209D01*
X165292076Y-143358149D01*
X165213381Y-143381310D01*
X165207923Y-143384163D01*
X165207919Y-143384165D01*
X165117147Y-143431620D01*
X165038110Y-143472940D01*
X164883975Y-143596868D01*
X164756846Y-143748374D01*
X164753879Y-143753772D01*
X164753875Y-143753777D01*
X164750397Y-143760104D01*
X164661567Y-143921687D01*
X164659706Y-143927554D01*
X164659705Y-143927556D01*
X164625862Y-144034244D01*
X164601765Y-144110206D01*
X164584500Y-144264127D01*
X164584500Y-144483762D01*
X164564498Y-144551883D01*
X164510842Y-144598376D01*
X164440568Y-144608480D01*
X164431014Y-144606728D01*
X164285147Y-144574123D01*
X164256457Y-144567710D01*
X164250912Y-144567400D01*
X164117756Y-144567400D01*
X163982963Y-144582043D01*
X163864810Y-144621806D01*
X163817796Y-144637628D01*
X163817794Y-144637629D01*
X163811325Y-144639806D01*
X163656095Y-144733077D01*
X163651138Y-144737765D01*
X163651135Y-144737767D01*
X163596329Y-144789595D01*
X163524515Y-144857507D01*
X163520683Y-144863145D01*
X163520680Y-144863149D01*
X163443861Y-144976184D01*
X163422723Y-145007288D01*
X163355470Y-145175434D01*
X163354356Y-145182162D01*
X163354355Y-145182166D01*
X163331933Y-145317608D01*
X163325892Y-145354098D01*
X163325918Y-145354595D01*
X163302960Y-145419206D01*
X163252175Y-145460385D01*
X163149281Y-145506195D01*
X163149274Y-145506199D01*
X163143248Y-145508882D01*
X163137907Y-145512762D01*
X163137906Y-145512763D01*
X163093994Y-145544667D01*
X162988747Y-145621134D01*
X162984326Y-145626044D01*
X162984325Y-145626045D01*
X162899730Y-145719998D01*
X162860960Y-145763056D01*
X162765473Y-145928444D01*
X162706458Y-146110072D01*
X162705768Y-146116633D01*
X162705768Y-146116635D01*
X162696039Y-146209200D01*
X162686496Y-146300000D01*
X162687186Y-146306565D01*
X162700637Y-146434540D01*
X162706458Y-146489928D01*
X162765473Y-146671556D01*
X162768776Y-146677278D01*
X162768777Y-146677279D01*
X162817619Y-146761875D01*
X162834500Y-146824875D01*
X162834500Y-146965500D01*
X162814498Y-147033621D01*
X162760842Y-147080114D01*
X162708500Y-147091500D01*
X159817500Y-147091500D01*
X159749379Y-147071498D01*
X159702886Y-147017842D01*
X159691500Y-146965500D01*
X159691500Y-146919528D01*
X159711502Y-146851407D01*
X159715564Y-146845467D01*
X159717621Y-146842636D01*
X159722040Y-146837728D01*
X159725794Y-146831226D01*
X159814223Y-146678063D01*
X159814224Y-146678062D01*
X159817527Y-146672340D01*
X159876542Y-146490712D01*
X159896504Y-146300784D01*
X159890849Y-146246977D01*
X159877232Y-146117419D01*
X159877232Y-146117417D01*
X159876542Y-146110856D01*
X159826154Y-145955779D01*
X159824126Y-145884813D01*
X159860789Y-145824015D01*
X159924501Y-145792690D01*
X159995035Y-145800782D01*
X160015917Y-145813454D01*
X160016455Y-145812632D01*
X160145689Y-145897200D01*
X160158846Y-145905810D01*
X160165450Y-145908266D01*
X160165452Y-145908267D01*
X160221815Y-145929228D01*
X160318341Y-145965126D01*
X160487015Y-145987632D01*
X160494026Y-145986994D01*
X160494030Y-145986994D01*
X160649462Y-145972848D01*
X160656483Y-145972209D01*
X160663185Y-145970031D01*
X160663187Y-145970031D01*
X160811623Y-145921801D01*
X160811626Y-145921800D01*
X160818322Y-145919624D01*
X160824373Y-145916017D01*
X160824375Y-145916016D01*
X160891887Y-145875771D01*
X160956404Y-145858000D01*
X161152723Y-145858000D01*
X161221716Y-145878568D01*
X161250189Y-145897200D01*
X161263346Y-145905810D01*
X161269950Y-145908266D01*
X161269952Y-145908267D01*
X161326315Y-145929228D01*
X161422841Y-145965126D01*
X161591515Y-145987632D01*
X161598526Y-145986994D01*
X161598530Y-145986994D01*
X161753962Y-145972848D01*
X161760983Y-145972209D01*
X161767685Y-145970031D01*
X161767687Y-145970031D01*
X161916123Y-145921801D01*
X161916126Y-145921800D01*
X161922822Y-145919624D01*
X162068990Y-145832490D01*
X162074084Y-145827639D01*
X162074088Y-145827636D01*
X162161094Y-145744781D01*
X162192221Y-145715139D01*
X162220713Y-145672256D01*
X162245196Y-145635405D01*
X162286391Y-145573402D01*
X162346819Y-145414325D01*
X162370501Y-145245813D01*
X162370618Y-145237464D01*
X162370744Y-145228461D01*
X162370744Y-145228455D01*
X162370799Y-145224500D01*
X162351831Y-145055392D01*
X162295868Y-144894689D01*
X162289883Y-144885110D01*
X162226236Y-144783256D01*
X162205692Y-144750379D01*
X162085786Y-144629632D01*
X162069539Y-144619321D01*
X162010798Y-144582043D01*
X161942108Y-144538451D01*
X161781800Y-144481368D01*
X161612829Y-144461220D01*
X161605826Y-144461956D01*
X161605825Y-144461956D01*
X161450601Y-144478270D01*
X161450597Y-144478271D01*
X161443593Y-144479007D01*
X161282503Y-144533846D01*
X161219968Y-144572318D01*
X161153948Y-144591000D01*
X160957018Y-144591000D01*
X160889506Y-144571387D01*
X160837608Y-144538451D01*
X160677300Y-144481368D01*
X160508329Y-144461220D01*
X160501326Y-144461956D01*
X160501325Y-144461956D01*
X160346101Y-144478270D01*
X160346097Y-144478271D01*
X160339093Y-144479007D01*
X160332422Y-144481278D01*
X160184673Y-144531575D01*
X160184670Y-144531576D01*
X160178003Y-144533846D01*
X160172005Y-144537536D01*
X160172003Y-144537537D01*
X160039065Y-144619321D01*
X160039063Y-144619323D01*
X160033066Y-144623012D01*
X159911486Y-144742073D01*
X159907675Y-144747987D01*
X159907673Y-144747989D01*
X159874826Y-144798957D01*
X159819304Y-144885110D01*
X159761103Y-145045016D01*
X159739775Y-145213843D01*
X159756381Y-145383199D01*
X159776584Y-145443930D01*
X159788986Y-145481213D01*
X159791509Y-145552165D01*
X159755272Y-145613217D01*
X159691780Y-145644987D01*
X159621192Y-145637386D01*
X159595016Y-145620868D01*
X159594253Y-145621918D01*
X159445094Y-145513547D01*
X159445093Y-145513546D01*
X159439752Y-145509666D01*
X159433726Y-145506983D01*
X159433719Y-145506979D01*
X159288723Y-145442424D01*
X159234627Y-145396444D01*
X159214144Y-145333911D01*
X159210987Y-145273665D01*
X159210630Y-145266853D01*
X159203748Y-145241866D01*
X159164352Y-145098841D01*
X159162539Y-145092259D01*
X159078078Y-144932064D01*
X159073673Y-144926851D01*
X159073670Y-144926847D01*
X158965594Y-144798957D01*
X158965590Y-144798953D01*
X158961187Y-144793743D01*
X158947471Y-144783256D01*
X158822743Y-144687894D01*
X158822739Y-144687891D01*
X158817322Y-144683750D01*
X158711982Y-144634629D01*
X158659369Y-144610095D01*
X158659366Y-144610094D01*
X158653192Y-144607215D01*
X158646544Y-144605729D01*
X158646541Y-144605728D01*
X158505147Y-144574123D01*
X158476457Y-144567710D01*
X158470912Y-144567400D01*
X158337756Y-144567400D01*
X158202963Y-144582043D01*
X158127688Y-144607376D01*
X158056747Y-144610146D01*
X157995568Y-144574123D01*
X157963577Y-144510742D01*
X157961500Y-144487957D01*
X157961500Y-144271131D01*
X157960814Y-144264127D01*
X157947681Y-144130201D01*
X157947080Y-144124067D01*
X157938513Y-144095690D01*
X157891697Y-143940631D01*
X157889916Y-143934731D01*
X157797066Y-143760104D01*
X157699573Y-143640566D01*
X157675960Y-143611613D01*
X157675957Y-143611610D01*
X157672065Y-143606838D01*
X157665724Y-143601592D01*
X157524425Y-143484699D01*
X157524421Y-143484697D01*
X157519675Y-143480770D01*
X157345701Y-143386702D01*
X157156768Y-143328218D01*
X157150643Y-143327574D01*
X157150642Y-143327574D01*
X156966204Y-143308189D01*
X156966202Y-143308189D01*
X156960075Y-143307545D01*
X156889861Y-143313935D01*
X156769251Y-143324911D01*
X156769248Y-143324912D01*
X156763112Y-143325470D01*
X156757206Y-143327208D01*
X156757202Y-143327209D01*
X156652076Y-143358149D01*
X156573381Y-143381310D01*
X156567923Y-143384163D01*
X156567919Y-143384165D01*
X156477147Y-143431620D01*
X156398110Y-143472940D01*
X156243975Y-143596868D01*
X156116846Y-143748374D01*
X156113879Y-143753772D01*
X156113875Y-143753777D01*
X156110397Y-143760104D01*
X156021567Y-143921687D01*
X156019706Y-143927554D01*
X156019705Y-143927556D01*
X155985862Y-144034244D01*
X155961765Y-144110206D01*
X155944500Y-144264127D01*
X155944500Y-149400669D01*
X125682668Y-149400669D01*
X125669974Y-149206906D01*
X125671149Y-149183727D01*
X125670833Y-149183699D01*
X125671267Y-149178859D01*
X125672076Y-149174052D01*
X125672229Y-149161500D01*
X125668273Y-149133876D01*
X125667000Y-149116014D01*
X125667000Y-147211095D01*
X132774001Y-147211095D01*
X132774338Y-147217614D01*
X132784257Y-147313206D01*
X132787149Y-147326600D01*
X132838588Y-147480784D01*
X132844761Y-147493962D01*
X132930063Y-147631807D01*
X132939099Y-147643208D01*
X133053829Y-147757739D01*
X133065240Y-147766751D01*
X133203243Y-147851816D01*
X133216424Y-147857963D01*
X133370710Y-147909138D01*
X133384086Y-147912005D01*
X133478438Y-147921672D01*
X133484854Y-147922000D01*
X133859885Y-147922000D01*
X133875124Y-147917525D01*
X133876329Y-147916135D01*
X133878000Y-147908452D01*
X133878000Y-147903884D01*
X134386000Y-147903884D01*
X134390475Y-147919123D01*
X134391865Y-147920328D01*
X134399548Y-147921999D01*
X134779095Y-147921999D01*
X134785614Y-147921662D01*
X134881206Y-147911743D01*
X134894600Y-147908851D01*
X135048784Y-147857412D01*
X135061962Y-147851239D01*
X135199807Y-147765937D01*
X135211208Y-147756901D01*
X135325739Y-147642171D01*
X135334753Y-147630757D01*
X135420723Y-147491287D01*
X135473495Y-147443793D01*
X135543566Y-147432369D01*
X135608690Y-147460643D01*
X135619149Y-147470426D01*
X135728576Y-147585135D01*
X135732854Y-147588318D01*
X135784785Y-147626956D01*
X135913542Y-147722754D01*
X135918293Y-147725170D01*
X135918297Y-147725172D01*
X135980704Y-147756901D01*
X136119051Y-147827240D01*
X136124145Y-147828822D01*
X136124148Y-147828823D01*
X136279319Y-147877005D01*
X136339227Y-147895607D01*
X136344516Y-147896308D01*
X136562489Y-147925198D01*
X136562494Y-147925198D01*
X136567774Y-147925898D01*
X136573103Y-147925698D01*
X136573105Y-147925698D01*
X136682966Y-147921574D01*
X136798158Y-147917249D01*
X136803468Y-147916135D01*
X136964726Y-147882300D01*
X137023791Y-147869907D01*
X137028750Y-147867949D01*
X137028752Y-147867948D01*
X137233256Y-147787185D01*
X137233258Y-147787184D01*
X137238221Y-147785224D01*
X137245550Y-147780777D01*
X137430757Y-147668390D01*
X137430756Y-147668390D01*
X137435317Y-147665623D01*
X137522667Y-147589825D01*
X137605412Y-147518023D01*
X137605414Y-147518021D01*
X137609445Y-147514523D01*
X137676809Y-147432367D01*
X137752240Y-147340373D01*
X137752244Y-147340367D01*
X137755624Y-147336245D01*
X137761115Y-147326600D01*
X137826864Y-147211095D01*
X141771001Y-147211095D01*
X141771338Y-147217614D01*
X141781257Y-147313206D01*
X141784149Y-147326600D01*
X141835588Y-147480784D01*
X141841761Y-147493962D01*
X141927063Y-147631807D01*
X141936099Y-147643208D01*
X142050829Y-147757739D01*
X142062240Y-147766751D01*
X142200243Y-147851816D01*
X142213424Y-147857963D01*
X142367710Y-147909138D01*
X142381086Y-147912005D01*
X142475438Y-147921672D01*
X142481854Y-147922000D01*
X142856885Y-147922000D01*
X142872124Y-147917525D01*
X142873329Y-147916135D01*
X142875000Y-147908452D01*
X142875000Y-147903884D01*
X143383000Y-147903884D01*
X143387475Y-147919123D01*
X143388865Y-147920328D01*
X143396548Y-147921999D01*
X143776095Y-147921999D01*
X143782614Y-147921662D01*
X143878206Y-147911743D01*
X143891600Y-147908851D01*
X144045784Y-147857412D01*
X144058962Y-147851239D01*
X144196807Y-147765937D01*
X144208208Y-147756901D01*
X144322739Y-147642171D01*
X144331753Y-147630757D01*
X144417723Y-147491287D01*
X144470495Y-147443793D01*
X144540566Y-147432369D01*
X144605690Y-147460643D01*
X144616149Y-147470426D01*
X144725576Y-147585135D01*
X144729854Y-147588318D01*
X144781785Y-147626956D01*
X144910542Y-147722754D01*
X144915293Y-147725170D01*
X144915297Y-147725172D01*
X144977704Y-147756901D01*
X145116051Y-147827240D01*
X145121145Y-147828822D01*
X145121148Y-147828823D01*
X145276319Y-147877005D01*
X145336227Y-147895607D01*
X145341516Y-147896308D01*
X145559489Y-147925198D01*
X145559494Y-147925198D01*
X145564774Y-147925898D01*
X145570103Y-147925698D01*
X145570105Y-147925698D01*
X145679966Y-147921574D01*
X145795158Y-147917249D01*
X145800468Y-147916135D01*
X145961726Y-147882300D01*
X146020791Y-147869907D01*
X146025750Y-147867949D01*
X146025752Y-147867948D01*
X146230256Y-147787185D01*
X146230258Y-147787184D01*
X146235221Y-147785224D01*
X146242550Y-147780777D01*
X146427757Y-147668390D01*
X146427756Y-147668390D01*
X146432317Y-147665623D01*
X146519667Y-147589825D01*
X146602412Y-147518023D01*
X146602414Y-147518021D01*
X146606445Y-147514523D01*
X146673809Y-147432367D01*
X146749240Y-147340373D01*
X146749244Y-147340367D01*
X146752624Y-147336245D01*
X146758115Y-147326600D01*
X146864032Y-147140529D01*
X146866675Y-147135886D01*
X146945337Y-146919175D01*
X146949126Y-146898222D01*
X146985623Y-146696392D01*
X146985624Y-146696385D01*
X146986361Y-146692308D01*
X146987500Y-146668156D01*
X146987500Y-146206110D01*
X146980197Y-146120039D01*
X146973371Y-146039591D01*
X146973370Y-146039587D01*
X146972920Y-146034280D01*
X146971582Y-146029125D01*
X146971581Y-146029119D01*
X146916343Y-145816297D01*
X146916342Y-145816293D01*
X146915001Y-145811128D01*
X146910341Y-145800782D01*
X146835844Y-145635405D01*
X146820312Y-145600925D01*
X146691559Y-145409681D01*
X146678932Y-145396444D01*
X146536103Y-145246722D01*
X146532424Y-145242865D01*
X146347458Y-145105246D01*
X146342707Y-145102830D01*
X146342703Y-145102828D01*
X146220731Y-145040815D01*
X146141949Y-145000760D01*
X146136855Y-144999178D01*
X146136852Y-144999177D01*
X145926871Y-144933976D01*
X145921773Y-144932393D01*
X145916484Y-144931692D01*
X145698511Y-144902802D01*
X145698506Y-144902802D01*
X145693226Y-144902102D01*
X145687897Y-144902302D01*
X145687895Y-144902302D01*
X145589368Y-144906001D01*
X145462842Y-144910751D01*
X145457623Y-144911846D01*
X145437849Y-144915995D01*
X145237209Y-144958093D01*
X145232250Y-144960051D01*
X145232248Y-144960052D01*
X145027744Y-145040815D01*
X145027742Y-145040816D01*
X145022779Y-145042776D01*
X145018220Y-145045543D01*
X145018217Y-145045544D01*
X144919832Y-145105246D01*
X144825683Y-145162377D01*
X144821653Y-145165874D01*
X144658714Y-145307265D01*
X144651555Y-145313477D01*
X144648168Y-145317608D01*
X144621994Y-145349529D01*
X144563334Y-145389524D01*
X144492364Y-145391455D01*
X144431616Y-145354710D01*
X144417416Y-145335941D01*
X144330937Y-145196193D01*
X144321901Y-145184792D01*
X144207171Y-145070261D01*
X144195760Y-145061249D01*
X144057757Y-144976184D01*
X144044576Y-144970037D01*
X143890290Y-144918862D01*
X143876914Y-144915995D01*
X143782562Y-144906328D01*
X143776145Y-144906000D01*
X143401115Y-144906000D01*
X143385876Y-144910475D01*
X143384671Y-144911865D01*
X143383000Y-144919548D01*
X143383000Y-147903884D01*
X142875000Y-147903884D01*
X142875000Y-146686115D01*
X142870525Y-146670876D01*
X142869135Y-146669671D01*
X142861452Y-146668000D01*
X141789116Y-146668000D01*
X141773877Y-146672475D01*
X141772672Y-146673865D01*
X141771001Y-146681548D01*
X141771001Y-147211095D01*
X137826864Y-147211095D01*
X137867032Y-147140529D01*
X137869675Y-147135886D01*
X137948337Y-146919175D01*
X137952126Y-146898222D01*
X137988623Y-146696392D01*
X137988624Y-146696385D01*
X137989361Y-146692308D01*
X137990500Y-146668156D01*
X137990500Y-146206110D01*
X137985051Y-146141885D01*
X141771000Y-146141885D01*
X141775475Y-146157124D01*
X141776865Y-146158329D01*
X141784548Y-146160000D01*
X142856885Y-146160000D01*
X142872124Y-146155525D01*
X142873329Y-146154135D01*
X142875000Y-146146452D01*
X142875000Y-144924116D01*
X142870525Y-144908877D01*
X142869135Y-144907672D01*
X142861452Y-144906001D01*
X142481905Y-144906001D01*
X142475386Y-144906338D01*
X142379794Y-144916257D01*
X142366400Y-144919149D01*
X142212216Y-144970588D01*
X142199038Y-144976761D01*
X142061193Y-145062063D01*
X142049792Y-145071099D01*
X141935261Y-145185829D01*
X141926249Y-145197240D01*
X141841184Y-145335243D01*
X141835037Y-145348424D01*
X141783862Y-145502710D01*
X141780995Y-145516086D01*
X141771328Y-145610438D01*
X141771000Y-145616855D01*
X141771000Y-146141885D01*
X137985051Y-146141885D01*
X137983197Y-146120039D01*
X137976371Y-146039591D01*
X137976370Y-146039587D01*
X137975920Y-146034280D01*
X137974582Y-146029125D01*
X137974581Y-146029119D01*
X137919343Y-145816297D01*
X137919342Y-145816293D01*
X137918001Y-145811128D01*
X137913341Y-145800782D01*
X137838844Y-145635405D01*
X137823312Y-145600925D01*
X137694559Y-145409681D01*
X137681932Y-145396444D01*
X137539103Y-145246722D01*
X137535424Y-145242865D01*
X137350458Y-145105246D01*
X137345707Y-145102830D01*
X137345703Y-145102828D01*
X137223731Y-145040815D01*
X137144949Y-145000760D01*
X137139855Y-144999178D01*
X137139852Y-144999177D01*
X136929871Y-144933976D01*
X136924773Y-144932393D01*
X136919484Y-144931692D01*
X136701511Y-144902802D01*
X136701506Y-144902802D01*
X136696226Y-144902102D01*
X136690897Y-144902302D01*
X136690895Y-144902302D01*
X136592368Y-144906001D01*
X136465842Y-144910751D01*
X136460623Y-144911846D01*
X136440849Y-144915995D01*
X136240209Y-144958093D01*
X136235250Y-144960051D01*
X136235248Y-144960052D01*
X136030744Y-145040815D01*
X136030742Y-145040816D01*
X136025779Y-145042776D01*
X136021220Y-145045543D01*
X136021217Y-145045544D01*
X135922832Y-145105246D01*
X135828683Y-145162377D01*
X135824653Y-145165874D01*
X135661714Y-145307265D01*
X135654555Y-145313477D01*
X135651168Y-145317608D01*
X135624994Y-145349529D01*
X135566334Y-145389524D01*
X135495364Y-145391455D01*
X135434616Y-145354710D01*
X135420416Y-145335941D01*
X135333937Y-145196193D01*
X135324901Y-145184792D01*
X135210171Y-145070261D01*
X135198760Y-145061249D01*
X135060757Y-144976184D01*
X135047576Y-144970037D01*
X134893290Y-144918862D01*
X134879914Y-144915995D01*
X134785562Y-144906328D01*
X134779145Y-144906000D01*
X134404115Y-144906000D01*
X134388876Y-144910475D01*
X134387671Y-144911865D01*
X134386000Y-144919548D01*
X134386000Y-147903884D01*
X133878000Y-147903884D01*
X133878000Y-146686115D01*
X133873525Y-146670876D01*
X133872135Y-146669671D01*
X133864452Y-146668000D01*
X132792116Y-146668000D01*
X132776877Y-146672475D01*
X132775672Y-146673865D01*
X132774001Y-146681548D01*
X132774001Y-147211095D01*
X125667000Y-147211095D01*
X125667000Y-146141885D01*
X132774000Y-146141885D01*
X132778475Y-146157124D01*
X132779865Y-146158329D01*
X132787548Y-146160000D01*
X133859885Y-146160000D01*
X133875124Y-146155525D01*
X133876329Y-146154135D01*
X133878000Y-146146452D01*
X133878000Y-144924116D01*
X133873525Y-144908877D01*
X133872135Y-144907672D01*
X133864452Y-144906001D01*
X133484905Y-144906001D01*
X133478386Y-144906338D01*
X133382794Y-144916257D01*
X133369400Y-144919149D01*
X133215216Y-144970588D01*
X133202038Y-144976761D01*
X133064193Y-145062063D01*
X133052792Y-145071099D01*
X132938261Y-145185829D01*
X132929249Y-145197240D01*
X132844184Y-145335243D01*
X132838037Y-145348424D01*
X132786862Y-145502710D01*
X132783995Y-145516086D01*
X132774328Y-145610438D01*
X132774000Y-145616855D01*
X132774000Y-146141885D01*
X125667000Y-146141885D01*
X125667000Y-140802134D01*
X138137500Y-140802134D01*
X138144255Y-140864316D01*
X138195385Y-141000705D01*
X138282739Y-141117261D01*
X138399295Y-141204615D01*
X138535684Y-141255745D01*
X138597866Y-141262500D01*
X140294134Y-141262500D01*
X140356316Y-141255745D01*
X140492705Y-141204615D01*
X140609261Y-141117261D01*
X140667119Y-141040062D01*
X141224493Y-141040062D01*
X141233789Y-141052077D01*
X141284994Y-141087931D01*
X141294489Y-141093414D01*
X141491947Y-141185490D01*
X141502239Y-141189236D01*
X141712688Y-141245625D01*
X141723481Y-141247528D01*
X141940525Y-141266517D01*
X141951475Y-141266517D01*
X142168519Y-141247528D01*
X142179312Y-141245625D01*
X142389761Y-141189236D01*
X142400053Y-141185490D01*
X142597511Y-141093414D01*
X142607006Y-141087931D01*
X142659048Y-141051491D01*
X142667424Y-141041012D01*
X142660356Y-141027566D01*
X141958812Y-140326022D01*
X141944868Y-140318408D01*
X141943035Y-140318539D01*
X141936420Y-140322790D01*
X141230923Y-141028287D01*
X141224493Y-141040062D01*
X140667119Y-141040062D01*
X140696615Y-141000705D01*
X140747745Y-140864316D01*
X140754500Y-140802134D01*
X140754500Y-140798815D01*
X140778153Y-140731890D01*
X140824156Y-140696196D01*
X140823141Y-140694266D01*
X140834000Y-140688558D01*
X140834245Y-140688368D01*
X140834403Y-140688347D01*
X140872434Y-140668356D01*
X141573978Y-139966812D01*
X141580356Y-139955132D01*
X142310408Y-139955132D01*
X142310539Y-139956965D01*
X142314790Y-139963580D01*
X143020287Y-140669077D01*
X143032062Y-140675507D01*
X143044077Y-140666211D01*
X143079931Y-140615006D01*
X143085414Y-140605511D01*
X143177490Y-140408053D01*
X143181236Y-140397761D01*
X143237625Y-140187312D01*
X143239528Y-140176519D01*
X143258517Y-139959475D01*
X143258517Y-139948525D01*
X143239528Y-139731481D01*
X143237625Y-139720688D01*
X143181236Y-139510239D01*
X143177490Y-139499947D01*
X143085414Y-139302489D01*
X143079931Y-139292994D01*
X143043491Y-139240952D01*
X143033012Y-139232576D01*
X143019566Y-139239644D01*
X142318022Y-139941188D01*
X142310408Y-139955132D01*
X141580356Y-139955132D01*
X141581592Y-139952868D01*
X141581461Y-139951035D01*
X141577210Y-139944420D01*
X140871713Y-139238923D01*
X140829971Y-139216129D01*
X140819971Y-139213953D01*
X140769773Y-139163747D01*
X140754549Y-139110186D01*
X140754500Y-139109281D01*
X140754500Y-139105866D01*
X140747745Y-139043684D01*
X140696615Y-138907295D01*
X140666407Y-138866988D01*
X141224576Y-138866988D01*
X141231644Y-138880434D01*
X141933188Y-139581978D01*
X141947132Y-139589592D01*
X141948965Y-139589461D01*
X141955580Y-139585210D01*
X142661077Y-138879713D01*
X142667507Y-138867938D01*
X142658211Y-138855923D01*
X142607006Y-138820069D01*
X142597511Y-138814586D01*
X142400053Y-138722510D01*
X142389761Y-138718764D01*
X142179312Y-138662375D01*
X142168519Y-138660472D01*
X141951475Y-138641483D01*
X141940525Y-138641483D01*
X141723481Y-138660472D01*
X141712688Y-138662375D01*
X141502239Y-138718764D01*
X141491947Y-138722510D01*
X141294489Y-138814586D01*
X141284994Y-138820069D01*
X141232952Y-138856509D01*
X141224576Y-138866988D01*
X140666407Y-138866988D01*
X140609261Y-138790739D01*
X140492705Y-138703385D01*
X140356316Y-138652255D01*
X140294134Y-138645500D01*
X138597866Y-138645500D01*
X138535684Y-138652255D01*
X138399295Y-138703385D01*
X138282739Y-138790739D01*
X138195385Y-138907295D01*
X138144255Y-139043684D01*
X138137500Y-139105866D01*
X138137500Y-140802134D01*
X125667000Y-140802134D01*
X125667000Y-135396109D01*
X129007234Y-135396109D01*
X129025091Y-135748606D01*
X129025628Y-135751961D01*
X129025629Y-135751967D01*
X129040983Y-135847825D01*
X129080912Y-136097113D01*
X129174046Y-136437553D01*
X129303403Y-136765943D01*
X129304986Y-136768958D01*
X129465884Y-137075426D01*
X129465889Y-137075434D01*
X129467468Y-137078442D01*
X129469362Y-137081260D01*
X129469367Y-137081269D01*
X129597272Y-137271611D01*
X129664324Y-137371395D01*
X129891667Y-137641373D01*
X129894127Y-137643724D01*
X129894130Y-137643727D01*
X130144375Y-137882866D01*
X130144382Y-137882872D01*
X130146838Y-137885219D01*
X130426851Y-138100081D01*
X130429769Y-138101855D01*
X130725517Y-138281673D01*
X130725522Y-138281676D01*
X130728432Y-138283445D01*
X130731520Y-138284891D01*
X130731519Y-138284891D01*
X131044968Y-138431722D01*
X131044978Y-138431726D01*
X131048052Y-138433166D01*
X131051270Y-138434268D01*
X131051273Y-138434269D01*
X131378741Y-138546387D01*
X131378745Y-138546388D01*
X131381972Y-138547493D01*
X131385302Y-138548243D01*
X131385311Y-138548246D01*
X131628664Y-138603087D01*
X131726286Y-138625087D01*
X131729671Y-138625473D01*
X131729679Y-138625474D01*
X132073583Y-138664657D01*
X132073591Y-138664657D01*
X132076966Y-138665042D01*
X132080370Y-138665060D01*
X132080373Y-138665060D01*
X132272127Y-138666064D01*
X132429911Y-138666890D01*
X132433297Y-138666540D01*
X132433299Y-138666540D01*
X132777598Y-138630961D01*
X132777607Y-138630960D01*
X132780990Y-138630610D01*
X132784323Y-138629896D01*
X132784326Y-138629895D01*
X132954192Y-138593479D01*
X133126098Y-138556625D01*
X133461197Y-138445801D01*
X133782367Y-138299436D01*
X133969306Y-138188440D01*
X134082907Y-138120989D01*
X134082912Y-138120986D01*
X134085852Y-138119240D01*
X134111370Y-138100081D01*
X134365367Y-137909374D01*
X134368100Y-137907322D01*
X134625810Y-137666161D01*
X134855968Y-137398578D01*
X135055880Y-137107703D01*
X135057492Y-137104709D01*
X135057497Y-137104701D01*
X135221587Y-136799952D01*
X135223209Y-136796940D01*
X135355998Y-136469922D01*
X135364316Y-136440723D01*
X135424420Y-136229724D01*
X135452691Y-136130476D01*
X135471424Y-136020882D01*
X135488896Y-135918669D01*
X138493501Y-135918669D01*
X138493871Y-135925490D01*
X138499395Y-135976352D01*
X138503021Y-135991604D01*
X138548176Y-136112054D01*
X138556714Y-136127649D01*
X138633215Y-136229724D01*
X138645776Y-136242285D01*
X138747851Y-136318786D01*
X138763446Y-136327324D01*
X138883894Y-136372478D01*
X138899149Y-136376105D01*
X138950014Y-136381631D01*
X138956828Y-136382000D01*
X139681885Y-136382000D01*
X139697124Y-136377525D01*
X139698329Y-136376135D01*
X139700000Y-136368452D01*
X139700000Y-136363884D01*
X140208000Y-136363884D01*
X140212475Y-136379123D01*
X140213865Y-136380328D01*
X140221548Y-136381999D01*
X140951169Y-136381999D01*
X140957990Y-136381629D01*
X141008852Y-136376105D01*
X141024104Y-136372479D01*
X141144554Y-136327324D01*
X141160149Y-136318786D01*
X141262224Y-136242285D01*
X141274785Y-136229724D01*
X141351286Y-136127649D01*
X141359824Y-136112055D01*
X141364160Y-136100487D01*
X141406801Y-136043721D01*
X141473362Y-136019020D01*
X141542711Y-136034226D01*
X141560235Y-136045832D01*
X141678670Y-136139367D01*
X141678675Y-136139370D01*
X141682724Y-136142568D01*
X141687240Y-136145061D01*
X141687243Y-136145063D01*
X141888526Y-136256177D01*
X141888530Y-136256179D01*
X141893050Y-136258674D01*
X141897919Y-136260398D01*
X141897923Y-136260400D01*
X142114640Y-136337144D01*
X142114644Y-136337145D01*
X142119515Y-136338870D01*
X142124608Y-136339777D01*
X142124611Y-136339778D01*
X142350948Y-136380095D01*
X142350954Y-136380096D01*
X142356037Y-136381001D01*
X142437804Y-136382000D01*
X142591093Y-136383873D01*
X142591095Y-136383873D01*
X142596263Y-136383936D01*
X142833744Y-136347596D01*
X142945997Y-136310906D01*
X143057183Y-136274566D01*
X143057189Y-136274563D01*
X143062101Y-136272958D01*
X143066687Y-136270571D01*
X143066691Y-136270569D01*
X143270607Y-136164416D01*
X143275200Y-136162025D01*
X143381707Y-136082057D01*
X143463185Y-136020882D01*
X143463188Y-136020880D01*
X143467320Y-136017777D01*
X143537409Y-135944433D01*
X143629730Y-135847825D01*
X143629731Y-135847824D01*
X143633301Y-135844088D01*
X143658535Y-135807097D01*
X143713444Y-135762096D01*
X143783968Y-135753925D01*
X143847716Y-135785179D01*
X143868411Y-135809660D01*
X143872498Y-135815977D01*
X144034186Y-135993670D01*
X144085539Y-136034226D01*
X144218670Y-136139367D01*
X144218675Y-136139370D01*
X144222724Y-136142568D01*
X144227240Y-136145061D01*
X144227243Y-136145063D01*
X144428526Y-136256177D01*
X144428530Y-136256179D01*
X144433050Y-136258674D01*
X144437919Y-136260398D01*
X144437923Y-136260400D01*
X144654640Y-136337144D01*
X144654644Y-136337145D01*
X144659515Y-136338870D01*
X144664608Y-136339777D01*
X144664611Y-136339778D01*
X144890948Y-136380095D01*
X144890954Y-136380096D01*
X144896037Y-136381001D01*
X144977804Y-136382000D01*
X145131093Y-136383873D01*
X145131095Y-136383873D01*
X145136263Y-136383936D01*
X145373744Y-136347596D01*
X145485997Y-136310906D01*
X145597183Y-136274566D01*
X145597189Y-136274563D01*
X145602101Y-136272958D01*
X145606687Y-136270571D01*
X145606691Y-136270569D01*
X145810607Y-136164416D01*
X145815200Y-136162025D01*
X145921707Y-136082057D01*
X146003185Y-136020882D01*
X146003188Y-136020880D01*
X146007320Y-136017777D01*
X146173301Y-135844088D01*
X146302215Y-135655108D01*
X146305774Y-135649891D01*
X146305775Y-135649890D01*
X146308686Y-135645622D01*
X146323243Y-135614263D01*
X146407658Y-135432405D01*
X146407659Y-135432401D01*
X146409837Y-135427710D01*
X146474040Y-135196202D01*
X146479393Y-135146115D01*
X146494644Y-135003407D01*
X146494644Y-135003399D01*
X146495000Y-135000072D01*
X146495000Y-134765598D01*
X146494361Y-134757817D01*
X146482662Y-134615525D01*
X146480322Y-134587063D01*
X146421794Y-134354056D01*
X146356790Y-134204557D01*
X146328057Y-134138474D01*
X146328055Y-134138471D01*
X146325997Y-134133737D01*
X146215426Y-133962821D01*
X146198310Y-133936363D01*
X146198308Y-133936360D01*
X146195502Y-133932023D01*
X146033814Y-133754330D01*
X145864167Y-133620351D01*
X145849330Y-133608633D01*
X145849325Y-133608630D01*
X145845276Y-133605432D01*
X145840760Y-133602939D01*
X145840757Y-133602937D01*
X145639474Y-133491823D01*
X145639470Y-133491821D01*
X145634950Y-133489326D01*
X145630081Y-133487602D01*
X145630077Y-133487600D01*
X145413360Y-133410856D01*
X145413356Y-133410855D01*
X145408485Y-133409130D01*
X145403392Y-133408223D01*
X145403389Y-133408222D01*
X145177052Y-133367905D01*
X145177046Y-133367904D01*
X145171963Y-133366999D01*
X145084600Y-133365932D01*
X144936907Y-133364127D01*
X144936905Y-133364127D01*
X144931737Y-133364064D01*
X144694256Y-133400404D01*
X144606111Y-133429214D01*
X144470817Y-133473434D01*
X144470811Y-133473437D01*
X144465899Y-133475042D01*
X144461313Y-133477429D01*
X144461309Y-133477431D01*
X144257393Y-133583584D01*
X144252800Y-133585975D01*
X144248657Y-133589085D01*
X144248658Y-133589085D01*
X144065262Y-133726783D01*
X144060680Y-133730223D01*
X143894699Y-133903912D01*
X143869465Y-133940903D01*
X143814556Y-133985904D01*
X143744032Y-133994075D01*
X143680284Y-133962821D01*
X143659589Y-133938340D01*
X143658311Y-133936365D01*
X143655502Y-133932023D01*
X143493814Y-133754330D01*
X143324167Y-133620351D01*
X143309330Y-133608633D01*
X143309325Y-133608630D01*
X143305276Y-133605432D01*
X143300760Y-133602939D01*
X143300757Y-133602937D01*
X143099474Y-133491823D01*
X143099470Y-133491821D01*
X143094950Y-133489326D01*
X143090081Y-133487602D01*
X143090077Y-133487600D01*
X142873360Y-133410856D01*
X142873356Y-133410855D01*
X142868485Y-133409130D01*
X142863392Y-133408223D01*
X142863389Y-133408222D01*
X142637052Y-133367905D01*
X142637046Y-133367904D01*
X142631963Y-133366999D01*
X142544600Y-133365932D01*
X142396907Y-133364127D01*
X142396905Y-133364127D01*
X142391737Y-133364064D01*
X142154256Y-133400404D01*
X142066111Y-133429214D01*
X141930817Y-133473434D01*
X141930811Y-133473437D01*
X141925899Y-133475042D01*
X141921313Y-133477429D01*
X141921309Y-133477431D01*
X141717393Y-133583584D01*
X141712800Y-133585975D01*
X141557300Y-133702728D01*
X141490818Y-133727633D01*
X141421422Y-133712641D01*
X141371148Y-133662511D01*
X141363667Y-133646197D01*
X141359824Y-133635946D01*
X141351286Y-133620351D01*
X141274785Y-133518276D01*
X141262224Y-133505715D01*
X141160149Y-133429214D01*
X141144554Y-133420676D01*
X141024106Y-133375522D01*
X141008851Y-133371895D01*
X140957986Y-133366369D01*
X140951172Y-133366000D01*
X140226115Y-133366000D01*
X140210876Y-133370475D01*
X140209671Y-133371865D01*
X140208000Y-133379548D01*
X140208000Y-136363884D01*
X139700000Y-136363884D01*
X139700000Y-135146115D01*
X139695525Y-135130876D01*
X139694135Y-135129671D01*
X139686452Y-135128000D01*
X138511616Y-135128000D01*
X138496377Y-135132475D01*
X138495172Y-135133865D01*
X138493501Y-135141548D01*
X138493501Y-135918669D01*
X135488896Y-135918669D01*
X135511587Y-135785920D01*
X135511587Y-135785918D01*
X135512159Y-135782573D01*
X135512628Y-135774915D01*
X135533596Y-135432080D01*
X135533706Y-135430282D01*
X135533786Y-135407500D01*
X135514699Y-135055067D01*
X135457661Y-134706757D01*
X135428577Y-134601885D01*
X138493500Y-134601885D01*
X138497975Y-134617124D01*
X138499365Y-134618329D01*
X138507048Y-134620000D01*
X139681885Y-134620000D01*
X139697124Y-134615525D01*
X139698329Y-134614135D01*
X139700000Y-134606452D01*
X139700000Y-133384116D01*
X139695525Y-133368877D01*
X139694135Y-133367672D01*
X139686452Y-133366001D01*
X138956831Y-133366001D01*
X138950010Y-133366371D01*
X138899148Y-133371895D01*
X138883896Y-133375521D01*
X138763446Y-133420676D01*
X138747851Y-133429214D01*
X138645776Y-133505715D01*
X138633215Y-133518276D01*
X138556714Y-133620351D01*
X138548176Y-133635946D01*
X138503022Y-133756394D01*
X138499395Y-133771649D01*
X138493869Y-133822514D01*
X138493500Y-133829328D01*
X138493500Y-134601885D01*
X135428577Y-134601885D01*
X135363339Y-134366645D01*
X135360349Y-134359130D01*
X135234097Y-134041872D01*
X135232838Y-134038708D01*
X135118369Y-133822514D01*
X135069277Y-133729795D01*
X135069275Y-133729792D01*
X135067682Y-133726783D01*
X135061079Y-133717030D01*
X134871711Y-133437334D01*
X134871704Y-133437325D01*
X134869805Y-133434520D01*
X134867609Y-133431930D01*
X134867604Y-133431924D01*
X134779215Y-133327701D01*
X134641521Y-133165337D01*
X134385501Y-132922383D01*
X134382794Y-132920321D01*
X134382786Y-132920314D01*
X134224309Y-132799588D01*
X134104739Y-132708500D01*
X133802520Y-132526189D01*
X133799430Y-132524755D01*
X133799425Y-132524752D01*
X133642449Y-132451887D01*
X133482379Y-132377585D01*
X133479154Y-132376493D01*
X133479148Y-132376491D01*
X133151298Y-132265520D01*
X133151293Y-132265518D01*
X133148062Y-132264425D01*
X133134332Y-132261381D01*
X133065230Y-132246062D01*
X132803479Y-132188033D01*
X132678853Y-132174274D01*
X132456043Y-132149675D01*
X132456038Y-132149675D01*
X132452662Y-132149302D01*
X132449263Y-132149296D01*
X132449262Y-132149296D01*
X132282789Y-132149006D01*
X132099713Y-132148686D01*
X131968706Y-132162687D01*
X131752146Y-132185830D01*
X131752140Y-132185831D01*
X131748762Y-132186192D01*
X131403914Y-132261381D01*
X131069204Y-132373373D01*
X130748547Y-132520859D01*
X130445694Y-132702113D01*
X130164187Y-132915015D01*
X129907320Y-133157074D01*
X129905108Y-133159664D01*
X129905107Y-133159665D01*
X129723846Y-133371895D01*
X129678098Y-133425459D01*
X129676170Y-133428286D01*
X129676168Y-133428288D01*
X129673688Y-133431924D01*
X129479202Y-133717030D01*
X129450038Y-133771649D01*
X129359666Y-133940901D01*
X129312958Y-134028376D01*
X129311683Y-134031548D01*
X129311681Y-134031552D01*
X129186948Y-134341838D01*
X129181313Y-134355855D01*
X129180394Y-134359123D01*
X129180392Y-134359130D01*
X129104827Y-134627960D01*
X129085804Y-134695636D01*
X129085243Y-134698989D01*
X129085242Y-134698993D01*
X129033569Y-135007782D01*
X129027551Y-135043745D01*
X129007234Y-135396109D01*
X125667000Y-135396109D01*
X125667000Y-131599036D01*
X125687002Y-131530915D01*
X125740658Y-131484422D01*
X125793050Y-131473036D01*
X146834008Y-131481358D01*
X146834009Y-131481358D01*
X146852123Y-131481365D01*
X146852042Y-131432000D01*
X146845126Y-127244593D01*
X146869010Y-127170573D01*
X146904332Y-127121706D01*
X146904334Y-127121703D01*
X146907507Y-127117313D01*
X146993900Y-126940316D01*
X147048763Y-126751156D01*
X147065803Y-126597546D01*
X147067333Y-126587487D01*
X147070187Y-126572749D01*
X147071112Y-126567973D01*
X147071574Y-126555428D01*
X147067371Y-126519872D01*
X147066500Y-126505081D01*
X147066500Y-125434734D01*
X177721500Y-125434734D01*
X177728255Y-125496916D01*
X177779385Y-125633305D01*
X177866739Y-125749861D01*
X177983295Y-125837215D01*
X178119684Y-125888345D01*
X178181866Y-125895100D01*
X179978134Y-125895100D01*
X180040316Y-125888345D01*
X180176705Y-125837215D01*
X180293261Y-125749861D01*
X180380615Y-125633305D01*
X180402799Y-125574129D01*
X180424598Y-125515982D01*
X180467240Y-125459218D01*
X180533802Y-125434518D01*
X180603150Y-125449726D01*
X180637817Y-125477714D01*
X180666250Y-125510538D01*
X180838126Y-125653232D01*
X181031000Y-125765938D01*
X181239692Y-125845630D01*
X181244760Y-125846661D01*
X181244763Y-125846662D01*
X181352017Y-125868483D01*
X181458597Y-125890167D01*
X181463772Y-125890357D01*
X181463774Y-125890357D01*
X181676673Y-125898164D01*
X181676677Y-125898164D01*
X181681837Y-125898353D01*
X181686957Y-125897697D01*
X181686959Y-125897697D01*
X181898288Y-125870625D01*
X181898289Y-125870625D01*
X181903416Y-125869968D01*
X181908366Y-125868483D01*
X182112429Y-125807261D01*
X182112434Y-125807259D01*
X182117384Y-125805774D01*
X182317994Y-125707496D01*
X182499860Y-125577773D01*
X182658096Y-125420089D01*
X182788453Y-125238677D01*
X182789776Y-125239628D01*
X182836645Y-125196457D01*
X182906580Y-125184225D01*
X182972026Y-125211744D01*
X182999875Y-125243594D01*
X183059987Y-125341688D01*
X183206250Y-125510538D01*
X183378126Y-125653232D01*
X183571000Y-125765938D01*
X183779692Y-125845630D01*
X183784760Y-125846661D01*
X183784763Y-125846662D01*
X183892017Y-125868483D01*
X183998597Y-125890167D01*
X184003772Y-125890357D01*
X184003774Y-125890357D01*
X184216673Y-125898164D01*
X184216677Y-125898164D01*
X184221837Y-125898353D01*
X184226957Y-125897697D01*
X184226959Y-125897697D01*
X184438288Y-125870625D01*
X184438289Y-125870625D01*
X184443416Y-125869968D01*
X184448366Y-125868483D01*
X184652429Y-125807261D01*
X184652434Y-125807259D01*
X184657384Y-125805774D01*
X184857994Y-125707496D01*
X185039860Y-125577773D01*
X185198096Y-125420089D01*
X185328453Y-125238677D01*
X185329776Y-125239628D01*
X185376645Y-125196457D01*
X185446580Y-125184225D01*
X185512026Y-125211744D01*
X185539875Y-125243594D01*
X185599987Y-125341688D01*
X185746250Y-125510538D01*
X185918126Y-125653232D01*
X186111000Y-125765938D01*
X186319692Y-125845630D01*
X186324760Y-125846661D01*
X186324763Y-125846662D01*
X186432017Y-125868483D01*
X186538597Y-125890167D01*
X186543772Y-125890357D01*
X186543774Y-125890357D01*
X186756673Y-125898164D01*
X186756677Y-125898164D01*
X186761837Y-125898353D01*
X186766957Y-125897697D01*
X186766959Y-125897697D01*
X186978288Y-125870625D01*
X186978289Y-125870625D01*
X186983416Y-125869968D01*
X186988366Y-125868483D01*
X187192429Y-125807261D01*
X187192434Y-125807259D01*
X187197384Y-125805774D01*
X187397994Y-125707496D01*
X187579860Y-125577773D01*
X187738096Y-125420089D01*
X187868453Y-125238677D01*
X187889320Y-125196457D01*
X187965136Y-125043053D01*
X187965137Y-125043051D01*
X187967430Y-125038411D01*
X188032370Y-124824669D01*
X188061529Y-124603190D01*
X188063156Y-124536600D01*
X188044852Y-124313961D01*
X187990431Y-124097302D01*
X187901354Y-123892440D01*
X187861906Y-123831462D01*
X187782822Y-123709217D01*
X187782820Y-123709214D01*
X187780014Y-123704877D01*
X187629670Y-123539651D01*
X187625619Y-123536452D01*
X187625615Y-123536448D01*
X187458414Y-123404400D01*
X187458410Y-123404398D01*
X187454359Y-123401198D01*
X187416106Y-123380081D01*
X187366459Y-123352675D01*
X187258789Y-123293238D01*
X187253920Y-123291514D01*
X187253916Y-123291512D01*
X187053087Y-123220395D01*
X187053083Y-123220394D01*
X187048212Y-123218669D01*
X187043119Y-123217762D01*
X187043116Y-123217761D01*
X186833373Y-123180400D01*
X186833367Y-123180399D01*
X186828284Y-123179494D01*
X186754452Y-123178592D01*
X186610081Y-123176828D01*
X186610079Y-123176828D01*
X186604911Y-123176765D01*
X186384091Y-123210555D01*
X186171756Y-123279957D01*
X186146236Y-123293242D01*
X186036531Y-123350351D01*
X185973607Y-123383107D01*
X185969474Y-123386210D01*
X185969471Y-123386212D01*
X185799100Y-123514130D01*
X185794965Y-123517235D01*
X185777896Y-123535097D01*
X185683729Y-123633637D01*
X185640629Y-123678738D01*
X185533201Y-123836221D01*
X185478293Y-123881221D01*
X185407768Y-123889392D01*
X185344021Y-123858138D01*
X185323324Y-123833654D01*
X185242822Y-123709217D01*
X185242820Y-123709214D01*
X185240014Y-123704877D01*
X185089670Y-123539651D01*
X185085619Y-123536452D01*
X185085615Y-123536448D01*
X184918414Y-123404400D01*
X184918410Y-123404398D01*
X184914359Y-123401198D01*
X184876106Y-123380081D01*
X184826459Y-123352675D01*
X184718789Y-123293238D01*
X184713920Y-123291514D01*
X184713916Y-123291512D01*
X184513087Y-123220395D01*
X184513083Y-123220394D01*
X184508212Y-123218669D01*
X184503119Y-123217762D01*
X184503116Y-123217761D01*
X184293373Y-123180400D01*
X184293367Y-123180399D01*
X184288284Y-123179494D01*
X184214452Y-123178592D01*
X184070081Y-123176828D01*
X184070079Y-123176828D01*
X184064911Y-123176765D01*
X183844091Y-123210555D01*
X183631756Y-123279957D01*
X183606236Y-123293242D01*
X183496531Y-123350351D01*
X183433607Y-123383107D01*
X183429474Y-123386210D01*
X183429471Y-123386212D01*
X183259100Y-123514130D01*
X183254965Y-123517235D01*
X183237896Y-123535097D01*
X183143729Y-123633637D01*
X183100629Y-123678738D01*
X182993201Y-123836221D01*
X182938293Y-123881221D01*
X182867768Y-123889392D01*
X182804021Y-123858138D01*
X182783324Y-123833654D01*
X182702822Y-123709217D01*
X182702820Y-123709214D01*
X182700014Y-123704877D01*
X182549670Y-123539651D01*
X182545619Y-123536452D01*
X182545615Y-123536448D01*
X182378414Y-123404400D01*
X182378410Y-123404398D01*
X182374359Y-123401198D01*
X182336106Y-123380081D01*
X182286459Y-123352675D01*
X182178789Y-123293238D01*
X182173920Y-123291514D01*
X182173916Y-123291512D01*
X181973087Y-123220395D01*
X181973083Y-123220394D01*
X181968212Y-123218669D01*
X181963119Y-123217762D01*
X181963116Y-123217761D01*
X181753373Y-123180400D01*
X181753367Y-123180399D01*
X181748284Y-123179494D01*
X181674452Y-123178592D01*
X181530081Y-123176828D01*
X181530079Y-123176828D01*
X181524911Y-123176765D01*
X181304091Y-123210555D01*
X181091756Y-123279957D01*
X181066236Y-123293242D01*
X180956531Y-123350351D01*
X180893607Y-123383107D01*
X180889474Y-123386210D01*
X180889471Y-123386212D01*
X180719100Y-123514130D01*
X180714965Y-123517235D01*
X180646544Y-123588834D01*
X180634283Y-123601664D01*
X180572759Y-123637094D01*
X180501846Y-123633637D01*
X180444060Y-123592391D01*
X180425207Y-123558843D01*
X180383767Y-123448303D01*
X180380615Y-123439895D01*
X180293261Y-123323339D01*
X180176705Y-123235985D01*
X180040316Y-123184855D01*
X179978134Y-123178100D01*
X178181866Y-123178100D01*
X178119684Y-123184855D01*
X177983295Y-123235985D01*
X177866739Y-123323339D01*
X177779385Y-123439895D01*
X177728255Y-123576284D01*
X177721500Y-123638466D01*
X177721500Y-125434734D01*
X147066500Y-125434734D01*
X147066500Y-120000000D01*
X147797506Y-120000000D01*
X147817842Y-120232444D01*
X147819266Y-120237757D01*
X147819266Y-120237759D01*
X147840996Y-120318854D01*
X147878233Y-120457826D01*
X147880555Y-120462806D01*
X147880556Y-120462808D01*
X147974518Y-120664310D01*
X147974521Y-120664315D01*
X147976844Y-120669297D01*
X147980000Y-120673804D01*
X147980001Y-120673806D01*
X148103067Y-120849562D01*
X148110678Y-120860432D01*
X148275668Y-121025422D01*
X148280176Y-121028579D01*
X148280179Y-121028581D01*
X148462294Y-121156099D01*
X148466803Y-121159256D01*
X148471785Y-121161579D01*
X148471790Y-121161582D01*
X148673292Y-121255544D01*
X148678274Y-121257867D01*
X148683582Y-121259289D01*
X148683584Y-121259290D01*
X148898341Y-121316834D01*
X148898343Y-121316834D01*
X148903656Y-121318258D01*
X149136100Y-121338594D01*
X149368544Y-121318258D01*
X149373857Y-121316834D01*
X149373859Y-121316834D01*
X149588616Y-121259290D01*
X149588618Y-121259289D01*
X149593926Y-121257867D01*
X149598908Y-121255544D01*
X149800410Y-121161582D01*
X149800415Y-121161579D01*
X149805397Y-121159256D01*
X149809906Y-121156099D01*
X149992021Y-121028581D01*
X149992024Y-121028579D01*
X149996532Y-121025422D01*
X150161522Y-120860432D01*
X150169134Y-120849562D01*
X150292199Y-120673806D01*
X150292200Y-120673804D01*
X150295356Y-120669297D01*
X150297679Y-120664315D01*
X150297682Y-120664310D01*
X150391644Y-120462808D01*
X150391645Y-120462806D01*
X150393967Y-120457826D01*
X150431205Y-120318854D01*
X150452934Y-120237759D01*
X150452934Y-120237757D01*
X150454358Y-120232444D01*
X150474694Y-120000000D01*
X150454358Y-119767556D01*
X150440354Y-119715293D01*
X150395390Y-119547484D01*
X150395389Y-119547482D01*
X150393967Y-119542174D01*
X150391644Y-119537192D01*
X150297682Y-119335690D01*
X150297679Y-119335685D01*
X150295356Y-119330703D01*
X150292199Y-119326194D01*
X150164681Y-119144079D01*
X150164679Y-119144076D01*
X150161522Y-119139568D01*
X149996532Y-118974578D01*
X149992024Y-118971421D01*
X149992021Y-118971419D01*
X149809906Y-118843901D01*
X149809904Y-118843900D01*
X149805397Y-118840744D01*
X149800415Y-118838421D01*
X149800410Y-118838418D01*
X149598908Y-118744456D01*
X149598906Y-118744455D01*
X149593926Y-118742133D01*
X149588618Y-118740711D01*
X149588616Y-118740710D01*
X149373859Y-118683166D01*
X149373857Y-118683166D01*
X149368544Y-118681742D01*
X149136100Y-118661406D01*
X148903656Y-118681742D01*
X148898343Y-118683166D01*
X148898341Y-118683166D01*
X148683584Y-118740710D01*
X148683582Y-118740711D01*
X148678274Y-118742133D01*
X148673294Y-118744455D01*
X148673292Y-118744456D01*
X148471790Y-118838418D01*
X148471785Y-118838421D01*
X148466803Y-118840744D01*
X148462296Y-118843900D01*
X148462294Y-118843901D01*
X148280179Y-118971419D01*
X148280176Y-118971421D01*
X148275668Y-118974578D01*
X148110678Y-119139568D01*
X148107521Y-119144076D01*
X148107519Y-119144079D01*
X147980001Y-119326194D01*
X147976844Y-119330703D01*
X147974521Y-119335685D01*
X147974518Y-119335690D01*
X147880556Y-119537192D01*
X147878233Y-119542174D01*
X147876811Y-119547482D01*
X147876810Y-119547484D01*
X147831846Y-119715293D01*
X147817842Y-119767556D01*
X147797506Y-120000000D01*
X147066500Y-120000000D01*
X147066500Y-111104013D01*
X148396642Y-111104013D01*
X148405938Y-111116028D01*
X148462546Y-111155665D01*
X148472041Y-111161148D01*
X148673464Y-111255072D01*
X148683756Y-111258818D01*
X148898428Y-111316339D01*
X148909223Y-111318242D01*
X149130625Y-111337613D01*
X149141575Y-111337613D01*
X149362977Y-111318242D01*
X149373772Y-111316339D01*
X149588444Y-111258818D01*
X149598736Y-111255072D01*
X149800159Y-111161148D01*
X149809654Y-111155665D01*
X149867100Y-111115441D01*
X149875475Y-111104964D01*
X149868407Y-111091517D01*
X149148912Y-110372022D01*
X149134968Y-110364408D01*
X149133135Y-110364539D01*
X149126520Y-110368790D01*
X148403072Y-111092238D01*
X148396642Y-111104013D01*
X147066500Y-111104013D01*
X147066500Y-110005475D01*
X147798487Y-110005475D01*
X147817858Y-110226877D01*
X147819761Y-110237672D01*
X147877282Y-110452344D01*
X147881028Y-110462636D01*
X147974952Y-110664059D01*
X147980435Y-110673554D01*
X148020659Y-110731000D01*
X148031136Y-110739375D01*
X148044583Y-110732307D01*
X148764078Y-110012812D01*
X148770456Y-110001132D01*
X149500508Y-110001132D01*
X149500639Y-110002965D01*
X149504890Y-110009580D01*
X150228338Y-110733028D01*
X150240113Y-110739458D01*
X150252128Y-110730162D01*
X150291765Y-110673554D01*
X150297248Y-110664059D01*
X150391172Y-110462636D01*
X150394918Y-110452344D01*
X150452439Y-110237672D01*
X150454342Y-110226877D01*
X150473713Y-110005475D01*
X150473713Y-109994525D01*
X150454342Y-109773123D01*
X150452439Y-109762328D01*
X150394918Y-109547656D01*
X150391172Y-109537364D01*
X150297248Y-109335941D01*
X150291765Y-109326446D01*
X150251541Y-109269000D01*
X150241064Y-109260625D01*
X150227617Y-109267693D01*
X149508122Y-109987188D01*
X149500508Y-110001132D01*
X148770456Y-110001132D01*
X148771692Y-109998868D01*
X148771561Y-109997035D01*
X148767310Y-109990420D01*
X148043862Y-109266972D01*
X148032087Y-109260542D01*
X148020072Y-109269838D01*
X147980435Y-109326446D01*
X147974952Y-109335941D01*
X147881028Y-109537364D01*
X147877282Y-109547656D01*
X147819761Y-109762328D01*
X147817858Y-109773123D01*
X147798487Y-109994525D01*
X147798487Y-110005475D01*
X147066500Y-110005475D01*
X147066500Y-108895036D01*
X148396725Y-108895036D01*
X148403793Y-108908483D01*
X149123288Y-109627978D01*
X149137232Y-109635592D01*
X149139065Y-109635461D01*
X149145680Y-109631210D01*
X149869128Y-108907762D01*
X149875558Y-108895987D01*
X149866262Y-108883972D01*
X149809654Y-108844335D01*
X149800159Y-108838852D01*
X149598736Y-108744928D01*
X149588444Y-108741182D01*
X149373772Y-108683661D01*
X149362977Y-108681758D01*
X149141575Y-108662387D01*
X149130625Y-108662387D01*
X148909223Y-108681758D01*
X148898428Y-108683661D01*
X148683756Y-108741182D01*
X148673464Y-108744928D01*
X148472041Y-108838852D01*
X148462546Y-108844335D01*
X148405100Y-108884559D01*
X148396725Y-108895036D01*
X147066500Y-108895036D01*
X147066500Y-108457500D01*
X147086502Y-108389379D01*
X147140158Y-108342886D01*
X147192500Y-108331500D01*
X150874988Y-108331500D01*
X150943109Y-108351502D01*
G37*
G04 #@! TD.AperFunction*
M02*
