M48
; DRILL file {KiCad (6.0.5)} date Tue Aug 23 18:06:27 2022
; FORMAT={-:-/ absolute / inch / decimal}
; #@! TF.CreationDate,2022-08-23T18:06:27+02:00
; #@! TF.GenerationSoftware,Kicad,Pcbnew,(6.0.5)
; #@! TF.FileFunction,Plated,1,2,PTH
FMAT,2
INCH
; #@! TA.AperFunction,Plated,PTH,ViaDrill
T1C0.0118
; #@! TA.AperFunction,Plated,PTH,ViaDrill
T2C0.0157
; #@! TA.AperFunction,Plated,PTH,ComponentDrill
T3C0.0236
; #@! TA.AperFunction,Plated,PTH,ComponentDrill
T4C0.0315
; #@! TA.AperFunction,Plated,PTH,ComponentDrill
T5C0.0394
; #@! TA.AperFunction,Plated,PTH,ComponentDrill
T6C0.0433
; #@! TA.AperFunction,Plated,PTH,ComponentDrill
T7C0.0510
; #@! TA.AperFunction,Plated,PTH,ComponentDrill
T8C0.1260
%
G90
G05
T1
X6.319Y-5.7175
X6.3625Y-5.7175
T2
X5.24Y-5.5
X5.24Y-5.56
X5.24Y-5.62
X5.83Y-5.5
X5.83Y-5.56
X5.83Y-5.62
X6.0562Y-5.8596
X6.0571Y-5.0121
X6.0571Y-5.0871
X6.1066Y-5.9056
X6.1444Y-5.3545
X6.1545Y-5.6245
X6.1844Y-5.3549
X6.1845Y-5.287
X6.1951Y-5.6238
X6.2052Y-5.5397
X6.212Y-4.615
X6.2592Y-5.7599
X6.2908Y-5.4765
X6.2912Y-5.4331
X6.2915Y-5.3891
X6.3355Y-5.3881
X6.3355Y-5.4321
X6.3357Y-5.4765
X6.3461Y-5.2919
X6.3815Y-5.4311
X6.3821Y-5.4793
X6.3825Y-5.3881
X6.4409Y-5.7598
X6.4575Y-5.5866
X6.5112Y-5.2368
X6.5265Y-5.6225
X6.5645Y-5.6345
X6.6181Y-5.3583
X6.652Y-5.284
X6.6605Y-5.7205
X6.6795Y-5.6855
X6.7Y-5.005
X6.7005Y-5.6495
X6.7034Y-5.102
X6.715Y-4.705
X6.74Y-5.78
X6.752Y-5.3661
X6.765Y-4.725
X6.78Y-5.78
X6.815Y-4.75
X6.82Y-5.78
X6.85Y-4.49
X6.865Y-4.755
X6.915Y-4.895
X7.134Y-4.728
X7.134Y-4.788
X7.1725Y-5.3095
X7.1725Y-5.3835
X7.1725Y-5.4575
X7.19Y-4.73
X7.194Y-4.788
X7.2115Y-5.3485
X7.2115Y-5.4225
X7.2645Y-5.5375
X7.2677Y-5.2075
X7.2995Y-5.5005
X7.3055Y-5.2485
X7.3385Y-5.5375
X7.3425Y-5.2075
X7.3755Y-5.5005
X7.3815Y-5.2485
X7.405Y-4.955
X7.4125Y-5.5375
X7.4173Y-5.2075
X7.4646Y-5.3475
X7.4646Y-5.4213
X7.5Y-5.311
X7.5Y-5.3845
X7.5Y-5.4606
X7.51Y-4.905
X7.5132Y-5.1387
X7.5485Y-4.905
X7.57Y-4.785
X7.582Y-4.726
X7.5855Y-4.905
X7.616Y-4.726
X7.6321Y-5.6828
X7.6325Y-5.1435
X7.635Y-4.785
X7.652Y-4.905
X7.6529Y-4.965
T4
X5.3544Y-3.7483
X5.49Y-5.51
X5.5884Y-5.51
X5.6496Y-3.8126
X6.0669Y-3.311
X6.0669Y-3.511
X6.2598Y-3.3094
X6.2598Y-3.5094
X6.4606Y-3.3094
X6.4606Y-3.5094
X6.6614Y-3.3094
X6.6614Y-3.5094
X7.0115Y-3.3075
X7.0115Y-3.5075
X7.013Y-4.3354
X7.013Y-4.6354
X7.113Y-4.3354
X7.113Y-4.6354
X7.2075Y-3.3075
X7.2075Y-3.5075
X7.213Y-4.3354
X7.213Y-4.6354
X7.313Y-4.3354
X7.313Y-4.6354
X7.4055Y-3.3075
X7.4055Y-3.5075
X7.453Y-4.3354
X7.453Y-4.6354
X7.553Y-4.3354
X7.553Y-4.6354
X7.6035Y-3.3075
X7.6035Y-3.5075
X7.653Y-4.3354
X7.653Y-4.6354
X7.753Y-4.3354
X7.753Y-4.6354
T5
X5.2808Y-5.7643
X5.3792Y-5.7643
X5.635Y-5.7643
X5.651Y-3.5576
X5.6514Y-3.3576
X5.7334Y-5.7643
X5.9275Y-5.338
X5.9275Y-5.438
X5.9275Y-5.538
X5.9275Y-5.6905
X5.9275Y-5.7905
X6.1525Y-3.675
X6.1525Y-3.975
X6.1525Y-4.375
X6.1525Y-4.475
X6.16Y-4.81
X6.26Y-4.81
X6.3425Y-3.675
X6.3425Y-3.975
X6.3425Y-4.375
X6.3425Y-4.475
X6.36Y-4.81
X6.46Y-4.81
X6.5325Y-3.675
X6.5325Y-3.975
X6.5325Y-4.375
X6.5325Y-4.475
X6.7205Y-5.5795
X6.7275Y-3.675
X6.7275Y-3.975
X6.7275Y-4.375
X6.7275Y-4.475
X6.818Y-5.044
X6.818Y-5.144
X6.8205Y-5.5795
X7.0504Y-4.903
X7.1504Y-4.903
X7.2504Y-4.903
X7.2615Y-5.8725
X7.3504Y-4.903
X7.3615Y-5.8725
T6
X5.0841Y-4.1339
X5.0841Y-4.9213
X5.51Y-5.31
X5.61Y-5.31
X5.71Y-5.31
X5.8715Y-4.3307
X5.8715Y-4.7244
T7
X5.5315Y-2.7865
X5.5315Y-3.1093
X5.7284Y-2.7865
X5.7284Y-3.1093
X6.0688Y-2.7856
X6.0688Y-3.1084
X6.2656Y-2.7856
X6.2656Y-3.1084
X6.4625Y-2.7856
X6.4625Y-3.1084
X6.6593Y-2.7856
X6.6593Y-3.1084
X7.0121Y-2.784
X7.0121Y-3.1068
X7.2089Y-2.784
X7.2089Y-3.1068
X7.4058Y-2.784
X7.4058Y-3.1068
X7.6026Y-2.784
X7.6026Y-3.1068
T8
X5.2075Y-3.3625
X5.2075Y-5.331
X7.8175Y-3.3625
T3
G00X6.1793Y-5.6819
M15
G01X6.1793Y-5.7252
M16
G05
G00X6.1793Y-5.8563
M15
G01X6.1793Y-5.88
M16
G05
G00X6.5194Y-5.6819
M15
G01X6.5194Y-5.7252
M16
G05
G00X6.5194Y-5.8563
M15
G01X6.5194Y-5.88
M16
G05
T0
M30
