G04 #@! TF.GenerationSoftware,KiCad,Pcbnew,(6.0.5)*
G04 #@! TF.CreationDate,2022-09-21T20:32:25+02:00*
G04 #@! TF.ProjectId,hamodule,68616d6f-6475-46c6-952e-6b696361645f,20220918.20*
G04 #@! TF.SameCoordinates,Original*
G04 #@! TF.FileFunction,Paste,Top*
G04 #@! TF.FilePolarity,Positive*
%FSLAX46Y46*%
G04 Gerber Fmt 4.6, Leading zero omitted, Abs format (unit mm)*
G04 Created by KiCad (PCBNEW (6.0.5)) date 2022-09-21 20:32:25*
%MOMM*%
%LPD*%
G01*
G04 APERTURE LIST*
G04 Aperture macros list*
%AMRoundRect*
0 Rectangle with rounded corners*
0 $1 Rounding radius*
0 $2 $3 $4 $5 $6 $7 $8 $9 X,Y pos of 4 corners*
0 Add a 4 corners polygon primitive as box body*
4,1,4,$2,$3,$4,$5,$6,$7,$8,$9,$2,$3,0*
0 Add four circle primitives for the rounded corners*
1,1,$1+$1,$2,$3*
1,1,$1+$1,$4,$5*
1,1,$1+$1,$6,$7*
1,1,$1+$1,$8,$9*
0 Add four rect primitives between the rounded corners*
20,1,$1+$1,$2,$3,$4,$5,0*
20,1,$1+$1,$4,$5,$6,$7,0*
20,1,$1+$1,$6,$7,$8,$9,0*
20,1,$1+$1,$8,$9,$2,$3,0*%
G04 Aperture macros list end*
%ADD10RoundRect,0.249999X-1.425001X0.450001X-1.425001X-0.450001X1.425001X-0.450001X1.425001X0.450001X0*%
%ADD11RoundRect,0.250000X-0.450000X0.325000X-0.450000X-0.325000X0.450000X-0.325000X0.450000X0.325000X0*%
%ADD12RoundRect,0.250000X-0.450000X0.350000X-0.450000X-0.350000X0.450000X-0.350000X0.450000X0.350000X0*%
%ADD13RoundRect,0.237500X0.300000X0.237500X-0.300000X0.237500X-0.300000X-0.237500X0.300000X-0.237500X0*%
%ADD14RoundRect,0.250000X-0.337500X-0.475000X0.337500X-0.475000X0.337500X0.475000X-0.337500X0.475000X0*%
%ADD15RoundRect,0.150000X0.150000X-0.825000X0.150000X0.825000X-0.150000X0.825000X-0.150000X-0.825000X0*%
%ADD16RoundRect,0.237500X-0.250000X-0.237500X0.250000X-0.237500X0.250000X0.237500X-0.250000X0.237500X0*%
%ADD17RoundRect,0.237500X-0.300000X-0.237500X0.300000X-0.237500X0.300000X0.237500X-0.300000X0.237500X0*%
%ADD18RoundRect,0.150000X-0.150000X0.587500X-0.150000X-0.587500X0.150000X-0.587500X0.150000X0.587500X0*%
%ADD19RoundRect,0.237500X0.250000X0.237500X-0.250000X0.237500X-0.250000X-0.237500X0.250000X-0.237500X0*%
%ADD20R,0.600000X0.700000*%
%ADD21R,1.100000X1.800000*%
%ADD22RoundRect,0.237500X-0.237500X0.300000X-0.237500X-0.300000X0.237500X-0.300000X0.237500X0.300000X0*%
%ADD23RoundRect,0.237500X-0.237500X0.250000X-0.237500X-0.250000X0.237500X-0.250000X0.237500X0.250000X0*%
%ADD24R,0.450000X0.600000*%
%ADD25R,0.900000X2.000000*%
%ADD26R,2.000000X0.900000*%
%ADD27R,5.000000X5.000000*%
%ADD28RoundRect,0.250000X0.400000X0.625000X-0.400000X0.625000X-0.400000X-0.625000X0.400000X-0.625000X0*%
%ADD29RoundRect,0.250000X0.350000X0.450000X-0.350000X0.450000X-0.350000X-0.450000X0.350000X-0.450000X0*%
%ADD30RoundRect,0.225000X0.225000X-0.225000X0.225000X0.225000X-0.225000X0.225000X-0.225000X-0.225000X0*%
%ADD31RoundRect,0.062500X0.062500X-0.337500X0.062500X0.337500X-0.062500X0.337500X-0.062500X-0.337500X0*%
%ADD32RoundRect,0.062500X0.337500X-0.062500X0.337500X0.062500X-0.337500X0.062500X-0.337500X-0.062500X0*%
%ADD33RoundRect,0.250000X0.337500X0.475000X-0.337500X0.475000X-0.337500X-0.475000X0.337500X-0.475000X0*%
%ADD34R,0.600000X1.450000*%
%ADD35R,0.300000X1.450000*%
%ADD36RoundRect,0.249999X-0.450001X-1.425001X0.450001X-1.425001X0.450001X1.425001X-0.450001X1.425001X0*%
%ADD37R,0.820000X0.304800*%
%ADD38R,0.820000X0.308800*%
%ADD39RoundRect,0.250000X0.450000X-0.350000X0.450000X0.350000X-0.450000X0.350000X-0.450000X-0.350000X0*%
G04 APERTURE END LIST*
D10*
X83820500Y-55791100D03*
X83820500Y-61891100D03*
X88773500Y-55791100D03*
X88773500Y-61891100D03*
X88773500Y-63842900D03*
X88773500Y-69942900D03*
X83820500Y-63842900D03*
X83820500Y-69942900D03*
D11*
X61659000Y-81008000D03*
X61659000Y-83058000D03*
D12*
X59576200Y-81026000D03*
X59576200Y-83026000D03*
D13*
X42137500Y-102489000D03*
X40412500Y-102489000D03*
D14*
X50778500Y-106299000D03*
X52853500Y-106299000D03*
D13*
X81344000Y-78994000D03*
X79619000Y-78994000D03*
D15*
X72454000Y-86484000D03*
X73724000Y-86484000D03*
X74994000Y-86484000D03*
X76264000Y-86484000D03*
X77534000Y-86484000D03*
X78804000Y-86484000D03*
X80074000Y-86484000D03*
X81344000Y-86484000D03*
X81344000Y-81534000D03*
X80074000Y-81534000D03*
X78804000Y-81534000D03*
X77534000Y-81534000D03*
X76264000Y-81534000D03*
X74994000Y-81534000D03*
X73724000Y-81534000D03*
X72454000Y-81534000D03*
D10*
X98831900Y-63842900D03*
X98831900Y-69942900D03*
X93802700Y-55791100D03*
X93802700Y-61891100D03*
X98831900Y-55791100D03*
X98831900Y-61891100D03*
X93802700Y-63842900D03*
X93802700Y-69942900D03*
D16*
X94959000Y-89217500D03*
X96784000Y-89217500D03*
D17*
X98362000Y-87677000D03*
X100087000Y-87677000D03*
D13*
X96721500Y-90741500D03*
X94996500Y-90741500D03*
D18*
X70449500Y-93103500D03*
X68549500Y-93103500D03*
X69499500Y-94978500D03*
D16*
X66774500Y-91318500D03*
X68599500Y-91318500D03*
D19*
X68599500Y-89788500D03*
X66774500Y-89788500D03*
D20*
X63686000Y-105705900D03*
X62286000Y-105705900D03*
D21*
X72255000Y-95302000D03*
X72255000Y-89102000D03*
X75955000Y-89102000D03*
X75955000Y-95302000D03*
X63253000Y-95302000D03*
X63253000Y-89102000D03*
X59553000Y-89102000D03*
X59553000Y-95302000D03*
D22*
X70677900Y-103883300D03*
X70677900Y-105608300D03*
D16*
X70768500Y-99215900D03*
X72593500Y-99215900D03*
D19*
X72593500Y-102263900D03*
X70768500Y-102263900D03*
D16*
X70768500Y-100739900D03*
X72593500Y-100739900D03*
D22*
X72277900Y-103889800D03*
X72277900Y-105614800D03*
D23*
X62109500Y-102358000D03*
X62109500Y-104183000D03*
D24*
X60579500Y-107319100D03*
X60579500Y-109419100D03*
D20*
X66286000Y-105705900D03*
X64886000Y-105705900D03*
X67596000Y-105705900D03*
X68996000Y-105705900D03*
D25*
X99568500Y-92791500D03*
X98298500Y-92791500D03*
X97028500Y-92791500D03*
X95758500Y-92791500D03*
X94488500Y-92791500D03*
X93218500Y-92791500D03*
X91948500Y-92791500D03*
X90678500Y-92791500D03*
X89408500Y-92791500D03*
X88138500Y-92791500D03*
X86868500Y-92791500D03*
X85598500Y-92791500D03*
X84328500Y-92791500D03*
X83058500Y-92791500D03*
D26*
X82058500Y-95576500D03*
X82058500Y-96846500D03*
X82058500Y-98116500D03*
X82058500Y-99386500D03*
X82058500Y-100656500D03*
X82058500Y-101926500D03*
X82058500Y-103196500D03*
X82058500Y-104466500D03*
X82058500Y-105736500D03*
X82058500Y-107006500D03*
D25*
X83058500Y-109791500D03*
X84328500Y-109791500D03*
X85598500Y-109791500D03*
X86868500Y-109791500D03*
X88138500Y-109791500D03*
X89408500Y-109791500D03*
X90678500Y-109791500D03*
X91948500Y-109791500D03*
X93218500Y-109791500D03*
X94488500Y-109791500D03*
X95758500Y-109791500D03*
X97028500Y-109791500D03*
X98298500Y-109791500D03*
X99568500Y-109791500D03*
D27*
X92068500Y-100291500D03*
D18*
X66989500Y-93113500D03*
X65089500Y-93113500D03*
X66039500Y-94988500D03*
D28*
X68482000Y-97380500D03*
X65382000Y-97380500D03*
D29*
X87281000Y-114109500D03*
X85281000Y-114109500D03*
X87281000Y-112077500D03*
X85281000Y-112077500D03*
D30*
X67806000Y-100625900D03*
X66686000Y-101745900D03*
X65566000Y-101745900D03*
X65566000Y-100625900D03*
X67806000Y-102865900D03*
X66686000Y-102865900D03*
X67806000Y-101745900D03*
X65566000Y-102865900D03*
X66686000Y-100625900D03*
D31*
X65186000Y-104195900D03*
X65686000Y-104195900D03*
X66186000Y-104195900D03*
X66686000Y-104195900D03*
X67186000Y-104195900D03*
X67686000Y-104195900D03*
X68186000Y-104195900D03*
D32*
X69136000Y-103245900D03*
X69136000Y-102745900D03*
X69136000Y-102245900D03*
X69136000Y-101745900D03*
X69136000Y-101245900D03*
X69136000Y-100745900D03*
X69136000Y-100245900D03*
D31*
X68186000Y-99295900D03*
X67686000Y-99295900D03*
X67186000Y-99295900D03*
X66686000Y-99295900D03*
X66186000Y-99295900D03*
X65686000Y-99295900D03*
X65186000Y-99295900D03*
D32*
X64236000Y-100245900D03*
X64236000Y-100745900D03*
X64236000Y-101245900D03*
X64236000Y-101745900D03*
X64236000Y-102245900D03*
X64236000Y-102745900D03*
X64236000Y-103245900D03*
D17*
X98351500Y-90741500D03*
X100076500Y-90741500D03*
D22*
X75999500Y-97991100D03*
X75999500Y-99716100D03*
D16*
X73799500Y-110318500D03*
X75624500Y-110318500D03*
X94987600Y-83896200D03*
X96812600Y-83896200D03*
X83860500Y-83896200D03*
X85685500Y-83896200D03*
D11*
X100013000Y-112022500D03*
X100013000Y-114072500D03*
D33*
X42058500Y-104267000D03*
X39983500Y-104267000D03*
D34*
X63726000Y-107760900D03*
X64526000Y-107760900D03*
D35*
X65726000Y-107760900D03*
X66726000Y-107760900D03*
X67226000Y-107760900D03*
X68226000Y-107760900D03*
D34*
X69426000Y-107760900D03*
X70226000Y-107760900D03*
X70226000Y-107760900D03*
X69426000Y-107760900D03*
D35*
X68726000Y-107760900D03*
X67726000Y-107760900D03*
X66226000Y-107760900D03*
X65226000Y-107760900D03*
D34*
X64526000Y-107760900D03*
X63726000Y-107760900D03*
D16*
X100778800Y-83896200D03*
X102603800Y-83896200D03*
D17*
X95034600Y-85420200D03*
X96759600Y-85420200D03*
X89652000Y-85521800D03*
X91377000Y-85521800D03*
X50699500Y-102489000D03*
X52424500Y-102489000D03*
D13*
X102550800Y-85420200D03*
X100825800Y-85420200D03*
D36*
X74029500Y-113048500D03*
X80129500Y-113048500D03*
D37*
X79463000Y-99066900D03*
D38*
X79463000Y-98256100D03*
X77743000Y-98256100D03*
D37*
X77743000Y-99066900D03*
D16*
X77572100Y-101409500D03*
X79397100Y-101409500D03*
D33*
X42058500Y-106299000D03*
X39983500Y-106299000D03*
D17*
X98362000Y-89217500D03*
X100087000Y-89217500D03*
D14*
X50778500Y-104267000D03*
X52853500Y-104267000D03*
D16*
X89600900Y-83947000D03*
X91425900Y-83947000D03*
X77572100Y-102933500D03*
X79397100Y-102933500D03*
D39*
X97981000Y-114047500D03*
X97981000Y-112047500D03*
D23*
X60789500Y-110818500D03*
X60789500Y-112643500D03*
D17*
X83909400Y-85420200D03*
X85634400Y-85420200D03*
M02*
