G04 #@! TF.GenerationSoftware,KiCad,Pcbnew,(6.0.5)*
G04 #@! TF.CreationDate,2022-08-23T18:05:12+02:00*
G04 #@! TF.ProjectId,hamodule,68616d6f-6475-46c6-952e-6b696361645f,rev?*
G04 #@! TF.SameCoordinates,Original*
G04 #@! TF.FileFunction,Other,User*
%FSLAX46Y46*%
G04 Gerber Fmt 4.6, Leading zero omitted, Abs format (unit mm)*
G04 Created by KiCad (PCBNEW (6.0.5)) date 2022-08-23 18:05:12*
%MOMM*%
%LPD*%
G01*
G04 APERTURE LIST*
%ADD10C,0.050000*%
G04 APERTURE END LIST*
D10*
X152358500Y-148888700D02*
X152358500Y-142738700D01*
X152358500Y-142738700D02*
X148758500Y-142738700D01*
X148758500Y-142738700D02*
X148758500Y-148888700D01*
X148758500Y-148888700D02*
X152358500Y-148888700D01*
X180037500Y-99036100D02*
X176197500Y-99036100D01*
X180037500Y-91036100D02*
X180037500Y-99036100D01*
X176197500Y-91036100D02*
X180037500Y-91036100D01*
X176197500Y-99036100D02*
X176197500Y-91036100D01*
X184990500Y-91036100D02*
X184990500Y-99036100D01*
X184990500Y-99036100D02*
X181150500Y-99036100D01*
X181150500Y-99036100D02*
X181150500Y-91036100D01*
X181150500Y-91036100D02*
X184990500Y-91036100D01*
X133500800Y-93676450D02*
X133500800Y-98376450D01*
X133500800Y-93676450D02*
X146000800Y-93676450D01*
X133500800Y-98376450D02*
X146000800Y-98376450D01*
X146000800Y-93676450D02*
X146000800Y-98376450D01*
X181150500Y-107087900D02*
X181150500Y-99087900D01*
X184990500Y-107087900D02*
X181150500Y-107087900D01*
X181150500Y-99087900D02*
X184990500Y-99087900D01*
X184990500Y-99087900D02*
X184990500Y-107087900D01*
X176197500Y-99087900D02*
X180037500Y-99087900D01*
X180037500Y-99087900D02*
X180037500Y-107087900D01*
X180037500Y-107087900D02*
X176197500Y-107087900D01*
X176197500Y-107087900D02*
X176197500Y-99087900D01*
X156906000Y-116378000D02*
X156906000Y-120078000D01*
X155006000Y-120078000D02*
X155006000Y-116378000D01*
X155006000Y-116378000D02*
X156906000Y-116378000D01*
X156906000Y-120078000D02*
X155006000Y-120078000D01*
X152923200Y-120071000D02*
X152923200Y-116371000D01*
X154823200Y-120071000D02*
X152923200Y-120071000D01*
X152923200Y-116371000D02*
X154823200Y-116371000D01*
X154823200Y-116371000D02*
X154823200Y-120071000D01*
X148579000Y-150314000D02*
X148579000Y-143564000D01*
X140179000Y-143564000D02*
X140179000Y-150314000D01*
X140179000Y-150314000D02*
X148579000Y-150314000D01*
X148579000Y-143564000D02*
X140179000Y-143564000D01*
X133859000Y-140430000D02*
X133859000Y-138970000D01*
X133859000Y-138970000D02*
X137159000Y-138970000D01*
X137159000Y-138970000D02*
X137159000Y-140430000D01*
X137159000Y-140430000D02*
X133859000Y-140430000D01*
X144273000Y-142018000D02*
X147573000Y-142018000D01*
X147573000Y-143478000D02*
X144273000Y-143478000D01*
X144273000Y-143478000D02*
X144273000Y-142018000D01*
X147573000Y-142018000D02*
X147573000Y-143478000D01*
X176428500Y-114459000D02*
X176428500Y-115919000D01*
X173128500Y-114459000D02*
X176428500Y-114459000D01*
X176428500Y-115919000D02*
X173128500Y-115919000D01*
X173128500Y-115919000D02*
X173128500Y-114459000D01*
X152736100Y-98900000D02*
X152736100Y-131100000D01*
X125536100Y-98900000D02*
X152736100Y-98900000D01*
X125536100Y-131100000D02*
X125536100Y-98900000D01*
X152736100Y-131100000D02*
X125536100Y-131100000D01*
X147744000Y-136384000D02*
X147744000Y-131474000D01*
X137244000Y-131474000D02*
X137244000Y-136384000D01*
X137244000Y-136384000D02*
X147744000Y-136384000D01*
X147744000Y-131474000D02*
X137244000Y-131474000D01*
X172101902Y-82107500D02*
X172101902Y-62397100D01*
X149191102Y-62397100D02*
X149191102Y-82107500D01*
X172101902Y-62397100D02*
X149191102Y-62397100D01*
X149191102Y-82107500D02*
X172101902Y-82107500D01*
X148454102Y-82131099D02*
X148454102Y-62420699D01*
X135546102Y-62420699D02*
X135546102Y-82131099D01*
X135546102Y-82131099D02*
X148454102Y-82131099D01*
X148454102Y-62420699D02*
X135546102Y-62420699D01*
X196061902Y-82067499D02*
X196061902Y-62357099D01*
X196061902Y-62357099D02*
X173151102Y-62357099D01*
X173151102Y-82067499D02*
X196061902Y-82067499D01*
X173151102Y-62357099D02*
X173151102Y-82067499D01*
X138536500Y-92823500D02*
X138536500Y-82823500D01*
X148536500Y-82823500D02*
X148536500Y-92823500D01*
X138536500Y-92823500D02*
X148536500Y-92823500D01*
X148536500Y-82823500D02*
X138536500Y-82823500D01*
X201564500Y-85407500D02*
G75*
G03*
X201564500Y-85407500I-3000000J0D01*
G01*
X135270500Y-85407500D02*
G75*
G03*
X135270500Y-85407500I-3000000J0D01*
G01*
X165996000Y-123904000D02*
X176396000Y-123904000D01*
X176396000Y-116504000D02*
X165996000Y-116504000D01*
X165996000Y-116504000D02*
X165996000Y-123904000D01*
X176396000Y-123904000D02*
X176396000Y-116504000D01*
X191208900Y-107087900D02*
X191208900Y-99087900D01*
X195048900Y-99087900D02*
X195048900Y-107087900D01*
X191208900Y-99087900D02*
X195048900Y-99087900D01*
X195048900Y-107087900D02*
X191208900Y-107087900D01*
X190019700Y-99036100D02*
X186179700Y-99036100D01*
X186179700Y-91036100D02*
X190019700Y-91036100D01*
X190019700Y-91036100D02*
X190019700Y-99036100D01*
X186179700Y-99036100D02*
X186179700Y-91036100D01*
X195048900Y-99036100D02*
X191208900Y-99036100D01*
X191208900Y-91036100D02*
X195048900Y-91036100D01*
X191208900Y-99036100D02*
X191208900Y-91036100D01*
X195048900Y-91036100D02*
X195048900Y-99036100D01*
X176551274Y-108568320D02*
X176551274Y-119268320D01*
X176551274Y-119268320D02*
X187351274Y-119268320D01*
X187351274Y-108568320D02*
X176551274Y-108568320D01*
X187351274Y-119268320D02*
X187351274Y-108568320D01*
X198527274Y-119268320D02*
X198527274Y-108568320D01*
X187727274Y-108568320D02*
X187727274Y-119268320D01*
X198527274Y-108568320D02*
X187727274Y-108568320D01*
X187727274Y-119268320D02*
X198527274Y-119268320D01*
X186179700Y-99087900D02*
X190019700Y-99087900D01*
X186179700Y-107087900D02*
X186179700Y-99087900D01*
X190019700Y-99087900D02*
X190019700Y-107087900D01*
X190019700Y-107087900D02*
X186179700Y-107087900D01*
X191818500Y-126142500D02*
X188518500Y-126142500D01*
X191818500Y-124682500D02*
X191818500Y-126142500D01*
X188518500Y-124682500D02*
X191818500Y-124682500D01*
X188518500Y-126142500D02*
X188518500Y-124682500D01*
X191871500Y-124602000D02*
X191871500Y-123142000D01*
X195171500Y-124602000D02*
X191871500Y-124602000D01*
X191871500Y-123142000D02*
X195171500Y-123142000D01*
X195171500Y-123142000D02*
X195171500Y-124602000D01*
X188506000Y-127666500D02*
X188506000Y-126206500D01*
X191806000Y-127666500D02*
X188506000Y-127666500D01*
X191806000Y-126206500D02*
X191806000Y-127666500D01*
X188506000Y-126206500D02*
X191806000Y-126206500D01*
X162096500Y-128316000D02*
X162096500Y-132156000D01*
X165496500Y-132156000D02*
X165496500Y-128316000D01*
X162096500Y-132156000D02*
X165496500Y-132156000D01*
X165496500Y-128316000D02*
X162096500Y-128316000D01*
X163634000Y-128243500D02*
X160334000Y-128243500D01*
X160334000Y-126783500D02*
X163634000Y-126783500D01*
X163634000Y-126783500D02*
X163634000Y-128243500D01*
X160334000Y-128243500D02*
X160334000Y-126783500D01*
X163634000Y-126713500D02*
X160334000Y-126713500D01*
X160334000Y-126713500D02*
X160334000Y-125253500D01*
X160334000Y-125253500D02*
X163634000Y-125253500D01*
X163634000Y-125253500D02*
X163634000Y-126713500D01*
X158533000Y-142600900D02*
X156033000Y-142600900D01*
X158533000Y-141200900D02*
X158533000Y-142600900D01*
X156033000Y-141200900D02*
X158533000Y-141200900D01*
X156033000Y-142600900D02*
X156033000Y-141200900D01*
X139582000Y-143564000D02*
X131182000Y-143564000D01*
X139582000Y-150314000D02*
X139582000Y-143564000D01*
X131182000Y-150314000D02*
X139582000Y-150314000D01*
X131182000Y-143564000D02*
X131182000Y-150314000D01*
X165552000Y-124147000D02*
X165552000Y-132647000D01*
X171252000Y-132647000D02*
X171252000Y-124147000D01*
X165552000Y-132647000D02*
X171252000Y-132647000D01*
X171252000Y-124147000D02*
X165552000Y-124147000D01*
X152850000Y-132647000D02*
X158550000Y-132647000D01*
X158550000Y-132647000D02*
X158550000Y-124147000D01*
X152850000Y-124147000D02*
X152850000Y-132647000D01*
X158550000Y-124147000D02*
X152850000Y-124147000D01*
X165704900Y-142590800D02*
X164244900Y-142590800D01*
X164244900Y-142590800D02*
X164244900Y-139290800D01*
X165704900Y-139290800D02*
X165704900Y-142590800D01*
X164244900Y-139290800D02*
X165704900Y-139290800D01*
X167628000Y-136140900D02*
X164328000Y-136140900D01*
X164328000Y-134680900D02*
X167628000Y-134680900D01*
X167628000Y-134680900D02*
X167628000Y-136140900D01*
X164328000Y-136140900D02*
X164328000Y-134680900D01*
X167628000Y-137728900D02*
X167628000Y-139188900D01*
X164328000Y-139188900D02*
X164328000Y-137728900D01*
X167628000Y-139188900D02*
X164328000Y-139188900D01*
X164328000Y-137728900D02*
X167628000Y-137728900D01*
X164328000Y-136204900D02*
X167628000Y-136204900D01*
X167628000Y-136204900D02*
X167628000Y-137664900D01*
X164328000Y-137664900D02*
X164328000Y-136204900D01*
X167628000Y-137664900D02*
X164328000Y-137664900D01*
X165844900Y-139297300D02*
X167304900Y-139297300D01*
X165844900Y-142597300D02*
X165844900Y-139297300D01*
X167304900Y-139297300D02*
X167304900Y-142597300D01*
X167304900Y-142597300D02*
X165844900Y-142597300D01*
X155676500Y-137815500D02*
X157136500Y-137815500D01*
X157136500Y-137815500D02*
X157136500Y-141115500D01*
X155676500Y-141115500D02*
X155676500Y-137815500D01*
X157136500Y-141115500D02*
X155676500Y-141115500D01*
X155826500Y-142964100D02*
X155826500Y-146164100D01*
X155826500Y-142964100D02*
X153926500Y-142964100D01*
X155826500Y-146164100D02*
X153926500Y-146164100D01*
X153926500Y-142964100D02*
X153926500Y-146164100D01*
X161133000Y-142600900D02*
X158633000Y-142600900D01*
X158633000Y-142600900D02*
X158633000Y-141200900D01*
X158633000Y-141200900D02*
X161133000Y-141200900D01*
X161133000Y-141200900D02*
X161133000Y-142600900D01*
X161343000Y-141200900D02*
X163843000Y-141200900D01*
X163843000Y-142600900D02*
X161343000Y-142600900D01*
X161343000Y-142600900D02*
X161343000Y-141200900D01*
X163843000Y-141200900D02*
X163843000Y-142600900D01*
X195330500Y-147236500D02*
X175110500Y-147236500D01*
X206610500Y-123236500D02*
X195330500Y-123236500D01*
X206610500Y-151736500D02*
X195330500Y-151736500D01*
X175110500Y-127736500D02*
X195330500Y-127736500D01*
X195330500Y-123236500D02*
X195330500Y-127736500D01*
X195330500Y-147236500D02*
X195330500Y-151736500D01*
X175110500Y-127736500D02*
X175110500Y-147236500D01*
X206610500Y-123236500D02*
X206610500Y-151736500D01*
X158636500Y-132166000D02*
X162036500Y-132166000D01*
X162036500Y-132166000D02*
X162036500Y-128326000D01*
X162036500Y-128326000D02*
X158636500Y-128326000D01*
X158636500Y-128326000D02*
X158636500Y-132166000D01*
X177280000Y-126336600D02*
X177280000Y-122786600D01*
X188480000Y-122786600D02*
X188480000Y-126336600D01*
X177280000Y-122786600D02*
X188480000Y-122786600D01*
X188480000Y-126336600D02*
X177280000Y-126336600D01*
X188792100Y-147361500D02*
X182642100Y-147361500D01*
X182642100Y-150961500D02*
X188792100Y-150961500D01*
X188792100Y-150961500D02*
X188792100Y-147361500D01*
X182642100Y-147361500D02*
X182642100Y-150961500D01*
X163679000Y-132455500D02*
X163679000Y-134695500D01*
X158779000Y-132455500D02*
X163679000Y-132455500D01*
X163679000Y-134695500D02*
X158779000Y-134695500D01*
X158779000Y-134695500D02*
X158779000Y-132455500D01*
X182428000Y-151254500D02*
X178728000Y-151254500D01*
X182428000Y-149354500D02*
X182428000Y-151254500D01*
X178728000Y-149354500D02*
X182428000Y-149354500D01*
X178728000Y-151254500D02*
X178728000Y-149354500D01*
X182428000Y-149222500D02*
X178728000Y-149222500D01*
X178728000Y-149222500D02*
X178728000Y-147322500D01*
X178728000Y-147322500D02*
X182428000Y-147322500D01*
X182428000Y-147322500D02*
X182428000Y-149222500D01*
X157883000Y-141040900D02*
X164083000Y-141040900D01*
X164083000Y-134840900D02*
X157883000Y-134840900D01*
X164083000Y-141040900D02*
X164083000Y-134840900D01*
X157883000Y-134840900D02*
X157883000Y-141040900D01*
X195161000Y-127666500D02*
X191861000Y-127666500D01*
X191861000Y-127666500D02*
X191861000Y-126206500D01*
X195161000Y-126206500D02*
X195161000Y-127666500D01*
X191861000Y-126206500D02*
X195161000Y-126206500D01*
X152358500Y-133815200D02*
X148758500Y-133815200D01*
X148758500Y-142465200D02*
X152358500Y-142465200D01*
X148758500Y-133815200D02*
X148758500Y-142465200D01*
X152358500Y-142465200D02*
X152358500Y-133815200D01*
X171026500Y-136698600D02*
X169566500Y-136698600D01*
X169566500Y-136698600D02*
X169566500Y-133398600D01*
X171026500Y-133398600D02*
X171026500Y-136698600D01*
X169566500Y-133398600D02*
X171026500Y-133398600D01*
X167359000Y-145783500D02*
X170659000Y-145783500D01*
X167359000Y-147243500D02*
X167359000Y-145783500D01*
X170659000Y-147243500D02*
X167359000Y-147243500D01*
X170659000Y-145783500D02*
X170659000Y-147243500D01*
X188547100Y-120821200D02*
X188547100Y-119361200D01*
X191847100Y-119361200D02*
X191847100Y-120821200D01*
X188547100Y-119361200D02*
X191847100Y-119361200D01*
X191847100Y-120821200D02*
X188547100Y-120821200D01*
X171377200Y-126307600D02*
X171377200Y-132457600D01*
X171377200Y-132457600D02*
X174977200Y-132457600D01*
X174977200Y-132457600D02*
X174977200Y-126307600D01*
X174977200Y-126307600D02*
X171377200Y-126307600D01*
X180820500Y-90975500D02*
X180820500Y-82125500D01*
X185320500Y-82125500D02*
X185320500Y-90975500D01*
X185320500Y-90975500D02*
X180820500Y-90975500D01*
X180820500Y-82125500D02*
X185320500Y-82125500D01*
X180720000Y-119361200D02*
X180720000Y-120821200D01*
X177420000Y-120821200D02*
X177420000Y-119361200D01*
X177420000Y-119361200D02*
X180720000Y-119361200D01*
X180720000Y-120821200D02*
X177420000Y-120821200D01*
X190878900Y-90975500D02*
X190878900Y-82125500D01*
X190878900Y-82125500D02*
X195378900Y-82125500D01*
X195378900Y-90975500D02*
X190878900Y-90975500D01*
X195378900Y-82125500D02*
X195378900Y-90975500D01*
X168900700Y-143519300D02*
X175050700Y-143519300D01*
X175050700Y-143519300D02*
X175050700Y-139919300D01*
X175050700Y-139919300D02*
X168900700Y-139919300D01*
X168900700Y-139919300D02*
X168900700Y-143519300D01*
X194434500Y-147392500D02*
X194434500Y-151092500D01*
X192534500Y-147392500D02*
X194434500Y-147392500D01*
X194434500Y-151092500D02*
X192534500Y-151092500D01*
X192534500Y-151092500D02*
X192534500Y-147392500D01*
X156350000Y-82215000D02*
X156350000Y-91065000D01*
X151850000Y-82215000D02*
X156350000Y-82215000D01*
X156350000Y-91065000D02*
X151850000Y-91065000D01*
X151850000Y-91065000D02*
X151850000Y-82215000D01*
X133859000Y-140494000D02*
X137159000Y-140494000D01*
X137159000Y-141954000D02*
X133859000Y-141954000D01*
X133859000Y-141954000D02*
X133859000Y-140494000D01*
X137159000Y-140494000D02*
X137159000Y-141954000D01*
X155953000Y-152150900D02*
X166593000Y-152150900D01*
X155953000Y-142730900D02*
X155953000Y-152150900D01*
X166593000Y-142730900D02*
X166593000Y-152150900D01*
X155953000Y-142730900D02*
X166593000Y-142730900D01*
X197638300Y-119361200D02*
X197638300Y-120821200D01*
X197638300Y-120821200D02*
X194338300Y-120821200D01*
X194338300Y-120821200D02*
X194338300Y-119361200D01*
X194338300Y-119361200D02*
X197638300Y-119361200D01*
X188544100Y-122345200D02*
X188544100Y-120885200D01*
X191844100Y-122345200D02*
X188544100Y-122345200D01*
X188544100Y-120885200D02*
X191844100Y-120885200D01*
X191844100Y-120885200D02*
X191844100Y-122345200D01*
X186461500Y-120986800D02*
X186461500Y-122446800D01*
X186461500Y-122446800D02*
X183161500Y-122446800D01*
X183161500Y-122446800D02*
X183161500Y-120986800D01*
X183161500Y-120986800D02*
X186461500Y-120986800D01*
X147573000Y-140430000D02*
X144273000Y-140430000D01*
X144273000Y-138970000D02*
X147573000Y-138970000D01*
X144273000Y-140430000D02*
X144273000Y-138970000D01*
X147573000Y-138970000D02*
X147573000Y-140430000D01*
X190349700Y-82125500D02*
X190349700Y-90975500D01*
X185849700Y-90975500D02*
X185849700Y-82125500D01*
X190349700Y-90975500D02*
X185849700Y-90975500D01*
X185849700Y-82125500D02*
X190349700Y-82125500D01*
X194335300Y-120885200D02*
X197635300Y-120885200D01*
X197635300Y-120885200D02*
X197635300Y-122345200D01*
X194335300Y-122345200D02*
X194335300Y-120885200D01*
X197635300Y-122345200D02*
X194335300Y-122345200D01*
X166350000Y-91025000D02*
X161850000Y-91025000D01*
X161850000Y-82175000D02*
X166350000Y-82175000D01*
X161850000Y-91025000D02*
X161850000Y-82175000D01*
X166350000Y-82175000D02*
X166350000Y-91025000D01*
X175376500Y-147323500D02*
X175376500Y-151163500D01*
X167376500Y-151163500D02*
X167376500Y-147323500D01*
X175376500Y-151163500D02*
X167376500Y-151163500D01*
X167376500Y-147323500D02*
X175376500Y-147323500D01*
X171579200Y-133855500D02*
X171579200Y-135855500D01*
X174220800Y-133855500D02*
X171579200Y-133855500D01*
X171579200Y-135855500D02*
X174220800Y-135855500D01*
X174220800Y-135855500D02*
X174220800Y-133855500D01*
X174431600Y-136874500D02*
X174431600Y-138334500D01*
X171131600Y-138334500D02*
X171131600Y-136874500D01*
X174431600Y-138334500D02*
X171131600Y-138334500D01*
X171131600Y-136874500D02*
X174431600Y-136874500D01*
X137159000Y-143478000D02*
X133859000Y-143478000D01*
X133859000Y-142018000D02*
X137159000Y-142018000D01*
X137159000Y-142018000D02*
X137159000Y-143478000D01*
X133859000Y-143478000D02*
X133859000Y-142018000D01*
X144096000Y-139954000D02*
G75*
G03*
X144096000Y-139954000I-3400000J0D01*
G01*
X180342100Y-82125500D02*
X180342100Y-90975500D01*
X175842100Y-90975500D02*
X175842100Y-82125500D01*
X175842100Y-82125500D02*
X180342100Y-82125500D01*
X180342100Y-90975500D02*
X175842100Y-90975500D01*
X195171500Y-124682500D02*
X195171500Y-126142500D01*
X195171500Y-126142500D02*
X191871500Y-126142500D01*
X191871500Y-124682500D02*
X195171500Y-124682500D01*
X191871500Y-126142500D02*
X191871500Y-124682500D01*
X147573000Y-140494000D02*
X147573000Y-141954000D01*
X144273000Y-140494000D02*
X147573000Y-140494000D01*
X147573000Y-141954000D02*
X144273000Y-141954000D01*
X144273000Y-141954000D02*
X144273000Y-140494000D01*
X186460400Y-120872000D02*
X183160400Y-120872000D01*
X186460400Y-119412000D02*
X186460400Y-120872000D01*
X183160400Y-119412000D02*
X186460400Y-119412000D01*
X183160400Y-120872000D02*
X183160400Y-119412000D01*
X174431600Y-138398500D02*
X174431600Y-139858500D01*
X174431600Y-139858500D02*
X171131600Y-139858500D01*
X171131600Y-138398500D02*
X174431600Y-138398500D01*
X171131600Y-139858500D02*
X171131600Y-138398500D01*
X171450000Y-82175000D02*
X171450000Y-91025000D01*
X171450000Y-91025000D02*
X166950000Y-91025000D01*
X166950000Y-82175000D02*
X171450000Y-82175000D01*
X166950000Y-91025000D02*
X166950000Y-82175000D01*
X190457500Y-147392500D02*
X192357500Y-147392500D01*
X190457500Y-151092500D02*
X190457500Y-147392500D01*
X192357500Y-147392500D02*
X192357500Y-151092500D01*
X192357500Y-151092500D02*
X190457500Y-151092500D01*
X154356500Y-146276000D02*
X155816500Y-146276000D01*
X154356500Y-149576000D02*
X154356500Y-146276000D01*
X155816500Y-146276000D02*
X155816500Y-149576000D01*
X155816500Y-149576000D02*
X154356500Y-149576000D01*
X165884000Y-120374000D02*
X165884000Y-123924000D01*
X165884000Y-123924000D02*
X154684000Y-123924000D01*
X154684000Y-123924000D02*
X154684000Y-120374000D01*
X154684000Y-120374000D02*
X165884000Y-120374000D01*
X135270500Y-135407500D02*
G75*
G03*
X135270500Y-135407500I-3000000J0D01*
G01*
X177418900Y-122345200D02*
X177418900Y-120885200D01*
X177418900Y-120885200D02*
X180718900Y-120885200D01*
X180718900Y-122345200D02*
X177418900Y-122345200D01*
X180718900Y-120885200D02*
X180718900Y-122345200D01*
X161250000Y-91025000D02*
X156750000Y-91025000D01*
X156750000Y-82175000D02*
X161250000Y-82175000D01*
X156750000Y-91025000D02*
X156750000Y-82175000D01*
X161250000Y-82175000D02*
X161250000Y-91025000D01*
M02*
