G04 #@! TF.GenerationSoftware,KiCad,Pcbnew,(6.0.5)*
G04 #@! TF.CreationDate,2022-09-21T22:31:06+02:00*
G04 #@! TF.ProjectId,hamodule,68616d6f-6475-46c6-952e-6b696361645f,20220918.20*
G04 #@! TF.SameCoordinates,Original*
G04 #@! TF.FileFunction,Copper,L1,Top*
G04 #@! TF.FilePolarity,Positive*
%FSLAX46Y46*%
G04 Gerber Fmt 4.6, Leading zero omitted, Abs format (unit mm)*
G04 Created by KiCad (PCBNEW (6.0.5)) date 2022-09-21 22:31:06*
%MOMM*%
%LPD*%
G01*
G04 APERTURE LIST*
G04 Aperture macros list*
%AMRoundRect*
0 Rectangle with rounded corners*
0 $1 Rounding radius*
0 $2 $3 $4 $5 $6 $7 $8 $9 X,Y pos of 4 corners*
0 Add a 4 corners polygon primitive as box body*
4,1,4,$2,$3,$4,$5,$6,$7,$8,$9,$2,$3,0*
0 Add four circle primitives for the rounded corners*
1,1,$1+$1,$2,$3*
1,1,$1+$1,$4,$5*
1,1,$1+$1,$6,$7*
1,1,$1+$1,$8,$9*
0 Add four rect primitives between the rounded corners*
20,1,$1+$1,$2,$3,$4,$5,0*
20,1,$1+$1,$4,$5,$6,$7,0*
20,1,$1+$1,$6,$7,$8,$9,0*
20,1,$1+$1,$8,$9,$2,$3,0*%
G04 Aperture macros list end*
G04 #@! TA.AperFunction,ComponentPad*
%ADD10R,2.000000X2.000000*%
G04 #@! TD*
G04 #@! TA.AperFunction,ComponentPad*
%ADD11C,2.000000*%
G04 #@! TD*
G04 #@! TA.AperFunction,ComponentPad*
%ADD12R,1.700000X1.700000*%
G04 #@! TD*
G04 #@! TA.AperFunction,ComponentPad*
%ADD13O,1.700000X1.700000*%
G04 #@! TD*
G04 #@! TA.AperFunction,SMDPad,CuDef*
%ADD14RoundRect,0.249999X-1.425001X0.450001X-1.425001X-0.450001X1.425001X-0.450001X1.425001X0.450001X0*%
G04 #@! TD*
G04 #@! TA.AperFunction,ComponentPad*
%ADD15C,1.800000*%
G04 #@! TD*
G04 #@! TA.AperFunction,SMDPad,CuDef*
%ADD16RoundRect,0.250000X-0.450000X0.325000X-0.450000X-0.325000X0.450000X-0.325000X0.450000X0.325000X0*%
G04 #@! TD*
G04 #@! TA.AperFunction,SMDPad,CuDef*
%ADD17RoundRect,0.250000X-0.450000X0.350000X-0.450000X-0.350000X0.450000X-0.350000X0.450000X0.350000X0*%
G04 #@! TD*
G04 #@! TA.AperFunction,ComponentPad*
%ADD18RoundRect,0.250000X-0.600000X-0.750000X0.600000X-0.750000X0.600000X0.750000X-0.600000X0.750000X0*%
G04 #@! TD*
G04 #@! TA.AperFunction,ComponentPad*
%ADD19O,1.700000X2.000000*%
G04 #@! TD*
G04 #@! TA.AperFunction,SMDPad,CuDef*
%ADD20RoundRect,0.237500X0.300000X0.237500X-0.300000X0.237500X-0.300000X-0.237500X0.300000X-0.237500X0*%
G04 #@! TD*
G04 #@! TA.AperFunction,SMDPad,CuDef*
%ADD21RoundRect,0.250000X-0.337500X-0.475000X0.337500X-0.475000X0.337500X0.475000X-0.337500X0.475000X0*%
G04 #@! TD*
G04 #@! TA.AperFunction,ComponentPad*
%ADD22R,1.650000X1.650000*%
G04 #@! TD*
G04 #@! TA.AperFunction,ComponentPad*
%ADD23C,1.650000*%
G04 #@! TD*
G04 #@! TA.AperFunction,ComponentPad*
%ADD24R,1.905000X2.000000*%
G04 #@! TD*
G04 #@! TA.AperFunction,ComponentPad*
%ADD25O,1.905000X2.000000*%
G04 #@! TD*
G04 #@! TA.AperFunction,ComponentPad*
%ADD26RoundRect,0.625000X0.625000X0.625000X-0.625000X0.625000X-0.625000X-0.625000X0.625000X-0.625000X0*%
G04 #@! TD*
G04 #@! TA.AperFunction,ComponentPad*
%ADD27C,5.500000*%
G04 #@! TD*
G04 #@! TA.AperFunction,SMDPad,CuDef*
%ADD28RoundRect,0.150000X0.150000X-0.825000X0.150000X0.825000X-0.150000X0.825000X-0.150000X-0.825000X0*%
G04 #@! TD*
G04 #@! TA.AperFunction,ComponentPad*
%ADD29R,1.600000X2.400000*%
G04 #@! TD*
G04 #@! TA.AperFunction,ComponentPad*
%ADD30O,1.600000X2.400000*%
G04 #@! TD*
G04 #@! TA.AperFunction,SMDPad,CuDef*
%ADD31RoundRect,0.237500X-0.250000X-0.237500X0.250000X-0.237500X0.250000X0.237500X-0.250000X0.237500X0*%
G04 #@! TD*
G04 #@! TA.AperFunction,SMDPad,CuDef*
%ADD32RoundRect,0.237500X-0.300000X-0.237500X0.300000X-0.237500X0.300000X0.237500X-0.300000X0.237500X0*%
G04 #@! TD*
G04 #@! TA.AperFunction,SMDPad,CuDef*
%ADD33RoundRect,0.150000X-0.150000X0.587500X-0.150000X-0.587500X0.150000X-0.587500X0.150000X0.587500X0*%
G04 #@! TD*
G04 #@! TA.AperFunction,SMDPad,CuDef*
%ADD34RoundRect,0.237500X0.250000X0.237500X-0.250000X0.237500X-0.250000X-0.237500X0.250000X-0.237500X0*%
G04 #@! TD*
G04 #@! TA.AperFunction,SMDPad,CuDef*
%ADD35R,0.600000X0.700000*%
G04 #@! TD*
G04 #@! TA.AperFunction,SMDPad,CuDef*
%ADD36R,1.100000X1.800000*%
G04 #@! TD*
G04 #@! TA.AperFunction,SMDPad,CuDef*
%ADD37RoundRect,0.237500X-0.237500X0.300000X-0.237500X-0.300000X0.237500X-0.300000X0.237500X0.300000X0*%
G04 #@! TD*
G04 #@! TA.AperFunction,SMDPad,CuDef*
%ADD38RoundRect,0.237500X-0.237500X0.250000X-0.237500X-0.250000X0.237500X-0.250000X0.237500X0.250000X0*%
G04 #@! TD*
G04 #@! TA.AperFunction,SMDPad,CuDef*
%ADD39R,0.450000X0.600000*%
G04 #@! TD*
G04 #@! TA.AperFunction,SMDPad,CuDef*
%ADD40R,0.900000X2.000000*%
G04 #@! TD*
G04 #@! TA.AperFunction,SMDPad,CuDef*
%ADD41R,2.000000X0.900000*%
G04 #@! TD*
G04 #@! TA.AperFunction,SMDPad,CuDef*
%ADD42R,5.000000X5.000000*%
G04 #@! TD*
G04 #@! TA.AperFunction,SMDPad,CuDef*
%ADD43RoundRect,0.250000X0.400000X0.625000X-0.400000X0.625000X-0.400000X-0.625000X0.400000X-0.625000X0*%
G04 #@! TD*
G04 #@! TA.AperFunction,SMDPad,CuDef*
%ADD44RoundRect,0.250000X0.350000X0.450000X-0.350000X0.450000X-0.350000X-0.450000X0.350000X-0.450000X0*%
G04 #@! TD*
G04 #@! TA.AperFunction,SMDPad,CuDef*
%ADD45RoundRect,0.062500X0.062500X-0.337500X0.062500X0.337500X-0.062500X0.337500X-0.062500X-0.337500X0*%
G04 #@! TD*
G04 #@! TA.AperFunction,SMDPad,CuDef*
%ADD46RoundRect,0.062500X0.337500X-0.062500X0.337500X0.062500X-0.337500X0.062500X-0.337500X-0.062500X0*%
G04 #@! TD*
G04 #@! TA.AperFunction,SMDPad,CuDef*
%ADD47R,3.350000X3.350000*%
G04 #@! TD*
G04 #@! TA.AperFunction,SMDPad,CuDef*
%ADD48RoundRect,0.250000X0.337500X0.475000X-0.337500X0.475000X-0.337500X-0.475000X0.337500X-0.475000X0*%
G04 #@! TD*
G04 #@! TA.AperFunction,SMDPad,CuDef*
%ADD49R,0.600000X1.450000*%
G04 #@! TD*
G04 #@! TA.AperFunction,SMDPad,CuDef*
%ADD50R,0.300000X1.450000*%
G04 #@! TD*
G04 #@! TA.AperFunction,ComponentPad*
%ADD51O,1.000000X2.100000*%
G04 #@! TD*
G04 #@! TA.AperFunction,ComponentPad*
%ADD52O,1.000000X1.600000*%
G04 #@! TD*
G04 #@! TA.AperFunction,SMDPad,CuDef*
%ADD53RoundRect,0.249999X-0.450001X-1.425001X0.450001X-1.425001X0.450001X1.425001X-0.450001X1.425001X0*%
G04 #@! TD*
G04 #@! TA.AperFunction,SMDPad,CuDef*
%ADD54R,0.820000X0.304800*%
G04 #@! TD*
G04 #@! TA.AperFunction,SMDPad,CuDef*
%ADD55R,0.820000X0.308800*%
G04 #@! TD*
G04 #@! TA.AperFunction,ComponentPad*
%ADD56R,1.600000X1.600000*%
G04 #@! TD*
G04 #@! TA.AperFunction,ComponentPad*
%ADD57C,1.600000*%
G04 #@! TD*
G04 #@! TA.AperFunction,SMDPad,CuDef*
%ADD58RoundRect,0.250000X0.450000X-0.350000X0.450000X0.350000X-0.450000X0.350000X-0.450000X-0.350000X0*%
G04 #@! TD*
G04 #@! TA.AperFunction,ViaPad*
%ADD59C,0.800000*%
G04 #@! TD*
G04 #@! TA.AperFunction,ViaPad*
%ADD60C,0.500000*%
G04 #@! TD*
G04 #@! TA.AperFunction,Conductor*
%ADD61C,2.000000*%
G04 #@! TD*
G04 #@! TA.AperFunction,Conductor*
%ADD62C,1.000000*%
G04 #@! TD*
G04 #@! TA.AperFunction,Conductor*
%ADD63C,0.400000*%
G04 #@! TD*
G04 #@! TA.AperFunction,Conductor*
%ADD64C,3.000000*%
G04 #@! TD*
G04 #@! TA.AperFunction,Conductor*
%ADD65C,1.500000*%
G04 #@! TD*
G04 #@! TA.AperFunction,Conductor*
%ADD66C,0.600000*%
G04 #@! TD*
G04 #@! TA.AperFunction,Conductor*
%ADD67C,0.250000*%
G04 #@! TD*
G04 #@! TA.AperFunction,Conductor*
%ADD68C,0.350000*%
G04 #@! TD*
G04 #@! TA.AperFunction,Conductor*
%ADD69C,0.200000*%
G04 #@! TD*
G04 APERTURE END LIST*
D10*
X76581000Y-77470000D03*
D11*
X76581000Y-74930000D03*
X76581000Y-64770000D03*
X76581000Y-57150000D03*
D10*
X71628000Y-77470000D03*
D11*
X71628000Y-74930000D03*
X71628000Y-64770000D03*
X71628000Y-57150000D03*
D10*
X66802000Y-77470000D03*
D11*
X66802000Y-74930000D03*
X66802000Y-64770000D03*
X66802000Y-57150000D03*
D10*
X61976000Y-77470000D03*
D11*
X61976000Y-74930000D03*
X61976000Y-64770000D03*
X61976000Y-57150000D03*
D12*
X56261500Y-108343700D03*
D13*
X56261500Y-110883700D03*
D14*
X83820500Y-55791100D03*
X83820500Y-61891100D03*
X88773500Y-55791100D03*
X88773500Y-61891100D03*
D15*
X41703800Y-59011450D03*
X49203800Y-60644780D03*
D14*
X88773500Y-63842900D03*
X88773500Y-69942900D03*
X83820500Y-63842900D03*
X83820500Y-69942900D03*
D16*
X61659000Y-81008000D03*
X61659000Y-83058000D03*
D17*
X59576200Y-81026000D03*
X59576200Y-83026000D03*
D18*
X48832000Y-110219000D03*
D19*
X51332000Y-110219000D03*
D20*
X42137500Y-102489000D03*
X40412500Y-102489000D03*
D21*
X50778500Y-106299000D03*
X52853500Y-106299000D03*
D20*
X81126500Y-78994000D03*
X79401500Y-78994000D03*
D22*
X34839100Y-68805000D03*
D23*
X34839100Y-88805000D03*
X54839100Y-83805000D03*
X54839100Y-73805000D03*
D24*
X45657000Y-98679000D03*
D25*
X48197000Y-98679000D03*
X50737000Y-98679000D03*
D26*
X74849500Y-42758500D03*
X74849500Y-34558501D03*
X69849500Y-42758500D03*
X69849500Y-34558501D03*
X64849500Y-42758500D03*
X64849500Y-34558501D03*
X59849500Y-42758500D03*
X59849500Y-34558501D03*
X46203100Y-34582100D03*
X46203100Y-42782099D03*
X51203100Y-34582100D03*
X51203100Y-42782099D03*
X98809500Y-42718499D03*
X98809500Y-34518500D03*
X93809500Y-42718499D03*
X93809500Y-34518500D03*
X88809500Y-42718499D03*
X88809500Y-34518500D03*
X83809500Y-42718499D03*
X83809500Y-34518500D03*
D11*
X49249500Y-49088500D03*
X49239500Y-54168500D03*
D27*
X104267500Y-49212500D03*
X37973500Y-49212500D03*
D28*
X72454000Y-86484000D03*
X73724000Y-86484000D03*
X74994000Y-86484000D03*
X76264000Y-86484000D03*
X77534000Y-86484000D03*
X78804000Y-86484000D03*
X80074000Y-86484000D03*
X81344000Y-86484000D03*
X81344000Y-81534000D03*
X80074000Y-81534000D03*
X78804000Y-81534000D03*
X77534000Y-81534000D03*
X76264000Y-81534000D03*
X74994000Y-81534000D03*
X73724000Y-81534000D03*
X72454000Y-81534000D03*
D14*
X98831900Y-63842900D03*
X98831900Y-69942900D03*
X93802700Y-55791100D03*
X93802700Y-61891100D03*
X98831900Y-55791100D03*
X98831900Y-61891100D03*
D29*
X91454274Y-73923320D03*
D30*
X88914274Y-73923320D03*
X86374274Y-73923320D03*
X83834274Y-73923320D03*
X83834274Y-81543320D03*
X86374274Y-81543320D03*
X88914274Y-81543320D03*
X91454274Y-81543320D03*
D29*
X102630274Y-73923320D03*
D30*
X100090274Y-73923320D03*
X97550274Y-73923320D03*
X95010274Y-73923320D03*
X95010274Y-81543320D03*
X97550274Y-81543320D03*
X100090274Y-81543320D03*
X102630274Y-81543320D03*
D14*
X93802700Y-63842900D03*
X93802700Y-69942900D03*
D31*
X94959000Y-89217500D03*
X96784000Y-89217500D03*
D32*
X98362000Y-87677000D03*
X100087000Y-87677000D03*
D20*
X96721500Y-90741500D03*
X94996500Y-90741500D03*
D33*
X70449500Y-93103500D03*
X68549500Y-93103500D03*
X69499500Y-94978500D03*
D31*
X66774500Y-91318500D03*
X68599500Y-91318500D03*
D34*
X68599500Y-89788500D03*
X66774500Y-89788500D03*
D35*
X63686000Y-105705900D03*
X62286000Y-105705900D03*
D18*
X39835000Y-110219000D03*
D19*
X42335000Y-110219000D03*
D36*
X72255000Y-95302000D03*
X72255000Y-89102000D03*
X75955000Y-89102000D03*
X75955000Y-95302000D03*
X63253000Y-95302000D03*
X63253000Y-89102000D03*
X59553000Y-89102000D03*
X59553000Y-95302000D03*
D37*
X70677900Y-103883300D03*
X70677900Y-105608300D03*
D31*
X70768500Y-99215900D03*
X72593500Y-99215900D03*
D34*
X72593500Y-102263900D03*
X70768500Y-102263900D03*
D31*
X70768500Y-100739900D03*
X72593500Y-100739900D03*
D37*
X72277900Y-103889800D03*
X72277900Y-105614800D03*
D38*
X62109500Y-102358000D03*
X62109500Y-104183000D03*
D39*
X60579500Y-107319100D03*
X60579500Y-109419100D03*
D35*
X66286000Y-105705900D03*
X64886000Y-105705900D03*
X67596000Y-105705900D03*
X68996000Y-105705900D03*
D40*
X99568500Y-92791500D03*
X98298500Y-92791500D03*
X97028500Y-92791500D03*
X95758500Y-92791500D03*
X94488500Y-92791500D03*
X93218500Y-92791500D03*
X91948500Y-92791500D03*
X90678500Y-92791500D03*
X89408500Y-92791500D03*
X88138500Y-92791500D03*
X86868500Y-92791500D03*
X85598500Y-92791500D03*
X84328500Y-92791500D03*
X83058500Y-92791500D03*
D41*
X82058500Y-95576500D03*
X82058500Y-96846500D03*
X82058500Y-98116500D03*
X82058500Y-99386500D03*
X82058500Y-100656500D03*
X82058500Y-101926500D03*
X82058500Y-103196500D03*
X82058500Y-104466500D03*
X82058500Y-105736500D03*
X82058500Y-107006500D03*
D40*
X83058500Y-109791500D03*
X84328500Y-109791500D03*
X85598500Y-109791500D03*
X86868500Y-109791500D03*
X88138500Y-109791500D03*
X89408500Y-109791500D03*
X90678500Y-109791500D03*
X91948500Y-109791500D03*
X93218500Y-109791500D03*
X94488500Y-109791500D03*
X95758500Y-109791500D03*
X97028500Y-109791500D03*
X98298500Y-109791500D03*
X99568500Y-109791500D03*
D42*
X92068500Y-100291500D03*
D33*
X66989500Y-93113500D03*
X65089500Y-93113500D03*
X66039500Y-94988500D03*
D12*
X84783000Y-88341600D03*
D13*
X87323000Y-88341600D03*
X89863000Y-88341600D03*
X92403000Y-88341600D03*
D12*
X90145100Y-112966500D03*
D13*
X92685100Y-112966500D03*
D43*
X68482000Y-97380500D03*
X65382000Y-97380500D03*
D44*
X87281000Y-114109500D03*
X85281000Y-114109500D03*
X87281000Y-112077500D03*
X85281000Y-112077500D03*
D45*
X65186000Y-104195900D03*
X65686000Y-104195900D03*
X66186000Y-104195900D03*
X66686000Y-104195900D03*
X67186000Y-104195900D03*
X67686000Y-104195900D03*
X68186000Y-104195900D03*
D46*
X69136000Y-103245900D03*
X69136000Y-102745900D03*
X69136000Y-102245900D03*
X69136000Y-101745900D03*
X69136000Y-101245900D03*
X69136000Y-100745900D03*
X69136000Y-100245900D03*
D45*
X68186000Y-99295900D03*
X67686000Y-99295900D03*
X67186000Y-99295900D03*
X66686000Y-99295900D03*
X66186000Y-99295900D03*
X65686000Y-99295900D03*
X65186000Y-99295900D03*
D46*
X64236000Y-100245900D03*
X64236000Y-100745900D03*
X64236000Y-101245900D03*
X64236000Y-101745900D03*
X64236000Y-102245900D03*
X64236000Y-102745900D03*
X64236000Y-103245900D03*
D47*
X66686000Y-101745900D03*
D32*
X98351500Y-90741500D03*
X100076500Y-90741500D03*
D12*
X56261500Y-104470200D03*
D13*
X56261500Y-101930200D03*
X56261500Y-99390200D03*
D37*
X75999500Y-97991100D03*
X75999500Y-99716100D03*
D31*
X73799500Y-110318500D03*
X75624500Y-110318500D03*
X94987600Y-83896200D03*
X96812600Y-83896200D03*
D12*
X78880200Y-94462600D03*
D13*
X78880200Y-91922600D03*
D15*
X88773500Y-52895500D03*
X88773500Y-47815500D03*
D31*
X83860500Y-83896200D03*
X85685500Y-83896200D03*
D15*
X98831900Y-52895500D03*
X98831900Y-47815500D03*
D12*
X76403700Y-105524300D03*
D13*
X78943700Y-105524300D03*
D16*
X100013000Y-112022500D03*
X100013000Y-114072500D03*
D15*
X74690000Y-52959000D03*
X74690000Y-47879000D03*
D48*
X42058500Y-104267000D03*
X39983500Y-104267000D03*
D49*
X63726000Y-107760900D03*
X64526000Y-107760900D03*
D50*
X65726000Y-107760900D03*
X66726000Y-107760900D03*
X67226000Y-107760900D03*
X68226000Y-107760900D03*
D49*
X69426000Y-107760900D03*
X70226000Y-107760900D03*
X70226000Y-107760900D03*
X69426000Y-107760900D03*
D50*
X68726000Y-107760900D03*
X67726000Y-107760900D03*
X66226000Y-107760900D03*
X65226000Y-107760900D03*
D49*
X64526000Y-107760900D03*
X63726000Y-107760900D03*
D51*
X71296000Y-108675900D03*
D52*
X62656000Y-112855900D03*
D51*
X62656000Y-108675900D03*
D52*
X71296000Y-112855900D03*
D31*
X100778800Y-83896200D03*
X102603800Y-83896200D03*
D32*
X95034600Y-85420200D03*
X96759600Y-85420200D03*
X89652000Y-85521800D03*
X91377000Y-85521800D03*
X50699500Y-102489000D03*
X52424500Y-102489000D03*
D15*
X93802700Y-52895500D03*
X93802700Y-47815500D03*
D20*
X102550800Y-85420200D03*
X100825800Y-85420200D03*
D15*
X64770000Y-52959000D03*
X64770000Y-47879000D03*
D53*
X74029500Y-113048500D03*
X80129500Y-113048500D03*
D54*
X79463000Y-99066900D03*
D55*
X79463000Y-98256100D03*
X77743000Y-98256100D03*
D54*
X77743000Y-99066900D03*
D31*
X77572100Y-101409500D03*
X79397100Y-101409500D03*
D48*
X42058500Y-106299000D03*
X39983500Y-106299000D03*
D56*
X45149000Y-103759000D03*
D57*
X47649000Y-103759000D03*
D15*
X83795100Y-52895500D03*
X83795100Y-47815500D03*
D32*
X98362000Y-89217500D03*
X100087000Y-89217500D03*
D21*
X50778500Y-104267000D03*
X52853500Y-104267000D03*
D31*
X89600900Y-83947000D03*
X91425900Y-83947000D03*
X77572100Y-102933500D03*
X79397100Y-102933500D03*
D15*
X59817000Y-52959000D03*
X59817000Y-47879000D03*
D58*
X97981000Y-114047500D03*
X97981000Y-112047500D03*
D38*
X60789500Y-110818500D03*
X60789500Y-112643500D03*
D12*
X69787000Y-85979000D03*
D13*
X67247000Y-85979000D03*
X64707000Y-85979000D03*
X62167000Y-85979000D03*
D27*
X37973500Y-99212500D03*
D32*
X83909400Y-85420200D03*
X85634400Y-85420200D03*
D15*
X69690000Y-52959000D03*
X69690000Y-47879000D03*
D59*
X81423511Y-84883489D03*
X78613000Y-77724000D03*
X96457000Y-88392000D03*
X97434900Y-88392000D03*
X98374700Y-88392000D03*
X71088120Y-96819080D03*
X76264000Y-83312000D03*
X77534000Y-83820000D03*
X78804000Y-84455000D03*
X80074000Y-84582000D03*
X96539500Y-94328500D03*
X74663800Y-98018600D03*
D60*
X66206000Y-109029500D03*
X67310500Y-109029500D03*
D59*
X66893841Y-98219889D03*
X75895700Y-107302300D03*
X62788817Y-98094917D03*
X64686000Y-110105784D03*
X69303000Y-110105000D03*
X88875100Y-99656900D03*
X91110300Y-103517700D03*
X93040700Y-103517700D03*
X91262700Y-97116900D03*
X100063800Y-88392000D03*
X88329000Y-83947000D03*
X96203000Y-100571300D03*
X67819300Y-100661500D03*
X66629500Y-102908900D03*
X54229000Y-104267000D03*
X94103000Y-96075500D03*
X63059500Y-106648500D03*
X92203000Y-96075500D03*
X86906600Y-83896200D03*
X99149400Y-83845400D03*
X87884500Y-100545900D03*
X99632000Y-85344000D03*
X65489500Y-102908900D03*
X100087000Y-89916000D03*
X98285800Y-83845400D03*
X93790000Y-89662000D03*
X60809500Y-113808500D03*
X67809500Y-102978900D03*
X99559500Y-108148500D03*
X90221300Y-104457500D03*
X77203000Y-100105000D03*
X77915000Y-110617000D03*
X59553000Y-91112000D03*
X54229000Y-102489000D03*
X38608000Y-106299000D03*
X88430600Y-85420200D03*
X38608000Y-104267000D03*
X99568500Y-94449900D03*
X63487800Y-81026000D03*
X72441300Y-106921300D03*
X65499500Y-101804500D03*
X66625500Y-101779100D03*
X66625500Y-100661500D03*
X78931000Y-110617000D03*
X95303000Y-99631500D03*
X95303000Y-101505000D03*
X93193100Y-97116900D03*
X93980500Y-104457500D03*
X63315099Y-104513899D03*
X97981000Y-85344000D03*
X54229000Y-106299000D03*
X86906600Y-85420200D03*
X76899000Y-110617000D03*
X90303000Y-96075500D03*
X59553000Y-93017000D03*
X73803000Y-99905000D03*
X62027300Y-106667300D03*
X75883000Y-90932000D03*
X87884500Y-102425500D03*
X59529500Y-112638500D03*
X65507900Y-100686900D03*
X87884500Y-98666300D03*
X71476100Y-106616500D03*
X69724100Y-105705900D03*
X88875100Y-101536500D03*
X96203000Y-98705000D03*
X96203000Y-102505000D03*
X92100900Y-104457500D03*
X75969500Y-93395800D03*
X67793900Y-101753700D03*
X62786980Y-99818900D03*
X74879700Y-109105700D03*
X75362300Y-108216700D03*
X61769500Y-99810500D03*
D61*
X59817000Y-54991000D02*
X61976000Y-57150000D01*
X59817000Y-52959000D02*
X59817000Y-54991000D01*
X59849500Y-42758500D02*
X59849500Y-47846500D01*
X59849500Y-47846500D02*
X59817000Y-47879000D01*
X76581000Y-56769000D02*
X74690000Y-54878000D01*
X74690000Y-54878000D02*
X74690000Y-52959000D01*
X76581000Y-57150000D02*
X76581000Y-56769000D01*
X69690000Y-54707932D02*
X69690000Y-52959000D01*
X71628000Y-56645932D02*
X69690000Y-54707932D01*
X71628000Y-57150000D02*
X71628000Y-56645932D01*
X64770000Y-54737000D02*
X64770000Y-52959000D01*
X66802000Y-56769000D02*
X64770000Y-54737000D01*
X66802000Y-57150000D02*
X66802000Y-56769000D01*
X74849500Y-47719500D02*
X74690000Y-47879000D01*
X74849500Y-42758500D02*
X74849500Y-47719500D01*
X69849500Y-47719500D02*
X69690000Y-47879000D01*
X69849500Y-42758500D02*
X69849500Y-47719500D01*
X64849500Y-47799500D02*
X64770000Y-47879000D01*
X64849500Y-42758500D02*
X64849500Y-47799500D01*
D62*
X77515378Y-74930000D02*
X76581000Y-74930000D01*
X81126500Y-78541122D02*
X77515378Y-74930000D01*
X81126500Y-78994000D02*
X81126500Y-78541122D01*
X79401500Y-78512500D02*
X78613000Y-77724000D01*
X79401500Y-78994000D02*
X79401500Y-78512500D01*
D63*
X81344000Y-86484000D02*
X81344000Y-84963000D01*
X81344000Y-84963000D02*
X81423511Y-84883489D01*
D62*
X81344000Y-79211500D02*
X81126500Y-78994000D01*
X81344000Y-81534000D02*
X81344000Y-79211500D01*
D64*
X34839100Y-88805000D02*
X34839100Y-79575700D01*
X49203800Y-65211000D02*
X49203800Y-63363800D01*
D61*
X49644800Y-64770000D02*
X76581000Y-64770000D01*
D64*
X49203800Y-63363800D02*
X49239500Y-63328100D01*
X49239500Y-63328100D02*
X49239500Y-54168500D01*
X34839100Y-79575700D02*
X49203800Y-65211000D01*
D65*
X49203800Y-65211000D02*
X49644800Y-64770000D01*
D62*
X50778500Y-104267000D02*
X50778500Y-109665500D01*
D65*
X59754000Y-75057000D02*
X61976000Y-75057000D01*
D62*
X57881000Y-83026000D02*
X57595000Y-83312000D01*
D65*
X57595000Y-77216000D02*
X59754000Y-75057000D01*
D62*
X50778500Y-101240500D02*
X55571800Y-101240500D01*
X50778500Y-104267000D02*
X50778500Y-101240500D01*
X55571800Y-101240500D02*
X56261500Y-101930200D01*
D65*
X58061011Y-97062211D02*
X57595000Y-96596200D01*
X61976000Y-75057000D02*
X76581000Y-75057000D01*
D62*
X50778500Y-109665500D02*
X51332000Y-110219000D01*
D65*
X58061011Y-100135583D02*
X58061011Y-97062211D01*
X57349797Y-100846797D02*
X58061011Y-100135583D01*
X56261500Y-101930200D02*
X57344903Y-100846797D01*
D62*
X50778500Y-98720500D02*
X50737000Y-98679000D01*
D65*
X57595000Y-83312000D02*
X57595000Y-77216000D01*
D62*
X50778500Y-101240500D02*
X50778500Y-98720500D01*
X59576200Y-83026000D02*
X57881000Y-83026000D01*
D65*
X57595000Y-96596200D02*
X57595000Y-83312000D01*
X57344903Y-100846797D02*
X57349797Y-100846797D01*
D66*
X74896111Y-100192514D02*
X76074997Y-101371400D01*
X72593500Y-99215900D02*
X72593500Y-98324460D01*
D67*
X72277900Y-103889800D02*
X71706480Y-103318380D01*
D62*
X96784000Y-88719000D02*
X96457000Y-88392000D01*
D66*
X72593500Y-98324460D02*
X71088120Y-96819080D01*
D62*
X97473000Y-89154000D02*
X96847500Y-89154000D01*
X98362000Y-89154000D02*
X97473000Y-89154000D01*
D66*
X74896111Y-99005489D02*
X74896111Y-100192514D01*
D67*
X76264500Y-98256100D02*
X75999500Y-97991100D01*
D68*
X71630520Y-100141380D02*
X72556000Y-99215900D01*
D67*
X71706480Y-100065420D02*
X72556000Y-99215900D01*
X71706480Y-103318380D02*
X71706480Y-100065420D01*
D66*
X74896111Y-99005489D02*
X74985111Y-99005489D01*
D68*
X71450200Y-103889800D02*
X71630520Y-103709480D01*
D67*
X77539500Y-98256100D02*
X76264500Y-98256100D01*
D62*
X96784000Y-89217500D02*
X96784000Y-88719000D01*
X98298500Y-92791500D02*
X98298500Y-87693500D01*
X70365300Y-104195900D02*
X68010520Y-104195900D01*
D66*
X72803911Y-99005489D02*
X74896111Y-99005489D01*
D62*
X97473000Y-88430100D02*
X97434900Y-88392000D01*
D66*
X72593500Y-99215900D02*
X72803911Y-99005489D01*
D62*
X72277900Y-103889800D02*
X71450200Y-103889800D01*
D68*
X71630520Y-103709480D02*
X71630520Y-100141380D01*
D66*
X74985111Y-99005489D02*
X75999500Y-97991100D01*
D62*
X96847500Y-89154000D02*
X96784000Y-89217500D01*
X71450200Y-103889800D02*
X70684400Y-103889800D01*
D66*
X77572100Y-101409500D02*
X77572100Y-102933500D01*
X77534000Y-101371400D02*
X77572100Y-101409500D01*
D62*
X98298500Y-87693500D02*
X98362000Y-87630000D01*
X70677900Y-103883300D02*
X70365300Y-104195900D01*
X97473000Y-89154000D02*
X97473000Y-88430100D01*
D66*
X76074997Y-101371400D02*
X77534000Y-101371400D01*
D62*
X70684400Y-103889800D02*
X70677900Y-103883300D01*
D61*
X98809500Y-42718499D02*
X98809500Y-47793100D01*
X98809500Y-47793100D02*
X98831900Y-47815500D01*
X98809500Y-42718499D02*
X98809500Y-34518500D01*
X93809500Y-47808700D02*
X93802700Y-47815500D01*
X93809500Y-34518500D02*
X93809500Y-42718499D01*
X93809500Y-42718499D02*
X93809500Y-47808700D01*
X88809500Y-42718499D02*
X88809500Y-34518500D01*
X88773500Y-42754499D02*
X88809500Y-42718499D01*
X88773500Y-47815500D02*
X88773500Y-42754499D01*
X83809500Y-34518500D02*
X83809500Y-42718499D01*
X83809500Y-47801100D02*
X83795100Y-47815500D01*
X83809500Y-42718499D02*
X83809500Y-47801100D01*
D63*
X64643000Y-80137000D02*
X61976000Y-77470000D01*
X75349138Y-80137000D02*
X64643000Y-80137000D01*
X76264000Y-81051862D02*
X75349138Y-80137000D01*
X76264000Y-81534000D02*
X76264000Y-81051862D01*
X68869480Y-79537480D02*
X75410480Y-79537480D01*
X76019618Y-79537480D02*
X75410480Y-79537480D01*
X77534000Y-81534000D02*
X77534000Y-81051862D01*
X66802000Y-77470000D02*
X68869480Y-79537480D01*
X77534000Y-81051862D02*
X76019618Y-79537480D01*
X71628000Y-77470000D02*
X73095960Y-78937960D01*
X78804000Y-81534000D02*
X78804000Y-80813150D01*
X76928810Y-78937960D02*
X73095960Y-78937960D01*
X78804000Y-80813150D02*
X76928810Y-78937960D01*
X79439000Y-80051150D02*
X80074000Y-80686150D01*
X76581000Y-77470000D02*
X76581000Y-77742300D01*
X80074000Y-80686150D02*
X80074000Y-81407000D01*
X78889850Y-80051150D02*
X79439000Y-80051150D01*
X76581000Y-77742300D02*
X78889850Y-80051150D01*
X86964983Y-89591111D02*
X86032511Y-89591111D01*
D66*
X83834274Y-87392874D02*
X84783000Y-88341600D01*
D63*
X90030800Y-90678000D02*
X88051872Y-90678000D01*
X90716600Y-91363800D02*
X90030800Y-90678000D01*
X88051872Y-90678000D02*
X86964983Y-89591111D01*
X90678500Y-92791500D02*
X90716600Y-92753400D01*
D66*
X83834274Y-81543320D02*
X83834274Y-87392874D01*
D63*
X86032511Y-89591111D02*
X84783000Y-88341600D01*
X90716600Y-92753400D02*
X90716600Y-91363800D01*
D66*
X91377000Y-85521800D02*
X90208600Y-86690200D01*
X91454274Y-85444526D02*
X91377000Y-85521800D01*
X91454274Y-81543320D02*
X91454274Y-85444526D01*
X88974400Y-86690200D02*
X87323000Y-88341600D01*
X90208600Y-86690200D02*
X88974400Y-86690200D01*
D63*
X90523480Y-90078480D02*
X91948500Y-91503500D01*
X90523480Y-90078480D02*
X89059880Y-90078480D01*
X87323000Y-88341600D02*
X89059880Y-90078480D01*
X91948500Y-92791500D02*
X91948500Y-91503500D01*
X93240800Y-91719400D02*
X93256600Y-91719400D01*
D66*
X89863000Y-88341600D02*
X91362000Y-86842600D01*
D63*
X93256600Y-91719400D02*
X93256600Y-92753400D01*
D66*
X91362000Y-86842600D02*
X93612200Y-86842600D01*
X95034600Y-81567646D02*
X95010274Y-81543320D01*
X95034600Y-85420200D02*
X95034600Y-81567646D01*
D63*
X89863000Y-88341600D02*
X93240800Y-91719400D01*
X93256600Y-92753400D02*
X93218500Y-92791500D01*
D66*
X93612200Y-86842600D02*
X95034600Y-85420200D01*
X95190772Y-86394720D02*
X101525480Y-86394720D01*
X101525480Y-86394720D02*
X102550800Y-85369400D01*
X92403000Y-88341600D02*
X93243892Y-88341600D01*
D63*
X92901000Y-90438422D02*
X92901000Y-90424000D01*
X92901000Y-90424000D02*
X92403000Y-89926000D01*
X92403000Y-89926000D02*
X92403000Y-88341600D01*
D66*
X93243892Y-88341600D02*
X95190772Y-86394720D01*
D63*
X94488500Y-92791500D02*
X94488500Y-92025922D01*
X94488500Y-92025922D02*
X92901000Y-90438422D01*
D66*
X102550800Y-81622794D02*
X102630274Y-81543320D01*
X102550800Y-85369400D02*
X102550800Y-81622794D01*
D63*
X76264000Y-87161978D02*
X76264000Y-86484000D01*
X78622500Y-96846500D02*
X77153000Y-95377000D01*
X76264000Y-83312000D02*
X76264000Y-86484000D01*
X77153000Y-95377000D02*
X77153000Y-88392000D01*
X82058500Y-96846500D02*
X78622500Y-96846500D01*
X77153000Y-88392000D02*
X77153000Y-88050978D01*
X77153000Y-88050978D02*
X76264000Y-87161978D01*
X77534000Y-87584128D02*
X77534000Y-86357000D01*
X85598500Y-92791500D02*
X85598500Y-91812478D01*
X77752520Y-87802648D02*
X77534000Y-87584128D01*
X77752520Y-88991520D02*
X77752520Y-87802648D01*
X77534000Y-83820000D02*
X77534000Y-86484000D01*
X85598500Y-91812478D02*
X85178011Y-91391989D01*
X85178011Y-91391989D02*
X80152989Y-91391989D01*
X80152989Y-91391989D02*
X77752520Y-88991520D01*
X80401319Y-90792469D02*
X85848491Y-90792469D01*
X85848491Y-90792469D02*
X86868500Y-91812478D01*
X78804000Y-86357000D02*
X78804000Y-89195150D01*
X86868500Y-91812478D02*
X86868500Y-92791500D01*
X78804000Y-89195150D02*
X80401319Y-90792469D01*
X78804000Y-84455000D02*
X78804000Y-86484000D01*
X80649649Y-90192949D02*
X86518971Y-90192949D01*
X80074000Y-84582000D02*
X80074000Y-86357000D01*
X80074000Y-86357000D02*
X80074000Y-89617300D01*
X86518971Y-90192949D02*
X88138500Y-91812478D01*
X88138500Y-91812478D02*
X88138500Y-92791500D01*
X80074000Y-89617300D02*
X80649649Y-90192949D01*
D64*
X51203100Y-47134900D02*
X49249500Y-49088500D01*
X51203100Y-42782099D02*
X51203100Y-47134900D01*
X51203100Y-34582100D02*
X51203100Y-42782099D01*
D66*
X74125964Y-98018600D02*
X72269500Y-96162136D01*
X72269500Y-95105000D02*
X69626000Y-95105000D01*
D63*
X96721500Y-91133000D02*
X97028500Y-91440000D01*
D66*
X97028500Y-92791500D02*
X97028500Y-93749500D01*
X69626000Y-95105000D02*
X69499500Y-94978500D01*
D62*
X72269500Y-88905000D02*
X72269500Y-95105000D01*
D63*
X96520500Y-90741500D02*
X94996500Y-89217500D01*
D66*
X72269500Y-96162136D02*
X72269500Y-95105000D01*
D63*
X96721500Y-90741500D02*
X96721500Y-91133000D01*
X97028500Y-91440000D02*
X97028500Y-92791500D01*
D66*
X97028500Y-93749500D02*
X96486989Y-94291011D01*
X74663800Y-98018600D02*
X74125964Y-98018600D01*
D69*
X66286000Y-105655900D02*
X66716000Y-105225900D01*
X67843900Y-108803800D02*
X67726000Y-108685900D01*
X66716000Y-105225900D02*
X66716000Y-104318392D01*
X67843900Y-110364100D02*
X67843900Y-108803800D01*
X66286000Y-105705900D02*
X66286000Y-106230901D01*
X66726000Y-107760900D02*
X66726000Y-110428000D01*
X66726000Y-110428000D02*
X66903000Y-110605000D01*
X66903000Y-110605000D02*
X67603000Y-110605000D01*
D67*
X66726000Y-107760900D02*
X66766000Y-107800900D01*
D69*
X66716000Y-106660901D02*
X66716000Y-107828500D01*
X67726000Y-108685900D02*
X67726000Y-107760900D01*
X67603000Y-110605000D02*
X67843900Y-110364100D01*
X66286000Y-105705900D02*
X66286000Y-105655900D01*
X66286000Y-106230901D02*
X66716000Y-106660901D01*
X67596000Y-105655900D02*
X67166000Y-105225900D01*
D67*
X67310500Y-109029500D02*
X67226000Y-108945000D01*
D69*
X67596000Y-105705900D02*
X67596000Y-105655900D01*
D67*
X66206000Y-109029500D02*
X66206000Y-107780900D01*
D69*
X67596000Y-106230901D02*
X67166000Y-106660901D01*
D67*
X67226000Y-108945000D02*
X67226000Y-107760900D01*
D69*
X67596000Y-105705900D02*
X67596000Y-106230901D01*
X67166000Y-106660901D02*
X67166000Y-107828500D01*
X67166000Y-105225900D02*
X67166000Y-104318392D01*
D67*
X66206000Y-107780900D02*
X66226000Y-107760900D01*
D68*
X68599500Y-93053500D02*
X68549500Y-93103500D01*
X68599500Y-91318500D02*
X68599500Y-93053500D01*
X68549500Y-97313000D02*
X68482000Y-97380500D01*
X68549500Y-93103500D02*
X68549500Y-97313000D01*
D62*
X63259500Y-88638500D02*
X63259500Y-94838500D01*
D63*
X66893841Y-98219889D02*
X66893841Y-95842841D01*
X75946500Y-107276900D02*
X79039398Y-107276900D01*
X62788817Y-98094917D02*
X63253000Y-97630734D01*
X81553998Y-109791500D02*
X83058500Y-109791500D01*
X79039398Y-107276900D02*
X81553998Y-109791500D01*
X63253000Y-97630734D02*
X63253000Y-95105000D01*
X66893841Y-95842841D02*
X66039500Y-94988500D01*
X65169500Y-93033500D02*
X65089500Y-93113500D01*
X65169500Y-91138500D02*
X65169500Y-93033500D01*
X65169500Y-90488500D02*
X65869500Y-89788500D01*
X65089500Y-93113500D02*
X65089500Y-95729441D01*
X65089500Y-95729441D02*
X64300600Y-96518341D01*
X60969989Y-99459011D02*
X60969989Y-101255989D01*
X63081400Y-98933000D02*
X61496000Y-98933000D01*
X65869500Y-89788500D02*
X66774500Y-89788500D01*
X64300600Y-96518341D02*
X64300600Y-97713800D01*
X65169500Y-91138500D02*
X65169500Y-90488500D01*
X60969989Y-101255989D02*
X62109500Y-102395500D01*
X61496000Y-98933000D02*
X60969989Y-99459011D01*
X64300600Y-97713800D02*
X63081400Y-98933000D01*
D66*
X94488500Y-109791500D02*
X94488500Y-110970522D01*
X93914922Y-111544100D02*
X91567500Y-111544100D01*
X91567500Y-111544100D02*
X90145100Y-112966500D01*
X90145100Y-112966500D02*
X89256100Y-112077500D01*
X89256100Y-112077500D02*
X87281000Y-112077500D01*
X94488500Y-110970522D02*
X93914922Y-111544100D01*
X91335589Y-114316011D02*
X92685100Y-112966500D01*
X92685100Y-112966500D02*
X94615500Y-112966500D01*
X87281000Y-114109500D02*
X87487511Y-114316011D01*
X87487511Y-114316011D02*
X91335589Y-114316011D01*
X94615500Y-112966500D02*
X95758500Y-111823500D01*
X95758500Y-111823500D02*
X95758500Y-109791500D01*
D68*
X73315820Y-102986220D02*
X72593500Y-102263900D01*
X73315820Y-108442838D02*
X73315820Y-102986220D01*
D63*
X64860521Y-108885082D02*
X64860521Y-109931263D01*
X64526000Y-108550561D02*
X64860521Y-108885082D01*
D66*
X64686000Y-110105784D02*
X64433284Y-110358500D01*
D68*
X64835521Y-110076631D02*
X64806368Y-110105784D01*
X69186008Y-108872321D02*
X69116479Y-108941850D01*
X64526000Y-106545900D02*
X63686000Y-105705900D01*
X69303000Y-110105000D02*
X71653658Y-110105000D01*
X69303000Y-110105000D02*
X69116479Y-109918479D01*
D66*
X62059100Y-110356700D02*
X61121500Y-109419100D01*
D68*
X71653658Y-110105000D02*
X73315820Y-108442838D01*
X69426000Y-107760900D02*
X69426000Y-108585916D01*
D63*
X64860521Y-109931263D02*
X64686000Y-110105784D01*
D68*
X69116479Y-109918479D02*
X69116479Y-108941850D01*
X69426000Y-108585916D02*
X69186008Y-108825908D01*
D66*
X62059100Y-110358500D02*
X62059100Y-110356700D01*
D68*
X69186008Y-108825908D02*
X69186008Y-108872321D01*
D66*
X61121500Y-109419100D02*
X60579500Y-109419100D01*
X64433284Y-110358500D02*
X62059100Y-110358500D01*
D63*
X64526000Y-107760900D02*
X64526000Y-108550561D01*
D68*
X64526000Y-107760900D02*
X64526000Y-106545900D01*
D62*
X76899000Y-110617000D02*
X77831489Y-110617000D01*
X52424500Y-102489000D02*
X54229000Y-102489000D01*
X87884500Y-99631500D02*
X88849700Y-99631500D01*
X60789500Y-112643500D02*
X60789500Y-113788500D01*
X99568500Y-94449900D02*
X99568500Y-95491300D01*
X72441300Y-105778200D02*
X72277900Y-105614800D01*
D66*
X99708200Y-85420200D02*
X99632000Y-85344000D01*
X97904800Y-85420200D02*
X97981000Y-85344000D01*
X93790000Y-89662000D02*
X94869500Y-90741500D01*
D62*
X100087000Y-89217500D02*
X100087000Y-88034200D01*
X92100900Y-104457500D02*
X92100900Y-103543100D01*
X91186500Y-104457500D02*
X91186500Y-103593900D01*
X99559500Y-100548500D02*
X99559500Y-95500300D01*
X95301300Y-100545900D02*
X95275900Y-100571300D01*
X87884500Y-98666300D02*
X87884500Y-102425500D01*
X78931000Y-110617000D02*
X78931000Y-111850000D01*
X93980500Y-104457500D02*
X93980500Y-103517700D01*
X99568500Y-109791500D02*
X99568500Y-108157500D01*
X99568500Y-108212478D02*
X99568500Y-108775500D01*
D66*
X63315099Y-104676801D02*
X62286000Y-105705900D01*
D62*
X89934500Y-102425500D02*
X92068500Y-100291500D01*
X99559500Y-108148500D02*
X99559500Y-104548500D01*
D67*
X66186000Y-103352400D02*
X66629500Y-102908900D01*
D62*
X100076500Y-89877900D02*
X100087000Y-89867400D01*
X95275900Y-101536500D02*
X93313500Y-101536500D01*
D66*
X63315099Y-104513899D02*
X64143021Y-104513899D01*
D62*
X93066100Y-96075500D02*
X93066100Y-96989900D01*
D66*
X96863400Y-83845400D02*
X96812600Y-83896200D01*
D62*
X93040700Y-101263700D02*
X92068500Y-100291500D01*
D63*
X72593500Y-100739900D02*
X72968100Y-100739900D01*
D62*
X96203000Y-98705000D02*
X96203000Y-98731500D01*
X96203000Y-102505000D02*
X94282000Y-102505000D01*
D66*
X85685500Y-83896200D02*
X89550100Y-83896200D01*
D62*
X70684400Y-105614800D02*
X70677900Y-105608300D01*
D63*
X72968100Y-100739900D02*
X73803000Y-99905000D01*
D62*
X91186500Y-96075500D02*
X91186500Y-97040700D01*
X88875100Y-101536500D02*
X90823500Y-101536500D01*
D66*
X88532200Y-85521800D02*
X88430600Y-85420200D01*
X64886000Y-105256878D02*
X64886000Y-105705900D01*
D62*
X93313500Y-101536500D02*
X92068500Y-100291500D01*
X69724100Y-105705900D02*
X70580300Y-105705900D01*
X90221300Y-102138700D02*
X92068500Y-100291500D01*
X100087000Y-89217500D02*
X100087000Y-89867400D01*
D67*
X66186000Y-104684389D02*
X65164489Y-105705900D01*
D62*
X96266500Y-100545900D02*
X99556900Y-100545900D01*
X94103000Y-96075500D02*
X94103000Y-96207000D01*
X72441300Y-106921300D02*
X72441300Y-105778200D01*
D63*
X76814100Y-99716100D02*
X77203000Y-100105000D01*
D62*
X95303000Y-99631500D02*
X95303000Y-101505000D01*
X94103000Y-96207000D02*
X93193100Y-97116900D01*
D67*
X75999500Y-99716100D02*
X76648700Y-99066900D01*
D62*
X59553000Y-91112000D02*
X59553000Y-93017000D01*
X60789500Y-112643500D02*
X59534500Y-112643500D01*
X91186500Y-97040700D02*
X91262700Y-97116900D01*
X68996000Y-105705900D02*
X69724100Y-105705900D01*
X99568500Y-111578000D02*
X100013000Y-112022500D01*
X88849700Y-100545900D02*
X88875100Y-100571300D01*
X99568500Y-109791500D02*
X99568500Y-111578000D01*
X90303000Y-96075500D02*
X90303000Y-98526000D01*
D66*
X63726000Y-107760900D02*
X63726000Y-107315000D01*
D63*
X75999500Y-99716100D02*
X76814100Y-99716100D01*
D62*
X75969500Y-95105000D02*
X75969500Y-93228300D01*
X88875100Y-98691700D02*
X90468700Y-98691700D01*
D66*
X82058500Y-95576500D02*
X84794700Y-95576500D01*
D67*
X65164489Y-105705900D02*
X64886000Y-105705900D01*
D66*
X89550100Y-83896200D02*
X89600900Y-83947000D01*
D62*
X88849700Y-98666300D02*
X88875100Y-98691700D01*
D66*
X62027300Y-106667300D02*
X62286000Y-106408600D01*
D62*
X92100900Y-103543100D02*
X92075500Y-103517700D01*
X76899000Y-110617000D02*
X75923000Y-110617000D01*
X87884500Y-102425500D02*
X89934500Y-102425500D01*
X99568500Y-92791500D02*
X99568500Y-94449900D01*
D65*
X61659000Y-81008000D02*
X63469800Y-81008000D01*
D62*
X92075500Y-103517700D02*
X92075500Y-100298500D01*
D65*
X63469800Y-81008000D02*
X63487800Y-81026000D01*
D62*
X87884500Y-101511100D02*
X88849700Y-101511100D01*
D66*
X63059500Y-106648500D02*
X62046100Y-106648500D01*
D62*
X96266500Y-100545900D02*
X95301300Y-100545900D01*
X87884500Y-98666300D02*
X88849700Y-98666300D01*
X99568500Y-108157500D02*
X99559500Y-108148500D01*
X52853500Y-104267000D02*
X54229000Y-104267000D01*
X75923000Y-110617000D02*
X75624500Y-110318500D01*
X91433900Y-99656900D02*
X92068500Y-100291500D01*
X90221300Y-104457500D02*
X93980500Y-104457500D01*
X94282000Y-102505000D02*
X92068500Y-100291500D01*
X88849700Y-99631500D02*
X88875100Y-99656900D01*
D66*
X70226000Y-106207800D02*
X70226000Y-107760900D01*
D62*
X99568500Y-91249500D02*
X100076500Y-90741500D01*
X90303000Y-98526000D02*
X92068500Y-100291500D01*
X60789500Y-113788500D02*
X60809500Y-113808500D01*
X59534500Y-112643500D02*
X59529500Y-112638500D01*
X93040700Y-103517700D02*
X93040700Y-101263700D01*
X88849700Y-101511100D02*
X88875100Y-101536500D01*
X95275900Y-100571300D02*
X92348300Y-100571300D01*
X91262700Y-99485700D02*
X92068500Y-100291500D01*
X52853500Y-106299000D02*
X54229000Y-106299000D01*
X90303000Y-96075500D02*
X94103000Y-96075500D01*
D66*
X85634400Y-85420200D02*
X86906600Y-85420200D01*
D62*
X93066100Y-103543100D02*
X93040700Y-103517700D01*
X92100900Y-96075500D02*
X92100900Y-96989900D01*
D66*
X63315099Y-104513899D02*
X63315099Y-104676801D01*
D62*
X39835000Y-103066500D02*
X40412500Y-102489000D01*
X92075500Y-100298500D02*
X92068500Y-100291500D01*
X70580300Y-105705900D02*
X70677900Y-105608300D01*
X93193100Y-97116900D02*
X93193100Y-99166900D01*
X92348300Y-100571300D02*
X92068500Y-100291500D01*
X99559500Y-104548500D02*
X99559500Y-100548500D01*
D67*
X66186000Y-104195900D02*
X66186000Y-104684389D01*
D62*
X59553000Y-89102000D02*
X59553000Y-91112000D01*
X95303000Y-101505000D02*
X95303000Y-101605000D01*
X92728500Y-99631500D02*
X92068500Y-100291500D01*
X95303000Y-101605000D02*
X96203000Y-102505000D01*
X93655000Y-98705000D02*
X92068500Y-100291500D01*
X100076500Y-90741500D02*
X100076500Y-89877900D01*
X90823500Y-101536500D02*
X92068500Y-100291500D01*
X59553000Y-95302000D02*
X59553000Y-93017000D01*
X99559500Y-95500300D02*
X99568500Y-95491300D01*
X91110300Y-103517700D02*
X91110300Y-101249700D01*
D66*
X62286000Y-105705900D02*
X62286000Y-105875000D01*
D62*
X87884500Y-100545900D02*
X88849700Y-100545900D01*
X92100900Y-96989900D02*
X92227900Y-97116900D01*
X92227900Y-97116900D02*
X92227900Y-100132100D01*
X96203000Y-98705000D02*
X96203000Y-102505000D01*
X71476100Y-105676700D02*
X71414200Y-105614800D01*
X94103000Y-98257000D02*
X92068500Y-100291500D01*
X90468700Y-98691700D02*
X92068500Y-100291500D01*
X39835000Y-110219000D02*
X39835000Y-103066500D01*
X92227900Y-100132100D02*
X92068500Y-100291500D01*
X91110300Y-101249700D02*
X92068500Y-100291500D01*
X96203000Y-98731500D02*
X95303000Y-99631500D01*
D66*
X100778800Y-83845400D02*
X96863400Y-83845400D01*
D62*
X100087000Y-88034200D02*
X100063800Y-88011000D01*
D66*
X64143021Y-104513899D02*
X64886000Y-105256878D01*
D62*
X93066100Y-96989900D02*
X93193100Y-97116900D01*
D66*
X63726000Y-107315000D02*
X63059500Y-106648500D01*
D62*
X95301300Y-101511100D02*
X95275900Y-101536500D01*
X39983500Y-106299000D02*
X38608000Y-106299000D01*
D67*
X76648700Y-99066900D02*
X77539500Y-99066900D01*
D62*
X91788700Y-100571300D02*
X92068500Y-100291500D01*
X71414200Y-105614800D02*
X70684400Y-105614800D01*
X72277900Y-105614800D02*
X71414200Y-105614800D01*
X91186500Y-103593900D02*
X91110300Y-103517700D01*
D66*
X89652000Y-85521800D02*
X88532200Y-85521800D01*
D62*
X90221300Y-104457500D02*
X90221300Y-102138700D01*
X93980500Y-102203500D02*
X92068500Y-100291500D01*
D66*
X100825800Y-85420200D02*
X99708200Y-85420200D01*
D62*
X78931000Y-111850000D02*
X80129500Y-113048500D01*
X91262700Y-97116900D02*
X91262700Y-99485700D01*
X93066100Y-104457500D02*
X93066100Y-103543100D01*
X99556900Y-100545900D02*
X99559500Y-100548500D01*
X94103000Y-96075500D02*
X94103000Y-98257000D01*
X95303000Y-99631500D02*
X92728500Y-99631500D01*
D66*
X94869500Y-90741500D02*
X94996500Y-90741500D01*
D62*
X93980500Y-103517700D02*
X93980500Y-102203500D01*
D66*
X69724100Y-105705900D02*
X70226000Y-106207800D01*
D62*
X75969500Y-93228300D02*
X75969500Y-90383500D01*
D66*
X62286000Y-106408600D02*
X62286000Y-105875000D01*
D67*
X66186000Y-104195900D02*
X66186000Y-103352400D01*
D62*
X88875100Y-100571300D02*
X91788700Y-100571300D01*
X93193100Y-99166900D02*
X92068500Y-100291500D01*
D66*
X62046100Y-106648500D02*
X62027300Y-106667300D01*
X96759600Y-85420200D02*
X97904800Y-85420200D01*
D62*
X88875100Y-99656900D02*
X91433900Y-99656900D01*
X99568500Y-92791500D02*
X99568500Y-91249500D01*
X77915000Y-110617000D02*
X78931000Y-110617000D01*
X96203000Y-98705000D02*
X93655000Y-98705000D01*
X75969500Y-88905000D02*
X75969500Y-90383500D01*
X71476100Y-106616500D02*
X71476100Y-105676700D01*
D66*
X84794700Y-95576500D02*
X87884500Y-98666300D01*
D62*
X39983500Y-104267000D02*
X38608000Y-104267000D01*
D66*
X62286000Y-105875000D02*
X63059500Y-106648500D01*
D68*
X69888100Y-89788500D02*
X68599500Y-89788500D01*
X70449500Y-90349900D02*
X69888100Y-89788500D01*
X70449500Y-93103500D02*
X70449500Y-90349900D01*
X66989500Y-91533500D02*
X66774500Y-91318500D01*
X66989500Y-93113500D02*
X66989500Y-91533500D01*
D67*
X64223400Y-101258500D02*
X63801272Y-101258500D01*
X64236000Y-101245900D02*
X64223400Y-101258500D01*
X63511491Y-99251009D02*
X63511491Y-100968719D01*
X65382000Y-97380500D02*
X63511491Y-99251009D01*
X63511491Y-100968719D02*
X63801272Y-101258500D01*
X64236000Y-103245900D02*
X63558500Y-103245900D01*
X62109500Y-104145500D02*
X62658900Y-104145500D01*
X62658900Y-104145500D02*
X63558500Y-103245900D01*
D62*
X91454274Y-72623674D02*
X88773500Y-69942900D01*
X91454274Y-73923320D02*
X91454274Y-72623674D01*
D63*
X97981000Y-114047500D02*
X99988000Y-114047500D01*
X99988000Y-114047500D02*
X100013000Y-114072500D01*
D61*
X69849500Y-34558501D02*
X69849500Y-42758500D01*
X64849500Y-34558501D02*
X64849500Y-42758500D01*
X59849500Y-34558501D02*
X59849500Y-42758500D01*
X88773500Y-52895500D02*
X88773500Y-55791100D01*
X93802700Y-61891100D02*
X93802700Y-63842900D01*
D62*
X95010274Y-71150474D02*
X93802700Y-69942900D01*
X95010274Y-73923320D02*
X95010274Y-71150474D01*
D63*
X83984060Y-114109500D02*
X78980260Y-109105700D01*
X78980260Y-109105700D02*
X74879700Y-109105700D01*
D67*
X64236000Y-101745900D02*
X63652954Y-101745900D01*
X63652954Y-101745900D02*
X62786980Y-100879926D01*
D63*
X85281000Y-114109500D02*
X83984060Y-114109500D01*
D67*
X62786980Y-100879926D02*
X62786980Y-99818900D01*
D68*
X79397100Y-102933500D02*
X76806300Y-105524300D01*
D67*
X80971271Y-108466989D02*
X92859189Y-108466989D01*
X79203093Y-106698811D02*
X77578211Y-106698811D01*
X80234080Y-107729798D02*
X79203093Y-106698811D01*
X78585080Y-100939204D02*
X78585080Y-102121480D01*
D68*
X76806300Y-105524300D02*
X76403700Y-105524300D01*
D67*
X78585080Y-102121480D02*
X79397100Y-102933500D01*
X92859189Y-108466989D02*
X93218500Y-108826300D01*
X79864900Y-99066900D02*
X79463000Y-99066900D01*
X80003000Y-99521284D02*
X80003000Y-99205000D01*
X78585080Y-100939204D02*
X80003000Y-99521284D01*
X93218500Y-108826300D02*
X93218500Y-109791500D01*
X77578211Y-106698811D02*
X76403700Y-105524300D01*
X80234080Y-107729798D02*
X80971271Y-108466989D01*
X80003000Y-99205000D02*
X79864900Y-99066900D01*
X79397100Y-101409500D02*
X79524100Y-101409500D01*
X78943700Y-105524300D02*
X78943700Y-105803700D01*
X97028500Y-109791500D02*
X97028500Y-108962478D01*
X80209120Y-104258880D02*
X78943700Y-105524300D01*
X79397100Y-100910900D02*
X80452520Y-99855480D01*
X79496100Y-101381500D02*
X79524100Y-101409500D01*
D68*
X80259120Y-102271520D02*
X80259120Y-104208880D01*
D67*
X80209120Y-102221520D02*
X80209120Y-104258880D01*
X80452520Y-99855480D02*
X80452520Y-98754520D01*
X79954100Y-98256100D02*
X79463000Y-98256100D01*
X80452520Y-98754520D02*
X79954100Y-98256100D01*
X79397100Y-101409500D02*
X79397100Y-100910900D01*
X79397100Y-101409500D02*
X80209120Y-102221520D01*
D68*
X80259120Y-104208880D02*
X78943700Y-105524300D01*
X79397100Y-101409500D02*
X80259120Y-102271520D01*
D67*
X78943700Y-105803700D02*
X80921011Y-107781011D01*
X95847033Y-107781011D02*
X80921011Y-107781011D01*
X97028500Y-108962478D02*
X95847033Y-107781011D01*
D61*
X93802700Y-52895500D02*
X93802700Y-55791100D01*
X98831900Y-52895500D02*
X98831900Y-55791100D01*
X98831900Y-61891100D02*
X98831900Y-63842900D01*
D62*
X102630274Y-73094151D02*
X99479023Y-69942900D01*
X102630274Y-73923320D02*
X102630274Y-73094151D01*
X99479023Y-69942900D02*
X98831900Y-69942900D01*
D63*
X59576200Y-81026000D02*
X59627000Y-81026000D01*
X59627000Y-81026000D02*
X61659000Y-83058000D01*
D61*
X88773500Y-61891100D02*
X88773500Y-63842900D01*
D62*
X56261500Y-104470200D02*
X57730600Y-104470200D01*
X57730600Y-104470200D02*
X60579500Y-107319100D01*
D63*
X98298500Y-111730000D02*
X97981000Y-112047500D01*
X98298500Y-109791500D02*
X98298500Y-111730000D01*
D67*
X69982984Y-103245900D02*
X70768500Y-102460384D01*
X69136000Y-103245900D02*
X69982984Y-103245900D01*
D66*
X70768500Y-100739900D02*
X70768500Y-102263900D01*
D67*
X70768500Y-102460384D02*
X70768500Y-102263900D01*
X69662500Y-102745900D02*
X69956480Y-102451920D01*
X69956480Y-102451920D02*
X69956480Y-100065420D01*
X69136000Y-102745900D02*
X69662500Y-102745900D01*
X69956480Y-100065420D02*
X70806000Y-99215900D01*
D63*
X82808500Y-112077500D02*
X78947700Y-108216700D01*
X78947700Y-108216700D02*
X75362300Y-108216700D01*
D67*
X63354900Y-102245900D02*
X64236000Y-102245900D01*
X61769500Y-100660500D02*
X63354900Y-102245900D01*
X61769500Y-99810500D02*
X61769500Y-100660500D01*
D63*
X85281000Y-112077500D02*
X82808500Y-112077500D01*
D61*
X83820500Y-61891100D02*
X83820500Y-63842900D01*
D62*
X83820500Y-73909546D02*
X83834274Y-73923320D01*
X83820500Y-69942900D02*
X83820500Y-73909546D01*
D66*
X89408500Y-92791500D02*
X89408500Y-94391500D01*
X89408500Y-94391500D02*
X89337400Y-94462600D01*
X89337400Y-94462600D02*
X78880200Y-94462600D01*
X83058500Y-92791500D02*
X79749100Y-92791500D01*
X79749100Y-92791500D02*
X78880200Y-91922600D01*
D65*
X54839100Y-97967800D02*
X56261500Y-99390200D01*
X54839100Y-83805000D02*
X54839100Y-97967800D01*
D61*
X74849500Y-34558501D02*
X74849500Y-42758500D01*
X83795100Y-55765700D02*
X83820500Y-55791100D01*
X83795100Y-52895500D02*
X83795100Y-55765700D01*
D67*
X65726000Y-108616911D02*
X65511500Y-108831411D01*
X65726000Y-107760900D02*
X65726000Y-108616911D01*
X65269500Y-111028500D02*
X60999500Y-111028500D01*
X60999500Y-111028500D02*
X60789500Y-110818500D01*
X65511500Y-110786500D02*
X65269500Y-111028500D01*
X65511500Y-108831411D02*
X65511500Y-110786500D01*
X68726000Y-108625901D02*
X68521489Y-108830412D01*
X68726000Y-107760900D02*
X68726000Y-108625901D01*
X68803120Y-110873020D02*
X73244980Y-110873020D01*
X68521489Y-108830412D02*
X68521489Y-110591389D01*
X73244980Y-110873020D02*
X73799500Y-110318500D01*
X68521489Y-110591389D02*
X68803120Y-110873020D01*
D62*
X71488600Y-113048500D02*
X71296000Y-112855900D01*
X62656000Y-112855900D02*
X71296000Y-112855900D01*
X74029500Y-113048500D02*
X71488600Y-113048500D01*
D65*
X42058500Y-104267000D02*
X42058500Y-102568000D01*
X42058500Y-104267000D02*
X42058500Y-109942500D01*
X42566500Y-103759000D02*
X42058500Y-104267000D01*
X44514000Y-112395000D02*
X54750200Y-112395000D01*
X45149000Y-103759000D02*
X42566500Y-103759000D01*
X48197000Y-100330000D02*
X48197000Y-98679000D01*
X54750200Y-112395000D02*
X56261500Y-110883700D01*
X42335000Y-110219000D02*
X42338000Y-110219000D01*
X42338000Y-110219000D02*
X44514000Y-112395000D01*
X45149000Y-103378000D02*
X48197000Y-100330000D01*
X45149000Y-103759000D02*
X45149000Y-103378000D01*
X42058500Y-109942500D02*
X42335000Y-110219000D01*
X42058500Y-102568000D02*
X42137500Y-102489000D01*
M02*
