G04 #@! TF.GenerationSoftware,KiCad,Pcbnew,(6.0.5)*
G04 #@! TF.CreationDate,2022-09-21T22:34:43+02:00*
G04 #@! TF.ProjectId,hamodule,68616d6f-6475-46c6-952e-6b696361645f,20220918.20*
G04 #@! TF.SameCoordinates,Original*
G04 #@! TF.FileFunction,Soldermask,Bot*
G04 #@! TF.FilePolarity,Negative*
%FSLAX46Y46*%
G04 Gerber Fmt 4.6, Leading zero omitted, Abs format (unit mm)*
G04 Created by KiCad (PCBNEW (6.0.5)) date 2022-09-21 22:34:43*
%MOMM*%
%LPD*%
G01*
G04 APERTURE LIST*
G04 Aperture macros list*
%AMRoundRect*
0 Rectangle with rounded corners*
0 $1 Rounding radius*
0 $2 $3 $4 $5 $6 $7 $8 $9 X,Y pos of 4 corners*
0 Add a 4 corners polygon primitive as box body*
4,1,4,$2,$3,$4,$5,$6,$7,$8,$9,$2,$3,0*
0 Add four circle primitives for the rounded corners*
1,1,$1+$1,$2,$3*
1,1,$1+$1,$4,$5*
1,1,$1+$1,$6,$7*
1,1,$1+$1,$8,$9*
0 Add four rect primitives between the rounded corners*
20,1,$1+$1,$2,$3,$4,$5,0*
20,1,$1+$1,$4,$5,$6,$7,0*
20,1,$1+$1,$6,$7,$8,$9,0*
20,1,$1+$1,$8,$9,$2,$3,0*%
G04 Aperture macros list end*
%ADD10RoundRect,0.050000X1.000000X-1.000000X1.000000X1.000000X-1.000000X1.000000X-1.000000X-1.000000X0*%
%ADD11C,2.100000*%
%ADD12RoundRect,0.050000X-0.850000X-0.850000X0.850000X-0.850000X0.850000X0.850000X-0.850000X0.850000X0*%
%ADD13O,1.800000X1.800000*%
%ADD14C,1.900000*%
%ADD15RoundRect,0.300000X-0.600000X-0.750000X0.600000X-0.750000X0.600000X0.750000X-0.600000X0.750000X0*%
%ADD16O,1.800000X2.100000*%
%ADD17RoundRect,0.050000X-0.825000X-0.825000X0.825000X-0.825000X0.825000X0.825000X-0.825000X0.825000X0*%
%ADD18C,1.750000*%
%ADD19RoundRect,0.050000X-0.952500X-1.000000X0.952500X-1.000000X0.952500X1.000000X-0.952500X1.000000X0*%
%ADD20O,2.005000X2.100000*%
%ADD21RoundRect,0.675000X0.625000X0.625000X-0.625000X0.625000X-0.625000X-0.625000X0.625000X-0.625000X0*%
%ADD22C,5.600000*%
%ADD23RoundRect,0.050000X-0.800000X1.200000X-0.800000X-1.200000X0.800000X-1.200000X0.800000X1.200000X0*%
%ADD24O,1.700000X2.500000*%
%ADD25RoundRect,0.050000X0.850000X-0.850000X0.850000X0.850000X-0.850000X0.850000X-0.850000X-0.850000X0*%
%ADD26RoundRect,0.050000X0.850000X0.850000X-0.850000X0.850000X-0.850000X-0.850000X0.850000X-0.850000X0*%
%ADD27C,0.750000*%
%ADD28O,1.100000X2.200000*%
%ADD29O,1.100000X1.700000*%
%ADD30RoundRect,0.050000X-0.800000X-0.800000X0.800000X-0.800000X0.800000X0.800000X-0.800000X0.800000X0*%
%ADD31C,1.700000*%
%ADD32RoundRect,0.050000X-0.850000X0.850000X-0.850000X-0.850000X0.850000X-0.850000X0.850000X0.850000X0*%
G04 APERTURE END LIST*
D10*
X76581000Y-77470000D03*
D11*
X76581000Y-74930000D03*
X76581000Y-64770000D03*
X76581000Y-57150000D03*
D10*
X71628000Y-77470000D03*
D11*
X71628000Y-74930000D03*
X71628000Y-64770000D03*
X71628000Y-57150000D03*
D10*
X66802000Y-77470000D03*
D11*
X66802000Y-74930000D03*
X66802000Y-64770000D03*
X66802000Y-57150000D03*
D10*
X61976000Y-77470000D03*
D11*
X61976000Y-74930000D03*
X61976000Y-64770000D03*
X61976000Y-57150000D03*
D12*
X56261500Y-108343700D03*
D13*
X56261500Y-110883700D03*
D14*
X41703800Y-59011450D03*
X49203800Y-60644780D03*
D15*
X48832000Y-110219000D03*
D16*
X51332000Y-110219000D03*
D17*
X34839100Y-68805000D03*
D18*
X34839100Y-88805000D03*
X54839100Y-83805000D03*
X54839100Y-73805000D03*
D19*
X45657000Y-98679000D03*
D20*
X48197000Y-98679000D03*
X50737000Y-98679000D03*
D21*
X74849500Y-42758500D03*
X74849500Y-34558501D03*
X69849500Y-42758500D03*
X69849500Y-34558501D03*
X64849500Y-42758500D03*
X64849500Y-34558501D03*
X59849500Y-42758500D03*
X59849500Y-34558501D03*
X46203100Y-34582100D03*
X46203100Y-42782099D03*
X51203100Y-34582100D03*
X51203100Y-42782099D03*
X98809500Y-42718499D03*
X98809500Y-34518500D03*
X93809500Y-42718499D03*
X93809500Y-34518500D03*
X88809500Y-42718499D03*
X88809500Y-34518500D03*
X83809500Y-42718499D03*
X83809500Y-34518500D03*
D11*
X49249500Y-49088500D03*
X49239500Y-54168500D03*
D22*
X104267500Y-49212500D03*
X37973500Y-49212500D03*
D23*
X91454274Y-73923320D03*
D24*
X88914274Y-73923320D03*
X86374274Y-73923320D03*
X83834274Y-73923320D03*
X83834274Y-81543320D03*
X86374274Y-81543320D03*
X88914274Y-81543320D03*
X91454274Y-81543320D03*
D23*
X102630274Y-73923320D03*
D24*
X100090274Y-73923320D03*
X97550274Y-73923320D03*
X95010274Y-73923320D03*
X95010274Y-81543320D03*
X97550274Y-81543320D03*
X100090274Y-81543320D03*
X102630274Y-81543320D03*
D15*
X39835000Y-110219000D03*
D16*
X42335000Y-110219000D03*
D25*
X84783000Y-88341600D03*
D13*
X87323000Y-88341600D03*
X89863000Y-88341600D03*
X92403000Y-88341600D03*
D25*
X90145100Y-112966500D03*
D13*
X92685100Y-112966500D03*
D26*
X56261500Y-104470200D03*
D13*
X56261500Y-101930200D03*
X56261500Y-99390200D03*
D26*
X78880200Y-94462600D03*
D13*
X78880200Y-91922600D03*
D14*
X88773500Y-52895500D03*
X88773500Y-47815500D03*
X98831900Y-52895500D03*
X98831900Y-47815500D03*
D25*
X76403700Y-105524300D03*
D13*
X78943700Y-105524300D03*
D14*
X74690000Y-52959000D03*
X74690000Y-47879000D03*
D27*
X69866000Y-109205900D03*
X64086000Y-109205900D03*
D28*
X71296000Y-108675900D03*
D29*
X62656000Y-112855900D03*
D28*
X62656000Y-108675900D03*
D29*
X71296000Y-112855900D03*
D14*
X93802700Y-52895500D03*
X93802700Y-47815500D03*
X64770000Y-52959000D03*
X64770000Y-47879000D03*
D30*
X45149000Y-103759000D03*
D31*
X47649000Y-103759000D03*
D14*
X83795100Y-52895500D03*
X83795100Y-47815500D03*
X59817000Y-52959000D03*
X59817000Y-47879000D03*
D32*
X69787000Y-85979000D03*
D13*
X67247000Y-85979000D03*
X64707000Y-85979000D03*
X62167000Y-85979000D03*
D22*
X37973500Y-99212500D03*
D14*
X69690000Y-52959000D03*
X69690000Y-47879000D03*
M02*
