%TF.GenerationSoftware,KiCad,Pcbnew,(5.1.6)-1*%
%TF.CreationDate,2021-09-18T17:58:05+02:00*%
%TF.ProjectId,hamodule,68616d6f-6475-46c6-952e-6b696361645f,rev?*%
%TF.SameCoordinates,Original*%
%TF.FileFunction,Soldermask,Bot*%
%TF.FilePolarity,Negative*%
%FSLAX46Y46*%
G04 Gerber Fmt 4.6, Leading zero omitted, Abs format (unit mm)*
G04 Created by KiCad (PCBNEW (5.1.6)-1) date 2021-09-18 17:58:05*
%MOMM*%
%LPD*%
G01*
G04 APERTURE LIST*
%ADD10R,2.500000X1.700000*%
%ADD11O,2.500000X1.700000*%
%ADD12O,1.700000X1.700000*%
%ADD13R,1.700000X1.700000*%
%ADD14O,2.050000X1.800000*%
%ADD15C,2.100000*%
%ADD16R,2.100000X2.100000*%
%ADD17O,1.700000X2.500000*%
%ADD18R,1.700000X2.500000*%
%ADD19O,2.005000X2.100000*%
%ADD20R,2.005000X2.100000*%
%ADD21C,1.700000*%
%ADD22C,1.900000*%
%ADD23R,1.900000X1.900000*%
%ADD24O,2.100000X1.800000*%
%ADD25O,2.500000X2.500000*%
%ADD26C,2.500000*%
%ADD27C,1.750000*%
%ADD28R,1.750000X1.750000*%
%ADD29C,5.600000*%
%ADD30C,2.400000*%
%ADD31R,2.400000X2.400000*%
%ADD32C,2.200000*%
G04 APERTURE END LIST*
D10*
%TO.C,U1*%
X69850000Y-83820000D03*
D11*
X62230000Y-66040000D03*
X69850000Y-81280000D03*
X62230000Y-68580000D03*
X69850000Y-78740000D03*
X62230000Y-71120000D03*
X69850000Y-76200000D03*
X62230000Y-73660000D03*
X69850000Y-73660000D03*
X62230000Y-76200000D03*
X69850000Y-71120000D03*
X62230000Y-78740000D03*
X69850000Y-68580000D03*
X62230000Y-81280000D03*
X69850000Y-66040000D03*
X62230000Y-83820000D03*
%TD*%
D12*
%TO.C,D4*%
X81280000Y-68580000D03*
D13*
X88900000Y-68580000D03*
%TD*%
D12*
%TO.C,D3*%
X81280000Y-71120000D03*
D13*
X88900000Y-71120000D03*
%TD*%
D12*
%TO.C,D2*%
X81280000Y-73660000D03*
D13*
X88900000Y-73660000D03*
%TD*%
D12*
%TO.C,D1*%
X81280000Y-76200000D03*
D13*
X88900000Y-76200000D03*
%TD*%
D14*
%TO.C,J2*%
X95250000Y-76080000D03*
X95250000Y-73580000D03*
X95250000Y-71080000D03*
G36*
G01*
X94489706Y-67680000D02*
X96010294Y-67680000D01*
G75*
G02*
X96275000Y-67944706I0J-264706D01*
G01*
X96275000Y-69215294D01*
G75*
G02*
X96010294Y-69480000I-264706J0D01*
G01*
X94489706Y-69480000D01*
G75*
G02*
X94225000Y-69215294I0J264706D01*
G01*
X94225000Y-67944706D01*
G75*
G02*
X94489706Y-67680000I264706J0D01*
G01*
G37*
%TD*%
%TO.C,J7*%
X101600000Y-73740000D03*
X101600000Y-76240000D03*
X101600000Y-78740000D03*
X101600000Y-81240000D03*
G36*
G01*
X102360294Y-84640000D02*
X100839706Y-84640000D01*
G75*
G02*
X100575000Y-84375294I0J264706D01*
G01*
X100575000Y-83104706D01*
G75*
G02*
X100839706Y-82840000I264706J0D01*
G01*
X102360294Y-82840000D01*
G75*
G02*
X102625000Y-83104706I0J-264706D01*
G01*
X102625000Y-84375294D01*
G75*
G02*
X102360294Y-84640000I-264706J0D01*
G01*
G37*
%TD*%
D15*
%TO.C,22uF2*%
X118190000Y-50800000D03*
D16*
X123190000Y-50800000D03*
%TD*%
D17*
%TO.C,U4*%
X124460000Y-66040000D03*
X116840000Y-58420000D03*
X121920000Y-66040000D03*
X119380000Y-58420000D03*
X119380000Y-66040000D03*
X121920000Y-58420000D03*
X116840000Y-66040000D03*
D18*
X124460000Y-58420000D03*
%TD*%
D17*
%TO.C,U6*%
X163830000Y-62230000D03*
X156210000Y-54610000D03*
X161290000Y-62230000D03*
X158750000Y-54610000D03*
X158750000Y-62230000D03*
X161290000Y-54610000D03*
X156210000Y-62230000D03*
D18*
X163830000Y-54610000D03*
%TD*%
D17*
%TO.C,U5*%
X137160000Y-66040000D03*
X129540000Y-58420000D03*
X134620000Y-66040000D03*
X132080000Y-58420000D03*
X132080000Y-66040000D03*
X134620000Y-58420000D03*
X129540000Y-66040000D03*
D18*
X137160000Y-58420000D03*
%TD*%
D17*
%TO.C,U3*%
X109220000Y-66040000D03*
X101600000Y-58420000D03*
X106680000Y-66040000D03*
X104140000Y-58420000D03*
X104140000Y-66040000D03*
X106680000Y-58420000D03*
X101600000Y-66040000D03*
D18*
X109220000Y-58420000D03*
%TD*%
D19*
%TO.C,U2*%
X88900000Y-62230000D03*
X86360000Y-62230000D03*
D20*
X83820000Y-62230000D03*
%TD*%
D12*
%TO.C,R8*%
X149860000Y-85090000D03*
D21*
X142240000Y-85090000D03*
%TD*%
D12*
%TO.C,R7*%
X149860000Y-80010000D03*
D21*
X142240000Y-80010000D03*
%TD*%
D12*
%TO.C,R6*%
X149860000Y-74930000D03*
D21*
X142240000Y-74930000D03*
%TD*%
D12*
%TO.C,R4*%
X107950000Y-85090000D03*
D21*
X115570000Y-85090000D03*
%TD*%
D12*
%TO.C,R3*%
X107950000Y-81280000D03*
D21*
X115570000Y-81280000D03*
%TD*%
D12*
%TO.C,R2*%
X107950000Y-77470000D03*
D21*
X115570000Y-77470000D03*
%TD*%
D12*
%TO.C,R1*%
X107950000Y-73660000D03*
D21*
X115570000Y-73660000D03*
%TD*%
D12*
%TO.C,R5*%
X149860000Y-69850000D03*
D21*
X142240000Y-69850000D03*
%TD*%
D14*
%TO.C,J4*%
X76200000Y-76040000D03*
X76200000Y-73540000D03*
X76200000Y-71040000D03*
X76200000Y-68540000D03*
G36*
G01*
X75439706Y-65140000D02*
X76960294Y-65140000D01*
G75*
G02*
X77225000Y-65404706I0J-264706D01*
G01*
X77225000Y-66675294D01*
G75*
G02*
X76960294Y-66940000I-264706J0D01*
G01*
X75439706Y-66940000D01*
G75*
G02*
X75175000Y-66675294I0J264706D01*
G01*
X75175000Y-65404706D01*
G75*
G02*
X75439706Y-65140000I264706J0D01*
G01*
G37*
%TD*%
D22*
%TO.C,D8*%
X139700000Y-85090000D03*
D23*
X137160000Y-85090000D03*
%TD*%
D22*
%TO.C,D7*%
X139700000Y-80010000D03*
D23*
X137160000Y-80010000D03*
%TD*%
D22*
%TO.C,D6*%
X139700000Y-74930000D03*
D23*
X137160000Y-74930000D03*
%TD*%
D22*
%TO.C,D5*%
X139700000Y-69850000D03*
D23*
X137160000Y-69850000D03*
%TD*%
D15*
%TO.C,22uF4*%
X157560000Y-45720000D03*
D16*
X162560000Y-45720000D03*
%TD*%
D15*
%TO.C,22uF3*%
X133430000Y-50800000D03*
D16*
X138430000Y-50800000D03*
%TD*%
D15*
%TO.C,22uF1*%
X102870000Y-50800000D03*
D16*
X107870000Y-50800000D03*
%TD*%
D14*
%TO.C,J6*%
X130810000Y-75050000D03*
X130810000Y-77550000D03*
X130810000Y-80050000D03*
G36*
G01*
X131570294Y-83450000D02*
X130049706Y-83450000D01*
G75*
G02*
X129785000Y-83185294I0J264706D01*
G01*
X129785000Y-81914706D01*
G75*
G02*
X130049706Y-81650000I264706J0D01*
G01*
X131570294Y-81650000D01*
G75*
G02*
X131835000Y-81914706I0J-264706D01*
G01*
X131835000Y-83185294D01*
G75*
G02*
X131570294Y-83450000I-264706J0D01*
G01*
G37*
%TD*%
D24*
%TO.C,J5*%
X54610000Y-81280000D03*
G36*
G01*
X55395294Y-84680000D02*
X53824706Y-84680000D01*
G75*
G02*
X53560000Y-84415294I0J264706D01*
G01*
X53560000Y-83144706D01*
G75*
G02*
X53824706Y-82880000I264706J0D01*
G01*
X55395294Y-82880000D01*
G75*
G02*
X55660000Y-83144706I0J-264706D01*
G01*
X55660000Y-84415294D01*
G75*
G02*
X55395294Y-84680000I-264706J0D01*
G01*
G37*
%TD*%
D25*
%TO.C,R15*%
X156210000Y-36830000D03*
D26*
X156210000Y-16510000D03*
%TD*%
D25*
%TO.C,R16*%
X162560000Y-36830000D03*
D26*
X162560000Y-16510000D03*
%TD*%
D25*
%TO.C,R13*%
X151130000Y-35560000D03*
D26*
X130810000Y-35560000D03*
%TD*%
D25*
%TO.C,R12*%
X121920000Y-43180000D03*
D26*
X121920000Y-22860000D03*
%TD*%
D25*
%TO.C,R10*%
X107950000Y-43180000D03*
D26*
X107950000Y-22860000D03*
%TD*%
D25*
%TO.C,R14*%
X130810000Y-41910000D03*
D26*
X151130000Y-41910000D03*
%TD*%
D25*
%TO.C,R11*%
X115570000Y-43180000D03*
D26*
X115570000Y-22860000D03*
%TD*%
D25*
%TO.C,R9*%
X101600000Y-43180000D03*
D26*
X101600000Y-22860000D03*
%TD*%
D27*
%TO.C,PS1*%
X46830000Y-59770000D03*
X46830000Y-69770000D03*
X26830000Y-74770000D03*
D28*
X26830000Y-54770000D03*
%TD*%
D29*
%TO.C,H5*%
X66040000Y-20320000D03*
%TD*%
%TO.C,H2*%
X85090000Y-82550000D03*
%TD*%
%TO.C,H4*%
X57150000Y-59690000D03*
%TD*%
%TO.C,H1*%
X158750000Y-82550000D03*
%TD*%
%TO.C,H3*%
X54610000Y-20320000D03*
%TD*%
D15*
%TO.C,RV1*%
X30640000Y-43520000D03*
X40640000Y-45720000D03*
%TD*%
%TO.C,F1*%
X29210000Y-39370000D03*
X29210000Y-34290000D03*
%TD*%
D30*
%TO.C,K1*%
X53340000Y-52070000D03*
X53340000Y-36830000D03*
X60960000Y-34290000D03*
X60960000Y-41910000D03*
D31*
X60960000Y-52070000D03*
%TD*%
D30*
%TO.C,K2*%
X64770000Y-52070000D03*
X64770000Y-36830000D03*
X72390000Y-34290000D03*
X72390000Y-41910000D03*
D31*
X72390000Y-52070000D03*
%TD*%
D30*
%TO.C,K4*%
X87630000Y-52070000D03*
X87630000Y-36830000D03*
X95250000Y-34290000D03*
X95250000Y-41910000D03*
D31*
X95250000Y-52070000D03*
%TD*%
D30*
%TO.C,K3*%
X76200000Y-52070000D03*
X76200000Y-36830000D03*
X83820000Y-34290000D03*
X83820000Y-41910000D03*
D31*
X83820000Y-52070000D03*
%TD*%
D32*
%TO.C,J8*%
X129540000Y-19240000D03*
X129540000Y-27940000D03*
X134620000Y-19240000D03*
X134620000Y-27940000D03*
X139700000Y-19240000D03*
X139700000Y-27940000D03*
X144780000Y-19240000D03*
X144780000Y-27940000D03*
%TD*%
%TO.C,J3*%
X29210000Y-19240000D03*
X29210000Y-27940000D03*
X34290000Y-19240000D03*
X34290000Y-27940000D03*
X39370000Y-19240000D03*
X39370000Y-27940000D03*
X44450000Y-19240000D03*
X44450000Y-27940000D03*
%TD*%
%TO.C,J1*%
X77470000Y-19240000D03*
X77470000Y-27940000D03*
X82550000Y-19240000D03*
X82550000Y-27940000D03*
X87630000Y-19240000D03*
X87630000Y-27940000D03*
X92710000Y-19240000D03*
X92710000Y-27940000D03*
%TD*%
M02*
