G04 #@! TF.GenerationSoftware,KiCad,Pcbnew,(5.1.6)-1*
G04 #@! TF.CreationDate,2021-10-31T01:35:34+02:00*
G04 #@! TF.ProjectId,hamodule,68616d6f-6475-46c6-952e-6b696361645f,rev?*
G04 #@! TF.SameCoordinates,Original*
G04 #@! TF.FileFunction,Copper,L1,Top*
G04 #@! TF.FilePolarity,Positive*
%FSLAX46Y46*%
G04 Gerber Fmt 4.6, Leading zero omitted, Abs format (unit mm)*
G04 Created by KiCad (PCBNEW (5.1.6)-1) date 2021-10-31 01:35:34*
%MOMM*%
%LPD*%
G01*
G04 APERTURE LIST*
G04 #@! TA.AperFunction,ComponentPad*
%ADD10C,1.650000*%
G04 #@! TD*
G04 #@! TA.AperFunction,ComponentPad*
%ADD11R,1.650000X1.650000*%
G04 #@! TD*
G04 #@! TA.AperFunction,ComponentPad*
%ADD12C,2.000000*%
G04 #@! TD*
G04 #@! TA.AperFunction,ComponentPad*
%ADD13O,1.700000X1.700000*%
G04 #@! TD*
G04 #@! TA.AperFunction,ComponentPad*
%ADD14R,1.700000X1.700000*%
G04 #@! TD*
G04 #@! TA.AperFunction,ComponentPad*
%ADD15O,1.700000X2.000000*%
G04 #@! TD*
G04 #@! TA.AperFunction,ComponentPad*
%ADD16C,1.600000*%
G04 #@! TD*
G04 #@! TA.AperFunction,ComponentPad*
%ADD17R,1.600000X1.600000*%
G04 #@! TD*
G04 #@! TA.AperFunction,ComponentPad*
%ADD18C,1.800000*%
G04 #@! TD*
G04 #@! TA.AperFunction,ComponentPad*
%ADD19C,5.500000*%
G04 #@! TD*
G04 #@! TA.AperFunction,ComponentPad*
%ADD20C,2.300000*%
G04 #@! TD*
G04 #@! TA.AperFunction,ComponentPad*
%ADD21R,2.300000X2.300000*%
G04 #@! TD*
G04 #@! TA.AperFunction,ComponentPad*
%ADD22O,1.700000X1.950000*%
G04 #@! TD*
G04 #@! TA.AperFunction,ComponentPad*
%ADD23R,1.600000X2.400000*%
G04 #@! TD*
G04 #@! TA.AperFunction,ComponentPad*
%ADD24O,1.600000X2.400000*%
G04 #@! TD*
G04 #@! TA.AperFunction,ComponentPad*
%ADD25O,2.000000X1.905000*%
G04 #@! TD*
G04 #@! TA.AperFunction,ComponentPad*
%ADD26R,2.000000X1.905000*%
G04 #@! TD*
G04 #@! TA.AperFunction,Conductor*
%ADD27C,3.000000*%
G04 #@! TD*
G04 #@! TA.AperFunction,Conductor*
%ADD28C,1.000000*%
G04 #@! TD*
G04 #@! TA.AperFunction,Conductor*
%ADD29C,0.250000*%
G04 #@! TD*
G04 APERTURE END LIST*
G04 #@! TA.AperFunction,SMDPad,CuDef*
G36*
G01*
X118750501Y-136002500D02*
X117850499Y-136002500D01*
G75*
G02*
X117600500Y-135752501I0J249999D01*
G01*
X117600500Y-135102499D01*
G75*
G02*
X117850499Y-134852500I249999J0D01*
G01*
X118750501Y-134852500D01*
G75*
G02*
X119000500Y-135102499I0J-249999D01*
G01*
X119000500Y-135752501D01*
G75*
G02*
X118750501Y-136002500I-249999J0D01*
G01*
G37*
G04 #@! TD.AperFunction*
G04 #@! TA.AperFunction,SMDPad,CuDef*
G36*
G01*
X118750501Y-138052500D02*
X117850499Y-138052500D01*
G75*
G02*
X117600500Y-137802501I0J249999D01*
G01*
X117600500Y-137152499D01*
G75*
G02*
X117850499Y-136902500I249999J0D01*
G01*
X118750501Y-136902500D01*
G75*
G02*
X119000500Y-137152499I0J-249999D01*
G01*
X119000500Y-137802501D01*
G75*
G02*
X118750501Y-138052500I-249999J0D01*
G01*
G37*
G04 #@! TD.AperFunction*
G04 #@! TA.AperFunction,SMDPad,CuDef*
G36*
G01*
X173555500Y-141264000D02*
X174805500Y-141264000D01*
G75*
G02*
X175055500Y-141514000I0J-250000D01*
G01*
X175055500Y-142439000D01*
G75*
G02*
X174805500Y-142689000I-250000J0D01*
G01*
X173555500Y-142689000D01*
G75*
G02*
X173305500Y-142439000I0J250000D01*
G01*
X173305500Y-141514000D01*
G75*
G02*
X173555500Y-141264000I250000J0D01*
G01*
G37*
G04 #@! TD.AperFunction*
G04 #@! TA.AperFunction,SMDPad,CuDef*
G36*
G01*
X173555500Y-138289000D02*
X174805500Y-138289000D01*
G75*
G02*
X175055500Y-138539000I0J-250000D01*
G01*
X175055500Y-139464000D01*
G75*
G02*
X174805500Y-139714000I-250000J0D01*
G01*
X173555500Y-139714000D01*
G75*
G02*
X173305500Y-139464000I0J250000D01*
G01*
X173305500Y-138539000D01*
G75*
G02*
X173555500Y-138289000I250000J0D01*
G01*
G37*
G04 #@! TD.AperFunction*
G04 #@! TA.AperFunction,SMDPad,CuDef*
G36*
G01*
X171015500Y-141264000D02*
X172265500Y-141264000D01*
G75*
G02*
X172515500Y-141514000I0J-250000D01*
G01*
X172515500Y-142439000D01*
G75*
G02*
X172265500Y-142689000I-250000J0D01*
G01*
X171015500Y-142689000D01*
G75*
G02*
X170765500Y-142439000I0J250000D01*
G01*
X170765500Y-141514000D01*
G75*
G02*
X171015500Y-141264000I250000J0D01*
G01*
G37*
G04 #@! TD.AperFunction*
G04 #@! TA.AperFunction,SMDPad,CuDef*
G36*
G01*
X171015500Y-138289000D02*
X172265500Y-138289000D01*
G75*
G02*
X172515500Y-138539000I0J-250000D01*
G01*
X172515500Y-139464000D01*
G75*
G02*
X172265500Y-139714000I-250000J0D01*
G01*
X171015500Y-139714000D01*
G75*
G02*
X170765500Y-139464000I0J250000D01*
G01*
X170765500Y-138539000D01*
G75*
G02*
X171015500Y-138289000I250000J0D01*
G01*
G37*
G04 #@! TD.AperFunction*
G04 #@! TA.AperFunction,SMDPad,CuDef*
G36*
G01*
X168475500Y-141264000D02*
X169725500Y-141264000D01*
G75*
G02*
X169975500Y-141514000I0J-250000D01*
G01*
X169975500Y-142439000D01*
G75*
G02*
X169725500Y-142689000I-250000J0D01*
G01*
X168475500Y-142689000D01*
G75*
G02*
X168225500Y-142439000I0J250000D01*
G01*
X168225500Y-141514000D01*
G75*
G02*
X168475500Y-141264000I250000J0D01*
G01*
G37*
G04 #@! TD.AperFunction*
G04 #@! TA.AperFunction,SMDPad,CuDef*
G36*
G01*
X168475500Y-138289000D02*
X169725500Y-138289000D01*
G75*
G02*
X169975500Y-138539000I0J-250000D01*
G01*
X169975500Y-139464000D01*
G75*
G02*
X169725500Y-139714000I-250000J0D01*
G01*
X168475500Y-139714000D01*
G75*
G02*
X168225500Y-139464000I0J250000D01*
G01*
X168225500Y-138539000D01*
G75*
G02*
X168475500Y-138289000I250000J0D01*
G01*
G37*
G04 #@! TD.AperFunction*
G04 #@! TA.AperFunction,SMDPad,CuDef*
G36*
G01*
X165935500Y-141264000D02*
X167185500Y-141264000D01*
G75*
G02*
X167435500Y-141514000I0J-250000D01*
G01*
X167435500Y-142439000D01*
G75*
G02*
X167185500Y-142689000I-250000J0D01*
G01*
X165935500Y-142689000D01*
G75*
G02*
X165685500Y-142439000I0J250000D01*
G01*
X165685500Y-141514000D01*
G75*
G02*
X165935500Y-141264000I250000J0D01*
G01*
G37*
G04 #@! TD.AperFunction*
G04 #@! TA.AperFunction,SMDPad,CuDef*
G36*
G01*
X165935500Y-138289000D02*
X167185500Y-138289000D01*
G75*
G02*
X167435500Y-138539000I0J-250000D01*
G01*
X167435500Y-139464000D01*
G75*
G02*
X167185500Y-139714000I-250000J0D01*
G01*
X165935500Y-139714000D01*
G75*
G02*
X165685500Y-139464000I0J250000D01*
G01*
X165685500Y-138539000D01*
G75*
G02*
X165935500Y-138289000I250000J0D01*
G01*
G37*
G04 #@! TD.AperFunction*
D10*
X124076500Y-108568500D03*
X124076500Y-118568500D03*
X104076500Y-123568500D03*
D11*
X104076500Y-103568500D03*
G04 #@! TA.AperFunction,ComponentPad*
G36*
G01*
X169491500Y-82383500D02*
X170741500Y-82383500D01*
G75*
G02*
X171366500Y-83008500I0J-625000D01*
G01*
X171366500Y-84758500D01*
G75*
G02*
X170741500Y-85383500I-625000J0D01*
G01*
X169491500Y-85383500D01*
G75*
G02*
X168866500Y-84758500I0J625000D01*
G01*
X168866500Y-83008500D01*
G75*
G02*
X169491500Y-82383500I625000J0D01*
G01*
G37*
G04 #@! TD.AperFunction*
G04 #@! TA.AperFunction,ComponentPad*
G36*
G01*
X169491500Y-73683500D02*
X170741500Y-73683500D01*
G75*
G02*
X171366500Y-74308500I0J-625000D01*
G01*
X171366500Y-76058500D01*
G75*
G02*
X170741500Y-76683500I-625000J0D01*
G01*
X169491500Y-76683500D01*
G75*
G02*
X168866500Y-76058500I0J625000D01*
G01*
X168866500Y-74308500D01*
G75*
G02*
X169491500Y-73683500I625000J0D01*
G01*
G37*
G04 #@! TD.AperFunction*
G04 #@! TA.AperFunction,ComponentPad*
G36*
G01*
X164411500Y-82383500D02*
X165661500Y-82383500D01*
G75*
G02*
X166286500Y-83008500I0J-625000D01*
G01*
X166286500Y-84758500D01*
G75*
G02*
X165661500Y-85383500I-625000J0D01*
G01*
X164411500Y-85383500D01*
G75*
G02*
X163786500Y-84758500I0J625000D01*
G01*
X163786500Y-83008500D01*
G75*
G02*
X164411500Y-82383500I625000J0D01*
G01*
G37*
G04 #@! TD.AperFunction*
G04 #@! TA.AperFunction,ComponentPad*
G36*
G01*
X164411500Y-73683500D02*
X165661500Y-73683500D01*
G75*
G02*
X166286500Y-74308500I0J-625000D01*
G01*
X166286500Y-76058500D01*
G75*
G02*
X165661500Y-76683500I-625000J0D01*
G01*
X164411500Y-76683500D01*
G75*
G02*
X163786500Y-76058500I0J625000D01*
G01*
X163786500Y-74308500D01*
G75*
G02*
X164411500Y-73683500I625000J0D01*
G01*
G37*
G04 #@! TD.AperFunction*
G04 #@! TA.AperFunction,ComponentPad*
G36*
G01*
X159331500Y-82383500D02*
X160581500Y-82383500D01*
G75*
G02*
X161206500Y-83008500I0J-625000D01*
G01*
X161206500Y-84758500D01*
G75*
G02*
X160581500Y-85383500I-625000J0D01*
G01*
X159331500Y-85383500D01*
G75*
G02*
X158706500Y-84758500I0J625000D01*
G01*
X158706500Y-83008500D01*
G75*
G02*
X159331500Y-82383500I625000J0D01*
G01*
G37*
G04 #@! TD.AperFunction*
G04 #@! TA.AperFunction,ComponentPad*
G36*
G01*
X159331500Y-73683500D02*
X160581500Y-73683500D01*
G75*
G02*
X161206500Y-74308500I0J-625000D01*
G01*
X161206500Y-76058500D01*
G75*
G02*
X160581500Y-76683500I-625000J0D01*
G01*
X159331500Y-76683500D01*
G75*
G02*
X158706500Y-76058500I0J625000D01*
G01*
X158706500Y-74308500D01*
G75*
G02*
X159331500Y-73683500I625000J0D01*
G01*
G37*
G04 #@! TD.AperFunction*
G04 #@! TA.AperFunction,ComponentPad*
G36*
G01*
X154251500Y-82383500D02*
X155501500Y-82383500D01*
G75*
G02*
X156126500Y-83008500I0J-625000D01*
G01*
X156126500Y-84758500D01*
G75*
G02*
X155501500Y-85383500I-625000J0D01*
G01*
X154251500Y-85383500D01*
G75*
G02*
X153626500Y-84758500I0J625000D01*
G01*
X153626500Y-83008500D01*
G75*
G02*
X154251500Y-82383500I625000J0D01*
G01*
G37*
G04 #@! TD.AperFunction*
G04 #@! TA.AperFunction,ComponentPad*
G36*
G01*
X154251500Y-73683500D02*
X155501500Y-73683500D01*
G75*
G02*
X156126500Y-74308500I0J-625000D01*
G01*
X156126500Y-76058500D01*
G75*
G02*
X155501500Y-76683500I-625000J0D01*
G01*
X154251500Y-76683500D01*
G75*
G02*
X153626500Y-76058500I0J625000D01*
G01*
X153626500Y-74308500D01*
G75*
G02*
X154251500Y-73683500I625000J0D01*
G01*
G37*
G04 #@! TD.AperFunction*
G04 #@! TA.AperFunction,SMDPad,CuDef*
G36*
G01*
X140929500Y-128735500D02*
X140629500Y-128735500D01*
G75*
G02*
X140479500Y-128585500I0J150000D01*
G01*
X140479500Y-126935500D01*
G75*
G02*
X140629500Y-126785500I150000J0D01*
G01*
X140929500Y-126785500D01*
G75*
G02*
X141079500Y-126935500I0J-150000D01*
G01*
X141079500Y-128585500D01*
G75*
G02*
X140929500Y-128735500I-150000J0D01*
G01*
G37*
G04 #@! TD.AperFunction*
G04 #@! TA.AperFunction,SMDPad,CuDef*
G36*
G01*
X142199500Y-128735500D02*
X141899500Y-128735500D01*
G75*
G02*
X141749500Y-128585500I0J150000D01*
G01*
X141749500Y-126935500D01*
G75*
G02*
X141899500Y-126785500I150000J0D01*
G01*
X142199500Y-126785500D01*
G75*
G02*
X142349500Y-126935500I0J-150000D01*
G01*
X142349500Y-128585500D01*
G75*
G02*
X142199500Y-128735500I-150000J0D01*
G01*
G37*
G04 #@! TD.AperFunction*
G04 #@! TA.AperFunction,SMDPad,CuDef*
G36*
G01*
X143469500Y-128735500D02*
X143169500Y-128735500D01*
G75*
G02*
X143019500Y-128585500I0J150000D01*
G01*
X143019500Y-126935500D01*
G75*
G02*
X143169500Y-126785500I150000J0D01*
G01*
X143469500Y-126785500D01*
G75*
G02*
X143619500Y-126935500I0J-150000D01*
G01*
X143619500Y-128585500D01*
G75*
G02*
X143469500Y-128735500I-150000J0D01*
G01*
G37*
G04 #@! TD.AperFunction*
G04 #@! TA.AperFunction,SMDPad,CuDef*
G36*
G01*
X144739500Y-128735500D02*
X144439500Y-128735500D01*
G75*
G02*
X144289500Y-128585500I0J150000D01*
G01*
X144289500Y-126935500D01*
G75*
G02*
X144439500Y-126785500I150000J0D01*
G01*
X144739500Y-126785500D01*
G75*
G02*
X144889500Y-126935500I0J-150000D01*
G01*
X144889500Y-128585500D01*
G75*
G02*
X144739500Y-128735500I-150000J0D01*
G01*
G37*
G04 #@! TD.AperFunction*
G04 #@! TA.AperFunction,SMDPad,CuDef*
G36*
G01*
X146009500Y-128735500D02*
X145709500Y-128735500D01*
G75*
G02*
X145559500Y-128585500I0J150000D01*
G01*
X145559500Y-126935500D01*
G75*
G02*
X145709500Y-126785500I150000J0D01*
G01*
X146009500Y-126785500D01*
G75*
G02*
X146159500Y-126935500I0J-150000D01*
G01*
X146159500Y-128585500D01*
G75*
G02*
X146009500Y-128735500I-150000J0D01*
G01*
G37*
G04 #@! TD.AperFunction*
G04 #@! TA.AperFunction,SMDPad,CuDef*
G36*
G01*
X147279500Y-128735500D02*
X146979500Y-128735500D01*
G75*
G02*
X146829500Y-128585500I0J150000D01*
G01*
X146829500Y-126935500D01*
G75*
G02*
X146979500Y-126785500I150000J0D01*
G01*
X147279500Y-126785500D01*
G75*
G02*
X147429500Y-126935500I0J-150000D01*
G01*
X147429500Y-128585500D01*
G75*
G02*
X147279500Y-128735500I-150000J0D01*
G01*
G37*
G04 #@! TD.AperFunction*
G04 #@! TA.AperFunction,SMDPad,CuDef*
G36*
G01*
X148549500Y-128735500D02*
X148249500Y-128735500D01*
G75*
G02*
X148099500Y-128585500I0J150000D01*
G01*
X148099500Y-126935500D01*
G75*
G02*
X148249500Y-126785500I150000J0D01*
G01*
X148549500Y-126785500D01*
G75*
G02*
X148699500Y-126935500I0J-150000D01*
G01*
X148699500Y-128585500D01*
G75*
G02*
X148549500Y-128735500I-150000J0D01*
G01*
G37*
G04 #@! TD.AperFunction*
G04 #@! TA.AperFunction,SMDPad,CuDef*
G36*
G01*
X149819500Y-128735500D02*
X149519500Y-128735500D01*
G75*
G02*
X149369500Y-128585500I0J150000D01*
G01*
X149369500Y-126935500D01*
G75*
G02*
X149519500Y-126785500I150000J0D01*
G01*
X149819500Y-126785500D01*
G75*
G02*
X149969500Y-126935500I0J-150000D01*
G01*
X149969500Y-128585500D01*
G75*
G02*
X149819500Y-128735500I-150000J0D01*
G01*
G37*
G04 #@! TD.AperFunction*
G04 #@! TA.AperFunction,SMDPad,CuDef*
G36*
G01*
X149819500Y-123785500D02*
X149519500Y-123785500D01*
G75*
G02*
X149369500Y-123635500I0J150000D01*
G01*
X149369500Y-121985500D01*
G75*
G02*
X149519500Y-121835500I150000J0D01*
G01*
X149819500Y-121835500D01*
G75*
G02*
X149969500Y-121985500I0J-150000D01*
G01*
X149969500Y-123635500D01*
G75*
G02*
X149819500Y-123785500I-150000J0D01*
G01*
G37*
G04 #@! TD.AperFunction*
G04 #@! TA.AperFunction,SMDPad,CuDef*
G36*
G01*
X148549500Y-123785500D02*
X148249500Y-123785500D01*
G75*
G02*
X148099500Y-123635500I0J150000D01*
G01*
X148099500Y-121985500D01*
G75*
G02*
X148249500Y-121835500I150000J0D01*
G01*
X148549500Y-121835500D01*
G75*
G02*
X148699500Y-121985500I0J-150000D01*
G01*
X148699500Y-123635500D01*
G75*
G02*
X148549500Y-123785500I-150000J0D01*
G01*
G37*
G04 #@! TD.AperFunction*
G04 #@! TA.AperFunction,SMDPad,CuDef*
G36*
G01*
X147279500Y-123785500D02*
X146979500Y-123785500D01*
G75*
G02*
X146829500Y-123635500I0J150000D01*
G01*
X146829500Y-121985500D01*
G75*
G02*
X146979500Y-121835500I150000J0D01*
G01*
X147279500Y-121835500D01*
G75*
G02*
X147429500Y-121985500I0J-150000D01*
G01*
X147429500Y-123635500D01*
G75*
G02*
X147279500Y-123785500I-150000J0D01*
G01*
G37*
G04 #@! TD.AperFunction*
G04 #@! TA.AperFunction,SMDPad,CuDef*
G36*
G01*
X146009500Y-123785500D02*
X145709500Y-123785500D01*
G75*
G02*
X145559500Y-123635500I0J150000D01*
G01*
X145559500Y-121985500D01*
G75*
G02*
X145709500Y-121835500I150000J0D01*
G01*
X146009500Y-121835500D01*
G75*
G02*
X146159500Y-121985500I0J-150000D01*
G01*
X146159500Y-123635500D01*
G75*
G02*
X146009500Y-123785500I-150000J0D01*
G01*
G37*
G04 #@! TD.AperFunction*
G04 #@! TA.AperFunction,SMDPad,CuDef*
G36*
G01*
X144739500Y-123785500D02*
X144439500Y-123785500D01*
G75*
G02*
X144289500Y-123635500I0J150000D01*
G01*
X144289500Y-121985500D01*
G75*
G02*
X144439500Y-121835500I150000J0D01*
G01*
X144739500Y-121835500D01*
G75*
G02*
X144889500Y-121985500I0J-150000D01*
G01*
X144889500Y-123635500D01*
G75*
G02*
X144739500Y-123785500I-150000J0D01*
G01*
G37*
G04 #@! TD.AperFunction*
G04 #@! TA.AperFunction,SMDPad,CuDef*
G36*
G01*
X143469500Y-123785500D02*
X143169500Y-123785500D01*
G75*
G02*
X143019500Y-123635500I0J150000D01*
G01*
X143019500Y-121985500D01*
G75*
G02*
X143169500Y-121835500I150000J0D01*
G01*
X143469500Y-121835500D01*
G75*
G02*
X143619500Y-121985500I0J-150000D01*
G01*
X143619500Y-123635500D01*
G75*
G02*
X143469500Y-123785500I-150000J0D01*
G01*
G37*
G04 #@! TD.AperFunction*
G04 #@! TA.AperFunction,SMDPad,CuDef*
G36*
G01*
X142199500Y-123785500D02*
X141899500Y-123785500D01*
G75*
G02*
X141749500Y-123635500I0J150000D01*
G01*
X141749500Y-121985500D01*
G75*
G02*
X141899500Y-121835500I150000J0D01*
G01*
X142199500Y-121835500D01*
G75*
G02*
X142349500Y-121985500I0J-150000D01*
G01*
X142349500Y-123635500D01*
G75*
G02*
X142199500Y-123785500I-150000J0D01*
G01*
G37*
G04 #@! TD.AperFunction*
G04 #@! TA.AperFunction,SMDPad,CuDef*
G36*
G01*
X140929500Y-123785500D02*
X140629500Y-123785500D01*
G75*
G02*
X140479500Y-123635500I0J150000D01*
G01*
X140479500Y-121985500D01*
G75*
G02*
X140629500Y-121835500I150000J0D01*
G01*
X140929500Y-121835500D01*
G75*
G02*
X141079500Y-121985500I0J-150000D01*
G01*
X141079500Y-123635500D01*
G75*
G02*
X140929500Y-123785500I-150000J0D01*
G01*
G37*
G04 #@! TD.AperFunction*
G04 #@! TA.AperFunction,SMDPad,CuDef*
G36*
G01*
X189460500Y-115216500D02*
X189460500Y-117066500D01*
G75*
G02*
X189210500Y-117316500I-250000J0D01*
G01*
X188210500Y-117316500D01*
G75*
G02*
X187960500Y-117066500I0J250000D01*
G01*
X187960500Y-115216500D01*
G75*
G02*
X188210500Y-114966500I250000J0D01*
G01*
X189210500Y-114966500D01*
G75*
G02*
X189460500Y-115216500I0J-250000D01*
G01*
G37*
G04 #@! TD.AperFunction*
G04 #@! TA.AperFunction,SMDPad,CuDef*
G36*
G01*
X192710500Y-115216500D02*
X192710500Y-117066500D01*
G75*
G02*
X192460500Y-117316500I-250000J0D01*
G01*
X191460500Y-117316500D01*
G75*
G02*
X191210500Y-117066500I0J250000D01*
G01*
X191210500Y-115216500D01*
G75*
G02*
X191460500Y-114966500I250000J0D01*
G01*
X192460500Y-114966500D01*
G75*
G02*
X192710500Y-115216500I0J-250000D01*
G01*
G37*
G04 #@! TD.AperFunction*
G04 #@! TA.AperFunction,SMDPad,CuDef*
G36*
G01*
X178385500Y-115216500D02*
X178385500Y-117066500D01*
G75*
G02*
X178135500Y-117316500I-250000J0D01*
G01*
X177135500Y-117316500D01*
G75*
G02*
X176885500Y-117066500I0J250000D01*
G01*
X176885500Y-115216500D01*
G75*
G02*
X177135500Y-114966500I250000J0D01*
G01*
X178135500Y-114966500D01*
G75*
G02*
X178385500Y-115216500I0J-250000D01*
G01*
G37*
G04 #@! TD.AperFunction*
G04 #@! TA.AperFunction,SMDPad,CuDef*
G36*
G01*
X181635500Y-115216500D02*
X181635500Y-117066500D01*
G75*
G02*
X181385500Y-117316500I-250000J0D01*
G01*
X180385500Y-117316500D01*
G75*
G02*
X180135500Y-117066500I0J250000D01*
G01*
X180135500Y-115216500D01*
G75*
G02*
X180385500Y-114966500I250000J0D01*
G01*
X181385500Y-114966500D01*
G75*
G02*
X181635500Y-115216500I0J-250000D01*
G01*
G37*
G04 #@! TD.AperFunction*
G04 #@! TA.AperFunction,SMDPad,CuDef*
G36*
G01*
X167108500Y-115216500D02*
X167108500Y-117066500D01*
G75*
G02*
X166858500Y-117316500I-250000J0D01*
G01*
X165858500Y-117316500D01*
G75*
G02*
X165608500Y-117066500I0J250000D01*
G01*
X165608500Y-115216500D01*
G75*
G02*
X165858500Y-114966500I250000J0D01*
G01*
X166858500Y-114966500D01*
G75*
G02*
X167108500Y-115216500I0J-250000D01*
G01*
G37*
G04 #@! TD.AperFunction*
G04 #@! TA.AperFunction,SMDPad,CuDef*
G36*
G01*
X170358500Y-115216500D02*
X170358500Y-117066500D01*
G75*
G02*
X170108500Y-117316500I-250000J0D01*
G01*
X169108500Y-117316500D01*
G75*
G02*
X168858500Y-117066500I0J250000D01*
G01*
X168858500Y-115216500D01*
G75*
G02*
X169108500Y-114966500I250000J0D01*
G01*
X170108500Y-114966500D01*
G75*
G02*
X170358500Y-115216500I0J-250000D01*
G01*
G37*
G04 #@! TD.AperFunction*
G04 #@! TA.AperFunction,SMDPad,CuDef*
G36*
G01*
X155932500Y-115216500D02*
X155932500Y-117066500D01*
G75*
G02*
X155682500Y-117316500I-250000J0D01*
G01*
X154682500Y-117316500D01*
G75*
G02*
X154432500Y-117066500I0J250000D01*
G01*
X154432500Y-115216500D01*
G75*
G02*
X154682500Y-114966500I250000J0D01*
G01*
X155682500Y-114966500D01*
G75*
G02*
X155932500Y-115216500I0J-250000D01*
G01*
G37*
G04 #@! TD.AperFunction*
G04 #@! TA.AperFunction,SMDPad,CuDef*
G36*
G01*
X159182500Y-115216500D02*
X159182500Y-117066500D01*
G75*
G02*
X158932500Y-117316500I-250000J0D01*
G01*
X157932500Y-117316500D01*
G75*
G02*
X157682500Y-117066500I0J250000D01*
G01*
X157682500Y-115216500D01*
G75*
G02*
X157932500Y-114966500I250000J0D01*
G01*
X158932500Y-114966500D01*
G75*
G02*
X159182500Y-115216500I0J-250000D01*
G01*
G37*
G04 #@! TD.AperFunction*
D12*
X141668500Y-115125500D03*
X136588500Y-115125500D03*
G04 #@! TA.AperFunction,SMDPad,CuDef*
G36*
G01*
X193202499Y-94176000D02*
X196052501Y-94176000D01*
G75*
G02*
X196302500Y-94425999I0J-249999D01*
G01*
X196302500Y-95451001D01*
G75*
G02*
X196052501Y-95701000I-249999J0D01*
G01*
X193202499Y-95701000D01*
G75*
G02*
X192952500Y-95451001I0J249999D01*
G01*
X192952500Y-94425999D01*
G75*
G02*
X193202499Y-94176000I249999J0D01*
G01*
G37*
G04 #@! TD.AperFunction*
G04 #@! TA.AperFunction,SMDPad,CuDef*
G36*
G01*
X193202499Y-88201000D02*
X196052501Y-88201000D01*
G75*
G02*
X196302500Y-88450999I0J-249999D01*
G01*
X196302500Y-89476001D01*
G75*
G02*
X196052501Y-89726000I-249999J0D01*
G01*
X193202499Y-89726000D01*
G75*
G02*
X192952500Y-89476001I0J249999D01*
G01*
X192952500Y-88450999D01*
G75*
G02*
X193202499Y-88201000I249999J0D01*
G01*
G37*
G04 #@! TD.AperFunction*
G04 #@! TA.AperFunction,SMDPad,CuDef*
G36*
G01*
X188122499Y-94176000D02*
X190972501Y-94176000D01*
G75*
G02*
X191222500Y-94425999I0J-249999D01*
G01*
X191222500Y-95451001D01*
G75*
G02*
X190972501Y-95701000I-249999J0D01*
G01*
X188122499Y-95701000D01*
G75*
G02*
X187872500Y-95451001I0J249999D01*
G01*
X187872500Y-94425999D01*
G75*
G02*
X188122499Y-94176000I249999J0D01*
G01*
G37*
G04 #@! TD.AperFunction*
G04 #@! TA.AperFunction,SMDPad,CuDef*
G36*
G01*
X188122499Y-88201000D02*
X190972501Y-88201000D01*
G75*
G02*
X191222500Y-88450999I0J-249999D01*
G01*
X191222500Y-89476001D01*
G75*
G02*
X190972501Y-89726000I-249999J0D01*
G01*
X188122499Y-89726000D01*
G75*
G02*
X187872500Y-89476001I0J249999D01*
G01*
X187872500Y-88450999D01*
G75*
G02*
X188122499Y-88201000I249999J0D01*
G01*
G37*
G04 #@! TD.AperFunction*
G04 #@! TA.AperFunction,SMDPad,CuDef*
G36*
G01*
X183042499Y-94176000D02*
X185892501Y-94176000D01*
G75*
G02*
X186142500Y-94425999I0J-249999D01*
G01*
X186142500Y-95451001D01*
G75*
G02*
X185892501Y-95701000I-249999J0D01*
G01*
X183042499Y-95701000D01*
G75*
G02*
X182792500Y-95451001I0J249999D01*
G01*
X182792500Y-94425999D01*
G75*
G02*
X183042499Y-94176000I249999J0D01*
G01*
G37*
G04 #@! TD.AperFunction*
G04 #@! TA.AperFunction,SMDPad,CuDef*
G36*
G01*
X183042499Y-88201000D02*
X185892501Y-88201000D01*
G75*
G02*
X186142500Y-88450999I0J-249999D01*
G01*
X186142500Y-89476001D01*
G75*
G02*
X185892501Y-89726000I-249999J0D01*
G01*
X183042499Y-89726000D01*
G75*
G02*
X182792500Y-89476001I0J249999D01*
G01*
X182792500Y-88450999D01*
G75*
G02*
X183042499Y-88201000I249999J0D01*
G01*
G37*
G04 #@! TD.AperFunction*
G04 #@! TA.AperFunction,SMDPad,CuDef*
G36*
G01*
X177962499Y-94176000D02*
X180812501Y-94176000D01*
G75*
G02*
X181062500Y-94425999I0J-249999D01*
G01*
X181062500Y-95451001D01*
G75*
G02*
X180812501Y-95701000I-249999J0D01*
G01*
X177962499Y-95701000D01*
G75*
G02*
X177712500Y-95451001I0J249999D01*
G01*
X177712500Y-94425999D01*
G75*
G02*
X177962499Y-94176000I249999J0D01*
G01*
G37*
G04 #@! TD.AperFunction*
G04 #@! TA.AperFunction,SMDPad,CuDef*
G36*
G01*
X177962499Y-88201000D02*
X180812501Y-88201000D01*
G75*
G02*
X181062500Y-88450999I0J-249999D01*
G01*
X181062500Y-89476001D01*
G75*
G02*
X180812501Y-89726000I-249999J0D01*
G01*
X177962499Y-89726000D01*
G75*
G02*
X177712500Y-89476001I0J249999D01*
G01*
X177712500Y-88450999D01*
G75*
G02*
X177962499Y-88201000I249999J0D01*
G01*
G37*
G04 #@! TD.AperFunction*
D13*
X128257300Y-135928100D03*
D14*
X128257300Y-138468100D03*
D15*
X135775700Y-137071100D03*
G04 #@! TA.AperFunction,ComponentPad*
G36*
G01*
X132425700Y-137821100D02*
X132425700Y-136321100D01*
G75*
G02*
X132675700Y-136071100I250000J0D01*
G01*
X133875700Y-136071100D01*
G75*
G02*
X134125700Y-136321100I0J-250000D01*
G01*
X134125700Y-137821100D01*
G75*
G02*
X133875700Y-138071100I-250000J0D01*
G01*
X132675700Y-138071100D01*
G75*
G02*
X132425700Y-137821100I0J250000D01*
G01*
G37*
G04 #@! TD.AperFunction*
G04 #@! TA.AperFunction,SMDPad,CuDef*
G36*
G01*
X102443700Y-136073301D02*
X102443700Y-135173299D01*
G75*
G02*
X102693699Y-134923300I249999J0D01*
G01*
X103343701Y-134923300D01*
G75*
G02*
X103593700Y-135173299I0J-249999D01*
G01*
X103593700Y-136073301D01*
G75*
G02*
X103343701Y-136323300I-249999J0D01*
G01*
X102693699Y-136323300D01*
G75*
G02*
X102443700Y-136073301I0J249999D01*
G01*
G37*
G04 #@! TD.AperFunction*
G04 #@! TA.AperFunction,SMDPad,CuDef*
G36*
G01*
X100393700Y-136073301D02*
X100393700Y-135173299D01*
G75*
G02*
X100643699Y-134923300I249999J0D01*
G01*
X101293701Y-134923300D01*
G75*
G02*
X101543700Y-135173299I0J-249999D01*
G01*
X101543700Y-136073301D01*
G75*
G02*
X101293701Y-136323300I-249999J0D01*
G01*
X100643699Y-136323300D01*
G75*
G02*
X100393700Y-136073301I0J249999D01*
G01*
G37*
G04 #@! TD.AperFunction*
G04 #@! TA.AperFunction,SMDPad,CuDef*
G36*
G01*
X101518300Y-137230699D02*
X101518300Y-138130701D01*
G75*
G02*
X101268301Y-138380700I-249999J0D01*
G01*
X100618299Y-138380700D01*
G75*
G02*
X100368300Y-138130701I0J249999D01*
G01*
X100368300Y-137230699D01*
G75*
G02*
X100618299Y-136980700I249999J0D01*
G01*
X101268301Y-136980700D01*
G75*
G02*
X101518300Y-137230699I0J-249999D01*
G01*
G37*
G04 #@! TD.AperFunction*
G04 #@! TA.AperFunction,SMDPad,CuDef*
G36*
G01*
X103568300Y-137230699D02*
X103568300Y-138130701D01*
G75*
G02*
X103318301Y-138380700I-249999J0D01*
G01*
X102668299Y-138380700D01*
G75*
G02*
X102418300Y-138130701I0J249999D01*
G01*
X102418300Y-137230699D01*
G75*
G02*
X102668299Y-136980700I249999J0D01*
G01*
X103318301Y-136980700D01*
G75*
G02*
X103568300Y-137230699I0J-249999D01*
G01*
G37*
G04 #@! TD.AperFunction*
G04 #@! TA.AperFunction,SMDPad,CuDef*
G36*
G01*
X189986500Y-129407499D02*
X189986500Y-130307501D01*
G75*
G02*
X189736501Y-130557500I-249999J0D01*
G01*
X189086499Y-130557500D01*
G75*
G02*
X188836500Y-130307501I0J249999D01*
G01*
X188836500Y-129407499D01*
G75*
G02*
X189086499Y-129157500I249999J0D01*
G01*
X189736501Y-129157500D01*
G75*
G02*
X189986500Y-129407499I0J-249999D01*
G01*
G37*
G04 #@! TD.AperFunction*
G04 #@! TA.AperFunction,SMDPad,CuDef*
G36*
G01*
X192036500Y-129407499D02*
X192036500Y-130307501D01*
G75*
G02*
X191786501Y-130557500I-249999J0D01*
G01*
X191136499Y-130557500D01*
G75*
G02*
X190886500Y-130307501I0J249999D01*
G01*
X190886500Y-129407499D01*
G75*
G02*
X191136499Y-129157500I249999J0D01*
G01*
X191786501Y-129157500D01*
G75*
G02*
X192036500Y-129407499I0J-249999D01*
G01*
G37*
G04 #@! TD.AperFunction*
G04 #@! TA.AperFunction,SMDPad,CuDef*
G36*
G01*
X178810500Y-129407499D02*
X178810500Y-130307501D01*
G75*
G02*
X178560501Y-130557500I-249999J0D01*
G01*
X177910499Y-130557500D01*
G75*
G02*
X177660500Y-130307501I0J249999D01*
G01*
X177660500Y-129407499D01*
G75*
G02*
X177910499Y-129157500I249999J0D01*
G01*
X178560501Y-129157500D01*
G75*
G02*
X178810500Y-129407499I0J-249999D01*
G01*
G37*
G04 #@! TD.AperFunction*
G04 #@! TA.AperFunction,SMDPad,CuDef*
G36*
G01*
X180860500Y-129407499D02*
X180860500Y-130307501D01*
G75*
G02*
X180610501Y-130557500I-249999J0D01*
G01*
X179960499Y-130557500D01*
G75*
G02*
X179710500Y-130307501I0J249999D01*
G01*
X179710500Y-129407499D01*
G75*
G02*
X179960499Y-129157500I249999J0D01*
G01*
X180610501Y-129157500D01*
G75*
G02*
X180860500Y-129407499I0J-249999D01*
G01*
G37*
G04 #@! TD.AperFunction*
G04 #@! TA.AperFunction,SMDPad,CuDef*
G36*
G01*
X155941500Y-129407499D02*
X155941500Y-130307501D01*
G75*
G02*
X155691501Y-130557500I-249999J0D01*
G01*
X155041499Y-130557500D01*
G75*
G02*
X154791500Y-130307501I0J249999D01*
G01*
X154791500Y-129407499D01*
G75*
G02*
X155041499Y-129157500I249999J0D01*
G01*
X155691501Y-129157500D01*
G75*
G02*
X155941500Y-129407499I0J-249999D01*
G01*
G37*
G04 #@! TD.AperFunction*
G04 #@! TA.AperFunction,SMDPad,CuDef*
G36*
G01*
X157991500Y-129407499D02*
X157991500Y-130307501D01*
G75*
G02*
X157741501Y-130557500I-249999J0D01*
G01*
X157091499Y-130557500D01*
G75*
G02*
X156841500Y-130307501I0J249999D01*
G01*
X156841500Y-129407499D01*
G75*
G02*
X157091499Y-129157500I249999J0D01*
G01*
X157741501Y-129157500D01*
G75*
G02*
X157991500Y-129407499I0J-249999D01*
G01*
G37*
G04 #@! TD.AperFunction*
G04 #@! TA.AperFunction,SMDPad,CuDef*
G36*
G01*
X168070000Y-129534499D02*
X168070000Y-130434501D01*
G75*
G02*
X167820001Y-130684500I-249999J0D01*
G01*
X167169999Y-130684500D01*
G75*
G02*
X166920000Y-130434501I0J249999D01*
G01*
X166920000Y-129534499D01*
G75*
G02*
X167169999Y-129284500I249999J0D01*
G01*
X167820001Y-129284500D01*
G75*
G02*
X168070000Y-129534499I0J-249999D01*
G01*
G37*
G04 #@! TD.AperFunction*
G04 #@! TA.AperFunction,SMDPad,CuDef*
G36*
G01*
X170120000Y-129534499D02*
X170120000Y-130434501D01*
G75*
G02*
X169870001Y-130684500I-249999J0D01*
G01*
X169219999Y-130684500D01*
G75*
G02*
X168970000Y-130434501I0J249999D01*
G01*
X168970000Y-129534499D01*
G75*
G02*
X169219999Y-129284500I249999J0D01*
G01*
X169870001Y-129284500D01*
G75*
G02*
X170120000Y-129534499I0J-249999D01*
G01*
G37*
G04 #@! TD.AperFunction*
G04 #@! TA.AperFunction,SMDPad,CuDef*
G36*
G01*
X193177500Y-108880500D02*
X196077500Y-108880500D01*
G75*
G02*
X196327500Y-109130500I0J-250000D01*
G01*
X196327500Y-109930500D01*
G75*
G02*
X196077500Y-110180500I-250000J0D01*
G01*
X193177500Y-110180500D01*
G75*
G02*
X192927500Y-109930500I0J250000D01*
G01*
X192927500Y-109130500D01*
G75*
G02*
X193177500Y-108880500I250000J0D01*
G01*
G37*
G04 #@! TD.AperFunction*
G04 #@! TA.AperFunction,SMDPad,CuDef*
G36*
G01*
X193177500Y-104430500D02*
X196077500Y-104430500D01*
G75*
G02*
X196327500Y-104680500I0J-250000D01*
G01*
X196327500Y-105480500D01*
G75*
G02*
X196077500Y-105730500I-250000J0D01*
G01*
X193177500Y-105730500D01*
G75*
G02*
X192927500Y-105480500I0J250000D01*
G01*
X192927500Y-104680500D01*
G75*
G02*
X193177500Y-104430500I250000J0D01*
G01*
G37*
G04 #@! TD.AperFunction*
G04 #@! TA.AperFunction,SMDPad,CuDef*
G36*
G01*
X188097500Y-108880500D02*
X190997500Y-108880500D01*
G75*
G02*
X191247500Y-109130500I0J-250000D01*
G01*
X191247500Y-109930500D01*
G75*
G02*
X190997500Y-110180500I-250000J0D01*
G01*
X188097500Y-110180500D01*
G75*
G02*
X187847500Y-109930500I0J250000D01*
G01*
X187847500Y-109130500D01*
G75*
G02*
X188097500Y-108880500I250000J0D01*
G01*
G37*
G04 #@! TD.AperFunction*
G04 #@! TA.AperFunction,SMDPad,CuDef*
G36*
G01*
X188097500Y-104430500D02*
X190997500Y-104430500D01*
G75*
G02*
X191247500Y-104680500I0J-250000D01*
G01*
X191247500Y-105480500D01*
G75*
G02*
X190997500Y-105730500I-250000J0D01*
G01*
X188097500Y-105730500D01*
G75*
G02*
X187847500Y-105480500I0J250000D01*
G01*
X187847500Y-104680500D01*
G75*
G02*
X188097500Y-104430500I250000J0D01*
G01*
G37*
G04 #@! TD.AperFunction*
G04 #@! TA.AperFunction,SMDPad,CuDef*
G36*
G01*
X183017500Y-108880500D02*
X185917500Y-108880500D01*
G75*
G02*
X186167500Y-109130500I0J-250000D01*
G01*
X186167500Y-109930500D01*
G75*
G02*
X185917500Y-110180500I-250000J0D01*
G01*
X183017500Y-110180500D01*
G75*
G02*
X182767500Y-109930500I0J250000D01*
G01*
X182767500Y-109130500D01*
G75*
G02*
X183017500Y-108880500I250000J0D01*
G01*
G37*
G04 #@! TD.AperFunction*
G04 #@! TA.AperFunction,SMDPad,CuDef*
G36*
G01*
X183017500Y-104430500D02*
X185917500Y-104430500D01*
G75*
G02*
X186167500Y-104680500I0J-250000D01*
G01*
X186167500Y-105480500D01*
G75*
G02*
X185917500Y-105730500I-250000J0D01*
G01*
X183017500Y-105730500D01*
G75*
G02*
X182767500Y-105480500I0J250000D01*
G01*
X182767500Y-104680500D01*
G75*
G02*
X183017500Y-104430500I250000J0D01*
G01*
G37*
G04 #@! TD.AperFunction*
G04 #@! TA.AperFunction,SMDPad,CuDef*
G36*
G01*
X177937500Y-108944000D02*
X180837500Y-108944000D01*
G75*
G02*
X181087500Y-109194000I0J-250000D01*
G01*
X181087500Y-109994000D01*
G75*
G02*
X180837500Y-110244000I-250000J0D01*
G01*
X177937500Y-110244000D01*
G75*
G02*
X177687500Y-109994000I0J250000D01*
G01*
X177687500Y-109194000D01*
G75*
G02*
X177937500Y-108944000I250000J0D01*
G01*
G37*
G04 #@! TD.AperFunction*
G04 #@! TA.AperFunction,SMDPad,CuDef*
G36*
G01*
X177937500Y-104494000D02*
X180837500Y-104494000D01*
G75*
G02*
X181087500Y-104744000I0J-250000D01*
G01*
X181087500Y-105544000D01*
G75*
G02*
X180837500Y-105794000I-250000J0D01*
G01*
X177937500Y-105794000D01*
G75*
G02*
X177687500Y-105544000I0J250000D01*
G01*
X177687500Y-104744000D01*
G75*
G02*
X177937500Y-104494000I250000J0D01*
G01*
G37*
G04 #@! TD.AperFunction*
G04 #@! TA.AperFunction,SMDPad,CuDef*
G36*
G01*
X177962499Y-102286000D02*
X180812501Y-102286000D01*
G75*
G02*
X181062500Y-102535999I0J-249999D01*
G01*
X181062500Y-103561001D01*
G75*
G02*
X180812501Y-103811000I-249999J0D01*
G01*
X177962499Y-103811000D01*
G75*
G02*
X177712500Y-103561001I0J249999D01*
G01*
X177712500Y-102535999D01*
G75*
G02*
X177962499Y-102286000I249999J0D01*
G01*
G37*
G04 #@! TD.AperFunction*
G04 #@! TA.AperFunction,SMDPad,CuDef*
G36*
G01*
X177962499Y-96311000D02*
X180812501Y-96311000D01*
G75*
G02*
X181062500Y-96560999I0J-249999D01*
G01*
X181062500Y-97586001D01*
G75*
G02*
X180812501Y-97836000I-249999J0D01*
G01*
X177962499Y-97836000D01*
G75*
G02*
X177712500Y-97586001I0J249999D01*
G01*
X177712500Y-96560999D01*
G75*
G02*
X177962499Y-96311000I249999J0D01*
G01*
G37*
G04 #@! TD.AperFunction*
G04 #@! TA.AperFunction,SMDPad,CuDef*
G36*
G01*
X183042499Y-102286000D02*
X185892501Y-102286000D01*
G75*
G02*
X186142500Y-102535999I0J-249999D01*
G01*
X186142500Y-103561001D01*
G75*
G02*
X185892501Y-103811000I-249999J0D01*
G01*
X183042499Y-103811000D01*
G75*
G02*
X182792500Y-103561001I0J249999D01*
G01*
X182792500Y-102535999D01*
G75*
G02*
X183042499Y-102286000I249999J0D01*
G01*
G37*
G04 #@! TD.AperFunction*
G04 #@! TA.AperFunction,SMDPad,CuDef*
G36*
G01*
X183042499Y-96311000D02*
X185892501Y-96311000D01*
G75*
G02*
X186142500Y-96560999I0J-249999D01*
G01*
X186142500Y-97586001D01*
G75*
G02*
X185892501Y-97836000I-249999J0D01*
G01*
X183042499Y-97836000D01*
G75*
G02*
X182792500Y-97586001I0J249999D01*
G01*
X182792500Y-96560999D01*
G75*
G02*
X183042499Y-96311000I249999J0D01*
G01*
G37*
G04 #@! TD.AperFunction*
G04 #@! TA.AperFunction,SMDPad,CuDef*
G36*
G01*
X188122499Y-102286000D02*
X190972501Y-102286000D01*
G75*
G02*
X191222500Y-102535999I0J-249999D01*
G01*
X191222500Y-103561001D01*
G75*
G02*
X190972501Y-103811000I-249999J0D01*
G01*
X188122499Y-103811000D01*
G75*
G02*
X187872500Y-103561001I0J249999D01*
G01*
X187872500Y-102535999D01*
G75*
G02*
X188122499Y-102286000I249999J0D01*
G01*
G37*
G04 #@! TD.AperFunction*
G04 #@! TA.AperFunction,SMDPad,CuDef*
G36*
G01*
X188122499Y-96311000D02*
X190972501Y-96311000D01*
G75*
G02*
X191222500Y-96560999I0J-249999D01*
G01*
X191222500Y-97586001D01*
G75*
G02*
X190972501Y-97836000I-249999J0D01*
G01*
X188122499Y-97836000D01*
G75*
G02*
X187872500Y-97586001I0J249999D01*
G01*
X187872500Y-96560999D01*
G75*
G02*
X188122499Y-96311000I249999J0D01*
G01*
G37*
G04 #@! TD.AperFunction*
G04 #@! TA.AperFunction,SMDPad,CuDef*
G36*
G01*
X193202499Y-102286000D02*
X196052501Y-102286000D01*
G75*
G02*
X196302500Y-102535999I0J-249999D01*
G01*
X196302500Y-103561001D01*
G75*
G02*
X196052501Y-103811000I-249999J0D01*
G01*
X193202499Y-103811000D01*
G75*
G02*
X192952500Y-103561001I0J249999D01*
G01*
X192952500Y-102535999D01*
G75*
G02*
X193202499Y-102286000I249999J0D01*
G01*
G37*
G04 #@! TD.AperFunction*
G04 #@! TA.AperFunction,SMDPad,CuDef*
G36*
G01*
X193202499Y-96311000D02*
X196052501Y-96311000D01*
G75*
G02*
X196302500Y-96560999I0J-249999D01*
G01*
X196302500Y-97586001D01*
G75*
G02*
X196052501Y-97836000I-249999J0D01*
G01*
X193202499Y-97836000D01*
G75*
G02*
X192952500Y-97586001I0J249999D01*
G01*
X192952500Y-96560999D01*
G75*
G02*
X193202499Y-96311000I249999J0D01*
G01*
G37*
G04 #@! TD.AperFunction*
G04 #@! TA.AperFunction,ComponentPad*
G36*
G01*
X194058500Y-82371500D02*
X195308500Y-82371500D01*
G75*
G02*
X195933500Y-82996500I0J-625000D01*
G01*
X195933500Y-84746500D01*
G75*
G02*
X195308500Y-85371500I-625000J0D01*
G01*
X194058500Y-85371500D01*
G75*
G02*
X193433500Y-84746500I0J625000D01*
G01*
X193433500Y-82996500D01*
G75*
G02*
X194058500Y-82371500I625000J0D01*
G01*
G37*
G04 #@! TD.AperFunction*
G04 #@! TA.AperFunction,ComponentPad*
G36*
G01*
X194058500Y-73671500D02*
X195308500Y-73671500D01*
G75*
G02*
X195933500Y-74296500I0J-625000D01*
G01*
X195933500Y-76046500D01*
G75*
G02*
X195308500Y-76671500I-625000J0D01*
G01*
X194058500Y-76671500D01*
G75*
G02*
X193433500Y-76046500I0J625000D01*
G01*
X193433500Y-74296500D01*
G75*
G02*
X194058500Y-73671500I625000J0D01*
G01*
G37*
G04 #@! TD.AperFunction*
G04 #@! TA.AperFunction,ComponentPad*
G36*
G01*
X188978500Y-82371500D02*
X190228500Y-82371500D01*
G75*
G02*
X190853500Y-82996500I0J-625000D01*
G01*
X190853500Y-84746500D01*
G75*
G02*
X190228500Y-85371500I-625000J0D01*
G01*
X188978500Y-85371500D01*
G75*
G02*
X188353500Y-84746500I0J625000D01*
G01*
X188353500Y-82996500D01*
G75*
G02*
X188978500Y-82371500I625000J0D01*
G01*
G37*
G04 #@! TD.AperFunction*
G04 #@! TA.AperFunction,ComponentPad*
G36*
G01*
X188978500Y-73671500D02*
X190228500Y-73671500D01*
G75*
G02*
X190853500Y-74296500I0J-625000D01*
G01*
X190853500Y-76046500D01*
G75*
G02*
X190228500Y-76671500I-625000J0D01*
G01*
X188978500Y-76671500D01*
G75*
G02*
X188353500Y-76046500I0J625000D01*
G01*
X188353500Y-74296500D01*
G75*
G02*
X188978500Y-73671500I625000J0D01*
G01*
G37*
G04 #@! TD.AperFunction*
G04 #@! TA.AperFunction,ComponentPad*
G36*
G01*
X183898500Y-82371500D02*
X185148500Y-82371500D01*
G75*
G02*
X185773500Y-82996500I0J-625000D01*
G01*
X185773500Y-84746500D01*
G75*
G02*
X185148500Y-85371500I-625000J0D01*
G01*
X183898500Y-85371500D01*
G75*
G02*
X183273500Y-84746500I0J625000D01*
G01*
X183273500Y-82996500D01*
G75*
G02*
X183898500Y-82371500I625000J0D01*
G01*
G37*
G04 #@! TD.AperFunction*
G04 #@! TA.AperFunction,ComponentPad*
G36*
G01*
X183898500Y-73671500D02*
X185148500Y-73671500D01*
G75*
G02*
X185773500Y-74296500I0J-625000D01*
G01*
X185773500Y-76046500D01*
G75*
G02*
X185148500Y-76671500I-625000J0D01*
G01*
X183898500Y-76671500D01*
G75*
G02*
X183273500Y-76046500I0J625000D01*
G01*
X183273500Y-74296500D01*
G75*
G02*
X183898500Y-73671500I625000J0D01*
G01*
G37*
G04 #@! TD.AperFunction*
G04 #@! TA.AperFunction,ComponentPad*
G36*
G01*
X178818500Y-82371500D02*
X180068500Y-82371500D01*
G75*
G02*
X180693500Y-82996500I0J-625000D01*
G01*
X180693500Y-84746500D01*
G75*
G02*
X180068500Y-85371500I-625000J0D01*
G01*
X178818500Y-85371500D01*
G75*
G02*
X178193500Y-84746500I0J625000D01*
G01*
X178193500Y-82996500D01*
G75*
G02*
X178818500Y-82371500I625000J0D01*
G01*
G37*
G04 #@! TD.AperFunction*
G04 #@! TA.AperFunction,ComponentPad*
G36*
G01*
X178818500Y-73671500D02*
X180068500Y-73671500D01*
G75*
G02*
X180693500Y-74296500I0J-625000D01*
G01*
X180693500Y-76046500D01*
G75*
G02*
X180068500Y-76671500I-625000J0D01*
G01*
X178818500Y-76671500D01*
G75*
G02*
X178193500Y-76046500I0J625000D01*
G01*
X178193500Y-74296500D01*
G75*
G02*
X178818500Y-73671500I625000J0D01*
G01*
G37*
G04 #@! TD.AperFunction*
G04 #@! TA.AperFunction,ComponentPad*
G36*
G01*
X121231500Y-82383500D02*
X122481500Y-82383500D01*
G75*
G02*
X123106500Y-83008500I0J-625000D01*
G01*
X123106500Y-84758500D01*
G75*
G02*
X122481500Y-85383500I-625000J0D01*
G01*
X121231500Y-85383500D01*
G75*
G02*
X120606500Y-84758500I0J625000D01*
G01*
X120606500Y-83008500D01*
G75*
G02*
X121231500Y-82383500I625000J0D01*
G01*
G37*
G04 #@! TD.AperFunction*
G04 #@! TA.AperFunction,ComponentPad*
G36*
G01*
X121231500Y-73683500D02*
X122481500Y-73683500D01*
G75*
G02*
X123106500Y-74308500I0J-625000D01*
G01*
X123106500Y-76058500D01*
G75*
G02*
X122481500Y-76683500I-625000J0D01*
G01*
X121231500Y-76683500D01*
G75*
G02*
X120606500Y-76058500I0J625000D01*
G01*
X120606500Y-74308500D01*
G75*
G02*
X121231500Y-73683500I625000J0D01*
G01*
G37*
G04 #@! TD.AperFunction*
G04 #@! TA.AperFunction,ComponentPad*
G36*
G01*
X116151500Y-82383500D02*
X117401500Y-82383500D01*
G75*
G02*
X118026500Y-83008500I0J-625000D01*
G01*
X118026500Y-84758500D01*
G75*
G02*
X117401500Y-85383500I-625000J0D01*
G01*
X116151500Y-85383500D01*
G75*
G02*
X115526500Y-84758500I0J625000D01*
G01*
X115526500Y-83008500D01*
G75*
G02*
X116151500Y-82383500I625000J0D01*
G01*
G37*
G04 #@! TD.AperFunction*
G04 #@! TA.AperFunction,ComponentPad*
G36*
G01*
X116151500Y-73683500D02*
X117401500Y-73683500D01*
G75*
G02*
X118026500Y-74308500I0J-625000D01*
G01*
X118026500Y-76058500D01*
G75*
G02*
X117401500Y-76683500I-625000J0D01*
G01*
X116151500Y-76683500D01*
G75*
G02*
X115526500Y-76058500I0J625000D01*
G01*
X115526500Y-74308500D01*
G75*
G02*
X116151500Y-73683500I625000J0D01*
G01*
G37*
G04 #@! TD.AperFunction*
G04 #@! TA.AperFunction,ComponentPad*
G36*
G01*
X111071500Y-82383500D02*
X112321500Y-82383500D01*
G75*
G02*
X112946500Y-83008500I0J-625000D01*
G01*
X112946500Y-84758500D01*
G75*
G02*
X112321500Y-85383500I-625000J0D01*
G01*
X111071500Y-85383500D01*
G75*
G02*
X110446500Y-84758500I0J625000D01*
G01*
X110446500Y-83008500D01*
G75*
G02*
X111071500Y-82383500I625000J0D01*
G01*
G37*
G04 #@! TD.AperFunction*
G04 #@! TA.AperFunction,ComponentPad*
G36*
G01*
X111071500Y-73683500D02*
X112321500Y-73683500D01*
G75*
G02*
X112946500Y-74308500I0J-625000D01*
G01*
X112946500Y-76058500D01*
G75*
G02*
X112321500Y-76683500I-625000J0D01*
G01*
X111071500Y-76683500D01*
G75*
G02*
X110446500Y-76058500I0J625000D01*
G01*
X110446500Y-74308500D01*
G75*
G02*
X111071500Y-73683500I625000J0D01*
G01*
G37*
G04 #@! TD.AperFunction*
G04 #@! TA.AperFunction,ComponentPad*
G36*
G01*
X105991500Y-82383500D02*
X107241500Y-82383500D01*
G75*
G02*
X107866500Y-83008500I0J-625000D01*
G01*
X107866500Y-84758500D01*
G75*
G02*
X107241500Y-85383500I-625000J0D01*
G01*
X105991500Y-85383500D01*
G75*
G02*
X105366500Y-84758500I0J625000D01*
G01*
X105366500Y-83008500D01*
G75*
G02*
X105991500Y-82383500I625000J0D01*
G01*
G37*
G04 #@! TD.AperFunction*
G04 #@! TA.AperFunction,ComponentPad*
G36*
G01*
X105991500Y-73683500D02*
X107241500Y-73683500D01*
G75*
G02*
X107866500Y-74308500I0J-625000D01*
G01*
X107866500Y-76058500D01*
G75*
G02*
X107241500Y-76683500I-625000J0D01*
G01*
X105991500Y-76683500D01*
G75*
G02*
X105366500Y-76058500I0J625000D01*
G01*
X105366500Y-74308500D01*
G75*
G02*
X105991500Y-73683500I625000J0D01*
G01*
G37*
G04 #@! TD.AperFunction*
D13*
X132372100Y-130850640D03*
D14*
X134912100Y-130850640D03*
D16*
X122872500Y-138188700D03*
D17*
X122872500Y-135688700D03*
D16*
X107759500Y-137920100D03*
D17*
X107759500Y-135420100D03*
D18*
X113916500Y-94673500D03*
X106416500Y-93040170D03*
D19*
X129171700Y-77152500D03*
D20*
X154114500Y-108013500D03*
X154114500Y-92773500D03*
X161734500Y-90233500D03*
X161734500Y-97853500D03*
D21*
X161734500Y-108013500D03*
D22*
X149288500Y-132397500D03*
X146788500Y-132397500D03*
X144288500Y-132397500D03*
G04 #@! TA.AperFunction,ComponentPad*
G36*
G01*
X140938500Y-133122500D02*
X140938500Y-131672500D01*
G75*
G02*
X141188500Y-131422500I250000J0D01*
G01*
X142388500Y-131422500D01*
G75*
G02*
X142638500Y-131672500I0J-250000D01*
G01*
X142638500Y-133122500D01*
G75*
G02*
X142388500Y-133372500I-250000J0D01*
G01*
X141188500Y-133372500D01*
G75*
G02*
X140938500Y-133122500I0J250000D01*
G01*
G37*
G04 #@! TD.AperFunction*
D23*
X171626500Y-119427500D03*
D24*
X164006500Y-127047500D03*
X169086500Y-119427500D03*
X166546500Y-127047500D03*
X166546500Y-119427500D03*
X169086500Y-127047500D03*
X164006500Y-119427500D03*
X171626500Y-127047500D03*
D23*
X194232500Y-119427500D03*
D24*
X186612500Y-127047500D03*
X191692500Y-119427500D03*
X189152500Y-127047500D03*
X189152500Y-119427500D03*
X191692500Y-127047500D03*
X186612500Y-119427500D03*
X194232500Y-127047500D03*
D23*
X182802500Y-119427500D03*
D24*
X175182500Y-127047500D03*
X180262500Y-119427500D03*
X177722500Y-127047500D03*
X177722500Y-119427500D03*
X180262500Y-127047500D03*
X175182500Y-119427500D03*
X182802500Y-127047500D03*
D23*
X160196500Y-119427500D03*
D24*
X152576500Y-127047500D03*
X157656500Y-119427500D03*
X155116500Y-127047500D03*
X155116500Y-119427500D03*
X157656500Y-127047500D03*
X152576500Y-119427500D03*
X160196500Y-127047500D03*
D25*
X115531900Y-132778500D03*
X115531900Y-135318500D03*
D26*
X115531900Y-137858500D03*
D22*
X174060500Y-133921500D03*
X171560500Y-133921500D03*
X169060500Y-133921500D03*
G04 #@! TA.AperFunction,ComponentPad*
G36*
G01*
X165710500Y-134646500D02*
X165710500Y-133196500D01*
G75*
G02*
X165960500Y-132946500I250000J0D01*
G01*
X167160500Y-132946500D01*
G75*
G02*
X167410500Y-133196500I0J-250000D01*
G01*
X167410500Y-134646500D01*
G75*
G02*
X167160500Y-134896500I-250000J0D01*
G01*
X165960500Y-134896500D01*
G75*
G02*
X165710500Y-134646500I0J250000D01*
G01*
G37*
G04 #@! TD.AperFunction*
D15*
X132056500Y-124269500D03*
G04 #@! TA.AperFunction,ComponentPad*
G36*
G01*
X135406500Y-123519500D02*
X135406500Y-125019500D01*
G75*
G02*
X135156500Y-125269500I-250000J0D01*
G01*
X133956500Y-125269500D01*
G75*
G02*
X133706500Y-125019500I0J250000D01*
G01*
X133706500Y-123519500D01*
G75*
G02*
X133956500Y-123269500I250000J0D01*
G01*
X135156500Y-123269500D01*
G75*
G02*
X135406500Y-123519500I0J-250000D01*
G01*
G37*
G04 #@! TD.AperFunction*
D19*
X157924500Y-136461500D03*
X196024500Y-138493500D03*
D12*
X121856500Y-94678500D03*
X121856500Y-89598500D03*
D20*
X130111500Y-108013500D03*
X130111500Y-92773500D03*
X137731500Y-90233500D03*
X137731500Y-97853500D03*
D21*
X137731500Y-108013500D03*
D20*
X142176500Y-108013500D03*
X142176500Y-92773500D03*
X149796500Y-90233500D03*
X149796500Y-97853500D03*
D21*
X149796500Y-108013500D03*
D20*
X165671500Y-108013500D03*
X165671500Y-92773500D03*
X173291500Y-90233500D03*
X173291500Y-97853500D03*
D21*
X173291500Y-108013500D03*
D27*
X125031500Y-97853500D02*
X121856500Y-94678500D01*
X137731500Y-97853500D02*
X125031500Y-97853500D01*
X137731500Y-97853500D02*
X149796500Y-97853500D01*
X149796500Y-97853500D02*
X161734500Y-97853500D01*
X161734500Y-97853500D02*
X173291500Y-97853500D01*
X104076500Y-115834692D02*
X104076500Y-123568500D01*
X113916500Y-105994692D02*
X104076500Y-115834692D01*
X113916500Y-94673500D02*
X113916500Y-105994692D01*
X121856500Y-94678500D02*
X113921500Y-94678500D01*
X113921500Y-94678500D02*
X113916500Y-94673500D01*
D28*
X163186499Y-106163499D02*
X155456501Y-106163499D01*
X165036500Y-108013500D02*
X163186499Y-106163499D01*
X151756499Y-106163499D02*
X144026501Y-106163499D01*
X153606500Y-108013500D02*
X151756499Y-106163499D01*
X153606500Y-106743500D02*
X154186501Y-106163499D01*
X154186501Y-106163499D02*
X155456501Y-106163499D01*
X153606500Y-108013500D02*
X153606500Y-106743500D01*
X151756499Y-106163499D02*
X153026499Y-106163499D01*
X153606500Y-106743500D02*
X153026499Y-106163499D01*
X153026499Y-106163499D02*
X154186501Y-106163499D01*
X153606500Y-108013500D02*
X154876500Y-106743500D01*
X155456501Y-106163499D02*
X154876500Y-106743500D01*
X142176500Y-106743500D02*
X141596499Y-106163499D01*
X140326499Y-106163499D02*
X141596499Y-106163499D01*
X142176500Y-106743500D02*
X142756501Y-106163499D01*
X141596499Y-106163499D02*
X142756501Y-106163499D01*
X142176500Y-108013500D02*
X142176500Y-106743500D01*
X142756501Y-106163499D02*
X144026501Y-106163499D01*
X152264499Y-106163499D02*
X154114500Y-108013500D01*
X144026501Y-106163499D02*
X152264499Y-106163499D01*
X142176500Y-108013500D02*
X144026501Y-106163499D01*
X163821499Y-106163499D02*
X165671500Y-108013500D01*
X155964501Y-106163499D02*
X163821499Y-106163499D01*
X154114500Y-108013500D02*
X155964501Y-106163499D01*
X140326499Y-106163499D02*
X142176500Y-108013500D01*
X131961501Y-106163499D02*
X140326499Y-106163499D01*
X130111500Y-108013500D02*
X131961501Y-106163499D01*
X103221900Y-135420100D02*
X103018700Y-135623300D01*
X107759500Y-135420100D02*
X103221900Y-135420100D01*
X112890300Y-135420100D02*
X115531900Y-132778500D01*
X107759500Y-135420100D02*
X112890300Y-135420100D01*
X132984240Y-132778500D02*
X134912100Y-130850640D01*
X127952500Y-110172500D02*
X130111500Y-108013500D01*
X127952500Y-119697500D02*
X127952500Y-110172500D01*
X132056500Y-124269500D02*
X132056500Y-123801500D01*
X131184509Y-122561491D02*
X131000500Y-122745500D01*
X137466030Y-124485510D02*
X135542011Y-122561491D01*
X148969490Y-124485510D02*
X137466030Y-124485510D01*
X149669500Y-123785500D02*
X148969490Y-124485510D01*
X149669500Y-122810500D02*
X149669500Y-123785500D01*
X131000500Y-122745500D02*
X127952500Y-119697500D01*
X132056500Y-123801500D02*
X131000500Y-122745500D01*
X132056500Y-123721500D02*
X133216509Y-122561491D01*
X135542011Y-122561491D02*
X133216509Y-122561491D01*
X132056500Y-124269500D02*
X132056500Y-123721500D01*
X133216509Y-122561491D02*
X131184509Y-122561491D01*
X132984240Y-132778500D02*
X115531900Y-132778500D01*
X169545000Y-129129000D02*
X171626500Y-127047500D01*
X169545000Y-129984500D02*
X169545000Y-129129000D01*
X180285500Y-129564500D02*
X182802500Y-127047500D01*
X180285500Y-129857500D02*
X180285500Y-129564500D01*
X191461500Y-129818500D02*
X194232500Y-127047500D01*
X191461500Y-129857500D02*
X191461500Y-129818500D01*
X180285500Y-130557500D02*
X180285500Y-129857500D01*
X179585490Y-131257510D02*
X180285500Y-130557500D01*
X170818010Y-131257510D02*
X179585490Y-131257510D01*
X169545000Y-129984500D02*
X170818010Y-131257510D01*
X190761490Y-131257510D02*
X191461500Y-130557500D01*
X181685510Y-131257510D02*
X190761490Y-131257510D01*
X180285500Y-129857500D02*
X181685510Y-131257510D01*
X179585490Y-131257510D02*
X181685510Y-131257510D01*
X191461500Y-130557500D02*
X191461500Y-129857500D01*
X190634490Y-131384510D02*
X191461500Y-130557500D01*
X169545000Y-130943020D02*
X169103510Y-131384510D01*
X169545000Y-129984500D02*
X169545000Y-130943020D01*
X169103510Y-131384510D02*
X190634490Y-131384510D01*
X168844990Y-131384510D02*
X168595510Y-131384510D01*
X169545000Y-130684500D02*
X168844990Y-131384510D01*
X169545000Y-129984500D02*
X169545000Y-130684500D01*
X168595510Y-131384510D02*
X169103510Y-131384510D01*
X157416500Y-130557500D02*
X158243510Y-131384510D01*
X157416500Y-129827500D02*
X160196500Y-127047500D01*
X158243510Y-131384510D02*
X168595510Y-131384510D01*
X157416500Y-129857500D02*
X157416500Y-130557500D01*
X151060900Y-136913100D02*
X151162500Y-136811500D01*
X151060900Y-138245100D02*
X151060900Y-136913100D01*
X156589490Y-131384510D02*
X156496500Y-131477500D01*
X157416500Y-130557500D02*
X156496500Y-131477500D01*
X158243510Y-131384510D02*
X156589490Y-131384510D01*
X156496500Y-131477500D02*
X151162500Y-136811500D01*
X151060900Y-138245100D02*
X151072100Y-138245100D01*
X151072100Y-138245100D02*
X154876500Y-142049500D01*
X174144000Y-142049500D02*
X174180500Y-142013000D01*
X154876500Y-142049500D02*
X174144000Y-142049500D01*
X128257300Y-138468100D02*
X128435100Y-138468100D01*
X135775700Y-137264620D02*
X135775700Y-137071100D01*
X134269210Y-138771110D02*
X135775700Y-137264620D01*
X128738110Y-138771110D02*
X134269210Y-138771110D01*
X128435100Y-138468100D02*
X128738110Y-138771110D01*
X150902900Y-137071100D02*
X151162500Y-136811500D01*
X149694900Y-137071100D02*
X150902900Y-137071100D01*
X135775700Y-137071100D02*
X149694900Y-137071100D01*
D27*
X194683500Y-88907500D02*
X194627500Y-88963500D01*
X194683500Y-75171500D02*
X194683500Y-88907500D01*
X189547500Y-75227500D02*
X189603500Y-75171500D01*
X189547500Y-88963500D02*
X189547500Y-75227500D01*
X179387500Y-88963500D02*
X179387500Y-74993500D01*
X179443500Y-75049500D02*
X179443500Y-75171500D01*
X179387500Y-74993500D02*
X179443500Y-75049500D01*
X184523500Y-88907500D02*
X184467500Y-88963500D01*
X184523500Y-75171500D02*
X184523500Y-88907500D01*
X170116500Y-83883500D02*
X170116500Y-75183500D01*
X170116500Y-87058500D02*
X173291500Y-90233500D01*
X170116500Y-83883500D02*
X170116500Y-87058500D01*
X165036500Y-83883500D02*
X165036500Y-75183500D01*
X165036500Y-86931500D02*
X161734500Y-90233500D01*
X165036500Y-83883500D02*
X165036500Y-86931500D01*
X159956500Y-83883500D02*
X159956500Y-75183500D01*
X159956500Y-85368424D02*
X156001425Y-89323499D01*
X156001425Y-89323499D02*
X150706501Y-89323499D01*
X159956500Y-83883500D02*
X159956500Y-85368424D01*
X150706501Y-89323499D02*
X149796500Y-90233500D01*
X154876500Y-83883500D02*
X154876500Y-75183500D01*
X154876500Y-83883500D02*
X144081500Y-83883500D01*
X144081500Y-83883500D02*
X137731500Y-90233500D01*
D28*
X155116500Y-115699500D02*
X155182500Y-115633500D01*
X155116500Y-119427500D02*
X155116500Y-116207500D01*
X157656500Y-116917500D02*
X158432500Y-116141500D01*
X157656500Y-119427500D02*
X157656500Y-116917500D01*
X166546500Y-119427500D02*
X166546500Y-116461500D01*
X166546500Y-115821500D02*
X166358500Y-115633500D01*
X166546500Y-119427500D02*
X166546500Y-116329500D01*
X169086500Y-116663500D02*
X169608500Y-116141500D01*
X169086500Y-119427500D02*
X169086500Y-116663500D01*
X177722500Y-115720500D02*
X177635500Y-115633500D01*
X177722500Y-119427500D02*
X177722500Y-116228500D01*
X180262500Y-116764500D02*
X180885500Y-116141500D01*
X180262500Y-119427500D02*
X180262500Y-116764500D01*
X189152500Y-116583500D02*
X188710500Y-116141500D01*
X189152500Y-119427500D02*
X189152500Y-116583500D01*
X191692500Y-115901500D02*
X191960500Y-115633500D01*
X191692500Y-119427500D02*
X191692500Y-116409500D01*
X134912100Y-123873900D02*
X135024500Y-123761500D01*
X107520100Y-137680700D02*
X107759500Y-137920100D01*
X102993300Y-137680700D02*
X107520100Y-137680700D01*
X115470300Y-137920100D02*
X115531900Y-137858500D01*
X107759500Y-137920100D02*
X115470300Y-137920100D01*
X166943500Y-129984500D02*
X167495000Y-129984500D01*
X164006500Y-127047500D02*
X166943500Y-129984500D01*
X177992500Y-129857500D02*
X178235500Y-129857500D01*
X175182500Y-127047500D02*
X177992500Y-129857500D01*
X186612500Y-127058500D02*
X189411500Y-129857500D01*
X186612500Y-127047500D02*
X186612500Y-127058500D01*
X155366500Y-129837500D02*
X152576500Y-127047500D01*
X155366500Y-129857500D02*
X155366500Y-129837500D01*
X151614490Y-126085490D02*
X152576500Y-127047500D01*
X149669500Y-126174500D02*
X149580490Y-126085490D01*
X149669500Y-127760500D02*
X149669500Y-126174500D01*
X149580490Y-126085490D02*
X151614490Y-126085490D01*
X125601501Y-110093501D02*
X125601501Y-121410501D01*
X124076500Y-108568500D02*
X125601501Y-110093501D01*
X149580490Y-126085490D02*
X139214510Y-126085490D01*
X117919500Y-137858500D02*
X118300500Y-137477500D01*
X115531900Y-137858500D02*
X117919500Y-137858500D01*
X122161300Y-137477500D02*
X122872500Y-138188700D01*
X118300500Y-137477500D02*
X122161300Y-137477500D01*
X154495176Y-125147490D02*
X162106490Y-125147490D01*
X152576500Y-127047500D02*
X152595166Y-127047500D01*
X165906510Y-125147490D02*
X173282490Y-125147490D01*
X184712490Y-125147490D02*
X186612500Y-127047500D01*
X177082510Y-125147490D02*
X184712490Y-125147490D01*
X130276490Y-126085490D02*
X129984500Y-125793500D01*
X125601501Y-121410501D02*
X129984500Y-125793500D01*
X134556500Y-125869480D02*
X134340490Y-126085490D01*
X134556500Y-124269500D02*
X134556500Y-125869480D01*
X139214510Y-126085490D02*
X134340490Y-126085490D01*
X134340490Y-126085490D02*
X130276490Y-126085490D01*
X153557176Y-126085490D02*
X153600833Y-126041833D01*
X151614490Y-126085490D02*
X153557176Y-126085490D01*
X152595166Y-127047500D02*
X153600833Y-126041833D01*
X153600833Y-126041833D02*
X154495176Y-125147490D01*
X165134500Y-125919500D02*
X165148500Y-125905500D01*
X162878500Y-125919500D02*
X165134500Y-125919500D01*
X162106490Y-125147490D02*
X162878500Y-125919500D01*
X162878500Y-125919500D02*
X164006500Y-127047500D01*
X164006500Y-127047500D02*
X165148500Y-125905500D01*
X165148500Y-125905500D02*
X165906510Y-125147490D01*
X176056500Y-126173500D02*
X176324500Y-125905500D01*
X174308500Y-126173500D02*
X176056500Y-126173500D01*
X174308500Y-126173500D02*
X175182500Y-127047500D01*
X175182500Y-127047500D02*
X176324500Y-125905500D01*
X176564500Y-125665500D02*
X176832500Y-125397500D01*
X173282490Y-125147490D02*
X173800500Y-125665500D01*
X173800500Y-125665500D02*
X176564500Y-125665500D01*
X173800500Y-125665500D02*
X174308500Y-126173500D01*
X176832500Y-125397500D02*
X177082510Y-125147490D01*
X176324500Y-125905500D02*
X176832500Y-125397500D01*
X138366500Y-108013500D02*
X137736490Y-108643510D01*
X144589500Y-122810500D02*
X144589500Y-110934500D01*
X144589500Y-110934500D02*
X143700500Y-110045500D01*
X139763500Y-110045500D02*
X139192000Y-109474000D01*
X143700500Y-110045500D02*
X139763500Y-110045500D01*
X139192000Y-109474000D02*
X137731500Y-108013500D01*
X145859500Y-109800500D02*
X145859500Y-122810500D01*
X147646500Y-108013500D02*
X145859500Y-109800500D01*
X149796500Y-108013500D02*
X147646500Y-108013500D01*
X147129500Y-122810500D02*
X147129500Y-111188500D01*
X147129500Y-111188500D02*
X148454499Y-109863501D01*
X148454499Y-109863501D02*
X155058499Y-109863501D01*
X156908500Y-108013500D02*
X161734500Y-108013500D01*
X155058499Y-109863501D02*
X156908500Y-108013500D01*
X171141500Y-108013500D02*
X173291500Y-108013500D01*
X169109500Y-110045500D02*
X171141500Y-108013500D01*
X148399500Y-111615570D02*
X148951559Y-111063511D01*
X148399500Y-122810500D02*
X148399500Y-111615570D01*
X148951559Y-111063511D02*
X155555560Y-111063510D01*
X155555560Y-111063510D02*
X156573570Y-110045500D01*
X156573570Y-110045500D02*
X169109500Y-110045500D01*
D27*
X121856500Y-83883500D02*
X121856500Y-86423500D01*
X121856500Y-89598500D02*
X121856500Y-83883500D01*
X121856500Y-83883500D02*
X121856500Y-75184510D01*
D28*
X174180500Y-134041500D02*
X174060500Y-133921500D01*
X174180500Y-138992500D02*
X174180500Y-134041500D01*
X171640500Y-134001500D02*
X171560500Y-133921500D01*
X171640500Y-139001500D02*
X171640500Y-134001500D01*
X169100500Y-133961500D02*
X169060500Y-133921500D01*
X169100500Y-139001500D02*
X169100500Y-133961500D01*
X166560500Y-138992500D02*
X166560500Y-133921500D01*
X148399500Y-131508500D02*
X149288500Y-132397500D01*
X148399500Y-127760500D02*
X148399500Y-131508500D01*
X146788500Y-131594570D02*
X147059510Y-131323560D01*
X146788500Y-132397500D02*
X146788500Y-131594570D01*
X147129500Y-128460500D02*
X147129500Y-127760500D01*
X147059510Y-128530490D02*
X147129500Y-128460500D01*
X147059510Y-131323560D02*
X147059510Y-128530490D01*
X145859500Y-130826500D02*
X145859500Y-127760500D01*
X144288500Y-132397500D02*
X145859500Y-130826500D01*
X144589500Y-129596500D02*
X144589500Y-127760500D01*
X141788500Y-132397500D02*
X144589500Y-129596500D01*
X100968700Y-137655300D02*
X100943300Y-137680700D01*
X100968700Y-135623300D02*
X100968700Y-137655300D01*
X124076500Y-122555040D02*
X132372100Y-130850640D01*
X124076500Y-118568500D02*
X124076500Y-122555040D01*
X177135990Y-111845510D02*
X179387500Y-109594000D01*
X167037442Y-111845510D02*
X177135990Y-111845510D01*
X160482510Y-118400442D02*
X167037442Y-111845510D01*
X160482510Y-119141490D02*
X160482510Y-118400442D01*
X160196500Y-119427500D02*
X160482510Y-119141490D01*
D27*
X179387500Y-105144000D02*
X179387500Y-103048500D01*
D28*
X175660480Y-113645520D02*
X180352483Y-113645517D01*
X171626500Y-119427500D02*
X171626500Y-117679500D01*
X180352483Y-113645517D02*
X184467500Y-109530500D01*
X171626500Y-117679500D02*
X175660480Y-113645520D01*
D27*
X184467500Y-103048500D02*
X184467500Y-105080500D01*
D28*
X182935510Y-116142490D02*
X189547500Y-109530500D01*
X182935510Y-119294490D02*
X182935510Y-116142490D01*
X182802500Y-119427500D02*
X182935510Y-119294490D01*
D29*
X189603500Y-103048500D02*
X190238500Y-103048500D01*
D27*
X189547500Y-105080500D02*
X189547500Y-103048500D01*
D28*
X194232500Y-109925500D02*
X194627500Y-109530500D01*
X194232500Y-119427500D02*
X194232500Y-109925500D01*
D27*
X194627500Y-103048500D02*
X194627500Y-105080500D01*
D28*
X118191500Y-135318500D02*
X118300500Y-135427500D01*
X115531900Y-135318500D02*
X118191500Y-135318500D01*
X122611300Y-135427500D02*
X122872500Y-135688700D01*
X118300500Y-135427500D02*
X122611300Y-135427500D01*
X128017900Y-135688700D02*
X128257300Y-135928100D01*
X122872500Y-135688700D02*
X128017900Y-135688700D01*
D27*
X194627500Y-94938500D02*
X194627500Y-97073500D01*
X179387500Y-97073500D02*
X179387500Y-94938500D01*
X189547500Y-97073500D02*
X189547500Y-94938500D01*
X184467500Y-94938500D02*
X184467500Y-97073500D01*
M02*
