G04 #@! TF.GenerationSoftware,KiCad,Pcbnew,(5.1.6)-1*
G04 #@! TF.CreationDate,2021-10-31T01:35:34+02:00*
G04 #@! TF.ProjectId,hamodule,68616d6f-6475-46c6-952e-6b696361645f,rev?*
G04 #@! TF.SameCoordinates,Original*
G04 #@! TF.FileFunction,Paste,Top*
G04 #@! TF.FilePolarity,Positive*
%FSLAX46Y46*%
G04 Gerber Fmt 4.6, Leading zero omitted, Abs format (unit mm)*
G04 Created by KiCad (PCBNEW (5.1.6)-1) date 2021-10-31 01:35:34*
%MOMM*%
%LPD*%
G01*
G04 APERTURE LIST*
G04 APERTURE END LIST*
G36*
G01*
X118750501Y-136002500D02*
X117850499Y-136002500D01*
G75*
G02*
X117600500Y-135752501I0J249999D01*
G01*
X117600500Y-135102499D01*
G75*
G02*
X117850499Y-134852500I249999J0D01*
G01*
X118750501Y-134852500D01*
G75*
G02*
X119000500Y-135102499I0J-249999D01*
G01*
X119000500Y-135752501D01*
G75*
G02*
X118750501Y-136002500I-249999J0D01*
G01*
G37*
G36*
G01*
X118750501Y-138052500D02*
X117850499Y-138052500D01*
G75*
G02*
X117600500Y-137802501I0J249999D01*
G01*
X117600500Y-137152499D01*
G75*
G02*
X117850499Y-136902500I249999J0D01*
G01*
X118750501Y-136902500D01*
G75*
G02*
X119000500Y-137152499I0J-249999D01*
G01*
X119000500Y-137802501D01*
G75*
G02*
X118750501Y-138052500I-249999J0D01*
G01*
G37*
G36*
G01*
X173555500Y-141264000D02*
X174805500Y-141264000D01*
G75*
G02*
X175055500Y-141514000I0J-250000D01*
G01*
X175055500Y-142439000D01*
G75*
G02*
X174805500Y-142689000I-250000J0D01*
G01*
X173555500Y-142689000D01*
G75*
G02*
X173305500Y-142439000I0J250000D01*
G01*
X173305500Y-141514000D01*
G75*
G02*
X173555500Y-141264000I250000J0D01*
G01*
G37*
G36*
G01*
X173555500Y-138289000D02*
X174805500Y-138289000D01*
G75*
G02*
X175055500Y-138539000I0J-250000D01*
G01*
X175055500Y-139464000D01*
G75*
G02*
X174805500Y-139714000I-250000J0D01*
G01*
X173555500Y-139714000D01*
G75*
G02*
X173305500Y-139464000I0J250000D01*
G01*
X173305500Y-138539000D01*
G75*
G02*
X173555500Y-138289000I250000J0D01*
G01*
G37*
G36*
G01*
X171015500Y-141264000D02*
X172265500Y-141264000D01*
G75*
G02*
X172515500Y-141514000I0J-250000D01*
G01*
X172515500Y-142439000D01*
G75*
G02*
X172265500Y-142689000I-250000J0D01*
G01*
X171015500Y-142689000D01*
G75*
G02*
X170765500Y-142439000I0J250000D01*
G01*
X170765500Y-141514000D01*
G75*
G02*
X171015500Y-141264000I250000J0D01*
G01*
G37*
G36*
G01*
X171015500Y-138289000D02*
X172265500Y-138289000D01*
G75*
G02*
X172515500Y-138539000I0J-250000D01*
G01*
X172515500Y-139464000D01*
G75*
G02*
X172265500Y-139714000I-250000J0D01*
G01*
X171015500Y-139714000D01*
G75*
G02*
X170765500Y-139464000I0J250000D01*
G01*
X170765500Y-138539000D01*
G75*
G02*
X171015500Y-138289000I250000J0D01*
G01*
G37*
G36*
G01*
X168475500Y-141264000D02*
X169725500Y-141264000D01*
G75*
G02*
X169975500Y-141514000I0J-250000D01*
G01*
X169975500Y-142439000D01*
G75*
G02*
X169725500Y-142689000I-250000J0D01*
G01*
X168475500Y-142689000D01*
G75*
G02*
X168225500Y-142439000I0J250000D01*
G01*
X168225500Y-141514000D01*
G75*
G02*
X168475500Y-141264000I250000J0D01*
G01*
G37*
G36*
G01*
X168475500Y-138289000D02*
X169725500Y-138289000D01*
G75*
G02*
X169975500Y-138539000I0J-250000D01*
G01*
X169975500Y-139464000D01*
G75*
G02*
X169725500Y-139714000I-250000J0D01*
G01*
X168475500Y-139714000D01*
G75*
G02*
X168225500Y-139464000I0J250000D01*
G01*
X168225500Y-138539000D01*
G75*
G02*
X168475500Y-138289000I250000J0D01*
G01*
G37*
G36*
G01*
X165935500Y-141264000D02*
X167185500Y-141264000D01*
G75*
G02*
X167435500Y-141514000I0J-250000D01*
G01*
X167435500Y-142439000D01*
G75*
G02*
X167185500Y-142689000I-250000J0D01*
G01*
X165935500Y-142689000D01*
G75*
G02*
X165685500Y-142439000I0J250000D01*
G01*
X165685500Y-141514000D01*
G75*
G02*
X165935500Y-141264000I250000J0D01*
G01*
G37*
G36*
G01*
X165935500Y-138289000D02*
X167185500Y-138289000D01*
G75*
G02*
X167435500Y-138539000I0J-250000D01*
G01*
X167435500Y-139464000D01*
G75*
G02*
X167185500Y-139714000I-250000J0D01*
G01*
X165935500Y-139714000D01*
G75*
G02*
X165685500Y-139464000I0J250000D01*
G01*
X165685500Y-138539000D01*
G75*
G02*
X165935500Y-138289000I250000J0D01*
G01*
G37*
G36*
G01*
X140929500Y-128735500D02*
X140629500Y-128735500D01*
G75*
G02*
X140479500Y-128585500I0J150000D01*
G01*
X140479500Y-126935500D01*
G75*
G02*
X140629500Y-126785500I150000J0D01*
G01*
X140929500Y-126785500D01*
G75*
G02*
X141079500Y-126935500I0J-150000D01*
G01*
X141079500Y-128585500D01*
G75*
G02*
X140929500Y-128735500I-150000J0D01*
G01*
G37*
G36*
G01*
X142199500Y-128735500D02*
X141899500Y-128735500D01*
G75*
G02*
X141749500Y-128585500I0J150000D01*
G01*
X141749500Y-126935500D01*
G75*
G02*
X141899500Y-126785500I150000J0D01*
G01*
X142199500Y-126785500D01*
G75*
G02*
X142349500Y-126935500I0J-150000D01*
G01*
X142349500Y-128585500D01*
G75*
G02*
X142199500Y-128735500I-150000J0D01*
G01*
G37*
G36*
G01*
X143469500Y-128735500D02*
X143169500Y-128735500D01*
G75*
G02*
X143019500Y-128585500I0J150000D01*
G01*
X143019500Y-126935500D01*
G75*
G02*
X143169500Y-126785500I150000J0D01*
G01*
X143469500Y-126785500D01*
G75*
G02*
X143619500Y-126935500I0J-150000D01*
G01*
X143619500Y-128585500D01*
G75*
G02*
X143469500Y-128735500I-150000J0D01*
G01*
G37*
G36*
G01*
X144739500Y-128735500D02*
X144439500Y-128735500D01*
G75*
G02*
X144289500Y-128585500I0J150000D01*
G01*
X144289500Y-126935500D01*
G75*
G02*
X144439500Y-126785500I150000J0D01*
G01*
X144739500Y-126785500D01*
G75*
G02*
X144889500Y-126935500I0J-150000D01*
G01*
X144889500Y-128585500D01*
G75*
G02*
X144739500Y-128735500I-150000J0D01*
G01*
G37*
G36*
G01*
X146009500Y-128735500D02*
X145709500Y-128735500D01*
G75*
G02*
X145559500Y-128585500I0J150000D01*
G01*
X145559500Y-126935500D01*
G75*
G02*
X145709500Y-126785500I150000J0D01*
G01*
X146009500Y-126785500D01*
G75*
G02*
X146159500Y-126935500I0J-150000D01*
G01*
X146159500Y-128585500D01*
G75*
G02*
X146009500Y-128735500I-150000J0D01*
G01*
G37*
G36*
G01*
X147279500Y-128735500D02*
X146979500Y-128735500D01*
G75*
G02*
X146829500Y-128585500I0J150000D01*
G01*
X146829500Y-126935500D01*
G75*
G02*
X146979500Y-126785500I150000J0D01*
G01*
X147279500Y-126785500D01*
G75*
G02*
X147429500Y-126935500I0J-150000D01*
G01*
X147429500Y-128585500D01*
G75*
G02*
X147279500Y-128735500I-150000J0D01*
G01*
G37*
G36*
G01*
X148549500Y-128735500D02*
X148249500Y-128735500D01*
G75*
G02*
X148099500Y-128585500I0J150000D01*
G01*
X148099500Y-126935500D01*
G75*
G02*
X148249500Y-126785500I150000J0D01*
G01*
X148549500Y-126785500D01*
G75*
G02*
X148699500Y-126935500I0J-150000D01*
G01*
X148699500Y-128585500D01*
G75*
G02*
X148549500Y-128735500I-150000J0D01*
G01*
G37*
G36*
G01*
X149819500Y-128735500D02*
X149519500Y-128735500D01*
G75*
G02*
X149369500Y-128585500I0J150000D01*
G01*
X149369500Y-126935500D01*
G75*
G02*
X149519500Y-126785500I150000J0D01*
G01*
X149819500Y-126785500D01*
G75*
G02*
X149969500Y-126935500I0J-150000D01*
G01*
X149969500Y-128585500D01*
G75*
G02*
X149819500Y-128735500I-150000J0D01*
G01*
G37*
G36*
G01*
X149819500Y-123785500D02*
X149519500Y-123785500D01*
G75*
G02*
X149369500Y-123635500I0J150000D01*
G01*
X149369500Y-121985500D01*
G75*
G02*
X149519500Y-121835500I150000J0D01*
G01*
X149819500Y-121835500D01*
G75*
G02*
X149969500Y-121985500I0J-150000D01*
G01*
X149969500Y-123635500D01*
G75*
G02*
X149819500Y-123785500I-150000J0D01*
G01*
G37*
G36*
G01*
X148549500Y-123785500D02*
X148249500Y-123785500D01*
G75*
G02*
X148099500Y-123635500I0J150000D01*
G01*
X148099500Y-121985500D01*
G75*
G02*
X148249500Y-121835500I150000J0D01*
G01*
X148549500Y-121835500D01*
G75*
G02*
X148699500Y-121985500I0J-150000D01*
G01*
X148699500Y-123635500D01*
G75*
G02*
X148549500Y-123785500I-150000J0D01*
G01*
G37*
G36*
G01*
X147279500Y-123785500D02*
X146979500Y-123785500D01*
G75*
G02*
X146829500Y-123635500I0J150000D01*
G01*
X146829500Y-121985500D01*
G75*
G02*
X146979500Y-121835500I150000J0D01*
G01*
X147279500Y-121835500D01*
G75*
G02*
X147429500Y-121985500I0J-150000D01*
G01*
X147429500Y-123635500D01*
G75*
G02*
X147279500Y-123785500I-150000J0D01*
G01*
G37*
G36*
G01*
X146009500Y-123785500D02*
X145709500Y-123785500D01*
G75*
G02*
X145559500Y-123635500I0J150000D01*
G01*
X145559500Y-121985500D01*
G75*
G02*
X145709500Y-121835500I150000J0D01*
G01*
X146009500Y-121835500D01*
G75*
G02*
X146159500Y-121985500I0J-150000D01*
G01*
X146159500Y-123635500D01*
G75*
G02*
X146009500Y-123785500I-150000J0D01*
G01*
G37*
G36*
G01*
X144739500Y-123785500D02*
X144439500Y-123785500D01*
G75*
G02*
X144289500Y-123635500I0J150000D01*
G01*
X144289500Y-121985500D01*
G75*
G02*
X144439500Y-121835500I150000J0D01*
G01*
X144739500Y-121835500D01*
G75*
G02*
X144889500Y-121985500I0J-150000D01*
G01*
X144889500Y-123635500D01*
G75*
G02*
X144739500Y-123785500I-150000J0D01*
G01*
G37*
G36*
G01*
X143469500Y-123785500D02*
X143169500Y-123785500D01*
G75*
G02*
X143019500Y-123635500I0J150000D01*
G01*
X143019500Y-121985500D01*
G75*
G02*
X143169500Y-121835500I150000J0D01*
G01*
X143469500Y-121835500D01*
G75*
G02*
X143619500Y-121985500I0J-150000D01*
G01*
X143619500Y-123635500D01*
G75*
G02*
X143469500Y-123785500I-150000J0D01*
G01*
G37*
G36*
G01*
X142199500Y-123785500D02*
X141899500Y-123785500D01*
G75*
G02*
X141749500Y-123635500I0J150000D01*
G01*
X141749500Y-121985500D01*
G75*
G02*
X141899500Y-121835500I150000J0D01*
G01*
X142199500Y-121835500D01*
G75*
G02*
X142349500Y-121985500I0J-150000D01*
G01*
X142349500Y-123635500D01*
G75*
G02*
X142199500Y-123785500I-150000J0D01*
G01*
G37*
G36*
G01*
X140929500Y-123785500D02*
X140629500Y-123785500D01*
G75*
G02*
X140479500Y-123635500I0J150000D01*
G01*
X140479500Y-121985500D01*
G75*
G02*
X140629500Y-121835500I150000J0D01*
G01*
X140929500Y-121835500D01*
G75*
G02*
X141079500Y-121985500I0J-150000D01*
G01*
X141079500Y-123635500D01*
G75*
G02*
X140929500Y-123785500I-150000J0D01*
G01*
G37*
G36*
G01*
X189460500Y-115216500D02*
X189460500Y-117066500D01*
G75*
G02*
X189210500Y-117316500I-250000J0D01*
G01*
X188210500Y-117316500D01*
G75*
G02*
X187960500Y-117066500I0J250000D01*
G01*
X187960500Y-115216500D01*
G75*
G02*
X188210500Y-114966500I250000J0D01*
G01*
X189210500Y-114966500D01*
G75*
G02*
X189460500Y-115216500I0J-250000D01*
G01*
G37*
G36*
G01*
X192710500Y-115216500D02*
X192710500Y-117066500D01*
G75*
G02*
X192460500Y-117316500I-250000J0D01*
G01*
X191460500Y-117316500D01*
G75*
G02*
X191210500Y-117066500I0J250000D01*
G01*
X191210500Y-115216500D01*
G75*
G02*
X191460500Y-114966500I250000J0D01*
G01*
X192460500Y-114966500D01*
G75*
G02*
X192710500Y-115216500I0J-250000D01*
G01*
G37*
G36*
G01*
X178385500Y-115216500D02*
X178385500Y-117066500D01*
G75*
G02*
X178135500Y-117316500I-250000J0D01*
G01*
X177135500Y-117316500D01*
G75*
G02*
X176885500Y-117066500I0J250000D01*
G01*
X176885500Y-115216500D01*
G75*
G02*
X177135500Y-114966500I250000J0D01*
G01*
X178135500Y-114966500D01*
G75*
G02*
X178385500Y-115216500I0J-250000D01*
G01*
G37*
G36*
G01*
X181635500Y-115216500D02*
X181635500Y-117066500D01*
G75*
G02*
X181385500Y-117316500I-250000J0D01*
G01*
X180385500Y-117316500D01*
G75*
G02*
X180135500Y-117066500I0J250000D01*
G01*
X180135500Y-115216500D01*
G75*
G02*
X180385500Y-114966500I250000J0D01*
G01*
X181385500Y-114966500D01*
G75*
G02*
X181635500Y-115216500I0J-250000D01*
G01*
G37*
G36*
G01*
X167108500Y-115216500D02*
X167108500Y-117066500D01*
G75*
G02*
X166858500Y-117316500I-250000J0D01*
G01*
X165858500Y-117316500D01*
G75*
G02*
X165608500Y-117066500I0J250000D01*
G01*
X165608500Y-115216500D01*
G75*
G02*
X165858500Y-114966500I250000J0D01*
G01*
X166858500Y-114966500D01*
G75*
G02*
X167108500Y-115216500I0J-250000D01*
G01*
G37*
G36*
G01*
X170358500Y-115216500D02*
X170358500Y-117066500D01*
G75*
G02*
X170108500Y-117316500I-250000J0D01*
G01*
X169108500Y-117316500D01*
G75*
G02*
X168858500Y-117066500I0J250000D01*
G01*
X168858500Y-115216500D01*
G75*
G02*
X169108500Y-114966500I250000J0D01*
G01*
X170108500Y-114966500D01*
G75*
G02*
X170358500Y-115216500I0J-250000D01*
G01*
G37*
G36*
G01*
X155932500Y-115216500D02*
X155932500Y-117066500D01*
G75*
G02*
X155682500Y-117316500I-250000J0D01*
G01*
X154682500Y-117316500D01*
G75*
G02*
X154432500Y-117066500I0J250000D01*
G01*
X154432500Y-115216500D01*
G75*
G02*
X154682500Y-114966500I250000J0D01*
G01*
X155682500Y-114966500D01*
G75*
G02*
X155932500Y-115216500I0J-250000D01*
G01*
G37*
G36*
G01*
X159182500Y-115216500D02*
X159182500Y-117066500D01*
G75*
G02*
X158932500Y-117316500I-250000J0D01*
G01*
X157932500Y-117316500D01*
G75*
G02*
X157682500Y-117066500I0J250000D01*
G01*
X157682500Y-115216500D01*
G75*
G02*
X157932500Y-114966500I250000J0D01*
G01*
X158932500Y-114966500D01*
G75*
G02*
X159182500Y-115216500I0J-250000D01*
G01*
G37*
G36*
G01*
X193202499Y-94176000D02*
X196052501Y-94176000D01*
G75*
G02*
X196302500Y-94425999I0J-249999D01*
G01*
X196302500Y-95451001D01*
G75*
G02*
X196052501Y-95701000I-249999J0D01*
G01*
X193202499Y-95701000D01*
G75*
G02*
X192952500Y-95451001I0J249999D01*
G01*
X192952500Y-94425999D01*
G75*
G02*
X193202499Y-94176000I249999J0D01*
G01*
G37*
G36*
G01*
X193202499Y-88201000D02*
X196052501Y-88201000D01*
G75*
G02*
X196302500Y-88450999I0J-249999D01*
G01*
X196302500Y-89476001D01*
G75*
G02*
X196052501Y-89726000I-249999J0D01*
G01*
X193202499Y-89726000D01*
G75*
G02*
X192952500Y-89476001I0J249999D01*
G01*
X192952500Y-88450999D01*
G75*
G02*
X193202499Y-88201000I249999J0D01*
G01*
G37*
G36*
G01*
X188122499Y-94176000D02*
X190972501Y-94176000D01*
G75*
G02*
X191222500Y-94425999I0J-249999D01*
G01*
X191222500Y-95451001D01*
G75*
G02*
X190972501Y-95701000I-249999J0D01*
G01*
X188122499Y-95701000D01*
G75*
G02*
X187872500Y-95451001I0J249999D01*
G01*
X187872500Y-94425999D01*
G75*
G02*
X188122499Y-94176000I249999J0D01*
G01*
G37*
G36*
G01*
X188122499Y-88201000D02*
X190972501Y-88201000D01*
G75*
G02*
X191222500Y-88450999I0J-249999D01*
G01*
X191222500Y-89476001D01*
G75*
G02*
X190972501Y-89726000I-249999J0D01*
G01*
X188122499Y-89726000D01*
G75*
G02*
X187872500Y-89476001I0J249999D01*
G01*
X187872500Y-88450999D01*
G75*
G02*
X188122499Y-88201000I249999J0D01*
G01*
G37*
G36*
G01*
X183042499Y-94176000D02*
X185892501Y-94176000D01*
G75*
G02*
X186142500Y-94425999I0J-249999D01*
G01*
X186142500Y-95451001D01*
G75*
G02*
X185892501Y-95701000I-249999J0D01*
G01*
X183042499Y-95701000D01*
G75*
G02*
X182792500Y-95451001I0J249999D01*
G01*
X182792500Y-94425999D01*
G75*
G02*
X183042499Y-94176000I249999J0D01*
G01*
G37*
G36*
G01*
X183042499Y-88201000D02*
X185892501Y-88201000D01*
G75*
G02*
X186142500Y-88450999I0J-249999D01*
G01*
X186142500Y-89476001D01*
G75*
G02*
X185892501Y-89726000I-249999J0D01*
G01*
X183042499Y-89726000D01*
G75*
G02*
X182792500Y-89476001I0J249999D01*
G01*
X182792500Y-88450999D01*
G75*
G02*
X183042499Y-88201000I249999J0D01*
G01*
G37*
G36*
G01*
X177962499Y-94176000D02*
X180812501Y-94176000D01*
G75*
G02*
X181062500Y-94425999I0J-249999D01*
G01*
X181062500Y-95451001D01*
G75*
G02*
X180812501Y-95701000I-249999J0D01*
G01*
X177962499Y-95701000D01*
G75*
G02*
X177712500Y-95451001I0J249999D01*
G01*
X177712500Y-94425999D01*
G75*
G02*
X177962499Y-94176000I249999J0D01*
G01*
G37*
G36*
G01*
X177962499Y-88201000D02*
X180812501Y-88201000D01*
G75*
G02*
X181062500Y-88450999I0J-249999D01*
G01*
X181062500Y-89476001D01*
G75*
G02*
X180812501Y-89726000I-249999J0D01*
G01*
X177962499Y-89726000D01*
G75*
G02*
X177712500Y-89476001I0J249999D01*
G01*
X177712500Y-88450999D01*
G75*
G02*
X177962499Y-88201000I249999J0D01*
G01*
G37*
G36*
G01*
X102443700Y-136073301D02*
X102443700Y-135173299D01*
G75*
G02*
X102693699Y-134923300I249999J0D01*
G01*
X103343701Y-134923300D01*
G75*
G02*
X103593700Y-135173299I0J-249999D01*
G01*
X103593700Y-136073301D01*
G75*
G02*
X103343701Y-136323300I-249999J0D01*
G01*
X102693699Y-136323300D01*
G75*
G02*
X102443700Y-136073301I0J249999D01*
G01*
G37*
G36*
G01*
X100393700Y-136073301D02*
X100393700Y-135173299D01*
G75*
G02*
X100643699Y-134923300I249999J0D01*
G01*
X101293701Y-134923300D01*
G75*
G02*
X101543700Y-135173299I0J-249999D01*
G01*
X101543700Y-136073301D01*
G75*
G02*
X101293701Y-136323300I-249999J0D01*
G01*
X100643699Y-136323300D01*
G75*
G02*
X100393700Y-136073301I0J249999D01*
G01*
G37*
G36*
G01*
X101518300Y-137230699D02*
X101518300Y-138130701D01*
G75*
G02*
X101268301Y-138380700I-249999J0D01*
G01*
X100618299Y-138380700D01*
G75*
G02*
X100368300Y-138130701I0J249999D01*
G01*
X100368300Y-137230699D01*
G75*
G02*
X100618299Y-136980700I249999J0D01*
G01*
X101268301Y-136980700D01*
G75*
G02*
X101518300Y-137230699I0J-249999D01*
G01*
G37*
G36*
G01*
X103568300Y-137230699D02*
X103568300Y-138130701D01*
G75*
G02*
X103318301Y-138380700I-249999J0D01*
G01*
X102668299Y-138380700D01*
G75*
G02*
X102418300Y-138130701I0J249999D01*
G01*
X102418300Y-137230699D01*
G75*
G02*
X102668299Y-136980700I249999J0D01*
G01*
X103318301Y-136980700D01*
G75*
G02*
X103568300Y-137230699I0J-249999D01*
G01*
G37*
G36*
G01*
X189986500Y-129407499D02*
X189986500Y-130307501D01*
G75*
G02*
X189736501Y-130557500I-249999J0D01*
G01*
X189086499Y-130557500D01*
G75*
G02*
X188836500Y-130307501I0J249999D01*
G01*
X188836500Y-129407499D01*
G75*
G02*
X189086499Y-129157500I249999J0D01*
G01*
X189736501Y-129157500D01*
G75*
G02*
X189986500Y-129407499I0J-249999D01*
G01*
G37*
G36*
G01*
X192036500Y-129407499D02*
X192036500Y-130307501D01*
G75*
G02*
X191786501Y-130557500I-249999J0D01*
G01*
X191136499Y-130557500D01*
G75*
G02*
X190886500Y-130307501I0J249999D01*
G01*
X190886500Y-129407499D01*
G75*
G02*
X191136499Y-129157500I249999J0D01*
G01*
X191786501Y-129157500D01*
G75*
G02*
X192036500Y-129407499I0J-249999D01*
G01*
G37*
G36*
G01*
X178810500Y-129407499D02*
X178810500Y-130307501D01*
G75*
G02*
X178560501Y-130557500I-249999J0D01*
G01*
X177910499Y-130557500D01*
G75*
G02*
X177660500Y-130307501I0J249999D01*
G01*
X177660500Y-129407499D01*
G75*
G02*
X177910499Y-129157500I249999J0D01*
G01*
X178560501Y-129157500D01*
G75*
G02*
X178810500Y-129407499I0J-249999D01*
G01*
G37*
G36*
G01*
X180860500Y-129407499D02*
X180860500Y-130307501D01*
G75*
G02*
X180610501Y-130557500I-249999J0D01*
G01*
X179960499Y-130557500D01*
G75*
G02*
X179710500Y-130307501I0J249999D01*
G01*
X179710500Y-129407499D01*
G75*
G02*
X179960499Y-129157500I249999J0D01*
G01*
X180610501Y-129157500D01*
G75*
G02*
X180860500Y-129407499I0J-249999D01*
G01*
G37*
G36*
G01*
X155941500Y-129407499D02*
X155941500Y-130307501D01*
G75*
G02*
X155691501Y-130557500I-249999J0D01*
G01*
X155041499Y-130557500D01*
G75*
G02*
X154791500Y-130307501I0J249999D01*
G01*
X154791500Y-129407499D01*
G75*
G02*
X155041499Y-129157500I249999J0D01*
G01*
X155691501Y-129157500D01*
G75*
G02*
X155941500Y-129407499I0J-249999D01*
G01*
G37*
G36*
G01*
X157991500Y-129407499D02*
X157991500Y-130307501D01*
G75*
G02*
X157741501Y-130557500I-249999J0D01*
G01*
X157091499Y-130557500D01*
G75*
G02*
X156841500Y-130307501I0J249999D01*
G01*
X156841500Y-129407499D01*
G75*
G02*
X157091499Y-129157500I249999J0D01*
G01*
X157741501Y-129157500D01*
G75*
G02*
X157991500Y-129407499I0J-249999D01*
G01*
G37*
G36*
G01*
X168070000Y-129534499D02*
X168070000Y-130434501D01*
G75*
G02*
X167820001Y-130684500I-249999J0D01*
G01*
X167169999Y-130684500D01*
G75*
G02*
X166920000Y-130434501I0J249999D01*
G01*
X166920000Y-129534499D01*
G75*
G02*
X167169999Y-129284500I249999J0D01*
G01*
X167820001Y-129284500D01*
G75*
G02*
X168070000Y-129534499I0J-249999D01*
G01*
G37*
G36*
G01*
X170120000Y-129534499D02*
X170120000Y-130434501D01*
G75*
G02*
X169870001Y-130684500I-249999J0D01*
G01*
X169219999Y-130684500D01*
G75*
G02*
X168970000Y-130434501I0J249999D01*
G01*
X168970000Y-129534499D01*
G75*
G02*
X169219999Y-129284500I249999J0D01*
G01*
X169870001Y-129284500D01*
G75*
G02*
X170120000Y-129534499I0J-249999D01*
G01*
G37*
G36*
G01*
X193177500Y-108880500D02*
X196077500Y-108880500D01*
G75*
G02*
X196327500Y-109130500I0J-250000D01*
G01*
X196327500Y-109930500D01*
G75*
G02*
X196077500Y-110180500I-250000J0D01*
G01*
X193177500Y-110180500D01*
G75*
G02*
X192927500Y-109930500I0J250000D01*
G01*
X192927500Y-109130500D01*
G75*
G02*
X193177500Y-108880500I250000J0D01*
G01*
G37*
G36*
G01*
X193177500Y-104430500D02*
X196077500Y-104430500D01*
G75*
G02*
X196327500Y-104680500I0J-250000D01*
G01*
X196327500Y-105480500D01*
G75*
G02*
X196077500Y-105730500I-250000J0D01*
G01*
X193177500Y-105730500D01*
G75*
G02*
X192927500Y-105480500I0J250000D01*
G01*
X192927500Y-104680500D01*
G75*
G02*
X193177500Y-104430500I250000J0D01*
G01*
G37*
G36*
G01*
X188097500Y-108880500D02*
X190997500Y-108880500D01*
G75*
G02*
X191247500Y-109130500I0J-250000D01*
G01*
X191247500Y-109930500D01*
G75*
G02*
X190997500Y-110180500I-250000J0D01*
G01*
X188097500Y-110180500D01*
G75*
G02*
X187847500Y-109930500I0J250000D01*
G01*
X187847500Y-109130500D01*
G75*
G02*
X188097500Y-108880500I250000J0D01*
G01*
G37*
G36*
G01*
X188097500Y-104430500D02*
X190997500Y-104430500D01*
G75*
G02*
X191247500Y-104680500I0J-250000D01*
G01*
X191247500Y-105480500D01*
G75*
G02*
X190997500Y-105730500I-250000J0D01*
G01*
X188097500Y-105730500D01*
G75*
G02*
X187847500Y-105480500I0J250000D01*
G01*
X187847500Y-104680500D01*
G75*
G02*
X188097500Y-104430500I250000J0D01*
G01*
G37*
G36*
G01*
X183017500Y-108880500D02*
X185917500Y-108880500D01*
G75*
G02*
X186167500Y-109130500I0J-250000D01*
G01*
X186167500Y-109930500D01*
G75*
G02*
X185917500Y-110180500I-250000J0D01*
G01*
X183017500Y-110180500D01*
G75*
G02*
X182767500Y-109930500I0J250000D01*
G01*
X182767500Y-109130500D01*
G75*
G02*
X183017500Y-108880500I250000J0D01*
G01*
G37*
G36*
G01*
X183017500Y-104430500D02*
X185917500Y-104430500D01*
G75*
G02*
X186167500Y-104680500I0J-250000D01*
G01*
X186167500Y-105480500D01*
G75*
G02*
X185917500Y-105730500I-250000J0D01*
G01*
X183017500Y-105730500D01*
G75*
G02*
X182767500Y-105480500I0J250000D01*
G01*
X182767500Y-104680500D01*
G75*
G02*
X183017500Y-104430500I250000J0D01*
G01*
G37*
G36*
G01*
X177937500Y-108944000D02*
X180837500Y-108944000D01*
G75*
G02*
X181087500Y-109194000I0J-250000D01*
G01*
X181087500Y-109994000D01*
G75*
G02*
X180837500Y-110244000I-250000J0D01*
G01*
X177937500Y-110244000D01*
G75*
G02*
X177687500Y-109994000I0J250000D01*
G01*
X177687500Y-109194000D01*
G75*
G02*
X177937500Y-108944000I250000J0D01*
G01*
G37*
G36*
G01*
X177937500Y-104494000D02*
X180837500Y-104494000D01*
G75*
G02*
X181087500Y-104744000I0J-250000D01*
G01*
X181087500Y-105544000D01*
G75*
G02*
X180837500Y-105794000I-250000J0D01*
G01*
X177937500Y-105794000D01*
G75*
G02*
X177687500Y-105544000I0J250000D01*
G01*
X177687500Y-104744000D01*
G75*
G02*
X177937500Y-104494000I250000J0D01*
G01*
G37*
G36*
G01*
X177962499Y-102286000D02*
X180812501Y-102286000D01*
G75*
G02*
X181062500Y-102535999I0J-249999D01*
G01*
X181062500Y-103561001D01*
G75*
G02*
X180812501Y-103811000I-249999J0D01*
G01*
X177962499Y-103811000D01*
G75*
G02*
X177712500Y-103561001I0J249999D01*
G01*
X177712500Y-102535999D01*
G75*
G02*
X177962499Y-102286000I249999J0D01*
G01*
G37*
G36*
G01*
X177962499Y-96311000D02*
X180812501Y-96311000D01*
G75*
G02*
X181062500Y-96560999I0J-249999D01*
G01*
X181062500Y-97586001D01*
G75*
G02*
X180812501Y-97836000I-249999J0D01*
G01*
X177962499Y-97836000D01*
G75*
G02*
X177712500Y-97586001I0J249999D01*
G01*
X177712500Y-96560999D01*
G75*
G02*
X177962499Y-96311000I249999J0D01*
G01*
G37*
G36*
G01*
X183042499Y-102286000D02*
X185892501Y-102286000D01*
G75*
G02*
X186142500Y-102535999I0J-249999D01*
G01*
X186142500Y-103561001D01*
G75*
G02*
X185892501Y-103811000I-249999J0D01*
G01*
X183042499Y-103811000D01*
G75*
G02*
X182792500Y-103561001I0J249999D01*
G01*
X182792500Y-102535999D01*
G75*
G02*
X183042499Y-102286000I249999J0D01*
G01*
G37*
G36*
G01*
X183042499Y-96311000D02*
X185892501Y-96311000D01*
G75*
G02*
X186142500Y-96560999I0J-249999D01*
G01*
X186142500Y-97586001D01*
G75*
G02*
X185892501Y-97836000I-249999J0D01*
G01*
X183042499Y-97836000D01*
G75*
G02*
X182792500Y-97586001I0J249999D01*
G01*
X182792500Y-96560999D01*
G75*
G02*
X183042499Y-96311000I249999J0D01*
G01*
G37*
G36*
G01*
X188122499Y-102286000D02*
X190972501Y-102286000D01*
G75*
G02*
X191222500Y-102535999I0J-249999D01*
G01*
X191222500Y-103561001D01*
G75*
G02*
X190972501Y-103811000I-249999J0D01*
G01*
X188122499Y-103811000D01*
G75*
G02*
X187872500Y-103561001I0J249999D01*
G01*
X187872500Y-102535999D01*
G75*
G02*
X188122499Y-102286000I249999J0D01*
G01*
G37*
G36*
G01*
X188122499Y-96311000D02*
X190972501Y-96311000D01*
G75*
G02*
X191222500Y-96560999I0J-249999D01*
G01*
X191222500Y-97586001D01*
G75*
G02*
X190972501Y-97836000I-249999J0D01*
G01*
X188122499Y-97836000D01*
G75*
G02*
X187872500Y-97586001I0J249999D01*
G01*
X187872500Y-96560999D01*
G75*
G02*
X188122499Y-96311000I249999J0D01*
G01*
G37*
G36*
G01*
X193202499Y-102286000D02*
X196052501Y-102286000D01*
G75*
G02*
X196302500Y-102535999I0J-249999D01*
G01*
X196302500Y-103561001D01*
G75*
G02*
X196052501Y-103811000I-249999J0D01*
G01*
X193202499Y-103811000D01*
G75*
G02*
X192952500Y-103561001I0J249999D01*
G01*
X192952500Y-102535999D01*
G75*
G02*
X193202499Y-102286000I249999J0D01*
G01*
G37*
G36*
G01*
X193202499Y-96311000D02*
X196052501Y-96311000D01*
G75*
G02*
X196302500Y-96560999I0J-249999D01*
G01*
X196302500Y-97586001D01*
G75*
G02*
X196052501Y-97836000I-249999J0D01*
G01*
X193202499Y-97836000D01*
G75*
G02*
X192952500Y-97586001I0J249999D01*
G01*
X192952500Y-96560999D01*
G75*
G02*
X193202499Y-96311000I249999J0D01*
G01*
G37*
M02*
