G04 #@! TF.GenerationSoftware,KiCad,Pcbnew,(5.1.6)-1*
G04 #@! TF.CreationDate,2021-10-31T01:35:34+02:00*
G04 #@! TF.ProjectId,hamodule,68616d6f-6475-46c6-952e-6b696361645f,rev?*
G04 #@! TF.SameCoordinates,Original*
G04 #@! TF.FileFunction,Soldermask,Top*
G04 #@! TF.FilePolarity,Negative*
%FSLAX46Y46*%
G04 Gerber Fmt 4.6, Leading zero omitted, Abs format (unit mm)*
G04 Created by KiCad (PCBNEW (5.1.6)-1) date 2021-10-31 01:35:34*
%MOMM*%
%LPD*%
G01*
G04 APERTURE LIST*
%ADD10C,1.750000*%
%ADD11R,1.750000X1.750000*%
%ADD12C,2.100000*%
%ADD13O,1.800000X1.800000*%
%ADD14R,1.800000X1.800000*%
%ADD15O,1.800000X2.100000*%
%ADD16C,1.700000*%
%ADD17R,1.700000X1.700000*%
%ADD18C,1.900000*%
%ADD19C,5.600000*%
%ADD20C,2.400000*%
%ADD21R,2.400000X2.400000*%
%ADD22O,1.800000X2.050000*%
%ADD23R,1.700000X2.500000*%
%ADD24O,1.700000X2.500000*%
%ADD25O,2.100000X2.005000*%
%ADD26R,2.100000X2.005000*%
G04 APERTURE END LIST*
G36*
G01*
X118778762Y-136052500D02*
X117822238Y-136052500D01*
G75*
G02*
X117550500Y-135780762I0J271738D01*
G01*
X117550500Y-135074238D01*
G75*
G02*
X117822238Y-134802500I271738J0D01*
G01*
X118778762Y-134802500D01*
G75*
G02*
X119050500Y-135074238I0J-271738D01*
G01*
X119050500Y-135780762D01*
G75*
G02*
X118778762Y-136052500I-271738J0D01*
G01*
G37*
G36*
G01*
X118778762Y-138102500D02*
X117822238Y-138102500D01*
G75*
G02*
X117550500Y-137830762I0J271738D01*
G01*
X117550500Y-137124238D01*
G75*
G02*
X117822238Y-136852500I271738J0D01*
G01*
X118778762Y-136852500D01*
G75*
G02*
X119050500Y-137124238I0J-271738D01*
G01*
X119050500Y-137830762D01*
G75*
G02*
X118778762Y-138102500I-271738J0D01*
G01*
G37*
G36*
G01*
X173523044Y-141214000D02*
X174837956Y-141214000D01*
G75*
G02*
X175105500Y-141481544I0J-267544D01*
G01*
X175105500Y-142471456D01*
G75*
G02*
X174837956Y-142739000I-267544J0D01*
G01*
X173523044Y-142739000D01*
G75*
G02*
X173255500Y-142471456I0J267544D01*
G01*
X173255500Y-141481544D01*
G75*
G02*
X173523044Y-141214000I267544J0D01*
G01*
G37*
G36*
G01*
X173523044Y-138239000D02*
X174837956Y-138239000D01*
G75*
G02*
X175105500Y-138506544I0J-267544D01*
G01*
X175105500Y-139496456D01*
G75*
G02*
X174837956Y-139764000I-267544J0D01*
G01*
X173523044Y-139764000D01*
G75*
G02*
X173255500Y-139496456I0J267544D01*
G01*
X173255500Y-138506544D01*
G75*
G02*
X173523044Y-138239000I267544J0D01*
G01*
G37*
G36*
G01*
X170983044Y-141214000D02*
X172297956Y-141214000D01*
G75*
G02*
X172565500Y-141481544I0J-267544D01*
G01*
X172565500Y-142471456D01*
G75*
G02*
X172297956Y-142739000I-267544J0D01*
G01*
X170983044Y-142739000D01*
G75*
G02*
X170715500Y-142471456I0J267544D01*
G01*
X170715500Y-141481544D01*
G75*
G02*
X170983044Y-141214000I267544J0D01*
G01*
G37*
G36*
G01*
X170983044Y-138239000D02*
X172297956Y-138239000D01*
G75*
G02*
X172565500Y-138506544I0J-267544D01*
G01*
X172565500Y-139496456D01*
G75*
G02*
X172297956Y-139764000I-267544J0D01*
G01*
X170983044Y-139764000D01*
G75*
G02*
X170715500Y-139496456I0J267544D01*
G01*
X170715500Y-138506544D01*
G75*
G02*
X170983044Y-138239000I267544J0D01*
G01*
G37*
G36*
G01*
X168443044Y-141214000D02*
X169757956Y-141214000D01*
G75*
G02*
X170025500Y-141481544I0J-267544D01*
G01*
X170025500Y-142471456D01*
G75*
G02*
X169757956Y-142739000I-267544J0D01*
G01*
X168443044Y-142739000D01*
G75*
G02*
X168175500Y-142471456I0J267544D01*
G01*
X168175500Y-141481544D01*
G75*
G02*
X168443044Y-141214000I267544J0D01*
G01*
G37*
G36*
G01*
X168443044Y-138239000D02*
X169757956Y-138239000D01*
G75*
G02*
X170025500Y-138506544I0J-267544D01*
G01*
X170025500Y-139496456D01*
G75*
G02*
X169757956Y-139764000I-267544J0D01*
G01*
X168443044Y-139764000D01*
G75*
G02*
X168175500Y-139496456I0J267544D01*
G01*
X168175500Y-138506544D01*
G75*
G02*
X168443044Y-138239000I267544J0D01*
G01*
G37*
G36*
G01*
X165903044Y-141214000D02*
X167217956Y-141214000D01*
G75*
G02*
X167485500Y-141481544I0J-267544D01*
G01*
X167485500Y-142471456D01*
G75*
G02*
X167217956Y-142739000I-267544J0D01*
G01*
X165903044Y-142739000D01*
G75*
G02*
X165635500Y-142471456I0J267544D01*
G01*
X165635500Y-141481544D01*
G75*
G02*
X165903044Y-141214000I267544J0D01*
G01*
G37*
G36*
G01*
X165903044Y-138239000D02*
X167217956Y-138239000D01*
G75*
G02*
X167485500Y-138506544I0J-267544D01*
G01*
X167485500Y-139496456D01*
G75*
G02*
X167217956Y-139764000I-267544J0D01*
G01*
X165903044Y-139764000D01*
G75*
G02*
X165635500Y-139496456I0J267544D01*
G01*
X165635500Y-138506544D01*
G75*
G02*
X165903044Y-138239000I267544J0D01*
G01*
G37*
D10*
X124076500Y-108568500D03*
X124076500Y-118568500D03*
X104076500Y-123568500D03*
D11*
X104076500Y-103568500D03*
G36*
G01*
X169466500Y-82333500D02*
X170766500Y-82333500D01*
G75*
G02*
X171416500Y-82983500I0J-650000D01*
G01*
X171416500Y-84783500D01*
G75*
G02*
X170766500Y-85433500I-650000J0D01*
G01*
X169466500Y-85433500D01*
G75*
G02*
X168816500Y-84783500I0J650000D01*
G01*
X168816500Y-82983500D01*
G75*
G02*
X169466500Y-82333500I650000J0D01*
G01*
G37*
G36*
G01*
X169466500Y-73633500D02*
X170766500Y-73633500D01*
G75*
G02*
X171416500Y-74283500I0J-650000D01*
G01*
X171416500Y-76083500D01*
G75*
G02*
X170766500Y-76733500I-650000J0D01*
G01*
X169466500Y-76733500D01*
G75*
G02*
X168816500Y-76083500I0J650000D01*
G01*
X168816500Y-74283500D01*
G75*
G02*
X169466500Y-73633500I650000J0D01*
G01*
G37*
G36*
G01*
X164386500Y-82333500D02*
X165686500Y-82333500D01*
G75*
G02*
X166336500Y-82983500I0J-650000D01*
G01*
X166336500Y-84783500D01*
G75*
G02*
X165686500Y-85433500I-650000J0D01*
G01*
X164386500Y-85433500D01*
G75*
G02*
X163736500Y-84783500I0J650000D01*
G01*
X163736500Y-82983500D01*
G75*
G02*
X164386500Y-82333500I650000J0D01*
G01*
G37*
G36*
G01*
X164386500Y-73633500D02*
X165686500Y-73633500D01*
G75*
G02*
X166336500Y-74283500I0J-650000D01*
G01*
X166336500Y-76083500D01*
G75*
G02*
X165686500Y-76733500I-650000J0D01*
G01*
X164386500Y-76733500D01*
G75*
G02*
X163736500Y-76083500I0J650000D01*
G01*
X163736500Y-74283500D01*
G75*
G02*
X164386500Y-73633500I650000J0D01*
G01*
G37*
G36*
G01*
X159306500Y-82333500D02*
X160606500Y-82333500D01*
G75*
G02*
X161256500Y-82983500I0J-650000D01*
G01*
X161256500Y-84783500D01*
G75*
G02*
X160606500Y-85433500I-650000J0D01*
G01*
X159306500Y-85433500D01*
G75*
G02*
X158656500Y-84783500I0J650000D01*
G01*
X158656500Y-82983500D01*
G75*
G02*
X159306500Y-82333500I650000J0D01*
G01*
G37*
G36*
G01*
X159306500Y-73633500D02*
X160606500Y-73633500D01*
G75*
G02*
X161256500Y-74283500I0J-650000D01*
G01*
X161256500Y-76083500D01*
G75*
G02*
X160606500Y-76733500I-650000J0D01*
G01*
X159306500Y-76733500D01*
G75*
G02*
X158656500Y-76083500I0J650000D01*
G01*
X158656500Y-74283500D01*
G75*
G02*
X159306500Y-73633500I650000J0D01*
G01*
G37*
G36*
G01*
X154226500Y-82333500D02*
X155526500Y-82333500D01*
G75*
G02*
X156176500Y-82983500I0J-650000D01*
G01*
X156176500Y-84783500D01*
G75*
G02*
X155526500Y-85433500I-650000J0D01*
G01*
X154226500Y-85433500D01*
G75*
G02*
X153576500Y-84783500I0J650000D01*
G01*
X153576500Y-82983500D01*
G75*
G02*
X154226500Y-82333500I650000J0D01*
G01*
G37*
G36*
G01*
X154226500Y-73633500D02*
X155526500Y-73633500D01*
G75*
G02*
X156176500Y-74283500I0J-650000D01*
G01*
X156176500Y-76083500D01*
G75*
G02*
X155526500Y-76733500I-650000J0D01*
G01*
X154226500Y-76733500D01*
G75*
G02*
X153576500Y-76083500I0J650000D01*
G01*
X153576500Y-74283500D01*
G75*
G02*
X154226500Y-73633500I650000J0D01*
G01*
G37*
G36*
G01*
X140954500Y-128785500D02*
X140604500Y-128785500D01*
G75*
G02*
X140429500Y-128610500I0J175000D01*
G01*
X140429500Y-126910500D01*
G75*
G02*
X140604500Y-126735500I175000J0D01*
G01*
X140954500Y-126735500D01*
G75*
G02*
X141129500Y-126910500I0J-175000D01*
G01*
X141129500Y-128610500D01*
G75*
G02*
X140954500Y-128785500I-175000J0D01*
G01*
G37*
G36*
G01*
X142224500Y-128785500D02*
X141874500Y-128785500D01*
G75*
G02*
X141699500Y-128610500I0J175000D01*
G01*
X141699500Y-126910500D01*
G75*
G02*
X141874500Y-126735500I175000J0D01*
G01*
X142224500Y-126735500D01*
G75*
G02*
X142399500Y-126910500I0J-175000D01*
G01*
X142399500Y-128610500D01*
G75*
G02*
X142224500Y-128785500I-175000J0D01*
G01*
G37*
G36*
G01*
X143494500Y-128785500D02*
X143144500Y-128785500D01*
G75*
G02*
X142969500Y-128610500I0J175000D01*
G01*
X142969500Y-126910500D01*
G75*
G02*
X143144500Y-126735500I175000J0D01*
G01*
X143494500Y-126735500D01*
G75*
G02*
X143669500Y-126910500I0J-175000D01*
G01*
X143669500Y-128610500D01*
G75*
G02*
X143494500Y-128785500I-175000J0D01*
G01*
G37*
G36*
G01*
X144764500Y-128785500D02*
X144414500Y-128785500D01*
G75*
G02*
X144239500Y-128610500I0J175000D01*
G01*
X144239500Y-126910500D01*
G75*
G02*
X144414500Y-126735500I175000J0D01*
G01*
X144764500Y-126735500D01*
G75*
G02*
X144939500Y-126910500I0J-175000D01*
G01*
X144939500Y-128610500D01*
G75*
G02*
X144764500Y-128785500I-175000J0D01*
G01*
G37*
G36*
G01*
X146034500Y-128785500D02*
X145684500Y-128785500D01*
G75*
G02*
X145509500Y-128610500I0J175000D01*
G01*
X145509500Y-126910500D01*
G75*
G02*
X145684500Y-126735500I175000J0D01*
G01*
X146034500Y-126735500D01*
G75*
G02*
X146209500Y-126910500I0J-175000D01*
G01*
X146209500Y-128610500D01*
G75*
G02*
X146034500Y-128785500I-175000J0D01*
G01*
G37*
G36*
G01*
X147304500Y-128785500D02*
X146954500Y-128785500D01*
G75*
G02*
X146779500Y-128610500I0J175000D01*
G01*
X146779500Y-126910500D01*
G75*
G02*
X146954500Y-126735500I175000J0D01*
G01*
X147304500Y-126735500D01*
G75*
G02*
X147479500Y-126910500I0J-175000D01*
G01*
X147479500Y-128610500D01*
G75*
G02*
X147304500Y-128785500I-175000J0D01*
G01*
G37*
G36*
G01*
X148574500Y-128785500D02*
X148224500Y-128785500D01*
G75*
G02*
X148049500Y-128610500I0J175000D01*
G01*
X148049500Y-126910500D01*
G75*
G02*
X148224500Y-126735500I175000J0D01*
G01*
X148574500Y-126735500D01*
G75*
G02*
X148749500Y-126910500I0J-175000D01*
G01*
X148749500Y-128610500D01*
G75*
G02*
X148574500Y-128785500I-175000J0D01*
G01*
G37*
G36*
G01*
X149844500Y-128785500D02*
X149494500Y-128785500D01*
G75*
G02*
X149319500Y-128610500I0J175000D01*
G01*
X149319500Y-126910500D01*
G75*
G02*
X149494500Y-126735500I175000J0D01*
G01*
X149844500Y-126735500D01*
G75*
G02*
X150019500Y-126910500I0J-175000D01*
G01*
X150019500Y-128610500D01*
G75*
G02*
X149844500Y-128785500I-175000J0D01*
G01*
G37*
G36*
G01*
X149844500Y-123835500D02*
X149494500Y-123835500D01*
G75*
G02*
X149319500Y-123660500I0J175000D01*
G01*
X149319500Y-121960500D01*
G75*
G02*
X149494500Y-121785500I175000J0D01*
G01*
X149844500Y-121785500D01*
G75*
G02*
X150019500Y-121960500I0J-175000D01*
G01*
X150019500Y-123660500D01*
G75*
G02*
X149844500Y-123835500I-175000J0D01*
G01*
G37*
G36*
G01*
X148574500Y-123835500D02*
X148224500Y-123835500D01*
G75*
G02*
X148049500Y-123660500I0J175000D01*
G01*
X148049500Y-121960500D01*
G75*
G02*
X148224500Y-121785500I175000J0D01*
G01*
X148574500Y-121785500D01*
G75*
G02*
X148749500Y-121960500I0J-175000D01*
G01*
X148749500Y-123660500D01*
G75*
G02*
X148574500Y-123835500I-175000J0D01*
G01*
G37*
G36*
G01*
X147304500Y-123835500D02*
X146954500Y-123835500D01*
G75*
G02*
X146779500Y-123660500I0J175000D01*
G01*
X146779500Y-121960500D01*
G75*
G02*
X146954500Y-121785500I175000J0D01*
G01*
X147304500Y-121785500D01*
G75*
G02*
X147479500Y-121960500I0J-175000D01*
G01*
X147479500Y-123660500D01*
G75*
G02*
X147304500Y-123835500I-175000J0D01*
G01*
G37*
G36*
G01*
X146034500Y-123835500D02*
X145684500Y-123835500D01*
G75*
G02*
X145509500Y-123660500I0J175000D01*
G01*
X145509500Y-121960500D01*
G75*
G02*
X145684500Y-121785500I175000J0D01*
G01*
X146034500Y-121785500D01*
G75*
G02*
X146209500Y-121960500I0J-175000D01*
G01*
X146209500Y-123660500D01*
G75*
G02*
X146034500Y-123835500I-175000J0D01*
G01*
G37*
G36*
G01*
X144764500Y-123835500D02*
X144414500Y-123835500D01*
G75*
G02*
X144239500Y-123660500I0J175000D01*
G01*
X144239500Y-121960500D01*
G75*
G02*
X144414500Y-121785500I175000J0D01*
G01*
X144764500Y-121785500D01*
G75*
G02*
X144939500Y-121960500I0J-175000D01*
G01*
X144939500Y-123660500D01*
G75*
G02*
X144764500Y-123835500I-175000J0D01*
G01*
G37*
G36*
G01*
X143494500Y-123835500D02*
X143144500Y-123835500D01*
G75*
G02*
X142969500Y-123660500I0J175000D01*
G01*
X142969500Y-121960500D01*
G75*
G02*
X143144500Y-121785500I175000J0D01*
G01*
X143494500Y-121785500D01*
G75*
G02*
X143669500Y-121960500I0J-175000D01*
G01*
X143669500Y-123660500D01*
G75*
G02*
X143494500Y-123835500I-175000J0D01*
G01*
G37*
G36*
G01*
X142224500Y-123835500D02*
X141874500Y-123835500D01*
G75*
G02*
X141699500Y-123660500I0J175000D01*
G01*
X141699500Y-121960500D01*
G75*
G02*
X141874500Y-121785500I175000J0D01*
G01*
X142224500Y-121785500D01*
G75*
G02*
X142399500Y-121960500I0J-175000D01*
G01*
X142399500Y-123660500D01*
G75*
G02*
X142224500Y-123835500I-175000J0D01*
G01*
G37*
G36*
G01*
X140954500Y-123835500D02*
X140604500Y-123835500D01*
G75*
G02*
X140429500Y-123660500I0J175000D01*
G01*
X140429500Y-121960500D01*
G75*
G02*
X140604500Y-121785500I175000J0D01*
G01*
X140954500Y-121785500D01*
G75*
G02*
X141129500Y-121960500I0J-175000D01*
G01*
X141129500Y-123660500D01*
G75*
G02*
X140954500Y-123835500I-175000J0D01*
G01*
G37*
G36*
G01*
X189510500Y-115183167D02*
X189510500Y-117099833D01*
G75*
G02*
X189243833Y-117366500I-266667J0D01*
G01*
X188177167Y-117366500D01*
G75*
G02*
X187910500Y-117099833I0J266667D01*
G01*
X187910500Y-115183167D01*
G75*
G02*
X188177167Y-114916500I266667J0D01*
G01*
X189243833Y-114916500D01*
G75*
G02*
X189510500Y-115183167I0J-266667D01*
G01*
G37*
G36*
G01*
X192760500Y-115183167D02*
X192760500Y-117099833D01*
G75*
G02*
X192493833Y-117366500I-266667J0D01*
G01*
X191427167Y-117366500D01*
G75*
G02*
X191160500Y-117099833I0J266667D01*
G01*
X191160500Y-115183167D01*
G75*
G02*
X191427167Y-114916500I266667J0D01*
G01*
X192493833Y-114916500D01*
G75*
G02*
X192760500Y-115183167I0J-266667D01*
G01*
G37*
G36*
G01*
X178435500Y-115183167D02*
X178435500Y-117099833D01*
G75*
G02*
X178168833Y-117366500I-266667J0D01*
G01*
X177102167Y-117366500D01*
G75*
G02*
X176835500Y-117099833I0J266667D01*
G01*
X176835500Y-115183167D01*
G75*
G02*
X177102167Y-114916500I266667J0D01*
G01*
X178168833Y-114916500D01*
G75*
G02*
X178435500Y-115183167I0J-266667D01*
G01*
G37*
G36*
G01*
X181685500Y-115183167D02*
X181685500Y-117099833D01*
G75*
G02*
X181418833Y-117366500I-266667J0D01*
G01*
X180352167Y-117366500D01*
G75*
G02*
X180085500Y-117099833I0J266667D01*
G01*
X180085500Y-115183167D01*
G75*
G02*
X180352167Y-114916500I266667J0D01*
G01*
X181418833Y-114916500D01*
G75*
G02*
X181685500Y-115183167I0J-266667D01*
G01*
G37*
G36*
G01*
X167158500Y-115183167D02*
X167158500Y-117099833D01*
G75*
G02*
X166891833Y-117366500I-266667J0D01*
G01*
X165825167Y-117366500D01*
G75*
G02*
X165558500Y-117099833I0J266667D01*
G01*
X165558500Y-115183167D01*
G75*
G02*
X165825167Y-114916500I266667J0D01*
G01*
X166891833Y-114916500D01*
G75*
G02*
X167158500Y-115183167I0J-266667D01*
G01*
G37*
G36*
G01*
X170408500Y-115183167D02*
X170408500Y-117099833D01*
G75*
G02*
X170141833Y-117366500I-266667J0D01*
G01*
X169075167Y-117366500D01*
G75*
G02*
X168808500Y-117099833I0J266667D01*
G01*
X168808500Y-115183167D01*
G75*
G02*
X169075167Y-114916500I266667J0D01*
G01*
X170141833Y-114916500D01*
G75*
G02*
X170408500Y-115183167I0J-266667D01*
G01*
G37*
G36*
G01*
X155982500Y-115183167D02*
X155982500Y-117099833D01*
G75*
G02*
X155715833Y-117366500I-266667J0D01*
G01*
X154649167Y-117366500D01*
G75*
G02*
X154382500Y-117099833I0J266667D01*
G01*
X154382500Y-115183167D01*
G75*
G02*
X154649167Y-114916500I266667J0D01*
G01*
X155715833Y-114916500D01*
G75*
G02*
X155982500Y-115183167I0J-266667D01*
G01*
G37*
G36*
G01*
X159232500Y-115183167D02*
X159232500Y-117099833D01*
G75*
G02*
X158965833Y-117366500I-266667J0D01*
G01*
X157899167Y-117366500D01*
G75*
G02*
X157632500Y-117099833I0J266667D01*
G01*
X157632500Y-115183167D01*
G75*
G02*
X157899167Y-114916500I266667J0D01*
G01*
X158965833Y-114916500D01*
G75*
G02*
X159232500Y-115183167I0J-266667D01*
G01*
G37*
D12*
X141668500Y-115125500D03*
X136588500Y-115125500D03*
G36*
G01*
X193168892Y-94126000D02*
X196086108Y-94126000D01*
G75*
G02*
X196352500Y-94392392I0J-266392D01*
G01*
X196352500Y-95484608D01*
G75*
G02*
X196086108Y-95751000I-266392J0D01*
G01*
X193168892Y-95751000D01*
G75*
G02*
X192902500Y-95484608I0J266392D01*
G01*
X192902500Y-94392392D01*
G75*
G02*
X193168892Y-94126000I266392J0D01*
G01*
G37*
G36*
G01*
X193168892Y-88151000D02*
X196086108Y-88151000D01*
G75*
G02*
X196352500Y-88417392I0J-266392D01*
G01*
X196352500Y-89509608D01*
G75*
G02*
X196086108Y-89776000I-266392J0D01*
G01*
X193168892Y-89776000D01*
G75*
G02*
X192902500Y-89509608I0J266392D01*
G01*
X192902500Y-88417392D01*
G75*
G02*
X193168892Y-88151000I266392J0D01*
G01*
G37*
G36*
G01*
X188088892Y-94126000D02*
X191006108Y-94126000D01*
G75*
G02*
X191272500Y-94392392I0J-266392D01*
G01*
X191272500Y-95484608D01*
G75*
G02*
X191006108Y-95751000I-266392J0D01*
G01*
X188088892Y-95751000D01*
G75*
G02*
X187822500Y-95484608I0J266392D01*
G01*
X187822500Y-94392392D01*
G75*
G02*
X188088892Y-94126000I266392J0D01*
G01*
G37*
G36*
G01*
X188088892Y-88151000D02*
X191006108Y-88151000D01*
G75*
G02*
X191272500Y-88417392I0J-266392D01*
G01*
X191272500Y-89509608D01*
G75*
G02*
X191006108Y-89776000I-266392J0D01*
G01*
X188088892Y-89776000D01*
G75*
G02*
X187822500Y-89509608I0J266392D01*
G01*
X187822500Y-88417392D01*
G75*
G02*
X188088892Y-88151000I266392J0D01*
G01*
G37*
G36*
G01*
X183008892Y-94126000D02*
X185926108Y-94126000D01*
G75*
G02*
X186192500Y-94392392I0J-266392D01*
G01*
X186192500Y-95484608D01*
G75*
G02*
X185926108Y-95751000I-266392J0D01*
G01*
X183008892Y-95751000D01*
G75*
G02*
X182742500Y-95484608I0J266392D01*
G01*
X182742500Y-94392392D01*
G75*
G02*
X183008892Y-94126000I266392J0D01*
G01*
G37*
G36*
G01*
X183008892Y-88151000D02*
X185926108Y-88151000D01*
G75*
G02*
X186192500Y-88417392I0J-266392D01*
G01*
X186192500Y-89509608D01*
G75*
G02*
X185926108Y-89776000I-266392J0D01*
G01*
X183008892Y-89776000D01*
G75*
G02*
X182742500Y-89509608I0J266392D01*
G01*
X182742500Y-88417392D01*
G75*
G02*
X183008892Y-88151000I266392J0D01*
G01*
G37*
G36*
G01*
X177928892Y-94126000D02*
X180846108Y-94126000D01*
G75*
G02*
X181112500Y-94392392I0J-266392D01*
G01*
X181112500Y-95484608D01*
G75*
G02*
X180846108Y-95751000I-266392J0D01*
G01*
X177928892Y-95751000D01*
G75*
G02*
X177662500Y-95484608I0J266392D01*
G01*
X177662500Y-94392392D01*
G75*
G02*
X177928892Y-94126000I266392J0D01*
G01*
G37*
G36*
G01*
X177928892Y-88151000D02*
X180846108Y-88151000D01*
G75*
G02*
X181112500Y-88417392I0J-266392D01*
G01*
X181112500Y-89509608D01*
G75*
G02*
X180846108Y-89776000I-266392J0D01*
G01*
X177928892Y-89776000D01*
G75*
G02*
X177662500Y-89509608I0J266392D01*
G01*
X177662500Y-88417392D01*
G75*
G02*
X177928892Y-88151000I266392J0D01*
G01*
G37*
D13*
X128257300Y-135928100D03*
D14*
X128257300Y-138468100D03*
D15*
X135775700Y-137071100D03*
G36*
G01*
X132375700Y-137856394D02*
X132375700Y-136285806D01*
G75*
G02*
X132640406Y-136021100I264706J0D01*
G01*
X133910994Y-136021100D01*
G75*
G02*
X134175700Y-136285806I0J-264706D01*
G01*
X134175700Y-137856394D01*
G75*
G02*
X133910994Y-138121100I-264706J0D01*
G01*
X132640406Y-138121100D01*
G75*
G02*
X132375700Y-137856394I0J264706D01*
G01*
G37*
G36*
G01*
X102393700Y-136101562D02*
X102393700Y-135145038D01*
G75*
G02*
X102665438Y-134873300I271738J0D01*
G01*
X103371962Y-134873300D01*
G75*
G02*
X103643700Y-135145038I0J-271738D01*
G01*
X103643700Y-136101562D01*
G75*
G02*
X103371962Y-136373300I-271738J0D01*
G01*
X102665438Y-136373300D01*
G75*
G02*
X102393700Y-136101562I0J271738D01*
G01*
G37*
G36*
G01*
X100343700Y-136101562D02*
X100343700Y-135145038D01*
G75*
G02*
X100615438Y-134873300I271738J0D01*
G01*
X101321962Y-134873300D01*
G75*
G02*
X101593700Y-135145038I0J-271738D01*
G01*
X101593700Y-136101562D01*
G75*
G02*
X101321962Y-136373300I-271738J0D01*
G01*
X100615438Y-136373300D01*
G75*
G02*
X100343700Y-136101562I0J271738D01*
G01*
G37*
G36*
G01*
X101568300Y-137202438D02*
X101568300Y-138158962D01*
G75*
G02*
X101296562Y-138430700I-271738J0D01*
G01*
X100590038Y-138430700D01*
G75*
G02*
X100318300Y-138158962I0J271738D01*
G01*
X100318300Y-137202438D01*
G75*
G02*
X100590038Y-136930700I271738J0D01*
G01*
X101296562Y-136930700D01*
G75*
G02*
X101568300Y-137202438I0J-271738D01*
G01*
G37*
G36*
G01*
X103618300Y-137202438D02*
X103618300Y-138158962D01*
G75*
G02*
X103346562Y-138430700I-271738J0D01*
G01*
X102640038Y-138430700D01*
G75*
G02*
X102368300Y-138158962I0J271738D01*
G01*
X102368300Y-137202438D01*
G75*
G02*
X102640038Y-136930700I271738J0D01*
G01*
X103346562Y-136930700D01*
G75*
G02*
X103618300Y-137202438I0J-271738D01*
G01*
G37*
G36*
G01*
X190036500Y-129379238D02*
X190036500Y-130335762D01*
G75*
G02*
X189764762Y-130607500I-271738J0D01*
G01*
X189058238Y-130607500D01*
G75*
G02*
X188786500Y-130335762I0J271738D01*
G01*
X188786500Y-129379238D01*
G75*
G02*
X189058238Y-129107500I271738J0D01*
G01*
X189764762Y-129107500D01*
G75*
G02*
X190036500Y-129379238I0J-271738D01*
G01*
G37*
G36*
G01*
X192086500Y-129379238D02*
X192086500Y-130335762D01*
G75*
G02*
X191814762Y-130607500I-271738J0D01*
G01*
X191108238Y-130607500D01*
G75*
G02*
X190836500Y-130335762I0J271738D01*
G01*
X190836500Y-129379238D01*
G75*
G02*
X191108238Y-129107500I271738J0D01*
G01*
X191814762Y-129107500D01*
G75*
G02*
X192086500Y-129379238I0J-271738D01*
G01*
G37*
G36*
G01*
X178860500Y-129379238D02*
X178860500Y-130335762D01*
G75*
G02*
X178588762Y-130607500I-271738J0D01*
G01*
X177882238Y-130607500D01*
G75*
G02*
X177610500Y-130335762I0J271738D01*
G01*
X177610500Y-129379238D01*
G75*
G02*
X177882238Y-129107500I271738J0D01*
G01*
X178588762Y-129107500D01*
G75*
G02*
X178860500Y-129379238I0J-271738D01*
G01*
G37*
G36*
G01*
X180910500Y-129379238D02*
X180910500Y-130335762D01*
G75*
G02*
X180638762Y-130607500I-271738J0D01*
G01*
X179932238Y-130607500D01*
G75*
G02*
X179660500Y-130335762I0J271738D01*
G01*
X179660500Y-129379238D01*
G75*
G02*
X179932238Y-129107500I271738J0D01*
G01*
X180638762Y-129107500D01*
G75*
G02*
X180910500Y-129379238I0J-271738D01*
G01*
G37*
G36*
G01*
X155991500Y-129379238D02*
X155991500Y-130335762D01*
G75*
G02*
X155719762Y-130607500I-271738J0D01*
G01*
X155013238Y-130607500D01*
G75*
G02*
X154741500Y-130335762I0J271738D01*
G01*
X154741500Y-129379238D01*
G75*
G02*
X155013238Y-129107500I271738J0D01*
G01*
X155719762Y-129107500D01*
G75*
G02*
X155991500Y-129379238I0J-271738D01*
G01*
G37*
G36*
G01*
X158041500Y-129379238D02*
X158041500Y-130335762D01*
G75*
G02*
X157769762Y-130607500I-271738J0D01*
G01*
X157063238Y-130607500D01*
G75*
G02*
X156791500Y-130335762I0J271738D01*
G01*
X156791500Y-129379238D01*
G75*
G02*
X157063238Y-129107500I271738J0D01*
G01*
X157769762Y-129107500D01*
G75*
G02*
X158041500Y-129379238I0J-271738D01*
G01*
G37*
G36*
G01*
X168120000Y-129506238D02*
X168120000Y-130462762D01*
G75*
G02*
X167848262Y-130734500I-271738J0D01*
G01*
X167141738Y-130734500D01*
G75*
G02*
X166870000Y-130462762I0J271738D01*
G01*
X166870000Y-129506238D01*
G75*
G02*
X167141738Y-129234500I271738J0D01*
G01*
X167848262Y-129234500D01*
G75*
G02*
X168120000Y-129506238I0J-271738D01*
G01*
G37*
G36*
G01*
X170170000Y-129506238D02*
X170170000Y-130462762D01*
G75*
G02*
X169898262Y-130734500I-271738J0D01*
G01*
X169191738Y-130734500D01*
G75*
G02*
X168920000Y-130462762I0J271738D01*
G01*
X168920000Y-129506238D01*
G75*
G02*
X169191738Y-129234500I271738J0D01*
G01*
X169898262Y-129234500D01*
G75*
G02*
X170170000Y-129506238I0J-271738D01*
G01*
G37*
G36*
G01*
X193146731Y-108830500D02*
X196108269Y-108830500D01*
G75*
G02*
X196377500Y-109099731I0J-269231D01*
G01*
X196377500Y-109961269D01*
G75*
G02*
X196108269Y-110230500I-269231J0D01*
G01*
X193146731Y-110230500D01*
G75*
G02*
X192877500Y-109961269I0J269231D01*
G01*
X192877500Y-109099731D01*
G75*
G02*
X193146731Y-108830500I269231J0D01*
G01*
G37*
G36*
G01*
X193146731Y-104380500D02*
X196108269Y-104380500D01*
G75*
G02*
X196377500Y-104649731I0J-269231D01*
G01*
X196377500Y-105511269D01*
G75*
G02*
X196108269Y-105780500I-269231J0D01*
G01*
X193146731Y-105780500D01*
G75*
G02*
X192877500Y-105511269I0J269231D01*
G01*
X192877500Y-104649731D01*
G75*
G02*
X193146731Y-104380500I269231J0D01*
G01*
G37*
G36*
G01*
X188066731Y-108830500D02*
X191028269Y-108830500D01*
G75*
G02*
X191297500Y-109099731I0J-269231D01*
G01*
X191297500Y-109961269D01*
G75*
G02*
X191028269Y-110230500I-269231J0D01*
G01*
X188066731Y-110230500D01*
G75*
G02*
X187797500Y-109961269I0J269231D01*
G01*
X187797500Y-109099731D01*
G75*
G02*
X188066731Y-108830500I269231J0D01*
G01*
G37*
G36*
G01*
X188066731Y-104380500D02*
X191028269Y-104380500D01*
G75*
G02*
X191297500Y-104649731I0J-269231D01*
G01*
X191297500Y-105511269D01*
G75*
G02*
X191028269Y-105780500I-269231J0D01*
G01*
X188066731Y-105780500D01*
G75*
G02*
X187797500Y-105511269I0J269231D01*
G01*
X187797500Y-104649731D01*
G75*
G02*
X188066731Y-104380500I269231J0D01*
G01*
G37*
G36*
G01*
X182986731Y-108830500D02*
X185948269Y-108830500D01*
G75*
G02*
X186217500Y-109099731I0J-269231D01*
G01*
X186217500Y-109961269D01*
G75*
G02*
X185948269Y-110230500I-269231J0D01*
G01*
X182986731Y-110230500D01*
G75*
G02*
X182717500Y-109961269I0J269231D01*
G01*
X182717500Y-109099731D01*
G75*
G02*
X182986731Y-108830500I269231J0D01*
G01*
G37*
G36*
G01*
X182986731Y-104380500D02*
X185948269Y-104380500D01*
G75*
G02*
X186217500Y-104649731I0J-269231D01*
G01*
X186217500Y-105511269D01*
G75*
G02*
X185948269Y-105780500I-269231J0D01*
G01*
X182986731Y-105780500D01*
G75*
G02*
X182717500Y-105511269I0J269231D01*
G01*
X182717500Y-104649731D01*
G75*
G02*
X182986731Y-104380500I269231J0D01*
G01*
G37*
G36*
G01*
X177906731Y-108894000D02*
X180868269Y-108894000D01*
G75*
G02*
X181137500Y-109163231I0J-269231D01*
G01*
X181137500Y-110024769D01*
G75*
G02*
X180868269Y-110294000I-269231J0D01*
G01*
X177906731Y-110294000D01*
G75*
G02*
X177637500Y-110024769I0J269231D01*
G01*
X177637500Y-109163231D01*
G75*
G02*
X177906731Y-108894000I269231J0D01*
G01*
G37*
G36*
G01*
X177906731Y-104444000D02*
X180868269Y-104444000D01*
G75*
G02*
X181137500Y-104713231I0J-269231D01*
G01*
X181137500Y-105574769D01*
G75*
G02*
X180868269Y-105844000I-269231J0D01*
G01*
X177906731Y-105844000D01*
G75*
G02*
X177637500Y-105574769I0J269231D01*
G01*
X177637500Y-104713231D01*
G75*
G02*
X177906731Y-104444000I269231J0D01*
G01*
G37*
G36*
G01*
X177928892Y-102236000D02*
X180846108Y-102236000D01*
G75*
G02*
X181112500Y-102502392I0J-266392D01*
G01*
X181112500Y-103594608D01*
G75*
G02*
X180846108Y-103861000I-266392J0D01*
G01*
X177928892Y-103861000D01*
G75*
G02*
X177662500Y-103594608I0J266392D01*
G01*
X177662500Y-102502392D01*
G75*
G02*
X177928892Y-102236000I266392J0D01*
G01*
G37*
G36*
G01*
X177928892Y-96261000D02*
X180846108Y-96261000D01*
G75*
G02*
X181112500Y-96527392I0J-266392D01*
G01*
X181112500Y-97619608D01*
G75*
G02*
X180846108Y-97886000I-266392J0D01*
G01*
X177928892Y-97886000D01*
G75*
G02*
X177662500Y-97619608I0J266392D01*
G01*
X177662500Y-96527392D01*
G75*
G02*
X177928892Y-96261000I266392J0D01*
G01*
G37*
G36*
G01*
X183008892Y-102236000D02*
X185926108Y-102236000D01*
G75*
G02*
X186192500Y-102502392I0J-266392D01*
G01*
X186192500Y-103594608D01*
G75*
G02*
X185926108Y-103861000I-266392J0D01*
G01*
X183008892Y-103861000D01*
G75*
G02*
X182742500Y-103594608I0J266392D01*
G01*
X182742500Y-102502392D01*
G75*
G02*
X183008892Y-102236000I266392J0D01*
G01*
G37*
G36*
G01*
X183008892Y-96261000D02*
X185926108Y-96261000D01*
G75*
G02*
X186192500Y-96527392I0J-266392D01*
G01*
X186192500Y-97619608D01*
G75*
G02*
X185926108Y-97886000I-266392J0D01*
G01*
X183008892Y-97886000D01*
G75*
G02*
X182742500Y-97619608I0J266392D01*
G01*
X182742500Y-96527392D01*
G75*
G02*
X183008892Y-96261000I266392J0D01*
G01*
G37*
G36*
G01*
X188088892Y-102236000D02*
X191006108Y-102236000D01*
G75*
G02*
X191272500Y-102502392I0J-266392D01*
G01*
X191272500Y-103594608D01*
G75*
G02*
X191006108Y-103861000I-266392J0D01*
G01*
X188088892Y-103861000D01*
G75*
G02*
X187822500Y-103594608I0J266392D01*
G01*
X187822500Y-102502392D01*
G75*
G02*
X188088892Y-102236000I266392J0D01*
G01*
G37*
G36*
G01*
X188088892Y-96261000D02*
X191006108Y-96261000D01*
G75*
G02*
X191272500Y-96527392I0J-266392D01*
G01*
X191272500Y-97619608D01*
G75*
G02*
X191006108Y-97886000I-266392J0D01*
G01*
X188088892Y-97886000D01*
G75*
G02*
X187822500Y-97619608I0J266392D01*
G01*
X187822500Y-96527392D01*
G75*
G02*
X188088892Y-96261000I266392J0D01*
G01*
G37*
G36*
G01*
X193168892Y-102236000D02*
X196086108Y-102236000D01*
G75*
G02*
X196352500Y-102502392I0J-266392D01*
G01*
X196352500Y-103594608D01*
G75*
G02*
X196086108Y-103861000I-266392J0D01*
G01*
X193168892Y-103861000D01*
G75*
G02*
X192902500Y-103594608I0J266392D01*
G01*
X192902500Y-102502392D01*
G75*
G02*
X193168892Y-102236000I266392J0D01*
G01*
G37*
G36*
G01*
X193168892Y-96261000D02*
X196086108Y-96261000D01*
G75*
G02*
X196352500Y-96527392I0J-266392D01*
G01*
X196352500Y-97619608D01*
G75*
G02*
X196086108Y-97886000I-266392J0D01*
G01*
X193168892Y-97886000D01*
G75*
G02*
X192902500Y-97619608I0J266392D01*
G01*
X192902500Y-96527392D01*
G75*
G02*
X193168892Y-96261000I266392J0D01*
G01*
G37*
G36*
G01*
X194033500Y-82321500D02*
X195333500Y-82321500D01*
G75*
G02*
X195983500Y-82971500I0J-650000D01*
G01*
X195983500Y-84771500D01*
G75*
G02*
X195333500Y-85421500I-650000J0D01*
G01*
X194033500Y-85421500D01*
G75*
G02*
X193383500Y-84771500I0J650000D01*
G01*
X193383500Y-82971500D01*
G75*
G02*
X194033500Y-82321500I650000J0D01*
G01*
G37*
G36*
G01*
X194033500Y-73621500D02*
X195333500Y-73621500D01*
G75*
G02*
X195983500Y-74271500I0J-650000D01*
G01*
X195983500Y-76071500D01*
G75*
G02*
X195333500Y-76721500I-650000J0D01*
G01*
X194033500Y-76721500D01*
G75*
G02*
X193383500Y-76071500I0J650000D01*
G01*
X193383500Y-74271500D01*
G75*
G02*
X194033500Y-73621500I650000J0D01*
G01*
G37*
G36*
G01*
X188953500Y-82321500D02*
X190253500Y-82321500D01*
G75*
G02*
X190903500Y-82971500I0J-650000D01*
G01*
X190903500Y-84771500D01*
G75*
G02*
X190253500Y-85421500I-650000J0D01*
G01*
X188953500Y-85421500D01*
G75*
G02*
X188303500Y-84771500I0J650000D01*
G01*
X188303500Y-82971500D01*
G75*
G02*
X188953500Y-82321500I650000J0D01*
G01*
G37*
G36*
G01*
X188953500Y-73621500D02*
X190253500Y-73621500D01*
G75*
G02*
X190903500Y-74271500I0J-650000D01*
G01*
X190903500Y-76071500D01*
G75*
G02*
X190253500Y-76721500I-650000J0D01*
G01*
X188953500Y-76721500D01*
G75*
G02*
X188303500Y-76071500I0J650000D01*
G01*
X188303500Y-74271500D01*
G75*
G02*
X188953500Y-73621500I650000J0D01*
G01*
G37*
G36*
G01*
X183873500Y-82321500D02*
X185173500Y-82321500D01*
G75*
G02*
X185823500Y-82971500I0J-650000D01*
G01*
X185823500Y-84771500D01*
G75*
G02*
X185173500Y-85421500I-650000J0D01*
G01*
X183873500Y-85421500D01*
G75*
G02*
X183223500Y-84771500I0J650000D01*
G01*
X183223500Y-82971500D01*
G75*
G02*
X183873500Y-82321500I650000J0D01*
G01*
G37*
G36*
G01*
X183873500Y-73621500D02*
X185173500Y-73621500D01*
G75*
G02*
X185823500Y-74271500I0J-650000D01*
G01*
X185823500Y-76071500D01*
G75*
G02*
X185173500Y-76721500I-650000J0D01*
G01*
X183873500Y-76721500D01*
G75*
G02*
X183223500Y-76071500I0J650000D01*
G01*
X183223500Y-74271500D01*
G75*
G02*
X183873500Y-73621500I650000J0D01*
G01*
G37*
G36*
G01*
X178793500Y-82321500D02*
X180093500Y-82321500D01*
G75*
G02*
X180743500Y-82971500I0J-650000D01*
G01*
X180743500Y-84771500D01*
G75*
G02*
X180093500Y-85421500I-650000J0D01*
G01*
X178793500Y-85421500D01*
G75*
G02*
X178143500Y-84771500I0J650000D01*
G01*
X178143500Y-82971500D01*
G75*
G02*
X178793500Y-82321500I650000J0D01*
G01*
G37*
G36*
G01*
X178793500Y-73621500D02*
X180093500Y-73621500D01*
G75*
G02*
X180743500Y-74271500I0J-650000D01*
G01*
X180743500Y-76071500D01*
G75*
G02*
X180093500Y-76721500I-650000J0D01*
G01*
X178793500Y-76721500D01*
G75*
G02*
X178143500Y-76071500I0J650000D01*
G01*
X178143500Y-74271500D01*
G75*
G02*
X178793500Y-73621500I650000J0D01*
G01*
G37*
G36*
G01*
X121206500Y-82333500D02*
X122506500Y-82333500D01*
G75*
G02*
X123156500Y-82983500I0J-650000D01*
G01*
X123156500Y-84783500D01*
G75*
G02*
X122506500Y-85433500I-650000J0D01*
G01*
X121206500Y-85433500D01*
G75*
G02*
X120556500Y-84783500I0J650000D01*
G01*
X120556500Y-82983500D01*
G75*
G02*
X121206500Y-82333500I650000J0D01*
G01*
G37*
G36*
G01*
X121206500Y-73633500D02*
X122506500Y-73633500D01*
G75*
G02*
X123156500Y-74283500I0J-650000D01*
G01*
X123156500Y-76083500D01*
G75*
G02*
X122506500Y-76733500I-650000J0D01*
G01*
X121206500Y-76733500D01*
G75*
G02*
X120556500Y-76083500I0J650000D01*
G01*
X120556500Y-74283500D01*
G75*
G02*
X121206500Y-73633500I650000J0D01*
G01*
G37*
G36*
G01*
X116126500Y-82333500D02*
X117426500Y-82333500D01*
G75*
G02*
X118076500Y-82983500I0J-650000D01*
G01*
X118076500Y-84783500D01*
G75*
G02*
X117426500Y-85433500I-650000J0D01*
G01*
X116126500Y-85433500D01*
G75*
G02*
X115476500Y-84783500I0J650000D01*
G01*
X115476500Y-82983500D01*
G75*
G02*
X116126500Y-82333500I650000J0D01*
G01*
G37*
G36*
G01*
X116126500Y-73633500D02*
X117426500Y-73633500D01*
G75*
G02*
X118076500Y-74283500I0J-650000D01*
G01*
X118076500Y-76083500D01*
G75*
G02*
X117426500Y-76733500I-650000J0D01*
G01*
X116126500Y-76733500D01*
G75*
G02*
X115476500Y-76083500I0J650000D01*
G01*
X115476500Y-74283500D01*
G75*
G02*
X116126500Y-73633500I650000J0D01*
G01*
G37*
G36*
G01*
X111046500Y-82333500D02*
X112346500Y-82333500D01*
G75*
G02*
X112996500Y-82983500I0J-650000D01*
G01*
X112996500Y-84783500D01*
G75*
G02*
X112346500Y-85433500I-650000J0D01*
G01*
X111046500Y-85433500D01*
G75*
G02*
X110396500Y-84783500I0J650000D01*
G01*
X110396500Y-82983500D01*
G75*
G02*
X111046500Y-82333500I650000J0D01*
G01*
G37*
G36*
G01*
X111046500Y-73633500D02*
X112346500Y-73633500D01*
G75*
G02*
X112996500Y-74283500I0J-650000D01*
G01*
X112996500Y-76083500D01*
G75*
G02*
X112346500Y-76733500I-650000J0D01*
G01*
X111046500Y-76733500D01*
G75*
G02*
X110396500Y-76083500I0J650000D01*
G01*
X110396500Y-74283500D01*
G75*
G02*
X111046500Y-73633500I650000J0D01*
G01*
G37*
G36*
G01*
X105966500Y-82333500D02*
X107266500Y-82333500D01*
G75*
G02*
X107916500Y-82983500I0J-650000D01*
G01*
X107916500Y-84783500D01*
G75*
G02*
X107266500Y-85433500I-650000J0D01*
G01*
X105966500Y-85433500D01*
G75*
G02*
X105316500Y-84783500I0J650000D01*
G01*
X105316500Y-82983500D01*
G75*
G02*
X105966500Y-82333500I650000J0D01*
G01*
G37*
G36*
G01*
X105966500Y-73633500D02*
X107266500Y-73633500D01*
G75*
G02*
X107916500Y-74283500I0J-650000D01*
G01*
X107916500Y-76083500D01*
G75*
G02*
X107266500Y-76733500I-650000J0D01*
G01*
X105966500Y-76733500D01*
G75*
G02*
X105316500Y-76083500I0J650000D01*
G01*
X105316500Y-74283500D01*
G75*
G02*
X105966500Y-73633500I650000J0D01*
G01*
G37*
D13*
X132372100Y-130850640D03*
D14*
X134912100Y-130850640D03*
D16*
X122872500Y-138188700D03*
D17*
X122872500Y-135688700D03*
D16*
X107759500Y-137920100D03*
D17*
X107759500Y-135420100D03*
D18*
X113916500Y-94673500D03*
X106416500Y-93040170D03*
D19*
X129171700Y-77152500D03*
D20*
X154114500Y-108013500D03*
X154114500Y-92773500D03*
X161734500Y-90233500D03*
X161734500Y-97853500D03*
D21*
X161734500Y-108013500D03*
D22*
X149288500Y-132397500D03*
X146788500Y-132397500D03*
X144288500Y-132397500D03*
G36*
G01*
X140888500Y-133157794D02*
X140888500Y-131637206D01*
G75*
G02*
X141153206Y-131372500I264706J0D01*
G01*
X142423794Y-131372500D01*
G75*
G02*
X142688500Y-131637206I0J-264706D01*
G01*
X142688500Y-133157794D01*
G75*
G02*
X142423794Y-133422500I-264706J0D01*
G01*
X141153206Y-133422500D01*
G75*
G02*
X140888500Y-133157794I0J264706D01*
G01*
G37*
D23*
X171626500Y-119427500D03*
D24*
X164006500Y-127047500D03*
X169086500Y-119427500D03*
X166546500Y-127047500D03*
X166546500Y-119427500D03*
X169086500Y-127047500D03*
X164006500Y-119427500D03*
X171626500Y-127047500D03*
D23*
X194232500Y-119427500D03*
D24*
X186612500Y-127047500D03*
X191692500Y-119427500D03*
X189152500Y-127047500D03*
X189152500Y-119427500D03*
X191692500Y-127047500D03*
X186612500Y-119427500D03*
X194232500Y-127047500D03*
D23*
X182802500Y-119427500D03*
D24*
X175182500Y-127047500D03*
X180262500Y-119427500D03*
X177722500Y-127047500D03*
X177722500Y-119427500D03*
X180262500Y-127047500D03*
X175182500Y-119427500D03*
X182802500Y-127047500D03*
D23*
X160196500Y-119427500D03*
D24*
X152576500Y-127047500D03*
X157656500Y-119427500D03*
X155116500Y-127047500D03*
X155116500Y-119427500D03*
X157656500Y-127047500D03*
X152576500Y-119427500D03*
X160196500Y-127047500D03*
D25*
X115531900Y-132778500D03*
X115531900Y-135318500D03*
D26*
X115531900Y-137858500D03*
D22*
X174060500Y-133921500D03*
X171560500Y-133921500D03*
X169060500Y-133921500D03*
G36*
G01*
X165660500Y-134681794D02*
X165660500Y-133161206D01*
G75*
G02*
X165925206Y-132896500I264706J0D01*
G01*
X167195794Y-132896500D01*
G75*
G02*
X167460500Y-133161206I0J-264706D01*
G01*
X167460500Y-134681794D01*
G75*
G02*
X167195794Y-134946500I-264706J0D01*
G01*
X165925206Y-134946500D01*
G75*
G02*
X165660500Y-134681794I0J264706D01*
G01*
G37*
D15*
X132056500Y-124269500D03*
G36*
G01*
X135456500Y-123484206D02*
X135456500Y-125054794D01*
G75*
G02*
X135191794Y-125319500I-264706J0D01*
G01*
X133921206Y-125319500D01*
G75*
G02*
X133656500Y-125054794I0J264706D01*
G01*
X133656500Y-123484206D01*
G75*
G02*
X133921206Y-123219500I264706J0D01*
G01*
X135191794Y-123219500D01*
G75*
G02*
X135456500Y-123484206I0J-264706D01*
G01*
G37*
D19*
X157924500Y-136461500D03*
X196024500Y-138493500D03*
D12*
X121856500Y-94678500D03*
X121856500Y-89598500D03*
D20*
X130111500Y-108013500D03*
X130111500Y-92773500D03*
X137731500Y-90233500D03*
X137731500Y-97853500D03*
D21*
X137731500Y-108013500D03*
D20*
X142176500Y-108013500D03*
X142176500Y-92773500D03*
X149796500Y-90233500D03*
X149796500Y-97853500D03*
D21*
X149796500Y-108013500D03*
D20*
X165671500Y-108013500D03*
X165671500Y-92773500D03*
X173291500Y-90233500D03*
X173291500Y-97853500D03*
D21*
X173291500Y-108013500D03*
M02*
