M48
; DRILL file {KiCad (5.1.12)-1} date 01/15/22 16:33:28
; FORMAT={-:-/ absolute / metric / decimal}
; #@! TF.CreationDate,2022-01-15T16:33:28-03:00
; #@! TF.GenerationSoftware,Kicad,Pcbnew,(5.1.12)-1
; #@! TF.FileFunction,Plated,1,2,PTH
FMAT,2
METRIC
T1C0.400
T2C0.600
T3C0.800
T4C0.850
T5C0.900
T6C0.950
T7C1.000
T8C1.100
T9C1.295
T10C2.200
T11C3.200
%
G90
G05
T1
X151.828Y-131.445
X153.099Y-140.081
X155.185Y-128.588
X155.185Y-129.739
X156.591Y-137.058
X158.877Y-150.114
X159.155Y-145.614
X160.205Y-145.614
X161.036Y-150.114
X162.433Y-140.335
X162.433Y-141.478
X162.433Y-142.558
X162.801Y-137.325
X163.639Y-140.335
X163.639Y-141.415
X163.639Y-142.558
X163.837Y-133.54
X163.851Y-137.325
X164.719Y-140.335
X164.719Y-141.478
X164.719Y-142.558
X165.862Y-133.54
X172.847Y-128.207
X172.856Y-133.604
X173.165Y-146.431
X173.99Y-147.32
X174.117Y-135.382
X174.815Y-148.145
X175.577Y-148.907
X176.339Y-149.669
X177.051Y-100.139
X177.228Y-91.961
X177.228Y-150.495
X178.181Y-100.139
X178.346Y-91.961
X178.689Y-132.779
X179.387Y-100.139
X179.514Y-91.948
X180.53Y-100.139
X180.734Y-91.935
X181.864Y-100.139
X181.991Y-91.948
X183.007Y-148.018
X183.325Y-100.139
X183.451Y-91.948
X184.087Y-148.018
X184.404Y-134.493
X184.404Y-135.509
X184.404Y-136.525
X184.404Y-137.605
X184.404Y-138.557
X184.531Y-100.139
X184.658Y-91.948
X185.039Y-148.018
X185.356Y-134.493
X185.356Y-135.509
X185.356Y-136.525
X185.356Y-137.605
X185.356Y-138.557
X185.674Y-100.139
X185.801Y-91.948
X185.992Y-148.018
X186.373Y-134.493
X186.373Y-135.509
X186.373Y-136.525
X186.373Y-137.605
X186.373Y-138.557
X187.007Y-100.139
X187.135Y-91.948
X187.388Y-134.493
X187.388Y-135.509
X187.388Y-136.525
X187.388Y-137.605
X187.388Y-138.557
X187.947Y-126.886
X188.404Y-134.493
X188.404Y-135.509
X188.404Y-136.525
X188.404Y-137.605
X188.404Y-138.557
X188.468Y-100.139
X188.595Y-91.948
X189.674Y-100.139
X189.802Y-91.948
X190.817Y-100.139
X190.945Y-91.948
X191.643Y-130.937
X192.151Y-100.139
X192.278Y-91.948
X192.595Y-130.937
X193.484Y-100.139
X193.611Y-91.948
X193.865Y-132.207
X193.865Y-133.159
X193.865Y-148.082
X194.691Y-100.139
X194.818Y-91.948
X195.834Y-100.139
X195.961Y-91.948
X197.079Y-100.152
X197.129Y-91.948
X198.222Y-100.152
X198.272Y-91.948
T3
X132.644Y-99.014
X136.334Y-137.517
X136.334Y-140.017
X136.334Y-144.589
X136.334Y-147.089
X140.144Y-100.647
X178.498Y-111.061
X178.498Y-118.681
X180.911Y-125.222
X181.038Y-111.061
X181.038Y-118.681
X182.911Y-125.222
X183.578Y-111.061
X183.578Y-118.681
X184.911Y-125.222
X186.118Y-111.061
X186.118Y-118.681
X186.911Y-125.222
X188.278Y-148.844
X189.674Y-111.061
X189.674Y-118.681
X190.278Y-148.844
X192.214Y-111.061
X192.214Y-118.681
X194.754Y-111.061
X194.754Y-118.681
X197.294Y-111.061
X197.294Y-118.681
T4
X157.505Y-147.414
X162.505Y-147.414
T5
X154.686Y-103.822
X154.686Y-106.362
X160.083Y-103.803
X160.083Y-106.343
X165.428Y-103.803
X165.428Y-106.343
X170.826Y-103.803
X170.826Y-106.343
T6
X160.076Y-120.332
X162.576Y-120.332
X165.076Y-120.332
X167.576Y-120.332
T7
X134.556Y-92.265
X139.636Y-92.265
X141.973Y-144.31
X141.973Y-146.85
X146.749Y-89.218
X146.749Y-94.297
X146.992Y-145.453
X147.002Y-138.493
X149.492Y-145.453
X149.502Y-138.493
X155.13Y-119.444
X155.13Y-121.983
T8
X129.222Y-140.525
X129.222Y-143.065
X129.222Y-145.606
X129.476Y-108.587
X129.476Y-128.588
X149.476Y-113.587
X149.476Y-123.587
X154.686Y-88.582
X154.686Y-96.203
X160.083Y-88.563
X160.083Y-96.183
X165.428Y-88.563
X165.428Y-96.183
X170.826Y-88.563
X170.826Y-96.183
T9
X141.749Y-70.858
X141.749Y-79.057
X146.749Y-70.858
X146.749Y-79.057
X155.117Y-70.858
X155.117Y-79.057
X160.117Y-70.858
X160.117Y-79.057
X165.117Y-70.858
X165.117Y-79.057
X170.117Y-70.858
X170.117Y-79.057
X179.387Y-70.858
X179.387Y-79.057
X184.387Y-70.858
X184.387Y-79.057
X189.387Y-70.858
X189.387Y-79.057
X194.387Y-70.858
X194.387Y-79.057
T10
X175.704Y-84.899
X199.174Y-103.289
T11
X132.27Y-74.739
X132.27Y-85.407
X147.256Y-99.377
X198.564Y-85.407
T2
X156.505Y-150.464G85X156.505Y-149.764
G05
X163.505Y-149.764G85X163.505Y-150.464
G05
T0
M30
