M48
; DRILL file {KiCad (5.1.6)-1} date 08/29/21 00:26:04
; FORMAT={-:-/ absolute / inch / decimal}
; #@! TF.CreationDate,2021-08-29T00:26:04+02:00
; #@! TF.GenerationSoftware,Kicad,Pcbnew,(5.1.6)-1
FMAT,2
INCH
T1C0.0157
T2C0.0276
T3C0.0315
T4C0.0394
T5C0.0409
T6C0.0512
T7C0.0551
T8C0.0787
T9C0.0945
T10C0.1299
%
G90
G05
T1
X6.4Y-3.0
T2
X5.75Y-3.2
X6.05Y-3.2
X3.9Y-2.85
X4.0Y-2.75
X4.1Y-2.85
X6.75Y-1.9
X6.75Y-2.2
X3.3Y-2.85
X3.4Y-2.75
X3.5Y-2.85
X6.75Y-1.0
X6.75Y-1.3
X5.75Y-3.0
X6.05Y-3.0
X3.65Y-2.7
X3.65Y-3.0
X2.1Y-2.85
X2.2Y-2.75
X2.3Y-2.85
X6.75Y-2.3
X6.75Y-2.6
X3.85Y-3.1
X4.15Y-3.1
X3.05Y-2.7
X3.05Y-3.0
X3.25Y-3.1
X3.55Y-3.1
X2.7Y-2.85
X2.8Y-2.75
X2.9Y-2.85
X5.75Y-2.9
X6.05Y-2.9
X2.45Y-2.7
X2.45Y-3.0
X2.65Y-3.1
X2.95Y-3.1
X6.75Y-1.45
X6.75Y-1.75
X4.25Y-2.7
X4.25Y-3.0
X5.75Y-3.1
X6.05Y-3.1
X2.05Y-3.1
X2.35Y-3.1
T3
X5.75Y-1.95
X5.75Y-2.05
X5.75Y-2.15
X5.75Y-2.25
X5.75Y-2.35
X5.75Y-2.45
X5.75Y-2.55
X5.75Y-2.65
X6.05Y-1.95
X6.05Y-2.05
X6.05Y-2.15
X6.05Y-2.25
X6.05Y-2.35
X6.05Y-2.45
X6.05Y-2.55
X6.05Y-2.65
T4
X8.05Y-0.9465
X8.05Y-1.1
X8.8673Y-0.8957
X8.8673Y-1.2957
X8.8673Y-1.7457
X6.9827Y-0.9043
X6.9827Y-1.3543
X6.9827Y-1.7543
X7.8Y-1.55
X7.8Y-1.7035
X7.0Y-2.0465
X7.0Y-2.2
X7.8173Y-1.9957
X7.8173Y-2.3957
X7.8173Y-2.8457
X8.0327Y-2.0043
X8.0327Y-2.4543
X8.0327Y-2.8543
X8.85Y-2.65
X8.85Y-2.8035
T5
X4.45Y-1.178
X4.45Y-1.278
X4.45Y-1.378
X4.45Y-1.478
X4.45Y-1.578
X4.45Y-1.678
X4.45Y-1.778
X4.45Y-1.878
X4.45Y-1.978
X4.45Y-2.078
X4.45Y-2.178
X4.45Y-2.278
X4.45Y-2.378
X4.45Y-2.478
X4.45Y-2.578
X4.45Y-2.678
X4.45Y-2.778
X4.45Y-2.878
X4.45Y-2.978
X5.45Y-1.178
X5.45Y-1.278
X5.45Y-1.378
X5.45Y-1.478
X5.45Y-1.578
X5.45Y-1.678
X5.45Y-1.778
X5.45Y-1.878
X5.45Y-1.978
X5.45Y-2.078
X5.45Y-2.178
X5.45Y-2.278
X5.45Y-2.378
X5.45Y-2.478
X5.45Y-2.578
X5.45Y-2.678
X5.45Y-2.778
X5.45Y-2.878
X5.45Y-2.978
T6
X2.65Y-1.75
X2.65Y-2.35
X2.95Y-1.65
X2.95Y-1.95
X2.95Y-2.35
X3.85Y-1.75
X3.85Y-2.35
X4.15Y-1.65
X4.15Y-1.95
X4.15Y-2.35
X3.25Y-1.75
X3.25Y-2.35
X3.55Y-1.65
X3.55Y-1.95
X3.55Y-2.35
X2.1Y-1.75
X2.1Y-2.35
X2.4Y-1.65
X2.4Y-1.95
X2.4Y-2.35
X0.9016Y-1.6
X1.3016Y-3.4
X1.7016Y-1.6
X1.7016Y-3.4
T7
X2.65Y-2.55
X3.05Y-2.55
X3.85Y-2.55
X4.25Y-2.55
X2.05Y-2.55
X2.45Y-2.55
X3.25Y-2.55
X3.65Y-2.55
T8
X7.3398Y-3.1591
X7.3398Y-3.5528
X8.1508Y-3.0409
X8.1508Y-3.5528
X0.9898Y-0.9591
X0.9898Y-1.3528
X1.8008Y-0.8409
X1.8008Y-1.3528
X2.4398Y-0.9591
X2.4398Y-1.3528
X3.2508Y-0.8409
X3.2508Y-1.3528
T9
X7.45Y-3.1
X7.6469Y-3.4937
X7.8437Y-3.1
X8.0406Y-3.4937
X1.1Y-0.9
X1.2969Y-1.2937
X1.4937Y-0.9
X1.6906Y-1.2937
X2.55Y-0.9
X2.7469Y-1.2937
X2.9437Y-0.9
X3.1406Y-1.2937
T10
X7.2531Y-3.3362
X8.2374Y-3.3362
X0.9031Y-1.1362
X1.8874Y-1.1362
X2.3531Y-1.1362
X3.3374Y-1.1362
T0
M30
